<?xml version="1.0" encoding="utf-8"?>
<!DOCTYPE svg PUBLIC "-//W3C//DTD SVG 1.1//EN" "http://www.w3.org/Graphics/SVG/1.1/DTD/svg11.dtd">
<svg version="1.1" xmlns="http://www.w3.org/2000/svg" xmlns:xlink="http://www.w3.org/1999/xlink" x="0px" y="0px" width="100px" height="100px" viewBox="0 0 100 100" enable-background="new 0 0 100 100" xml:space="preserve">
<path d="M32.5,21.211c0.773,0,1.16,0.305,1.16,0.914c-0.234,6.305-0.352,11.449-0.352,15.434v21.867c0,3.609,0.059,5.965,0.176,7.066c0.117,0.938,0.352,1.699,0.703,2.285c0.516,0.938,2.695,1.547,6.539,1.828c0.422,0.047,0.633,0.398,0.633,1.055c0,0.68-0.164,1.02-0.492,1.02c-4.266-0.188-7.652-0.281-10.16-0.281c-2.18,0-5.637,0.094-10.371,0.281c-0.328,0-0.492-0.34-0.492-1.02c0-0.656,0.234-1.008,0.703-1.055c2.297-0.164,3.891-0.398,4.781-0.703c0.68-0.234,1.172-0.609,1.477-1.125c0.586-0.914,0.879-4.031,0.879-9.352V34.148c0-2.789-0.258-4.535-0.773-5.238c-0.469-0.633-1.148-0.949-2.039-0.949c-0.633,0-1.5,0.176-2.602,0.527l-3.164,0.984c-0.609,0-0.914-0.48-0.914-1.441c0-0.281,0.27-0.515,0.809-0.703C23.687,25.641,28.187,23.602,32.5,21.211z"/>
<path d="M68.641,21.563c4.711,0,8.508,2.449,11.391,7.348c2.766,4.664,4.148,10.898,4.148,18.703c0,8.953-1.699,15.797-5.098,20.531c-2.766,3.844-6.246,5.766-10.441,5.766c-5.156,0-9.129-2.461-11.918-7.383c-2.531-4.5-3.797-10.652-3.797-18.457c0-9.164,1.734-16.113,5.203-20.848C60.918,23.449,64.422,21.563,68.641,21.563z M68.641,23.777c-6.211,0-9.316,8.016-9.316,24.047c0,9.047,0.938,15.469,2.813,19.266c1.5,3.047,3.668,4.57,6.504,4.57c3.164,0,5.484-2.004,6.961-6.012c1.453-3.914,2.18-9.855,2.18-17.824C77.781,31.793,74.734,23.777,68.641,23.777z"/>
</svg>