<?xml version="1.0" encoding="utf-8"?>
<!DOCTYPE svg PUBLIC "-//W3C//DTD SVG 1.1//EN" "http://www.w3.org/Graphics/SVG/1.1/DTD/svg11.dtd">
<svg version="1.1" xmlns="http://www.w3.org/2000/svg" xmlns:xlink="http://www.w3.org/1999/xlink" x="0px" y="0px" width="100px" height="100px" viewBox="0 0 100 100" enable-background="new 0 0 100 100" xml:space="preserve">
<path d="M32.5,21.211c0.773,0,1.16,0.305,1.16,0.914c-0.234,6.305-0.352,11.449-0.352,15.434v21.867c0,3.609,0.059,5.965,0.176,7.066c0.117,0.938,0.352,1.699,0.703,2.285c0.516,0.938,2.695,1.547,6.539,1.828c0.422,0.047,0.633,0.398,0.633,1.055c0,0.68-0.164,1.02-0.492,1.02c-4.266-0.188-7.652-0.281-10.16-0.281c-2.18,0-5.637,0.094-10.371,0.281c-0.328,0-0.492-0.34-0.492-1.02c0-0.656,0.234-1.008,0.703-1.055c2.297-0.164,3.891-0.398,4.781-0.703c0.68-0.234,1.172-0.609,1.477-1.125c0.586-0.914,0.879-4.031,0.879-9.352V34.148c0-2.789-0.258-4.535-0.773-5.238c-0.469-0.633-1.148-0.949-2.039-0.949c-0.633,0-1.5,0.176-2.602,0.527l-3.164,0.984c-0.609,0-0.914-0.48-0.914-1.441c0-0.281,0.27-0.515,0.809-0.703C23.687,25.641,28.187,23.602,32.5,21.211z"/>
<path d="M80.84,72.68c-4.57-0.141-9.152-0.211-13.746-0.211c-4.523,0-9.035,0.07-13.535,0.211c-0.586,0-0.879-0.457-0.879-1.371c0-0.68,0.164-1.277,0.492-1.793c4.828-7.102,9.34-13.172,13.535-18.211l1.371-1.582c3.492-4.101,5.801-7.406,6.926-9.914c0.867-1.898,1.301-3.949,1.301-6.152c0-3.375-0.832-5.941-2.496-7.699c-1.359-1.429-3.117-2.145-5.273-2.145c-3.281,0-5.59,1.324-6.926,3.973c-0.469,1.008-0.703,2.707-0.703,5.098c0,0.961-0.551,1.758-1.652,2.391c-0.914,0.563-2.004,0.844-3.27,0.844c-1.477,0-2.215-0.844-2.215-2.531c0-3.046,1.652-5.883,4.957-8.508c2.977-2.343,6.246-3.516,9.809-3.516c4.359,0,7.875,1.243,10.547,3.727c2.414,2.25,3.621,5.133,3.621,8.648c0,3.094-0.68,5.743-2.039,7.945c-1.266,2.086-3.586,4.653-6.961,7.699l-2.215,2.004c-6.305,5.672-10.969,10.957-13.992,15.855h11.953c3.164,0,5.355-0.129,6.574-0.387c0.984-0.188,1.84-0.563,2.566-1.125c1.43-1.055,2.73-2.93,3.902-5.625c0.141-0.328,0.328-0.492,0.563-0.492c0.328,0,0.645,0.082,0.949,0.246c0.281,0.141,0.422,0.293,0.422,0.457l-0.07,0.387C83.184,65.355,82.012,69.281,80.84,72.68z"/>
</svg>