<?xml version="1.0" encoding="utf-8"?>
<!DOCTYPE svg PUBLIC "-//W3C//DTD SVG 1.1//EN" "http://www.w3.org/Graphics/SVG/1.1/DTD/svg11.dtd">
<svg version="1.1" xmlns="http://www.w3.org/2000/svg" xmlns:xlink="http://www.w3.org/1999/xlink" x="0px" y="0px" width="100px" height="100px" viewBox="0 0 100 100" enable-background="new 0 0 100 100" xml:space="preserve">
<path d="M32.5,21.211c0.773,0,1.16,0.305,1.16,0.914c-0.234,6.305-0.352,11.449-0.352,15.434v21.867c0,3.609,0.059,5.965,0.176,7.066c0.117,0.938,0.352,1.699,0.703,2.285c0.516,0.938,2.695,1.547,6.539,1.828c0.422,0.047,0.633,0.398,0.633,1.055c0,0.68-0.164,1.02-0.492,1.02c-4.266-0.188-7.652-0.281-10.16-0.281c-2.18,0-5.637,0.094-10.371,0.281c-0.328,0-0.492-0.34-0.492-1.02c0-0.656,0.234-1.008,0.703-1.055c2.297-0.164,3.891-0.398,4.781-0.703c0.68-0.234,1.172-0.609,1.477-1.125c0.586-0.914,0.879-4.031,0.879-9.352V34.148c0-2.789-0.258-4.535-0.773-5.238c-0.469-0.633-1.148-0.949-2.039-0.949c-0.633,0-1.5,0.176-2.602,0.527l-3.164,0.984c-0.609,0-0.914-0.48-0.914-1.441c0-0.281,0.27-0.515,0.809-0.703C23.687,25.641,28.187,23.602,32.5,21.211z"/>
<path d="M70.996,45.68c4.172,0.727,7.359,2.355,9.563,4.887c1.922,2.227,2.883,4.945,2.883,8.156c0,4.945-1.629,8.813-4.887,11.602c-2.836,2.391-6.48,3.586-10.934,3.586c-3.82,0-7.23-0.938-10.23-2.813c-3.023-1.852-4.535-3.773-4.535-5.766c0-0.891,0.457-1.641,1.371-2.25c0.82-0.516,1.805-0.773,2.953-0.773c1.102,0,2.203,1.371,3.305,4.113l0.352,0.844c1.242,2.883,3.504,4.324,6.785,4.324c3.141,0,5.566-1.254,7.277-3.762c1.523-2.273,2.285-5.391,2.285-9.352c0-3.68-1.031-6.574-3.094-8.684c-1.805-1.828-4.113-2.742-6.926-2.742l-3.797,0.211c-0.586,0-0.879-0.269-0.879-0.809c0-1.429,0.504-2.145,1.512-2.145l2.461,0.211c2.93,0,5.262-1.125,6.996-3.375c1.523-2.016,2.285-4.558,2.285-7.629c0-3.328-0.762-5.848-2.285-7.559c-1.336-1.453-3.117-2.18-5.344-2.18c-3.094,0-5.203,1.055-6.328,3.164c-0.492,0.961-0.738,2.168-0.738,3.621c0,1.032-0.516,1.875-1.547,2.531c-0.914,0.563-1.98,0.844-3.199,0.844c-1.477,0-2.215-0.691-2.215-2.074c0-2.695,1.559-5.145,4.676-7.348c2.789-1.969,5.906-2.953,9.352-2.953c4.289,0,7.699,1.208,10.23,3.621c2.25,2.157,3.375,4.934,3.375,8.332c0,6.117-3.574,10.078-10.723,11.883V45.68z"/>
</svg>