<?xml version="1.0" encoding="utf-8"?>
<!DOCTYPE svg PUBLIC "-//W3C//DTD SVG 1.1//EN" "http://www.w3.org/Graphics/SVG/1.1/DTD/svg11.dtd">
<svg version="1.1" xmlns="http://www.w3.org/2000/svg" xmlns:xlink="http://www.w3.org/1999/xlink" x="0px" y="0px" width="100px" height="100px" viewBox="0 0 100 100" enable-background="new 0 0 100 100" xml:space="preserve">
<path d="M32.5,21.211c0.773,0,1.16,0.305,1.16,0.914c-0.234,6.305-0.352,11.449-0.352,15.434v21.867c0,3.609,0.059,5.965,0.176,7.066c0.117,0.938,0.352,1.699,0.703,2.285c0.516,0.938,2.695,1.547,6.539,1.828c0.422,0.047,0.633,0.398,0.633,1.055c0,0.68-0.164,1.02-0.492,1.02c-4.266-0.188-7.652-0.281-10.16-0.281c-2.18,0-5.637,0.094-10.371,0.281c-0.328,0-0.492-0.34-0.492-1.02c0-0.656,0.234-1.008,0.703-1.055c2.297-0.164,3.891-0.398,4.781-0.703c0.68-0.234,1.172-0.609,1.477-1.125c0.586-0.914,0.879-4.031,0.879-9.352V34.148c0-2.789-0.258-4.535-0.773-5.238c-0.469-0.633-1.148-0.949-2.039-0.949c-0.633,0-1.5,0.176-2.602,0.527l-3.164,0.984c-0.609,0-0.914-0.48-0.914-1.441c0-0.281,0.27-0.515,0.809-0.703C23.687,25.641,28.187,23.602,32.5,21.211z"/>
<path d="M60.133,28.348l-1.23,14.098c-0.07,0.961-0.164,2.203-0.281,3.727c2.508-2.883,5.848-4.324,10.02-4.324c4.711,0,8.391,1.57,11.039,4.711c2.273,2.719,3.41,6.211,3.41,10.477c0,5.438-1.688,9.727-5.063,12.867c-2.883,2.672-6.48,4.008-10.793,4.008c-3.375,0-6.563-0.82-9.563-2.461c-3.211-1.734-4.816-3.679-4.816-5.836c0-0.797,0.445-1.488,1.336-2.074c0.797-0.539,1.746-0.809,2.848-0.809c0.68,0,1.23,0.281,1.652,0.844c0.445,0.539,0.996,1.582,1.652,3.129l0.352,0.879c1.172,2.719,3.363,4.078,6.574,4.078c3.141,0,5.555-1.371,7.242-4.113c1.547-2.531,2.32-6.012,2.32-10.441c0-4.125-1.055-7.371-3.164-9.738c-1.711-1.945-3.797-2.918-6.258-2.918c-3.82,0-6.773,1.735-8.859,5.203c-0.258,0.375-0.598,0.563-1.02,0.563c-1.336,0-2.004-0.387-2.004-1.16c0-0.093,0.047-0.363,0.141-0.809c0.094-0.445,0.164-1.007,0.211-1.688l1.934-22.254c0-0.328,0.152-0.645,0.457-0.949c0.281-0.281,0.539-0.422,0.773-0.422c1.922,0.047,5.473,0.07,10.652,0.07c3.82,0,7.664-0.117,11.531-0.352c0.422,0,0.633,0.211,0.633,0.633l-1.723,4.711c-0.141,0.329-0.398,0.492-0.773,0.492c-4.008-0.093-6.75-0.141-8.227-0.141H60.133z"/>
</svg>