<?xml version="1.0" encoding="utf-8"?>
<!DOCTYPE svg PUBLIC "-//W3C//DTD SVG 1.1//EN" "http://www.w3.org/Graphics/SVG/1.1/DTD/svg11.dtd">
<svg version="1.1" xmlns="http://www.w3.org/2000/svg" xmlns:xlink="http://www.w3.org/1999/xlink" x="0px" y="0px" width="100px" height="100px" viewBox="0 0 100 100" enable-background="new 0 0 100 100" xml:space="preserve">
<line fill="none" stroke="#006837" stroke-width="4" stroke-linecap="round" stroke-miterlimit="10" x1="34.968" y1="59.984" x2="34.968" y2="34.985"/>
<line fill="none" stroke="#1B1464" stroke-width="4" stroke-linecap="round" stroke-miterlimit="10" x1="13.329" y1="72.516" x2="34.98" y2="60.016"/>
<line fill="none" stroke="#1B1464" stroke-width="4" stroke-linecap="round" stroke-miterlimit="10" x1="13.329" y1="47.52" x2="34.98" y2="35.02"/>
<line fill="none" stroke="#C1272D" stroke-width="4" stroke-linecap="round" stroke-miterlimit="10" x1="56.65" y1="72.475" x2="35" y2="59.975"/>
<line fill="none" stroke="#C1272D" stroke-width="4" stroke-linecap="round" stroke-miterlimit="10" x1="56.65" y1="47.48" x2="35" y2="34.98"/>
<line fill="none" stroke="#C1272D" stroke-width="4" stroke-linecap="round" stroke-miterlimit="10" x1="34.992" y1="84.994" x2="13.342" y2="72.494"/>
<line fill="none" stroke="#006837" stroke-width="4" stroke-linecap="round" stroke-miterlimit="10" x1="13.356" y1="47.471" x2="13.359" y2="72.461"/>
<line fill="none" stroke="#1B1464" stroke-width="4" stroke-linecap="round" stroke-miterlimit="10" x1="34.997" y1="84.995" x2="56.647" y2="72.495"/>
<line fill="none" stroke="#006837" stroke-width="4" stroke-linecap="round" stroke-miterlimit="10" x1="56.647" y1="47.5" x2="56.65" y2="72.49"/>
<line fill="none" stroke="#006837" stroke-width="4" stroke-linecap="round" stroke-miterlimit="10" x1="34.992" y1="84.995" x2="34.992" y2="59.995"/>
<line fill="none" stroke="#C1272D" stroke-width="4" stroke-linecap="round" stroke-miterlimit="10" x1="34.992" y1="59.999" x2="13.342" y2="47.499"/>
<line fill="none" stroke="#1B1464" stroke-width="4" stroke-linecap="round" stroke-miterlimit="10" x1="34.997" y1="60" x2="56.647" y2="47.5"/>
<path d="M35.023,16.512l-1.559,0.48c-0.672-2.641-2.203-3.961-4.594-3.961c-1.742,0-3.117,0.754-4.125,2.262c-0.93,1.375-1.395,3.188-1.395,5.438c0,2.57,0.598,4.559,1.793,5.965c0.992,1.164,2.234,1.746,3.727,1.746c2.516,0,4.102-1.344,4.758-4.031l1.535,0.574c-1,3.219-3.105,4.828-6.316,4.828c-2.227,0-4.008-0.898-5.344-2.695c-1.219-1.633-1.828-3.75-1.828-6.352c0-3,0.785-5.34,2.355-7.02c1.297-1.391,2.902-2.086,4.816-2.086c1.656,0,3.039,0.488,4.148,1.465C33.949,13.961,34.625,15.09,35.023,16.512z"/>
<path d="M40.262,11.66v7.992c1.359-1.648,2.805-2.473,4.336-2.473c1.078,0,1.926,0.34,2.543,1.02c0.547,0.602,0.82,1.383,0.82,2.344v8.93h-1.512v-8.285c0-1.773-0.742-2.66-2.227-2.66c-1.375,0-2.695,0.832-3.961,2.496v8.449h-1.488V11.66H40.262z"/>
<path d="M52.355,20.262c0.719-2.055,2.293-3.082,4.723-3.082c2.836,0,4.254,1.328,4.254,3.984v4.23c0,1.602,0.098,2.961,0.293,4.078H60.23c-0.102-0.461-0.191-1.164-0.27-2.109c-1.055,1.602-2.5,2.402-4.336,2.402c-1.273,0-2.246-0.367-2.918-1.102c-0.57-0.617-0.855-1.41-0.855-2.379c0-2.172,1.352-3.484,4.055-3.938c1.055-0.18,2.383-0.309,3.984-0.387v-0.645c0-1.141-0.25-1.934-0.75-2.379c-0.438-0.391-1.133-0.586-2.086-0.586c-1.719,0-2.82,0.805-3.305,2.414L52.355,20.262z M59.891,23.063c-1.203,0.023-2.426,0.152-3.668,0.387c-1.922,0.391-2.883,1.313-2.883,2.766c0,0.781,0.25,1.383,0.75,1.805c0.445,0.383,1.043,0.574,1.793,0.574c1.609,0,2.945-0.867,4.008-2.602V23.063z"/>
<path d="M67.531,17.473v2.227c1.344-1.68,2.805-2.52,4.383-2.52c1.086,0,1.934,0.34,2.543,1.02c0.547,0.602,0.82,1.391,0.82,2.367v8.906h-1.512v-8.285c0-1.773-0.742-2.66-2.227-2.66c-1.391,0-2.711,0.832-3.961,2.496v8.449H66.09v-12H67.531z"/>
<path d="M89.152,17.473l-4.242,4.535l4.605,7.465H87.84l-3.938-6.48L81.5,25.488v3.984h-1.488V11.66H81.5v12.176l5.836-6.363H89.152z"/>
</svg>