<?xml version="1.0" encoding="utf-8"?>
<!DOCTYPE svg PUBLIC "-//W3C//DTD SVG 1.1//EN" "http://www.w3.org/Graphics/SVG/1.1/DTD/svg11.dtd">
<svg version="1.1" xmlns="http://www.w3.org/2000/svg" xmlns:xlink="http://www.w3.org/1999/xlink" x="0px" y="0px" width="100px" height="100px" viewBox="0 0 100 100" enable-background="new 0 0 100 100" xml:space="preserve">
<polygon fill="#FFFFFF" points="42,24 42,22 44,22 55,22 55,20 40,5 5,5 5,75 42,75 "/>
<polygon fill="#666666" points="42,74 6,74 6,6 39.586,6 54,20.414 54,22 56,22 56,19.586 40.414,4 4,4 4,76 42,76 "/>
<line fill="none" stroke="#0071BC" stroke-width="3" stroke-linecap="round" stroke-miterlimit="10" x1="10" y1="15" x2="35" y2="15"/>
<polyline fill="none" stroke="#666666" stroke-width="2" stroke-miterlimit="10" points="55,20 40,20 40,5 "/>
<path fill="#0071BC" d="M42,63.5H10c-0.829,0-1.5,0.672-1.5,1.5s0.671,1.5,1.5,1.5h32V63.5z"/>
<path fill="#0071BC" d="M42,24v-0.5H10c-0.829,0-1.5,0.671-1.5,1.5s0.671,1.5,1.5,1.5h32V24z"/>
<path fill="#0071BC" d="M42,33.5H10c-0.829,0-1.5,0.671-1.5,1.5s0.671,1.5,1.5,1.5h32V33.5z"/>
<path fill="#0071BC" d="M42,43.5H10c-0.829,0-1.5,0.671-1.5,1.5s0.671,1.5,1.5,1.5h32V43.5z"/>
<path fill="#0071BC" d="M42,53.5H10c-0.829,0-1.5,0.672-1.5,1.5s0.671,1.5,1.5,1.5h32V53.5z"/>
<polygon fill="#FFFFFF" stroke="#666666" stroke-width="2" stroke-miterlimit="10" points="45,95 95,95 95,40 80,25 45,25 "/>
<polyline fill="none" stroke="#666666" stroke-width="2" stroke-miterlimit="10" points="95,40 80,40 80,25 "/>
<line fill="none" stroke="#0071BC" stroke-width="3" stroke-linecap="round" stroke-miterlimit="10" x1="50" y1="35" x2="75" y2="35"/>
<line fill="none" stroke="#0071BC" stroke-width="3" stroke-linecap="round" stroke-miterlimit="10" x1="90" y1="45" x2="50" y2="45"/>
<line fill="none" stroke="#0071BC" stroke-width="3" stroke-linecap="round" stroke-miterlimit="10" x1="50" y1="55" x2="90" y2="55"/>
<line fill="none" stroke="#0071BC" stroke-width="3" stroke-linecap="round" stroke-miterlimit="10" x1="50" y1="65" x2="90" y2="65"/>
<line fill="none" stroke="#0071BC" stroke-width="3" stroke-linecap="round" stroke-miterlimit="10" x1="50" y1="75" x2="90" y2="75"/>
<line fill="none" stroke="#0071BC" stroke-width="3" stroke-linecap="round" stroke-miterlimit="10" x1="50" y1="85" x2="90" y2="85"/>
</svg>