<?xml version="1.0" encoding="utf-8"?>
<!DOCTYPE svg PUBLIC "-//W3C//DTD SVG 1.1//EN" "http://www.w3.org/Graphics/SVG/1.1/DTD/svg11.dtd">
<svg version="1.1" xmlns="http://www.w3.org/2000/svg" xmlns:xlink="http://www.w3.org/1999/xlink" x="0px" y="0px" width="100px" height="100px" viewBox="0 0 100 100" enable-background="new 0 0 100 100" xml:space="preserve">
<line display="none" fill="none" stroke="#006837" stroke-width="4" stroke-linecap="round" stroke-miterlimit="10" x1="66.639" y1="39.989" x2="66.639" y2="14.99"/>
<line display="none" fill="none" stroke="#1B1464" stroke-width="4" stroke-linecap="round" stroke-miterlimit="10" x1="45" y1="52.521" x2="66.65" y2="40.021"/>
<line display="none" fill="none" stroke="#C1272D" stroke-width="4" stroke-linecap="round" stroke-miterlimit="10" x1="88.321" y1="52.479" x2="66.671" y2="39.979"/>
<polygon fill="#009245" points="88.32,27.48 88.32,27.5 66.67,40 66.66,40 45.03,27.51 45.03,27.5 66.65,15.02 66.67,14.98 "/>
<polygon fill="#8C6239" points="66.66,40 66.66,65 45.01,52.5 45.03,52.47 45.03,27.51 "/>
<polygon fill="#8C6239" points="88.32,27.5 88.32,52.5 66.67,65 66.66,65 66.66,40 66.67,40 "/>
<line fill="none" stroke="#1B1464" stroke-width="4" stroke-linecap="round" stroke-miterlimit="10" x1="45.03" y1="27.5" x2="66.65" y2="15.02"/>
<line fill="none" stroke="#1B1464" stroke-width="4" stroke-linecap="round" stroke-miterlimit="10" x1="45" y1="27.52" x2="45.02" y2="27.51"/>
<line fill="none" stroke="#C1272D" stroke-width="4" stroke-linecap="round" stroke-miterlimit="10" x1="88.32" y1="27.48" x2="66.67" y2="14.98"/>
<line fill="none" stroke="#C1272D" stroke-width="4" stroke-linecap="round" stroke-miterlimit="10" x1="66.66" y1="65" x2="45.01" y2="52.5"/>
<polyline fill="none" stroke="#006837" stroke-width="4" stroke-linecap="round" stroke-miterlimit="10" points="45.03,27.48 45.03,27.5 45.03,27.51 45.03,52.47 "/>
<line fill="none" stroke="#1B1464" stroke-width="4" stroke-linecap="round" stroke-miterlimit="10" x1="66.67" y1="65" x2="88.32" y2="52.5"/>
<line fill="none" stroke="#006837" stroke-width="4" stroke-linecap="round" stroke-miterlimit="10" x1="88.32" y1="27.5" x2="88.32" y2="52.5"/>
<line fill="none" stroke="#006837" stroke-width="4" stroke-linecap="round" stroke-miterlimit="10" x1="66.66" y1="65" x2="66.66" y2="40"/>
<polyline fill="none" stroke="#C1272D" stroke-width="4" stroke-linecap="round" stroke-miterlimit="10" points="66.66,40 45.03,27.51 45.02,27.51 45.01,27.5 "/>
<line fill="none" stroke="#1B1464" stroke-width="4" stroke-linecap="round" stroke-miterlimit="10" x1="66.67" y1="40" x2="88.32" y2="27.5"/>
<line display="none" fill="none" stroke="#006837" stroke-width="4" stroke-linecap="round" stroke-miterlimit="10" x1="34.968" y1="59.984" x2="34.968" y2="34.985"/>
<line display="none" fill="none" stroke="#1B1464" stroke-width="4" stroke-linecap="round" stroke-miterlimit="10" x1="13.329" y1="72.516" x2="34.98" y2="60.016"/>
<line display="none" fill="none" stroke="#C1272D" stroke-width="4" stroke-linecap="round" stroke-miterlimit="10" x1="56.65" y1="72.475" x2="35" y2="59.975"/>
<polygon fill="#999999" points="34.99,60 34.99,84.99 13.34,72.49 13.36,72.46 13.36,47.51 "/>
<polygon fill="#999999" points="56.65,72.49 56.65,72.5 35,85 34.99,85 34.99,84.99 34.99,60 35,60 56.65,47.5 "/>
<polygon fill="#999999" points="56.65,47.48 56.65,47.5 35,60 34.99,60 13.36,47.51 13.36,47.5 34.98,35.02 35,34.98 "/>
<line fill="none" stroke="#1B1464" stroke-width="4" stroke-linecap="round" stroke-miterlimit="10" x1="13.36" y1="47.5" x2="34.98" y2="35.02"/>
<line fill="none" stroke="#1B1464" stroke-width="4" stroke-linecap="round" stroke-miterlimit="10" x1="13.33" y1="47.52" x2="13.35" y2="47.51"/>
<line fill="none" stroke="#C1272D" stroke-width="4" stroke-linecap="round" stroke-miterlimit="10" x1="56.65" y1="47.48" x2="35" y2="34.98"/>
<line fill="none" stroke="#C1272D" stroke-width="4" stroke-linecap="round" stroke-miterlimit="10" x1="34.99" y1="84.99" x2="13.34" y2="72.49"/>
<polyline fill="none" stroke="#006837" stroke-width="4" stroke-linecap="round" stroke-miterlimit="10" points="13.36,47.47 13.36,47.5 13.36,47.51 13.36,72.46 "/>
<line fill="none" stroke="#1B1464" stroke-width="4" stroke-linecap="round" stroke-miterlimit="10" x1="35" y1="85" x2="56.65" y2="72.5"/>
<line fill="none" stroke="#006837" stroke-width="4" stroke-linecap="round" stroke-miterlimit="10" x1="56.65" y1="47.5" x2="56.65" y2="72.49"/>
<polyline fill="none" stroke="#006837" stroke-width="4" stroke-linecap="round" stroke-miterlimit="10" points="34.99,85 34.99,84.99 34.99,60 "/>
<polyline fill="none" stroke="#C1272D" stroke-width="4" stroke-linecap="round" stroke-miterlimit="10" points="34.99,60 13.36,47.51 13.35,47.51 13.34,47.5 "/>
<line fill="none" stroke="#1B1464" stroke-width="4" stroke-linecap="round" stroke-miterlimit="10" x1="35" y1="60" x2="56.65" y2="47.5"/>
<path d="M86.933,74.174l0.517-1.928l-1.928-0.517c-0.002-0.001-0.005-0.001-0.008-0.002l-13.656-3.659c-1.071-0.289-2.163,0.348-2.449,1.414s0.347,2.163,1.414,2.449l8.996,2.41l-21.8,12.586c-0.957,0.553-1.284,1.775-0.732,2.732c0.371,0.642,1.043,1,1.734,1c0.339,0,0.683-0.086,0.998-0.268l21.8-12.586l-2.41,8.996c-0.286,1.066,0.347,2.163,1.414,2.449c0.174,0.047,0.348,0.069,0.519,0.069c0.883-0.001,1.691-0.59,1.931-1.483l3.659-13.656C86.932,74.18,86.932,74.177,86.933,74.174z"/>
</svg>