<?xml version="1.0" encoding="utf-8"?>
<!DOCTYPE svg PUBLIC "-//W3C//DTD SVG 1.1//EN" "http://www.w3.org/Graphics/SVG/1.1/DTD/svg11.dtd">
<svg version="1.1" xmlns="http://www.w3.org/2000/svg" xmlns:xlink="http://www.w3.org/1999/xlink" x="0px" y="0px" width="100px" height="100px" viewBox="0 0 100 100" enable-background="new 0 0 100 100" xml:space="preserve">
<line fill="none" stroke="#006837" stroke-width="4" stroke-linecap="round" stroke-miterlimit="10" x1="66.639" y1="39.989" x2="66.639" y2="39.489"/>
<line fill="none" stroke="#006837" stroke-width="4" stroke-linecap="round" stroke-miterlimit="10" stroke-dasharray="0.8889,5.3332" x1="66.639" y1="34.156" x2="66.639" y2="18.156"/>
<line fill="none" stroke="#006837" stroke-width="4" stroke-linecap="round" stroke-miterlimit="10" x1="66.639" y1="15.49" x2="66.639" y2="14.99"/>
<line fill="none" stroke="#1B1464" stroke-width="4" stroke-linecap="round" stroke-miterlimit="10" x1="45" y1="52.521" x2="45.433" y2="52.271"/>
<line fill="none" stroke="#1B1464" stroke-width="4" stroke-linecap="round" stroke-miterlimit="10" stroke-dasharray="0.8889,5.3333" x1="50.052" y1="49.604" x2="63.908" y2="41.604"/>
<line fill="none" stroke="#1B1464" stroke-width="4" stroke-linecap="round" stroke-miterlimit="10" x1="66.218" y1="40.271" x2="66.65" y2="40.021"/>
<line fill="none" stroke="#C1272D" stroke-width="4" stroke-linecap="round" stroke-miterlimit="10" x1="88.321" y1="52.479" x2="87.889" y2="52.229"/>
<line fill="none" stroke="#C1272D" stroke-width="4" stroke-linecap="round" stroke-miterlimit="10" stroke-dasharray="0.8889,5.3333" x1="83.27" y1="49.563" x2="69.413" y2="41.563"/>
<line fill="none" stroke="#C1272D" stroke-width="4" stroke-linecap="round" stroke-miterlimit="10" x1="67.104" y1="40.229" x2="66.671" y2="39.979"/>
<line fill="none" stroke="#1B1464" stroke-width="4" stroke-linecap="round" stroke-linejoin="round" x1="45" y1="27.52" x2="45.433" y2="27.27"/>
<line fill="none" stroke="#1B1464" stroke-width="4" stroke-linecap="round" stroke-linejoin="round" stroke-dasharray="0.8889,5.3333" x1="50.052" y1="24.604" x2="63.908" y2="16.604"/>
<line fill="none" stroke="#1B1464" stroke-width="4" stroke-linecap="round" stroke-linejoin="round" x1="66.218" y1="15.27" x2="66.65" y2="15.02"/>
<line fill="none" stroke="#C1272D" stroke-width="4" stroke-linecap="round" stroke-linejoin="round" x1="88.32" y1="27.48" x2="87.888" y2="27.23"/>
<line fill="none" stroke="#C1272D" stroke-width="4" stroke-linecap="round" stroke-linejoin="round" stroke-dasharray="0.8889,5.3333" x1="83.269" y1="24.563" x2="69.412" y2="16.563"/>
<line fill="none" stroke="#C1272D" stroke-width="4" stroke-linecap="round" stroke-linejoin="round" x1="67.103" y1="15.23" x2="66.67" y2="14.98"/>
<line fill="none" stroke="#C1272D" stroke-width="4" stroke-linecap="round" stroke-linejoin="round" x1="66.66" y1="65" x2="66.228" y2="64.75"/>
<line fill="none" stroke="#C1272D" stroke-width="4" stroke-linecap="round" stroke-linejoin="round" stroke-dasharray="0.8889,5.3333" x1="61.608" y1="62.083" x2="47.752" y2="54.083"/>
<line fill="none" stroke="#C1272D" stroke-width="4" stroke-linecap="round" stroke-linejoin="round" x1="45.443" y1="52.75" x2="45.01" y2="52.5"/>
<line fill="none" stroke="#006837" stroke-width="4" stroke-linecap="round" stroke-linejoin="round" x1="45.03" y1="27.48" x2="45.03" y2="27.98"/>
<line fill="none" stroke="#006837" stroke-width="4" stroke-linecap="round" stroke-linejoin="round" stroke-dasharray="0.8885,5.3311" x1="45.03" y1="33.311" x2="45.03" y2="49.304"/>
<line fill="none" stroke="#006837" stroke-width="4" stroke-linecap="round" stroke-linejoin="round" x1="45.03" y1="51.97" x2="45.03" y2="52.47"/>
<line fill="none" stroke="#1B1464" stroke-width="4" stroke-linecap="round" stroke-linejoin="round" x1="66.67" y1="65" x2="67.103" y2="64.75"/>
<line fill="none" stroke="#1B1464" stroke-width="4" stroke-linecap="round" stroke-linejoin="round" stroke-dasharray="0.8889,5.3333" x1="71.722" y1="62.083" x2="85.578" y2="54.083"/>
<line fill="none" stroke="#1B1464" stroke-width="4" stroke-linecap="round" stroke-linejoin="round" x1="87.888" y1="52.75" x2="88.32" y2="52.5"/>
<line fill="none" stroke="#006837" stroke-width="4" stroke-linecap="round" stroke-linejoin="round" x1="88.32" y1="27.5" x2="88.32" y2="28"/>
<line fill="none" stroke="#006837" stroke-width="4" stroke-linecap="round" stroke-linejoin="round" stroke-dasharray="0.8889,5.3333" x1="88.32" y1="33.333" x2="88.32" y2="49.333"/>
<line fill="none" stroke="#006837" stroke-width="4" stroke-linecap="round" stroke-linejoin="round" x1="88.32" y1="52" x2="88.32" y2="52.5"/>
<line fill="#006837" x1="66.66" y1="65" x2="66.66" y2="40"/>
<line fill="none" stroke="#006837" stroke-width="4" stroke-linecap="round" stroke-linejoin="round" x1="66.66" y1="65" x2="66.66" y2="64.5"/>
<line fill="none" stroke="#006837" stroke-width="4" stroke-linecap="round" stroke-linejoin="round" stroke-dasharray="0.8889,5.3333" x1="66.66" y1="59.167" x2="66.66" y2="43.167"/>
<line fill="none" stroke="#006837" stroke-width="4" stroke-linecap="round" stroke-linejoin="round" x1="66.66" y1="40.5" x2="66.66" y2="40"/>
<line fill="none" stroke="#C1272D" stroke-width="4" stroke-linecap="round" stroke-linejoin="round" x1="66.66" y1="40" x2="66.228" y2="39.75"/>
<line fill="none" stroke="#C1272D" stroke-width="4" stroke-linecap="round" stroke-linejoin="round" stroke-dasharray="0.8889,5.3333" x1="61.608" y1="37.083" x2="47.752" y2="29.083"/>
<line fill="none" stroke="#C1272D" stroke-width="4" stroke-linecap="round" stroke-linejoin="round" x1="45.443" y1="27.75" x2="45.01" y2="27.5"/>
<line fill="none" stroke="#1B1464" stroke-width="4" stroke-linecap="round" stroke-linejoin="round" x1="66.67" y1="40" x2="67.103" y2="39.75"/>
<line fill="none" stroke="#1B1464" stroke-width="4" stroke-linecap="round" stroke-linejoin="round" stroke-dasharray="0.8889,5.3333" x1="71.722" y1="37.083" x2="85.578" y2="29.083"/>
<line fill="none" stroke="#1B1464" stroke-width="4" stroke-linecap="round" stroke-linejoin="round" x1="87.888" y1="27.75" x2="88.32" y2="27.5"/>
<line fill="none" stroke="#006837" stroke-width="4" stroke-linecap="round" stroke-miterlimit="10" x1="34.968" y1="59.984" x2="34.968" y2="34.985"/>
<line fill="none" stroke="#1B1464" stroke-width="4" stroke-linecap="round" stroke-miterlimit="10" x1="13.329" y1="72.516" x2="34.98" y2="60.016"/>
<line fill="none" stroke="#1B1464" stroke-width="4" stroke-linecap="round" stroke-miterlimit="10" x1="13.329" y1="47.52" x2="34.98" y2="35.02"/>
<line fill="none" stroke="#C1272D" stroke-width="4" stroke-linecap="round" stroke-miterlimit="10" x1="56.65" y1="72.475" x2="35" y2="59.975"/>
<line fill="none" stroke="#C1272D" stroke-width="4" stroke-linecap="round" stroke-miterlimit="10" x1="56.65" y1="47.48" x2="35" y2="34.98"/>
<line fill="none" stroke="#C1272D" stroke-width="4" stroke-linecap="round" stroke-miterlimit="10" x1="34.992" y1="84.994" x2="13.342" y2="72.494"/>
<line fill="none" stroke="#006837" stroke-width="4" stroke-linecap="round" stroke-miterlimit="10" x1="13.356" y1="47.471" x2="13.359" y2="72.461"/>
<line fill="none" stroke="#1B1464" stroke-width="4" stroke-linecap="round" stroke-miterlimit="10" x1="34.997" y1="84.995" x2="56.647" y2="72.495"/>
<line fill="none" stroke="#006837" stroke-width="4" stroke-linecap="round" stroke-miterlimit="10" x1="56.647" y1="47.5" x2="56.65" y2="72.49"/>
<line fill="none" stroke="#006837" stroke-width="4" stroke-linecap="round" stroke-miterlimit="10" x1="34.992" y1="84.995" x2="34.992" y2="59.995"/>
<line fill="none" stroke="#C1272D" stroke-width="4" stroke-linecap="round" stroke-miterlimit="10" x1="34.992" y1="59.999" x2="13.342" y2="47.499"/>
<line fill="none" stroke="#1B1464" stroke-width="4" stroke-linecap="round" stroke-miterlimit="10" x1="34.997" y1="60" x2="56.647" y2="47.5"/>
<path d="M86.933,74.174l0.517-1.928l-1.928-0.517c-0.002-0.001-0.005-0.001-0.008-0.002l-13.656-3.659c-1.071-0.289-2.163,0.348-2.449,1.414s0.347,2.163,1.414,2.449l8.996,2.41l-21.8,12.586c-0.957,0.553-1.284,1.775-0.732,2.732c0.371,0.642,1.043,1,1.734,1c0.339,0,0.683-0.086,0.998-0.268l21.8-12.586l-2.41,8.996c-0.286,1.066,0.347,2.163,1.414,2.449c0.174,0.047,0.348,0.069,0.519,0.069c0.883-0.001,1.691-0.59,1.931-1.483l3.659-13.656C86.932,74.18,86.932,74.177,86.933,74.174z"/>
</svg>