<?xml version="1.0" encoding="utf-8"?>
<!DOCTYPE svg PUBLIC "-//W3C//DTD SVG 1.1//EN" "http://www.w3.org/Graphics/SVG/1.1/DTD/svg11.dtd">
<svg version="1.1" xmlns="http://www.w3.org/2000/svg" xmlns:xlink="http://www.w3.org/1999/xlink" x="0px" y="0px" width="100px" height="100px" viewBox="0 0 100 100" enable-background="new 0 0 100 100" xml:space="preserve">
<line fill="none" stroke="#006837" stroke-width="4" stroke-linecap="round" stroke-miterlimit="10" x1="66.639" y1="39.989" x2="66.639" y2="14.99"/>
<line fill="none" stroke="#1B1464" stroke-width="4" stroke-linecap="round" stroke-miterlimit="10" x1="45" y1="52.521" x2="66.65" y2="40.021"/>
<line fill="none" stroke="#1B1464" stroke-width="4" stroke-linecap="round" stroke-miterlimit="10" x1="45" y1="27.525" x2="66.65" y2="15.025"/>
<line fill="none" stroke="#C1272D" stroke-width="4" stroke-linecap="round" stroke-miterlimit="10" x1="88.321" y1="52.479" x2="66.671" y2="39.979"/>
<line fill="none" stroke="#C1272D" stroke-width="4" stroke-linecap="round" stroke-miterlimit="10" x1="88.321" y1="27.485" x2="66.671" y2="14.985"/>
<line fill="none" stroke="#C1272D" stroke-width="4" stroke-linecap="round" stroke-miterlimit="10" x1="66.663" y1="64.999" x2="45.013" y2="52.499"/>
<line fill="none" stroke="#006837" stroke-width="4" stroke-linecap="round" stroke-miterlimit="10" x1="45.027" y1="27.476" x2="45.03" y2="52.466"/>
<line fill="none" stroke="#1B1464" stroke-width="4" stroke-linecap="round" stroke-miterlimit="10" x1="66.668" y1="65" x2="88.318" y2="52.5"/>
<line fill="none" stroke="#006837" stroke-width="4" stroke-linecap="round" stroke-miterlimit="10" x1="88.318" y1="27.505" x2="88.321" y2="52.495"/>
<line fill="none" stroke="#006837" stroke-width="4" stroke-linecap="round" stroke-miterlimit="10" x1="66.663" y1="65" x2="66.663" y2="40"/>
<line fill="none" stroke="#C1272D" stroke-width="4" stroke-linecap="round" stroke-miterlimit="10" x1="66.663" y1="40.004" x2="45.013" y2="27.504"/>
<line fill="none" stroke="#1B1464" stroke-width="4" stroke-linecap="round" stroke-miterlimit="10" x1="66.668" y1="40.005" x2="88.318" y2="27.505"/>
<line fill="none" stroke="#006837" stroke-width="4" stroke-linecap="round" stroke-miterlimit="10" x1="34.968" y1="59.984" x2="34.968" y2="59.484"/>
<line fill="none" stroke="#006837" stroke-width="4" stroke-linecap="round" stroke-miterlimit="10" stroke-dasharray="0.8889,5.3332" x1="34.968" y1="54.151" x2="34.968" y2="38.151"/>
<line fill="none" stroke="#006837" stroke-width="4" stroke-linecap="round" stroke-miterlimit="10" x1="34.968" y1="35.485" x2="34.968" y2="34.985"/>
<line fill="none" stroke="#1B1464" stroke-width="4" stroke-linecap="round" stroke-miterlimit="10" x1="13.329" y1="72.516" x2="13.762" y2="72.266"/>
<line fill="none" stroke="#1B1464" stroke-width="4" stroke-linecap="round" stroke-miterlimit="10" stroke-dasharray="0.8889,5.3334" x1="18.381" y1="69.599" x2="32.237" y2="61.599"/>
<line fill="none" stroke="#1B1464" stroke-width="4" stroke-linecap="round" stroke-miterlimit="10" x1="34.547" y1="60.266" x2="34.98" y2="60.016"/>
<line fill="none" stroke="#1B1464" stroke-width="4" stroke-linecap="round" stroke-miterlimit="10" x1="13.329" y1="47.52" x2="13.762" y2="47.27"/>
<line fill="none" stroke="#1B1464" stroke-width="4" stroke-linecap="round" stroke-miterlimit="10" stroke-dasharray="0.8889,5.3334" x1="18.381" y1="44.604" x2="32.237" y2="36.604"/>
<line fill="none" stroke="#1B1464" stroke-width="4" stroke-linecap="round" stroke-miterlimit="10" x1="34.547" y1="35.27" x2="34.98" y2="35.02"/>
<line fill="none" stroke="#C1272D" stroke-width="4" stroke-linecap="round" stroke-miterlimit="10" x1="56.65" y1="72.475" x2="56.218" y2="72.225"/>
<line fill="none" stroke="#C1272D" stroke-width="4" stroke-linecap="round" stroke-miterlimit="10" stroke-dasharray="0.8889,5.3333" x1="51.599" y1="69.558" x2="37.742" y2="61.558"/>
<line fill="none" stroke="#C1272D" stroke-width="4" stroke-linecap="round" stroke-miterlimit="10" x1="35.433" y1="60.225" x2="35" y2="59.975"/>
<line fill="none" stroke="#C1272D" stroke-width="4" stroke-linecap="round" stroke-miterlimit="10" x1="56.65" y1="47.48" x2="56.218" y2="47.23"/>
<line fill="none" stroke="#C1272D" stroke-width="4" stroke-linecap="round" stroke-miterlimit="10" stroke-dasharray="0.8889,5.3333" x1="51.599" y1="44.563" x2="37.742" y2="36.563"/>
<line fill="none" stroke="#C1272D" stroke-width="4" stroke-linecap="round" stroke-miterlimit="10" x1="35.433" y1="35.23" x2="35" y2="34.98"/>
<line fill="none" stroke="#C1272D" stroke-width="4" stroke-linecap="round" stroke-miterlimit="10" x1="34.992" y1="84.994" x2="34.559" y2="84.744"/>
<line fill="none" stroke="#C1272D" stroke-width="4" stroke-linecap="round" stroke-miterlimit="10" stroke-dasharray="0.8889,5.3333" x1="29.94" y1="82.077" x2="16.084" y2="74.077"/>
<line fill="none" stroke="#C1272D" stroke-width="4" stroke-linecap="round" stroke-miterlimit="10" x1="13.775" y1="72.744" x2="13.342" y2="72.494"/>
<line fill="none" stroke="#006837" stroke-width="4" stroke-linecap="round" stroke-miterlimit="10" x1="13.356" y1="47.471" x2="13.356" y2="47.971"/>
<line fill="none" stroke="#006837" stroke-width="4" stroke-linecap="round" stroke-miterlimit="10" stroke-dasharray="0.8885,5.3312" x1="13.357" y1="53.302" x2="13.359" y2="69.295"/>
<line fill="none" stroke="#006837" stroke-width="4" stroke-linecap="round" stroke-miterlimit="10" x1="13.359" y1="71.961" x2="13.359" y2="72.461"/>
<line fill="none" stroke="#1B1464" stroke-width="4" stroke-linecap="round" stroke-miterlimit="10" x1="34.997" y1="84.995" x2="35.43" y2="84.745"/>
<line fill="none" stroke="#1B1464" stroke-width="4" stroke-linecap="round" stroke-miterlimit="10" stroke-dasharray="0.8889,5.3334" x1="40.048" y1="82.078" x2="53.905" y2="74.078"/>
<line fill="none" stroke="#1B1464" stroke-width="4" stroke-linecap="round" stroke-miterlimit="10" x1="56.215" y1="72.745" x2="56.647" y2="72.495"/>
<line fill="none" stroke="#006837" stroke-width="4" stroke-linecap="round" stroke-miterlimit="10" x1="56.647" y1="47.5" x2="56.647" y2="48"/>
<line fill="none" stroke="#006837" stroke-width="4" stroke-linecap="round" stroke-miterlimit="10" stroke-dasharray="0.8885,5.3312" x1="56.648" y1="53.331" x2="56.65" y2="69.324"/>
<line fill="none" stroke="#006837" stroke-width="4" stroke-linecap="round" stroke-miterlimit="10" x1="56.65" y1="71.99" x2="56.65" y2="72.49"/>
<line fill="none" stroke="#006837" stroke-width="4" stroke-linecap="round" stroke-miterlimit="10" x1="34.992" y1="84.995" x2="34.992" y2="84.495"/>
<line fill="none" stroke="#006837" stroke-width="4" stroke-linecap="round" stroke-miterlimit="10" stroke-dasharray="0.8889,5.3333" x1="34.992" y1="79.162" x2="34.992" y2="63.162"/>
<line fill="none" stroke="#006837" stroke-width="4" stroke-linecap="round" stroke-miterlimit="10" x1="34.992" y1="60.495" x2="34.992" y2="59.995"/>
<line fill="none" stroke="#C1272D" stroke-width="4" stroke-linecap="round" stroke-miterlimit="10" x1="34.992" y1="59.999" x2="34.559" y2="59.749"/>
<line fill="none" stroke="#C1272D" stroke-width="4" stroke-linecap="round" stroke-miterlimit="10" stroke-dasharray="0.8889,5.3333" x1="29.94" y1="57.082" x2="16.084" y2="49.083"/>
<line fill="none" stroke="#C1272D" stroke-width="4" stroke-linecap="round" stroke-miterlimit="10" x1="13.775" y1="47.749" x2="13.342" y2="47.499"/>
<line fill="none" stroke="#1B1464" stroke-width="4" stroke-linecap="round" stroke-miterlimit="10" x1="34.997" y1="60" x2="35.43" y2="59.75"/>
<line fill="none" stroke="#1B1464" stroke-width="4" stroke-linecap="round" stroke-miterlimit="10" stroke-dasharray="0.8889,5.3334" x1="40.048" y1="57.083" x2="53.905" y2="49.083"/>
<line fill="none" stroke="#1B1464" stroke-width="4" stroke-linecap="round" stroke-miterlimit="10" x1="56.215" y1="47.75" x2="56.647" y2="47.5"/>
<path d="M86.933,74.174l0.517-1.928l-1.928-0.517c-0.002-0.001-0.005-0.001-0.008-0.002l-13.656-3.659c-1.071-0.289-2.163,0.348-2.449,1.414s0.347,2.163,1.414,2.449l8.996,2.41l-21.8,12.586c-0.957,0.553-1.284,1.775-0.732,2.732c0.371,0.642,1.043,1,1.734,1c0.339,0,0.683-0.086,0.998-0.268l21.8-12.586l-2.41,8.996c-0.286,1.066,0.347,2.163,1.414,2.449c0.174,0.047,0.348,0.069,0.519,0.069c0.883-0.001,1.691-0.59,1.931-1.483l3.659-13.656C86.932,74.18,86.932,74.177,86.933,74.174z"/>
</svg>