<?xml version="1.0" encoding="utf-8"?>
<!DOCTYPE svg PUBLIC "-//W3C//DTD SVG 1.1//EN" "http://www.w3.org/Graphics/SVG/1.1/DTD/svg11.dtd">
<svg version="1.1" xmlns="http://www.w3.org/2000/svg" xmlns:xlink="http://www.w3.org/1999/xlink" x="0px" y="0px" width="100px" height="100px" viewBox="0 0 100 100" enable-background="new 0 0 100 100" xml:space="preserve">
<path fill="#FFFFFF" d="M30.109,20.93c10.219,0,15.328,8.813,15.328,26.438c0,18-5.168,27-15.504,27c-10.219,0-15.328-8.953-15.328-26.859C14.605,29.789,19.773,20.93,30.109,20.93z M30.109,24.902c-3.891,0-6.668,1.934-8.332,5.801c-1.57,3.609-2.355,9.164-2.355,16.664c0,8.648,0.984,14.789,2.953,18.422c1.664,3.07,4.184,4.605,7.559,4.605c3.891,0,6.68-2.027,8.367-6.082c1.547-3.703,2.32-9.328,2.32-16.875c0-8.555-0.996-14.59-2.988-18.105C35.968,26.379,33.46,24.902,30.109,24.902z"/>
<path fill="#FFFFFF" d="M70.152,20.93c10.219,0,15.328,8.813,15.328,26.438c0,18-5.168,27-15.504,27c-10.219,0-15.328-8.953-15.328-26.859C54.648,29.789,59.816,20.93,70.152,20.93z M70.152,24.902c-3.891,0-6.668,1.934-8.332,5.801c-1.57,3.609-2.355,9.164-2.355,16.664c0,8.648,0.984,14.789,2.953,18.422c1.664,3.07,4.184,4.605,7.559,4.605c3.891,0,6.68-2.027,8.367-6.082c1.547-3.703,2.32-9.328,2.32-16.875c0-8.555-0.996-14.59-2.988-18.105C76.012,26.379,73.504,24.902,70.152,24.902z"/>
</svg>