<?xml version="1.0" encoding="utf-8"?>
<!DOCTYPE svg PUBLIC "-//W3C//DTD SVG 1.1//EN" "http://www.w3.org/Graphics/SVG/1.1/DTD/svg11.dtd">
<svg version="1.1" xmlns="http://www.w3.org/2000/svg" xmlns:xlink="http://www.w3.org/1999/xlink" x="0px" y="0px" width="100px" height="100px" viewBox="0 0 100 100" enable-background="new 0 0 100 100" xml:space="preserve">
<path fill="#FFFFFF" d="M62.695,21.809v3.973h-21.27l-0.633,13.676c-0.047,1.032-0.188,3.047-0.422,6.047c1.078-1.758,2.59-3.129,4.535-4.113c1.734-0.867,3.586-1.301,5.555-1.301c4.336,0,7.84,1.688,10.512,5.063c2.391,3.047,3.586,6.902,3.586,11.566c0,5.813-1.688,10.348-5.063,13.605c-2.766,2.695-6.164,4.043-10.196,4.043c-7.078,0-11.883-3.199-14.414-9.598l4.395-1.863c1.758,5.04,5.098,7.559,10.02,7.559c3.422,0,6.083-1.359,7.981-4.078c1.688-2.414,2.531-5.566,2.531-9.457c0-4.359-1.008-7.687-3.023-9.984c-1.758-1.969-4.09-2.953-6.997-2.953c-2.344,0-4.406,0.715-6.188,2.145c-1.547,1.266-2.695,2.953-3.445,5.063l-3.762-0.598l1.23-28.793H62.695z"/>
</svg>