<?xml version="1.0" encoding="utf-8"?>
<!DOCTYPE svg PUBLIC "-//W3C//DTD SVG 1.1//EN" "http://www.w3.org/Graphics/SVG/1.1/DTD/svg11.dtd">
<svg version="1.1" xmlns="http://www.w3.org/2000/svg" xmlns:xlink="http://www.w3.org/1999/xlink" x="0px" y="0px" width="100px" height="100px" viewBox="0 0 100 100" enable-background="new 0 0 100 100" xml:space="preserve">
<path d="M64.207,27.68l-4.324,2.109c-1.477-3.305-3.996-4.957-7.559-4.957c-8.063,0-12.235,7.84-12.516,23.52c3.258-5.226,7.336-7.84,12.235-7.84c4.172,0,7.5,1.665,9.984,4.992c2.18,2.93,3.27,6.668,3.27,11.215c0,5.766-1.559,10.277-4.676,13.535c-2.602,2.742-5.871,4.113-9.809,4.113c-4.992,0-8.859-2.238-11.602-6.715c-2.578-4.172-3.867-9.973-3.867-17.402c0-10.547,1.746-18.293,5.238-23.238c2.883-4.055,6.844-6.082,11.883-6.082C57.855,20.93,61.77,23.18,64.207,27.68z M39.949,52.887c0.047,6.211,1.23,10.84,3.551,13.887c1.875,2.461,4.313,3.691,7.313,3.691c3.258,0,5.754-1.336,7.489-4.008c1.547-2.367,2.32-5.59,2.32-9.668c0-4.102-0.949-7.254-2.848-9.457c-1.641-1.898-3.785-2.848-6.434-2.848C46.839,44.484,43.042,47.285,39.949,52.887z"/>
</svg>