<?xml version="1.0" encoding="utf-8"?>
<!DOCTYPE svg PUBLIC "-//W3C//DTD SVG 1.1//EN" "http://www.w3.org/Graphics/SVG/1.1/DTD/svg11.dtd">
<svg version="1.1" xmlns="http://www.w3.org/2000/svg" xmlns:xlink="http://www.w3.org/1999/xlink" x="0px" y="0px" width="100px" height="100px" viewBox="0 0 100 100" enable-background="new 0 0 100 100" xml:space="preserve">
<path d="M80.43,45.93v4.113H52.867v18.352H73.68v4.113H52.867v21.797h28.09v4.113H48.121V45.93H80.43z"/>
<path d="M70.447,19.105c-0.493-0.248-1.094-0.047-1.342,0.447c-0.247,0.494-0.047,1.095,0.447,1.342L85.764,29H22V10c0-1.104-0.896-2-2-2s-2,0.896-2,2v19h-8c-0.552,0-1,0.448-1,1s0.448,1,1,1h8v19c0,1.105,0.896,2,2,2h20c1.104,0,2-0.896,2-2c0-1.104-0.896-2-2-2H22V31h63.764l-16.211,8.105c-0.494,0.247-0.694,0.848-0.447,1.342C69.281,40.798,69.634,41,70.001,41c0.15,0,0.303-0.034,0.446-0.105L92.236,30L70.447,19.105z"/>
</svg>