<?xml version="1.0" encoding="utf-8"?>
<!DOCTYPE svg PUBLIC "-//W3C//DTD SVG 1.1//EN" "http://www.w3.org/Graphics/SVG/1.1/DTD/svg11.dtd">
<svg version="1.1" xmlns="http://www.w3.org/2000/svg" xmlns:xlink="http://www.w3.org/1999/xlink" x="0px" y="0px" width="100px" height="100px" viewBox="0 0 100 100" enable-background="new 0 0 100 100" xml:space="preserve">
<path fill="#565656" d="M12.78,78.424c-1.857-10.553-3.712-21.105-5.568-31.659c0.384-0.522,0.769-1.043,1.152-1.569c0.22-0.61,0.441-1.221,0.662-1.831c1.466-2.936,2.951-5.856,6.365-7.04c1.32-0.183,2.637-0.177,3.958-0.006c1.942,0.565,3.758,1.428,5.591,2.261c1.247,0.543,2.458,1.151,3.638,1.822c1.188,0.656,2.374,1.315,3.56,1.968c1.141,0.72,2.215,1.532,3.216,2.429c1.41,1.397,2.657,2.927,3.554,4.706c0.35,1.229,0.485,2.493,0.435,3.766c-0.228,1.229-0.685,2.374-1.402,3.399c-0.807,0.9-1.621,1.81-2.426,2.716c-0.391,0.446-0.79,0.9-1.179,1.35c-0.758,0.903-1.547,1.788-2.35,2.651c-1.262,1.193-2.496,2.421-3.68,3.693c-1.122,1.284-2.214,2.597-3.253,3.948c-0.664,0.91-1.335,1.813-1.999,2.723c-0.745,0.836-1.544,1.62-2.383,2.362c-0.935,0.61-1.919,1.132-2.951,1.56c-1.074,0.296-2.168,0.484-3.279,0.586C13.886,78.315,13.332,78.369,12.78,78.424z"/>
<path fill="#747474" d="M16.203,19.293c2.097-1.01,4.192-2.02,6.287-3.033c2.724,2.17,4.103-0.266,5.783-1.688c1.141-0.382,2.284-0.742,3.444-1.081c1.155-0.436,2.338-0.72,3.572-0.839c1.927-0.079,3.801-0.369,5.607-1.077c4.682,0.116,8.452-4.617,13.503-2.505c1.915,0.964,3.851,1.874,5.646,3.058c1.221,0.821,2.28,1.807,3.185,2.96c0.556,1.389,0.659,2.798,0.249,4.236c-0.661,1.285-1.554,2.396-2.664,3.32c-2.365,1.425-4.714,2.893-6.993,4.437c-1.555,1.074-3.113,2.176-4.616,3.296c-0.885,0.727-1.875,1.343-2.888,1.871c-0.949,0.351-1.968,0.497-2.861,0.488c0.152,0.04-1.099-0.009-0.92,0.049c0.178,0.055-0.713-0.027-0.579,0.122c0.134,0.152-0.514,0.277-0.467,0.439c0.046,0.159-0.563,0.528-0.594,0.653c-0.59,0.62-1.217,1.013-1.982,1.364c-0.986,0.394-1.93,0.546-2.956,0.537c-2.969,0.037-5.889,0.07-8.82-0.031c-1.295-0.091-2.551-0.32-3.798-0.665c-0.628-0.195-1.247-0.388-1.874-0.583c-1.914-0.58-3.821-1.15-5.736-1.712c-2.991-0.616-4.79-2.371-5.222-5.438C10.823,23.639,15.623,22.937,16.203,19.293z"/>
<path fill="#555555" d="M44.009,93.891c-6.142-3.006-12.282-6.012-18.423-9.019c-1.526-2.328-4.68-1.736-6.464-3.601c-2.113-0.949-4.228-1.898-6.341-2.848l0.746-0.836c0.862-0.839,1.717-1.688,2.565-2.545l0.084-0.059c0.478-0.384,0.954-0.769,1.43-1.153c1.167-0.375,2.353-0.668,3.559-0.885c1.57-0.897,2.911-2.243,4.826-2.466c1.219-0.079,2.438-0.073,3.658,0.019c2.437,0.437,4.649,1.534,6.961,2.353c1.17,0.431,2.324,0.891,3.471,1.383c1.7,0.866,3.383,1.751,5.081,2.627c1.108,0.699,2.173,1.443,3.209,2.243c1.616,1.242,2.995,2.646,3.49,4.718c0.12,1.371,0.167,2.738,0.144,4.111c-0.086,2.114-0.309,4.168-2.223,5.551C47.909,94.379,46.061,95.597,44.009,93.891z"/>
<path fill="#404040" d="M47.64,86.435l-0.055-1.541c-0.793-0.991-1.378-2.097-1.755-3.311c-0.284-2.542-0.917-5.002-1.785-7.41c-0.897-2.49-1.471-5.017-1.036-7.69c0.556-2.029,1.721-3.662,3.238-5.081c1.083-0.903,2.157-1.801,3.237-2.71c1.101-0.931,2.193-1.853,3.29-2.783c1.172-0.876,2.338-1.746,3.504-2.618c1.94-1.258,4.021-1.587,6.256-0.986c4.644,2.21,5.596,6.058,4.701,10.682c-0.144,0.644-0.241,1.313-0.348,1.962c-0.046,1.282-0.026,2.585,0.057,3.87c0.049,0.622,0.088,1.263,0.139,1.889c0.061,0.613,0.111,1.245,0.169,1.864c0.138,1.221,0.249,2.457,0.344,3.688c0.041,1.221,0.015,2.444-0.081,3.665c-0.243,1.205-0.722,2.31-1.435,3.313c-1.481,2.021-4.044,2.658-5.694,4.456c-0.478,1.12-0.908,2.255-1.297,3.405c-0.651,1.032-1.395,1.99-2.229,2.875c-2.198,0.794-4.396,1.584-6.593,2.374c-1.717-1.229-1.668-3.018-1.527-4.834C48.323,89.832,46.882,88.373,47.64,86.435z"/>
<path fill="#474747" d="M93.785,24.67c-0.059,6.296-0.117,12.595-0.176,18.894c-2.013,2.374-3.841,4.919-6.362,6.805c-1.404,0.629-2.878,1.004-4.413,1.08c-2.229,0.034-4.449-0.024-6.429-1.245c-1.044-0.979-1.756-2.176-2.126-3.558c-0.199-2.026,0.111-4.013,0.712-5.948c0.297-1.239,0.604-2.49,0.888-3.735c0.12-0.62,0.255-1.242,0.377-1.865c0.218-1.245,0.445-2.49,0.66-3.745c0.176-1.27,0.464-2.508,0.883-3.726c0.688-1.117,1.553-2.066,2.6-2.856c3.03-1.974,6.494-0.537,9.685-1.248C91.465,23.428,92.692,23.834,93.785,24.67z"/>
<path fill="#3B3B3B" d="M93.834,53.022c0.023,5.268,0.046,10.534,0.069,15.802c-1.386,1.443-2.619,3.067-4.562,3.86c-1.381-0.046-2.676-0.396-3.912-1.013c-0.595-0.354-1.184-0.705-1.779-1.063c-1.188-0.735-2.376-1.465-3.57-2.191c-2.398-1.474-5.132-2.608-5.722-5.844c-0.078-1.443,0.161-2.829,0.719-4.159c1.42-2.658,4.062-3.772,6.5-5.131c1.763-1.031,3.694-1.684,5.602-2.371c1.188-0.649,2.461-0.833,3.795-0.607C91.962,51.172,92.921,52.075,93.834,53.022z"/>
<path fill="#565656" d="M12.948,25.076c2.103,1.017,4.204,2.033,6.305,3.049c0.849,0.943,1.542,1.987,2.106,3.119c0.458,1.968-0.336,3.68-1.117,5.392c-0.882,0.897-1.907,1.593-3.071,2.075c-1.174,0.418-2.327,0.891-3.459,1.407c-1.219,0.317-2.446,0.327-3.677,0.077c-0.993-0.751-1.891-1.602-2.69-2.558c-0.049-4.269-0.098-8.539-0.148-12.808c1.338-1.483,3.085-1.397,4.845-1.26C12.344,24.072,12.646,24.576,12.948,25.076z"/>
<path fill="#777777" d="M78.401,16.159c3.29,1.874,6.581,3.748,9.872,5.621c-1.112,1.911-2.861,2.881-4.954,3.351c-1.328,0.491-2.473,1.257-3.467,2.258c-0.764,1.193-1.503,2.393-2.231,3.607c-1.121,0.94-2.412,1.462-3.858,1.626c-2.202,0.095-4.304-0.192-6.133-1.556c-1.048-1.013-1.863-2.191-2.481-3.506c-0.261-1.428-0.229-2.854,0.057-4.272c0.586-1.3,1.28-2.548,2.08-3.729c0.689-1.26,1.645-2.273,2.862-3.04C72.84,15.146,75.683,17.075,78.401,16.159z"/>
<path fill="#3B3B3B" d="M53.64,87.506c3.125-2.084,6.25-4.168,9.373-6.253c0.621-0.012,1.241-0.024,1.86-0.036c1.036,0.774,1.595,1.81,1.673,3.101c-0.349,1.192-0.84,2.325-1.454,3.402c-0.568,1.104-1.247,2.133-2.037,3.092c-2.064,1.053-4.129,2.108-6.195,3.161c-0.032-1.117-0.065-2.233-0.1-3.354C55.622,89.679,54.752,88.474,53.64,87.506z"/>
<path fill="#3F3F3F" d="M81.938,81.488c-4.195,2.023-8.39,4.047-12.584,6.072c-0.711-0.342-1.424-0.687-2.135-1.028c-0.266-0.747-0.529-1.492-0.794-2.236c0.211-0.767,0.422-1.529,0.632-2.292c1.48-2.826,3.45-5.344,5.04-8.1c1.695-1.886,3.716-2.948,6.332-2.515c1.537,0.616,2.736,1.633,3.602,3.046c0.679,1.517,0.811,3.079,0.393,4.69C82.261,79.913,82.099,80.701,81.938,81.488z"/>
<path fill="#747474" d="M72.406,18.707c-0.011,1.065-0.021,2.13-0.031,3.195c-1.222,0.903-2.559,1.593-3.993,2.094c-1.951,1.135-3.889,2.325-6.31,1.556c-1.309-0.848-2.073-2.047-2.295-3.592c0.43-1.413,0.951-2.798,1.572-4.138c0.511-1.373,1.158-2.688,1.913-3.946c1.876-1.291,4.052-1.504,6.228-1.718c1.012,0.29,2.021,0.577,3.031,0.864C74.169,14.951,74.579,16.858,72.406,18.707z"/>
<path fill="#7F7F7F" d="M28.64,15.613c-2.051,0.217-4.1,0.43-6.151,0.647c2.074-1.074,4.147-2.151,6.221-3.226c0.677,0.448,1.354,0.897,2.031,1.346C30.041,14.789,29.34,15.201,28.64,15.613z"/>
<path fill="#6A6A6A" d="M9.895,37.488c1.062-0.006,2.124-0.015,3.184-0.021c0.824,1.249,3.177,1.007,3.072,3.159c-2.092,2.087-4.184,4.175-6.276,6.262l0.027-0.027c-0.899-0.019-1.796-0.052-2.691-0.095c0.143-2.158,0.287-4.318,0.429-6.479C8.114,39.13,8.851,38.184,9.895,37.488z"/>
<path fill="#7C7C7C" d="M81.432,22.266c2.28-0.162,4.562-0.323,6.841-0.485c0.969,0.189,1.928,0.427,2.875,0.711c0.005,0.61,0.009,1.224,0.014,1.834c-3.136,1.263-6.271,2.527-9.407,3.79c-0.537-0.052-1.075-0.104-1.612-0.156c-0.523-0.595-0.753-1.227-0.688-1.898c0.067-0.69,0.172-1.035,0.317-1.032C80.198,24.033,80.752,23.111,81.432,22.266z"/>
<path fill="#444444" d="M93.657,47.052c0.027,1.087,0.053,2.176,0.079,3.263c-0.668,1.126-1.544,2.06-2.601,2.829l0.029-0.007c-0.987,1.221-2.252,1.682-3.798,1.38c-2.159-0.622-4.232-1.346-4.776-3.934c0.397-1.465,1.182-2.691,2.298-3.711l0.084-0.019C87.915,44.788,90.822,44.406,93.657,47.052z"/>
<path fill="#404040" d="M88.062,78.263c-2.043,1.074-4.084,2.148-6.126,3.223c0.002,0.003-0.437-0.778-0.437-0.778c-0.334-0.602-0.67-1.203-1.004-1.807c0.127-0.681,0.252-1.358,0.379-2.039c0.161-1.373,0.253-2.752,0.282-4.138c0.79-2.14,2.215-3.376,4.604-3.238c1.332,0.385,2.571,0.974,3.711,1.764c0.919,1.093,1.315,2.341,1.102,3.767C89.876,76.202,89.038,77.286,88.062,78.263z"/>
<path fill="#8E8E8E" d="M69.49,12.158c-1.111,1.145-2.224,2.289-3.336,3.433c-2.063,0.058-4.068-0.174-5.906-1.214c-1.238-0.662-2.159-1.63-2.81-2.866c0.07-1.465,0.759-2.53,2.064-3.195c1.418-0.342,2.658,0.006,3.745,0.958C65.328,10.235,67.41,11.197,69.49,12.158z"/>
<path fill="#7C7C7C" d="M43.841,6.055c4.447,0.003,8.891,0.009,13.336,0.012c-0.428,1.779-1.538,2.844-3.337,3.195c-2.479,0.195-4.906,0.967-7.43,0.699C44.767,9.177,43.911,7.874,43.841,6.055z"/>
<path fill="#5E5E5E" d="M50.297,90.549c-0.01,1.932-0.021,3.866-0.029,5.798c-2.086-0.817-4.172-1.639-6.258-2.456c1.096-1.053,2.193-2.105,3.289-3.159C48.217,89.337,49.212,89.212,50.297,90.549z"/>
<path fill="#8B8B8B" d="M43.841,6.055c1.192,0.064,2.385,0.128,3.577,0.192c1.248,1.038,2.005,2.359,2.271,3.958c-2.812,4.947-6.125,3.378-9.518,0.732c-0.269-1.578,0.083-3.003,1.059-4.272C42.086,6.406,42.957,6.201,43.841,6.055z"/>
<path fill="#363636" d="M93.657,47.052c-2.895-0.067-5.791-0.131-8.686-0.198c2.881-1.096,5.76-2.194,8.64-3.29C93.624,44.727,93.641,45.889,93.657,47.052z"/>
<path fill="#868686" d="M53.629,6.25c1.183-0.061,2.365-0.122,3.548-0.183c2.023,1.068,4.047,2.139,6.07,3.208c-1.144,0.04-2.285,0.076-3.428,0.113c-1.278,1.425-2.569,2.82-4.791,2.197c-1.234-0.421-2.273-1.126-3.119-2.121C51.982,8.124,52.555,7.053,53.629,6.25z"/>
<path fill="#404040" d="M88.062,78.263c-0.017-1.084-0.033-2.17-0.05-3.254c1.319-1.192,1.338-3.286,2.952-4.278c1.253-0.402,2.208-0.036,2.864,1.104C91.906,73.978,89.985,76.12,88.062,78.263z"/>
<path fill="#8E8E8E" d="M72.406,18.707c0.039-1.895,0.077-3.79,0.115-5.685c1.96,1.046,3.92,2.09,5.88,3.137C76.402,17.011,74.405,17.859,72.406,18.707z"/>
<path fill="#7F7F7F" d="M16.203,19.293c-1.085,1.929-2.168,3.854-3.253,5.783c-0.001,0,0.032-0.033,0.032-0.033c-2.289-1.096-2.33-2.271-0.124-3.522C13.973,20.779,15.087,20.038,16.203,19.293z"/>
<path fill="#747474" d="M41.228,6.665c-0.101,0.952-0.183,1.904-0.246,2.862c1.537,3.739-0.665,4.044-3.48,3.788c-1.17-1.563-1.028-2.994,0.427-4.294C39.03,8.233,40.128,7.449,41.228,6.665z"/>
<path fill="#8E8E8E" d="M37.93,9.021c0.08,1.15,0.159,2.298,0.238,3.449c-1.34,2.078-3.351,1.666-5.313,1.434c-0.419-0.522-0.839-1.041-1.257-1.563C33.707,11.233,35.819,10.126,37.93,9.021z"/>
<path fill="#747474" d="M12.858,21.521c0.042,1.172,0.083,2.347,0.124,3.522c-1.929-0.07-3.859-0.141-5.786-0.214C9.083,23.728,10.971,22.623,12.858,21.521z"/>
<path fill="#454545" d="M93.828,71.835c-0.909,0.024-1.818,0.046-2.729,0.064c-1.042,1.303-2.07,1.233-3.087-0.03h0.007c-0.449-0.52-0.897-1.038-1.346-1.557c0.445-0.519,0.891-1.041,1.336-1.563c1.967,0.024,3.933,0.049,5.896,0.073C93.97,69.83,93.947,70.834,93.828,71.835z"/>
<path fill="#6A6A6A" d="M19.121,81.272c2.155,1.199,4.308,2.398,6.462,3.601C23.431,83.673,21.276,82.471,19.121,81.272z"/>
<path fill="#484848" d="M63.055,90.812c-0.011-1.105-0.021-2.21-0.032-3.314c0.385-0.54,0.771-1.08,1.155-1.617c2.23-1.2,3.652,0.104,5.008,1.614c0,0,0.166,0.063,0.166,0.066C67.254,88.645,65.155,89.728,63.055,90.812z"/>
<path fill="#484848" d="M91.135,53.144c0.868-0.943,1.737-1.89,2.604-2.829c0.12,0.9,0.154,1.804,0.098,2.707C92.935,53.067,92.036,53.109,91.135,53.144z"/>
<path fill="#8E8E8E" d="M28.64,15.613c0.023-0.861,0.047-1.721,0.07-2.582c0.944-0.309,1.906-0.537,2.887-0.69l0.24,0.232c0.719,0.528,1.438,1.056,2.156,1.584c-0.748,0.488-1.494,0.977-2.242,1.462C30.714,15.619,29.676,15.616,28.64,15.613z"/>
<path fill="#7F7F7F" d="M91.161,24.326c-0.005-0.61-0.009-1.224-0.014-1.834c0.879,0.727,1.758,1.453,2.638,2.179C92.903,24.615,92.028,24.502,91.161,24.326z"/>
<path fill="#6A6A6A" d="M9.895,37.488c-0.752,0.934-1.505,1.868-2.257,2.801c-0.256-0.866-0.355-1.751-0.296-2.652C8.195,37.588,9.045,37.54,9.895,37.488z"/>
<path fill="#646464" d="M34.741,53.214c0.052-1.071,0.102-2.14,0.154-3.211c0.274-0.784,0.551-1.568,0.828-2.353c1.399-1.102,2.956-1.416,4.672-0.94c2.304,1.011,4.682,1.858,6.761,3.323c1.224,1.169,2.341,2.43,3.356,3.778c0.805,1.554,1.022,3.18,0.66,4.889c-1.633,3.479-4.851,4.3-8.202,4.89c-2.534-0.217-4.693-1.398-6.809-2.677c-1.556-0.675-2.658-1.801-3.299-3.375C32.912,55.848,33.538,54.406,34.741,53.214z"/>
<path fill="#656565" d="M31.736,46.851c-1.048-0.034-2.095-0.064-3.144-0.095c-0.926-1.175-1.652-2.466-2.177-3.866c-0.568-1.425-0.603-2.872-0.183-4.337c1.13-2.069,2.884-3.32,5.138-3.909c1.468-0.156,2.937-0.125,4.397,0.064c2.189,0.592,3.769,2.036,5.159,3.72c0.776,1.163,1.294,2.444,1.545,3.818c0.016,0.671,0.031,1.358,0.046,2.029c-0.111,1.346-0.636,2.533-1.514,3.552c-0.621,0.177-1.25,0.366-1.869,0.556c-0.641,0.003-1.291,0.009-1.934,0.012c-1.297-0.006-2.507-0.348-3.621-1.025C32.968,47.195,32.352,47.024,31.736,46.851z"/>
<path fill="#5C5C5C" d="M22.378,62.561c2.092-1.062,4.184-2.12,6.276-3.183c1.186-1.416,2.626-1.758,4.318-1.028c1.352,0.974,2.307,2.252,2.867,3.817c0.171,1.643-0.167,3.177-1.006,4.597c-0.967,1.284-2.188,2.261-3.653,2.923c-0.769,0.122-1.547,0.247-2.316,0.373c-1.57,0.003-3.058-0.373-4.46-1.074c-0.998-1.203-1.663-2.567-1.941-4.111C22.434,64.103,22.407,63.333,22.378,62.561z"/>
<path fill="#5E5E5E" d="M31.762,59.375c-1.036,0-2.072,0-3.108,0.003c-0.006-1.053-0.012-2.103-0.017-3.152c-2.312-0.952-2.336-1.959-0.076-3.024c1.066-0.027,2.135-0.052,3.201-0.076c1.138,0.906,2.159,1.929,3.044,3.085c1.088,0.043,2.178,0.083,3.267,0.126c0.902,1.192,1.652,2.475,2.253,3.848c0.658,1.397,0.794,2.832,0.325,4.313c-1.047,1.147-2.345,1.761-3.894,1.84c-1.457-0.553-2.452-1.574-3.05-3C33.352,61.871,32.703,60.55,31.762,59.375z"/>
<path fill="#6A6A6A" d="M19.299,68.71c1.025-2.051,2.052-4.102,3.079-6.149l-0.012-0.069c0.933,1.172,2.118,2.09,3.157,3.155l-0.026-0.016c1.489,1.416,1.68,2.991,0.574,4.725C23.234,72.19,21.055,71.316,19.299,68.71z"/>
<path fill="#6A6A6A" d="M16.178,56.21l-0.058,0.046L16.178,56.21z"/>
<path fill="#6A6A6A" d="M28.561,53.201c0.029,1.007,0.053,2.015,0.076,3.024c-0.273-0.696-0.633-1.373-0.769-2.094C27.819,53.876,28.313,53.513,28.561,53.201z"/>
<path fill="#6A6A6A" d="M16.122,59.369l0.056,0.046L16.122,59.369z"/>
<path fill="#5E5E5E" d="M19.299,68.71c2.064,0.003,4.129,0.01,6.193,0.016c1.222,0.974,1.667,2.2,1.206,3.72c-1.865,1.014-3.671,2.39-5.94,0.995c-0.497-0.521-0.995-1.044-1.494-1.565C19.276,70.819,19.286,69.764,19.299,68.71z"/>
<path fill="#5B5B5B" d="M16.151,40.625c-1.024-1.053-2.049-2.105-3.072-3.159c1.024,0.009,2.048,0.019,3.07,0.024c0.836-1.007,1.9-1.41,3.19-1.208c1.02,0.809,1.47,1.862,1.348,3.159c-0.469,0.397-0.938,0.796-1.409,1.193C18.237,40.631,17.195,40.628,16.151,40.625z"/>
<path fill="#6A6A6A" d="M28.639,43.747c-0.014,1.004-0.029,2.008-0.046,3.009c-1.018-1.001-2.036-1.999-3.055-3c0.516-0.448,1.03-0.897,1.546-1.346C27.601,42.856,28.119,43.301,28.639,43.747z"/>
<path fill="#4D4D4D" d="M34.806,56.21c-1.015-1.028-2.029-2.057-3.044-3.085c0.995,0.021,1.99,0.049,2.981,0.086C34.773,54.211,34.794,55.213,34.806,56.21z"/>
<path fill="#6A6A6A" d="M16.178,59.415c0-1.068,0-2.137,0-3.205l-0.058,0.046c0.142,1.038,0.142,2.075,0.001,3.113L16.178,59.415z"/>
<path fill="#5E5E5E" d="M25.538,43.756c-1.05,0-2.098-0.003-3.148-0.006c-0.795-0.751-1.18-1.584-1.157-2.502c0.024-0.961,0.138-1.443,0.34-1.44c1.34-0.854,2.698-0.842,4.068-0.083c0.786,1.37,0.744,2.716-0.125,4.038L25.538,43.756z"/>
<path fill="#4D4D4D" d="M22.387,40.625c0.001,1.041,0.001,2.084,0.003,3.125c-1.038-1.038-2.074-2.078-3.111-3.116l-0.011-0.006C20.306,39.398,21.347,39.398,22.387,40.625z"/>
<path fill="#6A6A6A" d="M9.875,46.887l0.027-0.027L9.875,46.887z"/>
<path fill="#4D4D4D" d="M19.254,74.997c-1.027-0.003-2.054-0.009-3.079-0.013c1.03-1.037,2.06-2.075,3.088-3.109l0.004-0.003c1.003,0.698,1.334,1.395,0.997,2.087C19.929,74.649,19.593,74.997,19.254,74.997z"/>
<path fill="#5E5E5E" d="M34.895,50.003c-1.053-1.05-2.106-2.103-3.159-3.152l-0.012,0.019c1.068-1.05,2.136-1.05,3.204,0l-0.04,0.006c0.768,0.519,1.534,1.041,2.301,1.563c-0.768,0.521-1.534,1.041-2.301,1.563L34.895,50.003z"/>
<path fill="#5E5E5E" d="M16.091,75.043c-0.857,0.852-1.715,1.703-2.568,2.548C14.381,76.739,15.237,75.891,16.091,75.043z"/>
<path fill="#767676" d="M31.751,15.619c0.041-1.014,0.07-2.03,0.085-3.046c2.109-0.034,4.217-0.067,6.33-0.104c0.941-0.983,1.881-1.962,2.819-2.945c2.166-0.052,4.335-0.106,6.503-0.162c2.054-1.926,4.105-1.98,6.151,0.012l-0.005,0.064c1.003,0.684,1.334,1.364,0.997,2.045c-0.336,0.674-0.672,1.013-1.012,1.013c-5.298,1.065-10.596,2.13-15.894,3.195c-0.85,1.117-1.702,1.117-2.552,0C34.034,15.668,32.893,15.644,31.751,15.619z"/>
<path fill="#7F7F7F" d="M35.095,37.714c-1.07-0.095-2.139-0.189-3.209-0.284c-2.042,0.085-4.091,0.564-6.122-0.11c-2.11-1.089-2.935-2.716-2.102-5.032c0.6-0.354,1.201-0.708,1.801-1.059c4.216-0.006,8.431-0.012,12.645-0.018c0.691,0.201,1.382,0.403,2.074,0.601c1.172,0.949,1.746,2.191,1.805,3.684c-0.479,1.41-1.388,2.444-2.728,3.098C37.807,38.602,36.419,38.309,35.095,37.714z"/>
<path fill="#7F7F7F" d="M62.957,21.808c2.128,0.046,4.255,0.092,6.384,0.138c0.843,0.711,1.111,1.404,0.806,2.084c-0.301,0.672-0.597,1.007-0.89,1.007l0.035-0.061c-1.078,2.008-0.659,4.59-2.411,6.348c-1.431,0.705-2.928,0.864-4.482,0.556c-2.81-1.291-5.721-2.414-7.877-4.776c-0.67-1.434-0.853-2.93-0.549-4.483c0.688-1.392,1.568-2.649,2.669-3.75c1.102-0.049,2.204-0.098,3.308-0.146c0.523,0.095,1.045,0.189,1.568,0.281C61.808,20.038,62.287,20.972,62.957,21.808z"/>
<path fill="#767676" d="M44.292,25.125c2.08-1.083,4.16-2.17,6.238-3.253c1.24-1.459,2.567-1.544,3.983-0.253c0.522,1.504,1.087,2.991,1.694,4.461c0.209,0.77,0.418,1.538,0.627,2.308c-0.271,1.678-1.16,2.908-2.672,3.689c-2.384,0.625-4.715,0.601-6.957-0.549C45.425,29.764,45.748,27.039,44.292,25.125z"/>
<path fill="#8E8E8E" d="M47.018,27.832c2.228,0.085,4.457,0.171,6.687,0.256c1.28,1.789,1.36,3.628,0.233,5.508c-5.987,3.653-11.284,2.859-15.885-2.45l0.054,0.064c-0.063-1.05-0.128-2.1-0.192-3.149c1.021-1.346,2.103-1.398,3.246-0.15c1.074-0.015,2.147-0.03,3.221-0.042C45.246,26.785,46.123,26.773,47.018,27.832z"/>
<path fill="#6C6C6C" d="M53.62,12.497c0.011-1.02,0.015-2.042,0.015-3.058c2.062-0.018,4.125-0.034,6.187-0.052c0.014,1.035,0.041,2.069,0.077,3.104c0.273,2.334-2.105,2.045-3.094,3.131C55.743,14.581,54.682,13.538,53.62,12.497z"/>
<path fill="#8E8E8E" d="M19.442,31.085c-0.075-0.985-0.138-1.971-0.188-2.96c2.068,0.021,4.135,0.04,6.204,0.058l-0.003-0.003c0.014,1.017,0.017,2.033,0.011,3.049c-0.003,0,0.005-0.042,0.005-0.042c-0.791,1.178-1.859,1.996-3.205,2.454c-0.662-0.214-1.321-0.431-1.984-0.644C20,32.358,19.721,31.723,19.442,31.085z"/>
<path fill="#8E8E8E" d="M53.704,21.988c-1.058-0.04-2.117-0.076-3.174-0.116c2.038-1.001,4.075-2.002,6.111-3.003c0.044,1.01,0.085,2.02,0.12,3.027c-0.491,0.662-0.981,1.321-1.473,1.98C54.761,23.248,54.232,22.617,53.704,21.988z"/>
<path fill="#8E8E8E" d="M34.898,21.872c2.08,1.041,4.158,2.081,6.238,3.119c-2.056,2.075-4.141,1.764-6.243,0.08l-0.075-0.113c-0.723-0.705-0.951-1.397-0.687-2.075C34.392,22.211,34.647,21.872,34.898,21.872z"/>
<path fill="#767676" d="M34.893,25.07c2.08-0.027,4.161-0.052,6.243-0.08c0.007,0.977,0.015,1.953,0.024,2.924c-1.082,0.045-2.162,0.098-3.244,0.146C36.907,27.063,35.9,26.065,34.893,25.07z"/>
<path fill="#7F7F7F" d="M56.805,15.622c1.031-1.044,2.063-2.087,3.094-3.131l0.032-0.079c0.493,0.54,0.984,1.077,1.478,1.617c-0.493,0.537-0.987,1.074-1.48,1.611C58.888,15.634,57.845,15.628,56.805,15.622z"/>
<path fill="#686868" d="M35.175,15.692c0.853,0.006,1.706,0.006,2.556,0c-0.004,0-1.28,0.073-1.28,0.073L35.175,15.692z"/>
<path fill="#8E8E8E" d="M59.95,18.723c-0.021-1.025-0.029-2.054-0.022-3.083c0.001,0-0.004,0.11-0.004,0.11c1.285-0.607,2.636-1.202,3.537,0.461c0.362,0.668-0.035,1.614-0.604,2.53l0.167,0.067c-1.095,1.141-2.154,1.168-3.17-0.107L59.95,18.723z"/>
<path fill="#767676" d="M34.898,21.872c-0.038,1.028-0.066,2.057-0.08,3.085C34.708,23.926,34.734,22.898,34.898,21.872z"/>
<path fill="#686868" d="M47.018,27.832l-1.32,0.046c0,0-1.318-0.006-1.318-0.009c-0.033-0.916-0.064-1.831-0.087-2.747C45.201,26.028,46.108,26.929,47.018,27.832z"/>
<path fill="#7F7F7F" d="M25.458,28.183l-0.003-0.003L25.458,28.183z"/>
<path fill="#6A6A6A" d="M34.942,78.141c-2.116-1.044-4.232-2.088-6.349-3.129c-0.494-0.558-0.987-1.113-1.48-1.672c0.264-1.505,0.974-2.771,2.069-3.827c1.414-0.53,2.875-0.72,4.377-0.567c2.094,1.199,3.139,3.104,3.639,5.377C36.736,75.766,35.984,77.039,34.942,78.141z"/>
<path fill="#585858" d="M28.666,71.897c-0.021,1.037-0.042,2.075-0.072,3.112c-1.019-0.003-2.035-0.003-3.053-0.006c-2.078,1.864-4.156,1.841-6.236,0c0,0-0.049-0.006-0.05-0.006c0.008-1.041,0.012-2.085,0.014-3.125c2.083,0,4.166,0.003,6.249,0.003C26.576,70.52,27.627,70.462,28.666,71.897z"/>
<path fill="#5B5B5B" d="M19.305,75.003c2.079,0,4.158,0,6.236,0C23.463,75.003,21.383,75.003,19.305,75.003z"/>
<path fill="#666666" d="M50.297,90.549c-1,0.061-1.998,0.119-2.997,0.18c0.114-1.422,0.229-2.847,0.342-4.281C48.526,87.805,49.411,89.179,50.297,90.549z"/>
<path fill="#595959" d="M34.942,78.141c-0.012-1.05-0.026-2.097-0.038-3.146c0.562-0.376,1.123-0.748,1.685-1.123c1.395,0.363,2.281,1.221,2.579,2.651c-0.393,0.55-0.786,1.099-1.18,1.648C36.972,78.158,35.956,78.149,34.942,78.141z"/>
<path fill="#595959" d="M41.145,81.247c-1.053-1.025-2.104-2.051-3.157-3.076l0.024-0.043c0.435-0.521,0.87-1.04,1.305-1.563c1.43-0.256,2.586,0.189,3.471,1.343C42.901,79.349,42.385,80.475,41.145,81.247z"/>
<path fill="#6A6A6A" d="M41.145,81.247c-0.013-1.05-0.024-2.1-0.037-3.149c2.22-1.69,3.594-0.897,4.421,1.504c-0.42,0.544-0.839,1.09-1.257,1.633C43.229,81.241,42.187,81.244,41.145,81.247z"/>
<path fill="#6A6A6A" d="M47.714,81.198c-0.044,1.227-0.087,2.456-0.13,3.689c-1.103-1.212-2.208-2.433-3.313-3.653l-0.016,0.027C45.385,80.021,46.536,79.935,47.714,81.198z"/>
<path fill="#3C3C3C" d="M78.638,43.75c0.005,1.035,0.01,2.072,0.015,3.106c0.932,0.846,1.729,1.801,2.369,2.884c0.302,1.252,0.124,2.441-0.467,3.577c-1.294,1.306-2.962,2.24-3.903,3.9c-0.496,1.126-0.831,2.301-0.978,3.524c-0.035,1.229,0.087,2.444,0.389,3.641c0.919,2.368,1.166,4.758,0.215,7.184c-0.684,1.047-1.329,2.112-1.943,3.201c-0.626,1.096-1.297,2.158-2.025,3.192c-0.844,0.958-1.785,1.801-2.844,2.515c-3.003,1.548-4.692-0.497-6.453-2.35c-1.047-0.003-2.094-0.003-3.142-0.006c-1.022-1.031-2.043-2.063-3.064-3.095c-1.051-1.056-2.103-2.115-3.153-3.174c1.646-1.815,4.506-1.202,6.135-3.055l0.129-0.119c0.804-0.675,1.067-1.349,0.795-2.018c-0.273-0.668-0.545-1.001-0.815-1.001c0.005-3.14,0.01-6.277,0.014-9.414c-2.407,0.009-4.805-0.013-6.601-1.996c-0.708-1.416-1.045-2.927-1.004-4.504c0.127-1.526,0.597-2.955,1.399-4.258c1.438-1.749,3.233-2.917,5.505-3.262c1.367-0.293,2.75-0.586,4.118-0.882c1.339-0.305,2.689-0.61,4.03-0.918c1.978-0.452,3.941-1.014,5.981-1.166c1.354,0,2.648,0.278,3.883,0.839c0.371,0.555,0.743,1.111,1.116,1.669C78.437,42.426,78.537,43.088,78.638,43.75z"/>
<path fill="#3C3C3C" d="M69.276,75.006c1.022,0,2.046-0.003,3.068-0.003c2.354-0.302,2.095,2.078,3.171,3.085c-2.084,2.097-4.169,4.193-6.253,6.287c-2.723,0.232-4.759-0.9-6.25-3.125l0.001,0.003c0-1.044,0-2.084-0.001-3.128c2.086-1.037,4.172-2.075,6.256-3.113L69.276,75.006z"/>
<path fill="#5E5E5E" d="M47.714,81.198c-1.152,0.021-2.304,0.043-3.458,0.063c-1.048-1.053-2.098-2.108-3.148-3.164l0.034,0.061c-1.166-1.309-1.604-2.828-1.313-4.556c0.952-1.492,2.314-2.265,4.084-2.319c2.472,0.58,4.589,1.779,6.34,3.619C49.406,77.002,48.56,79.099,47.714,81.198z"/>
<path fill="#676767" d="M50.252,74.902c-2,0.033-4,0.067-6.001,0.098c-1.247-0.885-2.626-1.468-4.118-1.788c-1.346-0.837-2.135-2.051-2.44-3.595c0.381-1.529,1.244-2.72,2.525-3.623c1.364-0.806,2.813-1.025,4.354-0.665c1.178,0.985,2.223,2.097,3.137,3.329C48.559,70.74,49.406,72.821,50.252,74.902z"/>
<path fill="#484848" d="M56.713,53.055c1.065,1.063,2.13,2.127,3.196,3.189c-1.051,1.047-2.103,2.097-3.153,3.143c-1.427,1.469-3.014,1.67-4.761,0.602c-1.549-2.484-1.89-4.98-0.081-7.504C53.663,51.428,55.262,51.617,56.713,53.055z"/>
<path fill="#646464" d="M47.71,68.658c-1.164,0.024-2.328,0.049-3.493,0.076c-2.037-0.869-4.283-1.514-4.54-4.278c0.459-1.501,1.378-2.621,2.762-3.366c2.893,0.339,5.897-2.154,8.699,0.354c0.662,1.517,0.51,2.92-0.581,4.189C49.609,66.645,48.66,67.651,47.71,68.658z"/>
<path fill="#484848" d="M59.787,68.796c-2.046,1.02-4.091,2.038-6.135,3.055C55.697,70.831,57.742,69.813,59.787,68.796z"/>
<path fill="#3B3B3B" d="M53.638,59.372c1.04,0.003,2.079,0.006,3.118,0.015c0.003,1.041,0.004,2.079,0.006,3.119c-0.479,0.382-0.958,0.767-1.438,1.15c-1.298,0.067-2.349-0.405-3.157-1.425C51.901,60.889,52.392,59.934,53.638,59.372z"/>
<path fill="#3B3B3B" d="M50.558,65.634c-0.144-1.037-0.289-2.078-0.432-3.115c0.272-0.491,0.546-0.979,0.819-1.468c1.191-0.062,2.105,0.394,2.694,1.449h-0.003c0.891,0.705,1.183,1.407,0.876,2.1c-0.306,0.689-0.609,1.034-0.913,1.034l-1.521-0.003L50.558,65.634z"/>
<path fill="#484848" d="M53.6,65.634c0.013-1.046,0.024-2.09,0.037-3.134c1.042,0,2.083,0.003,3.125,0.006C55.707,63.547,54.655,64.591,53.6,65.634z"/>
<path fill="#343434" d="M59.896,65.658c0.127,1.004,0.133,2.015,0.021,3.021C59.909,67.67,59.903,66.666,59.896,65.658z"/>
<path fill="#484848" d="M56.806,75.024c1.021,1.031,2.043,2.063,3.064,3.095C58.849,77.088,57.828,76.056,56.806,75.024z"/>
<path fill="#484848" d="M53.64,87.506c1.041,1.038,2.081,2.075,3.12,3.113C55.721,89.581,54.681,88.544,53.64,87.506z"/>
<path fill="#404040" d="M78.631,50.012c0.006-1.049,0.014-2.103,0.021-3.155c2.079,0.006,4.157,0.009,6.235,0.016c0,1.047,0.002,2.097,0.002,3.146c0.445,0.552,0.89,1.102,1.335,1.653c-0.126,1.499-0.866,2.609-2.141,3.382c-1.296,0.644-2.664,0.985-4.11,1.025c-1.497-0.25-2.56-1.083-3.25-2.417C76.836,52.173,77.473,50.955,78.631,50.012z"/>
<path fill="#3C3C3C" d="M87.999,37.457c-2.078,1.056-4.157,2.112-6.236,3.168c-0.703-0.195-1.406-0.391-2.109-0.589c-1.169-0.974-1.775-2.222-1.819-3.745c0.508-1.431,1.467-2.438,2.875-3.012c1.476,0.052,2.868,0.418,4.179,1.099l-0.001-0.003C85.924,35.403,86.828,36.566,87.999,37.457z"/>
<path fill="#7F7F7F" d="M81.754,28.116c-0.089,0.891-0.168,1.786-0.241,2.676c-0.305,0.638-0.608,1.276-0.914,1.917c-1.008,1.053-2.233,1.685-3.677,1.898c-1.439-0.421-2.43-1.346-3.037-2.701c0.122-1.459,0.646-2.744,1.638-3.83l-0.048,0.055c0.922-0.866,2.004-1.443,3.22-1.773c1.301,0.104,2.321,0.693,3.063,1.764L81.754,28.116z"/>
<path fill="#484848" d="M84.888,34.378c-1.042-0.003-2.084-0.003-3.125-0.003c-0.471-0.238-0.942-0.476-1.414-0.714c-0.057-1.117,0.371-1.999,1.282-2.649c0,0-0.115-0.213-0.116-0.216C82.638,31.988,83.764,33.182,84.888,34.378z"/>
<path fill="#3B3B3B" d="M81.763,40.625c-1.042,1.041-2.082,2.084-3.125,3.125l0.005-0.009c-1.229-3.305-0.192-4.339,3.111-3.113L81.763,40.625z"/>
<path fill="#484848" d="M87.999,37.457c-1.037-1.025-2.075-2.054-3.112-3.082C85.924,35.403,86.962,36.432,87.999,37.457z"/>
<path fill="#464646" d="M78.648,62.497c2.081,1.044,4.161,2.084,6.242,3.125c-0.07,0.692-0.142,1.386-0.212,2.078c-0.856,1.993-2.222,3.485-4.254,4.321c-1.409-0.086-2.688-0.549-3.851-1.34c-1.105-1.791-1.487-3.854-2.179-5.801c-0.224-1.416,0.103-2.704,0.905-3.879C76.782,60.682,77.899,61.179,78.648,62.497z"/>
<path fill="#484848" d="M88.006,53.122c1.053,0.003,2.105,0.009,3.158,0.015c-2.091,1.035-4.181,2.069-6.271,3.104c-0.503-0.521-1.005-1.041-1.508-1.56c0.503-0.52,1.006-1.038,1.51-1.554l-0.002,0.013C85.923,51.847,86.959,51.84,88.006,53.122z"/>
<path fill="#454545" d="M84.893,56.241c-2.087,1.043-4.173,2.087-6.261,3.131c-0.564-0.327-1.129-0.653-1.695-0.979c-0.12-0.641-0.241-1.282-0.361-1.923c0.594-1.288,1.598-1.877,3.011-1.773c1.904,0.052,3.926-0.29,5.306,1.557V56.241z"/>
<path fill="#484848" d="M78.648,62.497c-1.009-0.003-2.016-0.006-3.024-0.009c-0.854-0.736-1.271-1.569-1.247-2.503c0.024-0.979,0.146-1.471,0.368-1.471c1.511-0.69,2.816-0.452,3.89,0.854v0.003C78.642,60.416,78.646,61.456,78.648,62.497z"/>
<path fill="#484848" d="M88.007,65.619c0.002,1.043,0.003,2.087,0.003,3.131l0.007-0.009c-3.363,1.294-4.38,0.231-3.13-3.113l0.003-0.006c1.044,0.003,2.086,0.006,3.13,0.009L88.007,65.619z"/>
<path fill="#484848" d="M88.02,65.631l-0.013-0.012L88.02,65.631z"/>
<path fill="#6A6A6A" d="M16.154,34.405c1.096-1.104,2.191-2.209,3.287-3.317c0.001-0.003-0.078-0.046-0.078-0.046c0.807,0.821,1.448,1.755,1.923,2.805c-0.314,1.19-1.094,1.889-2.275,2.167C17.831,35.883,16.879,35.346,16.154,34.405z"/>
<path fill="#4D4D4D" d="M16.154,34.405c1.041-0.021,2.082-0.036,3.124-0.042c0.346,0.522,0.694,1.047,1.044,1.569c-0.357,0.519-0.714,1.034-1.073,1.55c-1.033,0.006-2.068,0.009-3.099,0.009C16.145,36.462,16.145,35.434,16.154,34.405z"/>
<path fill="#8E8E8E" d="M75.523,28.076c0.016,1.08,0.03,2.164,0.047,3.247c-0.136,0.76-0.27,1.517-0.404,2.276c-1.872,1.941-3.952,1.981-6.177,0.675c-0.998-1.242-1.378-2.637-1.039-4.211c0.426-0.635,0.854-1.27,1.279-1.904C71.327,28.131,73.424,28.104,75.523,28.076z"/>
<path fill="#8E8E8E" d="M69.257,25.037c0.021-1.032,0.048-2.063,0.083-3.091c1.013-0.021,2.024-0.037,3.034-0.043C71.335,22.946,70.296,23.993,69.257,25.037z"/>
<path fill="#8E8E8E" d="M81.432,22.266c0.126,0.909,0.235,1.822,0.331,2.734c-0.512,0.522-1.025,1.041-1.537,1.56c-0.52-0.513-1.036-1.028-1.556-1.541C79.591,24.1,80.512,23.184,81.432,22.266z"/>
<path fill="#8E8E8E" d="M66.229,28.043c1.021-1.022,2.041-2.044,3.063-3.067c-0.021,1.059-0.041,2.121-0.063,3.183c-0.001,0,0.082-0.083,0.082-0.083C68.27,29.376,67.244,29.3,66.229,28.043z"/>
<path fill="#8E8E8E" d="M78.637,28.125c-1.053,0.003-2.107,0.003-3.162,0.006c1.065-1.037,2.131-2.075,3.195-3.112l-0.033-0.021c1.042,0.696,1.389,1.389,1.042,2.084C79.334,27.777,78.988,28.125,78.637,28.125z"/>
<path fill="#404040" d="M63.012,81.25c2.083,1.041,4.166,2.084,6.25,3.125h0.001c-1.318,1.728-3.175,1.551-5.02,1.419c-0.412-0.461-0.822-0.925-1.233-1.386C63.01,83.356,63.01,82.303,63.012,81.25z"/>
<path fill="#484848" d="M63.023,87.497c-0.138-1.031-0.142-2.06-0.013-3.089l-0.003-0.03c2.321,1.041,2.321,2.081,0.002,3.125L63.023,87.497z"/>
<path fill="#484848" d="M75.515,78.088c-1.056-1.028-2.111-2.057-3.169-3.085c0.015-1.04,0.028-2.081,0.042-3.122c1.737-1.73,2.433-5.523,6.24-3.137l0.006,0.006c2.072,1.248,3.084,2.881,1.935,5.304c-0.651,0.312-1.302,0.62-1.953,0.928C77.582,76.02,76.549,77.054,75.515,78.088z"/>
<path fill="#3B3B3B" d="M63.009,87.503c0-1.04,0-2.084-0.002-3.125c2.086-0.003,4.172-0.003,6.256-0.003c-0.009,1.041-0.031,2.081-0.072,3.122C67.127,87.497,65.069,87.5,63.009,87.503z"/>
<path fill="#343434" d="M78.649,78.158c-0.011-1.059-0.021-2.117-0.033-3.174c0-0.003,0.006-0.003,0.006-0.003c1.067-1.297,2.375-1.55,3.893-0.891c0.634,1.517,0.379,2.862-0.766,4.04l0.011-0.036C80.748,79.355,79.711,79.376,78.649,78.158z"/>
<path fill="#484848" d="M78.649,78.158c1.038-0.021,2.074-0.042,3.11-0.063c-0.078,0.876-0.163,1.748-0.258,2.618C80.549,79.858,79.6,79.007,78.649,78.158z"/>
<path fill="#777777" d="M62.857,18.741c-0.979-0.998-1.955-1.996-2.934-2.991c0.004-1.111,0.005-2.225,0.008-3.338c2.074,1.059,4.149,2.121,6.223,3.18C65.055,16.641,63.955,17.691,62.857,18.741z"/>
<path fill="#686868" d="M59.854,18.701c1.057,0.034,2.113,0.07,3.17,0.104c-0.018,1.004-0.039,2.005-0.065,3.006C61.922,20.773,60.888,19.736,59.854,18.701z"/>
<path fill="#747474" d="M78.637,28.125c0.001-1.041,0.001-2.084,0-3.125c1.042,0,2.084,0,3.126,0c0,1.041,0,2.084-0.003,3.122C80.718,28.125,79.678,28.125,78.637,28.125z"/>
<path fill="#3B3B3B" d="M88.006,53.122c-1.038,0.006-2.075,0.012-3.113,0.019c-0.001-1.041-0.003-2.082-0.003-3.122C85.928,51.053,86.967,52.088,88.006,53.122z"/>
<path fill="#3C3C3C" d="M81.798,75.003c-1.059-0.006-2.117-0.012-3.177-0.019c0.005-2.078,0.008-4.156,0.013-6.234c2.084-1.041,4.169-2.081,6.253-3.122c1.042,1.038,2.086,2.075,3.13,3.113c0.001,1.043,0.001,2.084,0.003,3.128c-1.05,1.056-2.102,2.111-3.151,3.168C83.831,76.267,82.807,76.321,81.798,75.003z"/>
<path fill="#3B3B3B" d="M88.013,71.869c1.03,0.012,2.059,0.021,3.087,0.03c-1.029,1.038-2.058,2.072-3.088,3.109C88.012,73.963,88.013,72.916,88.013,71.869z"/>
<path fill="#484848" d="M81.798,75.003c1.024,0.009,2.048,0.019,3.07,0.034c-1.04,1.031-2.08,2.063-3.12,3.094C81.765,77.088,81.782,76.047,81.798,75.003z"/>
<path fill="#747474" d="M53.64,9.375c-2.054-0.003-4.107-0.006-6.155-0.012c-0.04-1.038-0.064-2.075-0.069-3.113c2.072,0,4.143,0,6.215,0C53.624,7.291,53.629,8.331,53.64,9.375z"/>
<path fill="#5C5C5C" d="M44.262,53.125c-2.083-1.041-4.166-2.084-6.249-3.125c-1.042-0.695-1.389-1.389-1.042-2.084c0.345-0.696,0.691-1.044,1.041-1.044l-0.041,0.009c0.48-0.47,0.961-0.937,1.446-1.41c0.498-0.467,0.99-0.931,1.489-1.401c0.974-0.998,1.929-1.999,2.89-3.021c1.181-0.879,2.479-1.438,3.935-1.688c1.533-0.03,2.977,0.269,4.372,0.913c1.194,1.086,1.932,2.405,2.253,3.983c-0.387,4.113-1.737,7.989-2.776,11.941c-0.696,0.485-1.389,0.964-2.083,1.443c-0.702-0.464-1.405-0.928-2.109-1.392l0.011,0.019C46.39,55.182,45.225,54.254,44.262,53.125z"/>
<path fill="#4F4F4F" d="M47.389,56.25c1.013-0.021,2.028-0.046,3.042-0.067c2.045,2.058,1.996,4.181,0.203,6.363c0,0-0.501-0.027-0.505-0.027c-2.997-0.019-5.989-0.037-8.981-0.056c-0.478-0.234-0.955-0.47-1.433-0.707c0.017-0.531,0.034-1.063,0.052-1.597c0.471-0.244,0.944-0.491,1.416-0.738C43.252,58.365,45.32,57.306,47.389,56.25z"/>
<path fill="#565656" d="M44.262,53.125c1.045,1.047,2.09,2.097,3.136,3.144C46.352,55.222,45.307,54.172,44.262,53.125z"/>
<path fill="#565656" d="M38.014,59.375c0.015-1.014,0.034-2.029,0.058-3.043c1.038,1.032,2.074,2.061,3.111,3.089l-0.042-0.046C40.099,61.725,39.057,61.725,38.014,59.375z"/>
<path fill="#565656" d="M38.012,46.872c0,1.044,0.001,2.084,0.001,3.128c-1.042,0-2.083,0-3.125,0c0-1.041,0-2.084,0-3.125C35.931,46.872,36.972,46.872,38.012,46.872z"/>
<path fill="#585858" d="M38.052,43.814c-0.004-1.05-0.007-2.096-0.012-3.143c0.472-0.647,0.944-1.294,1.416-1.944c2.029-1.626,4.16-2.276,6.521-0.671c1.025,1.395,1.208,2.896,0.551,4.498c-0.542,1.517-1.289,2.927-2.24,4.227l-0.046,0.104c-0.99,1.041-1.993,1.053-3.006,0.03l-0.25-0.149C39.909,45.88,38.931,44.895,38.052,43.814z"/>
<path fill="#4D4D4D" d="M28.835,34.692c1.016,0.913,2.031,1.825,3.047,2.737c-1.076,1.056-2.155,2.115-3.233,3.171c-0.542-0.385-1.083-0.769-1.626-1.15C25.895,37.204,26.902,35.77,28.835,34.692z"/>
<path fill="#4D4D4D" d="M38.052,43.814c0.979,0.986,1.959,1.968,2.938,2.951c-1.007,0.042-2.013,0.083-3.018,0.116C37.988,45.859,38.015,44.836,38.052,43.814z"/>
<path fill="#565656" d="M34.928,46.869c-1.068,0-2.136,0-3.204,0C32.792,46.869,33.86,46.869,34.928,46.869z"/>
<path fill="#565656" d="M25.516,43.762c0-1.047-0.001-2.093-0.001-3.137c0.539-0.5,1.076-1.001,1.614-1.504c0.537,0.5,1.073,1.007,1.608,1.51c0,0-0.09-0.027-0.09-0.03c-0.003,1.05-0.006,2.097-0.009,3.146C27.598,43.75,26.557,43.753,25.516,43.762z"/>
<path fill="#5E5E5E" d="M35.095,37.714c0.987-0.104,1.978-0.199,2.968-0.278c0.485,0.54,0.97,1.08,1.456,1.621c-0.502,0.524-1.005,1.05-1.507,1.574l0.029,0.037C37.058,39.685,36.076,38.699,35.095,37.714z"/>
<path fill="#565656" d="M28.666,71.897c-1.05-0.006-2.1-0.016-3.149-0.021c-0.007-1.05-0.015-2.1-0.024-3.149c0.008-1.031,0.009-2.063,0.005-3.095c1.056,0.006,2.113,0.013,3.169,0.021c3.259,2.084,2.113,4.145-0.032,6.201L28.666,71.897z"/>
<path fill="#4D4D4D" d="M28.634,71.854c0.011-2.069,0.02-4.135,0.032-6.204c1.03-0.006,2.059-0.013,3.088-0.016c0.676,0.336,1.352,0.672,2.031,1.005c1.115,2.444,0.679,4.306-2.005,5.318C30.732,71.924,29.684,71.887,28.634,71.854z"/>
<path fill="#4D4D4D" d="M31.762,59.375c1.042,1.047,2.084,2.094,3.128,3.141c-1.039,1.406-2.081,1.343-3.126,0.006C31.764,61.472,31.762,60.422,31.762,59.375z"/>
<path fill="#565656" d="M25.523,65.647c-1.051-1.05-2.104-2.103-3.157-3.155C23.418,63.544,24.472,64.597,25.523,65.647z"/>
<path fill="#6A6A6A" d="M31.764,62.522c1.042-0.003,2.084-0.006,3.126-0.01c0,0.004-0.037,0.004-0.037,0.004c0.807,0.701,1.155,1.471,1.045,2.31c-0.115,0.87-0.284,1.307-0.51,1.307c-1.344,0.806-2.558,0.604-3.658-0.467l0.023-0.031C31.757,64.597,31.761,63.559,31.764,62.522z"/>
<path fill="#565656" d="M34.919,65.634c-0.017-1.04-0.039-2.078-0.064-3.118c1.053-0.007,2.107-0.013,3.16-0.019c1.044-1.395,2.086-1.468,3.126,0.003c0,0,0.005-0.033,0.006-0.033c-0.008,1.053-0.016,2.108-0.023,3.164c-0.419,0.571-0.841,1.139-1.264,1.709c-1.294,0.757-2.623,0.824-3.987,0.201C35.556,66.906,35.238,66.272,34.919,65.634z"/>
<path fill="#6A6A6A" d="M41.141,62.5c-1.042,0-2.086,0-3.126,0c-0.001-1.044-0.001-2.084-0.001-3.125c1.042,0,2.083,0,3.126,0C41.141,60.416,41.141,61.459,41.141,62.5z"/>
<path fill="#565656" d="M22.387,40.625c-1.039,0-2.08,0.003-3.119,0.003c-0.006-1.047-0.012-2.097-0.02-3.143c0-0.003-0.016,0.015-0.016,0.015c4.002-2.786,6.627-2.811,6.279,3.128l0.003-0.003C24.473,40.625,23.431,40.625,22.387,40.625z"/>
<path fill="#767676" d="M38.053,31.147c5.217,0.049,10.436,0.098,15.652,0.146c0.77,0.125,1.537,0.253,2.305,0.375c1.959,1.77,2.068,3.94,1.347,6.281c-1.075,2.042-2.553,3.619-4.933,4.092c-3,0.293-5.667-0.366-7.701-2.768c-2.354-1.434-4.874-2.649-6.7-4.825C38.032,33.347,38.042,32.245,38.053,31.147z"/>
<path fill="#6A6A6A" d="M25.512,40.628c-2.092-1.041-4.186-2.084-6.277-3.128c0.014-1.047,0.027-2.09,0.041-3.137c0.001,0-0.02,0.027-0.02,0.027c0.839-1.068,1.793-2.023,2.863-2.859c1.118-0.116,2.235-0.229,3.353-0.345c1.121,1.168,2.241,2.334,3.364,3.503c-0.032,1.98-0.065,3.961-0.098,5.941C27.662,40.631,26.588,40.628,25.512,40.628z"/>
<path fill="#8E8E8E" d="M38.023,34.448c2.063,1.004,4.126,2.005,6.189,3.009c-0.383,0.492-0.765,0.983-1.147,1.474c-1.854,0.119-3.725,0.299-5.082-1.395l0.08-0.101C38.047,36.438,38.034,35.443,38.023,34.448z"/>
<path fill="#747474" d="M53.705,31.293c-0.001-1.068-0.001-2.137-0.003-3.205c0.002,0-0.093,0.107-0.093,0.107c0.773-0.772,1.294-1.685,1.563-2.744c0.513-0.159,1.025-0.317,1.538-0.476c2.098,1.053,4.197,2.105,6.296,3.159c0.05,0.83,0.101,1.66,0.15,2.49c-0.535,1.666-1.591,2.877-3.167,3.634c-2.859,0.507-4.608-1.297-6.379-3.061L53.705,31.293z"/>
<path fill="#747474" d="M66.229,28.043c1.026,0.021,2.055,0.034,3.083,0.037c-0.028,1.056-0.059,2.112-0.088,3.168c-0.264,0.745-0.526,1.489-0.791,2.234c-2.291,1.602-4.327,1.336-6.097-0.839c-0.353-1.596-0.125-3.106,0.684-4.529l-0.014,0.018C64.08,28.104,65.155,28.073,66.229,28.043z"/>
<path fill="#686868" d="M53.704,21.988c1.018-0.049,2.038-0.079,3.058-0.091c-0.011,1.028-0.026,2.054-0.051,3.079c-0.001,0,0.08-0.006,0.08-0.006c-1.057,1.232-2.109,1.294-3.156-0.013C53.649,23.969,53.672,22.977,53.704,21.988z"/>
<path fill="#8E8E8E" d="M53.635,24.957c1.052,0.006,2.103,0.009,3.156,0.013c-1.06,1.074-2.12,2.148-3.181,3.226C53.619,27.118,53.626,26.038,53.635,24.957z"/>
<path fill="#5E5E5E" d="M22.119,31.531c-0.954,0.952-1.909,1.904-2.863,2.859c0.035-1.114,0.07-2.228,0.107-3.345C20.283,31.195,21.202,31.357,22.119,31.531z"/>
<path fill="#5A5A5A" d="M31.731,65.665c1.062-0.013,2.124-0.021,3.188-0.031l-0.062-0.036c1.264,1.373,3.266,1.611,4.547,2.954c0.202,1.212,0.206,2.423-0.02,3.632c-1.031,1.702-3.169,1.639-4.522,2.825l0.041-0.015c-1.041-1.014-2.083-2.026-3.124-3.04C31.765,69.857,31.748,67.762,31.731,65.665z"/>
<path fill="#6A6A6A" d="M34.863,75.009c1.054-1.062,2.11-2.124,3.165-3.186c0.534-0.644,1.068-1.285,1.601-1.929c0.507,0.665,1.013,1.33,1.52,1.996l-0.031-0.046c0.926,0.671,1.245,1.357,0.96,2.057c-0.289,0.708-0.583,1.062-0.885,1.062c-0.017,1.065-0.033,2.131-0.05,3.192c-1.043-0.009-2.086-0.019-3.129-0.027C36.962,77.088,35.912,76.047,34.863,75.009z"/>
<path fill="#404040" d="M50.634,62.546c-0.065-2.121-0.133-4.239-0.201-6.36c0.093-4.056,0.188-8.108,0.283-12.161c0.813-1.318,2.001-2.075,3.51-2.353c1.456,0.531,2.439,1.526,2.953,2.987c-0.133,0.727-0.268,1.456-0.4,2.186c-0.006,1.059-0.012,2.118-0.019,3.177c-1.007,1.062-1.761,2.383-3.118,3.095c0,2.084-0.002,4.168-0.004,6.256c0,1.04,0,2.084,0.002,3.128C52.638,62.512,51.636,62.524,50.634,62.546z"/>
<path fill="#3F3F3F" d="M75.509,59.394c0.03,1.031,0.068,2.063,0.112,3.095c0.002,0-0.114,0.012-0.114,0.012c-0.519,0.662-1.036,1.321-1.555,1.983c-0.521-0.659-1.042-1.318-1.563-1.978c-0.006-1.064-0.011-2.13-0.016-3.191c-0.728-0.501-1.455-1.002-2.184-1.502c0.729-0.5,1.456-1.001,2.184-1.502c1.046-2.103,2.093-4.208,3.138-6.311c1.063,1.02,2.352,1.815,3.126,3.125l0,0c2.315,1.041,2.316,2.084,0.004,3.131l-0.007-0.003C77.749,57.455,76.811,58.606,75.509,59.394z"/>
<path fill="#3D3D3D" d="M81.754,40.628c-1.036,1.038-2.073,2.075-3.111,3.113c-1.042,0.003-2.086,0.006-3.128,0.009c-2.2-1.013-4.821-1.315-6.223-3.684c-0.418-1.73-0.033-3.256,1.153-4.578c1.524-0.708,3.127-1.041,4.806-0.998c2.634,0,4.727,1.172,6.512,3.009C81.76,38.544,81.757,39.587,81.754,40.628z"/>
<path fill="#353535" d="M72.39,62.506c1.039-0.003,2.078-0.006,3.119-0.006c1.039,2.081,2.08,4.162,3.119,6.244c-2.08,1.043-4.16,2.09-6.24,3.137C72.388,68.756,72.39,65.631,72.39,62.506z"/>
<path fill="#484848" d="M69.268,75.012c-0.399-0.271-0.8-0.546-1.199-0.817c0.403,0.269,0.804,0.54,1.207,0.812L69.268,75.012z"/>
<path fill="#484848" d="M72.374,56.311c-0.001,1.002-0.001,2.002,0,3.004c-0.245-0.693-0.578-1.374-0.689-2.085C71.646,56.964,72.129,56.619,72.374,56.311z"/>
<path fill="#484848" d="M62.986,46.86c-2.068-0.003-4.138-0.009-6.207-0.015v0.033c-0.416-0.708-0.831-1.419-1.246-2.127c-0.122-1.743,0.453-3.213,1.724-4.413c1.541-0.711,3.148-0.943,4.826-0.692c1.685,0.546,2.815,1.654,3.396,3.326c-0.151,0.818-0.302,1.636-0.453,2.451C64.346,45.904,63.665,46.381,62.986,46.86z"/>
<path fill="#343434" d="M66.146,50c-1.053-1.047-2.105-2.094-3.158-3.14c-0.002,0,0.022,0.012,0.022,0.012c1.077-1.272,2.376-1.565,3.895-0.87C67.559,47.507,67.355,48.847,66.146,50z"/>
<path fill="#404040" d="M66.146,50c-0.003-1.044-0.006-2.084-0.009-3.125c0.521-0.357,1.039-0.711,1.56-1.068c0.524,0.348,1.05,0.696,1.574,1.044C68.229,47.9,67.189,48.95,66.146,50z"/>
<path fill="#343434" d="M53.642,53.116c1.04-1.035,2.079-2.066,3.118-3.098c-0.012,1.013-0.027,2.026-0.046,3.036C55.691,53.082,54.665,53.101,53.642,53.116z"/>
<path fill="#343434" d="M78.638,53.125c-1.042-1.044-2.084-2.084-3.126-3.125c1.039,0.003,2.08,0.006,3.119,0.012C78.634,51.05,78.635,52.088,78.638,53.125z"/>
<path fill="#484848" d="M72.381,43.741c-1.036,1.038-2.074,2.075-3.11,3.11l-0.003,0.024c-0.485-0.464-0.972-0.928-1.459-1.392c-0.271-1.413,0.168-2.554,1.315-3.424c0.672,0.033,1.342,0.064,2.013,0.098C71.551,42.685,71.966,43.213,72.381,43.741z"/>
<path fill="#484848" d="M72.378,40.634c1.045,1.041,2.09,2.078,3.137,3.116c-1.045-0.003-2.089-0.006-3.134-0.009l0.014,0.015c-0.504-0.519-1.007-1.034-1.511-1.553C71.381,41.681,71.88,41.159,72.378,40.634z"/>
<path fill="#565656" d="M41.192,74.963c-0.027-1.037-0.052-2.078-0.075-3.115c1.045,1.05,2.089,2.1,3.134,3.152C43.232,74.991,42.211,74.979,41.192,74.963z"/>
<path fill="#565656" d="M41.125,65.631c1.031,1.035,2.063,2.069,3.094,3.104c-1.031,0-2.063,0-3.094,0.004c-0.505-0.531-1.01-1.06-1.515-1.588c0.517-0.519,1.036-1.034,1.553-1.55L41.125,65.631z"/>
<path fill="#565656" d="M41.148,71.891c-1.041-0.016-2.082-0.037-3.121-0.064c0-0.992,0.001-1.98,0.004-2.973c1.004-1.557,2.049-1.511,3.131-0.079c0,0-0.037-0.036-0.038-0.036C41.132,69.787,41.14,70.838,41.148,71.891z"/>
<path fill="#3B3B3B" d="M78.642,56.256c-0.002-1.043-0.002-2.087-0.004-3.131c2.086,0,4.171,0,6.257,0.003c-0.003,1.041-0.005,2.081-0.003,3.122C82.809,56.253,80.724,56.253,78.642,56.256z"/>
<path fill="#484848" d="M81.763,37.5c-2.073,0-4.148,0-6.222,0c-1.028-0.836-1.771-1.874-2.229-3.116c0.468-1.245,1.247-2.255,2.295-3.061c0,0-0.042-0.006-0.041-0.003c1.12,0.11,2.238,0.217,3.357,0.323c1.075,0.781,2.029,1.688,2.844,2.741l-0.005-0.009C81.763,35.416,81.763,36.46,81.763,37.5z"/>
<path fill="#404040" d="M81.768,34.384c-0.95-0.916-1.899-1.831-2.847-2.744c0.901-0.226,1.805-0.437,2.711-0.629C81.676,32.135,81.722,33.258,81.768,34.384z"/>
<path fill="#343434" d="M75.509,59.394c1.042-1.047,2.084-2.094,3.126-3.141c-0.003,1.038-0.003,2.075-0.001,3.116C77.592,59.375,76.549,59.384,75.509,59.394z"/>
<path fill="#7F7F7F" d="M75.608,31.323c-0.047,0.967-0.087,1.935-0.118,2.905c-0.886,1.163-2.071,1.767-3.516,1.892c-1.462,0.324-2.698-0.064-3.711-1.166c-0.39-1.447-0.056-2.701,0.999-3.763c0,0-0.035,0.055-0.037,0.055C71.353,31.274,73.481,31.299,75.608,31.323z"/>
<path fill="#7F7F7F" d="M53.882,44.18c-1.057-0.055-2.113-0.11-3.167-0.162c-1.179-0.003-2.359-0.009-3.54-0.019c-1.126,1.096-2.089,1.022-2.864-0.399c-0.024-0.974-0.052-1.947-0.084-2.921c-2.281-1.089-2.271-2.157,0.03-3.204c0,0-0.044-0.015-0.044-0.019c2.116,1.056,4.234,2.109,6.353,3.162c1.127-0.965,2.394-1.688,3.802-2.167c1.557-0.214,2.837,0.281,3.844,1.489c0.211,1.563-0.285,2.826-1.601,3.735l0.045-0.156C56.002,44.879,55.091,45.154,53.882,44.18z"/>
<path fill="#6A6A6A" d="M41.236,46.915c1.002-0.015,2.005-0.027,3.007-0.03c-0.001,0-1.503,0.11-1.503,0.11L41.236,46.915z"/>
<path fill="#565656" d="M44.311,43.601c0.958,0.122,1.915,0.253,2.867,0.396c-0.966,0.931-1.929,1.858-2.89,2.783C44.296,45.722,44.303,44.659,44.311,43.601z"/>
<path fill="#747474" d="M44.257,37.476c-0.009,1.065-0.018,2.133-0.029,3.201c-2.074-0.012-4.146-0.03-6.218-0.046c-0.001-1.031-0.009-2.066-0.026-3.097C40.075,37.515,42.165,37.497,44.257,37.476z"/>
<path fill="#6A6A6A" d="M41.163,68.774c-1.043,0.024-2.089,0.052-3.133,0.079c-1.056-1.083-2.113-2.17-3.17-3.256c2.1,0,4.201,0.003,6.303,0.003C41.163,66.659,41.163,67.716,41.163,68.774z"/>
<path fill="#8B8B8B" d="M53.611,31.198c2.104,0.024,4.204,0.052,6.307,0.076c0.592,0.418,1.186,0.836,1.777,1.254c0.94,1.12,1.637,2.374,2.088,3.763c-0.225,1.486-0.972,2.64-2.237,3.452c-2.211,0.681-4.203-0.412-6.283-0.784c-0.534-0.477-1.068-0.952-1.603-1.429C53.643,35.419,53.626,33.31,53.611,31.198z"/>
<path fill="#8E8E8E" d="M53.623,40.625c-1.021-0.003-2.04-0.003-3.06-0.006c1.033-1.029,2.063-2.06,3.095-3.089c0.001,0-0.059-0.055-0.059-0.055c0.754,0.519,1.508,1.041,2.262,1.56C55.116,39.563,54.369,40.094,53.623,40.625z"/>
<path fill="#8E8E8E" d="M63.02,28.113c-0.017,1.062-0.034,2.121-0.051,3.18c-0.521,0.488-1.042,0.977-1.563,1.465c-0.507-0.504-1.013-1.007-1.52-1.511c0,0,0.03,0.024,0.03,0.027C60.953,30.222,61.985,29.166,63.02,28.113z"/>
<path fill="#8E8E8E" d="M69.262,31.192c0.033,1.102,0.067,2.207,0.101,3.311c-0.32,0.736-0.64,1.471-0.958,2.207c-2.43,1.453-4.467,1.093-6.057-1.312c-0.958-1.572-0.736-2.957,0.667-4.15l-0.044,0.046C65.068,31.259,67.163,31.226,69.262,31.192z"/>
<path fill="#3B3B3B" d="M53.882,44.18c0.921-0.241,1.846-0.46,2.774-0.656c0.04,1.117,0.079,2.233,0.121,3.354C55.813,45.981,54.849,45.081,53.882,44.18z"/>
<path fill="#484848" d="M69.363,34.503c1.052,0.073,2.103,0.146,3.155,0.223c0.959,0.65,1.263,1.275,0.911,1.874c-0.342,0.586-0.679,0.882-1.018,0.882c-0.011,1.05-0.023,2.103-0.033,3.153l0.02-0.028c-0.976,1.126-1.851,2.353-3.151,3.153l0.021-0.012c-2.086,1.975-4.173,1.975-6.259,0l0.011,0.009c-0.447-0.421-0.896-0.845-1.343-1.266c-0.729-1.117-0.686-2.229,0.02-3.335c0.8-0.928,1.739-1.691,2.813-2.283c1.579-0.866,3.461-1.123,4.859-2.368h-0.006V34.503z"/>
<path fill="#343434" d="M72.411,37.481c0.017-0.924,0.052-1.846,0.104-2.762c0.987-0.192,1.978-0.357,2.975-0.488c0.017,1.086,0.033,2.176,0.05,3.269C74.497,37.494,73.453,37.488,72.411,37.481z"/>
<path fill="#3B3B3B" d="M62.877,40.439c0.048,1.104,0.095,2.212,0.143,3.317c-2.134-0.024-4.267-0.049-6.404-0.076c0.165-0.985,0.343-1.971,0.531-2.954C58.975,38.995,60.833,37.894,62.877,40.439z"/>
<path fill="#3B3B3B" d="M63.009,43.747c2.086,0,4.172,0,6.258,0c0.001,1.041,0.001,2.084,0.001,3.128c-1.044,0-2.087,0-3.131,0c-1.042,0-2.084,0-3.127-0.003C63.01,45.831,63.01,44.788,63.009,43.747z"/>
<path fill="#3B3B3B" d="M69.246,43.759c1.05-1.05,2.102-2.1,3.151-3.153c-0.002,1.05-0.002,2.1-0.003,3.149C71.345,43.756,70.295,43.759,69.246,43.759z"/>
<path fill="#747474" d="M62.877,40.439c-1.913,0.094-3.826,0.189-5.735,0.287c-1.17-0.033-2.344-0.067-3.519-0.101c-0.008-1.05-0.014-2.1-0.021-3.149c2.091,0.006,4.183,0.012,6.274,0.019c1.053-1.315,2.295-1.529,3.728-0.644c0.767,1.48,0.498,2.737-0.803,3.778L62.877,40.439z"/>
<path fill="#797979" d="M63.314,37.647c-1.146-0.049-2.292-0.101-3.438-0.152c0.019-1.041,0.024-2.082,0.02-3.122c1.039-1.468,2.078-1.398,3.114,0.003c2.12,0.043,4.237,0.083,6.357,0.128c-1.195,1.16-2.392,2.319-3.589,3.476C64.82,38.886,63.992,38.828,63.314,37.647z"/>
<path fill="#747474" d="M63.01,34.375h-1.56c0,0-1.562,0-1.557,0c-0.001-1.044-0.005-2.084-0.005-3.125c1.041,0,2.083,0,3.127,0C63.013,32.291,63.012,33.335,63.01,34.375z"/>
<path fill="#404040" d="M63.314,37.647c0.827,0.076,1.651,0.186,2.468,0.333c-0.995,0.885-1.987,1.767-2.98,2.649C62.925,39.627,63.096,38.632,63.314,37.647z"/>
</svg>