<?xml version="1.0" encoding="utf-8"?>
<!DOCTYPE svg PUBLIC "-//W3C//DTD SVG 1.1//EN" "http://www.w3.org/Graphics/SVG/1.1/DTD/svg11.dtd">
<svg version="1.1" xmlns="http://www.w3.org/2000/svg" xmlns:xlink="http://www.w3.org/1999/xlink" x="0px" y="0px" width="100px" height="100px" viewBox="0 0 100 100" enable-background="new 0 0 100 100" xml:space="preserve">
<path fill="#7DB450" d="M56.182,46.924c0.233,1.941,0.467,3.882,0.702,5.822c3.288,4.908-0.298,10.935,2.594,15.909c0.16,1.944,0.318,3.892,0.479,5.838c1.093,2.466,4.511,1.218,5.685,3.556c-1.923,7.314-3.846,14.633-5.769,21.951c-1.042,0-2.082,0-3.125,0c-2.412-2.179-3.063-5.026-3.072-8.111c-0.048-2.216-0.051-4.435-0.066-6.65c-0.003-3.684,0.029-7.376-3.077-10.116c-2.976-4.229-5.951-8.46-8.925-12.689c0.963-1.031,1.941-1.093,2.933-0.039c1.855-5.124,3.711-10.248,5.564-15.369C52.102,45.279,54.123,45.004,56.182,46.924z"/>
<path fill="#7EBD54" d="M56.67,90.484c0.025,3.174,0.052,6.345,0.077,9.516c-2.082,0-4.167,0-6.25,0c0.175-3.137,0.347-6.277,0.521-9.415C52.87,88.764,54.756,88.797,56.67,90.484z"/>
<path fill="#73B34A" d="M56.182,46.924c-2.026,0.034-4.052,0.067-6.078,0.101c-1.802-2.142-3.604-4.285-5.406-6.427c1.117-1.407,2.261-2.78,4.125-3.235c0.597,0.003,1.194,0.009,1.793,0.012C52.471,40.558,54.326,43.741,56.182,46.924z"/>
<path fill="#A3D274" d="M50.531,75.122c1.986,3.015,3.972,6.03,5.957,9.042c-1.773,2.039-3.6,2.055-5.474,0.141C50.853,81.244,50.692,78.183,50.531,75.122z"/>
<path fill="#73B34A" d="M59.478,68.655c-0.865-5.304-1.73-10.604-2.594-15.909C57.747,58.051,58.612,63.352,59.478,68.655z"/>
<path fill="#68A73E" d="M44.752,37.61c0.431-2.011,0.862-4.025,2.196-10.242c2.211,6.036,2.939,8.02,3.667,10.007c-0.316,0.433-0.679,0.824-1.09,1.172C47.791,38.971,46.031,39.514,44.752,37.61z"/>
<path fill="#91C062" d="M67.322,76.107c0.233-2.334,0.468-4.669,0.701-7.004c1.402,0.684,2.805,1.367,4.207,2.051c-1.753,1.542-3.506,3.086-5.258,4.627L67.322,76.107z"/>
<path fill="#91C062" d="M51.015,84.305c1.826-0.043,3.653-0.088,5.477-0.137c0.06,2.105,0.12,4.214,0.18,6.319c-1.886,0.031-3.771,0.064-5.653,0.095C51.017,88.492,51.015,86.398,51.015,84.305z"/>
<path fill="#91C062" d="M44.752,37.61c1.592,0.314,3.183,0.625,4.775,0.937c-1.61,0.684-3.22,1.367-4.83,2.051C44.289,39.594,44.307,38.599,44.752,37.61z"/>
<path fill="#91C062" d="M65.641,78.049c-1.896-1.188-3.789-2.371-5.685-3.556c2.438,0.522,4.874,1.041,7.338,1.59c0.028,0.024-0.399-0.375-0.361-0.339C66.316,76.413,65.872,77.17,65.641,78.049z"/>
<path fill="#91C062" d="M44.539,62.394c-0.978,0.006-1.956,0.018-2.933,0.039c0.206-0.723,0.412-1.446,0.806-2.829C43.308,60.779,43.922,61.584,44.539,62.394z"/>
</svg>