<?xml version="1.0" encoding="utf-8"?>
<!DOCTYPE svg PUBLIC "-//W3C//DTD SVG 1.1//EN" "http://www.w3.org/Graphics/SVG/1.1/DTD/svg11.dtd">
<svg version="1.1" xmlns="http://www.w3.org/2000/svg" xmlns:xlink="http://www.w3.org/1999/xlink" x="0px" y="0px" width="100px" height="100px" viewBox="0 0 100 100" enable-background="new 0 0 100 100" xml:space="preserve">
<path fill="#867041" d="M29.036,62.854c-0.09-4.107-0.18-8.216-0.272-12.323c0.722-1.077,1.561-2.054,2.524-2.927c1.767-1.059,3.638-1.294,5.614-0.735c1.184,0.556,2.165,1.373,2.946,2.414c0.833,1.733,0.937,3.507,0.182,5.279c-0.452,0.797-1.115,1.313-2.087,1.557c0.574,0.827,1.738,0.879,2.184,1.767c0.144,0.544,0.278,1.084,0.412,1.624c-1.663,4.978-3.328,9.952-6.369,19.049c-2.736-6.339-4.123-9.549-5.508-12.756c0,0,1.096-0.589,1.1-0.583c0.004,0.003-0.279-1.212-0.279-1.209C29.483,64.014,29.036,62.854,29.036,62.854z"/>
<path fill="#917647" d="M37.255,34.399c2.121-0.998,4.242-1.996,6.361-2.994c1.736-1.761,3.964-1.465,6.126-1.468c3.099,0.064,5.936,0.69,7.762,3.546c0.615,1.425,0.846,2.902,0.648,4.443c-0.711,2.289-2.36,3.802-4.237,5.124c-1.228,0.836-2.569,1.456-3.991,1.889c-2.181,0.327-4.335,0.235-6.426-0.534c-1.944-0.946-3.52-2.34-4.834-4.043C37.414,38.562,37.084,36.539,37.255,34.399z"/>
<path fill="#856C43" d="M71.986,55.85c-4.218-2.197-8.436-4.397-12.653-6.598c-1.083-0.971-1.645-2.186-1.686-3.641c0.475-2.24,1.814-3.735,3.915-4.583c2.154-0.504,4.172,0.073,6.168,0.79c1.327,0.418,2.641,0.882,3.935,1.395c1.146,0.802,2.056,1.816,2.686,3.07c0.309,1.346,0.401,2.71,0.281,4.087C74.141,52.383,73.376,54.269,71.986,55.85z"/>
<path fill="#867041" d="M59.066,45.7c0.089,1.185,0.179,2.368,0.267,3.553c-0.882,0.604-1.856,0.939-2.925,1.001c-2.059,1.62-4.291,2.093-6.758,1.028c-1.969-1.764-2.604-3.982-2.211-6.543c0.605-1.517,1.472-2.866,2.6-4.05l-0.196,0.156c1.58-1.553,3.584-1.587,5.604-1.56C58.827,40.195,58.728,43.069,59.066,45.7z"/>
<path fill="#79633C" d="M28.52,46.89c0.044-2.081,0.087-4.163,0.131-6.247c0.971-0.888,1.01-1.815,0.119-2.786c0.816-1.099,1.633-2.2,2.447-3.302c1.119-1.102,2.286-1.157,3.5-0.162l-0.322-0.192c0.957,1.117,1.854,2.28,2.688,3.491c0.961,2.075,1.198,4.19,0.369,6.366c-1.14,2.029-3.056,3.018-5.113,3.817C30.867,48.331,29.583,48.041,28.52,46.89z"/>
<path fill="#967C49" d="M49.916,28.094c4.154-2.023,8.31-4.046,12.466-6.07c0.455,0.537,0.911,1.077,1.367,1.614c0.348,1.389,0.355,2.774-0.024,4.157c-0.64,1.272-1.547,2.319-2.678,3.177c-1.289,0.583-2.646,0.809-4.053,0.727c-1.372-0.192-2.729-0.482-4.061-0.867c-0.589-0.36-1.181-0.72-1.77-1.08C50.747,29.199,50.332,28.647,49.916,28.094z"/>
<path fill="#967C49" d="M75.22,15.756c0.654,4.193,1.309,8.386,1.963,12.579c-1.577,0.229-2.984-0.18-4.246-1.142c-2.724-3.527-2.686-7,0.223-10.409C73.846,16.443,74.532,16.098,75.22,15.756z"/>
<path fill="#7F673F" d="M49.809,50.1c2.2,0.049,4.4,0.102,6.6,0.153c-3.183,2.054-6.367,4.107-9.55,6.161c-0.267-0.638-0.534-1.272-0.801-1.91C46.423,52.283,47.642,50.788,49.809,50.1z"/>
<path fill="#5A492C" d="M28.52,46.89c1.169-0.141,2.339-0.281,3.508-0.424c1.834-0.998,3.641-1.294,5.383,0.202c0.745,1.187,0.748,2.401,0.114,3.635c-1.137,0.076-2.275,0.152-3.413,0.229l-1.105,0.892l-1.291-0.593c-0.982-0.112-1.967-0.213-2.953-0.299C28.683,49.319,28.602,48.105,28.52,46.89z"/>
<path fill="#9D7E51" d="M71.986,55.85c0.021-1.773,0.042-3.546,0.063-5.319c1.746-2.216,3.589-2.222,5.521-0.244C75.709,52.142,73.848,53.998,71.986,55.85z"/>
<path fill="#B38F5A" d="M68.526,15.784c2.231-0.009,4.462-0.019,6.693-0.027l-1.092-0.077c-1.036,1.132-2.313,1.587-3.831,1.371C69.708,16.626,69.117,16.205,68.526,15.784z"/>
<path fill="#B38F5A" d="M62.382,22.024c0.981-1.083,1.964-2.167,2.945-3.25c0.578-0.385,1.156-0.769,1.734-1.154c0.667,0.192,1.334,0.385,2.001,0.577c0.294,0.628,0.591,1.254,0.888,1.883c-0.098,1.44-0.708,2.597-1.905,3.427c-2.145,0.653-4.022,0.382-5.419-1.565L62.382,22.024z"/>
<path fill="#867041" d="M77.613,34.458c0,1.11,0,2.218,0,3.329c-1.752,1.773-3.576,1.52-5.439,0.198c-1.247-2.301-0.284-3.771,1.813-4.815C75.405,33.001,76.615,33.432,77.613,34.458z"/>
<path fill="#B38F5A" d="M50.662,32.022c-2.349-0.205-4.697-0.412-7.045-0.616c2.1-1.105,4.2-2.207,6.299-3.312l0.245,1.432l0.934,1.11L50.662,32.022z"/>
<path fill="#9F8053" d="M71.819,37.75c1.932,0.012,3.863,0.024,5.794,0.037c0.396,0.913,0.421,1.831,0.07,2.762c-1.453,2.075-3.279,1.944-5.26,0.895c-0.364-0.571-0.732-1.145-1.099-1.715C71.49,39.068,71.655,38.409,71.819,37.75z"/>
<path fill="#625030" d="M71.989,40.967c1.897-0.137,3.796-0.278,5.694-0.418c0,1.215-0.002,2.43-0.002,3.644c-0.896,0.916-1.964,1.507-3.231,1.718c-1.229-0.287-2.352-0.815-3.36-1.575c-0.071-0.62-0.142-1.239-0.213-1.862C71.247,41.974,71.618,41.47,71.989,40.967z"/>
<path fill="#9F8053" d="M77.613,34.458c-0.854,0.003-1.707-0.024-2.561-0.08c-1.12-0.803-1.724-1.892-1.813-3.271c0.192-0.628,0.388-1.26,0.583-1.889c0.524-0.399,1.051-0.796,1.577-1.196c0.583,0.168,1.179,0.271,1.782,0.314C77.326,30.377,77.47,32.418,77.613,34.458z"/>
<path fill="#BB9762" d="M34.678,37.216c0.052-1.017-0.042-2.021-0.282-3.012c0.938,0.271,1.892,0.335,2.859,0.195c1.181,1.163,2.36,2.325,3.54,3.488c-0.484,0.412-0.966,0.824-1.448,1.239C37.322,39.636,35.644,39.297,34.678,37.216z"/>
<path fill="#9F8053" d="M71.78,43.857c1.967,0.113,3.935,0.223,5.901,0.335c0.352,0.931,0.328,1.853-0.068,2.768c-1.839,1.944-3.657,2.179-5.447-0.064l-0.236,0.171c-0.851-0.674-1.155-1.373-0.917-2.103C71.255,44.226,71.51,43.857,71.78,43.857z"/>
<path fill="#867041" d="M72.166,46.896c1.815,0.021,3.632,0.043,5.447,0.064c-0.014,1.107-0.029,2.219-0.043,3.326c-1.842,0.079-3.684,0.155-5.521,0.238C72.088,49.319,72.128,48.108,72.166,46.896z"/>
<path fill="#7F673F" d="M46.858,56.415c-2.107,1.031-4.213,2.063-6.32,3.095l-0.89-0.562c-0.09-0.659-0.182-1.315-0.271-1.975c0.571-1.254,1.507-2.111,2.811-2.566c1.356-0.141,2.615,0.158,3.793,0.833L46.858,56.415z"/>
<path fill="#856C43" d="M28.77,37.857c0.305,0.943,0.264,1.874-0.119,2.786C28.295,39.697,28.335,38.77,28.77,37.857z"/>
<path fill="#967C49" d="M68.507,19.064c-1.059-0.094-2.119-0.192-3.18-0.29c1.066-0.998,2.133-1.996,3.199-2.991l1.12-0.101C70.126,17.099,69.746,18.228,68.507,19.064z"/>
<path fill="#9E834D" d="M34.718,34.393c-1.166,0.055-2.333,0.107-3.5,0.162c0.366-0.702,0.731-1.401,1.096-2.103C33.116,33.099,33.917,33.746,34.718,34.393z"/>
<path fill="#8B7249" d="M31.201,65.887c-0.847-0.03-1.694-0.061-2.541-0.085c-0.388-1.05-0.263-2.033,0.375-2.948c0.769,0.964,1.538,1.932,2.309,2.896L31.201,65.887z"/>
<path fill="#7F673F" d="M37.525,50.302c-0.018-1.139-0.037-2.28-0.055-3.418c0.239-0.62,0.478-1.242,0.717-1.862c0.812-1.071,1.825-1.895,3.038-2.472c1.305-0.235,2.617-0.274,3.932-0.119c1.333,0.308,2.324,1.077,3.017,2.243c1.403,5.805-3.368,7.874-6.587,10.886c-0.398,0.357-0.796,0.711-1.193,1.068c-1.094,1.261-2.049,1.229-2.847-0.299C37.539,54.321,37.533,52.31,37.525,50.302z"/>
<path fill="#8B7249" d="M37.547,56.33c0.951,0.098,1.901,0.198,2.85,0.299c-0.177,0.8-0.421,1.571-0.745,2.322C38.948,58.075,38.247,57.202,37.547,56.33z"/>
<path fill="#8B7249" d="M31.716,50.83c0.789-0.198,1.588-0.299,2.399-0.302c-0.003,0.003-1.167,0.421-1.167,0.421L31.716,50.83z"/>
<path fill="#8B7249" d="M31.344,65.751l-0.142,0.137C31.201,65.887,31.344,65.751,31.344,65.751z"/>
<path fill="#867041" d="M56.487,34.72c-1.945-0.9-3.89-1.8-5.83-2.698c0.005,0-0.686-0.693-0.686-0.693c0.928-0.995,2.059-1.492,3.428-1.416c0.649,0.052,1.302,0.104,1.951,0.156c0.564,0.327,1.129,0.653,1.694,0.982c0.112,0.641,0.226,1.285,0.338,1.926C57.086,33.557,56.786,34.14,56.487,34.72z"/>
<path fill="#625030" d="M47.081,44.189c-1.143-0.07-2.286-0.144-3.43-0.214c-0.249-0.522-0.499-1.043-0.749-1.568c0.271-0.51,0.544-1.022,0.816-1.532c2.107-0.061,4.214-0.125,6.322-0.186c-0.017,1.053-0.033,2.109-0.05,3.162c-0.401,0.766-0.805,1.529-1.206,2.295C48.216,45.493,47.648,44.842,47.081,44.189z"/>
<path fill="#625030" d="M55.901,40.466c-2.019,0.128-4.039,0.253-6.059,0.378c2.148-1.038,4.295-2.079,6.443-3.119c0.235,0.5,0.47,0.998,0.706,1.496C56.63,39.636,56.265,40.051,55.901,40.466z"/>
<path fill="#625030" d="M40.795,37.887c0.974,0.995,1.949,1.99,2.922,2.985c0,0.003,0.107-0.104,0.107-0.104c-2.879,1.02-3.757-0.024-2.925-2.835L40.795,37.887z"/>
<path fill="#625030" d="M56.286,37.726c0.049-1.004,0.113-2.008,0.197-3.009c0.004,0.003-0.203-0.003-0.203-0.003c0.825-1.239,1.905-1.458,3.202-0.79c0.675,1.218,0.678,2.435,0.013,3.653c-1.114,0.928-2.229,0.977-3.348,0.006L56.286,37.726z"/>
<path fill="#9D7E51" d="M56.147,37.583c1.113-0.052,2.228-0.104,3.34-0.156c0.696-0.073,1.392-0.146,2.088-0.22c1.412,0.128,2.722,0.558,3.912,1.336c0.435,0.549,0.869,1.102,1.305,1.651c0.128,0.689,0.255,1.379,0.383,2.072c-0.223,0.666-0.444,1.333-0.667,1.999c-0.622,0.327-1.246,0.65-1.87,0.974c-0.537-0.452-1.076-0.907-1.613-1.358c-1.32,0.613-2.639,1.227-3.958,1.831c-1.055-1.758-2.107-3.5-3.163-5.243C56.03,39.511,56.112,38.55,56.147,37.583z"/>
<path fill="#59472B" d="M71.78,43.857c0.049,1.071,0.099,2.142,0.149,3.21c-2.423-0.098-4.847-0.195-7.27-0.296c-0.34-1.224,0.055-2.124,1.188-2.704l-0.092,0.104c2.029-2.112,4.093-2.1,6.188-0.101L71.78,43.857z"/>
<path fill="#9F8053" d="M65.848,44.067c-0.269,0.958-0.663,1.861-1.185,2.707c-0.551-0.964-1.099-1.929-1.644-2.893C63.964,43.948,64.906,44.012,65.848,44.067z"/>
<path fill="#9F8053" d="M47.081,44.189c0.967-0.141,1.936-0.253,2.909-0.339c-0.059,2.084-0.118,4.166-0.179,6.25c-1.276,1.716-2.552,3.431-3.829,5.143c-1.471,0.107-2.939,0.217-4.402,0.32C43.418,51.77,45.25,47.98,47.081,44.189z"/>
<path fill="#8A7143" d="M40.899,37.933c0.975,0.946,1.95,1.889,2.925,2.835c-0.057,1.068-0.114,2.137-0.172,3.208c-0.001,0,0.172-0.088,0.172-0.088c-1.595,1.685-3.684,1.578-5.74,1.584c-1.44,0.04-2.652-0.482-3.668-1.486c0.087-2.255,0.174-4.511,0.261-6.766C36.752,37.454,38.826,37.695,40.899,37.933z"/>
<path fill="#9F8053" d="M34.416,43.985c1.047-0.012,2.094-0.024,3.141-0.034c0.677,0.586,1.353,1.172,2.031,1.758c-0.766,0.464-1.53,0.928-2.296,1.392l0.178-0.216c-1.815-0.138-3.631-0.275-5.444-0.415C32.824,45.639,33.619,44.812,34.416,43.985z"/>
<path fill="#735E39" d="M62.626,21.942c2.077,0.006,4.152,0.016,6.228,0.021c0.787,1.135,0.944,2.35,0.472,3.65c-1.619,1.456-3.441,1.685-5.43,0.894c-0.43-0.497-0.862-0.992-1.292-1.489C62.609,23.993,62.617,22.967,62.626,21.942z"/>
<path fill="#867041" d="M55.922,28.68c1.217-0.159,2.434-0.314,3.651-0.473c1.135-1.185,2.342-1.264,3.619-0.235c0.277,1.483-0.016,2.832-0.963,4.022c-2.054,1.26-4.023,1.364-5.854-0.434l-0.382-0.375c-1.19-0.522-1.595-1.068-1.223-1.636C55.147,28.97,55.529,28.68,55.922,28.68z"/>
<path fill="#B38F5A" d="M62.504,28.354c-0.978-0.04-1.958-0.089-2.935-0.146c1.014-1.063,2.023-2.124,3.034-3.189l0.014,0.067c0.769,0.754,1.007,1.489,0.719,2.206C63.051,28,62.772,28.354,62.504,28.354z"/>
<path fill="#BB9762" d="M52.919,31.402c-0.983,0-1.964-0.021-2.947-0.073c0.076-0.601,0.14-1.206,0.189-1.807c0.687-0.369,1.356-0.769,2.008-1.202c0.771,0.357,1.543,0.714,2.313,1.068C53.962,30.06,53.44,30.731,52.919,31.402z"/>
<path fill="#735E39" d="M52.919,31.402c-0.246-1.028-0.492-2.054-0.743-3.079c1.246,0.116,2.499,0.235,3.749,0.354c0.076,0.839,0.101,1.675,0.071,2.512C54.97,31.277,53.945,31.348,52.919,31.402z"/>
<path fill="#9E7F52" d="M68.74,25.171c0.038-1.068,0.075-2.139,0.113-3.208l-0.192,0.241c0.917-0.766,1.221-1.526,0.908-2.283c-0.311-0.754-0.62-1.132-0.93-1.132c0,0-0.128,0.274-0.13,0.274c0.372-1.123,0.749-2.249,1.131-3.378c1.505-0.003,3.001,0,4.494-0.003c0.416,4.113,0.839,8.228,1.265,12.341c0.001-0.003-0.293,0.18-0.293,0.18c-0.835,1.035-1.903,1.691-3.203,1.965c-1.313-0.155-2.466-0.659-3.438-1.563C67.738,27.396,67.829,26.251,68.74,25.171z"/>
<path fill="#77633A" d="M68.64,18.79c0.006,1.138,0.012,2.276,0.02,3.415C68.653,21.066,68.647,19.928,68.64,18.79z"/>
<path fill="#987A4D" d="M74.857,31.143c0.064,1.08,0.13,2.161,0.195,3.238c-1.077,1.12-2.154,2.246-3.231,3.369c-0.002,0,0.095-0.07,0.095-0.07c-1.619,1.742-3.51,2.307-5.753,1.324c-1.3-0.738-2.064-1.861-2.368-3.311c0.07-2.319,1.348-3.928,3.104-5.252c1.331-0.479,2.706-0.674,4.12-0.586C72.459,29.8,73.739,30.23,74.857,31.143z"/>
<path fill="#867041" d="M65.959,37.542c1.985,0.046,3.97,0.092,5.957,0.138c0.024,1.095,0.047,2.188,0.073,3.287l0.134-0.107c-1.994,1.968-4.234,1.575-6.524,0.678l-0.04-1.053c-0.677-0.757-0.845-1.446-0.5-2.066C65.382,37.835,65.683,37.542,65.959,37.542z"/>
<path fill="#9F8053" d="M65.599,41.538c2.174-0.226,4.349-0.452,6.524-0.678c-0.06,1.071-0.119,2.143-0.179,3.21c-2.063,0.034-4.127,0.067-6.188,0.101C65.71,43.292,65.658,42.417,65.599,41.538z"/>
<path fill="#625030" d="M74.857,31.143l-1.53,0.034L71.8,31.064c-1.136-0.516-1.512-1.025-1.137-1.544c0.372-0.51,0.749-0.769,1.135-0.769c1.104-0.183,2.205-0.363,3.309-0.546C75.036,29.187,74.952,30.164,74.857,31.143z"/>
<path fill="#59472B" d="M37.291,47.101c0.088-1.05,0.177-2.1,0.266-3.149c2.089-0.021,4.178-0.042,6.267-0.064C41.647,44.959,39.469,46.03,37.291,47.101z"/>
<path fill="#9F8053" d="M56.375,31.561c2.019-0.018,4.035-0.04,6.055-0.058c0.438,0.524,0.876,1.05,1.313,1.571c-0.2,0.653-0.401,1.306-0.603,1.959c-0.616,0.296-1.233,0.589-1.85,0.885c-0.612-0.302-1.226-0.604-1.837-0.906c-1.06-0.101-2.116-0.202-3.176-0.302C56.311,33.664,56.343,32.614,56.375,31.561z"/>
<path fill="#59472B" d="M59.454,35.013c0.932-0.287,1.877-0.519,2.835-0.702c0.865,0.668,1.271,1.434,1.219,2.301c-0.055,0.916-0.195,1.373-0.423,1.376c-1.206,1.013-2.461,1.129-3.773,0.21c0,0,0.175-0.769,0.176-0.772C59.458,36.621,59.448,35.815,59.454,35.013z"/>
<path fill="#625030" d="M62.365,38.18c-0.026-1.291-0.051-2.579-0.075-3.869c-0.001,0-0.077,0.079-0.077,0.079c1.37-0.995,2.648-0.937,3.823,0.333c-0.125,0.937-0.152,1.877-0.08,2.82c-0.165,0.977-0.298,1.962-0.396,2.945c-1.004,0.198-2.016,0.305-3.038,0.32c-0.846-0.537-1.15-1.105-0.916-1.703C61.847,38.489,62.099,38.18,62.365,38.18z"/>
<path fill="#937649" d="M62.365,38.18c0.032,0.876,0.085,1.752,0.157,2.628c-1.069-0.873-2.141-1.743-3.211-2.612C60.328,38.12,61.346,38.113,62.365,38.18z"/>
<path fill="#937649" d="M68.74,25.171c-0.008,0.87-0.047,1.739-0.12,2.606c-0.217,0.675-0.434,1.352-0.65,2.029c-1.49,1.578-3.006,3.076-5.411,1.645c0,0-0.126,0.049-0.128,0.049c0.023-1.046,0.049-2.1,0.073-3.149c0.035-1.086,0.072-2.173,0.11-3.262C64.658,25.113,66.7,25.143,68.74,25.171z"/>
<path fill="#59472B" d="M71.798,28.751c0.023,0.775,0.024,1.547,0.004,2.316c-0.991,0.259-1.988,0.479-2.996,0.656c-0.947-0.687-1.237-1.334-0.871-1.941c0.353-0.586,0.7-0.879,1.044-0.879c0,0-0.355-1.117-0.357-1.12C69.681,28.101,70.739,28.424,71.798,28.751z"/>
<path fill="#5C4A2C" d="M68.979,28.903c-0.075,0.937-0.133,1.877-0.173,2.817c-0.925,1.001-1.849,2.002-2.771,3c-1.271-0.107-2.545-0.217-3.821-0.327c0.139-0.979,0.255-1.959,0.344-2.942C64.698,30.603,66.839,29.751,68.979,28.903z"/>
</svg>