<?xml version="1.0" encoding="utf-8"?>
<!DOCTYPE svg PUBLIC "-//W3C//DTD SVG 1.1//EN" "http://www.w3.org/Graphics/SVG/1.1/DTD/svg11.dtd">
<svg version="1.1" xmlns="http://www.w3.org/2000/svg" xmlns:xlink="http://www.w3.org/1999/xlink" x="0px" y="0px" width="100px" height="100px" viewBox="0 0 100 100" enable-background="new 0 0 100 100" xml:space="preserve">
<path fill="#746561" d="M29.34,37.442c0.03-4.163,0.06-8.325,0.088-12.488c0.441-0.479,0.883-0.961,1.326-1.443c0.459-0.467,0.916-0.937,1.376-1.407c1.08-0.809,2.287-1.291,3.633-1.45c1.361,0.159,2.657,0.522,3.908,1.089c1.257,0.629,2.479,1.288,3.7,1.987c1.926,1.047,3.85,2.06,5.804,3.049c2.866,1.581,4.792,3.769,4.814,7.232c-0.953,4.568-1.669,9.186-3,13.656c-1.153,2.048-2.94,3.189-5.218,3.564c-1.343,0.113-2.71,0.095-4.048-0.052c-0.615-0.171-1.257-0.348-1.874-0.516c-1.137-0.47-2.291-0.974-3.412-1.486c-0.534-0.244-1.092-0.5-1.626-0.747c-1.066-0.437-2.031-1.074-2.872-1.865c-0.63-0.925-1.001-1.957-1.061-3.083c0.153-1.068,0.154-2.151,0.008-3.229c-0.228-0.482-0.458-0.971-0.685-1.456C29.916,38.349,29.628,37.897,29.34,37.442z"/>
<path fill="#62362A" d="M6.978,75.184c0-3.241,0-6.479-0.001-9.721c1.389-1.395,2.688-2.89,4.4-3.924c1.27-0.418,2.559-0.513,3.871-0.244c1.157,0.619,2.291,1.281,3.406,1.975c1.129,0.662,2.244,1.352,3.346,2.063c1.652,1.08,3.346,2.1,4.855,3.385c0.952,0.942,1.737,2.005,2.357,3.188c0.389,1.294,0.614,2.609,0.649,3.958c-0.026,2.055-0.263,4.047-1.566,5.75c-1.08,0.888-2.319,1.33-3.717,1.324c-2.025-0.137-4.068-0.214-5.724-1.639l0.401,0.122c-1.776-1.986-4.764-1.535-6.646-3.308l0.4,0.188C11.439,76.413,8.616,76.944,6.978,75.184z"/>
<path fill="#7C4535" d="M30.98,12.097c3.409-1.819,6.818-3.635,10.228-5.454c2.446,1.837,5.255-0.104,7.807,0.748c2.087,0.433,4.107,1.028,5.962,2.127c1.268,0.772,2.407,1.685,3.462,2.728c0.929,1.218,1.53,2.561,1.769,4.071c-0.163,1.535-0.672,2.939-1.517,4.22c-1.668,1.645-3.691,2.515-6.005,2.719c-2.174,0.141-4.359,0.153-6.534,0.077c-1.402-0.086-2.786-0.333-4.13-0.739c-1.239-0.583-2.487-1.172-3.723-1.764c-1.299-0.372-2.522-0.934-3.641-1.703c-0.817-1.053-1.53-2.182-2.13-3.375C31.856,14.603,31.332,13.385,30.98,12.097z"/>
<path fill="#6D3C2F" d="M7.175,62.601c0.641-4.3,1.282-8.6,1.923-12.899c0.636,0.052,1.271,0.104,1.91,0.155c1.291,0.067,2.579,0.073,3.874,0.021c0.659-0.036,1.308-0.076,1.967-0.113c1.336,0.175,2.603,0.547,3.809,1.154c1.274,0.524,2.464,1.175,3.603,1.95c0.959,1.037,1.649,2.221,2.08,3.564c0.157,1.412,0.081,2.804-0.264,4.184c-1.36,2.493-2.764,4.943-5.332,6.43c-1.405,0.241-2.817,0.275-4.233,0.129c-1.457-0.074-2.721-0.607-3.789-1.603l0.296,0.144C11.537,63.803,8.516,64.776,7.175,62.601z"/>
<path fill="#8D4E3D" d="M9.097,49.701c3.313-1.865,6.625-3.727,9.937-5.588c1.971,1.575,4.034,0.513,6.081,0.213c1.469,0.141,2.875,0.495,4.239,1.065c2.059,1.059,3.854,2.384,4.932,4.514c0.419,1.575,0.325,3.101-0.281,4.608c-1.323,2.104-3.108,3.61-5.489,4.385c-2.644,0.281-4.635-0.988-6.438-2.703l0.325,0.183c-1.789-1.932-4.789-1.462-6.609-3.329l0.314,0.214c-0.827-0.757-1.784-1.288-2.85-1.624c-1.136-0.128-2.086-0.604-2.825-1.486L9.097,49.701z"/>
<path fill="#734032" d="M37.535,25.134c-1.066,0.146-2.133,0.293-3.201,0.442l-1.031,0.635l-1.169-0.317c-0.811-0.238-1.604-0.531-2.379-0.87c0.195-1.086-0.001-2.097-0.587-3.03c0.604-3.299,1.208-6.598,1.813-9.897l1.155,0.711c1.625,1.639,4.311,1.147,5.87,2.92l-0.301-0.186c1.801,1.889,4.796,1.41,6.586,3.32l-0.305-0.223c0.947,0.925,1.397,2.051,1.355,3.375c-0.427,1.232-1.162,2.237-2.201,3.024c-1.199,0.51-2.441,0.625-3.718,0.406C38.792,25.342,38.164,25.238,37.535,25.134z"/>
<path fill="#723F32" d="M93.825,49.799c-0.087,4.284-0.173,8.572-0.26,12.859c-0.836,0.932-1.636,1.893-2.398,2.899c-0.737,1.077-1.622,2.002-2.66,2.805c-1.29,0.501-2.597,0.586-3.948,0.323c-1.282-0.604-2.326-1.471-3.156-2.615c-0.639-1.281-1.029-2.624-1.179-4.047c-0.127-2.157-0.11-4.306,0.125-6.451c0.305-1.434,0.866-2.756,1.685-3.967c2.037-2.396,4.797-3.128,7.765-3.379C91.238,48.498,92.581,49.021,93.825,49.799z"/>
<path fill="#814838" d="M93.662,24.838c-0.021,1.043-0.039,2.087-0.059,3.131c-2.539,3.205-4.633,7.193-9.888,5.597c-3.101-1.847-4.338-4.779-4.77-8.182c0.456-2.661,1.93-4.361,4.637-4.889c1.698-0.271,3.182,0.177,4.446,1.346c1.06,0.189,2.117,0.375,3.176,0.565C92.157,23.084,92.976,23.892,93.662,24.838z"/>
<path fill="#63372B" d="M85.308,31.369c2.766-1.132,5.53-2.268,8.295-3.4c0.006,2.204,0.014,4.407,0.02,6.613c-1.984,2.2-3.571,4.974-7.108,4.95c-1.524-0.363-2.709-1.205-3.554-2.523C82.385,34.561,82.855,32.553,85.308,31.369z"/>
<path fill="#9A5643" d="M34.485,40.234c0.075,1.007,0.139,2.014,0.194,3.021c0.154,2.545-1.187,4.046-3.425,4.922c-2.187,0.244-4.356,0.403-6.075-1.4l0.197,0.186c-1.038-1.202-3.326-1.37-3.032-3.671c2.049-0.973,4.099-1.947,6.147-2.917C30.452,38.736,32.452,38.767,34.485,40.234z"/>
<path fill="#814838" d="M59.517,6.589c1.228,0.741,2.458,1.483,3.686,2.225c1.18,1.755,2.416,3.485,1.937,5.795c-0.622,1.324-1.604,2.276-2.943,2.866c-1.462,0.143-2.772-0.253-3.95-1.114c-1.155-1.91-3.313-2.576-4.907-3.937l0.264,0.226c-1.018-0.931-1.288-2.042-0.81-3.335C54.361,6.748,57.606,8.316,59.517,6.589z"/>
<path fill="#90807B" d="M75.282,84.369c-2.059,1.013-4.115,2.026-6.174,3.039c-0.687-0.412-1.374-0.82-2.064-1.232c-2.176-3.03-2.027-5.918,0.52-8.661c1.365-0.937,2.871-1.288,4.51-1.059c2.399,1.083,3.48,3.015,3.562,5.581C75.517,82.815,75.4,83.594,75.282,84.369z"/>
<path fill="#834939" d="M43.976,5.859c4.315-0.027,8.628-0.055,12.944-0.083c-0.732,1.309-1.828,2.127-3.288,2.457c-2.095,0.775-4.196,0.827-6.304,0.055C45.887,7.925,44.769,7.117,43.976,5.859z"/>
<path fill="#90807C" d="M93.585,65.68c-0.866,3.958-1.733,7.916-2.6,11.875c-1.145-0.635-2.175-1.423-3.105-2.341c-0.741-1.099-1.153-2.308-1.235-3.632c0.229-1.3,0.698-2.502,1.412-3.613c0.688-1.117,1.475-2.157,2.349-3.137C91.726,64.136,92.775,64.465,93.585,65.68z"/>
<path fill="#7E6F6C" d="M50.398,96.365c-2.046-0.903-4.092-1.807-6.139-2.71c-0.134-0.76-0.269-1.52-0.403-2.282c-0.032-2.521,0.963-4.462,3.224-5.683c1.573-0.32,3.065-0.079,4.491,0.638c1.813,1.795,2.348,3.934,1.713,6.385C52.496,94.067,51.526,95.279,50.398,96.365z"/>
<path fill="#965441" d="M84.8,21.768c-1.068,0.913-2.137,1.822-3.205,2.734c-0.901,1.074-2.032,1.44-3.394,1.105c-1.829-1.126-2.604-2.786-2.467-4.901c0.415-1.272,1.197-2.255,2.348-2.938c1.301-0.412,2.501-0.238,3.583,0.619c1.041,0.287,2.08,0.577,3.12,0.867c0.895,0.556,1.193,1.111,0.9,1.672S85.098,21.768,84.8,21.768z"/>
<path fill="#7C4536" d="M69.517,12.125c0.982,0.238,1.948,0.528,2.899,0.87c0.862,1.139,1.457,2.402,1.745,3.809c-0.039,0.711-0.077,1.419-0.117,2.13c-0.703,1.288-1.721,2.234-3.053,2.847c-2.283,0.467-4.221-0.131-5.797-1.861c-0.688-1.3-0.865-2.661-0.457-4.086C65.665,13.739,67.206,12.436,69.517,12.125z"/>
<path fill="#67392D" d="M69.517,12.125c-1.271,1.211-2.542,2.423-3.814,3.635c-1.164,0.87-2.051,0.595-2.695-0.662c0.066-2.094,0.13-4.187,0.195-6.281c1.021,0.327,2.041,0.656,3.062,0.986c1.01,0.964,2.045,1.898,3.101,2.811L69.517,12.125z"/>
<path fill="#9E8B86" d="M43.976,5.859c0.94,0.308,1.904,0.467,2.892,0.476c0.549,0.43,1.098,0.861,1.648,1.288c-0.42,0.559-0.841,1.114-1.261,1.673c-2.014-0.885-4.03-1.767-6.045-2.652C42.13,6.381,43.052,6.119,43.976,5.859z"/>
<path fill="#B6A49E" d="M53.626,6.323c1.099-0.18,2.197-0.363,3.296-0.543c0.839,0.345,1.702,0.613,2.594,0.806c-2.07,0.894-4.143,1.785-6.214,2.676c-0.38-0.537-0.758-1.074-1.138-1.611C52.65,7.208,53.138,6.766,53.626,6.323z"/>
<path fill="#756762" d="M18.855,81.299c2.105-0.119,4.213-0.238,6.32-0.357c0.951,0.662,1.336,1.569,1.158,2.717c-0.441,0.311-0.881,0.625-1.322,0.939C22.96,83.496,20.907,82.398,18.855,81.299z"/>
<path fill="#7E706C" d="M31.619,87.369c-2.202-0.922-4.405-1.847-6.607-2.771l1.017-0.427c0.958-1.02,2.134-1.489,3.532-1.416c1.279,0.53,2.184,1.437,2.711,2.719C32.054,86.106,31.838,86.737,31.619,87.369z"/>
<path fill="#746561" d="M37.895,90.582c-2.092-1.071-4.184-2.139-6.276-3.21c0-0.003-0.128,0.024-0.128,0.024c2.782-2.625,5.075-2.088,6.958,1.077C38.264,89.176,38.08,89.881,37.895,90.582z"/>
<path fill="#824939" d="M72.086,18.384c0.073-0.964,0.146-1.929,0.221-2.893c1.128-1.123,2.224-1.096,3.289,0.088c1.031,0.019,2.035,0.195,3.014,0.528c0.83,0.695,1.064,1.33,0.709,1.907c-0.337,0.549-0.662,0.821-0.979,0.821l0.231-0.232C76.335,20.706,74.175,20.596,72.086,18.384z"/>
<path fill="#857570" d="M69.108,87.408c-2.098,1.05-4.197,2.103-6.296,3.152c-0.18-0.695-0.359-1.392-0.54-2.087c1.871-3.244,4.202-3.494,6.943-1.068L69.108,87.408z"/>
<path fill="#766762" d="M44.259,93.655c-2.121-1.022-4.243-2.048-6.364-3.073l0.024,0.046c3.755-2.328,6.454-2.505,6.318,3.098L44.259,93.655z"/>
<path fill="#84746F" d="M62.812,90.561c-2.087,1.038-4.174,2.075-6.26,3.11c-0.178-0.696-0.354-1.395-0.53-2.094c1.89-3.104,4.139-3.714,6.868-0.995L62.812,90.561z"/>
<path fill="#867570" d="M50.398,96.365c0.057-1.099,0.113-2.194,0.169-3.29c2.202-1.632,4.188-1.321,5.983,0.672l0.002-0.073C54.5,94.571,52.449,95.468,50.398,96.365z"/>
<path fill="#84746F" d="M87.93,37.543c1.898-0.986,3.795-1.972,5.692-2.96c0.36,1.004,0.347,2.002-0.042,2.997c-0.71,0.983-1.648,1.605-2.853,1.813c-0.565-0.159-1.13-0.314-1.696-0.473C88.664,38.461,88.297,38.003,87.93,37.543z"/>
<path fill="#756662" d="M34.485,40.234c-1.999,0.049-3.998,0.095-5.995,0.141c0.032-1.05,0.314-2.026,0.85-2.933c1.115-0.152,2.229-0.308,3.343-0.46l1.141,0.162C34.044,38.174,34.263,39.203,34.485,40.234z"/>
<path fill="#938480" d="M90.799,37.54c0.928,0.021,1.855,0.037,2.782,0.04c0.004,2.063,0.008,4.123,0.011,6.186c-1.363,0.476-2.588,0.269-3.656-0.735C88.859,40.982,89.181,39.157,90.799,37.54z"/>
<path fill="#9D796F" d="M22.343,43.292c1.01,1.224,2.02,2.448,3.03,3.671c-2.11-0.949-4.221-1.901-6.335-2.85C20.137,43.838,21.24,43.564,22.343,43.292z"/>
<path fill="#978781" d="M91.554,43.909c0.678-0.058,1.356-0.104,2.037-0.144c0.077,2.011,0.155,4.022,0.233,6.034l-1.413,0.234l-1.43-0.091c-0.47-0.449-0.941-0.897-1.415-1.347c-0.396-1.287-0.283-2.539,0.266-3.759C90.407,44.525,90.98,44.217,91.554,43.909z"/>
<path fill="#756662" d="M7.175,62.601c1.949,1.038,3.896,2.078,5.844,3.116c-2.014-0.086-4.028-0.168-6.042-0.254C6.746,64.49,6.813,63.534,7.175,62.601z"/>
<path fill="#857570" d="M93.585,65.68l-1.401,0.003l-1.402-0.009c-0.461,0.406-0.922,0.809-1.381,1.212c-0.477-0.385-0.953-0.77-1.429-1.154c-0.02-0.928-0.062-1.853-0.12-2.776c0.704-1.209,1.663-1.535,2.914-0.837c0.919,0.26,1.853,0.442,2.802,0.544C93.977,63.663,93.983,64.673,93.585,65.68z"/>
<path fill="#746662" d="M6.978,75.184c2.011,1.037,4.022,2.078,6.033,3.118C11,77.262,8.989,76.221,6.978,75.184z"/>
<path fill="#736460" d="M12.611,78.113c2.216,1.102,4.43,2.203,6.646,3.308C17.043,80.316,14.827,79.215,12.611,78.113z"/>
<path fill="#857671" d="M87.792,78.016c-2.062,1.07-4.123,2.142-6.187,3.213c-0.206-0.681-0.413-1.361-0.621-2.041c1.028-2.259,2.79-3.027,5.167-2.549C86.697,77.1,87.245,77.558,87.792,78.016z"/>
<path fill="#8E503F" d="M69.365,12.613c-1.035-0.937-2.067-1.874-3.101-2.811C67.298,10.739,68.33,11.676,69.365,12.613z"/>
<path fill="#A95E4A" d="M75.595,15.579c-1.099-0.027-2.196-0.052-3.29-0.085c0.006-0.836,0.043-1.669,0.111-2.5C73.475,13.855,74.535,14.719,75.595,15.579z"/>
<path fill="#AE9C96" d="M78.339,18.835c0.089-0.91,0.18-1.819,0.271-2.728c1.018,0.763,2.037,1.522,3.057,2.279C80.555,18.536,79.446,18.686,78.339,18.835z"/>
<path fill="#A45B47" d="M84.8,21.768c-0.026-0.836-0.031-1.675-0.015-2.515c1.082,0.864,2.163,1.724,3.244,2.588C86.952,21.817,85.877,21.793,84.8,21.768z"/>
<path fill="#776965" d="M29.167,21.994c0.21,1.013,0.421,2.029,0.61,3.036c-0.023-0.006-0.348-0.076-0.348-0.076C28.805,24.014,28.718,23.028,29.167,21.994z"/>
<path fill="#90807B" d="M90.89,74.774c0.043,0.925,0.075,1.853,0.095,2.78c-1.063,0.155-2.127,0.308-3.192,0.464c-0.001-0.003,0.201,0.015,0.201,0.015C86.914,75.128,88.134,74.268,90.89,74.774z"/>
<path fill="#9A5643" d="M93.662,24.838c-0.82-0.812-1.638-1.621-2.457-2.432C92.024,23.218,92.842,24.026,93.662,24.838z"/>
<path fill="#847470" d="M78.463,83.847c-1.061,0.175-2.12,0.349-3.181,0.522l-0.046-0.034c-1.365-1.339-1.356-2.667,0.024-3.988c0.789-0.062,1.58-0.125,2.368-0.187c0.604,0.507,1.209,1.02,1.813,1.526C79.114,82.406,78.789,83.127,78.463,83.847z"/>
<path fill="#80716C" d="M78.463,83.847c-0.025-0.628-0.066-1.257-0.124-1.883c0.844-1.471,1.964-1.728,3.363-0.766l-0.097,0.03C80.558,82.102,79.51,82.975,78.463,83.847z"/>
<path fill="#573125" d="M41.173,21.848c1.042-0.003,2.083-0.037,3.122-0.104c0.665,0.046,1.329,0.088,1.996,0.134c1.341,0.18,2.646,0.491,3.931,0.937c1.344,0.351,2.693,0.607,4.074,0.784c2.197,0.388,4.048,1.453,5.778,2.808c1.899,1.44,3.226,3.247,3.773,5.597c0.245,2.508-0.146,4.831-1.806,6.83c-1.341,1.093-2.87,1.645-4.593,1.675c-2.585-0.497-4.617-1.834-6.106-4c-0.282-0.788-0.564-1.575-0.847-2.362c-2.499-0.918-4.999-1.837-7.5-2.755c-0.736-1.505-2.474-2.088-3.271-3.537c-0.217-1.071-0.278-2.155-0.206-3.244C39.859,23.563,40.41,22.641,41.173,21.848z"/>
<path fill="#817470" d="M47.035,47.024c1.154-4.294,2.308-8.584,3.461-12.878l-0.014,0.058c1.013,1.123,1.938,2.316,2.785,3.57c1.534,2.759,1.756,5.726,1.388,8.783c-0.346,1.492-1.037,2.799-2.124,3.885c-1.362,0.757-2.795,0.919-4.293,0.488C47.002,49.887,46.6,48.584,47.035,47.024z"/>
<path fill="#756662" d="M41.217,27.383c0.603,1.337,1.204,2.673,1.793,4.007c-1.775-0.781-3.536-1.566-5.296-2.35c0.34-0.791,0.681-1.581,1.021-2.375C39.561,26.904,40.39,27.146,41.217,27.383z"/>
<path fill="#AD9A95" d="M31.729,46.967c0.982-1.236,1.965-2.472,2.948-3.708c1.035,0.223,2.068,0.452,3.101,0.677c0.821,1.086,0.902,2.246,0.342,3.47c-0.923,0.925-2.032,1.455-3.331,1.593c-0.605-0.195-1.21-0.391-1.816-0.586C32.557,47.931,32.144,47.449,31.729,46.967z"/>
<path fill="#A25B47" d="M47.035,47.024c0.124,0.916,0.234,1.831,0.33,2.75c-0.283,0.556-0.565,1.11-0.846,1.663c-1.706,1.126-3.445,1.162-5.215,0.158c-0.896-0.915-1.349-2.023-1.422-3.296c0.4-0.473,0.8-0.946,1.2-1.419C43.066,46.927,45.05,46.976,47.035,47.024z"/>
<path fill="#965341" d="M37.578,46.555c0.142-0.87,0.209-1.746,0.2-2.622c0,0.003,0.346-0.235,0.346-0.235c0.577-0.434,1.154-0.87,1.73-1.306c0.709,0.128,1.421,0.259,2.13,0.391c-0.302,1.367-0.604,2.731-0.905,4.098c0.001,0-0.171,0.07-0.171,0.07c-0.602,0.324-1.204,0.645-1.805,0.968C38.595,47.464,38.086,47.009,37.578,46.555z"/>
<path fill="#010101" d="M41.173,41.089c-0.258,0.263-0.516,0.522-0.773,0.784c0.529,0.302,1.059,0.607,1.587,0.91c-0.001,0,0.067,0.07,0.067,0.07c-1.308,0.162-1.869-0.042-1.701-0.619C40.574,41.474,40.843,41.089,41.173,41.089z"/>
<path fill="#746662" d="M41.173,41.089c0.623,0.424,0.916,1.013,0.88,1.764c-1.309,0.281-2.62,0.565-3.929,0.846C39.14,42.828,40.156,41.959,41.173,41.089z"/>
<path fill="#010101" d="M33.824,37.143c0,0-1.147-0.171-1.145-0.168c0.003,0.006,0.487,0.836,0.487,0.836L33.824,37.143z"/>
<path fill="#65382C" d="M41.217,27.383c-1.167,0.546-2.334,1.089-3.502,1.645c-0.06-1.291-0.116-2.594-0.177-3.897c-0.003,0.003,0.449-0.174,0.449-0.174c1.074-1.217,2.095-1.236,3.057,0.135C41.118,25.855,41.176,26.617,41.217,27.383z"/>
<path fill="#756763" d="M32.134,25.894c0.719-0.229,1.454-0.335,2.203-0.32C33.621,25.824,32.889,25.931,32.134,25.894z"/>
<path fill="#7F706D" d="M28.889,84.277c-0.958-0.024-1.917-0.061-2.867-0.106c-0.278-1.077-0.562-2.151-0.847-3.229c0.044-1.028-0.037-2.047-0.244-3.058c-0.701-0.925-0.762-1.867-0.087-2.835l1.048,0.195c1.557-1.145,3.026-1.044,4.41,0.309C32.333,78.866,32.236,81.833,28.889,84.277z"/>
<path fill="#756662" d="M25.43,71.799c-2.084-1.038-4.169-2.072-6.253-3.109c0.401-0.461,0.804-0.922,1.207-1.383c1.018-0.738,2.155-1.074,3.411-1.007c1.193,0.408,2.112,1.153,2.759,2.233c0.012,0.613,0.022,1.227,0.035,1.837C26.202,70.847,25.816,71.322,25.43,71.799z"/>
<path fill="#756662" d="M28.751,75.052c-0.956,0.052-1.909,0.116-2.861,0.189c-0.151-1.146-0.305-2.292-0.459-3.442l-0.176,0.192c0.862-1.021,1.911-1.782,3.146-2.286c1.349-0.036,2.562,0.354,3.638,1.166c0.651,1.205,0.705,2.441,0.159,3.698C31.163,75.54,30.014,75.702,28.751,75.052z"/>
<path fill="#71635E" d="M12.723,65.573c1.099,0.112,2.196,0.226,3.294,0.339c0.691,0.473,1.382,0.942,2.073,1.416c-0.706,0.448-1.411,0.896-2.116,1.349C14.891,67.643,13.807,66.607,12.723,65.573z"/>
<path fill="#756662" d="M15.974,68.677c0.012-0.925,0.026-1.85,0.041-2.771c0.954-0.08,1.906-0.059,2.854,0.076c1.007,0.595,1.363,1.221,1.07,1.88c-0.301,0.671-0.61,1.007-0.933,1.007c0,0,0.168-0.177,0.169-0.18C18.109,68.686,17.041,68.68,15.974,68.677z"/>
<path fill="#4F2C22" d="M24.844,75.049c0.203,0.939,0.232,1.886,0.087,2.838C24.678,76.947,24.651,76.001,24.844,75.049z"/>
<path fill="#B4A09A" d="M50.563,19.315c2.051-0.155,4.1-0.314,6.15-0.47c0.513,0.384,1.025,0.769,1.54,1.153c0.57,1.19,0.735,2.433,0.499,3.729c-0.602,1.178-1.499,2.051-2.69,2.625c-1.941,0.216-3.855,0.235-5.648-0.72c-0.94-0.922-1.576-2.023-1.955-3.278C48.711,21.03,49.413,20.017,50.563,19.315z"/>
<path fill="#B09E98" d="M53.301,9.262c0.102,1.129,0.2,2.258,0.301,3.387c-2.113-1.12-4.228-2.237-6.344-3.357c-0.003,0.003-0.092,0.229-0.092,0.229c2.139-2.154,4.291-2.161,6.455-0.037L53.301,9.262z"/>
<path fill="#9D8983" d="M38.005,15.729c-1.958-0.973-3.914-1.947-5.87-2.92C34.091,13.782,36.047,14.755,38.005,15.729z"/>
<path fill="#9D8983" d="M53.339,12.424c2.159,1.047,4.318,2.093,6.478,3.143c-1.096,1.27-2.229,1.303-3.396,0.101C55.392,14.587,54.365,13.504,53.339,12.424z"/>
<path fill="#9C8984" d="M44.29,18.863c-2.196-1.104-4.392-2.212-6.586-3.32C39.899,16.65,42.094,17.758,44.29,18.863z"/>
<path fill="#9D8983" d="M50.563,19.315c-0.107,0.964-0.244,1.923-0.414,2.878c-2.124,1.621-4.125,1.431-6.018-0.406l0.162-0.043c-0.116-1.035-0.218-2.066-0.308-3.104C46.177,18.866,48.37,19.089,50.563,19.315z"/>
<path fill="#AE9C96" d="M56.42,15.668c1.132-0.034,2.263-0.067,3.395-0.101c0.002,0-0.003-0.045-0.003-0.045c0.811,0.769,1.14,1.59,0.992,2.462c-0.154,0.894-0.349,1.343-0.585,1.346c-1.433,0.757-2.693,0.577-3.755-0.684c0,0,0.245,0.195,0.249,0.198C56.616,17.786,56.518,16.727,56.42,15.668z"/>
<path fill="#63372B" d="M19.006,68.869c-0.024-0.965-0.07-1.926-0.137-2.887c1.184-2.225,2.37-4.453,3.555-6.678c1.535-1.947,3.685-1.386,5.698-1.397c1.408,0.177,2.667,0.705,3.778,1.587c1.313,1.636,2.694,3.226,3.307,5.298c-0.014,0.702-0.029,1.4-0.043,2.103c-0.482,1.355-1.321,2.438-2.469,3.293c-1.384,0.266-2.715,0.687-3.987,1.297c-1.15,0.168-2.303,0.339-3.453,0.507c0.031-0.943,0.076-1.886,0.134-2.829c-0.703-1.172-1.646-1.48-2.866-0.787C21.351,68.539,20.179,68.704,19.006,68.869z"/>
<path fill="#9D8A84" d="M15.794,53.049c2.204,1.11,4.405,2.219,6.607,3.329C20.199,55.268,17.998,54.156,15.794,53.049z"/>
<path fill="#9D8983" d="M27.829,59.82c-1.802-0.171-3.605-0.342-5.406-0.516c-0.114-1.037-0.229-2.072-0.345-3.109c2.223-0.156,4.446-0.309,6.669-0.461c0.316,0.504,0.632,1.007,0.949,1.511c-0.093,0.589-0.186,1.175-0.278,1.764C28.889,59.28,28.358,59.549,27.829,59.82z"/>
<path fill="#978580" d="M12.854,50.333c1.085,0.977,2.17,1.953,3.253,2.93c-1.091-0.195-2.182-0.394-3.274-0.589c-0.89-0.528-1.181-1.051-0.881-1.569C12.251,50.592,12.552,50.333,12.854,50.333z"/>
<path fill="#9C8884" d="M12.854,50.333c-0.007,0.781-0.015,1.563-0.021,2.341c-0.8-0.84-1.601-1.679-2.4-2.521C11.25,50.092,12.057,50.152,12.854,50.333z"/>
<path fill="#B09E98" d="M25.178,46.777c2.184,0.064,4.366,0.128,6.549,0.189c0.002,0-0.238-0.199-0.238-0.199c0.485,0.498,0.97,0.998,1.456,1.496c-0.417,0.556-0.833,1.113-1.251,1.669C29.523,48.883,27.35,47.83,25.178,46.777z"/>
<path fill="#9D8983" d="M31.637,53.137c0.019-1.067,0.037-2.136,0.057-3.204l-0.247,0.116c0.931-1.059,2.103-1.584,3.516-1.568c0.677,0.052,1.352,0.101,2.029,0.152c0.574,0.366,1.145,0.732,1.718,1.102c0.56,1.315,0.502,2.604-0.172,3.863c-1.011,0.968-2.203,1.551-3.605,1.688c-0.656-0.195-1.312-0.387-1.968-0.582C32.521,54.181,32.078,53.659,31.637,53.137z"/>
<path fill="#6A3B2E" d="M28.747,55.734c0.963-0.867,1.926-1.733,2.89-2.598l-0.023-0.052c0.832,0.705,1.2,1.486,1.104,2.344c-0.098,0.9-0.261,1.35-0.488,1.35c-1.297,0.857-2.576,0.836-3.839-0.073L28.747,55.734z"/>
<path fill="#824939" d="M41.043,25.092c-1.021-0.016-2.041-0.062-3.058-0.135c1.063-1.034,2.124-2.072,3.186-3.109C41.13,22.928,41.086,24.008,41.043,25.092z"/>
<path fill="#867570" d="M90.982,49.942c-2.112,1.028-4.224,2.057-6.336,3.085c-0.377-0.485-0.752-0.971-1.129-1.456c-0.092-1.281,0.34-2.368,1.219-3.289c1.12-0.574,2.305-0.742,3.544-0.556c1.034,0.668,1.979,1.443,2.821,2.341L90.982,49.942z"/>
<path fill="#847570" d="M84.646,53.027c-0.105,1.111-0.209,2.225-0.314,3.339c-0.928,1.019-2.075,1.623-3.443,1.81c-1.355-0.287-2.465-0.968-3.333-2.048c-0.456-1.327-0.37-2.618,0.257-3.873c1.083-0.885,2.331-1.3,3.722-1.312c1.288,0.484,2.396,1.232,3.293,2.279L84.646,53.027z"/>
<path fill="#92827F" d="M81.434,56.29c0.968,0.021,1.935,0.046,2.901,0.073c-0.057,2.075-0.111,4.146-0.165,6.219c-1.136,0.602-2.262,0.613-3.379-0.055c-0.828-0.937-1.272-2.032-1.338-3.28C79.801,58.051,80.463,57.065,81.434,56.29z"/>
<path fill="#857570" d="M85.019,65.592c0.982,0.066,1.967,0.112,2.952,0.137c0,0.003-0.19-0.189-0.19-0.189c0.768,0.531,1.129,1.16,1.083,1.884c-0.049,0.769-0.173,1.153-0.372,1.153c-0.879,0.906-1.95,1.313-3.208,1.224c-1.088-0.678-1.604-1.66-1.545-2.938C84.166,66.437,84.592,66.013,85.019,65.592z"/>
<path fill="#502D23" d="M90.765,62.118c-0.972,0.275-1.942,0.556-2.913,0.837C88.765,62.473,89.737,62.195,90.765,62.118z"/>
<path fill="#998985" d="M82.079,62.671c0.7-0.049,1.4-0.079,2.097-0.092c0.275,1.004,0.557,2.009,0.84,3.013c0.004,0-1.148-0.092-1.148-0.092c-0.961,0.974-1.952,0.961-2.97,0.095c-0.063-0.593-0.126-1.185-0.19-1.776C81.165,63.437,81.622,63.053,82.079,62.671z"/>
<path fill="#9E8780" d="M78.414,25.046c1.062-0.183,2.122-0.363,3.183-0.543c1.235,2.289,2.475,4.578,3.712,6.867c-0.085,1.904-0.172,3.806-0.258,5.71c0.701,0.772,1.041,1.611,1.019,2.515c-0.021,0.939-0.124,1.407-0.304,1.41c-1.043,1.065-2.305,1.663-3.789,1.797c-1.456-0.262-2.727-0.894-3.819-1.889c-0.888-1.154-1.767-2.311-2.647-3.47c-1.245-1.803-2.545-3.574-3.252-5.688c-0.261-1.477-0.137-2.911,0.431-4.306c0.908-1.208,2.092-2.029,3.514-2.521C76.939,24.966,77.676,25.006,78.414,25.046z"/>
<path fill="#887069" d="M84.477,40.237c0.189-1.053,0.38-2.105,0.572-3.158c0.963,0.137,1.921,0.293,2.879,0.464c0.002,0-0.131-0.128-0.131-0.128c0.96,0.687,1.381,1.471,1.264,2.353c-0.126,0.931-0.319,1.397-0.582,1.397C86.944,41.724,85.62,41.376,84.477,40.237z"/>
<path fill="#9C8883" d="M59.619,18.32c0.037-0.934,0.101-1.865,0.192-2.795c1.065-0.141,2.13-0.281,3.195-0.424c0.896,0.241,1.794,0.461,2.699,0.659c0.154,1.01,0.225,2.029,0.206,3.055c-0.464,0.473-0.928,0.949-1.391,1.425C62.405,20.828,60.655,20.486,59.619,18.32z"/>
<path fill="#744032" d="M56.551,93.747c-1.994-0.223-3.99-0.445-5.984-0.669c-0.133-1.867-0.268-3.731-0.401-5.597c-0.981-1.007-1.551-2.206-1.706-3.604c0.459-3.156,3.144-4.251,5.357-5.78c1.145-0.745,2.324-1.432,3.537-2.057c1.797-0.998,3.622-1.923,5.707-2.164c2.159-0.006,4.008,0.672,5.382,2.417c0.16,0.668,0.32,1.337,0.48,2.005c0.098,3.033,0.195,6.07,0.293,9.106c-2.107,1.06-4.216,2.118-6.325,3.177C60.777,91.639,58.664,92.694,56.551,93.747z"/>
<path fill="#834939" d="M75.525,81.256c-0.097,1.028-0.194,2.054-0.29,3.079c-1.12-2.093-2.241-4.187-3.363-6.277c-0.691-0.803-0.944-1.623-0.762-2.46c0.187-0.848,0.388-1.272,0.604-1.272c1.286-0.708,2.626-0.799,4.015-0.356c1.044,1.001,1.666,2.209,1.796,3.659C77.177,79.013,76.527,80.231,75.525,81.256z"/>
<path fill="#9B8A85" d="M72.398,75.046c-0.108,1.013-0.28,2.017-0.521,3.012c-0.987,0.062-1.97,0.141-2.953,0.238c-0.001,0.003-0.044,0.076-0.044,0.076c-0.895-1.126-0.905-2.258-0.033-3.402C70.046,74.237,71.229,74.295,72.398,75.046z"/>
<path fill="#6B3C2F" d="M53.621,9.485c-2.151,0.012-4.303,0.024-6.455,0.037c-0.098-1.062-0.194-2.124-0.294-3.186c2.249-0.006,4.501-0.009,6.755-0.012C53.624,7.379,53.623,8.432,53.621,9.485z"/>
<path fill="#723F32" d="M75.491,78.375c-0.077-1.211-0.155-2.423-0.233-3.635c-0.44-0.476-0.882-0.949-1.322-1.422c-0.104-0.641-0.208-1.278-0.313-1.916c0.354-1.267,1.032-2.329,2.026-3.187c1.171-0.549,2.405-0.857,3.693-0.952c0.638-0.006,1.278-0.016,1.918-0.021c1.324-0.112,2.472,0.287,3.438,1.199c0.983,0.156,1.968,0.181,2.956,0.076c0.51,0.123,1.018,0.244,1.525,0.367c0.33,0.997,0.781,1.938,1.355,2.816c0.233,1.01,0.353,2.035,0.355,3.073c-0.966,1.086-1.93,2.173-2.896,3.259c-2.098,1.057-4.195,2.109-6.292,3.165c-1.122,0.256-2.242,0.51-3.363,0.766l0.087-1.169C77.286,80.185,76.317,79.367,75.491,78.375z"/>
<path fill="#7C4434" d="M87.654,68.518c0.093-0.991,0.136-1.983,0.127-2.979c1.001,0.046,2.003,0.089,3.003,0.135c-0.1,1.074-0.194,2.148-0.289,3.22c-0.654,0.152-1.308,0.302-1.96,0.454L87.654,68.518z"/>
<path fill="#5A3227" d="M88.535,69.348c0.645-0.186,1.298-0.335,1.96-0.454c0.222,0.934,0.235,1.867,0.04,2.808C89.804,70.969,89.137,70.185,88.535,69.348z"/>
<path fill="#673C30" d="M28.751,75.052c0.975,0,1.951,0.013,2.926,0.034c0.632-0.156,1.264-0.312,1.897-0.468c1.917-0.692,3.822-0.652,5.722,0.07c2.379,1.13,4.834,2.112,6.902,3.806c1.434,1.465,2.427,3.135,2.487,5.249c0.135,1.376-0.229,2.606-1.086,3.689c-1.12,2.097-2.24,4.196-3.36,6.296c-2.105-1.034-4.213-2.069-6.318-3.101c-2.143-1.077-4.286-2.154-6.429-3.231c-0.867-1.041-1.735-2.082-2.602-3.119C28.843,81.201,28.796,78.128,28.751,75.052z"/>
<path fill="#877A75" d="M47.598,87.433c-0.203-1.025-0.241-2.054-0.118-3.088c1.032-0.772,2.044-0.748,3.037,0.073c-0.059,1.028-0.173,2.051-0.348,3.063C49.308,87.481,48.453,87.467,47.598,87.433z"/>
<path fill="#AE9C96" d="M72.086,18.384c2.16,0.073,4.322,0.146,6.484,0.22c-0.053,2.148-0.106,4.294-0.158,6.442c0.002,0,0.133-0.187,0.133-0.187c-0.977,0.952-2.127,1.569-3.479,1.801c-1.359,0.36-2.618,0.125-3.795-0.625c-0.839-1.102-1.245-2.344-1.224-3.729c0.471-1.291,1.255-2.344,2.397-3.119L72.086,18.384z"/>
<path fill="#9D8983" d="M72.444,19.187c-0.146,1.004-0.296,2.011-0.445,3.018c-3.735,1.749-6.616,2.066-5.951-3.555c0,0-0.133,0.162-0.134,0.162C68.09,18.936,70.266,19.062,72.444,19.187z"/>
<path fill="#804737" d="M87.808,40.463c0.049-1.016,0.046-2.033-0.01-3.049c1.001,0.058,2.004,0.101,3.003,0.122c0.248,2.124,0.496,4.248,0.748,6.372c0.005,0-1.104-0.293-1.104-0.293c-1.053,1.081-2.19,1.178-3.413,0.293C86.427,42.566,86.642,41.406,87.808,40.463z"/>
<path fill="#68392D" d="M87.871,43.545c0.859,0.037,1.718,0.061,2.577,0.07c0.217,2.151,0.435,4.3,0.653,6.452c-1.172-0.187-2.344-0.372-3.516-0.559c-1.12-0.522-2.27-0.971-3.449-1.349c-0.708-1.075-0.937-2.243-0.689-3.507C84.625,43.097,85.878,41.84,87.871,43.545z"/>
<path fill="#4A2920" d="M75.491,78.375c0.979,0.806,1.956,1.614,2.935,2.42c-0.954,0.244-1.921,0.4-2.902,0.461C75.487,80.298,75.476,79.337,75.491,78.375z"/>
<path fill="#857974" d="M59.518,37.189c-0.047-1.959-0.095-3.921-0.144-5.88c-1.058-1.456-0.984-2.851,0.219-4.187c0.741-0.253,1.484-0.504,2.226-0.757c0.764,0.162,1.529,0.323,2.292,0.482c1.302,0.907,2.228,2.112,2.828,3.574c0.552,3.04,0.801,6.07-0.382,9.033c-0.86,1.267-2.018,2.173-3.421,2.768c-1.524,0.183-2.904-0.208-4.15-1.089C58.246,39.694,58.464,38.385,59.518,37.189z"/>
<path fill="#65382C" d="M44.132,21.787c2.006,0.137,4.013,0.271,6.018,0.406c0.284,0.796,0.558,1.596,0.818,2.402c-0.461,0.595-0.922,1.187-1.383,1.782c-0.657-0.363-1.315-0.727-1.973-1.086C46.451,24.121,45.291,22.955,44.132,21.787z"/>
<path fill="#6B4238" d="M50.967,24.594c1.927,0.198,3.853,0.4,5.78,0.598c0.407,0.372,0.814,0.745,1.221,1.12c-0.063,0.546-0.127,1.095-0.191,1.645c-0.51,0.208-1.021,0.418-1.53,0.629c-1.953-0.162-3.906-0.32-5.859-0.482c-0.854-0.662-1.222-1.532-1.104-2.609C49.829,25.165,50.389,24.863,50.967,24.594z"/>
<path fill="#766762" d="M50.644,37.863c-0.056-1.218-0.108-2.438-0.162-3.659c2.029,1.111,4.061,2.222,6.09,3.333c-0.368,0.473-0.735,0.946-1.104,1.416C53.602,39.734,52.018,39.261,50.644,37.863z"/>
<path fill="#756662" d="M59.518,37.189c0.182,1.007,0.336,2.018,0.466,3.034c-3.052,1.385-4.108,0.384-3.347-2.795c0,0-0.063,0.11-0.064,0.11C57.559,37.457,58.541,37.341,59.518,37.189z"/>
<path fill="#6B4238" d="M59.562,28.25c0.116,1.032,0.056,2.048-0.185,3.058c-1.042-0.913-2.083-1.822-3.128-2.729c-0.003,0.006,0.727-0.827,0.727-0.827C58.013,27.005,58.885,27.124,59.562,28.25z"/>
<path fill="#4C2A21" d="M49.284,25.494c0.433,0.843,0.8,1.715,1.104,2.609c-0.928-0.94-1.855-1.88-2.78-2.816C48.171,25.348,48.727,25.418,49.284,25.494z"/>
<path fill="#744032" d="M56.637,37.427c1.115,0.934,2.229,1.865,3.345,2.795c0.002,0-0.364,0.696-0.364,0.696c1.205,0.934,1.713,2.154,1.524,3.665c-1.285,3.125-3.952,3.809-6.938,3.928c-1.404-0.329-2.631-0.992-3.703-1.95c0.047-2.899,0.093-5.798,0.142-8.697C52.641,37.72,54.64,37.573,56.637,37.427z"/>
<path fill="#9E5845" d="M47.365,49.774c0.99-0.007,1.976-0.07,2.958-0.195c1.427-0.562,2.677-0.327,3.724,0.827c0.491,1.416,0.331,2.74-0.577,3.955c-2.041,1.242-4.026,1.162-5.955-0.254c-0.931-1.232-1.027-2.551-0.397-3.942L47.365,49.774z"/>
<path fill="#7F716C" d="M53.225,49.96c-0.972-0.091-1.939-0.213-2.902-0.378c0.048-1.01,0.107-2.015,0.176-3.019c0.819,0.226,1.646,0.418,2.479,0.58l1.338,0.528l0.07,1.438L53.225,49.96z"/>
<path fill="#935240" d="M37.37,50.326c-0.87-0.234-1.737-0.473-2.603-0.717c-1.042-0.5-1.389-1.001-1.042-1.505c0.342-0.497,0.688-0.75,1.042-0.75c0.934-0.281,1.871-0.546,2.811-0.799l0.708,0.83C39.207,48.746,38.846,49.71,37.37,50.326z"/>
<path fill="#9A5643" d="M34.767,47.354c-0.008,0.757-0.008,1.511,0,2.261c-1.106,0.141-2.213,0.287-3.32,0.434c0.014-1.093,0.027-2.186,0.042-3.281C32.582,46.963,33.675,47.159,34.767,47.354z"/>
<path fill="#7C4536" d="M47.117,50.165c0.228,0.961,0.459,1.923,0.693,2.884c-0.377,0.58-0.754,1.159-1.131,1.742c-1.233,0.693-2.55,1.004-3.964,0.873c-1.343-0.491-2.357-1.367-3.046-2.618c0.023-0.693,0.044-1.386,0.067-2.075c0.535-0.439,1.071-0.879,1.605-1.318C43.268,49.823,45.192,49.994,47.117,50.165z"/>
<path fill="#7C4536" d="M37.37,50.326c0.294-0.985,0.598-1.968,0.911-2.944c0.87-0.195,1.746-0.339,2.628-0.431c0.11,0.906,0.253,1.81,0.432,2.704c0.001-0.003-0.711,0.698-0.711,0.698c-1.045,1.432-1.967,1.429-2.751-0.231L37.37,50.326z"/>
<path fill="#46271E" d="M22.523,68.375c1.025,0.006,1.981,0.266,2.866,0.787C24.432,68.905,23.477,68.644,22.523,68.375z"/>
<path fill="#60362A" d="M31.677,75.086c-0.044-0.989-0.091-1.979-0.142-2.967c-0.902-0.744-1.195-1.483-0.882-2.213c0.312-0.726,0.62-1.089,0.926-1.089l0.039-0.083c1.491-0.732,2.865-0.519,4.14,0.513c1.375,2.183,1.308,4.297-0.278,6.351c-1.517,0.788-2.852,0.514-4.028-0.684L31.677,75.086z"/>
<path fill="#4F2C23" d="M31.579,68.817c-0.014,1.102-0.029,2.2-0.042,3.302c-0.951-0.184-1.894-0.394-2.829-0.635C29.665,70.597,30.623,69.708,31.579,68.817z"/>
<path fill="#854A39" d="M66.048,18.649c1.985,1.187,3.969,2.371,5.952,3.555c0.265,0.833,0.482,1.675,0.653,2.533c-0.331,2.402-1.288,4.395-3.604,5.493c-2.507,0.531-4.484-0.402-6.137-2.228l0.089,0.061c-1.36-1.086-3.184-1.468-4.343-2.856c-0.485-1.062-1.012-2.103-1.576-3.125c-0.206-1.145-0.412-2.289-0.618-3.436c1.052-0.107,2.103-0.217,3.155-0.327C61.761,18.43,63.905,18.54,66.048,18.649z"/>
<path fill="#6E3D30" d="M57.082,22.083c0.858,0.818,1.718,1.633,2.578,2.448c-0.831,2.103-1.884,2.218-3.158,0.351l0.246,0.309C56.859,24.155,56.97,23.12,57.082,22.083z"/>
<path fill="#A38F8A" d="M28.545,62.237c-0.263-0.8-0.5-1.604-0.714-2.417c0.484-0.271,0.956-0.567,1.413-0.882c2.031-1.153,4.062-1.91,6.099-0.006c0.438,1.528,0.172,2.917-0.798,4.178C32.322,64.337,30.285,64.301,28.545,62.237z"/>
<path fill="#744032" d="M28.545,62.237c2.113,0.098,4.227,0.195,6.34,0.293c0.279,0.452,0.559,0.903,0.838,1.355c-0.099,1.099-0.571,2.002-1.417,2.71c-1.108,0.29-2.018,0.009-2.696-0.938C30.586,64.518,29.565,63.376,28.545,62.237z"/>
<path fill="#64372B" d="M31.609,65.658c1.114-0.076,2.228-0.149,3.34-0.226c0,0,0.9,1.053,0.903,1.053c0.003,0-0.063,1.386-0.061,1.386c0.003,0-1.039,0.919-1.039,0.919c-1.045-0.019-2.089-0.037-3.134-0.056C31.613,67.709,31.61,66.684,31.609,65.658z"/>
<path fill="#AF9B97" d="M34.03,59.234c-1.599-0.098-3.197-0.195-4.791-0.293c-0.325-0.729-0.61-1.474-0.849-2.236c1.03-0.3,2.062-0.602,3.093-0.9c0.493-0.345,0.986-0.689,1.479-1.031c1.255,0.146,2.196,0.787,2.862,1.846C35.873,57.935,35.275,58.808,34.03,59.234z"/>
<path fill="#91503E" d="M34.859,56.354c-1.125-0.18-2.25-0.363-3.375-0.546c0.049-0.909,0.092-1.815,0.133-2.723c0.966,0.016,1.931,0.049,2.896,0.098c0.865,0.62,1.205,1.294,1.019,2.03C35.339,55.976,35.115,56.354,34.859,56.354z"/>
<path fill="#AA9692" d="M34.859,56.354c-0.114-1.056-0.228-2.114-0.343-3.171c1.178-0.073,2.359-0.146,3.54-0.22c0.391,0.474,0.781,0.946,1.172,1.423c-0.023,1.294-0.526,2.337-1.584,3.104c-1.328,0.29-2.319-0.187-3.021-1.325L34.859,56.354z"/>
<path fill="#5F3529" d="M37.878,50.122c0.923,0.036,1.842,0.11,2.754,0.229c0.111,0.761,0.191,1.521,0.232,2.283c-0.815,1.452-1.774,1.483-2.858,0.29l0.049,0.039C37.941,52.021,37.883,51.071,37.878,50.122z"/>
<path fill="#5D3429" d="M84.827,53.223c-1.053-0.171-2.107-0.345-3.16-0.519c-1.12-0.965-1.709-2.17-1.688-3.662c0.915-2.197,2.217-3.562,4.774-2.21l0.111,0.596c0.866,0.635,1.147,1.257,0.845,1.87c-0.3,0.607-0.598,0.909-0.896,0.909C84.773,51.215,84.776,52.219,84.827,53.223z"/>
<path fill="#552F24" d="M84.814,50.207c0.023-0.931,0.038-1.861,0.051-2.786c0.906,0.699,1.814,1.396,2.721,2.088C86.677,49.802,85.753,50.037,84.814,50.207z"/>
<path fill="#7A4435" d="M81.426,49.967c0.072,0.915,0.153,1.828,0.24,2.737c-0.899,0.226-1.81,0.366-2.733,0.424c-0.998,2.286-2.122,4.443-4.953,4.88c-1.761-0.168-3.152-0.968-4.188-2.401c-1.146-2.53-0.931-4.932,0.624-7.224c1.302-1.218,2.834-1.929,4.601-2.14C77.806,46.362,79.915,47.65,81.426,49.967z"/>
<path fill="#824939" d="M81.434,56.29c-0.087,1.067-0.174,2.133-0.261,3.201c-1.066,0.635-2.097,0.61-3.084-0.174c-0.23-0.531-0.457-1.06-0.687-1.591c0.296-0.494,0.592-0.988,0.89-1.482C79.342,56.259,80.387,56.274,81.434,56.29z"/>
<path fill="#532F23" d="M75.672,55.691c1.086-0.854,2.173-1.709,3.261-2.566c-0.212,1.041-0.426,2.078-0.64,3.119l0.185-0.205C77.388,57.159,76.445,57.102,75.672,55.691z"/>
<path fill="#693A2E" d="M78.414,59.363c0.923,0.03,1.846,0.072,2.765,0.125c0.296,1.062,0.597,2.121,0.898,3.183c0.002,0-0.931-0.351-0.931-0.351c-0.868,1.196-1.926,1.397-3.171,0.604c-0.182-0.622-0.364-1.248-0.546-1.873C77.758,60.489,78.086,59.924,78.414,59.363z"/>
<path fill="#958680" d="M84.698,68.441c-1.083,0.165-2.166,0.33-3.25,0.492c-0.73-1.301-0.465-2.402,0.659-3.339c0.591-0.021,1.18-0.052,1.765-0.092C84.182,66.471,84.461,67.45,84.698,68.441z"/>
<path fill="#703E30" d="M82.107,65.595c-0.22,1.113-0.439,2.225-0.659,3.339l0.261-0.26c-0.929,0.842-2.009,1.389-3.237,1.639c-1.224,0.256-2.313,0.784-3.242,1.63l0.21-0.162c-1.938,2.143-4.535,1.642-6.986,1.739c-2.704-0.445-4.664-1.864-5.787-4.391c-0.418-1.725-0.302-3.409,0.346-5.058c1.425-2.246,3.236-4.007,5.898-4.696c3.564-0.146,6.877,0.477,9.529,3.119c0.902-0.062,1.804-0.119,2.707-0.174C81.467,63.412,81.787,64.505,82.107,65.595z"/>
<path fill="#7E4636" d="M81.426,49.967c-2.017,0.012-4.034,0.024-6.053,0.033c-0.99-0.952-1.901-1.978-2.745-3.064c-0.149-0.674-0.298-1.346-0.448-2.017c0.164-1.395,0.692-2.634,1.582-3.72c1.771-1.325,3.709-1.59,5.797-0.916c0.664,0.165,1.329,0.33,1.994,0.494c0.981-0.149,1.956-0.329,2.924-0.54c1.11,0.076,2.222,0.153,3.332,0.226c0.021,1.028,0.042,2.06,0.062,3.085c-1.039,1.092-2.078,2.191-3.117,3.287C83.644,47.879,82.536,48.923,81.426,49.967z"/>
<path fill="#6D3D2F" d="M68.947,28.412c1.234-1.227,2.47-2.451,3.705-3.675c0.86,0.077,1.705,0.235,2.534,0.477c1.034,0.61,1.399,1.254,1.1,1.932c-0.307,0.692-0.622,1.041-0.952,1.041c-0.264,1.032-0.269,2.063-0.014,3.098c-0.317,0.546-0.635,1.092-0.95,1.639c-1.09,0.687-2.273,1.028-3.564,0.97c-1.233-0.391-2.213-1.123-2.938-2.191C67.552,30.383,67.946,29.297,68.947,28.412z"/>
<path fill="#7C4434" d="M75.32,31.284c1.879,1.071,3.757,2.142,5.636,3.213c-0.91,1.038-2.056,1.651-3.406,1.898c-1.37-0.208-2.484-0.852-3.345-1.938c-0.35-1.422,0.116-2.533,1.285-3.378L75.32,31.284z"/>
<path fill="#693A2E" d="M76.12,35.013c1.613-0.171,3.226-0.345,4.837-0.516c0.278,1.01,0.317,2.032,0.117,3.064c-0.842,1.053-1.938,1.587-3.285,1.605C75.927,38.306,74.435,37.299,76.12,35.013z"/>
<path fill="#5B3328" d="M78.67,37.576c0.803,0.003,1.604-0.003,2.406-0.015c0.157,1.071,0.316,2.139,0.477,3.213c0.001,0.003,0.171-0.259,0.171-0.259c-1.063,1.169-2.3,1.468-3.74,0.754C77.238,39.859,77.466,38.629,78.67,37.576z"/>
<path fill="#8C5E51" d="M75.334,28.186c-0.079-0.989-0.128-1.98-0.146-2.972c1.117-0.119,2.237-0.235,3.357-0.354C77.475,25.971,76.404,27.078,75.334,28.186z"/>
<path fill="#857570" d="M50.517,84.418c-1.014-0.013-2.026-0.037-3.038-0.073c-1.119-1.028-2.238-2.058-3.358-3.086c0.206-0.671,0.414-1.343,0.619-2.014c2.043-2.509,4.807-2.536,7.668-2.225c1.371,0.388,2.534,1.113,3.488,2.173c0.217,0.662,0.432,1.327,0.648,1.992C54.535,82.264,52.527,83.341,50.517,84.418z"/>
<path fill="#968681" d="M63.082,78.549c-1.101,0.818-2.199,1.636-3.3,2.454c-1.053-0.949-2.033-1.972-2.954-3.055c-1.085-2.032-1.063-4.056,0.054-6.07c0.96-1.086,2.154-1.801,3.543-2.191c1.443,0.013,2.721,0.488,3.822,1.419c0.789,1.188,1.139,2.5,1.046,3.925C64.682,76.278,63.945,77.453,63.082,78.549z"/>
<path fill="#8E7E7A" d="M63.082,78.549c-0.045-1.248-0.089-2.496-0.135-3.744c0.879-0.928,1.932-1.578,3.137-1.99c1.26,0.195,2.449,0.586,3.569,1.197c-0.081,0.628-0.165,1.257-0.25,1.886c-0.128,0.833-0.302,1.657-0.523,2.475C66.946,78.43,65.014,78.488,63.082,78.549z"/>
<path fill="#837570" d="M59.527,77.811c0.086,1.068,0.17,2.137,0.255,3.198c-1.078,0.058-2.157,0.119-3.236,0.181c-0.001-0.004,0.173,0.18,0.173,0.18c-0.868-0.613-1.288-1.337-1.262-2.173c0.028-0.895,0.154-1.34,0.377-1.34C57.054,76.959,58.286,76.904,59.527,77.811z"/>
<path fill="#857570" d="M69.317,72.211c2.04-0.144,4.082-0.287,6.122-0.431c0.021,0.992-0.039,1.98-0.182,2.96c-0.95,0.125-1.904,0.227-2.859,0.303c-1.016,0.22-2.014,0.5-2.995,0.845c0,0.01-0.475-1.199-0.475-1.199c-0.673-0.671-0.839-1.26-0.501-1.77C68.741,72.445,69.037,72.211,69.317,72.211z"/>
<path fill="#857570" d="M75.229,71.942c1.066-0.897,2.133-1.798,3.201-2.695c0.914,0.52,1.229,1.06,0.952,1.621c-0.282,0.573-0.569,0.857-0.867,0.857C77.42,71.799,76.324,71.869,75.229,71.942z"/>
<path fill="#80706B" d="M78.515,71.726c-0.03-0.827-0.06-1.654-0.085-2.481c1.092-0.189,2.187-0.378,3.278-0.57C80.645,69.693,79.581,70.709,78.515,71.726z"/>
<path fill="#746662" d="M31.451,74.914c1.106-0.106,2.212-0.213,3.319-0.32c1.137-0.937,2.318-0.994,3.54-0.171c0.195,0.645,0.389,1.288,0.584,1.933c-0.343,0.579-0.685,1.156-1.029,1.736C35.728,77.032,33.589,75.974,31.451,74.914z"/>
<path fill="#756764" d="M44.121,81.259c-2.084-1.056-4.169-2.111-6.253-3.167c-0.002,0-0.092,0.146-0.092,0.146c0.946-1.102,2.13-1.828,3.523-2.229c1.463,0.098,2.711,0.666,3.748,1.703c0.494,1.453,0.206,2.695-0.997,3.687L44.121,81.259z"/>
<path fill="#703E31" d="M78.67,37.576c-0.03,0.833-0.054,1.663-0.068,2.497c0.109,2.38-2.215,2.56-3.404,3.766l0.242-0.229c-0.842,0.958-1.79,1.795-2.843,2.515c-0.587,0.241-1.175,0.482-1.762,0.724c-1.25,0.335-2.494,0.314-3.731-0.061c-1.688-1.004-2.898-2.423-3.673-4.221c-0.163-0.613-0.325-1.227-0.488-1.84c-0.017-3.113-0.033-6.223-0.049-9.332c2.11-2.091,4.23-2.222,6.358-0.024l-0.311-0.232c1.607,1.98,4.624,1.056,6.239,3.024c0,0,0.929,0.846,0.935,0.849C76.969,35.867,77.82,36.722,78.67,37.576z"/>
<path fill="#734032" d="M59.674,43.94c-0.012-1.007-0.03-2.018-0.056-3.021c1.107-0.064,2.215-0.131,3.323-0.195c0.001,0.003-0.201-0.168-0.201-0.168c1.718,2.011,4.781,1.343,6.536,3.281l-0.23-0.162c1.996,2.023,2.178,4.297,0.924,6.769c-4.339,3.403-7.72,1.297-10.912-1.896C58.257,46.878,58.461,45.34,59.674,43.94z"/>
<path fill="#9C8883" d="M56.502,24.881c1.053-0.116,2.105-0.232,3.158-0.351c1.111,1.178,2.224,2.355,3.338,3.534c-1.144,0.061-2.288,0.122-3.434,0.186c-0.863-0.168-1.728-0.333-2.59-0.497C56.724,26.81,56.567,25.855,56.502,24.881z"/>
<path fill="#9D8983" d="M69.252,31.369c-2.119,0.006-4.24,0.012-6.359,0.021c0.006-1.123,0.012-2.252,0.018-3.385c2.015,0.131,4.029,0.266,6.04,0.403C69.159,29.385,69.259,30.371,69.252,31.369z"/>
<path fill="#552F24" d="M59.674,43.94c0.037,0.977,0.069,1.953,0.094,2.933c-0.751,1.093-1.781,1.739-3.092,1.94c-1.277-0.274-2.347-0.906-3.206-1.889l-0.491,0.22C55.21,46.075,57.441,45.007,59.674,43.94z"/>
<path fill="#8E4F3D" d="M47.81,53.049c1.939,0.009,3.88,0.019,5.819,0.03c1.448-0.931,2.764-0.821,3.924,0.507c0.378,1.602,0.129,3.095-0.75,4.482c-1.783,1.862-3.996,2.396-6.477,2.112c-1.595-0.434-2.892-1.303-3.896-2.612c-0.735-1.603-0.534-3.073,0.603-4.419L47.81,53.049z"/>
<path fill="#746561" d="M56.667,53.223c-1.015-0.04-2.029-0.086-3.04-0.144c-0.128-1.037-0.261-2.078-0.396-3.116c-0.005-0.003,0.284,0.025,0.284,0.025c0.854-1.057,1.973-1.532,3.318-1.514c1.317-0.028,2.542,0.299,3.689,0.939c0.437,1.281,0.307,2.506-0.388,3.668C59.01,53.915,57.855,54.001,56.667,53.223z"/>
<path fill="#522D24" d="M56.521,49.457c-0.99,0.244-1.994,0.421-3.007,0.531c-0.113-1.022-0.129-2.045-0.045-3.067c1.025-0.019,2.051-0.037,3.076-0.049c0.742,0.437,1.483,0.876,2.224,1.315C58.02,48.611,57.271,49.032,56.521,49.457z"/>
<path fill="#9D8983" d="M38.007,52.924c0.97,0.082,1.924-0.013,2.858-0.29c0.969,0.284,1.958,0.476,2.963,0.58c0.905,1.367,0.874,2.676-0.238,3.924c-2.299,1.12-4.294,0.94-5.785-1.364C37.84,54.822,37.907,53.869,38.007,52.924z"/>
<path fill="#6B3C2F" d="M44.13,56.283c-0.029-1.031-0.129-2.054-0.302-3.072c1.071-0.019,2.144-0.04,3.21-0.062c0.087,0.882,0.128,1.767,0.116,2.652c-0.45,0.415-0.902,0.83-1.352,1.245C45.245,56.793,44.687,56.537,44.13,56.283z"/>
<path fill="#5B3227" d="M37.787,75.201c-1.016-0.149-2.022-0.348-3.017-0.601c-0.006-1.941-0.012-3.876-0.019-5.811l0.003-0.107C40.547,68.631,39.885,71.582,37.787,75.201z"/>
<path fill="#8B5243" d="M37.805,55.773c2.109,0.172,4.218,0.339,6.327,0.51c-0.002,0-0.128-0.174-0.128-0.174c2.002,2.42,5.158,1.27,7.567,2.451c2.617,0.918,5.732,0.839,7.351,3.732c0.517,1.406,0.578,2.835,0.258,4.29c-1.05,1.953-2.542,3.537-4.188,4.983c-1.227,0.764-2.55,1.288-3.97,1.538c-1.409,0.089-2.818,0.031-4.212-0.195c-2.01-0.662-3.65-1.91-5.171-3.329c-1.007-0.897-1.99-1.831-2.943-2.786c-1.303-1.529-2.626-3.046-4.132-4.392l0.32,0.128c-0.284-1.099-0.569-2.197-0.853-3.296c0.197-1.022,0.396-2.048,0.592-3.07C35.684,56.033,36.745,55.905,37.805,55.773z"/>
<path fill="#9C8883" d="M34.563,62.402c2.159,1.086,4.316,2.176,6.474,3.263c-2.148,2.133-4.179,1.77-6.131-0.287l0.042,0.055C34.823,64.423,34.694,63.412,34.563,62.402z"/>
<path fill="#754133" d="M34.906,65.378c2.043,0.095,4.088,0.192,6.131,0.287l-0.252-0.132c1.753,1.984,4.833,1.35,6.589,3.326l-0.296-0.186c1.131,0.83,1.711,1.943,1.742,3.348c-0.706,2.078-2.205,3.207-4.316,3.604c-1.231,0.521-2.367,1.202-3.394,2.063c-1.111,0.184-2.223,0.366-3.334,0.55c0.012-1.014,0.017-2.026,0.011-3.037c-1.012-2.173-2.022-4.343-3.032-6.516C34.805,67.581,34.856,66.48,34.906,65.378z"/>
<path fill="#81716C" d="M75.672,55.691c0.923,0.217,1.856,0.333,2.806,0.348c-0.021,1.108-0.043,2.216-0.063,3.324l0.088-0.031c-3.381,3.033-7.588,0.965-11.317,1.831c-1.557-0.781-2.266-2.038-2.13-3.774c0.676-1.511,1.811-2.49,3.405-2.939c1.603,0.052,3.016,0.61,4.265,1.603C73.714,55.984,74.695,55.862,75.672,55.691z"/>
<path fill="#7F716D" d="M72.724,56.052c-1.273,0.043-2.548,0.085-3.823,0.128c-2.151-1.953-2.153-4.016-0.323-6.177c0.157-2.108,0.313-4.221,0.468-6.329c1.095,0.232,2.19,0.467,3.284,0.702c1.015,0.562,1.522,1.407,1.443,2.582c0.055,1.12-0.295,2.109-0.992,2.978C72.763,51.975,72.745,54.013,72.724,56.052z"/>
<path fill="#744032" d="M72.781,49.936c-0.248-0.949-0.412-1.91-0.489-2.89c0.852-1.504,1.854-1.611,3.004-0.32c0.026,1.093,0.052,2.185,0.078,3.274C74.51,49.981,73.646,49.96,72.781,49.936z"/>
<path fill="#7F4637" d="M66.223,58.924c4.092,0.137,8.187,0.271,12.278,0.408c-0.02,1.053-0.041,2.109-0.061,3.162c-3.182,0.027-6.361,0.055-9.542,0.079c-0.893,1.022-1.848,1.98-2.857,2.884c-0.034,1.087-0.069,2.173-0.103,3.263c-0.611,0.448-1.224,0.9-1.839,1.349c-1.515-0.345-2.83-1.063-3.977-2.105c-1.138-2.057-1.704-4.313-2.348-6.546c0.073-1.673,0.79-2.994,2.146-3.974C62.349,56.549,64.515,56.76,66.223,58.924z"/>
<path fill="#713F31" d="M63.44,68.644c0.833,0.033,1.666,0.058,2.499,0.076c1.126,1.162,2.251,2.325,3.378,3.491c-0.134,0.824-0.262,1.65-0.387,2.478c-0.002,0-1.537,0.135-1.537,0.135L65.86,74.68c-1.145-0.689-1.994-1.639-2.549-2.856l-0.985,0.253C61.679,70.603,62.051,69.458,63.44,68.644z"/>
<path fill="#965442" d="M66.042,65.457c0.953-0.961,1.907-1.923,2.859-2.884C67.947,63.534,66.995,64.496,66.042,65.457z"/>
<path fill="#857571" d="M75.197,43.838c1.134-1.257,2.269-2.511,3.404-3.766c1.04,0.146,2.081,0.296,3.122,0.442C79.547,41.623,77.373,42.731,75.197,43.838z"/>
<path fill="#867873" d="M75.296,46.726c-1.002,0.101-2.005,0.208-3.006,0.32c0.01-0.891,0.021-1.785,0.04-2.676c1.036-0.25,2.072-0.503,3.109-0.76C75.407,44.65,75.358,45.688,75.296,46.726z"/>
<path fill="#B09E98" d="M75.18,34.161c-2.08-1.007-4.16-2.017-6.239-3.024c2.182-0.019,4.365-0.04,6.549-0.058C75.404,32.107,75.301,33.136,75.18,34.161z"/>
<path fill="#5E3429" d="M41.139,75.119c2.141-1.136,4.281-2.271,6.421-3.406c1.187-1.016,2.478-1.172,3.871-0.467c3.781,2.582,3.131,6.04,1.894,9.61c-3.092,0.18-6.183,0.363-9.274,0.543c0.05-1.02,0.064-2.038,0.04-3.058C42.801,77.548,42.151,76.169,41.139,75.119z"/>
<path fill="#744132" d="M53.325,80.856c-1.025-2.792-2.05-5.585-3.075-8.38c0.802-1.413,2.009-2.219,3.623-2.408c1.608,0.049,2.934,0.687,3.979,1.907c0.321,2.286,0.776,4.596-1.15,6.482c0,0.97,0.006,1.94,0.017,2.911C55.588,81.198,54.456,81.027,53.325,80.856z"/>
<path fill="#67392D" d="M56.702,78.458c-0.011-2.17-0.023-4.34-0.034-6.513c0.558-0.33,1.115-0.659,1.673-0.992c0.592,0.266,1.183,0.531,1.774,0.8c-0.195,2.021-0.389,4.04-0.586,6.061C58.585,78.019,57.641,78.234,56.702,78.458z"/>
<path fill="#8E7E7A" d="M63.44,68.644c-0.368,1.144-0.735,2.285-1.109,3.433c-0.742-0.112-1.481-0.223-2.219-0.323c0.003,0-0.888,0.369-0.888,0.369c-0.777-1.022-0.777-2.069-0.102-3.134c1.019-0.76,2.061-0.794,3.125-0.098L63.44,68.644z"/>
<path fill="#693A2E" d="M63.311,71.823c0.851,0.952,1.7,1.904,2.549,2.856l-1.451,0.174l-1.462-0.049C62.926,73.791,63.047,72.8,63.311,71.823z"/>
<path fill="#5C3328" d="M41.139,75.119c0.984,1.074,1.967,2.148,2.951,3.223c-1-0.192-1.993-0.409-2.98-0.65C41.099,76.831,41.109,75.977,41.139,75.119z"/>
<path fill="#746561" d="M69.276,43.835c-2.179-1.096-4.357-2.188-6.536-3.281C64.919,41.648,67.097,42.74,69.276,43.835z"/>
<path fill="#5C3328" d="M68.578,50.003c0.108,2.057,0.217,4.117,0.324,6.177c-0.001,0-1.496,0.122-1.496,0.122l-1.502-0.015c-0.563-0.031-1.126-0.059-1.689-0.086c-1.143-0.195-2.095-0.735-2.885-1.574c-0.673-1.514-0.554-3.354-1.893-4.594c-0.982-0.14-1.953-0.332-2.916-0.573c0.016-0.864,0.023-1.728,0.026-2.588c1.072,0,2.146,0,3.218,0C62.705,47.916,65.641,48.959,68.578,50.003z"/>
<path fill="#AC9894" d="M56.65,62.506c-2.155-0.971-4.308-1.94-6.461-2.911c-0.646-0.553-1.289-1.104-1.934-1.657c0.754-0.388,1.508-0.775,2.263-1.162c2.066-0.132,4.134-0.263,6.2-0.395c0,0,1.364,0.754,1.365,0.754c0.506,0.992,0.548,2.002,0.129,3.033l-0.224,1.545L56.65,62.506z"/>
<path fill="#9C8983" d="M50.518,56.775c-0.091,0.942-0.201,1.883-0.329,2.819c-2.062-1.163-4.123-2.322-6.186-3.485c1.05-0.101,2.1-0.204,3.149-0.308C48.276,56.125,49.397,56.451,50.518,56.775z"/>
<path fill="#AE9C96" d="M56.667,53.223c1.022-0.037,2.043-0.058,3.066-0.067c0.438,0.434,0.878,0.87,1.317,1.304c0.073,1.324-0.453,2.334-1.579,3.033c-1.337,0.314-2.326-0.135-2.965-1.349l0.212,0.234C56.702,55.328,56.683,54.275,56.667,53.223z"/>
<path fill="#573125" d="M59.437,50.033c1.136,0.883,2.271,1.762,3.406,2.641c-0.854,1.443-1.91,1.537-3.139,0.467c0,0,0.027,0.015,0.028,0.015C59.634,52.115,59.535,51.074,59.437,50.033z"/>
<path fill="#9C8883" d="M62.248,68.891c-1.004,0.085-2.005,0.189-3.006,0.305l-1.371-0.369c-0.922-0.51-1.388-1.291-1.396-2.344l0.026-1.419c0.051-0.854,0.101-1.709,0.148-2.561c0,0.003-0.189,0.076-0.189,0.076c0.407-0.823,0.813-1.65,1.221-2.475c0.679,0.622,1.356,1.242,2.035,1.861C60.56,64.273,61.404,66.58,62.248,68.891z"/>
<path fill="#9E8A84" d="M47.374,68.859c-2.196-1.107-4.393-2.218-6.589-3.326C42.981,66.642,45.178,67.752,47.374,68.859z"/>
<path fill="#AB9893" d="M53.219,71.772c-1.003,0.18-1.991,0.412-2.968,0.705c-0.859-0.395-1.758-0.647-2.693-0.764c-0.284-0.991-0.444-2.005-0.479-3.036c2.152,0.064,4.306,0.128,6.46,0.195c0.414,0.534,0.825,1.071,1.241,1.605C54.26,70.907,53.74,71.341,53.219,71.772z"/>
<path fill="#AE9C96" d="M53.54,68.872c0.987-1.27,1.975-2.536,2.962-3.809l0.165,1.425c0.722,0.721,0.955,1.432,0.702,2.137c-0.254,0.702-0.503,1.053-0.751,1.053c-1.355,0.488-2.423,0.098-3.243-1.056L53.54,68.872z"/>
<path fill="#9A5643" d="M56.507,56.144c1.01,0,2.014-0.067,3.015-0.205c2.287-1.593,4.491-1.483,6.61,0.323c0,0-0.226,0.021-0.228,0.021c0.114,0.886,0.22,1.768,0.317,2.646c-2.168,0.195-4.338,0.399-6.508,0.601c-0.968,1.301-1.888,1.267-2.761-0.095C56.803,58.338,56.656,57.238,56.507,56.144z"/>
<path fill="#7C4536" d="M56.953,59.436c0.922-0.006,1.842,0.021,2.761,0.092c0.005,0.818,0.006,1.633,0.003,2.444c-1.085,0.198-2.17,0.403-3.256,0.607C56.626,61.529,56.79,60.482,56.953,59.436z"/>
<path fill="#824939" d="M53.375,68.622c1.096-0.132,2.191-0.26,3.287-0.391c1.137-0.794,2.126-0.642,2.963,0.467c0,0-0.375,0.491-0.38,0.494c0.149,0.979,0.146,1.953-0.02,2.93c-0.852-0.089-1.704-0.146-2.559-0.177c-1.147-0.059-2.297-0.116-3.447-0.174C53.271,70.722,53.323,69.672,53.375,68.622z"/>
<path fill="#756662" d="M66.132,56.262c-2.203-0.106-4.408-0.21-6.611-0.32c0.065-0.937,0.126-1.867,0.185-2.801c1.047-0.153,2.092-0.309,3.139-0.464C63.939,53.869,65.036,55.066,66.132,56.262z"/>
<path fill="#B7A39D" d="M59.625,68.698c-1.01-0.009-1.998-0.165-2.963-0.467c0.013-0.583,0.014-1.166,0.005-1.746C57.654,67.225,58.639,67.963,59.625,68.698z"/>
</svg>