<?xml version="1.0" encoding="utf-8"?>
<!DOCTYPE svg PUBLIC "-//W3C//DTD SVG 1.1//EN" "http://www.w3.org/Graphics/SVG/1.1/DTD/svg11.dtd">
<svg version="1.1"  xmlns="http://www.w3.org/2000/svg" xmlns:xlink="http://www.w3.org/1999/xlink" x="0px" y="0px" width="100px" height="100px" viewBox="0 0 100 100" enable-background="new 0 0 100 100" xml:space="preserve">
<path fill="#261317" d="M43.989,65.859c-0.246,3.238-0.492,6.477-0.736,9.714c-0.955,2.207-2.039,4.331-3.779,6.046c-2.193,1.193-4.54,1.235-6.932,0.912c-2.338-0.747-4.117-2.173-5.226-4.385c-1.224-3.913,0.279-7.59,0.978-11.338c0.468-2.222,0.931-4.446,1.379-6.671c0.229-1.498,0.691-2.924,1.347-4.285c0.735-1.306,1.471-2.615,2.205-3.918c0.49-0.562,0.981-1.123,1.469-1.685c1.236-0.849,2.611-1.334,4.092-1.511c2.184-0.092,4.328,0.055,6.238,1.279c1.107,0.863,1.999,1.922,2.664,3.161c1.031,2.976-0.247,5.188-2.39,7.104c-0.308,0.57-0.623,1.147-0.934,1.718c-0.13,0.632-0.261,1.272-0.393,1.907C43.98,64.557,43.984,65.21,43.989,65.859z"/>
<path fill="#261317" d="M43.745,28.232c2.047-1.05,4.096-2.097,6.145-3.146c5.591-2.521,9.627-1.779,10.721,5.112c0.076,1.984-0.314,3.879-1.169,5.67c-1.82,2.612-4.699,3.134-7.513,3.772c-3.624-1.233-6.783-3.177-9.24-6.165C42.233,31.564,42.584,29.818,43.745,28.232z"/>
<path fill="#34191E" d="M77.556,62.189c-2.922,3.192-5.846,6.381-8.77,9.573c-1.31-1.037-2.457-2.23-3.444-3.579c-1.105-2.408-1.083-4.795,0.135-7.16c1.104-1.352,2.522-2.108,4.256-2.279c0.825,0.106,1.65,0.214,2.475,0.32c0.914,0.043,1.815,0.168,2.707,0.369C75.813,60.333,76.693,61.255,77.556,62.189z"/>
<path fill="#271316" d="M43.136,81.243c-4.077,2.21-8.156,4.42-12.233,6.626c-1.976-2.411-4.142-4.807-0.72-7.721c2.975-0.565,5.994,0.592,8.964-0.202C40.699,79.691,42.019,80.157,43.136,81.243z"/>
<path fill="#150B0D" d="M33.934,81.262c-1.009,2.204-2.017,4.404-3.029,6.607c-1.972-1.147-3.94-2.295-5.91-3.445c-0.02-0.696-0.038-1.395-0.058-2.094c-0.301-2.097-1.428-4.001-1.41-6.177c0.304-1.428,0.597-2.851,0.88-4.288c0.844-2.536,2.574-3.464,5.156-2.871c1.945,1.577,2.92,3.448,1.792,5.947c1.082,1.111,2.164,2.219,3.247,3.33c0.893,0.897,1.091,1.639,0.596,2.228C34.772,81.006,34.35,81.262,33.934,81.262z"/>
<path fill="#1E1113" d="M19.093,41.107c0.899-1.163,1.796-2.329,2.693-3.491c1.254-1.227,2.675-2.219,4.26-2.976c2.649-1.208,5.081-0.86,7.306,1.007c1.125,1.434,1.659,3.061,1.607,4.88c-1.122,3.311-1.97,6.763-4.701,9.253c-4.553,1.965-5.989-2.054-8.328-4.337C20.729,44.165,19.783,42.721,19.093,41.107z"/>
<path fill="#1E1013" d="M28.126,72.015c-1.059,1.041-2.116,2.079-3.174,3.119c-0.743,2.438-1.617,2.487-2.623,0.144c-1.109-2.246-2.217-4.495-3.326-6.741c1.021-0.939,2.006-1.92,2.96-2.927l-0.256,0.098c2.235-2.194,4.64-3.335,7.572-1.229C31.205,67.343,30.631,69.827,28.126,72.015z"/>
<path fill="#30171B" d="M78.259,22.009c-0.368,3.134-0.735,6.271-1.104,9.409c-1.059,1.605-2.434,2.866-4.129,3.778c-3.038,0.616-5.607-0.107-7.55-2.634c-1.31-2.716-1.302-5.472-0.236-8.255C68.91,19.751,73.698,21.524,78.259,22.009z"/>
<path fill="#160B0D" d="M21.899,43.89c2.226,0.934,4.454,1.865,6.68,2.795c1.147-1.065,2.448-1.886,3.923-2.426c3.102,0.644,6.216,1.267,7.235,4.957c-0.316,1.604-1.102,2.933-2.353,3.982l0.104-0.01c-0.896,0.995-1.88,1.893-2.966,2.677c-1.84,0.772-3.639,1.685-5.71,1.66c-1.339-0.314-2.406-1.034-3.2-2.161c-0.841-1.834-1.982-3.457-3.43-4.867c-0.104-1.227-0.206-2.453-0.31-3.68c-0.964-0.659-1.282-1.313-0.954-1.959C21.246,44.214,21.571,43.89,21.899,43.89z"/>
<path fill="#231114" d="M22.09,59.427c0.05-2.127,0.101-4.254,0.151-6.381c2.044-1.719,4.022-1.529,5.943,0.213l-0.125-0.085c1.297,1.26,2.89,1.69,4.649,1.666c1.183,0.119,2.137,0.635,2.826,1.611c0.06,1.19-0.328,2.21-1.16,3.058l-0.052,0.046c-1.346,1.551-2.014,3.602-3.653,4.935c-1.404,0.04-2.723-0.262-3.943-0.967C24.887,62.487,23.42,61.032,22.09,59.427z"/>
<path fill="#2F161A" d="M78.064,46.991c-1.961,3.366-3.923,6.732-5.884,10.098c-3.657-0.482-4.46-3.122-4.686-6.198c-0.031-1.965,0.443-3.802,1.425-5.505c2.359-2.326,4.959-2.674,7.813-0.952C77.176,45.285,77.619,46.139,78.064,46.991z"/>
<path fill="#351C20" d="M78.259,22.009c-3.085,1.007-6.169,2.015-9.253,3.019c-1.69-0.644-2.544-1.871-2.555-3.681c0.563-1.654,1.689-2.707,3.38-3.155c0.809,0.088,1.618,0.18,2.427,0.269C74.258,19.644,76.259,20.825,78.259,22.009z"/>
<path fill="#30171C" d="M56.528,31.552c-2.214-2.157-4.426-4.312-6.639-6.467c2.077-1.031,4.153-2.063,6.231-3.094c1.308-0.998,2.77-1.642,4.389-1.935c2.585,0.65,4.152,2.295,4.771,4.868c0.108,3.452-0.708,6.418-4.208,7.962C59.396,32.992,57.881,32.547,56.528,31.552z"/>
<path fill="#281518" d="M68.806,62.701c-0.009,2.048-0.02,4.093-0.028,6.14c-1.218,0.895-1.112,3.107-3.159,3.181c-1.061-0.223-2.122-0.446-3.183-0.669c-2.26-3.323-5.785-6.268-3.285-11.014c1.94-2.057,4.324-2.188,6.877-1.587C67.554,59.65,68.478,60.965,68.806,62.701z"/>
<path fill="#2E161A" d="M77.678,34.424c0.128,4.19,0.256,8.377,0.386,12.567l0.096,0.04c-1.959-1.483-4.408-2.197-6.201-3.946c-1.771-3.21-1.988-6.204,1.207-8.725C74.686,33.31,76.189,33.334,77.678,34.424z"/>
<path fill="#251115" d="M59.389,62.579c1.016,2.927,2.032,5.854,3.048,8.777c-2.233-3.849-4.464-7.694-6.695-11.536c0.358-0.622,0.719-1.245,1.079-1.868c1.465-0.399,2.765-0.121,3.874,0.943C61.052,60.403,60.616,61.633,59.389,62.579z"/>
<path fill="#381A1F" d="M65.94,12.085c2.103,2.127,4.205,4.257,6.313,6.381c0.005-0.006-0.29,0.357-0.29,0.357c-1.242,1.041-2.656,1.718-4.246,2.032c-1.622,0.567-3.1,0.312-4.433-0.775c-0.974-1.4-1.161-2.899-0.568-4.498C63.613,14.252,64.688,13.086,65.94,12.085z"/>
<path fill="#1C0F12" d="M22.345,34.732c0.928-1.117,1.857-2.231,2.786-3.348c1.526-1.761,3.642-1.514,5.646-1.66c1.384-0.213,2.731-0.085,4.051,0.385c1.279,0.625,2.239,1.565,2.836,2.866c-0.027,1.431-0.523,2.676-1.481,3.738c-1.298,0.625-2.63,0.681-3.99,0.238c-1.97-0.757-4.027-0.915-6.111-0.891C24.65,36.142,23.413,35.675,22.345,34.732z"/>
<path fill="#34191E" d="M53.345,59.641c-2.145,1.028-4.29,2.054-6.434,3.082c-0.661-0.543-1.321-1.09-1.982-1.636c-0.382-1.761-0.096-3.402,0.859-4.935c0.621-1.743,1.807-2.905,3.564-3.488C53.982,53.107,55.603,55.264,53.345,59.641z"/>
<path fill="#1E1013" d="M53.345,59.641c-2.169-1.111-4.339-2.222-6.507-3.333c-0.409-0.824-0.818-1.647-1.227-2.475c0.174-0.906,0.348-1.813,0.524-2.72c1.363-1.376,3.006-2.114,4.938-2.228c3.203,0.016,6.09,0.656,7.723,3.827c1.114,2.881-0.402,4.846-2.304,6.681c0,0-0.748,0.424-0.749,0.424C54.943,59.75,54.144,59.69,53.345,59.641z"/>
<path fill="#2C171A" d="M65.94,12.085c-0.188,1.318-0.375,2.637-0.563,3.952c-3.22,4.547-5.925,2.362-8.565-0.653c1.78-0.934,3.563-1.868,5.345-2.802c1.202-1.077,2.42-1.096,3.649-0.046L65.94,12.085z"/>
<path fill="#190D0F" d="M56.812,15.384c2.855,0.217,5.714,0.43,8.568,0.65c0.164,0.91,0.33,1.816,0.495,2.722c-0.174,0.625-0.347,1.254-0.521,1.883c-1.662,1.648-3.511,1.12-5.371,0.464c-1.227-0.455-2.36-1.08-3.415-1.853C56.649,17.963,56.73,16.672,56.812,15.384z"/>
<path fill="#2A1317" d="M22.329,75.277c0.875-0.049,1.749-0.098,2.623-0.144c0.023,1.028,0.041,2.057,0.057,3.086c1.715,1.772,1.95,3.54-0.021,5.298c0,0,0.008,0.909,0.008,0.906C24.107,81.375,23.217,78.326,22.329,75.277z"/>
<path fill="#30181C" d="M43.745,28.232c0,1.065,0.001,2.133,0.003,3.198c-0.104,0.76-0.208,1.517-0.31,2.277c-1.083,1.147-2.4,1.792-3.989,1.846c-2.522-0.381-3.829-2.246-5.084-4.172l0.003,0.019c-1.063-0.604-1.426-1.227-1.095-1.868c0.334-0.647,0.673-0.974,1.022-0.974C37.444,28.448,40.594,28.341,43.745,28.232z"/>
<path fill="#2F161A" d="M71.878,50.14c0.099,2.313,0.198,4.627,0.3,6.943c0.064,0.668,0.07,1.327,0.026,1.986c0.003-0.006-0.25,0.418-0.25,0.418c-1.98,1.179-3.838,1.008-5.572-0.506C64.118,53.488,62.815,48.59,71.878,50.14z"/>
<path fill="#351D22" d="M28.184,53.259c-1.982-0.073-3.964-0.144-5.945-0.213c-0.09-0.849-0.11-1.7-0.057-2.549C24.183,51.416,26.184,52.337,28.184,53.259z"/>
<path fill="#2A1317" d="M21.899,43.89c-0.018,0.977-0.026,1.953-0.026,2.93c-0.928-1.907-1.855-3.812-2.782-5.716C20.028,42.035,20.963,42.963,21.899,43.89z"/>
<path fill="#160C0E" d="M22.09,59.427c2,1.096,4,2.191,6.001,3.29c-1.947,1.95-3.943,1.724-5.971,0.134C22.111,61.709,22.101,60.568,22.09,59.427z"/>
<path fill="#30181C" d="M22.12,62.851c1.991-0.046,3.981-0.092,5.971-0.137c0,0.003-0.065-0.019-0.065-0.019c0.472,0.481,0.944,0.961,1.416,1.443c-0.432,0.516-0.864,1.034-1.295,1.55c-2.144,0.007-4.29,0.013-6.436,0.019C21.832,64.752,21.971,63.8,22.12,62.851z"/>
<path fill="#2F161A" d="M43.989,65.859c-1.125-0.039-2.25-0.076-3.374-0.115l0.019,0.018c0.003-1.01,0.001-2.017-0.006-3.027c0.813-0.991,1.782-1.791,2.93-2.374c1.239,0.369,2.301,1.025,3.186,1.969l0.167,0.391C45.936,63.77,44.962,64.814,43.989,65.859z"/>
<path fill="#30181C" d="M31.283,31.302c-2.051,0.027-4.103,0.055-6.154,0.082c2.037-1.062,4.072-2.121,6.108-3.183c1.047,0.674,1.402,1.358,1.068,2.054C31.97,30.954,31.629,31.302,31.283,31.302z"/>
<path fill="#251115" d="M65.618,72.022c1.053-1.06,2.105-2.121,3.159-3.181c0.015,0.974,0.018,1.947,0.009,2.921C67.73,71.848,66.675,71.936,65.618,72.022z"/>
<path fill="#381A1F" d="M31.283,31.302c-0.016-1.032-0.031-2.066-0.046-3.101c1.02,0.119,2.039,0.235,3.058,0.357c0.016,0.946,0.04,1.895,0.073,2.841C33.34,31.39,32.312,31.357,31.283,31.302z"/>
<path fill="#2F161A" d="M43.136,81.243c-0.907-0.009-1.813-0.018-2.721-0.027c-1.19-0.687-1.56-1.321-1.114-1.904c0.422-0.559,0.848-0.839,1.285-0.839c0.891-0.968,1.781-1.938,2.668-2.902C43.214,77.463,43.176,79.355,43.136,81.243z"/>
<path fill="#3B2025" d="M77.556,62.189c-0.879-0.919-1.76-1.837-2.64-2.756C75.795,60.352,76.675,61.27,77.556,62.189z"/>
<path fill="#2E161B" d="M21.963,65.609c-0.987,0.977-1.975,1.953-2.961,2.93C19.99,67.56,20.976,66.586,21.963,65.609z"/>
<path fill="#2E161B" d="M22.345,34.732c0.859-0.07,1.719-0.144,2.579-0.22c0.755,0.503,1.509,1.007,2.264,1.51c-0.732,0.534-1.465,1.071-2.199,1.605c-1.066-0.003-2.133-0.009-3.201-0.012C21.931,36.646,22.117,35.684,22.345,34.732z"/>
<path fill="#34191E" d="M77.678,34.424c-0.841,0.006-1.681,0.012-2.521,0.015c-1.754-1.358-1.583-2.399,0.517-3.119c0,0,1.49,0.098,1.487,0.098C77.455,32.398,77.629,33.401,77.678,34.424z"/>
<path fill="#3E1E24" d="M65.806,12.536c-1.216,0.016-2.432,0.031-3.649,0.046C63.372,12.567,64.59,12.552,65.806,12.536z"/>
<path fill="#46262C" d="M56.568,19.25c0.792-0.104,1.587-0.192,2.385-0.262c1.23,0.253,1.796,1.007,1.694,2.261c0.001,0-1.399,0.653-1.399,0.653c-1.041,0.027-2.081,0.058-3.125,0.088C56.23,21.069,56.379,20.157,56.568,19.25z"/>
<path fill="#2E151A" d="M28.126,72.015c0.006-2.108,0.012-4.217,0.02-6.322c0-0.004-0.063,0.088-0.063,0.088c2.179-1.904,4.297-2.249,6.303,0.247c-1.012,2.973-2.023,5.945-3.033,8.917C30.277,73.968,29.202,72.991,28.126,72.015z"/>
<path fill="#201214" d="M43.743,62.628c-1.039,0.03-2.077,0.067-3.116,0.106c1.05-2.124,2.1-4.248,3.149-6.372c0.528-0.698,1.056-1.397,1.583-2.093c0.513,0.708,1.025,1.416,1.538,2.127l-0.06-0.089c0.012,1.065,0.024,2.133,0.038,3.198C45.935,60.651,44.889,61.689,43.743,62.628z"/>
<path fill="#160C0E" d="M34.387,66.027c-2.101-0.082-4.202-0.165-6.303-0.247c-0.009-1.028-0.028-2.057-0.057-3.085c2.098-1.047,4.198-2.094,6.297-3.141C34.344,61.712,34.365,63.87,34.387,66.027z"/>
<path fill="#3A1F24" d="M40.586,78.473c-0.047,0.915-0.104,1.831-0.169,2.743c-2.161,0.016-4.32,0.031-6.48,0.046c0.23-0.995,0.452-1.992,0.662-2.99C36.596,78.339,38.592,78.405,40.586,78.473z"/>
<path fill="#2F161A" d="M37.385,53.198c0.165-1.02,0.325-2.042,0.483-3.064c0.813-2.963,2.782-3.824,5.626-3.094c1.474,1.062,2.082,2.491,1.817,4.291c-0.502,0.659-1.004,1.321-1.507,1.987C41.665,53.277,39.524,53.237,37.385,53.198z"/>
<path fill="#34191E" d="M34.463,53.568c1.009-0.125,2.018-0.25,3.027-0.375c0,1.074,0,2.151,0,3.226c-1.033,1.192-2.078,1.202-3.134,0.033l0.093-0.189c-0.752-0.451-1.504-0.906-2.257-1.357C32.949,54.458,33.706,54.013,34.463,53.568z"/>
<path fill="#3E1E24" d="M46.897,56.397c-1.041,0-2.083-0.013-3.122-0.03c-0.015-1.02-0.009-2.039,0.026-3.056c0.003,0.007-0.05-0.069-0.05-0.069c0.944-1.393,1.965-1.386,3.053-0.168C46.836,54.181,46.867,55.288,46.897,56.397z"/>
<path fill="#2F161A" d="M40.615,65.744l0.019,0.018L40.615,65.744z"/>
<path fill="#1E1113" d="M34.356,56.451c1.045-0.013,2.089-0.024,3.134-0.033c-1.039,1.031-2.077,2.06-3.116,3.091C34.37,58.489,34.364,57.471,34.356,56.451z"/>
<path fill="#361E23" d="M56.706,37.365c-0.209-0.9-0.401-1.803-0.574-2.713c0.128-1.034,0.26-2.069,0.393-3.104c0.907-0.049,1.813-0.092,2.719-0.125c0.925-0.003,1.851-0.006,2.777-0.009c1.92,0.537,3.183,1.751,3.792,3.653c0.174,1.978-0.482,3.623-1.966,4.938C60.64,41.358,58.554,39.685,56.706,37.365z"/>
<path fill="#34191E" d="M43.748,31.43c2.139,1.05,4.277,2.103,6.418,3.156l-0.089,0.003c-2.114,1.733-4.506,1.639-6.972,1.05c-1.033-1.608-0.818-3.03,0.646-4.26L43.748,31.43z"/>
<path fill="#1A0D10" d="M68.886,59.421c1.021,0.024,2.043,0.045,3.066,0.066c-1.05,1.071-2.1,2.143-3.147,3.214c-1.065-0.04-2.132-0.082-3.198-0.125c-0.787-0.738-1.112-1.526-0.976-2.371c0.143-0.87,0.325-1.304,0.554-1.304C66.545,58.173,67.785,58.298,68.886,59.421z"/>
<path fill="#2A1317" d="M24.987,83.518c0.008-1.765,0.014-3.531,0.021-5.295C25.001,79.986,24.995,81.753,24.987,83.518z"/>
<path fill="#34191E" d="M31.216,46.905c-0.882-0.073-1.764-0.144-2.641-0.217c0.925-2.023,1.845-4.046,2.765-6.067c0.663,0.357,1.325,0.711,1.985,1.068C34.382,44.141,33.92,45.978,31.216,46.905z"/>
<path fill="#120A0B" d="M24.989,37.628c-0.001-1.041-0.02-2.078-0.061-3.116c2.092-0.003,4.188-0.009,6.285-0.012c0.458,0.519,0.916,1.038,1.373,1.556c-0.448,0.528-0.897,1.053-1.346,1.581C29.156,37.634,27.073,37.631,24.989,37.628z"/>
<path fill="#120A0B" d="M31.339,40.622c-0.032-0.995-0.064-1.99-0.099-2.984l-0.007,0.009c1.352-0.9,2.717-0.879,4.095-0.058c0.734,1.422,0.714,2.804-0.188,4.15c-1.543,0.625-2.818,0.241-3.862-1.02L31.339,40.622z"/>
<path fill="#1E1113" d="M65.875,18.756c0.972,0.107,1.945,0.21,2.919,0.314c0.887,0.684,1.178,1.364,0.879,2.042c-0.298,0.674-0.597,1.013-0.896,1.013c0.066,0.967,0.142,1.938,0.227,2.905c-0.069,2.06-0.142,4.123-0.213,6.186c1.148,1.092,2.026,2.374,2.634,3.839c0.014,0.781,0.027,1.563,0.041,2.347c-0.472,1.623-1.524,2.658-3.154,3.106c-2.797-0.226-3.914-2.005-4.187-4.55c-0.356-1.465-0.765-2.926-1.226-4.367c0.145-2.924,1.608-5.82,0.23-8.786c0.378-1.453,1.08-2.722,2.159-3.775L65.875,18.756z"/>
<path fill="#1B0F11" d="M68.764,34.579c0.009-1.12,0.018-2.24,0.027-3.363c2.288,0.034,4.577,0.07,6.874,0.104c-0.165,1.041-0.338,2.082-0.51,3.119c-0.011,3.128-0.024,6.256-0.038,9.384c-1,1.163-2.272,1.626-3.783,1.483c-2.487-0.803-3.272-2.493-2.592-4.953C69.557,38.434,70.883,36.514,68.764,34.579z"/>
<path fill="#281317" d="M31.278,40.719c0.884-0.027,1.766-0.049,2.649-0.064c2.716-0.205,1.402-2.338,1.759-3.671c0.466-1.05,1.174-1.895,2.123-2.539c1.013-0.498,2.052-0.928,3.119-1.297c1.202-0.095,2.128,0.381,2.815,1.355c2.112,0.027,4.223,0.055,6.334,0.083c-2.373,5.234-4.745,10.467-7.121,15.701c-1.7-0.052-3.398-0.101-5.09-0.152c-2.214-1.074-4.431-2.151-6.65-3.229C31.237,44.842,31.259,42.782,31.278,40.719z"/>
<path fill="#2E161B" d="M34.463,53.568c-0.011,0.9-0.015,1.797-0.014,2.697c-2.13-1.031-4.26-2.06-6.39-3.091C30.193,53.305,32.328,53.437,34.463,53.568z"/>
<path fill="#1E1113" d="M71.862,37.609c0.003,2.091,0.006,4.178,0.011,6.266c0.732,0.531,1.465,1.059,2.197,1.59c-0.729,0.534-1.457,1.068-2.187,1.605c-0.002,1.022-0.005,2.044-0.006,3.069c-0.998,3.092-1.998,6.187-2.994,9.281c-1.09,0.033-2.181,0.07-3.271,0.106c-0.661-0.253-1.321-0.504-2.002-0.757c-2.07-2.179-2.838-4.81-2.664-7.752c0.085-1.385,0.122-2.762,0.217-4.132c0.45-2.948,2.795-4.574,4.584-6.583c0.962-0.952,1.973-1.852,3.03-2.695l-0.059,0.043C69.749,36.343,70.797,36.395,71.862,37.609z"/>
<path fill="#170C0E" d="M71.884,47.07c-0.005-1.065-0.008-2.13-0.011-3.195c1.079-0.016,2.159-0.034,3.242-0.049c1.017,1.068,2.029,2.136,3.044,3.204C76.067,47.043,73.976,47.055,71.884,47.07z"/>
<path fill="#1A0D10" d="M68.777,22.125c0.001-1.022,0.006-2.042,0.017-3.058c1.056-0.08,2.11-0.162,3.168-0.244C70.901,19.925,69.839,21.024,68.777,22.125z"/>
<path fill="#2A1317" d="M65.621,21.984c0.002,3.131,0.002,6.266,0.002,9.396c-2.053,2.179-4.107,1.728-6.165,0.006c0,0-0.207,0.034-0.212,0.034c1.07-2.121,2.145-4.245,3.219-6.372c-0.854-0.727-1.207-1.517-1.063-2.372c0.149-0.885,0.345-1.331,0.59-1.331C63.391,20.486,64.601,20.7,65.621,21.984z"/>
<path fill="#3E1E24" d="M62.266,22.308c0.07,0.916,0.136,1.831,0.199,2.744c-1.071-1.05-2.143-2.097-3.216-3.146c-0.001-0.003,0.084,0.116,0.084,0.116C60.469,20.517,61.445,20.614,62.266,22.308z"/>
<path fill="#150B0D" d="M65.612,59.527c0.005,1.017,0.003,2.035-0.005,3.052c-2.073,0-4.147,0-6.221,0c0.047-0.979,0.093-1.956,0.138-2.933c1.864-2.661,3.901-2.454,6.05-0.363L65.612,59.527z"/>
<path fill="#2E161B" d="M65.574,59.283c-2.018,0.119-4.034,0.238-6.05,0.36c-1.014-0.073-2.025-0.159-3.035-0.25c-3.26-2.088-6.521-4.176-9.784-6.266c2.104-1.004,4.207-2.005,6.31-3.009c1.983-1.462,4.332-2.2,6.51-3.275c2.772-0.205,4.396,1.654,6.085,3.393C65.597,53.253,65.585,56.269,65.574,59.283z"/>
<path fill="#381A1F" d="M34.365,31.381c2.083-0.003,4.166-0.003,6.247-0.003c1.036,0.689,1.381,1.382,1.041,2.078c-0.34,0.699-0.684,1.047-1.03,1.047l-0.012,0.021c-1.447,1.407-3.212,1.733-5.136,1.52c-0.36-0.506-0.72-1.013-1.08-1.52C34.385,33.475,34.376,32.428,34.365,31.381z"/>
<path fill="#381A1F" d="M34.527,37.555c-1.097,0.027-2.196,0.058-3.294,0.092c-0.006-1.05-0.011-2.097-0.019-3.146c1.059,0.006,2.118,0.015,3.178,0.021c0.002,0.003-0.056-0.058-0.056-0.058c0.528,0.485,1.056,0.97,1.587,1.453C35.461,36.462,34.994,37.008,34.527,37.555z"/>
<path fill="#34191E" d="M43.743,62.628c1.044-1.041,2.089-2.081,3.133-3.122c-0.037,0.943-0.081,1.886-0.131,2.826C45.745,62.444,44.746,62.542,43.743,62.628z"/>
<path fill="#120A0B" d="M62.266,22.308c-0.975-0.125-1.951-0.223-2.933-0.287c-0.08-1.02-0.206-2.03-0.378-3.034c2.111,0.012,4.227,0.027,6.338,0.04c0.126,0.986,0.235,1.972,0.328,2.957C64.503,22.095,63.385,22.201,62.266,22.308z"/>
<path fill="#1E1113" d="M40.623,34.503c0.001-1.041,0.001-2.084-0.005-3.125c1.04,0,2.086,0,3.131,0c0.001,1.041,0,2.084-0.003,3.125c-0.003,0-1.563,0-1.563,0H40.623z"/>
<path fill="#251215" d="M68.745,40.744c-1.024,2.075-2.047,4.146-3.068,6.223c-3.442,0.088-6.943,0.342-9.058-3.259c0.027-2.115,0.056-4.227,0.085-6.342c1.921,0.064,3.839,0.128,5.757,0.192C64.829,38.083,66.981,39.032,68.745,40.744z"/>
<path fill="#170D0F" d="M56.619,43.707c3.018,1.086,6.037,2.173,9.056,3.259c-0.021,1.089-0.043,2.179-0.065,3.268c-2.067-0.033-4.134-0.069-6.201-0.106c-0.981-1.275-3.432-1.175-3.28-3.506C56.284,45.648,56.449,44.678,56.619,43.707z"/>
<path fill="#46262C" d="M56.128,46.622c1.092,1.168,2.187,2.337,3.28,3.506c-2.13-0.003-4.262-0.006-6.394-0.009C54.052,48.953,55.09,47.787,56.128,46.622z"/>
<path fill="#2E161B" d="M68.745,40.744c-2.094-1.063-4.188-2.121-6.282-3.183c-0.026-0.937-0.049-1.871-0.07-2.801c0.496-0.613,0.993-1.224,1.489-1.834c0.58,0.531,1.16,1.065,1.739,1.596c1.052,1.028,2.103,2.06,3.156,3.088C68.767,38.653,68.756,39.7,68.745,40.744z"/>
<path fill="#150A0C" d="M65.621,34.522c-1.075,0.076-2.149,0.152-3.227,0.231c-0.981-1.12-1.961-2.243-2.938-3.366c2.057-0.003,4.11-0.003,6.166-0.006C65.623,32.428,65.621,33.475,65.621,34.522z"/>
<path fill="#3B2025" d="M37.46,37.683c-1.177,0.992-2.353,1.981-3.531,2.973c0.197-1.035,0.397-2.066,0.599-3.101l-0.192,0.174C35.354,36.175,36.397,36.231,37.46,37.683z"/>
<path fill="#2F161A" d="M71.862,37.609c-1.047,0.016-2.095,0.031-3.142,0.043c0.015-1.025,0.028-2.051,0.043-3.073C69.796,35.589,70.829,36.6,71.862,37.609z"/>
<path fill="#1A0D10" d="M37.46,37.683c-1.042,0.003-2.084,0.019-3.125,0.046c0-1.086,0.001-2.176,0.001-3.262c2.092,0.018,4.184,0.037,6.274,0.058C39.561,35.577,38.51,36.63,37.46,37.683z"/>
</svg>