<?xml version="1.0" encoding="utf-8"?>
<!DOCTYPE svg PUBLIC "-//W3C//DTD SVG 1.1//EN" "http://www.w3.org/Graphics/SVG/1.1/DTD/svg11.dtd">
<svg version="1.1" xmlns="http://www.w3.org/2000/svg" xmlns:xlink="http://www.w3.org/1999/xlink" x="0px" y="0px" width="100px" height="100px" viewBox="0 0 100 100" enable-background="new 0 0 100 100" xml:space="preserve">
<path fill="#6D6A4F" d="M75.45,83.39c-2.055,1.025-4.11,2.054-6.166,3.079c-0.993,0.796-2.125,1.26-3.396,1.395c-0.632-0.024-1.259-0.049-1.892-0.073c-0.596-0.223-1.186-0.445-1.784-0.669c-0.849-0.979-1.455-2.09-1.853-3.323c-0.313-1.251-0.456-2.523-0.48-3.812c0.023-1.278,0.212-2.542,0.539-3.778c0.419-1.189,1.077-2.249,1.929-3.174c1.019-0.662,2.154-1.059,3.346-1.235c1.134-0.013,2.251,0.21,3.296,0.629c0.735,0.589,1.687,1.525,2.477,0.46c1.233-1.659,0.198,1.005-0.689-0.912c0.142-1.163,0.597-2.151,1.327-3.046c1.918-1.653,3.99-2.542,6.502-1.431c2.51,1.901,3.86,4.446,4.197,7.534c0.342,1.541-2.279,2.14-1.272,3.925c0.008,0,0.312,1.514,0.312,1.514c-2.14,0.982-4.278,1.966-6.418,2.948L75.45,83.39z"/>
<path fill="#6E6A50" d="M93.541,42.524c-0.004,6.308-0.011,12.616-0.015,18.927c-0.518,0.326-1.036,0.653-1.551,0.982c-0.566-0.226-1.134-0.454-1.701-0.671c-0.811-0.9-1.418-1.929-1.842-3.058c-0.369-1.093-0.643-2.229-0.873-3.357c-0.424-1.599-0.904-3.192-1.601-4.706c-0.793-1.422-1.547-2.868-2.146-4.391c-0.331-1.041-0.456-2.112-0.426-3.201c0.134-1.657-0.117-3.302-0.211-4.971c0.11-1.196,0.467-2.298,1.085-3.33c0.773-0.961,1.69-1.74,2.753-2.362c0.6-0.159,1.194-0.299,1.796-0.452c0.613,0.104,1.221,0.214,1.831,0.324c0.445,0.43,0.887,0.867,1.329,1.3c0.317,1.2,0.472,2.42,0.469,3.662C92.467,39.057,92.39,40.918,93.541,42.524z"/>
<path fill="#A9A080" d="M28.48,85.807c-1.079-0.77-2.156-1.542-3.233-2.313c-0.979-0.892-1.583-1.996-1.874-3.284c0.072-0.646,0.146-1.291,0.215-1.935c0.497-1.239,1.331-2.197,2.439-2.924c1.801-0.812,3.696-1.071,5.652-0.934c1.257,0.131,2.487,0.421,3.691,0.809c2.902,1.084,5.94,1.89,8.543,3.699c0.87,0.952,1.385,2.063,1.518,3.351c-0.133,1.935-0.804,3.695-1.73,5.377c-0.664,1.096-1.547,1.987-2.62,2.686c-1.284,0.348-2.456,0.098-3.526-0.678l0.035,0.195c-0.462-0.747-0.893-1.514-1.296-2.285c-0.003,0.009,1.085-0.665,1.085-0.665s-1.277,0.079-1.275,0.088c0.003,0.998-0.462,1.66-1.392,1.993c-1.081-0.778-2.159-1.56-3.239-2.341c-0.666-0.583-1.155-1.288-1.476-2.1c-0.006,0.012,1.086-0.604,1.086-0.604s-1.25-0.085-1.249-0.076C29.864,84.858,29.412,85.501,28.48,85.807z"/>
<path fill="#E1D6A8" d="M28.234,11.771c1.009-0.217,2.029-0.345,3.061-0.381c1.054-0.876,2.081-1.786,3.073-2.731c2.205-1.047,4.408-2.097,6.611-3.144c0.967,0.729,1.57,1.694,1.866,2.863c-0.001,0.586-0.011,1.175-0.003,1.764c-0.133,0.568-0.284,1.139-0.408,1.712c-0.387,1.099-0.879,2.161-1.428,3.189c-0.513,1.043-1.126,2.029-1.777,2.994c-0.983,1.443-2.125,2.753-3.388,3.964c-1.285,1.214-2.729,2.182-4.399,2.798c-1.169,0.247-2.309,0.156-3.418-0.305c-0.839-0.836-1.448-1.819-1.843-2.936c-0.293-1.132-0.412-2.289-0.394-3.458c0.139-1.147,0.471-2.246,0.972-3.292C26.977,13.666,27.47,12.653,28.234,11.771z"/>
<path fill="#A6A07B" d="M12.684,77.295c-1.05-0.269-2.1-0.537-3.149-0.806c-0.987-0.656-1.799-1.486-2.46-2.466c0.021-3.231,0.043-6.464,0.064-9.698c0.716-0.949,0.65-1.874-0.09-2.78c-0.001-2.17-0.003-4.343-0.004-6.513c1.129-0.598,2.299-0.659,3.509-0.266c1.131,0.534,2.136,1.245,3.044,2.109c0.842,0.937,1.543,1.968,2.152,3.073c0.901,1.69,1.556,3.47,1.872,5.371c0.098,1.287,0.001,2.563-0.261,3.829C16.442,72.226,15.743,75.443,12.684,77.295z"/>
<path fill="#D3CC95" d="M78.768,14.735c4.944,3.174,9.89,6.348,14.835,9.518c-1.172,1.193-2.512,2.124-4.107,2.664c-1.557,0.604-3.144,1.117-4.782,1.48c-1.146,0.116-2.253-0.04-3.323-0.473c-0.917-0.708-1.654-1.572-2.268-2.551c-0.886-1.496-1.604-3.067-2.18-4.709c-0.337-1.129-0.448-2.279-0.367-3.451C76.914,16.044,77.668,15.235,78.768,14.735z"/>
<path fill="#6D6A4F" d="M81.536,77.054c-1.038-3.137-2.074-6.271-3.111-9.405c0.468-0.302,0.935-0.602,1.402-0.909c1.124-0.101,2.226,0.009,3.315,0.302c1.074,0.33,2.1,0.772,3.09,1.303c0.971,0.571,1.787,1.322,2.466,2.213c0.385,1.044,0.456,2.115,0.179,3.195c0.395,1.172-2.699,0.171-1.255,2.014c0.005,0,0.369,1.517,0.369,1.517c-2.051,1.065-4.101,2.128-6.15,3.189l-0.76-0.964l-0.521-1.367L81.536,77.054z"/>
<path fill="#A39D76" d="M7.116,33.329c-0.032-2.191-0.063-4.379-0.093-6.571c0.913-1.422,1.495-3.113,3.175-3.915c2.371-0.021,4.53,0.888,6.756,1.526c1.061,0.54,1.973,1.263,2.733,2.179c0.434,1.114,0.479,2.258,0.208,3.415c-0.679,1.605-1.767,2.875-3.233,3.799c-0.49,0.195-1.004,0.385-1.494,0.583c-0.51,0.027-1.044,0.046-1.553,0.085c-1.375-0.217-2.757-1.01-4.193-0.083c-0.004,0.019-1.434,0.134-1.439,0.137C7.977,34.489,7.116,33.329,7.116,33.329z"/>
<path fill="#9F9A71" d="M7.006,42.722c0.051-2.158,0.101-4.318,0.151-6.476c0.59-1.169,1.423-2.13,2.467-2.912L9.7,33.233c1.054-0.812,2.09-0.833,3.108,0.064l-0.046-0.046c1.48,0.833,3.056,1.547,3.911,3.165c0.392,1.117,0.447,2.252,0.185,3.409c-0.807,1.624-2.049,2.832-3.58,3.769c-1.066,0.519-2.194,0.809-3.38,0.867C8.712,44.257,7.736,43.696,7.006,42.722z"/>
<path fill="#9E9871" d="M22.227,82.685c-1.068-0.827-2.136-1.651-3.204-2.479c-1.444-1.343-2.436-2.941-2.777-4.91c-0.104-1.27-0.063-2.539,0.105-3.803c0.368-1.202,0.864-2.358,1.495-3.448c0.872-0.985,1.965-1.397,3.275-1.242c1.153,0.495,2.145,1.221,2.989,2.151c0.78,0.959,1.421,2.012,1.978,3.116c0.205,0.573,0.388,1.163,0.584,1.745c0.124,1.282-0.331,2.326-1.354,3.122l0.005,0.104c-0.795,0.806-1.323,1.761-1.581,2.865C23.679,81.077,23.197,82.013,22.227,82.685z"/>
<path fill="#6E6A50" d="M56.67,92.975c-1.11,0.748-2.222,1.492-3.332,2.237c-1.063-0.528-2.12-1.068-3.177-1.627c-0.362-0.485-0.715-0.967-1.079-1.459c-0.306-1.202-0.399-2.413-0.299-3.652c0.305-2.493-0.016-5.259,2.809-6.711c1.373-0.339,2.73-0.323,4.104,0.033c1.313,0.693,2.244,1.725,2.882,3.052C59.621,87.958,58.742,90.61,56.67,92.975z"/>
<path fill="#69664A" d="M93.508,64.42c-0.011,3.164-0.023,6.326-0.035,9.487c-0.787,0.989-1.746,1.196-2.872,0.635c-0.741-0.882-1.141-1.907-1.252-3.049c-0.698-1.831-2.254-2.361-4.001-2.624c-1.093-0.592-1.807-1.474-2.164-2.667c0.1-1.255,0.54-2.371,1.264-3.391c1.905-1.63,3.784-3.394,6.48-1.443l0.001,0.036C92.002,62.229,92.871,63.224,93.508,64.42z"/>
<path fill="#E4DEA5" d="M28.42,17.64c-0.004,1.05-0.007,2.103-0.01,3.152c-1.412,1.312-2.614,2.853-4.294,3.873c-0.6,0.238-1.207,0.461-1.808,0.699c-1.3,0.144-2.554-0.052-3.76-0.564c-1.813-0.961-2.866-2.469-3.203-4.489c1.132-0.906,2.265-1.813,3.397-2.719c1.127-0.907,2.423-1.367,3.863-1.44C24.671,16.145,26.858,15.675,28.42,17.64z"/>
<path fill="#D5CD97" d="M15.345,20.31c1.313,1.102,2.625,2.2,3.937,3.302c-0.195,2.005-2.094,2.118-3.313,2.984c-2.231-0.766-4.462-1.529-6.693-2.295l-1.213,0.815l-1.135-0.922C9.735,22.901,12.541,21.604,15.345,20.31z"/>
<path fill="#96936A" d="M19.047,70.771c0,1.05,0,2.097-0.001,3.146c-1.662,1.437-1.444,4.013-3.246,5.364c-1.039-0.662-2.079-1.324-3.116-1.986c1.076-3.201,2.153-6.402,3.23-9.604C17.908,67.749,17.901,69.849,19.047,70.771z"/>
<path fill="#D2CC94" d="M59.839,5.555c3.087,1.871,6.176,3.741,9.263,5.615c0.804,0.552,1.191,1.208,1.162,1.971c-0.03,0.815-0.149,1.221-0.355,1.227c-1.01,0.867-2.177,1.27-3.508,1.229c-2.621-0.455-4.904-1.583-6.84-3.415c-0.815-1.025-1.308-2.197-1.537-3.482C58.121,7.365,58.729,6.312,59.839,5.555z"/>
<path fill="#6E6A50" d="M56.67,92.975c-0.044-3.237-0.087-6.479-0.13-9.72c-0.82-1.12-0.73-2.2,0.148-3.247c0.569-0.253,1.14-0.507,1.709-0.763c0.61,0.125,1.221,0.253,1.831,0.378c0.611,1.099,0.938,2.277,0.985,3.534c0.178,1.248,0.687,2.338,1.584,3.235l0.034,0.036c1.013,0.705,1.381,1.453,1.105,2.237c-0.282,0.803-0.581,1.205-0.898,1.205l0.057-0.244c-1.111,0.827-2.217,1.663-3.319,2.506C58.742,92.414,57.706,92.695,56.67,92.975z"/>
<path fill="#DBD39E" d="M43.766,5.033c4.311,0.024,8.621,0.052,12.932,0.076c-0.885,1.132-1.986,1.975-3.337,2.487c-2.101,0.583-4.205,0.574-6.31,0.003C45.704,7.072,44.61,6.211,43.766,5.033z"/>
<path fill="#DAD29C" d="M43.766,5.033c1.163,0.046,2.327,0.091,3.49,0.14c0.75,0.653,1.086,1.379,1.015,2.176c-0.076,0.833-0.214,1.248-0.415,1.251c-1.03,0.876-2.227,1.355-3.563,1.499c-1.346-0.192-2.457-0.821-3.366-1.825c-0.003-0.921,0.015-1.843,0.053-2.762C41.892,5.256,42.82,5.094,43.766,5.033z"/>
<path fill="#E6DAB0" d="M53.353,5.213c1.114-0.034,2.229-0.07,3.344-0.104c1.048,0.146,2.095,0.293,3.142,0.442c-0.101,0.891-0.163,1.779-0.187,2.673c-1.629,1.981-3.54,1.77-5.56,0.714c-0.742-0.711-1.098-1.501-1.07-2.368C53.053,5.665,53.162,5.213,53.353,5.213z"/>
<path fill="#98946C" d="M47.204,95.194c-1.088-0.76-2.174-1.52-3.262-2.279c-0.478-0.461-0.955-0.922-1.436-1.38c0.195-0.632,0.392-1.264,0.587-1.898c0.542-0.378,1.083-0.76,1.625-1.141c0.659,0.027,1.322,0.058,1.981,0.082c1.166,0.751,1.808,1.819,1.933,3.198C48.745,93.162,48.269,94.299,47.204,95.194z"/>
<path fill="#636044" d="M93.541,42.524c-0.869-2.045-1.737-4.089-2.605-6.134c0.857-1.44,1.719-1.44,2.586-0.009C93.528,38.428,93.535,40.476,93.541,42.524z"/>
<path fill="#DFD3A7" d="M28.42,17.64c-2.085,0-4.17-0.003-6.256-0.003c-0.705-0.57-0.958-1.163-0.76-1.776c0.201-0.623,0.414-0.934,0.636-0.934c1.053-0.143,2.105-0.284,3.159-0.427c1.034-1.107,2.098-1.083,3.184-0.076C28.396,15.498,28.408,16.569,28.42,17.64z"/>
<path fill="#A19C74" d="M7.099,52.109c-0.015-2.148-0.03-4.297-0.046-6.445c0.87-1.016,1.904-1.23,3.107-0.65c0.766,0.961,1.216,2.057,1.358,3.28c-0.085,1.215-0.5,2.319-1.186,3.326C9.358,52.439,8.278,52.601,7.099,52.109z"/>
<path fill="#FEFEDE" d="M78.768,14.735c-0.22,0.894-0.391,1.797-0.513,2.71c-1.57,2.154-3.5,1.895-5.553,0.824c-0.427-0.577-0.852-1.15-1.277-1.727c0.049-0.72,0.102-1.435,0.154-2.152c1.21-1.095,2.392-1.123,3.543,0.083C76.337,14.558,77.552,14.646,78.768,14.735z"/>
<path fill="#666347" d="M88.316,23.954c1.762,0.101,3.524,0.201,5.287,0.302c0.35,0.903,0.321,1.798-0.084,2.68c-0.773,1.071-1.828,1.651-3.131,1.813c-0.623-0.134-1.242-0.269-1.865-0.403c-0.499-0.396-0.993-0.796-1.49-1.199C86.719,25.785,87.182,24.735,88.316,23.954z"/>
<path fill="#686549" d="M90.934,70.804c-0.005,1.031-0.008,2.066-0.006,3.098c0.842,0.567,1.123,1.139,0.845,1.712c-0.277,0.57-0.555,0.857-0.837,0.857c-0.959,0.354-1.939,0.626-2.944,0.812l-0.481-0.842c-0.729-0.943-0.632-1.788,0.288-2.545c0-1.038,0.003-2.078,0.009-3.116C88.859,69.678,89.901,69.632,90.934,70.804z"/>
<path fill="#A6A07B" d="M15.8,79.282c1.082-1.788,2.164-3.576,3.246-5.364c-0.008,2.096-0.016,4.192-0.023,6.289C17.948,79.899,16.874,79.59,15.8,79.282z"/>
<path fill="#7D795A" d="M90.931,27.021c0.862-0.012,1.726-0.04,2.588-0.085c0.008,2.142,0.015,4.285,0.024,6.43c-0.914,1.019-1.788,0.985-2.62-0.104h0.013C89.078,31.184,89.078,29.102,90.931,27.021z"/>
<path fill="#9E9871" d="M44.036,89.511c-0.032,1.136-0.063,2.268-0.095,3.4c-2.127-1.084-4.256-2.167-6.384-3.251c1.129-0.049,2.26-0.098,3.389-0.143C41.975,88.431,43.005,88.428,44.036,89.511z"/>
<path fill="#BBB57E" d="M34.368,8.659c-1.024,0.913-2.048,1.822-3.072,2.731C32.319,10.48,33.344,9.571,34.368,8.659z"/>
<path fill="#C0BA83" d="M28.383,14.423c-1.062,0.027-2.122,0.052-3.184,0.076c1.011-0.909,2.024-1.822,3.036-2.731C28.359,12.65,28.41,13.535,28.383,14.423z"/>
<path fill="#BFB981" d="M69.138,14.423c-0.012-1.083-0.024-2.17-0.036-3.253c0.969,0.167,1.926,0.387,2.871,0.653c0.84,0.54,1.149,1.123,0.933,1.743c-0.226,0.641-0.467,0.964-0.727,0.964l0.053,0.042C71.153,15.5,70.121,15.452,69.138,14.423z"/>
<path fill="#DCD69F" d="M72.179,14.53c-0.038-0.906-0.106-1.81-0.204-2.707c1.05,0.885,2.1,1.767,3.149,2.649C74.142,14.512,73.162,14.53,72.179,14.53z"/>
<path fill="#CDC68F" d="M22.041,14.927c0.079,0.9,0.121,1.804,0.124,2.71c-1.14-0.015-2.28-0.03-3.421-0.045C19.842,16.703,20.941,15.815,22.041,14.927z"/>
<path fill="#726E44" d="M6.928,24.195C7.721,24,8.504,24.033,9.276,24.302c-0.75,0.818-1.503,1.636-2.253,2.457C6.61,25.916,6.579,25.065,6.928,24.195z"/>
<path fill="#8E8A62" d="M7.099,52.109c0.847-0.033,1.694-0.049,2.542-0.045c0,0,0.897,0.879,0.9,0.879c0.001-0.004,0.03,1.254,0.034,1.257c0.003,0-0.833,0.94-0.833,0.94c-0.902,0.006-1.801-0.031-2.7-0.107C6.631,54.05,6.649,53.074,7.099,52.109z"/>
<path fill="#98936B" d="M7.049,61.545c0.351,0.65,0.777,1.272,1.001,1.965c0.05,0.156-0.589,0.537-0.913,0.818C6.695,63.413,6.664,62.485,7.049,61.545z"/>
<path fill="#5E5A40" d="M93.508,64.42c-0.859-1.004-1.718-2.012-2.579-3.016c0.867,0.003,1.732,0.019,2.598,0.046C94.026,62.443,94.019,63.434,93.508,64.42z"/>
<path fill="#605D41" d="M90.923,33.262c0.877-0.012,1.753,0.021,2.623,0.101c0.526,1.01,0.521,2.018-0.021,3.019c-0.003,0-1.297,0.009-1.297,0.009h-1.294C90.931,35.346,90.928,34.306,90.923,33.262z"/>
<path fill="#96936A" d="M9.625,33.335c-0.822,0.971-1.645,1.941-2.467,2.912c-0.462-0.968-0.476-1.938-0.043-2.917C7.952,33.311,8.788,33.313,9.625,33.335z"/>
<path fill="#9E9871" d="M7.075,74.024c0.819,0.824,1.64,1.645,2.46,2.466C8.715,75.668,7.894,74.845,7.075,74.024z"/>
<path fill="#646145" d="M90.936,76.471c-0.008-0.857-0.011-1.715-0.008-2.569c0.85-0.006,1.699-0.003,2.547,0.006C92.627,74.762,91.78,75.617,90.936,76.471z"/>
<path fill="#938E66" d="M22.227,82.685c-0.014-0.83-0.029-1.66-0.047-2.49c1.025-1.017,2.037-1.053,3.035,0.039c0.011,1.087,0.021,2.173,0.032,3.26C24.239,83.225,23.234,82.954,22.227,82.685z"/>
<path fill="#A19B75" d="M28.48,85.807c0-0.897,0.019-1.795,0.05-2.692c0.946-0.692,1.901-0.744,2.869-0.046c0.024,1.193,0.051,2.384,0.077,3.577C30.446,86.472,29.449,86.191,28.48,85.807z"/>
<path fill="#A39C77" d="M37.783,86.365c-0.064,1.163-0.126,2.326-0.192,3.488c-0.997-0.164-1.957-0.454-2.878-0.863c-0.012-0.888-0.012-1.776,0.003-2.664C35.749,85.523,36.771,85.535,37.783,86.365z"/>
<path fill="#6E6A50" d="M63.039,89.872c-0.068-1.147-0.139-2.295-0.207-3.445c1.031-0.021,2.063-0.03,3.094-0.033c0.729,0.57,0.976,1.144,0.742,1.727c-0.232,0.583-0.469,0.876-0.708,0.876C65.001,89.343,64.029,89.633,63.039,89.872z"/>
<path fill="#646145" d="M65.96,88.996c-0.029-0.866-0.04-1.733-0.034-2.603c1.119,0.027,2.237,0.052,3.358,0.076C68.177,87.311,67.068,88.154,65.96,88.996z"/>
<path fill="#8A865D" d="M9.643,45.704L8.346,45.72c0,0-1.294-0.055-1.292-0.055c-0.441-0.974-0.458-1.953-0.049-2.942c0.903-0.064,1.807-0.091,2.711-0.079c0.664,0.696,0.875,1.382,0.632,2.057C10.107,45.368,9.872,45.704,9.643,45.704z"/>
<path fill="#615E43" d="M59.777,92.133c1.106-0.837,2.213-1.67,3.319-2.506C61.989,90.463,60.883,91.296,59.777,92.133z"/>
<path fill="#928D66" d="M47.204,95.194c-0.009-0.852-0.018-1.7-0.031-2.551c1.039-1.465,2.078-1.465,3.117,0l0.4,0.024l0.662,1.376l-0.928,1.215C49.351,95.237,48.278,95.215,47.204,95.194z"/>
<path fill="#6C684D" d="M50.425,95.258c-0.041-0.879,0.044-1.743,0.261-2.591c0.887,0.848,1.771,1.696,2.652,2.545l-1.451,0.384L50.425,95.258z"/>
<path fill="#6D694F" d="M72.176,70.758c-0.001,1.038-0.001,2.075-0.001,3.116c-1.027,1.257-2.064,1.208-3.11,0.024c-1.056-0.006-2.111-0.01-3.167-0.016c-0.893-0.79-1.891-1.406-3.002-1.853c-0.334-0.5-0.662-0.997-0.995-1.501c-0.098-1.258,0.249-2.381,0.976-3.402c0.966-0.815,2.046-1.392,3.266-1.728c1.26-0.198,2.515-0.171,3.771,0.049c1.235,0.396,2.307,1.053,3.207,1.989C73.554,68.756,73.238,69.865,72.176,70.758z"/>
<path fill="#7A745C" d="M72.176,70.758c-0.011-1.04-0.02-2.081-0.027-3.125c-0.74-0.845-0.998-1.699-0.773-2.566c0.226-0.869,0.458-1.303,0.699-1.306c2.087-1.218,4.184-1.228,6.289-0.049c0.971,1.294,0.987,2.6,0.051,3.921l0.011,0.016C76.342,68.683,74.259,69.721,72.176,70.758z"/>
<path fill="#736D57" d="M62.798,73.889c-0.001,1.035-0.001,2.066,0,3.101c-0.476,0.474-0.952,0.946-1.428,1.423c-0.656-0.144-1.313-0.29-1.971-0.431c-1.199-0.656-2.174-1.554-2.901-2.713c-0.537-1.267-0.645-2.572-0.333-3.912c0.818-1.096,1.88-1.844,3.211-2.194c1.387-0.003,2.542,0.5,3.424,1.596l-0.002,0.016c0.813,0.692,1.084,1.386,0.813,2.078C63.341,73.541,63.07,73.889,62.798,73.889z"/>
<path fill="#605C40" d="M69.065,73.899c1.036-0.006,2.074-0.016,3.11-0.024c0.172,0.76,0.345,1.52,0.755,3.323C71.164,75.69,70.114,74.792,69.065,73.899z"/>
<path fill="#78715C" d="M62.798,73.889c0-1.037,0-2.078,0-3.115c1.033,1.037,2.066,2.075,3.1,3.109C64.864,73.886,63.831,73.886,62.798,73.889z"/>
<path fill="#655F49" d="M59.662,77.005c1.046-0.006,2.091-0.009,3.136-0.016c-0.001,1.071-0.005,2.143-0.006,3.214c-1.068,1.404-2.107,1.383-3.119-0.064l0.02-0.003c-0.711-0.689-0.951-1.382-0.725-2.081C59.196,77.353,59.428,77.005,59.662,77.005z"/>
<path fill="#5E5B40" d="M81.536,77.054c-0.018,0.846-0.167,1.666-0.453,2.457c-0.234-0.613-0.548-1.209-0.635-1.838C80.427,77.521,81.153,77.262,81.536,77.054z"/>
<path fill="#79755A" d="M59.673,80.139c1.041,0.004,2.08,0.024,3.119,0.064c-0.002,1.007,0.001,2.018,0.009,3.024c-1.062,1.034-2.108,1.02-3.143-0.043C59.672,82.169,59.678,81.156,59.673,80.139z"/>
<path fill="#5B583C" d="M75.45,83.39c-0.429-0.241-0.858-0.482-1.287-0.721c0.421,0.25,0.841,0.501,1.26,0.751L75.45,83.39z"/>
<path fill="#5A573C" d="M59.658,83.185c1.048,0.016,2.095,0.03,3.143,0.043c-0.001,1.056-0.001,2.111-0.003,3.165C61.751,85.325,60.704,84.256,59.658,83.185z"/>
<path fill="#716D53" d="M81.494,26.829c1.179-0.156,2.356-0.314,3.534-0.47l1.359-0.559l1.102,0.974l0.495,0.326c1.577,2.106,1.736,4.169-0.189,6.168l0.006-0.009c-1.085,0.992-2.017,2.136-3.114,3.116c0.002,1.062,0.003,2.121,0.005,3.183c0.779,0.681,1.037,1.361,0.776,2.039c-0.26,0.677-0.521,1.016-0.781,1.016c0,1.053,0,2.109-0.001,3.162c-0.526,0.25-1.054,0.497-1.58,0.751c-1.175-0.171-2.246-0.602-3.227-1.264c-1.869-1.407-3.641-2.942-5.463-4.428c-1.41-1.168-2.593-2.518-3.389-4.184c-0.319-1.208-0.292-2.414,0.011-3.623c0.822-1.7,2.092-3,3.614-4.08C76.736,27.613,78.955,26.697,81.494,26.829z"/>
<path fill="#6C684C" d="M90.928,61.369c-2.085,1.05-4.171,2.1-6.257,3.149c-0.854,1.156-1.924,1.482-3.246,0.842c-0.887-1.037-1.256-2.243-1.193-3.598c0.651-1.959,1.913-3.434,3.593-4.584c1.199-0.577,2.471-0.857,3.8-0.866c1.3,0.299,2.4,0.952,3.294,1.949C90.921,59.296,90.925,60.331,90.928,61.369z"/>
<path fill="#6B684C" d="M87.803,48.896c1.036,2.087,2.07,4.178,3.106,6.265c-1.282,1.154-2.601,1.252-3.961,0.138c-0.635-1.449-0.802-2.957-0.501-4.514C86.9,50.156,87.351,49.525,87.803,48.896z"/>
<path fill="#686549" d="M87.795,33.268c0.06-2.057,0.117-4.114,0.183-6.171c0.987-0.07,1.969-0.095,2.951-0.076c0.002,2.081,0.003,4.163,0.007,6.241C89.889,33.265,88.842,33.265,87.795,33.268z"/>
<path fill="#625F43" d="M84.687,42.612c-0.001-1.019,0-2.036,0.005-3.055c0.399,0.729,0.863,1.438,1.132,2.209C85.871,41.901,85.087,42.322,84.687,42.612z"/>
<path fill="#686549" d="M84.687,36.374c1.038-1.041,2.077-2.078,3.114-3.116C86.764,34.296,85.725,35.334,84.687,36.374z"/>
<path fill="#636044" d="M87.811,55.155c1.032-0.009,2.065-0.006,3.099,0.006c0.011,1.035,0.014,2.066,0.009,3.101l-1.553,0.004h-1.554c-0.779-0.69-1.039-1.38-0.781-2.072C87.29,55.502,87.549,55.155,87.811,55.155z"/>
<path fill="#746E58" d="M84.686,45.774c1.039,1.041,2.078,2.081,3.117,3.122l-0.005-0.003c-1.023,0.869-2.064,0.852-3.122,0.063c-0.768-1.064-0.768-2.127,0.002-3.192L84.686,45.774z"/>
<path fill="#9F9A71" d="M44.031,80.146c-3.124-1.038-6.245-2.075-9.367-3.113c-1.115-0.622-1.433-1.553-1.059-2.765c0.752-0.946,1.715-1.489,2.859-1.663c1.035,0.152,2.042-0.034,2.921-0.635c0.587-0.827,1.097-1.685,1.431-2.658c0.282-1.028,0.647-2.008,1.048-2.99c0.485-1.005,1.156-1.841,2.032-2.521c1.111-0.296,2.174-0.168,3.209,0.312c0.878,0.714,1.542,1.593,2.041,2.604c0.394,1.037,0.666,2.114,0.85,3.21c0.228,1.077,0.394,2.167,0.575,3.256c0.404,1.643,0.79,3.281,0.958,4.975c-0.068,0.577-0.155,1.145-0.236,1.719c-0.679,0.982-1.576,1.678-2.688,2.111C46.713,82.288,45.184,81.684,44.031,80.146z"/>
<path fill="#96916C" d="M44.031,80.146c1.976-0.046,3.952-0.095,5.928-0.141c0.881,0.57,1.266,1.236,1.154,1.996c-0.118,0.806-0.298,1.211-0.539,1.211c-0.092,2.1-0.183,4.202-0.274,6.306c-1.044,1.229-2.085,1.294-3.127,0l0.031,0.018c-0.893-0.747-1.869-1.367-2.928-1.858c-0.381-0.442-0.76-0.885-1.141-1.327c-0.339-1.212-0.016-2.234,0.875-3.098C44.036,82.218,44.042,81.183,44.031,80.146z"/>
<path fill="#8C875E" d="M25.318,76.938c-0.012-1.001-0.007-2.002,0.014-3.006c1.778-1.654,3.728-1.709,5.803-0.629c0.771,0.748,1.083,1.548,0.937,2.39c-0.148,0.867-0.336,1.301-0.56,1.301C29.447,76.975,27.383,76.957,25.318,76.938z"/>
<path fill="#A19B75" d="M31.512,76.994c0.007-0.986-0.037-1.969-0.133-2.951c0.542-0.306,1.082-0.61,1.624-0.919c0.56,0.269,1.118,0.54,1.678,0.812c-0.003,1.032-0.009,2.063-0.017,3.095C33.613,77.018,32.562,77.005,31.512,76.994z"/>
<path fill="#A19B75" d="M25.215,80.234l-1.517-0.049c0,0-1.519,0.007-1.519,0.01c1.048-1.053,2.095-2.103,3.144-3.152C25.286,78.104,25.251,79.169,25.215,80.234z"/>
<path fill="#848057" d="M31.399,83.069l-1.434,0.101c0,0-1.436-0.053-1.435-0.053C29.487,83.1,30.442,83.084,31.399,83.069z"/>
<path fill="#8A845D" d="M37.783,86.365l-1.535,0.028c0,0-1.534-0.064-1.534-0.067C35.738,86.34,36.761,86.353,37.783,86.365z"/>
<path fill="#A39C77" d="M44.01,83.252c0.016,1.05,0.032,2.103,0.047,3.152c-1.039,1.282-2.081,1.221-3.124,0.006C41.959,85.358,42.985,84.305,44.01,83.252z"/>
<path fill="#968D6D" d="M40.934,86.411c1.041-0.018,2.083-0.021,3.124-0.006l-0.017-0.019c0.725,0.699,0.966,1.395,0.723,2.091c-0.243,0.695-0.483,1.044-0.726,1.044l-0.001-0.01h-1.546l-1.544,0.007C40.936,88.48,40.931,87.446,40.934,86.411z"/>
<path fill="#D9D39B" d="M37.801,17.649c0.026-1.077,0.05-2.154,0.076-3.235c1.061-0.973,2.075-1.993,3.05-3.052L40.9,11.39c0.488-0.427,0.977-0.854,1.463-1.288c0.627,0.162,1.255,0.327,1.884,0.488c0.911,0.971,1.422,2.13,1.599,3.442c-0.087,1.315-0.526,2.515-1.256,3.607c-0.982,0.875-2.128,1.413-3.429,1.617c-0.632-0.113-1.265-0.232-1.899-0.348C38.777,18.491,38.29,18.07,37.801,17.649z"/>
<path fill="#EEE6B1" d="M22.274,23.664c2.044-0.958,4.089-1.914,6.136-2.872c-0.016,0.995-0.037,1.986-0.063,2.981c-0.802,0.964-1.817,1.541-3.076,1.672C24.01,25.293,23.025,24.677,22.274,23.664z"/>
<path fill="#D1CB94" d="M25.399,23.984c0.984-0.046,1.968-0.116,2.948-0.21c1.067,0.042,2.133,0.083,3.2,0.125c0.19,0.623,0.38,1.245,0.569,1.868C31.559,27,30.63,27.839,29.38,28.343C26.662,28.162,23.911,28.01,25.399,23.984z"/>
<path fill="#CEC791" d="M43.71,11.222c-0.934,0.101-1.869,0.159-2.809,0.168c0.006-1.038,0.015-2.079,0.026-3.116c1.042-0.003,2.084-0.003,3.126-0.006c0.757,0.754,0.957,1.443,0.603,2.066C44.321,10.926,44.007,11.222,43.71,11.222z"/>
<path fill="#CABE93" d="M40.928,11.362c-1.018,1.017-2.036,2.036-3.052,3.055C38.894,13.398,39.912,12.379,40.928,11.362z"/>
<path fill="#D7D199" d="M34.674,20.783c1.042-1.043,2.085-2.09,3.128-3.134l-0.008-0.006c0.427,0.506,0.854,1.01,1.282,1.517c-0.251,0.61-0.503,1.221-0.755,1.834c-0.623,0.223-1.245,0.446-1.868,0.668C35.859,21.369,35.265,21.076,34.674,20.783z"/>
<path fill="#D5CE97" d="M31.547,23.899c1.042-1.038,2.084-2.078,3.126-3.116l-0.02-0.031c0.801,0.678,1.143,1.419,1.022,2.228c-0.124,0.842-0.299,1.263-0.525,1.263c-1.29,0.778-2.492,0.623-3.615-0.345L31.547,23.899L31.547,23.899z"/>
<path fill="#A49D7A" d="M19.047,70.771c-1.044-1.028-2.087-2.054-3.133-3.079c0.009-1.041,0.017-2.082,0.021-3.119c-1.898-1.712-1.234-4.706-3.2-6.385l0.114,0.162c-0.404-0.543-0.809-1.086-1.216-1.627c0.138-0.659,0.279-1.321,0.415-1.983c0.671-1.193,1.58-2.16,2.753-2.871c1.275-0.507,2.583-0.583,3.916-0.238c2.434,1.395,3.825,3.601,4.776,6.152c0.302,1.275,0.308,2.566,0.098,3.86c-0.684,2.615-2.478,4.4-4.541,5.981C19.05,68.671,19.049,69.721,19.047,70.771z"/>
<path fill="#7D7950" d="M12.736,58.188c1.066,2.128,2.133,4.255,3.2,6.385C14.869,62.443,13.802,60.316,12.736,58.188z"/>
<path fill="#817D55" d="M12.641,55.314c0.061,1.013,0.13,2.023,0.209,3.033c-1.036-1.068-2.074-2.137-3.108-3.207l-0.07,0.082C10.697,54.078,11.688,54.108,12.641,55.314z"/>
<path fill="#D9D39B" d="M81.494,26.829c-2.051,1.114-4.103,2.231-6.155,3.345c-0.29-0.513-0.579-1.025-0.872-1.538c0.058-1.202,0.411-2.31,1.05-3.33c0.777-0.906,1.713-1.614,2.79-2.13c1.209-0.271,2.283,0.003,3.222,0.818C81.508,24.939,81.498,25.883,81.494,26.829z"/>
<path fill="#E7DBB0" d="M72.37,17.53c1.964-0.028,3.926-0.055,5.887-0.083c0.055,1.104,0.109,2.212,0.166,3.32c-0.543,0.445-1.086,0.894-1.628,1.343c-1.429,0.171-2.772-0.08-4.02-0.809c-0.372-0.595-0.744-1.193-1.116-1.789C71.897,18.852,72.134,18.192,72.37,17.53z"/>
<path fill="#CEC78F" d="M81.529,23.994c-1.031-0.067-2.064-0.101-3.098-0.107c-0.403-0.522-0.806-1.041-1.21-1.56c0.388-0.534,0.775-1.065,1.162-1.596l0.04,0.037C79.457,21.842,80.492,22.919,81.529,23.994z"/>
<path fill="#F7EBC0" d="M87.489,26.774l-1.268,0.012l-1.193-0.427c1.096-0.8,2.189-1.603,3.285-2.405C87.98,24.875,87.705,25.815,87.489,26.774z"/>
<path fill="#726F53" d="M81.548,61.383c0,1.044,0,2.091,0,3.135c0.479,0.524,0.957,1.05,1.44,1.574c-0.467,0.534-0.938,1.065-1.408,1.6c-1.056-0.019-2.112-0.04-3.166-0.059c0.006-1.037,0.008-2.072,0.004-3.109c-1.012-0.833-1.599-1.893-1.69-3.217c0.247-1.284,0.843-2.38,1.785-3.29c0.61-0.207,1.22-0.411,1.831-0.616c0.612,0.211,1.221,0.421,1.834,0.635C82.823,59.311,82.612,60.428,81.548,61.383z"/>
<path fill="#746D58" d="M90.934,70.804c-1.042-0.009-2.084-0.019-3.127-0.024c-1.045-0.006-2.089-0.009-3.134-0.012c-0.812-0.696-1.083-1.389-0.814-2.085c0.269-0.698,0.537-1.047,0.807-1.047C86.756,68.693,88.845,69.749,90.934,70.804z"/>
<path fill="#69664A" d="M84.665,67.636c0.003,1.044,0.005,2.088,0.008,3.132c-1.031-1.025-2.063-2.051-3.095-3.076c0.002,0-0.03-0.049-0.03-0.049c1.042-1.136,2.084-1.136,3.125,0L84.665,67.636z"/>
<path fill="#66604A" d="M87.798,73.896c-0.024,0.86-0.119,1.709-0.287,2.548c-0.291-0.622-0.652-1.221-0.813-1.871C86.666,74.445,87.41,74.127,87.798,73.896z"/>
<path fill="#DDD5A0" d="M25.399,23.984c2.025,0.977,4.051,1.953,6.076,2.93c0.265,0.525,0.529,1.047,0.795,1.572c-0.259,1.187-0.854,2.17-1.778,2.96c-1.578,0.943-3.303,1.337-5.124,1.404c-1.831-0.015-3.563-0.421-5.137-1.395c-0.357-0.479-0.713-0.961-1.067-1.446c-0.021-1.007-0.02-2.011,0.001-3.019c0.755-1.278,1.772-2.301,3.012-3.109c0,0,0.093-0.211,0.095-0.214C23.315,23.771,24.357,23.877,25.399,23.984z"/>
<path fill="#CEC792" d="M22.178,23.881c-1.005,1.038-2.009,2.075-3.014,3.109c-1.065-0.128-2.131-0.256-3.197-0.391c1.104-0.995,2.207-1.99,3.312-2.984C20.246,23.713,21.211,23.804,22.178,23.881z"/>
<path fill="#AFA786" d="M12.809,33.298c-1.036-0.021-2.072-0.042-3.108-0.064C10.737,33.256,11.773,33.277,12.809,33.298z"/>
<path fill="#8D8465" d="M15.916,33.277c1.082-1.089,2.166-2.179,3.249-3.268l-0.029,0.052c0.551,1.48,0.139,2.664-1.112,3.586C17.321,33.524,16.618,33.399,15.916,33.277z"/>
<path fill="#B8AF8F" d="M15.91,36.374c-1.048-1.041-2.097-2.081-3.146-3.122c1.051,0.009,2.101,0.016,3.152,0.024l0.037-0.042c0.343,0.528,0.687,1.056,1.03,1.584C16.625,35.337,16.267,35.856,15.91,36.374z"/>
<path fill="#AAA180" d="M12.812,42.64c1.041-1.05,2.081-2.1,3.122-3.149c0.731-1.038,1.741-1.474,2.998-1.397c1.775,0.378,3.426,1.083,5.06,1.858c0.552,0.25,1.085,0.537,1.639,0.791c0.542,0.284,1.062,0.595,1.607,0.879c2.153,1.288,4.187,2.71,5.421,4.999c0.616,1.959,0.337,3.744-1.02,5.328c-3.256,1.91-6.207,0.391-9.199-0.784c-1.735-0.803-3.284-1.95-5.023-2.762c-1.682-0.98-3.102-2.24-4.15-3.897C13.11,43.888,12.962,43.266,12.812,42.64z"/>
<path fill="#A49B7D" d="M9.643,45.704c0.026-1.022,0.049-2.042,0.072-3.061c1.033,0.003,2.066,0.003,3.098-0.003l-0.011,0.009c1.663,1.74,1.877,3.638,0.635,5.7c-1.131,1.011-2.386,1.193-3.761,0.55C9.664,47.833,9.654,46.769,9.643,45.704z"/>
<path fill="#99946D" d="M19.042,39.49l-1.555,0.012l-1.553-0.009c-0.006-1.041-0.014-2.082-0.024-3.119l-0.024-0.021C18.864,35.462,19.575,36.851,19.042,39.49z"/>
<path fill="#9F9974" d="M31.379,74.042c-2.016-0.037-4.031-0.073-6.049-0.11c0.001,0-0.091-0.109-0.091-0.109c-1.006-1.032-2.026-2.048-3.061-3.049c-0.003-1.047-0.006-2.094-0.009-3.141c0.112-0.54,0.225-1.08,0.33-1.623c0.549-0.982,1.279-1.813,2.147-2.53c0.496-0.259,1-0.503,1.499-0.766c1.077-0.357,2.185-0.55,3.32-0.599c1.141,0.034,2.249,0.244,3.325,0.626c1.015,0.531,1.85,1.272,2.487,2.225c0.122,0.546,0.24,1.099,0.363,1.642c-0.183,0.522-0.373,1.05-0.551,1.575c-0.85,0.744-1.848,1.099-2.976,1.062c-2.077,0.314,0.04,0.892,0.05,0.903c1.374,1.565-0.693-0.549,0.656,1.044c0.197,1.178-0.22,2.069-1.245,2.68L31.379,74.042z"/>
<path fill="#AFA686" d="M19.05,67.624c1.042-2.084,2.083-4.166,3.125-6.25c1.041,0.751,1.54,1.764,1.497,3.049c-0.18,1.224-0.685,2.295-1.512,3.217l0.009-0.007H20.61L19.05,67.624z"/>
<path fill="#A7A17A" d="M22.178,70.774c1.021,1.016,2.042,2.032,3.061,3.049C24.218,72.806,23.197,71.79,22.178,70.774z"/>
<path fill="#686449" d="M50.574,83.212c-0.203-1.067-0.406-2.139-0.612-3.207c-0.003,0,0.454,0.198,0.454,0.198c1.119-1.007,2.329-1.132,3.634-0.372c0.777,1.333,0.606,2.487-0.648,3.433C52.459,83.252,51.516,83.234,50.574,83.212z"/>
<path fill="#746D58" d="M53.402,83.264c0.018-1.04,0.021-2.081,0.014-3.118c0.522-0.26,1.043-0.52,1.564-0.781c0.521,0.256,1.045,0.516,1.567,0.774c-0.002,1.041-0.003,2.079-0.007,3.119C55.494,83.258,54.447,83.261,53.402,83.264z"/>
<path fill="#A59D7E" d="M47.173,89.518c1.042,0,2.083,0,3.125,0c0.002,1.04,0.002,2.084-0.003,3.125c-1.044,0-2.083,0-3.122,0C47.173,91.602,47.173,90.558,47.173,89.518z"/>
<path fill="#807E62" d="M84.673,67.643c-1.042,0-2.083,0-3.125,0c0-1.041,0-2.085,0-3.125c1.042,0,2.083,0,3.125,0C84.673,65.558,84.673,66.602,84.673,67.643z"/>
<path fill="#D6CF98" d="M53.385,8.222c2.089,0,4.178,0.003,6.267,0.003c0.008,1.059,0.016,2.118,0.024,3.177c-0.355,0.387-0.709,0.778-1.063,1.168c-0.996,0.4-2.026,0.525-3.091,0.385c-1.019-0.351-1.847-0.971-2.512-1.813c-0.127-0.509-0.25-1.022-0.376-1.532C52.883,9.147,53.133,8.686,53.385,8.222z"/>
<path fill="#DAD49C" d="M59.676,11.402c2.083,1.043,4.166,2.09,6.249,3.134c-0.564,0.406-1.128,0.815-1.692,1.221c-1.407,0.223-2.743,0.021-3.999-0.665c-0.734-0.729-1.063-1.52-0.981-2.375c0.082-0.882,0.225-1.324,0.426-1.324L59.676,11.402z"/>
<path fill="#E1DBA4" d="M69.138,14.423c1.03,0.061,2.062,0.11,3.094,0.149c-0.037,0.989,0.009,1.978,0.137,2.958c0.002,0-0.391,0.201-0.391,0.201c-1.721,1.779-3.605,1.553-5.562,0.458c-0.718-0.736-1.027-1.526-0.93-2.368c0.101-0.87,0.252-1.303,0.453-1.303l-0.015,0.018C66.996,14.499,68.067,14.46,69.138,14.423z"/>
<path fill="#747054" d="M59.662,77.005c0.01,1.044,0.021,2.088,0.03,3.131c-1.048,0-2.098,0.003-3.146,0.003v0.004c-0.789-0.721-1.117-1.499-0.983-2.332c0.138-0.857,0.319-1.288,0.547-1.294c1.338-0.83,2.531-0.656,3.579,0.513L59.662,77.005z"/>
<path fill="#F8EDC1" d="M53.353,5.213c0.052,1.004,0.063,2.005,0.032,3.009l0.034,0.04c-2.061,1.904-4.117,1.603-6.169-0.012c-0.028-1.025-0.026-2.051,0.004-3.076C49.288,5.186,51.321,5.198,53.353,5.213z"/>
<path fill="#E0D8A5" d="M47.25,8.249c2.055,0.006,4.112,0.009,6.169,0.012c0.001,1.041,0.01,2.082,0.025,3.122c0,0-0.931,1.211-0.928,1.218c-0.865,0.601-1.826,0.934-2.875,1.022c0.003,0.018-1.536,0.067-1.536,0.067s-1.512-0.29-1.512-0.281c-0.979-0.381-1.766-1.016-2.359-1.889c0,0-0.519-0.296-0.522-0.296c0.189-0.977,0.304-1.962,0.34-2.957C45.118,8.262,46.183,8.256,47.25,8.249z"/>
<path fill="#AAA181" d="M44.038,89.521c0.001-1.044,0.003-2.091,0.003-3.135c1.054,1.05,2.109,2.1,3.163,3.149C46.15,89.53,45.093,89.527,44.038,89.521z"/>
<path fill="#9E9971" d="M9.675,48.899c1.05-0.003,2.1-0.009,3.149-0.016c0.371,0.425,0.742,0.846,1.114,1.267c-0.024,0.564-0.049,1.126-0.075,1.69c-0.412,0.385-0.826,0.77-1.239,1.157c-1.188,0.269-2.175-0.079-2.989-0.965c0,0,0.007,0.031,0.006,0.031C9.652,51.01,9.664,49.955,9.675,48.899z"/>
<path fill="#A49B7D" d="M9.635,52.033c1.05-0.009,2.1-0.018,3.148-0.027c0.952,0.638,1.283,1.297,0.998,1.975c-0.288,0.692-0.586,1.038-0.893,1.038c0,0-0.244,0.293-0.246,0.296c-0.001,0-1.485-0.104-1.485-0.104s-1.486,0.01-1.486,0.013C9.66,54.157,9.648,53.095,9.635,52.033z"/>
<path fill="#69664A" d="M65.922,67.643l-1.56-0.003h-1.56c-0.431-0.477-0.862-0.952-1.296-1.432c-0.402-1.258-0.421-2.523-0.117-3.806c0.648-1.199,1.646-1.913,2.99-2.146c1.345,0.238,2.346,0.958,3.011,2.148C67.942,64.442,67.578,66.224,65.922,67.643z"/>
<path fill="#756F58" d="M65.922,67.643c-0.004-2.082-0.005-4.166-0.008-6.247c1.097-0.629,2.2-0.641,3.313-0.037c0.859,0.889,1.318,1.938,1.324,3.181c-0.09,1.232-0.594,2.267-1.506,3.104l-1.563-0.003L65.922,67.643z"/>
<path fill="#6A674B" d="M69.045,67.643c0.003-1.038,0.006-2.075,0.011-3.116c1.045-0.974,2.095-0.928,3.146-0.006c-0.016,1.037-0.034,2.075-0.054,3.112C71.114,67.64,70.079,67.643,69.045,67.643z"/>
<path fill="#6D6A4E" d="M62.8,70.758c-1.044,0-2.088,0.003-3.131,0.006c-0.716-2.795,0.293-3.866,3.118-3.124h0.016C62.798,68.68,62.798,69.718,62.8,70.758z"/>
<path fill="#716D54" d="M72.202,64.521c-1.05,0-2.099,0.003-3.146,0.006c-0.003-1.044-0.006-2.087-0.009-3.131c0.401-0.455,0.802-0.913,1.2-1.373c1.665-0.907,3.434-1.139,5.289-0.806c1.155,0.433,2.101,1.156,2.865,2.124c0.006,1.062,0.013,2.124,0.017,3.183C76.347,64.524,74.275,64.521,72.202,64.521z"/>
<path fill="#7A7559" d="M62.787,67.64c-1.039,1.04-2.079,2.081-3.118,3.124c-1.046,0.004-2.09,0.007-3.133,0.013c-0.434-0.473-0.867-0.946-1.302-1.419c-0.672-1.944-0.455-3.769,0.744-5.463c1.074-0.751,2.27-1.162,3.58-1.239c1.296,0.248,2.366,0.883,3.212,1.901C62.773,65.585,62.779,66.611,62.787,67.64z"/>
<path fill="#59553A" d="M56.536,70.777c-0.005,1.05-0.01,2.103-0.014,3.152c-0.501,0.247-1.003,0.491-1.505,0.735c-1.079-0.473-1.741-1.3-2.043-2.429c0.729-1.572,1.486-3.076,3.505-1.389L56.536,70.777z"/>
<path fill="#555236" d="M59.69,77.03c-1.037-0.024-2.075-0.058-3.112-0.101c-0.724-0.687-0.96-1.367-0.714-2.048c0.245-0.678,0.489-1.017,0.733-1.017l-0.074,0.064C57.578,74.963,58.634,75.999,59.69,77.03z"/>
<path fill="#6B684C" d="M72.148,33.811c0.012,0.867,0.021,1.733,0.027,2.597c1.053,0.931,1.427,2.1,1.219,3.476c-0.508,1.233-1.204,2.356-2.056,3.381c-0.468,0.47-0.956,0.918-1.428,1.388c-1.045,0.827-2.202,1.471-3.442,1.959c-1.303,0.327-2.599,0.269-3.876-0.152c-0.953-0.925-1.642-2.02-2.03-3.292c-0.225-1.291-0.211-2.585,0.01-3.876c0.558-1.904,1.648-3.452,3.216-4.666c1.566-1.086,3.285-1.84,5.165-2.209C70.258,32.316,71.324,32.786,72.148,33.811z"/>
<path fill="#69664A" d="M75.277,39.515c2.091,2.091,4.183,4.181,6.273,6.271c-0.143,0.592-0.284,1.181-0.42,1.779c-0.705,1.022-1.604,1.825-2.716,2.39c-1.218,0.25-2.434,0.241-3.648-0.036c-2.381-0.76-4.498-1.932-6.052-3.961c-0.563-1.169-0.45-2.276,0.334-3.314l0.008-0.006c1.313-1.227,3.131-1.523,4.584-2.493C74.184,39.93,74.731,39.722,75.277,39.515z"/>
<path fill="#E5D9AE" d="M72.148,33.811c-0.962-0.363-1.953-0.506-2.976-0.433c-0.275-0.525-0.548-1.047-0.822-1.572c0.282-1.193,0.926-2.143,1.929-2.851c1.797-0.628,3.456-0.653,4.702,1.09l0.358,0.128C74.275,31.385,73.211,32.6,72.148,33.811z"/>
<path fill="#615E42" d="M72.178,39.515c-0.005-1.034-0.005-2.072-0.003-3.106c1.034,1.038,2.067,2.072,3.102,3.106l0.026-0.015C74.267,40.607,73.225,40.668,72.178,39.515z"/>
<path fill="#636044" d="M84.678,45.765c-0.016,1.029-0.034,2.057-0.06,3.085c-0.575,0.312-1.15,0.622-1.728,0.934c-0.626-0.198-1.25-0.396-1.877-0.595c-0.223-0.62-0.443-1.239-0.668-1.858c0.404-0.52,0.812-1.035,1.221-1.554c0,0-0.017,0.006-0.017,0.009C82.592,45.777,83.636,45.771,84.678,45.765z"/>
<path fill="#706A53" d="M84.618,48.85c1.061,0.012,2.119,0.027,3.18,0.043c0.003,2.087,0.008,4.175,0.011,6.262c-0.003,1.038-0.003,2.075,0.002,3.11c-1.047,0.003-2.096,0.003-3.144,0.003c-1.011,1.086-2.036,1.159-3.084,0.055l-0.041-0.064c-1.007-0.619-1.491-1.504-1.377-2.697c0.381-1.636,1.123-3.101,2.153-4.419c0.784-0.751,1.572-1.508,2.356-2.268L84.618,48.85z"/>
<path fill="#787559" d="M81.583,58.323c1.028-0.033,2.056-0.052,3.084-0.055c-1.039,1.04-2.08,2.078-3.119,3.115C81.553,60.365,81.565,59.342,81.583,58.323z"/>
<path fill="#A19B75" d="M44.015,67.576c-0.003,1.08-0.008,2.16-0.012,3.237c-1.036,1.014-2.062,2.039-3.078,3.073c-1.048-0.012-2.098-0.027-3.148-0.042c-1.679-1.728-5.179-2.533-3.128-6.159l0.114-0.183c1.257-1.438,0.822-3.092,0.586-4.73c0.052-1.178,0.316-2.295,0.768-3.388c0.357-0.479,0.72-0.942,1.086-1.422c0.569-0.207,1.134-0.402,1.708-0.601c1.233,0.229,2.279,0.781,3.132,1.705c0.64,1.078,1.01,2.237,1.131,3.479C42.724,64.344,42.344,66.129,44.015,67.576z"/>
<path fill="#B0AB81" d="M34.649,67.685c1.042,2.055,2.085,4.108,3.129,6.162c-1.033,0.018-2.066,0.049-3.098,0.088c-1.036-0.018-2.072-0.039-3.106-0.063c-0.04-1.008-0.058-2.012-0.055-3.019c-0.705-0.714-0.937-1.425-0.696-2.133c0.24-0.705,0.478-1.06,0.716-1.06C32.575,67.64,33.612,67.649,34.649,67.685z"/>
<path fill="#706B54" d="M56.597,73.865c-0.027,1.022-0.035,2.045-0.02,3.064c-0.011,1.071-0.02,2.143-0.03,3.214c-1.044,0-2.088,0-3.132,0.003c-1.001,0-2.002,0.018-3.001,0.058c-0.182-1.156-0.364-2.313-0.548-3.47c0,0,0.485-1.114,0.477-1.12c0.491-0.675,1.118-1.184,1.87-1.544c-0.005-0.01,1.21-0.177,1.21-0.177C54.481,73.883,55.539,73.874,56.597,73.865z"/>
<path fill="#AAA181" d="M44.015,67.576c-1.028-2.054-2.057-4.11-3.087-6.168c1.068-1.028,2.245-1.123,3.517-0.408c0.761,1.272,0.584,2.441-0.395,3.519C44.033,65.537,44.022,66.556,44.015,67.576z"/>
<path fill="#A39E75" d="M44.05,64.518c-0.001-1.038-0.011-2.072-0.026-3.11c1.08-0.774,2.225-0.882,3.432-0.32c0.197,0.592,0.392,1.188,0.588,1.779c-0.293,0.553-0.587,1.102-0.881,1.654C46.125,64.518,45.088,64.518,44.05,64.518z"/>
<path fill="#A19B75" d="M47.192,67.67c-0.009-1.05-0.019-2.1-0.029-3.149l0.014-0.006c0.674-0.327,1.35-0.65,2.026-0.98c0.586,0.471,1.171,0.943,1.758,1.413c0.007,0.751,0.011,1.502,0.018,2.256c-0.58,0.476-1.163,0.952-1.744,1.428C48.553,68.311,47.872,67.991,47.192,67.67z"/>
<path fill="#AAA181" d="M47.192,67.67c0.863-0.024,1.728-0.059,2.59-0.101c1.211,0.931,1.606,2.103,1.064,3.562c-1.319,0.809-2.533,0.711-3.621-0.434C47.202,69.691,47.192,68.68,47.192,67.67z"/>
<path fill="#A59D7D" d="M40.925,73.886c1.027-1.025,2.052-2.048,3.078-3.073C42.977,71.838,41.95,72.861,40.925,73.886z"/>
<path fill="#A19B75" d="M47.225,70.698c0.937,0.033,1.873,0.036,2.809,0.012c0.743,0.613,1.063,1.294,0.958,2.039c-0.108,0.774-0.267,1.162-0.475,1.165c-1.077,0.895-2.17,0.916-3.279,0.062C47.235,72.882,47.23,71.79,47.225,70.698z"/>
<path fill="#ADA780" d="M47.239,73.975c0.88-0.016,1.759,0.016,2.636,0.085c0.6,0.37,1.2,0.742,1.806,1.111c-0.347,0.613-0.696,1.229-1.047,1.843c0,0-0.763-0.277-0.765-0.277C48.99,75.815,48.114,74.894,47.239,73.975z"/>
<path fill="#E1DAA2" d="M44.022,17.661c0.046-1.126,0.092-2.252,0.139-3.378c0.993-0.897,2.158-1.294,3.493-1.188c1.311,0.253,2.345,0.919,3.059,2.06c0.043,1.346-0.407,2.481-1.428,3.378c-1.215,0.531-2.469,0.625-3.76,0.348C45.025,18.476,44.523,18.067,44.022,17.661z"/>
<path fill="#FEFEF0" d="M46.987,14.475c-0.947,0.009-1.891-0.052-2.827-0.189c-0.075-0.928-0.05-1.85,0.073-2.768c0.938-0.131,1.878-0.165,2.823-0.098c1.142,0.702,1.511,1.389,1.11,2.06C47.775,14.143,47.384,14.475,46.987,14.475z"/>
<path fill="#DCD1A5" d="M37.792,20.759c0.003-1.038,0.004-2.075,0.001-3.116c1.042,0,2.086,0,3.128,0c0.609,0.656,0.82,1.318,0.63,1.987c-0.189,0.674-0.383,1.01-0.578,1.01C39.938,21.317,38.877,21.387,37.792,20.759z"/>
<path fill="#D2CB94" d="M40.943,20.756c-0.011-1.038-0.018-2.075-0.021-3.113c1.035,0,2.068,0.006,3.101,0.018l0.028-0.018c0.61,0.653,0.822,1.309,0.636,1.978c-0.188,0.671-0.38,1.007-0.575,1.007c-0.518,0.256-1.036,0.516-1.555,0.772C42.019,21.186,41.482,20.972,40.943,20.756z"/>
<path fill="#DAD29E" d="M37.792,20.759c1.05,0,2.1,0,3.151-0.003l-0.017,0.018c1.37,1.013,3.106,1.376,4.425,2.49c1.27,1.23,2.147,2.68,2.53,4.416c-0.011,1.184-0.413,2.222-1.193,3.113c-1.483,1.013-3.124,1.248-4.866,0.967c-1.625-0.342-3.204-0.87-4.791-1.364c-1.068-0.259-2.095-0.644-3.099-1.089c-0.914-0.61-1.697-1.364-2.353-2.249c0,0-0.102-0.141-0.102-0.144c0.035-1.004,0.056-2.011,0.06-3.015c1.038-0.009,2.077-0.009,3.114,0c0.832-1.248,2.057-2.103,3.128-3.113L37.792,20.759z"/>
<path fill="#ECE0B5" d="M37.779,20.786c-1.042,1.038-2.086,2.075-3.128,3.113c0-1.05,0.001-2.097,0.003-3.146C35.694,20.765,36.737,20.777,37.779,20.786z"/>
<path fill="#A8A07E" d="M22.212,64.557c-0.012-1.059-0.024-2.121-0.037-3.18c-0.006-1.047-0.011-2.094-0.017-3.137c-0.708-0.604-1.062-1.294-1.059-2.069c0.003-0.818,0.095-1.227,0.27-1.227c1.035-0.778,2.199-1.127,3.493-1.05c1.884,0.564,3.256,1.775,4.272,3.424c0.433,1.172,0.49,2.377,0.186,3.592c-0.97,1.603-2.666,2.414-4.015,3.607l-0.009-0.003C24.282,65.476,23.254,65.541,22.212,64.557z"/>
<path fill="#9D9870" d="M22.202,55.17c-0.012,1.025-0.027,2.048-0.044,3.07c-1.041-2.085-2.082-4.166-3.121-6.25c0.716-0.199,1.433-0.395,2.148-0.593c0.917,0.653,1.373,1.429,1.369,2.329C22.55,54.691,22.433,55.17,22.202,55.17z"/>
<path fill="#AFA686" d="M12.888,55.018c-0.056-1.005-0.091-2.009-0.105-3.013l0.015,0.013c0.522-0.4,1.043-0.8,1.565-1.203c0.531,0.388,1.063,0.775,1.595,1.163C14.936,52.992,13.912,54.004,12.888,55.018z"/>
<path fill="#8D8760" d="M19.038,51.991l-1.54,0.018l-1.54-0.03l-0.035,0.04c-0.807-0.642-1.165-1.361-1.07-2.158c0.098-0.836,0.256-1.254,0.475-1.251c1.23-0.699,2.461-0.695,3.691,0.006c0.704,0.748,0.937,1.499,0.699,2.246c-0.238,0.748-0.475,1.12-0.711,1.12L19.038,51.991z"/>
<path fill="#DCD69F" d="M74.981,30.045c-1.982,0.033-3.963,0.064-5.944,0.098c-0.307-0.556-0.615-1.114-0.922-1.672c0.177-1.337,0.866-2.311,2.069-2.924c1.268-0.287,2.521-0.247,3.76,0.168c0.467,0.437,0.932,0.876,1.398,1.315C75.273,28.04,75.154,29.047,74.981,30.045z"/>
<path fill="#DED8A0" d="M78.431,23.887c-1.03,1.047-2.06,2.097-3.09,3.144c0.001,0-0.035-0.021-0.035-0.021c-0.789-0.717-1.131-1.501-1.027-2.35c0.108-0.879,0.271-1.321,0.493-1.324C76.134,22.578,77.362,22.718,78.431,23.887L78.431,23.887z"/>
<path fill="#D8D19A" d="M65.964,17.637c2.005,0.031,4.012,0.061,6.016,0.095c0.119,1.013,0.178,2.029,0.178,3.049c-0.351,0.387-0.703,0.775-1.054,1.168c-0.993,0.397-2.021,0.519-3.081,0.378c-1.006-0.363-1.846-0.958-2.498-1.81c-0.122-0.506-0.241-1.019-0.361-1.529C65.429,18.54,65.696,18.088,65.964,17.637z"/>
<path fill="#D9D39B" d="M78.431,23.887c-1.041,0.003-2.081,0.006-3.122,0.006c-1.036,1.233-2.248,1.379-3.608,0.58c-0.762-1.349-0.651-2.591,0.473-3.705c0,0-0.014,0.012-0.016,0.012c2.075-0.015,4.15-0.034,6.226-0.049C78.399,21.784,78.415,22.834,78.431,23.887z"/>
<path fill="#615E42" d="M81.559,55.14c-0.003,1.037-0.009,2.078-0.017,3.118c-1.056,0.021-2.112,0.046-3.168,0.07c-0.114-0.687-0.228-1.373-0.343-2.063C78.941,55.06,80.103,54.642,81.559,55.14z"/>
<path fill="#80806A" d="M78.402,61.341c-1.02,0.015-2.038,0-3.058-0.046c-0.423-0.516-0.846-1.032-1.271-1.548c0.268-0.61,0.536-1.224,0.802-1.837c1.265-0.732,2.435-0.602,3.511,0.388c0,0-0.009,0.027-0.011,0.027C78.401,59.333,78.409,60.336,78.402,61.341z"/>
<path fill="#9F9A71" d="M19.042,39.49c-1.053-1.046-2.104-2.09-3.157-3.137c0.023-1.041,0.045-2.078,0.067-3.116c1.061-1.059,2.121-2.118,3.182-3.177c2.013,0.037,4.025,0.076,6.038,0.113c1.758,1.993,4.854,1.074,6.632,3.046c0.284,0.577,0.558,1.147,0.844,1.727c0.023,0.644,0.037,1.285,0.065,1.932c-0.255,1.285-0.685,2.502-1.277,3.671c-0.677,1.135-1.552,2.087-2.632,2.854c-1.321,0.445-2.502,0.229-3.519-0.754l0.014,0.009c-0.997-1.16-2.023-1.132-3.078-0.08C21.162,41.547,20.101,40.519,19.042,39.49z"/>
<path fill="#ECE0B5" d="M31.655,33.164c-2.161-0.998-4.321-1.993-6.483-2.991c2.135-0.021,4.271-0.046,6.407-0.07c0,0,0.893,0.876,0.894,0.876l0.016,1.251C32.49,32.23,31.655,33.164,31.655,33.164z"/>
<path fill="#F3E7BC" d="M31.579,27.058c1.074-0.012,2.147-0.021,3.221-0.034c0.729,1.089,0.685,2.146-0.131,3.174c-1.054,0.781-2.098,0.803-3.124-0.058l0.034-0.033C31.562,29.09,31.562,28.074,31.579,27.058z"/>
<path fill="#A19B74" d="M19.007,51.981c-0.029-1.016-0.071-2.032-0.131-3.049c0.544-0.451,1.091-0.903,1.637-1.36c0.555,0.439,1.111,0.882,1.666,1.327c3.131,1.037,6.262,2.075,9.395,3.116c0.564-0.007,1.129-0.01,1.698-0.021c1.132,0.188,2.212,0.534,3.249,1.037c1.007,0.592,1.8,1.397,2.398,2.398c0.304,1.206-0.037,2.164-1.114,2.829l-0.023,0.024c-0.714,0.794-1.48,1.532-2.298,2.222c-0.862,0.65-1.8,1.166-2.8,1.575c-0.516,0.165-1.032,0.32-1.547,0.482c-0.542,0.021-1.082,0.036-1.624,0.055c-0.368-0.396-0.734-0.797-1.1-1.196c-0.019-1.084-0.037-2.167-0.057-3.25c-0.987-0.977-1.971-1.963-2.949-2.948c-1.07-0.019-2.138-0.033-3.208-0.052C21.137,54.108,20.072,53.046,19.007,51.981z"/>
<path fill="#9A956D" d="M37.799,55.146c-1.052-0.003-2.103-0.006-3.154-0.013c-0.87-1.199-2.032-2.111-3.099-3.122c0,0,0.028,0.004,0.029,0.004c-0.003-2.088-0.006-4.175-0.011-6.263c0.498-0.335,0.995-0.671,1.495-1.01c1.244-0.058,2.37,0.287,3.406,0.97c1.421,1.227,2.416,2.728,2.965,4.529C39.71,52.146,39.37,53.852,37.799,55.146z"/>
<path fill="#968D6E" d="M18.876,48.932c-0.984-0.018-1.969-0.03-2.953-0.039c-1.042,1.294-2.083,1.229-3.125,0l0.024-0.007c-0.006-2.081-0.014-4.159-0.021-6.237c2.045,1.047,4.089,2.09,6.134,3.137c0.769,0.653,1.046,1.328,0.836,2.03c-0.213,0.711-0.441,1.067-0.684,1.067L18.876,48.932z"/>
<path fill="#9A956D" d="M25.285,42.649c1.05-0.006,2.1-0.012,3.147-0.015c2.876-0.775,3.89,0.296,3.111,3.14l0.02-0.021C29.472,44.718,27.378,43.684,25.285,42.649z"/>
<path fill="#9A956D" d="M22.221,42.579c1.025,0.024,2.051,0.052,3.076,0.08C24.272,42.646,23.246,42.619,22.221,42.579z"/>
<path fill="#ACA780" d="M19.088,48.883c-0.047-1.031-0.098-2.065-0.151-3.097c1.08,1.038,2.161,2.075,3.242,3.113h-1.545L19.088,48.883z"/>
<path fill="#9B966E" d="M25.306,64.518c1.036-1.032,2.072-2.066,3.108-3.098l-0.004-0.021c1.069,0.702,1.422,1.397,1.059,2.087c-0.36,0.688-0.72,1.029-1.083,1.029h-1.54L25.306,64.518z"/>
<path fill="#A7A17C" d="M28.385,64.515c0.012-1.038,0.02-2.075,0.026-3.116c1.057,0.006,2.115,0.016,3.174,0.021c0.674,0.702,0.89,1.397,0.648,2.084c-0.238,0.684-0.473,1.022-0.705,1.022C30.482,64.524,29.433,64.521,28.385,64.515z"/>
<path fill="#BCBB9B" d="M31.529,64.527c-0.034-1.037-0.017-2.072,0.055-3.106c0.001,0-0.037-0.138-0.037-0.138c0.566-0.375,1.13-0.747,1.693-1.126c0.618,0.274,1.236,0.556,1.853,0.833c0.259,0.626,0.517,1.251,0.777,1.877c-0.408,0.54-0.815,1.08-1.224,1.62C33.607,64.518,32.568,64.53,31.529,64.527z"/>
<path fill="#9E9A71" d="M22.212,64.557c1.028-0.021,2.057-0.036,3.085-0.042c-1.045,1.04-2.092,2.084-3.137,3.125C22.169,66.611,22.187,65.585,22.212,64.557z"/>
<path fill="#8E8961" d="M37.799,64.518c-1.013,0.998-2.025,1.992-3.037,2.987c-0.047-1.007-0.087-2.014-0.116-3.019l0.026,0.031C35.716,63.092,36.758,63.026,37.799,64.518z"/>
<path fill="#B2AA89" d="M31.539,67.661c-0.006,1.063-0.014,2.128-0.02,3.189c-0.546-0.521-1.092-1.047-1.669-1.599C30.444,68.693,30.991,68.177,31.539,67.661z"/>
<path fill="#DDD7A0" d="M50.276,17.646c0-1.053,0.001-2.105,0.001-3.159c0,0,0.572-1.422,0.569-1.422c1.011-0.293,1.857-0.842,2.533-1.654l0.065-0.027c1.034,0.003,2.069,0.006,3.104,0.009c1.074,0.974,1.614,2.188,1.621,3.638c-0.336,1.396-1.081,2.533-2.17,3.452c-1.307,0.567-2.661,0.711-4.06,0.433C51.386,18.495,50.831,18.07,50.276,17.646z"/>
<path fill="#D0C992" d="M56.55,14.512c0-1.041,0-2.078-0.002-3.119c1.044,0,2.086,0,3.13,0c-0.003,1.043-0.006,2.087-0.009,3.131c-0.522,0.339-1.044,0.678-1.564,1.02C57.586,15.202,57.067,14.857,56.55,14.512z"/>
<path fill="#D0CA92" d="M65.94,14.518c-0.014,1.038-0.006,2.078,0.023,3.119c0.001,0-0.098,0.009-0.098,0.009c-0.756,1.05-1.792,1.599-3.07,1.721c-1.251-0.177-2.336-0.714-3.277-1.547c-0.732-1.135-0.641-2.237,0.157-3.302l-0.006,0.006C61.759,14.521,63.85,14.521,65.94,14.518z"/>
<path fill="#D2CB94" d="M46.987,14.475c0.119-1.016,0.142-2.035,0.069-3.055c1.096-0.009,2.191-0.018,3.288-0.027c0.691,0.705,0.914,1.404,0.667,2.097c-0.246,0.687-0.487,1.028-0.724,1.028l-0.011-0.031C49.18,14.481,48.084,14.478,46.987,14.475z"/>
<path fill="#E7DBB0" d="M50.287,14.518c0.019-1.041,0.037-2.084,0.056-3.125c1.013,0.006,2.026,0.012,3.037,0.018C52.349,12.449,51.318,13.483,50.287,14.518z"/>
<path fill="#AAA180" d="M12.799,48.893c1.042,0,2.083,0,3.125,0c0,1.04,0,2.084,0,3.125h-1.563h-1.563C12.799,50.977,12.799,49.933,12.799,48.893z"/>
<path fill="#726D55" d="M69.048,45.771c2.085,1.047,4.167,2.09,6.25,3.137c0.138,0.629,0.274,1.261,0.418,1.89c0.832,2.548,0.954,5.054-0.412,7.479l0.038,0.11c-1.66,1.916-4.697,0.945-6.291,3.003l-0.004,0.006c-1.044,0-2.088,0-3.133,0c-1.038-0.006-2.077-0.006-3.116-0.006c-1.083-0.818-1.87-1.862-2.376-3.122c-0.366-1.288-0.508-2.606-0.492-3.946c0.308-2.707,1.094-5.154,3.692-6.573c1.216-0.406,2.412-0.882,3.578-1.435C67.814,46.131,68.432,45.951,69.048,45.771z"/>
<path fill="#6E6A4E" d="M62.786,58.222c0.004,1.056,0.009,2.111,0.012,3.168c-0.009,1.056-0.019,2.111-0.027,3.167c-1.031-0.018-2.063-0.03-3.093-0.036c-1.851-1.697-1.717-3.613-0.621-5.637C60.148,57.819,61.399,57.639,62.786,58.222z"/>
<path fill="#7F7B5F" d="M69.051,61.39c2.097-1.001,4.193-2.002,6.29-3.003c-0.023,0.97-0.021,1.94,0.001,2.908C73.246,61.326,71.15,61.359,69.051,61.39z"/>
<path fill="#6C684C" d="M49.875,74.06c0.054-1.116,0.108-2.233,0.16-3.351c-0.083-1.047-0.166-2.093-0.251-3.137c-0.003-0.003,1.022,0.024,1.022,0.024c0.728-1.129,0.606-2.158-0.363-3.086l-0.151,0.013c-0.971-0.928-1.521-2.063-1.657-3.402c-0.79-1.963-0.54-3.87,0.263-5.762c1.013-1.804,2.446-3.159,4.326-4.038c0.659-0.119,1.322-0.229,1.984-0.345c1.356,0.317,2.402,1.059,3.094,2.283c0.76,1.949,0.562,3.909,0.028,5.868c-0.358,1.877,0.024,4.004-1.779,5.407c-0.022,2.104-0.047,4.209-0.071,6.312c-1.02,1.016-2.039,2.032-3.057,3.046h0.023c-0.946,1.01-1.845,0.921-2.706-0.113L49.875,74.06z"/>
<path fill="#67624A" d="M56.551,64.536c0-2.084-0.001-4.165-0.003-6.25c0.519-0.391,1.038-0.777,1.555-1.172c0.522,0.385,1.044,0.772,1.566,1.16c0.003,2.081,0.006,4.166,0.009,6.247C58.636,64.527,57.594,64.53,56.551,64.536z"/>
<path fill="#D2CB94" d="M66.027,35.993c-1.17,0.943-2.342,1.886-3.512,2.826c-0.265,1.279-1.021,1.896-2.344,1.758c-1.22,0.65-0.815-3.088-2.593-0.94c-0.496,0.33-0.985,0.644-1.488,0.964c-1.234,0.168-2.369-0.076-3.428-0.729c-0.777-0.986-1.305-2.082-1.613-3.296c-0.198-1.251-0.171-2.497,0.014-3.748c0.195-0.604,0.407-1.2,0.607-1.804c0.657-1.129,1.599-1.941,2.772-2.505c1.907-0.528,3.795-0.394,5.672,0.177c1.842,0.598,3.562,1.447,5.149,2.563c0.447,0.458,0.882,0.931,1.32,1.398c0.21,0.604,0.418,1.214,0.627,1.819C66.819,34.983,66.422,35.486,66.027,35.993z"/>
<path fill="#6D6A4E" d="M65.942,48.862c-1.05,2.106-2.102,4.209-3.151,6.312c-0.817,0.974-1.843,1.242-3.047,0.903c-1.509-1.004-2.029-2.792-3.203-4.065l0.01,0.01c-0.857-0.955-1.095-2.045-0.716-3.271c0.806-1.7,2.057-2.957,3.744-3.781c1.226-0.363,2.309-0.125,3.22,0.8c1.042,0,2.083-0.003,3.125,0c0.404,0.513,0.808,1.025,1.216,1.541C66.744,47.828,66.343,48.343,65.942,48.862z"/>
<path fill="#6F6B4F" d="M59.469,38.77c1.012,0.208,2.027,0.226,3.046,0.052c0.093,1.275,0.185,2.551,0.277,3.83c-0.917,1.013-2.045,1.605-3.416,1.712c-1.363-0.061-2.547-0.553-3.553-1.474c-0.589-1.346-0.274-2.436,0.943-3.266l-0.091,0.187C57.36,38.804,58.291,38.456,59.469,38.77z"/>
<path fill="#716D53" d="M72.178,39.515c1.04-0.006,2.083-0.012,3.125-0.015c-2.083,1.044-4.166,2.09-6.247,3.137C70.097,41.596,71.137,40.556,72.178,39.515z"/>
<path fill="#756F59" d="M59.675,42.643c1.039,0,2.078,0.003,3.117,0.006c0.006,1.041,0.008,2.082,0.006,3.119c-1.047,0-2.095,0.003-3.142,0.003c-0.38-0.525-0.762-1.047-1.145-1.572C58.897,43.681,59.285,43.162,59.675,42.643z"/>
<path fill="#6D6A4E" d="M69.048,42.643c0,1.043,0,2.087,0,3.128l0.003-0.003c-1.04,0.967-2.083,1.016-3.125,0.003l-0.003-0.003C66.965,44.727,68.006,43.684,69.048,42.643z"/>
<path fill="#E9E2AB" d="M66.027,35.993c-0.079-0.894-0.101-1.785-0.061-2.683c0.975-1.068,1.978-1.092,3.008-0.076c0,0,0.195,0.14,0.196,0.144C68.123,34.25,67.075,35.12,66.027,35.993z"/>
<path fill="#7A765B" d="M75.298,48.908c1.042-0.009,2.083-0.021,3.125-0.036c1.036-1.065,2.094-1.145,3.18-0.073l-0.066,0.171c1.332,1.452,1.224,2.789-0.319,4.01c-3.223,0.452-6.874,1.52-5.899-4.089L75.298,48.908z"/>
<path fill="#6C684E" d="M81.603,48.798c-1.061,0.024-2.121,0.049-3.18,0.073c1.047-1.031,2.095-2.063,3.142-3.095C81.561,46.784,81.572,47.791,81.603,48.798z"/>
<path fill="#D1CB93" d="M68.974,33.234c-1.005,0.018-2.007,0.042-3.01,0.076c0.002,0-0.161-0.165-0.161-0.165c-0.687-0.748-0.943-1.514-0.77-2.307c0.177-0.8,0.371-1.203,0.583-1.206c1.286-0.754,2.426-0.574,3.417,0.543l0.003-0.033C69.04,31.174,69.019,32.203,68.974,33.234z"/>
<path fill="#807D67" d="M81.606,51.923c-0.02-0.986-0.042-1.972-0.069-2.954c1.045-0.03,2.092-0.064,3.139-0.095c0.001,1.028-0.002,2.06-0.008,3.088C83.631,53.147,82.611,53.134,81.606,51.923z"/>
<path fill="#6C684E" d="M81.606,51.923c1.02,0.049,2.041,0.063,3.062,0.039c-1.036,1.06-2.072,2.118-3.108,3.178c-1.058,1.053-2.115,2.105-3.172,3.158c-1.029-0.006-2.056-0.013-3.083-0.021c0.005-3.128,0.01-6.259,0.014-9.387C77.414,49.9,79.51,50.913,81.606,51.923z"/>
<path fill="#9E9872" d="M37.799,55.146c-0.003-2.091-0.005-4.181-0.008-6.271c0.354-0.531,0.707-1.063,1.051-1.6c1.491-1.269,3.209-2.047,5.135-2.371c1.283-0.043,2.462,0.302,3.508,1.056c1.201,1.572,1.448,3.314,0.885,5.191c-0.511,1.077-1.204,2.048-2.006,2.93c-1.181,1.291-2.461,2.487-3.88,3.528c-0.523,0.241-1.054,0.473-1.587,0.705c-1.03-0.019-2.06-0.037-3.09-0.056C37.8,57.221,37.797,56.183,37.799,55.146z"/>
<path fill="#A09B72" d="M50.401,55.06c-0.035,2.109-0.07,4.218-0.105,6.326c-1.037,1.236-2.076,1.301-3.117,0.007c-1.051,0.006-2.103,0.012-3.154,0.015h-1.55h-1.547c-0.004-1.031-0.015-2.063-0.032-3.098c0,0.004,0.024-0.036,0.024-0.036c0.729-0.794,1.511-1.529,2.35-2.21c1.324-0.973,2.77-1.715,4.301-2.307c0.545,0.052,1.09,0.113,1.636,0.171C49.606,54.303,50.002,54.682,50.401,55.06z"/>
<path fill="#ABA282" d="M34.686,58.271c1.033-0.003,2.064,0,3.097,0.012c0.012,1.038,0.017,2.072,0.016,3.11c-1.042,1.145-2.084,1.145-3.128,0l-0.012,0.085c-0.715-0.72-0.949-1.435-0.703-2.146C34.2,58.624,34.445,58.271,34.686,58.271z"/>
<path fill="#A09B72" d="M34.67,61.393c1.042,0,2.086,0,3.128,0c0,1.04,0,2.084,0,3.125h-1.563h-1.563C34.674,63.477,34.674,62.436,34.67,61.393z"/>
<path fill="#615E43" d="M50.74,73.78c0.9,0.076,1.803,0.113,2.706,0.113c-0.938,1.04-1.877,2.081-2.814,3.121C50.67,75.937,50.705,74.857,50.74,73.78z"/>
<path fill="#7F7A5A" d="M47.178,61.393c1.039,0,2.08,0,3.119-0.003c-0.002,1.04,0,2.084-0.002,3.131c-0.003,0.003-1.563-0.006-1.563-0.006s-1.56,0.003-1.558,0.003C47.176,63.474,47.176,62.433,47.178,61.393z"/>
<path fill="#5F5C40" d="M50.444,64.511c0.433,0.69,0.95,1.35,1.243,2.094c0.073,0.187-0.57,0.653-0.884,0.992C50.48,66.593,50.36,65.565,50.444,64.511z"/>
<path fill="#E2DAA8" d="M44.059,20.795c-0.003-1.05-0.006-2.1-0.009-3.152c2.075,0.003,4.151,0.003,6.226,0.003l0.044,0.006c1.012,0.924,1.571,2.06,1.606,3.442c-0.313,1.325-0.982,2.433-2.009,3.33c-0.639,0.195-1.276,0.388-1.915,0.583c-1.239-0.54-2.297-1.321-3.145-2.377C44.59,22.019,44.324,21.409,44.059,20.795z"/>
<path fill="#E6DAAE" d="M44.108,23.905c-1.06-1.044-2.121-2.087-3.181-3.131c1.043,0.009,2.087,0.016,3.132,0.021l-0.037-0.046c0.406,0.516,0.811,1.032,1.223,1.544C44.869,22.831,44.488,23.368,44.108,23.905z"/>
<path fill="#D7D09A" d="M40.801,30.045c2.081,0.04,4.163,0.076,6.244,0.116c0.38,0.439,0.759,0.882,1.143,1.325c0.192,1.178,0.087,2.325-0.291,3.458c-0.435,1.102-1.001,2.133-1.654,3.119c-0.707,0.958-1.568,1.758-2.556,2.423c-1.697,0.76-3.388,0.781-5.063-0.076c-0.894-0.8-1.434-1.794-1.636-2.979c0.07-1.767,0.598-3.412,1.398-4.984c0.32-0.476,0.659-0.946,0.989-1.419C39.844,30.695,40.323,30.372,40.801,30.045z"/>
<path fill="#E5DFA8" d="M47.045,30.161c0.041-1.059,0.083-2.121,0.124-3.18c0.574-0.421,1.149-0.839,1.724-1.264c1.443-0.29,2.796-0.049,4.055,0.717c0.73,0.757,1.058,1.578,0.979,2.454c-0.079,0.909-0.22,1.364-0.42,1.364l-0.063-0.11c-2.081,1.84-4.164,1.843-6.249,0.006L47.045,30.161z"/>
<path fill="#F0E5B9" d="M47.169,26.981c-1.021-1.025-2.042-2.051-3.063-3.076c0.001,0-0.064,0.024-0.064,0.024c1.051-1.05,2.098-0.998,3.144,0.006l-0.075,0.019c1.111,0.668,1.483,1.346,1.123,2.029c-0.363,0.684-0.728,1.025-1.099,1.025L47.169,26.981z"/>
<path fill="#BDB67F" d="M34.707,30.207c0.031-1.062,0.061-2.121,0.092-3.183c0.987,0.019,1.973,0.04,2.958,0.07c0.408,0.522,0.815,1.041,1.227,1.563c-0.2,0.628-0.403,1.257-0.604,1.886c-0.633,0.183-1.268,0.37-1.903,0.553C35.888,30.799,35.298,30.503,34.707,30.207z"/>
<path fill="#C6BE88" d="M37.731,30.027c0.027-0.979,0.037-1.956,0.026-2.933c1.016,0.982,2.031,1.968,3.046,2.954c-0.001-0.003,0.121,0.095,0.121,0.095C39.82,31.189,38.754,31.208,37.731,30.027z"/>
<path fill="#B9B48B" d="M25.408,55.222c0.984,0.982,1.968,1.965,2.951,2.948C27.375,57.187,26.391,56.205,25.408,55.222z"/>
<path fill="#DFD4A9" d="M69.033,30.176c-1.057,0.012-2.114,0.024-3.171,0.037c-0.481,0.439-0.962,0.882-1.442,1.325c-0.611-0.223-1.224-0.452-1.837-0.678c-0.896-1.031-1.231-2.222-1.017-3.573c0.812-1.883,2.224-3.153,4.08-3.958c1.291-0.25,2.522-0.058,3.683,0.568c0.926,1.138,0.779,2.179-0.29,3.137C69.037,28.08,69.034,29.126,69.033,30.176z"/>
<path fill="#D3CC96" d="M69.039,27.033c0-1.062,0.001-2.124,0.001-3.183c0.528-0.461,1.057-0.925,1.584-1.392c0.516,0.476,1.031,0.955,1.548,1.435c1.045,0,2.09,0,3.137,0c-0.002,1.038-0.003,2.078-0.005,3.116C73.217,27.018,71.128,27.024,69.039,27.033z"/>
<path fill="#CCC68F" d="M62.697,17.673c1.058-0.009,2.113-0.018,3.168-0.027c0.021,1.053,0.041,2.106,0.063,3.162c-0.423,0.363-0.847,0.729-1.27,1.096c-1.178-0.021-2.121-0.516-2.866-1.416C61.396,19.325,61.663,18.375,62.697,17.673z"/>
<path fill="#C4BD85" d="M69.04,23.85c-1.074,0.046-2.148,0.092-3.223,0.137c-0.37-0.549-0.739-1.099-1.109-1.648c0.404-0.525,0.811-1.046,1.217-1.571l0.003,0.037c1.039-0.021,2.08-0.037,3.12-0.037c0.827,0.696,1.102,1.388,0.827,2.084c-0.274,0.693-0.551,1.041-0.827,1.041L69.04,23.85z"/>
<path fill="#E5D9AE" d="M69.048,23.893c0-1.041,0-2.084,0-3.125c1.041,0,2.083,0,3.125,0c0,1.041,0,2.084-0.001,3.125C71.129,23.893,70.089,23.893,69.048,23.893z"/>
<path fill="#A49F78" d="M31.544,45.774c-1.038-1.047-2.074-2.093-3.111-3.14c-0.001-1.041-0.004-2.084-0.006-3.125c0.926-0.849,1.8-1.749,2.614-2.707l0.809-0.65c1.053-0.592,2.094-0.54,3.125,0.064c0.835,0.8,1.37,1.767,1.624,2.893c0.723,1.544,2.252,2.634,2.518,4.443c-0.071,0.58-0.152,1.16-0.23,1.743c-0.375,0.452-0.755,0.9-1.135,1.349c-1.208,0.338-2.255,0.085-3.115-0.852C33.605,45.792,32.574,45.786,31.544,45.774z"/>
<path fill="#8D8960" d="M31.04,36.802c-0.871,0.9-1.743,1.804-2.614,2.707C29.298,38.605,30.169,37.702,31.04,36.802z"/>
<path fill="#F0E5B9" d="M34.747,36.545c-0.969-0.11-1.937-0.241-2.898-0.394c-0.274-0.983-0.34-1.978-0.195-2.988c0.001,0-0.171,0.192-0.171,0.192c0.533-0.467,1.065-0.937,1.596-1.41c0.664,0.241,1.331,0.492,1.996,0.736c0.232,0.665,0.466,1.336,0.699,2.005C35.43,35.303,35.089,35.926,34.747,36.545z"/>
<path fill="#B3AD76" d="M34.687,33.317c-1.068,0.015-2.136,0.027-3.205,0.04c0.02-1.071,0.042-2.146,0.063-3.217c1.055,0.021,2.107,0.043,3.162,0.067l-0.129-0.085c0.83,0.684,1.123,1.385,0.879,2.103C35.209,32.954,34.954,33.317,34.687,33.317z"/>
<path fill="#B2AD84" d="M31.545,52.011c1.035,1.041,2.068,2.082,3.099,3.122C33.612,54.093,32.578,53.052,31.545,52.011z"/>
<path fill="#999071" d="M34.686,58.271c-0.009,1.068-0.019,2.136-0.028,3.207c-1.038-0.055-2.075-0.122-3.111-0.195C32.593,60.279,33.639,59.275,34.686,58.271z"/>
<path fill="#A49E77" d="M34.635,45.792c1.055-0.009,2.107-0.019,3.162-0.024c0.797,0.695,1.061,1.389,0.795,2.084c-0.266,0.696-0.531,1.041-0.798,1.041c0,0-0.003-0.016-0.003-0.019C36.739,47.846,35.687,46.818,34.635,45.792z"/>
<path fill="#D1CB93" d="M50.328,20.749c-0.009-1.034-0.012-2.066-0.009-3.097c2.083-0.009,4.164-0.021,6.247-0.034c0.461,0.433,0.922,0.867,1.384,1.297c0.683,1.91,0.453,3.699-0.689,5.374c-1.068,0.745-2.248,1.01-3.534,0.809C51.974,24.137,51.396,22.251,50.328,20.749z"/>
<path fill="#E7DBB0" d="M59.675,14.518c-0.005,1.056-0.01,2.115-0.014,3.174c-0.525,0.372-1.05,0.745-1.575,1.12c-0.511-0.388-1.023-0.778-1.536-1.172c0,0,0.017-0.019,0.017-0.021c-0.013-1.035-0.019-2.072-0.017-3.107C57.59,14.515,58.633,14.518,59.675,14.518z"/>
<path fill="#F0E9B3" d="M62.697,17.673c0.067,1.032,0.103,2.06,0.104,3.092c0.423,0.705,0.846,1.41,1.27,2.111c-0.573,0.586-1.147,1.175-1.721,1.761c-4.514-0.964-5.1-3.406-2.618-6.992l-0.07,0.043C60.673,17.667,61.686,17.661,62.697,17.673z"/>
<path fill="#80807A" d="M59.697,55.213c1.031-0.024,2.062-0.037,3.093-0.04c0.016,1.017,0.014,2.032-0.004,3.049c-1.039,0.03-2.078,0.049-3.117,0.052l0.059-0.058c-0.941-0.659-1.26-1.322-0.956-1.993C59.076,55.548,59.385,55.213,59.697,55.213z"/>
<path fill="#69664A" d="M65.926,45.771c1.041,0,2.083-0.003,3.125-0.003c-1.036,1.031-2.073,2.063-3.109,3.094C65.933,47.831,65.926,46.802,65.926,45.771z"/>
<path fill="#756F59" d="M59.697,55.213c-0.014,1.001-0.003,2.002,0.03,3.003c-1.059,0.021-2.119,0.045-3.18,0.069c-0.003-2.09-0.006-4.184-0.008-6.274C57.592,53.08,58.645,54.145,59.697,55.213z"/>
<path fill="#676448" d="M53.419,52.024c-1.008,1.013-2.015,2.026-3.021,3.036c0.002,0-0.104,0.086-0.104,0.086c-0.445-0.516-0.893-1.035-1.338-1.551c0.226-0.644,0.453-1.287,0.679-1.932c0.654-0.192,1.31-0.385,1.964-0.58C52.205,51.398,52.813,51.712,53.419,52.024z"/>
<path fill="#78725C" d="M56.547,48.872c0.001,1.05,0.003,2.1,0.003,3.149c-1.044,0-2.088,0.003-3.131,0.003l0.012-0.013c-0.551-1.434-0.198-2.594,1.055-3.481C55.172,48.639,55.861,48.755,56.547,48.872z"/>
<path fill="#DFD5A6" d="M44.099,36.423c1.033-1.053,2.066-2.105,3.101-3.162c2.06-1.929,4.129-1.831,6.204-0.021c-0.008,1.056-0.014,2.115-0.021,3.171c-0.798,0.922-1.752,1.63-2.862,2.136c-1.196,0.25-2.396,0.259-3.597,0.037C45.791,38.117,44.84,37.406,44.099,36.423z"/>
<path fill="#FEF9C1" d="M53.404,33.24c-2.069,0.006-4.139,0.016-6.206,0.021c-0.026-1.038-0.027-2.075-0.003-3.113c2.084-0.003,4.166-0.003,6.25-0.006C53.45,31.174,53.437,32.206,53.404,33.24z"/>
<path fill="#DFD4A9" d="M56.767,39.624c-0.151,0.974-0.336,1.941-0.558,2.899c-0.839,0.986-1.918,1.492-3.202,1.59c-1.263-0.256-2.308-0.876-3.143-1.858c-0.153-0.613-0.305-1.224-0.456-1.837c0.273-0.57,0.547-1.138,0.822-1.709c1.29-0.607,2.344-0.299,3.195,0.809C54.538,39.551,55.653,39.588,56.767,39.624z"/>
<path fill="#EDE7B0" d="M53.507,30.253c-0.041-1.022-0.052-2.042-0.032-3.064c0.388-0.479,0.774-0.961,1.16-1.444c1.226-0.213,2.452-0.22,3.682-0.024c1.106,0.638,1.854,1.566,2.245,2.78c-0.297,0.543-0.594,1.083-0.892,1.626C57.614,30.17,55.561,30.21,53.507,30.253z"/>
<path fill="#D5CD97" d="M59.469,38.77c-0.876,0.495-1.807,0.842-2.794,1.041C57.606,39.466,58.538,39.118,59.469,38.77z"/>
<path fill="#E5D9AE" d="M53.426,39.518c-1.034,0-2.068,0.003-3.104,0.006c-0.775-0.677-1.044-1.367-0.804-2.066c0.241-0.705,0.488-1.056,0.741-1.056c1.041-0.006,2.081-0.003,3.122,0.009C53.404,37.446,53.42,38.483,53.426,39.518z"/>
<path fill="#C3BD85" d="M62.784,30.127c1.027-0.003,2.054,0.024,3.079,0.083c0.034,0.983,0.014,1.959-0.06,2.936c-0.966,0.061-1.933,0.104-2.898,0.128c-0.854-0.668-1.155-1.355-0.908-2.066C62.25,30.488,62.511,30.127,62.784,30.127z"/>
<path fill="#DFD4A8" d="M62.784,30.127c0.04,1.05,0.078,2.097,0.119,3.146c-1.077-1.047-2.156-2.097-3.233-3.146l-0.04,0.006c1.054-1.514,2.106-1.438,3.16-0.003L62.784,30.127z"/>
<path fill="#7E7862" d="M59.656,45.771c-1.036,1.034-2.072,2.065-3.109,3.101l0.025,0.009c-0.714-2.777-0.141-4.263,3.093-3.088L59.656,45.771z"/>
<path fill="#706B52" d="M59.665,45.792c-1.031,1.028-2.063,2.06-3.093,3.088c-1.048,1.044-2.095,2.088-3.142,3.131c-1.021,0.016-2.042,0.031-3.061,0.043c-1.922-1.357-1.532-3.323-1.372-5.23c0.775-1.947,2.268-3.079,4.207-3.702c0.972-0.345,1.975-0.543,3.004-0.598c1.155,0.04,2.311,0.079,3.466,0.119C59.672,43.693,59.669,44.743,59.665,45.792z"/>
<path fill="#938E66" d="M37.794,48.893c0.001-1.041,0.001-2.085,0.003-3.125l0.047,0.027c0.775-1.016,1.81-1.575,3.069-1.743c0.598,0.146,1.195,0.293,1.793,0.437c0.444,0.424,0.888,0.852,1.332,1.275C41.956,46.808,39.875,47.852,37.794,48.893z"/>
<path fill="#B7AE8E" d="M50.483,45.622c-0.038,2.146-0.076,4.287-0.112,6.433l-0.075-0.039c-0.516,0.454-1.03,0.912-1.546,1.373c-0.488-0.482-0.977-0.971-1.464-1.462c-0.011-2.026-0.021-4.056-0.031-6.082l0.867-1.102c-0.002-0.003,1.395-0.141,1.396-0.141C49.517,44.599,50.483,45.622,50.483,45.622z"/>
<path fill="#8F8A62" d="M44.033,58.268l-1.556,0.012l-1.557-0.006c1.041-2.088,2.083-4.172,3.124-6.256C45.971,54.105,45.766,56.186,44.033,58.268z"/>
<path fill="#A39E75" d="M44.033,58.268c0.003-2.085,0.008-4.166,0.011-6.25c1.081-0.031,2.159-0.059,3.241-0.089c0-0.003-0.112,0.089-0.112,0.089c0.913,0.695,1.217,1.389,0.914,2.081c-0.304,0.692-0.607,1.041-0.912,1.041C46.128,56.18,45.08,57.224,44.033,58.268z"/>
<path fill="#959069" d="M47.254,45.844c-1.073-0.027-2.146-0.052-3.216-0.08l0.015,0.019c-0.419-0.58-0.841-1.157-1.26-1.733c0.267-0.666,0.534-1.328,0.802-1.993c1.357-0.656,2.712-0.653,4.063,0.009c0.812,1.364,0.668,2.619-0.426,3.763L47.254,45.844z"/>
<path fill="#7F7A5A" d="M47.175,55.14c0.001-1.041,0-2.082-0.002-3.122c1.042,0.006,2.083,0.003,3.124-0.003c0,1.04,0,2.084,0,3.131C49.254,55.143,48.215,55.143,47.175,55.14z"/>
<path fill="#DBD59F" d="M50.328,20.749c1.032,1.047,2.065,2.097,3.097,3.146c1.129,0.693,1.503,1.385,1.129,2.078c-0.374,0.693-0.749,1.041-1.131,1.041c0,0,0.051,0.171,0.052,0.174c-2.113-0.058-4.227-0.119-6.34-0.18c0.02-1.02,0.012-2.039-0.024-3.055C48.184,22.886,49.256,21.818,50.328,20.749z"/>
<path fill="#D1CB93" d="M47.186,23.936c-1.048-0.003-2.095-0.006-3.144-0.006c-0.006-1.062-0.012-2.121-0.02-3.18C45.077,21.812,46.131,22.874,47.186,23.936z"/>
<path fill="#9B956E" d="M40.925,45.765c-1.027,0.003-2.056,0.015-3.083,0.031c-0.037-1.096-0.076-2.194-0.114-3.293c-0.415-0.491-0.832-0.982-1.253-1.474c0.426-0.485,0.853-0.967,1.282-1.449c2.072,0.012,4.146,0.021,6.218,0.033c0.409,0.476,0.818,0.949,1.227,1.425c-0.365,0.51-0.729,1.02-1.094,1.529l-0.079,0.174C43.046,43.803,42.011,44.81,40.925,45.765z"/>
<path fill="#E5D9AE" d="M44.099,36.423c1.034-0.015,2.069-0.024,3.104-0.024c0.831,0.714,1.166,1.483,1.004,2.307c-0.166,0.849-0.372,1.272-0.613,1.276c-1.317,0.833-2.541,0.75-3.654-0.382l0.037,0.012C44.016,38.55,44.057,37.488,44.099,36.423z"/>
<path fill="#9F9973" d="M34.692,39.567c-0.001-1.007,0.017-2.018,0.055-3.021l-0.084-0.168c0.513-0.394,1.025-0.787,1.537-1.181c0.502,0.406,1.004,0.814,1.504,1.221c0.018,1.053,0.037,2.105,0.055,3.162c-0.001,0,0.115-0.104,0.115-0.104C36.842,40.498,35.779,40.528,34.692,39.567z"/>
<path fill="#BAB37E" d="M40.922,33.234c-1.071,1.062-2.144,2.121-3.216,3.183c-0.001,0,0.093-0.021,0.093-0.021c-0.449-0.537-0.897-1.077-1.351-1.618c0.299-0.631,0.603-1.266,0.906-1.901C38.647,31.958,39.837,32.078,40.922,33.234z"/>
<path fill="#F5E8BD" d="M40.922,33.234c-1.043-0.024-2.089-0.046-3.132-0.07c-0.91-0.674-1.192-1.321-0.849-1.938c0.334-0.601,0.663-0.9,0.987-0.9l-0.197-0.299c1.063,0.037,2.127,0.076,3.192,0.116C40.924,31.171,40.922,32.203,40.922,33.234z"/>
<path fill="#DED7A1" d="M37.928,30.326c-0.078,0.946-0.124,1.892-0.139,2.841c0-0.003,0.014,0.11,0.014,0.11c-1.047,1.16-2.09,1.105-3.134-0.006l0.019,0.046c-0.037-1.065-0.073-2.13-0.11-3.192C35.694,30.192,36.811,30.259,37.928,30.326z"/>
<path fill="#D8D09B" d="M62.79,30.131c-1.053,0-2.105,0.003-3.158,0.003c-1.03-1.041-2.059-2.082-3.088-3.122c-0.911-0.693-1.214-1.385-0.908-2.078c0.302-0.693,0.605-1.041,0.912-1.041c0-2.084,0.002-4.169,0.002-6.253c1.061,0.003,2.121,0.003,3.18,0.006c1.068,2.084,2.135,4.168,3.201,6.253c0.801,0.62,1.073,1.242,0.818,1.874c-0.258,0.635-0.518,0.952-0.783,0.952C62.908,27.86,62.85,28.996,62.79,30.131z"/>
<path fill="#FEF6CB" d="M62.966,26.725c-0.067-0.943-0.079-1.883-0.036-2.826c0.001,0-0.132,0-0.132,0c1.041-1.172,2.081-1.12,3.125-0.006c0,0-0.104,0.094-0.105,0.094C64.867,24.9,63.916,25.812,62.966,26.725z"/>
<path fill="#D8D09B" d="M65.923,23.893H64.36c0,0-1.563,0-1.563,0.003c0-1.041,0-2.084,0.002-3.128c1.042,0,2.083,0,3.123,0C65.923,21.809,65.923,22.852,65.923,23.893z"/>
<path fill="#BCBCA4" d="M34.692,39.567c1.061-0.031,2.121-0.061,3.182-0.092c-0.057,1.01-0.104,2.021-0.144,3.03C36.717,41.523,35.703,40.546,34.692,39.567z"/>
<path fill="#D0C992" d="M34.669,33.271c1.044,0,2.086-0.003,3.133,0c-0.003,1.043-0.005,2.084-0.003,3.125c-1.042-0.003-2.083-0.003-3.13-0.009C34.675,35.343,34.676,34.306,34.669,33.271z"/>
<path fill="#C0B982" d="M56.548,23.893c0,1.041,0,2.084-0.001,3.122c-1.044,0.003-2.083,0.003-3.124,0.003c0-1.044,0-2.084,0.002-3.125C54.465,23.893,55.506,23.893,56.548,23.893z"/>
<path fill="#CABE92" d="M47.156,39.512c0.008-1.038,0.023-2.075,0.046-3.113c1.02-0.003,2.038-0.003,3.058,0c0.026,1.044,0.048,2.084,0.063,3.125l-0.099-0.055C49.218,40.674,48.196,40.69,47.156,39.512z"/>
<path fill="#D5CF97" d="M47.156,39.512c1.022,0.003,2.046-0.012,3.067-0.042c0.038,1.034,0.05,2.072,0.035,3.106c-0.478,0.51-0.956,1.016-1.434,1.529c-0.568-0.399-1.14-0.806-1.708-1.211c-1.001-0.134-2.003-0.241-3.009-0.327c-0.049-0.989-0.104-1.978-0.167-2.966C45.011,39.57,46.084,39.542,47.156,39.512z"/>
<path fill="#4E4B2E" d="M53.205,43.122c-0.908,0.833-1.816,1.666-2.724,2.5c0.001,0-0.48,0.311-0.48,0.311c-0.965-1.214-0.762-2.185,0.611-2.908l-0.354-0.449C51.269,42.606,52.25,42.79,53.205,43.122z"/>
<path fill="#9F9B72" d="M40.925,45.765c1.034-1.007,2.069-2.017,3.104-3.024c0.012,1.013,0.02,2.026,0.024,3.042C43.011,45.777,41.967,45.771,40.925,45.765z"/>
<path fill="#A09B72" d="M50.613,43.024c-0.19,0.974-0.392,1.941-0.608,2.908c-0.925-0.083-1.849-0.119-2.771-0.104c-0.04-0.979-0.078-1.962-0.116-2.938C48.281,42.939,49.446,42.981,50.613,43.024z"/>
</svg>