<?xml version="1.0" encoding="utf-8"?>
<!DOCTYPE svg PUBLIC "-//W3C//DTD SVG 1.1//EN" "http://www.w3.org/Graphics/SVG/1.1/DTD/svg11.dtd">
<svg version="1.1" xmlns="http://www.w3.org/2000/svg" xmlns:xlink="http://www.w3.org/1999/xlink" x="0px" y="0px" width="100px" height="100px" viewBox="0 0 100 100" enable-background="new 0 0 100 100" xml:space="preserve">
<path fill="#030305" d="M62.951,84.775c-3.111,1.065-6.223,2.131-9.334,3.195c-0.65-0.174-1.3-0.348-1.952-0.524c-0.541-0.406-1.08-0.812-1.623-1.221c-0.455-0.507-0.906-1.014-1.367-1.52c-1.088-0.864-2.091-1.807-3.035-2.832c-3.856-3.843-0.281-7.932-0.43-11.896c0.18-2.026,0.322-4.059,0.387-6.097c-0.088-2.039,0.182-4.06,0.325-6.086c0.47-2.716,1.988-4.98,3.157-7.388c1.018-1.697,2.341-3.116,3.95-4.254c1.617-0.882,3.232-1.797,4.851-2.67c1.057-0.482,2.158-0.891,3.268-1.236c1.062-0.369,2.139-0.739,3.202-1.114c0.52-0.192,1.049-0.378,1.569-0.568c0.517-0.18,1.045-0.357,1.565-0.534c0.526-0.144,1.059-0.29,1.587-0.434c1.072-0.189,2.152-0.348,3.239-0.464c1.088,0.043,2.168,0.165,3.236,0.381c1.085,0.067,2.171,0.131,3.258,0.189c1.093,0.18,2.057,0.631,2.893,1.358l-0.011-0.021c1.89,1.645,1.155,4.599,3.102,6.22c1.043,5.243,2.087,10.489,3.132,15.731c-0.845,0.672-1.127,1.34-0.847,2.012c0.281,0.668,0.562,1.004,0.846,1.004c-4.215,4.175-8.431,8.35-12.646,12.521c-0.944-1.087-1.911-1.105-2.898-0.059c-2.094,1.08-4.188,2.161-6.282,3.238l-1.299-0.254l-0.982,0.886C63.874,83.274,63.586,84.088,62.951,84.775z"/>
<path fill="#050508" d="M50.484,59.809c1.013,2.111,2.026,4.221,3.039,6.329c-1.036,1.007-2.063,2.023-3.085,3.046c2.066,3.18,4.132,6.359,6.199,9.54c-1.965,1.587-1.222,4.537-3.11,6.164l0.061-0.155c-0.8,0.635-1.082,1.284-0.85,1.956c0.234,0.684,0.479,1.025,0.735,1.025l0.142,0.256c-3.161-0.024-6.323-0.049-9.486-0.073c-1.007-1.025-2.025-2.041-3.055-3.042l-0.081-0.064c-0.867-1.068-1.762-1.093-2.688-0.076c-1.164-1.007-2.33-2.014-3.496-3.021c-0.403-0.372-0.804-0.744-1.208-1.12c-0.679-0.885-1.253-1.827-1.723-2.844c-0.45-1.041-0.905-2.075-1.369-3.11c-0.239-1.119-0.412-2.249-0.54-3.384c-0.246-1.712-0.536-3.412-0.888-5.105c-0.195-0.553-0.375-1.102-0.569-1.657c-0.636-1.02-1.323-1.986-2.078-2.93c-0.791-0.977-1.463-2.012-2.03-3.144c-0.29-1.291-0.439-2.572-0.494-3.888c-0.375-5.111,0.368-9.741,5.304-12.595c1.139-0.885,2.312-1.709,3.53-2.478c1.794-1.267,3.735-2.209,5.867-2.747c1.45-0.144,2.896-0.113,4.338,0.067c2.089,0.549,4.133,1.254,6.188,1.907c1.349,0.427,2.702,0.857,4.048,1.285c1.207,0.708,2.259,1.611,3.112,2.725c1.931,4.343-2.849,5.572-3.958,8.499c-0.245,1.291-0.728,2.496-1.438,3.604c-0.359,0.535-0.721,1.075-1.078,1.612C49.304,57.669,49.488,58.817,50.484,59.809z"/>
<path fill="#050508" d="M22.31,75.437c-2.051-1.166-4.102-2.335-6.152-3.5c0.743-0.617,0.978-1.218,0.709-1.807c-0.266-0.58-0.525-0.873-0.783-0.873l-0.075-0.098c-2.856-2.479-0.131-6.784-3.027-9.247c1.004-3.161,2.008-6.323,3.012-9.487c2.591-2.002,1.782-4.065,0.114-6.146c1.117-1.096,2.232-2.188,3.349-3.284c0.579-0.391,1.158-0.784,1.737-1.178c1.399-0.131,2.791-0.073,4.173,0.171c7.385,4.358-2.76,12.069,3.197,16.699h-0.001c1.628,1.886,3.921,0.818,5.862,1.321c6.144,5.68-4.512,11.731,0.388,17.438l-0.003-0.018c0.763,0.698,1.018,1.397,0.763,2.097c-0.253,0.695-0.508,1.046-0.763,1.046l0.006-0.012c-2.083,2.048-4.168,1.81-6.256,0.006C26.477,77.521,24.395,76.481,22.31,75.437l0.119-0.369l0.262,0.287L22.31,75.437z"/>
<path fill="#060609" d="M38.008,25.608c4.153-2.124,8.307-4.251,12.46-6.375c2.634,2.164,4.033,5.066,4.932,8.27c0.23,0.625,0.46,1.245,0.691,1.874c0.694,1.914,1.473,3.79,1.898,5.792c0.125,1.395,0.128,2.78,0.012,4.175c-0.317,1.425-1.042,2.576-2.243,3.418c-1.431,0.15-2.853,0.125-4.276-0.07c-1.443-0.049-2.883-0.07-4.326-0.067c-2.151-0.019-4.361,0.198-6.067-1.553h-0.032l-0.838-1.239l-1.495,0.009l-1.302,0.735c-1.181,0.979-1.565,2.536-2.612,3.613l0.003-0.003c-2.998,2.356-5.658,1.861-8.043-0.952c-1.576-2.655-1.825-6.012-4.327-8.173c2.037-1.126,4.074-2.252,6.109-3.378c1.086-1.196,2.471-1.618,4.041-1.554l1.44-0.406l0.778-1.282c1.1-0.977,2.202-1.956,3.302-2.936L38.008,25.608z"/>
<path fill="#050507" d="M72.43,31.638c2.044,2.115,4.087,4.227,6.13,6.342c0.936,0.687,1.247,1.373,0.938,2.063c-0.31,0.687-0.619,1.032-0.934,1.032l-0.031,0.003c-1.674,1.88-4.597,1.264-6.271,3.14l0.084-0.061c-1.263,1.214-2.444,2.505-3.593,3.823c-0.849,0.837-1.85,1.377-3.029,1.569c-1.034-0.556-1.938-1.279-2.711-2.164l-0.303-0.146c-1.644-1.138-3.279-2.283-4.077-4.227c-0.207-1.291-0.307-2.597-0.28-3.9c0.084-1.285,0.38-2.523,0.915-3.695c0.738-1.007,1.595-1.92,2.573-2.701c0.52-0.32,1.048-0.647,1.568-0.97c1.191-0.248,2.4-0.305,3.613-0.168c1.197,0.067,2.403,0.098,3.605,0.088C71.228,31.657,71.83,31.647,72.43,31.638z"/>
<path fill="#0E0E0F" d="M47.318,28.586c1.05-3.119,2.1-6.235,3.149-9.354c3.098,2.063,6.195,4.126,9.292,6.189c-0.021,0.714-0.042,1.428-0.063,2.145c-0.992,2.115-2.935,2.994-4.937,3.797c-2.16,0.271-4.268,0.241-6.153-1.068C48.176,29.725,47.747,29.157,47.318,28.586z"/>
<path fill="#070707" d="M62.951,84.775c0.022-3.125,0.045-6.25,0.068-9.375l-0.058-0.063c1.043,2.124,2.087,4.248,3.129,6.372C65.043,82.731,63.997,83.753,62.951,84.775z"/>
<path fill="#1C0120" d="M22.443,35.062c2.008,1.969,4.016,3.934,6.022,5.902c-1.749,2.655-3.941,1.66-6.123,0.745l-0.023-0.882c-0.92-0.659-1.229-1.325-0.928-1.99c0.302-0.668,0.604-1.004,0.911-1.004C22.337,36.909,22.385,35.984,22.443,35.062z"/>
<path fill="#09090B" d="M16.109,44.279c-0.038,2.047-0.076,4.099-0.114,6.146C16.033,48.377,16.071,46.326,16.109,44.279z"/>
<path fill="#0A0A0A" d="M12.982,59.913c1.008,3.082,2.019,6.165,3.027,9.247C15.001,66.078,13.991,62.995,12.982,59.913z"/>
<path fill="#0A0A0A" d="M28.56,78.565c2.086-0.003,4.17-0.006,6.256-0.006c-0.003,1.044-0.004,2.087-0.007,3.134C32.726,80.65,30.643,79.606,28.56,78.565z"/>
<path fill="#08080C" d="M59.759,25.422c2.097,1.05,4.193,2.1,6.29,3.149c-0.302,0.75-0.603,1.501-0.905,2.252c-2.375,1.44-4.509,1.282-6.323-0.964c-0.486-1.672-0.161-3.165,0.973-4.483L59.759,25.422z"/>
<path fill="#101010" d="M34.812,28.443c0.026,1.172,0.052,2.341,0.078,3.513l0.188-0.192c-2.174-0.027-4.349-0.052-6.525-0.079C30.638,30.604,32.724,29.523,34.812,28.443z"/>
<path fill="#08080C" d="M66.049,28.571c2.126,1.022,4.253,2.044,6.38,3.067c0.001,0-0.188,0.067-0.188,0.067c-0.911,0.903-2.005,1.41-3.282,1.52c-0.624,0.006-1.247,0.012-1.871,0.019c-1.367,0.198-2.306-0.373-2.878-1.603c0.209-1.275,0.827-2.301,1.854-3.082L66.049,28.571z"/>
<path fill="#070707" d="M84.788,47.26c-1.033-2.072-2.068-4.147-3.102-6.22C82.719,43.113,83.754,45.188,84.788,47.26z"/>
<path fill="#2C0132" d="M22.302,37.834c0,1.001,0.006,1.999,0.017,2.997c-0.954,0.08-1.909,0.137-2.863,0.168C20.406,39.942,21.355,38.889,22.302,37.834z"/>
<path fill="#070707" d="M87.918,66.007c-0.119-1.004-0.119-2.012,0.001-3.016C87.919,63.996,87.919,65.003,87.918,66.007z"/>
<path fill="#1C0120" d="M16.084,69.257c0.102,0.895,0.126,1.788,0.073,2.683C16.13,71.043,16.106,70.152,16.084,69.257z"/>
<path fill="#130016" d="M72.375,78.47c0.97-0.076,1.938-0.055,2.9,0.059C74.307,78.513,73.341,78.495,72.375,78.47z"/>
<path fill="#08080C" d="M78.565,41.074c0-1.032-0.002-2.063-0.005-3.094c1.045,1.028,2.092,2.054,3.137,3.082C80.654,41.065,79.61,41.071,78.565,41.074z"/>
<path fill="#1C0120" d="M38.304,84.714c0.899-0.055,1.796-0.027,2.688,0.076C40.096,84.769,39.2,84.742,38.304,84.714z"/>
<path fill="#0A0A0A" d="M41.074,84.855c1.02,1.013,2.039,2.029,3.056,3.042C43.111,86.881,42.091,85.868,41.074,84.855z"/>
<path fill="#070707" d="M75.44,66.059c-1.348,0-2.696,0-4.611,0c0.552-2.609,0.975-4.603,1.397-6.592c-0.738-0.516-1.015-1.068-0.832-1.657c0.189-0.61,0.396-0.916,0.621-0.916c1.163-0.072,2.327-0.149,3.491-0.226l-0.053-0.052c-0.007,3.149-0.013,6.299-0.021,9.445L75.44,66.059z"/>
<path fill="#09090B" d="M47.314,53.565c1.057-0.003,2.115-0.009,3.172-0.015c1.009-2.079,2.031-2.085,3.065-0.021c-1.022,2.093-2.046,4.187-3.07,6.28c-1.054-2.081-2.108-4.166-3.164-6.247L47.314,53.565z"/>
<path fill="#030305" d="M62.887,40.925c-0.058,2.105-0.115,4.211-0.175,6.314c-1.978,1.068-3.955,2.136-5.932,3.201c-1.986-1.025-2.347-2.722-1.951-4.73c0.024-1.291,0.371-2.494,0.995-3.62c0.538-1.169,1.262-2.209,2.148-3.143c0.63-0.119,1.259-0.235,1.887-0.354C60.991,39.216,62,39.994,62.887,40.925z"/>
<path fill="#130016" d="M56.696,44.209c0.027,2.078,0.055,4.156,0.084,6.231c-1.074,1.031-2.15,2.06-3.228,3.089c-1.022,0.009-2.045,0.018-3.065,0.021c1.021-3.125,2.042-6.248,3.063-9.369c0.529-0.455,1.058-0.91,1.585-1.364C55.655,43.281,56.175,43.745,56.696,44.209z"/>
<path fill="#130016" d="M72.174,47.324c-2.034,2.079-4.068,4.154-6.103,6.229c-0.844-0.879-1.336-1.933-1.527-3.128c-0.017-1.261,0.507-2.25,1.496-3.006l0.115-0.305C68.219,45.588,70.24,45.243,72.174,47.324z"/>
<path fill="#130016" d="M53.527,84.888c1.037-2.057,2.073-4.113,3.11-6.168C55.6,80.778,54.563,82.835,53.527,84.888z"/>
<path fill="#101010" d="M72.262,44.217c2.091-1.046,4.182-2.093,6.271-3.143C76.444,42.124,74.353,43.171,72.262,44.217z"/>
<path fill="#101010" d="M72.174,47.324c-2.007-0.07-4.014-0.137-6.019-0.21c2.063-0.986,4.128-1.972,6.19-2.957C72.289,45.212,72.232,46.268,72.174,47.324z"/>
<path fill="#070707" d="M75.433,66.062l0.007-0.003L75.433,66.062z"/>
<path fill="#130016" d="M63.019,75.4l-0.058-0.061C62.961,75.336,63.019,75.4,63.019,75.4z"/>
<path fill="#101010" d="M75.506,56.668c0,0-0.053-0.049-0.053-0.052L75.506,56.668z"/>
<path fill="#2C0132" d="M72.015,56.894c0.091,0.858,0.16,1.716,0.211,2.573C71.86,58.634,71.79,57.777,72.015,56.894z"/>
<path fill="#101010" d="M50.438,69.184c1.028-1.017,2.057-2.032,3.085-3.046C52.495,67.155,51.466,68.168,50.438,69.184z"/>
<path fill="#2C0132" d="M66.041,47.419c0.007,0.979,0.011,1.956,0.014,2.936c-1.057,1.318-2.091,1.303-3.104-0.049c-0.018-0.977,0.003-1.95,0.061-2.924C64.023,47.367,65.032,47.379,66.041,47.419z"/>
<path fill="#030305" d="M62.951,50.306c1.034,0.039,2.068,0.055,3.104,0.049c0.006,1.067,0.012,2.133,0.018,3.198C65.032,52.472,63.991,51.389,62.951,50.306z"/>
<path fill="#130016" d="M53.473,87.714c-0.075-0.998-0.037-1.99,0.114-2.979C53.552,85.728,53.512,86.719,53.473,87.714z"/>
<path fill="#09090B" d="M22.342,41.709c2.042-0.247,4.083-0.495,6.125-0.742c2.115,1.071,4.23,2.146,6.346,3.22c-2.083,4.166-4.166,8.334-6.249,12.5C26.491,51.695,24.416,46.702,22.342,41.709z"/>
<path fill="#0A0A0A" d="M34.813,75.446c-1.054-5.225-2.11-10.449-3.165-15.674c-0.916-0.692-1.216-1.379-0.9-2.06c0.313-0.678,0.625-1.014,0.937-1.014c1.086-2.06,2.171-4.116,3.258-6.176c1.765,1.577,0.969,4.418,2.91,5.911C36.839,62.769,35.826,69.108,34.813,75.446z"/>
<path fill="#09090B" d="M41.078,37.879c-0.007,1.065-0.014,2.127-0.021,3.192c-2.083,1.041-4.164,2.078-6.247,3.119c2.103-2.09,4.205-4.181,6.31-6.271L41.078,37.879z"/>
<path fill="#101010" d="M41.089,41.071c2.075-0.003,4.152-0.003,6.227-0.006c0.729,0.522,1.46,1.041,2.191,1.56c-0.731,0.519-1.462,1.041-2.191,1.56C45.239,43.147,43.164,42.109,41.089,41.071z"/>
<path fill="#1C0120" d="M37.853,56.434c-0.97-1.972-1.941-3.943-2.911-5.911C35.913,52.494,36.882,54.462,37.853,56.434z"/>
<path fill="#08080C" d="M47.318,53.562l-0.003,0.003L47.318,53.562z"/>
<path fill="#030305" d="M50.435,41.062c1.041,0.006,2.083,0.009,3.125,0.012c1.004,0.69,1.337,1.376,1.001,2.066c-0.334,0.684-0.668,1.028-1.007,1.028l-0.003,0.013c-1.039,0-2.077,0.003-3.115,0.006c-1.028-0.693-1.37-1.389-1.029-2.081C49.749,41.41,50.088,41.062,50.435,41.062z"/>
<path fill="#101010" d="M31.685,56.699c-0.009,1.025-0.02,2.051-0.035,3.076c-1.03-1.031-2.059-2.06-3.087-3.088C29.604,56.69,30.645,56.693,31.685,56.699z"/>
<path fill="#1C0120" d="M50.435,41.062c0.001,1.044,0.001,2.084,0.001,3.125l-1.563,0.003c0,0-1.562-0.003-1.561-0.006c-0.001-1.041-0.001-2.082,0-3.119C48.355,41.062,49.396,41.059,50.435,41.062z"/>
<path fill="#0A0A0A" d="M34.81,78.571c0-1.046,0-2.093,0-3.143C34.81,76.474,34.81,77.525,34.81,78.571z"/>
<path fill="#0A0A0A" d="M25.526,72.239c-1.073,1.068-2.144,2.133-3.216,3.198l0,0c1.065-1.071,2.132-2.143,3.197-3.217C25.508,72.22,25.526,72.239,25.526,72.239z"/>
<path fill="#08080B" d="M53.561,37.937c-0.001-1.041-0.001-2.084-0.003-3.128c0.136-0.732,0.273-1.465,0.409-2.194c1.613-1.728,3.624-2.496,5.963-2.466c2.155,0.073,4.476-0.513,6.135,1.541l-0.004-0.003c2.294,1.041,2.294,2.084,0,3.125l-0.006,0.009c-0.945,0.921-1.877,1.858-2.791,2.813l-0.47,0.418c-1.072,0.97-2.317,1.593-3.736,1.867C56.639,40.882,55.047,39.558,53.561,37.937z"/>
<path fill="#050507" d="M53.561,37.937c2.167,0.027,4.332,0.055,6.498,0.083c0.874,0.796,1.115,1.529,0.726,2.194c-0.367,0.629-0.72,0.946-1.057,0.946l0.221-0.235c-1.118,1.099-2.322,2.112-3.323,3.326l0.07-0.042c-1.049-0.012-2.095-0.024-3.142-0.04c0.001-1.031,0.003-2.063,0.006-3.094C53.56,40.027,53.561,38.984,53.561,37.937z"/>
<path fill="#08080C" d="M53.558,34.809c-2.086-1.065-4.173-2.133-6.26-3.198c0.491-0.452,0.984-0.903,1.475-1.358c1.974-0.085,3.997-0.445,5.675,1.056c0.477,1.364,0.182,2.53-0.887,3.503L53.558,34.809z"/>
<path fill="#2C0132" d="M38.008,25.608l0.104-0.101C38.114,25.507,38.008,25.608,38.008,25.608z"/>
<path fill="#101010" d="M47.298,31.611c-0.121-1.01-0.115-2.018,0.02-3.024l-0.011-0.027c0.732,0.521,1.465,1.043,2.198,1.565c-0.733,0.519-1.468,1.041-2.202,1.56L47.298,31.611z"/>
<path fill="#101010" d="M41.12,37.918c0,0-0.042-0.036-0.042-0.04L41.12,37.918z"/>
<path fill="#2C0132" d="M34.889,31.956c0,0,0.185-0.195,0.187-0.195C35.077,31.763,34.889,31.956,34.889,31.956z"/>
<path fill="#2C0132" d="M59.728,41.16c0.106-1.05,0.215-2.097,0.326-3.144c0.92-0.003,1.834,0.006,2.743,0.034c0.073,0.961,0.105,1.919,0.092,2.878C61.834,41.004,60.781,41.081,59.728,41.16z"/>
<path fill="#030305" d="M63.264,37.635c0.932-0.937,1.86-1.876,2.791-2.813C65.125,35.758,64.196,36.698,63.264,37.635z"/>
<path fill="#130016" d="M69.188,31.687c1.02,0.006,2.037,0.012,3.055,0.019c-1.02,1.037-2.038,2.072-3.058,3.106c-1.041-0.696-1.387-1.389-1.039-2.084C68.491,32.035,68.837,31.687,69.188,31.687z"/>
<path fill="#030305" d="M69.188,31.687c-0.002,1.041-0.002,2.084-0.003,3.125h-1.562h-1.562c0-1.041,0-2.084,0-3.125C67.104,31.687,68.146,31.687,69.188,31.687z"/>
<path fill="#030305" d="M59.793,25.376c0.004,1.062,0.011,2.124,0.015,3.189c-0.407,0.553-0.816,1.102-1.225,1.654c-1.264,0.757-2.528,0.72-3.794,0c-0.407-0.553-0.816-1.102-1.224-1.654C55.641,27.5,57.716,26.438,59.793,25.376z"/>
<path fill="#040406" d="M47.304,31.684c0.001-1.041,0.001-2.082,0.003-3.125c2.086,0.003,4.172,0.003,6.259,0.006l-0.005-0.006c0.503,0.519,1.005,1.038,1.507,1.556c-0.499,0.522-0.998,1.047-1.497,1.569C51.482,31.684,49.393,31.684,47.304,31.684z"/>
<path fill="#030305" d="M66.065,31.69c-2.086-0.003-4.171-0.006-6.257-0.009c-0.5-0.522-1.001-1.044-1.501-1.563c0.502-0.522,1.004-1.041,1.508-1.56l-0.007,0.006c2.086-0.003,4.171-0.003,6.257-0.006C66.065,29.603,66.065,30.647,66.065,31.69z"/>
<path fill="#2C0132" d="M56.626,44.251c1.107-1.108,2.216-2.215,3.323-3.323C58.841,42.036,57.733,43.143,56.626,44.251z"/>
<path fill="#030305" d="M53.561,34.812c0.004-1.044,0.007-2.087,0.01-3.128L53.56,31.69c2.086-1.975,4.17-1.975,6.255,0l-0.007-0.009C57.726,32.725,55.644,33.768,53.561,34.812z"/>
<path fill="#08080C" d="M59.815,31.69c-2.085,0-4.169,0-6.255,0c0.001-1.043,0.001-2.087,0.001-3.131c2.085,0,4.169,0,6.254,0C59.815,29.603,59.815,30.647,59.815,31.69z"/>
</svg>