<?xml version="1.0" encoding="utf-8"?>
<!DOCTYPE svg PUBLIC "-//W3C//DTD SVG 1.1//EN" "http://www.w3.org/Graphics/SVG/1.1/DTD/svg11.dtd">
<svg version="1.1" xmlns="http://www.w3.org/2000/svg" xmlns:xlink="http://www.w3.org/1999/xlink" x="0px" y="0px" width="100px" height="100px" viewBox="0 0 100 100" enable-background="new 0 0 100 100" xml:space="preserve">
<path fill="#413D3B" d="M53.217-1c-0.063,0.979,0.045,1.941,0.325,2.881c-2.312,1.892-4.634,1.892-6.969,0.046c0.339-0.946,0.47-1.923,0.394-2.927C49.05-1,51.134-1,53.217-1z"/>
<path fill="#110A07" d="M65.723,89.295c-4.091,2.222-8.183,4.443-12.273,6.665c-2.229,1.685-4.454,1.703-6.676-0.016c-1.03,0.067-2.005-0.128-2.928-0.589c-0.894-0.774-1.262-1.736-1.027-2.914c0.597-1.568,1.481-3,2.039-4.574c0.102-1.798-0.478-3.452-0.948-5.143c-0.864-3.751-1.766-7.465-3.781-10.797c-1.172-3.513,1.027-6.18,2.251-9.082c0.258-1.172,0.577-2.338,0.868-3.494c0.178-1.136,0.445-2.262,0.711-3.363c0.217-1.028,0.548-2.048,0.896-3.016c0.401-0.875,0.414-1.788-0.079-2.667c-0.065,0.04-1.375-0.556-1.375-0.556s-1.439,0.046-1.495,0.04c-1.079-0.476-1.858-1.212-2.455-2.2c-0.803-2.649-0.253-4.855,1.991-6.558c4.176-2.24,8.917-2.066,13.353-3.198c1.96-0.357,3.906-0.36,5.816,0.25c1.155,0.602,2.028,1.501,2.617,2.661c0.285,1.825-0.047,3.586-0.673,5.277c-0.207,0.479-0.453,0.985-0.656,1.462c-0.259,0.408-0.56,0.851-0.816,1.26c-0.532,0.763-1.3,1.279-2.215,1.495c0.036-0.015-1.055-0.75-1.055-0.75s0.211,1.3,0.245,1.321c0.35,0.955,0.43,1.91,0.293,2.92c-0.143,1.068-0.389,2.082-0.668,3.098c-0.138,1.068-0.233,2.121-0.192,3.181c0.333,1.031,0.721,2.017,1.283,2.933c1.473,1.736,3.328,3.082,4.677,4.907c0.572,1.037,0.889,2.146,0.977,3.313c-0.091,0.559-0.196,1.126-0.283,1.679c-0.266,0.477-0.547,0.965-0.802,1.438c-0.822,0.632-1.755,1.12-2.748,1.449c-0.945,0.336-1.685,0.943-2.073,1.883c0.29,1.025,0.728,1.89,1.484,2.619c1.722,1.535,3.644,2.752,5.314,4.303c0.394,0.488,0.76,0.977,1.142,1.471C66.981,87.277,66.693,88.364,65.723,89.295z"/>
<path fill="#0B0706" d="M93.319,24.003c0,15.652,0,31.302,0,46.951c-1.361,1.889-0.896,4.514-2.537,6.286l0.142,0.046c-0.995,0.647-2.072,1.09-3.233,1.334c-1.194,0.116-2.254,0.562-3.198,1.294c-0.697,0.771-1.56,1.068-2.585,0.885c-0.537-0.314-1.074-0.626-1.614-0.934c-0.586-1.111-0.85-2.301-0.85-3.55c0.199-1.205,0.673-2.313,1.344-3.326c1.084-1.324,2.297-2.558,3.372-3.885c0.558-0.909,1.136-1.821,1.643-2.756c0.584-1.455,0.947-2.957,0.834-4.571c-0.305-1.123-0.687-2.17-1.286-3.174c-1.567-2.002-3.356-3.79-4.356-6.115c-0.579-2.97,0.791-4.551,3.607-5.054c0.969,0.052,1.955,0.271,2.823,0.604c0.353-0.854,0.554-1.715,0.481-2.646c-0.074-0.937-0.073-1.861-0.063-2.789c-0.075-0.937-0.086-1.871-0.107-2.802c-0.126-0.931-0.23-1.861-0.392-2.786c-0.29-0.918-0.522-1.843-0.773-2.774c-0.029-0.003-0.276-1.435-0.301-1.444c-0.125-1.004-0.084-1.996,0.067-2.991c0.09-1.556,0.142-3.113,0.478-4.651c0.45-1.019,1.146-1.819,2.079-2.42C90.589,22.392,92.147,22.529,93.319,24.003z"/>
<path fill="#0C0807" d="M6.881,70.917C7.726,54.19,8.572,37.464,9.419,20.741c2.673,0.729,3.812,2.686,4.201,5.243c0.008,1.752-0.278,3.482-0.557,5.203c-0.154,1.669-0.304,3.345-0.349,5.021c0.055,1.08,0.049,2.167,0.063,3.238c0.113,1.022,0.233,2.057,0.458,3.058c0.362,0.949,0.849,1.825,1.563,2.573c0.839,0.647,1.645,1.303,2.504,1.923c0.9,0.665,1.619,1.471,2.228,2.396c0.404,1.068,0.522,2.154,0.345,3.28c-0.659,2.151-1.759,4.044-3.314,5.649c-0.742,0.689-1.587,1.275-2.441,1.788c-0.632,0.766-0.964,1.639-0.872,2.68c0.305,1.607,0.807,3.121,1.282,4.672c0.541,1.764,0.774,3.543,0.707,5.377c-0.137,1.282-0.499,2.484-1.057,3.641c-0.439,0.47-0.885,0.928-1.333,1.392c-1.295,0.428-2.481,0.223-3.555-0.616l0.124-0.03C7.751,75.452,8.213,72.824,6.881,70.917z"/>
<path fill="#100A07" d="M78.352,83.747c-3.202,1.721-6.401,3.442-9.603,5.163c-1.209-0.519-2.214-1.291-2.989-2.358l-0.11-0.119c-2.575-2.402-4.1-5.347-4.566-8.841c-0.086-1.435,0.447-2.612,1.494-3.577l0.061-0.076c1.18-1.267,1.673-2.93,2.523-4.395c1.186-1.37,2.671-2.24,4.418-2.694c2.518-0.254,4.733,0.592,6.845,1.85c1.004,0.723,1.804,1.626,2.419,2.697c0.269,1.208,0.207,2.408-0.13,3.595c-0.331,1.841-0.017,3.619,0.545,5.374C79.427,81.62,79.123,82.746,78.352,83.747z"/>
<path fill="#0C0807" d="M28.009,86.591c-3.229-1.926-6.458-3.848-9.687-5.771c0.241-0.519,0.484-1.038,0.719-1.563c0.932-0.668,1.962-1.129,3.072-1.407c0.967-0.253,2.444,0.192,2.87-0.628c0.952-1.828,0.738,0.579-1.03-0.544c-0.497-1.067-0.673-2.166-0.536-3.335c0.4-1.15,1.074-2.088,2.025-2.845c1.158-0.448,2.342-0.546,3.563-0.363c1.814,0.458,3.418,1.31,4.81,2.561c0.819,0.938,1.32,2.032,1.57,3.247c0.045,1.825-0.278,3.61-0.696,5.384c-0.233,1.184-0.61,2.325-1.058,3.445c-0.532,1.104-1.323,1.983-2.348,2.655C30.052,87.705,28.959,87.428,28.009,86.591z"/>
<path fill="#623B23" d="M34.651,8.625c0.532-0.897,1.211-1.025,2.034-0.384c1.254-0.607,2.551-1.096,3.894-1.468c3.916-1.407,7.657-3.574,12.083-2.762c2.036,0.818,3.684,2.063,4.603,4.126c0.109,1.45-0.266,2.768-1.112,3.952c-2.771,2.502-6.288,2.795-9.737,3.311c-2.705,0.397-5.414,0.897-8.175,0.519c-2.062-0.632-3.592-1.929-4.668-3.781C33.154,10.734,33.477,9.547,34.651,8.625z"/>
<path fill="#17100C" d="M12.594,27.128c-1.058-2.13-2.116-4.26-3.175-6.387c2.951-1.184,5.903-2.368,8.856-3.552c0.589,0.396,1.177,0.791,1.769,1.187c1.576,2.71,1.45,5.405-0.081,8.087c-1.512,1.746-3.398,2.411-5.67,1.929C13.728,27.97,13.16,27.549,12.594,27.128z"/>
<path fill="#1A1412" d="M65.728,8.71c4.183,1.953,8.365,3.906,12.547,5.859c-0.311,0.431-0.62,0.864-0.928,1.303c-1.347,0.91-2.86,1.413-4.414,1.837c-1.544,0.509-3.104,0.958-4.713,1.26c-1.131,0.119-2.219-0.046-3.285-0.43c-1.514-0.876-2.671-2.087-3.444-3.662c-0.296-1.126-0.263-2.25,0.084-3.36C62.537,9.962,64.364,9.681,65.728,8.71z"/>
<path fill="#25160B" d="M53.067,5.69C48.884,6.313,44.7,6.935,40.518,7.558c-0.6-0.607-0.786-1.199-0.563-1.779c0.221-0.571,0.437-0.857,0.646-0.857c1.991-0.998,3.982-1.996,5.974-2.994c2.322-0.016,4.645-0.031,6.969-0.046l-0.233,0.115C54.326,3.3,54.244,4.53,53.067,5.69z"/>
<path fill="#27180E" d="M34.651,8.625c-0.021,0.821-0.016,1.642,0.02,2.463c0.784,1.083,1.033,2.268,0.664,3.567c-0.447,0.461-0.897,0.922-1.343,1.389c-1.134,0.641-2.35,1.056-3.629,1.303c-2.633,0.296-5.165,0.021-7.477-1.407c-0.378-0.519-0.754-1.047-1.129-1.575c2.038-0.992,4.077-1.987,6.115-2.979c1.12-0.833,2.268-1.624,3.441-2.38C32.426,8.878,33.538,8.753,34.651,8.625z"/>
<path fill="#110A08" d="M43.871,92.697c-0.012,0.886-0.02,1.773-0.026,2.658c-1.085-0.754-2.17-1.507-3.253-2.264c-0.725-1.05-1.208-2.201-1.417-3.467c-0.044-0.635-0.088-1.267-0.134-1.904c0.301-0.562,0.604-1.123,0.905-1.688c1.039-0.784,2.202-1.251,3.5-1.37c1.303,0.174,2.393,0.754,3.269,1.736c0.589,0.51,1.178,1.017,1.801,1.554c-0.556,0.589-1.085,1.15-1.613,1.712C45.884,90.668,44.875,91.682,43.871,92.697z"/>
<path fill="#24160B" d="M53.067,5.69c0.08-1.23,0.163-2.463,0.244-3.693c2.092,0.974,4.184,1.947,6.275,2.921c0.374,0.583,0.748,1.166,1.125,1.746c-0.199,0.662-0.398,1.327-0.597,1.99C58.838,9.438,57.6,9.383,56.4,8.486C55.289,7.551,54.179,6.62,53.067,5.69z"/>
<path fill="#20140D" d="M81.783,17.292c3.041,1.169,6.082,2.338,9.121,3.507c-0.81,1.019-1.856,1.654-3.139,1.907c-1.235,0.399-2.488,0.442-3.758,0.192c-1.209-0.473-2.21-1.224-3.008-2.246c-0.136-0.623-0.269-1.245-0.402-1.868C80.992,18.29,81.388,17.79,81.783,17.292z"/>
<path fill="#3C2415" d="M65.728,8.71c-0.978,0.968-1.956,1.932-2.933,2.899c-1.093,1.071-2.308,1.236-3.646,0.498c-0.911-1.257-0.83-2.448,0.242-3.571l0.238-0.775c1.306-0.479,2.556-0.342,3.76,0.333C64.324,7.707,65.106,7.911,65.728,8.71z"/>
<path fill="#0C0807" d="M6.881,70.917c0.844,2.103,1.688,4.206,2.531,6.309C8.569,75.123,7.725,73.02,6.881,70.917z"/>
<path fill="#080505" d="M90.782,77.24c0.845-2.097,1.69-4.189,2.537-6.286C92.472,73.051,91.626,75.144,90.782,77.24z"/>
<path fill="#0C0807" d="M18.322,80.82c-1.892-0.412-3.786-0.824-5.678-1.236c-0.748-0.53-1.005-1.074-0.771-1.626c0.235-0.556,0.476-0.833,0.72-0.833l-0.003,0.006c1.446-1.685,3.262-2.018,5.325-1.465c0.54,0.385,1.079,0.769,1.619,1.153c0.659,1.315,0.389,2.444-0.679,3.418L18.322,80.82z"/>
<path fill="#0D0807" d="M87.6,20.878c1.102-0.027,2.205-0.055,3.307-0.079c0.804,1.068,1.608,2.136,2.412,3.204c-1.888-0.003-3.776-0.006-5.665-0.009c-0.397-0.513-0.796-1.025-1.196-1.538C86.835,21.931,87.218,21.403,87.6,20.878z"/>
<path fill="#22150D" d="M40.653,86.433c0.021,1.064,0.043,2.127,0.064,3.192c-1.273,1.086-2.626,1.147-4.048,0.313l-1.237,0.141l-0.981-0.766c-0.761-0.854-1.001-1.697-0.722-2.53c0.276-0.824,0.546-1.235,0.807-1.239C36.756,84.589,38.815,84.76,40.653,86.433z"/>
<path fill="#110A08" d="M46.774,95.944c2.225,0.007,4.451,0.01,6.676,0.016C51.225,95.954,48.998,95.951,46.774,95.944z"/>
<path fill="#120C0A" d="M40.6,4.92c-0.043,0.879-0.07,1.761-0.083,2.64c-1.277,0.223-2.554,0.452-3.832,0.678C37.989,7.133,39.295,6.025,40.6,4.92z"/>
<path fill="#120C0A" d="M63.389,8.094c-1.255-0.107-2.509-0.214-3.762-0.327c-0.004-0.955-0.02-1.904-0.041-2.85C60.854,5.976,62.12,7.035,63.389,8.094z"/>
<path fill="#251B14" d="M31.313,9.007c-1.147,0.793-2.293,1.587-3.441,2.38C29.02,10.594,30.166,9.8,31.313,9.007z"/>
<path fill="#120C0A" d="M18.275,17.189c1.161-0.94,2.321-1.88,3.482-2.823l0.231,0.439c0.56,2.609-0.41,3.646-3.05,2.979L18.275,17.189z"/>
<path fill="#120C0A" d="M78.275,14.57c1.171,0.907,2.34,1.816,3.51,2.722c-0.001,0-0.473,0.391-0.473,0.391c-1.015,0.818-2.043,0.8-3.087,0.052c-0.829-1.025-0.775-2.042,0.041-3.046L78.275,14.57z"/>
<path fill="#0A0605" d="M84.491,79.914c1.014-0.931,2.024-1.861,3.036-2.796c0.775,0.55,1.036,1.102,0.781,1.657c-0.255,0.553-0.511,0.83-0.771,0.83C86.524,79.709,85.508,79.814,84.491,79.914z"/>
<path fill="#2B1A10" d="M87.538,79.606c0.021-0.827,0.021-1.657-0.007-2.487c1.129,0.056,2.26,0.11,3.392,0.165C89.795,78.059,88.668,78.834,87.538,79.606z"/>
<path fill="#080505" d="M78.352,83.747c-0.035-1.123-0.07-2.246-0.104-3.372c0.925-1.068,1.918-1.19,2.988-0.208l0.671,0.632C80.721,81.781,79.537,82.765,78.352,83.747z"/>
<path fill="#1B110C" d="M28.009,86.591c1.091-0.009,2.18-0.018,3.271-0.027c0.947,0.488,1.275,1.001,0.987,1.535c-0.293,0.546-0.592,0.821-0.9,0.821C30.248,88.142,29.128,87.366,28.009,86.591z"/>
<path fill="#0C0807" d="M31.367,88.92c0.033-0.788,0.004-1.575-0.087-2.356l0.05-0.052c1.051-1.05,2.092-1.093,3.119,0.033c0.012,0.922,0.012,1.847,0.001,2.769C33.422,89.182,32.395,89.051,31.367,88.92z"/>
<path fill="#080505" d="M65.76,86.552c0.996,0.787,1.993,1.571,2.989,2.358c-1.009,0.129-2.018,0.257-3.026,0.385C65.722,88.38,65.734,87.467,65.76,86.552z"/>
<path fill="#0C0807" d="M36.669,89.939c1.349-0.104,2.699-0.21,4.048-0.313c-0.043,1.156-0.084,2.31-0.125,3.467C39.284,92.042,37.977,90.992,36.669,89.939z"/>
<path fill="#261911" d="M12.594,77.125c0.026,0.817,0.042,1.639,0.052,2.459c-1.118-0.778-2.237-1.553-3.357-2.328C10.39,77.213,11.492,77.167,12.594,77.125z"/>
<path fill="#110A08" d="M56.434,39.713c-5.281,1.028-10.561,2.057-15.842,3.085c0,0-0.931,1.208-0.928,1.208c0.001,0-1.48,0.357-1.471,0.381c-0.989,0.113-1.98,0.244-2.956,0.464c-1.438,0.592-2.757,1.422-4.224,1.956c-1.782,0.128-3.122-0.653-4.196-1.999c-0.592-0.912-1.079-1.883-1.495-2.884c-0.694-1.446-1.506-2.82-2.645-3.992c-1.344-1.077-2.702-2.109-3.935-3.323c-0.757-1.016-1.149-2.139-1.152-3.406c0.23-0.589,0.465-1.166,0.704-1.752c0.543-0.335,1.082-0.659,1.624-0.998c1.807-0.809,3.689-0.983,5.625-0.754c1.248,0.213,2.444,0.613,3.592,1.141c2.63,1.404,5.084,3.214,8.134,3.72c1.18,0.116,2.347,0.281,3.522,0.406c1.805,0.073,3.603,0.18,5.406,0.312c1.241,0.058,2.455,0.25,3.67,0.51c1.224,0.311,2.376,0.784,3.476,1.404c1.049,0.723,1.907,1.632,2.622,2.686C56.125,38.486,56.28,39.1,56.434,39.713z"/>
<path fill="#53311C" d="M46.714,86.398l-1.352,0.016L44.01,86.39c-0.832-0.607-1.593-1.291-2.295-2.051c-1.14-1.114-2.118-2.359-3.142-3.583c-1.134-1.278-2.098-2.646-2.571-4.314c-0.131-1.182-0.241-2.351-0.345-3.534c0.337-1.196,0.987-2.176,1.945-2.954c1.256-0.434,2.295-0.128,3.122,0.903C42.721,76.038,44.718,81.22,46.714,86.398z"/>
<path fill="#110A08" d="M40.725,70.856c-1.042,0.006-2.086,0.012-3.129,0.019c-0.437,0.467-0.875,0.931-1.311,1.397c-0.616-0.165-1.233-0.336-1.851-0.504c-0.81-1.034-1.201-2.212-1.193-3.527c0.267-2.536,0.998-4.95,1.994-7.285c0.556-1.092,1.308-2.044,2.232-2.832c1.039-0.53,2.152-0.692,3.29-0.442c1.262,0.678,1.938,2.39,3.746,2.234c1.118-0.037,1.918,0.451,2.411,1.44C44.851,64.524,42.788,67.691,40.725,70.856z"/>
<path fill="#342014" d="M56.347,64.637c-0.981-2.13-1.961-4.263-2.942-6.394c1.012-1.007,1.988-2.044,2.93-3.115c0.024-1.011,0.073-2.021,0.146-3.027c0.751-1.272,1.726-2.338,2.957-3.162l-0.026,0.019c1.063-1.05,2.254-1.275,3.591-0.55c1.408,1.679,1.801,3.642,1.627,5.766c-0.306,2.032-0.914,3.985-1.586,5.923c-0.651,1.966-1.554,3.784-3.098,5.222C58.588,65.931,57.389,65.705,56.347,64.637z"/>
<path fill="#331F13" d="M62.595,76.853c1.02,3.192,2.037,6.388,3.057,9.58c-3.162-2.085-6.32-4.166-9.48-6.25c0.393-1.841,1.578-3.027,3.182-3.873C60.516,75.986,61.597,76.169,62.595,76.853z"/>
<path fill="#4F311F" d="M43.847,61.731c-0.748,0.271-1.497,0.543-2.436,0.885c-0.302-1.385-0.581-2.67-0.862-3.955c-1.584-1.077-3.137-2.185-3.815-4.107c-0.146-1.321,0.194-2.493,1.085-3.494c1.143-0.644,2.359-0.863,3.651-0.604c1.29,0.149,2.428,0.65,3.414,1.492c0.513,1.16,1.102,2.283,1.776,3.36c-0.006,1.104-0.014,2.21-0.02,3.314C45.777,59.721,44.846,60.755,43.847,61.731z"/>
<path fill="#3F2312" d="M43.67,52.226c-2.023-0.03-4.046-0.062-6.07-0.095c-1.14,0.754-2.238,0.695-3.299-0.168c-0.688-1.093-0.989-2.271-0.857-3.562c0.935-2.34,1.774-4.757,4.379-5.85c0.923,0.098,1.847,0.18,2.771,0.244c1.065,2.084,2.133,4.168,3.2,6.25c0.786,0.738,1.03,1.455,0.73,2.151C44.231,51.884,43.948,52.226,43.67,52.226z"/>
<path fill="#21150D" d="M62.484,42.787c0.073-1.038,0.121-2.079,0.144-3.122c0.551-0.412,1.102-0.824,1.652-1.239c4.53-0.403,6.415,1.608,5.576,6.107c-0.781,1.193-1.885,1.922-3.263,2.258c-1.394-0.271-2.528-0.973-3.444-2.047C62.925,44.093,62.703,43.44,62.484,42.787z"/>
<path fill="#1F1915" d="M53.236,77.064c0.383-1.449,0.766-2.896,1.468-5.551c1.939,0.964,3.448,1.712,4.956,2.463c-0.225,0.543-0.45,1.086-0.673,1.632c-0.724,0.943-1.593,1.728-2.591,2.375C55.173,78.254,54.112,77.98,53.236,77.064z"/>
<path fill="#110A08" d="M56.347,64.637c1.013-0.021,2.027-0.033,3.041-0.036c0.513-0.431,1.025-0.857,1.538-1.288c0.618,0.256,1.236,0.513,1.853,0.766c0.223,0.632,0.443,1.264,0.665,1.893c-0.334,0.58-0.668,1.159-1.003,1.736C60.41,66.685,58.378,65.662,56.347,64.637z"/>
<path fill="#3A2517" d="M68.988,67.93c-1.109,1.02-2.221,2.042-3.33,3.061c-1.126,1.028-2.135,0.977-3.006-0.329c0.04-0.992-0.029-1.975-0.209-2.954c-0.002,0,0.589,0.064,0.589,0.064c1.164-1.117,2.549-1.489,4.123-1.215C67.765,67.015,68.377,67.472,68.988,67.93z"/>
<path fill="#110A08" d="M53.236,77.064c1.025,0.049,2.053,0.07,3.081,0.064c0.519-0.434,1.039-0.867,1.56-1.307c0.524,0.428,1.05,0.857,1.574,1.288c-1.091,1.025-2.184,2.051-3.277,3.073C55.194,79.142,54.214,78.105,53.236,77.064z"/>
<path fill="#110A08" d="M62.627,39.665c-2.064,0.015-4.131,0.03-6.195,0.046c0.002,0.003-0.245-0.281-0.245-0.281c-0.605-1.212-0.485-2.35,0.361-3.412c1.049-0.769,2.225-1.172,3.516-1.27c1.288,0.195,2.412,0.727,3.353,1.636c0.551,1.285,0.29,2.38-0.783,3.278L62.627,39.665z"/>
<path fill="#331D10" d="M62.635,49.018c-1.074-0.018-2.148-0.039-3.225-0.061c0.013-1.041,0.031-2.078,0.054-3.119c0.897-0.753,1.927-1.211,3.087-1.376c1.178,0.11,2.192,0.577,3.043,1.397l0.196-0.006c0.746,1.074,0.694,2.139-0.049,3.192C64.699,49.876,63.663,49.83,62.635,49.018z"/>
<path fill="#110A08" d="M43.67,52.226c0.043-1.06,0.084-2.121,0.125-3.18c-0.001,0,0.056-0.053,0.056-0.053c1.03-0.985,2.059-0.988,3.09-0.003c0.514,0.571,1.029,1.142,1.569,1.74c-0.634,0.527-1.233,1.028-1.833,1.528c-0.955,0.928-1.921,0.986-2.901,0.037L43.67,52.226z"/>
<path fill="#422716" d="M56.334,55.128c-0.977,1.04-1.954,2.078-2.931,3.115C54.381,57.206,55.358,56.168,56.334,55.128z"/>
<path fill="#6A4832" d="M43.847,61.731c0.932-1.037,1.865-2.075,2.795-3.109c0.183,0.903,0.274,1.815,0.271,2.737C45.907,61.612,44.885,61.737,43.847,61.731z"/>
<path fill="#331D10" d="M59.437,48.939c-0.985,1.056-1.973,2.109-2.959,3.162c-0.049-1.025-0.085-2.051-0.108-3.076l-0.003,0.003C57.389,48.987,58.413,48.957,59.437,48.939z"/>
<path fill="#110A08" d="M56.369,49.024c-0.419-0.232-0.839-0.467-1.259-0.699c0.418,0.235,0.837,0.467,1.255,0.702C56.366,49.027,56.369,49.024,56.369,49.024z"/>
<path fill="#191412" d="M46.941,48.99c-1.03,0-2.06,0.003-3.09,0.003C44.882,48.99,45.911,48.99,46.941,48.99z"/>
<path fill="#3F2312" d="M43.777,52.296c0.969-0.04,1.938-0.056,2.904-0.04c0.101,1.02,0.096,2.035-0.017,3.052C45.699,54.304,44.738,53.3,43.777,52.296z"/>
<path fill="#080505" d="M62.652,70.661c1.007,0.063,2.01,0.174,3.008,0.326c-1.007,0.986-2.015,1.969-3.021,2.951C62.643,72.846,62.647,71.754,62.652,70.661z"/>
<path fill="#110A08" d="M62.443,45.835l-1.489-0.009l-1.489,0.012c1.007-1.016,2.015-2.035,3.021-3.051c-0.002,0,0.174,0,0.174,0c0.7,0.729,0.9,1.425,0.604,2.087C62.974,45.515,62.7,45.835,62.443,45.835z"/>
<path fill="#110A08" d="M62.595,76.853c-1.048,0.086-2.097,0.171-3.145,0.257l0.052,0.049c-0.74-0.699-0.988-1.4-0.751-2.108c0.241-0.708,0.482-1.063,0.729-1.063c0,0,0.177-0.012,0.179-0.012c0.975,0.015,1.946,0.03,2.919,0.039C62.586,74.961,62.592,75.907,62.595,76.853z"/>
<path fill="#22150D" d="M43.871,92.697c1.01-1.013,2.02-2.022,3.03-3.036C45.891,90.675,44.882,91.688,43.871,92.697z"/>
<path fill="#110A07" d="M65.667,48.979c0.039-1.041,0.08-2.085,0.122-3.125c0.755-1.147,1.507-2.295,2.801-4.26c-2.438-0.791-4.199-1.361-5.958-1.932c-0.057-1.166-0.113-2.332-0.17-3.5c-0.388-0.513-0.774-1.025-1.164-1.541c0.121-0.635,0.244-1.27,0.358-1.911c0.629-1.157,1.434-2.173,2.414-3.055c1.074-0.775,2.249-1.343,3.521-1.718c1.953-0.409,3.893-0.345,5.811,0.208c1.202,0.47,2.228,1.211,3.102,2.146c0.721,0.986,1.318,2.066,1.827,3.174c0.931,2.06,1.861,4.141,3.297,5.923c1.091,1.154,2.318,2.139,3.751,2.859c1.007,0.373,1.958,0.849,2.889,1.374c0.844,0.662,1.64,1.376,2.396,2.133c0.019,1.083,0.037,2.166,0.054,3.25c-1.037,0.979-2.078,0.985-3.125,0.012c-2.064,1.032-4.129,2.063-6.193,3.095c-0.502,0.345-1.006,0.692-1.505,1.05c-2.398,0.644-4.864,0.519-7.317,0.665c-0.623-0.015-1.241-0.061-1.866-0.085c-0.612-0.138-1.214-0.299-1.825-0.449c-1.125-0.601-2.045-1.434-2.778-2.475C65.955,50.205,65.81,49.592,65.667,48.979z"/>
<path fill="#2B1A10" d="M78.084,73.896c0.027-1.01,0.064-2.023,0.108-3.033c-0.055-0.616-0.109-1.232-0.174-1.85c-0.142-2.56,0.455-4.968,1.483-7.293c0.898-1.719,2.17-3.098,3.801-4.147c1.188-0.479,2.418-0.602,3.681-0.379c1.769,0.91,2.36,2.832,3.59,4.206c-0.888,2.176-1.777,4.349-2.667,6.524c-3.149,0.543-0.882,1.818-0.386,2.854c-1.981,1.08-3.962,2.16-5.942,3.237c-0.597,0.406-1.193,0.812-1.79,1.215C79.221,74.787,78.652,74.342,78.084,73.896z"/>
<path fill="#27160B" d="M90.708,36.533c-0.035,1.056-0.069,2.112-0.103,3.168c-1.424,1.526-3.154,2.371-5.262,2.383c-1.314-0.229-2.563-0.659-3.742-1.285c-1.055-0.83-1.852-1.865-2.396-3.091c-0.388-1.273-0.525-2.579-0.436-3.906c0.238-1.303,0.762-2.494,1.508-3.583c1.05-0.833,2.259-1.184,3.592-1.123c2.08,0.659,2.661,2.6,3.597,4.242l0.236,0.042C88.656,34.48,89.657,35.529,90.708,36.533z"/>
<path fill="#0D0807" d="M87.63,58.424c-1.042-0.013-2.084-0.024-3.126-0.037c-0.525,0.409-1.05,0.818-1.575,1.23c-1.399-0.159-2.425-0.864-3.079-2.112c-0.545-2.051-0.323-3.9,1.427-5.341l0.122-0.055c3.105,2.091,6.21,4.184,9.313,6.277C89.699,59.467,88.672,59.531,87.63,58.424z"/>
<path fill="#281D16" d="M81.236,80.167c-0.997,0.07-1.993,0.138-2.989,0.208c-0.052-2.158-0.105-4.318-0.16-6.479c-0.002,0,0.233,0.189,0.233,0.189c1.063,0.931,2.057,1.932,2.979,3.003C81.325,78.113,81.304,79.142,81.236,80.167z"/>
<path fill="#3B2314" d="M84.472,39.628c2.044,0.024,4.091,0.049,6.136,0.073c-0.037,1.059-0.07,2.115-0.105,3.171c-0.851,1.059-1.796,2.026-2.835,2.899c-1.055,0.012-2.11,0.021-3.165,0.031C82.746,43.754,82.547,41.697,84.472,39.628z"/>
<path fill="#493120" d="M87.521,70.777c-1.155-0.647-2.313-1.294-3.467-1.938c0.464-0.649,0.926-1.3,1.39-1.953c0.819,0.345,1.638,0.69,2.46,1.035C87.7,68.863,87.571,69.815,87.521,70.777z"/>
<path fill="#20140D" d="M87.654,23.994c-0.059,1.032-0.089,2.063-0.094,3.098c-0.711,0.21-1.422,0.418-2.136,0.625c-1.233-1.004-1.744-2.289-1.535-3.87C85.172,22.73,86.41,22.721,87.59,24L87.654,23.994z"/>
<path fill="#0D0807" d="M90.708,36.533c-1.003-1.05-2.005-2.103-3.006-3.152C88.704,34.431,89.705,35.483,90.708,36.533z"/>
<path fill="#392112" d="M87.63,58.424c1.027-0.098,2.054-0.11,3.082-0.037c-0.012,1.007-0.058,2.012-0.137,3.013C89.592,60.407,88.612,59.415,87.63,58.424z"/>
<path fill="#0D0807" d="M87.592,49.015c1.042-0.003,2.084-0.009,3.125-0.012C89.676,49.006,88.634,49.012,87.592,49.015z"/>
<path fill="#442D1E" d="M87.667,45.771c0.945-0.967,1.892-1.935,2.836-2.899c0.119,0.958,0.174,1.919,0.16,2.884c0-0.003-1.498,0.098-1.498,0.098L87.667,45.771z"/>
<path fill="#3A2213" d="M87.467,33.338c-0.965-0.968-1.928-1.932-2.89-2.899c0.473-0.437,0.945-0.876,1.419-1.312c0.505,0.399,1.012,0.799,1.517,1.199C87.543,31.33,87.528,32.334,87.467,33.338z"/>
<path fill="#493121" d="M81.299,77.088c-0.993-1.001-1.988-2.002-2.981-3.003c1.087-0.021,2.172-0.046,3.26-0.07C81.494,75.04,81.402,76.063,81.299,77.088z"/>
<path fill="#0F0B0B" d="M87.56,27.091c0.558,0.519,1.114,1.038,1.7,1.584c-0.635,0.601-1.19,1.123-1.747,1.651l0.047-0.003c-1.056-0.727-1.403-1.447-1.047-2.164c0.354-0.711,0.71-1.068,1.067-1.068H87.56z"/>
<path fill="#59351E" d="M12.255,48.746c-0.807-2.038-1.616-4.08-2.423-6.118c1.102-1.608,1.678-3.507,2.794-5.118c1.965-2.02,4.298-2.957,7.13-2.401c2.07,0.558,3.329,1.938,3.998,3.927c0.167,2.03-0.394,3.867-1.489,5.554c-0.417,0.485-0.854,0.961-1.274,1.447c-0.997,0.821-2.153,1.272-3.441,1.367C15.664,47.346,13.854,47.623,12.255,48.746z"/>
<path fill="#462A19" d="M12.654,73.941c-0.153-2.06-0.307-4.123-0.459-6.183c-0.691-1.071-1.048-2.243-1.071-3.516c0.008-1.267,0.411-2.398,1.201-3.388c1.196-0.375,2.362-0.305,3.482,0.278c0.914,0.771,1.672,1.685,2.295,2.703c0.903,1.48,1.808,2.973,2.876,4.364c0.787,0.892,1.434,1.871,2.011,2.911c0.325,1.166,0.469,2.351,0.45,3.564c-0.083,0.607-0.168,1.206-0.253,1.813c-0.386,0.481-0.773,0.955-1.164,1.431c-1.26,0.519-2.318,0.254-3.18-0.796l-0.168,0.137C17.292,75.025,14.105,76.054,12.654,73.941z"/>
<path fill="#482815" d="M18.89,36.454c-2.11,1.077-4.219,2.154-6.33,3.229c-0.868,1.053-1.774,1.035-2.711,0.095c-0.122-1.028-0.212-2.06-0.269-3.091c1.524-2.151,2.681-4.73,5.806-5.042c1.373,0.131,2.536,0.689,3.453,1.73l0.11-0.092c1.015,0.723,1.344,1.435,0.989,2.133C19.587,36.109,19.239,36.454,18.89,36.454z"/>
<path fill="#4C311F" d="M18.78,52.122c0.122-1.011,0.188-2.026,0.197-3.046c0.478-0.431,0.955-0.864,1.434-1.3c1.335,0.009,2.536,0.424,3.632,1.178c0.972,0.909,1.712,1.978,2.209,3.213c0.169,1.35-0.107,2.604-0.819,3.764c-1.113,0.774-2.352,1.184-3.7,1.29c-1.352-0.164-2.551-0.684-3.603-1.55C17.526,54.34,17.783,53.162,18.78,52.122z"/>
<path fill="#170D07" d="M15.713,33.375c-2.044,1.102-4.089,2.203-6.134,3.308C9.545,34.54,9.51,32.395,9.474,30.25c0.972-0.885,2.113-1.371,3.427-1.456c1.325,0.006,2.501,0.424,3.537,1.251C17.028,31.339,16.825,32.456,15.713,33.375z"/>
<path fill="#261911" d="M12.654,73.941c2.008,1.104,4.015,2.213,6.021,3.32c-2.028-0.043-4.056-0.088-6.083-0.131C12.612,76.068,12.634,75.004,12.654,73.941z"/>
<path fill="#1E120B" d="M18.78,52.122c0.104,1.099,0.208,2.193,0.311,3.289c0.601,1.087,0.499,2.1-0.304,3.046c-0.521,0.232-1.045,0.461-1.567,0.689c-0.507-0.262-1.013-0.524-1.52-0.79C16.726,56.278,17.753,54.2,18.78,52.122z"/>
<path fill="#30271F" d="M9.536,61.396c0.204-1.336,0.407-2.673,0.633-4.146c0.971,0.424,1.728,0.75,2.484,1.08c1.059,0.727,1.401,1.438,1.027,2.13c-0.369,0.684-0.734,1.028-1.102,1.028l-0.008-0.012C11.52,62.928,10.507,62.977,9.536,61.396z"/>
<path fill="#1E120B" d="M9.536,61.396c1.01,0.062,2.021,0.089,3.035,0.08c-0.124,2.097-0.247,4.189-0.374,6.283C11.308,65.638,10.421,63.517,9.536,61.396z"/>
<path fill="#161210" d="M12.594,30.244c-1.041,0.003-2.08,0.006-3.121,0.006c1.041-1.041,2.082-2.082,3.121-3.122l-0.004-0.006c1.056,0.693,1.408,1.386,1.057,2.082C13.299,29.896,12.948,30.244,12.594,30.244z"/>
<path fill="#5E3720" d="M9.849,39.777c0.903-0.073,1.807-0.104,2.713-0.095c-0.912,0.983-1.823,1.965-2.733,2.945C9.609,41.676,9.615,40.727,9.849,39.777z"/>
<path fill="#1E120B" d="M12.579,61.487c0.024-1.053,0.049-2.105,0.073-3.158c1.018,0.021,2.032,0.033,3.048,0.027l0.044,0.046c0.327,0.531,0.653,1.059,0.983,1.587c-0.347,0.516-0.698,1.031-1.047,1.544C14.648,61.493,13.613,61.479,12.579,61.487z"/>
<path fill="#25160C" d="M15.715,45.884c1.013-0.052,2.026-0.088,3.04-0.11c0.844,0.711,1.147,1.45,0.912,2.209c-0.238,0.775-0.491,1.16-0.758,1.16c0,0,0.066-0.067,0.067-0.067c-1.083-0.027-2.168-0.055-3.255-0.086c-0.719-0.689-0.958-1.379-0.722-2.068C15.237,46.229,15.475,45.884,15.715,45.884z"/>
<path fill="#1E120B" d="M15.715,45.884c0.001,1.038,0.004,2.072,0.006,3.106c-1.152-0.079-2.306-0.158-3.462-0.241C13.409,47.791,14.562,46.839,15.715,45.884z"/>
<path fill="#3A2517" d="M75.003,70.848c-2.006-0.974-4.013-1.947-6.018-2.921c0.002,0.003-0.271-0.263-0.271-0.263c-1.409-1.983-4.455-0.885-5.765-3.058l-0.576,0.073c-0.661-0.705-0.979-1.474-0.951-2.308c0.027-0.86,0.129-1.29,0.293-1.29c1.006-2.448,2.184-4.789,4.293-6.51c1.283-0.415,2.528-0.312,3.73,0.302c1.487,1.248,2.645,2.783,3.732,4.377c1.135,1.52,2.171,3.112,3.009,4.827c0.441,1.196,0.632,2.436,0.567,3.711C76.693,69.023,76.008,70.042,75.003,70.848z"/>
<path fill="#080505" d="M75.003,70.848c0.026-1.011,0.097-2.015,0.213-3.019c2.775-0.745,4.115-0.076,2.979,3.027c0,0,0,0.006-0.002,0.006C77.129,70.856,76.068,70.854,75.003,70.848z"/>
<path fill="#563720" d="M34.449,86.545c-1.039-0.012-2.078-0.021-3.119-0.033c0.079-1.932,0.159-3.863,0.239-5.795c0.386-0.501,0.774-0.998,1.161-1.496c0.63-0.021,1.262-0.039,1.894-0.063c1.192,0.427,2.324,0.985,3.408,1.645c1.039,0.724,2.023,1.517,2.957,2.374c0.796,1.182,0.642,2.265-0.336,3.263c0,0,0.001-0.003,0-0.003C38.586,86.472,36.516,86.509,34.449,86.545z"/>
<path fill="#1B110C" d="M34.468,74c-2.14-0.983-4.28-1.969-6.421-2.951c0.436-0.464,0.873-0.925,1.309-1.389c1.937-0.687,3.692-0.595,5.057,1.175l0.064,0.046c0.45,0.519,0.899,1.04,1.354,1.563C35.38,72.962,34.924,73.481,34.468,74z"/>
<path fill="#1B110C" d="M25.093,77.125c0.305,0.763,0.609,1.522,1.001,2.505c-1.46,0.217-2.794,0.418-4.127,0.62c-0.824-0.696-1.097-1.389-0.823-2.085c0.275-0.692,0.549-1.04,0.826-1.04v0.003C23.01,75.568,24.05,75.568,25.093,77.125z"/>
<path fill="#1B110C" d="M28.047,71.049c-0.977-0.092-1.957-0.144-2.938-0.159c-0.375-0.381-0.752-0.766-1.129-1.15c0.064-0.531,0.129-1.064,0.192-1.599c0.383-0.379,0.768-0.754,1.151-1.133c1.102-0.192,2.1,0.064,3.006,0.708c0.696,0.931,0.746,1.896,0.148,2.894L28.047,71.049z"/>
<path fill="#1B110C" d="M21.97,73.993c0.001-1.047,0.003-2.097,0.006-3.146c0.517-0.391,1.036-0.778,1.553-1.169c0.516,0.394,1.03,0.787,1.545,1.181l0.034,0.03c-0.003,1.038-0.009,2.075-0.02,3.113C24.047,75.132,23.007,75.129,21.97,73.993z"/>
<path fill="#412616" d="M21.97,73.993c1.041,0.01,2.081,0.01,3.121,0.01c0,1.04,0,2.081,0.001,3.122c-1.042,0-2.083,0-3.125,0C21.969,76.084,21.969,75.037,21.97,73.993z"/>
<path fill="#1B110C" d="M37.593,74c0.01,1.053,0.022,2.108,0.035,3.161c-0.566,0.339-1.13,0.678-1.695,1.02c-0.534-0.388-1.068-0.775-1.603-1.163c0.061-1.004,0.107-2.011,0.138-3.018l0,0C35.51,72.889,36.55,72.837,37.593,74z"/>
<path fill="#412616" d="M21.969,77.125c0,1.043-0.001,2.084-0.001,3.125c-0.001,0-1.563-0.004-1.563-0.004s-1.563,0.004-1.557-0.003c-0.004-1.043-0.009-2.081-0.007-3.118C19.883,77.125,20.927,77.125,21.969,77.125z"/>
<path fill="#1B110C" d="M34.475,80.256c-0.977,0.109-1.945,0.259-2.908,0.454c0.923-1.227,1.845-2.456,2.765-3.689c-0.001-0.003,0.49,0.458,0.49,0.458C35.555,78.51,35.439,79.435,34.475,80.256z"/>
<path fill="#27180E" d="M28.282,30.485c-1.073-0.076-2.146-0.149-3.218-0.226c-0.768-1.184-0.888-2.432-0.384-3.744c1.19-2.35,2.548-4.618,3.796-6.943c0.677-1.145,1.582-2.081,2.655-2.856c1.204-0.516,2.307-1.202,3.302-2.063l0.058-0.052c1.115-1.099,2.287-1.114,3.509-0.183c1.861-0.778,3.723-1.557,5.586-2.334c1.107,0.68,1.826,1.648,2.167,2.902c0.151,1.251,0.136,2.502,0.008,3.754c-0.134,1.88-0.141,3.769-0.212,5.667c-0.128,1.306-0.555,2.508-1.242,3.625c-1.865,1.944-4.199,3.098-6.684,4.016c-1.268,0.415-2.573,0.592-3.901,0.604C31.788,32.24,29.873,31.767,28.282,30.485z"/>
<path fill="#3C2415" d="M43.639,17.152c-0.017-1.694-0.034-3.384-0.052-5.072c4.279-0.232,8.56-0.467,12.84-0.702c0.269,0.705,0.537,1.41,0.81,2.118c-0.392,2.368-1.617,4.211-3.543,5.622c-1.382,0.687-2.847,1.074-4.387,1.193C46.92,20.158,44.851,19.422,43.639,17.152z"/>
<path fill="#864F2E" d="M59.391,8.537c0.044,0.946-0.058,1.877-0.305,2.79c-0.832,1.089-1.781,1.147-2.829,0.32c0,0,0.168-0.266,0.169-0.266c-0.085-0.967-0.096-1.935-0.025-2.899C57.402,8.299,58.398,8.317,59.391,8.537z"/>
<path fill="#251B14" d="M38,14.418c-1.17,0.061-2.339,0.122-3.509,0.186c0.059-1.169,0.117-2.337,0.178-3.509C35.78,12.199,36.89,13.307,38,14.418z"/>
<path fill="#46240D" d="M18.939,17.784c1.018-0.992,2.034-1.984,3.052-2.979c3.053-0.031,6.106-0.061,9.16-0.092c0.772,0.534,1.108,1.145,1.009,1.837c-0.105,0.729-0.266,1.095-0.478,1.095l-0.635,0.302c-1.431,1.764-2.208,4.007-4.021,5.493c-1.436,0.982-2.647,2.209-3.772,3.534c-0.87,0.839-1.915,1.267-3.114,1.343c-0.394-0.433-0.786-0.867-1.178-1.303C18.954,23.939,18.946,20.863,18.939,17.784z"/>
<path fill="#0C0807" d="M12.594,30.244c-0.001-1.041-0.003-2.081-0.004-3.122c2.124-0.033,4.246-0.067,6.37-0.104c0.002-0.003-0.075,0.049-0.075,0.049c1.029,0.705,1.367,1.404,1.02,2.1c-0.347,0.693-0.693,1.041-1.042,1.041l-0.021,0.046c-1.039,1.248-2.079,1.248-3.118,0C14.68,30.25,13.636,30.247,12.594,30.244z"/>
<path fill="#120C0A" d="M62.609,14.631c1.02,1.004,2.04,2.008,3.062,3.012c3.735,4.214,3.299,8.432,0.017,12.652l0.084-0.076c-0.951,0.861-2.069,1.361-3.328,1.557c-1.271,0.162-2.447-0.092-3.514-0.809c-0.771-0.967-1.301-2.06-1.563-3.268c-0.13-1.188-0.072-2.384,0.099-3.568c0.243-1.721,0.461-3.46,0.472-5.221c-0.038-1.196,0.142-2.353,0.519-3.488C59.649,14.167,60.788,12.599,62.609,14.631z"/>
<path fill="#3A2316" d="M65.687,30.295c-0.006-4.217-0.011-8.432-0.017-12.649c0.938-0.094,1.875-0.208,2.809-0.335c0.572,0.335,1.145,0.674,1.726,0.998c2.161,2.53,3.875,5.365,5.585,8.209c0.369,1.355,0.1,2.594-0.713,3.723C71.946,30.259,68.817,30.277,65.687,30.295z"/>
<path fill="#3A2316" d="M62.609,14.631c-1.054,1.047-2.106,2.094-3.161,3.141c-0.892,0.946-1.993,1.437-3.277,1.547c-1.294-0.213-2.275-0.885-2.943-2.014c1.01-1.886,2.021-3.772,3.031-5.658c0.936-0.177,1.88-0.284,2.829-0.32c1.233,0.094,2.468,0.189,3.705,0.284C62.685,12.614,62.624,13.621,62.609,14.631z"/>
<path fill="#905733" d="M78.266,14.689c-0.036,1.016-0.046,2.029-0.025,3.046c-0.479,0.442-0.959,0.882-1.439,1.327c-1.267,0.412-2.55,0.467-3.85,0.174c-0.545-0.37-1.087-0.742-1.631-1.111c-0.548-1.349-0.241-2.466,0.914-3.348C74.245,14.747,76.256,14.72,78.266,14.689z"/>
<path fill="#3A2316" d="M72.235,14.777c-0.349,0.974-0.433,1.972-0.251,2.991c-1.005,1.032-2.027,1.099-3.068,0.052c0,0-0.432-0.504-0.434-0.507C69.732,16.465,70.983,15.62,72.235,14.777z"/>
<path fill="#251B14" d="M31.681,17.646c-0.213-0.97-0.389-1.95-0.529-2.933c1.093-0.021,2.187-0.042,3.281-0.061C33.515,15.65,32.598,16.648,31.681,17.646z"/>
<path fill="#22150D" d="M40.653,86.439c0.05-0.979,0.122-1.953,0.218-2.93c0.464-0.455,0.929-0.909,1.393-1.37c0.519,0.394,1.038,0.787,1.557,1.184c-0.017,1.029,0.044,2.051,0.188,3.067C42.892,86.405,41.773,86.42,40.653,86.439z"/>
<path fill="#080505" d="M75.076,30.241c0.094-0.897,0.168-1.794,0.227-2.698c0.117-1.093,0.603-1.987,1.431-2.698c0.646-0.812,1.367-1.557,2.12-2.271c-0.019-0.024,1.183-1.013,1.175-1.028c-0.01-0.012,1.441-0.592,1.441-0.592c0.998,0.016,1.996-0.012,2.992-0.079c0.914,0.692,1.218,1.388,0.916,2.081C85.076,23.652,84.773,24,84.467,24c1.038,1.031,2.075,2.06,3.113,3.091c-0.007,1.074-0.015,2.151-0.021,3.229c0,0.003-1.495,0-1.495,0l-1.489,0.116c-1.056-0.052-2.115-0.107-3.172-0.162c-2.051,1.831-4.109,1.828-6.174,0.024L75.076,30.241z"/>
<path fill="#814E2A" d="M78.24,17.735c1.023,0.009,2.047-0.006,3.071-0.052c0.052,1.09,0.104,2.179,0.157,3.271c0.001,0-0.205-0.159-0.205-0.159c-1.057,1.102-2.223,1.291-3.519,0.421c-0.813-1.318-0.604-2.5,0.479-3.564L78.24,17.735z"/>
<path fill="#241D19" d="M84.467,24c0-1.041,0-2.084-0.002-3.125c1.041,0,2.083,0,3.132,0C87.594,21.918,87.59,22.959,87.59,24h-1.561H84.467z"/>
<path fill="#7B4727" d="M47.246,36.064c-2.179-0.165-4.358-0.33-6.537-0.495c-0.412-1.221-0.377-2.426,0.098-3.622c0.938-1.743,2.481-2.741,4.252-3.464c2.422-1.074,4.826-0.977,7.218,0.101c1.072,0.699,1.674,1.706,1.867,2.96c-0.296,1.196-0.906,2.206-1.87,2.987C50.574,34.943,48.702,34.818,47.246,36.064z"/>
<path fill="#4F2D18" d="M37.823,42.551c-1.051,2.121-2.104,4.239-3.155,6.36c-0.998,0.968-2.064,1.001-3.189,0.232c-0.844-1.081-0.829-2.152,0.044-3.211c1.076-1.944,2.152-3.891,3.226-5.835c0.972,0.87,1.929,1.752,2.875,2.649L37.823,42.551z"/>
<path fill="#120C0A" d="M31.522,45.933c0.125,0.982,0.098,1.959-0.082,2.933c0,0-0.89,1.285-0.887,1.288c-0.909,0.537-1.895,0.836-2.94,0.946c-1.033-0.095-2.046-0.309-3.035-0.623c-1.044-0.177-1.965-0.616-2.762-1.318l-1.454,0.013c0,0-1.456-0.027-1.454-0.027c-0.05-1.123-0.101-2.246-0.152-3.37c-0.001,0,0.081,0.092,0.081,0.092c3.009-1.389,5.217-5.185,9.375-3.122C29.316,43.806,30.419,44.871,31.522,45.933z"/>
<path fill="#17100B" d="M28.211,42.744c-3.125,1.041-6.25,2.082-9.375,3.122c1.079-2.063,2.158-4.126,3.236-6.189c0.633-1.154,1.622-1.642,2.917-1.56c1.222,0.189,2.296,0.696,3.223,1.517C28.214,40.669,28.214,41.706,28.211,42.744z"/>
<path fill="#120C0A" d="M28.282,30.485c2.062-0.08,4.125-0.162,6.186-0.244c1.358,0.891,2.954,1.479,3.793,3.021c0.357,1.086,0.24,2.124-0.349,3.107C34.701,34.406,31.49,32.447,28.282,30.485z"/>
<path fill="#322014" d="M25.044,39.613c-0.99-0.003-1.982,0.018-2.973,0.064c-1.061-1.074-2.121-2.146-3.181-3.22c0.018-1.059,0.038-2.115,0.058-3.174c2.06,1.074,4.119,2.148,6.177,3.226c0.801,0.711,1.056,1.407,0.766,2.091C25.604,39.274,25.321,39.613,25.044,39.613z"/>
<path fill="#120C0A" d="M18.862,30.207c0.008-1.047,0.014-2.093,0.021-3.14c1.094-0.095,2.188-0.186,3.281-0.278c0.549-0.229,1.099-0.455,1.649-0.684c0.368,0.464,0.735,0.934,1.102,1.404c0.088,0.913,0.137,1.831,0.148,2.75C22.996,30.241,20.93,30.222,18.862,30.207z"/>
<path fill="#673D24" d="M56.521,36.747c-0.092,0.897-0.201,1.794-0.333,2.686c-0.967-0.91-1.935-1.816-2.9-2.722c0,0,0.829-1.254,0.829-1.257l1.503,0.088L56.521,36.747z"/>
<path fill="#120C0A" d="M25.044,39.613c0.009-1.038,0.035-2.072,0.081-3.104c1.03,1.041,2.059,2.082,3.088,3.125C27.157,39.625,26.101,39.619,25.044,39.613z"/>
<path fill="#A36D4A" d="M50.121,33.481c1.015-0.113,2.031-0.125,3.049-0.04c0.37,0.476,0.743,0.949,1.115,1.425c-0.448,0.403-0.897,0.806-1.346,1.208c0,0,0.347,0.635,0.348,0.635c-1.055-0.232-2.108-0.464-3.163-0.699c-0.716-0.562-0.954-1.123-0.716-1.685C49.645,33.762,49.883,33.481,50.121,33.481z"/>
<path fill="#9D6643" d="M50.121,33.481c-0.009,0.842-0.008,1.688,0.003,2.53l-1.436,0.296l-1.444-0.244C48.204,35.203,49.163,34.342,50.121,33.481z"/>
<path fill="#7C4E2C" d="M37.911,36.369c-0.22-0.986-0.365-1.984-0.432-2.994c0,0,0.897-1.157,0.896-1.157c-0.001-0.003,1.463,0.003,1.463,0.003c0-0.003,1.106,0.955,1.106,0.955c-0.098,0.8-0.175,1.599-0.235,2.396C39.867,36.152,38.935,36.418,37.911,36.369z"/>
<path fill="#623B23" d="M37.623,42.747c-0.96-0.885-1.919-1.77-2.876-2.652C35.706,40.98,36.665,41.865,37.623,42.747z"/>
<path fill="#532F1A" d="M15.723,30.253c1.039-0.003,2.08-0.003,3.118-0.003c0,1.043,0.001,2.084,0,3.125c-1.042,0-2.083,0-3.125,0C15.715,32.334,15.718,31.294,15.723,30.253z"/>
<path fill="#633F28" d="M34.475,80.256c0.07-0.934,0.183-1.861,0.343-2.78c0.934-0.141,1.869-0.247,2.809-0.314c1.03,1.047,2.06,2.094,3.09,3.138c0.812,0.671,1.082,1.343,0.81,2.014c-0.27,0.672-0.542,1.007-0.813,1.007c0,0,0.154,0.187,0.156,0.189c-1.129-0.079-2.258-0.158-3.387-0.241c-0.836-0.894-1.672-1.788-2.51-2.683L34.475,80.256z"/>
<path fill="#0C0807" d="M37.593,74c-1.042,0-2.083,0-3.125,0c0-1.041,0-2.085,0.004-3.122c1.043-0.003,2.081-0.003,3.122-0.003C37.598,71.918,37.598,72.959,37.593,74z"/>
<path fill="#6C4934" d="M40.714,83.319c0.008-1.007,0.009-2.014,0.003-3.021c1.034,1.01,2.069,2.017,3.104,3.023l-1.553,0.053L40.714,83.319z"/>
<path fill="#5F3C26" d="M37.458,61.772c-0.89,2.097-1.779,4.193-2.67,6.289c-0.503-0.448-1.009-0.899-1.515-1.349c-0.482-1.294-0.587-2.615-0.32-3.97c0.357-0.574,0.718-1.147,1.077-1.722C35.372,60.35,36.515,60.6,37.458,61.772z"/>
<path fill="#5F3C26" d="M28.477,70.609c-0.104-0.943-0.224-1.883-0.358-2.823c0.432-0.43,0.863-0.857,1.295-1.291c1.868-0.659,3.54-0.454,4.907,1.108c0,0,0.462,0.454,0.465,0.454c-0.131,0.928-0.258,1.853-0.374,2.78C32.433,70.762,30.456,70.686,28.477,70.609z"/>
<path fill="#3F2312" d="M37.879,55.274c0.891,1.126,1.782,2.255,2.672,3.384c-0.979-0.158-1.965-0.256-2.957-0.286l-0.911-0.995c-0.001,0,0.078-1.349,0.076-1.349L37.879,55.274z"/>
<path fill="#1D1007" d="M37.458,61.772c-0.933-0.159-1.865-0.309-2.799-0.452c-0.711-1.016-0.677-2.029-0.001-3.049c1-0.766,1.972-0.769,2.912,0.107l0.024-0.006C37.548,59.504,37.504,60.636,37.458,61.772z"/>
<path fill="#18100C" d="M68.812,55.216c-2.051,2.131-4.102,4.258-6.152,6.388c-1.031-0.745-1.567-1.742-1.533-3.027c0.05-1.239,0.454-2.344,1.268-3.29c0.081-2.09,0.16-4.178,0.241-6.269c1.012-0.006,2.021-0.018,3.032-0.039l0.128,0.067c0.942,1.021,1.93,1.998,2.959,2.938l0.093,0.149c0.697,0.692,0.925,1.38,0.682,2.063C69.287,54.874,69.048,55.216,68.812,55.216z"/>
<path fill="#0E0804" d="M62.565,58.262c0.03,1.114,0.063,2.228,0.095,3.342c-0.011,1.034-0.104,2.057-0.282,3.076c-0.998-0.037-1.993-0.064-2.988-0.079c0.032-2.048,0.066-4.096,0.1-6.144C60.454,57.459,61.477,57.35,62.565,58.262z"/>
<path fill="#331D10" d="M62.565,58.262c-1.027,0.04-2.053,0.104-3.076,0.192c0.971-1.056,1.939-2.112,2.908-3.168C62.469,56.278,62.527,57.267,62.565,58.262z"/>
<path fill="#150C08" d="M34.427,52.152c1.058-0.006,2.115-0.016,3.172-0.021c0.092,1.047,0.183,2.094,0.276,3.144c0.003,0-0.591-0.07-0.591-0.07c-0.883,1.19-1.939,1.373-3.169,0.546c-0.191-0.619-0.381-1.242-0.572-1.861C33.839,53.309,34.133,52.732,34.427,52.152z"/>
<path fill="#0C0807" d="M31.44,48.865c1.074,0.016,2.148,0.03,3.226,0.046c-0.078,1.08-0.157,2.161-0.237,3.241c-0.001,0-0.061,0.104-0.061,0.104c-1.134,0.965-2.316,1.028-3.548,0.192c-0.755-1.3-0.572-2.45,0.549-3.451L31.44,48.865z"/>
<path fill="#3C2314" d="M62.443,45.835c0.044-1.019,0.116-2.035,0.217-3.048c0.979,1.025,1.959,2.051,2.936,3.073C64.544,45.854,63.492,45.844,62.443,45.835z"/>
<path fill="#392012" d="M59.48,73.987c0.006,1.056,0.014,2.115,0.021,3.171c-1.061-0.009-2.123-0.021-3.185-0.03C57.37,76.081,58.425,75.034,59.48,73.987z"/>
<path fill="#493220" d="M62.95,64.606c1.923,1.02,3.846,2.042,5.767,3.061c-1.899,0.034-3.798,0.07-5.69,0.104C63.004,66.718,62.977,65.662,62.95,64.606z"/>
<path fill="#744022" d="M53.17,33.442c0.027-0.931,0.032-1.865,0.011-2.798c1.888-2.023,3.977-2.292,6.277-0.723c0.909,0.357,1.851,0.58,2.824,0.662c0.853,0.491,1.232,1.086,1.143,1.788c-0.098,0.754-0.261,1.129-0.491,1.129l-0.73-0.113c-0.603,1.12-1.467,1.99-2.552,2.643c-1.045,0.238-2.089,0.476-3.133,0.714c0.002,0.003-0.383-0.504-0.383-0.504c-1.058-0.875-2.043-1.828-2.963-2.85L53.17,33.442z"/>
<path fill="#814C28" d="M59.652,36.03c0.852-0.882,1.703-1.761,2.553-2.643c0.271,0.909,0.357,1.834,0.258,2.777c0-0.003-1.416,0.134-1.416,0.134L59.652,36.03z"/>
<path fill="#382316" d="M81.277,52.164c0.024,2.069,0.05,4.142,0.074,6.211c-1.069,0.799-2.242,1.053-3.541,0.677c-2.46-1.025-4.313-2.703-5.504-5.099c-0.131-0.623-0.258-1.252-0.385-1.877C75.038,52.106,78.157,52.134,81.277,52.164z"/>
<path fill="#382012" d="M81.333,36.491c0.017,1.038,0.027,2.075,0.03,3.113c0.957,0.735,1.27,1.465,0.941,2.185c-0.328,0.717-0.653,1.074-0.979,1.074c-2.049-3.067-4.1-6.137-6.148-9.204c0.694-1.065,1.649-1.504,2.908-1.221C79.639,33.408,80.096,35.264,81.333,36.491z"/>
<path fill="#080505" d="M78.365,33.677c-1.063-0.009-2.126-0.018-3.188-0.021c0.017-1.12,0.031-2.24,0.05-3.36c2.059-0.006,4.117-0.015,6.176-0.021c-0.021,1.046-0.042,2.096-0.063,3.143C80.431,34.437,79.443,34.574,78.365,33.677z"/>
<path fill="#301B0F" d="M81.326,42.863c0.013-1.086,0.024-2.173,0.037-3.256c1.036,0.009,2.072,0.015,3.106,0.021c0.011,2.06,0.021,4.117,0.032,6.177C83.445,44.822,82.386,43.842,81.326,42.863z"/>
<path fill="#0B0807" d="M68.754,51.984c-0.987-0.979-1.974-1.962-2.959-2.942C66.781,50.025,67.767,51.005,68.754,51.984z"/>
<path fill="#382316" d="M68.812,55.216c0.014-1.028,0.024-2.057,0.035-3.082c1.025-0.016,2.051-0.033,3.076-0.058c-0.002,0,0.105,0.164,0.105,0.164c0.621,2.723-0.471,3.696-3.132,3.064L68.812,55.216z"/>
<path fill="#3A2316" d="M62.934,33.5c-0.282-0.958-0.497-1.932-0.648-2.92c1.16-0.116,2.322-0.238,3.485-0.36C64.826,31.315,63.88,32.407,62.934,33.5z"/>
<path fill="#140B06" d="M78.391,58.497c0.987-0.027,1.975-0.07,2.96-0.122l0.129,0.076c0.723,0.714,0.944,1.406,0.665,2.078c-0.274,0.662-0.54,0.992-0.797,0.992c-1.051,3.112-2.103,6.222-3.153,9.335c-0.995-1.01-1.988-2.021-2.98-3.03c-0.014-1.017,0.002-2.036,0.048-3.055c-0.028-1.917,0.323-3.721,1.533-5.276C77.324,59.159,77.859,58.829,78.391,58.497z"/>
<path fill="#0A0605" d="M81.348,61.522c0.01-1.025,0.052-2.051,0.13-3.073c1.011-0.043,2.018-0.064,3.026-0.062C83.452,59.431,82.4,60.478,81.348,61.522z"/>
<path fill="#412717" d="M78.365,33.677c0.982-0.192,1.975-0.281,2.976-0.259c0.012,1.025,0.01,2.051-0.008,3.073C80.344,35.554,79.354,34.614,78.365,33.677z"/>
<path fill="#0C0807" d="M21.977,70.848l-1.306-0.053l-1.303,0.076c-2.151-1.464-2.071-3.567-1.642-5.771c0.861-1.239,2.03-2.011,3.505-2.325c0.728,0.049,1.456,0.106,2.185,0.158c0.648,0.336,1.295,0.675,1.944,1.014c0.917,1.343,0.776,2.609-0.284,3.806l-0.258,0.165c-0.784,1.034-1.692,1.94-2.724,2.725L21.977,70.848z"/>
<path fill="#684630" d="M18.45,64.75c0.302,2.041,0.605,4.083,0.912,6.121c-1.201-2.111-2.408-4.227-3.613-6.341C16.74,63.511,17.638,63.587,18.45,64.75z"/>
<path fill="#140F0D" d="M18.45,64.75c-0.905-0.024-1.805-0.098-2.701-0.22c0.014-1.001-0.009-1.999-0.068-2.997l0.218-0.113c0.9-0.988,2.017-1.544,3.349-1.666c0.641,0.098,1.282,0.198,1.924,0.296c0.516,0.391,1.03,0.788,1.545,1.182c0.603,1.287,0.374,2.407-0.682,3.359C20.84,64.647,19.645,64.698,18.45,64.75z"/>
<path fill="#5F3C26" d="M34.896,58.197c-0.08,1.044-0.16,2.085-0.24,3.125c0.003-0.003-0.35,0.339-0.35,0.339c-1.698,1.819-3.729,3.125-6.074,3.955c-1.251,0.342-2.379,0.101-3.381-0.72l0.201-0.113c-1.062-1.044-2.164-2.051-3.01-3.293l-0.081,0.016c-1.03-0.748-1.594-1.742-1.626-3.027c0.087-1.258,0.587-2.311,1.558-3.128c1.057-0.034,2.116-0.067,3.174-0.104c0.935-1.038,2.098-1.63,3.486-1.782c2.063,0.451,3.658,1.669,5.103,3.128C34.071,57.127,34.484,57.664,34.896,58.197z"/>
<path fill="#69442E" d="M28.218,55.25c-1.05,0-2.1-0.003-3.151-0.003c-0.024-1.087-0.047-2.173-0.072-3.26c-0.791-0.787-0.974-1.452-0.551-2.002c0.375-0.485,0.737-0.729,1.089-0.729c0.796,0.055,1.59,0.027,2.38-0.085c1.104,0.701,1.71,1.702,1.82,3.006C29.825,53.495,29.348,54.532,28.218,55.25z"/>
<path fill="#25160C" d="M25.533,49.256c-0.182,0.909-0.362,1.822-0.539,2.731c-1.059-0.946-2.118-1.889-3.177-2.829C23.055,49.192,24.294,49.226,25.533,49.256z"/>
<path fill="#6B482F" d="M21.893,55.351c0.041,1.007,0.067,2.014,0.075,3.021c-0.545,0.451-1.091,0.903-1.636,1.357c-0.575-0.405-1.152-0.82-1.729-1.232c0.162-1.028,0.324-2.058,0.487-3.086C20.025,55.338,20.957,55.32,21.893,55.351z"/>
<path fill="#0E0907" d="M18.848,61.497c-0.985-0.004-1.97-0.031-2.951-0.077c-0.103-1.004-0.153-2.011-0.153-3.018c0.955,0.009,1.907,0.039,2.859,0.092c-0.001,0.003,0.248-0.126,0.248-0.126c0.818,0.696,1.091,1.392,0.818,2.088C19.396,61.151,19.123,61.497,18.848,61.497z"/>
<path fill="#452D1E" d="M68.897,55.305c1.044-1.022,2.088-2.045,3.132-3.067c2.119,2.088,4.238,4.172,6.361,6.26c0.001,0-0.133-0.101-0.133-0.101c-1.706,1.821-3.697,3.066-6.287,3.101C70.947,59.434,69.921,57.367,68.897,55.305z"/>
<path fill="#493020" d="M71.97,61.497c2.096-1.035,4.19-2.069,6.285-3.101c-0.998,2.124-1.997,4.248-2.995,6.372C74.164,63.679,73.068,62.586,71.97,61.497z"/>
<path fill="#6E4A32" d="M34.972,80.585c0.838,0.897,1.675,1.792,2.512,2.686C36.646,82.374,35.81,81.48,34.972,80.585z"/>
<path fill="#4C311F" d="M24.851,64.897c1.112-0.083,2.225-0.165,3.337-0.244c0.731,0.559,1.044,1.184,0.94,1.877c-0.11,0.723-0.267,1.086-0.47,1.086c0,0-0.537,0.168-0.539,0.168c-1.015-0.009-2.03-0.019-3.044-0.03C24.996,66.801,24.922,65.849,24.851,64.897z"/>
<path fill="#0C0807" d="M22.094,70.643c0.91-0.909,1.819-1.818,2.725-2.725c0.157,0.973,0.244,1.953,0.256,2.941C24.076,70.856,23.083,70.783,22.094,70.643z"/>
<path fill="#120C0A" d="M59.458,29.92c-2.094,0.238-4.186,0.479-6.277,0.72c-3.19,0.012-6.381,0.021-9.572,0.03c-0.973,0.699-2.063,1.028-3.256,1.044c-0.58-0.08-1.16-0.162-1.74-0.241c-0.299-0.503-0.598-1.007-0.896-1.511c2.217-1.056,4.434-2.112,6.653-3.167c1.018-0.895,2.138-1.627,3.37-2.197c1.977-0.602,3.992-0.742,6.041-0.546c2.072,0.287,3.846,1.236,5.46,2.524C59.313,27.69,59.385,28.806,59.458,29.92z"/>
<path fill="#815033" d="M25.1,20.881c1.984-0.979,3.969-1.956,5.95-2.933c-2.046,3.186-4.089,6.372-6.133,9.558c-0.001,0.003,0.301-0.556,0.301-0.556C23.092,24.967,23.415,22.935,25.1,20.881z"/>
<path fill="#895738" d="M47.179,26.292c-0.923,0.256-1.862,0.424-2.812,0.504c-0.276-0.931-0.455-1.88-0.534-2.851c-1.746-1.962-1.875-3.897,0.096-5.798c0,0-0.29-0.992-0.29-0.995c2.159,0.274,4.32,0.552,6.479,0.83C52.303,21.873,49.525,24.006,47.179,26.292z"/>
<path fill="#A47049" d="M43.929,18.147c-0.032,1.932-0.064,3.867-0.096,5.798C43.865,22.013,43.897,20.078,43.929,18.147z"/>
<path fill="#43372E" d="M37.479,33.375c-1.004-1.044-2.008-2.087-3.012-3.134c1.083-0.092,2.165-0.183,3.249-0.275c0.001-0.003-0.151,0.385-0.151,0.385c1.055,0.628,1.432,1.3,1.137,2.014c-0.303,0.729-0.619,1.096-0.95,1.096L37.479,33.375z"/>
<path fill="#A46D47" d="M47.179,26.292c0.98-2.771,1.959-5.542,2.939-8.31c1.036-0.223,2.072-0.449,3.108-0.674c0.853,0.46,1.734,0.867,2.643,1.211c2.223,3.778-0.32,5.902-2.796,8.047C51.109,26.475,49.143,26.383,47.179,26.292z"/>
<path fill="#63371E" d="M25.1,20.881c0.038,2.023,0.078,4.047,0.116,6.07c0.001,0-1.534,0.037-1.534,0.037s-1.521-0.195-1.52-0.195C23.142,24.818,24.122,22.849,25.1,20.881z"/>
<path fill="#895738" d="M53.073,26.566c0.933-2.686,1.866-5.368,2.797-8.05c1.192-0.248,2.386-0.495,3.577-0.745l-0.003-0.006c1.788,2.014,1.761,4.12,0.332,6.302c-0.299,0.812-0.478,1.651-0.535,2.512C57.185,26.572,55.129,26.569,53.073,26.566z"/>
<path fill="#3A2316" d="M59.777,24.067c-0.109-2.1-0.221-4.199-0.332-6.302C59.556,19.868,59.667,21.967,59.777,24.067z"/>
<path fill="#905733" d="M77.884,26.743c-0.875,0.22-1.736,0.485-2.583,0.8c-2.129-3.241-4.259-6.482-6.387-9.723c1.021-0.083,2.046-0.101,3.069-0.052l-0.102-0.082c2.255,1.81,4.719,3.369,6.644,5.578c0.318,0.656,0.632,1.315,0.949,1.975C78.947,25.739,78.415,26.24,77.884,26.743z"/>
<path fill="#522F1A" d="M77.97,24.226c-2.029-2.179-4.059-4.361-6.088-6.54c2.113-0.012,4.228-0.021,6.343-0.034c0,1.086,0,2.17,0,3.253c0.999,0.821,1.294,1.584,0.887,2.295C78.719,23.884,78.339,24.226,77.97,24.226z"/>
<path fill="#3A2316" d="M77.97,24.226c0.085-1.108,0.169-2.212,0.255-3.32c1.013-0.064,2.026-0.101,3.041-0.11c-0.044,1.102-0.089,2.2-0.133,3.302c-1.015,0.909-2.057,0.943-3.131,0.106L77.97,24.226z"/>
<path fill="#522F1A" d="M78.002,24.204c1.045-0.037,2.09-0.073,3.133-0.11c-1.084,0.885-2.166,1.767-3.249,2.649C77.981,25.898,78.021,25.053,78.002,24.204z"/>
<path fill="#976240" d="M40.919,30.519c0.913-0.22,1.81-0.171,2.692,0.152c-0.891,0.836-1.781,1.675-2.669,2.509c0.003-0.003-0.136,0.165-0.136,0.165c-0.899-0.665-1.181-1.306-0.849-1.922C40.282,30.82,40.601,30.519,40.919,30.519z"/>
<path fill="#25160C" d="M28.274,52.045c-0.09-0.964-0.208-1.922-0.357-2.874c1.149-0.059,2.301-0.116,3.453-0.174c0.032,0.985,0.049,1.974,0.05,2.96C30.408,53.321,29.362,53.416,28.274,52.045z"/>
<path fill="#794424" d="M53.173,33.39c0.99,0.952,1.979,1.904,2.966,2.854c-1.066-0.055-2.131-0.11-3.198-0.165C53.105,35.188,53.182,34.294,53.173,33.39z"/>
<path fill="#4C3E35" d="M40.919,30.519c-0.157,0.937-0.197,1.88-0.114,2.826c-1.021,0.012-2.04,0.049-3.057,0.116c-0.111-1.035-0.172-2.072-0.183-3.113C38.683,30.405,39.8,30.46,40.919,30.519z"/>
<path fill="#69442E" d="M28.658,67.615c-0.264-0.971-0.421-1.959-0.47-2.963c2.042-0.998,4.082-1.996,6.121-2.991c0.004,1.98,0.009,3.965,0.014,5.942C32.433,67.606,30.546,67.612,28.658,67.615z"/>
<path fill="#0C0807" d="M34.545,55.259c0.917-0.003,1.831-0.021,2.744-0.055c0.091,1.059,0.186,2.114,0.281,3.174c-0.896-0.03-1.789-0.089-2.675-0.177c0.001-0.004-0.603,0.21-0.603,0.21c-0.863-0.775-1.114-1.498-0.752-2.176C33.889,55.585,34.223,55.259,34.545,55.259z"/>
<path fill="#573A26" d="M34.545,55.259c-0.083,1.05-0.167,2.103-0.25,3.152c-2.028-1.053-4.053-2.108-6.078-3.161c0.018-1.068,0.037-2.137,0.055-3.205c1.05-0.027,2.098-0.058,3.148-0.085c0.967,0.26,1.952,0.357,2.95,0.296C34.298,53.266,34.358,54.267,34.545,55.259z"/>
<path fill="#6B4933" d="M22.042,61.49c1.004,1.099,2.006,2.194,3.01,3.293l-1.517,0.016l-1.501-0.208C21.992,63.557,21.995,62.525,22.042,61.49z"/>
<path fill="#4C311F" d="M18.848,61.497c-0.003-1.041-0.004-2.082-0.001-3.125c1.042,0,2.082,0.003,3.121,0.003c0,1.04,0,2.081-0.003,3.128c-0.003,0.003-1.559-0.006-1.559-0.006H18.848z"/>
</svg>