<?xml version="1.0" encoding="utf-8"?>
<!DOCTYPE svg PUBLIC "-//W3C//DTD SVG 1.1//EN" "http://www.w3.org/Graphics/SVG/1.1/DTD/svg11.dtd">
<svg version="1.1" xmlns="http://www.w3.org/2000/svg" xmlns:xlink="http://www.w3.org/1999/xlink" x="0px" y="0px" width="100px" height="100px" viewBox="0 0 100 100" enable-background="new 0 0 100 100" xml:space="preserve">
<path fill="#514D48" d="M53.217-1c-0.028,0.931,0.013,1.861,0.121,2.786c-0.449,0.482-0.897,0.964-1.346,1.447c-1.287,0.394-2.573,0.412-3.859,0.003c-0.45-0.482-0.897-0.967-1.346-1.45c0.159-0.921,0.218-1.853,0.18-2.786C49.05-1,51.134-1,53.217-1z"/>
<path fill="#1A1612" d="M9.225,77.274c0.027-18.823,0.053-37.646,0.08-56.473c1.132-1.038,2.388-1.218,3.767-0.546c1.552,1.547,2.249,3.479,2.516,5.594c0.119,1.34,0.06,2.688-0.119,4.022c-0.558,3.119-1.765,6.097-2.141,9.259c-0.027,1.19-0.099,2.383-0.11,3.564c0.154,1.15,0.284,2.307,0.488,3.449c0.493,2.268,1.874,4.192,2.518,6.394c0.127,1.129-0.068,2.212-0.587,3.219c-0.809,1.325-1.723,2.604-2.375,4.022c-0.439,1.419-0.656,2.875-0.64,4.37c0.125,1.007,0.238,2.002,0.435,3c0.467,1.551,1.019,3.058,1.445,4.626c0.215,1.154,0.21,2.295,0.024,3.452c-0.223,0.552-0.456,1.089-0.687,1.639c-0.446,0.399-0.893,0.787-1.343,1.181C11.268,78.366,10.185,78.08,9.225,77.274z"/>
<path fill="#15120D" d="M53.39,95.944c-3.146-0.198-6.294-0.399-9.441-0.601c-1.012-2.423-0.809-4.978-0.857-7.508c-0.029-1.263,0.017-2.526,0.053-3.784c0.252-4.52-0.917-8.673-3.219-12.552c-1.032-4.327,2.63-7.366,3.041-11.313c0.449-2.097,1.092-4.104,2.124-5.994c0.891-1.238,2.067-2.057,3.529-2.48c1.461,0.497,2.619,1.386,3.496,2.651c3.846,9.354,1.161,19.294,2.617,28.857c0.277,1.432,0.383,2.884,0.374,4.343C55.197,90.488,53.933,93.141,53.39,95.944z"/>
<path fill="#2D2518" d="M31.384,88.941c-3.186-1.716-6.371-3.428-9.557-5.14c-0.659-0.958-1.088-2.005-1.254-3.158c-0.069-2.344-0.026-4.685,0.185-7.031c0.194-1.236,0.665-2.344,1.428-3.339c0.964-0.833,2.058-1.419,3.262-1.825c1.899-0.461,3.809-0.491,5.736-0.188c1.288,0.269,2.502,0.729,3.665,1.343c1.694,1.08,3.01,2.496,3.818,4.357c0.425,2.731-0.719,5.038-1.964,7.321c-0.838,1.688-1.725,3.356-2.703,4.975C33.216,87.232,32.342,88.126,31.384,88.941z"/>
<path fill="#13100D" d="M93.332,33.387c-0.787,14.618-1.574,29.233-2.362,43.847c-0.488,0.342-0.978,0.684-1.465,1.025c-0.59-0.064-1.183-0.131-1.772-0.192c-0.977-0.717-1.608-1.672-1.955-2.819c-0.161-1.139-0.114-2.283,0.104-3.409c0.395-1.565,0.946-3.104,1.347-4.669c0.12-1.01,0.253-2.029,0.3-3.046c-0.082-1.007-0.182-2.011-0.401-3c-0.381-0.964-0.773-1.907-1.279-2.813c-1.16-1.843-2.506-3.613-2.21-5.979c0.656-1.532,1.642-2.875,2.493-4.291c0.376-1.025,0.749-2.05,1.02-3.118c0.098-1.135,0.241-2.25,0.334-3.385c0.02-1.196,0.149-2.359,0.32-3.537c0.313-1.855,0.966-3.546,2.229-4.965C91.221,32.343,92.321,32.462,93.332,33.387z"/>
<path fill="#181511" d="M93.332,33.387c-0.871-0.006-1.744-0.012-2.615-0.012c-0.633,1.046-1.543,1.547-2.783,1.419c-1.707-0.437-3.245-1.233-4.736-2.155c-1.006-0.631-1.875-1.416-2.661-2.304c-0.668-0.992-1.124-2.072-1.407-3.232c-0.152-1.172-0.109-2.344,0.118-3.5c0.364-1.099,0.942-2.084,1.73-2.926c0.904-0.65,1.924-0.943,3.014-0.827c1.029,0.314,1.655,1.031,1.832,2.105c-0.003-0.03,0.57,1.242,0.57,1.242s-0.136-1.389-0.136-1.407c0.233-1.086,0.872-1.773,1.928-2.09c1.094-0.11,1.994,0.25,2.713,1.068C91.71,24.973,92.521,29.182,93.332,33.387z"/>
<path fill="#110F0C" d="M78.44,83.598c-2.089,0.994-4.178,1.989-6.268,2.987c-0.492,0.357-0.981,0.714-1.47,1.071c-1.25-0.058-2.3-0.537-3.116-1.495c-0.795-1.651-0.909-3.369-0.461-5.127c-0.548-0.995,2.797-2.466-0.429-3.159c-0.934-0.793-1.395-1.782-1.403-3.003c0.552-1.129,1.365-1.98,2.452-2.597c3.349-1.126,6.223-0.477,8.559,2.237c0.719,1.062,1.259,2.212,1.658,3.43c0.301,1.233,0.432,2.49,0.396,3.763C78.388,82.334,78.414,82.966,78.44,83.598z"/>
<path fill="#2F2A24" d="M68.749,9.068c3.108,1.864,6.215,3.726,9.323,5.591c-0.457,0.497-0.913,0.995-1.364,1.498c-1.201,0.653-2.477,1.081-3.832,1.276c-1.367,0.079-2.71-0.08-4.037-0.412c-1.278-0.5-2.39-1.251-3.317-2.271c-0.66-1.239-0.76-2.539-0.381-3.882C66.267,10.118,67.467,9.513,68.749,9.068z"/>
<path fill="#12100D" d="M53.39,95.944c-0.059-2.108-0.116-4.217-0.173-6.326c0,0,1.364,0.156,1.367,0.144c0.938-0.198,1.758-0.607,2.486-1.254c0.015-0.01,1.443-0.092,1.461-0.092c1.117,0.189,1.828,0.818,2.155,1.893c-0.021,1.064-0.388,1.983-1.096,2.768C57.524,94.034,55.457,94.989,53.39,95.944z"/>
<path fill="#2F2A24" d="M21.797,14.436c3.219-1.791,6.439-3.583,9.657-5.371c1.286,0.452,2.496,1.059,3.631,1.822c0.359,1.37,0.225,2.682-0.471,3.931c-0.977,1.013-2.138,1.736-3.45,2.234c-1.359,0.348-2.742,0.473-4.144,0.409c-1.394-0.21-2.703-0.668-3.92-1.382C22.663,15.534,22.23,14.985,21.797,14.436z"/>
<path fill="#44341D" d="M40.608,4.948c2.06-1.056,4.12-2.109,6.18-3.162l0.22,1.19c1.013,0.796,1.558,1.837,1.639,3.125c-0.188,1.27-0.755,2.344-1.642,3.259c-1.142,0.58-2.353,0.814-3.627,0.763c-1.243-0.314-2.298-0.958-3.19-1.877C39.512,7.044,39.652,5.946,40.608,4.948z"/>
<path fill="#392D1C" d="M53.338,1.786c2.104,1.093,4.208,2.182,6.313,3.274c-0.146,0.574-0.291,1.145-0.433,1.721c-0.719,0.961-1.6,1.737-2.658,2.307c-1.163,0.382-2.322,0.348-3.48-0.027c-0.854-0.87-1.364-1.91-1.534-3.119c0.105-1.236,0.675-2.207,1.703-2.909L53.338,1.786z"/>
<path fill="#3E3324" d="M84.114,20.979c-0.669,0.205-1.339,0.403-2.01,0.592c-0.521-0.302-1.039-0.607-1.56-0.91c-0.046-0.601-0.09-1.202-0.136-1.803c0.388-0.461,0.775-0.922,1.162-1.383c3.11,1.099,6.22,2.194,9.328,3.293l-1.386,0.293l-1.416-0.046c-0.668,0.541-1.338,1.083-2.006,1.624C85.432,22.086,84.773,21.534,84.114,20.979z"/>
<path fill="#302619" d="M36.733,89.918l-1.27,0.131l-1.024-0.76c-0.798-0.681-1.133-1.422-1.007-2.228c0.13-0.837,0.308-1.255,0.533-1.255c1.647-1.357,3.575-1.87,5.671-1.87c1.351,0.125,2.625,0.53,3.825,1.153c0.435,0.497,0.87,1.007,1.305,1.511c0.377,1.324,0.144,2.557-0.612,3.695c-1.15,0.668-2.394,0.94-3.722,0.814C39.17,90.815,37.937,90.412,36.733,89.918z"/>
<path fill="#1D170F" d="M59.47,89.643c-1.045-0.006-2.089-0.012-3.134-0.018c-0.719-0.65-1.071-1.386-1.059-2.197c0.014-0.854,0.112-1.282,0.293-1.288c2.07-2.063,4.62-2.396,7.363-2.048c1.299,0.333,2.454,0.943,3.447,1.85c0.664,1.284,0.488,2.414-0.653,3.354l-1.009,0.754l-1.253-0.106C62.061,90.83,60.725,90.781,59.47,89.643z"/>
<path fill="#23201B" d="M40.698,89.649c1.053-0.01,2.105-0.021,3.16-0.034c1.027-1.508,2.069-1.59,3.125-0.027c-1.012,1.92-2.023,3.836-3.034,5.756c-1.12-0.742-2.24-1.486-3.358-2.228c-0.737-0.794-0.967-1.572-0.689-2.335C40.174,90.027,40.44,89.649,40.698,89.649z"/>
<path fill="#4D3E27" d="M34.484,14.64c-0.137-1.132-0.276-2.261-0.414-3.394l-0.844-1.267l1.161-0.982c1.089-0.156,2.179-0.312,3.269-0.467c0.43,0.348,0.86,0.692,1.295,1.038c0.409,1.046,0.537,2.13,0.396,3.247c-0.328,1.086-0.972,1.95-1.875,2.627c-0.546,0.055-1.096,0.107-1.644,0.159C35.383,15.281,34.934,14.96,34.484,14.64z"/>
<path fill="#322B23" d="M12.089,21.147c-0.943,0.006-1.871-0.107-2.785-0.345c2.138-0.849,4.275-1.697,6.412-2.545c0.288,0.586,0.577,1.175,0.865,1.767c-0.342,0.562-0.684,1.12-1.025,1.682C14.268,22.343,13.111,22.153,12.089,21.147z"/>
<path fill="#26211A" d="M40.608,4.948c-0.134,0.854-0.138,1.709-0.009,2.563c-0.127,0.58-0.253,1.16-0.383,1.743c-1.252,0.522-2.167,0.208-2.69-1.081c0,0,0.133,0.36,0.131,0.36C38.639,7.337,39.623,6.141,40.608,4.948z"/>
<path fill="#26211A" d="M59.652,5.061c0.968,1.16,1.937,2.316,2.905,3.476c0,0-1.26,0.656-1.262,0.656c-1.042,0.003-1.851-0.43-2.431-1.297c-0.686-1.01-0.505-1.834,0.539-2.469L59.652,5.061z"/>
<path fill="#26211A" d="M34.388,8.998c-0.14,0.748-0.243,1.499-0.314,2.252c-0.875-0.732-1.747-1.458-2.62-2.185C32.417,8.335,33.393,8.311,34.388,8.998z"/>
<path fill="#6C542F" d="M62.557,8.537c1.09,0.073,2.179,0.149,3.271,0.223c0.613,0.602,0.823,1.208,0.632,1.822c-0.194,0.613-0.391,0.921-0.593,0.921l-0.302-0.095c-1.087,0.727-2.148,0.727-3.179-0.116c-0.751-1.111-0.657-2.143,0.279-3.101L62.557,8.537z"/>
<path fill="#26211A" d="M65.866,11.503c-0.008-0.916-0.021-1.828-0.039-2.744c1.034-0.47,2.008-0.369,2.922,0.309C67.787,9.879,66.828,10.691,65.866,11.503z"/>
<path fill="#26211A" d="M18.89,17.915c0.969-1.16,1.938-2.319,2.907-3.479l0.208,0.305c0.76,0.635,1.08,1.331,0.961,2.087c-0.122,0.788-0.291,1.181-0.505,1.181c-0.6,0.22-1.202,0.442-1.804,0.666C20.069,18.421,19.479,18.168,18.89,17.915z"/>
<path fill="#26211A" d="M78.073,14.659c1.165,0.94,2.333,1.88,3.498,2.82c0-0.003-0.188,0.14-0.188,0.14c-0.544,0.455-1.087,0.91-1.63,1.364c-0.651-0.281-1.303-0.562-1.956-0.842c-0.794-1.352-0.658-2.563,0.56-3.604L78.073,14.659z"/>
<path fill="#362E24" d="M15.985,21.064c-0.138-0.931-0.228-1.868-0.269-2.808c1.061-0.116,2.119-0.229,3.177-0.342c-0.003,0-0.126-0.33-0.126-0.33c0.737,0.556,1.045,1.169,0.926,1.85c-0.125,0.708-0.291,1.062-0.497,1.065C18.229,21.272,17.164,21.491,15.985,21.064z"/>
<path fill="#413420" d="M9.225,77.274c1.131-0.059,2.261-0.113,3.391-0.171c0.639,0.552,0.856,1.113,0.653,1.678c-0.203,0.565-0.41,0.849-0.621,0.849C11.508,78.846,10.366,78.062,9.225,77.274z"/>
<path fill="#1A1612" d="M12.647,79.63c0.008-0.842-0.003-1.685-0.032-2.526l-0.058,0.061c0.697-0.326,1.393-0.653,2.09-0.979c0.579,0.504,1.157,1.014,1.736,1.52c-0.226,0.735-0.452,1.472-0.677,2.207C14.687,79.816,13.668,79.725,12.647,79.63z"/>
<path fill="#251E13" d="M15.707,79.911c-0.001-0.903-0.014-1.807-0.034-2.707c1.244-0.607,2.396-0.498,3.444,0.439c0.208,0.61,0.414,1.224,0.62,1.834c-0.48,0.431-0.963,0.86-1.446,1.288C17.266,80.973,16.406,80.69,15.707,79.911z"/>
<path fill="#17130C" d="M84.472,79.908c-0.707,0.781-1.576,1.067-2.608,0.863c-0.436-0.391-0.871-0.778-1.308-1.169c0.04-1.221,0.525-2.228,1.458-3.021c1.179-0.405,2.284-0.262,3.318,0.434C85.888,78.232,85.601,79.196,84.472,79.908z"/>
<path fill="#110F0C" d="M84.472,79.908c0.003-0.916,0.006-1.835,0.011-2.753c1.026-1.12,2.063-1.126,3.107-0.021l-0.004-0.009c0.733,0.57,0.969,1.126,0.706,1.669c-0.259,0.537-0.514,0.806-0.768,0.806C86.507,79.703,85.49,79.804,84.472,79.908z"/>
<path fill="#252320" d="M87.525,79.6c0.016-0.827,0.037-1.651,0.063-2.475c1.128,0.036,2.256,0.073,3.383,0.109C89.822,78.024,88.674,78.813,87.525,79.6z"/>
<path fill="#1A1612" d="M21.934,80.341c-0.037,1.154-0.072,2.308-0.107,3.461c-1.179-1.013-2.357-2.023-3.537-3.036l0.627-0.522C19.953,79.318,20.959,79.353,21.934,80.341z"/>
<path fill="#110F0C" d="M81.864,80.772c-1.141,0.943-2.282,1.883-3.424,2.826l-0.391-0.501c-0.694-0.727-0.964-1.486-0.812-2.279c0.155-0.809,0.339-1.212,0.545-1.212c1.313-0.607,2.474-0.36,3.502,0.632L81.864,80.772z"/>
<path fill="#1A1612" d="M34.365,86.838c0.054,0.815,0.08,1.633,0.075,2.451c-1.018-0.116-2.037-0.232-3.056-0.348c0.058-0.959,0.104-1.917,0.133-2.875C32.719,85.395,33.656,85.694,34.365,86.838z"/>
<path fill="#110F0C" d="M65.728,89.295c0.017-0.885,0.048-1.767,0.089-2.652c0.925-1.153,1.916-1.217,2.979-0.188l0.065,0.066c0.715,0.55,0.943,1.09,0.69,1.618c-0.252,0.521-0.499,0.784-0.746,0.784C67.781,89.048,66.753,89.17,65.728,89.295z"/>
<path fill="#201A11" d="M68.806,88.923c-0.002-0.803,0.017-1.603,0.056-2.405c1.104,0.024,2.207,0.043,3.311,0.064C71.05,87.363,69.927,88.145,68.806,88.923z"/>
<path fill="#1A1612" d="M40.698,89.649c-0.037,1.156-0.072,2.31-0.107,3.467c-1.285-1.068-2.569-2.134-3.856-3.198C38.054,89.829,39.376,89.737,40.698,89.649z"/>
<path fill="#110F0C" d="M59.47,89.643c1.331,0.101,2.661,0.198,3.995,0.296c-1.291,1.047-2.583,2.094-3.874,3.138C59.55,91.932,59.51,90.787,59.47,89.643z"/>
<path fill="#423C32" d="M53.249,3.034c-0.104,0.854-0.2,1.712-0.291,2.567c-1.874,1.522-3.777,1.544-5.708,0.113c-0.089-0.916-0.168-1.831-0.241-2.744C49.088,2.998,51.168,3.016,53.249,3.034z"/>
<path fill="#8B7658" d="M9.922,42.96c-0.124-1.062-0.249-2.124-0.372-3.186c3.113-2.731,3.949-6.763,5.826-10.22c1.343-0.525,2.699-0.604,4.099-0.253c2.023,1.016,3.489,2.557,4.436,4.611c1.667,5.804,0.064,10.306-5.306,13.303c-1.423,0.491-2.893,0.613-4.387,0.439C11.788,47.007,10.926,44.919,9.922,42.96z"/>
<path fill="#5A421D" d="M18.264,77.527c-0.848-0.226-1.712-0.336-2.591-0.326c0,0.003,0.093-0.251,0.093-0.251c-1.178-0.869-2.265-1.843-3.262-2.914c-0.191-0.931-0.301-1.871-0.325-2.819c-0.523-1.004-0.871-2.066-1.071-3.177c-0.068-1.151-0.49-2.152-1.263-3.007c-0.012-2.222-0.024-4.443-0.037-6.665c0.75-0.854,1.68-1.354,2.818-1.449c1.111-0.006,2.159,0.25,3.145,0.763c0.841,0.696,1.558,1.508,2.156,2.424c0.859,1.36,1.568,2.804,2.097,4.333c0.256,1.028,0.369,2.081,0.387,3.144c0.019,1.587-0.093,3.177,0.057,4.77c0.169,1.074,0.212,2.148,0.139,3.235c-0.258,0.481-0.521,0.958-0.783,1.44C19.305,77.198,18.784,77.362,18.264,77.527z"/>
<path fill="#1A1612" d="M18.313,30.476c-0.61,0.113-1.224,0.202-1.841,0.266c-1.485,1.434-2.777,1.275-3.875-0.473c-0.003-1.035-0.007-2.069-0.014-3.106c2.071-1.505,0.998-4.675,3.226-6.101c0,0,0.169,0,0.172,0.003c0.713,0.077,1.425,0.095,2.138,0.055c0.555,0.073,1.111,0.146,1.672,0.22c0.944,0.641,1.805,1.376,2.602,2.194c1.639,1.682,3.375,3.308,3.573,5.872c-0.419,1.203-1.196,2.06-2.386,2.53C21.72,31.821,19.927,31.471,18.313,30.476z"/>
<path fill="#231C14" d="M12.274,45.484c1.144,0.25,2.289,0.5,3.432,0.75c1.524,0.809,3.384,1.083,4.381,2.741c0.467,1.113,0.636,2.273,0.564,3.473c-0.307,1.169-0.9,2.173-1.77,3.009c-0.556,0.201-1.115,0.4-1.672,0.602c-0.516-0.29-1.033-0.58-1.55-0.87c-2.072-3.082-4.145-6.167-6.216-9.253C10.242,44.886,11.179,44.694,12.274,45.484z"/>
<path fill="#42321A" d="M12.597,30.268c1.29,0.159,2.581,0.314,3.873,0.473c-2.305,3.012-4.612,6.021-6.919,9.033C10.565,36.606,11.581,33.436,12.597,30.268z"/>
<path fill="#362E24" d="M15.809,21.061c-1.076,2.036-2.15,4.068-3.226,6.101c-0.162-2.005-0.322-4.013-0.49-6.015C13.329,21.119,14.569,21.092,15.809,21.061z"/>
<path fill="#959186" d="M12.274,45.484l-1.338,0.714l-1.494-0.263c0.018-1.016,0.178-2.008,0.48-2.975C10.706,43.8,11.491,44.642,12.274,45.484z"/>
<path fill="#534A38" d="M12.511,58.381c-0.903,0.003-1.807-0.003-2.707-0.013c0.882-1.016,1.763-2.032,2.642-3.048c1.155,0.655,1.55,1.327,1.186,2.017C13.264,58.033,12.891,58.381,12.511,58.381z"/>
<path fill="#231C14" d="M12.511,58.381c0.069-1.022,0.049-2.045-0.064-3.061c1.07-0.043,2.141-0.086,3.21-0.129c0-0.003,0.107,0.104,0.107,0.104c0.325,0.513,0.65,1.025,0.978,1.534c-0.33,0.51-0.664,1.017-0.997,1.523C14.668,58.362,13.589,58.372,12.511,58.381z"/>
<path fill="#977D55" d="M9.844,65.033c0.921,0.965,1.842,1.929,2.763,2.891c-1.17,0.836-2.144,0.692-2.889-0.583C9.548,66.56,9.591,65.79,9.844,65.033z"/>
<path fill="#413420" d="M9.719,67.341c0.961,0.201,1.924,0.394,2.889,0.583c-0.142,1.099-0.282,2.194-0.426,3.293C11.358,69.926,10.539,68.635,9.719,67.341z"/>
<path fill="#413420" d="M12.504,74.036c1.088,0.971,2.176,1.944,3.262,2.918c-1.07,0.069-2.139,0.14-3.209,0.21C12.539,76.12,12.522,75.077,12.504,74.036z"/>
<path fill="#12100D" d="M53.097,86.64c-1.004-11.508-2.008-23.016-3.013-34.524l1.356-0.76c1.125,0.006,2.03,0.455,2.723,1.337c0.671,0.817,1.097,1.752,1.305,2.783c0.273,0.977,0.404,1.98,0.448,2.987c0.133,0.962,0.222,1.941,0.347,2.905c0.271,0.928,0.61,1.828,1.123,2.671c0.686,0.771,1.332,1.547,2.037,2.307c0.73,0.854,1.167,1.819,1.356,2.921c-0.065,0.564-0.144,1.113-0.209,1.679c-0.414,1.077-0.952,2.078-1.57,3.039c-1.794,2.444-2.023,5.423-2.803,8.219c-0.347,1.199-0.931,2.264-1.694,3.237C54.035,85.844,53.565,86.24,53.097,86.64z"/>
<path fill="#795B30" d="M34.051,79.939c1.117-2.012,2.233-4.022,3.351-6.033c-0.722-1.117-0.618-2.18,0.205-3.195c1.077-0.754,2.162-0.732,3.256-0.04c2.033,5.268,4.065,10.538,6.096,15.806c-0.854,0.997-1.891,1.248-3.107,0.75l-0.053-1.208c-0.867-0.702-1.769-1.355-2.707-1.959c-2.084-0.843-4.434-1.047-6.218-2.609C34.594,80.948,34.323,80.445,34.051,79.939z"/>
<path fill="#8B7657" d="M46.854,55.414c0.05,2.061,0.101,4.117,0.15,6.174c-1.285,1.367-2.242,3.138-4.328,3.531c-3.357-0.144-4.811-2.652-6.337-5.084c-0.612-1.224-1.018-2.518-1.268-3.86c-0.146-1.35-0.049-2.689,0.221-4.017c0.679-1.965,1.869-3.458,3.921-4.12c2.079-0.049,3.678,0.946,5.072,2.368C45.499,51.887,45.87,53.807,46.854,55.414z"/>
<path fill="#272016" d="M38.441,58.064c2.855,1.175,5.708,2.35,8.563,3.524c-2.048,3.027-4.096,6.058-6.144,9.085c-1.118,0.034-2.238,0.067-3.36,0.104c-0.468-0.395-0.937-0.788-1.41-1.182c-0.724-1.013-1.28-2.108-1.68-3.289c-0.586-1.801-0.925-3.642-0.92-5.542c0.197-1.285,0.772-2.375,1.706-3.275C36.424,56.849,37.513,56.998,38.441,58.064z"/>
<path fill="#272016" d="M50.084,52.115c-1.018,0.021-2.035,0.046-3.053,0.073l-0.923-1.229c0.066-1.163,0.638-1.956,1.716-2.393c1.141-0.284,2.068,0.036,2.788,0.964c0.003,0,0.545,1.459,0.545,1.459l-1.074,1.129L50.084,52.115z"/>
<path fill="#272016" d="M46.854,55.414c-0.951-1.135-1.903-2.271-2.853-3.408c0.497-0.32,0.995-0.638,1.492-0.958c0.479,0.345,0.958,0.692,1.438,1.037c0,0,0.099,0.101,0.101,0.104C46.973,53.263,46.914,54.34,46.854,55.414z"/>
<path fill="#1A1612" d="M43.851,87.226c1.036-0.25,2.072-0.5,3.107-0.75c0.012,1.037,0.02,2.075,0.024,3.112c-1.042,0.009-2.084,0.019-3.125,0.03C43.847,88.819,43.845,88.023,43.851,87.226z"/>
<path fill="#110F0C" d="M56.239,87.113c0.047,0.836,0.081,1.675,0.098,2.512l0.014-0.01c-1.041,0.885-2.084,0.846-3.13,0.013l-0.003-0.007c-0.006-0.997-0.046-1.992-0.119-2.984c-0.001,0.003,0.094-0.109,0.094-0.109C54.446,85.478,55.462,85.673,56.239,87.113z"/>
<path fill="#73582D" d="M35.592,58.164c-0.228,0.888-0.368,1.791-0.421,2.707c-0.149,0.534-0.299,1.068-0.427,1.581c-0.912,0.589-1.395,1.452-1.366,2.578c0.176,1.05,0.146,2.085-0.02,3.122c-0.317,1.025-0.902,1.868-1.746,2.527c-1.973,0.012-3.946,0.024-5.917,0.036c-1.491-0.619-3.134-0.974-4.178-2.358c-0.223-0.464-0.447-0.946-0.674-1.404c-0.003,0.027-0.024-1.525-0.031-1.498c1.364-1.545,0.885,1.01,0.9-1.068c0.008-1.147-0.938-1.669-2.148-1.563c-0.971-0.556-1.628-1.34-2.01-2.387c0.055-0.567,0.116-1.107,0.183-1.672c0.327-0.479,0.648-0.94,0.98-1.413c0.97-0.689,2.008-1.209,3.139-1.568c1.175-0.287,2.36-0.434,3.563-0.501c1.834-0.098,3.656-0.009,5.475,0.25c1.227,0.22,2.379,0.645,3.47,1.242C34.777,57.233,35.184,57.697,35.592,58.164z"/>
<path fill="#795B30" d="M34.365,86.838c-0.918-0.378-1.868-0.631-2.85-0.769c0.848-2.045,1.694-4.086,2.538-6.131c-0.001,0,0.938,0.689,0.938,0.689c1.73,1.847,4.618,0.711,6.381,2.481c0.702,1.138,0.534,2.17-0.374,3.109C38.787,86.427,36.576,86.634,34.365,86.838z"/>
<path fill="#594629" d="M21.934,80.341c-1.005-0.061-2.011-0.095-3.017-0.098c-0.096-0.934-0.313-1.84-0.651-2.716c-0.002,0,0.931-0.793,0.931-0.793c0.684-0.827,1.256-1.728,1.73-2.692c0.535,0.007,1.072,0.013,1.609,0.021C22.335,76.157,22.134,78.248,21.934,80.341z"/>
<path fill="#1A1612" d="M22.384,67.359c1.1,1.12,2.2,2.239,3.305,3.356c-1.297,0.098-2.599,0.195-3.902,0.293c-0.371-0.421-0.743-0.839-1.117-1.26c0.063-0.556,0.126-1.114,0.19-1.673C21.368,67.838,21.876,67.597,22.384,67.359z"/>
<path fill="#848079" d="M31.613,70.68c-0.141-0.974-0.176-1.95-0.103-2.93c0.58-0.385,1.16-0.772,1.741-1.16c0.627,0.309,1.253,0.616,1.881,0.925c0.189,0.675,0.375,1.346,0.564,2.021c-0.307,0.629-0.618,1.254-0.928,1.883C33.717,71.171,32.665,70.924,31.613,70.68z"/>
<path fill="#9B8F7E" d="M19.146,74.104c-0.028-1.104-0.057-2.21-0.084-3.317c0.498-0.412,0.995-0.821,1.494-1.236c0.467,0.446,0.933,0.895,1.398,1.343l-0.165,0.116c0.249,1.02,0.498,2.035,0.748,3.055l-1.275-0.174C20.556,73.96,19.851,74.033,19.146,74.104z"/>
<path fill="#1A1612" d="M37.501,70.777c-0.032,1.043-0.064,2.084-0.098,3.128c-0.879-0.83-1.756-1.66-2.634-2.487l-0.422-0.84c1.237-1.181,2.34-1.122,3.288,0.36L37.501,70.777z"/>
<path fill="#483519" d="M90.426,61.344c0.006,1.163,0.012,2.326,0.018,3.488c-0.703,0.638-1.147,1.422-1.324,2.347c0.006-0.006-0.865,1.032-0.854,1.025c0.013-0.006-1.226,0.369-1.226,0.369s0.686,1.099,0.693,1.099c0.008,0.004,0.454,1.23,0.454,1.23c-0.188,1.05-0.378,2.1-0.567,3.146c-1.449,1.642-3.486,1.397-5.361,1.675c-1.299,0.25-2.558,0.116-3.775-0.396c-0.993-0.906-1.494-2.045-1.582-3.378c0.308-2.606,1.36-4.935,2.702-7.156c1.053-1.621,2.374-2.982,3.984-4.057c1.121-0.61,2.325-0.961,3.596-1.074C88.462,59.83,89.543,60.395,90.426,61.344z"/>
<path fill="#1B160E" d="M84.448,52.125c2.085,2.093,4.169,4.189,6.253,6.283c-0.901,0.961-2.013,1.453-3.332,1.478c-1.272,0.118-2.547,0.198-3.827,0.234c-1.232-0.445-2.252-1.187-3.065-2.216c-0.857-1.895-0.755-3.711,0.455-5.432C82.034,51.676,83.205,51.526,84.448,52.125z"/>
<path fill="#1B160E" d="M87.663,33.387c1.019-0.006,2.036-0.012,3.054-0.012c-0.02,2.121-0.038,4.245-0.057,6.366c-0.963,1.021-2.127,1.306-3.473,0.952c-1.828-0.946-3.133-2.365-3.882-4.291c-0.024-0.659-0.04-1.322-0.06-1.987c0.306-0.586,0.615-1.172,0.925-1.758C85.497,32.121,86.669,32.328,87.663,33.387z"/>
<path fill="#181511" d="M84.448,52.125c-1.05,0.012-2.101,0.024-3.15,0.036c-0.179-0.646-0.357-1.297-0.536-1.943c0.857-2.051,2.495-3.062,4.595-3.464c2.144-0.098,3.929,0.668,5.369,2.252C88.634,50.047,86.54,51.084,84.448,52.125z"/>
<path fill="#252320" d="M81.431,74.042c2.063,0.003,4.126,0.003,6.188,0.007c-0.014,1.028-0.022,2.057-0.029,3.085l-1.555-0.003c0,0-1.555,0.021-1.553,0.024c-0.862-0.027-1.726-0.046-2.588-0.049c-0.515-0.445-1.028-0.892-1.548-1.334C80.706,75.196,81.069,74.619,81.431,74.042z"/>
<path fill="#635645" d="M88.039,39.426c0.888-0.012,1.763,0.092,2.621,0.314c-0.101,1.02-0.269,2.026-0.507,3.021c-1.002,1.077-2.241,1.471-3.687,1.27c-2.158-1.013-3.184-2.536-2.238-4.953C85.572,38.404,86.846,38.481,88.039,39.426z"/>
<path fill="#1B160E" d="M90.726,49.006C88.631,49,86.537,48.997,84.44,48.99c-0.719-0.628-1.061-1.336-1.023-2.121c0.038-0.823,0.15-1.235,0.337-1.238c0.981-0.897,2.138-1.313,3.467-1.245c1.332-0.031,2.485,0.394,3.435,1.343C90.679,46.82,90.701,47.913,90.726,49.006z"/>
<path fill="#675944" d="M90.655,45.729l-1.481,0.116l-1.465-0.25c-1.142-0.622-1.524-1.248-1.155-1.889s0.741-0.964,1.123-0.964c0.827,0.006,1.654,0.012,2.479,0.021C90.5,43.72,90.666,44.709,90.655,45.729z"/>
<path fill="#604C2F" d="M87.649,58.445c1.016-0.199,2.034-0.211,3.053-0.037c-0.004,0.989-0.096,1.969-0.274,2.936c-0.925,0.095-1.85,0.141-2.777,0.138c-1.102-0.675-1.468-1.349-1.103-2.023C86.911,58.783,87.278,58.445,87.649,58.445z"/>
<path fill="#5C482B" d="M87.652,67.851c0.933-1.007,1.863-2.018,2.794-3.021c0.144,0.888,0.183,1.782,0.12,2.677C89.725,68.738,88.753,68.852,87.652,67.851z"/>
<path fill="#252320" d="M87.652,67.851c0.975-0.083,1.947-0.195,2.914-0.342c-0.796,1.129-1.591,2.261-2.383,3.394c0.004,0-0.784-0.125-0.784-0.125c-0.688-1.102-0.585-2.121,0.308-3.062L87.652,67.851z"/>
<path fill="#26211A" d="M81.255,26.945c0.024,1.102,0.049,2.203,0.073,3.305c-0.445,0.43-0.893,0.857-1.34,1.288c-1.194,0.412-2.409,0.485-3.646,0.232c-0.528-0.33-1.053-0.665-1.579-0.995c-0.536-1.193-0.487-2.375,0.055-3.552c0.88-0.916,1.934-1.523,3.183-1.782C79.28,25.52,80.374,25.999,81.255,26.945z"/>
<path fill="#282013" d="M81.328,30.25c1.136,0.067,2.269,0.131,3.402,0.198c0.774,1.096,0.675,2.109-0.3,3.03l0.134-0.14c-1.063,1.16-2.273,1.282-3.61,0.513c-0.817-1.31-0.73-2.521,0.396-3.62L81.328,30.25z"/>
<path fill="#5D4521" d="M84.431,33.479c0.009-1.019,0.108-2.032,0.299-3.033c0.978,0.982,1.956,1.962,2.933,2.942C86.585,33.418,85.508,33.448,84.431,33.479z"/>
<path fill="#3E3324" d="M82.104,21.571c-0.331,0.769-0.578,1.565-0.74,2.386c-1.061,1.053-2.179,1.065-3.348,0.183c-0.6-1.242-0.67-2.5-0.127-3.784c1.256-0.787,2.392-0.684,3.388,0.455L82.104,21.571z"/>
<path fill="#423C32" d="M84.114,20.979c1.324,0.012,2.648,0.021,3.979,0.034c-0.29,0.964-0.518,1.941-0.674,2.936c-0.956,0.879-1.924,0.937-2.903,0.04C84.421,22.981,84.285,21.977,84.114,20.979z"/>
<path fill="#84612B" d="M79.109,23.829c0.747,0.106,1.498,0.152,2.255,0.131c0.067,1.001,0.033,1.996-0.106,2.988c-1.116-0.067-2.231-0.128-3.345-0.192c-0.167-0.635-0.333-1.272-0.501-1.91C77.976,24.506,78.542,24.168,79.109,23.829z"/>
<path fill="#3E3324" d="M84.516,23.988c0.969-0.003,1.938-0.016,2.905-0.04C86.452,23.96,85.484,23.976,84.516,23.988z"/>
<path fill="#201A11" d="M78.188,70.789c0,1.059,0,2.118,0,3.174c0.87,0.626,1.255,1.34,1.154,2.146c-0.107,0.852-0.278,1.278-0.513,1.278c-1.185,0.928-2.371,0.974-3.558-0.003c-3.188-1.129-6.375-2.258-9.563-3.384c-0.233-0.534-0.467-1.065-0.701-1.6c0.286-1.169,0.915-2.118,1.835-2.887c1.035-0.592,2.138-0.989,3.306-1.227c1.181-0.174,2.366-0.181,3.555-0.067c1.183,0.198,2.297,0.602,3.337,1.199C77.425,69.874,77.807,70.331,78.188,70.789z"/>
<path fill="#271F12" d="M65.709,74c0.06,0.979,0.159,1.959,0.298,2.933c-0.361,0.457-0.724,0.915-1.085,1.379c-1.086,0.494-2.227,0.705-3.421,0.638c-0.562-0.18-1.121-0.369-1.687-0.552c-0.451-0.382-0.896-0.77-1.35-1.154c-0.569-1.053-0.873-2.179-0.879-3.381c0.291-1.166,0.891-2.143,1.84-2.896l0.021-0.216c0.903-0.806,1.921-1.044,3.076-0.632c1.619,0.842,2.278,2.472,3.195,3.891L65.709,74z"/>
<path fill="#201A11" d="M68.796,86.454c-0.994,0.052-1.988,0.115-2.979,0.188l-0.244-0.317c-0.859-0.757-1.505-1.666-1.975-2.71c-0.232-1.123-0.26-2.249-0.072-3.381c0.419-1.065,1.025-2.011,1.847-2.813c0,0,0.63-0.485,0.632-0.488c0.947,0.122,1.896,0.188,2.846,0.204c0.71,0.699,0.955,1.404,0.737,2.118c-0.22,0.72-0.444,1.08-0.677,1.08C68.872,82.374,68.834,84.415,68.796,86.454z"/>
<path fill="#594522" d="M75.272,77.384c0.938-0.165,1.88-0.253,2.832-0.263c0.974-1.251,1.961-1.263,2.962-0.033c0,0,0.821,0.019,0.824,0.019c-0.2,1.044-0.402,2.087-0.605,3.131c-1.015,0.016-2.029,0.046-3.044,0.089c-1.231,1.092-2.172,0.83-2.856-0.613C75.398,78.935,75.36,78.159,75.272,77.384z"/>
<path fill="#1E1B17" d="M68.91,80.335c-0.02-1.068-0.039-2.133-0.061-3.198c0.41,0.748,0.901,1.465,1.164,2.262C70.071,79.569,69.3,80.015,68.91,80.335z"/>
<path fill="#201A11" d="M75.384,79.713c0.953,0.195,1.905,0.399,2.856,0.61c-0.054,0.928-0.116,1.852-0.191,2.773C77.161,81.968,76.272,80.839,75.384,79.713z"/>
<path fill="#493A22" d="M62.403,11.356c1.057,0.019,2.11,0.037,3.163,0.052c1.313,1.276,2.627,2.555,3.94,3.83c1.109,2.377,1.79,4.864,2.002,7.483c0.141,1.306,0.111,2.609-0.03,3.912c-0.246,1.288-0.719,2.497-1.412,3.61c-0.926,0.925-2.034,1.541-3.299,1.871c-1.265,0.122-2.515-0.027-3.73-0.381c-1.131-0.476-2.173-1.126-3.12-1.904c-0.404-0.427-0.806-0.882-1.215-1.312c-0.661-0.949-1.153-2.005-1.529-3.098c-0.35-1.05-0.624-2.139-0.885-3.217c-0.499-1.541-1.052-3.076-1.604-4.608c-0.477-1.563-0.572-3.149-0.235-4.746c0.209-1.068,0.786-1.898,1.694-2.478c-0.023,0.003,1.398-0.509,1.371-0.513c-0.025-0.003,1.412,0.275,1.388,0.26c0.471,0.833,1.203,1.321,2.172,1.44C61.071,11.543,62.403,11.356,62.403,11.356z"/>
<path fill="#AE8A55" d="M69.186,24.088c0.106-2.951,0.212-5.902,0.318-8.85c0.957-0.131,1.906-0.107,2.853,0.08c1.851,1.257,4.428,0.604,6.102,2.325l-0.127-0.119c0.844,0.809,1.114,1.605,0.811,2.393c-0.299,0.778-0.595,1.169-0.885,1.169c0.119,0.967,0.401,1.883,0.85,2.747c-0.516,0.113-1.036,0.201-1.563,0.262c-0.662,0.925-1.554,1.291-2.667,1.12c0.008,0.024-1.543-0.11-1.543-0.11s-1.541,0.22-1.544,0.244C70.676,25.437,69.797,25.034,69.186,24.088z"/>
<path fill="#D9AA66" d="M78.458,17.643c-2.034-0.775-4.068-1.55-6.102-2.325c2-0.26,3.999-0.522,5.999-0.781C78.236,15.577,78.269,16.612,78.458,17.643z"/>
<path fill="#1E1B17" d="M53.22,89.628c1.043-0.003,2.086-0.007,3.13-0.013C55.306,89.618,54.264,89.625,53.22,89.628z"/>
<path fill="#6C5127" d="M24.282,28.016c-1.73-1.444-3.459-2.887-5.188-4.333c0.824-0.812,1.297-1.789,1.358-2.954c0.049-1.178,0.513-2.143,1.453-2.866c0.04-1.041,0.072-2.081,0.099-3.122c2.128,0.131,4.259,0.263,6.389,0.394c0.918,0.787,1.48,1.785,1.74,2.963c0.038,1.193-0.122,2.359-0.472,3.503c-0.38,1.126-0.877,2.204-1.436,3.256c-0.577,1.053-1.315,1.98-2.187,2.808C25.455,27.787,24.868,27.903,24.282,28.016z"/>
<path fill="#4D3E27" d="M30.973,14.97c1.17-0.11,2.341-0.22,3.511-0.33l-0.06-0.055c3.946,3.671,4.564,8.398,4.268,13.415c-0.373,1.358-1.152,2.448-2.258,3.302c-1.268,0.503-2.588,0.644-3.938,0.439c-1.25-0.507-2.223-1.352-2.919-2.502c-0.505-1.184-0.813-2.429-0.916-3.714c0.046-1.242,0.287-2.466,0.694-3.644c0.297-1.175,0.459-2.383,0.473-3.604C29.783,17.03,30.166,15.925,30.973,14.97z"/>
<path fill="#7C643B" d="M30.973,14.97c0.183,0.943,0.26,1.898,0.228,2.863c-0.97,1.413-1.941,1.349-2.91,0c-0.02-0.903,0.014-1.807,0.102-2.701C29.241,14.881,30.1,14.826,30.973,14.97z"/>
<path fill="#D29B4D" d="M43.809,8.753c0.977-0.296,1.973-0.482,2.991-0.562c0.984-1.004,2.104-1.245,3.381-0.601c0.915,1.007,1.202,2.185,0.946,3.509c-0.783,1.062-1.806,1.773-3.097,2.082c-1.301,0.024-2.51-0.309-3.619-0.989c-0.639-0.675-0.943-1.41-0.909-2.204C43.539,9.166,43.641,8.753,43.809,8.753z"/>
<path fill="#90692D" d="M50.35,9.089c-1.184-0.299-2.366-0.598-3.55-0.894c0.156-0.83,0.305-1.657,0.447-2.484c1.907-0.037,3.812-0.077,5.715-0.113c0.169,0.83,0.348,1.654,0.532,2.478C52.709,9.232,51.66,9.568,50.35,9.089z"/>
<path fill="#D6A054" d="M43.809,8.753c-0.021,0.653-0.058,1.309-0.111,1.962c-0.417,0.525-0.833,1.053-1.251,1.578c-0.673-0.055-1.343-0.113-2.016-0.171c-0.343-0.583-0.684-1.163-1.025-1.746c0.395-0.549,0.793-1.093,1.192-1.639V7.51C41.668,7.923,42.738,8.338,43.809,8.753z"/>
<path fill="#D3C2A7" d="M50.35,9.089c1.047-0.338,2.094-0.677,3.142-1.013c1.049,0.33,2.036,0.205,2.965-0.378c0.362,0.562,0.724,1.123,1.085,1.685c-0.412,0.528-0.825,1.053-1.237,1.578l0.312,1.193c-2.452,1.233-4.592,0.989-6.288-1.336C50.304,10.24,50.312,9.663,50.35,9.089z"/>
<path fill="#62461A" d="M59.404,5.427c0.058,0.809,0.039,1.618-0.054,2.426c-0.336,0.65-0.673,1.3-1.009,1.953c-0.691-0.241-1.383-0.482-2.075-0.723l0.192-1.389C57.44,6.94,58.422,6.184,59.404,5.427z"/>
<path fill="#D09A4B" d="M78.257,21.085c0.024-1.184,0.047-2.368,0.073-3.558c1.013,0.201,2.029,0.232,3.052,0.091c-0.034,1.065-0.067,2.13-0.104,3.192C80.276,20.963,79.27,21.055,78.257,21.085z"/>
<path fill="#9C9E9D" d="M40.998,86.219c-0.162-0.943-0.237-1.892-0.225-2.848c1.016-1.15,1.967-1.046,2.863,0.146c0.145,0.827,0.2,1.66,0.162,2.5l-1.384,0.317L40.998,86.219z"/>
<path fill="#513F25" d="M65.557,83.14c0.006,1.062,0.013,2.127,0.017,3.186c-3.112,0.26-6.224,0.52-9.335,0.785c-1.004-0.257-2.019-0.452-3.047-0.583c0.035-1.047,0.068-2.097,0.104-3.144c2.032-2.118,2.509-5.765,6.178-6.269c1.145,0.11,2.289,0.22,3.434,0.33c0.779,0.809,1.188,1.775,1.229,2.896C64.258,81.452,64.733,82.383,65.557,83.14z"/>
<path fill="#26211A" d="M37.74,29.984c-1.105-5.133-2.209-10.266-3.314-15.399c1.109-0.037,2.22-0.073,3.333-0.11c0.766-0.998,1.729-1.315,2.908-0.852c0.366,0.412,0.747,0.836,1.128,1.239c0.139,0.522,0.278,1.065,0.432,1.584c0.121,1.52-0.003,3.079,0.432,4.565c0.506,0.848,1.149,1.553,2.042,2.029c0.998,0.32,1.973,0.586,3.012,0.702c1.113,0.015,2.19,0.088,3.293,0.14c1.159,0.003,2.285,0.125,3.419,0.296c1.776,0.321,3.267,1.2,4.649,2.298l0.403,1.306c0.404,1.254,0.142,2.371-0.691,3.378c-0.993,0.775-2.102,1.322-3.301,1.703c-1.218,0.314-2.455,0.488-3.708,0.583c-2.518,0.165-5.037,0.162-7.561-0.028c-1.285-0.116-2.525-0.412-3.74-0.845c-0.557-0.32-1.105-0.659-1.657-0.992C38.456,31.056,38.099,30.519,37.74,29.984z"/>
<path fill="#E2E7E6" d="M40.597,8.738c-0.019,0.696,0.001,1.388,0.063,2.084c-0.661,1.767-1.634,2.051-2.968,0.626c-0.055-1.093-0.111-2.182-0.167-3.275C38.549,8.363,39.573,8.549,40.597,8.738z"/>
<path fill="#886530" d="M37.692,11.448c1.051,0.091,2.04-0.116,2.966-0.626c0.001,0,0.18,1.379,0.18,1.379l0.839,1.294l-0.958,1.206c-0.998,0.052-1.987-0.021-2.963-0.223C37.643,13.468,37.621,12.458,37.692,11.448z"/>
<path fill="#EEEEEE" d="M62.665,8.192c-0.087,1.056-0.174,2.112-0.263,3.165l0.083-0.061c-0.909,0.961-1.967,1.166-3.169,0.617l0.316-0.897c0.004-0.681,0.007-1.358,0.01-2.039l-0.293-1.123C60.454,7.966,61.561,8.079,62.665,8.192z"/>
<path fill="#E6C28A" d="M21.905,17.863c0.152,0.995,0.126,1.987-0.077,2.972c-0.946,1.041-1.863,1.017-2.754-0.07l-0.955,0.354c0.216-1.178,0.432-2.356,0.647-3.534C19.813,17.68,20.86,17.772,21.905,17.863z"/>
<path fill="#1A1612" d="M31.313,30.204c1.045,0.012,2.091,0.024,3.136,0.037c0.958,0.845,2.017,1.535,3.185,2.072c0.441,0.479,0.873,0.952,1.315,1.434c0.432,1.272,0.569,2.563,0.391,3.9c-0.401,1.315-1.009,2.518-1.824,3.628c-0.873,1.096-1.846,2.081-2.892,3.015c-2.319,1.926-4.73,3.564-8.349,2.316c-3.96-3.388-0.827-9.354-4.009-13.251c-1.317-0.961-2.633-1.922-3.952-2.881c2.223-0.064,4.448-0.128,6.672-0.192C27.073,28.395,29.182,28.391,31.313,30.204z"/>
<path fill="#362B1B" d="M22.266,33.356c2.021,3.668,4.041,7.333,6.308,11.453c1.817-1.568,3.886-3.351,5.957-5.136c1.799,1.785,2.487,3.952,2.235,6.451c-0.452,1.56-1.207,2.951-2.257,4.187c-1.335,0.949-2.803,1.581-4.4,1.933c-4.247,0.738-8.017-0.199-11.18-3.223c-1.074-0.932-2.15-1.859-3.224-2.79C17.892,41.941,20.08,37.648,22.266,33.356z"/>
<path fill="#26211B" d="M19.026,61.436c0.931-0.03,1.861-0.016,2.792,0.049c0.722,0.827,1.076,1.782,1.006,2.887l-1.417,0.162c-0.74,1.514-1.511,1.611-2.321,0.052c-0.99-1.05-1.981-2.103-2.973-3.152C17.086,59.925,18.056,59.928,19.026,61.436z"/>
<path fill="#1D1811" d="M19.026,61.436l-1.46,0.016c0,0-1.46-0.019-1.456-0.019c-0.34-0.998-0.464-2.026-0.363-3.079l-0.058,0.067c0.923-1.423,1.776-1.383,2.559,0.122C18.635,59.474,18.894,60.438,19.026,61.436z"/>
<path fill="#1A1612" d="M19.085,64.585c0.776,0.021,1.552,0.003,2.324-0.052c0.539,0.87,0.862,1.813,0.97,2.829c0.005-0.003-0.41,0.388-0.41,0.388c-0.519,0.445-1.036,0.894-1.555,1.349c-0.556-0.399-1.111-0.803-1.667-1.205C18.861,66.791,18.974,65.687,19.085,64.585z"/>
<path fill="#98815E" d="M19.062,70.786c-0.748-0.396-1.494-0.797-2.322-1.236c0.715-0.592,1.361-1.126,2.008-1.66c0,0.004,0.105-0.146,0.105-0.146c0.821,0.699,1.091,1.398,0.814,2.094c-0.274,0.692-0.551,1.041-0.825,1.041L19.062,70.786z"/>
<path fill="#9F9F9F" d="M19.146,74.104c0.708-0.043,1.415-0.113,2.116-0.214c-0.689,0.949-1.378,1.898-2.066,2.848C18.948,75.864,18.931,74.985,19.146,74.104z"/>
<path fill="#654D29" d="M31.313,30.204c-2.108,0.027-4.216,0.052-6.326,0.079c-0.061-0.813-0.294-1.568-0.704-2.271c-0.001,0.003,1.001-1.104,1.001-1.104c0.781-0.867,1.748-1.404,2.896-1.611c1.152,0.162,2.159,0.628,2.997,1.443C31.223,27.894,31.268,29.05,31.313,30.204z"/>
<path fill="#D7B17A" d="M19.074,20.765c0.918,0.067,1.837,0.091,2.756,0.07c-0.913,0.949-1.825,1.901-2.736,2.848C18.728,22.712,18.722,21.738,19.074,20.765z"/>
<path fill="#544B3E" d="M18.929,49.022c4.043,0.024,8.088,0.045,12.132,0.069c0.709,0.69,0.99,1.42,0.847,2.186c-0.148,0.787-0.328,1.181-0.536,1.19c-0.952,0.931-2.055,1.611-3.303,2.068c-1.292,0.306-2.602,0.419-3.928,0.373c-2.052-0.22-3.766-1.071-5.028-2.741C19.053,51.117,18.99,50.067,18.929,49.022z"/>
<path fill="#755729" d="M19.114,52.167c2.148,0.004,4.295,0.01,6.444,0.016c0.281,0.619,0.56,1.242,0.842,1.861c-0.293,0.617-0.586,1.233-0.877,1.85c-1.251,0.589-2.571,0.852-3.951,0.833c-0.679-0.07-1.356-0.146-2.035-0.217c-0.487-0.479-0.972-0.958-1.459-1.438C18.427,54.106,18.772,53.135,19.114,52.167z"/>
<path fill="#4D3E24" d="M18.247,58.543c-0.85-0.102-1.703-0.141-2.559-0.122c0.026-1.041,0.051-2.085,0.077-3.125c0.775-0.059,1.549-0.132,2.318-0.224c-0.005,0,1.313,0.339,1.313,0.339c0.671,0.599,0.916,1.215,0.729,1.85c-0.188,0.647-0.388,0.971-0.6,0.971L18.247,58.543z"/>
<path fill="#543F21" d="M53.36,64.183c0.099-0.989,0.218-1.978,0.358-2.961c0.567-0.644,0.722-1.248,0.461-1.815c-0.252-0.55-0.485-0.824-0.702-0.824c-0.087-1.113-0.176-2.228-0.263-3.342c1.251-1.309,1.017-3.012,1.205-4.614c0.438-1.077,1.146-1.919,2.124-2.551c1.163-0.244,2.299-0.174,3.428,0.198c1.086,0.519,2.048,1.202,2.917,2.035c0.788,0.949,1.331,2.021,1.698,3.192c0.222,1.221,0.228,2.441,0.062,3.671c-0.274,1.218-0.724,2.368-1.296,3.477c-1.595,2.74-3.328,5.319-6.979,5.401C55.099,65.867,54.106,65.223,53.36,64.183z"/>
<path fill="#373227" d="M59.473,77.115c-2.06,2.091-4.119,4.178-6.178,6.269c2.045-4.142,4.088-8.279,6.131-12.421c0.011,0.998,0.011,1.993,0.003,2.991c-0.811,0.729-1.071,1.446-0.782,2.151c0.285,0.702,0.567,1.053,0.845,1.053L59.473,77.115z"/>
<path fill="#271F12" d="M56.339,64.647c2.072-2.094,4.146-4.188,6.218-6.281c1.771,1.407,2.35,3.312,2.305,5.479c-0.248,1.382-0.815,2.618-1.688,3.714c-1.188,0.888-2.426,0.955-3.706,0.195c-1.022-0.021-2.045-0.03-3.068-0.027c-0.746-0.669-1.004-1.35-0.773-2.039C55.859,64.994,56.095,64.647,56.339,64.647z"/>
<path fill="#15120D" d="M50.083,52.118c-0.002-1.037-0.002-2.071-0.003-3.106c0.447-0.326,0.894-0.649,1.343-0.977c0.551,0.052,1.102,0.107,1.655,0.159c0.406,0.378,0.811,0.76,1.218,1.138c0.049,0.556,0.095,1.108,0.144,1.663c-0.407,0.379-0.816,0.757-1.226,1.133C52.17,52.125,51.127,52.122,50.083,52.118z"/>
<path fill="#15120D" d="M56.33,52.125c-1.039,1.037-2.078,2.078-3.116,3.115c0-1.037,0-2.075,0-3.112l0.003-0.003C54.255,50.702,55.292,50.633,56.33,52.125z"/>
<path fill="#656767" d="M53.477,58.582c0.451,0.613,0.901,1.227,1.354,1.841c-0.372,0.265-0.745,0.53-1.114,0.799C53.39,60.364,53.309,59.485,53.477,58.582z"/>
<path fill="#15120D" d="M56.339,64.647c0.013,1.028,0.032,2.054,0.06,3.079c-1.013-1.179-2.028-2.356-3.041-3.54C54.348,64.365,55.341,64.521,56.339,64.647z"/>
<path fill="#15120D" d="M59.467,67.753c1.038-0.006,2.075-0.006,3.113,0.003c0,0,1.016,0.903,1.018,0.903c0.003,0,0.071,1.364,0.074,1.364c0.004,0-1.057,0.863-1.057,0.863c-1.057-0.046-2.112-0.088-3.168-0.134C59.459,69.752,59.467,68.754,59.467,67.753z"/>
<path fill="#9F8764" d="M43.636,83.518l-1.427-0.158l-1.436,0.012c-1.929-0.915-3.859-1.831-5.786-2.743C37.871,81.593,40.754,82.554,43.636,83.518z"/>
<polygon fill="#9F9F9F" points="41.72,75.501 42.526,75.214 42.416,75.998 "/>
<path fill="#6E5225" d="M34.249,49.106c0.091-1.104,0.185-2.209,0.277-3.311c1.279-1.318,1.833-3.232,3.485-4.248c0.625-0.018,1.248-0.037,1.875-0.055c0.54,0.323,1.074,0.65,1.614,0.977c0.661,1.102,1.008,2.289,1.007,3.577c-0.273,1.272-0.911,2.313-1.965,3.085c-1.053,1.038-2.105,2.072-3.158,3.109c-1.052,0.688-2.075,0.62-3.076-0.106C33.518,51.139,33.533,50.129,34.249,49.106z"/>
<path fill="#2B2216" d="M40.543,49.131c0.189-1.126,0.38-2.255,0.571-3.384c0.905-0.943,1.941-1.123,3.114-0.543c0.836,0.9,1.291,1.971,1.419,3.186c-0.175,1.196-0.605,2.295-1.283,3.296c0,0-0.365,0.32-0.363,0.32C42.847,51.048,41.696,50.089,40.543,49.131z"/>
<path fill="#271F14" d="M34.417,52.152c0.995-0.132,1.985-0.104,2.968,0.088c0.195,1.014,0.215,2.03,0.058,3.049c-0.521,0.434-1.043,0.867-1.564,1.304c-0.625-0.254-1.254-0.51-1.881-0.764c-0.205-0.644-0.41-1.287-0.615-1.932C33.727,53.318,34.072,52.735,34.417,52.152z"/>
<path fill="#1A1612" d="M34.495,55.237c0.982,0.013,1.965,0.027,2.948,0.052c0.507,0.861,0.836,1.789,0.994,2.774c-0.945,0.098-1.896,0.131-2.846,0.101c0.001,0-1.404,0.058-1.404,0.058C33.373,57.133,33.431,56.135,34.495,55.237z"/>
<path fill="#73582D" d="M35.171,60.871c0.771,2.325,1.541,4.647,2.313,6.97c-1.048,1.068-2.016,1.001-2.904-0.204l-0.035,0.092c-0.911-0.751-1.436-1.712-1.579-2.884c-0.113-1.196,0.3-2.191,1.167-3.01L35.171,60.871z"/>
<path fill="#97805B" d="M34.58,67.637c0.972,0.019,1.942,0.082,2.905,0.201c0.117,1.032,0.166,2.063,0.148,3.101c-1.094-0.116-2.188-0.231-3.285-0.354C34.432,69.599,34.51,68.619,34.58,67.637z"/>
<path fill="#15120D" d="M43.856,45.881c-0.917-0.034-1.833-0.076-2.745-0.134c-0.244-0.949-0.435-1.914-0.574-2.884c2.917-2.915,6.137-2.939,9.561-1.004c1.813,2.368,1.998,4.742,0.016,7.12l-0.033,0.033c-1.035-0.015-2.071-0.027-3.107-0.033c0,0-1.451-0.519-1.454-0.516C45.088,47.525,44.533,46.662,43.856,45.881z"/>
<path fill="#1A1612" d="M44.364,51.686c-0.251-0.824-0.394-1.663-0.429-2.524c0.964-1.116,1.982-1.169,3.053-0.152l-0.015-0.03c0.001,1.034-0.014,2.072-0.042,3.106C46.061,52.045,45.205,51.911,44.364,51.686z"/>
<path fill="#837B70" d="M27.721,52.674c1.122-0.158,2.242-0.317,3.361-0.476c0,0,1.398,0.433,1.399,0.43c0.302,0.94,0.409,1.904,0.327,2.891c0.114,1.092-0.298,1.926-1.236,2.499c-2.188,0.067-4.375,0.135-6.562,0.204c-1-0.704-1.323-1.395-0.977-2.078c0.343-0.671,0.685-1.01,1.027-1.01l-0.165,0.125C25.793,54.347,26.734,53.485,27.721,52.674z"/>
<path fill="#9E8662" d="M34.133,61.835c0.2,0.94,0.267,1.89,0.203,2.851c-1.076,1.215-2.161,1.224-3.253,0.021c-0.319-0.766-0.636-1.529-1.069-2.572C31.455,62.03,32.794,61.933,34.133,61.835z"/>
<path fill="#9B845D" d="M19.526,58.231c-0.426-0.922-0.47-1.861-0.131-2.82c0.899-0.091,1.796-0.095,2.695-0.009c0.749,0.65,0.992,1.288,0.728,1.916c-0.262,0.626-0.52,0.94-0.776,0.94l-1.257,0.043L19.526,58.231z"/>
<path fill="#9C9A99" d="M22.041,58.259c-0.08-0.958-0.066-1.91,0.044-2.859c0.99-0.138,1.982-0.226,2.979-0.263c0.035,1.028,0.019,2.063-0.05,3.089c-0.001-0.004-1.486,0.152-1.486,0.152L22.041,58.259z"/>
<path fill="#9F9F9F" d="M31.573,58.018c-0.122-0.852-0.191-1.706-0.206-2.563c0.978-1.706,1.899-1.593,2.774,0.082l0.354-0.299c-0.009,1.007-0.111,2.002-0.308,2.988c0-0.004-1.317,0.015-1.317,0.015L31.573,58.018z"/>
<path fill="#9C8564" d="M22.823,64.371c-0.577-0.879-0.913-1.84-1.006-2.887c0.612,0.583,1.27,1.132,1.787,1.788C23.682,63.373,23.101,63.993,22.823,64.371z"/>
<path fill="#9E907A" d="M31.083,64.707c1.085-0.009,2.171-0.016,3.255-0.024c0.192,1.007,0.261,2.023,0.206,3.046c-1.012,0.015-2.026,0.021-3.037,0.021C31.317,66.742,31.175,65.73,31.083,64.707z"/>
<path fill="#39280D" d="M18.843,70.878c0-1.044,0-2.085,0.006-3.131c1.042,0.003,2.082,0.006,3.119,0.003c0,1.04,0,2.084-0.006,3.134c-0.007,0.009-1.563-0.009-1.563-0.009L18.843,70.878z"/>
<path fill="#110F0C" d="M81.347,64.622c-1.053,2.057-2.105,4.113-3.159,6.17c0-0.003-0.117-0.188-0.117-0.188c-1.358-1.117-3.201-1.646-4.077-3.357c-0.16-1.245,0.148-2.371,0.854-3.399c1.049-0.675,2.199-0.998,3.439-1.028c0.588,0.164,1.174,0.339,1.763,0.51C80.483,63.755,80.915,64.189,81.347,64.622z"/>
<path fill="#463316" d="M87.649,58.445c-0.02,1.013-0.021,2.022,0,3.036c-1.041,0.021-2.081,0.055-3.122,0.098c-0.355-0.531-0.711-1.063-1.069-1.59c0.35-0.534,0.7-1.071,1.051-1.605C85.555,58.405,86.602,58.427,87.649,58.445z"/>
<path fill="#463316" d="M84.527,61.579c-1.061,1.013-2.121,2.029-3.18,3.043l-0.268,0.134c-0.708-1.117-0.701-2.209,0.129-3.269c1.074-0.827,2.152-0.79,3.234-0.012L84.527,61.579z"/>
<path fill="#6A5A41" d="M87.706,67.716c-0.09,1.022-0.19,2.042-0.307,3.062c-0.591-0.471-1.181-0.938-1.839-1.459C86.471,68.638,87.088,68.177,87.706,67.716z"/>
<path fill="#6A5A42" d="M81.066,77.088c-0.985,0.024-1.971,0.037-2.96,0.033c0.026-1.053,0.055-2.103,0.082-3.158c1.081,0.027,2.159,0.052,3.241,0.079C81.402,75.07,81.28,76.084,81.066,77.088z"/>
<path fill="#523E1D" d="M81.298,52.161c0.201,2.115,0.404,4.227,0.607,6.342c-0.491,0.455-0.983,0.909-1.475,1.367c-2.551,1.456-5.114,1.306-7.688,0.067c-1.11-0.809-1.75-1.907-1.925-3.271c0.259-1.321,0.909-2.42,1.929-3.303c1.571-1.175,3.305-2.041,5.21-2.548c1.357-0.18,2.44,0.296,3.243,1.413L81.298,52.161z"/>
<path fill="#14110C" d="M84.443,61.476c-1.025,0.003-2.048-0.021-3.071-0.076c-0.404-0.479-0.809-0.956-1.215-1.432c0.33-0.531,0.661-1.063,0.99-1.593c0,0,0.746,0.125,0.752,0.128c0.872-0.079,1.74-0.119,2.609-0.119C84.527,59.415,84.504,60.447,84.443,61.476z"/>
<path fill="#624C2E" d="M81.261,33.195c1.101,0.049,2.202,0.095,3.302,0.144c-0.01,1.144-0.022,2.289-0.034,3.436c0.796,0.516,1.094,1.074,0.891,1.672c-0.209,0.62-0.435,0.931-0.679,0.931c0.978,1.12,1.956,2.243,2.934,3.363c-0.025,0.952-0.015,1.904,0.034,2.853c-1.07,0.144-2.14,0.284-3.209,0.428c-8.618-0.187-9.614-5.17-7.592-12.055C78.118,32.362,79.571,32.108,81.261,33.195z"/>
<path fill="#686766" d="M84.74,39.377c-0.114-0.867-0.185-1.736-0.212-2.606c1.168,0.888,2.337,1.773,3.508,2.658C86.939,39.411,85.84,39.393,84.74,39.377z"/>
<path fill="#282013" d="M78.304,33.454c2.064,4.19,4.131,8.377,6.195,12.567c-0.016,0.988-0.035,1.98-0.058,2.969c-1.081,1.077-2.159,2.158-3.24,3.235c-1.047,0.003-2.092,0.003-3.137,0.003c-0.854,0.906-1.896,1.175-3.092,0.906c-2.89-0.241-4.238,1.383-4.791,3.982c-0.255,0.574-0.511,1.129-0.775,1.697c-0.587,0.241-1.165,0.47-1.755,0.705c-0.631-0.098-1.254-0.199-1.884-0.3c-0.417-0.488-0.826-0.974-1.237-1.465c-0.388-1.855-0.275-3.842-1.462-5.483l-0.696-0.178c-0.709-0.851-1.061-1.837-1.11-2.938c0.171-1.578,0.505-3.137,0.559-4.727c-0.167-1.056-0.321-2.1-0.559-3.143c-0.162-0.528-0.278-1.053-0.429-1.581c-0.263-1.096-0.338-2.194-0.297-3.311c0.156-1.129,0.536-2.179,1.079-3.174c0.996-1.456,2.661-2.002,4.036-2.945c1.088-0.037,2.176-0.077,3.264-0.116c1.985-1.736,3.99-1.858,6.02-0.079l0.441,0.384C76.655,31.166,77.631,32.163,78.304,33.454z"/>
<path fill="#634D29" d="M74.935,30.079c-2.007,0.027-4.013,0.055-6.02,0.079c0.027-1.108,0.054-2.219,0.079-3.326c1.027-0.821,2.188-1.249,3.509-1.23c0.624,0.144,1.246,0.284,1.87,0.427c0.217,0.601,0.434,1.202,0.65,1.807C75.073,28.586,75.043,29.335,74.935,30.079z"/>
<path fill="#110F0C" d="M78.304,33.454c-0.978-0.998-1.956-1.996-2.931-2.991c1.995-0.076,3.986-0.152,5.978-0.232c-0.02,0.989-0.049,1.978-0.088,2.966C80.279,33.314,79.293,33.402,78.304,33.454z"/>
<path fill="#DBB680" d="M75.379,23.854c0.723,0.082,1.446,0.162,2.168,0.241c0.434,0.846,0.556,1.733,0.363,2.661c-0.998,0.263-1.961,0.623-2.887,1.081l0.18-1.392c-0.891-0.638-1.161-1.233-0.813-1.792C74.723,24.122,75.052,23.854,75.379,23.854z"/>
<path fill="#4D3A1E" d="M75.269,65.149c0.182,0.906,0.301,1.822,0.354,2.744c0.694,1.159,0.462,2.142-0.574,2.969c-2.125-0.104-4.249-0.207-6.375-0.312c-1.302-0.967-2.475-2.065-3.519-3.308c-0.725-0.794-1.465-1.575-2.222-2.341c-0.125-2.179-0.25-4.357-0.375-6.537c-0.002,0-0.049,0.059-0.049,0.059c0.76-1.196,1.783-1.496,3.068-0.895l0.23,1.063c1.525,1.44,3.458,1.141,5.301,1.232c1.901,0.198,3.819,0.339,5.163,1.983C76.695,63.15,76.323,64.252,75.269,65.149z"/>
<path fill="#584932" d="M65.685,64.683c0.998,1.959,1.995,3.915,2.991,5.872c-1.003,0.268-2.021,0.436-3.058,0.5c0,0-1.158-0.919-1.161-0.919c-0.219-0.97-0.279-1.953-0.184-2.941C64.349,66.136,64.82,65.296,65.685,64.683z"/>
<path fill="#110F0C" d="M75.049,70.862c0.011-1.025,0.198-2.017,0.569-2.973c0.821,0.907,1.639,1.813,2.454,2.717C77.07,70.765,76.063,70.851,75.049,70.862z"/>
<path fill="#110F0C" d="M65.719,74.009c-1.035-1.041-2.069-2.081-3.104-3.122h-0.016c1.033-1.514,2.046-1.428,3.043,0.037l-0.023,0.128C65.667,72.037,65.7,73.023,65.719,74.009z"/>
<path fill="#5C4220" d="M59.491,77.158c-0.56-0.516-1.12-1.028-1.767-1.624c0.589-0.546,1.147-1.062,1.704-1.58C59.45,75.022,59.47,76.09,59.491,77.158z"/>
<path fill="#675F53" d="M62.873,80.372c-0.073-0.977-0.064-1.953,0.031-2.927c0.823-0.168,1.646-0.178,2.47-0.027c0.195,0.977,0.199,1.953,0.012,2.93C64.558,81.238,63.72,81.247,62.873,80.372z"/>
<path fill="#6A6A6A" d="M62.873,80.372c0.837-0.064,1.677-0.073,2.515-0.024c0.359,0.912,0.418,1.843,0.171,2.792C64.662,82.215,63.767,81.293,62.873,80.372z"/>
<path fill="#D6BB94" d="M50.254,26.606c-1.022,0.153-2.045,0.305-3.067,0.455c-1.555-2.34-4.19-2.24-6.497-2.877l-0.353-0.238c-1.355-2.112-1.231-4.229-0.035-6.354l0.232-0.235c1.335-0.956,2.78-1.697,4.335-2.225c4.156-0.662,8.146-0.5,11.605,2.319c0.873,1.294,1.747,2.585,2.62,3.879c-0.706,0.696-1.453,1.346-2.24,1.95c-0.801,0.589-1.657,1.086-2.561,1.501c0.003,0.006-1.354,0.607-1.354,0.61C51.958,25.602,51.063,26.005,50.254,26.606z"/>
<path fill="#6C542F" d="M56.475,17.451c-4.27-0.088-8.539-0.18-12.808-0.271c-0.664-0.75-0.882-1.501-0.658-2.252c0.226-0.748,0.449-1.12,0.67-1.12c1.129-0.653,2.242-1.331,3.337-2.042c1.104-0.314,2.208-0.632,3.312-0.949c2.097,0.445,4.193,0.891,6.288,1.336C56.57,13.92,56.523,15.684,56.475,17.451z"/>
<path fill="#D19F4F" d="M59.073,26.478c-1.993,0.052-3.984,0.104-5.977,0.155c-1.017-0.564-1.27-1.367-0.762-2.414l1.283-0.244c0.6-0.986,1.478-1.459,2.629-1.425c1.172-0.241,2.077,0.144,2.717,1.153C59.101,24.626,59.136,25.55,59.073,26.478z"/>
<path fill="#ECEAE8" d="M59.643,8.976c-0.139,0.681-0.142,1.358-0.01,2.039c-1.11-0.018-2.221-0.034-3.33-0.052c0.12-0.632,0.108-1.257-0.037-1.88C57.392,9.049,58.518,9.013,59.643,8.976z"/>
<path fill="#6C542F" d="M59.317,11.912c1.056-0.205,2.111-0.412,3.169-0.617C61.428,11.5,60.372,11.705,59.317,11.912z"/>
<path fill="#E4DDD2" d="M58.964,23.704c-0.694,0.031-1.385,0.101-2.071,0.214c-1.072-0.647-1.448-1.321-1.126-2.021c0.327-0.714,0.662-1.071,1.007-1.071c0.74,0.32,1.513,0.485,2.319,0.5C59.632,22.153,59.589,22.944,58.964,23.704z"/>
<path fill="#D5A461" d="M72.249,26.752c-1.085,0.027-2.17,0.055-3.255,0.08c-0.133-0.928-0.068-1.843,0.191-2.744c0.75-0.116,1.504-0.217,2.258-0.305c1.104,0.409,1.592,0.986,1.464,1.729C72.764,26.337,72.545,26.752,72.249,26.752z"/>
<path fill="#26211A" d="M59.546,30.082c-0.025-0.769-0.049-1.538-0.068-2.304c0.979,0.702,1.956,1.398,2.935,2.097c0,0-0.515,1.355-0.513,1.358l-1.453-0.012C60.447,31.223,59.546,30.082,59.546,30.082z"/>
<path fill="#6D5832" d="M65.652,30.274c-0.958,1.038-1.918,2.075-2.878,3.113c-0.413-0.461-0.828-0.922-1.243-1.383c0.366-0.5,0.732-0.998,1.099-1.498l-0.217-0.629C63.492,30.009,64.573,30.14,65.652,30.274z"/>
<path fill="#E6D4BB" d="M72.249,26.752c-0.19-1.01-0.458-1.999-0.803-2.966c0.658-0.604,1.317-1.208,2.137-1.956c0.61,0.687,1.2,1.355,1.794,2.023c-0.186,0.854-0.244,1.718-0.174,2.591l-1.441,0.485L72.249,26.752z"/>
<path fill="#D4AE75" d="M30.767,21.378c0.212,0.989,0.192,1.975-0.057,2.954c-0.768,0.827-1.72,1.178-2.835,1.123c-1.091-0.128-2.037-0.568-2.841-1.315c0.977-1.19,1.953-2.377,2.93-3.567C29.302,19.435,30.218,19.773,30.767,21.378z"/>
<path fill="#AA7A37" d="M30.767,21.378c-0.957-0.183-1.891-0.452-2.802-0.803c0.105-0.918,0.214-1.831,0.324-2.747c0.972-0.052,1.944-0.052,2.913,0.003C31.057,19.013,30.912,20.197,30.767,21.378z"/>
<path fill="#DCC09F" d="M25.034,24.14c1.149,0.07,2.298,0.137,3.447,0.208c0.666,0.559,0.867,1.086,0.607,1.593c-0.253,0.491-0.499,0.735-0.738,0.735l-1.516,0.36l-1.552-0.128C24.796,26.023,24.714,25.099,25.034,24.14z"/>
<path fill="#E9DBC5" d="M28.35,26.676c-0.075-0.784-0.034-1.563,0.129-2.332c0.745-0.085,1.486-0.092,2.229-0.012c0.468,0.742,0.624,1.544,0.468,2.408l-1.42,0.29L28.35,26.676z"/>
<path fill="#716652" d="M37.09,33.863c-0.88-1.208-1.761-2.417-2.641-3.623c1.096-0.085,2.193-0.168,3.29-0.253c0.001-0.003-0.248,0.568-0.248,0.568C38.469,31.794,38.395,32.902,37.09,33.863z"/>
<path fill="#86612B" d="M47.016,11.766c-1.005,0.924-2.011,1.849-3.017,2.774c-1.022-0.519-1.385-1.077-1.092-1.675c0.302-0.617,0.612-0.925,0.936-0.925c0,0-0.144-1.221-0.144-1.224C44.803,11.064,45.91,11.415,47.016,11.766z"/>
<path fill="#45310D" d="M43.843,11.94c-0.011,0.87,0.04,1.739,0.154,2.6c-0.108,0.879-0.218,1.761-0.33,2.643c-1.043,0.058-2.087,0.116-3.131,0.177c0.084-0.885,0.145-1.773,0.183-2.658c-0.038-0.836,0-1.672,0.117-2.5C41.795,11.61,42.797,11.524,43.843,11.94z"/>
<path fill="#C69147" d="M43.656,30.705c3.171,0.091,6.34,0.186,9.511,0.278c0.657,0.583,0.952,1.229,0.883,1.935c-0.07,0.739-0.195,1.108-0.369,1.114c-0.803,0.876-1.715,1.611-2.738,2.222c-1.556,0.925-3.187,1.672-4.944,2.143c-1.872,0.333-3.653,0.104-5.319-0.852c-0.827-0.97-1.21-2.093-1.155-3.366c0.317-0.528,0.638-1.056,0.957-1.583C41.517,31.928,42.576,31.3,43.656,30.705z"/>
<path fill="#C28D42" d="M53.032,33.766c0.063-0.928,0.108-1.855,0.136-2.783c1.113-0.052,2.229-0.101,3.345-0.153c1.805,0.8,3.227,1.984,3.934,3.9c-0.024,1.373-0.61,2.432-1.76,3.183c-1.262,0.418-2.543,0.525-3.855,0.296c-0.582-0.305-1.16-0.614-1.743-0.922c-0.307-0.58-0.61-1.163-0.914-1.746C52.457,34.95,52.744,34.357,53.032,33.766z"/>
<path fill="#674F29" d="M40.69,24.183c1.497-0.36,2.996-0.72,4.56-1.096c0.598,1.23,1.267,2.603,1.936,3.973C45.02,26.103,42.855,25.141,40.69,24.183z"/>
<path fill="#4D3E27" d="M40.302,17.591c0.012,2.118,0.024,4.239,0.037,6.354C40.325,21.827,40.315,19.709,40.302,17.591z"/>
<path fill="#EDD5B0" d="M52.335,24.22c0.497,0.729,0.751,1.532,0.762,2.414l-1.426,0.36c0,0-1.419-0.388-1.417-0.388C50.948,25.81,51.641,25.016,52.335,24.22z"/>
<path fill="#7E715D" d="M37.09,33.863c0.134-1.105,0.269-2.207,0.401-3.308c1.161,0.024,2.323,0.049,3.482,0.07c0.941,0.65,1.088,1.447,0.436,2.387l-0.662,0.439c-1.092,1.355-2.181,1.422-3.261-0.015L37.09,33.863z"/>
<path fill="#E2B97E" d="M41.41,33.012c-0.441-0.742-0.586-1.535-0.435-2.387c0.906-0.406,1.799-0.378,2.681,0.08C42.908,31.474,42.159,32.243,41.41,33.012z"/>
<path fill="#D8CBB7" d="M59.174,33.219c-0.887-0.796-1.772-1.596-2.662-2.39c1.012-0.25,2.023-0.498,3.034-0.748l-0.356,0.525c0.546,0.437,1.093,0.876,1.646,1.315C60.286,32.353,59.73,32.786,59.174,33.219z"/>
<path fill="#2B2216" d="M40.681,35.465c2.169,0.183,4.339,0.369,6.509,0.552c0.952-0.632,1.996-0.97,3.143-0.97c1.161,0.101,2.112,0.601,2.854,1.501l-0.271,0.418c1.372,0.54,2.668,1.221,3.879,2.066c0.11,0.727,0.219,1.456,0.33,2.182c-1.741,3.152-4.006,4.019-7.02,1.602c-3.189,0.015-6.376,0.031-9.567,0.046c-0.001,0,0.142,0.085,0.142,0.085c-0.637-0.861-1.468-1.438-2.498-1.73c-0.003,0.003-0.801-1.318-0.801-1.318c0.113-1.233,0.228-2.466,0.342-3.699C38.553,35.331,39.539,35.087,40.681,35.465z"/>
<path fill="#927345" d="M37.821,42.457c-1.099,1.114-2.197,2.225-3.294,3.338c0.002-2.042,0.003-4.08,0.005-6.122c0.958-0.034,1.909,0.04,2.85,0.223c0,0.003-0.064-0.205-0.064-0.205c0.836,0.482,1.188,1.053,1.061,1.712C38.241,42.106,38.056,42.457,37.821,42.457z"/>
<path fill="#C89A4D" d="M40.681,35.465c-0.986,0.244-1.972,0.491-2.958,0.738c-0.19-0.916-0.27-1.837-0.235-2.771c1.085,0.006,2.171,0.009,3.259,0.016C40.705,34.12,40.682,34.791,40.681,35.465z"/>
<path fill="#1A1612" d="M34.249,49.106c0.282,1.001,0.339,2.018,0.169,3.046c-0.001,0,0.067-0.076,0.067-0.076c-1.001,1.178-2.077,1.199-3.218,0.21c0,0-0.18-0.088-0.182-0.088c0.159-1.038,0.152-2.072-0.023-3.107C32.124,49.098,33.187,49.101,34.249,49.106z"/>
<path fill="#9C9A99" d="M27.721,52.674c-0.941,0.86-1.881,1.722-2.824,2.582c0.218-1.022,0.438-2.048,0.659-3.073C26.33,52.122,27.052,52.286,27.721,52.674z"/>
<path fill="#2B2216" d="M59.434,48.96c-1.028,0.024-2.057,0.037-3.086,0.04c-1.045,1.263-2.087,1.263-3.129,0l0.06-0.027c-1.198-5.03,1.939-4.511,5.087-3.98c0.483,0.58,0.968,1.157,1.451,1.737C59.689,47.474,59.562,48.216,59.434,48.96z"/>
<path fill="#16130F" d="M65.578,57.529c-1.023,0.299-2.046,0.595-3.068,0.895c0.183-2.051,0.367-4.104,0.556-6.155C63.905,54.023,64.74,55.777,65.578,57.529z"/>
<path fill="#110F0C" d="M53.219,49c1.04,0,2.083,0,3.126,0c0,1.04-0.003,2.084-0.009,3.125c-1.044,0-2.081,0-3.119,0C53.217,51.081,53.217,50.04,53.219,49z"/>
<path fill="#574A37" d="M62.711,49.033c-0.038,1.028-0.149,2.048-0.337,3.061c-0.981-1.043-1.961-2.09-2.94-3.134l0.021,0.03C60.554,48.054,61.639,48.017,62.711,49.033z"/>
<path fill="#6A5B41" d="M65.685,64.683c-0.012,1.129-0.022,2.259-0.035,3.388c-1.118,0.857-2.139,0.754-3.063-0.312l-0.007-0.003c0.052-0.961,0.169-1.913,0.353-2.854C63.845,64.74,64.76,64.667,65.685,64.683z"/>
<path fill="#110F0C" d="M59.389,45.823c-2.036,1.05-4.073,2.1-6.11,3.15c-1.055,0.003-2.11,0.003-3.166,0.006c-0.002-2.054-0.005-4.108-0.007-6.165c2.21-0.922,4.421-1.846,6.63-2.768c1.746-2.316,3.653-2.273,5.688-0.391l0.486,0.238c0.529,0.638,0.784,1.324,0.768,2.057c-0.019,0.754-0.096,1.129-0.228,1.132c-0.543,1.047-1.329,1.865-2.348,2.459C60.532,45.64,59.96,45.731,59.389,45.823z"/>
<path fill="#271F12" d="M62.587,67.759c1.022,0.092,2.045,0.189,3.064,0.306c-0.029,0.958-0.03,1.907-0.008,2.859c-1.016-0.004-2.029-0.016-3.044-0.037C62.597,69.843,62.592,68.803,62.587,67.759z"/>
<path fill="#1A1612" d="M37.821,42.457c-0.177-0.919-0.345-1.84-0.502-2.765c1.119,1.083,2.24,2.17,3.362,3.253C39.721,42.82,38.769,42.658,37.821,42.457z"/>
<path fill="#2D2922" d="M46.989,49.009c-1.021-0.003-2.04,0.046-3.055,0.149c-0.026-1.089-0.052-2.185-0.078-3.277C44.9,46.922,45.945,47.965,46.989,49.009z"/>
<path fill="#554D3E" d="M31.268,52.286c1.071-0.07,2.144-0.137,3.216-0.21c-0.111,1.153-0.224,2.304-0.34,3.46c-0.003,0-1.385-0.204-1.385-0.204s-1.393,0.116-1.392,0.119C31.333,54.398,31.3,53.343,31.268,52.286z"/>
<path fill="#6A6A6A" d="M75.269,65.149c-0.123-1.199-0.248-2.401-0.373-3.601c1.116-1.084,2.351-1.242,3.706-0.474c0.926,1.337,0.74,2.493-0.557,3.47C77.126,64.78,76.201,64.981,75.269,65.149z"/>
<path fill="#221D16" d="M78.045,64.545c0.118-0.988,0.215-1.983,0.286-2.979c0.986-1.284,1.993-1.363,3.029-0.058l0.011-0.109c-0.097,1.116-0.191,2.236-0.29,3.356C80.07,64.671,79.058,64.601,78.045,64.545z"/>
<path fill="#65563F" d="M81.361,61.509l-1.516-0.016c0,0-1.515,0.07-1.514,0.073c-1.145-0.006-2.288-0.015-3.435-0.021c-2.064-0.07-4.129-0.141-6.191-0.214c-0.632-0.711-0.846-1.429-0.645-2.148c0.201-0.721,0.407-1.08,0.615-1.08l0.021,0.186c1.134-1.489,2.228-1.462,3.283,0.086c3.057,0,6.113,0,9.168,0C81.219,59.418,81.288,60.465,81.361,61.509z"/>
<path fill="#57524A" d="M68.948,55.305c2.064-1.099,4.129-2.197,6.192-3.296c0.787,0.629,1.07,1.281,0.851,1.959c-0.224,0.687-0.46,1.031-0.709,1.031c-1.14,0.086-2.278,0.168-3.417,0.254C70.912,56.474,69.943,56.553,68.948,55.305z"/>
<path fill="#6A6A6A" d="M75.282,54.999c-0.104-0.994-0.151-1.989-0.142-2.987c0.988-0.106,1.965-0.033,2.926,0.214C77.137,53.15,76.209,54.075,75.282,54.999z"/>
<path fill="#686766" d="M68.948,55.305c0.975-0.013,1.951-0.03,2.922-0.052c0.079,1.037,0.117,2.078,0.11,3.122c-1.092-0.027-2.183-0.056-3.278-0.083C68.668,57.285,68.752,56.29,68.948,55.305z"/>
<path fill="#2B2216" d="M62.423,39.655c-1.898,0.128-3.795,0.256-5.69,0.388c0.003,0.003-0.698-0.775-0.698-0.775c-0.731-1.071-0.55-1.956,0.544-2.652c0.995-0.208,1.979-0.461,2.951-0.76c1.028-0.964,1.991-0.952,2.881,0.189C62.415,37.251,62.418,38.453,62.423,39.655z"/>
<path fill="#534229" d="M62.711,49.033c-1.085-0.016-2.17-0.027-3.256-0.043c-0.021-1.056-0.043-2.111-0.066-3.167l0.043-0.027c0.902-0.687,1.901-1.166,3.011-1.407c1.177-0.11,2.162,0.271,2.957,1.141C64.504,46.698,63.607,47.864,62.711,49.033z"/>
<path fill="#6A6A6A" d="M65.4,45.53c-0.915,0.159-1.84,0.248-2.77,0.269c-0.775-0.567-1.118-1.214-1.033-1.944c0.092-0.766,0.243-1.15,0.453-1.15c0.322-0.928,0.607-1.865,0.859-2.814C63.74,41.77,64.57,43.65,65.4,45.53z"/>
<path fill="#D19A49" d="M62.41,36.045l-1.46,0.214l-1.421-0.403c-0.047-0.888-0.164-1.767-0.354-2.637c-0.002,0,0.036-0.021,0.036-0.021c1.175-1.123,2.099-0.891,2.802,0.522l0.76-0.336C62.657,34.272,62.535,35.16,62.41,36.045z"/>
<path fill="#686766" d="M68.676,58.104c0.011,1.077,0.02,2.154,0.029,3.231c-0.967-0.919-1.933-1.831-2.896-2.743C66.724,58.191,67.68,58.03,68.676,58.104z"/>
<path fill="#AF833D" d="M56.774,20.826c0.04,1.031,0.078,2.06,0.118,3.091c-1.091,0.018-2.186,0.037-3.274,0.058C54.671,22.926,55.723,21.876,56.774,20.826z"/>
<path fill="#7F735D" d="M62.014,33.72c-0.914-0.269-1.847-0.442-2.8-0.519c0.161-0.87,0.154-1.733-0.024-2.594c1.146-0.037,2.292-0.07,3.439-0.104C62.424,31.577,62.22,32.648,62.014,33.72z"/>
<path fill="#E8BF84" d="M50.114,36.027l-1.463,0.375l-1.46-0.385c1.003-0.76,2.006-1.523,3.01-2.283c0.765,0.537,1.006,1.059,0.727,1.557C50.653,35.783,50.382,36.027,50.114,36.027z"/>
<path fill="#EDCC9B" d="M50.114,36.027c-0.005-0.769,0.024-1.535,0.087-2.298c0.947-0.248,1.893-0.238,2.832,0.033c0.07,0.931,0.124,1.859,0.154,2.787C52.161,36.375,51.138,36.201,50.114,36.027z"/>
<path fill="#A77E41" d="M56.578,36.616c-0.131,0.896-0.313,1.782-0.544,2.655c-1.039-0.772-2.077-1.542-3.116-2.311C54.137,36.848,55.358,36.732,56.578,36.616z"/>
<path fill="#2B2216" d="M62.05,42.704c0.192,1.031,0.387,2.063,0.58,3.094c-1.066,0-2.132,0-3.198,0C60.305,44.764,61.178,43.735,62.05,42.704z"/>
</svg>