<?xml version="1.0" encoding="utf-8"?>
<!DOCTYPE svg PUBLIC "-//W3C//DTD SVG 1.1//EN" "http://www.w3.org/Graphics/SVG/1.1/DTD/svg11.dtd">
<svg version="1.1" xmlns="http://www.w3.org/2000/svg" xmlns:xlink="http://www.w3.org/1999/xlink" x="0px" y="0px" width="100px" height="100px" viewBox="0 0 100 100" enable-background="new 0 0 100 100" xml:space="preserve">
<path fill="#5E4C2F" d="M93.243,24.697c-0.049,3.113-0.098,6.223-0.146,9.333c-0.86,1.596-1.951,3.064-2.669,4.736c-0.578,1.056-1.308,1.996-2.201,2.801c-1.523,0.888-3.038,1.801-4.564,2.686c-1.004,0.562-2.033,1.09-3.077,1.584c-1.538,0.778-3.07,1.575-4.633,2.319c-1.072,0.464-2.144,0.925-3.22,1.395c-1.102,0.491-2.211,0.938-3.35,1.355c-1.222,0.289-2.445,0.433-3.703,0.43c-2.017-0.119-3.793-0.83-5.391-2.054c-0.957-0.991-1.781-2.066-2.472-3.253c-1.179-1.749-2.184-3.559-2.441-5.691c0.068-1.404,0.437-2.726,1.091-3.958c0.827-1.083,1.818-2.005,2.957-2.752c2.388-1.028,4.777-2.078,7.118-3.214c2.232-1.01,4.442-2.09,6.601-3.262c2.143-1.013,4.183-2.249,6.394-3.128c1.146-0.275,2.308-0.449,3.483-0.51c1.762-0.061,3.525-0.061,5.288-0.058C90.05,23.482,91.84,23.326,93.243,24.697z"/>
<path fill="#79633B" d="M31.313,87.429c-4.117-2.176-8.233-4.353-12.352-6.528c-0.035-0.681-0.068-1.36-0.107-2.041c-0.476-2.756-1.167-5.476-1.254-8.304c-0.069-2.302,0.438-4.423,1.817-6.303c2.266-2.575,5.273-3.125,8.475-3.158c2.391-0.006,4.749,0.18,6.975,1.147c2.79,1.563,4.976,3.684,6.186,6.687c0.617,2.203,0.313,4.318-0.72,6.329c-1.007,1.749-1.973,3.546-2.986,5.298c-0.92,1.666-1.764,3.394-2.864,4.965c-0.478,0.397-0.96,0.797-1.439,1.197C32.468,86.952,31.891,87.191,31.313,87.429z"/>
<path fill="#58472B" d="M92.858,46.828c0.006,6.271,0.014,12.546,0.021,18.82c-1.169,1.505-2.396,2.939-4.386,3.397c-1.973,0.055-3.854-0.449-5.76-0.879c-1.323-0.272-2.636-0.544-3.966-0.81c-1.386-0.213-2.727-0.546-4.061-0.985c-1.278-0.702-2.272-1.685-3.06-2.887c-0.519-1.318-0.727-2.688-0.605-4.093c0.503-1.962,1.608-3.576,3.068-4.943c1.27-1.267,2.594-2.506,3.943-3.699c0.408-0.394,0.836-0.787,1.251-1.184c0.798-0.803,1.645-1.565,2.528-2.286c0.937-0.635,1.94-1.156,3.003-1.565c1.665-0.369,3.326-0.763,5.057-0.556C90.975,45.549,91.957,46.114,92.858,46.828z"/>
<path fill="#856D45" d="M18.961,80.901c-3.906-1.978-7.813-3.952-11.719-5.93c1.201-1.853,1.99-3.875,2.51-6.015c0.368-0.641,0.735-1.275,1.103-1.913c0.592-0.449,1.184-0.889,1.776-1.334c1.427-0.501,2.882-0.619,4.37-0.363c0.664,0.339,1.324,0.681,1.988,1.017c0.459,0.586,0.918,1.172,1.377,1.755c0.792,1.254,1.6,2.502,2.423,3.735c0.311,3.204-0.955,5.743-3.305,7.824L18.961,80.901z"/>
<path fill="#5F4D31" d="M87.316,77.507c-2.132,1.096-4.264,2.188-6.396,3.284l-1.21,0.659c-0.69,0.616-1.461,1.113-2.309,1.489c-0.879,0.286-1.704,0.684-2.475,1.196l-0.105,0.098c-1.671,1.275-3.192,1.117-4.563-0.479c-2.604-5.057-0.098-8.478,3.678-11.489c4.323-2.097,8.574-2.277,12.712,0.481C88.119,74.159,88.342,75.743,87.316,77.507z"/>
<path fill="#604E30" d="M56.112,93.538c-4.181,0.141-8.362,0.28-12.543,0.418c0.069-0.754,0.137-1.508,0.205-2.265c1.213-3.576,1.469-7.617,4.92-10.113c2.245-1.117,4.511-1.156,6.802-0.152C60.741,85.201,58.911,89.345,56.112,93.538z"/>
<path fill="#5A492D" d="M87.316,77.507c0.052-0.747,0.12-1.489,0.206-2.233c-0.944-1.011-1.819-2.081-2.631-3.204c-0.629-2.125-0.285-4.065,1.104-5.808c0.628-0.293,1.253-0.589,1.879-0.882c1.669,0.088,3.337,0.177,5.005,0.268C91.025,69.6,89.169,73.552,87.316,77.507z"/>
<path fill="#4E3E26" d="M56.112,93.538c-0.064-2.93-0.13-5.862-0.194-8.795c0.493-0.583,0.984-1.163,1.476-1.746c4.015-1.438,7.429-0.296,10.476,2.43c0.302,0.698,0.604,1.397,0.908,2.096C64.554,89.529,60.333,91.534,56.112,93.538z"/>
<path fill="#9E834D" d="M18.541,18.636c3.259-1.871,6.517-3.742,9.775-5.612c1.399,0.323,2.818,0.488,4.258,0.513c1.361,0.61,2.381,1.584,3.11,2.881c0.281,1.486,0.125,2.915-0.467,4.3c-1.9,2.481-4.576,3.812-7.352,5.005c-2.341,0.522-4.561,0.253-6.646-0.97C19.304,23.159,18.457,21.102,18.541,18.636z"/>
<path fill="#78623B" d="M6.816,25.191c1.749-1.129,3.496-2.255,5.243-3.384c0.717,0.027,1.434,0.055,2.154,0.085c1.459,0.083,2.872,0.366,4.256,0.854c1.262,0.818,2.342,1.816,3.23,3.04c0.583,1.458,0.743,2.951,0.557,4.504c-0.476,1.544-1.346,2.811-2.597,3.821c-2.165,1.236-4.436,1.364-6.784,0.641C8.997,32.747,8.776,28.42,6.816,25.191z"/>
<path fill="#766239" d="M6.777,43.953c0-1.172,0-2.344-0.001-3.516c0.899-1.685,1.358-3.635,2.983-4.883c1.261-0.467,2.541-0.564,3.859-0.293c1.971,0.494,3.981,0.809,5.905,1.507c0.577,0.4,1.143,0.793,1.718,1.196c0.403,0.583,0.796,1.157,1.196,1.743c0.458,1.367,0.693,2.759,0.711,4.196c-0.084,1.453-0.419,2.835-0.998,4.162c-0.45,0.556-0.908,1.111-1.353,1.663c-1.18,0.8-2.487,1.288-3.883,1.514c-1.363,0.083-2.734,0.04-4.09-0.125c-1.303-0.335-2.467-0.955-3.448-1.886C8.203,47.63,7.702,45.69,6.777,43.953z"/>
<path fill="#AD8E57" d="M43.75,6.258c4.175,0,8.35,0,12.522,0c0.138,2.521-0.898,4.471-2.9,5.951c-2.237,1.105-4.476,1.108-6.717,0.015C44.648,10.744,43.615,8.785,43.75,6.258z"/>
<path fill="#AB8B55" d="M59.638,6.832c2.021,1.05,4.043,2.1,6.065,3.149c0.99,1.099,1.511,2.383,1.563,3.867c-0.308,1.452-1.009,2.679-2.1,3.689c-2.065,1.16-4.162,1.205-6.294,0.195c-1.191-0.906-2.074-2.057-2.653-3.437c-0.252-1.468-0.095-2.902,0.412-4.303C57.477,8.794,58.472,7.732,59.638,6.832z"/>
<path fill="#766239" d="M37.534,90.578c-2.074-1.05-4.147-2.1-6.221-3.149l0.707-1.294c0.195-1.453,0.666-2.808,1.453-4.05c1.672-1.608,3.745-2.069,5.972-2.082c1.453,0.074,2.841,0.425,4.17,1.005c1.161,0.888,1.979,2.035,2.502,3.39c0.133,1.435-0.122,2.799-0.815,4.071c-1.526,1.688-3.549,2.054-5.687,2.106C38.922,90.578,38.228,90.578,37.534,90.578z"/>
<path fill="#B6945E" d="M87.624,25.197c-0.894,0.907-1.786,1.816-2.679,2.722c-1.73-1.236-3.693-1.05-5.65-0.934c-1.217-0.629-2.008-1.605-2.371-2.927c0.178-1.358,0.775-2.487,1.796-3.394c1.813-0.824,3.976-0.226,5.698-1.41c1.102,0.739,2.203,1.478,3.305,2.213c0.619,0.641,1.24,1.278,1.86,1.917C88.93,23.989,88.277,24.593,87.624,25.197z"/>
<path fill="#846B43" d="M7.205,65.663c-0.033-1.11-0.065-2.222-0.099-3.332c0.511-2.115,1.329-4.035,3.287-5.246c2.184-0.77,4.206-0.474,6.065,0.909c0.966,1.104,1.54,2.393,1.779,3.833c-0.136,1.446-0.632,2.756-1.537,3.903c-1.213,0.757-2.518,1.291-3.926,1.563C10.501,68.181,8.687,67.492,7.205,65.663z"/>
<path fill="#846C43" d="M9.552,59.209c-0.816,1.04-1.631,2.081-2.446,3.122c-0.065-3.076-0.131-6.156-0.197-9.235c0.9-1.028,1.958-1.858,3.177-2.487c1.348-0.277,2.695-0.28,4.044-0.003c0.575,0.37,1.147,0.742,1.723,1.114c0.319,0.607,0.638,1.212,0.955,1.818c-0.024,1.426-0.559,2.634-1.538,3.653C13.399,57.967,11.16,57.693,9.552,59.209z"/>
<path fill="#8A7149" d="M6.816,25.191c1.915,2.002,3.83,4.004,5.745,6.006c0.728,1.364,0.641,2.646-0.386,3.83c-2.035,0.873-4.036,1.535-5.49-0.949C6.729,31.115,6.774,28.151,6.816,25.191z"/>
<path fill="#58472B" d="M93.157,40.431c-0.001,1.126-0.003,2.252-0.004,3.381c-1,0.958-2.152,1.672-3.458,2.14c-2.072,0.641-4.027,0.485-5.799-0.87c-0.813-1.153-1.112-2.432-0.898-3.83c1.039-1.889,3.139-2.502,4.634-3.845l-0.261,0.134c1.058-1.099,2.27-1.367,3.657-0.68C92.009,37.889,92.719,39.079,93.157,40.431z"/>
<path fill="#B2915B" d="M18.814,24.947c-1.187-0.22-2.374-0.443-3.56-0.663c-1.022-0.409-1.601-1.159-1.737-2.249l-1.458-0.229c2.161-1.056,4.321-2.115,6.482-3.171c1.167,1.028,2.333,2.057,3.5,3.088l0.139,1.404c-0.345,0.952-0.998,1.593-1.959,1.919L18.814,24.947z"/>
<path fill="#886F47" d="M7.205,65.663c1.229-0.027,2.458-0.058,3.687-0.085c1.323-0.059,2.647-0.113,3.971-0.168c-0.757,1.086-1.512,2.176-2.269,3.262l-0.084,0.052c-1.175,1.264-1.547,3.107-3.009,4.166c-1.21,0.528-2.098,0.198-2.666-0.995C6.958,69.817,7.082,67.742,7.205,65.663z"/>
<path fill="#78623B" d="M43.75,6.258c1.093,0.974,2.187,1.944,3.279,2.917c-0.078,0.684-0.154,1.37-0.23,2.057c-0.748,1.2-1.763,2.082-3.084,2.6c-1.427,0.037-2.672-0.433-3.76-1.346c-1.167-1.987-0.977-3.879,0.398-5.686C41.486,6.621,42.618,6.441,43.75,6.258z"/>
<path fill="#9E834D" d="M65.456,15.981c0.061-1.166,0.123-2.332,0.185-3.497c1.116-1.261,2.25-1.218,3.397-0.043c1.02,0.019,2.004,0.214,2.951,0.589c0.366,0.553,0.734,1.102,1.101,1.654c-0.328,1.343-1.102,2.338-2.322,2.984c-1.328,0.302-2.623,0.192-3.895-0.28C66.401,16.918,65.929,16.451,65.456,15.981z"/>
<path fill="#9E834D" d="M75.288,15.566c1.02,0.019,2.004,0.214,2.951,0.589c0.407,0.525,0.815,1.05,1.223,1.578c-0.452,1.303-1.285,2.279-2.504,2.927c-2.106,0.604-3.92,0.131-5.434-1.462c-0.675-1.288-0.542-2.487,0.399-3.598l-0.058,0.058C72.974,14.403,74.114,14.308,75.288,15.566z"/>
<path fill="#9E834D" d="M84.418,19.255c-2.178,0.937-4.355,1.874-6.534,2.811c-0.35-0.589-0.698-1.181-1.048-1.77c0.443-0.522,0.888-1.044,1.332-1.565l-0.043,0.042c1.107-1.251,2.244-1.336,3.413-0.083C82.532,18.712,83.491,18.902,84.418,19.255z"/>
<path fill="#9E834D" d="M87.624,25.197c0.033-1.242,0.065-2.484,0.099-3.729c1.84,1.077,3.681,2.154,5.521,3.229C91.371,24.865,89.497,25.03,87.624,25.197z"/>
<path fill="#4E3E26" d="M6.687,34.078c1.936,0.107,3.873,0.216,5.809,0.327l0.987,0.86l0.008,1.306l-0.964,0.882c-1.16,0.15-2.321,0.296-3.48,0.446c-0.821,0.912-1.607,0.882-2.354-0.092C6.69,36.562,6.688,35.32,6.687,34.078z"/>
<path fill="#3A2F1D" d="M90.812,37.74c-1.147-0.064-2.294-0.131-3.439-0.199c1.907-1.168,3.816-2.34,5.725-3.512c0.069,1.251,0.138,2.5,0.206,3.748C92.456,38.824,91.626,38.759,90.812,37.74z"/>
<path fill="#8A7149" d="M6.777,43.953c0.833,1.324,1.667,2.649,2.5,3.974l0.488,1.443l-1.018,1.132l-1.422-0.543C7.141,47.957,6.958,45.955,6.777,43.953z"/>
<path fill="#8A7149" d="M6.835,71.895c0.868-0.006,1.738-0.015,2.606-0.024c0.668-0.451,1.335-0.906,2.004-1.357c0.334,0.732,0.668,1.468,1.002,2.2c-1.735,0.754-3.47,1.505-5.205,2.258C7.106,73.946,6.971,72.92,6.835,71.895z"/>
<path fill="#BB9762" d="M40.354,6.801c0.04,1.926,0.078,3.854,0.117,5.78c-0.465,0.256-0.932,0.513-1.397,0.772c-1.091-0.174-1.968-0.699-2.634-1.578c-0.346-1.129-0.014-1.996,0.995-2.604C38.408,8.382,39.38,7.592,40.354,6.801z"/>
<path fill="#735E39" d="M59.638,6.832c-0.083,0.796-0.197,1.59-0.345,2.377c-1.185,1.764-2.797,2.233-4.781,1.587c-0.435-0.446-0.868-0.888-1.301-1.334c1.021-1.068,2.041-2.136,3.062-3.204C57.395,6.451,58.516,6.639,59.638,6.832z"/>
<path fill="#4D3E27" d="M74.927,84.136c0.993-1.041,1.986-2.078,2.98-3.116c0.888-0.854,1.813-0.897,2.778-0.131c0,0,0.234-0.095,0.234-0.098C78.922,81.905,76.924,83.019,74.927,84.136z"/>
<path fill="#BB9762" d="M37.435,9.172c0.129,0.998,0.267,1.999,0.415,2.994c-0.211,0.521-0.421,1.043-0.629,1.565c-0.964,0.653-2.017,0.854-3.155,0.61c-0.536-0.159-1.073-0.314-1.61-0.473c-0.365-0.421-0.731-0.845-1.097-1.266C33.384,11.458,35.41,10.314,37.435,9.172z"/>
<path fill="#4D3E27" d="M72.375,84.023c0.818,0.037,1.635,0.107,2.446,0.211c-2.016,1.099-4.029,2.194-6.045,3.289l-0.693-0.738c-0.416-1.321-0.139-2.478,0.833-3.464C70.215,82.842,71.375,83.04,72.375,84.023z"/>
<path fill="#604E30" d="M43.569,93.956c-2.011-1.126-4.023-2.252-6.035-3.378l0.873-1.117c1.82-0.415,3.635-0.442,5.443,0.073c0.849,0.985,1.096,2.103,0.74,3.351L43.569,93.956z"/>
<path fill="#8A7149" d="M7.325,49.959c0.529-0.106,1.054-0.238,1.572-0.396c0.517,0.234,1.033,0.47,1.552,0.704c0.396,1.185,0.081,2.128-0.949,2.836l-1.295-0.007H6.91C7.047,52.053,7.186,51.006,7.325,49.959z"/>
<path fill="#5F4D31" d="M90.812,37.74c0.831-0.028,1.661-0.015,2.491,0.037c0.181,0.897,0.132,1.782-0.146,2.655C92.375,39.534,91.593,38.637,90.812,37.74z"/>
<path fill="#BB9762" d="M81.538,18.691c-1.137,0.027-2.274,0.055-3.413,0.083c0.014-0.873,0.052-1.746,0.114-2.619C79.34,17,80.439,17.846,81.538,18.691z"/>
<path fill="#BB9762" d="M75.288,15.566c-1.14,0.031-2.279,0.058-3.421,0.092c0.017-0.876,0.059-1.752,0.122-2.628C73.09,13.875,74.189,14.721,75.288,15.566z"/>
<path fill="#BB9762" d="M31.348,15.627c-1.01-0.867-2.021-1.736-3.032-2.604c0.975-0.424,1.99-0.564,3.042-0.421l-0.16-0.162C33.101,13.417,33.152,14.479,31.348,15.627z"/>
<path fill="#BB9762" d="M69.038,12.441c-1.132,0.016-2.266,0.031-3.397,0.043c0.02-0.836,0.041-1.669,0.063-2.502C66.816,10.802,67.928,11.62,69.038,12.441z"/>
<path fill="#5F4D31" d="M90.652,43.761c0.834,0.019,1.669,0.037,2.502,0.052c0.263,1.038,0.166,2.045-0.294,3.015c-0.736,0.015-1.47,0.049-2.202,0.101c-0.418-0.528-0.838-1.053-1.256-1.581C89.818,44.82,90.235,44.289,90.652,43.761z"/>
<path fill="#8A7149" d="M6.691,37.807c0.789-0.061,1.575-0.03,2.356,0.089c-0.758,0.848-1.515,1.696-2.272,2.542C6.433,39.571,6.405,38.692,6.691,37.807z"/>
<path fill="#9E834D" d="M69.776,34.181c-2.485,1.016-4.972,2.036-7.457,3.052c-1.399-0.491-2.553-1.331-3.496-2.472c-0.521-1.425-0.497-2.835,0.07-4.245c0.938-1.19,2.113-2.042,3.534-2.563c1.511-0.198,2.962,0.015,4.372,0.577c1.234,0.891,2.166,2.029,2.801,3.412C69.66,32.689,69.718,33.434,69.776,34.181z"/>
<path fill="#BB9762" d="M59.264,37.352c-0.024,1.056-0.047,2.115-0.07,3.174c-0.054,2.283-0.934,4.138-2.846,5.466c-1.386,0.571-2.813,0.726-4.295,0.522c-1.421-0.574-2.567-1.478-3.46-2.723c-0.529-1.452-0.646-2.93-0.302-4.44c1.003-2.194,2.646-3.668,4.935-4.419c1.549-0.156,3.02,0.113,4.414,0.802C58.182,36.275,58.722,36.812,59.264,37.352z"/>
<path fill="#B38F5A" d="M81.101,28.176c-2.228,1.333-4.457,2.667-6.685,4.001c-0.492-0.461-0.981-0.925-1.473-1.385c-0.562-1.251-0.76-2.558-0.596-3.922c0.485-1.288,1.312-2.307,2.471-3.055c1.413-0.278,2.563,0.149,3.451,1.285l-0.315-0.226C78.989,25.988,81.05,26.125,81.101,28.176z"/>
<path fill="#604F30" d="M81.101,28.176c-1.049-1.102-2.097-2.2-3.146-3.302c2.328,1.016,4.657,2.032,6.988,3.045C83.664,28.005,82.382,28.09,81.101,28.176z"/>
<path fill="#604F30" d="M74.416,32.177c-1.548,0.668-3.095,1.336-4.641,2.005l-1.428,0.168c-0.318-0.604-0.635-1.206-0.953-1.81c0.156-1.428,0.881-2.49,2.097-3.232c2.129-0.647,3.989-0.061,5.698,1.233C74.906,31.075,74.648,31.621,74.416,32.177z"/>
<path fill="#352A1A" d="M87.631,37.408c-1.04,1.095-2.081,2.194-3.121,3.29c-0.563,0.403-1.127,0.809-1.689,1.211c-0.536-0.439-1.071-0.879-1.607-1.321C83.353,39.528,85.493,38.466,87.631,37.408z"/>
<path fill="#504327" d="M56.067,43.569c1.043-1.013,2.085-2.029,3.127-3.042c1.106,1.077,2.214,2.155,3.322,3.232c-0.837,1.074-1.92,1.721-3.284,1.874c-0.633-0.18-1.268-0.36-1.901-0.54C56.91,44.585,56.489,44.078,56.067,43.569z"/>
<path fill="#3A2F1D" d="M68.799,46.923c-0.006-1.035,0.009-2.069,0.049-3.104l-0.027,0.024c2.073-0.009,4.148-0.019,6.223-0.031c0.363,0.476,0.727,0.952,1.091,1.432c0.071,1.251-0.33,2.325-1.201,3.226c-1.085,0.592-2.244,0.809-3.47,0.714c-0.548-0.253-1.096-0.51-1.645-0.763C69.478,47.923,69.139,47.423,68.799,46.923z"/>
<path fill="#3A2F1D" d="M62.523,46.877c2.093,0.015,4.185,0.031,6.276,0.046l-0.09-0.091c1.148,0.949,1.476,2.13,0.98,3.537c-1.517,1.678-3.376,2.093-5.511,1.504c-1.196-0.727-1.979-1.775-2.4-3.106C62.028,48.137,62.275,47.505,62.523,46.877z"/>
<path fill="#B38F5A" d="M59.418,34.356c0.967,0.961,1.935,1.919,2.9,2.877l-1.52,0.238l-1.535-0.119l0.206,0.284c-0.455-0.537-0.909-1.077-1.364-1.617C58.542,35.463,58.98,34.911,59.418,34.356z"/>
<path fill="#3A2F1D" d="M75.043,43.813c1.048-0.967,2.097-1.932,3.143-2.899c0.732,0.735,1.014,1.501,0.841,2.301c-0.175,0.812-0.373,1.218-0.598,1.218c-1.343,0.714-2.484,0.433-3.448-0.705L75.043,43.813z"/>
<path fill="#504327" d="M68.848,43.819l-0.027,0.024L68.848,43.819z"/>
<path fill="#3A2F1D" d="M59.413,43.764c1.034,0,2.067-0.003,3.103-0.006c0.049,1.038,0.05,2.078,0.007,3.119h-0.001c-1.099,1.068-2.312,1.221-3.643,0.455C58.083,45.995,58.263,44.808,59.413,43.764z"/>
<path fill="#352A1A" d="M78.169,43.648c-0.001-0.916,0.003-1.828,0.017-2.738c1.008-0.14,2.017-0.247,3.029-0.32c-0.002-0.003,0.092,0.092,0.092,0.092c0.885,0.628,1.278,1.355,1.18,2.173c-0.105,0.863-0.278,1.297-0.518,1.297C80.605,44.725,79.334,44.594,78.169,43.648z"/>
<path fill="#8A7149" d="M15.834,65.077c-0.063-0.866-0.126-1.733-0.194-2.6c0.946-1.779,1.445-3.797,2.864-5.326c1.092-0.869,2.332-1.395,3.705-1.629c1.39-0.107,2.77-0.055,4.15,0.125c1.329,0.507,2.445,1.306,3.358,2.396c0.638,1.272,0.896,2.621,0.78,4.044c-0.525,1.314-1.324,2.441-2.359,3.402c-2.13,0.919-4.26,1.837-6.392,2.753c-0.444,0.668-0.888,1.333-1.333,2.002c-0.601-0.528-1.204-1.056-1.807-1.584l0.325,0.192c-0.969-0.735-1.991-1.389-3.067-1.953C15.856,66.292,15.845,65.685,15.834,65.077z"/>
<path fill="#846B43" d="M34.484,74.58c1.009-0.896,2.017-1.797,3.026-2.694c1.188-1.218,2.632-1.874,4.331-1.969c5.373,1.169,9.215,3.516,7.678,9.982c-0.746,1.456-1.894,2.484-3.425,3.064c-3.053-0.445-5.911-1.581-8.797-2.604C35.344,78.929,34.472,76.97,34.484,74.58z"/>
<path fill="#896F48" d="M40.973,72.024c-1.153-0.046-2.309-0.092-3.463-0.138c-1.059-2.069-2.12-4.142-3.18-6.21c0.33-0.629,0.659-1.255,0.989-1.884c1.743-1.477,3.725-1.91,5.934-1.367c2.042,0.705,3.868,1.792,5.565,3.113c0.969,1.086,1.567,2.355,1.854,3.778c-0.116,1.465-0.67,2.725-1.73,3.757C44.817,73.5,42.721,73.75,40.973,72.024z"/>
<path fill="#8A7149" d="M19.486,79.677c0.812-2.328,1.622-4.657,2.434-6.985c0.625-0.671,1.25-1.34,1.874-2.008c0.47,0.787,0.938,1.571,1.408,2.358C23.296,75.252,21.39,77.464,19.486,79.677z"/>
<path fill="#8A7149" d="M28.139,65.49c0.026-1.063,0.052-2.127,0.078-3.192c1.94-1.919,4.077-1.919,6.344-0.649c0.354,0.695,0.707,1.396,1.061,2.09c-0.432,0.653-0.862,1.304-1.294,1.956c0,0,0.003-0.018,0.001-0.018C32.266,65.615,30.203,65.55,28.139,65.49z"/>
<path fill="#4E3E26" d="M25.202,73.042c-1.094-0.119-2.188-0.237-3.282-0.354c-1.104-1.343-2.208-2.686-3.312-4.028c1.047-0.141,2.092-0.278,3.139-0.418C22.899,69.841,24.05,71.441,25.202,73.042z"/>
<path fill="#55462A" d="M34.484,74.58c0.981,1.221,1.961,2.438,2.942,3.659c-0.435,0.445-0.868,0.889-1.302,1.334c-1.211,0.406-2.417,0.372-3.618-0.046c-0.415-0.464-0.83-0.925-1.245-1.386C32.335,76.955,33.41,75.768,34.484,74.58z"/>
<path fill="#8A7149" d="M31.293,84.349c-0.011-2.068-0.021-4.138-0.032-6.207l0.027-0.036c0.974,0.836,1.596,1.88,1.869,3.134c-0.171,0.604-0.342,1.205-0.513,1.807C32.195,83.48,31.743,83.916,31.293,84.349z"/>
<path fill="#8A7149" d="M34.403,84.389c-0.676,0.751-1.471,1.337-2.383,1.749c-0.24-0.599-0.482-1.193-0.726-1.789l0.017-0.012C32.36,83.251,33.389,83.269,34.403,84.389z"/>
<path fill="#524428" d="M74.998,62.499c1.06,0.003,2.118,0.006,3.178,0.009c1.604,1.547,2.703,3.32,2.531,5.664c-0.418,1.41-1.183,2.6-2.297,3.567c-1.264,0.732-2.528,1.459-3.803,2.179c-1.301,0.721-2.557,1.499-3.782,2.344c-1.316,0.809-2.739,1.179-4.281,1.12c-1.496-0.455-2.752-1.26-3.753-2.46c-1.172-2.139-1.23-4.333-0.342-6.573c1.908-3.412,4.887-5.545,8.414-7.016C72.379,61.233,73.75,61.644,74.998,62.499z"/>
<path fill="#5B492D" d="M78.204,68.444c-0.009-1.978-0.02-3.958-0.028-5.936c1.056-0.009,2.113-0.021,3.169-0.034c0.985-1.016,1.97-2.032,2.952-3.051c1.19,1.986,2.382,3.973,3.575,5.957c0.002,0-0.27,0.149-0.27,0.149c-1.364,1.172-2.419,2.612-3.498,4.031c-1.001,0.687-2.11,1.044-3.323,1.067C79.579,70.305,78.722,69.576,78.204,68.444z"/>
<path fill="#362B1B" d="M84.342,56.255c-2.069-0.019-4.14-0.037-6.209-0.052c-0.528-0.419-1.056-0.833-1.586-1.252c-0.595-1.238-0.799-2.539-0.616-3.903c0.322-0.595,0.643-1.189,0.965-1.785c0.581-0.348,1.159-0.698,1.739-1.047c1.381-0.186,2.67,0.089,3.882,0.761c0.824,1.083,1.495,2.255,1.989,3.524l0.53,0.635c0.563,0.672,1.126,1.343,1.688,2.014C85.93,55.517,85.135,55.886,84.342,56.255z"/>
<path fill="#5F4D31" d="M90.658,46.929c-2.077,1.04-4.155,2.081-6.231,3.119c-0.434-0.504-0.867-1.008-1.301-1.514c0.139-0.65,0.278-1.304,0.417-1.954c0.559-0.363,1.117-0.726,1.675-1.086c1.955-0.107,3.983-0.491,5.425,1.397L90.658,46.929z"/>
<path fill="#5F4D31" d="M84.342,56.255c0.226-1.041,0.453-2.082,0.687-3.119c0.228,0.812,0.541,1.614,0.597,2.436C85.639,55.77,84.792,56.026,84.342,56.255z"/>
<path fill="#3A2F1D" d="M78.133,56.203c-1.052,1.099-2.102,2.197-3.152,3.296c-1.607,0.497-2.748-0.064-3.49-1.535c1.448-3.751,3.725-4.169,6.729-1.682L78.133,56.203z"/>
<path fill="#5F4D31" d="M71.764,59.484c1.072,0.003,2.146,0.006,3.218,0.012c0.019,1.005,0.024,2.002,0.019,3.004c-1.039,0.003-2.075,0.009-3.113,0.012c0,0-0.958-0.833-0.959-0.833c-0.002,0-0.038-1.272-0.04-1.272C70.887,60.406,71.764,59.484,71.764,59.484z"/>
<path fill="#3A2F1D" d="M84.297,59.423c-0.984,1.016-1.97,2.035-2.954,3.051C82.329,61.458,83.313,60.439,84.297,59.423z"/>
<path fill="#5F4D31" d="M84.506,52.501c-1.172-0.803-2.344-1.605-3.516-2.408c1.063-1.147,2.173-1.196,3.331-0.146l0.104,0.102C84.408,50.868,84.435,51.687,84.506,52.501z"/>
<path fill="#55462A" d="M12.594,68.672c-0.563-1.031-1.128-2.063-1.697-3.094c1.642-0.168,3.29-0.333,4.938-0.501l-0.317,0.979c0.903,0.4,1.231,0.854,0.992,1.361c-0.25,0.534-0.513,0.8-0.79,0.8C14.676,68.37,13.636,68.523,12.594,68.672z"/>
<path fill="#4E3E26" d="M15.719,68.218c-0.061-0.721-0.128-1.443-0.202-2.164c1.138,0.934,2.277,1.868,3.415,2.799C17.861,68.642,16.789,68.431,15.719,68.218z"/>
<path fill="#766239" d="M12.447,72.713c-1.002-0.281-2.005-0.562-3.006-0.843c1.022-1.05,2.046-2.1,3.069-3.146C12.49,70.055,12.468,71.382,12.447,72.713z"/>
<path fill="#4A3D24" d="M87.253,71.511c0.089,1.251,0.179,2.502,0.269,3.756c-4.149,0.013-8.298,0.019-12.446,0.025c-0.431-0.574-0.859-1.145-1.288-1.719c0.412-0.583,0.825-1.166,1.237-1.752l-0.078,0.086c1.726-1.865,4.677-1.3,6.374-3.22l-0.095,0.062C84.717,66.429,85.64,69.722,87.253,71.511z"/>
<path fill="#504327" d="M72.375,84.023c-1.219,0.113-2.437,0.226-3.655,0.342c-2.085-1.373-2.734-3.354-2.433-5.737c0.597-1.373,1.429-2.585,2.493-3.638l-0.116,0.055c1.981-1.828,4.053-1.864,6.208-0.317c0,0,0.201,0.559,0.201,0.562C74.175,78.203,73.275,81.112,72.375,84.023z"/>
<path fill="#504327" d="M80.686,80.889c-0.925,0.052-1.851,0.098-2.777,0.131C78.823,80.437,79.748,80.394,80.686,80.889z"/>
<path fill="#8A7149" d="M44.59,92.885c-0.248-0.939-0.47-1.886-0.667-2.838c-0.735-0.351-1.469-0.702-2.203-1.05c0.703-0.409,1.408-0.814,2.113-1.224c-0.049-0.986-0.096-1.975-0.144-2.96c1.926-2.308,3.899-2.47,5.923-0.126C47.938,87.419,46.264,90.154,44.59,92.885z"/>
<path fill="#4E3E26" d="M49.613,84.688c-1.975,0.04-3.949,0.083-5.923,0.122c0,0.004,0.285-1.168,0.285-1.168c-0.793-0.544-1.083-1.12-0.871-1.73c0.217-0.629,0.449-0.94,0.696-0.94c0.974,0.067,1.947,0.086,2.922,0.062c1.099-0.94,2.276-1.765,3.534-2.476c2.269-0.503,4.254,0.007,5.922,1.654c0.779,1.303,0.868,2.649,0.269,4.044c0,0-0.521,0.479-0.523,0.484C53.817,84.725,51.714,84.706,49.613,84.688z"/>
<path fill="#352A1A" d="M87.253,71.511c-2.01-0.922-4.018-1.841-6.027-2.762c2.126-1.071,4.251-2.146,6.377-3.22C87.487,67.522,87.369,69.515,87.253,71.511z"/>
<path fill="#5A492E" d="M56.446,84.255c-0.067-0.98-0.148-1.957-0.239-2.937c0.077-0.616,0.153-1.232,0.23-1.853c0.747-1.81,2.152-2.981,3.796-3.924c1.22-0.314,2.436-0.317,3.648,0.043c1.603,0.866,3.61,0.942,4.869,2.486c-0.009,2.097-0.02,4.196-0.03,6.293c-0.179,0.818-0.39,1.627-0.632,2.423C64.204,85.943,60.325,85.1,56.446,84.255z"/>
<path fill="#B1905A" d="M18.892,27.511c0.075-0.858,0.047-1.712-0.078-2.563l-0.154,0.165c1.227-1.025,2.29-2.215,3.38-3.381l0.001-0.006c1.996,0.015,3.99,0.034,5.986,0.049c0.777,0.101,1.553,0.205,2.333,0.305c1.557,0.464,2.82,1.349,3.795,2.646c0.748,1.435,1.047,2.954,0.903,4.56c-0.377,1.544-1.103,2.908-2.173,4.08c-1.239,0.94-2.623,1.587-4.137,1.941c-1.532,0.085-3.02-0.159-4.457-0.693C21.688,32.86,20.847,29.763,18.892,27.511z"/>
<path fill="#B38F5A" d="M28.028,21.773c2.139-1.001,4.28-2.005,6.419-3.006c0.249,0.568,0.498,1.136,0.746,1.703c-0.313,1.242-1.01,2.207-2.09,2.896c-1.929,0.186-3.668-0.235-5.12-1.587L28.028,21.773z"/>
<path fill="#BB9762" d="M34.447,18.767c0.047-0.882,0.118-1.764,0.209-2.643c0.229-0.562,0.459-1.123,0.687-1.685c0.606,0.027,1.211,0.055,1.816,0.083c0.439,0.415,0.879,0.833,1.318,1.245c0.145,1.242-0.154,2.356-0.966,3.317c-1.142,0.687-2.181,0.522-3.13-0.384L34.447,18.767z"/>
<path fill="#735E39" d="M31.348,15.627c-0.049-1.063-0.099-2.124-0.149-3.186c1.085,0.165,2.17,0.333,3.254,0.498c2.168,0.946,2.124,1.773-0.134,2.481c0,0,0.334,0.699,0.336,0.702C33.553,15.959,32.451,15.792,31.348,15.627z"/>
<path fill="#846B43" d="M12.496,34.405c0.021-1.068,0.042-2.137,0.065-3.208c2.118-0.031,4.234-0.058,6.352-0.088c2.127-1.755,4.216-1.596,6.276,0.122l-0.148-0.144c0.821,1.068,1.566,2.188,2.234,3.36c0.832,1.95,0.987,3.913,0.092,5.89c-0.847,1.117-1.919,1.929-3.22,2.444c-2.238,0.308-3.979-0.577-5.391-2.249l0.135,0.122c-0.879-0.824-1.746-1.654-2.605-2.497c-1.306-1.242-2.561-2.542-4.074-3.546L12.496,34.405z"/>
<path fill="#695433" d="M25.19,31.231c-2.094-0.04-4.188-0.08-6.279-0.122c-0.004-1.2-0.012-2.396-0.018-3.595C20.992,28.749,23.09,29.992,25.19,31.231z"/>
<path fill="#BB9762" d="M13.518,22.035c0.626,0.714,1.207,1.465,1.738,2.252C14.675,23.534,14.097,22.784,13.518,22.035z"/>
<path fill="#8A7149" d="M18.735,46.867c0.011-1.05,0.021-2.1,0.032-3.149c1.807-2.017,4.096-1.446,6.325-1.175c1.402,0.61,2.551,1.541,3.439,2.79c1.165,2.844,1.12,5.752,0.437,8.685c-0.636,1.307-1.57,2.359-2.794,3.144c-1.282,0.641-2.643,0.885-4.071,0.727c-2.89-0.678-4.894-2.555-6.552-4.89l0.212,0.229c-0.43-0.33-0.86-0.662-1.289-0.992c-0.397-1.064-0.307-2.084,0.271-3.063C16.008,48.29,17.986,48.641,18.735,46.867z"/>
<path fill="#55462A" d="M25.109,43.658c-2.113,0.021-4.229,0.042-6.342,0.064c-0.003-1.062-0.007-2.124-0.011-3.186c2.066,0.098,4.131,0.198,6.197,0.296c0,0,0.971,0.742,0.972,0.742c0.003,0,0.049,1.221,0.05,1.221S25.109,43.658,25.109,43.658z"/>
<path fill="#8A7149" d="M8.896,49.563c0.14-0.553,0.269-1.108,0.383-1.651c1.218-0.409,2.437-0.836,3.656-1.26c0.832-0.879,1.669-0.928,2.511-0.015l0.072,0.702c0.72,0.373,1.439,0.742,2.159,1.114c-0.65,0.482-1.298,0.965-1.949,1.446l-0.206,0.235c-0.812,0.995-1.857,1.456-3.139,1.383c-1.265-0.089-2.296-0.626-3.096-1.611L8.896,49.563z"/>
<path fill="#846B43" d="M15.729,49.898c-0.063-0.854-0.131-1.712-0.209-2.563c1.071-0.153,2.144-0.312,3.215-0.467C17.733,47.878,16.732,48.888,15.729,49.898z"/>
<path fill="#55462A" d="M18.755,37.566c0.101,1.029,0.145,2.057,0.134,3.089c-1.117-0.11-2.237-0.22-3.355-0.327c-0.825-0.696-1.141-1.428-0.944-2.204c0.2-0.793,0.426-1.19,0.678-1.19C16.606,36.171,17.76,36.431,18.755,37.566z"/>
<path fill="#55462A" d="M15.447,46.636l-1.258,0.049c0,0-1.259-0.034-1.255-0.034C13.768,46.2,14.604,46.193,15.447,46.636z"/>
<path fill="#4E3E26" d="M15.556,37.828c0.001,0.833-0.006,1.669-0.021,2.5c-1.004-0.958-2.007-1.917-3.009-2.872c0-0.003-0.108,0.149-0.108,0.149C13.597,35.799,14.644,35.872,15.556,37.828z"/>
<path fill="#735E39" d="M47.03,9.176c2.06,0.094,4.12,0.189,6.18,0.287c0.002,0-0.142-0.146-0.142-0.146c0.465,0.54,0.931,1.083,1.397,1.627c-0.194,1.474-0.871,2.658-2.105,3.506c-2.191,0.809-4.201,0.528-6.008-0.992c-0.749-1.374-0.62-2.658,0.389-3.854L47.03,9.176z"/>
<path fill="#735E39" d="M59.281,15.74c2.059,0.077,4.118,0.156,6.177,0.235c-0.001,0.006,0.019-0.305,0.019-0.305c0.942,1.19,0.92,2.398,0.068,3.625c-2.789,1.84-5.09,1.553-6.743-1.55C58.96,17.076,59.12,16.408,59.281,15.74z"/>
<path fill="#9E834D" d="M53.095,12.535c-0.008-1.074-0.017-2.146-0.026-3.22c2.075-0.033,4.152-0.067,6.226-0.104c-0.061,1.236-0.122,2.478-0.182,3.72C56.996,14.486,54.992,14.33,53.095,12.535z"/>
<path fill="#735E39" d="M53.095,12.535c2.008,0.128,4.016,0.259,6.021,0.391c0.089,0.94,0.146,1.874,0.165,2.813l0.138-0.186c-0.997,1.193-2.272,1.767-3.825,1.728c-2.224-0.928-3.896-2.127-2.386-4.88L53.095,12.535z"/>
<path fill="#846B43" d="M34.403,84.389c-1.031-0.006-2.063-0.024-3.093-0.049c-0.003-1.044-0.006-2.087-0.009-3.128c1.785-1.935,4.122-1.438,6.345-1.438c2.477,0.519,4.186,1.587,3.279,4.544C38.75,84.343,36.577,84.365,34.403,84.389z"/>
<path fill="#504027" d="M40.924,84.319c-1.074-1.059-2.146-2.121-3.219-3.183c-0.74-0.479-1.48-0.961-2.22-1.44c0.703-0.531,1.405-1.065,2.109-1.597c0,0-0.167,0.138-0.168,0.141c2.124,0.913,4.25,1.822,6.374,2.731c0.046,0.895,0.104,1.785,0.174,2.674C42.958,83.867,41.941,84.093,40.924,84.319z"/>
<path fill="#8A7149" d="M43.833,87.774c0.011,0.763,0.04,1.522,0.088,2.276c-1.837-0.198-3.677-0.394-5.516-0.589C40.215,88.9,42.023,88.338,43.833,87.774z"/>
<path fill="#6C5735" d="M78.27,25.099c-1.037,0.058-2.067,0.18-3.09,0.37c-1.994,1.446-4.037,1.59-6.139,0.229c-0.947-1.229-1.295-2.597-0.953-4.123c1.1-1.104,2.438-1.599,3.984-1.565c2.084,0.437,4.562-0.223,5.958,2.133c0,0-0.141-0.08-0.144-0.076C78.031,23.076,78.159,24.086,78.27,25.099z"/>
<path fill="#766239" d="M9.552,59.209c2.124-1.032,4.248-2.061,6.372-3.092l0.981,1.05l-0.02,1.438l-1.222,0.754C13.626,59.31,11.589,59.261,9.552,59.209z"/>
<path fill="#766239" d="M18.885,59.115c-1.082,1.12-2.162,2.24-3.244,3.363c0.005-1.041,0.012-2.078,0.023-3.119l-0.044,0.046c0.508-0.442,1.018-0.886,1.527-1.328C17.725,58.421,18.305,58.77,18.885,59.115z"/>
<path fill="#504027" d="M15.551,52.998c2.146,0.989,4.292,1.975,6.439,2.964c1.036,0.638,1.499,1.563,1.386,2.773c-0.388,0.415-0.775,0.827-1.163,1.242c-1.109-0.287-2.219-0.57-3.328-0.86c0-0.003,0.064,0.204,0.064,0.204c-1.323-0.839-2.408-1.916-3.264-3.229c0,0,0.233,0.024,0.236,0.024C15.799,55.077,15.674,54.039,15.551,52.998z"/>
<path fill="#55462A" d="M9.288,49.905c1.099,0.174,2.196,0.348,3.293,0.521c0.969,0.485,1.292,0.974,0.977,1.468c-0.316,0.498-0.633,0.745-0.958,0.745c-1.035,0.155-2.069,0.308-3.102,0.464C9.429,52.034,9.359,50.969,9.288,49.905z"/>
<path fill="#4E3E26" d="M12.599,52.639c-0.023-0.739-0.029-1.48-0.018-2.216c0.972-0.198,1.953-0.299,2.943-0.293c0.081,1.031,0.16,2.063,0.238,3.098C14.708,53.033,13.654,52.834,12.599,52.639z"/>
<path fill="#3A2F1D" d="M81.25,43.819c0.019-1.047,0.037-2.094,0.057-3.14c1.066,0.006,2.133,0.012,3.201,0.018c-0.054,1.013-0.078,2.029-0.07,3.045c0.659,0.537,1.318,1.071,1.978,1.608c-0.688,0.5-1.376,0.998-2.064,1.496l0.041,0.049c-1.015,1.272-2.226,1.499-3.63,0.674C79.929,46.19,80.138,44.945,81.25,43.819z"/>
<path fill="#504327" d="M84.351,46.846c0.022-1.035,0.051-2.069,0.084-3.104c2.073,0.006,4.145,0.013,6.215,0.019c-0.002,1.044-0.005,2.087-0.008,3.128C88.545,46.877,86.448,46.862,84.351,46.846z"/>
<path fill="#735E39" d="M22.04,21.73c-1.126,1.129-2.254,2.255-3.38,3.381C19.786,23.986,20.914,22.86,22.04,21.73z"/>
<path fill="#B3925C" d="M53.207,12.401c0.903,1.208,1.807,2.417,2.71,3.625c1.442,4.318-1.292,5.829-4.646,6.921c-2.411,0.324-4.809,0.278-7.167-0.378c-2.31-1.077-3.685-2.887-4.175-5.38c-0.661-1.541-0.574-3.045,0.259-4.504c0,0,0.284-0.104,0.282-0.104c1.102-0.021,2.205-0.04,3.307-0.061c1.05-1.313,2.121-1.328,3.212-0.052C49.062,12.447,51.135,12.426,53.207,12.401z"/>
<path fill="#AE8D57" d="M46.99,12.468c-1.071,0.019-2.141,0.034-3.212,0.052c0.989-0.977,1.978-1.95,2.965-2.92C46.758,10.564,46.842,11.519,46.99,12.468z"/>
<path fill="#BB9762" d="M65.653,18.813c-0.057-1.047-0.114-2.097-0.174-3.143c2.146-0.021,4.294-0.046,6.443-0.07c-0.036,1.028-0.071,2.057-0.104,3.085c-0.411,0.467-0.819,0.937-1.228,1.407c-1.231,0.22-2.47,0.256-3.714,0.134C66.467,19.756,66.06,19.286,65.653,18.813z"/>
<path fill="#B38F5A" d="M78.031,22.142c-1.98-0.107-3.96-0.217-5.94-0.324c-0.746-0.458-1.492-0.915-2.239-1.373c0.676-0.559,1.352-1.114,2.027-1.672c0,0-0.06-0.085-0.061-0.088c2.116,0.015,4.232,0.03,6.351,0.046C78.122,19.869,78.077,21.004,78.031,22.142z"/>
<path fill="#78623B" d="M15.556,37.828c-1.045-0.073-2.092-0.149-3.139-0.223c-0.02-1.001-0.087-1.999-0.203-2.994c2.179,0.986,4.359,1.972,6.54,2.954C17.69,37.655,16.623,37.74,15.556,37.828z"/>
<path fill="#BB9762" d="M40.189,12.685c0.179,0.803,0.313,1.611,0.408,2.426c-0.9,1.376-1.975,1.462-3.197,0.427l0.22,0.208c-1.083-0.687-1.459-1.398-1.129-2.127c0.334-0.742,0.676-1.114,1.029-1.114c0,0,0.326-0.333,0.328-0.336C38.626,12.352,39.406,12.523,40.189,12.685z"/>
<path fill="#695433" d="M37.519,12.505c0.033,1.08,0.067,2.16,0.101,3.241c-1.1-0.107-2.199-0.213-3.299-0.324c0.045-0.836,0.09-1.666,0.132-2.493C35.459,12.676,36.479,12.533,37.519,12.505z"/>
<path fill="#695433" d="M65.967,31.685c-1.117-0.146-2.232-0.293-3.348-0.439c-0.849-1.23-0.878-2.478-0.086-3.748c1.074-0.913,2.308-1.447,3.719-1.554c1.345,0.36,2.55,0.983,3.591,1.914c0.396,1.44-0.034,2.606-1.174,3.54l0.229-0.244C68.118,32.421,67.142,32.598,65.967,31.685z"/>
<path fill="#B38F5A" d="M59.429,31.209c-0.005,1.05-0.008,2.1-0.011,3.146l-0.06,0.061c-1.557,1.938-3.523,1.508-5.512,0.952c-0.972-1.037-1.346-2.261-1.123-3.665c1.291-1.877,3.052-2.435,5.217-1.858C58.437,30.3,58.933,30.754,59.429,31.209z"/>
<path fill="#BB9762" d="M65.967,31.685c0.965-0.241,1.942-0.418,2.932-0.531c-0.184,1.065-0.366,2.13-0.551,3.195C67.554,33.461,66.76,32.574,65.967,31.685z"/>
<path fill="#BB9762" d="M62.391,28.023c0.074,1.074,0.147,2.148,0.226,3.226c-1.063-0.012-2.126-0.024-3.189-0.04c0.002,0-0.025,0.061-0.025,0.061c-0.819-0.617-1.189-1.318-1.109-2.109c0.082-0.833,0.233-1.251,0.453-1.248c0.614-0.247,1.231-0.491,1.846-0.739C61.19,27.458,61.789,27.74,62.391,28.023z"/>
<path fill="#5F4D31" d="M50.079,43.639c1.09,0.208,2.181,0.415,3.271,0.623c1.346,0.525,2.564,1.26,3.679,2.191c0.355,0.635,0.706,1.267,1.063,1.907c0.458,1.447,0.464,2.884,0.019,4.343c-0.841,1.318-1.958,2.298-3.371,2.97c-2.491,0.562-4.666-0.03-6.558-1.73c-2.231-2.954-2.274-5.941-0.146-8.96C48.715,44.533,49.398,44.084,50.079,43.639z"/>
<path fill="#695433" d="M53.054,34.478c2.103-0.021,4.205-0.043,6.306-0.064c0.035,1.074,0.07,2.148,0.108,3.223c-2.009-0.125-4.021-0.253-6.031-0.378c0,0-1.137-0.577-1.139-0.574c-0.001,0-0.111-1.272-0.112-1.272C52.184,35.411,53.054,34.478,53.054,34.478z"/>
<path fill="#695433" d="M49.667,40.956c0.205,0.885,0.342,1.779,0.412,2.683l-0.057,0.229c-0.926,0.961-2.033,1.617-3.324,1.962c-1.348-0.073-2.529-0.556-3.546-1.444c-0.536-1.26-0.491-2.515,0.047-3.763c1.484-1.587,3.242-1.996,5.275-1.218C48.871,39.922,49.27,40.441,49.667,40.956z"/>
<path fill="#9E834D" d="M53.437,37.258c-1.256,1.233-2.511,2.466-3.768,3.699c-0.002,0,0.271-0.085,0.271-0.085c-0.799-0.781-1.127-1.614-0.986-2.5c0.146-0.909,0.333-1.367,0.563-1.367c1.39-0.824,2.686-0.695,3.885,0.391L53.437,37.258z"/>
<path fill="#504327" d="M56.264,46.895c-0.972-0.879-1.942-1.755-2.914-2.634c0.885-0.311,1.791-0.543,2.717-0.693l0.297,0.293c0.991,0.708,1.308,1.392,0.947,2.057C56.958,46.569,56.611,46.895,56.264,46.895z"/>
<path fill="#9E834D" d="M69.315,24.865c1.955,0.198,3.909,0.396,5.865,0.601c-0.076,0.949-0.129,1.898-0.158,2.847c-2.196,1.63-4.37,1.834-6.51-0.101l0.201,0.22c-1.143-0.659-1.522-1.593-1.026-2.841C68.23,25.35,68.772,25.106,69.315,24.865z"/>
<path fill="#BB9762" d="M68.512,28.212c2.17,0.031,4.34,0.061,6.51,0.098c0.008,0.751,0.063,1.499,0.166,2.234c-2.173,0.284-4.346,0.568-6.519,0.854C68.618,30.336,68.564,29.274,68.512,28.212z"/>
<path fill="#5B492D" d="M56.264,46.895c0.005-1.013,0.035-2.026,0.098-3.037c1.017-0.055,2.032-0.088,3.051-0.095c0.001,1.041,0.022,2.078,0.068,3.119c-1.07,1.142-2.141,1.145-3.215,0.006L56.264,46.895z"/>
<path fill="#504327" d="M78.22,56.283c-2.151,1.068-4.303,2.133-6.454,3.201c-0.002,0,0.169-0.098,0.169-0.098c-1.627,0.744-3.076,0.491-4.352-0.763c-2.127-3.229-1.25-6.052,1.173-8.667c-0.015-1.041-0.03-2.085-0.047-3.125c1.093,0.07,2.184,0.14,3.275,0.21c0.794,0.788,1.611,1.553,2.452,2.292c1.21,1.166,2.284,2.46,3.45,3.668C77.997,54.097,78.109,55.19,78.22,56.283z"/>
<path fill="#504327" d="M81.25,43.819c0.046,0.964,0.098,1.929,0.154,2.893c-0.188,2.011-2.259,2.228-3.282,3.442l0.192-0.067c-1.131,1.248-2.385,1.389-3.762,0.418c-1.004-1.361-0.911-2.588,0.456-3.653c-0.004-1.041-0.014-2.081-0.028-3.122c1.062-0.028,2.124-0.052,3.188-0.08C79.195,43.715,80.223,43.773,81.25,43.819z"/>
<path fill="#5F4D31" d="M75.009,46.852c0.008,1.053,0.016,2.103,0.023,3.156c-1.044,1.242-2.08,1.3-3.106-0.019c0.001-0.985,0.02-1.972,0.058-2.951C72.993,46.953,73.999,46.892,75.009,46.852z"/>
<path fill="#5F4D31" d="M68.756,49.956c-0.017,3.112-0.035,6.223-0.052,9.332c-0.56,0.464-1.118,0.925-1.679,1.389c-1.444,0.329-2.87,0.263-4.278-0.201c-1.272-0.757-2.266-1.792-3.021-3.062c-0.418-1.419-0.456-2.851-0.115-4.287c0.356-0.635,0.712-1.271,1.067-1.904c0.613-0.391,1.228-0.784,1.842-1.175C64.598,50.017,66.678,49.987,68.756,49.956z"/>
<path fill="#483C24" d="M56.266,46.889c1.069-0.003,2.138-0.006,3.21-0.006c1.018-0.009,2.032-0.012,3.046-0.006c0,1.056-0.002,2.112-0.003,3.171c0.001,0,0.019-0.037,0.019-0.037c-1.943,1.853-3.941,2.063-6.011,0.204C56.44,49.108,56.353,47.997,56.266,46.889z"/>
<path fill="#55462A" d="M34.073,62.603c-1.952-0.101-3.905-0.201-5.858-0.306c-0.021-0.998-0.021-1.995,0-2.993c0.373-0.623,0.743-1.242,1.116-1.865c1.838-1.431,3.877-1.797,6.109-1.153c1.302,0.696,2.318,1.688,3.05,2.97c0.333,1.455,0.137,2.828-0.668,4.102C36.392,64.006,35.134,63.802,34.073,62.603z"/>
<path fill="#79633B" d="M24.965,59.948l-1.376,0.439c0,0-1.381-0.412-1.379-0.412c0.003,0.003-0.488-1.327-0.488-1.327c1.006-0.653,2.083-0.767,3.218-0.415C24.949,58.803,24.956,59.374,24.965,59.948z"/>
<path fill="#55462A" d="M28.215,59.304c-1.083,0.21-2.167,0.421-3.25,0.638c0,0.006,0.159-1.175,0.159-1.175c-1.089-0.485-1.456-0.98-1.103-1.483c0.353-0.51,0.709-0.763,1.074-0.763l-0.366-0.727c1.227-0.748,2.401-0.641,3.534,0.207c0.858,1.19,0.755,2.332-0.171,3.431L28.215,59.304z"/>
<path fill="#705D36" d="M49.889,81.163c-1.056-0.043-2.11-0.089-3.166-0.131c-1.92-3.006-3.838-6.01-5.753-9.012c2.023-0.046,4.042-0.092,6.063-0.138c1.123-0.854,2.344-1.034,3.662-0.537c1.097,0.793,1.901,1.818,2.412,3.073c0.203,1.336,0.038,2.631-0.447,3.891C51.819,79.341,50.891,80.287,49.889,81.163z"/>
<path fill="#4E3E26" d="M34.073,62.603c1.231-0.073,2.463-0.144,3.694-0.217c1.013-0.659,2.002-0.659,2.965,0.104c0.216,0.513,0.433,1.028,0.65,1.541c-0.236,0.507-0.472,1.011-0.708,1.517c-2.115,0.046-4.229,0.095-6.345,0.144C34.29,64.659,34.204,63.628,34.073,62.603z"/>
<path fill="#4E3E26" d="M43.689,68.355c-1.004-0.934-2.01-1.87-3.015-2.808l-0.121,0.168c0.885-1.199,2.005-1.422,3.328-0.806C44.743,66.109,44.637,67.256,43.689,68.355z"/>
<path fill="#55462A" d="M43.689,68.355c0.009-0.757,0.009-1.514-0.001-2.273c0.897-1.104,2.017-1.422,3.361-0.952c0.256,0.599,0.513,1.199,0.77,1.801c-0.287,0.586-0.574,1.172-0.861,1.761C45.868,68.577,44.779,68.468,43.689,68.355z"/>
<path fill="#55462A" d="M49.868,72.106c-0.946-0.11-1.892-0.183-2.84-0.223c-0.021-1.065-0.047-2.127-0.071-3.192c0.001,0-0.144,0.146-0.144,0.146c1.021-1.001,2.091-1.056,3.207-0.168c0.243,0.586,0.487,1.169,0.729,1.755C50.455,70.986,50.16,71.544,49.868,72.106z"/>
<path fill="#766239" d="M37.594,78.099c-0.026,1.014,0.009,2.03,0.108,3.04c-2.133,0.021-4.268,0.049-6.402,0.073c-0.017-1.034-0.021-2.069-0.012-3.106C33.389,78.103,35.491,78.103,37.594,78.099z"/>
<path fill="#5F4D31" d="M71.887,62.511c-2.079,2.088-4.16,4.172-6.24,6.259c-0.444-0.405-0.887-0.812-1.331-1.218c-0.381-1.172-0.364-2.337,0.046-3.5c0.699-1.004,1.613-1.745,2.74-2.219c0.574-0.18,1.146-0.356,1.72-0.537c1.269-0.21,2.292,0.198,3.07,1.221L71.887,62.511z"/>
<path fill="#5F4D31" d="M65.647,68.77c-0.02,2.042-0.041,4.084-0.062,6.128c-0.988,1.13-2.203,1.483-3.645,1.06c-0.979-1.038-1.583-2.253-1.755-3.675c0.175-1.413,0.747-2.643,1.712-3.689c1.288-0.787,2.537-0.687,3.75,0.18V68.77z"/>
<path fill="#3A2F1D" d="M81.321,68.688c-2.124,1.074-4.248,2.146-6.374,3.22c1.085-1.153,2.172-2.308,3.258-3.461C79.243,68.523,80.282,68.606,81.321,68.688z"/>
<path fill="#3A2F1D" d="M74.872,74.727c-2.069,0.107-4.139,0.214-6.208,0.317c2.12-1.074,4.241-2.146,6.36-3.223C74.976,72.789,74.925,73.76,74.872,74.727z"/>
<path fill="#352A1A" d="M62.565,75.201c1.008-0.098,2.017-0.195,3.023-0.299c1.061,0.027,2.126,0.058,3.191,0.088c-0.011,1.028-0.021,2.061-0.027,3.086c-2.096,0.042-4.189,0.085-6.284,0.131C61.733,77.178,61.765,76.177,62.565,75.201z"/>
<path fill="#5B492D" d="M78.122,50.155c1.094-1.147,2.187-2.292,3.282-3.439c0.995,0.076,1.991,0.137,2.987,0.18c-0.019,1.016-0.041,2.036-0.068,3.051c-1.109,0.049-2.219,0.098-3.329,0.146C80.035,50.109,79.079,50.13,78.122,50.155z"/>
<path fill="#5B492D" d="M71.926,49.99c1.035,0.006,2.07,0.016,3.106,0.019c1.093,0.027,2.187,0.052,3.28,0.079c-0.114,0.977-0.256,1.95-0.424,2.918C75.901,51.997,73.912,50.993,71.926,49.99z"/>
<path fill="#3A2F1D" d="M71.892,62.517c-1.063-0.043-2.127-0.085-3.19-0.131c-0.691-0.662-0.906-1.31-0.646-1.941c0.256-0.622,0.505-0.937,0.747-0.937c0,0-0.092-0.208-0.095-0.214c1.071,0.027,2.147,0.059,3.225,0.092C71.919,60.43,71.906,61.474,71.892,62.517z"/>
<path fill="#59482C" d="M62.565,75.201c-0.031,1.001-0.062,2.002-0.095,3.006c-0.002,0,0.158-0.128,0.158-0.128c-1.758,1.897-4.777,1.278-6.492,3.259l0.071-0.019c-2.105-0.052-4.211-0.101-6.316-0.155c0.155-1.153,0.313-2.307,0.471-3.461l0.938-1.132l-0.931-1.139c-0.167-1.11-0.331-2.222-0.499-3.329c-0.002,0.003,0.454-0.645,0.454-0.645c0.771-1.232,1.752-2.261,2.976-3.055c2.13-0.769,4.212-0.698,6.229,0.376c1.108,0.915,2.099,1.943,2.97,3.091C62.52,72.979,62.541,74.089,62.565,75.201z"/>
<path fill="#3A2F1D" d="M56.136,81.337c2.163-1.086,4.327-2.173,6.492-3.259C60.465,79.164,58.299,80.251,56.136,81.337z"/>
<path fill="#9E834D" d="M30.968,31.655c0.096-1.193,0.194-2.386,0.292-3.58c1.002-1.007,2.116-1.871,3.333-2.609c1.411-0.338,2.812-0.323,4.21,0.101c1.278,0.76,2.199,1.831,2.815,3.18c0.111,1.514-0.265,2.884-1.13,4.129c-2.583,2.228-5.307,2.384-8.167,0.568C31.868,32.848,31.418,32.25,30.968,31.655z"/>
<path fill="#695433" d="M27.983,21.779c2.084,0.134,4.169,0.272,6.251,0.406c0.375,0.537,0.75,1.071,1.123,1.605c-0.139,0.641-0.279,1.279-0.418,1.917c-0.597,0.269-1.193,0.534-1.79,0.803c-0.598-0.266-1.195-0.531-1.792-0.796C30.233,24.401,29.108,23.088,27.983,21.779z"/>
<path fill="#695433" d="M25.09,34.24c-0.017-1.05-0.032-2.1-0.049-3.149c1.976,0.183,3.952,0.366,5.927,0.559c0,0.006,0.001-0.247,0.001-0.247c1.282,0.836,1.645,1.968,1.089,3.394c-1.027,0.979-2.246,1.525-3.661,1.642c-0.659-0.205-1.318-0.406-1.979-0.61C25.977,35.299,25.533,34.767,25.09,34.24z"/>
<path fill="#BB9762" d="M31.359,25.713c1.043-0.269,2.087-0.541,3.131-0.809c0.774,0.708,1.036,1.422,0.785,2.136c-0.252,0.717-0.505,1.077-0.763,1.077c-1.083-0.012-2.168-0.024-3.251-0.04C31.302,27.287,31.334,26.5,31.359,25.713z"/>
<path fill="#9E834D" d="M34.381,18.7c1.14-0.037,2.28-0.073,3.42-0.11c0.236,0.491,0.473,0.986,0.709,1.477c-0.148,1.123-0.688,2.023-1.563,2.734c-1.137,0.415-2.043,0.091-2.75-0.864c0,0,0.038,0.238,0.038,0.244C34.284,21.022,34.332,19.863,34.381,18.7z"/>
<path fill="#695433" d="M37.4,15.538c1.065-0.141,2.131-0.284,3.197-0.427c1.111,1.199,2.223,2.396,3.334,3.595c-0.829,1.071-1.903,1.724-3.256,1.898c-1.361-0.208-2.373-0.931-3.085-2.097c0,0,0.205,0.083,0.208,0.083C37.619,17.58,37.487,16.564,37.4,15.538z"/>
<path fill="#77623A" d="M27.93,34.533c1.164-0.061,2.33-0.119,3.494-0.177c3.514-2.338,6.032-1.975,6.998,2.588c-0.797,3.72-3.638,5.212-6.852,6.302c-2.644,0.253-4.733-0.906-6.615-2.597c0,0-0.003,0.18-0.003,0.183c0.024-1.111,0.047-2.222,0.072-3.333l0.369-1.453C26.404,35.817,27.249,35.314,27.93,34.533z"/>
<path fill="#766239" d="M25.025,37.499c0.021-1.086,0.043-2.17,0.065-3.259l-0.049,0.021c0.893,0.741,1.181,1.474,0.87,2.2c-0.309,0.72-0.615,1.08-0.919,1.08L25.025,37.499z"/>
<path fill="#766239" d="M28.015,56.38c-1.094-0.192-2.189-0.388-3.285-0.586c0.171-3.049,0.343-6.098,0.516-9.146c1.213-0.982,2.551-1.15,4.001-0.622c1.904,1.395,2.782,3.29,2.75,5.63c-0.322,1.45-0.982,2.726-1.98,3.827C29.35,55.782,28.682,56.081,28.015,56.38z"/>
<path fill="#55462A" d="M28.311,47.173c-1.025-0.159-2.049-0.33-3.068-0.522c-0.101-0.995-0.148-1.993-0.134-2.991c0-0.003-0.171,0.174-0.171,0.174c1.446-1.892,3.409-1.605,5.38-1.275c0.998,0.955,1.442,2.124,1.329,3.503C30.799,47.219,29.686,47.591,28.311,47.173z"/>
<path fill="#4E3E26" d="M25.095,56.521c-0.006,0.75,0.003,1.501,0.029,2.249c-1.134-0.04-2.268-0.076-3.403-0.119c0.103-0.897,0.192-1.792,0.269-2.688C23.026,56.148,24.06,56.334,25.095,56.521z"/>
<path fill="#8A7149" d="M31.281,43.742c-2.113,0.031-4.227,0.062-6.341,0.092c0.006-1.062,0.012-2.124,0.018-3.186c2.106,0.009,4.215,0.015,6.322,0.024c0,0,0.957,0.882,0.958,0.879c0.001,0-0.005,1.303-0.003,1.303C32.236,42.855,31.281,43.742,31.281,43.742z"/>
<path fill="#A78852" d="M49.629,18.984c2.097-0.985,4.193-1.971,6.29-2.957c1.166-0.159,2.333-0.317,3.499-0.473c2.079,1.086,4.158,2.173,6.236,3.262c-0.002-0.003-0.064-0.201-0.064-0.201c1.294,0.76,1.741,1.834,1.21,3.271c-0.676,1.218-1.645,2.133-2.868,2.789c-2.675,0.626-5.181,1.853-7.928,2.228c-2.901-0.232-5.467-1.053-6.871-3.913C48.764,21.59,48.931,20.253,49.629,18.984z"/>
<path fill="#695433" d="M65.874,21.761c-0.095-1.047-0.188-2.094-0.284-3.144c2.097,0.049,4.191,0.104,6.288,0.156c0.005,1.019,0.072,2.036,0.206,3.045c-1.181,0.052-2.366,0.107-3.554,0.162C67.559,22.954,66.669,22.933,65.874,21.761z"/>
<path fill="#B38F5A" d="M65.874,21.761c0.886,0.082,1.774,0.152,2.659,0.22c0.229,0.97,0.487,1.932,0.775,2.887c0.006-0.003-1.239,0.205-1.239,0.205c-1.712,1.846-3.702,1.535-5.756,0.739c-0.723-0.781-1.001-1.596-0.836-2.438c0.168-0.857,0.361-1.285,0.581-1.285C63.33,21.978,64.603,21.871,65.874,21.761z"/>
<path fill="#8A7149" d="M15.685,56.093c1.086,1.077,2.173,2.154,3.262,3.229c-1.108,0.027-2.217,0.056-3.328,0.083C15.64,58.303,15.663,57.198,15.685,56.093z"/>
<path fill="#6C5735" d="M49.629,18.984c0.216,0.977,0.313,1.965,0.295,2.963c-0.333,0.632-0.665,1.267-0.996,1.901c-1.113,0.943-2.395,1.523-3.824,1.788c-2.257-0.083-4.147-0.888-5.47-2.798c-0.378-1.438-0.164-2.768,0.737-3.97c1.186-0.055,2.373-0.107,3.56-0.162C45.83,18.798,47.73,18.892,49.629,18.984z"/>
<path fill="#BB9762" d="M62.98,25.072c1.699,0,3.4,0,5.096,0c0.208,1.12,0.423,2.24,0.637,3.36c-2.107-0.137-4.215-0.274-6.321-0.409l0.219,0.213c-0.966-0.824-1.232-1.568-0.802-2.23C62.21,25.387,62.6,25.072,62.98,25.072z"/>
<path fill="#735E39" d="M59.807,28.337c-0.212,0.968-0.348,1.944-0.405,2.93c-2.12-0.033-4.241-0.07-6.36-0.106c-0.266-0.513-0.529-1.028-0.795-1.544c0.174-1.184,0.71-2.167,1.611-2.954c1.104-0.46,2.237-0.555,3.402-0.293C58.516,26.5,59.345,27.184,59.807,28.337z"/>
<path fill="#735E39" d="M53.041,31.16c0.005,1.104,0.009,2.212,0.014,3.317c-0.001,0,0.217-0.162,0.217-0.162c-1.494,1.819-3.553,1.74-5.609,1.667c-1.247-0.745-1.95-1.846-2.185-3.266c0.282-1.419,1.05-2.49,2.298-3.223c2.214-0.54,4.054,0.021,5.456,1.862L53.041,31.16z"/>
<path fill="#6C5735" d="M59.807,28.337c-1.288-0.098-2.575-0.198-3.865-0.296c-0.259-0.537-0.52-1.071-0.781-1.608c0.38-0.458,0.759-0.918,1.139-1.376c1.921-0.992,3.844-1.984,5.764-2.973c0.262,1.01,0.567,2.005,0.914,2.988c-0.121,1.056-0.244,2.112-0.367,3.165C61.675,28.24,60.74,28.273,59.807,28.337z"/>
<path fill="#766239" d="M46.681,43.944c1.114-0.024,2.228-0.049,3.34-0.076c-0.011,3.079-0.021,6.159-0.033,9.238c-0.645,0.348-1.288,0.695-1.934,1.04c-1.494-0.271-2.686-1.01-3.529-2.288C43.137,48.647,44.495,46.181,46.681,43.944z"/>
<path fill="#352A1A" d="M56.527,50.215c2.003-0.066,4.007-0.134,6.011-0.204c-0.091,0.934-0.168,1.867-0.23,2.802c-1.063,1.932-2.686,2.337-4.684,1.715c-0.437-0.445-0.873-0.895-1.308-1.34C56.332,52.193,56.405,51.204,56.527,50.215z"/>
<path fill="#352A1A" d="M49.989,53.106c2.108,0.027,4.216,0.052,6.326,0.079c0.001,0.003-0.076-0.104-0.076-0.104c1.013,4.846-1.839,4.788-5.191,4.096c-0.863-0.718-1.293-1.542-1.285-2.473c0.01-0.979,0.124-1.471,0.342-1.471L49.989,53.106z"/>
<path fill="#B38F5A" d="M46.908,34.261c2.121,0.018,4.242,0.037,6.362,0.055c-0.039,1.028,0.002,2.057,0.129,3.079c-1.117,0.04-2.237,0.08-3.357,0.119c-1.002,1.254-2.197,1.544-3.611,0.729C45.826,36.825,46.022,35.503,46.908,34.261z"/>
<path fill="#8A7149" d="M46.681,43.944c0.008,2.96,0.015,5.917,0.023,8.875c-1.186,0.971-2.535,1.331-4.047,1.08c-3.083-1.33-4.55-3.573-3.938-6.985c1.03-2.191,2.707-3.394,5.174-3.391C44.825,43.651,45.754,43.795,46.681,43.944z"/>
<path fill="#846B43" d="M43.894,43.523c-1.114,1.129-2.227,2.259-3.34,3.385c-1.251,0.781-2.515,0.763-3.789,0.055c-0.961-1.019-1.572-2.209-1.781-3.601c0.131-0.674,0.264-1.346,0.396-2.02c0.42-0.54,0.841-1.081,1.262-1.624c1.166-0.748,2.444-1.193,3.816-1.367c0.659,0.186,1.318,0.369,1.978,0.555c0.487,0.479,0.975,0.961,1.462,1.44C43.897,41.405,43.895,42.464,43.894,43.523z"/>
<path fill="#BB9762" d="M46.802,37.444c1.079,0.024,2.157,0.049,3.238,0.07c-0.032,1.117-0.066,2.234-0.101,3.354c-2.015-0.168-4.027-0.339-6.042-0.516c0-0.006,0.078,0.302,0.078,0.302c-0.497-0.501-0.995-1.001-1.491-1.502c0.225-0.671,0.45-1.339,0.675-2.008C44.454,36.284,45.671,36.336,46.802,37.444z"/>
<path fill="#54452A" d="M50.568,55.742c1.891-0.889,3.78-1.773,5.671-2.661c2.022-0.089,4.048-0.178,6.069-0.266c0.075,1.147,0.152,2.298,0.229,3.445c0.068,2.091,0.191,4.19-0.932,6.098c-1.232,1.748-2.703,3.207-4.742,4.001c-1.397,0.271-2.791,0.244-4.181-0.043c-0.644-0.287-1.286-0.577-1.929-0.864c-1.149-0.83-2.154-1.807-3.021-2.926c-0.459-1.358-0.513-2.738-0.212-4.136C48.174,57.091,49.172,56.188,50.568,55.742z"/>
<path fill="#5B492D" d="M59.324,59.56c1.071-1.099,2.143-2.2,3.214-3.299c1.062,1.08,2.122,2.157,3.183,3.238c-0.135,0.662-0.269,1.321-0.403,1.983c-0.736,1.156-1.709,2.048-2.955,2.637c-0.675-0.006-1.349-0.013-2.023-0.016c-0.583-0.342-1.166-0.684-1.747-1.025C58.016,61.736,58.217,60.555,59.324,59.56z"/>
<path fill="#352A1A" d="M68.802,59.508c-0.03,0.961-0.063,1.923-0.099,2.881c-0.002-0.003,0.111,0.339,0.111,0.339c-0.6,0.385-1.198,0.771-1.798,1.159c-0.648-0.299-1.296-0.601-1.942-0.903c-0.732-1.4-0.537-2.609,0.735-3.601c0,0-0.093,0.112-0.092,0.112C66.746,59.459,67.776,59.462,68.802,59.508z"/>
<path fill="#766239" d="M28.092,59.432c0.012-1.02-0.011-2.039-0.073-3.055c-0.003,0.003,0.22-0.217,0.22-0.217c1.664-1.712,3.533-1.844,5.563-0.729c0.699,0.727,1.033,1.522,1.002,2.387c-0.03,0.896-0.137,1.346-0.319,1.346C32.355,59.255,30.223,59.343,28.092,59.432z"/>
<path fill="#8A7149" d="M40.586,62.584c-0.945-0.036-1.888-0.104-2.823-0.195c-0.141-0.998-0.223-1.999-0.244-3.006c0,0,1.234-0.849,1.236-0.852c1.126-0.067,1.964,0.394,2.515,1.38c0,0,0.235,1.482,0.236,1.482L40.586,62.584z"/>
<path fill="#846B43" d="M34.485,59.163c-0.047-0.971-0.078-1.941-0.087-2.911c0.439-0.287,0.88-0.571,1.321-0.858c1.083,0.123,1.984,0.58,2.675,1.435c0.441,1.104,0.121,1.956-0.854,2.591l-0.021-0.036C36.504,59.362,35.494,59.288,34.485,59.163z"/>
<path fill="#504327" d="M50.368,75.432c0.335,0.763,0.332,1.523-0.008,2.276C50.326,76.946,50.327,76.189,50.368,75.432z"/>
<path fill="#846C43" d="M46.821,65.652c-1.044,0.14-2.088,0.28-3.133,0.424c-1.045-0.116-2.089-0.238-3.133-0.36c0.011-1.047,0.021-2.09,0.032-3.131c-0.001,0,0.012-0.106,0.012-0.106c1.408-1.709,3.185-2.543,5.421-2.28c1.308,0.522,2.38,1.349,3.218,2.484l1.31-0.312c0.622,1.233,0.505,2.387-0.351,3.467C49.026,66.616,47.901,66.555,46.821,65.652z"/>
<path fill="#8A7149" d="M46.821,65.652c0.909,0.042,1.818,0.098,2.727,0.168c0,0,1.286,0.537,1.288,0.537c0.001,0,0.136,1.391,0.137,1.391c0.002,0-0.952,1.022-0.952,1.022c-1.067,0.021-2.136,0.043-3.206,0.064C46.816,67.776,46.819,66.713,46.821,65.652z"/>
<path fill="#3A2F1D" d="M53.058,71.867c-0.918-0.098-1.832-0.229-2.737-0.405c-0.123-0.897-0.226-1.792-0.301-2.692l-0.108-0.112c1.09-0.873,2.2-0.943,3.334-0.089C54.069,69.719,54.006,70.818,53.058,71.867z"/>
<path fill="#362B1B" d="M59.308,62.468c1.153-0.109,2.306-0.22,3.458-0.329c1.153-0.958,2.138-0.809,2.952,0.448l-0.134-0.146c0.925,0.626,1.283,1.31,1.075,2.057c-0.213,0.775-0.457,1.163-0.733,1.163c-0.108,1.034-0.201,2.072-0.278,3.112c-1.029-0.045-2.06-0.076-3.09-0.094c-0.603-0.086-1.205-0.174-1.808-0.26c-1.063-0.644-1.863-1.522-2.4-2.643C58.147,64.522,58.442,63.411,59.308,62.468z"/>
<path fill="#524428" d="M65.926,65.66c-0.113-1.074-0.228-2.146-0.342-3.217c1.077,0.092,2.152,0.184,3.23,0.281C67.852,63.704,66.889,64.681,65.926,65.66z"/>
<path fill="#504327" d="M62.497,71.87c-1.052,0.004-2.103,0.01-3.154,0.016c-0.629-0.721-0.844-1.446-0.646-2.176c0.198-0.735,0.401-1.102,0.606-1.102c1.143-0.787,2.258-0.715,3.351,0.104c0,0-0.101-0.027-0.098-0.03C62.538,69.743,62.517,70.806,62.497,71.87z"/>
<path fill="#5F4D31" d="M59.384,68.758c-0.012,1.044-0.025,2.084-0.039,3.128c-2.096-0.006-4.188-0.012-6.285-0.019c0.046-1.056,0.092-2.108,0.137-3.164c0.282-0.461,0.565-0.925,0.845-1.386c0.947-0.574,1.974-0.812,3.076-0.724c0.47,0.263,0.941,0.525,1.412,0.791C58.814,67.842,59.099,68.3,59.384,68.758z"/>
<path fill="#B2905A" d="M37.915,37.252c-2.164-0.964-4.329-1.932-6.491-2.896c-0.18-0.98-0.331-1.966-0.453-2.954c3.246-0.067,6.491-0.131,9.738-0.199c0.656,0.25,1.312,0.5,1.968,0.748c1.454,1.633,2.551,3.339,1.187,5.57L43.658,37.6c-0.781,0.995-1.815,1.447-3.07,1.425c-0.595-0.07-1.19-0.141-1.785-0.21C38.507,38.292,38.211,37.774,37.915,37.252z"/>
<path fill="#735E39" d="M40.709,31.203c-0.001-1.043-0.001-2.087-0.001-3.131c0.48-0.492,0.963-0.983,1.445-1.474c2.124-0.772,4.012-0.437,5.618,1.206c0.529,1.41,0.209,2.591-0.963,3.54l0.148-0.15c-2.094,2.018-4.187,1.883-6.282,0L40.709,31.203z"/>
<path fill="#735E39" d="M40.708,28.072c-1.089-0.077-2.179-0.153-3.269-0.232c-0.423-0.583-0.844-1.166-1.267-1.749c0.373-0.613,0.746-1.227,1.119-1.843c1.392-0.595,2.736-0.47,4.039,0.271c0.692,1.425,0.395,2.646-0.765,3.689L40.708,28.072z"/>
<path fill="#695433" d="M37.599,25.249c-0.042,0.87-0.095,1.736-0.159,2.597c-0.972,0.159-1.948,0.25-2.931,0.271c-0.006-1.071-0.014-2.142-0.021-3.213c0.001,0-0.206,0.21-0.206,0.21C35.45,23.656,36.554,23.702,37.599,25.249z"/>
<path fill="#BB9762" d="M37.599,25.249c-1.106-0.046-2.211-0.089-3.317-0.135c-0.026-1.059-0.052-2.121-0.081-3.18c1.117,0,2.237,0,3.357-0.003c0.426,0.467,0.851,0.931,1.28,1.397c-0.536,0.333-1.073,0.666-1.61,0.998L37.599,25.249z"/>
<path fill="#846B43" d="M24.993,37.541c0.016-1.092,0.032-2.188,0.049-3.28c0.964,0.082,1.929,0.174,2.892,0.269C26.951,35.534,25.971,36.537,24.993,37.541z"/>
<path fill="#BB9762" d="M40.37,18.868c0.249,0.97,0.442,1.953,0.58,2.948c-1.125,1.474-2.274,1.492-3.447,0.061l0.054,0.055c0.011-1.139,0.021-2.28,0.032-3.421C38.514,18.651,39.44,18.77,40.37,18.868z"/>
<path fill="#8A7149" d="M31.279,40.673c2.211-1.141,4.422-2.28,6.635-3.421c0.001,0-0.355,0.037-0.355,0.037c0.671,0.567,1.343,1.135,2.014,1.703c-0.687,0.549-1.375,1.099-2.062,1.645l0.001-0.021c-2.084,1.932-4.173,1.932-6.264,0.009L31.279,40.673z"/>
<path fill="#846B43" d="M34.398,56.252c-2.055-0.028-4.111-0.059-6.163-0.089c-0.035-1.022-0.046-2.045-0.027-3.064c1.025-1.083,2.295-1.58,3.776-1.577c2.208,0.879,3.665,2.13,2.393,4.758L34.398,56.252z"/>
<path fill="#8A7149" d="M31.291,53.139c-1.03-0.006-2.058-0.021-3.085-0.04c0.035-1.977,0.068-3.958,0.104-5.932c1.004-0.128,2.01-0.202,3.02-0.217c0.449,0.281,0.897,0.562,1.346,0.842c0.542,0.934,0.761,1.941,0.664,3.019C32.869,51.772,32.198,52.559,31.291,53.139z"/>
<path fill="#8A7149" d="M37.514,43.78c-0.067,0.836-0.133,1.672-0.197,2.508c-0.145,0.54-0.292,1.083-0.435,1.626c-0.938,0.665-1.985,0.974-3.132,0.928c-1.018-0.491-1.875-1.19-2.589-2.066c0,0,0.166,0.174,0.167,0.174c-0.015-1.068-0.032-2.136-0.047-3.208l-0.029,0.028C33.342,41.814,35.43,41.811,37.514,43.78z"/>
<path fill="#766239" d="M37.514,43.78c-2.087-0.003-4.173-0.006-6.261-0.009c-0.001-1.047-0.001-2.097-0.003-3.146c2.086-0.003,4.175-0.006,6.262-0.009C37.513,41.671,37.514,42.723,37.514,43.78z"/>
<path fill="#735E39" d="M49.924,21.947c2.124,1.038,4.249,2.072,6.373,3.11c0.002,0,0.092-0.141,0.092-0.141c-0.947,1.081-2.121,1.749-3.552,1.947c-1.456,0.046-2.693-0.467-3.743-1.459c-0.504-1.434-0.174-2.643,0.988-3.622L49.924,21.947z"/>
<path fill="#AC8C55" d="M37.503,21.877c1.146-0.021,2.293-0.04,3.444-0.061c2.018,0.162,4.032,0.32,6.047,0.482c0.914,1.364,0.786,2.625-0.383,3.781c-2.173,0.47-4.352,0.979-6.14-0.974c-1.08-0.256-2.159-0.513-3.241-0.775C37.331,23.513,37.423,22.695,37.503,21.877z"/>
<path fill="#BB9762" d="M46.929,24.971c-0.007-0.894,0.014-1.789,0.064-2.676c1.03-0.168,2.058-0.339,3.089-0.51c0.002,1.071,0.004,2.146,0.005,3.22C49.024,25.997,47.971,25.988,46.929,24.971z"/>
<path fill="#B38F5A" d="M46.808,31.344c-0.014-1.065-0.027-2.127-0.041-3.189c1.32-1.84,3.215-1.523,5.072-1.355c0.438,0.449,0.874,0.9,1.313,1.349c0.025,1.068,0.053,2.136,0.079,3.208C51.091,31.349,48.949,31.346,46.808,31.344z"/>
<path fill="#B38F5A" d="M53.28,25.338c1.036-0.141,2.07-0.278,3.108-0.418c-0.146,1.041-0.293,2.082-0.442,3.122c-0.933,0.061-1.863,0.098-2.794,0.107l-0.024-0.024c-0.67-0.5-1.34-1.004-2.01-1.507C51.837,26.192,52.559,25.765,53.28,25.338z"/>
<path fill="#9E834D" d="M40.674,31.194c2.094,0,4.187,0,6.282,0c-0.028,1.022-0.044,2.048-0.049,3.07c-0.034,1.059-0.067,2.121-0.104,3.183c-0.981,0.037-1.959,0.061-2.939,0.073C42.801,35.411,41.738,33.303,40.674,31.194z"/>
<path fill="#55462A" d="M43.683,53.209c1.014-0.085,2.022-0.214,3.023-0.388c1.13,0.135,2.264,0.271,3.397,0.412c0.091,0.849,0.242,1.688,0.462,2.512c0.003-0.003-0.887,0.866-0.887,0.866c-1.071,0.907-2.301,1.353-3.71,1.264c-1.314-0.513-2.26-1.413-2.835-2.7C43.315,54.519,43.5,53.863,43.683,53.209z"/>
<path fill="#504027" d="M37.317,46.288c1.081,0.208,2.159,0.412,3.238,0.62c1.042,2.1,2.086,4.199,3.128,6.299c0,0.003,0.095-0.171,0.095-0.171c-1.561,1.989-3.513,2.433-5.819,1.474c-1.2-0.915-2.007-2.087-2.362-3.562c0.212-1.498,0.891-2.743,2.034-3.735L37.317,46.288z"/>
<path fill="#4C3D26" d="M40.78,37.874c0.949-0.208,1.909-0.299,2.881-0.275c0.073,1.022,0.177,2.039,0.314,3.055c-1.01-0.168-2.026-0.299-3.047-0.388c-1.186-0.461-1.602-0.968-1.253-1.526C40.035,38.164,40.401,37.874,40.78,37.874z"/>
<path fill="#695433" d="M40.78,37.874c-0.006,0.803,0.041,1.602,0.145,2.396c-1.135,0.119-2.275,0.244-3.413,0.366c0.015-1.114,0.03-2.231,0.047-3.345C38.633,37.484,39.705,37.679,40.78,37.874z"/>
<path fill="#8A7149" d="M46.933,56.719c0.913-0.119,1.828-0.156,2.745-0.11c-0.145,2.023-0.288,4.047-0.437,6.07c-0.773-0.079-1.545-0.135-2.319-0.165c-0.989-0.757-1.602-1.758-1.894-2.96C45.185,58.287,45.844,57.36,46.933,56.719z"/>
<path fill="#5F4D31" d="M59.308,62.468c-0.003,1.074-0.008,2.148-0.011,3.223c-0.364,0.434-0.728,0.864-1.094,1.297c-1.129,0.153-2.26,0.195-3.396,0.146c-0.554-0.143-1.104-0.286-1.655-0.433c-0.384-0.428-0.765-0.852-1.146-1.276c-0.253-1.208,0.113-2.182,1.101-2.917c1.129-0.034,2.257-0.067,3.384-0.101c1.079-1.221,2.064-1.15,2.957,0.213L59.308,62.468z"/>
<path fill="#3A2F1D" d="M59.447,62.62c-0.987-0.066-1.974-0.137-2.958-0.213c0.945-0.949,1.892-1.901,2.836-2.848C59.368,60.579,59.409,61.602,59.447,62.62z"/>
<path fill="#504327" d="M53.106,62.508c0.014,1.047,0.028,2.091,0.042,3.137c-1.046,1.456-2.043,1.355-2.998-0.091c0,0-0.594,0.262-0.598,0.262c0.323-1.145,0.652-2.291,0.99-3.442C51.4,62.444,52.252,62.49,53.106,62.508z"/>
<path fill="#5F4D31" d="M65.718,62.587c-0.988-0.128-1.975-0.277-2.954-0.448c1.017-0.919,2.029-1.837,3.045-2.753C65.78,60.451,65.749,61.519,65.718,62.587z"/>
<path fill="#766239" d="M46.822,59.472c0.029,1.013,0.063,2.029,0.099,3.042c-2.106-0.012-4.213-0.024-6.32-0.036c0.021-1.035,0.038-2.069,0.047-3.101c0.407-0.474,0.816-0.946,1.224-1.419C43.811,57.512,45.549,57.732,46.822,59.472z"/>
<path fill="#766239" d="M37.54,59.419c-0.003-1.059-0.004-2.117-0.007-3.18c0.548-0.296,1.094-0.595,1.642-0.897c1.927,0.84,3.065,1.963,1.45,4.065c0,0,0.023-0.03,0.024-0.03C39.612,59.386,38.576,59.398,37.54,59.419z"/>
<path fill="#766239" d="M37.467,50.152c0.012,0.961,0.035,1.919,0.064,2.881c0.576,0.546,1.149,1.092,1.723,1.639c-0.586,0.534-1.173,1.068-1.759,1.602c0,0,0.038-0.03,0.038-0.033c-1.052,0.013-2.104,0.027-3.156,0.04c-1.028-1.047-2.058-2.094-3.087-3.141c0.069-1.129,0.136-2.258,0.203-3.388c0.809-0.939,1.842-1.333,3.068-1.248C35.779,48.614,36.76,49.141,37.467,50.152z"/>
<path fill="#5F4D31" d="M50.15,65.554c0.998,0.039,1.997,0.07,2.998,0.091l-0.022-0.021c0.678,0.546,1.356,1.095,2.034,1.642c-0.697,0.521-1.395,1.044-2.092,1.565c0,0,0.128-0.128,0.129-0.128c-1.094-0.016-2.188-0.031-3.283-0.046C49.979,67.622,50.058,66.585,50.15,65.554z"/>
<path fill="#5F4D31" d="M62.655,68.712c-1.091,0.016-2.181,0.03-3.271,0.046l0.003,0.003c-0.68-0.521-1.359-1.047-2.04-1.568c0.683-0.522,1.364-1.041,2.047-1.563c0,0-0.095,0.061-0.097,0.061C60.416,66.699,61.535,67.705,62.655,68.712z"/>
<path fill="#3A2F1D" d="M53.068,68.831c0.02-1.068,0.039-2.137,0.06-3.207c1.045,0.009,2.092,0.018,3.139,0.027c1.015,0.687,1.352,1.376,1.015,2.063c-0.336,0.687-0.675,1.031-1.015,1.031C55.199,68.773,54.134,68.804,53.068,68.831z"/>
<path fill="#352A1A" d="M56.266,68.745c-0.004-1.037-0.004-2.072-0.002-3.101c1.042-0.009,2.083-0.012,3.127-0.012c0.001,1.04-0.002,2.084-0.004,3.128C58.347,68.764,57.306,68.758,56.266,68.745z"/>
<path fill="#9E834D" d="M53.28,25.338c-0.07,0.928-0.121,1.858-0.152,2.786c-2.118,0.012-4.238,0.021-6.357,0.031c-2.069,0.018-4.137,0.036-6.204,0.055c0.017-1.038-0.012-2.072-0.093-3.104c2.15-0.043,4.301-0.089,6.454-0.131c1.053,0.009,2.105,0.018,3.159,0.031C51.151,25.115,52.216,25.228,53.28,25.338z"/>
<path fill="#55462A" d="M34.458,49.755l-1.485,0.036c0,0-1.484-0.033-1.481-0.036c-0.136-0.992-0.246-1.984-0.331-2.979c1.099,0.18,2.199,0.36,3.297,0.537c0.978,0.543,1.301,1.086,0.978,1.629C35.112,49.483,34.789,49.755,34.458,49.755z"/>
<path fill="#4E3E26" d="M34.458,49.755c-0.014-0.815-0.015-1.63,0-2.445c1.057-0.031,2.113-0.067,3.172-0.101c-0.064,0.979-0.119,1.96-0.164,2.939C36.461,50.038,35.459,49.908,34.458,49.755z"/>
<path fill="#846B43" d="M37.494,56.273c0.012-1.08,0.024-2.16,0.036-3.24c2.083,0,4.166,0,6.247,0.003c1.051,1.227,2.104,2.453,3.156,3.681c-0.031,0.918-0.067,1.837-0.11,2.752c-2.068-0.018-4.134-0.039-6.198-0.061C39.581,58.364,38.538,57.317,37.494,56.273z"/>
</svg>