<?xml version="1.0" encoding="utf-8"?>
<!DOCTYPE svg PUBLIC "-//W3C//DTD SVG 1.1//EN" "http://www.w3.org/Graphics/SVG/1.1/DTD/svg11.dtd">
<svg version="1.1" xmlns="http://www.w3.org/2000/svg" xmlns:xlink="http://www.w3.org/1999/xlink" x="0px" y="0px" width="100px" height="100px" viewBox="0 0 100 100" enable-background="new 0 0 100 100" xml:space="preserve">
<path fill="#CFC79A" d="M59.736,5.17c1.16,0.946,2.321,1.896,3.48,2.841c-1.693,2.869-4.585,3.567-7.52,4.206c-5.445-1.523-16.021,7.828-15.208-7.104c2.159-2.036,4.32-4.074,6.479-6.113c2.083,0,4.167,0,6.25,0c-0.169,1.025-0.168,2.048,0.005,3.073C54.937,4.066,57.888,3.456,59.736,5.17z"/>
<path fill="#C3BC8F" d="M40.489,5.113c1.225,1.944,2.451,3.885,3.485,5.526c3.378-0.812,6.319-1.52,9.257-2.225c1,0.842,1.499,1.904,1.43,3.226c-0.429,2.512-1.28,4.886-2.355,7.196c-0.637,1.141-1.479,2.103-2.498,2.915c-1.788,0.967-3.682,1.141-5.653,0.76c-2.515-0.644-4.846-1.746-7.155-2.905c-3.572-1.679-6.625-3.916-8.164-7.742C32.719,9.614,36.604,7.365,40.489,5.113z"/>
<path fill="#57543E" d="M93.459,24.281c-0.063,1.999-0.125,4-0.188,6c-1.505,1.242-1.814,2.866-1.503,4.694c-0.895,2.637-2.856,3.455-5.438,3.216c-1.333,0.25-2.019-2.829-3.749-0.693c-0.935,0.729-1.921,1.31-2.979,1.813c-1.723,0.763-3.499,1.199-5.384,1.218c-1.313-0.248-2.394-0.879-3.268-1.886c-0.949-1.892-0.965-3.818-0.265-5.789c0.974-1.85,2.368-3.317,4.045-4.538c2.284-1.55,4.722-2.829,7.201-4.043C85.772,22.919,89.629,20.237,93.459,24.281z"/>
<path fill="#C3BC8F" d="M65.693,8.741c4.201,1.901,8.401,3.802,12.603,5.707c1.04,1.007,1.311,2.213,0.923,3.592c-1.554,2.225-3.733,3.817-5.686,5.648c-1.892,1.642-3.562,3.677-6.402,3.806c-4.109-1.166-4.707-4.8-5.7-8.172c-0.249-1.34-0.262-2.686-0.116-4.038C61.756,12.428,63.631,10.521,65.693,8.741z"/>
<path fill="#878361" d="M34.511,89.298c-3.166-1.129-6.332-2.255-9.497-3.384c-0.874-0.998-1.122-2.134-0.758-3.403c0.796-1.654,1.947-3.049,3.27-4.297c1.595-1.52,3.424-2.826,4.556-4.797c0.542-1.605,0.746-3.278,1.183-4.92c0.586-1.126,1.465-1.892,2.649-2.341c2.006-0.338,3.776,0.156,5.354,1.423c1.361,1.52,2.086,3.329,2.473,5.294c0.223,1.291,0.287,2.601,0.255,3.906c-0.099,1.887-0.494,3.721-1.247,5.444c-0.531,1.001-1.288,1.847-2.188,2.506c-0.827,0.519-1.775,0.86-2.725,1.025c-0.87,0.125-1.552,0.599-1.941,1.459C35.758,88.129,35.282,88.815,34.511,89.298z"/>
<path fill="#5A5743" d="M93.269,45.747c0.017,4.19,0.033,8.38,0.049,12.57c-3.347,0.824-4.093-1.413-4.613-3.909c0.171-1.053,0.879-1.853,1.37-2.759c-0.402,0.187-0.798,0.376-1.197,0.583c-0.495,0.336-0.987,0.656-1.489,0.985c-1.23,0.153-2.406-0.018-3.551-0.488c-1.666-0.948-2.936-2.282-3.892-3.937c-0.841-1.761-1.168-3.619-1.072-5.563c0.168-1.285,0.598-2.481,1.232-3.604c0.967-0.864,2.099-1.386,3.382-1.575c2.487,0.186,5.051-0.348,7.454,0.729C92.733,40.763,91.778,43.662,93.269,45.747z"/>
<path fill="#CEC796" d="M78.217,17.716c0.026-1.089,0.052-2.179,0.078-3.269c2.095,1.224,4.189,2.448,6.285,3.671c0.85,0.852,1.789,0.922,2.808,0.32c2.023,1.95,4.048,3.897,6.072,5.841c-3.921,0.995-7.841,1.99-11.761,2.981c-3.287,2.115-5.936,1.584-7.875-1.898C73.02,21.513,75.613,19.611,78.217,17.716z"/>
<path fill="#888464" d="M6.819,61.561c-0.024-3.119-0.047-6.237-0.072-9.356c0.938-0.995,2.094-1.578,3.436-1.807c3.54-1.145,6.557,0.204,9.496,1.956c1.099,0.763,2.01,1.715,2.78,2.805c0.545,1.212,0.702,2.49,0.552,3.806c-0.334,1.229-0.839,2.401-1.491,3.497c-0.687,1.022-1.563,1.886-2.553,2.615c-1.071,0.516-2.223,0.681-3.399,0.564c-1.059-0.311-2.098-0.738-3.088-1.232c-0.991-0.372-1.975-0.812-2.953-1.242C8.535,62.794,7.636,62.244,6.819,61.561z"/>
<path fill="#56543C" d="M65.736,89.283c-4.125,2.233-8.25,4.464-12.375,6.698c-4.24,1.767-4.546-1.282-5.038-4.102c0.256-1.37,0.839-2.594,1.759-3.646c2.606-2.069,4.928-4.529,7.864-6.214c1.317-0.388,2.65-0.455,4.006-0.231c2.013,0.701,3.505,2.026,4.576,3.848C67.034,87.016,66.731,88.227,65.736,89.283z"/>
<path fill="#CEC598" d="M18.848,54.694c-3.053-0.928-6.108-1.855-9.161-2.78c-0.941-0.61-1.291-1.267-1.05-1.972c0.249-0.729,0.516-1.092,0.806-1.092c3.181-1.901,6.363-3.803,9.546-5.704c1.835,1.602,4.826,0.58,6.392,2.798c0.533,1.114,0.646,2.261,0.293,3.452c-0.995,1.489-2.307,2.646-3.836,3.567C20.826,53.504,19.826,54.078,18.848,54.694z"/>
<path fill="#CDC594" d="M25.094,48.997c-2.036-1.95-4.071-3.903-6.106-5.854c0.832-0.324,1.693-0.498,2.586-0.516c3.531-2.597,7.922-0.021,11.566-1.95c1.331-0.263,2.67-0.33,4.022-0.253c1.343,0.214,2.585,0.699,3.712,1.462c0.8,1.126,1.116,2.386,1.022,3.76c-1.14,3.363-3.578,5.505-6.665,7.031c-1.25,0.439-2.539,0.583-3.86,0.464C28.768,52.546,26.434,51.523,25.094,48.997z"/>
<path fill="#524F33" d="M78.303,83.612c-3.156,1.722-6.313,3.442-9.469,5.164c-0.972-0.659-1.527-1.563-1.604-2.747c-0.057-0.559-0.11-1.12-0.179-1.678c0.117-0.55,0.25-1.099,0.355-1.651c0.312-1.083,0.697-2.14,1.097-3.198c0.341-1.093,0.781-2.146,1.279-3.183c0.572-1.032,1.338-1.893,2.279-2.609c1.131-0.446,2.282-0.507,3.461-0.205c1.707,0.715,3.066,1.841,4.043,3.421c0.463,1.136,0.564,2.308,0.327,3.51C79.568,81.593,79.047,82.66,78.303,83.612z"/>
<path fill="#868262" d="M28.763,36.579c-0.017-3.165-0.032-6.329-0.049-9.494c0.757-0.961,1.694-1.693,2.81-2.206c1.186-0.339,2.393-0.5,3.625-0.522c1.245,0.042,2.456,0.271,3.643,0.647c1.149,0.519,2.095,1.288,2.82,2.319c0.314,1.202,0.366,2.42,0.142,3.644c-0.442,1.758-1.202,3.378-2.26,4.85c-0.752,0.894-1.706,1.507-2.82,1.861c-1.643,0.244-3.31,0.198-4.971,0.092C30.612,37.666,29.626,37.272,28.763,36.579z"/>
<path fill="#5C5944" d="M93.285,73.881c-2.945,2.005-5.891,4.007-8.835,6.012c-0.401-0.437-0.803-0.873-1.21-1.307c-0.008-0.592-0.01-1.187-0.032-1.782c0.448-2.347,1.125-4.642,1.817-6.939c0.392-1.181,0.977-2.255,1.692-3.271c1.872-1.751,3.814-3.274,6.584-1.883c0.009,2.097,0.02,4.19,0.029,6.287c-0.545,0.632-0.734,1.27-0.566,1.913C92.934,73.557,93.107,73.881,93.285,73.881z"/>
<path fill="#8B8667" d="M44.068,95.285c-2.269-1.58-4.538-3.161-6.809-4.739c0.066-0.604,0.131-1.208,0.199-1.813c0.833-0.919,1.815-1.633,2.923-2.188c1.686-0.823,3.311-1.797,5.22-2.078c2.006-0.112,3.806,0.376,5.268,1.828c0.552,1.294,0.334,2.411-0.767,3.326l-0.139-0.073C48.369,91.843,47.085,94.452,44.068,95.285z"/>
<path fill="#C0B88C" d="M65.693,8.741c-1.03,1.959-2.062,3.921-3.091,5.881c-0.576,0.042-1.151,0.088-1.728,0.14c-1.169,0.027-2.319-0.101-3.456-0.372c-1.719-0.507-3.244-1.294-4.196-2.905c0-1.022,0.003-2.048,0.009-3.07c3.327-0.134,6.653-0.266,9.982-0.4C64.089,8.094,64.914,8.338,65.693,8.741z"/>
<path fill="#6F6C50" d="M44.068,95.285c1.965-1.913,3.932-3.823,5.898-5.737c1.13,2.146,2.263,4.288,3.395,6.434C50.263,95.749,47.166,95.518,44.068,95.285z"/>
<path fill="#C3BD8B" d="M34.815,42.271c-4.413,0.119-8.826,0.238-13.24,0.357c2.209-1.013,4.42-2.023,6.63-3.037c0.874-0.833,1.896-1.16,3.093-0.897c1.077,0.464,2.003,1.132,2.791,1.999C34.335,41.218,34.574,41.743,34.815,42.271z"/>
<path fill="#605C49" d="M90.734,39.637c-3.111-0.003-6.223-0.009-9.335-0.012c-0.816-0.684-1.094-1.374-0.835-2.072c0.263-0.699,0.526-1.05,0.795-1.05l-0.02,0.009c1.02-1.022,2.053-0.986,3.098-0.037c2.09-1.038,4.183-2.075,6.272-3.11c0.838-1.272,1.7-1.288,2.585-0.049c0.019,2.121,0.037,4.242,0.054,6.363C92.45,41.145,91.577,41.206,90.734,39.637z"/>
<path fill="#8D886B" d="M6.956,70.984c-0.021-2.151-0.041-4.303-0.061-6.451c0.682-0.925,1.585-1.498,2.708-1.733c1.109-0.201,2.203-0.125,3.285,0.177c1.058,0.372,2.008,0.922,2.84,1.676l-0.037-0.021c0.745,1.313,0.821,2.664,0.236,4.056C13.546,71.83,10.922,74.039,6.956,70.984z"/>
<path fill="#7B774E" d="M6.956,70.984c2.924-1.064,5.849-2.127,8.772-3.192c0.475,0.458,0.949,0.913,1.43,1.364c0.58,1.206,0.893,2.476,0.963,3.809c-0.096,1.337-0.484,2.588-1.099,3.77c-0.938,1.016-2.113,1.416-3.478,1.294c-2.431-0.974-4.692-2.226-6.537-4.136C6.523,72.932,6.506,71.961,6.956,70.984z"/>
<path fill="#928D6B" d="M28.835,11.863c2.989,1.889,5.98,3.775,8.969,5.661c-0.468,0.528-0.938,1.056-1.405,1.584c-1.299,0.607-2.664,0.873-4.096,0.809c-1.381-0.378-2.58-1.074-3.598-2.084C28.748,15.843,28.793,13.853,28.835,11.863z"/>
<path fill="#534F32" d="M90.622,52.122c0.898,2.065,1.796,4.129,2.695,6.194c-0.004,1.041-0.007,2.078-0.01,3.119c-2.254,1.825-4.497,1.898-6.732-0.04c-1.873-3.329-1.611-6.43,1.001-9.273l0.075,0.012C88.637,51.268,89.627,51.261,90.622,52.122z"/>
<path fill="#898565" d="M7.008,73.893c2.902,1.071,5.805,2.143,8.707,3.214c0.656,0.619,0.88,1.245,0.671,1.874c-0.209,0.635-0.423,0.948-0.638,0.948C12.834,77.918,9.921,75.907,7.008,73.893z"/>
<path fill="#7D7955" d="M28.706,17.833c0.867-0.043,1.733-0.058,2.6-0.046c1.693,1.532,2.441,3.433,2.238,5.707c-0.43,1.376-1.134,2.594-2.147,3.625c-0.894-0.003-1.788-0.015-2.683-0.034C28.712,24,28.709,20.918,28.706,17.833z"/>
<path fill="#605D4C" d="M87.592,61.497c1.906-0.021,3.812-0.043,5.716-0.062c-0.001,1.093-0.005,2.182-0.006,3.274c-1.896,1.011-3.789,2.021-5.683,3.027c-0.938-0.83-1.508-1.858-1.65-3.112C86.121,63.383,86.645,62.33,87.592,61.497z"/>
<path fill="#79754B" d="M25.079,83.319c-0.026,0.864-0.047,1.73-0.064,2.595c-2.234-1.758-4.469-3.513-6.703-5.271c0.461-0.531,0.92-1.06,1.381-1.594c2.123-0.848,4.122-0.655,5.989,0.696C26.486,81.107,26.334,82.307,25.079,83.319z"/>
<path fill="#504D34" d="M93.294,33.317c-0.86,0.018-1.723,0.034-2.585,0.049c-0.369-0.688-0.738-1.376-1.231-2.292c1.353-0.284,2.573-0.537,3.794-0.793C93.279,31.294,93.286,32.304,93.294,33.317z"/>
<path fill="#C8C191" d="M59.736,5.17c-2.171-1.031-4.343-2.066-6.514-3.097C55.393,3.105,57.565,4.139,59.736,5.17z"/>
<path fill="#504D32" d="M90.734,39.637c0.871-0.009,1.743,0.006,2.614,0.042c-0.026,2.023-0.052,4.047-0.079,6.067C92.423,43.711,91.579,41.672,90.734,39.637z"/>
<path fill="#C8C294" d="M87.388,18.44c-0.938-0.106-1.873-0.216-2.808-0.323C85.554,17.897,86.489,18.006,87.388,18.44z"/>
<path fill="#A59F78" d="M9.443,48.851c0.011,1.028,0.09,2.051,0.241,3.066c-0.977,0.104-1.958,0.201-2.939,0.287C7.646,51.087,8.544,49.967,9.443,48.851z"/>
<path fill="#7A7547" d="M31.445,39.759c-1.079-0.055-2.159-0.11-3.239-0.168c-0.044-1.047,0.142-2.051,0.558-3.012c0.838-0.015,1.676-0.021,2.513-0.021c0,0,1.126,0.809,1.129,0.809c0.003-0.003-0.005,1.388-0.001,1.388C32.406,38.755,31.445,39.759,31.445,39.759z"/>
<path fill="#4F4C2E" d="M93.285,73.881c-0.331-0.687-0.74-1.353-0.935-2.075c-0.045-0.171,0.635-0.534,0.98-0.809C93.848,71.967,93.833,72.929,93.285,73.881z"/>
<path fill="#807D59" d="M15.748,79.929c-0.021-0.939-0.032-1.88-0.033-2.822l-0.029-0.003c2.858-0.833,3.827,0.351,3.325,3.109c0,0-0.693,0.428-0.696,0.428C17.364,80.738,16.51,80.5,15.748,79.929z"/>
<path fill="#58553D" d="M84.47,77.125c-0.008,0.921-0.014,1.843-0.02,2.768c-0.686,0.702-1.513,0.985-2.484,0.849c-0.581-0.223-1.162-0.449-1.745-0.672c-0.233-1.272,0.017-2.432,0.819-3.461C82.276,76.157,83.42,76.328,84.47,77.125z"/>
<path fill="#7D784D" d="M9.465,64.625c-0.858-0.027-1.714-0.059-2.57-0.092c-0.482-0.979-0.506-1.972-0.076-2.973c0.888-0.046,1.776-0.061,2.666-0.043c0.421,0.52,0.842,1.041,1.267,1.56C10.325,63.593,9.895,64.109,9.465,64.625z"/>
<path fill="#504C2F" d="M78.303,83.612c-0.029-1.12-0.059-2.239-0.086-3.359c1.014-1.492,2.039-1.432,3.073-0.021l0.676,0.51C80.745,81.699,79.524,82.654,78.303,83.612z"/>
<path fill="#7C774E" d="M34.511,89.298c-0.014-0.934-0.021-1.867-0.026-2.802c0.36-0.408,0.72-0.817,1.081-1.229c1.13-0.021,2.116,0.345,2.958,1.099c0.409,1.129,0.151,2.045-0.877,2.71l-0.388,1.471C36.242,90.357,35.325,89.942,34.511,89.298z"/>
<path fill="#504D32" d="M68.815,86.826c0.003,0.65,0.009,1.3,0.02,1.95c-1.032,0.168-2.065,0.339-3.099,0.507c-0.008-0.916-0.006-1.831,0.005-2.75C66.88,85.416,67.911,85.45,68.815,86.826z"/>
<path fill="#CFC796" d="M53.222,11.485c2.073,0.009,4.146,0.021,6.22,0.03c0.999,1.086,2.035,2.133,3.15,3.104l0.01,0.003c-0.004,1.043-0.007,2.084-0.008,3.128c0,0-0.075,1.529-0.069,1.532c-0.012,1.038-0.094,2.066-0.223,3.104c-0.145,1.056-0.416,2.075-0.779,3.083c-0.467,0.995-1.134,1.825-2.013,2.487c-1.068,0.305-2.138,0.323-3.214,0.037c-1.545-0.617-2.838-1.584-3.906-2.856c-0.605-0.888-1.031-1.865-1.276-2.915c0.018-1.55,0.216-3.146-0.992-4.431C51.156,15.687,52.189,13.587,53.222,11.485z"/>
<path fill="#928D6B" d="M37.804,17.524c2.156,0.964,4.311,1.926,6.465,2.887c-0.502,0.519-1.006,1.034-1.508,1.553c-3.165,0.455-5.89,0.342-5.255-4.089L37.804,17.524z"/>
<path fill="#928D6B" d="M44.27,20.411c1.96,0.125,3.923,0.25,5.884,0.375c0.386,0.562,0.773,1.123,1.161,1.685c-0.185,0.659-0.372,1.315-0.558,1.975c-0.573,0.375-1.148,0.745-1.723,1.12c-2.098,0.552-4.044,0.281-5.79-1.071c-0.693-1.318-0.511-2.512,0.544-3.567L44.27,20.411z"/>
<path fill="#D7D0A4" d="M50.121,17.79c1.033,1.01,2.066,2.023,3.098,3.034c-1.02,1.471-2.047,1.544-3.081,0.015l0.014-0.052C50.126,19.789,50.115,18.788,50.121,17.79z"/>
<path fill="#CEC594" d="M59.466,26.786c0.001-0.931,0.003-1.862,0.003-2.795c0.891-0.839,1.406-1.874,1.598-3.079c0.218-1.193,0.726-2.246,1.524-3.162h0.003c1.593,2.261,3.188,4.525,4.788,6.787c1.525-1.227,3.046-2.454,4.563-3.681c1.863,0.232,2.252,1.938,3.146,3.14c2.203,1.09,4.404,2.176,6.608,3.266c-2.047,1.092-4.094,2.185-6.141,3.277c-1.87,1.108-4.067,1.346-6.015,2.274c-2.224,0.369-4.348,0.061-6.389-0.885C61.195,30.741,59.794,29.145,59.466,26.786z"/>
<path fill="#898566" d="M62.659,30.091c1.967,0.152,3.934,0.305,5.9,0.458c1.411,0.934,3.475,1.129,3.765,3.33c-0.075,1.935-0.149,3.873-0.227,5.808c-0.543,0.299-1.088,0.601-1.632,0.906c-1.264,0.064-2.492-0.116-3.697-0.513c-1.79-0.714-3.365-1.746-4.655-3.195c-0.713-1.077-1.096-2.273-1.211-3.558c0.144-0.617,0.293-1.236,0.439-1.855C61.779,31.01,62.218,30.549,62.659,30.091z"/>
<path fill="#B5AE84" d="M72.324,33.878c-1.255-1.111-2.507-2.222-3.762-3.33c2.33-0.003,4.662-0.006,6.996-0.009C74.481,31.65,73.403,32.765,72.324,33.878z"/>
<path fill="#524E33" d="M81.359,36.503c-0.011,1.041,0.002,2.081,0.04,3.122l-0.119-0.003c-0.793,0.989-1.817,1.56-3.076,1.715c-0.595-0.146-1.19-0.293-1.785-0.437c-0.441-0.424-0.882-0.852-1.323-1.275C77.184,38.584,79.272,37.544,81.359,36.503z"/>
<path fill="#524E31" d="M84.437,36.476c-1.033,0.012-2.064,0.024-3.098,0.037C82.37,36.5,83.404,36.488,84.437,36.476z"/>
<path fill="#525036" d="M72.098,39.686c1-0.043,1.998-0.064,2.997-0.061l-0.006-0.006c1.102,2.615-0.307,3.213-2.534,3.156c-0.77-0.58-1.131-1.254-1.082-2.014c0.05-0.806,0.177-1.208,0.378-1.208L72.098,39.686z"/>
<path fill="#D4CF9A" d="M75.091,23.997c-1.049-1.046-2.097-2.093-3.146-3.14c2.091-1.046,4.181-2.093,6.271-3.14C77.175,19.81,76.133,21.903,75.091,23.997z"/>
<path fill="#8A8566" d="M34.469,67.753c-0.003,1.04-0.006,2.081-0.009,3.122c-0.848,0.769-1.831,1.028-2.945,0.774c-1.354,0.333,0.177-2.795-1.904-1.568c-0.537,1.041-1.37,1.676-2.51,1.938c-1.175-0.03-2.268-0.326-3.32-0.836c-1.547-0.961-2.74-2.228-3.493-3.894c-0.52-1.782-0.004-3.534,0.157-5.298c0.07-1.215,0.479-2.298,1.225-3.257l0.559-0.644c1.779-1.647,3.873-1.798,6.113-1.297c3.607,1.239,6.688,3.061,7.716,7.102C36.06,65.397,35.557,66.693,34.469,67.753z"/>
<path fill="#7D7850" d="M40.719,77.219c0.001-1.064,0.001-2.133,0.003-3.201c2.066-1.65,1.076-4.754,3.058-6.451c1.135-0.619,2.319-0.738,3.559-0.363c0.938,0.854,1.661,1.862,2.198,3.01c0.932,2.355,1.635,4.77,1.803,7.32c-0.173,1.291-0.708,2.417-1.587,3.379c-1.703,1.123-3.523,1.324-5.448,0.674C42.648,80.512,42.086,78.534,40.719,77.219z"/>
<path fill="#8E8A6F" d="M40.719,77.219c1.041,0.992,2.083,1.981,3.124,2.973c1.596,1.999,4.557,1.202,6.23,3.046c0.598,1.132,0.538,2.209-0.274,3.223c-2.036,0.04-4.073,0.076-6.108,0.116c-1.096,1.074-2.263,1.211-3.511,0.269c-0.862-1.294-0.694-2.441,0.507-3.437C40.696,81.345,40.707,79.282,40.719,77.219z"/>
<path fill="#7E7951" d="M37.593,73.987c-3.139,2.088-6.276,4.178-9.415,6.269c-0.442-0.586-0.883-1.172-1.327-1.755c-0.409-2.377,0.227-4.31,2.382-5.594C32.131,72.385,35.029,71.897,37.593,73.987z"/>
<path fill="#888565" d="M37.593,73.987c-3.128,0-6.256,0-9.383,0.003c-0.35-0.519-0.697-1.034-1.045-1.553c0.348-0.517,0.696-1.035,1.044-1.554l0.061-0.067c1.039-1.471,2.057-1.525,3.052,0.046c1.047,0.003,2.093,0.006,3.139,0.013C35.503,71.912,36.549,72.95,37.593,73.987z"/>
<path fill="#8B8767" d="M34.469,67.753c0.023-1.123,0.046-2.249,0.068-3.372c0.951-0.968,2.094-1.521,3.458-1.6c1.335,0.208,2.484,0.784,3.45,1.728c0.127,0.646,0.253,1.294,0.38,1.944c-0.424,0.503-0.848,1.01-1.272,1.514C38.525,67.897,36.497,67.823,34.469,67.753z"/>
<path fill="#888465" d="M43.673,68.302c-0.984,1.904-1.967,3.812-2.951,5.716c-0.055-2.017-0.111-4.037-0.168-6.051c-0.001,0,0.202-0.263,0.202-0.263c0.574-0.327,1.147-0.656,1.721-0.986C42.876,67.246,43.275,67.774,43.673,68.302z"/>
<path fill="#7D7852" d="M40.685,83.408c0.018,1.041,0.027,2.078,0.027,3.119c0.819,0.646,1.1,1.303,0.844,1.968c-0.258,0.669-0.521,1.004-0.79,1.004c-1.04-0.137-2.08-0.277-3.119-0.421c-0.034-0.86-0.052-1.721-0.055-2.578c-1.126-0.693-1.501-1.389-1.128-2.085c0.374-0.692,0.748-1.04,1.128-1.04C38.622,83.365,39.654,83.378,40.685,83.408z"/>
<path fill="#77734B" d="M25.079,83.319c0.012-0.97,0.02-1.94,0.022-2.911c0.995-1.181,2.034-1.221,3.115-0.119l-0.037-0.033C27.145,81.275,26.112,82.297,25.079,83.319z"/>
<path fill="#7E7A50" d="M34.486,86.496c-0.406-0.738-0.883-1.455-1.153-2.242c-0.05-0.146,0.735-0.577,1.134-0.879c0.828,0.695,1.103,1.388,0.828,2.084c-0.274,0.692-0.551,1.041-0.827,1.041L34.486,86.496z"/>
<path fill="#8A856A" d="M34.468,86.5c0-1.041,0-2.085,0-3.125c1.041,0,2.083,0,3.125,0c0,1.04,0,2.084,0,3.125C36.55,86.5,35.51,86.5,34.468,86.5z"/>
<path fill="#5E5A4A" d="M72.33,42.68c0.919-1.02,1.839-2.042,2.759-3.061c1.031,0.003,2.063,0.009,3.096,0.012c1.152,0.94,2.197,1.984,3.157,3.119c-0.001,2.081-0.001,4.162-0.001,6.243c-0.461,0.471-0.921,0.938-1.361,1.429c-2.102,1.599-4.044,3.402-6.182,4.978c-0.618,0.28-1.239,0.537-1.864,0.806c-1.408,0.015-2.633-0.452-3.686-1.389c-2.098-3.442-0.945-6.586,0.862-9.683c0.445-0.519,0.908-1.032,1.362-1.55C71.087,43.278,71.707,42.979,72.33,42.68z"/>
<path fill="#5E5B46" d="M87.592,61.497c-0.005,1.053-0.009,2.103-0.016,3.155c-1.208,0.727-2.394,0.727-3.563-0.101c-1.428-1.505-2.092-3.339-2.327-5.362c-0.105-2.032,0.271-3.964,1.28-5.753c0.494-0.439,0.998-0.875,1.5-1.312c1.036,0,2.073-0.003,3.109-0.003C87.583,55.247,87.587,58.372,87.592,61.497z"/>
<path fill="#514E33" d="M90.622,52.122c-0.991,0.003-1.982,0.006-2.973,0.012C88.642,52.131,89.632,52.125,90.622,52.122z"/>
<path fill="#5D5B48" d="M81.341,48.993c1.042,1.044,2.084,2.088,3.126,3.132l-0.002,0.003c-1.024,0.852-2.065,0.869-3.121,0.058c-0.754-1.062-0.789-2.127,0.001-3.188L81.341,48.993z"/>
<path fill="#4E4B2E" d="M81.342,42.75c-1.053-1.041-2.104-2.079-3.157-3.119c1.032-0.003,2.063-0.006,3.095-0.009C81.299,40.666,81.321,41.706,81.342,42.75z"/>
<path fill="#CDC598" d="M28.147,58.552c-1.975-0.152-3.949-0.306-5.92-0.458c-1.125-1.132-2.252-2.265-3.378-3.399c0-0.863,0.005-1.725,0.011-2.585c1.689-1.813,4.611-1.153,6.23-3.106l0.005-0.006c2.084,1.04,4.168,2.084,6.253,3.125c0,0,0.006,1.522,0.014,1.525c-0.247,1.551-0.868,2.933-1.883,4.139C29.486,57.792,28.147,58.552,28.147,58.552z"/>
<path fill="#7F7B53" d="M21.821,61.436c0.065,2.088,0.131,4.178,0.198,6.266c-0.829,0.994-1.895,1.563-3.166,1.764c-1.291-0.141-2.335-0.738-3.167-1.728l0.042,0.055c-0.012-1.053-0.024-2.108-0.037-3.161c1.056-1.05,2.113-2.097,3.17-3.144C19.831,60.508,20.819,60.532,21.821,61.436z"/>
<path fill="#7B774E" d="M9.484,61.518c1.025-0.009,2.052-0.018,3.078-0.027c-0.514,0.452-1.028,0.906-1.542,1.364c-0.517-0.445-1.035-0.9-1.552-1.354L9.484,61.518z"/>
<path fill="#7B7649" d="M21.821,61.436c-0.986,0.04-1.973,0.058-2.959,0.052c0.937-0.918,1.875-1.84,2.811-2.756C21.821,59.629,21.87,60.529,21.821,61.436z"/>
<path fill="#7F7B54" d="M15.728,64.652c-1.044-0.01-2.089-0.019-3.134-0.027c-0.827-0.696-1.103-1.389-0.829-2.085c0.275-0.692,0.551-1.04,0.827-1.04l-0.031-0.01C13.618,62.543,14.674,63.6,15.728,64.652z"/>
<path fill="#5F5C4A" d="M49.798,86.46c-0.073-1.08-0.148-2.164-0.223-3.244c0.278-0.485,0.558-0.974,0.836-1.465c0.73-0.876,1.477-1.736,2.233-2.6c0.528-0.241,1.057-0.471,1.587-0.712c1.161-0.237,2.321-0.256,3.49-0.045c1.146,0.387,2.063,1.089,2.789,2.051c0.383,1.238,0.027,2.209-1.063,2.911c-1.096,2.008-2.191,4.013-3.418,6.265c-2.002,0-3.964,0-5.927,0C50,88.565,49.9,87.513,49.798,86.46z"/>
<path fill="#5A5642" d="M59.448,83.356c0.005-1.038,0.003-2.075-0.002-3.113c-0.841-1.096-0.749-2.148,0.146-3.174c1.121-0.61,2.309-0.863,3.582-0.732c2.525,0.528,4.812,1.486,6.437,3.616c0.453,1.279,0.217,2.417-0.709,3.409l-0.091,0.009c-2.068,1.92-4.141,1.773-6.212,0.004C61.548,83.368,60.497,83.362,59.448,83.356z"/>
<path fill="#5D5B49" d="M62.598,83.375c2.071,0,4.142,0,6.212-0.004c0.002,1.151,0.003,2.299,0.005,3.452c-1.015-0.208-2.04-0.306-3.076-0.29C64.692,85.481,63.645,84.428,62.598,83.375z"/>
<path fill="#D0CA9C" d="M25.089,49.003c-2.077,1.034-4.153,2.072-6.23,3.106C20.936,51.075,23.012,50.037,25.089,49.003z"/>
<path fill="#D0C799" d="M34.468,52.112c2.319-2.197,4.64-4.395,6.959-6.592c1.561-1.468,3.244-1.291,4.983-0.378c0.384,0.467,0.769,0.937,1.156,1.403c0.089,0.599,0.176,1.199,0.268,1.798c-0.472,1.135-1.192,2.078-2.181,2.813c-1.477,1.041-3.067,1.88-4.758,2.53c-1.153,0.345-2.337,0.448-3.539,0.348c-0.56-0.195-1.12-0.403-1.683-0.604C35.271,52.994,34.868,52.552,34.468,52.112z"/>
<path fill="#7F7B52" d="M34.49,36.512c1.031,0,2.064-0.006,3.097-0.016c1.006-1.129,2.155-1.297,3.445-0.509c0.684,1.236,0.816,2.53,0.401,3.878c-0.955,1.038-2.136,1.599-3.544,1.688c-1.025,0.241-2.052,0.482-3.076,0.72c0.001-0.003-0.047,0.375-0.047,0.375c-0.979-0.79-1.541-1.815-1.741-3.052c0.049-0.607,0.101-1.211,0.151-1.819C33.613,37.357,34.052,36.936,34.49,36.512z"/>
<path fill="#7F7B56" d="M37.89,41.554c0.894-0.641,1.788-1.279,2.684-1.917c1.042-1.145,2.229-1.318,3.562-0.525c0.7,1.294,0.812,2.63,0.335,4.022c-1.306,0.998-2.444,0.784-3.439-0.473C39.985,42.292,38.938,41.923,37.89,41.554z"/>
<path fill="#7E7B58" d="M41.032,42.661c0.89,0.055,1.781,0.089,2.672,0.104c1.48-0.65,2.687-0.317,3.621,1.004c-0.136,0.717-0.27,1.431-0.406,2.148c-1.833-0.131-3.665-0.262-5.495-0.394C41.169,44.587,41.036,43.632,41.032,42.661z"/>
<path fill="#CEC793" d="M31.347,52.122c1.041,0.003,2.08,0,3.121-0.01v0.013c0.795,0.701,1.12,1.455,0.977,2.268c-0.15,0.836-0.34,1.254-0.574,1.257c-1.302,0.629-2.623,0.675-3.971,0.144c-0.79-1.337-0.595-2.552,0.443-3.665L31.347,52.122z"/>
<path fill="#5C5945" d="M75.084,74.015c-1.05-0.006-2.1-0.012-3.15-0.019c-0.629,0.013-1.258,0.021-1.89,0.04c-1.262-0.207-2.447-0.632-3.579-1.221c-1.071-0.72-1.906-1.657-2.53-2.786c-0.7-1.81-0.842-3.671-0.491-5.575c0.892-3.135,2.96-5.356,5.582-7.139c1.047-0.604,2.032-1.303,2.958-2.084l0.338-0.208c1.552-1.254,3.378-1.831,5.305-2.157c1.29,0.101,2.492,0.482,3.583,1.172c0.892,0.919,1.421,2.021,1.584,3.287c0.086,1.813,0.054,3.638,0.163,5.447c0.194,1.147,0.281,2.313,0.26,3.479c-0.336,1.096-0.908,2.069-1.677,2.918c-1.168,1.142-2.436,2.194-3.681,3.265c-0.414,0.339-0.852,0.653-1.28,0.977C76.085,73.618,75.585,73.816,75.084,74.015z"/>
<path fill="#5A5744" d="M84.47,77.125c-1.042,0-2.086,0-3.128,0c-1.042,1.363-2.084,1.3-3.126,0c-1.044-1.038-2.088-2.072-3.132-3.11l0.048-0.07c1.267-1.208,2.502-2.447,3.729-3.692c0.815-0.836,1.638-1.663,2.468-2.48l0.014-0.021c1.053-1.126,2.229-1.334,3.553-0.485c0.728,1.218,1.084,2.539,1.075,3.958c0.005,2.081,0.131,4.193-1.483,5.865L84.47,77.125z"/>
<path fill="#605C49" d="M68.874,80.274c-2.086-1.035-4.172-2.069-6.258-3.107c0.504-0.503,1.007-1.007,1.508-1.517c1.326-0.576,2.711-0.817,4.155-0.727c1.382,0.425,2.57,1.169,3.59,2.191c0.033,1.063,0.065,2.121,0.1,3.184C70.928,81.373,69.897,81.363,68.874,80.274z"/>
<path fill="#625E4B" d="M71.869,77.115h-1.535l-1.535-0.006c-0.411-0.553-0.823-1.104-1.235-1.66c0.253-0.644,0.507-1.288,0.761-1.932c1.347-0.718,2.565-0.543,3.659,0.516l-0.049-0.037C71.948,75.037,71.926,76.075,71.869,77.115z"/>
<path fill="#5D5A47" d="M78.216,77.125c1.042,0,2.084,0,3.126,0c0.011,1.037-0.001,2.075-0.044,3.109c-1.031,0.012-2.057,0.021-3.081,0.019C78.216,79.212,78.216,78.168,78.216,77.125z"/>
<path fill="#4F4C31" d="M68.874,80.274c1.031-0.028,2.063-0.019,3.095,0.024c-1.024,1.021-2.048,2.041-3.07,3.063C68.865,82.334,68.858,81.303,68.874,80.274z"/>
<path fill="#7B7852" d="M43.853,23.991c1.993,0.091,3.984,0.18,5.977,0.269c1.155,0.793,1.821,1.886,1.999,3.277c-0.144,1.376-0.668,2.585-1.566,3.638c-1.186,0.696-2.474,1.044-3.844,1.108c-1.358-0.183-2.586-0.693-3.687-1.511c-0.656-1.172-1.294-2.356-1.915-3.552c-1.076-0.03-2.15-0.064-3.224-0.094c-1.013-1.322-1.012-2.643,0.003-3.961C39.816,22.428,41.993,22.016,43.853,23.991z"/>
<path fill="#827E57" d="M40.677,36.515c-1.03-0.006-2.06-0.012-3.09-0.019c1.048-2.087,2.098-4.175,3.146-6.262c0.435,0.439,0.87,0.882,1.305,1.322C42.634,33.497,42.287,35.178,40.677,36.515z"/>
<path fill="#97937A" d="M31.397,27.119c-0.021-1.01-0.017-2.02,0.014-3.03c1.033-1.178,2.228-1.313,3.566-0.556c0.798,1.334,0.67,2.533-0.519,3.577l-1.53,0.012L31.397,27.119z"/>
<path fill="#928D6B" d="M34.458,27.109c0.006-1.013-0.006-2.026-0.038-3.04c1.033-0.875,2.086-0.897,3.157-0.067c0.011,1.041,0.017,2.081,0.016,3.122C36.547,27.119,35.503,27.113,34.458,27.109z"/>
<path fill="#96927B" d="M40.817,27.219c1.031,1.004,2.064,2.005,3.096,3.009c-1.056,1.099-2.104,1.089-3.143-0.021l-0.035,0.027C40.733,29.228,40.76,28.224,40.817,27.219z"/>
<path fill="#807D58" d="M31.277,36.558c0.522-0.549,1.044-1.099,1.646-1.733c0.54,0.583,1.053,1.135,1.567,1.688l-0.023-0.012c-1.042,1.492-2.084,1.425-3.126,0L31.277,36.558z"/>
<path fill="#524F30" d="M84.508,70.881c-0.014-1.044-0.027-2.088-0.041-3.131c-0.479-0.516-0.958-1.032-1.441-1.545c0.471-0.521,0.947-1.04,1.423-1.563c1.044,0.004,2.086,0.007,3.128,0.01c0.013,1.028,0.026,2.057,0.043,3.085c-0.027,1.05-0.055,2.097-0.082,3.144C86.527,72.3,85.517,72.373,84.508,70.881z"/>
<path fill="#504C2F" d="M84.508,70.881c1.011-0.003,2.021-0.003,3.029,0c-1.017,2.069-2.034,4.141-3.051,6.21C84.494,75.019,84.502,72.95,84.508,70.881z"/>
<path fill="#787349" d="M40.766,89.499c-0.023-0.988-0.042-1.98-0.054-2.972c0.994-0.013,1.987,0.003,2.979,0.049C42.715,87.55,41.741,88.526,40.766,89.499z"/>
<path fill="#C3BC8F" d="M62.592,14.619c-1.05-1.034-2.1-2.069-3.15-3.104C60.492,12.55,61.542,13.585,62.592,14.619z"/>
<path fill="#CFC697" d="M34.464,39.628c0.23,0.995,0.331,1.999,0.302,3.018c-1.108-0.961-2.214-1.922-3.322-2.887l-0.113-0.15C32.383,38.486,33.427,38.493,34.464,39.628z"/>
<path fill="#958F73" d="M12.593,61.5c0,1.04,0,2.084,0.001,3.125c-1.042,0-2.084,0-3.128,0c0.001-1.044,0.003-2.085,0.001-3.125C10.51,61.5,11.55,61.5,12.593,61.5z"/>
<path fill="#878264" d="M28.216,80.289c-1.04-0.009-2.079,0.03-3.115,0.116c-2.031-0.064-4.062-0.128-6.093-0.192c-1.106-1.037-2.214-2.072-3.322-3.109c0.02-2.082,0.042-4.166,0.063-6.247c0.429-0.399,0.858-0.797,1.284-1.196c0.58,0.064,1.16,0.131,1.741,0.192c2.174,0.809,4.428,1.406,6.563,2.341c1.12,0.354,2.09,0.945,2.89,1.813l-0.017-0.016C28.211,76.09,28.214,78.19,28.216,80.289z"/>
<path fill="#908B6D" d="M18.927,70.838c-1.059,0.006-2.118,0.013-3.177,0.019c-0.041-1.041-0.061-2.078-0.063-3.119c1.045,0.006,2.091,0.01,3.136,0.016c0.793,0.659,1.073,1.337,0.839,2.029C19.427,70.487,19.181,70.838,18.927,70.838z"/>
<path fill="#868262" d="M37.577,24.003c-1.053,0.021-2.104,0.042-3.157,0.067l-1.506-0.024l-1.504,0.04c-0.034-2.1-0.068-4.199-0.104-6.299c2.067,0.03,4.135,0.058,6.201,0.088c2.095,1.016,4.188,2.032,6.283,3.052c0.037,1.022,0.058,2.042,0.063,3.064C41.761,23.994,39.669,24,37.577,24.003z"/>
<path fill="#959179" d="M34.464,39.628c-1.041-0.003-2.081-0.003-3.126-0.009c0.005-1.047,0.008-2.081,0.005-3.119c1.041,0,2.083,0,3.125,0C34.468,37.544,34.466,38.587,34.464,39.628z"/>
<path fill="#928D6B" d="M50.083,27.146c-0.026-0.97-0.108-1.932-0.252-2.89c-0.002,0.003,0.604-0.607,0.604-0.607c0.961-0.949,1.93-0.955,2.905-0.019c1.066,1.099,2.132,2.197,3.196,3.296c-0.439,0.47-0.877,0.937-1.315,1.407C53.254,29.042,51.502,28.815,50.083,27.146z"/>
<path fill="#918B6F" d="M59.466,26.786c1.063,1.102,2.128,2.207,3.191,3.305c0.002,0-0.182,0.427-0.182,0.427c-1.791,1.556-3.752,1.663-5.839,0.68c-0.759-0.726-1.104-1.522-1.038-2.389c0.069-0.9,0.205-1.352,0.407-1.352c0,0,0.528-0.528,0.53-0.528C57.522,27.058,58.498,27.009,59.466,26.786z"/>
<path fill="#C3BC8F" d="M62.591,17.75c-0.004,1.041-0.004,2.081,0.001,3.122c-1.044,1-2.084,0.998-3.123-0.006C60.509,19.828,61.55,18.791,62.591,17.75z"/>
<path fill="#C0B88C" d="M53.341,23.63l-1.454,0.122c0,0-1.459-0.098-1.454-0.101c-0.167-0.931-0.266-1.868-0.295-2.813c1.027-0.024,2.054-0.028,3.081-0.015C53.244,21.76,53.286,22.694,53.341,23.63z"/>
<path fill="#D3CC98" d="M59.469,20.866c1.04-0.003,2.083,0,3.123,0.006c-1.04,1.041-2.081,2.081-3.123,3.119C59.469,22.95,59.469,21.906,59.469,20.866z"/>
<path fill="#868263" d="M56.379,30.213c2.032,0.101,4.066,0.201,6.099,0.302c0.041,1.007,0.046,2.011,0.011,3.015c-1.732,1.749-3.611,1.526-5.558,0.418c-0.677-0.748-0.985-1.55-0.925-2.408C56.073,30.656,56.196,30.213,56.379,30.213z"/>
<path fill="#7B764C" d="M56.342,33.39c2.05,0.046,4.099,0.091,6.146,0.14c0.036,0.989,0.063,1.975,0.074,2.96c-0.348,0.391-0.695,0.781-1.04,1.175c-0.987,0.397-2.008,0.537-3.065,0.397c-1.004-0.354-1.845-0.943-2.501-1.786c-0.127-0.506-0.252-1.013-0.377-1.52C55.832,34.303,56.087,33.845,56.342,33.39z"/>
<path fill="#7A7657" d="M62.563,36.491c2.094,1.053,4.188,2.104,6.281,3.159c-0.496,0.433-0.992,0.867-1.486,1.3c-1.285,0.388-2.576,0.415-3.877,0.085c-0.536-0.381-1.07-0.769-1.604-1.153c-0.644-1.313-0.361-2.433,0.718-3.385L62.563,36.491z"/>
<path fill="#79754E" d="M71.851,39.552c0.157,1.043,0.313,2.087,0.474,3.128c0.006,0-0.716,0.168-0.716,0.168c-0.562,0.32-1.123,0.644-1.685,0.964c-0.572-0.305-1.142-0.614-1.715-0.922c-0.688-1.285-0.42-2.374,0.677-3.293l-0.042,0.052C69.848,39.649,70.85,39.616,71.851,39.552z"/>
<path fill="#C8C191" d="M31.355,55.24c1.038,0.003,2.075,0.007,3.113,0.01c0.795-1.035,1.81-1.407,3.076-1.017c1.117,0.477,2.136,1.111,3.067,1.893c0.349,0.488,0.691,0.988,1.042,1.479c0.408,1.15,0.47,2.332,0.206,3.525c-0.822,1.772-2.779,2.1-4.123,3.21c-1.066,0.016-2.133,0.03-3.198,0.043c-2.13-1.947-4.26-3.892-6.39-5.835c0,0.003,0.088-0.271,0.088-0.271C29.476,57.472,29.438,55.354,31.355,55.24z"/>
<path fill="#8E896E" d="M31.321,70.862c-1.018,0.003-2.036-0.009-3.052-0.046c0.372-1.343,0.745-2.686,1.532-5.523C30.581,68.149,30.95,69.505,31.321,70.862z"/>
<path fill="#767145" d="M18.927,70.838c-0.054-1.028-0.089-2.057-0.103-3.085c1.063-0.019,2.129-0.034,3.194-0.052c1.007,1.059,2.013,2.114,3.018,3.174c-0.417,0.43-0.833,0.86-1.248,1.29c-1.851,0.281-3.554,0.019-4.955-1.352L18.927,70.838z"/>
<path fill="#7E794E" d="M28.226,74.006l-1.504-0.027l-1.504,0.015c-1.127-0.662-1.518-1.349-1.178-2.063c0.348-0.727,0.702-1.09,1.067-1.09l-0.069,0.034c1.056,0.003,2.113,0.006,3.171,0.009C28.222,71.925,28.226,72.965,28.226,74.006z"/>
<path fill="#55533A" d="M65.714,70.875c1.05,0.009,2.1,0.018,3.147,0.03c0.712,0.695,0.945,1.389,0.705,2.081c-0.241,0.689-0.479,1.034-0.719,1.034l0.01-0.018c-1.579,2.057-4.68,1.059-6.263,3.112l0.021,0.052c-1.061,0-2.119,0-3.18,0c0,0-1.272-0.247-1.272-0.237c0,0.006-0.705-1.06-0.705-1.06s-0.105,1.272-0.108,1.279c-0.462,0.784-1.11,1.346-1.948,1.693c-0.846,0.296-1.572,0.766-2.183,1.419l-0.017-0.012c-0.554,0.402-1.107,0.806-1.661,1.214c-0.604-0.32-1.21-0.644-1.816-0.97c0.113-1.123,0.226-2.25,0.338-3.373c-1.695-1.712-1.505-3.78-1.127-5.89c1.154-2.679,2.932-4.791,5.555-6.14c2.523-1.264,5.111-2.207,7.992-1.355C64.748,65.574,63.49,69.013,65.714,70.875z"/>
<path fill="#D0C997" d="M56.317,67.304c-1.96,1.486-3.92,2.976-5.88,4.462c-1.476,0.814-2.621,0.482-3.438-0.992c0.008-0.97-0.087-1.932-0.287-2.88c0.07-1.646,0.862-3.034,1.532-4.472c0.189-1.07,0.323-2.133,0.322-3.234c0.076-0.57,0.179-1.117,0.27-1.688c0.247-0.534,0.505-1.041,0.759-1.575c0.733-0.967,1.611-1.758,2.631-2.414c0.584-0.188,1.162-0.362,1.751-0.546c1.276,0.03,2.411,0.428,3.404,1.236c0.74,1.04,1.234,2.185,1.549,3.418c0.205,1.257,0.208,2.518,0.045,3.781C58.319,64.154,57.847,66.017,56.317,67.304z"/>
<path fill="#D4CD9D" d="M50.086,64.637c-1.125,1.084-2.249,2.17-3.374,3.257c-1.045-0.107-2.059,0.03-3.038,0.408c-0.001,0,0.562-1.053,0.562-1.053C44.274,62.098,46.844,62.61,50.086,64.637z"/>
<path fill="#797559" d="M46.999,70.773c1.146,0.33,2.29,0.663,3.438,0.992c-0.125,1.785-0.248,3.57-0.373,5.355C49.042,75.004,48.02,72.889,46.999,70.773z"/>
<path fill="#948F76" d="M49.575,83.216c-1.911-1.007-3.823-2.014-5.733-3.024c1.963,0.101,3.926,0.198,5.886,0.299c-0.003,0.004,0.504-0.293,0.504-0.293c0.605,0.666,0.839,1.353,0.702,2.066c-0.141,0.727-0.304,1.09-0.487,1.09L49.575,83.216z"/>
<path fill="#C9C294" d="M50.086,64.637c-1.951,0.87-3.903,1.743-5.853,2.612c-1.158,0.152-2.318,0.306-3.479,0.458c-0.069-0.906-0.113-1.81-0.131-2.716c-0.836-0.803-1.1-1.59-0.793-2.362c0.304-0.763,0.601-1.145,0.891-1.145c-0.001-1.031-0.001-2.063,0-3.095c0.972-0.866,2.113-1.229,3.407-1.165c2.622,0.533,4.241,2.475,5.96,4.275c0.397,0.744,0.871,1.465,1.132,2.255C51.27,63.907,50.486,64.335,50.086,64.637z"/>
<path fill="#D5CD9E" d="M40.72,61.484c-0.032,1.169-0.064,2.335-0.098,3.504c-0.971-0.178-1.934-0.395-2.889-0.647C38.731,63.389,39.725,62.437,40.72,61.484z"/>
<path fill="#898566" d="M71.666,45.683c-0.894,3.14-1.789,6.277-2.684,9.418c-0.431,0.394-0.86,0.79-1.288,1.187c-0.576,0.095-1.155,0.181-1.73,0.284c-0.578-0.07-1.156-0.156-1.737-0.214c-1.713-0.336-3.397-0.79-5.061-1.318c-1.056-0.464-2.122-0.906-3.21-1.297c-1.166-0.073-2.245-0.421-3.236-1.034c-0.235-0.52-0.469-1.044-0.707-1.563c-0.053-1.154,0.24-2.226,0.806-3.223c0.951-1.343,1.991-2.634,2.864-4.044c0.466-1.01,1.001-1.975,1.554-2.945c0.598-0.986,1.406-1.746,2.407-2.31c1.196-0.293,2.169,0.073,2.95,1.001l-0.014-0.043c1.608,2.069,4.702,1.147,6.346,3.146l-0.085-0.058C69.887,43.577,70.829,44.581,71.666,45.683z"/>
<path fill="#535036" d="M78.184,55.247c-1.956-0.073-3.913-0.146-5.865-0.22c1.067-2.256,2.133-4.511,3.605-7.627c1.901,0.559,3.66,1.077,5.421,1.597c-0.006,1.046-0.011,2.093-0.017,3.14c-0.168,0.494-0.336,0.989-0.502,1.483C79.862,54.023,78.98,54.566,78.184,55.247z"/>
<path fill="#979175" d="M71.666,45.683c-0.941-1.004-1.883-2.008-2.825-3.012c0.926,0.046,1.849,0.104,2.771,0.174C71.847,43.788,71.865,44.731,71.666,45.683z"/>
<path fill="#898566" d="M71.984,55.231c-0.091,1.129-0.183,2.262-0.274,3.394c-1.167,0.906-2.363,0.988-3.592,0.128c-0.595-1.343-0.396-2.523,0.732-3.51c0,0,0.128-0.137,0.13-0.14C69.989,55.027,70.99,55.069,71.984,55.231z"/>
<path fill="#524E31" d="M81.342,64.625c0.017-2.078,0.035-4.157,0.052-6.235c0.998-1.468,1.994-1.465,2.988,0.007c0.022,2.081,0.045,4.165,0.068,6.246c-0.002,0,0.017-0.018,0.017-0.018C83.426,65.794,82.384,65.738,81.342,64.625z"/>
<path fill="#525037" d="M84.382,58.397l-1.496-0.01l-1.493,0.003c-0.021-1.05-0.043-2.1-0.064-3.149c-0.803-0.701-1.066-1.4-0.792-2.097c0.274-0.689,0.546-1.037,0.818-1.037l-0.026,0.03c1.045-0.003,2.091-0.006,3.137-0.009C84.437,54.218,84.409,56.306,84.382,58.397z"/>
<path fill="#C4BC8D" d="M31.355,55.24c-1.041,1.014-2.08,2.026-3.119,3.037c1.036-2.051,2.071-4.099,3.107-6.149C31.341,53.165,31.344,54.203,31.355,55.24z"/>
<path fill="#555238" d="M53.22,80.262c1.047-1.044,2.093-2.084,3.139-3.128c0.902,0.702,1.196,1.395,0.887,2.084c-0.31,0.684-0.616,1.025-0.923,1.025C55.288,80.243,54.255,80.25,53.22,80.262z"/>
<path fill="#514D30" d="M50.448,83.354c-0.071-1.05-0.145-2.103-0.217-3.156c0.992,0.037,1.982,0.053,2.973,0.053C52.285,81.284,51.366,82.318,50.448,83.354z"/>
<path fill="#635F4C" d="M56.323,80.243c0.014-1.037,0.024-2.072,0.036-3.109l-0.017-0.009c1.042-0.843,2.083-0.843,3.125,0c0,0-0.029,0.039-0.029,0.042c0.018,1.025,0.021,2.051,0.008,3.076l-1.561,0.003L56.323,80.243z"/>
<path fill="#C5BF8C" d="M53.223,48.868c0,1.077,0,2.158,0.002,3.238c1.126,0.699,1.498,1.397,1.123,2.097c-0.374,0.698-0.749,1.047-1.131,1.047h-0.011c-1.018,1.067-2.122,2.048-3.108,3.146l0.021-0.01c-2.088,1.904-4.172,1.768-6.255-0.009c-1.046,0.003-2.095,0.009-3.143,0.012l-0.015-0.042c-1.689-2.066-1.937-4.126,0.012-6.184c1.051-1.043,2.103-2.087,3.152-3.131c1.013,1.093,2.006,1.074,2.98-0.052l0.33-0.125C49.197,47.117,51.212,47.318,53.223,48.868z"/>
<path fill="#BCB682" d="M40.718,52.164c-0.005,2.061-0.008,4.123-0.012,6.184c-1.038-1.035-2.075-2.066-3.113-3.098c-0.913-0.696-1.216-1.389-0.913-2.085c0.304-0.692,0.607-1.04,0.914-1.04C38.635,52.137,39.677,52.149,40.718,52.164z"/>
<path fill="#7B7854" d="M53.223,48.868c-2.016-0.003-4.031-0.006-6.046-0.012c-0.151-0.974-0.237-1.953-0.256-2.939c-0.002,0,0.098-0.055,0.098-0.055c0.853-1.062,1.961-1.581,3.324-1.556c2.026,0.625,3.412,1.697,2.843,4.117L53.223,48.868z"/>
<path fill="#BFB788" d="M46.85,48.981c-0.993,0.016-1.987,0.033-2.98,0.052C44.863,49.012,45.857,48.993,46.85,48.981z"/>
<path fill="#C5BF8C" d="M37.594,52.125c-0.001,1.043-0.001,2.084-0.001,3.125c-1.042,0-2.083,0-3.125,0c0-1.041,0-2.085,0-3.125C35.51,52.125,36.552,52.125,37.594,52.125z"/>
<path fill="#8C8767" d="M40.769,30.207c1.047,0.006,2.095,0.015,3.143,0.021l-0.068-0.055c1.521,1.511,3.917,2.121,4.614,4.483c-0.092,3.012-0.01,6.192-4.639,4.977c-1.081,0-2.162,0-3.244,0.003c0.034-1.041,0.069-2.082,0.104-3.122C40.708,34.413,40.739,32.31,40.769,30.207z"/>
<path fill="#8D886E" d="M43.82,39.634c1.046-2.075,2.093-4.15,3.139-6.226c0.557-0.412,1.113-0.824,1.674-1.236c0.667,0.195,1.332,0.394,2.002,0.586c0.947,1.05,1.608,2.261,2.045,3.601c0.483,2.072,0.465,4.145-0.076,6.204c-0.559,1.279-1.35,2.399-2.361,3.366c-1.075-0.021-2.149-0.046-3.226-0.067c-1.103-1.031-2.206-2.066-3.311-3.097C43.741,41.721,43.782,40.678,43.82,39.634z"/>
<path fill="#CBC593" d="M68.708,57.978c1.015,0.153,2.014,0.37,3.001,0.645c-2.027,1.895-4.058,3.787-6.085,5.683c-0.599,1.574-1.613,1.831-2.991,0.945c-2.105,0.687-4.211,1.37-6.316,2.054c0.012-1.949,0.024-3.899,0.035-5.85c0.844-0.821,1.688-1.636,2.537-2.454c1.929-1.517,4.039-2.483,6.567-2.209C66.679,56.806,67.762,57.203,68.708,57.978z"/>
<path fill="#514E31" d="M62.633,65.25c0.997-0.314,1.995-0.632,2.991-0.945c0.03,2.188,0.06,4.379,0.09,6.57C64.687,69.001,63.66,67.124,62.633,65.25z"/>
<path fill="#514E31" d="M81.328,67.772c0,1.053,0.002,2.105,0.002,3.158c-2.093,1.647-4.174,1.892-6.238-0.046C77.17,69.847,79.248,68.809,81.328,67.772z"/>
<path fill="#625F51" d="M75.092,70.884c2.08,0.016,4.159,0.03,6.239,0.046c-2.067,1.004-4.134,2.011-6.201,3.015C75.114,72.922,75.1,71.903,75.092,70.884z"/>
<path fill="#605D4A" d="M81.342,64.625c1.042,0,2.083,0,3.125,0c0,1.04,0,2.084,0,3.125c-1.042,0-2.083,0-3.125,0C81.342,66.706,81.342,65.665,81.342,64.625z"/>
<path fill="#65614E" d="M81.355,52.106c-0.008,1.044-0.018,2.091-0.026,3.134c-1.048,0.003-2.095,0.003-3.145,0.007C79.241,54.2,80.297,53.153,81.355,52.106z"/>
<path fill="#524E31" d="M68.848,74.021c0-1.037,0.005-2.078,0.014-3.118c1.041,1.043,2.082,2.087,3.122,3.131C70.939,74.03,69.894,74.027,68.848,74.021z"/>
<path fill="#504C2F" d="M62.595,77.115c2.088-1.037,4.175-2.075,6.263-3.112c-0.016,1.034-0.035,2.072-0.057,3.109C66.732,77.112,64.662,77.112,62.595,77.115z"/>
<path fill="#807C58" d="M56.379,30.213c-0.013,1.059-0.024,2.118-0.037,3.177l-0.073,0.015c-2.072,1.917-4.126,1.779-6.163-0.058l-0.001,0.024c-1.13-0.671-1.51-1.349-1.142-2.032c0.368-0.687,0.738-1.032,1.115-1.032c0.002-1.053,0.003-2.108,0.005-3.162c1.976,0.101,3.953,0.205,5.927,0.309C56.206,28.367,56.331,29.286,56.379,30.213z"/>
<path fill="#979175" d="M50.078,30.308c-0.011,1.022-0.003,2.042,0.026,3.064c-1.049,0.012-2.097,0.024-3.146,0.037c-1.038-1.077-2.075-2.154-3.113-3.235C45.922,30.219,48,30.262,50.078,30.308z"/>
<path fill="#948E72" d="M25.106,70.841c0.037,1.05,0.073,2.1,0.11,3.152c-2.125-1.059-4.254-2.117-6.383-3.18C20.924,70.822,23.016,70.832,25.106,70.841z"/>
<path fill="#908B75" d="M50.106,33.347c2.056,0.019,4.111,0.04,6.165,0.058c-0.016,1.013-0.016,2.026,0,3.037c0,0-0.917,1.202-0.916,1.206c-0.894,0.567-1.866,0.769-2.913,0.613c-1.042-0.247-1.824-0.845-2.347-1.782C50.098,35.435,50.102,34.391,50.106,33.347z"/>
<path fill="#767146" d="M56.271,36.442c1.066,0.021,2.133,0.04,3.199,0.058c0.826,0.696,1.101,1.392,0.824,2.084c-0.276,0.693-0.551,1.041-0.828,1.041l-0.042-0.08c-1.043,1.147-2.223,1.313-3.54,0.491c-0.801-1.306-0.666-2.511,0.403-3.61L56.271,36.442z"/>
<path fill="#938E74" d="M59.466,39.625c0.001-1.041,0.001-2.084,0.003-3.125c1.042,0,2.083,0,3.123,0c0,1.041,0,2.081,0.002,3.125C61.552,39.625,60.509,39.625,59.466,39.625z"/>
<path fill="#979175" d="M68.926,42.729c-2.115-1.047-4.231-2.097-6.346-3.146c2.101,0.006,4.203,0.012,6.305,0.015C68.899,40.641,68.912,41.685,68.926,42.729z"/>
<path fill="#524F33" d="M59.467,77.125c-1.042,0-2.083,0-3.125,0C57.384,77.125,58.425,77.125,59.467,77.125z"/>
<path fill="#D4CD9F" d="M65.972,58.299c-2.185,1.05-4.368,2.103-6.554,3.152c-1.099-0.938-2.114-1.956-3.058-3.049c-0.006-1.053-0.013-2.103-0.019-3.152c-0.914-0.693-1.216-1.386-0.912-2.078c0.304-0.693,0.607-1.041,0.914-1.041c1.016-0.104,2.03-0.101,3.045,0.016c1.65,1.949,4.747,1.211,6.279,3.381l-0.139-0.195c0.877,0.543,1.236,1.163,1.076,1.861C66.435,57.929,66.224,58.299,65.972,58.299z"/>
<path fill="#C0B98A" d="M43.864,58.378c2.084,0.003,4.169,0.006,6.253,0.009c-0.008,1.038-0.017,2.075-0.028,3.113C48.013,60.459,45.939,59.418,43.864,58.378z"/>
<path fill="#C2BB87" d="M50.098,58.397c1.036-1.05,2.072-2.097,3.108-3.146C52.17,56.3,51.134,57.347,50.098,58.397z"/>
<path fill="#C9C294" d="M56.344,52.131c-0.002,1.041-0.002,2.078-0.002,3.119h-1.563h-1.563c0-1.041,0-2.085,0.003-3.135C54.264,52.115,55.305,52.125,56.344,52.131z"/>
<path fill="#DCD3A6" d="M56.361,58.402c1.02,1.016,2.038,2.032,3.058,3.049l-1.533,0.015l-1.533-0.012C56.348,60.435,56.352,59.418,56.361,58.402z"/>
<path fill="#7B764C" d="M56.287,36.427c0.02,1.071,0.038,2.139,0.058,3.21c2.178,1.52,1.001,4.708,3.118,6.259c-2.093,0.845-4.183,1.691-6.276,2.53c-0.984-0.836-1.967-1.666-2.946-2.499c-0.04-1.044-0.081-2.087-0.122-3.131c2.008-1.608,1.037-4.706,3.131-6.274C54.261,36.497,55.274,36.466,56.287,36.427z"/>
<path fill="#8D876C" d="M59.463,45.896c-1.04-2.084-2.079-4.171-3.118-6.259c1.027-0.009,2.054-0.04,3.079-0.092C59.437,41.664,59.448,43.781,59.463,45.896z"/>
<path fill="#7F7B57" d="M65.668,55.527c-2.092-1.129-4.186-2.255-6.279-3.381C61.483,53.273,63.574,54.401,65.668,55.527z"/>
<path fill="#78754B" d="M65.972,58.299c-0.176-0.986-0.32-1.975-0.44-2.967c1.104-0.03,2.211-0.061,3.318-0.089c-0.021,0.916-0.067,1.831-0.139,2.741C67.819,58.28,66.907,58.387,65.972,58.299z"/>
<path fill="#8C8767" d="M53.249,36.521c-1.044,2.091-2.089,4.184-3.131,6.274c-0.008-2.105-0.016-4.211-0.023-6.317C51.147,36.494,52.198,36.506,53.249,36.521z"/>
</svg>