<?xml version="1.0" encoding="utf-8"?>
<!DOCTYPE svg PUBLIC "-//W3C//DTD SVG 1.1//EN" "http://www.w3.org/Graphics/SVG/1.1/DTD/svg11.dtd">
<svg version="1.1" xmlns="http://www.w3.org/2000/svg" xmlns:xlink="http://www.w3.org/1999/xlink" x="0px" y="0px" width="100px" height="100px" viewBox="0 0 100 100" enable-background="new 0 0 100 100" xml:space="preserve">
<path fill="#5C5351" d="M50.283,95.185c-2.175-0.778-4.349-1.557-6.523-2.335c-1.055-0.586-1.479-1.471-1.282-2.658c0.459-0.998,1.102-1.867,1.915-2.604c1.135-1.095,2.228-2.239,3.09-3.589c0.447-0.982,0.918-1.94,1.341-2.933c0.547-1.617,1.065-3.229,1.632-4.843c0.41-1.156,0.977-2.213,1.669-3.223c1.277-1.456,2.841-2.42,4.729-2.856c1.311-0.003,2.447,0.458,3.438,1.303c1.591,2.164,1.849,4.59,1.429,7.15c-0.371,1.768-0.992,3.467-1.568,5.179c-0.282,1.145-0.661,2.265-1.053,3.379c-0.4,1.113-0.989,2.124-1.728,3.049c-1.445,0.977-2.72,2.176-4.079,3.268C52.33,94.114,51.328,94.687,50.283,95.185z"/>
<path fill="#403633" d="M93.26,70.728c-1.867,2.206-3.735,4.409-5.604,6.616c-0.961-0.528-1.657-1.304-2.136-2.276c-0.38-0.962-0.647-1.966-0.844-2.976c-0.251-0.955-0.513-1.92-0.868-2.848c-0.534-0.849-1.092-1.675-1.763-2.441c-0.749-0.769-1.329-1.633-1.779-2.609c-0.163-1.107-0.058-2.182,0.29-3.244c0.699-1.587,1.701-2.944,2.93-4.159c1.311-1.199,2.797-2.097,4.503-2.615c0.586-0.043,1.172-0.07,1.759-0.106c1.195,0.332,1.966,1.102,2.313,2.288c0.163,1.716,0.157,3.474,1.158,4.996c0.005,2.154,0.008,4.306,0.011,6.457C92.506,68.791,92.552,69.763,93.26,70.728z"/>
<path fill="#534A4A" d="M93.197,24.134c0.041,5.185,0.084,10.37,0.125,15.555c-0.818,0.903-1.803,1.102-2.93,0.711c-1.398-0.824-2.655-1.862-4.025-2.731c-1-0.409-1.985-0.836-3.011-1.199c-1.1-0.29-2.143-0.687-3.18-1.151c-1.042-0.583-1.891-1.361-2.582-2.332c-0.451-1.163-0.473-2.332-0.142-3.528c0.906-1.669,2.216-2.96,3.741-4.059c1.034-0.729,2.141-1.325,3.288-1.855C87.447,22.788,90.487,21.14,93.197,24.134z"/>
<path fill="#7C6F6E" d="M93.197,24.134c-3.076,0.824-6.152,1.648-9.229,2.472c-1.022-0.541-2.094-0.696-3.232-0.403c-1.138,0.29-2.285,0.418-3.465,0.412c-1.215-0.122-2.365-0.445-3.48-0.943c-1.076-0.687-1.827-1.633-2.322-2.805c0.108-1.309,0.619-2.414,1.593-3.305c1.7-1.062,3.548-1.447,5.526-1.257c1.841,0.439,3.675,1.218,5.542,0.085C87.151,20.307,90.173,22.22,93.197,24.134z"/>
<path fill="#51484A" d="M6.789,64.384c0.022-6.14,0.044-12.28,0.067-18.42c0.997-0.723,2.077-0.888,3.247-0.506c1.628,0.769,2.876,1.932,3.65,3.576c0.294,1.123,0.36,2.268,0.247,3.425c-0.156,1.751,0.005,3.516-0.146,5.282c-0.47,2.526-1.576,4.696-3.511,6.418C9.199,64.869,8.015,64.969,6.789,64.384z"/>
<path fill="#786B69" d="M71.873,12.324c3.215,1.749,6.431,3.5,9.646,5.249c-0.893,1.104-2.062,1.617-3.47,1.621c-2.042,0.033-4.084,0.033-6.096,0.485c-2.152,0.58-4.12,0.162-5.953-1.056c-1.018-1.02-1.695-2.228-2.048-3.625c-0.015-1.45,0.347-2.792,1.136-4.016c1.358-0.766,2.64-0.613,3.854,0.323l-0.197,0.287C69.629,12.516,70.679,12.73,71.873,12.324z"/>
<path fill="#AFA4A4" d="M12.316,20.618c2.063-0.979,4.126-1.959,6.189-2.942c1.02-0.836,2.187-1.324,3.498-1.461c1.902-0.009,3.851-0.366,5.621,0.692c0.897,0.956,1.382,2.084,1.396,3.406c-1.141,2.487-3.348,3.647-5.719,4.602c-1.188,0.36-2.411,0.461-3.647,0.348c-1.8-0.339-3.482-1.013-5.064-1.944C13.573,22.642,12.819,21.736,12.316,20.618z"/>
<path fill="#4A4442" d="M84.5,79.636c-0.936,0.415-1.915,0.622-2.938,0.622c-0.542,0.379-1.082,0.754-1.625,1.136c-0.647-0.138-1.294-0.278-1.943-0.415c-0.918-0.998-1.504-2.158-1.719-3.504c-0.004-1.349,0.291-2.64,0.817-3.882c1.027-1.77,2.423-3.14,4.352-3.906c0.653-0.024,1.314-0.039,1.97-0.061c0.574,0.305,1.152,0.616,1.73,0.922c0.533,1.189,0.783,2.45,0.792,3.759C85.903,76.2,86.155,78.175,84.5,79.636z"/>
<path fill="#302A28" d="M93.246,42.674c0.002,3.137,0.003,6.277,0.005,9.418c-1.221,0.931-2.487,1.043-3.814,0.223c-2.793-2.951-7.516-5.176-3.989-10.522c1.264-0.708,2.623-1.017,4.069-0.934C90.952,41.062,92.188,41.688,93.246,42.674z"/>
<path fill="#4B4747" d="M72.028,85.935c-0.912,0.433-1.872,0.635-2.882,0.598c-1.54,1.19-3.312,1.471-5.199,1.318c-1.297-0.21-2.243-0.912-2.895-2.041c-0.415-1.203-0.524-2.436-0.345-3.696c0.427-1.202,1.097-2.252,2.002-3.155c1.784-0.87,3.629-0.968,5.523-0.434c1.803,0.775,3.105,2.081,3.996,3.814C72.614,83.56,72.545,84.76,72.028,85.935z"/>
<path fill="#514A49" d="M28.254,85.767c-3.25-1.831-6.5-3.662-9.75-5.493c0.253-1.267,0.815-2.374,1.728-3.302c0.551-0.321,1.106-0.632,1.66-0.952c1.289-0.211,2.539-0.056,3.758,0.405c1.129,0.635,2.092,1.471,2.928,2.463c0.701,1.096,1.117,2.298,1.308,3.583C29.831,83.808,29.261,84.894,28.254,85.767z"/>
<path fill="#706A6B" d="M9.307,46.308c-0.812-0.149-1.63-0.265-2.451-0.345c-0.011-2.197-0.02-4.391-0.03-6.585c0.557-1.013,1.115-2.023,1.677-3.037c0.503-0.29,1.007-0.577,1.514-0.864c1.201,0.043,2.263,0.434,3.177,1.227c0.691,0.982,1.103,2.069,1.257,3.259c-0.057,0.589-0.124,1.181-0.177,1.773c-0.22,0.552-0.454,1.099-0.673,1.654c-0.688,0.985-1.556,1.782-2.589,2.398C10.445,45.967,9.876,46.137,9.307,46.308z"/>
<path fill="#635C5C" d="M12.278,77.131c-1.027-0.04-2.022-0.244-2.981-0.61c-0.373-0.488-0.745-0.979-1.12-1.468c0.214-0.577,0.432-1.153,0.647-1.733c0.943-0.821,2.017-1.4,3.212-1.767c1.207-0.281,2.434-0.4,3.673-0.403c1.236,0.037,2.444,0.266,3.63,0.613c1.146,0.474,2.126,1.19,2.948,2.118c0.613,1.159,0.505,2.258-0.322,3.283l0.071-0.066c-1.71,1.556-3.821,1.492-5.923,1.462C14.68,78.498,13.401,78.022,12.278,77.131z"/>
<path fill="#7F7372" d="M12.316,20.618c1.15,0.144,2.301,0.284,3.452,0.424c0.627,1.025,0.801,2.112,0.455,3.277c-0.818,1.63-2.064,2.811-3.706,3.595c-1.158,0.33-2.309,0.296-3.449-0.092c-0.705-0.97-1.073-2.06-1.104-3.259c-0.02-1.221,0.422-2.258,1.259-3.137C10.253,21.159,11.285,20.89,12.316,20.618z"/>
<path fill="#827D7C" d="M6.789,64.384c0.865,0.076,1.731,0.125,2.602,0.146c0.503,0.513,1.008,1.025,1.517,1.535c0.574,1.346,0.783,2.75,0.681,4.202c-0.447,1.392-1.212,2.575-2.338,3.516l0.182,0.116c-0.834,0.998-1.749,1.077-2.745,0.241C6.721,70.89,6.756,67.636,6.789,64.384z"/>
<path fill="#7B777B" d="M40.583,5.735c0.952-0.369,1.936-0.586,2.954-0.65c0.508-0.348,1.016-0.693,1.526-1.044c0.607,0.107,1.214,0.214,1.823,0.321c0.831,0.995,1.132,2.139,0.985,3.418c-0.581,1.843-1.683,3.292-3.318,4.33c-1.211,0.382-2.408,0.324-3.583-0.165c-0.979-0.791-1.601-1.816-1.915-3.03C39.153,7.661,39.641,6.587,40.583,5.735z"/>
<path fill="#665352" d="M8.954,27.051c1.248,0.006,2.495,0.009,3.741,0.015c0.314,0.522,0.629,1.044,0.948,1.566c-0.031,0.613-0.064,1.221-0.09,1.837c-0.281,0.546-0.568,1.089-0.846,1.639c-0.792,0.968-1.777,1.682-2.917,2.185c-1.275,0.443-2.298,0.131-3.024-1.038c0.029-2.09,0.06-4.181,0.09-6.268C7.555,27.009,8.256,27.03,8.954,27.051z"/>
<path fill="#A59A9F" d="M68.943,11.304c-1.09,0.04-2.181,0.08-3.271,0.122c-0.901,1.059-2.057,1.639-3.43,1.813c-1.372-0.186-2.549-0.766-3.534-1.74c-0.128-0.668-0.252-1.333-0.378-1.999c0.279-0.623,0.56-1.239,0.841-1.862c1.35-0.571,2.573-0.369,3.668,0.604C64.874,9.263,66.909,10.282,68.943,11.304z"/>
<path fill="#998184" d="M46.848,2.564c2.163-0.003,4.327-0.006,6.491-0.009c0.274,0.668,0.548,1.336,0.822,2.005c-0.459,0.559-0.919,1.117-1.378,1.675c-2.17,0.916-4.173,0.87-5.858-1.013l0.04-0.064c-0.728-0.546-0.987-1.111-0.779-1.697C46.396,2.864,46.616,2.564,46.848,2.564z"/>
<path fill="#B8A9A9" d="M56.299,5.192c1.104,0.149,2.209,0.296,3.315,0.442c0.612,0.656,0.78,1.27,0.505,1.846c-0.265,0.556-0.513,0.833-0.744,0.833l0.068-0.049c-0.898,1.047-2.029,1.667-3.396,1.865c-1.365-0.144-2.561-0.671-3.589-1.581c-0.598-1.361-0.291-2.472,0.917-3.336l-0.183,0.113C54.178,4.124,55.211,4.023,56.299,5.192z"/>
<path fill="#A89692" d="M31.325,11.027c2.123-0.916,4.247-1.828,6.371-2.744c0.266,0.473,0.533,0.946,0.798,1.422c-0.236,1.096-0.769,2.011-1.64,2.726c-1.002,0.491-2.06,0.699-3.175,0.638c-0.51-0.205-1.018-0.412-1.527-0.617C31.874,11.979,31.6,11.503,31.325,11.027z"/>
<path fill="#635957" d="M40.776,91.947c-1.077-0.781-2.153-1.563-3.229-2.344c-0.813-1.129-0.72-2.176,0.278-3.149c1.247-0.442,2.396-0.263,3.451,0.534C42.428,88.773,42.4,90.442,40.776,91.947z"/>
<path fill="#524340" d="M40.776,91.947c-0.035-1.847-0.068-3.689-0.102-5.536c0,0,1.198-0.766,1.199-0.766c1.045-0.059,1.874,0.336,2.492,1.181c0.803,0.968,0.675,1.792-0.383,2.469c-0.073,1.185-0.148,2.371-0.223,3.556C42.765,92.551,41.771,92.249,40.776,91.947z"/>
<path fill="#4B4747" d="M62.617,89.81c-1.101,0.781-2.199,1.563-3.298,2.344c-0.996-0.826-1.487-1.873-1.39-3.177c0.058-1.263,0.481-2.396,1.219-3.418c1.242-0.488,2.332-0.283,3.242,0.718l0.228,0.229c1.09,0.735,1.451,1.471,1.088,2.203C63.344,89.444,62.983,89.81,62.617,89.81z"/>
<path fill="#2B2727" d="M62.617,89.81c-0.002-1.102-0.002-2.206,0-3.305c2.177,0.009,4.353,0.019,6.529,0.027C66.969,87.626,64.792,88.718,62.617,89.81z"/>
<path fill="#272121" d="M59.427,89.573c-0.047,0.86-0.084,1.718-0.108,2.581c-0.847,0.397-1.731,0.653-2.659,0.77c-0.582,0.36-1.164,0.72-1.747,1.086c-0.545-0.415-1.092-0.833-1.636-1.248c1.008-1.064,2.017-2.13,3.025-3.195C57.346,88.047,58.388,87.973,59.427,89.573z"/>
<path fill="#AFAAAA" d="M28.38,17.857c-2.17-0.061-4.339-0.122-6.511-0.18c-0.65-0.549-0.9-1.135-0.752-1.751c0.153-0.635,0.327-0.952,0.522-0.952c1.085-0.144,2.17-0.284,3.253-0.424c0.559-0.412,1.116-0.824,1.672-1.239c0.656,0.213,1.315,0.433,1.973,0.65c0.212,0.659,0.424,1.318,0.638,1.978C28.91,16.575,28.646,17.216,28.38,17.857z"/>
<path fill="#504948" d="M78.328,17.68c1.063-0.037,2.127-0.07,3.19-0.107c0.953,0.009,1.823,0.281,2.61,0.818c-2.032,0.803-4.063,1.605-6.096,2.408c-0.975-0.791-1.254-1.517-0.844-2.179C77.58,17.994,77.959,17.68,78.328,17.68z"/>
<path fill="#343030" d="M93.219,61.353c-0.832-2.063-1.665-4.129-2.496-6.192c0.853-1.287,1.709-1.227,2.566-0.003C93.266,57.224,93.244,59.287,93.219,61.353z"/>
<path fill="#382D2B" d="M84.5,79.636c-0.023-1.896-0.047-3.791-0.07-5.688c1.042-1.432,2.084-1.505,3.125,0c0.033,1.132,0.067,2.264,0.101,3.396C86.605,78.11,85.551,78.873,84.5,79.636z"/>
<path fill="#717171" d="M16.022,77.049c2.003,0.015,4.008,0.033,6.013,0.049c-1.176,1.059-2.354,2.117-3.532,3.177c-1.045,0.063-2.048-0.116-3.004-0.54C14.67,78.644,14.894,77.76,16.022,77.049z"/>
<path fill="#88706F" d="M46.848,2.564c0.061,0.864,0.101,1.73,0.117,2.594c-1.141-0.024-2.284-0.049-3.427-0.073C44.64,4.246,45.745,3.404,46.848,2.564z"/>
<path fill="#6A5F60" d="M56.299,5.192c-1.039-0.016-2.073,0.027-3.108,0.131c-0.017-0.924,0.032-1.852,0.148-2.771C54.327,3.434,55.312,4.313,56.299,5.192z"/>
<path fill="#6A5F60" d="M40.583,5.735c0.017,0.925,0.038,1.85,0.063,2.774c-1.151,1.151-2.124,0.961-2.945-0.387l-0.006,0.162C38.659,7.435,39.621,6.584,40.583,5.735z"/>
<path fill="#9C8381" d="M59.375,8.314c0.025-0.9,0.105-1.794,0.238-2.682c1.074,0.873,2.148,1.742,3.224,2.612C61.686,8.268,60.531,8.289,59.375,8.314z"/>
<path fill="#908589" d="M28.4,14.338c-1.169,0.07-2.338,0.14-3.507,0.21c1.165-0.876,2.33-1.749,3.495-2.625l0.894,1.203L28.4,14.338z"/>
<path fill="#555353" d="M28.4,14.338c-0.084-0.803-0.087-1.608-0.012-2.414c0.967-0.339,1.945-0.638,2.936-0.897c-0.598,0.357-0.681,0.812-0.246,1.358c0.662,0.653,0.893,1.315,0.69,1.987c-0.205,0.677-0.414,1.016-0.63,1.016c-1.218,0.577-2.194,0.269-2.96-0.809L28.4,14.338z"/>
<path fill="#837879" d="M71.873,12.324c-1.042-0.244-2.086-0.488-3.128-0.732C69.787,11.836,70.831,12.08,71.873,12.324z"/>
<path fill="#6A5F60" d="M21.639,14.973c0.213,0.888,0.29,1.792,0.232,2.704c-1.122,0-2.242,0-3.365,0.003C19.55,16.777,20.595,15.873,21.639,14.973z"/>
<path fill="#504B43" d="M9.222,21.427c0,0.903-0.137,1.785-0.415,2.646c-0.658-0.03-1.315-0.064-1.973-0.095C7.63,23.127,8.425,22.279,9.222,21.427z"/>
<path fill="#463E3A" d="M6.833,23.978c0.662-0.003,1.321,0.028,1.976,0.095c0.256,0.983,0.308,1.975,0.148,2.979c-0.702-0.037-1.402-0.058-2.101-0.064C6.308,25.987,6.303,24.986,6.833,23.978z"/>
<path fill="#706A6B" d="M6.766,33.256c0.862,0.08,1.726,0.119,2.591,0.122c0.742,0.684,0.993,1.371,0.757,2.063c-0.238,0.696-0.479,1.044-0.723,1.044l0.078-0.07c-0.859,0.91-1.761,0.958-2.708,0.141C6.763,35.456,6.765,34.354,6.766,33.256z"/>
<path fill="#262221" d="M93.246,42.674c-0.816,0.006-1.631,0.021-2.446,0.042c-0.858-0.647-1.15-1.303-0.877-1.968c0.274-0.665,0.554-1.001,0.836-1.001c0.854-0.104,1.706-0.122,2.563-0.058C93.848,40.696,93.824,41.691,93.246,42.674z"/>
<path fill="#302726" d="M93.26,70.728c-0.334-0.684-0.754-1.343-0.949-2.063c-0.05-0.188,0.594-0.564,0.919-0.854C93.828,68.778,93.838,69.749,93.26,70.728z"/>
<path fill="#4F4647" d="M6.76,36.555c0.9-0.098,1.802-0.144,2.707-0.141c-0.88,0.989-1.761,1.975-2.641,2.963C6.333,38.447,6.311,37.507,6.76,36.555z"/>
<path fill="#3B3832" d="M6.687,74.14c0.9-0.232,1.816-0.314,2.745-0.241c-0.009,0.876-0.055,1.751-0.136,2.621C8.427,75.727,7.557,74.933,6.687,74.14z"/>
<path fill="#3A3130" d="M16.022,77.049c-0.212,0.888-0.386,1.785-0.523,2.686c-1.074-0.867-2.147-1.736-3.221-2.604C13.526,77.103,14.774,77.076,16.022,77.049z"/>
<path fill="#2A2624" d="M78.188,82.795c-1.022,0.198-2.046,0.396-3.068,0.595l-0.981-1.189c-0.029-1.13,0.42-2.018,1.341-2.668c1.036-0.817,1.939-0.689,2.712,0.382l-0.024,0.36c0.73,0.552,0.979,1.11,0.741,1.672C78.67,82.51,78.43,82.795,78.188,82.795z"/>
<path fill="#262221" d="M78.188,82.795c-0.003-0.842-0.009-1.688-0.021-2.523c1.131-0.003,2.262-0.007,3.394-0.013C80.437,81.104,79.312,81.949,78.188,82.795z"/>
<path fill="#3E3835" d="M28.254,85.767c0.035-0.849,0.017-1.697-0.054-2.542c1.018-0.711,2.013-0.647,2.989,0.088c0.252,0.501,0.502,1.004,0.754,1.508c-0.198,0.528-0.398,1.053-0.598,1.578C30.315,86.188,29.285,85.977,28.254,85.767z"/>
<path fill="#2A2624" d="M72.028,85.935c-0.058-0.879-0.079-1.758-0.063-2.637c0.502-0.333,1.003-0.662,1.505-0.998c0.508,0.317,1.018,0.641,1.525,0.961l0.124,0.128C74.087,84.238,73.058,85.087,72.028,85.935z"/>
<path fill="#3E3835" d="M34.449,89.042c-1.035-0.882-2.069-1.761-3.104-2.643l-0.072,0.076c0.861-0.867,1.807-0.974,2.841-0.33c0.589,0.583,0.833,1.209,0.735,1.871C34.751,88.7,34.617,89.042,34.449,89.042z"/>
<path fill="#383230" d="M34.449,89.042c0.011-0.803,0.038-1.603,0.08-2.401c0,0,0.769-1.001,0.767-1.005c0-0.003,1.264-0.045,1.264-0.049c0.001-0.003,0.929,0.858,0.929,0.858c0.02,1.053,0.04,2.105,0.06,3.158C36.515,89.417,35.482,89.228,34.449,89.042z"/>
<path fill="#262322" d="M93.289,55.158l-1.285,0.021c0,0-1.284-0.019-1.283-0.019c0.002,0-0.163,0.027-0.163,0.027c-0.817-1.102-0.781-2.136,0.253-3.088c0.813-0.009,1.627-0.013,2.44-0.009C93.263,53.113,93.277,54.135,93.289,55.158z"/>
<path fill="#282622" d="M50.283,95.185c0.998-0.81,1.994-1.618,2.994-2.424l-0.122-0.098c0.769,0.635,1.01,1.252,0.725,1.85c-0.281,0.586-0.556,0.879-0.825,0.879l-1.416,0.317L50.283,95.185z"/>
<path fill="#5C5351" d="M53.054,95.392c0.156-0.903,0.191-1.813,0.102-2.729c1.166,0.086,2.332,0.171,3.502,0.257C55.458,93.748,54.256,94.568,53.054,95.392z"/>
<path fill="#2C2726" d="M62.788,80.088c-0.076,1.093-0.152,2.188-0.23,3.281c-1.05,1.123-2.225,1.272-3.522,0.451c-0.869-1.251-0.813-2.457,0.169-3.619c0.09-3.146,0.18-6.29,0.271-9.437c0.409-0.384,0.819-0.771,1.227-1.159c1.088-0.354,2.193-0.418,3.312-0.168c1.628,0.763,2.586,2.014,2.764,3.827c-0.195,1.653-0.849,3.137-1.792,4.495C64.27,78.544,63.535,79.322,62.788,80.088z"/>
<path fill="#353030" d="M56.356,70.963c-1.044,1.035-2.088,2.069-3.131,3.104c-1.241,0.732-2.421,0.606-3.55-0.254c-1.289-1.728-1.489-3.589-0.691-5.578c0.927-1.053,2.089-1.517,3.487-1.395c1.267,0.47,2.355,1.202,3.24,2.228C55.928,69.7,56.142,70.332,56.356,70.963z"/>
<path fill="#3D3536" d="M53.177,77.079c-1.018,2.051-2.035,4.099-3.053,6.149c-1.961-0.372-3.189-1.617-4.001-3.36c-0.269-1.232-0.087-2.398,0.533-3.5c1.013-0.751,2.157-1.063,3.41-0.998C51.299,75.577,52.347,76.13,53.177,77.079z"/>
<path fill="#6F6660" d="M46.981,80.21c1.047,1.007,2.095,2.015,3.144,3.019c-0.023,1.071-0.048,2.143-0.07,3.213c-0.528,0.391-1.055,0.781-1.58,1.176c-1.342-0.257-2.357-0.98-3.042-2.164c-0.316-1.294-0.273-2.576,0.18-3.836C46.067,81.147,46.523,80.676,46.981,80.21z"/>
<path fill="#5D5B5B" d="M59.555,83.237c1.001,0.067,2.002,0.11,3.003,0.132c-0.009,0.973-0.063,1.943-0.166,2.911c-0.987,0.063-1.975,0.122-2.963,0.165c-1.044,1.266-2.085,1.263-3.124-0.004c0.006-1.021,0.005-2.041-0.004-3.063C57.336,82.19,58.423,82.197,59.555,83.237z"/>
<path fill="#282524" d="M59.476,70.764c-1.041,0.064-2.081,0.129-3.12,0.195c0,0.003-0.038-0.283-0.038-0.283c-0.599-0.665-0.781-1.318-0.553-1.956c0.228-0.629,0.445-0.943,0.656-0.946c1.112-0.519,2.181-0.442,3.209,0.229c0.812,1.041,0.723,1.996-0.264,2.869L59.476,70.764z"/>
<path fill="#4F4C4C" d="M53.177,77.079l-1.549-0.037l-1.549,0.021c-0.398-0.503-0.796-1.01-1.197-1.514c0.373-0.519,0.752-1.04,1.13-1.563c1.07,0.024,2.14,0.052,3.211,0.076C53.201,75.071,53.185,76.075,53.177,77.079z"/>
<path fill="#4F4C4C" d="M59.555,83.237c-1.085,0.046-2.17,0.095-3.254,0.141c0.969-1.059,1.938-2.118,2.904-3.18C59.329,81.211,59.447,82.224,59.555,83.237z"/>
<path fill="#878381" d="M43.982,89.295c-0.107-0.961-0.137-1.926-0.093-2.893c0.523-0.382,1.047-0.767,1.569-1.153c0.461,0.457,0.923,0.915,1.384,1.373l-0.018-0.184c0.792,0.699,1.055,1.395,0.786,2.091c-0.268,0.695-0.535,1.041-0.8,1.041C45.861,89.539,44.919,89.448,43.982,89.295z"/>
<path fill="#463A38" d="M46.81,89.57c0.004-1.044,0.011-2.088,0.015-3.132c1.076,0,2.152,0.003,3.229,0.003C48.972,87.485,47.89,88.529,46.81,89.57z"/>
<path fill="#353134" d="M56.305,86.441c1.041,0,2.083,0.004,3.125,0.004c0.002,1.043,0.002,2.084-0.001,3.125c-1.043,0-2.083,0-3.125,0C56.302,88.526,56.304,87.482,56.305,86.441z"/>
<path fill="#4F4B4B" d="M90.811,52.1c-0.106,1.028-0.19,2.057-0.251,3.088c-1-0.018-1.999-0.024-2.999-0.024c-0.513-0.237-1.026-0.473-1.544-0.695c-0.938-0.607-1.82-1.294-2.669-2.015c-0.874-0.659-1.688-1.397-2.472-2.166c-0.74-0.788-1.394-1.651-1.997-2.552c-1.004-1.303-2.077-2.551-3.17-3.812c-0.738-0.958-1.107-2.039-1.187-3.244c0.461-1.19,1.227-2.118,2.269-2.854c1.186-0.577,2.414-0.937,3.719-1.089c2.788-0.104,5.446,0.192,7.601,2.225c0.795,1.343,0.614,2.536-0.537,3.58C88.654,45.728,89.733,48.914,90.811,52.1z"/>
<path fill="#373232" d="M81.384,61.491c-0.018,1.05-0.038,2.103-0.058,3.152c1.061,0.888,1.402,1.971,0.906,3.289c-1.015,0.8-2.144,1.377-3.383,1.743c-1.3-0.016-2.518-0.336-3.643-0.995c-0.834-1.028-1.196-2.197-1.023-3.521c0.657-1.88,1.881-3.274,3.646-4.196c0.62-0.116,1.244-0.226,1.866-0.336C80.258,60.911,80.822,61.201,81.384,61.491z"/>
<path fill="#4D4446" d="M87.561,55.164c-1.059,1.074-2.119,2.152-3.178,3.229c-0.62,0.427-1.238,0.852-1.855,1.281c-0.632-0.402-1.266-0.806-1.898-1.208c-0.095-0.739-0.19-1.483-0.287-2.225c0.398-0.629,0.8-1.264,1.196-1.896c2.21-1.053,4.259-0.974,6.058,0.866L87.561,55.164z"/>
<path fill="#3B302F" d="M81.178,58.347c1.068,0.015,2.137,0.03,3.205,0.046c-1,1.031-1.999,2.063-2.999,3.098l-0.071-0.037c-0.713-0.662-0.971-1.343-0.772-2.042C80.741,58.701,80.953,58.347,81.178,58.347z"/>
<path fill="#2A2624" d="M81.367,67.554c-0.031-0.971-0.043-1.941-0.04-2.911c1.001,0.003,2.002-0.003,3.003-0.013c0.431,0.534,0.862,1.065,1.299,1.597c-0.262,0.631-0.525,1.266-0.786,1.897C83.524,68.916,82.371,68.68,81.367,67.554z"/>
<path fill="#373232" d="M84.422,67.676c0.005-1.017-0.025-2.032-0.093-3.046c1.015,1.074,2.029,2.151,3.044,3.226C86.319,68.955,85.335,68.894,84.422,67.676z"/>
<path fill="#2B2828" d="M84.422,67.676c0.987,0.012,1.974,0.07,2.953,0.177c0.038,0.989,0.099,1.972,0.18,2.954c-1.037,1.185-2.08,1.129-3.123,0.009l0.073-0.023c-1.098-0.647-1.476-1.322-1.141-2.015c0.341-0.705,0.688-1.059,1.046-1.059L84.422,67.676z"/>
<path fill="#5B504E" d="M84.432,70.816c1.04,0.004,2.082,0.004,3.123-0.003c0,1.041,0,2.085,0,3.135c-1.041,0-2.083-0.003-3.125,0C84.43,72.904,84.432,71.86,84.432,70.816z"/>
<path fill="#3C3635" d="M87.531,39.518c-3.13,0.003-6.259,0.003-9.391,0.003c-0.578-0.543-0.844-1.145-0.798-1.801c0.048-0.684,0.148-1.025,0.296-1.025c0.661-0.86,1.513-1.438,2.571-1.69c1.604-0.064,3.087-0.439,4.224-1.685c1.074,0.003,2.148,0.006,3.223,0.009C89.294,35.426,89.348,37.491,87.531,39.518z"/>
<path fill="#534F4D" d="M87.531,39.518c0.041-2.063,0.082-4.126,0.125-6.189c1.035,2.136,2.069,4.276,3.104,6.418c-0.032,0.992-0.02,1.98,0.04,2.969c-1.074-0.055-2.15-0.113-3.226-0.171C87.563,41.535,87.549,40.528,87.531,39.518z"/>
<path fill="#4B4441" d="M81.136,27.622c-0.984,0.857-1.971,1.715-2.956,2.573c-1.175,0.76-2.278,0.628-3.32-0.272c-0.233-0.589-0.465-1.178-0.697-1.77c0.185-0.61,0.369-1.217,0.556-1.828c1.183-0.522,2.421-0.751,3.711-0.727c0.632,0.095,1.264,0.189,1.896,0.284C80.596,26.463,80.866,27.042,81.136,27.622z"/>
<path fill="#A1958F" d="M81.223,24.146c0.917,0.821,1.832,1.642,2.746,2.46c-0.953,0.314-1.896,0.653-2.833,1.016l0.27-0.979c-1.107-0.476-1.503-1.004-1.19-1.587C80.542,24.448,80.874,24.146,81.223,24.146z"/>
<path fill="#353030" d="M75.324,30.342c0.951-0.07,1.903-0.119,2.856-0.146c-0.009,1.05-0.019,2.1-0.027,3.149l-1.149,0.845c-1.054-0.006-1.843-0.47-2.368-1.386c-0.001,0.003-0.259-1.4-0.261-1.4C74.374,31.406,75.324,30.342,75.324,30.342z"/>
<path fill="#61605F" d="M84.433,33.32c-1.002,1.031-2.005,2.06-3.007,3.088c-1.142-0.663-1.531-1.34-1.172-2.036c0.362-0.705,0.73-1.056,1.105-1.056C82.384,33.335,83.41,33.335,84.433,33.32z"/>
<path fill="#38312F" d="M81.36,33.317c-0.052,1.032-0.03,2.063,0.064,3.092c-1.094,0.03-2.191,0.061-3.287,0.088c-0.331-0.54-0.66-1.083-0.993-1.624c0.352-0.528,0.707-1.053,1.061-1.581c0,0-0.05,0.052-0.052,0.052C79.222,33.335,80.29,33.326,81.36,33.317z"/>
<path fill="#C0BDBC" d="M78.328,17.68c-0.098,1.041-0.195,2.081-0.295,3.119c-2.069-0.027-4.137-0.055-6.206-0.083c-0.354-0.549-0.706-1.095-1.063-1.645c0.53-0.375,1.065-0.751,1.6-1.126C74.352,17.857,76.34,17.768,78.328,17.68z"/>
<path fill="#BEB0B6" d="M71.828,20.716c0.153,1.138,0.308,2.277,0.46,3.415c-0.487,0.406-0.974,0.809-1.459,1.218c-1.234,0.391-2.482,0.427-3.747,0.171c-1.225-0.549-1.979-1.48-2.271-2.79c0.291-1.275,0.942-2.322,2-3.106c1.923-0.33,3.786-0.406,5.227,1.26L71.828,20.716z"/>
<path fill="#5F5450" d="M72.287,24.131c1.005-0.088,2.014-0.141,3.022-0.156c0.893,0.824,1.139,1.581,0.741,2.271c-0.377,0.656-0.736,0.983-1.08,0.983l0.211-0.177c-1.071,1.102-2.276,1.333-3.637,0.552c-0.879-1.233-0.938-2.505-0.178-3.814L72.287,24.131z"/>
<path fill="#A5A1A1" d="M74.971,27.229c0.111-1.083,0.225-2.17,0.337-3.253c0.965,0.043,1.926,0.095,2.888,0.153c0.814,0.558,1.086,1.117,0.817,1.675c-0.27,0.562-0.54,0.842-0.813,0.842C77.122,26.841,76.047,27.036,74.971,27.229z"/>
<path fill="#AFA59F" d="M78.2,26.646c-0.015-0.842-0.017-1.685-0.004-2.524c1.01-0.186,2.021-0.183,3.028,0.019c0.046,0.842,0.107,1.678,0.182,2.508C80.337,26.643,79.268,26.646,78.2,26.646z"/>
<path fill="#827D7C" d="M9.391,64.53c1.152-3.019,2.305-6.036,3.459-9.055c1.237-0.698,2.421-0.613,3.558,0.244c1.877,2.186,2.239,4.773,2.046,7.522c-0.201,1.34-0.647,2.601-1.302,3.787c-0.911,1.06-2.06,1.6-3.468,1.542c-1.979-0.748-3.004-2.519-4.275-4.028L9.391,64.53z"/>
<path fill="#665F61" d="M12.493,48.932c-1.062-0.879-2.124-1.755-3.186-2.627c0,0.003,0.18-0.58,0.18-0.58c0.949-0.815,1.809-1.715,2.578-2.701l0.796-0.504c1.054-0.952,2.249-1.132,3.57-0.659c1.756,1.065,3.004,2.57,3.839,4.434c0.384,1.285,0.496,2.594,0.317,3.925c-0.427,1.285-1.229,2.279-2.387,2.984c-0.651,0.034-1.309,0.067-1.962,0.101c-0.533-0.372-1.07-0.747-1.605-1.12C14.037,51.026,13.318,49.946,12.493,48.932z"/>
<path fill="#3B3635" d="M15.586,54.997c-0.916,0.14-1.83,0.299-2.737,0.476c-0.647-0.524-1.294-1.05-2.117-1.715c0.895-0.794,1.512-1.34,2.13-1.886c1.094-0.879,2.037-0.696,2.849,0.405l-0.259-0.112c0.467,0.448,0.934,0.899,1.401,1.352C16.43,54.01,16.009,54.502,15.586,54.997z"/>
<path fill="#8D8684" d="M15.711,52.277c-0.952-0.116-1.903-0.25-2.85-0.405c-0.174-0.974-0.298-1.953-0.368-2.939C13.566,50.047,14.638,51.16,15.711,52.277z"/>
<path fill="#837879" d="M72.037,20.884c-2.102-0.006-4.203-0.012-6.304-0.018c0,0-0.927-0.91-0.928-0.91c-0.003,0-0.029-1.3-0.03-1.303c-0.004,0,0.855-0.979,0.855-0.979c2.241,0.088,4.484,0.177,6.729,0.269C71.906,18.885,71.796,19.868,72.037,20.884z"/>
<path fill="#837879" d="M62.563,11.448c1.036-0.018,2.073-0.024,3.109-0.021c-0.068,1.09-0.136,2.182-0.202,3.275c-1.092,0.604-2.126,0.552-3.098-0.266C61.622,13.389,61.687,12.391,62.563,11.448z"/>
<path fill="#87898E" d="M62.329,14.426c1.05,0.088,2.1,0.18,3.145,0.271c0.057,0.992,0.111,1.984,0.157,2.976l0.057-0.061c-1.478,0.617-2.659,0.223-3.587-1.047C62.177,15.855,62.253,15.141,62.329,14.426z"/>
<path fill="#716666" d="M18.735,24.046c1.088-0.027,2.174-0.058,3.262-0.088c1.131-1.154,2.377-1.297,3.742-0.427c1.286,1.959,1.437,4.059,0.781,6.265c-0.868,2.078-2.248,3.735-4.134,4.974c-1.999,1.017-4.118,1.367-6.343,1.102c-1.409-0.37-2.684-1.017-3.829-1.926c-0.856-1.346-0.731-2.597,0.372-3.75l-0.032-0.009c0.754-0.705,1.275-1.55,1.564-2.539c-0.001-0.003,0.862-1.239,0.859-1.242c0.647-0.793,1.413-1.446,2.292-1.965C17.269,24.436,18.735,24.046,18.735,24.046z"/>
<path fill="#625555" d="M25.232,24.165c-1.079-0.067-2.158-0.138-3.235-0.208c1.993-1.059,3.987-2.121,5.981-3.183c0.842-1.132,1.897-1.389,3.168-0.772c0.581,0.705,0.86,1.461,0.839,2.271c-0.021,0.83-0.106,1.245-0.254,1.248c-0.816,1.019-1.843,1.718-3.111,2.048C27.302,25.559,26.163,25.114,25.232,24.165z"/>
<path fill="#4B4744" d="M31.487,20.936c-1.169-0.055-2.338-0.11-3.508-0.162c0.127-0.974,0.259-1.947,0.401-2.92c0,0.003-0.049,0.058-0.049,0.058c1.297-1.917,3.084-1.819,4.994-1.224c0.981,0.885,1.425,1.993,1.333,3.311C33.841,21.119,32.784,21.43,31.487,20.936z"/>
<path fill="#6A6267" d="M15.58,24.238c0.063-1.065,0.125-2.133,0.188-3.195c0.989,1.001,1.978,2.002,2.968,3.003l0.116-0.156c-0.51,0.4-1.02,0.796-1.528,1.199C16.743,24.808,16.161,24.522,15.58,24.238z"/>
<path fill="#555353" d="M84.411,67.719c0.004,1.025,0.035,2.051,0.095,3.076c-1.077,0.024-2.155,0.049-3.233,0.073c-1.046,0.833-2.085,0.823-3.119-0.024c-0.825-1.065-0.763-2.112,0.067-3.144c1.048-0.049,2.097-0.095,3.145-0.144C82.378,67.661,83.393,67.717,84.411,67.719z"/>
<path fill="#443F3F" d="M78.069,70.774c1.068,0.03,2.137,0.063,3.203,0.095c-1.03,1.028-2.062,2.06-3.093,3.088l-0.921-0.909c-0.001,0-0.036-1.294-0.038-1.294L78.069,70.774z"/>
<path fill="#423E3C" d="M78.179,73.957c-0.007,1.034-0.005,2.066,0.003,3.101c-1.136,0.846-2.215,0.738-3.247-0.195c-0.637-1.193-0.58-2.371,0.066-3.54c1.245-0.689,2.308-0.476,3.189,0.638L78.179,73.957z"/>
<path fill="#595657" d="M75.036,77.094c1.049-0.013,2.097-0.024,3.146-0.037c-0.01,0.955-0.007,1.91,0.007,2.859c-1.053,0.086-2.106,0.171-3.159,0.26c0,0-0.867-0.913-0.87-0.913c-0.002,0.004,0.008-1.26,0.005-1.26C74.162,78.004,75.036,77.094,75.036,77.094z"/>
<path fill="#5A5655" d="M62.788,80.088c-0.195-0.982-0.263-1.972-0.204-2.969c2.363-1.816,5.01-2.427,7.935-1.868c1.352,0.629,2.235,1.657,2.653,3.089c-0.209,0.687-0.418,1.373-0.629,2.06c-0.603,0.391-1.204,0.781-1.808,1.175c-0.582-0.424-1.163-0.849-1.743-1.272C66.925,80.231,64.856,80.161,62.788,80.088z"/>
<path fill="#2A2624" d="M68.993,80.301c0.99-0.082,1.982-0.125,2.976-0.131c0.889,0.741,1.167,1.465,0.843,2.169c-0.32,0.696-0.634,1.044-0.943,1.044l0.098-0.085C70.975,82.301,69.983,81.302,68.993,80.301z"/>
<path fill="#6F6F6F" d="M21.964,77.164c-0.011-1.059-0.021-2.117-0.032-3.18l1.183-0.781c1.054-0.033,1.851,0.406,2.393,1.313c0.001-0.003,0.299,1.389,0.3,1.389s-0.793,1.178-0.793,1.178C23.998,77.143,22.982,77.171,21.964,77.164z"/>
<path fill="#7F7A7D" d="M28.28,80.164c-1.088-1.028-2.176-2.054-3.264-3.082c-0.001,0,0.047,0.04,0.047,0.04c0.966-0.83,1.962-0.87,2.992-0.122c0.263,0.513,0.523,1.022,0.786,1.535C28.653,79.078,28.466,79.621,28.28,80.164z"/>
<path fill="#8A8989" d="M31.365,83.234c-1.055-0.003-2.11-0.006-3.165-0.009c0.104-1.02,0.13-2.039,0.078-3.062c0.001,0-0.055,0.104-0.055,0.104c0.943-0.81,1.917-0.846,2.92-0.113c0.263,0.494,0.523,0.992,0.786,1.489C31.742,82.173,31.554,82.703,31.365,83.234z"/>
<path fill="#564C4D" d="M12.587,30.195c-0.01,1.041-0.021,2.084-0.032,3.125c0.407,0.531,0.815,1.062,1.222,1.593c-0.365,0.559-0.729,1.12-1.096,1.682c-1.097-0.037-2.194-0.073-3.291-0.11c0.032-1.035,0.022-2.072-0.032-3.107C10.434,32.316,11.51,31.254,12.587,30.195z"/>
<path fill="#3B3635" d="M15.584,42.564l-1.367,0.091c0,0-1.364-0.131-1.361-0.134c-0.16-0.879-0.251-1.764-0.27-2.655c0.774-1.108,1.71-1.27,2.813-0.491C16.138,40.397,16.236,41.459,15.584,42.564z"/>
<path fill="#8D8A8A" d="M15.7,39.671c-1.038,0.064-2.075,0.128-3.114,0.195c0.032-1.093,0.063-2.182,0.096-3.274c0,0.003-0.131-0.159-0.131-0.159c0.533-0.439,1.065-0.882,1.595-1.328c0.644,0.244,1.29,0.491,1.933,0.735c0.185,0.662,0.373,1.328,0.559,1.99C16.325,38.441,16.013,39.057,15.7,39.671z"/>
<path fill="#8D8287" d="M12.064,43.025c-0.859,0.9-1.718,1.8-2.578,2.701C10.346,44.825,11.205,43.925,12.064,43.025z"/>
<path fill="#817D7E" d="M18.824,73.585c-1.088-0.086-2.176-0.171-3.264-0.254c-0.949-0.732-1.497-1.69-1.648-2.877c0.182-1.188,0.777-2.112,1.782-2.769l0.032-0.033c0.909-1.09,2.014-1.291,3.29-0.724c0.876,0.974,1.412,2.1,1.564,3.406C20.426,71.65,19.838,72.733,18.824,73.585z"/>
<path fill="#5D5352" d="M9.25,73.783c0.015-0.979,0.092-1.953,0.229-2.924c0.97-1.205,2.125-1.36,3.445-0.604c0.949,1.217,0.879,2.413-0.064,3.598C11.658,73.829,10.454,73.807,9.25,73.783z"/>
<path fill="#888584" d="M12.861,73.853c-0.202-1.001-0.308-2.015-0.322-3.033c1.062-1.294,2.112-1.353,3.146,0.03c-0.018,0.833-0.06,1.66-0.125,2.484C14.68,73.603,13.779,73.777,12.861,73.853z"/>
<path fill="#847E7D" d="M18.824,73.585c0.044-1.044,0.089-2.085,0.133-3.128c1.163-0.787,2.316-0.772,3.462,0.036c0.641,1.248,0.508,2.378-0.523,3.369l0.036,0.122C20.896,73.85,19.86,73.716,18.824,73.585z"/>
<path fill="#4E4241" d="M12.696,27.067c0.961-0.943,1.923-1.889,2.884-2.832c0,0.003,0.032-0.302,0.032-0.302c0.696,0.57,1,1.202,0.911,1.898c-0.095,0.729-0.238,1.093-0.43,1.093l-0.974,0.03c-0.719,0.04-1.439,0.076-2.159,0.116L12.696,27.067z"/>
<path fill="#6E6866" d="M15.685,70.85c-1.048-0.009-2.098-0.021-3.146-0.03c-1.021,0.012-2.042,0.024-3.061,0.039c-0.021-2.105-0.044-4.211-0.067-6.316c2.094,1.046,4.188,2.096,6.284,3.143C15.691,68.742,15.688,69.798,15.685,70.85z"/>
<path fill="#A39698" d="M40.531,11.375c1.167-0.037,2.333-0.073,3.499-0.11c0.623-0.357,1.244-0.711,1.868-1.065c0.687,0.213,1.372,0.427,2.061,0.638c1.122,0.943,1.969,2.087,2.549,3.433c0.27,1.486-0.051,2.835-0.952,4.047c-2.608,1.98-5.341,1.987-8.17,0.519c-1.132-0.955-1.883-2.161-2.31-3.573c0.043-0.72,0.09-1.444,0.136-2.167C39.65,12.522,40.091,11.948,40.531,11.375z"/>
<path fill="#6A5F60" d="M53.375,5.213c-0.146,1.004-0.308,2.008-0.483,3.009c-1.215,1.602-2.816,1.965-4.689,1.471c-0.448-0.384-0.898-0.772-1.347-1.16c0.023-1.104,0.046-2.209,0.07-3.314C49.076,5.219,51.226,5.217,53.375,5.213z"/>
<path fill="#BEB0B6" d="M37.7,8.122c0.983,0.128,1.964,0.256,2.947,0.387c-0.005,0.958-0.043,1.914-0.115,2.866c-0.001,0,0.104-0.091,0.104-0.091c-0.485,0.439-0.969,0.879-1.454,1.321c-0.534-0.375-1.07-0.754-1.605-1.132C37.618,10.356,37.659,9.239,37.7,8.122z"/>
<path fill="#504947" d="M46.982,11.472c-0.986-0.061-1.97-0.131-2.954-0.208c0.943-0.913,1.884-1.825,2.826-2.734c0.001,0.003-0.007-0.244-0.007-0.244c0.853,0.674,1.158,1.37,0.914,2.09C47.513,11.109,47.254,11.472,46.982,11.472z"/>
<path fill="#4F4647" d="M12.96,27.07c0.725,0,1.448-0.04,2.164-0.116c-0.859,1.077-1.713,2.155-2.568,3.232C12.691,29.145,12.826,28.108,12.96,27.07z"/>
<path fill="#8B7C7E" d="M50.12,17.676c-0.09-0.912-0.195-1.822-0.313-2.731c0.087-0.553,0.174-1.102,0.259-1.654c0.452-1.041,1.152-1.883,2.062-2.557c1.433-0.83,3.1-1.212,4.403-2.295c0.973-0.028,1.944-0.083,2.913-0.174c0.062,1.105,0.122,2.213,0.184,3.32c0.733,0.702,1.067,1.474,1.001,2.313c-0.069,0.87-0.202,1.306-0.394,1.306c-1.019,1.886-2.57,3.149-4.54,3.94c-1.351,0.317-2.694,0.25-4.026-0.131C51.153,18.571,50.637,18.122,50.12,17.676z"/>
<path fill="#BEB0B6" d="M59.787,14.179c-0.171-0.857-0.226-1.724-0.162-2.597c0.979-0.088,1.958-0.134,2.938-0.134c0.027,1.001-0.049,1.996-0.23,2.979c-0.003,0,0.169,0.003,0.169,0.003C61.496,15.446,60.587,15.415,59.787,14.179z"/>
<path fill="#B1A5A8" d="M56.531,8.439c-1.257,1.135-2.513,2.271-3.769,3.409c-0.87,0.714-1.874,1.038-2.994,1.022c-1.072-0.266-2.019-0.772-2.839-1.514c0,0,0.052,0.116,0.054,0.116c-0.046-1.062-0.09-2.121-0.136-3.183c2.015-0.021,4.031-0.042,6.046-0.067C54.105,8.296,55.318,8.366,56.531,8.439z"/>
<path fill="#6A5F60" d="M31.215,14.185c0.02-0.607-0.026-1.208-0.137-1.803c1.054-0.302,2.11-0.61,3.165-0.919c0.687,0.671,0.931,1.355,0.732,2.057c-0.2,0.705-0.409,1.059-0.628,1.059C33.193,15.324,32.149,15.193,31.215,14.185z"/>
<path fill="#BEB5B3" d="M34.624,14.655c-0.127-1.065-0.253-2.127-0.38-3.192c1.111,0.003,2.222,0.006,3.333,0.009l-0.056-0.064c0.445,0.506,0.89,1.01,1.339,1.514c-0.192,0.644-0.391,1.288-0.584,1.932c-0.623,0.247-1.249,0.495-1.871,0.742C35.811,15.281,35.218,14.967,34.624,14.655z"/>
<path fill="#46403E" d="M40.674,86.411c-1.062,0.013-2.123,0.021-3.186,0.034l0.072,0.066c-1.178-2.64,0.278-3.231,2.505-3.229c0.804,0.583,1.158,1.251,1.062,2.002c-0.101,0.79-0.261,1.185-0.48,1.185L40.674,86.411z"/>
<path fill="#847573" d="M40.647,86.469c0.049-1.074,0.098-2.152,0.148-3.227c0.444-0.308,0.89-0.616,1.336-0.928c1.151-0.045,2.062,0.397,2.734,1.334c0.085,1.139-0.256,2.115-1.086,2.908c0,0,0.108-0.152,0.11-0.152C42.809,86.426,41.727,86.448,40.647,86.469z"/>
<path fill="#A3A3A3" d="M31.215,14.185c1.135,0.156,2.271,0.312,3.407,0.467c0.002,0.003-0.198-0.098-0.198-0.098c0.411,0.464,0.821,0.924,1.234,1.385c-0.386,0.482-0.775,0.964-1.166,1.443c-2.054,0.177-4.109,0.351-6.162,0.525c-0.052-1.107-0.102-2.218-0.154-3.329C29.207,14.592,30.221,14.46,31.215,14.185z"/>
<path fill="#5F5E5E" d="M71.868,83.384c0.033-1.071,0.067-2.143,0.101-3.213l-0.037,0.027c1.04-1.472,2.081-1.472,3.122,0l-0.024-0.021c0.012,1.028,0.001,2.057-0.034,3.085C73.953,83.301,72.91,83.341,71.868,83.384z"/>
<path fill="#817F80" d="M34.528,86.64c-1.085-0.056-2.17-0.11-3.255-0.165c0.031-1.08,0.061-2.161,0.092-3.241l-0.142,0.092c1.043-1.05,2.225-1.185,3.526-0.525c0.877,1.255,0.748,2.335-0.553,3.214L34.528,86.64z"/>
<path fill="#6F6766" d="M34.197,86.014c0.11-0.888,0.187-1.782,0.232-2.677c-0.989-0.787-1.532-1.81-1.636-3.069c0.099-1.264,0.616-2.332,1.495-3.238c1.134-0.604,2.325-0.732,3.575-0.464c1.796,0.738,3.18,1.926,4.027,3.695c0.265,1.313-0.15,2.362-1.239,3.144l0.142-0.162c-1.077,1.09-2.155,2.18-3.233,3.269C36.438,86.347,35.317,86.179,34.197,86.014z"/>
<path fill="#2B2A29" d="M65.661,73.77c-1.069-0.997-2.141-1.995-3.211-2.993c-0.72-1.202-0.616-2.359,0.197-3.485c1.058-0.812,2.237-1.315,3.565-1.479c1.351,0.061,2.616,0.415,3.813,1.043c1.102,0.797,1.99,1.792,2.718,2.937c0.163,0.652,0.314,1.309,0.472,1.965c-0.363,1.324-1.088,2.401-2.219,3.198C69.025,75.44,67.085,75.766,65.661,73.77z"/>
<path fill="#3D3B39" d="M65.661,73.77c1.994,0.053,3.988,0.104,5.982,0.159c0.479,0.485,0.957,0.971,1.437,1.456c-0.379,0.567-0.757,1.132-1.137,1.699c-3.119,0.013-6.238,0.021-9.358,0.03C63.61,76.002,64.635,74.885,65.661,73.77z"/>
<path fill="#515152" d="M62.508,67.701c0.068,1.028,0.049,2.054-0.057,3.076c-1.03,0.006-2.057,0.039-3.085,0.095c0.033-1.09,0.066-2.183,0.101-3.271c0,0,0.938-0.8,0.937-0.803c0-0.003,1.236,0.027,1.236,0.024C61.641,66.819,62.508,67.701,62.508,67.701z"/>
<path fill="#4F4C4C" d="M50.087,67.796c-0.024,2.063-0.051,4.129-0.075,6.191l0.063-0.061c-0.802,0.86-1.776,1.386-2.955,1.52c-1.195,0.076-2.245-0.274-3.157-1.053c-0.684-0.977-1.004-2.063-0.984-3.256c0.246-1.755,0.842-3.396,1.671-4.959c0.615-1.02,1.446-1.822,2.472-2.421c1.205-0.128,2.268,0.227,3.201,0.989C51.01,65.821,50.931,66.838,50.087,67.796z"/>
<path fill="#534F4F" d="M50.087,67.796c-0.014-1.08-0.027-2.161-0.041-3.241c0.434-0.312,0.865-0.622,1.299-0.934c1.121-0.013,2.03,0.418,2.732,1.297c0.064,0.531,0.127,1.062,0.189,1.596c-0.379,0.376-0.76,0.754-1.14,1.133C52.112,67.671,51.099,67.719,50.087,67.796z"/>
<path fill="#2B2A2A" d="M56.34,67.622c-0.014,1.019-0.021,2.038-0.022,3.058c-1.063-1.014-2.127-2.023-3.19-3.033l0.052,0.049c0.517-0.406,1.036-0.809,1.553-1.212C55.268,66.862,55.803,67.243,56.34,67.622z"/>
<path fill="#8D8A8A" d="M43.848,74.054c0.978-0.076,1.958-0.104,2.939-0.085c0.889,0.527,1.282,1.159,1.176,1.895c-0.113,0.787-0.288,1.182-0.531,1.182c-0.151,1.056-0.302,2.108-0.453,3.161c0.002,0.003-0.129-0.204-0.129-0.204c-0.407,0.527-0.815,1.056-1.221,1.587c-0.636-0.195-1.272-0.394-1.911-0.593c-0.896-1.016-1.471-2.185-1.68-3.53c0.151-0.647,0.304-1.297,0.456-1.944C42.945,75.034,43.396,74.543,43.848,74.054z"/>
<path fill="#383432" d="M47.432,77.046c-0.213-1.025-0.427-2.051-0.642-3.076c1.092-0.016,2.188-0.028,3.286-0.043c0.001,1.044,0.003,2.09,0.004,3.137C49.198,77.063,48.314,77.06,47.432,77.046z"/>
<path fill="#5C5351" d="M43.903,80.088c0.985,0.083,1.968,0.055,2.948-0.082c-0.003,2.203-0.006,4.406-0.009,6.613c0,0.003-1.529-0.113-1.529-0.113s-1.534,0.049-1.534,0.052c0.009-1.102,0.02-2.2,0.029-3.299c-0.986-0.735-1.3-1.449-0.945-2.146C43.215,80.429,43.559,80.088,43.903,80.088z"/>
<path fill="#605C5B" d="M59.467,67.6c-1.042,0.009-2.085,0.015-3.128,0.021c0.001,0-0.028,0.066-0.028,0.066c-0.79-0.604-1.154-1.297-1.092-2.078c0.065-0.827,0.204-1.238,0.408-1.235c1.223-0.577,2.438-0.577,3.632,0.088c0.684,0.715,0.92,1.44,0.707,2.173c-0.216,0.735-0.434,1.105-0.658,1.105L59.467,67.6z"/>
<path fill="#3F3A39" d="M75.058,42.695c1.05,0.009,2.099,0.021,3.148,0.03c0.823,0.925,1.309,2.002,1.458,3.235c-0.18,2.451,1.119,4.789,0.551,7.272c-0.551,1.147-1.328,2.103-2.374,2.839c-1.311,0.033-2.482-0.333-3.511-1.157c-0.824-1.016-1.41-2.151-1.788-3.402c-0.271-1.282-0.353-2.576-0.268-3.882c0.2-1.304,0.627-2.527,1.283-3.671C74.054,43.534,74.556,43.113,75.058,42.695z"/>
<path fill="#353131" d="M87.596,55.213c-2.103,0.007-4.203,0.01-6.307,0.016c-0.975-0.744-1.352-1.703-1.035-2.908c0.869-1.603,2.697-1.986,3.95-3.106C85.335,51.213,86.465,53.215,87.596,55.213z"/>
<path fill="#484342" d="M81.38,51.984c-0.029,1.084-0.06,2.164-0.091,3.244l0.034-0.043c-1.038,1.108-2.085,1.117-3.139,0.024c-0.003-3.101-0.005-6.198-0.008-9.298c0.887-1.013,1.861-1.16,2.94-0.305c0.079,1.181,0.158,2.362,0.239,3.543c0.836,0.626,1.119,1.251,0.847,1.883C81.932,51.667,81.658,51.984,81.38,51.984z"/>
<path fill="#312D29" d="M81.118,45.606c-0.976,0.152-1.955,0.25-2.94,0.302c0.009-1.059,0.02-2.121,0.029-3.183C79.176,43.687,80.147,44.645,81.118,45.606z"/>
<path fill="#353030" d="M75.047,39.5c0.003,1.065,0.008,2.13,0.011,3.195h-0.003c-0.833,1.092-1.86,1.324-3.081,0.696c-0.735-1.09-0.779-2.228-0.233-3.406c0.513-0.333,1.027-0.666,1.541-1.001C73.87,39.155,74.458,39.329,75.047,39.5z"/>
<path fill="#282524" d="M78.137,36.497c0.04,1.01,0.042,2.017,0.005,3.027c-0.002-0.003-1.549,0.04-1.549,0.04s-1.546-0.061-1.546-0.064l0.052,0.085c-0.776-1.035-0.825-2.078-0.038-3.137c1.027-0.842,2.064-0.815,3.108-0.031L78.137,36.497z"/>
<path fill="#262321" d="M81.38,51.984c-0.06-0.942-0.067-1.892-0.024-2.835c0.952-0.036,1.904-0.016,2.852,0.062C83.263,50.138,82.322,51.062,81.38,51.984z"/>
<path fill="#4C4545" d="M75.011,64.597c0.063,1.064,0.128,2.127,0.192,3.188c0.819,0.724,1.132,1.483,0.938,2.283c-0.199,0.817-0.423,1.227-0.669,1.227c-1.303,0.867-2.463,0.702-3.476-0.491l-0.166,0.07c-0.791-1.001-1.267-2.137-1.434-3.402c-0.102-1.304,0.284-2.438,1.157-3.412c0.61-0.141,1.224-0.281,1.835-0.421C73.929,63.957,74.471,64.277,75.011,64.597z"/>
<path fill="#605F5F" d="M81.178,58.347c0.081,1.034,0.126,2.069,0.135,3.106c-1.007-0.046-2.013-0.095-3.019-0.149c-0.334-0.586-0.668-1.169-1.001-1.755c0.198-0.646,0.397-1.291,0.597-1.938c0.645-0.208,1.288-0.415,1.934-0.623c0.491,0.464,0.979,0.934,1.47,1.404L81.178,58.347z"/>
<path fill="#423E3D" d="M78.294,61.304c-1.096,1.099-2.189,2.194-3.283,3.293l0.044-0.027c-0.831-1.074-0.833-2.151-0.003-3.229c1.091-0.839,2.162-0.771,3.214,0.077L78.294,61.304z"/>
<path fill="#2A2624" d="M75.214,70.725c-0.07-0.979-0.077-1.959-0.013-2.939c1.006-0.045,2.011-0.076,3.017-0.085c-0.033,1.025-0.084,2.051-0.149,3.073l0.067-0.083C77.178,72.058,76.204,72.071,75.214,70.725z"/>
<path fill="#353030" d="M81.293,58.393l-1.549-0.034l-1.548,0.056c-0.688-0.715-0.917-1.429-0.689-2.146c0.226-0.718,0.455-1.074,0.684-1.074l-0.006,0.015c1.045-0.006,2.092-0.015,3.139-0.024C81.313,56.254,81.302,57.325,81.293,58.393z"/>
<path fill="#888688" d="M71.911,27.067c1.091-0.003,2.181-0.009,3.271-0.015c0.047,1.096,0.093,2.194,0.141,3.29c0.001,0-0.537-0.309-0.537-0.309c-1.667,2.112-3.591,1.786-5.611,0.595c-0.942-1.19-1.237-2.521-0.888-3.998C69.629,25.672,70.837,25.822,71.911,27.067z"/>
<path fill="#726F74" d="M68.615,30.079c2.059-0.015,4.115-0.027,6.172-0.042c0.058,1.086,0.119,2.176,0.179,3.265c-0.534,0.446-1.068,0.894-1.601,1.343c-1.416,0.189-2.747-0.07-3.99-0.772c-0.385-0.58-0.77-1.16-1.153-1.743C68.352,31.446,68.483,30.762,68.615,30.079z"/>
<path fill="#595657" d="M78.169,36.417c-1.044,0.003-2.089,0.006-3.134,0.009c-0.396-0.546-0.794-1.092-1.195-1.636c0.401-0.543,0.806-1.083,1.21-1.624L74.966,33.3c1.078-0.003,2.158-0.006,3.238-0.009C78.188,34.333,78.175,35.377,78.169,36.417z"/>
<path fill="#5B5453" d="M69.12,26.801c-0.166,1.092-0.334,2.185-0.504,3.277c-0.001,0,0.16-0.037,0.16-0.037c-0.755,1.126-1.791,1.639-3.158,1.459c-1.909-0.51-3.584-1.459-5.113-2.695c-0.95-0.94-1.611-2.048-1.959-3.339c0.165-1.373,0.827-2.414,2.063-3.07c2.04-0.613,3.861-0.119,5.531,1.111c0.896,0.213,1.803,0.354,2.721,0.421c0.813,0.571,1.122,1.184,0.93,1.847C69.588,26.46,69.367,26.801,69.12,26.801z"/>
<path fill="#827777" d="M66.139,23.509c-2.182,0.156-4.365,0.311-6.547,0.47c-1.209,0.772-2.354,0.69-3.441-0.253c-0.646-1.208-0.739-2.448-0.19-3.72c1.091-0.775,2.3-1.267,3.61-1.523c2.019,0.116,3.866,0.757,5.564,1.847l0.599,0.537C65.715,21.772,65.85,22.651,66.139,23.509z"/>
<path fill="#C0BEBF" d="M69.12,26.801c-0.148-0.952-0.233-1.908-0.26-2.872c0.844,0.046,1.682,0,2.512-0.14c0.178,1.092,0.357,2.185,0.539,3.277C70.972,27.07,70.041,26.981,69.12,26.801z"/>
<path fill="#68605F" d="M16.129,64.817c-0.18-3.274-0.362-6.546-0.543-9.82l-0.111,0.198c1.18-0.998,2.103-2.271,3.38-3.165l-0.092,0.076c0.809-1.107,1.891-1.465,3.217-1.175c1.796,0.909,2.963,2.362,3.671,4.221c0.235,1.3,0.069,2.551-0.47,3.757c-0.67,1.11-1.474,2.121-2.37,3.063C20.92,63.697,19.141,65.723,16.129,64.817z"/>
<path fill="#4A3F3D" d="M16.129,64.817c1.854-2.161,3.706-4.318,5.559-6.476c2.492,1.932,4.632,4.062,4.333,7.586c-1.736,3.345-4.045,4.4-7.257,1.798l-1.518-0.089l-1.521,0.016C15.77,66.694,15.905,65.748,16.129,64.817z"/>
<path fill="#726968" d="M15.584,42.564c0.049-0.964,0.087-1.929,0.116-2.893l-0.19-0.327c0.874-0.86,1.909-1.397,3.132-1.565c1.219,0.162,2.315,0.613,3.275,1.389c0.718,1.022,1.059,2.151,0.973,3.402c-0.487,1.142-1.217,2.091-2.217,2.832c-0.583,0.177-1.169,0.351-1.755,0.525C17.807,44.807,16.697,43.687,15.584,42.564z"/>
<path fill="#7F7B7F" d="M21.822,51.932c-1.02,0.052-2.039,0.11-3.06,0.174c0.052-2.06,0.103-4.12,0.156-6.18l-0.14-0.067c1.239-1.199,2.521-1.248,3.848-0.153C23.731,47.956,23.624,50.052,21.822,51.932z"/>
<path fill="#807B79" d="M18.854,52.03c-1.126,1.053-2.252,2.108-3.38,3.162c0.122-1.011,0.114-2.021-0.023-3.027C16.585,52.119,17.719,52.076,18.854,52.03z"/>
<path fill="#6F6361" d="M65.135,20.329c-1.957,0.125-3.913,0.25-5.87,0.372c-0.688-0.769-1.534-1.267-2.546-1.489c-0.002,0.003-0.856-1.227-0.856-1.227c1.308-1.267,2.615-2.533,3.925-3.803c0.893,0.223,1.797,0.305,2.716,0.247c1.061,1.062,2.122,2.121,3.185,3.183C65.574,18.531,65.389,19.438,65.135,20.329z"/>
<path fill="#817A76" d="M25.232,24.165c1.071-0.006,2.144-0.012,3.215-0.019c1.826,0.784,3.047,2.084,3.474,4.065c-0.218,1.272-0.825,2.313-1.878,3.079c-1.201,0.427-2.421,0.482-3.659,0.168c-0.476-0.403-0.952-0.809-1.428-1.214C25.049,28.218,25.141,26.191,25.232,24.165z"/>
<path fill="#726568" d="M21.9,33.39c1.02-1.05,2.04-2.1,3.058-3.146c-0.001,0,0.293-0.024,0.293-0.024c0.959,1.001,1.476,2.2,1.614,3.57c-0.202,1.379-0.822,2.539-1.802,3.522c-0.658,0.165-1.317,0.326-1.976,0.491c-0.613-0.293-1.227-0.586-1.838-0.879C20.618,35.591,20.792,34.403,21.9,33.39z"/>
<path fill="#847B7A" d="M21.9,33.39c0.021,1.035,0.034,2.069,0.04,3.104c-0.785,1.034-1.836,1.483-3.121,1.422c-1.268-0.04-2.345-0.516-3.232-1.419l0.093-0.052c-0.829-0.693-1.104-1.389-0.827-2.084c0.276-0.693,0.552-1.041,0.829-1.041C17.756,33.341,19.828,33.365,21.9,33.39z"/>
<path fill="#A39395" d="M16.093,26.924c-0.275-0.98-0.435-1.975-0.481-2.991c1.079-0.016,2.159-0.028,3.24-0.043C17.931,24.9,17.011,25.913,16.093,26.924z"/>
<path fill="#4F4647" d="M15.682,33.32c0,1.041-0.001,2.084-0.001,3.125c-1.041,0-2.083,0-3.126-0.006c0.001-1.043,0.003-2.081,0.001-3.119C13.598,33.32,14.64,33.32,15.682,33.32z"/>
<path fill="#8E8E8E" d="M31.487,20.936c0.998-0.061,1.996-0.055,2.994,0.019l0.654,1.4c-0.117,1.145-0.703,1.947-1.758,2.408c0,0.003-1.553,0.091-1.555,0.091c-0.001,0.003-0.554-1.456-0.554-1.456C31.257,22.572,31.33,21.748,31.487,20.936z"/>
<path fill="#B2A9A8" d="M31.278,27.107c-0.944-0.989-1.887-1.975-2.832-2.96c0.936-0.269,1.877-0.516,2.823-0.745c0-0.003-0.023,0.754-0.023,0.754c0.353,0.488,0.705,0.977,1.057,1.465C31.961,26.114,31.62,26.609,31.278,27.107z"/>
<path fill="#847D77" d="M34.481,20.954c0.003-1.187,0.006-2.377,0.011-3.567c0.001-0.003-0.078,0.308-0.078,0.308c0.551-0.449,1.104-0.897,1.651-1.352c0.644,0.293,1.291,0.589,1.937,0.882c0.696,1.313,0.731,2.627,0.004,3.943c-1.326,0.815-2.556,0.644-3.7-0.372L34.481,20.954z"/>
<path fill="#514F4F" d="M75.214,70.725c0.975,0.052,1.949,0.042,2.923-0.03c0.018,1.086,0.035,2.176,0.054,3.265c-1.034-0.006-2.069-0.009-3.104-0.009c-1.001,1.522-1.99,1.587-2.963-0.024c0,0-0.475,0.003-0.478,0.003c0.114-1.044,0.231-2.084,0.351-3.125C73.07,70.777,74.143,70.753,75.214,70.725z"/>
<path fill="#585454" d="M72.124,73.926c0.986,0.012,1.974,0.021,2.963,0.024c-0.017,1.047-0.033,2.097-0.051,3.144l0.019-0.024c-1.042,1.147-2.083,1.147-3.125,0l0.013,0.015C72.003,76.032,72.063,74.979,72.124,73.926z"/>
<path fill="#484444" d="M71.93,77.07c1.041,0,2.083,0,3.125,0c0,1.04,0,2.084,0,3.125c-1.042,0-2.084,0-3.125,0C71.93,79.154,71.93,78.11,71.93,77.07z"/>
<path fill="#7D7477" d="M21.895,73.862c0.021-1.001,0.029-1.999,0.023-2.997c1.002-1.043,2.141-1.22,3.412-0.527c0.194,0.625,0.386,1.254,0.58,1.88c-0.348,0.556-0.697,1.11-1.045,1.666l-1.485,0.019L21.895,73.862z"/>
<path fill="#645C5D" d="M28.193,77.033c-1.044,0.027-2.087,0.058-3.13,0.086c-0.064-1.078-0.128-2.155-0.195-3.232c-0.003-0.003,0.324,0.037,0.324,0.037c0.981-0.745,1.953-0.77,2.913,0.036c0.241,0.507,0.481,1.014,0.722,1.517C28.615,75.996,28.403,76.514,28.193,77.033z"/>
<path fill="#6A6463" d="M31.334,80.182c-1.038,0.006-2.075,0.033-3.111,0.086c-0.011-1.078-0.021-2.155-0.032-3.235c0.001,0-0.051,0.052-0.051,0.052c1.024-0.79,2.053-0.796,3.092-0.03c0.287,0.513,0.572,1.025,0.859,1.538C31.839,79.121,31.588,79.651,31.334,80.182z"/>
<path fill="#615B58" d="M34.431,80.185c0,1.05-0.001,2.103-0.001,3.152c-1.068-0.003-2.138-0.009-3.206-0.012c0.037-1.047,0.073-2.097,0.11-3.144c0.001,0-0.014,0.055-0.014,0.055C32.335,78.959,33.371,78.943,34.431,80.185z"/>
<path fill="#766864" d="M15.587,36.497c1.076-0.003,2.153-0.006,3.23-0.009c1.065,0.69,1.419,1.374,1.062,2.057c-0.355,0.684-0.711,1.025-1.071,1.025c-1.099-0.077-2.197-0.15-3.297-0.226C15.601,38.395,15.627,37.446,15.587,36.497z"/>
<path fill="#585553" d="M24.982,70.826c-1.021-0.003-2.043,0.009-3.064,0.039c-0.984-0.164-1.973-0.296-2.963-0.405c0.004-0.919-0.06-1.828-0.191-2.734c2.018-0.852,4.035-1.703,6.053-2.555c0.798-1.181,1.906-1.574,3.282-1.278c0.992,0.915,1.583,2.042,1.778,3.378c-0.11,1.34-0.584,2.533-1.417,3.583C27.295,71.671,26.134,71.699,24.982,70.826z"/>
<path fill="#968A88" d="M40.426,17.359c3.231,0.104,6.462,0.211,9.694,0.317l-0.065-0.042c0.63,0.726,0.865,1.474,0.709,2.243c-0.158,0.781-0.336,1.169-0.527,1.178c-0.936,0.928-2.042,1.565-3.293,1.975c-1.984,0.369-3.891,0.146-5.715-0.739c-1.095-0.809-1.698-1.898-1.814-3.256C39.751,18.476,40.088,17.918,40.426,17.359z"/>
<path fill="#7E7B7E" d="M37.459,14.665c0.02-1.083,0.041-2.17,0.061-3.253c1.042,0.024,2.08-0.015,3.116-0.128c0.014,1.104,0.029,2.209,0.042,3.314C39.631,15.821,38.557,15.784,37.459,14.665z"/>
<path fill="#7A7980" d="M46.929,11.357c1.126,0.152,2.253,0.305,3.38,0.46l0.816,1.239l-0.89,1.187c0,0-0.425,0.696-0.426,0.699C48.848,13.749,47.888,12.553,46.929,11.357z"/>
<path fill="#BEB5B3" d="M37.459,14.665c1.073-0.021,2.147-0.046,3.219-0.067c0.035,0.934-0.047,1.855-0.25,2.765c-0.003-0.003,0.247,0.488,0.247,0.488c-1.199,1.379-2.192,1.178-3.007-0.394l-0.099,0.235c-0.836-0.693-1.116-1.389-0.839-2.084c0.277-0.695,0.552-1.044,0.833-1.044L37.459,14.665z"/>
<path fill="#AB9A9A" d="M50.155,20.676c-0.073-1.013-0.107-2.026-0.101-3.042c1.938,0.116,3.875,0.232,5.811,0.351c-0.002,0,0.617-0.284,0.617-0.284c0.677,0.647,0.903,1.294,0.683,1.944c-0.22,0.653-0.441,0.979-0.665,0.979c-0.103,1.053-0.203,2.105-0.306,3.158c0,0-1.01,1.093-1.012,1.096c0,0.003-1.49,0.134-1.493,0.141c-0.005,0.006-1.396-0.565-1.404-0.556c-0.876-0.567-1.521-1.331-1.95-2.283C50.327,22.184,50.155,20.676,50.155,20.676z"/>
<path fill="#5A5453" d="M50.236,14.243c-0.089-0.815-0.066-1.624,0.073-2.429c0.82-0.238,1.64-0.229,2.453,0.031C51.92,12.644,51.078,13.444,50.236,14.243z"/>
<path fill="#504947" d="M37.563,14.564c-0.003,1.044-0.004,2.087,0,3.131c-1.041,0-2.086,0-3.14,0c0.008-1.044,0.012-2.084,0.004-3.131C35.47,14.558,36.516,14.561,37.563,14.564z"/>
<path fill="#3F3B3B" d="M43.903,80.088c-0.032,1.056-0.063,2.115-0.095,3.171c-1.051,0.049-2.104,0.098-3.156,0.146c0.023-1.071,0.047-2.143,0.072-3.214c1.024-1.089,2.04-1.031,3.053,0.016L43.903,80.088z"/>
<path fill="#4E4640" d="M43.778,80.207c-1.018-0.003-2.035-0.009-3.053-0.016c-1.104-1.074-2.209-2.148-3.314-3.223c0.65-0.396,1.298-0.793,1.947-1.189c1.593-0.214,2.93,0.296,4.043,1.431C43.616,78.196,43.741,79.197,43.778,80.207z"/>
<path fill="#7F7C7D" d="M37.411,76.968c-0.971,0.028-1.939,0.059-2.91,0.095c-0.284-0.476-0.569-0.955-0.853-1.434c0.323-1.12,1.021-1.929,2.043-2.473c1.184-0.098,2.158,0.306,2.925,1.212c0.412,1.188,0.078,2.103-0.998,2.746L37.411,76.968z"/>
<path fill="#767575" d="M34.431,80.185c-1.038,0.003-2.075,0.021-3.111,0.052c-0.02-1.067-0.04-2.133-0.06-3.201c0.539-0.329,1.077-0.659,1.617-0.991c0.527,0.345,1.055,0.695,1.583,1.046l0.04-0.027C34.435,78.104,34.412,79.145,34.431,80.185z"/>
<path fill="#545050" d="M72.012,64.429c-0.03,1.123-0.061,2.243-0.091,3.363c-1.001,1.01-2.085,1.107-3.252,0.299c-1.036-0.064-2.069-0.165-3.098-0.299c-0.834-0.906-1.832-1.569-2.979-2.026c-0.485-0.379-0.964-0.757-1.452-1.139c-0.917-0.852-1.825-1.703-2.745-2.558c-0.244-0.589-0.475-1.175-0.719-1.764c-0.179-1.291-0.041-2.545,0.351-3.784c1.45-2.539,3.696-3.405,6.502-3.104c1.918,0.473,3.502,1.529,4.927,2.859c1.367,1.334,2.466,2.859,3.185,4.639C72.922,62.171,72.71,63.346,72.012,64.429z"/>
<path fill="#3D3B39" d="M62.379,64.829c1.065,0.989,2.131,1.975,3.194,2.964c-1.022-0.016-2.043-0.046-3.064-0.092c-0.001,0,0.045,0.003,0.045,0.003c-0.933-0.586-1.269-1.205-1.011-1.861C61.809,65.168,62.086,64.829,62.379,64.829z"/>
<path fill="#3D3B39" d="M68.669,68.092c1.083-0.101,2.168-0.201,3.252-0.299c0.006,1.028-0.023,2.057-0.09,3.082C70.777,69.947,69.722,69.019,68.669,68.092z"/>
<path fill="#282524" d="M62.379,64.829c0.081,0.959,0.14,1.917,0.175,2.875c-1.082,0.013-2.162,0.024-3.246,0.037c0.065-1.05,0.132-2.097,0.197-3.144c0.486-0.421,0.975-0.84,1.462-1.267c0.529,0.363,1.059,0.732,1.588,1.102L62.379,64.829z"/>
<path fill="#5E5A5B" d="M47.097,64.381c-0.073,1.12-0.146,2.243-0.22,3.366c-0.877,0.842-1.917,1.254-3.145,1.172c-1.758-0.47-3.316-1.334-4.782-2.402c-0.948-0.799-1.675-1.761-2.176-2.901c-0.151-1.294,0.229-2.408,1.13-3.354C39,59.6,40.181,59.198,41.45,59.033c1.979-0.019,3.761,0.527,5.275,1.84C47.551,61.964,47.641,63.138,47.097,64.381z"/>
<path fill="#383230" d="M47.097,64.381c-0.046-0.961-0.081-1.923-0.107-2.884c0,0,1.285-0.787,1.286-0.787c1.112,0.006,1.96,0.479,2.549,1.422c0.003,0,0.395,1.468,0.395,1.468l-1.172,0.964l-0.001-0.006C49.059,64.576,48.075,64.514,47.097,64.381z"/>
<path fill="#716968" d="M43.875,67.744c1.001-0.024,2.002-0.024,3.001,0c-1.035,1.016-2.067,2.032-3.102,3.049c-0.253-0.52-0.508-1.035-0.761-1.554C43.3,68.742,43.589,68.241,43.875,67.744z"/>
<path fill="#746669" d="M43.775,70.793c0.024,1.086,0.049,2.172,0.073,3.259c0,0.003,0.118,0.006,0.118,0.006c-3.053,1.264-3.903-0.312-3.883-3.009c1.201-1.193,2.458-1.202,3.766-0.18L43.775,70.793z"/>
<path fill="#554C4A" d="M50.047,64.563c-0.038-1.11-0.077-2.222-0.115-3.335c0,0,1.066-1.136,1.062-1.142c0.931-0.488,1.921-0.797,2.962-0.943c1.048-0.076,2.081,0.028,3.101,0.278c0.979,0.427,1.76,1.099,2.341,1.999l0.242,0.247c0.832,1.05,0.77,2.041-0.188,2.979c0,0,0.052-0.052,0.054-0.049c-1.065-0.01-2.13-0.019-3.195-0.027c-1.042,1.364-2.084,1.303-3.128,0C52.136,64.567,51.091,64.567,50.047,64.563z"/>
<path fill="#353030" d="M53.182,64.57c1.042,0,2.083,0,3.125,0c0.001,1.04,0,2.084,0.001,3.122c-1.04,0-2.084,0-3.129,0.003C53.18,66.651,53.18,65.61,53.182,64.57z"/>
<path fill="#5E5555" d="M40.679,70.74c1.094,1.105,2.19,2.21,3.286,3.317c-0.187,1.05-0.373,2.1-0.56,3.149c-1.93-0.03-3.859-0.061-5.788-0.092c-0.017-1.086-0.034-2.173-0.051-3.256c-1.065-0.806-1.655-1.864-1.7-3.213c0.263-1.294,0.873-2.393,1.827-3.306c1.244-0.562,2.457-0.534,3.638,0.184C42.087,68.797,41.869,69.868,40.679,70.74z"/>
<path fill="#4B4C4D" d="M71.947,42.78c1.038-0.021,2.072-0.049,3.108-0.085c0,2.054-0.001,4.107-0.001,6.161c-1.256,1.087-2.536,1.117-3.843,0.092C70.133,46.732,70.247,44.663,71.947,42.78z"/>
<path fill="#534743" d="M78.191,55.195c0.002,1.071,0.003,2.146,0.006,3.216c0,0.004,0.065-0.088,0.065-0.088c-0.979,0.879-1.989,0.915-3.03,0.112c-0.269-0.524-0.537-1.05-0.807-1.574c0.207-0.553,0.415-1.104,0.621-1.657C76.094,55.201,77.143,55.198,78.191,55.195z"/>
<path fill="#262525" d="M71.94,48.774c1.035,0.101,2.073,0.131,3.114,0.085c0.001,1.09,0.003,2.183,0.003,3.274c-1.058,0.791-2.085,0.711-3.084-0.112C71.29,50.947,71.314,49.863,71.94,48.774z"/>
<path fill="#4D4948" d="M71.96,52.168c1.032-0.062,2.064-0.073,3.097-0.034c-0.007,1.022-0.01,2.048-0.011,3.07l0.033-0.03c-0.968,0.79-1.953,0.817-2.96,0.079c-0.264-0.5-0.525-1.004-0.787-1.508C71.541,53.22,71.75,52.695,71.96,52.168z"/>
<path fill="#3B3737" d="M71.94,48.774c0.007,1.129,0.014,2.261,0.021,3.394l0.07-0.119c-0.887,0.909-1.305,1.996-1.251,3.266c-0.16,0.589-0.325,1.178-0.486,1.77c-0.449,0.415-0.9,0.827-1.353,1.242c-1.083-1.104-2.167-2.206-3.25-3.309c-1.614-1.184-2.092-2.838-1.975-4.745c0.266-1.794,0.847-3.503,1.419-5.218c0.311-1.169,0.735-2.295,1.214-3.406c0.533-1.108,1.304-2.023,2.255-2.795c0.597-0.092,1.196-0.177,1.796-0.263c0.513,0.314,1.028,0.635,1.544,0.952c0,1.078,0.002,2.158,0.003,3.238C71.946,44.779,71.943,46.775,71.94,48.774z"/>
<path fill="#595657" d="M75.036,36.426c0.021,1.053,0.041,2.106,0.063,3.159c-1.052-0.012-2.103-0.027-3.155-0.043c0.001,0,0.08-0.015,0.08-0.015c-0.781-2.85-0.104-4.224,3.086-3.042L75.036,36.426z"/>
<path fill="#262321" d="M72.012,64.429c-0.153-1.004-0.164-2.008-0.031-3.016c0,0,0.896-0.982,0.894-0.985c0-0.003,1.334-0.04,1.335-0.043c0-0.003,0.791,1.074,0.791,1.074c0.027,1.038,0.046,2.075,0.055,3.11C74.038,64.567,73.026,64.521,72.012,64.429z"/>
<path fill="#332F2D" d="M75.028,58.362c1.077-0.012,2.154-0.027,3.233-0.039c-0.064,1.031-0.064,2.063,0.003,3.095c-1.086,0.012-2.175,0.027-3.263,0.042c-0.001,0,0.054-0.015,0.054-0.015c-0.386-0.51-0.773-1.02-1.164-1.529C74.266,59.397,74.646,58.879,75.028,58.362z"/>
<path fill="#383535" d="M75.109,36.485c-1.028,1.013-2.059,2.029-3.087,3.042c-1.047,0.009-2.097,0.021-3.145,0.034c-1.643-1.355-1.944-3.091-1.432-5.057c0.394-0.492,0.789-0.983,1.184-1.474c2.142,0.046,4.28,0.091,6.421,0.137C75.071,34.272,75.09,35.38,75.109,36.485z"/>
<path fill="#978C8B" d="M65.685,30.015c1.03-0.046,2.062-0.037,3.091,0.027c0.018,1.001-0.03,1.996-0.146,2.991c0-0.003,0.22,0.354,0.22,0.354c-1.059,1.083-2.223,1.154-3.474,0.357C64.777,32.444,64.88,31.202,65.685,30.015z"/>
<path fill="#867C7D" d="M65.685,30.015c0.081,0.918,0.131,1.837,0.154,2.756c-0.495,1.214-1.337,2.093-2.522,2.655c-1.204,0.415-2.444,0.65-3.717,0.711c-1.267-0.015-2.508-0.223-3.719-0.583c-1.155-0.492-2.147-1.224-2.974-2.167c-0.558-1.129-0.64-2.304-0.257-3.506c1.278-1.358,2.895-1.987,4.728-2.112c1.629,0.156,3.313,0.882,4.843-0.385C63.376,28.26,64.53,29.139,65.685,30.015z"/>
<path fill="#8E8481" d="M56.194,23.783c1.131,0.064,2.262,0.128,3.396,0.195c-0.035,1.081-0.073,2.158-0.11,3.238c-0.738,0.128-1.476,0.253-2.214,0.384c-0.923-0.662-1.379-1.446-1.373-2.356c0.008-0.97,0.128-1.456,0.36-1.456L56.194,23.783z"/>
<path fill="#B2AAA6" d="M62.221,27.384c-1.003,0.94-2.005,1.88-3.008,2.817c-0.969-0.815-1.231-1.538-0.79-2.17c0.407-0.583,0.804-0.875,1.193-0.875c0,0-0.138,0.058-0.138,0.061C60.41,27.006,61.324,27.061,62.221,27.384z"/>
<path fill="#4B4A4A" d="M56.499,20.625c-0.078-0.974-0.084-1.947-0.018-2.924c0.93,1.001,1.857,2.002,2.785,3.003c-0.002-0.003-1.389,0.083-1.389,0.083L56.499,20.625z"/>
<path fill="#615B5C" d="M21.822,51.932c0.034-1.953,0.065-3.906,0.099-5.859c-0.879-0.778-1.169-1.553-0.871-2.325c0.297-0.769,0.593-1.157,0.89-1.157c-0.006-0.995,0.001-1.99,0.024-2.984c0.374-0.439,0.749-0.879,1.125-1.322c1.147-0.198,2.302-0.25,3.468-0.165c1.043,0.577,1.834,1.401,2.383,2.463c0.246,1.15,0.297,2.31,0.167,3.482c-0.199,1.733-0.504,3.454-0.793,5.182c-0.153,1.172-0.455,2.308-0.833,3.427c-0.267,0.525-0.554,1.041-0.832,1.563c-0.438,0.397-0.885,0.785-1.332,1.172C24.152,54.249,22.988,53.093,21.822,51.932z"/>
<path fill="#7D7A7A" d="M28.423,64.909c-1.201,0.085-2.402,0.171-3.604,0.259c-1.043-2.273-2.084-4.55-3.128-6.826c1.146-0.028,2.293-0.059,3.441-0.086c0.572,0.016,1.143,0.03,1.718,0.04c1.708,0.457,3.165,1.324,4.321,2.673c0.589,1.047,0.642,2.14,0.249,3.263C30.578,65.14,29.578,65.366,28.423,64.909z"/>
<path fill="#3A3635" d="M25.132,58.256c0.015-0.952,0.075-1.901,0.183-2.848c0.001,0-0.238-0.069-0.238-0.069c1.058-0.925,2.126-0.938,3.208-0.031c0.671,1.147,0.78,2.344,0.327,3.596c-1.285,0.61-2.348,0.375-3.16-0.824L25.132,58.256z"/>
<path fill="#6A6064" d="M18.808,39.57c-0.001-1.029,0.001-2.054,0.009-3.083c1.041-0.052,2.081-0.052,3.12,0.006c0.002,0-0.009-0.049-0.009-0.049c1.06,0.692,1.413,1.385,1.062,2.081c-0.351,0.696-0.704,1.044-1.061,1.044c0,0,0.032,0.037,0.034,0.037C20.912,39.594,19.86,39.582,18.808,39.57z"/>
<path fill="#433E3E" d="M21.94,42.591c-0.006,1.16-0.013,2.319-0.019,3.479c-1.048-0.07-2.095-0.141-3.143-0.21C19.832,44.77,20.885,43.68,21.94,42.591z"/>
<path fill="#938885" d="M25.057,33.311c0.003-1.035,0.065-2.063,0.192-3.091c1.886-0.009,3.77-0.019,5.655-0.028c0.417,0.495,0.834,0.989,1.251,1.486c-0.063,1.374-0.694,2.402-1.892,3.079C28.237,35.325,26.462,34.98,25.057,33.311z"/>
<path fill="#AAA4A7" d="M30.904,30.192c0.27-1.01,0.395-2.042,0.375-3.088c-0.002,0.003,0.03-0.073,0.03-0.073c0.854-0.885,1.784-0.967,2.786-0.253c0.661,0.943,0.827,1.956,0.423,3.045c-0.839,0.888-1.789,0.977-2.828,0.378L30.904,30.192z"/>
<path fill="#534C4C" d="M25.057,33.311c2.161-0.113,4.321-0.226,6.48-0.336c0.951-0.656,1.868-0.61,2.752,0.128c0.597,0.913,0.763,1.898,0.503,2.96c-0.537,0.916-1.26,1.66-2.125,2.271c-0.898,0.549-1.863,0.949-2.879,1.23c-0.52,0.015-1.045,0.021-1.568,0.031c-1.058-0.009-2.115-0.019-3.172-0.028c-0.908-0.689-1.21-1.382-0.909-2.075c0.302-0.692,0.603-1.038,0.908-1.038C25.049,35.407,25.054,34.358,25.057,33.311z"/>
<path fill="#8D8287" d="M25.046,36.454c0.006,1.038,0.009,2.079,0.004,3.116c-1.042,0-2.081,0-3.12,0c0-1.044,0-2.084,0-3.125C22.968,36.442,24.007,36.445,25.046,36.454z"/>
<path fill="#5A4C47" d="M34.305,20.796c1.083-0.006,2.166-0.012,3.247-0.019c0.719,1.047,0.702,2.082-0.047,3.107c-0.516,0.269-1.033,0.537-1.55,0.809C35.42,24.464,34.886,24.232,34.35,24C34.334,22.932,34.321,21.864,34.305,20.796z"/>
<path fill="#A89C9F" d="M34.058,27.009l-1.373,0.04l-1.375-0.015c0.001-0.964-0.018-1.926-0.063-2.881c1.028-0.156,2.063-0.211,3.102-0.153l0.259-0.198c0.27,0.598,0.542,1.196,0.815,1.792C34.971,26.066,34.514,26.539,34.058,27.009z"/>
<path fill="#6A5F60" d="M37.545,24c0.003-1.071,0.006-2.146,0.007-3.22c0.038-1.107,0.077-2.215,0.116-3.323c0.998,0.162,2.002,0.29,3.007,0.391c0.046,1.007,0.081,2.014,0.105,3.019c0.772,1.019,0.708,2.014-0.081,2.99c-0.514,0.25-1.031,0.498-1.547,0.748C38.618,24.403,38.082,24.201,37.545,24z"/>
<path fill="#3F3E3D" d="M24.982,70.826c1,0.009,1.996,0.061,2.991,0.152c0,0,0.993,0.766,0.996,0.766s0.021,1.261,0.024,1.261c0.001,0-0.957,0.821-0.957,0.821c-0.949,0.063-1.898,0.095-2.847,0.098C25.095,72.891,25.025,71.86,24.982,70.826z"/>
<path fill="#807B7C" d="M31.26,77.036c-1.039,0.021-2.078,0.037-3.117,0.046c-0.035-1.083-0.067-2.17-0.103-3.256c-0.003,0,0.202,0.155,0.202,0.155c1.025-0.821,2.058-0.827,3.097-0.027c0.827,1.044,0.778,2.078-0.022,3.109L31.26,77.036z"/>
<path fill="#383430" d="M28.423,64.909c0.941-0.293,1.902-0.4,2.884-0.321c0,0,0.757,1.307,0.758,1.307c-0.006,1.114-0.48,1.962-1.422,2.555c0.002,0.003-1.465,0.402-1.465,0.402l-0.999-1.145C28.189,66.767,28.27,65.837,28.423,64.909z"/>
<path fill="#6F6565" d="M28.179,67.707c1.042-0.003,2.084-0.006,3.126-0.012c0.326,0.439,0.651,0.876,0.979,1.315c0.046,1.147-0.353,2.108-1.196,2.89c-1.164,0.22-2.104-0.125-2.786-1.111c0,0-0.327,0.187-0.328,0.187C28.041,69.885,28.11,68.797,28.179,67.707z"/>
<path fill="#A29F9E" d="M40.462,24.064c0.106-1.065,0.212-2.133,0.319-3.198c2.231,0.012,4.463,0.024,6.694,0.036c0.76,0.989,1.218,2.1,1.381,3.339c-0.146,1.251-0.613,2.365-1.395,3.351c-1.127,0.595-2.318,0.785-3.577,0.577c-1.141-0.541-2.098-1.31-2.852-2.326C40.839,25.251,40.651,24.659,40.462,24.064z"/>
<path fill="#7C7373" d="M46.552,26.566c0.303-1.889,0.608-3.778,0.917-5.664c0.903-0.018,1.796-0.094,2.684-0.226c0.002,0-0.015,0.574-0.015,0.574c1.066,0.9,2.142,1.792,3.226,2.673l-0.007-0.171C53.235,29.886,50.193,28.95,46.552,26.566z"/>
<path fill="#6A5F60" d="M46.552,26.566c2.268-0.937,4.534-1.874,6.804-2.811c0.966-0.012,1.932,0,2.896,0.037c1.119,1.12,2.241,2.24,3.362,3.363c-0.149,1.013-0.283,2.029-0.399,3.045c-2.016,0-4.031-0.003-6.046-0.006c-1.717,1.962-3.662,1.742-5.705,0.601c-0.746-0.757-1.077-1.572-0.995-2.451c0.085-0.909,0.229-1.361,0.433-1.361L46.552,26.566z"/>
<path fill="#6A5F60" d="M53.364,23.924c-1.076-0.894-2.151-1.785-3.228-2.676C51.213,22.141,52.289,23.032,53.364,23.924z"/>
<path fill="#4F4647" d="M37.543,70.761c-0.012,1.031-0.005,2.066,0.022,3.098c-1.038,0.058-2.077,0.089-3.117,0.092c-0.422-0.396-0.847-0.794-1.271-1.193c0.029-1.215,0.508-2.213,1.434-3C35.831,69.38,36.809,69.715,37.543,70.761z"/>
<path fill="#3E3835" d="M31.316,77.063c-0.064-1.062-0.128-2.121-0.194-3.183c0.56-0.412,1.118-0.824,1.678-1.239c0.542,0.434,1.083,0.87,1.625,1.307l0.023,0.003c0.003,1.047,0.006,2.094,0.011,3.137C33.411,77.082,32.364,77.073,31.316,77.063z"/>
<path fill="#2D2A2A" d="M65.63,49.015c0.02,2.002,0.039,4.004,0.061,6.002c-2.121,1.096-4.24,2.191-6.361,3.287c-0.445,0.428-0.89,0.852-1.332,1.282c-1.265-0.153-2.282-0.729-3.014-1.789c-0.656-1.797-0.545-3.555,0.295-5.271c0.679-0.988,1.518-1.827,2.482-2.545c1.466-0.995,3.044-1.77,4.782-2.188C63.745,47.749,64.786,48.136,65.63,49.015z"/>
<path fill="#312D2E" d="M56.538,58.222c0.931,0.055,1.862,0.082,2.793,0.082c0.068,1.038,0.091,2.078,0.066,3.119c-0.001-0.003-1.528,0.024-1.528,0.024l-1.526-0.006c-0.771-0.767-0.999-1.499-0.685-2.197C55.965,58.564,56.258,58.222,56.538,58.222z"/>
<path fill="#272524" d="M71.981,61.414c-1.015-1.031-2.029-2.06-3.041-3.088c0.001,0-0.135-0.003-0.135-0.003c0.542-0.442,1.085-0.889,1.63-1.334c0.643,0.29,1.281,0.58,1.926,0.87c0.911,1.324,0.714,2.515-0.432,3.589L71.981,61.414z"/>
<path fill="#605C5B" d="M59.452,64.646c0.024-0.998,0.086-1.993,0.187-2.981c0.974,0.925,1.945,1.849,2.917,2.771C61.522,64.524,60.488,64.594,59.452,64.646z"/>
<path fill="#6A6360" d="M37.62,61.326c0,1.117,0.001,2.236,0.001,3.354c-0.476,0.357-0.952,0.718-1.43,1.08c-0.592-0.085-1.184-0.174-1.779-0.259c-0.386-0.458-0.771-0.919-1.158-1.38c-0.32-1.165-0.612-2.337-0.891-3.519c-0.129-1.235,0.032-2.429,0.472-3.592c1.08-1.685,2.473-2.624,4.558-1.892c0.94,0.833,1.561,1.855,1.82,3.088C39.132,59.476,38.622,60.526,37.62,61.326z"/>
<path fill="#463E3B" d="M46.99,61.497c-2.127-0.076-4.254-0.152-6.379-0.229c-0.427-0.549-0.853-1.095-1.283-1.639c0.253-0.644,0.511-1.287,0.764-1.935c1.158-0.806,2.452-1.224,3.854-1.318c1.393,0.189,2.623,0.745,3.688,1.66c0.642,1.367,0.392,2.545-0.751,3.537L46.99,61.497z"/>
<path fill="#4F4647" d="M40.679,70.74c-0.026-1.056-0.052-2.111-0.076-3.167c-1.092-0.757-1.42-1.456-0.989-2.097c0.411-0.61,0.816-0.919,1.222-0.919c1.012,1.063,2.025,2.124,3.038,3.187c-0.042,1.04-0.052,2.081-0.026,3.121C42.792,70.826,41.735,70.783,40.679,70.74z"/>
<path fill="#383331" d="M40.757,58.457c-0.038,0.94-0.087,1.877-0.146,2.814c0-0.004-1.496,0.109-1.496,0.109s-1.497-0.049-1.497-0.052c-0.06-1.038-0.081-2.072-0.063-3.106C38.694,57.349,39.76,57.428,40.757,58.457z"/>
<path fill="#847F7C" d="M40.836,64.557c-0.07,1.007-0.146,2.015-0.232,3.019c-1.066,0.021-2.133,0.046-3.198,0.067c-0.353-0.531-0.705-1.063-1.062-1.594c0.403-0.491,0.807-0.985,1.213-1.479l0.063,0.106C38.692,64.64,39.763,64.597,40.836,64.557z"/>
<path fill="#746E6A" d="M46.883,61.573c0.007-1.047,0.015-2.094,0.022-3.141c-1.81-1.715-1.909-3.701-0.917-5.862c1.174-1.016,2.474-1.278,3.925-0.671c1.102,1.004,1.871,2.212,2.271,3.652c0.236,2.338-0.477,4.297-2.321,5.805c0,0,0.07-0.122,0.07-0.125C48.913,61.332,47.898,61.445,46.883,61.573z"/>
<path fill="#3D3839" d="M49.863,61.356c0.111-2.026,0.223-4.053,0.336-6.079c2.555-1.142,3.692,0.247,4.376,2.45c0.143,1.444-0.293,2.683-1.303,3.721C52.135,61.418,50.999,61.386,49.863,61.356z"/>
<path fill="#60595C" d="M53.272,61.448c0.008-0.992,0.027-1.983,0.058-2.973c0.914-1.633,1.897-1.596,2.939-0.122c0,0,0.266-0.131,0.267-0.131c-0.063,1.074-0.128,2.146-0.193,3.22C55.32,61.442,54.295,61.445,53.272,61.448z"/>
<path fill="#8D8A8A" d="M37.543,70.761c-1.036,0.037-2.072,0.052-3.11,0.049c-0.401-0.559-0.803-1.12-1.204-1.682c0.27-0.635,0.542-1.27,0.813-1.907c1.309-0.839,2.479-0.677,3.516,0.479c0,0-0.149-0.055-0.151-0.055C37.51,68.68,37.556,69.718,37.543,70.761z"/>
<path fill="#353030" d="M71.81,55.192c1.089-0.007,2.179-0.013,3.269-0.019c-0.018,1.062-0.034,2.124-0.051,3.188l0.029-0.042c-1.044,1.135-2.088,1.138-3.13,0l0.005,0.004c-0.449-0.504-0.896-1.011-1.35-1.517C70.988,56.269,71.399,55.732,71.81,55.192z"/>
<path fill="#262221" d="M68.805,55.188c1.074-1.046,2.148-2.093,3.225-3.137c-0.072,1.047-0.146,2.094-0.219,3.141c-0.001,0,0.119,0,0.119,0C70.888,56.343,69.846,56.34,68.805,55.188z"/>
<path fill="#534C4D" d="M62.656,33.32c1.061-0.18,2.121-0.36,3.182-0.546c0.987,0.287,1.991,0.494,3.012,0.613c0.01,2.057,0.018,4.117,0.026,6.174c-0.071,1.071-0.145,2.146-0.218,3.216c-0.466,0.415-0.933,0.83-1.401,1.245c-0.624-0.067-1.246-0.137-1.875-0.195c-1.155-0.543-2.168-1.282-3.058-2.194c-0.363-0.519-0.711-1.05-1.073-1.569c-0.489-1.181-0.685-2.42-0.643-3.696C60.957,35.135,61.643,34.116,62.656,33.32z"/>
<path fill="#484244" d="M65.63,49.015c-0.973,0.012-1.944,0.066-2.913,0.161c-1.879-1.913-2.022-4.086-0.963-6.445c1.302-1.425,2.604-1.428,3.911-0.009l0.02-0.027c1.023,0.882,1.992,1.825,2.905,2.819C67.604,46.683,66.618,47.849,65.63,49.015z"/>
<path fill="#595253" d="M68.805,55.188c1.042,0.004,2.083,0.004,3.125,0.004c0,1.043,0,2.084,0,3.131c-1.04,0-2.083-0.003-3.125,0C68.805,57.279,68.805,56.235,68.805,55.188z"/>
<path fill="#60595C" d="M68.59,45.514c-0.969-0.939-1.937-1.879-2.905-2.819c0.991,0.006,1.983,0.033,2.974,0.082C68.709,43.693,68.688,44.605,68.59,45.514z"/>
<path fill="#4E4E50" d="M71.927,58.32c1.042,0,2.084,0,3.128,0c0.002,1.04,0,2.084,0,3.125c-1.041,0-2.083,0-3.125,0C71.929,60.404,71.927,59.36,71.927,58.32z"/>
<path fill="#867977" d="M62.372,36.21c0.027,1.086,0.056,2.173,0.084,3.259c-0.697,1.01-1.608,1.758-2.73,2.258c-1.188,0.281-2.388,0.339-3.601,0.205c-1.193-0.281-2.263-0.815-3.215-1.587c-0.617-1.074-0.795-2.225-0.544-3.439c0.753-1.764,2.346-2.621,3.868-3.555c1.087-0.003,2.173-0.009,3.26-0.012C60.51,34.239,61.47,35.197,62.372,36.21z"/>
<path fill="#534B48" d="M46.918,30.207c2.084-0.003,4.168-0.006,6.251-0.012c-0.012,1.031-0.06,2.063-0.142,3.091c-0.518,0.445-1.034,0.891-1.552,1.336c-1.384,0.187-2.693-0.037-3.915-0.726c-0.379-0.568-0.757-1.135-1.136-1.703C46.59,31.531,46.753,30.869,46.918,30.207z"/>
<path fill="#BEBBBB" d="M62.372,36.21c-0.96-0.955-1.918-1.913-2.878-2.872c1.054-0.006,2.108-0.012,3.161-0.018C62.739,34.302,62.644,35.264,62.372,36.21z"/>
<path fill="#6A5F60" d="M56.235,33.35c-0.967,0.998-1.935,1.993-2.9,2.991c-0.448-0.503-0.897-1.007-1.345-1.514c0.408-0.537,0.815-1.074,1.223-1.611c0,0-0.183,0.07-0.185,0.07C54.097,33.308,55.165,33.329,56.235,33.35z"/>
<path fill="#4F4647" d="M25.094,48.981c1.038-2.087,2.075-4.174,3.111-6.262c0.43,0.491,0.86,0.982,1.294,1.474c0.63,2.005,0.36,3.836-1.038,5.453C27.167,50.302,26.053,50.037,25.094,48.981z"/>
<path fill="#4F4647" d="M28.205,42.719c0.004-1.041,0.009-2.084,0.014-3.125c0.001,0-0.008-0.055-0.008-0.055c0.518-0.381,1.035-0.763,1.552-1.147c0.62,0.165,1.241,0.333,1.86,0.498c0.521,1.23,0.496,2.438-0.165,3.613c-1.059,0.928-2.164,0.982-3.31,0.162L28.205,42.719z"/>
<path fill="#81787A" d="M28.252,55.033c-1.059,0.101-2.118,0.201-3.177,0.306c-0.006-1.103-0.012-2.204-0.018-3.306c0.5-0.427,1.001-0.857,1.499-1.291c0.621,0.214,1.243,0.434,1.866,0.647c0.22,0.616,0.441,1.235,0.661,1.855C28.806,53.84,28.528,54.438,28.252,55.033z"/>
<path fill="#383231" d="M28.258,52.262c-1.068-0.077-2.135-0.153-3.201-0.229c-0.009-1.016,0.001-2.035,0.037-3.052c0.916-0.027,1.825,0.03,2.728,0.174c0.687,0.607,0.98,1.27,0.88,1.987C28.599,51.889,28.451,52.262,28.258,52.262z"/>
<path fill="#4F4647" d="M25.451,58.079c0.838,0.092,1.675,0.177,2.513,0.256c0.552-0.445,1.103-0.891,1.656-1.336c0.68,0.204,1.359,0.411,2.04,0.616c0.274,0.653,0.546,1.309,0.821,1.965c-0.373,0.607-0.745,1.212-1.117,1.816C29.392,60.291,27.422,59.186,25.451,58.079z"/>
<path fill="#4C4543" d="M34.431,61.445c0.017,1.047,0.033,2.09,0.052,3.137c-1.089,1.245-2.189,1.258-3.302,0.03l0.127-0.024c0.018-1.064,0.037-2.127,0.056-3.191l-0.059,0.052C32.345,60.019,33.387,59.949,34.431,61.445z"/>
<path fill="#716B6A" d="M31.334,58.396c-1.122-0.021-2.243-0.043-3.368-0.062c0.092-1.099,0.188-2.2,0.284-3.299c0.002-0.003-0.079,0.162-0.079,0.162c1.053-1.126,2.238-1.23,3.539-0.458C32.474,56.05,32.308,57.263,31.334,58.396z"/>
<path fill="#BBB9B9" d="M34.597,33.732c-1.021-0.25-2.04-0.503-3.059-0.757c-0.139-0.934-0.09-1.858,0.149-2.774c0.949-0.015,1.894-0.046,2.838-0.091c0,0,0.895,1.086,0.896,1.086c0.001,0,0.02,1.41,0.021,1.41C35.444,32.606,34.597,33.732,34.597,33.732z"/>
<path fill="#867C7D" d="M34.525,30.11c-0.154-1.032-0.307-2.066-0.464-3.098c-0.003-0.003,0.633,0.076,0.633,0.076c0.655-0.396,1.309-0.796,1.964-1.193c0.563,0.516,1.127,1.035,1.692,1.55c-0.024,0.76-0.049,1.526-0.073,2.289c-0.592,0.479-1.184,0.961-1.775,1.443c-0.685-0.335-1.372-0.668-2.058-1.001L34.525,30.11z"/>
<path fill="#4F4647" d="M31.265,36.46c1.074,0.003,2.15,0.006,3.224,0.009l0.704,1.379c-0.047,1.141-0.567,1.993-1.556,2.56c0,0.003-1.52,0.342-1.52,0.342l-0.902-1.27l0.182,0.18c-0.772-0.681-1.048-1.382-0.83-2.105C30.788,36.826,31.02,36.46,31.265,36.46z"/>
<path fill="#817F80" d="M31.265,36.46c0.044,1.065,0.087,2.133,0.131,3.201c-1.062-0.04-2.125-0.079-3.188-0.122C29.229,38.514,30.248,37.486,31.265,36.46z"/>
<path fill="#4B4441" d="M34.49,36.469c-0.029-0.916,0.008-1.828,0.107-2.738l-0.33-0.802c0.766-0.269,1.532-0.537,2.296-0.809c0.522,0.62,1.044,1.242,1.566,1.862c-0.337,1.807-1.425,2.774-3.259,2.899L34.49,36.469z"/>
<path fill="#747473" d="M37.831,26.685c-1.048,0.134-2.097,0.269-3.142,0.403c-0.024-1.096-0.055-2.188-0.083-3.284c0.978,0.095,1.956,0.159,2.938,0.195l-0.08-0.03c0.888,0.494,1.238,1.062,1.05,1.703C38.318,26.346,38.091,26.685,37.831,26.685z"/>
<path fill="#555452" d="M37.831,26.685c-0.186-0.897-0.308-1.8-0.365-2.716c1-0.009,1.999,0.021,2.997,0.094c-0.001,0,0.217-0.116,0.217-0.116c0.404,0.562,0.809,1.123,1.216,1.682c-0.259,0.641-0.523,1.282-0.783,1.922c-1.311,0.788-2.498,0.625-3.558-0.476L37.831,26.685z"/>
<path fill="#7A7272" d="M28.303,70.789c1,0.021,1.999,0.031,3,0.034c0.914,0.689,1.223,1.385,0.922,2.081c-0.299,0.699-0.6,1.05-0.905,1.05c0,0-0.194-0.073-0.195-0.073c-0.961,0.043-1.923,0.076-2.882,0.098C28.261,72.916,28.283,71.851,28.303,70.789z"/>
<path fill="#615A59" d="M31.18,64.612c1.101-0.009,2.201-0.021,3.301-0.03c0.001,0-0.05-0.015-0.05-0.015c0.827,0.695,1.103,1.392,0.828,2.09c-0.274,0.696-0.549,1.044-0.827,1.044h0.007c-1.046,1.489-2.092,1.419-3.137-0.003l0.003-0.003C31.296,66.667,31.255,65.641,31.18,64.612z"/>
<path fill="#565250" d="M31.302,67.698c1.044,0,2.086-0.003,3.133,0c-0.004,1.04-0.008,2.081-0.003,3.115c0,1.041,0,2.088-0.003,3.135c-1.044-0.003-2.083-0.003-3.118,0c0.003-1.038-0.001-2.085-0.007-3.128C31.306,69.779,31.307,68.738,31.302,67.698z"/>
<path fill="#534B48" d="M46.903,26.985c0.005,1.074,0.011,2.148,0.016,3.223l0.055-0.055c-1.88,1.972-4.033,1.953-6.335,0.87c-1.323-1.333-1.308-2.649,0.043-3.952l-0.005,0.064c0.978-1.111,2.135-1.346,3.467-0.702C45.066,26.603,45.986,26.786,46.903,26.985z"/>
<path fill="#7C7373" d="M44.142,26.432c-1.155,0.235-2.31,0.467-3.467,0.702c0.001-1.062,0.003-2.124,0.005-3.186C41.834,24.775,42.989,25.605,44.142,26.432z"/>
<path fill="#554C4C" d="M59.107,39.994c1.117-0.174,2.233-0.348,3.351-0.521c-0.001-0.003,0.154,0.177,0.154,0.177c0.792,0.693,1.047,1.379,0.769,2.057c-0.275,0.671-0.549,1.007-0.819,1.007c0.053,2.155,0.103,4.306,0.156,6.463c-1.137,0.87-2.275,1.739-3.412,2.609c-0.847-0.675-1.736-1.288-2.677-1.84c-0.942-0.589-1.813-1.264-2.656-1.99c-0.86-0.76-1.497-1.675-1.94-2.734c-0.133-1.163,0.112-2.243,0.725-3.241c1.02-0.543,2.111-0.799,3.264-0.815C57.181,41.126,58.211,40.736,59.107,39.994z"/>
<path fill="#494242" d="M56.269,58.353l-1.473-0.006c0,0-1.47,0.125-1.468,0.125c-1.042-1.065-2.088-2.13-3.131-3.198c-0.107-1.028-0.189-2.063-0.248-3.098c0.436-0.439,0.87-0.879,1.307-1.318c1.197-0.412,2.409-0.431,3.63-0.119c0.479,0.394,0.958,0.787,1.438,1.182C56.305,54.062,56.286,56.208,56.269,58.353z"/>
<path fill="#605F5F" d="M59.368,48.722c0.03,1.021,0.011,2.044-0.061,3.063c-0.002,0-1.489,0.141-1.489,0.141s-1.494-0.003-1.494-0.006l0.041,0.118c-0.444-0.521-0.888-1.04-1.33-1.559c0.213-0.653,0.429-1.304,0.644-1.957C56.955,47.733,58.184,47.801,59.368,48.722z"/>
<path fill="#564E4B" d="M31.334,58.396c-0.009-1.068-0.02-2.134-0.029-3.201c-1.088-0.983-1.588-2.191-1.413-3.665c0.571-3.192,2.76-4.657,5.684-5.344c1.352-0.232,2.721-0.272,4.085-0.138c1.328,0.232,2.576,0.717,3.743,1.386c0.445,0.476,0.896,0.967,1.344,1.446c0.435,1.267,0.351,2.512-0.241,3.72c-1.344,1.45-3.029,2.253-4.982,2.519c-0.621,0.061-1.248,0.115-1.874,0.171c-1.074,1.01-2.146,2.02-3.221,3.03c-1.044,1.116-2.086,1.172-3.126,0L31.334,58.396z"/>
<path fill="#8E8D8D" d="M40.757,58.457c-1.067-0.076-2.135-0.155-3.201-0.234c0.022-0.979,0.053-1.956,0.094-2.933c0.001,0,0.009,0.091,0.009,0.091c2.938-1.321,3.433-0.085,2.629,2.512L40.757,58.457z"/>
<path fill="#7A6863" d="M31.304,58.32c1.042,0,2.084,0,3.126,0c0,1.043,0,2.084,0,3.125c-1.042,0-2.083,0-3.126,0C31.304,60.404,31.304,59.36,31.304,58.32z"/>
<path fill="#4F4647" d="M34.432,67.701c0-1.044-0.001-2.088-0.001-3.131c1.042,0,2.083,0,3.125,0c0,1.04,0,2.084,0.001,3.128C36.516,67.701,35.474,67.701,34.432,67.701z"/>
<path fill="#6E6564" d="M40.288,57.892c-0.875-0.839-1.753-1.675-2.629-2.512c2.083-1.053,4.164-2.105,6.247-3.161c1.619,1.983,1.781,3.961-0.015,5.936C42.69,58.066,41.489,57.978,40.288,57.892z"/>
<path fill="#817B77" d="M43.891,58.155c0.004-1.98,0.007-3.961,0.014-5.938c0.001,0.003-0.144-0.333-0.144-0.333c1.167-0.934,2.194-0.757,3.101,0.388c0.015,2.054,0.03,4.104,0.046,6.161C45.893,58.435,44.887,58.342,43.891,58.155z"/>
<path fill="#494242" d="M46.862,52.271c-1.028-0.168-2.062-0.296-3.101-0.388c0.06-0.955,0.101-1.91,0.126-2.868c0.887-1.011,1.996-1.615,3.325-1.816c0.647,0.098,1.292,0.201,1.941,0.299c0.541,0.366,1.082,0.736,1.623,1.105c0.597,1.287,0.422,2.429-0.654,3.399c0,0-0.171,0.171-0.173,0.174l-1.547-0.052L46.862,52.271z"/>
<path fill="#544E51" d="M62.561,42.713c0.004-1.022,0.019-2.044,0.051-3.064c1.018,1.025,2.035,2.048,3.054,3.073l-1.553-0.015L62.561,42.713z"/>
<path fill="#79706C" d="M56.451,42.679c-1.209,0.165-2.416,0.33-3.624,0.495c-0.534,0.244-1.066,0.485-1.601,0.729c-0.52-0.272-1.036-0.546-1.556-0.821c-0.462-1.135-0.396-2.24,0.197-3.314c0.958-0.845,1.991-0.949,3.099-0.312c1.255,0.116,2.511,0.232,3.767,0.348C57.292,40.827,57.232,41.788,56.451,42.679z"/>
<path fill="#353030" d="M56.451,42.679c-0.043-0.97,0.05-1.932,0.28-2.875c0.806-0.085,1.598-0.024,2.377,0.186C58.222,40.888,57.335,41.785,56.451,42.679z"/>
<path fill="#B6B1AF" d="M52.966,39.457l-1.449,0.037l-1.443-0.128c-0.326-0.412-0.653-0.827-0.979-1.242c-0.064-1.117,0.345-2.017,1.224-2.71c1.131-0.165,2.026,0.217,2.688,1.147l0.327-0.22C53.21,37.379,53.088,38.419,52.966,39.457z"/>
<path fill="#827B77" d="M40.685,30.195c2.095-0.016,4.191-0.028,6.288-0.043c-0.006,0.983-0.011,1.965-0.012,2.948c-0.294,0.458-0.59,0.916-0.882,1.379c-0.938,0.583-1.95,0.977-3.037,1.178c-1.096,0.122-2.184,0.046-3.262-0.177c-1.006-0.446-1.857-1.105-2.577-1.941l0.348-0.168c-0.83-0.723-1.099-1.44-0.81-2.148c0.287-0.705,0.571-1.056,0.854-1.056l-0.043,0.031C38.595,28.931,39.64,28.928,40.685,30.195z"/>
<path fill="#A19794" d="M53.005,36.561c-1.027-0.064-2.055-0.095-3.083-0.095c-1.058,1.068-2.212,1.139-3.458,0.345c-0.752-1.276-0.628-2.426,0.502-3.424c0,0-0.006-0.281-0.006-0.284c2.084,0.037,4.167,0.076,6.25,0.113C53.142,34.33,53.074,35.447,53.005,36.561z"/>
<path fill="#686668" d="M37.777,48.74c-2.158,1.111-4.315,2.222-6.471,3.333c-1.045,1.145-2.091,1.142-3.133-0.006c0,0,0.083,0.191,0.084,0.191c-0.144-1.034-0.287-2.068-0.432-3.106c0.105-2.16,0.215-4.324,0.323-6.488c1.097-0.006,2.194-0.012,3.292-0.015c0,0,1.527,0.116,1.53,0.11c1.039,0.149,1.999,0.51,2.896,1.059c0.954,0.488,1.7,1.196,2.26,2.108C38.63,46.94,38.48,47.874,37.777,48.74z"/>
<path fill="#817F80" d="M31.215,39.481c1.093,0.052,2.184,0.104,3.276,0.156c0.31,0.437,0.619,0.873,0.929,1.313c0.05,1.129-0.373,2.042-1.268,2.734c-1.103-0.037-2.082-0.397-2.916-1.129c0,0,0.202,0.095,0.203,0.095C31.365,41.593,31.29,40.537,31.215,39.481z"/>
<path fill="#383737" d="M28.173,52.067c1.044,0.003,2.089,0.003,3.133,0.003c0.001,1.043,0.001,2.084,0,3.125c-1.042,0-2.083,0-3.13,0C28.173,54.154,28.173,53.11,28.173,52.067z"/>
<path fill="#AFAAAB" d="M37.595,30.167c-0.015,1.065-0.029,2.133-0.044,3.205c-1.092-0.144-2.185-0.287-3.281-0.437c0.13-0.918,0.188-1.837,0.174-2.759C35.494,30.174,36.545,30.171,37.595,30.167z"/>
<path fill="#ADA5A6" d="M40.685,30.195c-1.044,0-2.086,0-3.131,0.003c0-1.044,0-2.084,0.002-3.125c1.042,0,2.083,0,3.125-0.003C40.682,28.111,40.683,29.154,40.685,30.195z"/>
<path fill="#8D817E" d="M37.203,33.54c1.254-0.016,2.507-0.031,3.761-0.046c1.547,1.804,1.686,3.784,0.749,5.905c-1.001,1.065-2.226,1.706-3.671,1.929c-1.461-0.138-2.686-0.751-3.669-1.843l0.119,0.152c0.171-0.916,0.294-1.837,0.374-2.759C35.646,35.767,36.425,34.654,37.203,33.54z"/>
<path fill="#494242" d="M53.011,45.786c1.143,0.052,2.285,0.107,3.429,0.159c0.648,0.714,0.848,1.413,0.598,2.094c-0.245,0.671-0.483,1.007-0.711,1.007l0.019-0.089c-2.067,1.883-4.147,1.825-6.238,0.04l-0.131-0.132c-0.746-0.72-1.055-1.492-0.926-2.313c0.132-0.843,0.307-1.267,0.522-1.27C50.87,44.422,52.016,44.59,53.011,45.786z"/>
<path fill="#353030" d="M56.327,49.046c-0.001-1.035,0.035-2.069,0.111-3.101c0.979,0.928,1.955,1.853,2.93,2.777C58.358,48.869,57.344,48.975,56.327,49.046z"/>
<path fill="#302A27" d="M53.011,45.786c-0.919,0.012-1.836-0.019-2.751-0.098c-0.604-0.586-0.789-1.157-0.553-1.706c0.23-0.537,0.453-0.809,0.668-0.809c0.818-0.256,1.636-0.256,2.454-0.003C52.982,44.038,53.044,44.907,53.011,45.786z"/>
<path fill="#3B3334" d="M50.107,48.997c2.078-0.013,4.157-0.027,6.236-0.04c-0.042,1.028-0.038,2.057,0.021,3.082c-2.08-0.012-4.163-0.021-6.243-0.033C50.068,51.002,50.063,49.998,50.107,48.997z"/>
<path fill="#5C5151" d="M46.958,48.918c-1.024,0.033-2.048,0.063-3.07,0.098c-1.118-0.043-2.238-0.089-3.357-0.135c-0.674-1.188-0.605-2.335,0.206-3.439c1.028-0.809,2.191-1.278,3.494-1.422c1.317,0.146,2.478,0.638,3.472,1.52C48.261,46.845,48.05,47.98,46.958,48.918z"/>
<path fill="#8E8C8B" d="M40.444,45.872c0.174,1.001,0.203,2.002,0.088,3.012c-0.001-0.003-1.385,0.013-1.385,0.013s-1.375-0.153-1.374-0.153c-0.134-0.869-0.12-1.733,0.043-2.594c0,0,0.56-1.077,0.56-1.08c-0.001,0,1.216-0.067,1.216-0.067C39.592,44.999,40.444,45.872,40.444,45.872z"/>
<path fill="#726565" d="M46.958,48.918c-0.028-1.032-0.037-2.066-0.031-3.098c-0.79-0.586-1.155-1.264-1.092-2.026c0.067-0.812,0.206-1.215,0.414-1.218c1.08-0.842,2.24-1.013,3.492-0.412c0,0,0.632,1.007,0.634,1.007c-0.222,0.833-0.263,1.672-0.118,2.521c-0.091,1.056-0.185,2.118-0.278,3.173c-0.002,0-1.51,0.077-1.51,0.077L46.958,48.918z"/>
<path fill="#B28B80" d="M49.741,42.164c-0.912,0.327-1.851,0.51-2.818,0.546c-0.983,1.206-2.159,1.379-3.503,0.668c-0.322-0.607-0.644-1.218-0.967-1.825c0.16-0.668,0.319-1.336,0.478-2.005c0.969-1.062,2.184-1.547,3.608-1.535c1.422,0.037,2.63,0.564,3.625,1.584c0,0-0.087-0.229-0.089-0.229C50.085,40.315,49.974,41.245,49.741,42.164z"/>
<path fill="#6F5A56" d="M50.162,39.597c-1.067-0.019-2.134-0.037-3.2-0.058c-0.786-0.677-1.051-1.361-0.799-2.051c0.253-0.689,0.508-1.038,0.769-1.038c0.998-0.003,1.996,0,2.992,0.012C50.002,37.51,50.082,38.553,50.162,39.597z"/>
<path fill="#B2A2A2" d="M40.833,39.432c0.043-1.98,0.084-3.961,0.128-5.941c0.935-0.04,1.868-0.089,2.8-0.146c1.933,2.066,1.927,4.138,0.009,6.21l0.067-0.07C42.817,40.629,41.814,40.672,40.833,39.432z"/>
<path fill="#8D817E" d="M43.77,39.554c-0.001-2.072-0.003-4.141-0.008-6.21c1.065,0.012,2.133,0.024,3.203,0.037c-0.038,1.025-0.05,2.047-0.035,3.07c-0.026,1.032-0.017,2.063,0.031,3.091C45.897,39.546,44.834,39.549,43.77,39.554z"/>
<path fill="#524845" d="M34.372,39.485c1.047,0.042,2.095,0.082,3.142,0.122c0.992,0.763,1.59,1.758,1.797,2.991c-0.201,1.236-0.79,2.23-1.825,2.948c0,0,0.327,0.601,0.328,0.604c-1.186-0.216-2.373-0.433-3.56-0.65c-0.738-0.689-0.961-1.355-0.668-1.99c0.285-0.623,0.561-0.934,0.827-0.934C34.412,41.544,34.398,40.516,34.372,39.485z"/>
<path fill="#3B3635" d="M34.413,42.576c-0.017,0.979-0.068,1.956-0.157,2.927c-1.007-0.986-2.012-1.965-3.018-2.948C32.296,42.561,33.355,42.57,34.413,42.576z"/>
<path fill="#726B67" d="M37.577,42.496c0.035-0.964,0.014-1.929-0.063-2.89c1.106-0.055,2.211-0.113,3.317-0.171c1.001,0.131,2.002,0.149,3.006,0.049c-0.011,1.071-0.021,2.142-0.032,3.213c0.914,0.693,1.217,1.389,0.914,2.081c-0.303,0.693-0.605,1.041-0.912,1.041c-1.12,0.018-2.24,0.036-3.362,0.052c-0.001,0,0.26,0.015,0.26,0.015C39.596,44.819,38.5,43.739,37.577,42.496z"/>
<path fill="#564F50" d="M43.807,45.82c0-1.041-0.001-2.084-0.001-3.122c1.042,0,2.083-0.003,3.12,0.003c0.004,1.047,0.008,2.082,0.003,3.119C45.887,45.82,44.848,45.82,43.807,45.82z"/>
<path fill="#3B3635" d="M37.577,42.496c1.042,1.129,2.086,2.258,3.128,3.391c-1.073-0.113-2.146-0.226-3.218-0.342C37.546,44.529,37.575,43.513,37.577,42.496z"/>
</svg>