<?xml version="1.0" encoding="utf-8"?>
<!DOCTYPE svg PUBLIC "-//W3C//DTD SVG 1.1//EN" "http://www.w3.org/Graphics/SVG/1.1/DTD/svg11.dtd">
<svg version="1.1" xmlns="http://www.w3.org/2000/svg" xmlns:xlink="http://www.w3.org/1999/xlink" x="0px" y="0px" width="100px" height="100px" viewBox="0 0 100 100" enable-background="new 0 0 100 100" xml:space="preserve">
<path fill="#A3A3A3" d="M53.621,100c0.509-0.721,1.016-1.438,1.563-2.213c0.548,0.775,1.055,1.492,1.563,2.213C55.704,100,54.664,100,53.621,100z"/>
<polygon fill="#A3A3A3" points="55.258,4.025 55.589,4.975 54.692,4.858 "/>
<path fill="#777777" d="M53.748,11.997c-0.426-0.541-0.852-1.081-1.277-1.621c0.428-0.168,0.854-0.333,1.28-0.5l1.011,1.062L53.748,11.997z"/>
<path fill="#929292" d="M53.748,11.997c-0.008-0.705-0.006-1.413,0.003-2.121c0.466,0.555,0.933,1.108,1.398,1.663C54.682,11.691,54.215,11.844,53.748,11.997z"/>
<polygon fill="#949494" points="55.771,17.258 54.917,17.544 55.031,16.742 "/>
<path fill="#777777" d="M53.733,30.743c-0.425-0.537-0.848-1.077-1.271-1.614c0.424-0.168,0.85-0.333,1.274-0.497l1.025,1.056L53.733,30.743z"/>
<path fill="#8E8E8E" d="M53.733,30.743c-0.007-0.705-0.005-1.41,0.003-2.111c0.457,0.549,0.917,1.099,1.376,1.647C54.653,30.435,54.192,30.588,53.733,30.743z"/>
<path fill="#5B5B5B" d="M53.433,40.24l-0.206,0.205L53.433,40.24z"/>
<path fill="#767676" d="M53.227,40.445c0,0,0.217-0.195,0.21-0.198C53.433,40.24,53.227,40.445,53.227,40.445z"/>
<polygon fill="#A3A3A3" points="55.258,47.775 55.589,48.725 54.692,48.608 "/>
<polygon fill="#A3A3A3" points="55.847,54.761 54.898,55.094 55.012,54.196 "/>
<path fill="#777777" d="M53.748,61.996c-0.426-0.54-0.852-1.08-1.277-1.62c0.428-0.168,0.854-0.333,1.28-0.501l1.011,1.063L53.748,61.996z"/>
<path fill="#929292" d="M53.748,61.996c-0.008-0.705-0.006-1.412,0.003-2.121c0.466,0.556,0.933,1.108,1.398,1.664C54.682,61.691,54.215,61.844,53.748,61.996z"/>
<polygon fill="#949494" points="55.256,66.599 55.54,67.456 54.738,67.34 "/>
<path fill="#777777" d="M53.733,80.743c-0.425-0.537-0.848-1.077-1.271-1.614c0.424-0.168,0.85-0.332,1.274-0.497l1.025,1.056L53.733,80.743z"/>
<path fill="#8E8E8E" d="M53.733,80.743c-0.007-0.705-0.005-1.409,0.003-2.111c0.457,0.549,0.917,1.099,1.376,1.647C54.653,80.436,54.192,80.588,53.733,80.743z"/>
<path fill="#5B5B5B" d="M53.433,90.24l-0.206,0.205L53.433,90.24z"/>
<path fill="#767676" d="M53.227,90.445c0,0,0.217-0.195,0.21-0.199C53.433,90.24,53.227,90.445,53.227,90.445z"/>
</svg>