<?xml version="1.0" encoding="utf-8"?>
<!DOCTYPE svg PUBLIC "-//W3C//DTD SVG 1.1//EN" "http://www.w3.org/Graphics/SVG/1.1/DTD/svg11.dtd">
<svg version="1.1" xmlns="http://www.w3.org/2000/svg" xmlns:xlink="http://www.w3.org/1999/xlink" x="0px" y="0px" width="100px" height="100px" viewBox="0 0 100 100" enable-background="new 0 0 100 100" xml:space="preserve">
<path fill="#5FD681" d="M37.136,7.765C40.412,4.845,43.69,1.921,46.967-1c2.083,0,4.167,0,6.25,0c2.953,2.374,5.907,4.749,8.859,7.12c1.061,2.094,0.247,3.803-1.091,5.408c-1.069,0.815-2.281,1.276-3.613,1.413c-1.926,0.027-3.842-0.21-5.756-0.381c-2.54-0.07-5.044,0.357-7.57,0.656c-1.339,0.067-2.621-0.171-3.874-0.631c-1.132-0.736-2.051-1.679-2.741-2.838C37.33,9.086,37.232,8.424,37.136,7.765z"/>
<path fill="#1C572B" d="M72.015,86.677c-1.096,0.751-2.193,1.501-3.29,2.252c-1.407-0.671-2.929-1.099-4.233-1.986c-1.552-0.9-2.938,1.102-4.51,0.244c-1.665-1.09-2.504-2.674-2.904-4.563c-0.108-1.349,0.021-2.655,0.404-3.955c0.618-1.279,1.526-2.265,2.721-2.927c1.75-0.852,3.684,0.329,5.496-0.348c0.419-1.911,0.167-3.916,0.925-5.796c0.681-1.367,1.668-2.404,2.978-3.164c2.432-0.62,4.558-0.089,6.405,1.596c2.62,3.461,2.992,7.313,2.031,11.401C77.018,82.663,74.555,84.702,72.015,86.677z"/>
<path fill="#35C258" d="M9.797,20.991c6.157-3.125,12.315-6.247,18.474-9.372c2.707,2.103,3.3,5.078,3.452,8.249c-0.031,2.322-0.562,4.526-1.671,6.577c-0.875,1.233-2.029,2.142-3.391,2.786c-2.098,0.699-4.245,0.775-6.412,0.348c-2.728-0.659-5.187-1.923-7.497-3.503C11.102,24.775,9.956,23.167,9.797,20.991z"/>
<path fill="#154E24" d="M93.201,27.231c-0.759,16.663-1.517,33.322-2.275,49.981c-0.51,0.366-1.02,0.729-1.529,1.096c-0.617-0.106-1.234-0.217-1.854-0.326c-1.001-0.791-1.721-1.785-2.178-2.973c-0.326-1.205-0.445-2.438-0.422-3.681c0.093-1.218,0.358-2.41,0.711-3.576c0.53-1.709,1.05-3.428,1.327-5.216c0.02-1.232,0.092-2.45,0.11-3.689c-0.097-1.294-0.104-2.569-0.121-3.86c-0.076-3.431-0.253-6.842-0.378-10.275c-0.095-1.498-0.091-2.979-0.062-4.477C87.552,35.279,85.471,28.724,93.201,27.231z"/>
<path fill="#1B572B" d="M93.201,27.231c-0.83,5.17-1.659,10.339-2.489,15.509c-1.267,0.72-2.548,0.784-3.853,0.098c-3.351-2.484-6.266-5.417-8.843-8.707c-0.679-1.288-0.912-2.661-0.787-4.105c0.771-2.09,2.137-3.711,3.925-5.008c3.809-2.075,7.604-4.446,11.931-1.141C93.125,24.995,93.163,26.115,93.201,27.231z"/>
<path fill="#50CB72" d="M93.085,23.878c-3.917,1.077-7.834,2.154-11.751,3.235c-1.275,1.407-2.618,1.474-4.036,0.208c-1.515-1.972-2.133-4.23-2.124-6.689c0.222-2.457,1.065-4.608,3.111-6.149C83.219,17.616,88.152,20.747,93.085,23.878z"/>
<path fill="#54D87A" d="M28.376,20.802c-0.035-3.061-0.07-6.122-0.105-9.183l-0.247-0.284c1.866-1.449,4.392-1.129,6.34-2.359c0.763-0.775,1.688-1.178,2.772-1.208c0-0.003,0.401,0.598,0.401,0.598c0.801,0.928,1.375,1.978,1.762,3.144c0.986,1.55,2.791,2.515,3.197,4.486c0.25,2.039-0.267,3.848-1.573,5.441c-1.561,1.367-3.407,2.054-5.439,2.31c-1.354,0.067-2.683-0.088-3.986-0.461C30.302,22.657,29.255,21.836,28.376,20.802z"/>
<path fill="#48925C" d="M6.91,52.259c0.008-3.241,0.014-6.485,0.02-9.726c0.536-1.032,1.048-2.072,1.532-3.137c0.375-0.461,0.75-0.913,1.123-1.379c0.957-0.745,1.982-1.361,3.078-1.883c1.701-0.797,3.471-1.328,5.354-1.474c2.011,0.085,3.684,0.854,4.959,2.435c0.945,1.767,1.088,3.613,0.531,5.524c-1.384,2.954-3.917,4.575-6.76,5.817c-1.488,0.738-2.957,1.531-4.277,2.575c-0.804,0.766-1.697,1.413-2.646,1.99C8.685,53.419,7.722,53.135,6.91,52.259z"/>
<path fill="#1F582E" d="M59.423,83.302c1.051,1.067,2.104,2.136,3.157,3.204c1.65,1.224,1.765,2.582,0.343,4.067c-3.18,1.816-6.359,3.632-9.539,5.444c-1.439,1.331-2.823,1.276-4.152-0.161c-1.985-2.991-2.146-6.092-0.553-9.302C51.567,83.191,54.907,81.3,59.423,83.302z"/>
<path fill="#27793C" d="M50.147,86.487c0.04,3.067,0.081,6.134,0.121,9.201c-1.08,1.392-2.265,1.486-3.552,0.284c-3.319-2.006-6.636-4.008-9.955-6.01c1.303-2.2,3.676-3.362,5.132-5.389c0.473-1.816,0.406-3.681,0.616-5.533c0.292-1.349,0.986-2.411,2.14-3.18c1.347-0.396,2.688-0.442,4.054-0.098c1.281,0.668,2.287,1.617,3.046,2.841C52.862,81.571,52.465,84.226,50.147,86.487z"/>
<path fill="#30B251" d="M12.554,23.927c2.112,1.068,4.222,2.136,6.332,3.204c0.747,1.175,0.729,2.338-0.037,3.494c-0.873,0.928-1.855,1.73-2.925,2.42c-2.943,1.407-4.145,4.574-6.539,6.54l0.058-0.07c-0.845,1.025-1.677,1.016-2.498-0.031c0.13-5.169,0.26-10.342,0.389-15.512C9.06,22.23,10.801,22.364,12.554,23.927z"/>
<path fill="#2CBB4E" d="M78.285,14.481c-0.05,2.127-0.101,4.251-0.15,6.378c-2.21,1.859-0.724,5.472-3.385,7.123c-1.44,0.241-2.732-0.085-3.891-0.977c-1.841-2.387-2.281-5.161-2.294-8.066c0.07-2.197,0.596-4.266,1.736-6.161c0.533-0.482,1.073-0.958,1.615-1.435C74.039,12.391,76.163,13.438,78.285,14.481z"/>
<path fill="#287D3F" d="M46.897,83.243c-0.197,2.335-0.396,4.673-0.606,7.156c-3.775-0.174-6.653-0.305-9.531-0.437l-1.268,0.021l-1.055-0.705c-0.366-0.613-0.732-1.227-1.1-1.843c0.188-0.692,0.378-1.386,0.562-2.081c1.203-1.887,2.875-3.181,4.965-3.946c1.408-0.333,2.824-0.342,4.24-0.043C44.486,81.748,45.756,82.364,46.897,83.243z"/>
<path fill="#3C8F53" d="M9.263,77.316c-0.658-4.317-1.315-8.639-1.973-12.957c0.297-1.297,0.836-2.484,1.617-3.564c0.638-0.181,1.277-0.354,1.919-0.534c0.648,0.158,1.292,0.32,1.944,0.479c0.464,0.484,0.92,0.973,1.389,1.455c0.994,1.822,1.396,3.784,1.425,5.845c-0.035,1.367-0.267,2.703-0.647,4.019c-0.74,1.959-1.945,3.562-3.712,4.718C10.573,76.96,9.918,77.14,9.263,77.316z"/>
<path fill="#3C8F53" d="M7.371,61.619c-0.185-2.148-0.369-4.301-0.554-6.449c1.443-0.982,3.003-1.724,4.68-2.225c8.498-0.098,11.023,3.626,7.828,11.094c-3.648,1.604-5.246-0.342-6.729-2.536l-0.057-0.046c-0.795-1.001-1.68-1.09-2.656-0.263l-1.061,0.803L7.371,61.619z"/>
<path fill="#87DFA0" d="M59.513,11.476c0.854-1.785,1.709-3.571,2.563-5.356c3.28,1.743,6.56,3.485,9.841,5.225l0.454,1.05C67.881,14.952,63.528,15.583,59.513,11.476z"/>
<path fill="#164C22" d="M72.015,86.677c1.026-2.143,2.054-4.285,3.08-6.424c0.982-1.063,2.207-1.608,3.641-1.703c0.67,0.195,1.339,0.391,2.009,0.589c0.439,0.54,0.879,1.083,1.318,1.627C78.713,82.733,75.364,84.705,72.015,86.677z"/>
<path fill="#1F7834" d="M21.644,83.49c-1.046-0.799-2.092-1.596-3.137-2.393c-1.149-1.397-1.172-2.816-0.065-4.254c5.313-1.037,7.361,1.571,7.303,6.537c-0.671,0.454-1.343,0.909-2.016,1.361C23.034,84.323,22.338,83.905,21.644,83.49z"/>
<path fill="#235D33" d="M87.59,74c0,1.04-0.001,2.081-0.003,3.125c-0.709,1.278-1.731,2.215-3.065,2.811c-0.659,0.757-1.479,1.031-2.459,0.83c-0.534-0.092-1-0.324-1.394-0.693c-0.743-1.181-1.05-2.466-0.923-3.854c0.719-2.084,2.154-3.369,4.306-3.854C85.46,72.409,86.642,72.956,87.59,74z"/>
<path fill="#62DC85" d="M34.364,8.976c-2.113,0.788-4.227,1.575-6.34,2.359C30.137,10.548,32.25,9.764,34.364,8.976z"/>
<path fill="#1D702F" d="M21.644,83.49c1.163-0.052,2.326-0.104,3.49-0.155c1.091-0.919,2.238-1.044,3.455-0.247c0.177,0.629,0.351,1.26,0.528,1.892c-0.322,0.568-0.647,1.139-0.97,1.706C25.977,85.621,23.811,84.556,21.644,83.49z"/>
<path fill="#155224" d="M62.923,90.573c-0.114-1.354-0.229-2.713-0.343-4.067c1.045-0.003,2.092-0.003,3.139-0.003c0.807,0.613,1.075,1.227,0.809,1.84c-0.266,0.616-0.534,0.925-0.805,0.925C64.911,89.963,63.979,90.399,62.923,90.573z"/>
<path fill="#33BA56" d="M12.554,23.927c-1.74,0.015-3.479,0.03-5.219,0.045c0.821-0.995,1.641-1.986,2.461-2.981C10.716,21.97,11.636,22.947,12.554,23.927z"/>
<path fill="#287D3F" d="M46.716,95.973c1.182-0.095,2.364-0.187,3.549-0.281c1.042,0.106,2.083,0.217,3.12,0.326C51.162,96.003,48.939,95.987,46.716,95.973z"/>
<path fill="#217938" d="M18.853,77.18c-0.116,1.306-0.232,2.612-0.347,3.918c-1.936-0.485-3.873-0.97-5.809-1.452c-0.778-0.849-1.002-1.663-0.676-2.438c0.319-0.76,0.62-1.142,0.903-1.142C15.147,75.119,17.136,75.425,18.853,77.18z"/>
<path fill="#1D7F35" d="M9.455,55.237l-1.32,0.01L6.817,55.17c-0.467-0.988-0.435-1.956,0.093-2.911c0.847-0.024,1.691-0.006,2.536,0.052c0.795,0.647,1.061,1.297,0.8,1.947C9.983,54.911,9.721,55.237,9.455,55.237z"/>
<path fill="#23813B" d="M7.371,61.619c0,0,1.473,0.366,1.462,0.372c-0.232,0.964-0.742,1.752-1.542,2.368C6.873,63.432,6.9,62.519,7.371,61.619z"/>
<path fill="#3C8F53" d="M12.765,77.131c-0.029,0.839-0.052,1.675-0.067,2.515c-1.144-0.778-2.29-1.554-3.435-2.329l0.99-0.774C11.303,75.834,12.139,76.029,12.765,77.131z"/>
<path fill="#1D7E34" d="M6.947,39.484c0.833,0.055,1.665,0.064,2.498,0.031c-0.838,1.007-1.677,2.011-2.515,3.018C6.936,41.517,6.942,40.501,6.947,39.484z"/>
<path fill="#154F24" d="M84.522,79.936c1.022-0.938,2.043-1.874,3.065-2.811l0.005,0.003c0.76,0.559,1.004,1.104,0.734,1.642c-0.266,0.531-0.528,0.793-0.791,0.793C86.532,79.689,85.526,79.814,84.522,79.936z"/>
<path fill="#235D33" d="M87.535,79.563c0.011-0.812,0.029-1.623,0.057-2.435c1.112,0.027,2.224,0.058,3.334,0.085C89.795,77.997,88.666,78.781,87.535,79.563z"/>
<path fill="#2A8442" d="M31.402,88.956c-1.085-0.757-2.171-1.514-3.256-2.271l0.217-0.708c1.077-0.754,2.18-0.79,3.308-0.109C32.478,86.973,32.387,88.004,31.402,88.956z"/>
<path fill="#1D702F" d="M31.402,88.956c0.003-0.809,0.026-1.617,0.065-2.426c0.997-0.718,2.002-0.767,3.017-0.037c-0.003,0.928-0.018,1.858-0.046,2.786C33.427,89.173,32.413,89.064,31.402,88.956z"/>
<path fill="#144A1F" d="M65.723,89.268c-0.003-0.922-0.004-1.844-0.004-2.765c1.002,0.809,2.003,1.617,3.006,2.426C67.725,89.042,66.724,89.154,65.723,89.268z"/>
<path fill="#55D77B" d="M59.513,11.476c4.285,0.305,8.571,0.61,12.857,0.918c-0.205,1.715-0.409,3.43-0.615,5.146c-3.838,4.052-9.05,2.454-13.663,3.36c-1.395,0.042-2.771-0.113-4.13-0.409c-1.329-0.415-2.522-1.092-3.583-1.993c-0.824-1.138-1.181-2.411-1.009-3.821c1.206-1.785,2.93-2.722,5.034-3.024c0.67-0.04,1.341-0.079,2.014-0.116C57.45,11.53,58.482,11.509,59.513,11.476z"/>
<path fill="#5EDA81" d="M50.092,14.598c0,1.05-0.001,2.1-0.001,3.146c-0.408,0.431-0.813,0.861-1.218,1.294c-1.723,0.754-3.43,0.717-5.123-0.094c-1.298-1.227-1.831-2.997-3.021-4.306c-1.009-1.108-2.018-2.219-3.026-3.33c1.056-0.931,2.055-0.921,2.989,0.183c1.05,0.003,2.101,0.006,3.151,0.006c1.886-1.801,4.022-1.584,6.231-0.775c0.762,0.857,1.018,1.718,0.77,2.582C50.596,14.167,50.346,14.598,50.092,14.598z"/>
<path fill="#87DFA0" d="M50.109,11.42c-2.087,0.024-4.176,0.052-6.265,0.077c3.125-0.833,6.248-1.664,9.372-2.497c0.799,0.678,1.086,1.379,0.865,2.103c-0.227,0.739-0.466,1.108-0.718,1.108C52.045,12.904,50.962,12.638,50.109,11.42z"/>
<path fill="#87DFA0" d="M40.693,11.491c-1-0.012-1.998-0.07-2.991-0.18c-0.078-0.979-0.133-1.962-0.165-2.945C38.589,9.41,39.641,10.45,40.693,11.491z"/>
<path fill="#87DFA0" d="M53.217,11.259c0-0.757,0-1.514-0.001-2.264c1.066,0.851,2.135,1.693,3.202,2.539c0,0.003-0.066-0.006-0.066-0.006C55.198,12.721,54.153,12.632,53.217,11.259z"/>
<path fill="#235D33" d="M68.831,70.859c-0.28,2.447-0.563,4.892-0.854,7.431c-3.443-0.448-5.996-0.781-8.551-1.113c-0.972,1.019-2.157,1.614-3.557,1.788c-1.395-0.155-2.618-0.699-3.676-1.62c-0.794-1.123-1.378-2.351-1.807-3.656c-0.603-2.674-0.545-5.353,0-8.026c0.337-1.27,0.906-2.441,1.663-3.513c0.941-0.885,2.06-1.434,3.35-1.59c1.099,0.149,1.807,0.708,2.13,1.746c1.194-0.195,1.397-1.785,2.626-1.904c1.275-0.122,2.438,0.192,3.516,0.866c1.375,1.304,2.373,2.859,3.119,4.59C67.289,67.594,67.407,69.492,68.831,70.859z"/>
<path fill="#175024" d="M84.465,74c-1.051,1.05-2.104,2.1-3.155,3.149c-0.955,1.102-1.978,2.139-3.076,3.097c-1.047,0.004-2.092,0.004-3.139,0.007c-0.001-4.169-0.004-8.338-0.008-12.51c-0.012-0.589-0.025-1.175-0.045-1.77c0.167-1.188,0.535-2.313,1.054-3.396c0.62-1.056,1.454-1.904,2.452-2.604c2.26-1.107,4.611-1.297,7.039-0.687c1.131,0.421,2.078,1.107,2.813,2.066c0.298,1.159,0.176,2.292-0.301,3.387c-1.397,1.871-2.314,3.913-2.152,6.326C85.823,72.23,85.348,73.219,84.465,74z"/>
<path fill="#286037" d="M78.257,61.512c-0.023,1.028-0.045,2.054-0.064,3.079c-1.074,1.014-2.125,2.048-3.104,3.156l-0.002-0.004c-2.073,0.016-4.146,0.031-6.219,0.043c-2.422-2.118-2.979-4.8-2.382-7.84c0.583-2.146,1.737-3.958,3.234-5.575c1.52-1.575,3.274-2.796,5.391-3.445c1.458-0.104,2.799,0.244,4,1.092c1.326,1.801,1.741,3.818,1.405,6.013C80.024,59.355,79.267,60.517,78.257,61.512z"/>
<path fill="#356242" d="M50.147,86.487c-0.025-3.104-0.052-6.207-0.077-9.311c0.519-0.409,1.036-0.818,1.555-1.228c0.531,0.391,1.062,0.785,1.593,1.176h-0.021c1.604,2.005,4.722,1.074,6.252,3.223c-0.02,0.985-0.027,1.968-0.024,2.954C56.331,84.363,53.239,85.426,50.147,86.487z"/>
<path fill="#2D613B" d="M68.855,58.397c0.004,3.131,0.007,6.259,0.012,9.39c-0.011,1.025-0.022,2.051-0.035,3.073c-1.044-1.037-2.087-2.078-3.131-3.119c-1.641-1.602-1.465-3.701-1.561-5.725c-0.181-1.404,0.104-2.695,0.929-3.854C66.375,57.502,67.638,57.581,68.855,58.397z"/>
<path fill="#145423" d="M59.448,80.348c-2.084-1.074-4.167-2.148-6.252-3.223c2.077,0.018,4.155,0.033,6.232,0.052C59.434,78.232,59.44,79.288,59.448,80.348z"/>
<path fill="#49D170" d="M28.376,20.802c0.99,0.037,1.98,0.061,2.971,0.07c1.044,1.117,2.09,1.175,3.142,0.009c2.075,0,4.15,0,6.226,0c0.663,0.281,1.326,0.562,1.991,0.842c1.052,1.038,1.749,2.277,2.098,3.717c-0.171,1.532-0.894,2.722-2.164,3.592c-2.023,1.065-4.19,1.517-6.462,1.553c-3.085-0.146-5.977-0.76-7.95-3.464C28.277,25.016,28.326,22.91,28.376,20.802z"/>
<path fill="#40C766" d="M28.228,27.122c3.125,0.006,6.25,0.012,9.375,0.019c1.379,3.977-1.599,4.746-4.235,5.777c-1.415,0.238-2.832,0.232-4.248,0.021c-1.383-0.375-2.622-1.038-3.72-1.956c-0.902-1.206-1.021-2.494-0.357-3.854C26.104,27.128,27.166,27.125,28.228,27.122z"/>
<path fill="#2FB150" d="M25.042,27.128c0.03,1.019,0.044,2.036,0.042,3.055c0,0-0.969,1.211-0.967,1.215c0,0.003-1.46,0.54-1.46,0.54s-1.556-0.046-1.556-0.04c-0.001,0.003-1.427-0.626-1.428-0.623l-0.771-1.355c-0.024-0.928-0.031-1.859-0.016-2.79C20.939,27.131,22.99,27.131,25.042,27.128z"/>
<path fill="#195629" d="M78.257,61.512c-0.008-1.044-0.016-2.09-0.021-3.134c4.1-3.724,4.051-10.199,8.903-13.428c1.418-0.568,2.6-0.214,3.573,0.931c0.002,4.166,0.003,8.328,0.005,12.494c-1.178,0.894-1.18,2.963-3.111,3.101C84.49,61.487,81.372,61.5,78.257,61.512z"/>
<path fill="#144C1F" d="M84.469,70.878c1.019-2.072,2.04-4.147,3.061-6.223c0.459,0.51,0.919,1.02,1.383,1.525c-0.438,0.528-0.881,1.054-1.323,1.578c-0.002,1.038,0,2.078,0.003,3.116C86.553,72.023,85.511,72.023,84.469,70.878z"/>
<path fill="#145322" d="M90.712,45.881c-1.037-0.006-2.076-0.009-3.114-0.015c-0.261-0.516-0.521-1.035-0.785-1.553c0.258-0.519,0.517-1.038,0.777-1.557c1.041-0.003,2.082-0.009,3.122-0.015C90.712,43.788,90.712,44.834,90.712,45.881z"/>
<path fill="#144B20" d="M87.606,61.476c1.038-1.035,2.074-2.066,3.111-3.101c-0.005,1.053-0.008,2.108-0.011,3.161c-1.05,1.453-2.084,1.443-3.106-0.027L87.606,61.476z"/>
<path fill="#325D3E" d="M87.6,61.509c1.036-0.006,2.07,0.003,3.106,0.027c-0.005,1.017-0.017,2.032-0.036,3.052c-1.011,1.038-2.023,1.041-3.038,0.006c0,0-0.101,0.062-0.103,0.062C87.552,63.608,87.575,62.559,87.6,61.509z"/>
<path fill="#235D33" d="M87.632,64.594c1.013,0.021,2.026,0.019,3.039-0.006c-1.028,1.056-2.056,2.115-3.082,3.171C87.603,66.706,87.616,65.65,87.632,64.594z"/>
<path fill="#386245" d="M84.469,70.878c1.04-0.003,2.082-0.003,3.123-0.003c0,1.04,0,2.084,0,3.125c-1.042,0-2.084,0-3.125,0C84.467,72.959,84.467,71.918,84.469,70.878z"/>
<path fill="#37BD58" d="M31.266,30.311c2.112-1.056,4.224-2.112,6.337-3.171c2.074-0.009,4.147-0.019,6.221-0.027c1.157-1.242,2.507-2.216,4.045-2.942c2.398-0.903,4.904-1.181,7.443-1.27c5.949-0.141,11.932-0.373,16.685,4.22c1.057,0,2.11-0.003,3.167-0.003c0.983-1.572,2.075-1.727,3.288-0.247c0.964,0.04,1.926,0.119,2.882,0.241c-1.053,1.144-2.107,2.289-3.161,3.436c-0.993,1.52-1.464,3.388-2.984,4.563c-1.442,1.12-3.024,2.011-4.649,2.823c-1.036,0.58-2.118,1.071-3.205,1.544c-1.585,0.757-3.216,1.413-4.907,1.901c-1.707,0.36-3.379,0.263-4.974-0.473c-0.893-0.617-1.554-1.44-1.974-2.438c-0.061-1.572,0.731-2.783,1.73-3.87c-0.02,0.03,1.269-0.131,1.269-0.131s-1.058-0.754-1.07-0.72c-0.613,0.69-1.238,1.325-1.902,1.962c-0.654,0.745-1.338,1.422-2.073,2.078c-0.01,0.021-1.388,0.58-1.396,0.598c-0.007,0.019-1.515,0.275-1.515,0.275s-1.524-0.092-1.524-0.073c-1.015-0.104-1.964-0.421-2.846-0.9c-0.852-0.397-1.709-0.824-2.576-1.187c-0.005,0.058-1.369-0.15-1.369-0.15s-1.376,0.067-1.383,0.128c-1.43,0.522-2.772,1.199-4.217,1.69c-1.102,0.281-2.196,0.345-3.322,0.22c-0.554-0.186-1.085-0.381-1.634-0.574c-0.453-0.378-0.888-0.76-1.336-1.144c-0.58-1.059-0.862-2.188-0.867-3.391C29.74,32.096,30.347,31.107,31.266,30.311z"/>
<path fill="#155323" d="M78.234,33.347c3.119,3.137,6.238,6.271,9.356,9.409l0.007-0.006c-5.489,2.218-7.628-1.725-9.929-5.387c-0.135-0.696-0.257-1.4-0.382-2.1C77.599,34.626,77.916,33.985,78.234,33.347z"/>
<path fill="#145322" d="M74.585,33.168c1.196-0.876,2.393-1.752,3.589-2.622c0.008,0.937,0.027,1.871,0.059,2.801c0.001,0,0.004,0,0.004,0C76.969,34.312,75.751,34.251,74.585,33.168z"/>
<path fill="#40C062" d="M78.452,26.872c-1.098,0.083-2.194,0.165-3.29,0.247c0.992-2.087,1.983-4.175,2.974-6.259C78.24,22.865,78.347,24.867,78.452,26.872z"/>
<path fill="#4AD772" d="M40.73,14.637c1.06,1.05,2.122,2.1,3.183,3.149c0.789,1.059,0.778,2.109-0.029,3.152c-1.066,0.772-2.12,0.754-3.157-0.055l-0.012-0.003C40.719,18.8,40.725,16.718,40.73,14.637z"/>
<path fill="#59D17B" d="M34.489,20.881c-1.046-0.003-2.095-0.006-3.142-0.009C32.394,20.875,33.442,20.878,34.489,20.881z"/>
<path fill="#32904C" d="M9.455,55.237c-0.005-0.977-0.008-1.953-0.009-2.93c0.047-1.077,0.096-2.157,0.145-3.237c0.423-0.37,0.844-0.736,1.267-1.105c0.56,0.016,1.12,0.031,1.681,0.043c1.604,0.562,3.249,0.94,4.949,1.102c1.152,0.165,2.252,0.494,3.319,0.955c1.041,0.562,1.902,1.325,2.617,2.265c0.572,1.017,0.981,2.103,1.27,3.231c0.396,1.682,0.677,3.391,1.066,5.082c0.542,1.693,1.116,3.369,1.613,5.081c0.304,1.214,0.434,2.435,0.421,3.68c-0.172,1.944-0.813,3.681-2.207,5.088c-2.031,0.839-3.608,0.21-4.849-1.496c-0.317-1.043-0.35-2.166-0.735-3.289c-0.157,0.534-0.286,0.974-0.415,1.422c-0.533,0.302-1.067,0.598-1.602,0.897c-0.614-0.024-1.226-0.052-1.839-0.08c-0.495-0.362-0.987-0.729-1.481-1.092c-0.541-1.108-1.219-2.124-2.039-3.046c-0.011-2.1-0.02-4.202-0.031-6.305c1.753,0.323,3.506,0.646,5.258,0.971c0.421-1.105,0.842-2.21,1.263-3.312C15.896,57.853,12.677,56.544,9.455,55.237z"/>
<path fill="#399052" d="M21.968,42.75c0.009-2.072,0.02-4.142,0.029-6.213c0.51-0.507,1.018-1.01,1.524-1.523c2.943-1.306,5.568-0.91,7.82,1.468l0.079-0.009c0.755,1.2,0.897,2.472,0.446,3.812c-2.501,3.961-2.958,8.966-6.33,12.493c-1.343,0.642-2.533,0.425-3.563-0.649l-0.026,0.012C19.282,49.003,19.673,45.875,21.968,42.75z"/>
<path fill="#3D9255" d="M21.968,42.75c-0.006,3.128-0.012,6.259-0.02,9.39c-2.077-0.006-4.153-0.012-6.231-0.018c-0.978-1.105-2.016-2.148-3.126-3.119h-0.002c-0.725-0.687-0.967-1.373-0.728-2.061c0.241-0.689,0.48-1.034,0.723-1.034C15.711,44.856,18.84,43.803,21.968,42.75z"/>
<path fill="#298442" d="M9.386,39.585c0-2.841,0-5.679,0-9.976c2.479,0.281,4.434,0.5,6.387,0.72c0.418,0.458,0.836,0.916,1.256,1.374c-0.05,0.616-0.101,1.233-0.146,1.852c-0.766,0.968-1.52,1.944-2.252,2.939c-0.549,1.105-1.204,2.146-1.959,3.125C11.578,39.606,10.482,39.597,9.386,39.585z"/>
<path fill="#5B956C" d="M21.996,36.537c-2.09-0.009-4.181-0.019-6.271-0.028c-0.398-0.534-0.796-1.068-1.199-1.602c0.438-0.5,0.88-1.001,1.323-1.501l-0.06,0.107c0.851-1.089,1.953-1.654,3.348-1.608c0.656,0.058,1.314,0.119,1.97,0.177c0.569,0.333,1.137,0.668,1.706,1.001c0.503,1.333,0.262,2.481-0.847,3.415L21.996,36.537z"/>
<path fill="#5B956C" d="M12.672,39.619c-0.047-1.013-0.072-2.026-0.07-3.042c1.021-1.065,2.063-1.086,3.126-0.064l-0.003-0.003C14.707,37.546,13.69,38.581,12.672,39.619z"/>
<path fill="#3C8F53" d="M12.583,45.908c0.006,1.031,0.008,2.063,0.004,3.095c-0.999,0.003-2,0.024-2.998,0.063C10.589,48.017,11.585,46.961,12.583,45.908z"/>
<path fill="#247F3A" d="M34.484,86.493c-1.007,0.007-2.013,0.019-3.018,0.037c-1.033-0.181-2.069-0.363-3.105-0.55c-0.073-0.869-0.122-1.739-0.146-2.612c-2-1.886-2.452-4.281-2.287-6.878c0.461-1.136,0.961-2.262,1.473-3.369c0.558-1.06,1.312-1.972,2.2-2.677c0.682-0.519,1.526-0.839,2.352-0.931c2.179,0.65,1.107-0.903,1.066-1.88c0.006-0.095,0.394-1.4,0.4-1.495c0.006-0.092,0.636-1.499,0.639-1.575c1.922-3.656,4.008-7.062,8.386-8.108c1.546-0.092,3.012,0.177,4.439,0.79c1.286,0.989,2.179,2.243,2.716,3.767c0.396,5.584,1.69,11.31-2.637,16.113c-1.033-0.004-2.066-0.004-3.099-0.007c-0.807,1.008-1.732,1.893-2.757,2.674c-3.064,1.4-4.864,4.053-6.644,6.726L34.484,86.493z"/>
<path fill="#1E7231" d="M46.961,77.125c-0.009-6.263-0.019-12.521-0.027-18.781c-2.258-2.413-3.386-5.196-2.828-8.541c0.331-1.56,1.028-2.937,2.072-4.136c1.442-0.726,2.92-0.833,4.432-0.226c1.697,1.706,2.535,3.824,2.935,6.149c0.435,3.027,0.189,5.99-0.95,8.847c-0.501,1.364-0.829,2.777-0.943,4.233c-0.05,2.874-0.012,5.752-0.052,8.633c0.061,1.495-0.442,2.768-1.506,3.817c0,0-0.023,0.056-0.024,0.056C49.033,77.146,47.997,77.128,46.961,77.125z"/>
<path fill="#1D702F" d="M40.718,77.14c1.048-0.009,2.096-0.015,3.145-0.021c-0.038,0.938-0.087,1.874-0.145,2.811c-0.29,0.501-0.581,1.005-0.871,1.508c-1.206,0.046-2.254-0.326-3.124-1.178C39.518,79.047,39.824,78,40.718,77.14z"/>
<path fill="#519365" d="M46.897,83.243l-1.524,0.138l-1.53-0.006c-1.071-0.693-1.427-1.386-1.07-2.079c0.355-0.692,0.711-1.037,1.073-1.037c0,0-0.127-0.323-0.128-0.326C44.778,81.034,45.837,82.139,46.897,83.243z"/>
<path fill="#247F3A" d="M18.844,33.366c-1.02,0.042-2.037,0.091-3.055,0.144c-0.006-1.059-0.011-2.121-0.016-3.18c1.042-0.134,2.084-0.269,3.128-0.406c0-0.003-0.06,0.33-0.06,0.33c1.069,0.693,1.427,1.382,1.071,2.075C19.56,33.021,19.204,33.366,18.844,33.366z"/>
<path fill="#40C261" d="M71.997,27.122c-6.329-0.055-12.658-0.113-18.987-0.167c-1.112-2.521,1.072-4.279,1.454-6.461c0.323-1.102,0.949-2.008,1.842-2.731c5.151-0.073,10.303-0.144,15.452-0.22C71.836,20.734,71.917,23.93,71.997,27.122z"/>
<path fill="#1D702F" d="M40.718,77.14c0,1.038,0.001,2.075,0.001,3.116c0.92,0.695,1.224,1.392,0.914,2.084c-0.309,0.689-0.617,1.035-0.926,1.035c-2.083,1.05-4.164,2.096-6.246,3.143C36.546,83.393,38.632,80.265,40.718,77.14z"/>
<path fill="#589469" d="M40.707,83.375c0.003-1.041,0.007-2.085,0.012-3.122c1.042-0.003,2.083-0.007,3.125,0c-0.001,1.043-0.003,2.084-0.001,3.122C42.797,83.375,41.752,83.375,40.707,83.375z"/>
<path fill="#2A8442" d="M28.222,74.003c-0.003,3.122-0.004,6.243-0.008,9.365c-1.027-0.003-2.054-0.012-3.082-0.033c-2.092-2.054-4.186-4.104-6.279-6.158c-2.031-0.016-4.062-0.031-6.091-0.046c-0.868-0.064-1.708-0.257-2.513-0.586c0.798-1.901,1.591-3.8,2.385-5.697c1.047-0.968,2.086-0.959,3.119,0.021l-0.037-0.03c1.002,1.068,2.035,1.099,3.097,0.089l0.061-0.138c1.058-0.814,2.087-0.744,3.095,0.089c1.038,1.037,2.077,2.075,3.114,3.115C26.135,72.919,27.18,72.867,28.222,74.003z"/>
<path fill="#23813B" d="M9.883,61.194c0.885,0.089,1.771,0.177,2.656,0.266C11.646,61.441,10.76,61.356,9.883,61.194z"/>
<path fill="#1D7F35" d="M15.753,70.868c-1.041-0.006-2.08-0.012-3.119-0.021c-0.049-1.014-0.052-2.026-0.007-3.04C13.668,68.83,14.71,69.85,15.753,70.868z"/>
<path fill="#144A1F" d="M78.234,80.246c1.025-1.031,2.051-2.065,3.076-3.097c-0.009,1.016-0.22,1.992-0.636,2.923C79.861,80.17,79.049,80.229,78.234,80.246z"/>
<path fill="#63DA85" d="M53.217,11.259c1.046,0.088,2.089,0.177,3.135,0.266c-2.086,1.025-4.174,2.051-6.26,3.073c0.006-1.059,0.013-2.118,0.017-3.177C51.147,11.399,52.183,11.344,53.217,11.259z"/>
<path fill="#7BDD96" d="M50.091,17.744c1.036,0.019,2.072,0.046,3.107,0.077c0.854,0.689,1.209,1.443,1.06,2.261c-0.154,0.851-0.354,1.279-0.597,1.275c-1.303,0.702-2.611,0.705-3.92,0.012c-0.887-1.3-0.702-2.478,0.405-3.552L50.091,17.744z"/>
<path fill="#74DD91" d="M53.178,20.75c0.022-0.977,0.028-1.957,0.021-2.933c1.036-0.049,2.072-0.067,3.108-0.055c0.062,1.031,0.081,2.063,0.06,3.094C55.268,21.894,54.206,21.857,53.178,20.75z"/>
<path fill="#68DC88" d="M50.147,17.817c-0.024,1.004-0.022,2.008,0.005,3.009c-1.348,1.617-3.058,1.956-5.015,1.428c-0.429-0.455-0.856-0.913-1.285-1.367c0-1.035,0.02-2.069,0.061-3.101C45.991,17.796,48.069,17.808,50.147,17.817z"/>
<path fill="#296038" d="M65.723,58.365c-0.004,1.047-0.009,2.097-0.014,3.144c-1.037,1.568-2.078,1.568-3.117,0c-1.037,0-2.076,0.003-3.114,0.003c-0.835-0.955-1.178-2.06-1.051-3.323c0.456-2.426,1.449-4.672,2.344-6.964c0.61-1.819,1.259-3.616,1.991-5.398c0.863-1.914,1.98-3.564,4.164-4.154c1.493,0.107,2.668,0.785,3.593,1.944c1.897,3.476,1.862,6.963,0.086,10.467C69.509,56.116,67.415,57.011,65.723,58.365z"/>
<path fill="#3A6245" d="M50.094,73.996c0.012-3.118,0.024-6.237,0.036-9.356c1.012-1.528,2.04-1.471,3.086-0.033c0,3.131,0.001,6.262,0.001,9.394C52.175,75.156,51.134,75.156,50.094,73.996z"/>
<path fill="#2C613B" d="M59.483,58.384c-0.002,1.044-0.003,2.084-0.005,3.128c-1.045-0.003-2.09-0.003-3.136-0.006c-0.58-0.665-0.778-1.337-0.597-2.015c0.182-0.677,0.368-1.016,0.559-1.016c0.522-0.25,1.045-0.504,1.568-0.754C58.409,57.941,58.946,58.164,59.483,58.384z"/>
<path fill="#216033" d="M62.592,61.509c1.039-0.006,2.078-0.006,3.117,0c-0.003,2.078-0.006,4.156-0.009,6.231C64.664,65.665,63.628,63.587,62.592,61.509z"/>
<path fill="#3C6347" d="M56.336,58.368c0.003,1.047,0.005,2.091,0.006,3.138c-1.045,0-2.089,0.003-3.133,0.003c-0.404-0.382-0.809-0.763-1.216-1.145c-0.017-1.169,0.45-2.114,1.335-2.862c0.554-0.04,1.109-0.079,1.663-0.116C55.439,57.713,55.888,58.042,56.336,58.368z"/>
<path fill="#1A5628" d="M53.216,64.606c-1.028,0.006-2.058,0.019-3.086,0.033c-0.003-1.053-0.008-2.103-0.012-3.155c1.033-1.452,2.075-1.462,3.128-0.021l-0.037,0.046C53.211,62.54,53.213,63.572,53.216,64.606z"/>
<path fill="#145423" d="M50.094,73.996C51.134,74,52.177,74,53.217,74c0,1.04,0,2.084,0,3.125h-1.563h-1.563C50.094,76.081,50.094,75.04,50.094,73.996z"/>
<path fill="#1C572B" d="M75.089,67.747c1.034-1.05,2.069-2.104,3.104-3.156C77.158,65.644,76.123,66.697,75.089,67.747z"/>
<path fill="#1B572B" d="M78.223,36.5c3.125,2.084,6.25,4.166,9.374,6.25c0,1.041,0,2.078,0.001,3.116c-3.122,4.171-6.242,8.34-9.362,12.512c-0.006-2.085-0.013-4.169-0.019-6.253c-2.965-2.747-3.705-6.201-3.228-10.059c0.273-1.462,0.791-2.838,1.554-4.12C77.097,37.461,77.66,36.982,78.223,36.5z"/>
<path fill="#1E5C30" d="M78.211,39.622c0.003,4.169,0.005,8.334,0.006,12.503c-1.047,0.006-2.095,0.009-3.144,0.015c-1.077,1.264-2.281,1.398-3.613,0.412c-1.643-4.321-1.596-8.496,1.084-12.445c0.578-0.442,1.164-0.879,1.745-1.318C75.762,38.279,77.07,38.56,78.211,39.622z"/>
<path fill="#366243" d="M65.723,58.365c1.046-1.047,2.091-2.097,3.135-3.143c0.521-0.452,1.042-0.907,1.563-1.358c0.512,0.464,1.024,0.928,1.535,1.389c-1.034,1.05-2.069,2.097-3.102,3.144C67.811,58.387,66.767,58.378,65.723,58.365z"/>
<path fill="#30623E" d="M71.972,52.14c1.034-0.003,2.069-0.003,3.104,0c-1.041,1.038-2.08,2.075-3.119,3.113h0.011c-0.92-0.693-1.226-1.386-0.918-2.075C71.356,52.488,71.662,52.14,71.972,52.14z"/>
<path fill="#40C261" d="M47.111,27.024c-1.095,0.031-2.189,0.058-3.287,0.089c0.017-1.007,0.04-2.014,0.067-3.021c0.677-0.213,1.353-0.43,2.031-0.647C47.181,24.348,47.577,25.544,47.111,27.024z"/>
<path fill="#6ADB89" d="M40.726,20.884c1.041,0,2.083,0,3.125,0c0,0.003-0.012-0.003-0.012-0.003c1.086,0.687,1.44,1.364,1.067,2.029c-0.37,0.659-0.739,0.989-1.112,0.989c0,0,0.098,0.189,0.098,0.192C42.837,23.023,41.781,21.952,40.726,20.884z"/>
<path fill="#2CA646" d="M31.266,30.311c0.043,1.025,0.067,2.047,0.075,3.073c-1.044,1.166-2.248,1.31-3.589,0.568c-0.785-1.325-0.623-2.524,0.483-3.595C29.246,30.308,30.256,30.295,31.266,30.311z"/>
<path fill="#38A250" d="M28.236,30.356c-0.011,1.001-0.015,2.005-0.014,3.009c-1.089,1.038-2.28,1.172-3.572,0.396c-0.865-1.275-0.718-2.423,0.439-3.439l-0.004-0.141C26.135,30.241,27.186,30.299,28.236,30.356z"/>
<path fill="#5B956C" d="M25.089,30.323c0.003,1.016,0.005,2.032,0.006,3.052c-1.038,1.275-2.078,1.275-3.122,0.006l-0.007-0.009c-0.835-0.692-1.112-1.385-0.835-2.078c0.278-0.693,0.556-1.041,0.836-1.041C23.008,30.253,24.049,30.277,25.089,30.323z"/>
<path fill="#1D7E34" d="M21.968,30.253c0,1.041,0,2.081-0.001,3.122c-1.041,0-2.083,0-3.124-0.003c0-1.043,0-2.084,0-3.119C19.885,30.25,20.925,30.25,21.968,30.253z"/>
<path fill="#5EDB80" d="M43.794,23.899c0.027-1.004,0.041-2.011,0.045-3.018c2.104-0.018,4.207-0.037,6.312-0.055c1.012,0.021,2.02-0.003,3.028-0.076c1.063,0.036,2.124,0.07,3.188,0.106c-1.117,2.033-2.235,4.068-3.355,6.101c-1.968,0.021-3.935,0.046-5.9,0.067C46.006,25.983,44.9,24.94,43.794,23.899z"/>
<path fill="#296038" d="M74.585,33.168c1.217,0.061,2.435,0.122,3.65,0.18c-0.003,1.053-0.008,2.103-0.013,3.153l-0.05-0.009c-1.041,1.031-1.822,2.316-3.087,3.122l-0.002,0.003c-2.008,1.81-4.208,1.761-6.517,0.681c-1.104-1.422-1.085-2.826,0.058-4.218C70.613,35.108,72.599,34.138,74.585,33.168z"/>
<path fill="#3C6347" d="M68.625,36.079c0.078,1.184,0.156,2.368,0.232,3.552c0.89,0.699,1.173,1.379,0.855,2.048c-0.314,0.659-0.624,0.989-0.931,0.989c-1.021,0.024-2.041,0.055-3.063,0.085c-0.848,0.967-1.869,1.7-3.035,2.243c-1.265,0.271-2.534,0.29-3.81,0.076c-1.242-0.394-2.303-1.077-3.187-2.033c-0.12-0.625-0.239-1.257-0.358-1.886c0.303-0.562,0.604-1.126,0.908-1.688c2.002,0.042,4.005,0.088,6.007,0.134c1.201-0.9,2.428-1.767,3.403-2.93C66.639,36.463,67.631,36.265,68.625,36.079z"/>
<path fill="#58956A" d="M21.973,33.381c1.041-0.006,2.08-0.009,3.121-0.006c1.042,0,2.084,0,3.126-0.006c1.041,0.003,2.081,0.009,3.121,0.012c0.003,1.038,0.003,2.075,0,3.104c-3.125,0.003-6.25,0.009-9.375,0.012C21.966,35.459,21.968,34.419,21.973,33.381z"/>
<path fill="#48D16F" d="M46.853,36.39c1.058,0.055,2.115,0.11,3.174,0.167c0.809,0.632,1.177,1.352,1.102,2.155c-0.079,0.845-0.228,1.27-0.442,1.27c-1.736,1.336-3.613,1.507-5.607,0.668c-1.048-0.903-1.56-2.036-1.442-3.43C44.456,35.975,45.541,35.743,46.853,36.39z"/>
<path fill="#145322" d="M65.649,36.671c-1.134,0.977-2.266,1.953-3.401,2.93C63.379,38.624,64.513,37.648,65.649,36.671z"/>
<path fill="#40C261" d="M50.053,39.558c0.017-1.001,0.009-2.002-0.026-3.003c1.08,0.027,2.162,0.052,3.244,0.076c0.697,0.705,0.993,1.459,0.885,2.262c-0.111,0.824-0.266,1.239-0.462,1.239C52.379,40.586,51.16,40.431,50.053,39.558z"/>
<path fill="#45CE6B" d="M53.26,39.53c-0.014-0.967-0.011-1.935,0.009-2.902c0.002,0.003-0.047-0.144-0.047-0.144c0.521-0.403,1.041-0.802,1.561-1.208c0.528,0.391,1.057,0.785,1.584,1.181c-0.039,1.004-0.082,2.005-0.126,3.009c-0.002,0,0.111,0.155,0.111,0.155C55.288,40.708,54.258,40.678,53.26,39.53z"/>
<path fill="#589369" d="M34.582,36.509c0.981-0.012,1.961,0.003,2.942,0.043l0.763,1.294c-0.075,1.147-0.657,1.904-1.749,2.268c-1.129,0.195-2.023-0.174-2.688-1.105c-0.003,0-0.403-1.474-0.403-1.474L34.582,36.509z"/>
<path fill="#1D7E34" d="M34.582,36.509c-0.052,1.053-0.104,2.103-0.154,3.156c0,0-0.92,0.839-0.918,0.842c0,0-1.247-0.019-1.247-0.015c-0.001,0.003-0.876-0.888-0.876-0.888c0.011-1.044,0.02-2.087,0.032-3.131C32.474,36.484,33.528,36.497,34.582,36.509z"/>
<path fill="#5AC476" d="M59.435,33.607c-1.021,0.949-2.046,1.898-3.068,2.85l0.051,0.07c-0.777-0.702-1.036-1.401-0.78-2.106c0.257-0.702,0.513-1.053,0.772-1.053l-0.037,0.107C57.437,32.529,58.458,32.523,59.435,33.607z"/>
<path fill="#2CA646" d="M56.409,33.369c0.003,1.053,0.005,2.106,0.008,3.159c-1.065-0.015-2.13-0.027-3.195-0.043C54.283,35.444,55.347,34.406,56.409,33.369z"/>
<path fill="#2CA646" d="M46.853,36.39l-1.517,0.049l-1.517-0.016L42.81,35.52c-0.001,0-0.047-1.352-0.049-1.352s1.12-0.763,1.12-0.763C44.872,34.4,45.863,35.395,46.853,36.39z"/>
<path fill="#2CA646" d="M37.524,36.552c1.048-1.047,2.097-2.094,3.146-3.144c0.424,0.403,0.847,0.803,1.272,1.206c-0.038,1.224-0.559,2.207-1.497,2.979c-1.228,0.354-2.192-0.006-2.892-1.077L37.524,36.552z"/>
<path fill="#33B451" d="M59.435,33.607l-1.527-0.141c0,0-1.535,0.006-1.535,0.009c0.536-0.528,1.071-1.056,1.615-1.605C58.476,32.435,58.956,33.021,59.435,33.607z"/>
<path fill="#2FB54F" d="M40.67,33.408c1.069,0,2.141,0,3.212-0.003l-0.04-0.03c-1.042,1.44-2.084,1.51-3.125,0L40.67,33.408z"/>
<path fill="#3E9256" d="M25.098,67.707c-0.004-1.041-0.009-2.081-0.015-3.125c-1.142-0.922-1.955-2.179-3.116-3.082c0.006-2.091,0.012-4.182,0.017-6.271c1.23-1.468,3.044-1.499,4.703-1.92c1.158,0.122,2.274,0.418,3.345,0.86c1.557,1.05,3.446-0.283,5.037,0.678c0.883,0.982,1.442,2.109,1.753,3.379c-0.401,3.277-0.296,6.671-2.354,9.524l0,0C31.335,70.051,28.21,70.289,25.098,67.707z"/>
<path fill="#2E8947" d="M25.098,67.707c3.124,0.016,6.246,0.027,9.369,0.043c0.012,1.05,0.024,2.103,0.037,3.155l-0.008,0.006c-1.043-0.003-2.087-0.006-3.133-0.009c-1.066,1.013-2.336,1.821-3.142,3.101l0,0c-1.047-0.003-2.092-0.007-3.137-0.01C25.089,71.897,25.094,69.804,25.098,67.707z"/>
<path fill="#529465" d="M28.261,55.243c-2.092-0.006-4.186-0.009-6.277-0.015c-0.011-1.035-0.015-2.066-0.012-3.101c1.053-0.027,2.104-0.059,3.156-0.086c1.06-1.019,2.208-1.184,3.459-0.356C29.341,52.948,29.193,54.133,28.261,55.243z"/>
<path fill="#49925E" d="M21.968,61.5c1.039,1.028,2.078,2.057,3.116,3.085C24.046,63.557,23.007,62.528,21.968,61.5z"/>
<path fill="#3C8F53" d="M21.969,70.878c-1.033,0.006-2.064-0.024-3.095-0.089C19.906,70.819,20.937,70.848,21.969,70.878z"/>
<path fill="#1F8037" d="M18.813,70.927c-1.033-0.03-2.066-0.059-3.097-0.089C16.749,70.841,17.782,70.868,18.813,70.927z"/>
<path fill="#3C8F53" d="M12.59,49.003c1.042,1.037,2.084,2.078,3.126,3.119C14.674,51.081,13.632,50.04,12.59,49.003z"/>
<path fill="#308D4A" d="M28.184,52.195c-1.02-0.034-2.039-0.083-3.056-0.15c2.085-4.146,4.171-8.294,6.257-12.441c0.001,0-0.037-0.024-0.037-0.024c0.997,0.894,2.092,1.648,3.278,2.276c0.326,0.589,0.647,1.178,0.972,1.767c0.07,1.382-0.267,2.658-0.989,3.839C32.937,49.671,30.849,51.328,28.184,52.195z"/>
<path fill="#247F3A" d="M15.728,36.512c-1.042,0.021-2.084,0.042-3.126,0.064c1.082-1.056,2.164-2.112,3.247-3.171C15.807,34.44,15.766,35.478,15.728,36.512z"/>
<path fill="#2E8947" d="M34.457,45.862c0.014-1.049,0.027-2.099,0.04-3.149c1.079-0.684,2.231-0.849,3.46-0.5c2.339,1.202,3.709,3.104,4.134,5.697c0.102,1.804,0.012,3.613,0.011,5.423c0.057,1.822-0.038,3.613-1.395,5.045c-2.08,3.125-4.16,6.247-6.239,9.372c-0.009-4.147-0.017-8.298-0.024-12.445C31.918,52.152,31.903,49.006,34.457,45.862z"/>
<path fill="#217F37" d="M40.707,58.378c-1.033-2.085-2.068-4.169-3.101-6.256c1.102-0.928,2.363-1.469,3.81-1.554c1.48,0.082,2.649,0.729,3.511,1.932c0.427,2.097,0.809,4.184-1.059,5.865C42.814,58.368,41.761,58.375,40.707,58.378z"/>
<path fill="#2E8848" d="M43.868,58.365c-0.011-2.075-0.021-4.15-0.032-6.223c-1.221-3.299,0.363-3.805,3.124-3.143c-0.008,3.115-0.017,6.229-0.026,9.344C45.911,58.362,44.89,58.368,43.868,58.365z"/>
<path fill="#2A8442" d="M28.222,74.003c1.047-1.035,2.095-2.069,3.142-3.101C30.317,71.934,29.269,72.968,28.222,74.003z"/>
<path fill="#217A35" d="M34.504,70.905c0.399,0.223,0.799,0.445,1.199,0.668c-0.403-0.22-0.804-0.442-1.207-0.662L34.504,70.905z"/>
<path fill="#328D4C" d="M46.96,49c-1.041,1.047-2.083,2.093-3.124,3.14c-1.03-0.015-2.06-0.024-3.09-0.024c-0.836-0.681-1.12-1.364-0.853-2.057c0.269-0.695,0.54-1.044,0.816-1.044c-1.085-2.117-2.17-4.232-3.255-6.35c0.441-0.455,0.882-0.907,1.325-1.361c1.198-0.491,2.434-0.665,3.72-0.482c0.59,0.241,1.178,0.491,1.771,0.732c0.525,0.366,1.043,0.738,1.571,1.107c0.824,1.022,1.251,2.201,1.344,3.507C47.132,47.113,47.056,48.057,46.96,49z"/>
<path fill="#3A6246" d="M50.152,52.085c-0.032-2.045-0.065-4.089-0.098-6.134c-0.766-0.854-1.036-1.721-0.812-2.6c0.226-0.888,0.462-1.331,0.708-1.331c2.202-0.842,4.351-1.166,6.291,0.623l0.177,0.217c2.028,3.96,0.205,6.967-2.426,9.771C52.585,53.363,51.304,53.181,50.152,52.085z"/>
<path fill="#2C603A" d="M50.152,52.085c1.012,0.019,2.025,0.024,3.037,0.016c0.962,0.839,1.538,1.892,1.731,3.155c-0.122,1.278-0.691,2.319-1.701,3.116c0.006,1.031,0.015,2.063,0.027,3.091c-1.042,0.006-2.086,0.016-3.128,0.021C50.129,58.354,50.141,55.219,50.152,52.085z"/>
<path fill="#4D9060" d="M50.182,42.863c-0.047,1.028-0.09,2.057-0.128,3.088c-0.961,0.003-1.919,0.073-2.869,0.213c-1.118-1.141-2.237-2.286-3.357-3.43C45.983,40.956,48.103,40.949,50.182,42.863z"/>
<path fill="#215E32" d="M68.782,42.668c0.023-1.01,0.049-2.023,0.075-3.037c2.076-0.003,4.151-0.009,6.227-0.015c-1.037,4.175-2.075,8.349-3.112,12.524c-0.006,1.038-0.008,2.075-0.005,3.113c-1.036-0.006-2.073-0.016-3.109-0.03C68.833,51.038,68.807,46.852,68.782,42.668z"/>
<path fill="#30623E" d="M62.578,42.759c1.047-0.003,2.094-0.003,3.142-0.006c-0.003,2.081-0.006,4.162-0.009,6.24c-1.375,0.702-2.606,0.471-3.72-0.562C60.868,46.402,60.747,44.48,62.578,42.759z"/>
<path fill="#2C613B" d="M62.605,52.134c-1.041,2.084-2.082,4.166-3.122,6.25l-0.021-0.016c-1.844-1.688-1.753-3.592-0.623-5.608c0.58-0.391,1.16-0.781,1.74-1.172C61.254,51.768,61.928,51.951,62.605,52.134z"/>
<path fill="#2C613B" d="M62.538,48.957c1.058,0.012,2.115,0.024,3.173,0.036c-1.036,1.047-2.072,2.094-3.106,3.141l-0.014-0.012c-0.354-0.522-0.708-1.044-1.063-1.566C61.865,50.023,62.201,49.491,62.538,48.957z"/>
<path fill="#3C6347" d="M59.453,52.143c0.003,2.075,0.005,4.15,0.008,6.226l-1.563,0.007l-1.561-0.007c-0.002,0-0.004,0-0.004,0c-0.972-0.896-1.482-1.995-1.465-3.329c-0.015-1.303,0.362-2.49,1.071-3.576c0.626-0.107,1.255-0.211,1.883-0.317C58.367,51.478,58.91,51.811,59.453,52.143z"/>
<path fill="#185426" d="M56.223,55.274c0.056,1.028,0.094,2.06,0.111,3.094c-1.039,0.004-2.076,0.007-3.115,0.004c0.022-1.032,0.05-2.063,0.082-3.095C54.273,53.77,55.246,53.77,56.223,55.274z"/>
<path fill="#215E32" d="M75.086,39.613c1.028-1.041,2.059-2.082,3.087-3.122c0.012,1.043,0.025,2.087,0.038,3.131C77.169,39.619,76.128,39.616,75.086,39.613z"/>
<path fill="#1B592B" d="M56.223,55.274l-1.462-0.01c0,0-1.463,0.013-1.461,0.013c-0.037-1.06-0.073-2.118-0.111-3.177c1.077-3.083,2.152-6.162,3.229-9.244c2.054-0.03,4.106-0.064,6.16-0.098c-0.014,2.066-0.025,4.132-0.04,6.198l0.037-0.003c-0.824,0.937-1.858,1.468-3.101,1.587c-1.219,0.195-2.254,0.751-3.127,1.617C56.348,53.199,56.307,54.236,56.223,55.274z"/>
<path fill="#31A850" d="M50.182,42.863c-2.117-0.043-4.235-0.085-6.354-0.128l0.044,0.037c-0.389-0.537-0.777-1.074-1.17-1.611c0.385-0.537,0.775-1.077,1.165-1.614c2.063,0.006,4.125,0.009,6.187,0.015c1.066-0.009,2.137-0.018,3.204-0.03c1.032,0.046,2.062,0.076,3.094,0.091c-0.032,1.007-0.067,2.018-0.108,3.024C54.221,42.716,52.202,42.79,50.182,42.863z"/>
<path fill="#30B251" d="M37.554,36.515c1.055-0.006,2.11-0.012,3.167-0.015c1.042-1.3,2.083-1.239,3.125,0l-0.026-0.077c0.015,1.041,0.032,2.082,0.047,3.122l-0.051,0.162c-0.844,0.9-1.884,1.364-3.117,1.392c-0.592-0.052-1.184-0.104-1.776-0.155c-0.439-0.4-0.877-0.803-1.315-1.203C37.589,38.664,37.571,37.589,37.554,36.515z"/>
<path fill="#1D7E34" d="M37.455,42.665l-1.479,0.058l-1.48-0.009l-0.044,0.037c-0.725-0.711-0.958-1.416-0.703-2.115c0.253-0.696,0.503-1.041,0.75-1.041l-0.072,0.07c1.059,0.024,2.12,0.049,3.18,0.073c0,0.003-0.02-0.113-0.02-0.113c1.073,0.692,1.43,1.385,1.076,2.081c-0.354,0.696-0.709,1.044-1.069,1.044L37.455,42.665z"/>
<path fill="#389051" d="M34.499,39.594c-0.015,1.05-0.03,2.103-0.047,3.156c-1.034-1.056-2.069-2.115-3.104-3.171C32.398,39.582,33.448,39.588,34.499,39.594z"/>
<path fill="#57C473" d="M43.845,36.5c-1.044,0-2.086,0-3.126,0c-0.001-1.041-0.003-2.084-0.001-3.125c1.042,0,2.083,0,3.125,0C43.843,34.416,43.844,35.459,43.845,36.5z"/>
<path fill="#2D8A48" d="M34.457,45.862c-0.005,3.146-0.009,6.293-0.014,9.442c-1.044-0.009-2.086-0.019-3.128-0.024c-1.057,1.004-2.084,0.925-3.086-0.089l0.033,0.052c-0.015-1.016-0.041-2.032-0.078-3.048C30.274,50.083,32.366,47.975,34.457,45.862z"/>
<path fill="#49935E" d="M28.228,55.191c1.03,0.027,2.058,0.056,3.086,0.089C30.286,55.25,29.258,55.223,28.228,55.191z"/>
<path fill="#207E36" d="M40.71,49.015c0.012,1.035,0.023,2.066,0.037,3.101c-1.047,0.003-2.094,0.007-3.14,0.007C38.64,51.087,39.675,50.05,40.71,49.015z"/>
<path fill="#4D9161" d="M40.716,39.628c1.035,0.003,2.068,0.027,3.101,0.079c0.029,1.022,0.047,2.042,0.055,3.064c-1.051-0.009-2.103-0.015-3.156-0.024c-0.834-0.692-1.112-1.385-0.834-2.078S40.437,39.628,40.716,39.628z"/>
<path fill="#589369" d="M40.716,39.628c0.002,1.041,0.002,2.081,0.002,3.122c-0.002-0.003-1.563,0-1.563,0s-1.563,0-1.561,0c-0.001-1.041-0.001-2.084-0.003-3.125C38.632,39.625,39.674,39.628,40.716,39.628z"/>
<path fill="#376343" d="M59.431,48.997c1.048-0.013,2.097-0.028,3.145-0.043c0.005,1.056,0.009,2.111,0.016,3.168c-1.046,0.006-2.091,0.012-3.138,0.021l0.019-0.012c-0.727-0.687-0.976-1.38-0.745-2.078C58.957,49.351,59.191,48.997,59.431,48.997z"/>
<path fill="#185527" d="M59.431,48.997c0.014,1.046,0.027,2.09,0.041,3.134c-1.041,0.019-2.083,0.027-3.124,0.027C57.375,51.106,58.403,50.053,59.431,48.997z"/>
</svg>