<?xml version="1.0" encoding="utf-8"?>
<!DOCTYPE svg PUBLIC "-//W3C//DTD SVG 1.1//EN" "http://www.w3.org/Graphics/SVG/1.1/DTD/svg11.dtd">
<svg version="1.1" xmlns="http://www.w3.org/2000/svg" xmlns:xlink="http://www.w3.org/1999/xlink" x="0px" y="0px" width="100px" height="100px" viewBox="0 0 100 100" enable-background="new 0 0 100 100" xml:space="preserve">
<path fill="#624A2D" d="M40.486,5.036C42.647,3.022,44.807,1.011,46.967-1c2.083,0,4.167,0,6.25,0c2.194,2.044,4.391,4.086,6.584,6.131c-1.016,2.463-3.107,3.9-5.122,5.42c-1.514,1.142-3.134,2.1-4.93,2.729c-1.849,0.445-3.655,0.333-5.385-0.504c-1.98-1.538-2.638-3.851-3.499-6.045C40.731,6.169,40.608,5.601,40.486,5.036z"/>
<path fill="#473621" d="M28.77,20.988c0.041-3.14,0.084-6.28,0.125-9.424c1.97-2.322,4.705-1.315,7.129-1.639c3.386-0.205,5.431,2.191,7.746,4.01c1.5,0.263-1.471,2.375,0.934,2.283c1.082-0.094,2.139,0.012,3.189,0.272c1.582,0.427,3.122,0.973,4.652,1.568c2.165,0.873,3.982,2.121,4.784,4.465c0.369,1.724,0.404,3.46,0.213,5.215c-0.221,1.178-0.735,2.219-1.514,3.128c-0.963,0.699-2.037,1.138-3.204,1.346c-1.159,0.061-2.309-0.064-3.438-0.326c-1.632-0.394-3.25-0.867-4.892-1.242c-1.625-0.269-3.241-0.601-4.835-1.028c-1.053-0.29-2.062-0.702-3.044-1.172c-1.466-0.684-2.907-1.428-4.319-2.231c-0.928-0.577-1.664-1.346-2.193-2.301C29.742,22.901,29.298,21.925,28.77,20.988z"/>
<path fill="#2F2517" d="M93.282,64.573c0.006,3.177,0.012,6.354,0.02,9.53c-0.781,1.113-1.627,2.179-2.538,3.192c-1.108,0.763-2.218,1.525-3.326,2.285c-2.341-1.117-4.452-1.367-5.73,1.52l0.362-0.317c-4.314,0.919-7.618,5.17-12.615,3.843c-2.045-1.27-2.867-3.226-3.083-5.509c0.043-1.406,0.349-2.777,0.922-4.074c2.72-4.11,7.457-5.203,11.35-7.55c1.077-0.51,2.227-0.857,3.398-1.053c1.731-0.07,3.172,0.616,4.35,1.84c-0.018-0.03,1.454-0.378,1.454-0.378s-1.294-0.784-1.295-0.806c-0.002-0.021,0.063-1.56,0.07-1.581c0.557-0.967,1.303-1.712,2.285-2.233C90.636,62.812,92.176,62.968,93.282,64.573z"/>
<path fill="#6C502F" d="M9.158,48.865c3.283-1.867,6.567-3.738,9.853-5.606c1.248,0.614,2.194,0.302,2.835-0.934c1.111-0.723,2.223-1.447,3.334-2.17c1.573,0.549,2.998,1.297,3.862,2.795c0.488,0.922,0.623,1.914,0.426,2.911c-0.812,2.643,1.907,0.895,2.466,1.877c2.182,0.839,4.102,2.015,5.604,3.821c0.613,1.095,0.862,2.255,0.716,3.503c-0.556,1.831-1.61,3.309-3.139,4.449c-1.093,0.58-2.26,0.94-3.487,1.081c-1.21,0.018-2.403-0.162-3.567-0.495c-2.2-0.79-4.277-1.87-6.351-2.947c-1.519-0.754-3.004-1.578-4.506-2.375c-2.03-1.004-4.067-1.999-5.969-3.247C10.288,50.84,9.602,49.945,9.158,48.865z"/>
<path fill="#4B3923" d="M12.71,79.603c-1.094-0.757-2.189-1.511-3.284-2.268c-0.905-1.031-1.753-2.105-2.546-3.223c0.009-3.188,0.018-6.375,0.027-9.563c1.247-1.64,2.851-1.654,4.544-1.047c0.778,0.394,1.404,1.031,1.789,1.77c-0.202,2.219,0.972,1.007,1.907,0.602c1.646-0.135,3.107,0.238,4.518,1.02c1.625,1.067,2.792,2.453,3.43,4.275c0.246,2.822-0.963,4.971-3.071,6.707C17.758,79.16,14.95,78.171,12.71,79.603z"/>
<path fill="#5F4A2C" d="M63.108,7.89c2.956,1.196,5.911,2.39,8.865,3.586c1.346,1.523,1.236,3.33,1.044,5.151c-0.035,1.16-0.108,2.332-0.117,3.5c0.195,1.755,0.485,3.503,0.472,5.289c-0.237,1.229-0.829,2.249-1.76,3.088c-1.083,0.619-2.237,1.025-3.472,1.217c-1.249,0.077-2.477-0.061-3.683-0.375c-1.162-0.455-2.164-1.151-3.016-2.057c-0.974-1.541-1.43-3.244-1.498-5.047c0.003-1.105,0.174-2.209,0.435-3.281c0.402-1.474,0.93-2.939,1.031-4.495c-0.104-0.998-0.168-1.996-0.271-2.997c-0.157-1.056,0.043-2.039,0.57-2.96C61.705,8.506,63.108,7.89,63.108,7.89z"/>
<path fill="#40321D" d="M50.17,98.023c-1.077-0.665-2.156-1.33-3.235-1.995c-1.184-1.142-2.713-1.89-3.703-3.232c-0.56-0.931-0.691-1.919-0.33-2.944c1.967-0.653,1.573,1.581,1.288-0.445c-0.119-0.843-1.71-0.9-2.794-0.434c-1.782,0.174-3.396-0.412-5.049-0.919c-1.261-0.302-2.213-1.004-2.924-2.072c-0.148-1.327,0.162-2.518,0.926-3.606c1.598-1.273,3.447-1.898,5.423-2.234c1.321-0.22,2.652-0.305,3.989-0.333c2.005-0.063,4.005,0.024,6.004,0.22c2.011,0.202,3.932,0.721,5.707,1.703c1.109,0.809,1.691,1.926,1.837,3.281c-0.388,2.554-1.438,4.896-2.472,7.241C53.461,94.313,51.822,96.174,50.17,98.023z"/>
<path fill="#382B1A" d="M28.828,36.533c-0.014-4.19-0.029-8.38-0.044-12.567c0.862-0.882,1.71-0.87,2.548,0.034l0.015,0.009c1.657,1.911,4.561,1.31,6.271,3.113l-0.026-0.027c1.42,1.303,3.418,1.972,4.301,3.885c0.151,1.367-0.098,2.649-0.732,3.87c-1.744,2.292-4.015,3.671-6.894,4.01C32.112,38.893,30.224,38.285,28.828,36.533z"/>
<path fill="#5F4A2C" d="M82.061,17.46c3.766,2.204,7.531,4.41,11.298,6.613c-0.93,1.004-1.911,1.956-2.932,2.875c-3.297,1.99-6.622,1.654-9.972,0.141c-1.246-0.656-2.322-1.532-3.248-2.597c-0.645-1.257-0.959-2.6-0.963-4.016c0.259-1.395,0.888-2.606,1.87-3.631C79.511,16.511,80.832,16.691,82.061,17.46z"/>
<path fill="#473520" d="M40.722,83.368c-2.078,0.003-4.157,0.003-6.236,0.003c-0.754,0.846-1.224,1.828-1.448,2.937c-0.085,1.181-0.664,2.048-1.668,2.648c-1.065-0.763-2.128-1.528-3.194-2.292c-0.947-0.939-1.66-2.035-2.144-3.28c-0.348-2.753,0.271-5.121,2.684-6.76c2.916,0.211,5.827-0.504,8.781-0.26c1.871,0.699,3.326,1.877,4.295,3.635C42.124,81.339,41.801,82.475,40.722,83.368z"/>
<path fill="#44331F" d="M9.158,48.865c1.109,0.107,2.218,0.214,3.328,0.32c1.245,3.138,1.689,6.434,1.947,9.775c-0.243,1.379-0.835,2.581-1.814,3.589c-2.048,0.51-4.046,0.735-5.705-0.995C7.661,57.325,8.41,53.095,9.158,48.865z"/>
<path fill="#1F170F" d="M50.17,98.023c1.023-1.757,2.048-3.512,3.07-5.27c1.413-2.64,3.166-4.819,6.516-4.871c1.469,0.29,2.602,1.071,3.396,2.341C58.824,92.823,54.497,95.423,50.17,98.023z"/>
<path fill="#674E2E" d="M82.061,17.46c-1.272,0.098-2.545,0.195-3.817,0.293c-1.548,1.672-3.449,2.438-5.729,2.231c-1.377-0.437-2.593-1.154-3.648-2.139c1.036-2.124,2.071-4.248,3.107-6.369C75.336,13.468,78.698,15.464,82.061,17.46z"/>
<path fill="#624A2D" d="M37.502,11.512c-2.87,0.018-5.739,0.037-8.607,0.052c3.864-2.176,7.727-4.352,11.591-6.528l1.011,0.995c1.036,2.044,0.875,4.019-0.349,5.933C39.814,12.767,38.598,12.614,37.502,11.512z"/>
<path fill="#281F13" d="M93.3,48.979c-0.003,4.184-0.006,8.364-0.009,12.546c-1.09,1.022-2.293,1.129-3.597,0.448c-3.155-2.417-3.726-5.509-2.4-9.104c0.548-1.242,1.313-2.341,2.262-3.311C90.706,48.771,91.953,48.548,93.3,48.979z"/>
<path fill="#1F180F" d="M68.864,83.414c4.402-0.879,8.803-1.755,13.205-2.631c-3.298,1.936-6.595,3.87-9.894,5.805c-0.558,0.388-1.114,0.775-1.67,1.166c-0.648-0.198-1.298-0.396-1.946-0.595C67.941,85.853,68.042,84.605,68.864,83.414z"/>
<path fill="#2D2315" d="M93.286,42.744c0,1.056,0,2.109,0.002,3.165c-0.955,0.971-2.102,1.617-3.41,1.986c-2.103,0.403-3.995-0.033-5.655-1.409c-0.567-1.306-0.516-2.591,0.146-3.854c1.52-1.569,3.394-2.151,5.533-1.999C91.228,41.017,92.366,41.706,93.286,42.744z"/>
<path fill="#5B4529" d="M53.213,8.39c2.195-1.086,4.393-2.173,6.588-3.259c1.102,0.918,2.205,1.84,3.307,2.759l-0.665,0.586c-1.033,0.986-2.232,1.685-3.601,2.103c-1.43,0.092-2.807-0.125-4.125-0.692C54.214,9.391,53.713,8.891,53.213,8.39z"/>
<path fill="#2A2114" d="M90.747,24.052c0.87-0.061,1.741-0.055,2.611,0.021c-0.017,3.106-0.034,6.216-0.052,9.323c-1.503,0.211-2.772-0.22-3.771-1.388C88.148,29.084,88.637,26.444,90.747,24.052z"/>
<path fill="#2B2015" d="M25.093,85.939c-2.266-1.713-4.532-3.422-6.798-5.134c0.335-0.562,0.671-1.126,1.009-1.69c1.863-1.093,3.737-0.974,5.621-0.061c0.96,0.964,1.479,2.133,1.621,3.479C26.641,83.915,26.185,85.063,25.093,85.939z"/>
<path fill="#2D2216" d="M43.818,89.704c1.039,2.108,2.078,4.214,3.117,6.323c-2.112-0.986-4.224-1.969-6.335-2.951c-0.772-0.751-1.1-1.56-0.981-2.42c0.122-0.892,0.293-1.337,0.509-1.337C41.46,88.465,42.69,88.593,43.818,89.704z"/>
<path fill="#2E2317" d="M28.828,36.533c1.84-0.009,3.679-0.015,5.518-0.024c0.653,1.392,0.5,2.655-0.594,3.772c-1.294,0.693-2.669,0.895-4.112,0.678c-0.526-0.482-1.051-0.967-1.576-1.453C28.101,38.459,28.356,37.467,28.828,36.533z"/>
<path fill="#2A2114" d="M93.286,42.744c-0.855,0-1.712,0.003-2.566,0.006c-0.991-0.833-1.595-1.892-1.864-3.153c0.05-1.291,0.468-2.454,1.194-3.516c1.185-0.778,2.256-0.604,3.229,0.391C93.281,38.563,93.283,40.653,93.286,42.744z"/>
<path fill="#2C2115" d="M6.913,61.555c1.883,0.009,3.766,0.019,5.647,0.027c0.266,0.497,0.531,0.995,0.8,1.492c-0.246,0.51-0.495,1.017-0.745,1.523c-1.903-0.016-3.806-0.031-5.708-0.049C6.353,63.551,6.355,62.553,6.913,61.555z"/>
<path fill="#1C150E" d="M90.688,61.473c0.868,0.024,1.735,0.039,2.604,0.052c-0.003,1.016-0.006,2.032-0.009,3.049c-1.9,0.015-3.802,0.027-5.701,0.039c-0.322-0.439-0.644-0.879-0.968-1.318c-0.033-1.142,0.368-2.1,1.206-2.878C88.968,60.242,89.925,60.597,90.688,61.473z"/>
<path fill="#312517" d="M12.71,79.603c2.043-0.827,4.086-1.651,6.13-2.475c0.772,0.652,1.045,1.324,0.821,2.014c-0.228,0.696-0.465,1.047-0.713,1.047l-0.653,0.616C16.433,80.405,14.572,80.002,12.71,79.603z"/>
<path fill="#17120C" d="M81.707,81.101c1.91-0.506,3.82-1.013,5.73-1.52C85.528,80.088,83.617,80.595,81.707,81.101z"/>
<path fill="#302417" d="M31.37,88.956c0.058-0.754,0.065-1.511,0.024-2.268c0.913-1.272,1.927-1.297,3.03-0.247c1.048,0.019,2.098,0.04,3.148,0.062c0.411,0.677,0.822,1.357,1.233,2.035c-0.59,0.531-1.181,1.063-1.771,1.59C35.146,89.737,33.258,89.347,31.37,88.956z"/>
<path fill="#211910" d="M68.803,88.935c-1.884,0.431-3.768,0.861-5.65,1.288l-0.799-0.803c-0.72-1.406-0.586-2.694,0.53-3.852c2.182-0.994,4.192-0.875,5.95,0.91l0.021,0.027c0.725,0.556,0.958,1.102,0.701,1.636C69.303,88.669,69.053,88.935,68.803,88.935z"/>
<path fill="#443422" d="M21.845,42.326c-0.946,0.311-1.891,0.623-2.835,0.934C19.909,42.805,20.854,42.494,21.845,42.326z"/>
<path fill="#1E170F" d="M90.752,45.881c0.846,0.009,1.69,0.015,2.536,0.027c0.005,1.022,0.008,2.048,0.012,3.07c-0.861,0.012-1.726,0.019-2.589,0.021c-0.383-0.525-0.768-1.05-1.153-1.575C89.952,46.909,90.353,46.397,90.752,45.881z"/>
<path fill="#5F4A2C" d="M28.239,42.756c-1.019-0.867-2.039-1.733-3.059-2.6c0.921-0.394,1.883-0.61,2.884-0.65l0.369,0.07c0.334,0.552,0.668,1.104,1.002,1.657C29.037,41.743,28.637,42.25,28.239,42.756z"/>
<path fill="#2E2317" d="M6.88,74.112c0.848,1.074,1.698,2.148,2.546,3.223C8.578,76.261,7.728,75.187,6.88,74.112z"/>
<path fill="#1E170F" d="M90.764,77.296c0.846-1.065,1.691-2.131,2.538-3.192C92.455,75.165,91.61,76.231,90.764,77.296z"/>
<path fill="#1E170F" d="M93.279,36.472c-0.855,0.006-1.709-0.006-2.563-0.033c-0.258-0.513-0.517-1.025-0.777-1.542c0.248-0.516,0.502-1.031,0.755-1.547c0.871,0.015,1.742,0.03,2.614,0.045C93.297,34.421,93.288,35.447,93.279,36.472z"/>
<path fill="#2B2015" d="M25.093,85.939c-0.003-0.84-0.008-1.682-0.012-2.521c1.046-1.507,2.081-1.501,3.106,0.021c-0.004,1.074-0.007,2.151-0.011,3.226C27.148,86.423,26.119,86.179,25.093,85.939z"/>
<path fill="#2B2015" d="M31.332,24c-0.85-0.019-1.698-0.031-2.548-0.034c-0.587-0.989-0.592-1.984-0.014-2.979C29.624,21.992,30.477,22.996,31.332,24z"/>
<path fill="#2F2517" d="M68.803,88.935c0.003-0.812,0.021-1.62,0.052-2.429c1.107,0.027,2.214,0.055,3.32,0.082C71.052,87.369,69.927,88.15,68.803,88.935z"/>
<path fill="#261D13" d="M40.682,89.772c-0.028,1.102-0.055,2.203-0.083,3.305c-1.188-0.982-2.377-1.966-3.566-2.948l0.677-0.552C38.789,88.31,39.779,88.376,40.682,89.772z"/>
<path fill="#715431" d="M37.502,11.512c1.137-0.052,2.275-0.107,3.412-0.159c0.914-1.355,1.831-1.422,2.754-0.009c2.17,0.034,4.341,0.07,6.511,0.104c1.05-1.059,2.259-1.236,3.605-0.656c1.846,1.135,2.898,2.786,3.211,4.922c-0.682,3.607-3.44,3.577-6.206,3.537c-1.367-0.012-2.605-0.409-3.697-1.245c-1.067-0.11-2.133-0.217-3.2-0.324l0.017,0.016C41.773,15.638,39.637,13.575,37.502,11.512z"/>
<path fill="#40301F" d="M43.668,11.344l-1.379,0.027c0,0-1.378-0.015-1.376-0.015c0.193-1.779,0.384-3.555,0.58-5.328c1.295,0.204,2.586,0.409,4.153,0.653C44.822,8.622,44.245,9.983,43.668,11.344z"/>
<path fill="#443422" d="M53.189,11.399c-1.005,0.021-2.007,0.04-3.01,0.049c1.012-1.02,2.023-2.039,3.034-3.058l-0.011-0.009c0.807,0.675,1.072,1.346,0.801,2.014C53.73,11.064,53.46,11.399,53.189,11.399z"/>
<path fill="#61492D" d="M49.905,17.899c2.129-1.08,4.259-2.161,6.388-3.241c0.486-0.354,0.972-0.711,1.458-1.068c0.604,0.006,1.207,0.015,1.814,0.019c0.525,0.302,1.047,0.607,1.575,0.909c0.825,0.925,1.308,2.005,1.452,3.235c-0.046,1.145-0.092,2.286-0.137,3.43c-1.192,1.486-2.281,3.098-4.314,3.567c-0.581-0.269-1.164-0.537-1.745-0.806c-2.081-1.025-4.163-2.051-6.244-3.076c-0.702-0.604-0.972-1.248-0.812-1.925C49.505,18.248,49.693,17.899,49.905,17.899z"/>
<path fill="#2E2317" d="M50.064,30.201c1.045,0.018,2.09,0.037,3.135,0.052c0.75,1.196,0.727,2.374-0.069,3.546c-1.012,0.885-2.172,1.477-3.478,1.798c-1.345,0.122-2.658-0.031-3.946-0.427c-1.216-0.632-2.126-1.569-2.737-2.793c-0.151-1.413,0.33-2.536,1.537-3.323C46.504,28.727,48.464,28.59,50.064,30.201z"/>
<path fill="#2B2015" d="M37.618,27.122c-2.091-1.038-4.181-2.075-6.271-3.113C33.437,25.046,35.528,26.084,37.618,27.122z"/>
<path fill="#2E2317" d="M40.748,30.271c-1.053-1.059-2.104-2.118-3.155-3.177c2.095,0.006,4.19,0.015,6.287,0.024c1.048,0.723,1.387,1.431,1.019,2.127c-0.362,0.687-0.723,1.032-1.085,1.032l0.05-0.055C42.849,31.757,41.81,31.773,40.748,30.271z"/>
<path fill="#4B3722" d="M43.813,30.277c0.021-1.053,0.043-2.106,0.064-3.159c2.063,1.028,4.125,2.057,6.187,3.083C47.981,30.229,45.896,30.253,43.813,30.277z"/>
<path fill="#503B22" d="M56.342,30.25c0.002-1.041,0.002-2.084,0.002-3.125c0.44-0.434,0.882-0.867,1.322-1.303c1.865-0.409,3.65-0.519,4.926,1.303v0.018c0.616,0.687,0.849,1.395,0.696,2.124c-0.153,0.742-0.324,1.111-0.513,1.114c-0.94,0.827-2.025,1.337-3.271,1.496c-0.602-0.125-1.203-0.253-1.804-0.381C57.247,31.083,56.795,30.668,56.342,30.25z"/>
<path fill="#503B22" d="M56.344,27.125c-0.385-0.757-0.852-1.489-1.09-2.289c-0.049-0.168,0.738-0.586,1.142-0.891l-0.029-0.009c1.063,0.72,1.41,1.432,1.05,2.14c-0.36,0.702-0.717,1.053-1.078,1.053L56.344,27.125z"/>
<path fill="#40301F" d="M49.905,17.899c0.124,0.986,0.206,1.978,0.247,2.969c-1.021-0.955-2.041-1.91-3.061-2.865C48.027,17.875,48.963,17.838,49.905,17.899z"/>
<path fill="#503B22" d="M43.893,17.683c-0.229,0.418-0.459,0.839-0.69,1.257c0.235-0.412,0.47-0.827,0.705-1.242C43.909,17.698,43.893,17.683,43.893,17.683z"/>
<path fill="#503B22" d="M53.182,33.39c0.005-1.047,0.011-2.09,0.017-3.137c1.049,0,2.096,0,3.144-0.003l-0.008-0.006c0.419,0.51,0.838,1.02,1.259,1.529c-0.254,0.61-0.514,1.218-0.769,1.828c-0.621,0.22-1.243,0.442-1.866,0.662C54.366,33.973,53.775,33.68,53.182,33.39z"/>
<path fill="#342616" d="M68.834,86.479c-2.076,0.027-4.154,0.058-6.232,0.085c-3.631,1.956-4.765-1.044-6.33-3.186l0.064,0.058c-0.779-1.254-0.792-2.512-0.046-3.787c1.81-2.271,4.219-3.567,6.972-4.318c2.164-0.342,4.125-0.027,5.585,1.813c0.005,2.091,0.011,4.182,0.017,6.271C68.864,84.434,68.855,85.456,68.834,86.479z"/>
<path fill="#1E170F" d="M81.334,67.74c-4.164,2.088-8.326,4.175-12.489,6.263c-0.313-0.62-0.625-1.239-0.939-1.862c0.223-1.425,0.9-2.594,1.959-3.563c2.322-1.725,4.885-2.766,7.823-2.726c0.682,0.165,1.362,0.345,2.046,0.516C80.268,66.822,80.8,67.279,81.334,67.74z"/>
<path fill="#1D160E" d="M84.489,67.811c-1.052-0.024-2.103-0.049-3.154-0.07l0.016,0.019c-0.057-5.338,2.631-5.173,6.258-3.122l-0.026-0.024c0.003,1.044,0.005,2.088,0.006,3.131C86.58,68.94,85.547,68.961,84.489,67.811z"/>
<path fill="#1C150E" d="M68.847,77.143c-2.086-0.009-4.172-0.018-6.258-0.027c-0.158-0.671-0.319-1.343-0.478-2.017c0.684-1.267,1.725-2.1,3.076-2.561c1.452-0.098,2.661,0.418,3.656,1.465h0.001C68.845,75.05,68.845,76.096,68.847,77.143z"/>
<path fill="#322516" d="M84.489,67.811c1.033-0.036,2.066-0.058,3.099-0.067l0.003,0.007c0.628,0.695,0.835,1.389,0.628,2.084c-0.208,0.692-0.417,1.041-0.626,1.041C86.558,69.853,85.523,68.83,84.489,67.811z"/>
<path fill="#2A2114" d="M87.592,70.875c0-1.041,0-2.085-0.002-3.125c0.396,0.741,0.865,1.462,1.122,2.249C88.762,70.151,87.988,70.575,87.592,70.875z"/>
<path fill="#483621" d="M31.332,58.487c1.008-0.009,2.016,0.003,3.022,0.034c1.132-0.01,2.197,0.25,3.206,0.763c0.455,0.314,0.903,0.646,1.364,0.955c0.848,0.692,1.608,1.483,2.318,2.308c0.326,0.408,0.638,0.851,0.962,1.26c1.155,2.325,2.321-0.879,3.502-0.009c1.14,0.521,1.974,1.321,2.553,2.432c0.282,1.276,0.212,2.509-0.195,3.742c-1.521,2.591-3.954,3.405-6.755,3.543c-1.392-0.046-2.736-0.317-4.059-0.745c-3.269-1.428-6.162-3.299-7.738-6.687c-0.421-1.349-0.531-2.728-0.389-4.129C29.569,60.618,30.309,59.461,31.332,58.487z"/>
<path fill="#493621" d="M22.015,55.183c2.064,1.074,4.13,2.148,6.195,3.226c1.077,0.903,1.583,2.057,1.514,3.461c0.02,1.337-0.035,2.673-0.159,4.007c-0.704,2.057-2.176,3.22-4.259,3.662c-1.3-0.062-2.533-0.399-3.668-1.041c-1.303-1.449-1.863-3.131-1.515-5.065c-0.29-1.456,3.218-1.56,1.288-3.626c-0.201-0.53-0.381-1.064-0.571-1.599C20.788,57.025,21.163,56.01,22.015,55.183z"/>
<path fill="#463523" d="M37.502,55.329c0.031-1.071,0.063-2.14,0.093-3.211c0.546-0.445,1.094-0.894,1.64-1.346c4.708-1.187,8.357,0.574,11.396,4.074c0.351,1.468,0.052,2.811-0.8,4.05c-1.767,1.502-3.828,2.018-6.102,1.85c-2.269-0.388-4.097-1.508-5.481-3.348C37.998,56.712,37.749,56.022,37.502,55.329z"/>
<path fill="#4B3822" d="M12.593,58.375c-0.035-3.064-0.069-6.128-0.105-9.192c2.159,1.053,4.32,2.103,6.482,3.152c0.635,0.653,0.946,1.37,0.933,2.151c-0.016,0.815-0.103,1.221-0.26,1.225c-0.745,1.831-2.058,3.091-3.848,3.882C14.483,59.837,13.415,59.428,12.593,58.375z"/>
<path fill="#5A452A" d="M28.216,45.875c0.015-1.041,0.022-2.079,0.022-3.119l-0.027,0.009c1.613-1.846,3.554-1.544,5.554-0.845c0.997,1.013,1.46,2.23,1.395,3.649c-0.836,1.147-1.976,1.788-3.374,1.99C30.38,47.459,29.2,46.873,28.216,45.875z"/>
<path fill="#443422" d="M28.216,45.875c1.041,0.033,2.081,0.033,3.122,0c0.406,0.506,0.812,1.016,1.218,1.522c-0.388,0.525-0.773,1.047-1.16,1.568c-1.338-0.207-2.675-0.415-4.129-0.641C27.63,47.386,27.923,46.629,28.216,45.875z"/>
<path fill="#35291A" d="M18.824,55.262c0.032-0.979,0.08-1.956,0.144-2.93c1.016,0.952,2.031,1.901,3.047,2.851c-0.014,1.068-0.028,2.14-0.042,3.207c-0.567,0.382-1.134,0.76-1.703,1.139c-0.641-0.241-1.28-0.485-1.921-0.729C17.564,57.493,17.722,56.312,18.824,55.262z"/>
<path fill="#785833" d="M37.624,61.225c-1.089-0.899-2.179-1.803-3.269-2.703c1.048-1.065,2.098-2.131,3.146-3.192l0.034,0.009C39.338,57.273,39.585,59.232,37.624,61.225z"/>
<path fill="#40301F" d="M37.595,52.118c-2.066-1.05-4.134-2.1-6.201-3.152c0.001,0-0.053,0.037-0.053,0.037c0.934-0.992,2.072-1.538,3.445-1.565c1.362-0.031,2.556,0.388,3.555,1.324c0.574,1.315,0.355,2.45-0.775,3.375L37.595,52.118z"/>
<path fill="#443422" d="M28.218,61.5c0.001-1.032,0-2.063-0.008-3.095c1.041,0.027,2.082,0.055,3.122,0.082c0.003,1.004,0.006,2.009,0.011,3.013C30.3,63.007,29.26,62.938,28.218,61.5z"/>
<path fill="#503B22" d="M18.948,80.189c-0.049-1.02-0.085-2.042-0.108-3.061c1.048-2.018,2.096-4.035,3.145-6.052c0.564-0.458,1.129-0.919,1.695-1.38c0.689,0.235,1.379,0.471,2.071,0.705c0.889,1.185,1.453,2.506,1.649,3.977c-0.238,2.191-0.646,4.318-2.321,5.948C23.035,80.28,20.992,80.234,18.948,80.189z"/>
<path fill="#2C2116" d="M18.87,67.723c-2.08-0.01-4.161-0.019-6.242-0.031l0.021,0.021c-0.015-1.037-0.026-2.075-0.033-3.112c0-0.003-0.046,0.042-0.046,0.042c1.015-1.083,2.275-1.563,3.75-1.522c1.405,0.424,2.483,1.261,3.177,2.566C19.289,66.364,19.079,67.042,18.87,67.723z"/>
<path fill="#2B2015" d="M25.089,70.92c-1.039-0.015-2.073,0.034-3.105,0.156c-1.038-1.117-2.077-2.234-3.114-3.354l-0.049,0.066c0.951-1.486,1.985-1.623,3.116-0.192c1.05,0.053,2.1,0.104,3.149,0.159c0.704,0.702,0.938,1.407,0.705,2.108C25.558,70.569,25.324,70.92,25.089,70.92z"/>
<path fill="#3E301C" d="M12.628,67.691c-0.229,0.422-0.458,0.84-0.688,1.258c0.237-0.412,0.473-0.824,0.709-1.236L12.628,67.691z"/>
<path fill="#705233" d="M71.961,27.119c0.027-1.025,0.05-2.051,0.068-3.076c0.816-0.964,1.837-1.568,3.096-1.751c1.263,0.149,2.292,0.72,3.092,1.709l-0.008-0.004c1.917,1.648,4.761,2.844,3.075,6.266c-1.607,1.501-3.483,1.81-5.559,1.271C73.807,30.628,72.452,29.243,71.961,27.119z"/>
<path fill="#453421" d="M56.338,27.128c0.01-1.062,0.02-2.127,0.028-3.192c2.031-0.918,4.061-1.84,6.09-2.759c0.044,1.987,0.09,3.967,0.136,5.948C60.508,27.125,58.423,27.128,56.338,27.128z"/>
<path fill="#61492D" d="M62.614,11.503c1.01,1.086,2.019,2.173,3.029,3.256c-2.112,1.654-4.18,1.611-6.205-0.156l0.051,0.043c-0.427-0.571-0.854-1.142-1.281-1.712c0.259-0.668,0.519-1.333,0.777-2.002C60.363,10.065,61.564,10.31,62.614,11.503z"/>
<path fill="#443422" d="M59.438,14.604c2.069,0.052,4.137,0.104,6.205,0.156c-1.017,0.998-2.034,1.996-3.051,2.994C61.541,16.703,60.49,15.653,59.438,14.604z"/>
<path fill="#60482C" d="M75.094,24c-1.021,0.012-2.044,0.027-3.065,0.042c-1.057-1.071-2.112-2.142-3.17-3.216c0.91-0.989,2.047-1.44,3.382-1.425c1.326,0.019,2.509,0.427,3.53,1.285C76.43,21.97,76.204,23.075,75.094,24z"/>
<path fill="#40301F" d="M62.597,30.25c-0.002-1.038-0.003-2.072-0.005-3.107c1.999,0.003,3.996,0.006,5.995,0.009c0.832,1.282,0.731,2.487-0.301,3.616c-1.251,0.693-2.586,0.903-3.993,0.693C63.728,31.059,63.161,30.653,62.597,30.25z"/>
<path fill="#785833" d="M68.945,30.198c-0.054-1.022-0.171-2.039-0.354-3.045c1.122-0.009,2.246-0.021,3.371-0.034c0.998,0.903,1.994,1.807,2.992,2.71c-0.368,0.488-0.734,0.977-1.101,1.465c-1.173,0.43-2.361,0.482-3.567,0.153C69.838,31.031,69.392,30.616,68.945,30.198z"/>
<path fill="#40301F" d="M71.984,20.878c-1.042-0.019-2.082-0.034-3.125-0.052c-0.044-0.995-0.042-1.99,0.007-2.985c0.978,0.003,1.956-0.015,2.934-0.045c1.153,0.619,1.564,1.278,1.236,1.986C72.697,20.512,72.349,20.878,71.984,20.878z"/>
<path fill="#705233" d="M62.614,11.503c-1.028-0.006-2.056-0.03-3.082-0.07c-0.803-0.665-1.076-1.336-0.822-2.017c0.255-0.687,0.513-1.028,0.776-1.028c0.987-0.012,1.973,0.015,2.957,0.088C62.538,9.483,62.595,10.493,62.614,11.503z"/>
<path fill="#231C11" d="M56.272,83.378c2.11,1.062,4.22,2.124,6.33,3.186c-0.042,0.955-0.124,1.907-0.248,2.856c-3.037,1.111-6.075,2.222-9.113,3.333C54.252,89.628,55.262,86.503,56.272,83.378z"/>
<path fill="#2E2317" d="M50.144,83.308c-2.086,0.021-4.17,0.043-6.256,0.061c-0.439-0.481-0.877-0.964-1.32-1.443c0.124-1.367,0.762-2.401,1.982-3.058c1.978-0.577,3.804-0.299,5.443,0.995C50.841,80.973,50.852,82.123,50.144,83.308z"/>
<path fill="#1E170F" d="M50.144,83.308c-0.036-1.022-0.06-2.048-0.066-3.073c0.448-0.409,0.896-0.818,1.346-1.227c1.188-0.357,2.376-0.357,3.564-0.003c0.448,0.408,0.896,0.82,1.343,1.232c0.003,1.065,0.004,2.13,0.006,3.195C54.273,83.393,52.208,83.351,50.144,83.308z"/>
<path fill="#4E3921" d="M40.682,89.772c-0.989-0.104-1.979-0.168-2.971-0.195c-0.064-1.022-0.11-2.048-0.139-3.073c2.1-0.003,4.199-0.003,6.297-0.003c0.844,1.05,0.793,2.09-0.035,3.121c0,0-0.017,0.08-0.017,0.083C42.773,89.726,41.727,89.75,40.682,89.772z"/>
<path fill="#503B22" d="M43.861,80.226c0.009,1.046,0.017,2.096,0.026,3.143c-1.054,0-2.109,0-3.165,0c-0.003-1.001,0.004-2.002,0.026-3.003C41.75,79.554,42.789,79.542,43.861,80.226z"/>
<path fill="#503B22" d="M34.425,86.441c-1.015,0.037-2.025,0.119-3.03,0.244c1.03-1.102,2.062-2.206,3.091-3.314C34.473,84.397,34.452,85.419,34.425,86.441z"/>
<path fill="#40321D" d="M43.835,89.621c0.006-1.04,0.017-2.081,0.035-3.121c0.384,0.744,0.844,1.468,1.088,2.255C45.007,88.913,44.23,89.325,43.835,89.621z"/>
<path fill="#503B22" d="M40.748,30.271c1.038-0.015,2.077-0.03,3.116-0.049c1.012,1.081,2.023,2.158,3.035,3.238c2.425,2.115,2.916,4.745,2.083,7.73c-0.91,2.057-2.535,3.152-4.715,3.464c-1.313-0.031-2.556-0.394-3.689-1.056c-0.755-1.01-1.186-2.161-1.251-3.43c0.29-2.295-0.199-4.773,1.352-6.842C40.681,32.307,40.703,31.288,40.748,30.271z"/>
<path fill="#4D3822" d="M40.677,33.326c0.008,2.1,0.017,4.202,0.024,6.305c-1.306,1.654-2.98,2.039-4.94,1.431c-0.439-0.442-0.879-0.885-1.318-1.331c-0.032-1.074-0.063-2.148-0.096-3.223C36.455,35.447,38.567,34.385,40.677,33.326z"/>
<path fill="#3B2C1A" d="M81.041,29.926c-0.944-1.975-1.888-3.952-2.832-5.93c4.18,0.019,8.357,0.037,12.537,0.055c-0.017,3.101-0.035,6.198-0.052,9.299c-0.002,0,0.036,0.052,0.036,0.052c-1.077,0.815-2.279,1.178-3.633,1.025c-1.977-0.427-3.702-1.331-5.162-2.734C81.634,31.107,81.337,30.519,81.041,29.926z"/>
<path fill="#705233" d="M71.984,20.878c-0.014-1.031-0.074-2.06-0.182-3.082c2.146-0.016,4.293-0.031,6.441-0.043c-0.01,1.041-0.019,2.082-0.026,3.125c-1.041,1.294-2.081,1.233-3.122,0l-1.555-0.003L71.984,20.878z"/>
<path fill="#40301F" d="M75.095,20.878c1.041-0.003,2.081-0.003,3.122-0.003c-0.001,1.043,0,2.084,0,3.125c-1.042,0-2.083,0-3.123,0C75.091,22.959,75.091,21.919,75.095,20.878z"/>
<path fill="#433421" d="M25.079,80.326c0.017-2.124,0.033-4.248,0.05-6.375c0.89-0.986,1.993-1.581,3.31-1.779c1.315,0.14,2.485,0.619,3.488,1.492c0.529,1.288,0.317,2.444-0.633,3.467c-1.035,2.103-2.071,4.205-3.107,6.308l-1.553-0.043l-1.553,0.019C25.067,82.386,25.067,81.357,25.079,80.326z"/>
<path fill="#2E2317" d="M31.294,77.131c0.007-1.047,0.015-2.091,0.021-3.138c1.059-0.998,2.326-1.495,3.772-1.563c1.407,0.428,2.408,1.328,3.06,2.634c-0.179,0.681-0.355,1.364-0.534,2.045C35.507,77.115,33.401,77.125,31.294,77.131z"/>
<path fill="#2B2015" d="M43.861,80.226c-1.039,0.018-2.077,0.066-3.113,0.14c-1.045-1.086-2.09-2.17-3.136-3.256l-0.029,0.036c1.834-1.943,3.932-1.922,6.175-0.833c0.775,0.87,1.041,1.746,0.798,2.628c-0.244,0.885-0.491,1.327-0.746,1.327L43.861,80.226z"/>
<path fill="#42331F" d="M15.774,64.555c-1.068,0.03-2.136,0.061-3.204,0.088c0.009-1.019,0.006-2.041-0.008-3.063c0.009-1.068,0.02-2.137,0.031-3.204c1.047-0.007,2.092-0.013,3.139-0.019c1.048-1.117,2.092-1.114,3.129,0.016l-0.009-0.016C20.89,61.942,17.87,63.02,15.774,64.555z"/>
<path fill="#342616" d="M90.688,61.473c-1.025,0.015-2.049,0.027-3.074,0.039c-0.902,1.15-2.032,1.392-3.363,0.846c-0.993-0.909-1.692-2.008-2.118-3.287c-0.274-1.313-0.302-2.637-0.146-3.964c0.191-0.638,0.398-1.27,0.593-1.907c0.657-1.185,1.608-2.069,2.829-2.661c2.06-0.482,3.866-0.076,5.308,1.565C90.706,55.226,90.698,58.351,90.688,61.473z"/>
<path fill="#1D160E" d="M90.715,52.104c-2.09,0.012-4.181,0.024-6.271,0.036c-0.184-5.615,2.681-5.111,6.281-3.128L90.71,49C90.712,50.034,90.714,51.068,90.715,52.104z"/>
<path fill="#332616" d="M90.726,49.012c-2.093,1.044-4.188,2.085-6.281,3.128l0.039-0.027c-3.459,1.813-5.348-0.263-7.037-2.838c-0.168-1.502,0.247-2.823,1.237-3.964c2.059-1.172,4.028-1.407,5.783,0.565c2.095,0.003,4.19,0.006,6.285,0.006C90.744,46.925,90.736,47.968,90.726,49.012z"/>
<path fill="#251D12" d="M84.467,45.875c-2.083,0.009-4.166,0.021-6.248,0.033c-0.17-0.665-0.339-1.327-0.51-1.993c1.099-2.087,2.87-2.722,5.103-2.377c0.557,0.4,1.115,0.803,1.672,1.206C84.478,43.788,84.472,44.831,84.467,45.875z"/>
<path fill="#312416" d="M90.703,39.564c0.006,1.062,0.011,2.124,0.017,3.186c-2.078-0.003-4.158-0.003-6.236-0.006L84.46,42.75c-0.998-1.322-0.969-2.619,0.083-3.9C86.748,37.766,88.826,37.803,90.703,39.564z"/>
<path fill="#614A2C" d="M59.486,8.387c-0.008,1.016,0.008,2.032,0.044,3.045c0.002,0-0.123,0.15-0.123,0.15c-0.919,1.043-1.894,2.029-2.937,2.948l-0.177,0.128c-1.036-1.086-2.07-2.17-3.104-3.259c0.021-1.007,0.027-2.014,0.014-3.019C55.297,8.381,57.391,8.384,59.486,8.387z"/>
<path fill="#765732" d="M34.473,42.731c-2.087,0.009-4.175,0.021-6.262,0.034c0.073-1.062,0.148-2.124,0.221-3.189c2.003,0.052,4.007,0.104,6.011,0.155l-0.019-0.101c0.395,0.513,0.792,1.022,1.193,1.532C35.24,41.685,34.857,42.21,34.473,42.731z"/>
<path fill="#20180F" d="M90.703,39.564c-2.069,0.024-4.139,0.052-6.207,0.076c-0.797,1.062-1.82,1.37-3.07,0.921c-0.89-0.891-1.272-1.978-1.221-3.229c0.429-1.163,1.181-2.072,2.192-2.774c1.063-0.574,2.207-0.925,3.409-1.062c0.597-0.037,1.196-0.067,1.796-0.098c1.042,0.003,2.084,0.003,3.128,0.003c-0.008,1.013-0.012,2.026-0.016,3.037C90.711,37.48,90.708,38.523,90.703,39.564z"/>
<path fill="#2F2315" d="M84.459,61.497c1.052,0.006,2.103,0.009,3.154,0.015c-0.016,1.041-0.019,2.081-0.006,3.125c-2.086,1.041-4.172,2.081-6.258,3.122c-1.041-0.009-2.083-0.019-3.125-0.027c-1.627-1.3-2.579-2.991-2.94-5.029c-0.154-1.318-0.108-2.634,0.096-3.939c0.184-0.623,0.391-1.245,0.577-1.868c0.328-0.546,0.676-1.099,1.009-1.645c0.964-0.864,2.108-1.315,3.401-1.364c1.147,0.543,1.93,1.431,2.334,2.64C82.825,58.338,83.129,60.099,84.459,61.497z"/>
<path fill="#443422" d="M56.47,14.53c0.98-0.982,1.958-1.965,2.937-2.948c0.036,1.022,0.063,2.042,0.082,3.064C58.482,14.634,57.476,14.594,56.47,14.53z"/>
<path fill="#3F311D" d="M46.967,42.756c-0.022-3.098-0.044-6.198-0.067-9.295c1.064-0.028,2.13-0.058,3.195-0.085c0.889,0.854,1.698,1.779,2.454,2.762c0.592,1.108,1.039,2.268,1.386,3.476c0.5,1.858,0.697,3.732,0.279,5.64c-1.049,1.879-2.756,2.496-4.787,2.502c-1.285-0.247-2.388-0.837-3.311-1.761C45.57,44.7,45.853,43.62,46.967,42.756z"/>
<path fill="#2E2317" d="M50.092,36.5c0.002-1.041,0.002-2.084,0.003-3.125c1.028,0,2.059,0.003,3.087,0.015l0.049-0.031c0.778,0.708,1.098,1.471,0.96,2.286c-0.144,0.839-0.326,1.26-0.551,1.263C52.346,37.748,51.168,37.568,50.092,36.5z"/>
<path fill="#4B3821" d="M59.463,30.253c1.045-0.003,2.089-0.003,3.134-0.003l-0.005-0.003c1.416,1.175,3.225,2.033,3.401,4.208c0.152,2.344-1.59,3.156-3.249,4.043c-2.364,0.543-4.572,0.208-6.596-1.175c-1.055-1.373-0.987-2.691,0.196-3.955l-0.015,0.012C57.272,32.233,58.336,31.211,59.463,30.253z"/>
<path fill="#40321D" d="M59.463,30.253c-1.044,1.041-2.088,2.084-3.133,3.128c0.001-1.047,0.003-2.093,0.004-3.137C57.377,30.247,58.42,30.25,59.463,30.253z"/>
<path fill="#392B1A" d="M56.345,33.369c-0.001,1.05-0.001,2.097-0.003,3.146c0.757,1.187,0.71,2.313-0.264,3.366c-1.216,0.689-2.405,0.647-3.572-0.119c-0.7-1.294-0.462-2.38,0.711-3.262c0.005-1.047,0.01-2.094,0.014-3.141C54.269,33.366,55.308,33.369,56.345,33.369z"/>
<path fill="#1D160F" d="M62.589,77.115c-2.086,1.041-4.172,2.081-6.258,3.122c-0.001,0,0.024,0.024,0.024,0.024c-1.047-1.34-0.969-2.655,0.076-3.952c2.239-1.093,4.332-1.107,6.168,0.821L62.589,77.115z"/>
<path fill="#2A2114" d="M78.217,61.497c0.003,2.078,0.005,4.156,0.008,6.234c-3.128,1.05-6.255,2.1-9.381,3.146c-1.978-4.288-0.008-7.358,3.101-10.08C74.175,59.721,76.304,59.648,78.217,61.497z"/>
<path fill="#2E2315" d="M72.013,61.579c-1.056,3.098-2.113,6.198-3.169,9.299c-0.011,1.04-0.011,2.084,0,3.125c-1.049-0.024-2.097-0.046-3.146-0.07c-1.75-1.456-2.661-3.342-2.896-5.585c-0.04-1.465,0.186-2.893,0.613-4.291c0.938-2.096,2.446-3.536,4.741-4.046c0.714,0.079,1.431,0.161,2.146,0.244C70.873,60.694,71.443,61.137,72.013,61.579z"/>
<path fill="#332616" d="M65.716,67.74c-0.007,2.066-0.011,4.129-0.018,6.192c-1.032,1.064-2.065,2.133-3.099,3.198c-2.086-0.003-4.172-0.006-6.258-0.01c-1.593-2.679-0.204-4.815,1.25-6.948c1.277-1.471,2.819-2.572,4.645-3.266C63.535,66.584,64.691,66.896,65.716,67.74z"/>
<path fill="#463520" d="M43.81,80.268c0.011-1.043,0.021-2.09,0.03-3.134c-1.753-1.73-5.066-2.683-3.126-6.259c2.084-1.041,4.169-2.082,6.251-3.122c1.013-1.111,2.272-1.67,3.777-1.682c1.466,0.326,2.61,1.12,3.438,2.374c0.61,4.614-1.039,8.447-4.106,11.786l0.004,0.003C47.989,80.243,45.899,80.256,43.81,80.268z"/>
<path fill="#3E311D" d="M34.525,73.939c-1.069,0.019-2.139,0.037-3.21,0.055l0.042,0.031c-1.593-2.079-4.7-1.114-6.319-3.141l0.052,0.036c-0.001-1.056-0.001-2.111-0.003-3.164c1.044-1.044,2.087-2.088,3.131-3.131c1.042-1.154,2.083-1.154,3.125,0c2.081,2.084,4.164,4.165,6.245,6.246C36.974,72.3,35.953,73.322,34.525,73.939z"/>
<path fill="#6C5031" d="M37.624,61.225c-0.029-1.962-0.058-3.924-0.087-5.887c2.094,1.044,4.188,2.091,6.284,3.138c1.581,1.169,3.296,2.222,3.822,4.324c-0.241,0.616-0.483,1.232-0.725,1.85c-1.107,0.095-2.215,0.188-3.322,0.286c-1.06,0.699-2.021,0.583-2.881-0.354l0.083,0.021c-1.03-1.007-2.093-1.975-3.188-2.908L37.624,61.225z"/>
<path fill="#4B3722" d="M34.525,73.939c1.021-1.022,2.042-2.045,3.064-3.067c1.041,0.004,2.083,0.004,3.125,0.004c1.042,2.087,2.084,4.171,3.126,6.259c-2.085,0.003-4.171,0.006-6.257,0.012C36.564,76.075,35.545,75.007,34.525,73.939z"/>
<path fill="#34281B" d="M40.716,64.582c0.971,0.043,1.932,0.158,2.883,0.351C42.636,64.817,41.676,64.701,40.716,64.582z"/>
<path fill="#785833" d="M50.042,67.555c-1.022,0.095-2.048,0.161-3.077,0.198c-0.037-1.035-0.052-2.069-0.045-3.104c-0.002,0,0.063,0.006,0.063,0.006c1.037-0.989,2.181-1.188,3.45-0.467C51.245,65.418,51.115,66.541,50.042,67.555z"/>
<path fill="#503B22" d="M31.343,64.625c-1.042,0-2.083,0-3.125,0c0-1.041,0-2.085,0-3.125c1.042,0,2.083,0,3.125,0C31.343,62.54,31.343,63.584,31.343,64.625z"/>
<path fill="#40301F" d="M37.611,61.695c1.062,0.97,2.124,1.938,3.188,2.908C39.736,63.633,38.673,62.665,37.611,61.695z"/>
<path fill="#4F3A22" d="M15.774,64.555c1.025-2.066,2.051-4.132,3.078-6.198c1.041,0.016,2.081,0.027,3.122,0.033l-0.021-0.009c0.729,0.684,0.975,1.37,0.74,2.063c-0.235,0.693-0.475,1.041-0.715,1.041c-0.013,2.039-0.026,4.077-0.04,6.112c-1.036,0.102-2.075,0.165-3.116,0.192C17.805,66.712,16.79,65.632,15.774,64.555z"/>
<path fill="#40321D" d="M21.977,61.484c-0.009-1.034-0.017-2.069-0.024-3.104c0.401,0.735,0.875,1.446,1.143,2.228C23.145,60.758,22.37,61.186,21.977,61.484z"/>
<path fill="#664D2E" d="M37.566,52.137c0.024-1.028,0.014-2.06-0.032-3.088c0.351-2.24,1.637-3.696,3.741-4.465c2.036-0.174,4.12-0.546,5.68,1.327l-0.108,0.016c1.356,1.117,2.944,1.565,4.678,1.62c1.18,0.174,2.148,0.705,2.892,1.648c0.471,1.092,0.672,2.228,0.583,3.415c-0.315,1.159-0.914,2.151-1.786,2.979c-1.13,0.635-2.177,0.484-3.153-0.333C45.895,54.218,41.731,53.178,37.566,52.137z"/>
<path fill="#5F4A2C" d="M50.094,64.647l-1.557-0.004l-1.555,0.013c-1.055-2.06-2.107-4.123-3.162-6.183c2.11-0.031,4.22-0.062,6.331-0.095c0,0,1.137,0.985,1.142,0.982c0.529,0.912,0.697,1.889,0.514,2.93C51.675,63.392,51.101,64.179,50.094,64.647z"/>
<path fill="#705233" d="M50.06,55.256c1.047-0.003,2.096-0.009,3.144-0.013c0.323,0.458,0.647,0.916,0.971,1.374c0.008,1.189-0.49,2.13-1.418,2.856c-1.199,0.356-2.104,0.018-2.67-1.126l0.064,0.03C50.081,57.34,50.051,56.3,50.06,55.256z"/>
<path fill="#503B22" d="M18.861,58.372c-1.043-0.004-2.087-0.01-3.129-0.013c1.031-1.034,2.062-2.066,3.093-3.098C18.836,56.3,18.848,57.334,18.861,58.372z"/>
<path fill="#745632" d="M40.746,45.82c-1.071,1.078-2.141,2.152-3.212,3.229L36,48.979l-1.533,0.012c-0.919-0.692-1.224-1.385-0.919-2.078c0.305-0.692,0.61-1.037,0.919-1.037c0.001-1.05,0.003-2.097,0.006-3.144l0.006,0.006c2.093-1.85,4.171-1.901,6.231,0.058l-0.04-0.04c1.153,0.653,1.547,1.325,1.187,2.014C41.494,45.469,41.125,45.82,40.746,45.82z"/>
<path fill="#785833" d="M34.468,45.875c0,1.04,0,2.084,0,3.118c-1.042,0.007-2.083,0.01-3.126,0.01c0-1.044,0.001-2.085-0.002-3.128C32.38,45.875,33.424,45.875,34.468,45.875z"/>
<path fill="#2F2417" d="M25.037,70.884c2.106,1.047,4.213,2.094,6.319,3.141c-2.075-0.024-4.152-0.046-6.229-0.07C25.106,72.929,25.075,71.906,25.037,70.884z"/>
<path fill="#3B2C1A" d="M74.953,29.829c2.031,0.037,4.063,0.07,6.091,0.101c-0.003-0.003,0.349,0.4,0.349,0.4c0.778,5.252-2.468,4.672-5.786,3.989c-1.43-1.187-1.594-2.527-0.49-4.022L74.953,29.829z"/>
<path fill="#503B22" d="M62.53,36.518c0.021-2.09,0.041-4.181,0.063-6.271c2.116-0.015,4.234-0.03,6.353-0.049l-0.063-0.052c2.358,2.643,2.917,5.561,1.354,8.804c-1.698,2.136-3.86,2.478-6.327,1.627C62.461,39.564,62,38.209,62.53,36.518z"/>
<path fill="#40311E" d="M68.841,39.649c0.014-3.168,0.027-6.333,0.041-9.503c2.078,0.049,4.156,0.101,6.234,0.149c-0.025,1.001-0.043,2.005-0.054,3.006c0.241,1.983,0.366,3.964-0.153,5.933c-0.411,1.278-1.071,2.42-1.923,3.451c-1.164,0.757-2.396,0.87-3.682,0.348c-0.74-0.662-1.058-1.386-0.949-2.167C68.47,40.055,68.63,39.649,68.841,39.649z"/>
<path fill="#2F2415" d="M50.073,80.231c1.098-4.068,2.194-8.14,3.292-12.21c0.749-1.035,1.742-1.663,3.018-1.831c1.249,0.144,2.356,0.61,3.301,1.446c0.71,1.129,0.678,2.213-0.217,3.238c-1.042,2.084-2.083,4.165-3.125,6.246c0.005,1.047,0.01,2.094,0.014,3.141C54.263,80.253,52.167,80.243,50.073,80.231z"/>
<path fill="#2B2015" d="M40.711,42.795c-2.078-0.018-4.156-0.037-6.233-0.055c0.003-1.038-0.014-2.072-0.052-3.11c2.09,0,4.184,0,6.276,0C40.705,40.684,40.708,41.74,40.711,42.795z"/>
<path fill="#2B2015" d="M40.746,45.82c-0.009-1.022-0.034-2.042-0.073-3.064c2.097,0,4.195,0,6.294,0c-0.004,1.05-0.007,2.103-0.012,3.152C44.886,45.881,42.815,45.851,40.746,45.82z"/>
<path fill="#2A2114" d="M72.008,39.628c1.018-2.109,2.037-4.218,3.057-6.326c2.108-0.992,4.218-1.984,6.328-2.976c2.07,1.025,4.14,2.051,6.21,3.073l0.017-0.034c-1.066,0.986-2.09,2.008-3.074,3.073c-1.06,0.021-2.118,0.042-3.179,0.061c-1.329,1.37-2.69,2.701-4.268,3.796c-0.591,0.247-1.183,0.485-1.774,0.729C73.988,41.111,72.87,40.669,72.008,39.628z"/>
<path fill="#1E170F" d="M81.347,55.292c-1.047-0.009-2.094-0.018-3.141-0.03c-1.641-2.081-1.639-4.159,0.017-6.234c2.088,1.028,4.174,2.057,6.261,3.085c-0.011,1.035-0.021,2.069-0.032,3.106C83.455,56.846,82.419,56.791,81.347,55.292z"/>
<path fill="#312415" d="M81.347,55.292c1.034-0.024,2.07-0.049,3.104-0.073c0.002,1.057,0.004,2.115,0.005,3.174c-1.044,1.008-2.081,0.952-3.114-0.018C81.342,57.35,81.344,56.321,81.347,55.292z"/>
<path fill="#241C12" d="M81.342,58.375c1.039,0.003,2.077,0.009,3.114,0.018c0.006,1.035,0.008,2.069,0.003,3.104C83.42,60.456,82.381,59.415,81.342,58.375z"/>
<path fill="#2E2315" d="M78.223,49.027c-0.006,2.078-0.011,4.156-0.017,6.234l0.024-0.024c-1.726,1.858-3.719,1.837-5.86,0.84c-1.157-0.943-1.982-2.124-2.544-3.504c-0.314-1.456-0.351-2.914-0.093-4.382c0.475-1.438,1.357-2.573,2.581-3.449c2.231-1.022,4.223-0.76,5.908,1.12c0,0-0.004,0.043-0.004,0.046C78.22,46.946,78.222,47.986,78.223,49.027z"/>
<path fill="#211910" d="M78.223,45.862c-2.093,0.009-4.187,0.019-6.28,0.028c-0.955,1.111-2.06,1.285-3.311,0.525c-0.225-0.617-0.447-1.236-0.672-1.853c0.298-0.586,0.595-1.172,0.893-1.755c1.028,0.009,2.057-0.015,3.084-0.07c0.893-1.2,1.979-2.201,3.161-3.104l-0.001-0.021c2.064-1.676,4.13-1.975,6.198-0.003c1.066,0.009,2.133,0.019,3.201,0.031c-0.023,1.038-0.035,2.072-0.037,3.11C82.38,43.788,80.301,44.825,78.223,45.862z"/>
<path fill="#352716" d="M81.295,39.609c-2.066,0-4.133,0.003-6.198,0.003c2.09-1.038,4.181-2.075,6.27-3.113C81.347,37.538,81.323,38.572,81.295,39.609z"/>
<path fill="#3B2C1A" d="M84.545,36.439c1.023-1.022,2.049-2.048,3.073-3.073C86.594,34.391,85.569,35.414,84.545,36.439z"/>
<path fill="#1E170F" d="M71.921,55.21c2.103,0.009,4.205,0.019,6.309,0.027c-0.004,1.047-0.008,2.094-0.013,3.138c-0.898,0.985-2.014,1.474-3.345,1.474c-1.305,0-2.505-0.345-3.584-1.086c-0.108-0.632-0.217-1.261-0.325-1.893C71.282,56.317,71.603,55.763,71.921,55.21z"/>
<path fill="#332616" d="M71.924,58.411c2.099-0.012,4.196-0.024,6.293-0.036c-0.001,1.04-0.001,2.081,0,3.122c-2.069,0.024-4.138,0.052-6.206,0.079c0.002,0.003-0.071-0.113-0.071-0.113c-0.749-0.674-1.001-1.352-0.755-2.032C71.43,58.75,71.676,58.411,71.924,58.411z"/>
<path fill="#483521" d="M53.217,39.625c1.049-0.006,2.096-0.012,3.144-0.021c0.641,0.287,1.281,0.577,1.926,0.86c1.612,1.611,2.304,3.479,1.588,5.737c-1.618,2.433-3.3,4.73-6.741,2.838l0.07,0.046c-1.121-0.705-1.495-1.41-1.124-2.118c0.369-0.708,0.741-1.062,1.116-1.062c-1.034-2.093-2.068-4.187-3.104-6.28C51.134,38.328,52.177,38.389,53.217,39.625z"/>
<path fill="#2E2317" d="M53.196,45.905c0.003,1.059,0.007,2.118,0.008,3.18c-2.118-1.053-4.235-2.105-6.355-3.158C48.963,45.92,51.079,45.911,53.196,45.905z"/>
<path fill="#503B22" d="M53.217,39.625c-1.04,0-2.083,0-3.125,0c0-1.041,0-2.084,0-3.125c1.042,0,2.083,0,3.125,0C53.217,37.541,53.217,38.584,53.217,39.625z"/>
<path fill="#2B2015" d="M62.53,36.518c0.04,1.038,0.058,2.075,0.054,3.116c-0.425,0.427-0.849,0.858-1.271,1.288c-1.894,0.479-3.544,0.024-4.97-1.297c0,0,0.017-0.021,0.019-0.021c-0.011-1.028-0.017-2.06-0.019-3.088C58.404,36.515,60.467,36.518,62.53,36.518z"/>
<path fill="#684F2E" d="M68.815,61.354c-1.05,1.028-2.098,2.054-3.147,3.082c-0.917,1.31-2.15,1.669-3.659,1.218c-1.982-1.185-3.253-2.851-3.504-5.203c0.881-3.479,3.487-4.401,6.657-4.502c1.483,0.217,2.84,0.748,4.057,1.633C70.125,58.948,70.044,60.212,68.815,61.354z"/>
<path fill="#221B11" d="M62.581,64.481c1.03,0.073,2.061,0.058,3.086-0.043c0.017,1.099,0.031,2.2,0.049,3.302c-1.036,0.003-2.072,0-3.108-0.012c-0.31-0.537-0.621-1.077-0.934-1.614C61.974,65.57,62.278,65.024,62.581,64.481z"/>
<path fill="#5F4A2C" d="M68.815,61.354c0.017-0.938,0.016-1.871-0.003-2.808c0.993-1.157,2.04-1.206,3.137-0.146c0,0-0.022,0.009-0.022,0.012c0.036,1.017,0.041,2.036,0.014,3.052C70.898,61.427,69.857,61.39,68.815,61.354z"/>
<path fill="#2B2214" d="M59.467,70.875c-0.008-1.053-0.015-2.106-0.024-3.159c0.528-0.388,1.056-0.774,1.582-1.165c0.521,0.399,1.041,0.796,1.562,1.196l0.021-0.019C61.561,68.778,60.514,69.828,59.467,70.875z"/>
<path fill="#6E5231" d="M56.374,67.558c-1.01,0.104-2.014,0.256-3.011,0.461c-1.106-0.153-2.212-0.306-3.32-0.461c0.021-0.974,0.037-1.944,0.051-2.911c0.003-1.074,0.008-2.148,0.012-3.223c0.916-0.946,2.042-1.426,3.35-1.505c0.637-0.027,1.272-0.052,1.91-0.079c0.561,0.305,1.119,0.613,1.679,0.918c0.607,1.133,1.017,2.332,1.202,3.602C57.998,65.644,57.373,66.709,56.374,67.558z"/>
<path fill="#2F2317" d="M53.133,49.039c2.109-1.043,4.22-2.087,6.328-3.128c0.418,0.553,0.835,1.108,1.253,1.66c0.478,2.237-0.162,4.074-1.974,5.49c-2.084,0.843-3.986,0.83-5.451-1.188C53.306,50.926,53.254,49.982,53.133,49.039z"/>
<path fill="#6F5132" d="M53.289,51.874c2.051,0.138,4.102,0.272,6.152,0.406c0.335,0.455,0.673,0.906,1.008,1.358c0.066,1.189-0.364,2.16-1.286,2.917c-1.028,0.531-2.117,0.767-3.272,0.669c-1.081-0.403-1.974-1.063-2.678-1.978l-0.01-0.004C53.233,54.12,53.26,52.997,53.289,51.874z"/>
<path fill="#40301F" d="M53.146,61.332c-1.012,0.079-2.025,0.109-3.04,0.092c-0.009-1.025-0.015-2.051-0.02-3.073c1.042,0.012,2.083,0.009,3.125-0.019c0.752,0.684,0.992,1.358,0.724,2.018C53.667,61.005,53.405,61.332,53.146,61.332z"/>
<path fill="#4D3B25" d="M53.146,61.332c0.052-0.998,0.073-1.996,0.065-2.997c0.009-1.031,0.011-2.06,0.002-3.088c1.013,0.009,2.027,0.018,3.041,0.027c1.964,2.035,1.75,4.126,0.143,6.243C55.314,61.457,54.229,61.396,53.146,61.332z"/>
<path fill="#2C2116" d="M68.841,39.649c0.003,1.053,0.007,2.105,0.012,3.155c0,0.003,0.051-0.058,0.051-0.058c-0.936,1.032-2.1,1.633-3.466,1.865c-1.384-0.119-2.603-0.628-3.66-1.526c-0.575-1.361-0.341-2.53,0.825-3.479l-0.02,0.027C64.669,39.64,66.755,39.643,68.841,39.649z"/>
<path fill="#292013" d="M75.098,39.634c-1.053,1.035-2.106,2.069-3.161,3.104c0.014-1.038,0.036-2.075,0.07-3.11C73.038,39.625,74.069,39.628,75.098,39.634z"/>
<path fill="#785833" d="M56.374,67.558c-0.016-1.031-0.011-2.063,0.013-3.095c2.922-0.754,4.127,0.067,2.881,3.141l0.177,0.112c-0.002,0-1.54,0.007-1.54,0.007L56.374,67.558z"/>
<path fill="#43331E" d="M65.688,42.835c1.071-0.028,2.143-0.058,3.214-0.089c-0.001,0.986-0.017,1.972-0.047,2.954c1.176,0.94,2.051,2.164,3.065,3.256c-0.014,1.08-0.027,2.164-0.041,3.244c-1.22,1.27-1.703,3.128-3.296,4.102c-0.594,0.082-1.185,0.161-1.779,0.244c-0.564-0.208-1.126-0.418-1.694-0.626c-0.831-0.903-1.427-1.94-1.814-3.104c-0.289-1.184-0.43-2.387-0.438-3.607c0.011-1.218,0.217-2.407,0.589-3.567C64.028,44.578,64.778,43.641,65.688,42.835z"/>
<path fill="#503B22" d="M71.92,48.957c-1.022-1.083-2.043-2.17-3.065-3.253c1.029,0.052,2.06,0.116,3.088,0.186C71.972,46.912,71.964,47.935,71.92,48.957z"/>
<path fill="#503B22" d="M68.868,55.204c1.004-1.001,2.008-2.002,3.012-3.003c0.041,1.004,0.055,2.005,0.041,3.009l0.021,0.009C70.909,56.523,69.886,56.517,68.868,55.204z"/>
<path fill="#2E2317" d="M68.868,55.204c1.025,0.033,2.049,0.039,3.073,0.015c0.001,1.06,0.004,2.121,0.007,3.181c-1.045,0.049-2.092,0.095-3.137,0.144c-0.993-0.122-1.99-0.189-2.991-0.192c-0.847-0.604-1.17-1.258-0.972-1.956c0.206-0.724,0.437-1.087,0.691-1.087C66.65,55.274,67.759,55.237,68.868,55.204z"/>
<path fill="#3E2F1D" d="M62.603,39.606c-0.005,1.05-0.008,2.103-0.011,3.152c0.763,0.656,1.055,1.352,0.876,2.084c-0.183,0.75-0.391,1.126-0.619,1.126c-1.158,0.785-2.297,0.753-3.415-0.088c0,0,0.027,0.027,0.027,0.03c-1.039-2.096-2.08-4.19-3.119-6.286C58.43,39.619,60.516,39.613,62.603,39.606z"/>
<path fill="#755633" d="M65.54,55.308c0.13,1.01,0.223,2.026,0.28,3.043c-2.138,0.97-4.276,1.943-6.414,2.917c-0.951,1.508-1.984,1.565-3.1,0.177l0.09,0.073c-0.047-2.081-0.094-4.162-0.143-6.243c1.103-0.024,2.208-0.046,3.311-0.07c2.074-1.813,4.12-1.792,6.138,0.095L65.54,55.308z"/>
<path fill="#40301F" d="M56.307,61.444c1.038,0.007,2.071-0.049,3.1-0.174c1.059,1.068,2.117,2.143,3.175,3.214c0.002,1.086,0.003,2.173,0.005,3.263c-1.106-0.049-2.211-0.095-3.317-0.144c-0.963-1.047-1.923-2.091-2.882-3.138C56.391,63.456,56.365,62.452,56.307,61.444z"/>
<path fill="#4D3921" d="M59.434,45.881c1.054,0,2.108,0.003,3.163,0.003c0,0,1.449,0.543,1.451,0.54c0.299,1.02,0.855,1.877,1.671,2.561c-0.002,1.053-0.003,2.108-0.007,3.162c-2.101,1.843-4.197,1.87-6.289-0.016c0,0,0.019,0.146,0.019,0.149C59.44,50.148,59.437,48.014,59.434,45.881z"/>
<path fill="#2B2015" d="M59.423,52.131c2.097,0.003,4.193,0.009,6.289,0.012c-0.003,1.054-0.006,2.104-0.009,3.153c-2.049-0.028-4.099-0.059-6.143-0.089C59.491,54.182,59.445,53.156,59.423,52.131z"/>
<path fill="#4B3722" d="M62.597,45.884c-0.002-1.041-0.003-2.084-0.005-3.125c1.033,0,2.064,0.028,3.096,0.077c0.018,1.01,0.026,2.023,0.028,3.033c-1.043,1-2.088,1-3.133,0.003L62.597,45.884z"/>
<path fill="#40321D" d="M62.583,45.872c1.044,0,2.089,0,3.133-0.003c0.001,1.041,0.001,2.079,0.003,3.116C64.673,47.947,63.628,46.909,62.583,45.872z"/>
</svg>