<?xml version="1.0" encoding="utf-8"?>
<!DOCTYPE svg PUBLIC "-//W3C//DTD SVG 1.1//EN" "http://www.w3.org/Graphics/SVG/1.1/DTD/svg11.dtd">
<svg version="1.1" xmlns="http://www.w3.org/2000/svg" xmlns:xlink="http://www.w3.org/1999/xlink" x="0px" y="0px" width="100px" height="100px" viewBox="0 0 100 100" enable-background="new 0 0 100 100" xml:space="preserve">
<path fill="#B8A972" d="M40.695,5.247c2.09-2.082,4.182-4.166,6.272-6.247c2.083,0,4.167,0,6.25,0c2.158,2.008,4.315,4.013,6.475,6.021c-0.268,0.568-0.534,1.135-0.79,1.712c-1.214,1.462-2.668,2.655-4.192,3.775c-1.496,1.163-3.091,2.169-4.8,2.994c-2.919,1.23-5.939,2.146-9.045,2.795c-1.277,0.171-2.55,0.125-3.821-0.073c-3.202-0.687-6.035-2.048-8.229-4.56c3.965-2.145,7.93-4.291,11.896-6.436c0.696,0.751,1.538,1.264,2.528,1.535l1.288,0.754c0,0-1.238-0.833-1.239-0.833C42.297,6.434,41.433,5.952,40.695,5.247z"/>
<path fill="#BDAF79" d="M9.142,48.753c3.335-1.819,6.671-3.641,10.007-5.463c1.183,0.628,2.087,0.314,2.747-0.818c1.076-0.772,2.151-1.544,3.227-2.316c0.961,0.406,1.674,1.077,2.158,1.996c0.526,0.839,1.015,1.703,1.529,2.551c0.67,0.766,1.349,1.51,2.13,2.188c0.897,0.635,1.712,1.325,2.538,2.045c1.327,1.205,2.351,2.597,3.006,4.27c0.349,1.218,0.479,2.444,0.433,3.708c-0.29,1.996-1.127,3.674-2.763,4.913c-3.461,1.291-6.473-0.109-9.491-1.535c-1.739-0.925-3.371-2.023-4.985-3.149C16.125,54.404,11.285,53.263,9.142,48.753z"/>
<path fill="#7D734C" d="M28.814,11.665c2.916,1.029,5.832,2.054,8.748,3.08c4.621,2.664,9.387,5.017,14.451,6.747c1.903,0.891,3.452,2.197,4.619,3.943c0.603,1.251,0.738,2.561,0.428,3.909c-0.731,1.129-1.716,1.975-2.961,2.494c-1.257,0.277-2.54,0.302-3.814,0.146c-1.796-0.293-3.572-0.766-5.347-1.184c-1.697-0.296-3.39-0.668-5.058-1.117c-1.079-0.287-2.115-0.711-3.122-1.19c-1.48-0.696-2.938-1.456-4.375-2.255c-0.952-0.556-1.683-1.333-2.238-2.277c-0.371-1.01-0.821-1.986-1.34-2.93C28.808,17.909,28.811,14.787,28.814,11.665z"/>
<path fill="#837A55" d="M6.881,74.164c0.003-3.207,0.006-6.417,0.011-9.628c0.372-0.977,1.079-1.517,2.115-1.633c0.948-0.125,1.846,0.046,2.692,0.485c0.809,0.415,1.564,0.928,2.293,1.474c0.875,0.346,1.758,0.623,2.71,0.767c1.044,0.125,1.992,0.451,2.91,0.958c0.452,0.314,0.87,0.629,1.32,0.949c0.388,0.415,0.743,0.827,1.127,1.245c0.658,0.988,1.03,2.06,1.192,3.226c-0.194,2.575-1.435,4.538-3.473,6.046c-2.212,1.067-4.898,0.098-7.008,1.623c-1.115-0.763-2.23-1.522-3.348-2.286C8.546,76.337,7.698,75.263,6.881,74.164z"/>
<path fill="#BAAA72" d="M81.852,17.527c3.894,2.157,7.788,4.315,11.682,6.473c-0.882,0.982-1.778,1.95-2.691,2.908c-2.496,2.276-5.504,3.619-8.63,4.746c-1.925,0.564-3.849,0.623-5.751-0.095c-1.112-0.699-1.891-1.682-2.392-2.893c-0.241-1.926,0.168-3.778,0.656-5.625c0.273-1.227,0.692-2.411,1.18-3.573c0.573-1.139,1.392-2.075,2.426-2.82C79.616,16.483,80.785,16.798,81.852,17.527z"/>
<path fill="#766C4A" d="M28.852,36.561c-0.028-4.208-0.054-8.417-0.08-12.625c0.876-0.873,1.73-0.812,2.565,0.061l0.009,0.006c1.649,1.919,4.561,1.312,6.262,3.128l-0.031-0.03c1.43,1.291,3.414,1.962,4.309,3.86c0.154,1.364-0.091,2.646-0.723,3.863c-1.736,2.286-3.999,3.666-6.868,4.016C32.147,38.886,30.258,38.294,28.852,36.561z"/>
<path fill="#7D734C" d="M53.23,96.387c-2.097-0.106-4.193-0.213-6.29-0.316c-1.15-1.185-2.698-1.917-3.691-3.26c-0.577-0.931-0.691-1.926-0.346-2.954c0.938-0.326,1.41-0.5,1.41-0.5c-0.888-0.721-1.861-0.861-2.951-0.395c-1.807,0.165-3.439-0.442-5.116-0.952c-1.275-0.356-2.228-1.083-2.843-2.264c-0.049-1.374,0.351-2.57,1.265-3.602c1.727-1.227,3.668-1.801,5.739-2.051c1.402-0.131,2.795-0.082,4.191,0.086c2.115,0.348,4.045,1.12,5.711,2.499c2.968,3.366,3.644,7.357,3.133,11.664C53.376,95.023,53.303,95.707,53.23,96.387z"/>
<path fill="#BAAA72" d="M62.958,7.997c2.992,1.19,5.983,2.377,8.976,3.564c2.027,2.64,0.649,5.023-0.528,7.431c-0.741,1.123-1.686,2.057-2.773,2.844c-1.859,0.895-3.746,1.001-5.649,0.153c-0.979-0.876-1.474-1.984-1.479-3.296c0.283-1.239,0.994-1.788,2.241-1.624c-1.446-1.062-3.447-0.467-4.648-1.858c-0.589-1.187-0.695-2.42-0.395-3.699c0.57-1.175,1.364-2.164,2.411-2.945C61.727,8.375,62.343,8.186,62.958,7.997z"/>
<path fill="#5A543C" d="M90.775,77.365c-1.113,0.761-2.228,1.521-3.341,2.283c-1.537-0.781-3.347-1.218-3.997-3.125c-0.146-1.758,0.37-3.366,1.125-4.913c0.644-1.48,1.251-2.991,1.692-4.563c0.27-1.074,0.781-2.023,1.466-2.884c0.887-0.675,1.879-1.09,2.986-1.224c1.145,0.122,2.01,0.692,2.637,1.645c-0.008,3.183-0.014,6.363-0.02,9.546C92.508,75.235,91.658,76.313,90.775,77.365z"/>
<path fill="#94895E" d="M9.142,48.753c4.277,2.151,8.554,4.3,12.831,6.451c-0.159,0.616-0.319,1.229-0.471,1.853c-0.758,1.05-1.715,1.864-2.892,2.423c-0.63,0.082-1.267,0.155-1.901,0.244c-2.596-0.217-4.924-1.142-7.005-2.704c-1.339-1.357-1.932-3.18-2.899-4.772C7.583,51.081,8.363,49.918,9.142,48.753z"/>
<path fill="#4C4530" d="M93.343,64.585l-1.324,0.021l-1.323-0.009c-0.987-0.827-1.898-1.728-2.735-2.71c-1.793-3.021-1.926-6.135-0.544-9.342c0.569-1.172,1.337-2.21,2.273-3.119c1.128-0.747,2.338-0.894,3.62-0.448C93.321,54.182,93.331,59.385,93.343,64.585z"/>
<path fill="#BFB177" d="M68.858,17.811c1.025-2.084,2.051-4.166,3.076-6.25c3.305,1.99,6.609,3.979,9.916,5.966c-1.202,0.076-2.406,0.149-3.608,0.226c-1.565,1.672-3.48,2.444-5.773,2.255C71.049,19.63,69.856,18.879,68.858,17.811z"/>
<path fill="#827A57" d="M31.422,89.06c-1.085-0.774-2.17-1.547-3.254-2.322c-0.966-1.059-1.766-2.23-2.407-3.516c-0.911-2.878-0.595-5.633,0.815-8.279c0.884-1.196,2.095-1.718,3.566-1.663c2.021,0.919,3.108,2.576,3.641,4.657c0.189,1.324,0.119,2.648-0.187,3.952c-0.435,1.227-0.682,2.502-0.696,3.817C32.937,87.052,32.469,88.185,31.422,89.06z"/>
<path fill="#726746" d="M28.289,74.055c-0.057,3.14-0.113,6.28-0.168,9.421c-0.819,1.028-1.79,1.88-2.936,2.529c-1.111-0.757-2.222-1.514-3.331-2.271c-0.873-1.056-1.23-2.264-1.076-3.628c0.9-2.503,2.069-4.858,3.862-6.863C25.987,72.929,27.21,73.17,28.289,74.055z"/>
<path fill="#463E2C" d="M78.342,83.713c-2.038,0.968-4.077,1.936-6.115,2.902c-0.521,0.357-1.039,0.711-1.559,1.071c-0.619-0.122-1.237-0.247-1.855-0.372c-0.834-1.017-1.161-2.176-0.985-3.482c0.595-1.145,1.418-2.087,2.482-2.819c1.644-1.004,3.417-1.666,5.33-1.941c1.296-0.012,2.46,0.376,3.47,1.199C79.481,81.556,79.224,82.703,78.342,83.713z"/>
<path fill="#463E2B" d="M63.151,90.226c-3.307,2.054-6.614,4.107-9.921,6.161c0.694-0.369,0.853-0.899,0.473-1.59c-0.955-3.53,1.049-5.337,3.874-6.674c1.447-0.263,2.858-0.128,4.233,0.399C62.256,89.088,62.703,89.655,63.151,90.226z"/>
<path fill="#534C33" d="M90.726,24.045c0.932-0.381,1.868-0.396,2.81-0.042c-0.067,3.131-0.133,6.268-0.198,9.402c-1.506,0.22-2.778-0.205-3.786-1.37C88.138,29.108,88.648,26.462,90.726,24.045z"/>
<path fill="#65593E" d="M43.794,89.75c1.048,2.105,2.096,4.211,3.146,6.32c-2.113-0.998-4.225-1.996-6.337-2.997c-0.773-0.751-1.1-1.557-0.981-2.42c0.122-0.892,0.293-1.334,0.511-1.334C41.469,88.462,42.69,88.606,43.794,89.75z"/>
<path fill="#7D734C" d="M6.805,52.247c0.903,0.964,1.807,1.929,2.708,2.893c1.764,1.749,1.962,3.775,1.065,5.994c-0.566,0.464-1.134,0.928-1.7,1.392c-0.656-0.324-1.314-0.647-1.97-0.971C6.873,58.451,6.839,55.351,6.805,52.247z"/>
<path fill="#675D41" d="M28.852,36.561c1.819-0.012,3.638-0.024,5.457-0.034c0.714,1.303,0.615,2.512-0.42,3.616c-1.245,0.656-2.557,0.894-3.95,0.653c-0.548-0.412-1.096-0.827-1.645-1.242C28.162,38.496,28.347,37.498,28.852,36.561z"/>
<path fill="#534C33" d="M93.272,36.46c0.003,2.094,0.006,4.187,0.009,6.281c-1.022,0.559-2.011,0.534-2.966-0.168c-0.698-0.876-1.106-1.868-1.233-2.981c0.12-1.114,0.534-2.112,1.231-2.991C91.265,35.874,92.253,35.859,93.272,36.46z"/>
<path fill="#6B5E41" d="M12.769,79.676c2.019-0.842,4.038-1.685,6.058-2.526c0.348,0.665,0.694,1.33,1.042,1.995c-0.526,0.534-1.053,1.071-1.579,1.605C16.45,80.393,14.61,80.033,12.769,79.676z"/>
<path fill="#3B3627" d="M84.489,77.091c0.981,0.854,1.964,1.706,2.945,2.558c-1.868,0.391-3.735,0.778-5.604,1.169c-0.472-0.455-0.944-0.906-1.417-1.358C81.019,77.372,82.028,75.983,84.489,77.091z"/>
<path fill="#695F42" d="M31.422,89.06c-0.014-0.854-0.04-1.705-0.079-2.56c1.039-1.569,2.081-1.569,3.124-0.004c1.028,0.01,2.058,0.013,3.086,0.01c0.421,0.665,0.841,1.33,1.261,1.996c-0.586,0.524-1.172,1.05-1.758,1.574C35.177,89.737,33.299,89.398,31.422,89.06z"/>
<path fill="#473F2C" d="M68.784,88.981c-1.877,0.415-3.756,0.83-5.634,1.245l-0.622-0.687c0.132-5.121,2.716-5.146,6.321-3.036l-0.009-0.007c0.732,0.568,0.967,1.127,0.708,1.673C69.291,88.709,69.037,88.981,68.784,88.981z"/>
<path fill="#B8A871" d="M59.692,5.021C60.778,6.016,61.866,7.008,62.958,8c0.001-0.003-0.469,0.434-0.469,0.434c-0.917,0.778-1.871,0.827-2.865,0.152C59.083,8,58.833,7.362,58.871,6.682C58.909,5.977,59,5.623,59.142,5.623L59.692,5.021z"/>
<path fill="#453D2B" d="M93.31,48.979c-0.867,0.012-1.735,0.021-2.602,0.027c-0.227-0.47-0.453-0.94-0.683-1.41c0.187-0.488,0.372-0.977,0.558-1.468c0.847-0.784,1.745-0.888,2.702-0.204C93.293,46.942,93.302,47.959,93.31,48.979z"/>
<path fill="#63573D" d="M31.338,23.997c-0.854-0.024-1.71-0.045-2.565-0.061c-0.526-0.973-0.514-1.944,0.032-2.905C29.649,22.019,30.494,23.008,31.338,23.997z"/>
<path fill="#554E35" d="M93.285,45.924c-0.849-0.016-1.698-0.028-2.549-0.04c0,0-0.89-0.921-0.893-0.918c-0.001,0-0.004-1.285-0.008-1.285c-0.001,0,0.883-0.931,0.883-0.931c0.854-0.003,1.709-0.006,2.562-0.009C93.282,43.803,93.283,44.862,93.285,45.924z"/>
<path fill="#453D2B" d="M93.272,36.46c-0.854,0.009-1.709,0.019-2.563,0.028c0,0-0.872-0.931-0.875-0.931c-0.003,0-0.004-1.278-0.007-1.278c-0.004,0,0.86-0.946,0.86-0.946c0.883,0.019,1.767,0.043,2.65,0.073C93.316,34.425,93.293,35.444,93.272,36.46z"/>
<path fill="#675D41" d="M6.881,74.164c0.847,1.074,1.694,2.151,2.541,3.226C8.575,76.315,7.728,75.241,6.881,74.164z"/>
<path fill="#BAAA72" d="M25.093,42.756c0.003-0.867,0.012-1.733,0.03-2.6c1.058-0.198,2.113-0.4,3.171-0.601l0.146-0.165c0.768,1.114,0.781,2.213-0.069,3.296C27.297,43.528,26.203,43.549,25.093,42.756z"/>
<path fill="#453D2B" d="M90.775,77.365c0.851-1.08,1.7-2.157,2.549-3.234C92.475,75.208,91.625,76.285,90.775,77.365z"/>
<path fill="#94895E" d="M21.896,42.472c-0.916,0.274-1.831,0.546-2.748,0.818C20.02,42.866,20.936,42.594,21.896,42.472z"/>
<path fill="#453D2B" d="M78.342,83.713c-0.044-1.132-0.088-2.264-0.133-3.394c0.977-1.001,2.021-1.025,3.121-0.21l0.5,0.708C80.667,81.781,79.505,82.746,78.342,83.713z"/>
<path fill="#63573D" d="M25.185,86.005c0.98-0.845,1.958-1.688,2.936-2.532c0.015,1.089,0.03,2.176,0.046,3.265C27.146,86.601,26.153,86.356,25.185,86.005z"/>
<path fill="#565039" d="M68.784,88.981c0.02-0.827,0.038-1.657,0.058-2.484c1.128,0.04,2.256,0.08,3.385,0.119C71.079,87.403,69.932,88.193,68.784,88.981z"/>
<path fill="#5D533C" d="M40.669,89.854c-0.021,1.074-0.044,2.148-0.066,3.22c-1.183-0.998-2.365-1.996-3.547-2.997l0.61-0.434C38.766,88.307,39.767,88.376,40.669,89.854z"/>
<path fill="#6B6144" d="M6.908,61.555c0.862-0.019,1.726-0.013,2.589,0.016c0.658,0.659,0.877,1.318,0.659,1.978c-0.22,0.659-0.438,0.988-0.659,0.988l-1.303,0.03l-1.305-0.03C6.376,63.538,6.382,62.547,6.908,61.555z"/>
<path fill="#63573D" d="M21.899,80.393c-0.014,1.114-0.029,2.229-0.044,3.342c-1.189-0.994-2.376-1.989-3.564-2.984l0.612-0.497C19.952,79.206,20.951,79.252,21.899,80.393z"/>
<path fill="#897D56" d="M53.185,24.049c-3.09-0.146-6.181-0.296-9.912-0.473c-1.855-2.872-3.784-5.853-5.711-8.832c1.103-0.095,2.205-0.187,3.308-0.278c3.404-1.392,6.328,0.369,9.375,1.407c1.729,1.114,3.042,2.591,3.881,4.477C54.389,21.727,54.044,22.953,53.185,24.049z"/>
<path fill="#C8BD83" d="M49.907,17.894c-3.014-1.142-6.026-2.283-9.038-3.427c3.098-1.004,6.192-2.005,9.288-3.006c1.044-1.105,2.29-1.432,3.744-0.986c1.22,0.75,2.207,1.736,2.971,2.942c0.254,0.656,0.506,1.315,0.757,1.971c-0.047,1.465-0.652,2.649-1.81,3.552C53.697,19.465,51.684,19.343,49.907,17.894z"/>
<path fill="#AB9C6D" d="M59.141,5.622c0.18,0.897,0.28,1.804,0.301,2.719c-0.414,0.467-0.827,0.937-1.241,1.404c-1.216,0.397-2.431,0.412-3.642-0.012c-0.453-0.43-0.908-0.86-1.361-1.291C55.178,7.502,57.16,6.562,59.141,5.622z"/>
<path fill="#99885F" d="M43.865,8.293c-1.051-1.022-2.103-2.042-3.155-3.064l-0.015,0.018c1.071,0.104,2.142,0.208,3.215,0.311c0.578,0.617,0.765,1.23,0.559,1.834C44.263,7.994,44.064,8.293,43.865,8.293z"/>
<path fill="#93815B" d="M43.865,8.293c-0.01-0.913,0.005-1.825,0.043-2.737c0.398,0.662,0.829,1.309,1.135,2.008C45.069,7.624,44.277,8.043,43.865,8.293z"/>
<path fill="#998960" d="M53.202,11.439l-1.523,0.027c0,0-1.524-0.006-1.522-0.006c1.013-1.007,2.027-2.014,3.041-3.019l-0.04-0.055c0.829,0.668,1.111,1.343,0.849,2.023C53.742,11.097,53.475,11.439,53.202,11.439z"/>
<path fill="#847953" d="M25.146,58.283c3.169,0.928,6.338,1.854,9.508,2.786c0.544-0.016,1.088-0.03,1.636-0.058c1.677,0.039,3.326,0.286,4.99,0.54c1.172,0.131,2.305,0.388,3.444,0.708c1.176,0.375,2.25,0.925,3.285,1.593c1.552,1.205,2.691,2.677,3.095,4.647c-0.176,1.347-0.77,2.479-1.714,3.445c-1.137,0.742-2.368,1.225-3.697,1.48c-2.031,0.211-4.015-0.043-5.968-0.589c-4.96-1.907-10.124-2.722-15.43-2.783c-1.861-0.711-3.952-0.888-5.498-2.338l0.093,0.07c-0.986-0.812-2.037-1.522-3.167-2.121c-0.372-0.521-0.741-1.04-1.114-1.563c-0.116-3.036,1.892-4.534,4.21-5.808l-0.037,0.067c0.893-0.814,1.942-1.096,3.124-0.925C22.907,58.012,23.988,58.295,25.146,58.283z"/>
<path fill="#A39366" d="M34.487,55.115c0.07-1.001,0.07-2.005,0.001-3.006c0.941-1.08,2.104-1.798,3.491-2.16c3.019-0.26,5.505,0.573,7.004,3.418c0.316,1.36,0.233,2.697-0.302,3.997c-2.266,2.582-4.782,1.822-7.335,0.547C36.343,57.038,35.39,56.102,34.487,55.115z"/>
<path fill="#7D734C" d="M25.146,58.283c-0.533,0.543-1.066,1.09-1.626,1.636c-0.545-0.556-1.062-1.114-1.58-1.669c-0.828-0.504-1.11-1.017-0.848-1.538c0.266-0.525,0.533-0.791,0.806-0.791l0.076-0.717C23.031,56.23,24.088,57.255,25.146,58.283z"/>
<path fill="#C8BD83" d="M34.487,55.115c1.015,0.076,2.025,0.189,3.03,0.342c1.776,1.844,2.091,3.912,0.957,6.211c-1.331,1.016-2.676,1.083-4.039,0.063c0,0,0.217-0.659,0.218-0.659C34.598,59.083,34.542,57.099,34.487,55.115z"/>
<path fill="#93815B" d="M37.695,52.115c-1.068-0.003-2.138-0.003-3.206-0.006c-1.013-1.02-2.026-2.038-3.04-3.058c0.383-0.421,0.765-0.846,1.146-1.27c1.076-0.439,2.188-0.61,3.346-0.485c1.125,0.345,2.033,0.995,2.73,1.938C39.037,50.428,38.711,51.386,37.695,52.115z"/>
<path fill="#A59467" d="M31.449,49.052c-1.115-0.113-2.229-0.226-3.345-0.336c-0.392-0.577-0.786-1.153-1.184-1.728c0.359-0.595,0.722-1.19,1.082-1.785c1.355-0.528,2.655-0.439,3.886,0.363c0.747,1.331,0.559,2.518-0.566,3.556L31.449,49.052z"/>
<path fill="#998960" d="M28.233,45.945c-0.012,0.924-0.055,1.852-0.126,2.774c-0.994-0.906-1.987-1.813-2.98-2.716C26.135,44.572,27.171,44.553,28.233,45.945z"/>
<path fill="#C8B47C" d="M28.233,45.945l-1.555-0.03L25.126,46c-0.01-1.081-0.022-2.161-0.033-3.244c1.048,0,2.096,0,3.145-0.003c0.377,0.519,0.754,1.038,1.134,1.556c-0.389,0.51-0.781,1.02-1.173,1.529L28.233,45.945z"/>
<path fill="#8E815A" d="M53.185,24.049c0.008-0.998,0.01-1.996,0.007-2.991c4.042-2.271,6.877,0.409,9.883,2.408c0.389,1.501,0.067,2.854-0.865,4.077c-2.059,1.27-4.05,1.553-5.886-0.406C55.279,26.106,54.232,25.077,53.185,24.049z"/>
<path fill="#63573D" d="M37.609,27.131c-2.087-1.043-4.175-2.084-6.262-3.128C33.434,25.046,35.522,26.087,37.609,27.131z"/>
<path fill="#675D41" d="M40.769,30.302c-1.063-1.068-2.127-2.133-3.191-3.201c2.077,0.009,4.152,0.021,6.229,0.03c0.635,0.668,0.867,1.355,0.694,2.06c-0.174,0.711-0.362,1.068-0.562,1.068C42.895,31.059,41.837,31.11,40.769,30.302z"/>
<path fill="#867953" d="M43.87,30.295c-0.02-1.053-0.042-2.108-0.063-3.165c2.09,1.022,4.182,2.048,6.273,3.07c-0.436,0.424-0.87,0.845-1.304,1.27c-1.181,0.375-2.365,0.387-3.555,0.042C44.772,31.11,44.32,30.705,43.87,30.295z"/>
<path fill="#887D57" d="M56.323,27.137c2.123-0.028,4.245-0.055,6.368-0.083c0.206,0.563,0.412,1.12,0.619,1.685c-0.357,1.184-1.082,2.087-2.121,2.75c-1.175,0.357-2.35,0.336-3.524-0.006c-0.439-0.409-0.879-0.818-1.317-1.227C56.345,29.215,56.338,28.175,56.323,27.137z"/>
<path fill="#7C724C" d="M50.08,30.201c1.058,0.021,2.113,0.042,3.169,0.061c0.6,0.656,0.797,1.306,0.592,1.956c-0.204,0.647-0.405,0.974-0.607,0.974c-1.07,0.589-2.135,0.58-3.194-0.031c-0.606-0.662-0.799-1.318-0.58-1.962c0.218-0.644,0.43-0.964,0.636-0.964L50.08,30.201z"/>
<path fill="#867F58" d="M53.277,33.283c-0.022-1.007-0.032-2.014-0.027-3.021c1.033-0.009,2.066-0.012,3.099-0.006l-0.012-0.012c0.619,0.644,0.838,1.297,0.656,1.962c-0.185,0.671-0.377,1.007-0.574,1.007c-0.516,0.256-1.036,0.513-1.555,0.769C54.336,33.75,53.806,33.515,53.277,33.283z"/>
<path fill="#867F58" d="M21.899,80.393c-0.996-0.091-1.996-0.137-2.997-0.14c-0.026-1.035-0.05-2.069-0.075-3.104c1.056-2.006,2.112-4.008,3.167-6.013c0.923-1.028,1.978-1.135,3.146-0.451c0.801,1.083,0.814,2.173,0.041,3.274C24.088,76.106,22.994,78.248,21.899,80.393z"/>
<path fill="#63573D" d="M25.105,70.854c-1.044,0.015-2.082,0.109-3.11,0.283c-1.066-1.138-2.132-2.279-3.198-3.421c2.1,0.01,4.201,0.019,6.3,0.031c0.351,0.516,0.702,1.034,1.053,1.55C25.801,69.815,25.452,70.334,25.105,70.854z"/>
<path fill="#64583E" d="M9.498,64.536c-0.026-0.988-0.027-1.98-0.001-2.97c0.001,0.004-0.015-0.042-0.015-0.042c1.417-0.547,2.599-0.26,3.505,0.998c-0.121,0.684-0.243,1.37-0.366,2.054l-1.561,0.012L9.498,64.536z"/>
<path fill="#675D41" d="M12.663,67.698c-0.017-1.041-0.032-2.079-0.043-3.119c0-0.003-0.065,0.058-0.065,0.058c1.041-1.264,2.116-1.357,3.229-0.088l-0.098,0.201c0.727,0.607,0.978,1.224,0.757,1.855c-0.224,0.632-0.453,0.952-0.689,0.952c-1.036,0.058-2.072,0.101-3.11,0.122L12.663,67.698z"/>
<path fill="#63583D" d="M15.753,67.558c-0.023-0.938-0.044-1.874-0.066-2.808c1.067,1.013,2.135,2.023,3.203,3.033C17.844,67.71,16.798,67.634,15.753,67.558z"/>
<path fill="#7B714B" d="M12.643,67.68c-0.232,0.424-0.465,0.845-0.697,1.27c0.238-0.415,0.478-0.833,0.717-1.248C12.663,67.698,12.643,67.68,12.643,67.68z"/>
<path fill="#5E563B" d="M90.726,24.045c-0.014,3.098-0.025,6.192-0.039,9.287h-0.01c-3.463,2.39-6.094,0.369-8.73-1.642c-0.309-0.574-0.609-1.154-0.911-1.733C84.266,27.985,87.496,26.017,90.726,24.045z"/>
<path fill="#C8B47C" d="M71.788,17.805c2.15-0.018,4.302-0.033,6.452-0.052c-0.016,1.081-0.031,2.164-0.048,3.244c-0.931,0.97-2.073,1.532-3.401,1.736c-1.338-0.144-2.539-0.617-3.59-1.465C70.571,19.975,70.728,18.812,71.788,17.805z"/>
<path fill="#C8B47C" d="M78.246,24.213c-1.061,0.971-2.12,1.941-3.179,2.912c-1.231,0.977-2.439,0.903-3.632-0.08c-0.404-2.527,0.732-3.955,3.177-4.449C76.115,22.486,77.324,23.026,78.246,24.213z"/>
<path fill="#C8BD83" d="M71.958,27.113c1.037,0.009,2.073,0.012,3.109,0.012c-0.014,0.961-0.05,1.919-0.109,2.881c-0.452,0.473-0.902,0.949-1.353,1.425c-2.006,0.693-3.831,0.437-5.421-1.041c-0.143-0.638-0.284-1.279-0.426-1.919c0.255-0.604,0.513-1.206,0.769-1.81C69.782,25.965,70.927,26.115,71.958,27.113z"/>
<path fill="#61593D" d="M74.958,30.006c2.026-0.019,4.053-0.034,6.079-0.049c-0.002,0,0.517,0.521,0.517,0.521c0.08,4.544-2.694,4.572-5.985,3.784c-0.878-0.775-1.218-1.596-1.024-2.466c0.2-0.891,0.431-1.336,0.694-1.336L74.958,30.006z"/>
<path fill="#93815B" d="M78.246,24.213c-1.017-0.152-2.036-0.247-3.062-0.293c-1.14-0.677-1.509-1.34-1.115-1.987c0.39-0.641,0.778-0.961,1.172-0.961c0.984-0.043,1.969-0.037,2.951,0.024C78.211,22.068,78.228,23.139,78.246,24.213z"/>
<path fill="#867E58" d="M40.769,30.302c1.033-0.031,2.067-0.034,3.101-0.006l-0.087-0.076c1.458,1.379,3.509,2.029,4.666,3.787c1.511,2.548,1.388,5.155,0.316,7.797c-1.074,1.84-2.739,2.71-4.8,2.893c-1.241-0.083-2.402-0.47-3.446-1.129c-0.276-0.507-0.569-1.035-0.857-1.529c0.04-0.549,0.073-1.129,0.095-1.678c1.955-1.486-0.264-2.704-0.317-4.083c-0.003-1.163,0.398-2.151,1.257-2.945C40.695,32.322,40.719,31.312,40.769,30.302z"/>
<path fill="#867C55" d="M40.696,33.332c0.006,1.056,0.014,2.109,0.021,3.165c0.717,0.678,0.961,1.361,0.735,2.051c-0.229,0.693-0.459,1.038-0.696,1.038l-0.05,0.049c-1.28,1.624-2.94,1.972-4.86,1.444c-0.487-0.37-0.972-0.745-1.458-1.117c-0.026-1.145-0.052-2.289-0.079-3.436C36.437,35.462,38.566,34.397,40.696,33.332z"/>
<path fill="#4D4732" d="M59.489,89.601c-1.93,1.733-3.862,3.467-5.791,5.2c-1.243-3.815-2.491-7.627-3.739-11.436c0.565-0.503,1.132-1.007,1.696-1.517c2.225-0.906,4.433-0.852,6.626,0.119C61.108,84.125,62.092,86.579,59.489,89.601z"/>
<path fill="#6A6143" d="M47.187,70.981c1.102-0.177,2.205-0.354,3.307-0.534c0.404,0.434,0.808,0.867,1.22,1.294c0.541,1.068,0.896,2.194,1.097,3.375c0.217,1.789,0.11,3.556-0.374,5.298c-0.534,1.053-1.188,2.036-1.937,2.957c0,0-0.538-0.006-0.54-0.006c-2.027,0-4.054,0.003-6.082,0.006c-0.827-1.104-1.234-2.347-1.237-3.729C42.931,76.114,44.285,73.139,47.187,70.981z"/>
<path fill="#837750" d="M31.343,83.375c0.033-1.111,0.067-2.226,0.102-3.336c1.253-1.438,2.269-3.125,4.146-3.915c1.341-0.153,2.594,0.104,3.776,0.76c1.066,0.823,1.915,1.834,2.563,3.015c0.325,1.41-0.116,2.555-1.207,3.47c-2.086,0.003-4.17,0.003-6.256,0.007C33.427,84.607,32.385,84.665,31.343,83.375z"/>
<path fill="#867D56" d="M40.669,89.854c-0.997-0.144-1.998-0.214-3.003-0.214c-0.037-1.044-0.075-2.09-0.113-3.134c2.107-0.003,4.215-0.003,6.32-0.006c0.816,1.053,0.841,2.09-0.046,3.115c0,0-0.032,0.132-0.033,0.132C42.751,89.783,41.711,89.82,40.669,89.854z"/>
<path fill="#867F58" d="M40.723,83.368c-0.004-0.982,0.006-1.962,0.029-2.944c0.495-0.306,0.991-0.61,1.485-0.919c0.525,0.25,1.048,0.507,1.573,0.763c0.004,1.035,0.027,2.069,0.065,3.104C42.826,83.371,41.775,83.368,40.723,83.368z"/>
<path fill="#867F58" d="M31.343,83.375c1.042,0,2.083,0,3.125,0c0,1.04,0,2.084,0,3.125c-1.042,0-2.084,0-3.125,0C31.343,85.459,31.343,84.415,31.343,83.375z"/>
<path fill="#7D734C" d="M43.827,89.615c0.011-1.037,0.026-2.078,0.046-3.115c0.385,0.747,0.842,1.471,1.088,2.258C45.01,88.91,44.227,89.322,43.827,89.615z"/>
<path fill="#BBA973" d="M62.54,24.079c-3.116-1.007-6.231-2.017-9.349-3.024c-1.095-1.053-2.188-2.108-3.284-3.161c2.202-0.052,4.405-0.107,6.61-0.159c2.064-1.886,4.088-1.74,6.076,0.122c0.008,1.031,0.017,2.06,0.028,3.088c0.761,0.717,1,1.422,0.724,2.111C63.072,23.737,62.804,24.079,62.54,24.079z"/>
<path fill="#C8BD83" d="M62.54,24.079c0.027-1.043,0.055-2.09,0.082-3.134c2.037,0,4.074,0,6.111,0c0.46,0.402,0.919,0.806,1.381,1.208c0.426,1.877,0.322,3.62-1.277,4.975l-0.017,0.018c-2.092,1.789-4.148,1.917-6.161-0.125l0.03,0.034C62.612,26.066,62.562,25.074,62.54,24.079z"/>
<path fill="#A59567" d="M62.594,17.857c-2.026-0.04-4.055-0.083-6.079-0.122c-0.021-1.056-0.046-2.112-0.07-3.165c1.031-0.928,2.046-0.955,3.042,0.052c1.353,0.22,2.704,0.436,4.192,0.677C63.253,16.303,62.923,17.082,62.594,17.857z"/>
<path fill="#C8B47C" d="M59.442,8.341c1.016,0.024,2.032,0.055,3.047,0.092c-1.015,1.028-2.029,2.057-3.043,3.085c-0.394-0.528-0.787-1.056-1.181-1.581c0.396-0.528,0.789-1.053,1.184-1.578L59.442,8.341z"/>
<path fill="#998960" d="M59.487,14.622c-1.016-0.003-2.03-0.019-3.044-0.052c0.002,0-0.16,0.08-0.16,0.08c-0.898-3.021,0.057-4.157,3.159-3.11l0.004-0.021C59.463,12.553,59.477,13.587,59.487,14.622z"/>
<path fill="#93815B" d="M71.788,17.805c0.127,1.02,0.187,2.042,0.181,3.07c-1.028,1.15-2.1,1.245-3.219,0.128c0,0-0.014-0.061-0.015-0.058c0.039-1.044,0.081-2.091,0.122-3.134C69.834,17.823,70.812,17.82,71.788,17.805z"/>
<path fill="#534B34" d="M81.33,80.109c-1.041,0.067-2.082,0.137-3.121,0.207c0,0.003-0.006-0.101-0.006-0.101c-3.681-2.194-4.515,1.3-6.198,3.098c-1.045,0.037-2.089,0.07-3.134,0.104c-1.709-1.3-2.327-3.104-2.393-5.157c0.125-1.297,0.511-2.523,1.128-3.665c1.148-1.522,2.687-2.533,4.423-3.256c1.576-0.705,3.189-1.374,4.717-2.213c1.438-0.937,2.93-1.782,4.549-2.384c1.134-0.296,2.266-0.271,3.397,0.01c0.896,0.723,1.684,1.553,2.354,2.493c0.183,0.54,0.364,1.086,0.546,1.63c-1.034,2.071-2.07,4.144-3.105,6.219C83.436,78.098,82.383,79.103,81.33,80.109z"/>
<path fill="#433B29" d="M84.499,67.799c-1.055-0.021-2.107-0.043-3.162-0.067c-0.163-0.662-0.326-1.324-0.491-1.99c1.098-2.071,2.856-2.713,5.08-2.347c0.552,0.403,1.103,0.809,1.654,1.215c-0.002,1.044-0.004,2.088-0.007,3.131c-0.503,0.439-1.007,0.882-1.511,1.328C85.541,68.65,85.021,68.223,84.499,67.799z"/>
<path fill="#423A28" d="M90.701,61.43c-0.001,1.056-0.004,2.111-0.006,3.168l-1.558,0.018l-1.558-0.006l0.033,0.03c-0.8-0.708-1.14-1.479-1.021-2.313c0.125-0.867,0.299-1.301,0.524-1.304C88.427,60.166,89.627,60.252,90.701,61.43z"/>
<path fill="#534C33" d="M87.573,67.74c0.406,0.742,0.884,1.462,1.152,2.256c0.051,0.146-0.734,0.576-1.134,0.879l0.002,0.003c-0.722-0.699-0.965-1.401-0.729-2.103c0.235-0.705,0.474-1.057,0.713-1.057L87.573,67.74z"/>
<path fill="#7D734C" d="M15.783,64.549c-1.077,0.027-2.153,0.058-3.229,0.088c-1.025-1.037-2.049-2.075-3.073-3.112c0.011-2.127,0.021-4.255,0.032-6.385c3.102,1.053,6.204,2.105,9.306,3.155C17.808,60.38,16.795,62.464,15.783,64.549z"/>
<path fill="#766B4B" d="M21.897,55.921c0.02,0.775,0.034,1.554,0.042,2.329c-1.053,0.036-2.104,0.073-3.157,0.112C19.821,57.548,20.86,56.736,21.897,55.921z"/>
<path fill="#59533A" d="M90.701,61.43c-1.028,0.039-2.055,0.067-3.083,0.082c-1.011,1.157-2.197,1.446-3.591,0.729c-0.957-1.063-1.596-2.292-1.934-3.684c-0.14-1.416-0.025-2.811,0.353-4.184c0.586-1.304,1.475-2.371,2.608-3.235c2.092-0.888,4.031-0.842,5.662,0.977C90.712,55.219,90.706,58.326,90.701,61.43z"/>
<path fill="#433B29" d="M90.717,52.115c-2.091-0.003-4.183-0.006-6.272-0.009c-0.304-0.562-0.607-1.123-0.911-1.685c0.177-1.34,0.893-2.301,2.073-2.933c2.007-0.51,3.746-0.119,5.115,1.517h-0.014C90.712,50.04,90.715,51.078,90.717,52.115z"/>
<path fill="#6B6143" d="M37.629,77.14c-2.062,0.968-4.125,1.935-6.186,2.899c-0.038-2.008-0.076-4.013-0.116-6.019c0.437-0.408,0.873-0.82,1.308-1.232c1.17-0.363,2.345-0.36,3.524-0.043C37.871,73.801,38.667,75.165,37.629,77.14z"/>
<path fill="#685E41" d="M25.182,73.96c-0.063-1.034-0.088-2.069-0.079-3.106c0.001,0-0.06,0.03-0.06,0.03c3.519-1.825,6.555-2.683,6.294,3.119c0,0-0.011,0.015-0.011,0.018c-1.013,0.01-2.028,0.021-3.04,0.034C27.253,74.015,26.219,73.984,25.182,73.96z"/>
<path fill="#565039" d="M68.847,77.149c0.008,2.09,0.017,4.178,0.024,6.268c-0.003,1.028-0.011,2.058-0.021,3.086c-2.107,1.01-4.215,2.023-6.323,3.036c-1.012,0.027-2.024,0.049-3.038,0.062c-1.072-2.079-2.146-4.157-3.22-6.235c-0.415-0.485-0.83-0.974-1.246-1.462c0.14-0.628,0.282-1.257,0.416-1.889c0.791-1.044,1.736-1.913,2.842-2.615c1.69-1.007,3.494-1.733,5.421-2.148C65.725,75.034,67.543,75.403,68.847,77.149z"/>
<path fill="#59543B" d="M72.005,83.314c0.362-1.428,0.724-2.856,1.396-5.512c1.895,0.952,3.35,1.682,4.802,2.414C76.137,81.247,74.072,82.282,72.005,83.314z"/>
<path fill="#C7BC82" d="M28.237,42.753c0.069-1.12,0.136-2.243,0.203-3.363c1.983,0.189,3.966,0.378,5.949,0.568c0,0.003-0.034-0.302-0.034-0.302c0.459,0.47,0.92,0.937,1.379,1.407c-0.224,1.355-0.898,2.402-2.093,3.101c-1.98,0.187-3.943,0.302-5.424-1.416L28.237,42.753z"/>
<path fill="#453D2A" d="M90.708,36.488c-0.023,1.016-0.027,2.032-0.016,3.048c-1.935,2.002-3.733,4.211-6.799,4.538c-1.482-0.113-2.729-0.699-3.721-1.822c-0.57-1.374-0.76-2.792-0.578-4.27c0.515-1.45,1.463-2.5,2.848-3.165c3.093-1.047,5.836-0.394,8.287,1.69L90.708,36.488z"/>
<path fill="#584F36" d="M84.448,42.744c2.083-1.068,4.164-2.136,6.245-3.208c0.009,1.071,0.017,2.143,0.026,3.214h-0.002C88.625,44.621,86.536,44.413,84.448,42.744z"/>
<path fill="#59543B" d="M90.722,49.006c-2.082,0.006-4.163,0.016-6.246,0.021c-0.784-1.364-0.777-2.698,0.15-3.998c2.165-0.696,4.284-1.068,6.082,0.852l0.028,0.003C90.725,46.925,90.719,47.965,90.722,49.006z"/>
<path fill="#534C34" d="M90.708,45.881c-2.08,0.009-4.161,0.015-6.241,0.024c-1.709,1.843-3.624,1.676-5.635,0.573c-0.998-1.086-1.356-2.358-1.08-3.808c1.203-1.01,2.396-0.995,3.578,0.04c1.039,0.019,2.079,0.031,3.118,0.034c2.089,0.003,4.178,0.006,6.269,0.006C90.714,43.794,90.711,44.837,90.708,45.881z"/>
<path fill="#534C33" d="M90.73,36.509c-3.138-0.003-6.274-0.006-9.41-0.009c-1.882,1.876-3.719,3.796-5.403,5.875c-1.966,1.465-3.787,1.532-5.414-0.522c-1.397-2.89-1.327-5.704,0.377-8.45c1.264-1.111,2.586-1.126,3.955-0.208c2.238-0.906,4.479-1.813,6.719-2.719c3.042,0.955,6.083,1.904,9.124,2.856C90.695,34.391,90.712,35.45,90.73,36.509z"/>
<path fill="#BAAB73" d="M59.442,11.54c-1.053,1.038-2.104,2.072-3.157,3.11c-1.028-1.071-2.056-2.139-3.082-3.208c0.009-1.019-0.007-2.036-0.045-3.055c2.097-0.009,4.195-0.019,6.291-0.027C59.448,9.419,59.445,10.481,59.442,11.54z"/>
<path fill="#857853" d="M37.629,77.14c-1.02-1.086-2.041-2.17-3.061-3.256c-0.244-5.677,2.63-4.989,6.14-3.013c2.158,0.037,4.315,0.07,6.476,0.11c-1.123,3.095-2.248,6.188-3.374,9.286l0.095,0.04c-1.636-2.032-4.645-1.358-6.361-3.229L37.629,77.14z"/>
<path fill="#7D734D" d="M40.708,70.871c-2.048,1.005-4.096,2.009-6.142,3.013c-1.076,0.039-2.151,0.079-3.229,0.119c-2.098-1.038-4.196-2.078-6.294-3.119c0.018-1.047,0.035-2.091,0.053-3.137C30.3,68.787,35.503,69.831,40.708,70.871z"/>
<path fill="#C3B57C" d="M50.493,70.447c-0.204-0.9-0.337-1.81-0.396-2.731c-0.929-0.891-1.482-1.983-1.71-3.25c-0.046-1.297,0.285-2.48,1.047-3.543c1.061-0.754,2.246-1.156,3.541-1.264c1.296,0.149,2.469,0.613,3.531,1.374c0.852,0.991,1.432,2.12,1.714,3.402c0.063,1.303-0.153,2.566-0.621,3.787c-0.997,1.718-2.378,3.024-4.201,3.839c-1.34,0.287-2.432-0.141-3.307-1.181L50.493,70.447z"/>
<path fill="#C4B179" d="M37.557,61.308c-0.014-1.95-0.026-3.903-0.038-5.854c2.139,0.906,4.28,1.81,6.422,2.713c0.386,0.348,0.772,0.699,1.164,1.047c0.45,0.961,0.647,1.975,0.606,3.033c-0.29,1.044-0.929,1.813-1.866,2.347l-1.517,0.031l-1.519-0.043C39.762,63.456,37.757,63.279,37.557,61.308z"/>
<path fill="#8C7E58" d="M37.557,61.308c1.083,1.093,2.168,2.185,3.253,3.274c-2.125-0.952-4.25-1.901-6.375-2.851C35.476,61.591,36.516,61.451,37.557,61.308z"/>
<path fill="#C5B980" d="M43.845,64.594c0.001-1.043,0.003-2.087,0.003-3.128c1.625-0.485,2.896-0.012,3.818,1.41c-0.342,0.692-0.685,1.386-1.03,2.078C45.692,64.945,44.762,64.823,43.845,64.594z"/>
<path fill="#C8BD83" d="M50.094,64.647c-0.013,1.021-0.011,2.047,0.004,3.069c-1.151-0.925-2.302-1.846-3.458-2.765c-0.003,0.003,0.338-0.299,0.338-0.299C48.014,63.178,49.052,63.099,50.094,64.647z"/>
<path fill="#BFAF77" d="M37.695,52.115c-0.057-1.016-0.125-2.026-0.206-3.039c0.182-1.914,1.204-3.293,2.759-4.331c1.747-0.403,3.525-0.396,5.309-0.33c1.202,0.083,2.362,0.342,3.496,0.754c1.677,0.787,3.164,1.828,4.437,3.183c0.739,1.025,1.196,2.164,1.401,3.412c-0.063,1.278-0.438,2.457-1.111,3.546c-0.903,0.916-1.953,1.6-3.163,2.042c-1.254,0.263-2.515,0.283-3.776,0.052c-1.169-0.521-2.161-1.285-2.972-2.279C41.81,54.12,39.753,53.116,37.695,52.115z"/>
<path fill="#998960" d="M43.867,55.125c1.033,0.058,2.066,0.101,3.099,0.128c0.786,0.729,1.117,1.517,0.994,2.362c-0.127,0.875-0.303,1.312-0.526,1.314c-1.356,0.854-2.548,0.623-3.598-0.543c0,0,0.104-0.217,0.105-0.22C43.891,57.154,43.867,56.138,43.867,55.125z"/>
<path fill="#C6BB81" d="M40.795,45.707c-1.102,1.123-2.204,2.246-3.307,3.369c-1.013-0.168-2.028-0.333-3.041-0.494c-1.01-0.712-1.491-1.7-1.521-2.921c-0.033-1.242,0.472-2.207,1.511-2.887l0.085-0.08c2.106-1.758,4.166-1.91,6.162,0.174l-0.093-0.085c1.167,0.571,1.585,1.193,1.259,1.871C41.511,45.356,41.161,45.707,40.795,45.707z"/>
<path fill="#C8BD83" d="M34.468,45.875c-0.003,0.906-0.011,1.81-0.02,2.71c-1.042,0.177-2.083,0.356-3.125,0.537c0.006-1.084,0.012-2.164,0.019-3.247C32.383,44.608,33.425,44.608,34.468,45.875z"/>
<path fill="#BBAA72" d="M34.468,45.875c-1.042,0-2.084,0-3.126,0c-1.047-0.009-2.094-0.021-3.142-0.034c0.017-1.035,0.023-2.063,0.019-3.095c2.074,0.009,4.147,0.016,6.221,0.028C34.461,43.809,34.472,44.843,34.468,45.875z"/>
<path fill="#675D41" d="M46.859,33.463c-1.025-1.081-2.049-2.161-3.076-3.244c2.104,0.006,4.208,0.012,6.312,0.015c0.024,1.041,0.029,2.082,0.016,3.122c-0.529,0.415-1.058,0.83-1.587,1.245C47.968,34.223,47.414,33.842,46.859,33.463z"/>
<path fill="#8E815A" d="M62.659,27.021c2.054,0.043,4.107,0.083,6.161,0.125c0.031,1.004,0.127,1.999,0.287,2.988c-1.37,1.669-3.122,1.938-5.098,1.389c-0.479-0.415-0.96-0.833-1.439-1.251C62.6,29.188,62.629,28.105,62.659,27.021z"/>
<path fill="#7D734C" d="M56.342,33.399c-0.001-1.053-0.004-2.103-0.006-3.156c2.078,0.009,4.156,0.019,6.234,0.027l-0.015,0.003c1.193,4.272-1.614,4.346-4.527,4.315C57.467,34.196,56.904,33.796,56.342,33.399z"/>
<path fill="#675D41" d="M50.111,33.356c1.055-0.024,2.11-0.049,3.166-0.073l-0.039,0.07c0.788,0.723,1.103,1.492,0.944,2.31c-0.163,0.839-0.36,1.26-0.596,1.264c-1.33,0.601-2.667,0.65-4.018,0.064c-0.79-1.352-0.662-2.563,0.528-3.623L50.111,33.356z"/>
<path fill="#736948" d="M53.216,36.518c0.006-1.056,0.014-2.109,0.021-3.165c1.035,0.009,2.07,0.024,3.104,0.046l-0.024-0.024c1.021,0.845,1.583,1.925,1.688,3.247c-0.251,1.285-0.857,2.374-1.813,3.271c-1.232,0.558-2.434,0.47-3.605-0.18C51.858,38.465,52.111,37.409,53.216,36.518z"/>
<path fill="#B9A872" d="M68.75,21.003c1.073-0.042,2.146-0.085,3.219-0.128c1.089,0.03,2.18,0.064,3.271,0.095c-0.11,0.982-0.129,1.968-0.057,2.954c-1.074,1.062-2.15,2.127-3.225,3.189c-1.04,0.006-2.081,0.012-3.122,0.015C68.809,25.086,68.78,23.044,68.75,21.003z"/>
<path fill="#887D57" d="M56.344,36.481c0.003-1.035-0.005-2.072-0.026-3.106c2.08-1.035,4.16-2.069,6.239-3.104c2.183-0.045,4.364-0.091,6.549-0.137c2.045,0.107,4.088,0.217,6.132,0.327c-0.132,0.913-0.265,1.825-0.401,2.737c-0.914,0.159-1.825,0.324-2.736,0.491c-2.683,1.908-1.208,6.772-5.411,7.611c-1.339,0.238-2.675,0.201-4.008-0.07C59.877,40.574,58.059,38.596,56.344,36.481z"/>
<path fill="#736847" d="M50.097,33.369c0,1.056,0,2.109,0,3.165c1.053,1.032,1.646,2.283,1.785,3.754c0.64,2.231,0.252,4.263-1.181,6.094c-1.398,0.729-2.715,0.565-3.96-0.363l0.174-0.034c-1.099-0.735-1.456-1.458-1.076-2.172c0.377-0.705,0.751-1.059,1.127-1.059c-0.035-3.098-0.07-6.195-0.106-9.29C47.938,33.433,49.018,33.402,50.097,33.369z"/>
<path fill="#63573D" d="M40.684,42.869c-2.056-0.055-4.111-0.113-6.165-0.171c-0.02-1.016-0.072-2.032-0.159-3.042c2.113-0.006,4.229-0.015,6.346-0.021C40.699,40.711,40.691,41.792,40.684,42.869z"/>
<path fill="#63573D" d="M46.967,42.753c-0.015,1.074-0.032,2.148-0.049,3.229c-2.044-0.085-4.086-0.174-6.125-0.269c-0.035-0.982-0.101-1.956-0.2-2.93C42.716,42.774,44.842,42.762,46.967,42.753z"/>
<path fill="#867953" d="M40.757,39.585c-0.024-1.028-0.037-2.06-0.04-3.088c0.406,0.732,0.879,1.444,1.153,2.222C41.92,38.862,41.149,39.289,40.757,39.585z"/>
<path fill="#453D2A" d="M56.358,80.243c-0.029,1.041-0.057,2.082-0.087,3.122c-1.929,0.003-3.854,0.003-5.777,0.006c-0.256-0.988-0.328-1.986-0.209-2.999C52.268,78.373,54.299,78.639,56.358,80.243z"/>
<path fill="#544D34" d="M56.358,80.243c-2.025,0.04-4.052,0.083-6.074,0.125c-0.021-2.117-0.045-4.238-0.067-6.359c1.021-1.199,1.891-2.512,2.777-3.809c1.127-0.961,2.253-1.923,3.381-2.884c1.383-1.188,1.972-3.277,4.109-3.613c1.294,0.269,2.358,0.9,3.174,1.953c0.51,1.215,0.723,2.475,0.621,3.793c-0.612,3.421-3.002,5.686-5.24,8.045c-0.898,0.925-1.801,1.849-2.704,2.771L56.358,80.243z"/>
<path fill="#59543B" d="M52.993,70.2c-0.927,1.27-1.853,2.539-2.777,3.809c-0.041-1.041-0.083-2.084-0.124-3.128C51.052,70.624,52.02,70.398,52.993,70.2z"/>
<path fill="#64583E" d="M37.544,77.079c2.119,1.077,4.24,2.151,6.361,3.229c-1.051,0.036-2.103,0.076-3.154,0.116C39.683,79.31,38.613,78.192,37.544,77.079z"/>
<path fill="#453D2B" d="M81.337,67.731c-1.043,1.065-2.086,2.127-3.128,3.188c-0.688,0.439-1.378,0.876-2.065,1.318c-0.574-0.576-1.149-1.159-1.725-1.736c0.098-1.758,0.93-3.045,2.492-3.86c1.693-0.47,3.175-0.098,4.444,1.12L81.337,67.731z"/>
<path fill="#463E2B" d="M75.075,73.993C72.998,73.996,70.92,74,68.844,74c-0.312-0.562-0.621-1.12-0.933-1.682c0.187-1.343,0.877-2.329,2.075-2.964c2.002-0.5,3.778-0.237,5.107,1.523l-0.005-0.007c0.725,0.696,0.964,1.392,0.719,2.085C75.562,73.648,75.32,73.993,75.075,73.993z"/>
<path fill="#423A28" d="M68.847,77.149c-2.088-0.016-4.175-0.028-6.261-0.043c-0.201-0.684-0.401-1.364-0.603-2.045c0.651-1.327,1.683-2.209,3.094-2.648c1.475-0.01,2.729,0.519,3.759,1.574L68.844,74C68.845,75.05,68.845,76.1,68.847,77.149z"/>
<path fill="#595037" d="M87.578,67.719c0.005,1.054,0.011,2.106,0.016,3.159c-1.032-1.028-2.063-2.054-3.095-3.079C85.526,67.772,86.551,67.743,87.578,67.719z"/>
<path fill="#514B32" d="M75.075,73.993c0.017-1.04,0.021-2.081,0.014-3.122c1.041,0.013,2.081,0.028,3.12,0.049C77.164,71.945,76.12,72.971,75.075,73.993z"/>
<path fill="#574E36" d="M81.356,67.762c-1.042-0.015-2.086-0.03-3.128-0.046c-1.942-1.611-1.842-3.549-0.908-5.621c0.927-1.099,2.085-1.831,3.472-2.203c1.462-0.01,2.678,0.552,3.676,1.608c1.05,0.003,2.1,0.006,3.149,0.012c0,1.044-0.002,2.085-0.003,3.128C85.528,65.681,83.442,66.722,81.356,67.762z"/>
<path fill="#564E35" d="M81.348,61.497C80.305,61.5,79.261,61.5,78.216,61.5c-0.412-0.455-0.824-0.913-1.239-1.367c-0.358-1.206-0.371-2.417-0.048-3.635c0.6-1.108,1.453-1.975,2.544-2.606c1.913-0.573,3.61-0.309,4.958,1.294c0.007,1.071,0.014,2.143,0.021,3.214C83.458,59.474,82.418,60.502,81.348,61.497z"/>
<path fill="#423A28" d="M84.431,55.186c-2.074,0.016-4.149,0.03-6.223,0.046c-0.151-0.675-0.301-1.349-0.452-2.026c0.704-1.248,1.735-2.094,3.097-2.542c1.454-0.092,2.656,0.434,3.639,1.492l-0.047-0.049C84.458,53.132,84.453,54.16,84.431,55.186z"/>
<path fill="#4D4732" d="M81.348,61.497c1.035-1.032,2.069-2.066,3.104-3.098c0.01,1.034,0.016,2.065,0.016,3.101C83.428,61.497,82.389,61.497,81.348,61.497z"/>
<path fill="#59543B" d="M84.491,52.155c-1.047-0.049-2.094-0.098-3.139-0.146c-1.929-0.83-3.32-2.14-3.819-4.251c0.23-0.626,0.463-1.248,0.694-1.874c2.08,0.006,4.159,0.012,6.239,0.021c0,1.041,0.003,2.081,0.009,3.122C84.481,50.067,84.487,51.111,84.491,52.155z"/>
<path fill="#453D2A" d="M56.334,80.265c0.004-1.047,0.007-2.094,0.01-3.14c1.026-1.145,2.203-1.325,3.529-0.55c0.822,1.303,0.641,2.499-0.403,3.595C58.425,80.204,57.38,80.234,56.334,80.265z"/>
<path fill="#443C2A" d="M59.47,80.17c-0.001-0.998-0.001-1.999-0.001-2.996c1.031-1.133,2.076-1.147,3.136-0.04l-0.019-0.027C61.547,78.126,60.509,79.148,59.47,80.17z"/>
<path fill="#61593D" d="M75.108,39.54c2.07-1.013,4.141-2.026,6.212-3.04c-0.018,1.019-0.018,2.035,0.001,3.052c-0.844,0.985-1.912,1.52-3.206,1.602C76.782,41.233,75.764,40.724,75.108,39.54z"/>
<path fill="#423A28" d="M78.228,39.677c1.03-0.049,2.062-0.088,3.093-0.125c0.003,1.053,0.006,2.105,0.01,3.158c-1.036,0.034-2.072,0.052-3.108,0.061c-0.938-0.689-1.247-1.376-0.934-2.066C77.599,40.022,77.912,39.677,78.228,39.677z"/>
<path fill="#453D2B" d="M78.228,39.677c-0.006,1.031-0.008,2.063-0.006,3.094c0,1.038,0.003,2.075,0.006,3.113v0.003c-1.631,1.877-3.514,1.722-5.507,0.678c-0.711-0.729-1.039-1.523-0.982-2.377c0.058-0.888,0.182-1.333,0.37-1.333c1-1.104,1.999-2.209,2.999-3.314C76.148,39.579,77.187,39.625,78.228,39.677z"/>
<path fill="#61593D" d="M72.109,42.854c0.005,0.967,0.081,1.932,0.232,2.887c-0.473,0.388-0.946,0.775-1.421,1.163c-1.253,0.161-2.425-0.076-3.523-0.702c-0.948-0.812-1.694-1.779-2.252-2.899c-0.367-1.236-0.206-2.393,0.567-3.442c2.129-2.06,4.258-4.117,6.386-6.174C72.103,36.744,72.106,39.799,72.109,42.854z"/>
<path fill="#BAAA72" d="M43.835,58.387c1.043-0.003,2.087-0.009,3.131-0.015c0.525-0.468,1.05-0.935,1.574-1.404c0.657,0.241,1.316,0.488,1.976,0.732c0.814,1.321,0.641,2.539-0.394,3.665c-0.009,1.093-0.019,2.188-0.027,3.281l-1.559-0.01c0,0-1.559,0.016-1.558,0.016c-1.043-1.063-2.085-2.124-3.129-3.187C43.848,60.44,43.844,59.412,43.835,58.387z"/>
<path fill="#93815B" d="M62.765,65.379c-1.001-0.224-1.996-0.471-2.985-0.748c-1.194,1.175-2.32,1.059-3.389-0.18c0.034-0.986,0.048-1.972,0.041-2.961c0.51-0.43,1.02-0.86,1.527-1.294c1.315-0.369,2.623-0.323,3.924,0.076c1.144,0.813,1.744,1.92,1.797,3.324C63.376,64.189,63.07,64.783,62.765,65.379z"/>
<path fill="#C8BD83" d="M56.391,64.451c1.128,0.061,2.256,0.122,3.386,0.18c-1.132,0.897-2.267,1.794-3.402,2.688C56.358,66.361,56.364,65.406,56.391,64.451z"/>
<path fill="#93815B" d="M50.121,61.365c-0.021-1.016-0.038-2.032-0.052-3.052c0.98-0.702,1.975-0.757,2.984-0.058c0.567,0.638,0.763,1.281,0.591,1.932c-0.174,0.653-0.354,0.979-0.537,0.979C52.118,61.332,51.122,61.399,50.121,61.365z"/>
<path fill="#A08E63" d="M53.108,61.167c0.066-0.915,0.108-1.831,0.12-2.75c0.435-0.381,0.87-0.766,1.307-1.153c1.222,0.059,2.195,0.58,2.925,1.563c0.386,1.248,0,2.176-1.155,2.783l0.127-0.119C55.323,61.384,54.215,61.277,53.108,61.167z"/>
<path fill="#C7B47B" d="M53.205,55.243c0.044-1.159,0.088-2.319,0.133-3.479c0.906-0.919,2.005-1.37,3.296-1.361c1.238,0.293,2.287,0.913,3.15,1.847c0.528,1.184,0.562,2.371,0.032,3.564c-0.996,0.836-2.148,1.147-3.432,1.004c-0.618-0.086-1.234-0.174-1.853-0.26C54.09,56.122,53.648,55.683,53.205,55.243z"/>
<path fill="#675D41" d="M46.741,46.018c1.14-0.073,2.281-0.143,3.421-0.216c0.987-1.068,2.094-1.212,3.32-0.427c0.212,0.616,0.424,1.233,0.637,1.849c-0.293,0.583-0.586,1.169-0.878,1.752C51.074,47.989,48.908,47.004,46.741,46.018z"/>
<path fill="#C8B47C" d="M53.228,58.417c-1.053-0.033-2.105-0.066-3.158-0.101c0-0.003,0.025,0.059,0.025,0.059c-0.831-0.696-1.107-1.389-0.831-2.085c0.274-0.692,0.551-1.04,0.83-1.04c1.037,0.006,2.073,0.003,3.111-0.007l0.012,0.007c1.063,0.695,1.415,1.389,1.061,2.081c-0.353,0.692-0.706,1.037-1.064,1.037L53.228,58.417z"/>
<path fill="#A59467" d="M50.094,55.25c-0.002,1.04-0.002,2.084,0,3.125c-1.041,0-2.085,0-3.127,0c0-1.044,0-2.085,0-3.125C48.008,55.25,49.052,55.25,50.094,55.25z"/>
<path fill="#675D41" d="M56.369,51.664l-1.509,0.259c0,0-1.524-0.155-1.522-0.155c-0.023-0.934-0.056-1.861-0.098-2.792c0.001,0,0.025-0.024,0.025-0.024c0.896-1.081,1.966-1.236,3.185-0.599C57.218,49.476,57.232,50.58,56.369,51.664z"/>
<path fill="#867F58" d="M50.116,39.609c-0.017-1.025-0.022-2.051-0.02-3.079c1.039-0.024,2.078-0.027,3.119-0.012c0.009,1.035,0.024,2.066,0.046,3.098C52.21,40.711,51.163,40.653,50.116,39.609z"/>
<path fill="#837650" d="M50.116,39.609c1.049,0.003,2.096,0.006,3.144,0.006c1.044-0.015,2.086-0.031,3.13-0.046c0.641,0.33,1.283,0.659,1.927,0.989c1.047,1.578,2.547,3.162,0.957,5.13c-1.874,2.319-4.001,2.143-6.113,0.223c-1.001-0.036-2-0.073-2.999-0.109C50.147,43.739,50.132,41.676,50.116,39.609z"/>
<path fill="#63573D" d="M56.344,36.481c2.072,1.059,4.144,2.118,6.215,3.177c-0.421,0.431-0.843,0.861-1.264,1.294c-1.896,0.47-3.545,0.019-4.951-1.331c0,0,0.044-0.049,0.044-0.052C56.364,38.542,56.348,37.513,56.344,36.481z"/>
<path fill="#63573D" d="M65.712,39.86c-0.007,0.9-0.021,1.8-0.039,2.701c-0.429,0.375-0.859,0.754-1.289,1.129c-1.206,0.082-2.205-0.317-2.97-1.27c-0.279-1.236,0.127-2.179,1.212-2.829l-0.066,0.064C63.61,39.726,64.661,39.793,65.712,39.86z"/>
<path fill="#59543B" d="M62.605,77.134c-1.046,0.012-2.091,0.024-3.136,0.04c-1.042-0.016-2.083-0.034-3.125-0.049c2.086-3.146,4.172-6.29,6.258-9.434c1.327-1.001,2.633-0.925,3.923,0.073c0.998,2.216,1.043,4.3-0.838,6.119C64.659,74.967,63.631,76.051,62.605,77.134z"/>
<path fill="#4C4631" d="M65.716,67.747c-1.038,0.003-2.077-0.016-3.114-0.056c0.004-0.778,0.058-1.553,0.161-2.319c0.002,0.007-0.207-0.879-0.207-0.879c1.031-0.778,2.048-0.76,3.052,0.052C66.276,65.589,66.341,66.657,65.716,67.747z"/>
<path fill="#524B32" d="M78.216,61.5c0.004,2.072,0.007,4.144,0.012,6.216c-1.045,1.053-2.089,2.106-3.134,3.162c-2.083-0.003-4.167-0.003-6.252-0.003c-1.274-4.09,0.016-7.373,3.154-10.083c2.219-1.071,4.329-1.139,6.221,0.705L78.216,61.5z"/>
<path fill="#564E36" d="M72.084,61.664c-1.08,3.07-2.162,6.141-3.242,9.211c-0.015,1.037-0.019,2.075-0.006,3.112c-1.05-0.033-2.1-0.067-3.149-0.101c0.011-2.048,0.02-4.096,0.029-6.14c-0.038-1.096-0.077-2.188-0.116-3.284c0.168-0.58,0.336-1.159,0.497-1.742c0.722-1.001,1.662-1.73,2.782-2.237c0.603,0.006,1.208,0.016,1.813,0.021C71.156,60.89,71.62,61.277,72.084,61.664z"/>
<path fill="#453D2B" d="M78.208,55.231c0.003,1.047,0.004,2.094,0.008,3.141c-0.984,1.031-2.178,1.547-3.613,1.461c-1.438-0.058-2.576-0.671-3.417-1.84c0.03-1.416,0.532-2.628,1.582-3.601c2.015-0.932,3.896-1.008,5.468,0.866L78.208,55.231z"/>
<path fill="#595239" d="M71.98,58.365c2.078,0.003,4.157,0.003,6.236,0.007c0.001,1.043,0.001,2.084,0.001,3.125c-2.046,0.055-4.091,0.109-6.134,0.167c0.001,0-0.229-0.283-0.229-0.283c-0.68-0.699-0.889-1.38-0.625-2.039C71.489,58.692,71.739,58.365,71.98,58.365z"/>
<path fill="#534C34" d="M78.236,55.259c-1.97,0.021-3.938,0.043-5.908,0.064c-0.469-0.251-0.938-0.498-1.413-0.742c-0.602-0.896-0.996-1.877-1.208-2.936c-0.115-1.065-0.054-2.127,0.18-3.177c0.47-0.958,1.109-1.798,1.904-2.518c0,0,0.543-0.208,0.548-0.208c1.965,0.045,3.928,0.094,5.89,0.143c1.042,2.042,2.083,4.083,3.125,6.122C80.314,53.092,79.275,54.176,78.236,55.259z"/>
<path fill="#7E734E" d="M71.801,48.902c-0.021,1.12-0.043,2.236-0.064,3.356c-1.126,1.31-1.619,3.119-3.207,4.071c-0.591,0.052-1.178,0.101-1.771,0.149c-0.548-0.231-1.089-0.47-1.64-0.702c-0.805-0.906-1.383-1.938-1.766-3.085c-0.299-1.166-0.438-2.356-0.464-3.562c0.017-1.202,0.223-2.38,0.576-3.531c0.591-1.041,1.347-1.953,2.278-2.713c0,0-0.07-0.324-0.071-0.324c1.058,1.071,2.116,2.143,3.174,3.217C69.916,46.738,70.903,47.782,71.801,48.902z"/>
<path fill="#867F58" d="M71.801,48.902c-0.984-1.041-1.97-2.082-2.954-3.122c0.982,0.037,1.965,0.091,2.944,0.171C71.942,46.934,71.945,47.919,71.801,48.902z"/>
<path fill="#C8BB82" d="M56.341,55.25c1.164-0.052,2.328-0.107,3.492-0.159c2.057-1.675,3.998-1.679,5.794,0.403l-0.18-0.116c1.148,0.695,1.802,1.728,2.029,3.039c-0.23,1.291-0.76,2.436-1.641,3.412c-1.161,0.824-2.272,0.803-3.325-0.195c-2.068-0.006-4.138-0.015-6.207-0.024c0.011-1.077,0.023-2.154,0.034-3.231c-0.913-0.696-1.215-1.392-0.911-2.088C55.731,55.598,56.034,55.25,56.341,55.25z"/>
<path fill="#A79968" d="M62.511,61.634c0.908-0.226,1.822-0.427,2.741-0.601c0.606,0.546,1.214,1.089,1.827,1.636c-0.521,0.625-1.048,1.251-1.574,1.88l0.096-0.083c-0.001-0.003-1.521,0.122-1.521,0.122l-1.523-0.095C62.538,63.541,62.524,62.586,62.511,61.634z"/>
<path fill="#AC9D6E" d="M56.341,55.25c0.001,1.04,0.001,2.084,0,3.125c-1.043,0-2.083,0-3.125-0.003c0.001-1.041,0.003-2.082,0.001-3.122C54.258,55.25,55.3,55.25,56.341,55.25z"/>
<path fill="#63573D" d="M65.627,55.494c-1.932-0.135-3.863-0.269-5.795-0.403c-0.249-0.985-0.36-1.986-0.33-3c0.453-0.412,0.905-0.823,1.355-1.238c1.896-0.61,3.565-0.373,4.856,1.294C65.685,53.263,65.657,54.377,65.627,55.494z"/>
<path fill="#63573D" d="M56.369,51.664c-0.014-0.876-0.018-1.752-0.015-2.625c1.092-1.016,2.281-1.199,3.582-0.415c0.78,1.297,0.62,2.469-0.48,3.513l0.046-0.046C58.458,51.947,57.415,51.805,56.369,51.664z"/>
<path fill="#7C714C" d="M59.461,49l-1.554-0.01l-1.553,0.046c-1.03-0.024-2.061-0.055-3.089-0.085c-0.03-1.014-0.065-2.026-0.105-3.043c1.32-0.296,2.639-0.595,4.625-1.043c-0.527-1.919-0.985-3.58-1.441-5.243c2.094-0.009,4.187-0.018,6.28-0.03c-0.022,1.038-0.033,2.075-0.032,3.113c1.348,0.754,1.993,2.2,3.125,3.167c0,1.041,0,2.082,0,3.125C63.634,50.856,61.548,50.935,59.461,49z"/>
<path fill="#867953" d="M65.717,45.872c-1.042-1.056-2.083-2.112-3.125-3.167c1.052,0.061,2.102,0.119,3.152,0.18C65.725,43.882,65.714,44.877,65.717,45.872z"/>
<path fill="#A79968" d="M65.252,61.033c0.259-1.011,0.519-2.021,0.777-3.027c2.063-1.261,4.053-1.64,5.843,0.473l0.107-0.113c0.035,1.011-0.007,2.015-0.124,3.016c-1.063,0.247-2.125,0.497-3.188,0.744l-1.311,0.607l-1.212-0.787L65.252,61.033z"/>
<path fill="#534C33" d="M66.146,61.945c0.857-0.165,1.698-0.106,2.524,0.18c-1.055,0.809-2.109,1.618-3.163,2.424C65.66,63.666,65.874,62.8,66.146,61.945z"/>
<path fill="#675D41" d="M71.872,58.479c-1.948-0.159-3.896-0.314-5.843-0.473c-0.22-0.873-0.413-1.749-0.581-2.631c1.16-0.079,2.319-0.159,3.479-0.238c0.904-1.01,1.807-1.007,2.707,0.006c0,0,0.687,0.178,0.689,0.178C72.176,56.373,72.024,57.426,71.872,58.479z"/>
<path fill="#867F58" d="M71.635,55.143l-1.355,0.046l-1.354-0.049c0.94-0.964,1.877-1.923,2.813-2.884C71.872,53.227,71.839,54.188,71.635,55.143z"/>
<path fill="#867F58" d="M59.461,49c2.086,0,4.172-0.003,6.256-0.003c-0.001,1.05-0.001,2.096-0.003,3.149c-2.086-0.004-4.172-0.007-6.258-0.01C59.458,51.09,59.459,50.047,59.461,49z"/>
</svg>