<?xml version="1.0" encoding="utf-8"?>
<!DOCTYPE svg PUBLIC "-//W3C//DTD SVG 1.1//EN" "http://www.w3.org/Graphics/SVG/1.1/DTD/svg11.dtd">
<svg version="1.1" xmlns="http://www.w3.org/2000/svg" xmlns:xlink="http://www.w3.org/1999/xlink" x="0px" y="0px" width="100px" height="100px" viewBox="0 0 100 100" enable-background="new 0 0 100 100" xml:space="preserve">
<path fill="#A16D4B" d="M53.217-1c0.043,1.028,0.084,2.06,0.127,3.088c-2.168,1.669-4.335,1.669-6.502,0c0.043-1.032,0.084-2.06,0.125-3.088C49.05-1,51.134-1,53.217-1z"/>
<path fill="#82583B" d="M6.782,30.29c1.892-18.5,19.316-16.089,30.223-22.449c1.19-0.583,2.428-0.687,3.709-0.372c1.029,0.812,1.755,1.846,2.239,3.058c0.311,1.245,0.414,2.515,0.305,3.796c-0.237,1.254-0.746,2.402-1.459,3.458c-0.964,0.812-2.075,1.349-3.305,1.639c-1.8,0.394-3.628,0.683-5.434,1.102c-1.17,0.412-2.348,0.778-3.505,1.202c-2.579,0.83-3.891,3.055-5.473,4.98c-0.873,0.998-1.9,1.789-3.072,2.383c-1.217,0.455-2.479,0.705-3.77,0.763c-1.254-0.061-2.475-0.339-3.632-0.821c-1.183,0.378-0.465-2.698-2.249-1.236c-0.146,1.215-0.668,2.243-1.5,3.125C8.677,31.464,7.644,31.294,6.782,30.29z"/>
<path fill="#795035" d="M36.831,89.854c-6.114-2.924-12.23-5.844-18.344-8.768c0.061-0.564,0.122-1.129,0.177-1.697c0.777-0.848,1.68-1.535,2.673-2.114c1.517-0.843,3.114-1.489,4.804-1.92c1.767-0.336,3.489-0.177,5.177,0.448c1.642,0.724,3.09,1.737,4.436,2.918c1.369,1.178,2.623,2.469,3.809,3.839c1.218,1.426,2.156,2.991,2.447,4.883c-0.108,0.61-0.226,1.224-0.34,1.834c-0.423,0.455-0.852,0.906-1.277,1.361C39.127,90.732,37.94,90.47,36.831,89.854z"/>
<path fill="#735745" d="M6.812,58.448c0.019-7.38,0.037-14.758,0.057-22.137c0.548-1.102,1.154-2.17,1.817-3.208c0.517-0.338,1.035-0.674,1.553-1.013c1.241-0.259,2.452-0.155,3.65,0.238c2.79,1.397,5.4,2.966,5.817,6.488c-0.154,2.359-1.029,4.447-2.474,6.299c-0.746,0.793-1.665,1.343-2.699,1.685c-0.666-0.192-1.006-0.293-1.006-0.293c-0.381-0.024-0.169,0.296,0.644,0.964c0.873,1.505,1.088,3.128,0.951,4.84c-0.177,1.179-0.551,2.28-1.065,3.352c-0.978,1.593-2.292,2.813-3.963,3.652C8.825,59.69,7.731,59.398,6.812,58.448z"/>
<path fill="#6D5241" d="M12.696,79.521c-1.929-4.996-3.857-9.991-5.786-14.987c0.719-0.692,1.538-0.846,2.436-0.504c-0.023-0.042,1.112-0.488,1.112-0.488s-0.146-1.208-0.154-1.291c0.035-1.116,0.38-2.047,1.045-2.905c1.125-1.528,2.493-2.344,4.422-1.772c0.983,0.766,1.73,1.706,2.278,2.813c1.091,2.786,1.503,5.799,2.89,8.48c0.898,1.538,1.75,3.098,2.37,4.771c0.09,0.579,0.163,1.169,0.247,1.748c-0.167,0.55-0.343,1.111-0.51,1.66c-0.795,0.83-1.774,1.337-2.904,1.511c-1.05,0.064-2.124,0.07-3.172,0.013c-1.365,0.763-0.792-2.866-2.594-1.157C14.307,78.51,13.744,79.212,12.696,79.521z"/>
<path fill="#C19C84" d="M40.801,8.952c-1.265-0.372-2.528-0.742-3.794-1.111c1.102-0.882,2.205-1.764,3.308-2.646c4.649-2.777,9.756-0.946,14.632-1.456c1.74-0.137,3.272,0.366,4.596,1.501c2.089,1.022,4.178,2.045,6.267,3.064c-0.268,2.09-1.41,3.601-3.12,4.736c-1.76,0.867-3.638,1.215-5.585,1.193c-1.231-0.037-2.463-0.205-3.673-0.43c-2.357-0.464-4.756-0.629-7.17-0.69c-0.595-0.101-1.184-0.229-1.779-0.342c-0.516-0.311-1.027-0.635-1.54-0.952C42.393,10.746,41.68,9.785,40.801,8.952z"/>
<path fill="#554438" d="M93.338,33.234c0.002,1.142,0.002,2.283,0.004,3.424c-0.552,0.631-0.732,1.26-0.545,1.889c0.188,0.626,0.374,0.94,0.56,0.94c-0.027,1.117-0.054,2.237-0.081,3.357c-0.814,0.964-1.84,1.511-3.117,1.569c-1.235-0.195-2.368-0.644-3.419-1.321c-1.001-0.748-1.92-1.584-2.796-2.478c-1.376-1.325-2.629-2.75-3.627-4.392c-0.849-1.85-0.952-3.745-0.382-5.688c0.52-1.221,1.26-2.295,2.164-3.262c0.536-0.378,1.082-0.745,1.62-1.123c1.261-0.443,2.55-0.513,3.862-0.278c1.871,0.769,3.267,2.054,4.143,3.885C92.182,30.949,92.719,32.111,93.338,33.234z"/>
<path fill="#533421" d="M81.817,80.934c-6.288,3.155-12.574,6.313-18.863,9.469c-1.046-0.912-1.469-2.071-1.368-3.445c0.482-1.98,1.495-3.668,2.854-5.169c1.427-1.444,3.073-2.576,4.92-3.428c3.25-1.257,6.537-1.508,9.871-0.317C80.472,78.663,81.333,79.63,81.817,80.934z"/>
<path fill="#C19D87" d="M80.935,15.192c1.172,0.903,2.344,1.804,3.516,2.704c2.393,2.997,2.751,5.865-0.543,8.496l0.529,0.57c-0.881,0.995-1.98,1.575-3.295,1.737c-2.599-0.141-4.272-2.377-6.703-2.936c-1.246-0.235-2.404-0.671-3.526-1.251c-1.677-1.135-2.879-2.6-3.296-4.629c0.11-0.666,0.227-1.318,0.339-1.984c0.823-1.111,1.871-1.922,3.139-2.459C74.338,13.844,77.696,17.033,80.935,15.192z"/>
<path fill="#855B3E" d="M62.183,11.28c1.209-0.992,2.417-1.984,3.626-2.976c4.234,2.069,8.469,4.138,12.703,6.208c-2.555,3.128-7.03,0.262-9.678,3.101l0.164,1.168c-1.252,0.732-2.599,0.971-4.03,0.785c-1.356-0.476-2.469-1.3-3.375-2.408C60.616,15.083,60.746,13.114,62.183,11.28z"/>
<path fill="#7E5840" d="M53.507,96.104c-4.288-1.025-8.575-2.048-12.861-3.07c-0.785-0.784-1.03-1.55-0.739-2.304c0.289-0.742,0.568-1.114,0.841-1.114l-0.061,0.086c1.804-1.953,3.621-3.885,6.523-4.093c1.358,0.027,2.576,0.461,3.663,1.275C53.274,89.518,53.817,92.689,53.507,96.104z"/>
<path fill="#533421" d="M53.507,96.104c-1.15-3.189-2.3-6.378-3.45-9.564c0.477-0.491,0.952-0.979,1.427-1.477c1.264-0.577,2.591-0.861,3.982-0.861c2.138,0.297,3.885,1.252,5.115,3.064c0.443,2.063,0.402,4.047-1.014,5.789C57.548,94.071,55.528,95.087,53.507,96.104z"/>
<path fill="#3B281B" d="M90.709,42.848c0.856-0.009,1.711-0.009,2.566-0.003c0.019,6.173,0.037,12.35,0.056,18.524c-2.021,1.028-3.393-0.091-4.717-1.406c-1.178-1.41-2.083-2.979-2.718-4.706c-0.505-1.771-0.529-3.556-0.125-5.347c0.475-1.725,1.237-3.32,2.281-4.779C88.897,44.331,89.789,43.571,90.709,42.848z"/>
<path fill="#533624" d="M93.285,67.701c-0.78,3.174-1.56,6.348-2.34,9.518c-0.521,0.363-1.043,0.724-1.565,1.087c-0.63-0.07-1.262-0.144-1.895-0.211c-1.206-0.415-2.402-0.857-3.596-1.315c-1.094-0.692-2.003-1.574-2.714-2.657c-0.418-1.264-0.301-2.479,0.337-3.647c1.308-1.455,2.973-2.358,4.771-3.052c1.177-0.47,2.4-0.784,3.649-1.001c0.629,0.013,1.261,0.043,1.893,0.073C92.312,66.896,92.798,67.298,93.285,67.701z"/>
<path fill="#895E41" d="M83.907,26.393c0.18-2.832,0.361-5.664,0.543-8.496c2.933,2.161,5.865,4.318,8.798,6.476c-1.609,1.801-3.564,2.771-6.031,2.509C86.114,26.719,85.01,26.554,83.907,26.393z"/>
<path fill="#885939" d="M56.342,4.991c-5.344,0.067-10.686,0.137-16.027,0.204c2.176-1.034,4.352-2.072,6.529-3.106c2.166,0,4.333,0,6.499,0c1.035,0.027,2.034,0.229,2.997,0.604c0.741,0.51,0.987,1.02,0.743,1.529C56.836,4.734,56.591,4.991,56.342,4.991z"/>
<path fill="#81593D" d="M68.834,17.613c3.226-1.035,6.452-2.069,9.678-3.101c0.882-0.04,1.688,0.189,2.421,0.68C76.901,16.002,72.867,16.807,68.834,17.613z"/>
<path fill="#3C2A1D" d="M87.217,26.881c2.009-0.839,4.021-1.676,6.031-2.512c0.003,1.968,0.008,3.937,0.011,5.902c-0.847,1.105-1.68,1.044-2.502-0.027C89.575,29.124,88.396,28.001,87.217,26.881z"/>
<path fill="#533F33" d="M90.717,58.365c0.871,1.001,1.742,2.002,2.614,3.003c0.001,1.133,0.001,2.265,0.003,3.4c-0.697,1.165-1.584,2.166-2.661,2.996l0.066-0.061c-1.373,1.4-2.768,1.422-4.187,0.07c-1.886-3.092-1.889-6.187-0.002-9.28c0.677-0.452,1.358-0.9,2.04-1.353C89.299,57.551,90.009,57.957,90.717,58.365z"/>
<path fill="#3C281A" d="M81.38,73.966c1.018,0.016,2.036,0.024,3.054,0.03c0.785,0.883,1.289,1.904,1.517,3.064c0.073,1.236-0.39,2.191-1.471,2.829c-0.743,0.714-1.632,1.062-2.663,1.044l-0.554-0.989c-0.965-0.772-1.523-1.758-1.617-3c0.15-0.576,0.305-1.15,0.457-1.728C80.528,74.799,80.954,74.381,81.38,73.966z"/>
<path fill="#5B3E2A" d="M15.672,77.121c1.083,0.056,2.165,0.107,3.247,0.162c0.038,0.724,0.078,1.449,0.116,2.176c-0.334,0.491-0.518,1.031-0.548,1.627c-1.93-0.522-3.861-1.044-5.791-1.565c0.107-0.84,0.189-1.682,0.244-2.527C13.896,76.09,14.803,76.182,15.672,77.121z"/>
<path fill="#3C2718" d="M59.568,93.055c-0.032-2.191-0.063-4.382-0.096-6.576c0,0,0.931-0.854,0.929-0.857c0-0.004,1.267-0.004,1.269-0.007c0-0.003,0.92,0.873,0.92,0.873c0.12,1.303,0.242,2.609,0.363,3.915C61.824,91.288,60.698,92.17,59.568,93.055z"/>
<path fill="#885939" d="M56.342,4.991c0-0.769,0-1.535-0.003-2.301c1.068,0.852,2.135,1.703,3.203,2.551C58.476,5.158,57.408,5.073,56.342,4.991z"/>
<path fill="#5E3C26" d="M6.812,58.448c0.861-0.122,1.728-0.208,2.596-0.26c0.653,0.577,0.949,1.215,0.885,1.917C10.226,60.837,10.105,61.2,9.93,61.2c-0.938,0.84-1.955,0.943-3.044,0.309C6.861,60.489,6.837,59.467,6.812,58.448z"/>
<path fill="#503522" d="M9.515,33.375c-0.882,0.979-1.764,1.959-2.646,2.936c-0.506-0.958-0.519-1.926-0.037-2.896C7.708,32.087,8.602,32.075,9.515,33.375z"/>
<path fill="#352316" d="M90.757,30.244c0.833,0.021,1.667,0.031,2.502,0.027c0.578,0.974,0.605,1.962,0.079,2.963C92.478,32.24,91.617,31.242,90.757,30.244z"/>
<path fill="#563926" d="M6.886,61.509c0.827-0.016,1.656-0.036,2.483-0.061c0,0,1.283,0.763,1.285,0.763c0.003,0,0.024,1.495,0.027,1.495c0.001,0.003-1.222,0.867-1.222,0.867c-0.848-0.021-1.698-0.037-2.548-0.04C6.903,63.523,6.893,62.516,6.886,61.509z"/>
<path fill="#352316" d="M93.357,39.487c-0.367-0.674-0.798-1.324-1.044-2.035c-0.044-0.131,0.666-0.522,1.029-0.793C93.847,37.599,93.853,38.542,93.357,39.487z"/>
<path fill="#352316" d="M90.673,67.765c0.888-0.998,1.774-1.999,2.661-2.996c0.523,0.985,0.508,1.965-0.049,2.933C92.414,67.713,91.544,67.734,90.673,67.765z"/>
<path fill="#70472D" d="M9.515,33.375l-1.341-0.006l-1.341,0.046c-0.017-1.041-0.034-2.084-0.05-3.125c0.841-0.076,1.683-0.125,2.527-0.149c0.842,0.699,1.146,1.425,0.911,2.173c-0.238,0.763-0.491,1.144-0.756,1.144L9.515,33.375z"/>
<path fill="#352316" d="M84.48,79.89c0.003-0.958,0.009-1.917,0.017-2.875c1.091-0.912,2.11-0.839,3.056,0.223l-0.022-0.073c0.779,0.556,1.031,1.096,0.755,1.627c-0.272,0.524-0.543,0.787-0.813,0.787l-1.454,0.55L84.48,79.89z"/>
<path fill="#594132" d="M87.472,79.578c0.012-0.806,0.033-1.611,0.06-2.417c1.137,0.021,2.274,0.04,3.413,0.058C89.787,78.007,88.63,78.791,87.472,79.578z"/>
<path fill="#573924" d="M40.748,89.615c-0.034,1.139-0.069,2.276-0.102,3.418c-1.268-1.063-2.538-2.121-3.81-3.183C38.137,89.774,39.442,89.694,40.748,89.615z"/>
<path fill="#ACA5A2" d="M31.583,18.421c1.062-0.437,2.123-0.876,3.185-1.315c0,0,0.906,0.598,0.905,0.589c-0.001-0.009,0.359,1.001,0.359,0.983c-0.001-0.019,1.012-0.25,1.004-0.266c-0.008-0.016-0.667-0.812-0.667-0.824c-0.001-0.012,0.836-0.65,0.836-0.65c1.021,0.248,2.043,0.492,3.064,0.739c0.699-0.955,1.639-1.428,2.824-1.419c0.528,0.189,1.055,0.384,1.585,0.567c0.948,0.604,1.769,1.355,2.482,2.222c0.275,0.476,0.538,0.971,0.813,1.453c0.301,1.065,0.403,2.161,0.354,3.271c-0.051,1.675-0.163,3.348-0.469,5.02c-0.427,1.123-1.13,2.023-2.108,2.734c-1.134,0.5-2.309,0.748-3.549,0.781c-1.263-0.076-2.49-0.287-3.711-0.592c-2.493-0.586-4.999-1.105-7.452-1.847c-1.234-0.455-2.339-1.126-3.311-2.008c-0.646-1.154-0.943-2.39-0.858-3.711c0.325-1.248,0.884-2.396,1.682-3.415C29.491,19.877,30.505,19.105,31.583,18.421z"/>
<path fill="#7D6352" d="M18.795,39.75c-2.143-2.24-4.285-4.483-6.425-6.723c-1.546-3.045,1.094-4.068,2.704-5.584c1.208-0.11,2.418-0.217,3.627-0.324c0.76,0.693,1.529,1.374,2.309,2.036c0.784,0.632,1.456,1.376,2.028,2.191c0.995,0.421,1.482,3.058,3.142,0.629c1.062-0.418,2.116-0.546,3.236-0.442c3.177,0.897,5.5,2.649,6.288,6.021c-0.113,1.379-0.673,2.53-1.672,3.482c-2.394,1.575-5.07,1.965-7.858,1.941c-2.124-0.076-4.13-0.583-5.971-1.675C19.729,40.791,19.262,40.269,18.795,39.75z"/>
<path fill="#B9957E" d="M31.583,18.421c-0.113,0.873-0.208,1.749-0.282,2.625c-1.153,0.973-2.777,1.141-3.847,2.249c-1.163,1.629-0.107,2.731,0.913,3.845l-0.047-0.162c1.244,2.707-0.279,3.897-2.566,4.669c-1.488,0.131-2.882-0.152-4.175-0.916c-1.021-1.309-0.914-2.563,0.167-3.772c0.36-2.414,0.718-4.828,1.211-8.133C25.973,18.684,28.779,18.553,31.583,18.421z"/>
<path fill="#503522" d="M15.073,27.442c-0.9,1.861-1.8,3.726-2.702,5.587c-0.963,0.189-1.932,0.333-2.908,0.424c-0.051-1.102-0.101-2.207-0.153-3.311c0.128-0.955,0.213-1.914,0.255-2.875c0.978-1.126,1.953-1.123,2.925,0.006C13.348,27.378,14.208,27.433,15.073,27.442z"/>
<path fill="#7C5438" d="M40.801,8.952c0.818,0.903,1.634,1.807,2.452,2.713c-0.79,0.989-1.547,0.964-2.272-0.076C40.908,10.71,40.848,9.831,40.801,8.952z"/>
<path fill="#784F33" d="M40.981,11.588c0.76-0.03,1.519-0.006,2.273,0.076c-0.001,0,1.128-0.25,1.128-0.25c0.688,1.297,0.604,2.563-0.145,3.809c-1.34,0.729-2.516,0.562-3.51-0.629C40.771,13.59,40.855,12.589,40.981,11.588z"/>
<path fill="#784F33" d="M34.768,17.106c0.813-0.055,1.625-0.11,2.438-0.168c-0.001,0,0.473,1.145,0.473,1.145c-1.042,0.845-2.12,0.894-3.23,0.141L34.768,17.106z"/>
<path fill="#CBC5C1" d="M40.728,14.594c1.03,0.049,2.048-0.042,3.054-0.265c0.802,1.086,0.74,2.154-0.069,3.207c-1.145,0.046-2.291,0.095-3.439,0.141C40.469,16.657,40.621,15.629,40.728,14.594z"/>
<path fill="#70472D" d="M12.49,27.274l-1.463-0.031c0,0-1.465,0.021-1.463,0.021C10.54,27.268,11.515,27.272,12.49,27.274z"/>
<path fill="#9D7053" d="M21.745,26.96c0.195,1.013,0.341,2.033,0.438,3.061c-0.825,1.379-1.876,1.651-3.188,0.65c-0.098-1.184-0.194-2.368-0.293-3.552C19.715,27.052,20.73,27,21.745,26.96z"/>
<path fill="#725645" d="M40.752,86.545c-1.059-1.021-2.118-2.041-3.177-3.061c0.005-0.665,0.009-1.327,0.011-1.989c-0.256-3.394-0.432-6.775,1.459-9.86c0.9-1.15,2.093-1.749,3.542-1.883c0.664,0.259,1.318,0.521,1.983,0.784c0.951,1.107,1.642,2.353,2.11,3.735c0.378,1.425,0.562,2.871,0.612,4.343c-0.006,3.061-0.758,5.871-2.795,8.245C43.153,87.903,41.909,87.745,40.752,86.545z"/>
<path fill="#504C49" d="M31.32,77.155c-2.09,0.012-4.183,0.024-6.274,0.036c-0.378-0.595-0.757-1.193-1.138-1.788c0.391-1.443,1.292-2.411,2.702-2.905c2.295-0.241,4.126,0.448,5.225,2.606C31.661,75.788,31.49,76.472,31.32,77.155z"/>
<path fill="#504C49" d="M34.335,80.323c-1.006-1.057-2.01-2.112-3.015-3.171c0,0.003,0.075-0.101,0.075-0.101c1.846-1.862,3.946-1.88,6.192-0.852c0.714,0.845,1.042,1.745,0.989,2.703c-0.055,0.986-0.179,1.48-0.369,1.483C36.895,81.501,35.606,81.48,34.335,80.323z"/>
<path fill="#523623" d="M40.752,86.545c1.07-0.125,2.14-0.25,3.209-0.372c0.522-0.29,1.044-0.58,1.566-0.866c0.462,0.375,0.924,0.754,1.387,1.132c-2.075,1.087-4.152,2.176-6.227,3.263C40.708,88.651,40.731,87.599,40.752,86.545z"/>
<path fill="#503522" d="M19.035,79.459c-0.098-0.723-0.136-1.449-0.118-2.179c1.033-0.11,2.066-0.177,3.104-0.198c0.78,0.76,1.002,1.477,0.67,2.151c-0.32,0.65-0.625,0.977-0.916,0.977C20.814,80.134,19.902,79.884,19.035,79.459z"/>
<path fill="#78543C" d="M21.775,80.21c0.081-1.041,0.163-2.084,0.246-3.128l-0.055,0.046c1.039-1.447,2.081-1.523,3.126-0.007l-0.046,0.07C23.956,78.199,22.865,79.206,21.775,80.21z"/>
<path fill="#503522" d="M34.335,80.323c1.074-0.007,2.148-0.01,3.224-0.016c0.847,0.619,1.155,1.272,0.928,1.956c-0.233,0.699-0.482,1.05-0.746,1.05l-0.164,0.168C36.495,82.429,35.415,81.376,34.335,80.323z"/>
<path fill="#5E3C26" d="M9.368,61.448c0.014-1.087,0.027-2.17,0.04-3.257c1.047-0.985,2.093-1.972,3.14-2.954c0.964-1.15,2.089-1.275,3.348-0.519c0.633,1.31,0.42,2.457-0.644,3.448c-0.887,1.108-1.773,2.219-2.66,3.326c-1.038,1.475-2.078,1.478-3.124,0.007L9.368,61.448z"/>
<path fill="#86807C" d="M15.391,46.095c1.135-2.115,2.271-4.23,3.404-6.345l-0.047-0.088c1.903,1.553,4.545,2.691,3.375,5.984c-0.877,0.989-1.964,1.611-3.261,1.868c-0.638-0.089-1.277-0.181-1.915-0.269C16.428,46.863,15.91,46.479,15.391,46.095z"/>
<path fill="#644530" d="M12.667,45.902c-0.89-0.971-1.779-1.941-0.087-0.095c-0.69-2.405-0.325-1.132,0.04,0.141L12.667,45.902z"/>
<path fill="#503522" d="M12.62,45.948c0.929-0.031,1.854,0.018,2.772,0.146c-0.001,0,0.432-0.269,0.432-0.269c1.723,1.943,1.803,4.064,0.688,6.32c-1.295,1.126-2.583,1.172-3.865-0.021c0.006-2.075,0.012-4.147,0.02-6.223L12.62,45.948z"/>
<path fill="#503522" d="M12.647,52.125c0.849,0,1.698,0,2.547,0c0.787,0.681,1.053,1.364,0.793,2.048c-0.258,0.687-0.519,1.028-0.78,1.028c-0.887,0.036-1.771,0.049-2.658,0.036C12.547,54.197,12.58,53.159,12.647,52.125z"/>
<path fill="#736F6C" d="M18.917,45.93c1.058-0.04,2.115-0.083,3.171-0.122c0.581-0.021,1.161-0.04,1.742-0.073c1.75,0.192,3.407,0.724,5.043,1.34c2.204,0.766,4.425,1.486,6.633,2.271c1.138,0.415,2.192,0.974,3.206,1.636c1.479,1.11,2.677,2.466,3.574,4.086c0.761,1.682,1.085,3.455,1.053,5.289c-0.087,1.178-0.371,2.319-0.809,3.408c-0.313,0.468-0.65,0.94-0.961,1.407c-0.867,0.684-1.876,1.004-2.972,0.949c-1.343-1.565,0.784-2.21-0.894-1.034c-0.574,0.402,0.227,1.87,1.121,2.551c0.548,0.965,0.553,1.938,0.032,2.908c-0.982,1.383-0.681,2.78-0.02,4.188c0.35,1.202-0.065,2.005-1.242,2.417c-2.066-0.034-4.134-0.064-6.2-0.098c-2.103-1.014-4.206-2.026-6.308-3.04c-1.042,1.361-2.081,1.297-3.116-0.009c-1.051-1.011-2.101-2.021-3.152-3.03c-2.431-3.03-1.18-6.616-1.504-9.964C17.968,55.994,15.789,50.678,18.917,45.93z"/>
<path fill="#827C77" d="M18.917,45.93c-0.029,5.188-0.058,10.376-0.088,15.563c-0.995,1.447-1.987,1.518-2.976-0.006c-0.198-1.104-0.397-2.212-0.598-3.32c0.236-0.991,0.223-1.98-0.046-2.966c0.307-1.025,0.304-2.051-0.014-3.076c0.209-2.1,0.418-4.199,0.629-6.299C16.856,45.859,17.887,45.893,18.917,45.93z"/>
<path fill="#7F7975" d="M15.853,61.487c0.992,0.01,1.983,0.01,2.976,0.006c-0.003,3.162-0.006,6.32-0.011,9.479C17.831,67.811,16.842,64.649,15.853,61.487z"/>
<path fill="#5A3F2D" d="M12.593,64.628c-0.4,1.343-0.8,2.686-1.598,5.371c-0.768-2.71-1.152-4.068-1.535-5.426c-0.001,0,0.006,0.052,0.006,0.052C10.508,63.438,11.55,63.499,12.593,64.628z"/>
<path fill="#816857" d="M12.593,64.628c-1.042-0.003-2.083-0.003-3.126-0.003c0-1.041,0.001-2.085,0.003-3.125c1.041,0,2.083,0,3.124-0.003C12.593,62.54,12.593,63.584,12.593,64.628z"/>
<path fill="#503522" d="M15.672,77.121c-0.914-0.006-1.827-0.049-2.734-0.128C13.851,77.036,14.761,77.079,15.672,77.121z"/>
<path fill="#523826" d="M21.97,74.003c1.041-0.007,2.081-0.01,3.119,0.003c0,1.044,0.003,2.081,0.003,3.115c-1.042,0.004-2.083,0.004-3.125,0.004C21.966,76.084,21.968,75.043,21.97,74.003z"/>
<path fill="#B6AEA9" d="M43.713,17.536c0.023-1.071,0.046-2.139,0.069-3.207c0.078-0.998,0.277-1.969,0.6-2.915c0.964,0.012,1.922-0.037,2.879-0.146c0,0,1.407,0.128,1.407,0.125c0.941,0.064,1.881,0.058,2.821-0.018l1.405-0.141c1.125,0.104,2.249,0.208,3.374,0.314c1.053,0.879,1.686,1.996,1.904,3.357c-0.095,1.364-0.475,2.64-1.119,3.845c-1.197,1.715-2.763,2.966-4.721,3.72c-2.103,0.434-3.999,0.177-5.4-1.672l0.11,0.104c-0.956-0.964-1.938-1.901-2.953-2.801L43.713,17.536z"/>
<path fill="#AA836A" d="M56.364,14.439c-0.029-0.964-0.06-1.929-0.095-2.89c1.972-0.088,3.946-0.177,5.918-0.269c0.111,2.075,0.226,4.147,0.338,6.223c-0.443,0.391-0.89,0.784-1.333,1.175c-1.23,0.091-2.305-0.271-3.228-1.089C57.569,16.471,57.035,15.419,56.364,14.439z"/>
<path fill="#AA836A" d="M47.26,11.268c1.88-0.009,3.76-0.021,5.637-0.034c-0.003,0,0.296,0.458,0.296,0.458c-2.043,1.535-4.104,1.535-6.183,0.073L47.26,11.268z"/>
<path fill="#54514F" d="M87.59,39.762c-0.027,0.986-0.03,1.968-0.009,2.954c-0.279,0.702-0.557,1.407-0.833,2.112c-2.332,2.512-4.947,3.359-8.046,1.367c-2.089-3.525,0.008-5.588,2.612-7.474C83.556,38.148,85.761,37.827,87.59,39.762z"/>
<path fill="#352316" d="M81.347,30.293c-0.032,2.054-0.063,4.108-0.094,6.159c-0.349,0.46-0.697,0.918-1.046,1.379c-1.099,0.448-2.232,0.562-3.404,0.394c-1.146-0.397-2.01-1.135-2.642-2.164c-0.187-1.193-0.057-2.347,0.369-3.476c0.863-1.624,2.075-2.881,3.795-3.601c0.592,0.006,1.188,0.021,1.78,0.03C80.518,29.441,80.932,29.865,81.347,30.293z"/>
<path fill="#4C3B2F" d="M87.59,39.762c-2.082-0.046-4.165-0.092-6.248-0.137c-0.407-0.531-0.813-1.062-1.221-1.593c0.396-0.54,0.792-1.077,1.188-1.617c0,0-0.054,0.037-0.056,0.037C83.365,37.556,85.479,38.657,87.59,39.762z"/>
<path fill="#39271A" d="M90.709,42.848c0,0.992,0.002,1.98,0.003,2.972c-1.042,1.217-2.255,1.364-3.62,0.583c-0.83-1.333-0.742-2.566,0.413-3.677l0.076-0.009C88.623,42.759,89.667,42.805,90.709,42.848z"/>
<path fill="#38261A" d="M81.595,27.241c0.933-0.238,1.879-0.33,2.842-0.278c-1.03,1.111-2.061,2.222-3.09,3.33l0.017-0.018c-1.109-0.763-1.443-1.465-1.007-2.112C80.772,27.549,81.184,27.241,81.595,27.241z"/>
<path fill="#503320" d="M81.337,77.155c-0.017,0.931-0.041,1.861-0.074,2.789c-4.149,0.116-8.296,0.235-12.445,0.351c-0.32-0.479-0.641-0.955-0.963-1.434c-0.012-1.196,0.383-2.237,1.175-3.135c1.315-1.159,2.817-2.017,4.429-2.697c0.546-0.177,1.103-0.33,1.655-0.501c1.155-0.131,2.276,0.031,3.356,0.461C79.719,74.171,80.088,75.965,81.337,77.155z"/>
<path fill="#382518" d="M65.706,83.262c-1.039,1.074-2.078,2.148-3.117,3.226l-0.022-0.024c-2.431-3.61-1.426-5.862,2.717-6.885C67.046,80.622,67.187,81.849,65.706,83.262z"/>
<path fill="#352316" d="M65.706,83.262c0.017-0.909,0.026-1.819,0.026-2.729c0.911-1.264,1.948-1.318,3.098-0.326c0,0-0.011,0.088-0.013,0.088C67.781,81.284,66.742,82.273,65.706,83.262z"/>
<path fill="#ACA5A2" d="M65.502,18.315c1.166,0.153,2.33,0.305,3.496,0.464c-0.098,0.778-0.127,1.557-0.083,2.338c0.952,0.76,1.346,1.745,1.186,2.957c-0.665,1.629-1.779,2.908-3.137,3.995c-0.913,0.668-1.898,1.221-2.921,1.703c-1.514,0.748-3.076,1.392-4.688,1.923c-1.104,0.308-2.228,0.396-3.369,0.305c-1.123-0.293-2.086-0.861-2.897-1.691c-0.537-1.034-0.697-2.13-0.494-3.277c0.552-1.626,1.503-2.994,2.792-4.123c0.863-0.662,1.814-1.202,2.8-1.663c0.993-0.36,2.008-0.699,3.014-1.035c0.479-0.21,0.968-0.412,1.45-0.619C63.652,19.288,64.605,18.864,65.502,18.315z"/>
<path fill="#B68362" d="M81.595,27.241c-0.204,1.001-0.282,2.011-0.231,3.034c-1.045,0.201-2.092,0.403-3.138,0.604c-1.216,0.556-2.469,1.01-3.761,1.358c-2.925,0.427-5.243-0.387-6.569-3.216c-0.011-1.386,0.574-2.457,1.744-3.201c1.785-0.678,3.857-0.482,5.458-1.758C77.264,25.12,79.429,26.182,81.595,27.241z"/>
<path fill="#BFB9B4" d="M69.034,23.844c-0.085-0.91-0.125-1.819-0.119-2.731c1.055,0.971,2.109,1.941,3.163,2.912c-0.531,0.378-1.062,0.757-1.595,1.135C70.002,24.723,69.518,24.284,69.034,23.844z"/>
<path fill="#A97F63" d="M75.098,24.061c-1.164,0.967-2.328,1.935-3.491,2.905c-0.83-0.763-1.059-1.459-0.689-2.094c0.351-0.601,0.687-0.903,1.007-0.903c0,0,0.151,0.055,0.153,0.055C73.084,24.049,74.091,24.061,75.098,24.061z"/>
<path fill="#BFB9B4" d="M65.502,18.315c-0.86,0.732-1.723,1.465-2.583,2.197c-0.84-0.437-1.128-0.888-0.87-1.361c0.261-0.479,0.526-0.72,0.8-0.72l-0.324-0.928C63.523,17.753,64.515,18.024,65.502,18.315z"/>
<path fill="#503522" d="M50.057,86.539c-1.047-0.033-2.095-0.067-3.143-0.101l0.101,0.116c-1.773-2.726-0.102-3.271,2.171-3.439c0.86,0.562,1.285,1.248,1.274,2.054c-0.013,0.87-0.128,1.303-0.345,1.303L50.057,86.539z"/>
<path fill="#362417" d="M59.472,86.479c-2.083,0.006-4.167,0.012-6.252,0.018c-0.601-1.514-0.28-2.798,0.963-3.857c3.105-0.598,6.185-1.162,5.318,3.8L59.472,86.479z"/>
<path fill="#533B2A" d="M53.236,83.268c-0.005,1.074-0.009,2.151-0.016,3.229c-1.034,0.004-2.07-0.006-3.106-0.024c-0.06-1.104-0.12-2.206-0.182-3.311c0,0,1.038-0.76,1.038-0.763c0-0.004,1.287,0.03,1.289,0.027C52.259,82.423,53.236,83.268,53.236,83.268z"/>
<path fill="#3A3431" d="M87.624,58.402c-0.002,3.091-0.005,6.183-0.008,9.274c0.809,0.705,1.08,1.409,0.818,2.121c-0.265,0.711-0.531,1.067-0.8,1.067c-2.083,0.021-4.166,0.043-6.249,0.064c-0.408-0.559-0.817-1.117-1.234-1.673c-0.111-0.684-0.215-1.37-0.343-2.057c0.027-0.689,0.077-1.382,0.098-2.075c1.679-5.679-0.919-12.851,5.783-16.803c0.635,0.277,1.271,0.556,1.907,0.836c0.012,2.032,0.024,4.068,0.035,6.104c0.858,0.699,1.145,1.397,0.855,2.097C88.2,58.055,87.912,58.402,87.624,58.402z"/>
<path fill="#3A281B" d="M87.624,58.402c0.003-1.047,0.005-2.094,0.008-3.141c1.028,1.035,2.057,2.069,3.085,3.104C89.687,58.359,88.656,58.375,87.624,58.402z"/>
<path fill="#554438" d="M87.566,45.981c1.049-0.052,2.099-0.106,3.146-0.162c-1.039,1.111-2.076,2.221-3.115,3.335c0,0.003-0.027-0.271-0.027-0.271c-0.767-0.644-1.022-1.288-0.768-1.935C87.055,46.305,87.31,45.981,87.566,45.981z"/>
<path fill="#353230" d="M78.173,74.045c-1.041-0.006-2.081-0.024-3.121-0.049c-0.3-0.562-0.601-1.126-0.901-1.688c0.184-1.34,0.873-2.319,2.067-2.947c2.008-0.513,3.751-0.129,5.123,1.517c0,0,0.044,0.052,0.045,0.052c-0.009,1.013-0.012,2.026-0.007,3.036c0.001,0-0.049,0.095-0.049,0.095C80.273,75.11,79.22,75.153,78.173,74.045z"/>
<path fill="#39271A" d="M87.635,70.865c-0.006-1.062-0.013-2.124-0.019-3.188c1.041,0.036,2.081,0.046,3.123,0.027C89.705,68.757,88.671,69.81,87.635,70.865z"/>
<path fill="#594132" d="M87.552,77.237c-1.018-0.088-2.037-0.161-3.056-0.223c-0.008-1.007-0.029-2.011-0.063-3.019C85.473,75.077,86.513,76.157,87.552,77.237z"/>
<path fill="#352316" d="M78.173,74.045c1.053,0.007,2.105,0.01,3.157,0.016c0.007,1.031,0.009,2.063,0.007,3.095C80.282,76.117,79.227,75.083,78.173,74.045z"/>
<path fill="#4D4945" d="M75.115,70.844c-0.021,1.05-0.042,2.103-0.063,3.152l0.054-0.033c-0.717,0.513-1.459,0.989-2.219,1.429c0.007,0-1.291,0.015-1.291,0.015s-1.262-0.296-1.252-0.287c-0.043,0.959-0.499,1.636-1.355,2.048c-0.073,1.011-0.125,2.026-0.158,3.04c-1.044,0.006-2.075,0.112-3.098,0.323c-1.056,1.98-2.11,3.958-3.166,5.933c-1.022-0.021-2.045-0.027-3.065-0.024c-2.089-1.056-4.177-2.115-6.266-3.171l0.051,0.098c-1.067-0.793-1.537-1.87-1.511-3.188c0.439-2.49,1.495-4.755,2.548-7.022c1.015-2.24,2.094-4.449,2.977-6.747c1.092-2.924,1.47-6.009,2.023-9.055c0.391-1.868,1.096-3.599,2.263-5.118c1.737-1.715,3.775-2.643,6.22-2.301c0.742,0.54,1.619,0.729,2.535,0.497c0.481-0.766,1.059-1.431,1.681-2.068c0.666-0.632,1.434-1.09,2.283-1.413c-0.011-0.024,1.254-0.488,1.243-0.516c-0.009-0.028,1.276-0.437,1.271-0.455c-0.003-0.019,1.344-0.128,1.344-0.128c3.114-1.041,6.229-2.084,9.342-3.125c0.02,1.083,0.041,2.169,0.061,3.256c0.002,0.968,0.004,1.935,0.005,2.902c-2.1,6.286-4.196,12.576-6.294,18.863c-1.16-1.2-1.462-2.689-1.448-4.264c-0.014-0.949-0.02-1.92-0.024-2.881C79.805,60.616,79.76,59.2,79.76,59.2s-0.008,1.435-0.006,1.444c-0.008,0.991-0.006,1.978,0.009,2.969c-0.006,1.568,0.3,3.009,1.58,4.071c0,1.065,0,2.13,0,3.195c-2.094,0.006-4.186,0.012-6.279,0.019L75.115,70.844z"/>
<path fill="#9D7053" d="M24.568,30.613c1.251-1.211,2.501-2.423,3.752-3.634c4.126,0.995,8.25,1.99,12.375,2.984c0.928,0.913,1.959,1.685,3.099,2.319c0.372,0.537,0.74,1.074,1.111,1.614c0.122,1.358-0.246,2.567-1.097,3.632c-1.715,1.181-3.613,1.563-5.658,1.312c-1.268-0.418-2.424-1.043-3.473-1.874c-3.055-1.178-6.11-2.353-9.165-3.531c-1-0.363-1.471-0.903-1.419-1.618C24.153,31.016,24.31,30.613,24.568,30.613z"/>
<path fill="#BFB9B4" d="M25.071,23.258c2.077-0.739,4.155-1.477,6.23-2.212c-1.059,1.013-2.119,2.023-3.178,3.033C26.784,24.998,25.768,24.726,25.071,23.258z"/>
<path fill="#A47C79" d="M46.932,20.799c2.124,0.033,4.248,0.064,6.374,0.094c0.377,0.531,0.754,1.062,1.132,1.593c-0.198,0.623-0.398,1.242-0.597,1.864c-0.521,0.391-1.047,0.778-1.57,1.169c-1.272,0.397-2.549,0.406-3.826,0.021c-0.495-0.424-0.989-0.852-1.485-1.279C46.95,23.109,46.941,21.955,46.932,20.799z"/>
<path fill="#9C4F4C" d="M53.115,27.006c-0.011,1.089-0.023,2.179-0.034,3.269c-0.423,0.399-0.844,0.799-1.265,1.202c-1.137,0.36-2.273,0.342-3.412,0.006c-0.424-0.397-0.847-0.8-1.271-1.2c-0.015-1.08-0.032-2.164-0.047-3.244c0.418-0.409,0.836-0.818,1.254-1.227c1.165-0.156,2.33-0.159,3.496-0.012C52.264,26.2,52.69,26.603,53.115,27.006z"/>
<path fill="#C6C1BC" d="M34.449,18.223c1.076-0.046,2.153-0.095,3.23-0.141c-0.043,1.001-0.024,2.002,0.05,3.003l0.076-0.073C36.686,20.082,35.568,19.154,34.449,18.223z"/>
<path fill="#B09270" d="M44.09,18.101c0.984,0.934,1.967,1.868,2.951,2.801C46.058,19.969,45.073,19.035,44.09,18.101z"/>
<path fill="#972B29" d="M37.73,21.085c0.571,0.482,1.14,0.961,0.47,0.397c0.563,0.671,0.084,0.101-0.395-0.47C37.806,21.012,37.73,21.085,37.73,21.085z"/>
<path fill="#9D7053" d="M25.071,23.258c1.018,0.274,2.036,0.546,3.052,0.821c0.091,1.02,0.172,2.039,0.243,3.058C27.268,25.846,26.17,24.552,25.071,23.258z"/>
<path fill="#9C4F4C" d="M47.086,27.04c-0.699-0.443-1.397-0.882-2.164-1.364c0.717-0.5,1.376-0.958,2.037-1.413l-0.073-0.25c1.122,0.696,1.499,1.397,1.133,2.105c-0.366,0.708-0.735,1.065-1.11,1.065L47.086,27.04z"/>
<path fill="#78716D" d="M43.67,30.668c1.154-0.128,2.307-0.256,3.462-0.385c0.001,0-0.163-0.091-0.163-0.091c0.792,0.677,1.137,1.425,1.031,2.24c-0.109,0.849-0.273,1.273-0.494,1.273c-1.25,0.839-2.441,0.76-3.572-0.232l-0.124-0.211c-0.65-0.543-0.887-1.107-0.712-1.697C43.276,30.967,43.466,30.668,43.67,30.668z"/>
<path fill="#785944" d="M43.67,30.668c0.096,0.864,0.144,1.727,0.142,2.594c-1.039-1.099-2.078-2.197-3.117-3.296C41.697,30.149,42.689,30.384,43.67,30.668z"/>
<path fill="#725645" d="M22.088,45.808c-1.112-2.048-2.227-4.099-3.34-6.146c2.123-0.009,4.244-0.016,6.366-0.024c2.148,1.754,4.927,3.271,2.545,6.738c-2.052,1.142-3.986,1.175-5.716-0.625L22.088,45.808z"/>
<path fill="#503522" d="M28.129,45.969c-1.005-2.112-2.011-4.224-3.015-6.332c3.087-0.064,6.174-0.128,9.261-0.192c0.775,1.035,1.027,2.185,0.766,3.455c-0.714,1.807-1.9,3.189-3.658,4.056c-0.621,0.055-1.244,0.101-1.868,0.152C29.121,46.73,28.625,46.348,28.129,45.969z"/>
<path fill="#503522" d="M24.568,30.613c0.159,0.992,0.471,1.932,0.941,2.823c0.003,0-1.063-0.119-1.063-0.119c-0.76,1.086-1.524,1.038-2.291,0.006c-1.054-0.885-2.109-1.77-3.162-2.655c1.063-0.214,2.125-0.43,3.189-0.644C22.965,30.268,23.761,30.466,24.568,30.613z"/>
<path fill="#503522" d="M34.35,42.661c0.009-1.071,0.017-2.142,0.024-3.216c0.02-0.839,0.121-1.667,0.302-2.481c0.821-0.031,1.632,0.049,2.434,0.235c2.204,0.906,2.284,2.658,1.843,4.62c-0.661,1.172-1.68,1.767-3.007,1.868C35.415,43.345,34.883,43.003,34.35,42.661z"/>
<path fill="#503522" d="M22.155,33.323c0.768,0.031,1.535,0.028,2.296-0.006C23.682,33.32,22.918,33.323,22.155,33.323z"/>
<path fill="#764C31" d="M43.886,77.112c0.003-1.044,0.008-2.084,0.011-3.128c0.78-0.732,1.021-1.443,0.727-2.133c-0.292-0.681-0.574-1.022-0.849-1.022l0.111,0.112c-1.341-1.192-3.21-1.712-4.231-3.313c-0.458-1.242-0.218-2.298,0.827-3.144l0.289,0.18c1.143-1.132,2.493-1.895,4.053-2.298c2.508-0.217,4.712,0.437,6.52,2.252c2.387,3.718,2.356,7.571,0.653,11.521c-0.871,1.45-2.143,2.322-3.801,2.631C46.526,78.83,45.089,78.278,43.886,77.112z"/>
<path fill="#5C5855" d="M40.482,64.484c0.142,1.135,0.284,2.268,0.426,3.402c0.766,0.647,1.01,1.282,0.732,1.904c-0.274,0.61-0.544,0.919-0.81,0.919c-1.032,4.202-2.063,8.404-3.091,12.604c-0.029-1.004-0.09-2.005-0.18-3.006c0.012-1.053,0.023-2.105,0.035-3.158c-0.008-1.087-0.017-2.177-0.026-3.263c-0.778-0.644-1.038-1.288-0.778-1.932c0.258-0.645,0.517-0.968,0.778-0.968c-0.012-1.153-0.024-2.307-0.037-3.46c-0.664-0.568-0.908-1.163-0.734-1.782c0.176-0.629,0.368-0.946,0.574-0.946C38.408,64.695,39.446,64.591,40.482,64.484z"/>
<path fill="#81624F" d="M43.886,77.112c1.068,0.009,2.136,0.016,3.205,0.024c1.15,1.3,3.112,1.587,4.01,3.207c0.257,1.228-0.076,2.243-1.088,3.013c0,0-0.079-0.189-0.081-0.192c-0.974,1.129-1.945,2.258-2.917,3.391c-1.023-0.079-2.043-0.205-3.055-0.379C43.935,83.151,43.911,80.134,43.886,77.112z"/>
<path fill="#503522" d="M40.83,70.71c-0.055-0.943-0.031-1.886,0.076-2.826c0.995,1.02,1.987,2.039,2.98,3.058C42.866,70.89,41.846,70.814,40.83,70.71z"/>
<path fill="#503522" d="M43.775,70.829c0.571,0.503,1.142,1.01,1.819,1.608c-0.587,0.533-1.143,1.04-1.697,1.547C43.858,72.932,43.816,71.882,43.775,70.829z"/>
<path fill="#735C4D" d="M40.716,61.484c-0.064-2.133-0.128-4.267-0.192-6.399c-0.954-1.025-1.932-2.029-2.938-3.003l0.063,0.03c-0.442-0.464-0.883-0.925-1.326-1.382c0.169-1.315,0.84-2.316,1.933-3.04c1.802-0.619,3.549-0.497,5.203,0.448c1.428,1.646,3.024,3.046,5.442,3.052c1.098,0.531,1.937,1.313,2.563,2.351c0.642,1.864,0.454,3.641-0.488,5.358c-1.756,2.146-4.324,2.576-6.784,3.235C42.904,62.613,41.744,62.394,40.716,61.484z"/>
<path fill="#7F7B77" d="M37.575,49.022c-0.03,1.031-0.007,2.06,0.073,3.091c-3.158-1.059-6.317-2.114-9.476-3.174c0.557-0.427,1.112-0.857,1.669-1.284C32.594,47.126,35.413,46.21,37.575,49.022z"/>
<path fill="#888481" d="M21.943,45.75c2.062,0.073,4.125,0.146,6.186,0.217c0,0.003,0.014-0.021,0.014-0.021c1.114,0.66,1.494,1.328,1.141,2.014c-0.355,0.692-0.716,1.041-1.083,1.041l-0.027-0.062C26.096,47.877,24.02,46.815,21.943,45.75z"/>
<path fill="#807D7A" d="M37.586,52.082c0.981,1.001,1.961,2.005,2.94,3.006C39.546,54.084,38.566,53.083,37.586,52.082z"/>
<path fill="#503522" d="M40.716,61.484c1.048,0.013,2.097,0.027,3.145,0.043c0.38,0.527,0.761,1.059,1.146,1.587c-0.419,0.497-0.844,0.995-1.267,1.492c-0.99,0.012-1.98,0.03-2.969,0.055C40.752,63.603,40.734,62.543,40.716,61.484z"/>
<path fill="#802422" d="M37.371,64.799c0.122,0.906,0.177,1.818,0.161,2.731c-0.629-0.415-1.257-0.827-1.939-1.276C36.216,65.745,36.794,65.272,37.371,64.799z"/>
<path fill="#693533" d="M37.568,70.987c0.007,0.968,0.007,1.935,0,2.899c-0.592-0.473-1.186-0.946-1.821-1.449C36.382,71.934,36.976,71.461,37.568,70.987z"/>
<path fill="#CBC5C1" d="M47.01,11.766c2.062-0.024,4.123-0.049,6.183-0.073C51.131,11.717,49.072,11.741,47.01,11.766z"/>
<path fill="#CBC5C1" d="M56.364,14.439c1.055,1.095,2.108,2.191,3.163,3.29c-0.534,0.287-1.069,0.571-1.604,0.857c-0.557-0.238-1.115-0.476-1.673-0.714C56.289,16.728,56.325,15.583,56.364,14.439z"/>
<path fill="#A26A67" d="M53.306,20.893c0.981-1.007,1.964-2.014,2.944-3.021l-0.102,0.027c0.768,2.765,0.35,4.306-2.957,2.859L53.306,20.893z"/>
<path fill="#ADA8A5" d="M53.192,20.759c0.985-0.955,1.973-1.907,2.958-2.862c1.125-0.055,2.249-0.113,3.376-0.168c1.107,0.232,2.214,0.464,3.321,0.699c-0.119,0.702-0.098,1.398,0.068,2.087c0.004-0.003-0.644,0.705-0.644,0.705c-0.896,0.827-1.731,1.709-2.498,2.655c-1.251,0.083-2.502,0.162-3.753,0.244c-0.841,1.056-1.76,1.126-2.755,0.217C53.24,23.142,53.216,21.952,53.192,20.759z"/>
<path fill="#4B3A2E" d="M81.342,39.625c-1.059,2.075-2.118,4.15-3.179,6.229c0-0.003,0.045-0.016,0.045-0.016c-0.864,1.261-1.994,1.508-3.354,0.897c-0.941-1.001-1.522-2.182-1.751-3.537c0.061-0.665,0.129-1.333,0.188-2.002c0.298-0.595,0.604-1.193,0.9-1.791c1.08-0.83,2.308-1.249,3.673-1.254c1.387-0.043,2.549,0.452,3.479,1.483L81.342,39.625z"/>
<path fill="#4D301F" d="M75.436,33.659c-0.125,0.946-0.238,1.892-0.341,2.841c1.139,0.696,1.516,1.392,1.137,2.084c-0.377,0.693-0.755,1.041-1.14,1.041h0.027c-2.111,2.356-4.699,2.816-7.637,1.935c-1.341-0.638-2.224-1.678-2.719-3.067c0.101-1.456,0.538-2.792,1.352-4.007c2.091-2.497,4.842-2.82,7.824-2.375C74.439,32.627,74.937,33.143,75.436,33.659z"/>
<path fill="#4D301F" d="M75.466,30.473c0.953-0.092,1.874,0.042,2.76,0.406c-0.932,0.925-1.864,1.85-2.793,2.777c0.003,0.003-0.593-0.534-0.593-0.534c-0.865-0.827-1.061-1.492-0.587-2.002C74.65,30.69,75.054,30.473,75.466,30.473z"/>
<path fill="#56453A" d="M81.344,39.634c-1.043-0.003-2.085-0.006-3.128-0.009c-0.837-0.696-1.114-1.389-0.835-2.084c0.279-0.693,0.557-1.041,0.838-1.041c1.031-0.003,2.062-0.031,3.091-0.085C81.321,37.489,81.333,38.56,81.344,39.634z"/>
<path fill="#352316" d="M78.219,36.5c-0.002,1.041-0.002,2.084-0.002,3.125c-0.001,0-1.563,0-1.563,0h-1.563c0-1.041,0-2.084,0.002-3.125C76.137,36.5,77.178,36.5,78.219,36.5z"/>
<path fill="#353230" d="M68.754,74c2.117-0.013,4.233-0.024,6.352-0.037c-2.04,1.065-4.08,2.133-6.118,3.201c-0.048-1.083-0.098-2.167-0.146-3.253L68.754,74z"/>
<path fill="#A56D48" d="M75.466,30.473c-0.249,0.873-0.456,1.758-0.624,2.649c-3.093,1.224-6.186,2.447-9.279,3.671c-0.486-0.342-0.975-0.681-1.471-1.013c-1.177-1.401-1.904-3.009-2.223-4.804c-0.019-1.208,0.323-2.319,0.964-3.342c1.004-0.198,1.985-0.47,2.946-0.821c1.199-1.056,2.211-0.9,3.038,0.467C71.033,28.346,73.25,29.408,75.466,30.473z"/>
<path fill="#ABA39D" d="M68.818,27.28c-1.015-0.14-2.027-0.293-3.039-0.464c1.085-0.992,2.17-1.978,3.254-2.969c0.965,0.055,1.929,0.095,2.892,0.122c-0.047,1.004-0.15,2.005-0.314,2.997C70.668,26.994,69.74,27.101,68.818,27.28z"/>
<path fill="#5C7E3A" d="M59.774,23.875c0.833-0.885,1.666-1.773,2.498-2.658C61.439,22.105,60.606,22.99,59.774,23.875z"/>
<path fill="#9B7E6B" d="M56.265,30.497c1.08-0.107,2.16-0.21,3.24-0.317c0.226,0.562,0.453,1.123,0.68,1.688c-0.509,1.172-1.391,1.917-2.596,2.304c-0.582-0.189-1.16-0.378-1.741-0.571c-0.246-0.559-0.491-1.117-0.737-1.678C55.495,31.446,55.88,30.973,56.265,30.497z"/>
<path fill="#78716D" d="M56.265,30.497c0.027,0.906,0.004,1.813-0.069,2.716c-1.11,0.854-2.284,0.995-3.53,0.309c-0.713-1.257-0.575-2.377,0.551-3.33c0,0-0.132,0.079-0.133,0.079C54.144,30.348,55.204,30.424,56.265,30.497z"/>
<path fill="#78716D" d="M62.833,27.634c-0.055,0.949-0.076,1.901-0.064,2.854c-0.563,0.281-1.126,0.562-1.688,0.845c-0.508-0.372-1.016-0.741-1.524-1.114c0,0-0.053-0.04-0.052-0.04C60.615,29.331,61.724,28.483,62.833,27.634z"/>
<path fill="#BF3633" d="M53.266,24.335c0.908-0.213,1.827-0.284,2.756-0.217c-0.969,0.961-1.938,1.923-2.906,2.884c0,0.003,0.201,0.155,0.201,0.155c-1.14-0.702-1.516-1.397-1.131-2.09c0.383-0.689,0.765-1.035,1.152-1.035L53.266,24.335z"/>
<path fill="#352316" d="M50.013,83.356c0.029-1.028,0.005-2.054-0.078-3.076c1.168-0.952,2.336-0.998,3.504,0c-0.103,1.025-0.156,2.054-0.154,3.085C52.195,83.362,51.104,83.359,50.013,83.356z"/>
<path fill="#4F3423" d="M43.861,61.527c2.104-1.056,4.207-2.112,6.311-3.168c0.664-0.903,1.531-1.522,2.59-1.861c0.526,0.006,1.066,0.015,1.587,0.009c0.477,0.162,0.974,0.333,1.453,0.479c1.392,1.193,2.813,0.144,4.243-0.024c1.15-0.021,1.937,0.521,2.415,1.538c-1.005,3.091-2.01,6.183-3.015,9.274c-1.256,1.397-1.86,3.243-3.189,4.59c-2.275,1.314-1.104,7.171-6.227,4.732c-0.021-4.178-0.04-8.354-0.06-12.536c-1.589-1.972-4.631-1.062-6.179-3.112L43.861,61.527z"/>
<path fill="#544439" d="M62.459,58.5l-1.558-0.019l-1.557,0.027c-1.071,0.897-2.075,0.787-3.021-0.201l0.089,0.064c-1.39-1.19-3.266-1.779-4.277-3.442c-0.299-1.225-0.345-2.457-0.195-3.708c0.53-1.81,1.366-3.482,2.346-5.087c0.968-1.605,2.124-3.067,3.432-4.413c1.343-1.321,2.881-2.347,4.665-2.981c1.273-0.281,2.377,0.067,3.327,0.946l-0.063-0.04c1.777,1.407,4.127,2.341,4.246,5.115c-0.325,1.764-1.487,2.872-2.943,3.717c-0.898,0.391-1.864,0.659-2.829,0.794c0.035-0.01-1.309,0.149-1.309,0.149s-0.319,1.315-0.309,1.318c0.01,0.003,0.127,1.352,0.127,1.352C62.573,54.228,62.516,56.363,62.459,58.5z"/>
<path fill="#412B1C" d="M50.029,77.097c2.101-2.078,4.2-4.156,6.302-6.234c0.883,0.721,1.188,1.453,0.917,2.197c-0.274,0.751-0.556,1.129-0.843,1.129c-0.99,2.029-1.98,4.06-2.968,6.092c-1.166,0-2.333,0-3.5,0c-0.949-1.047-1.898-2.097-2.846-3.144C48.071,77.18,49.05,77.167,50.029,77.097z"/>
<path fill="#595553" d="M71.959,48.993c0.032,1.09,0.063,2.177,0.094,3.266l0.049-0.049c-3.159-0.039-6.316-0.079-9.475-0.119c0.002,0-0.093,0.024-0.093,0.024c-0.827-1.067-0.791-2.105,0.111-3.112l-0.048,0.055c2.3-2.191,5.155-1.501,7.874-1.517C70.968,48.026,71.463,48.509,71.959,48.993z"/>
<path fill="#462322" d="M81.339,61.506c-0.02,2.078-0.041,4.159-0.063,6.241l0.064-0.064c-1.041-2.06-2.08-4.117-3.121-6.177C79.259,59.983,80.3,60.057,81.339,61.506z"/>
<path fill="#352316" d="M56.405,74.189c-0.024-1.11-0.05-2.219-0.074-3.326c1.037-1.028,2.076-2.06,3.114-3.088C58.431,69.913,57.418,72.05,56.405,74.189z"/>
<path fill="#51381A" d="M67.163,65.662c0.067-0.738,0.141-1.477,0.22-2.216C67.317,64.186,67.244,64.927,67.163,65.662z"/>
<path fill="#565452" d="M74.932,45.661c1.093,0.061,2.186,0.119,3.276,0.18c0.021,1.081,0.044,2.164,0.065,3.244l0.03-0.027c-2.114-0.021-4.229-0.043-6.345-0.064l-0.008-0.009c-0.351-0.732-0.7-1.468-1.054-2.203c0.559-0.586,1.121-1.178,1.682-1.767C73.364,45.231,74.148,45.444,74.932,45.661z"/>
<path fill="#431312" d="M72.053,52.259c0.433,0.226,0.868,0.452,1.301,0.678c-0.418-0.244-0.836-0.485-1.254-0.727C72.102,52.21,72.053,52.259,72.053,52.259z"/>
<path fill="#541D1B" d="M78.22,58.368c0.512-0.564,1.022-1.129,1.563-1.727c0.537,0.598,1.047,1.162,1.559,1.73C80.3,59.559,79.259,59.501,78.22,58.368z"/>
<path fill="#4B4342" d="M78.22,58.368c1.041,0.007,2.081,0.007,3.121,0.004c0,1.04,0.001,2.084,0,3.131c-1.043,0-2.083-0.003-3.122,0C78.22,60.459,78.22,59.415,78.22,58.368z"/>
<path fill="#472B2A" d="M75.115,70.844c-0.425-0.223-0.848-0.445-1.27-0.668c0.405,0.238,0.812,0.479,1.216,0.721L75.115,70.844z"/>
<path fill="#451E1D" d="M68.841,73.911c-0.434-0.223-0.867-0.445-1.299-0.668c0.404,0.25,0.809,0.503,1.212,0.757L68.841,73.911z"/>
<path fill="#29381A" d="M78.274,49.085c0.423,0.226,0.846,0.452,1.267,0.678c-0.412-0.235-0.826-0.473-1.236-0.708C78.304,49.058,78.274,49.085,78.274,49.085z"/>
<path fill="#9E7D67" d="M53.2,33.372c1.001-0.03,2-0.082,2.997-0.155c-0.002-0.003,0.198,0.22,0.198,0.22c1.044,0.845,1.62,1.95,1.794,3.271c-0.108,0.635-0.221,1.272-0.324,1.907c-0.347,0.54-0.701,1.08-1.043,1.621c-1.124,0.625-2.333,0.985-3.616,1.071c-1.866,0.077-3.739-0.024-5.612-0.11c-1.249-0.106-2.4-0.519-3.454-1.193c-0.624-0.663-0.893-1.374-0.806-2.13c0.088-0.778,0.22-1.166,0.394-1.166c0.069-1.081,0.136-2.158,0.205-3.235c1.016-0.092,2.032-0.125,3.052-0.101C49.056,31.464,51.128,31.464,53.2,33.372z"/>
<path fill="#784F33" d="M43.728,36.708c0.121,0.943,0.284,1.88,0.49,2.811c-0.174,0.613-0.348,1.227-0.517,1.843c-0.758,1.053-1.73,1.846-2.913,2.386c-1.327,0.134-2.461-0.256-3.371-1.254c-0.101-1.767-0.201-3.534-0.304-5.298C39.317,37.034,41.521,36.869,43.728,36.708z"/>
<path fill="#ACA7A4" d="M53.338,24.033c-0.01,1.041-0.019,2.082-0.024,3.125c-2.131,0.006-4.266,0.012-6.401,0.021c-0.008-1.056-0.014-2.112-0.023-3.167C49.036,24.018,51.188,24.027,53.338,24.033z"/>
<path fill="#999490" d="M53.2,33.372c-2.072,0-4.146,0-6.218,0c-0.005-1.059-0.009-2.118-0.014-3.177c2.083,0,4.164,0,6.247,0C53.211,31.251,53.206,32.313,53.2,33.372z"/>
<path fill="#6E5546" d="M28.2,49c-0.021-1.02-0.04-2.036-0.058-3.055c1.084-0.085,2.169-0.174,3.254-0.259c1.132-0.87,2.41-1.251,3.833-1.147c2.147,0.754,3.58,1.889,2.324,4.435l0.021,0.045C34.45,49.012,31.325,49.006,28.2,49z"/>
<path fill="#503522" d="M34.281,45.82c-0.964,0.009-1.927-0.037-2.885-0.134c0.986-1.01,1.972-2.017,2.956-3.024c-0.001,0,0.141,0.113,0.141,0.113c1.076,0.753,1.402,1.456,0.982,2.108C35.073,45.509,34.677,45.82,34.281,45.82z"/>
<path fill="#7E6453" d="M34.281,45.82c0.108-1.013,0.179-2.026,0.211-3.045c0.982-0.028,1.958-0.119,2.926-0.278c1.181-0.006,2.364-0.009,3.546-0.012c0.544-0.351,1.091-0.705,1.636-1.062c0.605,0.235,1.211,0.473,1.819,0.708c0.766,1.08,1.201,2.276,1.256,3.607c-0.162,0.629-0.33,1.258-0.495,1.886c-0.442,0.477-0.89,0.949-1.336,1.423c-2.097-0.024-4.193-0.049-6.29-0.073C36.463,47.923,35.372,46.869,34.281,45.82z"/>
<path fill="#7E573F" d="M43.79,61.448c2.06,1.037,4.12,2.075,6.18,3.112c-2.076,0.016-4.153,0.03-6.229,0.046C43.757,63.554,43.774,62.501,43.79,61.448z"/>
<path fill="#352316" d="M53.247,52.131c-0.02,1.037-0.028,2.072-0.025,3.106c0.813,0.662,1.083,1.324,0.812,1.983c-0.271,0.659-0.543,0.992-0.816,0.992c-1.016,0.03-2.032,0.079-3.047,0.146c-0.055-2.069-0.111-4.138-0.168-6.207c0.539-0.278,1.079-0.559,1.617-0.84C52.163,51.588,52.706,51.859,53.247,52.131z"/>
<path fill="#816857" d="M47.123,51.887c-0.75,0.388-1.501,0.772-2.49,1.285c-0.281-1.472-0.534-2.799-0.789-4.126l0.041-0.098c0.717-0.287,1.435-0.574,2.151-0.858c0.569,0.522,1.14,1.044,1.709,1.566C47.538,50.398,47.33,51.142,47.123,51.887z"/>
<path fill="#4C301F" d="M47.123,51.887c-0.104-0.955-0.192-1.91-0.264-2.869c1.052-0.644,2.11-0.652,3.176-0.027c0.596,0.62,0.858,1.282,0.791,1.996c-0.07,0.735-0.188,1.102-0.352,1.102c0,0-0.471,0.064-0.473,0.064C49.038,52.109,48.078,52.021,47.123,51.887z"/>
<path fill="#3A2719" d="M68.984,45.838c-1.112-2.063-2.225-4.125-3.337-6.192c3.156-0.006,6.314-0.012,9.472-0.021c-0.04,1.059-0.08,2.118-0.119,3.177c-0.876,1.104-1.891,2.06-3.046,2.865l0.108,0.327C70.976,47.153,69.947,47.159,68.984,45.838z"/>
<path fill="#352316" d="M71.953,45.667c1.015-0.955,2.031-1.91,3.046-2.865c0.047,0.955,0.025,1.91-0.065,2.859c-0.002,0-1.491,0.095-1.491,0.095L71.953,45.667z"/>
<path fill="#352316" d="M65.709,39.686c-1.007-0.049-2.014-0.073-3.021-0.08l-0.835-1.275c-0.016-1.123,0.448-1.99,1.389-2.606c1.096-0.793,1.957-0.589,2.585,0.61l-0.263,0.455C65.654,37.754,65.702,38.718,65.709,39.686z"/>
<path fill="#805436" d="M65.827,36.335l-1.282,0.174l-1.294-0.018c-0.529-0.141-1.059-0.281-1.592-0.418c-0.614-0.946-0.858-1.975-0.676-3.098c0.271-1.086,0.841-1.993,1.668-2.744c0,0,0.114,0.25,0.116,0.253C63.788,32.435,64.808,34.385,65.827,36.335z"/>
<path fill="#B79077" d="M56.385,36.796c0.003-1.12,0.006-2.24,0.009-3.36c1.024-0.061,2.047-0.122,3.069-0.174c0.396,0.556,0.791,1.114,1.189,1.672c-0.201,0.656-0.405,1.31-0.608,1.962c-0.616,0.296-1.236,0.589-1.855,0.882C57.589,37.452,56.987,37.126,56.385,36.796z"/>
<path fill="#AA836A" d="M62.652,30.231c-0.113,1.093-0.226,2.185-0.339,3.278c-0.972,1.321-1.918,1.37-2.836-0.055l-0.014-0.192c0.009-1.016,0.039-2.029,0.093-3.042C60.589,30.238,61.62,30.244,62.652,30.231z"/>
<path fill="#352316" d="M53.217,58.213c0-0.992,0.002-1.983,0.005-2.976c1.063,1.047,2.125,2.091,3.189,3.135C55.347,58.319,54.282,58.265,53.217,58.213z"/>
<path fill="#352316" d="M56.323,58.308c1.011,0.049,2.018,0.116,3.023,0.201C58.338,58.441,57.331,58.375,56.323,58.308z"/>
<path fill="#352316" d="M50.475,52.088c-0.188-0.991-0.296-1.989-0.318-2.997c0.145-0.543,0.29-1.089,0.43-1.636c1.052-1.431,2.427-2.297,4.23-2.404c0.497,0.266,0.993,0.531,1.49,0.796c-1.019,2.096-2.04,4.19-3.06,6.284C52.324,52.125,51.4,52.109,50.475,52.088z"/>
<path fill="#4E3D32" d="M68.984,45.838c1.029-0.003,2.055,0.046,3.078,0.153c-0.081,0.998-0.117,1.996-0.11,2.994c-3.117,0.024-6.234,0.049-9.354,0.073C64.727,47.986,66.856,46.912,68.984,45.838z"/>
<path fill="#40291A" d="M62.689,39.606c-1.081,1.047-2.159,2.094-3.238,3.14c-1.01,1.013-2.087,1.147-3.244,0.253c-0.773-1.169-0.73-2.307,0.13-3.415l0.23,0.214c0.714-1.062,1.696-1.654,2.987-1.7c1.302-0.07,2.312,0.439,3.03,1.526L62.689,39.606z"/>
<path fill="#352316" d="M56.292,42.716c1.053,0.009,2.105,0.018,3.158,0.03c-1.048,1.035-2.095,2.069-3.144,3.104c0-0.003,0.038,0.027,0.038,0.027c-0.355-0.522-0.711-1.044-1.066-1.565C55.615,43.781,55.954,43.247,56.292,42.716z"/>
<path fill="#4C3B2F" d="M62.646,49.003c-0.026,1.037-0.063,2.075-0.11,3.112c-0.366-0.75-0.81-1.479-1.032-2.271C61.457,49.687,62.242,49.29,62.646,49.003z"/>
<path fill="#9E643F" d="M56.336,39.585c-0.014,1.044-0.029,2.087-0.043,3.131c-0.001,0-0.063-0.107-0.063-0.107c-1.698,1.764-3.92,2.344-6.22,2.744c-2.461,0.042-4.468-0.967-6.171-2.673l-0.042,0.079c-0.625-0.555-0.908-1.172-0.849-1.846c0.063-0.705,0.179-1.056,0.348-1.056c0,0,0.917-0.339,0.92-0.339c1.051-0.019,2.101-0.037,3.151-0.055c1.845-1.642,3.683-1.624,5.518,0.021C54.035,39.518,55.186,39.552,56.336,39.585z"/>
<path fill="#7A5135" d="M52.885,39.484c-1.842-0.006-3.684-0.012-5.522-0.018C49.205,39.469,51.044,39.479,52.885,39.484z"/>
<path fill="#784F33" d="M59.754,39.332c-1.063,0.155-2.126,0.311-3.188,0.464c-0.128-0.995-0.189-1.996-0.182-3c0.95-0.149,1.899-0.146,2.849,0.009c1.055,0.369,1.481,0.867,1.286,1.492C60.305,38.987,60.05,39.332,59.754,39.332z"/>
<path fill="#503522" d="M43.296,39.857c0.288,0.946,0.456,1.913,0.502,2.902c-0.952-0.033-1.896-0.125-2.835-0.271C41.741,41.608,42.518,40.732,43.296,39.857z"/>
<path fill="#764B2E" d="M43.839,42.68c2.229,0.238,4.46,0.476,6.689,0.714c1.361,1.975,1.289,3.86-0.342,5.652l-0.032,0.042c-1.097-0.021-2.195-0.046-3.295-0.07l0.131,0.116c-1.002-0.974-1.973-1.98-2.91-3.018C43.999,44.972,43.919,43.824,43.839,42.68z"/>
<path fill="#503522" d="M44.08,46.116c0.969,1.004,1.939,2.011,2.908,3.018c-1.033-0.082-2.067-0.144-3.104-0.186C43.893,48.002,43.957,47.056,44.08,46.116z"/>
<path fill="#BD8A6C" d="M59.754,39.332c-0.176-0.842-0.348-1.685-0.519-2.527c-0.002,0,0.391-0.522,0.391-0.522c0.898-1.05,1.633-0.894,2.225,0.302l1.4-0.095c-0.223,1.043-0.444,2.087-0.667,3.134C61.628,39.655,60.685,39.558,59.754,39.332z"/>
<path fill="#C19A81" d="M61.851,36.585c-0.748-0.07-1.491-0.171-2.228-0.299c-0.104-0.946-0.154-1.889-0.146-2.832c0.948-0.052,1.895-0.037,2.839,0.055C62.158,34.535,62.005,35.56,61.851,36.585z"/>
<path fill="#4C301F" d="M50.187,49.046c0.113-1.887,0.226-3.772,0.341-5.655c1.902-0.256,3.802-0.519,5.703-0.781c0.038,1.089,0.076,2.179,0.114,3.269C54.293,46.934,52.24,47.989,50.187,49.046z"/>
</svg>