<?xml version="1.0" encoding="utf-8"?>
<!DOCTYPE svg PUBLIC "-//W3C//DTD SVG 1.1//EN" "http://www.w3.org/Graphics/SVG/1.1/DTD/svg11.dtd">
<svg version="1.1" xmlns="http://www.w3.org/2000/svg" xmlns:xlink="http://www.w3.org/1999/xlink" x="0px" y="0px" width="100px" height="100px" viewBox="0 0 100 100" enable-background="new 0 0 100 100" xml:space="preserve">
<path fill="#303030" d="M80.861,59.291c-1.106,8.243-2.213,16.486-3.319,24.729c-1.057-0.573-1.894-0.312-2.537,0.672c-1.194,0.866-2.388,1.733-3.583,2.6c-1.045-0.757-1.94-0.649-2.666,0.458c-2.267,0.772-4.536,1.541-6.804,2.311c-1.349-0.52-2.575-1.248-3.692-2.148c-0.806-1.16-1.375-2.438-1.736-3.803c0.101-2.726,1.184-5.209,1.999-7.745c1.717-2.649,4.72-3.857,6.836-6.064c0.391-0.439,0.81-0.854,1.202-1.3c0.365-0.47,0.757-0.912,1.126-1.383c0.694-0.994,1.399-1.975,2.086-2.987c0.653-1.087,1.383-2.1,2.184-3.079c1.695-1.844,2.298-4.978,5.701-4.764C78.837,57.479,79.898,58.325,80.861,59.291z"/>
<path fill="#474747" d="M19.22,43.734c-0.008-2.13-0.017-4.26-0.024-6.394c0.766-0.717,1.591-1.358,2.481-1.925c0.842-0.708,1.398-1.587,1.668-2.658c0.119-1.114,0.331-2.197,0.656-3.271c1.085-1.407,2.377-2.588,3.65-3.815c1.484-1.178,3.015-2.249,4.84-2.847c1.315-0.201,2.599-0.113,3.87,0.259c1.962,0.681,3.383,2.023,4.56,3.668c0.65,1.172,1.034,2.426,1.153,3.76c0.131,2.67-0.807,5.13-1.515,7.629c-0.522,1.828-1.043,3.665-1.558,5.496c-0.412,1.188-0.923,2.332-1.532,3.43c-0.299,0.552-0.598,1.105-0.897,1.654c-0.57,1.127-1.252,2.176-2.052,3.152c-0.914,0.886-1.936,1.615-3.071,2.188c-1.262,0.281-2.512,0.235-3.758-0.095c-1.758-0.885-3.102-2.225-4.219-3.817c-0.575-1.15-1.187-2.283-1.846-3.388C20.82,45.754,20.019,44.744,19.22,43.734z"/>
<path fill="#424242" d="M71.441,24.602c-0.009,3.427-0.018,6.854-0.027,10.281c-0.893,1.73-2.087,3.296-2.809,5.13c-0.554,1.224-1.106,2.438-1.663,3.662c-0.734,1.178-1.614,2.212-2.64,3.143c-1.833,1.3-3.896,1.569-6.063,1.428c-1.45-0.26-2.762-0.821-3.946-1.688c-1.002-1.062-1.75-2.283-2.282-3.629c-0.223-1.397-0.338-2.813-0.347-4.227c-0.073-2.756,0.375-5.401,1.788-7.803c0.569-1.105,1.147-2.228,1.715-3.33c0.694-0.952,1.504-1.834,2.399-2.603c0.931-0.644,1.964-1.099,3.079-1.318c0.538-0.046,1.096-0.091,1.636-0.137c0.531-0.006,1.079-0.012,1.612-0.021c1.049,0,2.11,0,3.163,0C68.603,23.504,70.192,23.385,71.441,24.602z"/>
<path fill="#3A3A3A" d="M53.616,87.13c-1.335-0.013-2.67-0.024-4.005-0.037c-0.947-0.909-1.909-1.807-2.889-2.683c-1.039-0.165-2.078-0.326-3.119-0.491c-0.54-1.334-0.985-2.697-1.336-4.096c-1.167-1.821-2.721-3.442-2.958-5.746c-0.092-1.492-0.087-2.973,0.014-4.465c0.255-1.514,0.874-2.856,1.808-4.064c1.741-1.483,3.528-2.891,5.702-3.696c1.544-0.226,3.004,0.043,4.393,0.742c4.633,3.555,4.368,9.414,6.616,14.09c0.491,1.403,0.876,2.841,1.152,4.306c-0.187,1.486-0.707,2.851-1.516,4.111C56.355,86.086,55.075,86.779,53.616,87.13z"/>
<path fill="#646464" d="M62.838,27.84c-1.148,0.113-2.298,0.226-3.445,0.336c-0.67,0.152-1.338,0.302-2.007,0.455c-1.35,0.373-2.686,0.345-4.005-0.144c-1.217-0.628-2.434-1.26-3.65-1.889c-1.256-0.573-2.317-1.4-3.183-2.478c-0.564-1.254-0.784-2.567-0.609-3.937c0.659-1.175,1.315-2.356,1.968-3.534c0.486-1.258,1.099-2.451,1.858-3.568c2.289,1.029,4.579,2.057,6.87,3.085c1.001,0.885,1.997,1.773,2.988,2.664l-0.446-0.128c1.315,1.15,3.155,1.483,4.36,2.805c0.604,1.025,0.837,2.136,0.751,3.32C64.224,26.034,63.741,27.037,62.838,27.84z"/>
<path fill="#2F2F2F" d="M81.021,49.916c-0.073,2.191-0.148,4.383-0.223,6.571c-1.603,1.406-3.705,1.935-5.454,3.091c-1.231,0.767-2.566,1.087-4.013,0.965c-1.383-0.412-2.639-1.063-3.776-1.947c-1.133-0.9-2.178-1.886-3.155-2.948c-1.453-1.642-2.696-3.394-2.951-5.651c0.128-1.456,0.666-2.753,1.553-3.903c1.381-1.572,2.506-3.342,3.65-5.075c1.115-0.806,2.363-1.083,3.711-0.827c1.197,0.421,2.352,0.979,3.416,1.679c0.859,0.87,1.674,1.8,2.42,2.774c0.357,0.479,0.721,0.967,1.078,1.45c0.41,0.427,0.826,0.863,1.237,1.294C79.383,48.19,80.22,49.035,81.021,49.916z"/>
<path fill="#6C6C6C" d="M28.295,28.32c-0.035,2.011-0.07,4.022-0.105,6.03c-0.861,0.757-1.811,1.37-2.851,1.849c-1.071,0.464-2.168,0.568-3.299,0.253c-1.115-0.354-1.991-1.02-2.629-2.002c1.892-3.113,3.784-6.229,5.676-9.345C27.321,25.017,28.274,26.202,28.295,28.32z"/>
<path fill="#3E3E3E" d="M19.22,43.734c0.896,0.027,1.79,0.046,2.686,0.061c0.984,1.325,1.827,2.738,2.525,4.236c1.637,3.675,5.926,6.223,4.716,11.111c-0.584,1.703-1.683,2.939-3.297,3.727c-2.966,0.562-4.797-1.239-6.577-3.149C19.255,54.391,19.238,49.062,19.22,43.734z"/>
<path fill="#282828" d="M75.588,50.189c-1.214-1.13-2.431-2.259-3.645-3.388c0.806-1.188,1.023-2.463,0.555-3.833c-0.007-1.462,0.615-2.563,1.871-3.312c1.411-0.406,2.621-0.073,3.63,0.998c0.986,1.202,1.972,2.405,2.957,3.61c-0.769,0.854-1.167,1.868-1.24,3.009c-0.151,1.15-0.686,2.081-1.605,2.789l0.217-0.061C77.481,51.034,76.567,51.095,75.588,50.189z"/>
<path fill="#8F8F8F" d="M77.999,40.655c-0.903,0.061-1.808,0.11-2.713,0.146c-1.077,1.108-2.387,1.642-3.933,1.602c-2.96-0.442-6.068-0.638-7.108-4.272c-0.008-1.593,0.689-2.804,1.999-3.687c1.724,0.146,3.446,0.293,5.169,0.439C73.61,36.806,75.804,38.729,77.999,40.655z"/>
<path fill="#454545" d="M27.769,75.158c-1.872-1.346-3.746-2.691-5.618-4.034c-0.803-2.661,0.085-4.696,2.3-6.241c1.563-0.442,3.155-0.598,4.772-0.467c2.484,0.437,4.393,1.715,5.673,3.903c0.591,1.492,0.751,3.036,0.479,4.62c-0.635,1.526-1.739,2.549-3.313,3.059C30.462,76.589,29.03,76.308,27.769,75.158z"/>
<path fill="#565656" d="M25.149,68.688c-1,0.812-2,1.627-3,2.436c-0.832-2.829-1.663-5.658-2.497-8.483c2.861-0.818,5.361-0.553,6.982,2.334C26.555,66.378,26.06,67.617,25.149,68.688z"/>
<path fill="#7F7F7F" d="M28.295,28.32c-1.069-1.071-2.138-2.143-3.207-3.214c2.031-1.083,4.062-2.167,6.093-3.25c0.426,0.409,0.852,0.818,1.275,1.23c-0.371,0.458-0.743,0.916-1.114,1.373C30.327,25.747,29.31,27.032,28.295,28.32z"/>
<path fill="#6A6A6A" d="M25.059,65.67c-1.802-1.011-3.604-2.021-5.406-3.03c-0.314-0.949-0.441-1.923-0.38-2.921c1.932-0.146,3.865-0.293,5.797-0.442c2.052-1.499,4.094-1.831,6.117,0.049c0.708,1.428,0.72,2.875,0.13,4.34c-1.12,1.07-2.449,1.721-3.984,1.946C26.576,65.63,25.818,65.652,25.059,65.67z"/>
<path fill="#6A6A6A" d="M53.616,87.13c0.911-1.09,1.824-2.176,2.734-3.263c0.599-0.309,1.196-0.616,1.795-0.925c0.398,0.543,0.798,1.084,1.196,1.624c0.147,0.979,0.283,1.959,0.404,2.938c0.806,0.787,0.988,1.44,0.556,1.962c-0.379,0.458-0.749,0.687-1.117,0.687C57.328,89.144,55.471,88.137,53.616,87.13z"/>
<path fill="#505050" d="M37.559,80.654c-2.086-1.104-4.173-2.209-6.259-3.311c-0.93-0.498-1.236-0.992-0.923-1.483c0.31-0.485,0.62-0.729,0.937-0.729l0.011-0.073c1.077-1.114,2.25-2.114,3.506-3.024c1.584-0.269,3.026,0.067,4.327,1.014c0.775,1.361,1.257,2.816,1.445,4.37C40.054,78.933,39.039,80.013,37.559,80.654z"/>
<path fill="#8C8C8C" d="M31.181,21.856c2.029-0.864,4.059-1.73,6.088-2.597c1.362,0.583,2.047,1.618,2.061,3.098c-0.712,1.26-1.791,1.947-3.233,2.06c-1.288-0.476-2.469-1.145-3.556-1.984L31.181,21.856z"/>
<path fill="#7A7A7A" d="M49.695,15.279c0.119,1.16,0.238,2.319,0.356,3.479c-1.645,1.789-3.453,2.951-5.932,1.563c-0.922-1.361-0.943-2.737-0.061-4.126c0.859-0.281,1.739-0.467,2.64-0.555C47.584,14.58,48.583,14.461,49.695,15.279z"/>
<path fill="#3F3F3F" d="M75.077,56.502c1.909-0.006,3.817-0.012,5.724-0.015c0.106,0.934,0.13,1.867,0.063,2.804c-0.908,0.046-1.814,0.086-2.721,0.119C74.914,60.769,74.074,59.606,75.077,56.502z"/>
<path fill="#999999" d="M71.441,24.602c-1.97,0.04-3.938,0.083-5.906,0.122c-0.795-0.571-1.05-1.126-0.768-1.669c0.279-0.537,0.556-0.806,0.832-0.806C67.545,23.034,69.493,23.818,71.441,24.602z"/>
<path fill="#9D9D9D" d="M65.599,22.249c-0.019,0.827-0.038,1.654-0.063,2.478c-0.002-0.003,0.007,0.248,0.007,0.248c-0.476,0.75-0.952,1.501-1.427,2.252c-0.498-0.735-0.997-1.471-1.498-2.207c-0.146-1.825-0.294-3.647-0.442-5.472l0.195,0.217C63.448,20.592,64.523,21.422,65.599,22.249z"/>
<path fill="#4A4A4A" d="M78.395,46.886c0.854-0.875,1.71-1.751,2.563-2.624c0.038,0.879,0,1.754-0.114,2.624C80.026,48.357,79.209,48.357,78.395,46.886z"/>
<path fill="#454545" d="M78.395,46.886c0.817,0.006,1.637,0.006,2.452,0c0.142,1.008,0.203,2.018,0.177,3.033c-0.971,0.064-1.94,0.113-2.911,0.141C78.205,49.004,78.3,47.946,78.395,46.886z"/>
<path fill="#A1A1A1" d="M49.695,15.279c-1,0.113-1.999,0.235-2.997,0.36c1.022-0.852,2.045-1.706,3.068-2.558C49.757,13.814,49.733,14.547,49.695,15.279z"/>
<path fill="#545454" d="M44.058,16.195c-0.066,0.857-0.139,1.715-0.218,2.576c-0.307,0.449-0.612,0.897-0.917,1.346c-0.543-0.016-1.085-0.031-1.628-0.043c-0.253-0.479-0.506-0.961-0.758-1.44C41.709,17.818,42.883,17.007,44.058,16.195z"/>
<path fill="#7F7F7F" d="M59.624,18.831c-0.996-0.888-1.992-1.776-2.988-2.664C57.632,17.056,58.628,17.944,59.624,18.831z"/>
<path fill="#545454" d="M37.346,21.938c0.003-0.894-0.021-1.789-0.075-2.683c1.089-0.205,2.179-0.409,3.267-0.62c-0.001-0.003,0.354,0.528,0.354,0.528C41.497,22.374,40.307,23.29,37.346,21.938z"/>
<path fill="#BEBEBE" d="M62.371,19.765c0,0-0.185-0.174-0.189-0.195c-1.004-0.308-2.002-0.595-3.003-0.873C60.243,19.057,61.306,19.411,62.371,19.765z"/>
<path fill="#707070" d="M19.412,34.451c0.837-0.006,1.677-0.012,2.516-0.021c0.5,0.525,1.001,1.053,1.5,1.578c-0.521,0.503-1.042,1.01-1.564,1.514c-0.895-0.03-1.786-0.088-2.672-0.177C19.073,36.364,19.145,35.4,19.412,34.451z"/>
<path fill="#515151" d="M31.314,75.13c-0.008,0.738-0.012,1.48-0.014,2.216c-1.175-0.732-2.352-1.462-3.529-2.188C28.95,75.149,30.133,75.14,31.314,75.13z"/>
<path fill="#515151" d="M37.559,80.654c-0.004-0.809-0.011-1.617-0.017-2.426c0.452-0.537,0.905-1.074,1.356-1.611c1.476-0.342,2.67,0.089,3.586,1.294c-0.064,0.699-0.131,1.397-0.197,2.1c-0.543,0.442-1.088,0.885-1.633,1.331C39.623,81.112,38.591,80.883,37.559,80.654z"/>
<path fill="#515151" d="M43.789,81.295c-0.06,0.876-0.121,1.755-0.185,2.627c-0.984-0.863-1.965-1.724-2.948-2.581c-0.001,0,0.052-0.064,0.052-0.064c0.516-0.494,1.033-0.989,1.549-1.483C42.768,80.294,43.278,80.794,43.789,81.295z"/>
<path fill="#373737" d="M75.004,84.692c0.835-0.281,1.685-0.504,2.544-0.672C76.701,84.264,75.854,84.487,75.004,84.692z"/>
<path fill="#434343" d="M46.722,84.41c0.965,0.895,1.929,1.792,2.89,2.683C48.648,86.199,47.685,85.305,46.722,84.41z"/>
<path fill="#474747" d="M68.755,87.749c0.904-0.079,1.797-0.232,2.671-0.458C70.535,87.459,69.647,87.612,68.755,87.749z"/>
<path fill="#474747" d="M59.184,90.154c0.155-0.891,0.34-1.772,0.559-2.648c0.741,0.854,1.479,1.709,2.212,2.561c-0.003-0.006-1.385,0.116-1.385,0.116L59.184,90.154z"/>
<path fill="#2D2D2D" d="M75.039,65.956c0.122,1.206,0.244,2.408,0.366,3.613c0.304,0.577,0.605,1.154,0.908,1.733c-0.387,1.276-1.064,2.362-2.086,3.235c-1.9,0.653-3.772,1.354-5.539,2.331c-2.077,0.77-4.09-0.137-6.145-0.192c-1.502-0.003-2.769-0.516-3.784-1.639c-0.504-1.403-0.753-2.844-0.786-4.333c-0.002-1.52,0.154-3.009,0.469-4.495c0.692-1.395,1.623-2.594,2.804-3.61c1.355-0.821,2.814-1.307,4.391-1.462c1.585-0.073,3.158-0.03,4.734,0.131C72.937,61.83,74.559,63.327,75.039,65.956z"/>
<path fill="#474747" d="M75.039,65.956c-2.083-0.119-4.167-0.237-6.25-0.356c-1.074-1.05-2.089-2.151-3.047-3.306c-0.64-1.425-0.642-2.854-0.005-4.278c1.759-1.815,4.022-1.679,6.266-1.608c1.025,0.021,2.049,0.049,3.072,0.092c1.024,0.974,2.047,1.944,3.069,2.914C77.109,61.593,76.074,63.775,75.039,65.956z"/>
<path fill="#535353" d="M56.361,81.56c-1.067-0.088-2.136-0.177-3.202-0.265c-0.791-0.788-1.174-1.657-1.151-2.604c0.023-0.989,0.137-1.483,0.338-1.486c1.089-2.729,0.587-6.25,3.929-7.849c4.172-0.388,4.558,3.394,6.282,5.697l0.333-0.309c1.848,1.343,1.81,2.631-0.111,3.861c-1.145,1.986-2.291,3.973-3.436,5.96c-0.001,0,0.185-0.003,0.185-0.003C58.578,83.45,57.168,82.821,56.361,81.56z"/>
<path fill="#4B4B4B" d="M62.778,78.607c0.035-1.285,0.071-2.57,0.109-3.857c2.007,0.058,4.01,0.121,6.015,0.183c1.279-1.349,2.935-1.462,4.638-1.416c1.199,0.033,2.078,0.595,2.686,1.614c0.03,1.175-0.401,2.148-1.294,2.914C70.88,78.231,66.828,78.42,62.778,78.607z"/>
<path fill="#3F3F3F" d="M75.633,72.17c-0.062-0.876-0.14-1.752-0.232-2.612c0.725,0.906,1.443,1.804,2.164,2.697C76.92,72.228,76.277,72.198,75.633,72.17z"/>
<path fill="#4A4A4A" d="M75.633,72.17c0.648,0.019,1.295,0.046,1.938,0.082c0.192,0.903,0.366,1.807,0.516,2.716c-0.981,1.285-1.994,1.38-3.046,0.086l0.043,0.033c-0.735-0.543-1.471-1.086-2.206-1.633c0.786-0.467,1.573-0.934,2.36-1.4L75.633,72.17z"/>
<path fill="#3F3F3F" d="M75.04,75.054c1.017-0.027,2.033-0.055,3.048-0.082c-1.053,1.021-2.104,2.051-3.157,3.072C74.971,77.047,75.007,76.049,75.04,75.054z"/>
<path fill="#5B5B5B" d="M34.309,43.911c0.271-2.246,0.543-4.496,0.813-6.742c1.294-1.385,2.87-2.264,4.733-2.627c1.978,0.171,3.439,1.129,4.385,2.875c0.482,1.865,0.282,3.653-0.601,5.368c-1.914,2.268-4.224,3.583-7.306,3.049C35.658,45.193,34.983,44.552,34.309,43.911z"/>
<path fill="#4F4F4F" d="M31.265,50.014c0.05-1.089,0.101-2.176,0.149-3.262c1.518-1.093,3.209-1.575,5.077-1.444c1.996,0.232,3.265,1.309,3.813,3.244c-0.816,4.877-3.508,6.021-7.823,3.943C32.075,51.668,31.671,50.841,31.265,50.014z"/>
<path fill="#6C6C6C" d="M37.548,37.554c-0.812-0.125-1.622-0.253-2.429-0.381c0.799-1.993,1.594-3.983,2.391-5.972c1.409,0.509,2.228,1.501,2.46,2.981C39.431,35.5,38.612,36.614,37.548,37.554z"/>
<path fill="#707070" d="M37.556,34.432c-0.015-1.077-0.03-2.154-0.046-3.231c0.038-0.998,0.057-1.999,0.055-2.997c0.531-0.613,1.063-1.23,1.594-1.843c1.691-0.418,3.179-0.04,4.46,1.138c0.935,1.376,1.341,2.899,1.216,4.557c-0.374,1.663-1.334,2.856-2.879,3.573C40.286,35.986,38.82,35.586,37.556,34.432z"/>
<path fill="#6C6C6C" d="M25.033,46.969c1.007,0.992,2.016,1.987,3.023,2.982c-0.493,0.434-0.986,0.869-1.479,1.303c-1.338-0.394-2.194-1.26-2.573-2.604C24.348,48.089,24.69,47.527,25.033,46.969z"/>
<path fill="#4F4F4F" d="M28.056,49.951c1.071,0.021,2.141,0.043,3.21,0.063c-0.001,0,0.018,0.024,0.018,0.024c1.477,1.23,1.691,2.652,0.641,4.264c-1.591,0.903-3.113,0.803-4.567-0.312c-1.022-1.611-0.833-3.066,0.567-4.364L28.056,49.951z"/>
<path fill="#A1A1A1" d="M32.542,22.432c0.541-0.159,1.076-0.335,1.605-0.528c1.082,0.381,1.629,1.145,1.643,2.295l-1.285,0.763c-1.054-0.167-2.109-0.333-3.163-0.5C31.735,23.779,32.135,23.104,32.542,22.432z"/>
<path fill="#ADADAD" d="M37.565,28.203c-1.021-1.08-2.04-2.158-3.061-3.238c0.001-0.003-0.122,0.208-0.122,0.208c1.007-1.321,2.283-1.676,3.827-1.068c0.818,1.557,0.369,2.686-1.165,3.449L37.565,28.203z"/>
<path fill="#373737" d="M25.062,34.438c1.042-0.028,2.084-0.058,3.128-0.085c-0.99,1.05-1.982,2.103-2.973,3.155c-0.578-0.482-1.158-0.967-1.736-1.449C24.008,35.518,24.535,34.978,25.062,34.438z"/>
<path fill="#565656" d="M25.218,37.508c-1.117,0.003-2.235,0.009-3.354,0.012l0.061,0.031c1.043-1.401,2.087-1.468,3.129,0.003L25.218,37.508z"/>
<path fill="#676767" d="M31.375,43.774l-0.101,0.098L31.375,43.774z"/>
<path fill="#6C6C6C" d="M22.233,46.655c-0.116-0.952-0.226-1.908-0.328-2.86c1.042,1.056,2.086,2.115,3.128,3.171c0,0.003,0.037-0.067,0.037-0.067c-0.532,0.649-1.065,1.3-1.598,1.95C23.059,48.119,22.647,47.387,22.233,46.655z"/>
<path fill="#6E6E6E" d="M34.474,46.932c-1.022-0.04-2.043-0.098-3.061-0.177c-0.061-0.995-0.075-1.987-0.04-2.981c0.001,0-0.098,0.094-0.098,0.094c1.012,0.034,2.024,0.046,3.036,0.04c-0.003,0.003-0.017-0.027-0.017-0.027C36.604,44.765,36.663,45.782,34.474,46.932z"/>
<path fill="#828282" d="M52.815,22.256c1.272,1.062,2.547,2.127,3.821,3.189c0.95,0.928,1.889,1.861,2.816,2.811l-0.06-0.079c0.029,0.964,0.038,1.926,0.027,2.89c-1.935,1.712-4.27,2.768-6.514,3.971c-2.561,0.766-4.979,0.586-7.167-1.09c-0.957-1.41-1.54-2.966-1.744-4.66C43.741,22.942,50.536,25.43,52.815,22.256z"/>
<path fill="#414141" d="M56.697,43.899c0.854-0.043,1.707-0.083,2.563-0.125c2.322,0.802,4.835,1.403,4.883,4.617c0.425,2.42,1.518,4.818,0.198,7.287c-1.32,1.16-2.856,1.706-4.613,1.636c-2.618-0.516-4.479-2.173-6.163-4.092c-0.988-1.413-1.503-2.981-1.542-4.703c0.094-1.761,0.82-3.207,2.177-4.333C55.031,44.088,55.864,43.994,56.697,43.899z"/>
<path fill="#A1A1A1" d="M62.705,47.445c-1.148-1.224-2.298-2.447-3.446-3.671c1.108-1.035,2.22-2.069,3.329-3.104c0.435-0.439,0.87-0.879,1.305-1.321c2.61,0.534,4.419,2.039,5.456,4.486c-1.24,1.242-2.48,2.487-3.723,3.729C64.588,49.105,63.612,49.148,62.705,47.445z"/>
<path fill="#313131" d="M53.529,31.884c1.964-0.272,3.928-0.541,5.892-0.815c-1.088,2.191-2.176,4.385-3.264,6.58c-1.359,1.202-2.77,1.267-4.231,0.189C50.421,35.305,51.315,33.416,53.529,31.884z"/>
<path fill="#8C8C8C" d="M62.619,25.02c0.976-0.009,1.95-0.024,2.925-0.045c0.059,0.748,0.13,1.495,0.216,2.24c-0.626,1.468-1.685,1.816-3.114,1.203c0,0,0.186-0.568,0.19-0.571C62.732,26.904,62.659,25.963,62.619,25.02z"/>
<path fill="#373737" d="M62.645,28.417c1.036-0.397,2.072-0.794,3.111-1.196C64.721,27.618,63.684,28.017,62.645,28.417z"/>
<path fill="#373737" d="M66.244,34.444c-0.437,1.041-0.875,2.082-1.312,3.122c-0.424,0.427-0.847,0.854-1.271,1.282c-0.345-0.491-0.691-0.982-1.036-1.477C63.831,36.394,65.038,35.421,66.244,34.444z"/>
<path fill="#242424" d="M53.108,37.493c1.02,0.04,2.037,0.088,3.052,0.153c0.044,0.903,0.09,1.803,0.131,2.704c-0.714,1.245-1.771,1.904-3.226,1.889c-1.165-0.849-1.699-1.975-1.506-3.421C52.075,38.375,52.59,37.935,53.108,37.493z"/>
<path fill="#9A9A9A" d="M62.588,40.67c-0.192-0.735-0.475-1.465-0.537-2.212c-0.029-0.342,0.369-0.723,0.575-1.086l0.03,0.116c0.629,0.589,1.256,1.181,1.885,1.771c-0.699,0.506-1.396,1.01-2.095,1.517L62.588,40.67z"/>
<path fill="#616161" d="M53.208,40.957c1.028-0.199,2.056-0.4,3.082-0.604c0.132,1.178,0.265,2.362,0.401,3.543c0.005,0.003-0.581-0.128-0.581-0.128c-0.925,1.105-2.018,1.306-3.276,0.607C52.122,43.142,52.247,42.003,53.208,40.957z"/>
<path fill="#272727" d="M53.593,77.581c-0.145,1.238-0.29,2.475-0.435,3.714c-1.057-5.225-2.112-10.449-3.167-15.674c0.629-0.547,1.258-1.09,1.885-1.636c4.611,0.207,5.59,2.651,4.079,6.625C54.808,72.811,54.923,75.442,53.593,77.581z"/>
<path fill="#4F4F4F" d="M46.913,65.658c-1.045,1.077-2.092,2.154-3.139,3.235c-1.184,1.27-2.56,2.271-4.135,3.006c-1.81-0.016-3.323-0.693-4.542-2.036c-0.755-1.617-0.937-3.296-0.543-5.038c1.155-2.362,2.504-4.563,4.881-5.914c1.713-0.54,3.424-0.537,5.136,0.003c1.602,0.937,2.536,2.325,2.803,4.162C47.22,63.937,47.067,64.797,46.913,65.658z"/>
<path fill="#515151" d="M43.83,75.054c-0.014,2.081-0.027,4.159-0.041,6.238c0,0.003,0.07,0.039,0.07,0.039c-1.116-1.016-2.377-1.886-3.202-3.192l0.043,0.059c-0.656-0.767-0.928-1.572-0.813-2.411c0.116-0.86,0.269-1.288,0.459-1.288C41.66,73.727,42.822,73.912,43.83,75.054z"/>
<path fill="#515151" d="M49.992,65.621c-1.026,0.009-2.052,0.021-3.077,0.036c-0.001,0,0.029,0.027,0.029,0.027c-0.441-0.619-0.88-1.238-1.321-1.858c0.069-1.682,0.955-2.694,2.554-3.128c2.539,0.906,3.905,2.237,1.769,4.846L49.992,65.621z"/>
<path fill="#343434" d="M40.62,68.807c1.053,0.024,2.104,0.052,3.156,0.083c0.006,1.037,0.011,2.071,0.011,3.106c-1.166,0.839-2.387,0.977-3.675,0.29C39.37,70.993,39.54,69.832,40.62,68.807z"/>
<path fill="#6C6C6C" d="M40.626,71.981c1.054,0.003,2.108,0.006,3.162,0.013c0.021,1.021,0.035,2.041,0.041,3.061c-1.036-0.009-2.072-0.021-3.108-0.04c-0.483-0.22-0.966-0.439-1.448-0.662c-0.016-0.534-0.029-1.064-0.043-1.599C39.695,72.494,40.16,72.238,40.626,71.981z"/>
<path fill="#373737" d="M56.361,81.56c1.055,1.002,2.109,2.002,3.165,3.004c-1.058-0.229-2.116-0.458-3.176-0.693C56.352,83.099,56.357,82.329,56.361,81.56z"/>
<path fill="#A3A3A3" d="M52.815,22.256c-1.863,1.904-3.727,3.812-5.589,5.716c-1.636-0.232-2.811-1.071-3.448-2.615c0.009-1.639,0.664-2.958,1.96-3.958c1.465-0.833,2.877-0.753,4.236,0.241C50.921,21.844,51.868,22.048,52.815,22.256z"/>
<path fill="#545454" d="M49.974,21.639c-0.864,0.26-1.743,0.455-2.637,0.586c-1.208,1.334-2.606,1.575-4.193,0.72c-0.911-1.568-0.687-2.954,0.674-4.156c0,0,0.019-0.019,0.02-0.019c2.072-0.003,4.143-0.006,6.213-0.009C50.035,19.72,50.009,20.678,49.974,21.639z"/>
<path fill="#5D5D5D" d="M59.452,28.255c-0.94-0.94-1.882-1.877-2.82-2.813C57.574,26.382,58.514,27.319,59.452,28.255z"/>
<path fill="#494949" d="M62.447,40.774c0.069-1.096,0.14-2.191,0.21-3.287c0.763-0.021,1.526,0.003,2.281,0.08c2.213,1.117,4.43,2.231,6.646,3.348c1.198,0.61,1.74,1.587,1.624,2.927c-0.6,0.162-1.198,0.32-1.798,0.482c-0.695-0.128-1.382-0.29-2.062-0.488C67.048,42.812,64.747,41.793,62.447,40.774z"/>
<path fill="#2E2E2E" d="M72.003,56.408c-1.052,1.011-2.104,2.021-3.154,3.03c-1.285,1.145-2.754,1.48-4.408,1.001c-1.388-1.004-2.053-2.361-1.998-4.074c1.036-2.123,1.497-4.544,3.236-6.311c1.047,1.053,2.096,2.105,3.143,3.158c1.012,0.998,2.017,1.999,3.02,3.003L72.003,56.408z"/>
<path fill="#252525" d="M65.679,50.054c0,2.084-0.001,4.172-0.001,6.256c-1.003,1.188-2.182,1.468-3.569,0.705c-0.853-1.291-0.775-2.523,0.233-3.698c0.121-1.96,0.243-3.916,0.363-5.872c0.982-0.192,1.956-0.152,2.921,0.119C65.643,48.394,65.66,49.224,65.679,50.054z"/>
<path fill="#494949" d="M74.426,43.179c-0.827,1.208-1.656,2.417-2.482,3.625c-0.148-0.836-0.324-1.667-0.53-2.484c-0.003,0.003,1.046-1.132,1.046-1.132C73.116,43.184,73.771,43.181,74.426,43.179z"/>
<path fill="#535353" d="M75.588,50.189c0.913-0.062,1.825-0.123,2.737-0.187C77.419,50.146,76.507,50.206,75.588,50.189z"/>
<path fill="#252525" d="M71.841,56.215c-1.007-1.001-2.013-2.002-3.02-3.003C69.828,54.213,70.835,55.214,71.841,56.215z"/>
<path fill="#4F4F4F" d="M25.055,37.554c-1.042,0-2.083,0-3.128,0c0.001-1.044,0.004-2.084,0.003-3.125c1.041,0,2.083,0,3.129,0.006C25.056,35.476,25.053,36.516,25.055,37.554z"/>
<path fill="#3D3D3D" d="M31.057,53.314c0.076-1.093,0.152-2.186,0.227-3.275c2.082-1.031,4.163-2.063,6.244-3.097c1.115-1.462,2.589-2.249,4.42-2.368c2.603,0.735,4.57,2.24,5.69,4.749c0.494,2.686-0.491,4.867-2.333,6.744c-1.919,1.532-4.44,1.865-6.473,3.171c-2.219,2.14-3.929,4.932-7.207,5.75c-1.628-0.149-2.792-0.968-3.488-2.451c-1.024-1.086-2.046-2.173-3.069-3.256c0.017-1.08,0.032-2.157,0.049-3.235c0.546-1.181,1.485-1.688,2.764-1.611C29.122,54.577,30.172,54.177,31.057,53.314z"/>
<path fill="#565656" d="M28.245,55.999c-1.042,0.015-2.085,0.033-3.128,0.045c-0.961-3.131-1.926-6.259-2.887-9.39c0.947,0.085,1.894,0.167,2.839,0.244c0.954,0.912,1.907,1.825,2.858,2.734c0.084,1.169,0.169,2.341,0.256,3.516c0.943,0.613,1.267,1.239,0.971,1.88C28.857,55.675,28.555,55.999,28.245,55.999z"/>
<path fill="#7C7C7C" d="M74.426,43.179l-0.987-0.009c0,0-0.986,0.027-0.982,0.024c-0.304-0.757-0.594-1.517-0.869-2.283c1.231-0.034,2.465-0.073,3.699-0.11C75.04,41.607,74.754,42.4,74.426,43.179z"/>
<path fill="#3E3E3E" d="M28.139,62.535c1.05-0.006,2.1-0.009,3.151-0.015c0.603-0.019,1.205-0.04,1.808-0.059c1.265-0.033,2.298,0.439,3.098,1.419c0.044,0.599,0.087,1.2,0.131,1.798c-0.155,1.193-0.134,2.387,0.067,3.573c0.167,0.574,0.334,1.147,0.502,1.722c-0.462,1.172-1.306,1.913-2.527,2.222c-1.254,0.144-2.287-0.25-3.064-1.267c-1.076-1.05-2.15-2.1-3.226-3.149c-0.91-0.806-1.404-1.804-1.422-3.027c0.119-1.185,0.539-2.259,1.218-3.231L28.139,62.535z"/>
<path fill="#676767" d="M27.976,65.814c0.044,0.988,0.08,1.977,0.105,2.966c-0.983,0.003-1.961-0.024-2.936-0.089c-0.041-1.007-0.071-2.014-0.087-3.021l-0.026,0.015C26.072,64.394,27.05,64.504,27.976,65.814z"/>
<path fill="#515151" d="M31.305,71.929c1.063,0.006,2.127,0.012,3.19,0.016c0.884,0.75,1.151,1.468,0.803,2.145c-0.339,0.663-0.667,0.992-0.986,0.992c-0.996-0.012-1.994-0.021-2.989-0.024C31.317,74.013,31.311,72.973,31.305,71.929z"/>
<path fill="#565656" d="M27.976,65.814c-0.979-0.056-1.96-0.098-2.943-0.129c0.949-1.053,1.898-2.108,2.844-3.164C27.908,63.619,27.943,64.714,27.976,65.814z"/>
<path fill="#333333" d="M34.312,75.081c0.06-1.044,0.119-2.09,0.182-3.137c0.001,0-0.07-0.007-0.07-0.007c0.644-1.224,1.651-1.623,2.973-1.312c1.015,0.806,1.529,1.855,1.542,3.152c-0.459,0.412-0.918,0.827-1.376,1.242C36.479,75.042,35.395,75.063,34.312,75.081z"/>
<path fill="#3C3C3C" d="M40.721,75.014c-0.007,1.06-0.014,2.121-0.021,3.184c-1.052,0.009-2.104,0.019-3.157,0.027c0.006-1.065,0.012-2.134,0.019-3.201c0.001-0.003-0.028,0.027-0.028,0.027c0.525-0.735,1.05-1.474,1.575-2.21c0.521,0.742,1.039,1.48,1.56,2.222L40.721,75.014z"/>
<path fill="#626262" d="M43.818,18.789c-0.006,1.025-0.007,2.047-0.006,3.07c0.954,0.699,1.407,1.642,1.361,2.823c-0.339,1.086-0.918,2.023-1.743,2.811c-1.14,0.119-2.222-0.07-3.238-0.607c-1.086-0.327-2.083-0.83-2.991-1.508c-0.938-0.101-1.878-0.167-2.82-0.204c-0.076-1.09-0.151-2.179-0.23-3.269c1.063,0.009,2.132,0.021,3.197,0.034c1.178-0.928,2.359-1.855,3.542-2.78C41.865,19.027,42.842,18.905,43.818,18.789z"/>
<path fill="#3B3B3B" d="M40.658,78.139c1.067,1.063,2.133,2.128,3.202,3.192c-1.05-0.019-2.102-0.036-3.151-0.055C40.692,80.23,40.675,79.183,40.658,78.139z"/>
<path fill="#6C6C6C" d="M62.556,75.054c-2.105-1.05-4.213-2.1-6.318-3.152c-0.312-0.638-0.621-1.275-0.931-1.914c0.445-2.078,0.715-4.217,2.114-5.957c1.321-0.707,2.675-0.777,4.063-0.213c0.351,0.625,0.698,1.251,1.047,1.877c0.131,1.172,0.262,2.34,0.394,3.512l0.915,1.136l-0.888,1.159C62.82,72.686,62.689,73.87,62.556,75.054z"/>
<path fill="#303030" d="M75.238,72.054c-0.064,1.01-0.114,2.021-0.154,3.033c-2.062-0.052-4.123-0.104-6.183-0.155C71.014,73.974,73.126,73.012,75.238,72.054z"/>
<path fill="#212121" d="M65.765,65.663c-1.079,0.01-2.156,0.021-3.233,0.031c-0.001,0-0.2,0.119-0.2,0.119c-1.808-1.884-1.416-3.51,0.577-4.95c1.411-0.062,2.635,0.405,3.694,1.33C67.207,63.561,66.928,64.721,65.765,65.663z"/>
<path fill="#232323" d="M62.952,71.501c-0.083-0.766-0.092-1.531-0.027-2.298C62.922,69.973,62.931,70.736,62.952,71.501z"/>
<path fill="#4B4B4B" d="M65.765,65.663c-0.046-1.037-0.078-2.078-0.093-3.115c1.063-1.432,2.11-1.419,3.14,0.036c-0.006,1.007-0.014,2.015-0.022,3.019C67.781,65.636,66.774,65.658,65.765,65.663z"/>
<path fill="#252525" d="M68.812,62.584c-1.047-0.012-2.093-0.024-3.14-0.036l0.027,0.052c-0.452-0.528-0.903-1.053-1.359-1.581c0.451-0.524,0.907-1.05,1.364-1.574c1.046-0.004,2.092-0.007,3.142-0.01C68.836,60.485,68.825,61.535,68.812,62.584z"/>
<path fill="#707070" d="M53.593,77.581c-0.058-1.779-0.117-3.559-0.176-5.335c0.42-0.745,0.84-1.489,1.259-2.233c0.55,0.652,1.099,1.309,1.649,1.962l-0.088-0.073C55.356,73.796,54.475,75.689,53.593,77.581z"/>
<path fill="#5A5A5A" d="M40.7,40.493c-0.008-0.98-0.014-1.959-0.02-2.939c-1.041-0.693-1.389-1.389-1.042-2.084c0.345-0.696,0.691-1.043,1.041-1.043l-0.075-0.049c1.038-1.09,2.255-1.926,3.628-2.542c0.714,0.229,1.427,0.455,2.141,0.687c1.353,0.729,2.44,1.727,3.233,3.049c0.26,1.52,0.281,3.033,0.064,4.559c-1.003,3.165-2.517,5.707-6.442,5.34C40.904,44.561,38.865,43.511,40.7,40.493z"/>
<path fill="#383838" d="M40.7,40.493c1.065,1.199,2.128,2.396,3.193,3.595c0.237,0.668,0.473,1.333,0.709,2.002c-0.868,1.337-2.017,1.651-3.447,0.949c-1.208-0.034-2.418-0.064-3.627-0.098l-1.529-0.012c0,0-1.528,0.003-1.526,0.003c-0.038-1.019-0.098-2.035-0.177-3.052C36.43,42.751,38.565,41.622,40.7,40.493z"/>
<path fill="#515151" d="M40.678,34.426c0,1.041,0.001,2.084,0.001,3.128c-1.042,0-2.083,0-3.128,0c0.001-1.044,0.004-2.084,0.003-3.122C38.597,34.429,39.638,34.429,40.678,34.426z"/>
<path fill="#565656" d="M43.866,34.41c-1.086-0.009-2.173-0.021-3.259-0.03c-0.05-2.127-0.099-4.251-0.146-6.375c0.22-0.476,0.439-0.952,0.659-1.428c1.013-0.314,1.921-0.821,2.734-1.499l-0.024,0.03c0.937-1.461,1.811-1.501,2.615,0.113c0.229,0.925,0.487,1.843,0.778,2.752c-0.063,1.001-0.102,2.005-0.118,3.012c-0.073,0.58-0.145,1.163-0.218,1.743C45.744,33.047,44.737,33.608,43.866,34.41z"/>
<path fill="#818181" d="M37.202,25.377c1.123-0.085,2.246-0.171,3.371-0.253c0.975,0.659,1.303,1.321,0.986,1.99c-0.317,0.671-0.636,1.007-0.961,1.007c0,0-0.134-0.113-0.136-0.113c-1.138-0.152-2.275-0.302-3.415-0.452C37.129,26.83,37.181,26.104,37.202,25.377z"/>
<path fill="#5A5A5A" d="M28.245,55.999c-0.024-0.949-0.044-1.901-0.061-2.851c0.96,0.046,1.92,0.101,2.876,0.161C30.12,54.207,29.182,55.102,28.245,55.999z"/>
<path fill="#515151" d="M53.529,31.884c-0.139,1.871-0.279,3.741-0.419,5.612c-0.002-0.003-0.235-0.137-0.235-0.137c-0.629,1.172-1.593,1.797-2.94,1.792c-1.501-1.233-1.584-3.363-2.962-4.672l-0.027,0.019c-0.859-0.443-1.191-0.952-1-1.529c0.203-0.61,0.431-0.918,0.685-0.918c0,0,0.47-1.056,0.473-1.059C49.245,31.285,51.388,31.585,53.529,31.884z"/>
<path fill="#5B5B5B" d="M55.837,46.709c0.153,1.117,0.306,2.233,0.458,3.354c1.646,2.384,2.674,4.841,0.854,7.614c-1.563,1.209-3.276,1.478-5.135,0.815c-2.391-1.779-3.302-4.236-3.229-7.132c0.064-1.865,0.714-3.504,1.948-4.908C52.482,45.611,54.184,45.693,55.837,46.709z"/>
<path fill="#505050" d="M56.297,56.295c0-2.079,0-4.157-0.002-6.232c1.045,1.038,2.091,2.075,3.134,3.113c0.482,0.476,0.963,0.955,1.445,1.431c0.327,1.432-0.112,2.57-1.318,3.409c-0.678-0.03-1.354-0.063-2.032-0.098C57.115,57.378,56.705,56.838,56.297,56.295z"/>
<path fill="#696969" d="M55.837,46.709c-0.725,0.04-1.449,0.076-2.174,0.113c-1.23-0.29-1.738-1.056-1.526-2.301c0.523-0.189,1.046-0.378,1.569-0.565c0.802-0.061,1.606-0.122,2.406-0.189C56.057,44.75,55.967,45.733,55.837,46.709z"/>
<path fill="#565656" d="M59.483,56.402c-0.017-1.074-0.035-2.151-0.054-3.226c0.976,0.033,1.95,0.079,2.92,0.138c0.09,0.997,0.155,1.995,0.19,2.996c-0.499,0.357-0.998,0.711-1.497,1.068C60.522,57.052,60.003,56.725,59.483,56.402z"/>
<path fill="#3F3F3F" d="M50.24,37.533c0.88-0.058,1.761-0.116,2.638-0.171c0.108,1.196,0.22,2.393,0.331,3.595c0.146,1.001,0.309,2.002,0.493,2.997c0.005,0.003-0.941,0.052-0.941,0.052c-1.056,1.615-1.366,3.589-2.492,5.17c-1.17,0.65-2.379,0.735-3.628,0.253c-1.42-1.406-1.93-3.271-2.565-5.075c0,0-0.185-0.275-0.183-0.269c1.061-2.197,2.12-4.395,3.178-6.595C48.143,36.285,49.199,36.3,50.24,37.533z"/>
<path fill="#3B3B3B" d="M56.326,71.975c-0.973,0.058-1.942,0.146-2.908,0.269c-1.156-2.23-2.314-4.465-3.471-6.695c-1.06-1.02-2.118-2.036-3.177-3.055c-2.342-1.347-5.324-2.094-5.291-5.652c1.12-1.807,2.977-2.648,4.753-3.576c1.245-0.507,2.478-0.452,3.674,0.161c0.795,0.971,1.573,1.969,2.313,2.981c0.917,0.813,1.899,1.56,2.938,2.219c1.049,0.586,2.071,1.236,3.058,1.932c0.807,0.928,1.199,2.015,1.17,3.247c-0.014,0.599-0.027,1.193-0.041,1.792C58.337,67.724,57.331,69.848,56.326,71.975z"/>
<path fill="#6A6A6A" d="M43.644,56.244c1.043,2.084,2.086,4.168,3.126,6.253c-0.001-0.003,0.083-0.095,0.083-0.095c-0.88,1.403-1.868,1.482-2.96,0.234c-1.207,0.07-2.416,0.141-3.624,0.211c-1.147,0.885-2.409,1.107-3.789,0.662c-2.841-1.904,0.215-5.322-1.898-7.412c2.04-0.87,4.08-1.74,6.12-2.609C42.352,53.692,43.368,54.574,43.644,56.244z"/>
<path fill="#6D6D6D" d="M37.483,72.038c-1.019-0.058-2.039-0.091-3.058-0.101c0.07-1.046,0.14-2.097,0.21-3.146c0.978-2.152,1.945-2.146,2.899,0.018c1.03,0.01,2.06,0.006,3.087-0.003c0.001,1.056,0.005,2.112,0.006,3.171c-0.001,0.003,0.081-0.086,0.081-0.086C39.697,73.342,38.621,73.391,37.483,72.038z"/>
<path fill="#393939" d="M37.596,62.377c0.896,0.14,1.789,0.293,2.677,0.467c-0.971,1.017-1.937,2.032-2.904,3.049c-0.415-0.372-0.83-0.742-1.244-1.114C35.896,63.539,36.419,62.758,37.596,62.377z"/>
<path fill="#454545" d="M43.893,62.636c0.986-0.106,1.973-0.183,2.96-0.234c0.029,1.092,0.06,2.188,0.088,3.283C45.927,64.669,44.911,63.653,43.893,62.636z"/>
<path fill="#6F6F6F" d="M37.535,68.81c-0.969-0.006-1.938-0.012-2.903-0.018c-0.09-1.063-0.185-2.128-0.279-3.192c1.111-1.321,2.169-1.282,3.177,0.122c0,0-0.156,0.164-0.157,0.168C37.431,66.867,37.488,67.836,37.535,68.81z"/>
<path fill="#4A4A4A" d="M37.483,72.038c1.074-0.045,2.148-0.094,3.224-0.143c-0.012,1.056-0.024,2.111-0.038,3.167c-1.045-0.003-2.089-0.006-3.134-0.009C37.536,74.047,37.519,73.043,37.483,72.038z"/>
<path fill="#6B6B6B" d="M46.444,25.222c-0.871-0.04-1.744-0.08-2.615-0.113c-0.006-1.083-0.011-2.164-0.017-3.247c1.172,0.119,2.345,0.238,3.521,0.36C47.039,23.223,46.742,24.224,46.444,25.222z"/>
<path fill="#4C4C4C" d="M62.539,56.31c1.047,0,2.094,0,3.139,0c0.008,1.044,0.016,2.088,0.024,3.135c0.002,0-0.076-0.102-0.076-0.102c-3.412,1.358-4.313,0.178-3.139-3.104L62.539,56.31z"/>
<path fill="#5B5B5B" d="M43.644,56.244c-0.981-0.925-1.964-1.847-2.943-2.763c0.97-1.001,1.941-2.008,2.91-3.012c0.151-2.081,1.305-3.223,3.327-3.543c0.972,0.033,1.942,0.073,2.915,0.119c1.273,0.849,1.828,2.051,1.755,3.564c-0.179,1.978,0.781,4.357-1.931,5.438C47.666,56.112,45.656,56.176,43.644,56.244z"/>
<path fill="#3E3E3E" d="M37.529,65.722c-1.059-0.04-2.116-0.08-3.177-0.119c0-0.003,0.165,0.162,0.165,0.162c-0.959-1.002-1.941-1.984-2.945-2.942l-0.282-0.302c1.097-2.14,2.192-4.282,3.291-6.421c1.006,2.09,2.01,4.187,3.015,6.277C37.573,63.491,37.552,64.605,37.529,65.722z"/>
<path fill="#7A7A7A" d="M46.937,46.926c-1.108,1.178-2.217,2.358-3.327,3.54c-0.819-1.142-1.639-2.286-2.457-3.427c0.974-0.897,1.945-1.794,2.919-2.688C45.03,45.211,45.984,46.069,46.937,46.926z"/>
<path fill="#676767" d="M31.572,62.823c0.981,0.979,1.964,1.962,2.945,2.942C33.535,64.785,32.554,63.802,31.572,62.823z"/>
<path fill="#6B6B6B" d="M40.597,28.121c0.005-1.001-0.003-1.999-0.023-2.997c1.091-0.016,2.185-0.031,3.279-0.046C42.768,26.092,41.682,27.108,40.597,28.121z"/>
<path fill="#3B3B3B" d="M62.488,56.24c1.047,1.035,2.094,2.072,3.14,3.107c0.023,1.083,0.048,2.166,0.072,3.253c-1.122,1.071-2.243,2.143-3.366,3.214c-0.996-0.086-1.991-0.156-2.987-0.214c-0.002-0.003,0.117,0.144,0.117,0.144c-0.789-0.949-1.44-1.987-1.955-3.11c-0.537-1.138-0.703-2.328-0.497-3.567c0.722-1.001,1.535-1.92,2.441-2.756c0,0,0.029,0.089,0.03,0.089C60.486,56.344,61.487,56.288,62.488,56.24z"/>
<path fill="#404040" d="M46.63,32.049c0.103,0.818,0.206,1.633,0.314,2.448c-1.027-0.031-2.054-0.062-3.081-0.086C44.787,33.623,45.709,32.836,46.63,32.049z"/>
<path fill="#343434" d="M50.24,37.533c-1.058-0.015-2.117-0.027-3.171-0.042c-0.045-1.004-0.079-2.011-0.098-3.015C48.06,35.494,49.15,36.514,50.24,37.533z"/>
<path fill="#252525" d="M50.55,49.783c-0.224-0.916-0.456-1.828-0.697-2.741c0.969-1.01,1.941-2.026,2.91-3.037c0.25,0.956,0.549,1.893,0.897,2.817c-0.292,1.001-0.585,2.002-0.879,3.006c-0.39,0.793-0.777,1.59-1.166,2.386C51.26,51.403,50.905,50.591,50.55,49.783z"/>
<path fill="#393939" d="M50.55,49.783c0.745,0.019,1.491,0.036,2.234,0.046c0.369,2.146,0.741,4.29,1.112,6.436c-0.516,0.491-1.033,0.983-1.551,1.475c-0.595-0.394-1.189-0.788-1.785-1.182c0,0-0.879-0.506-0.882-0.506C49.967,53.96,50.259,51.869,50.55,49.783z"/>
<path fill="#505050" d="M53.897,56.264c0.801,0.003,1.601,0.016,2.4,0.034c0-0.003,0.011,0.009,0.011,0.009c0.719,0.537,1.066,1.163,1.043,1.88c-0.024,0.76-0.129,1.142-0.314,1.142c-0.962,0.876-1.977,0.985-3.05,0.198l-1.146-0.342c-0.693-0.635-0.924-1.267-0.691-1.898c0.231-0.629,0.462-0.945,0.695-0.945L53.897,56.264z"/>
<path fill="#5D5D5D" d="M56.245,59.481c0.02-1.059,0.041-2.114,0.063-3.174c1.048,0,2.095,0,3.143,0.003c-0.009,1.038-0.018,2.075-0.022,3.113c-0.521,0.5-1.044,1.001-1.565,1.504C57.324,60.446,56.784,59.963,56.245,59.481z"/>
<path fill="#212121" d="M52.845,56.341c0.062,0.948,0.062,1.897-0.003,2.844c-0.765-0.879-1.527-1.755-2.285-2.631C51.321,56.475,52.082,56.402,52.845,56.341z"/>
<path fill="#636363" d="M53.987,59.527c0.754-0.006,1.506-0.024,2.259-0.046l0.056-0.055c0.523,0.513,1.046,1.022,1.569,1.535c-0.534,0.497-1.068,0.995-1.604,1.495C55.506,61.48,54.746,60.503,53.987,59.527z"/>
<path fill="#595959" d="M59.429,62.557c0.011,1.063,0.021,2.124,0.034,3.187c-1.065-1.096-2.13-2.188-3.195-3.287c-0.002,0,0.029,0.101,0.029,0.101C57.34,61.126,58.384,61.126,59.429,62.557z"/>
<path fill="#353535" d="M59.429,62.557c-1.042-0.003-2.082-0.003-3.129-0.003c-0.002-1.041,0.001-2.081,0.003-3.125c1.042,0,2.084,0,3.125-0.003C59.428,60.466,59.428,61.51,59.429,62.557z"/>
</svg>