<?xml version="1.0" encoding="utf-8"?>
<!DOCTYPE svg PUBLIC "-//W3C//DTD SVG 1.1//EN" "http://www.w3.org/Graphics/SVG/1.1/DTD/svg11.dtd">
<svg version="1.1" xmlns="http://www.w3.org/2000/svg" xmlns:xlink="http://www.w3.org/1999/xlink" x="0px" y="0px" width="100px" height="100px" viewBox="0 0 100 100" enable-background="new 0 0 100 100" xml:space="preserve">
<path fill="#8FAA3C" d="M87.586,100c-10.417,0-20.832,0-31.25,0c-1.75-1.877-2.314-4.068-1.734-6.564c3.09-5.057,8.844-6.467,13.272-9.695c2.331-0.689,4.724-0.809,7.133-0.787c2.433,0.058,4.813,0.351,7.022,1.465c3.301,2.38,6.364,4.965,7.807,8.963C90.138,95.944,89.303,98.123,87.586,100z"/>
<path fill="#B2B747" d="M43.837,100c-10.417,0-20.833,0-31.25,0c-1.816-2.002-1.857-3.897,0.331-5.664l-0.18-0.106c1.709-2.012,3.676-3.665,6.239-4.489c4.328-0.854,8.71-0.596,13.079-0.672c4.416,0.141,8.969-0.217,12.376,3.494C45.894,95.175,45.799,97.662,43.837,100z"/>
<path fill="#B7C54E" d="M43.837,100c-0.031-2.094-0.061-4.188-0.093-6.283c-1.98-2.558-1.553-5.023,0.276-7.443c4.104-3.342,8.243-3.382,12.419-0.138c1.788,2.515,1.929,5.005-0.119,7.462c0.007,2.133,0.011,4.27,0.017,6.402C52.169,100,48.004,100,43.837,100z"/>
<path fill="#008917" d="M100.086,81.25c-2.046,0.061-4.092,0.125-6.138,0.187c-11.335-7.004-11.474-8.997-1.112-15.939c2.906-0.013,5.169,1.416,7.25,3.253C100.086,72.916,100.086,77.084,100.086,81.25z"/>
<path fill="#00DF1A" d="M0.087,50c2.029,0.165,4.059,0.326,6.087,0.491c2.09,1.972,1.646,3.998,0.134,6.049c-2.143,1.395-4.23,1.577-6.221-0.29C0.087,54.166,0.087,52.084,0.087,50z"/>
<path fill="#00A71C" d="M93.678,50.491c2.137-0.161,4.272-0.326,6.408-0.491c0,2.084,0,4.166,0,6.25c-1.949,1.864-4.023,1.709-6.169,0.372C92.318,54.639,91.934,52.606,93.678,50.491z"/>
<path fill="#00BF1B" d="M0.087,56.25c1.932-0.033,3.865-0.067,5.797-0.101c0.54,0.491,1.08,0.982,1.621,1.477c0.79,2.277,0.465,4.294-1.387,5.954c-2.242,0.928-4.275,0.705-6.03-1.08C0.087,60.416,0.087,58.334,0.087,56.25z"/>
<path fill="#008917" d="M93.936,56.323c2.049-0.024,4.1-0.049,6.15-0.073c0,2.084,0,4.166,0,6.25c-2.006,0.119-4.013,0.235-6.02,0.354c-1.78-1.339-2.064-3.106-1.472-5.123C93.04,57.26,93.487,56.79,93.936,56.323z"/>
<path fill="#00A71C" d="M0.087,62.5c2.033-0.037,4.066-0.073,6.099-0.106c1.703,1.315,1.986,3.03,1.413,4.992c-0.429,0.458-0.859,0.919-1.288,1.376c-2.075-0.003-4.149-0.009-6.224-0.012C0.087,66.666,0.087,64.584,0.087,62.5z"/>
<path fill="#00B72B" d="M12.918,94.336c-0.111,1.886-0.221,3.775-0.331,5.664c-2.083,0-4.167,0-6.25,0C8.531,98.111,10.723,96.222,12.918,94.336z"/>
<path fill="#00A71C" d="M62.572,49.945c0.938-1.819,1.876-3.641,4.836-9.381c0.786,10.288,1.236,16.159,1.685,22.034c-0.608,0.458-1.219,0.919-1.828,1.379c-2.4,0.653-4.495,0.089-6.315-1.577c-1.463-1.935-1.913-4.099-1.474-6.467C59.859,53.602,60.937,51.63,62.572,49.945z"/>
<path fill="#009E1A" d="M31.163,50.44c4.008,4.034,8.015,8.068,12.024,12.101c-1.702,1.883-3.667,3.326-6.238,3.769c-2.603,0.144-4.895-0.604-6.833-2.371c-1.649-2.026-2.24-4.343-1.868-6.915C28.474,54.501,29.454,52.311,31.163,50.44z"/>
<path fill="#00BF1B" d="M31.259,56.18c0.065,2.154,0.131,4.31,0.197,6.464c-0.519,0.671-1.038,1.343-1.555,2.017c-4.068,2.622-7.935,2.509-11.559-0.854c-1.403-2.405-1.471-4.736,0.394-6.959c2.052-0.216,4.104-0.433,6.157-0.649C27.009,54.392,29.131,54.392,31.259,56.18z"/>
<path fill="#00A71C" d="M75.037,62.268c2.153-1.843,4.307-3.683,6.458-5.526c1.828,1.788,3.215,3.824,3.546,6.439c-0.035,2.643-0.977,4.87-3.027,6.586c-2.479,1.126-4.824,0.934-7.018-0.724C73.403,66.778,73.196,64.518,75.037,62.268z"/>
<path fill="#00DF1A" d="M18.736,56.848c0.035,1.887,0.07,3.77,0.105,5.655c1.862,2.179,1.848,4.474,0.415,6.854c-2.301,1.508-4.67,1.59-7.107,0.354c-3.27-3.592-2.904-7.604-1.351-11.752c0.599-0.586,1.196-1.175,1.795-1.764C14.64,56.412,16.688,56.632,18.736,56.848z"/>
<path fill="#008917" d="M44.236,68.615c1.869-0.085,3.74-0.17,5.609-0.256c2.079-1.477,4.229-1.551,6.448-0.312c1.881,1.765,2.46,3.934,2.021,6.431c-0.58,1.565-1.546,2.822-2.896,3.796c-4.046,2.108-7.847,1.785-11.383-1.145c-1.68-1.989-2.25-4.224-1.456-6.75C43.131,69.794,43.684,69.205,44.236,68.615z"/>
<path fill="#3AA549" d="M56.402,68.683c-2.187-0.104-4.375-0.21-6.561-0.317c0.257-1.971,0.509-3.938,0.761-5.902c0.999-1.037,2.218-1.593,3.659-1.666c1.409,0.296,2.54,1.022,3.396,2.183c0.427,1.354,0.476,2.719,0.087,4.095C57.298,67.608,56.851,68.146,56.402,68.683z"/>
<path fill="#00DF1A" d="M75.037,62.268c0.049,2.216,0.1,4.432,0.148,6.65c-0.531,0.409-1.063,0.82-1.595,1.229c-2.127,0.534-3.947,0.024-5.447-1.59c-0.914-1.972-1.112-3.809,0.982-5.212c0,0-0.042-0.751-0.038-0.751C71.073,62.488,73.056,62.378,75.037,62.268z"/>
<path fill="#00DF1A" d="M62.572,49.945c-0.207,2.005-0.415,4.01-0.621,6.015c-1.019,1.221-2.314,1.715-3.888,1.474c-0.611-0.43-1.225-0.863-1.837-1.293C58.342,54.074,60.456,52.011,62.572,49.945z"/>
<path fill="#00A71C" d="M5.883,56.149c0.096-1.886,0.194-3.772,0.29-5.658c2.141,1.901,4.28,3.803,6.419,5.704l0.128,0.21c-2.021,1.682-4.022,1.722-6.004-0.063L5.883,56.149z"/>
<path fill="#00DF1A" d="M31.259,56.18c-2.123,0.006-4.244,0.013-6.366,0.019c2.09-1.92,4.18-3.839,6.27-5.759C31.194,52.353,31.227,54.267,31.259,56.18z"/>
<path fill="#00DF1A" d="M93.678,50.491c0.086,1.944,0.171,3.888,0.256,5.832c0.002,0-0.155-0.125-0.155-0.125c-1.354,1.721-3.079,1.98-5.048,1.284c-0.435-0.463-0.868-0.928-1.303-1.395C89.512,54.224,91.595,52.359,93.678,50.491z"/>
<path fill="#00DF1A" d="M56.405,62.57c-1.935-0.037-3.868-0.073-5.803-0.107c1.875-2.105,3.749-4.214,5.624-6.322l0.189,0.188C58.21,58.41,58.023,60.492,56.405,62.57z"/>
<path fill="#00A71C" d="M37.356,62.613c1.944-0.024,3.888-0.049,5.832-0.073c0.345,2.026,0.693,4.05,1.043,6.075c0.005,0-0.505,0.046-0.505,0.046c-1.991,1.972-4.086,1.716-6.235,0.29C35.944,66.87,35.682,64.762,37.356,62.613z"/>
<path fill="#00DF1A" d="M81.449,62.32c0.016-1.859,0.03-3.721,0.046-5.579c1.979-0.217,3.957-0.434,5.935-0.653c-0.002,0,0.22,0.251,0.22,0.251C89.832,62.735,88.096,65.072,81.449,62.32z"/>
<path fill="#00A71C" d="M18.687,93.579c-1.982,0.217-3.964,0.434-5.948,0.65c-0.046-2.292-0.09-4.587-0.135-6.879c-1.88-2.066-1.871-4.147-0.053-6.247c-0.091-1.983-0.185-3.967-0.276-5.954c1.452-2.026,3.471-2.661,5.861-2.396c1.448,0.488,2.663,1.327,3.677,2.463c1.208,1.986,1.501,4.196,1.576,6.461c0.038,2.246-0.052,4.479-0.597,6.674C21.896,90.463,20.358,92.074,18.687,93.579z"/>
<path fill="#00BF1B" d="M18.943,74.991c-2.223,0.052-4.445,0.106-6.668,0.158c-1.988-2.127-3.977-4.257-5.965-6.388l0.144,0.028c2.002-1.88,4.018-1.896,6.048-0.049c1.95-0.098,3.9-0.195,5.849-0.293C20.482,70.453,20.494,72.653,18.943,74.991z"/>
<path fill="#00DF1A" d="M12.551,81.104c0.019,2.084,0.035,4.166,0.053,6.247c-2.008-0.595-4.016-1.19-9.629-2.854C8.537,82.525,10.544,81.815,12.551,81.104z"/>
<path fill="#198618" d="M56.319,93.598c-0.456-2.075-0.912-4.147-1.368-6.22c-2.797-4.511-2.026-8.624,1.375-12.451l0.201,0.024c1.837-1.739,3.97-2.103,6.338-1.364c2.14,1.102,3.471,2.862,4.142,5.146c0.691,2.911,1.663,5.771,1.798,8.798C64.644,89.554,60.483,91.574,56.319,93.598z"/>
<path fill="#00AD19" d="M68.805,87.53c-2.096-2.355-4.19-4.712-6.285-7.067c1.896-1.419,3.871-2.68,6.271-3.07c2.479-0.073,4.602,0.744,6.332,2.539c1.349,2.176,1.706,4.306-0.288,6.332C72.825,86.686,70.816,87.109,68.805,87.53z"/>
<path fill="#008917" d="M87.776,87.609c-0.092,2.164-0.183,4.331-0.272,6.498c-2.128-2.106-4.258-4.215-6.388-6.323c0.447-0.488,0.896-0.977,1.343-1.468C84.503,85.626,86.316,85.892,87.776,87.609z"/>
<path fill="#007613" d="M74.835,86.264c-0.035-1.682-0.07-3.359-0.105-5.038c0.559-0.467,1.117-0.937,1.677-1.403c2.268-0.693,4.283-0.333,5.962,1.431c0.972,2.188,0.79,4.215-0.852,6.033l-0.401,0.495C79.022,87.277,76.928,86.771,74.835,86.264z"/>
<path fill="#147E16" d="M44.801,87.402c-0.353,2.105-0.704,4.208-1.056,6.314c-4.116,0-8.229,0-12.343-0.004c-1.982-2.31-5.021-2.93-7.396-4.62c-1.555-1.785-1.871-3.934-1.823-6.191c0.133-1.499,0.528-2.918,1.188-4.267c1.947-2.286,4.065-4.386,6.472-6.186c2.044-1.096,4.188-1.41,6.435-0.807c1.389,0.439,2.604,1.185,3.635,2.213c1.78,3.006,2.804,6.351,4.12,9.564C44.45,84.714,44.715,86.041,44.801,87.402z"/>
<path fill="#A2B13B" d="M25.314,87.091c2.029,2.21,4.059,4.416,6.088,6.622c-4.239-0.042-8.478-0.085-12.716-0.131c0.182-1.989,0.361-3.974,0.542-5.96C21.098,85.639,23.143,85.642,25.314,87.091z"/>
<path fill="#00B81A" d="M81.517,87.286c-0.203-1.953-0.406-3.903-0.609-5.853c-1.493-1.855-2.778-3.809-2.885-6.299c0.198-2.487,1.518-4.404,3.147-6.159c0.094-2.219,0.185-4.434,0.278-6.652c2.067-1.996,4.135-3.992,6.201-5.984c2.043-0.046,4.086-0.092,6.129-0.141c0.097,2.219,0.192,4.438,0.288,6.655c-0.025,1.957-0.052,3.91-0.076,5.866c-0.015,4.238-0.028,8.478-0.042,12.717c-2.058,2.057-4.116,4.113-6.173,6.173C85.69,87.5,83.603,87.394,81.517,87.286z"/>
<path fill="#00DF1A" d="M56.326,74.927c-0.455,4.153-0.911,8.304-1.371,12.454c-3.39,0.006-6.777,0.016-10.159,0.024c0.004-0.003-0.865,0.067-0.865,0.067c-3.177-3.223-3.691-6.891-1.827-10.956c0.587-0.54,1.173-1.083,1.761-1.623C48.019,74.905,52.172,74.914,56.326,74.927z"/>
<path fill="#008917" d="M12.503,68.741c-2.016,0.015-4.033,0.033-6.048,0.049c-0.089-2.134-0.176-4.264-0.266-6.396c0.169-2.021,0.343-4.038,0.522-6.055c2.008,0.024,4.008,0.046,6.01,0.066C12.648,60.52,12.576,64.63,12.503,68.741z"/>
<path fill="#3AA549" d="M69.126,63.346c-0.101,1.754-0.202,3.509-0.304,5.264c-0.442,0.494-0.883,0.989-1.324,1.483c-1.248,0.51-2.537,0.681-3.872,0.461c-1.253-0.55-2.169-1.453-2.794-2.661c-0.281-1.324-0.164-2.621,0.297-3.891c0.463-0.477,0.925-0.953,1.388-1.429C64.72,62.833,66.923,63.089,69.126,63.346z"/>
<path fill="#3AA549" d="M56.405,62.57c0.003-2.081,0.008-4.163,0.011-6.241c1.85-0.125,3.697-0.247,5.54-0.369c0.184,2.203,0.372,4.407,0.561,6.613l0.106-0.11c-2.105,1.881-4.211,1.884-6.318,0.007L56.405,62.57z"/>
<path fill="#3AA549" d="M37.356,62.613c0.061,2.047,0.122,4.095,0.183,6.143c-0.542,0.431-1.085,0.861-1.628,1.291c-2.231,0.537-4.073-0.07-5.519-1.861c-0.913-2.103-0.862-4.014,1.115-5.533c0,0-0.055-0.012-0.053-0.009C33.422,62.635,35.389,62.622,37.356,62.613z"/>
<path fill="#009919" d="M31.507,62.652c-0.08,2.045-0.159,4.093-0.238,6.138c-0.154,0.641-0.307,1.278-0.461,1.922c-1.058,1.679-2.158,3.333-3.217,5.015c-1.022,0.888-2.185,1.489-3.513,1.77c-2.15,0.031-3.813-0.964-5.232-2.475c0,0,0.093-0.03,0.095-0.03c-0.194-2.18-0.389-4.361-0.587-6.54c0.16-1.984,0.323-3.968,0.486-5.948C23.063,62.552,27.285,62.604,31.507,62.652z"/>
<path fill="#3AA549" d="M81.17,68.976c-0.06,1.993-0.119,3.985-0.179,5.976c-1.327,1.709-3.071,2.182-5.128,1.733c-1.199-0.607-2.048-1.541-2.598-2.759c-0.375-2.088,0.248-3.814,1.86-5.191c0,0,0.058,0.178,0.06,0.181C77.18,68.937,79.176,68.957,81.17,68.976z"/>
<path fill="#007613" d="M37.539,68.756c2.064-0.03,4.127-0.061,6.19-0.092c0.043,2.079,0.089,4.157,0.134,6.232c0.002-0.002,0.1,0.584,0.1,0.584c-2.122,1.403-4.201,1.406-6.229-0.192l-0.13-0.373c-1.867-2.078-1.86-4.159-0.022-6.25L37.539,68.756z"/>
<path fill="#3AA549" d="M62.492,75.095c-1.991-0.049-3.981-0.098-5.968-0.144c-0.04-2.091-0.083-4.178-0.124-6.269c0.002,0-0.109,0.113-0.109,0.113c2.117-1.89,4.234-1.89,6.348,0.006l-0.153-0.152c1.752,1.343,2.04,3.082,1.369,5.078C63.401,74.182,62.946,74.64,62.492,75.095z"/>
<path fill="#00A71C" d="M62.639,68.802c-2.115-0.003-4.23-0.006-6.347-0.006c0.003-2.108,0.01-4.218,0.014-6.326c2.104-0.003,4.21-0.003,6.315-0.007C62.628,64.575,62.634,66.69,62.639,68.802z"/>
<path fill="#00BF1B" d="M75.126,68.734c-0.029,2.088-0.06,4.175-0.089,6.263c-1.371,1.728-3.175,2.176-5.267,1.782c-1.242-0.574-2.145-1.492-2.759-2.704c-0.496-2.091,0.15-3.885,1.446-5.509c0,0,0.363,0.046,0.363,0.043C70.924,68.652,73.026,68.692,75.126,68.734z"/>
<path fill="#00DF1A" d="M18.847,75.022c2.026,0.131,4.051,0.266,6.078,0.396c1.788,1.901,2.042,3.882,0.311,5.967l0.052,0.076c-2.214,1.633-4.318,1.642-6.285-0.422C18.951,79.034,18.899,77.026,18.847,75.022z"/>
<path fill="#00B912" d="M19.003,81.039c2.095,0.141,4.19,0.281,6.285,0.422c0.007,1.877,0.014,3.753,0.022,5.63c-2.028,0.181-4.059,0.357-6.086,0.534C19.152,85.428,19.078,83.233,19.003,81.039z"/>
<path fill="#3AA549" d="M70.517,81.503c-2.664-0.342-5.328-0.687-7.994-1.034c-0.013-1.798-0.021-3.586-0.03-5.374l-0.007,0.006c2.018-1.932,4.009-1.953,5.973,0.083l0.364,0.052C70.567,77.005,71.414,79.02,70.517,81.503z"/>
<path fill="#00DF1A" d="M70.517,81.503c-0.564-2.09-1.129-4.181-1.694-6.271c2.072-0.077,4.144-0.156,6.215-0.235l0.252-0.184c1.649,2.121,1.67,4.23-0.041,6.327c0,0-0.516,0.082-0.518,0.085C73.325,81.317,71.92,81.412,70.517,81.503z"/>
<path fill="#008917" d="M75.248,81.141c0.014-2.106,0.026-4.215,0.041-6.324c1.903,0.043,3.806,0.089,5.705,0.135c-0.028,2.16-0.056,4.321-0.085,6.482C79.022,81.336,77.134,81.238,75.248,81.141z"/>
<path fill="#3AA549" d="M37.734,75.287c2.077,0.061,4.152,0.125,6.229,0.189c-0.011,4-0.021,7.998-0.032,11.996C41.865,83.41,39.8,79.349,37.734,75.287z"/>
<path fill="#00B912" d="M37.582,68.664c0.007,2.085,0.014,4.169,0.021,6.25c-2.098,0.01-4.198,0.019-6.299,0.028c-0.427-0.458-0.856-0.916-1.285-1.377c-0.641-1.962-0.304-3.646,1.408-4.938l-0.157,0.159C33.374,68.747,35.478,68.707,37.582,68.664z"/>
<path fill="#00BF1B" d="M25.236,81.385c-0.102-1.99-0.206-3.98-0.31-5.967c-0.001,0,0.23-0.824,0.23-0.824c2.084-1.471,4.084-1.446,5.986,0.339l0.163,0.013C29.283,77.091,27.259,79.236,25.236,81.385z"/>
<path fill="#00A71C" d="M68.458,75.184c-1.991-0.028-3.981-0.056-5.973-0.083c0-2.151,0-4.3,0-6.451c1.993-0.027,3.986-0.055,5.976-0.083C68.458,70.773,68.458,72.977,68.458,75.184z"/>
<path fill="#3AA549" d="M31.143,74.933c-1.996-0.112-3.992-0.223-5.987-0.335c2.092-1.993,4.182-3.98,6.272-5.97C31.334,70.728,31.237,72.83,31.143,74.933z"/>
</svg>