<?xml version="1.0" encoding="utf-8"?>
<!DOCTYPE svg PUBLIC "-//W3C//DTD SVG 1.1//EN" "http://www.w3.org/Graphics/SVG/1.1/DTD/svg11.dtd">
<svg version="1.1" xmlns="http://www.w3.org/2000/svg" xmlns:xlink="http://www.w3.org/1999/xlink" x="0px" y="0px" width="100px" height="100px" viewBox="0 0 100 100" enable-background="new 0 0 100 100" xml:space="preserve">
<path fill="#382D1C" d="M62.353,46.845c-0.04,1.178-0.081,2.355-0.12,3.534c-0.844,1.956-1.88,3.763-3.805,4.876c-4.594,0.87-7.439,7.706-13.4,3.916c-0.937-1.196-1.527-2.536-1.779-4.035c0.22-3.308,2.153-5.6,4.496-7.653c2.589-1.782,5.456-2.887,8.507-3.559C58.745,43.936,60.682,45.111,62.353,46.845z"/>
<path fill="#4C3E26" d="M47.344,59.256c4.093-2.041,8.186-4.083,12.279-6.128c0.822-1.199,1.652-1.264,2.491-0.015c-5.086,2.941-10.171,5.88-15.257,8.822C46.026,60.861,46.234,59.977,47.344,59.256z"/>
<path fill="#493C24" d="M51.304,50.138c-1.517,2.188-3.033,4.376-4.55,6.561c-1.163,0.916-2.478,1.203-3.923,0.949c-1.817-1.145-3.236-2.722-4.675-4.278c0.02-1.188,0.04-2.374,0.06-3.559c1.449-1.517,3.131-2.686,5.113-3.405c2.042-0.778,4.056-0.763,6.042,0.192C50.465,47.534,51.131,48.7,51.304,50.138z"/>
<path fill="#735C39" d="M44.015,56.241c0.923,0.098,1.837,0.247,2.74,0.457c0.182,0.858,0.377,1.709,0.586,2.558c-0.209,0.885-0.371,1.779-0.483,2.68c-2.875-1.901-5.75-3.803-8.623-5.704C40.164,54.327,42.091,54.459,44.015,56.241z"/>
<path fill="#9E834D" d="M47.05,40.57c4.178,0.021,8.357,0.042,12.536,0.061c-0.67,1.429-1.706,2.481-3.167,3.104c-1.444,0.54-2.937,0.86-4.479,0.958c-1.545-0.256-2.903-0.894-4.045-1.978C47.613,42.002,47.331,41.284,47.05,40.57z"/>
<path fill="#675432" d="M43.878,50.055c-1.887-0.082-3.776-0.161-5.664-0.244c-0.027-1.099-0.056-2.194-0.085-3.29c0.975-0.995,1.927-2.011,2.856-3.049l-0.421,0.263c1.073-0.839,2.277-1.343,3.639-1.462c1.372,0.128,2.565,0.659,3.583,1.587C48.858,47.424,45.765,48.358,43.878,50.055z"/>
<path fill="#9E834D" d="M55.493,41.385c1.364-0.25,2.729-0.5,4.093-0.754c0.952,0.931,1.904,1.859,2.856,2.79c-0.986,2.072-2.927,1.813-4.717,1.935c-1.305-0.211-2.195-0.931-2.677-2.161C55.197,42.59,55.344,41.989,55.493,41.385z"/>
<path fill="#3C311E" d="M56.895,44.065c1.85-0.217,3.697-0.431,5.547-0.644c-0.026,1.141-0.054,2.283-0.084,3.424c-1.947,0.079-3.889,0.162-5.829,0.241c-0.287-0.543-0.572-1.089-0.857-1.636C56.079,44.986,56.486,44.525,56.895,44.065z"/>
<path fill="#765F3C" d="M44.015,56.241c-1.927-0.003-3.854-0.007-5.78-0.01c-0.32-0.946-0.346-1.901-0.079-2.862C40.109,54.327,42.062,55.282,44.015,56.241z"/>
<path fill="#BB9762" d="M43.788,43.362c-1.074,0.125-2.148,0.247-3.224,0.373c1.105-0.867,2.209-1.733,3.314-2.6c1.242,0.546,1.641,1.056,1.203,1.538C44.665,43.13,44.238,43.362,43.788,43.362z"/>
<path fill="#9E834D" d="M43.788,43.362c0.055-0.741,0.084-1.483,0.09-2.228c1.058-0.189,2.115-0.375,3.172-0.564l0.112,0.113c0.433,0.482,0.866,0.967,1.3,1.453c-0.402,0.51-0.806,1.019-1.208,1.529C46.098,43.564,44.943,43.463,43.788,43.362z"/>
<path fill="#BB9762" d="M40.985,43.472c-0.952,1.016-1.904,2.033-2.856,3.049C39.081,45.505,40.033,44.488,40.985,43.472z"/>
<path fill="#4E3F27" d="M62.115,53.113c-0.83,0.003-1.661,0.009-2.491,0.015c0.869-0.915,1.739-1.834,2.609-2.749C62.388,51.3,62.35,52.209,62.115,53.113z"/>
<path fill="#3C311E" d="M56.529,47.085c-1.746,1.019-3.491,2.039-5.23,3.055c0.006-0.003-1.063-0.138-1.063-0.138c-0.621-5.847,2.36-5.212,6.027-3.351L56.529,47.085z"/>
<path fill="#A38552" d="M56.263,46.652c-2.01,1.117-4.018,2.233-6.027,3.351c-2.119,0.019-4.237,0.034-6.356,0.052c1.121-2.13,2.246-4.257,3.371-6.39c0.003,0-0.205,0.18-0.205,0.18c1.3-1.761,3.217-1.621,5.078-1.645c1.28-0.034,2.458,0.299,3.529,1.004l1.242,0.861C56.66,44.922,56.45,45.786,56.263,46.652z"/>
<path fill="#735E39" d="M52.813,43.668c-1.922,0.058-3.845,0.116-5.768,0.177c0.038-1.056,0.078-2.109,0.116-3.162c2.694,0.085,5.39,0.174,8.085,0.262C54.709,42.096,53.897,43.005,52.813,43.668z"/>
<path fill="#B38F5A" d="M52.813,43.668c0.808-0.909,1.613-1.819,2.427-2.725c0.007,0.003,0.262,0.439,0.258,0.442c0.142,0.602,0.198,1.208,0.16,1.822C54.707,43.359,53.759,43.515,52.813,43.668z"/>
</svg>