<?xml version="1.0" encoding="utf-8"?>
<!DOCTYPE svg PUBLIC "-//W3C//DTD SVG 1.1//EN" "http://www.w3.org/Graphics/SVG/1.1/DTD/svg11.dtd">
<svg version="1.1" xmlns="http://www.w3.org/2000/svg" xmlns:xlink="http://www.w3.org/1999/xlink" x="0px" y="0px" width="100px" height="100px" viewBox="0 0 100 100" enable-background="new 0 0 100 100" xml:space="preserve">
<path fill="#1E1E1E" d="M83.962,21.726c5.094,17.496-12.97,22.778-18.337,34.76c1.214,1.093,1.93,2.447,2.146,4.068c-0.768,2.539-2.96,3.555-5.02,4.724c-2.1,1.209-4.22,2.374-6.334,3.556c-5.095,1.779-9.68,7.021-15.718,2.301c-1.425-2.075-1.563-4.456-1.567-6.854c-0.522-4.998,2.852-8.499,4.783-12.555c0.661-2.111,1.206-4.267,2.213-6.244c1.755-2.154,4.061-3.799,5.772-6.015c2.64-3.076,5.49-5.976,7.797-9.345c0.815-1.153,1.628-2.292,2.446-3.436c4.234-4.507,9.795-6.027,15.605-7.001C80.075,19.593,82.091,20.438,83.962,21.726z"/>
<path fill="#2F2F2F" d="M28.699,56.724c-3.499-2.875-6.996-5.75-13.464-11.063c1.758-5.957,3.938-13.348,6.12-20.74c0.577,0.067,1.154,0.134,1.735,0.205c1.605,0.745,3.205,1.496,4.778,2.313c2.162,1.154,4.382,2.188,6.485,3.473c1.006,0.83,2.034,1.608,3.114,2.347c1.126,0.763,2.237,1.514,3.365,2.274c1.213,0.75,2.28,1.645,3.198,2.734c0.725,1.291,1.19,2.648,1.301,4.117c-0.041,3.781,0.298,7.55-0.297,11.306c-0.484,1.551-1.208,2.927-2.28,4.136c-2.31,2.136-3.755,5.414-7.501,5.618C31.312,62.912,30.759,59.082,28.699,56.724z"/>
<path fill="#1C1C1C" d="M80.794,63.022c7.48,18.509-9.617,18.188-18.507,24.154c-5.384-0.485-8.184-3.974-10.004-8.591c-0.325-1.495-0.326-3-0.008-4.495c1.302-2.878,4.106-4.031,6.504-5.64c2.398-1.291,4.905-2.38,7.403-3.464c2.495-0.806,5.097,0.376,7.597-0.363c1.174-0.388,2.383-0.644,3.618-0.738C78.656,64.108,79.79,63.818,80.794,63.022z"/>
<path fill="#262626" d="M49.842,93.47c-3.146-1.868-6.291-3.735-9.438-5.606c0.521-0.531,0.996-1.102,1.427-1.709c-0.001,0-0.626,0.922-0.624,0.922l-0.746,0.824c-3.195-1.267-6.389-2.533-9.584-3.8c-0.964-0.925-1.941-1.837-2.926-2.737l0.29,0.18c-0.766-0.958-1.681-1.184-2.771-0.567c-3.113-2.979-6.224-5.954-9.337-8.93c2.28-3.387,5.678-5.35,9.18-7.189c2-0.571,4.015-0.556,6.049-0.22c2.019,0.665,3.89,1.639,5.772,2.609c1.356,0.589,2.481,1.459,3.387,2.627c1.519,1.819,3.687,2.411,5.794,3.135c3.042,0.76,6.015,1.602,6.918,5.206c1.211,3.021,1.714,6.079,0.526,9.231C52.573,89.536,51.516,91.703,49.842,93.47z"/>
<path fill="#413D3D" d="M31.443,34.592c-2.148-1.05-4.298-2.1-6.447-3.146c0,0-0.194-1.285-0.195-1.285c-0.78-0.461-1.331-1.114-1.654-1.959c-0.006-0.879-0.162-1.73-0.465-2.551l-1.326-0.729c2.216-0.995,4.431-1.99,6.647-2.984c0.095,0.104-0.02-0.009-0.008,0.006c3.269-1.871,6.537-3.744,9.807-5.618c2.6,1.538,5.636-0.567,8.232,0.979c1.035,0.986,1.747,2.167,2.083,3.562c0.328,2.851-0.725,5.454-1.473,8.105c-0.375,1.3-0.752,2.603-1.126,3.903c-0.293,1.318-0.854,2.521-1.641,3.619c-1.1,0.769-2.321,1.257-3.639,1.499c-0.625,0.208-1.256,0.415-1.884,0.62c-1.305,0.442-2.547,0.33-3.712-0.434l-0.343-0.659C33.3,36.588,32.346,35.614,31.443,34.592z"/>
<path fill="#3F3B3B" d="M78.307,22.144c-4.314,2.893-8.632,5.783-12.946,8.676c-0.832,1.324-1.827,2.511-2.98,3.561c-1.379,0.772-2.835,0.983-4.357,0.549c-1.274-0.812-2.201-1.941-2.813-3.317c-0.383-2.142-0.011-4.208,0.809-6.198c0.438-1.251,0.769-2.551,0.963-3.867c0.157-1.272,0.319-2.563,0.475-3.842c0.233-1.858,0.402-3.741,0.819-5.579c0.66-1.053,1.547-1.871,2.656-2.444c0.596-0.141,1.192-0.284,1.789-0.424c3.076,1.322,6.152,2.646,9.229,3.97c0.858,0.717,1.398,1.633,1.663,2.716c0.517,0.97,1.187,1.819,2.013,2.548c1.012,0.452,1.845,1.126,2.496,2.023C78.184,21.06,78.246,21.601,78.307,22.144z"/>
<path fill="#1E1E1E" d="M49.842,93.47c0.075-1.966,0.149-3.934,0.225-5.899c2.371-2.609,1.154-6.774,3.986-9.183c0.68-0.085,1.357-0.174,2.036-0.263c2.065,3.019,4.132,6.04,6.198,9.055C58.138,89.276,53.989,91.373,49.842,93.47z"/>
<path fill="#3C3838" d="M46.488,12.403c2.101-0.992,4.203-1.987,6.305-2.979c1.338-1.251,2.805-1.428,4.4-0.528c1.303,1.095,2.032,2.49,2.186,4.184c0.619,2.481,0.035,4.804-0.933,7.074c-1.362,2.307-3.493,3.149-6.054,3.158c-1.653-0.067-3.1-0.656-4.333-1.764c-0.812-1.382-1.424-2.851-1.834-4.4C46.062,15.555,46.149,13.971,46.488,12.403z"/>
<path fill="#292929" d="M25.098,68.79c-2.989,1.087-5.979,2.17-8.968,3.256c0.963-2.976,1.924-5.95,2.887-8.926c1.045,0.681,2.158,1.221,3.346,1.599c1.25,0.324,2.188,1.041,2.762,2.21C25.116,67.548,25.107,68.171,25.098,68.79z"/>
<path fill="#494949" d="M28.699,56.724c2.01,0.928,4.021,1.853,6.03,2.78c2.26,1.354,3.806,3.115,3.383,5.984c-0.723,1.617-1.961,2.569-3.706,2.85c-1.639-0.226-3.172-0.763-4.595-1.611c-1.581-0.592-2.772-1.635-3.574-3.125c-0.065-1.712,0.528-3.155,1.782-4.324C28.202,58.414,28.428,57.562,28.699,56.724z"/>
<path fill="#3C3838" d="M71.91,18.97c-0.009-1.071-0.018-2.146-0.027-3.22c1.119-1.267,2.251-1.214,3.396-0.034c2.895,2.002,5.789,4.007,8.684,6.009c-1.886,0.138-3.771,0.278-5.655,0.418l-0.885-0.434C75.81,20.347,73.429,20.523,71.91,18.97z"/>
<path fill="#454545" d="M28.02,59.277c0.057,0.977,0.104,1.957,0.144,2.937c0.049,1.297-0.224,2.515-0.877,3.644c-1.059,0.735-2.219,1.229-3.493,1.446c-1.985,0.116-3.783-0.269-5.098-1.923c0.104-0.754,0.211-1.507,0.322-2.261C22.019,61.838,25.019,60.56,28.02,59.277z"/>
<path fill="#3D3D3D" d="M65.578,59.348c0.026-0.955,0.043-1.907,0.047-2.862c2.267,1.843,4.534,3.687,6.8,5.53c-0.329,1.568-1.21,2.709-2.643,3.43c-2.374,0.458-4.563,0.375-5.94-2.051C63.822,61.786,64.4,60.437,65.578,59.348z"/>
<path fill="#3E3A3A" d="M56.252,9.537C55.1,9.5,53.946,9.464,52.793,9.424c3.31-0.055,6.617-0.11,9.928-0.165l-0.67,0.763c-0.729,1.05-1.727,1.675-2.989,1.874C57.996,11.265,57.061,10.477,56.252,9.537z"/>
<path fill="#433F3F" d="M46.488,12.403c1.172,1.129,2.344,2.258,3.517,3.387c-1.595,1.663-3.19,3.317-5.833,2.197c-1.502-0.403-2.79-1.156-3.835-2.313C42.388,14.585,44.437,13.492,46.488,12.403z"/>
<path fill="#3B3B3B" d="M78.257,65.22c-1.056,0.198-2.113,0.394-3.169,0.592c-1.201,1.193-2.565,1.358-4.068,0.644c-0.716-1.55-0.401-2.847,0.946-3.896c0,0,0.45-0.534,0.454-0.54c0.005-0.003,1.32,0.378,1.32,0.378c1.585-1.028,3.139-0.982,4.661,0.138l-0.093-0.211c0.822,0.659,1.09,1.307,0.801,1.947C78.823,64.902,78.539,65.22,78.257,65.22z"/>
<path fill="#474343" d="M40.337,15.674c1.134,0.037,2.268,0.076,3.4,0.116c0.505,0.516,1.012,1.032,1.517,1.547c-0.498,0.525-0.993,1.047-1.491,1.572c-1.987-0.861-3.975-1.725-5.961-2.585C38.625,16.022,39.47,15.806,40.337,15.674z"/>
<path fill="#434343" d="M78.401,62.534c-1.552-0.046-3.104-0.092-4.658-0.138C75.293,62.442,76.849,62.488,78.401,62.534z"/>
<path fill="#464242" d="M75.278,15.717c-1.132,0.012-2.265,0.024-3.396,0.037c0.024-0.845,0.046-1.685,0.067-2.527C73.058,14.06,74.169,14.887,75.278,15.717z"/>
<path fill="#2A2A2A" d="M25.469,80.976c0.923,0.184,1.847,0.376,2.77,0.571C27.306,81.406,26.381,81.217,25.469,80.976z"/>
<path fill="#414141" d="M78.257,65.22c0.02-0.965,0.036-1.929,0.05-2.896c0.837,0.211,1.665,0.445,2.487,0.699C79.949,63.755,79.104,64.487,78.257,65.22z"/>
<path fill="#292929" d="M27.95,81.363c0.977,0.912,1.955,1.828,2.928,2.74C29.901,83.188,28.925,82.275,27.95,81.363z"/>
<path fill="#1E1E1E" d="M40.725,53.327c0.015-4.133,0.031-8.262,0.044-12.394c0.269-1.389,0.896-2.597,1.835-3.653c0.887-1.089,1.794-2.155,2.737-3.195c1.3-0.607,2.661-0.937,4.094-0.998c2.187-0.027,4.313,0.156,6.1,1.621c1.016,1.135,1.416,2.466,1.286,3.967c-0.19,0.705-0.38,1.41-0.571,2.112c0.007,3.101,0.013,6.201,0.021,9.302c-0.906,1.004-1.935,1.864-3.087,2.575c-3.084,0.544-4.354,3.916-7.294,4.691C42.428,58.24,42.225,54.95,40.725,53.327z"/>
<path fill="#1B1B1B" d="M40.725,53.327c4.134-1.054,8.268-2.103,12.4-3.153c2.077,2.066,1.765,4.139,0.019,6.217c-3.137,2.118-6.274,4.239-9.411,6.36c-6.47,0.704-5.283-2.628-3.351-6.354C40.491,55.371,40.606,54.35,40.725,53.327z"/>
<path fill="#424242" d="M43.784,69.116c4.213-2.261,8.426-4.52,12.641-6.777c0.544-0.349,1.089-0.696,1.634-1.044c1.303,0.155,2.481,0.623,3.534,1.404c0.712,1.074,1.26,2.23,1.665,3.454c-0.102,0.629-0.203,1.264-0.303,1.892c-0.778,1.011-1.652,1.933-2.632,2.75c-1.548,1.114-3.519,1.367-5.069,2.484c-0.912,0.846-1.962,1.462-3.117,1.986c-2.436-0.329-5.051,0.238-7.408-0.964c-1.169-0.537-2.127-1.318-2.873-2.359C41.889,70.584,42.531,69.642,43.784,69.116z"/>
<path fill="#282828" d="M43.784,69.116c0.011,1.017,0.027,2.033,0.049,3.046c-2.211,1.883-4.366,1.642-6.478-0.168l0.236,0.184c-0.562-0.659-1.161-1.285-1.796-1.874l-0.932-0.903l-0.644-1.126c-0.113-0.857-0.137-1.722-0.072-2.588c0.192-2.06,0.385-4.12,0.579-6.183c1.889-1.038,3.775-2.072,5.658-3.107c1.114,2.115,2.231,4.233,3.348,6.352C43.751,64.871,43.767,66.992,43.784,69.116z"/>
<path fill="#1E1E1E" d="M59.515,31.717c1.025-0.073,2.052-0.113,3.079-0.116c1.137,0.833,2.136,1.81,3.018,2.908c-3.12,2.09-6.24,4.184-9.361,6.277L56.25,40.78c-1.27-2.555-1.358-5.179-0.452-7.858C56.864,31.989,58.103,31.586,59.515,31.717z"/>
<path fill="#444444" d="M65.578,59.348c0.054,1.178,0.106,2.359,0.16,3.54c0.48,0.531,0.961,1.063,1.442,1.593c0.082,1.518-0.496,2.714-1.735,3.593c-1.484,0.271-2.746-0.144-3.782-1.242c-0.589-1.294-1.266-2.546-2.023-3.751l-0.35-0.507c-0.946-1.318-0.734-2.319,0.814-2.95C61.93,59.531,63.753,59.439,65.578,59.348z"/>
<path fill="#181818" d="M53.144,56.391c-0.006-2.072-0.012-4.145-0.019-6.217c1.049-0.03,2.097-0.058,3.144-0.085C55.229,52.188,54.186,54.288,53.144,56.391z"/>
<path fill="#201F1F" d="M60.105,59.623c-0.279,0.982-0.551,1.965-0.814,2.953c-0.96-0.03-1.917-0.109-2.867-0.237C57.651,61.433,58.878,60.529,60.105,59.623z"/>
<path fill="#201F1F" d="M65.611,34.51c-1.007-0.974-2.014-1.944-3.02-2.912c0.922-0.265,1.845-0.522,2.77-0.772C65.444,32.05,65.527,33.28,65.611,34.51z"/>
<path fill="#494545" d="M22.681,25.65c0.771,0.885,1.542,1.773,2.313,2.661c0.781,0.412,1.561,0.824,2.341,1.236c-0.76,0.449-1.521,0.894-2.283,1.343l-0.056,0.556C24.224,29.514,23.452,27.582,22.681,25.65z"/>
<path fill="#3F3B3B" d="M43.871,40.464c-1.036,0.155-2.072,0.311-3.105,0.467c-1.016-0.07-2.037-0.119-3.059-0.141c-0.841-0.497-1.189-1.077-1.044-1.736c0.154-0.699,0.35-1.05,0.587-1.05l0.537-0.528c1.34-1.291,3.243-1.474,4.758-2.42c1.253,0.25,2.11,0.971,2.579,2.158C45.124,38.458,44.707,39.542,43.871,40.464z"/>
<path fill="#4A4646" d="M31.443,34.592c0.952,0.977,1.906,1.953,2.856,2.93C33.346,36.542,32.395,35.568,31.443,34.592z"/>
<path fill="#2D2D2D" d="M37.25,38.004c0.157,0.928,0.309,1.855,0.454,2.786c-1.021-0.873-2.043-1.746-3.064-2.615C35.509,38.083,36.379,38.025,37.25,38.004z"/>
<path fill="#3F3F3F" d="M71.548,65.622c1.179,0.064,2.358,0.125,3.538,0.189c-2.064,1.047-4.129,2.094-6.195,3.138c-1.204,1.175-2.571,1.349-4.077,0.665c-0.761-1.521-0.488-2.826,0.816-3.916l-0.119,0.159C67.442,63.706,69.468,63.969,71.548,65.622z"/>
<path fill="#404040" d="M62.559,72.224c-2.061,1.067-4.118,2.133-6.177,3.201c-1.345-0.599-1.834-1.611-1.467-3.037c1.047-1.818,3.188-2.233,4.601-3.582l-0.215,0.14c1.093-1.34,2.362-1.538,3.812-0.595C64.066,69.803,63.825,71.088,62.559,72.224z"/>
<path fill="#464646" d="M56.208,72.519c0.041,0.967,0.098,1.932,0.171,2.902c-0.097,0.906-0.192,1.807-0.289,2.707c-0.001-0.004,0.126-0.138,0.126-0.138c-0.89,1.306-2.089,1.721-3.596,1.248c-0.82-1.19-1.46-2.472-1.916-3.845c0.57-1.34,1.425-2.473,2.523-3.425l-0.28,0.141C54.266,70.401,55.352,70.535,56.208,72.519z"/>
<path fill="#434343" d="M62.559,72.224c0-0.876-0.002-1.749-0.003-2.625c0.395-0.747,0.789-1.495,1.184-2.243c0.659,0.528,1.318,1.06,1.978,1.59c1.058,0.004,2.115,0.004,3.174,0.004C66.78,70.041,64.669,71.134,62.559,72.224z"/>
<path fill="#1B1B1B" d="M53.159,77.82c1.013,0.141,2.032,0.198,3.057,0.171c-2.05,3.192-4.101,6.388-6.149,9.579c0.03-2.938,0.06-5.877,0.088-8.816C50.765,77.185,51.766,76.874,53.159,77.82z"/>
<path fill="#282828" d="M40.624,84.537c0.612,0.491,1.224,0.982,1.84,1.489c-0.684,0.619-1.371,1.229-2.059,1.837c-0.001,0,0.057,0.034,0.055,0.037C40.515,86.777,40.569,85.657,40.624,84.537L40.624,84.537z"/>
<path fill="#434343" d="M53.159,77.82c-1.003,0.309-2.004,0.619-3.005,0.931c-2.107-1.227-4.214-2.457-6.321-3.687c0.511-0.448,1.024-0.895,1.537-1.343c2.614,0.116,5.429-0.985,7.686,1.275C53.091,75.937,53.125,76.88,53.159,77.82z"/>
<path fill="#484848" d="M31.289,68.875c-2.064-0.027-4.13-0.055-6.193-0.082c0.003-0.003,0.129,0.062,0.129,0.062c-0.793-0.498-1.585-0.998-2.377-1.496c0.755-0.552,1.512-1.104,2.269-1.657l-0.241,0.172c2.167-1.957,4.338-1.947,6.514-0.016l-0.218-0.162c1.151,0.425,1.646,1.245,1.488,2.46L31.289,68.875z"/>
<path fill="#4D4D4D" d="M37.595,68.872c-0.001,1.103-0.001,2.204-0.003,3.306c-2.101-1.102-4.201-2.203-6.303-3.303l-0.101,0.153C33.273,66.824,35.415,67.057,37.595,68.872z"/>
<path fill="#464646" d="M37.356,71.994c2.158,0.055,4.317,0.11,6.476,0.168c0.001,0-0.154-0.177-0.154-0.177c0.752,0.543,1.504,1.086,2.257,1.63c-0.757,0.537-1.514,1.07-2.271,1.607l0.168-0.158C41.674,74.039,39.515,73.017,37.356,71.994z"/>
<path fill="#2A2A2A" d="M40.626,84.537L40.626,84.537L40.626,84.537z"/>
<path fill="#423F3F" d="M40.604,28.382c1.061-2.118,2.12-4.236,3.179-6.354c1.39-1.48,2.911-1.629,4.562-0.445c1.213,1.437,1.548,3.055,1.001,4.855c-1.514,2.393-3.506,3.849-6.511,3.324C42.092,29.303,41.349,28.843,40.604,28.382z"/>
<path fill="#3A3636" d="M40.682,34.396c-0.034-1.031-0.064-2.066-0.093-3.097c0.702-0.473,1.404-0.943,2.105-1.413c3.748-1.27,6.729-1.102,7.194,3.818c-0.726,1.553-1.704,2.93-2.934,4.129l0.091-0.128c-1.137,1.19-2.238,1.221-3.3-0.098l0.09,0.064C42.844,36.524,40.585,36.597,40.682,34.396z"/>
<path fill="#4A4646" d="M25.052,30.89c-0.018-0.86-0.038-1.721-0.058-2.579c0.772,0.439,1.543,0.882,2.408,1.376C26.562,30.118,25.808,30.503,25.052,30.89z"/>
<path fill="#494545" d="M46.896,22.064c-1.038-0.012-2.077-0.024-3.114-0.037c-0.006-1.041-0.013-2.078-0.019-3.119l-0.014,0.012c2.078-1.984,4.15-1.987,6.217,0.018l0.049-0.03c0.788,0.729,1.124,1.52,1.008,2.374c-0.118,0.882-0.29,1.321-0.514,1.325C49.15,23.435,47.946,23.255,46.896,22.064z"/>
<path fill="#494545" d="M27.994,21.942l0.008-0.006L27.994,21.942z"/>
<path fill="#4A4646" d="M40.682,34.396c1.051,1.093,2.103,2.186,3.154,3.275c-2.017-0.064-4.036-0.128-6.052-0.195C38.753,36.451,39.718,35.422,40.682,34.396z"/>
<path fill="#494545" d="M40.589,31.299c-0.108-0.974-0.102-1.947,0.015-2.917l-0.02-0.061c0.671,0.506,1.343,1.013,2.014,1.52c-0.666,0.516-1.331,1.032-1.996,1.547L40.589,31.299z"/>
<path fill="#464242" d="M56.258,18.906c-0.003-2.082-0.004-4.16-0.008-6.241c0.433-0.433,0.862-0.87,1.295-1.303c1.272-0.04,2.361,0.384,3.27,1.278c1.167,1.874,4.039,3.263,1.752,6.125c-0.024,1.093-0.051,2.188-0.075,3.281c-0.505,0.498-1.012,0.995-1.52,1.492c-2.452,0.748-4.068-0.149-4.942-2.508C56.106,20.322,56.182,19.614,56.258,18.906z"/>
<path fill="#423E3E" d="M59.515,31.717c-0.069,0.833-0.135,1.669-0.197,2.502c-1.671,2.13-3.812,2.447-6.255,1.617c-1.503-0.744-2.485-1.916-2.954-3.527c-0.688-2.53-0.261-4.767,1.685-6.625c2.302-1.496,4.549-1.611,6.729,0.238c0.289,0.775,0.578,1.55,0.866,2.326C59.431,29.404,59.472,30.56,59.515,31.717z"/>
<path fill="#3B3637" d="M62.566,18.766c-1.079-2.042-2.158-4.083-3.235-6.125c1.033-1.422,2.074-1.428,3.122-0.018C62.491,14.67,62.528,16.718,62.566,18.766z"/>
<path fill="#464242" d="M71.91,18.97c1.841,0.916,3.681,1.831,5.517,2.744C75.585,20.798,73.748,19.886,71.91,18.97z"/>
<path fill="#474343" d="M62.49,25.159c-1.035,1.028-2.069,2.06-3.103,3.091c0-0.003,0.04,0.024,0.04,0.024c-2.051-2.161-0.93-3.317,1.309-4.117C61.321,24.491,61.905,24.823,62.49,25.159z"/>
<path fill="#474343" d="M62.491,22.046c0.127,1.038,0.127,2.075-0.001,3.113l0.03,0.012c-1.16-0.696-1.544-1.395-1.16-2.094c0.384-0.699,0.768-1.05,1.158-1.05L62.491,22.046z"/>
<path fill="#454141" d="M62.453,12.622c-1.041,0.012-2.081,0.015-3.122,0.018l0.046,0.024c-1.042-0.696-1.389-1.392-1.044-2.087c0.347-0.693,0.693-1.041,1.044-1.041c0.897,0.141,1.79,0.299,2.678,0.482C62.207,10.886,62.342,11.753,62.453,12.622z"/>
<path fill="#413D3D" d="M49.966,18.939c-2.072-0.006-4.145-0.012-6.217-0.018c-0.005-1.044-0.008-2.087-0.011-3.131c2.087,0,4.177,0,6.267,0C49.991,16.84,49.978,17.89,49.966,18.939z"/>
<path fill="#373434" d="M50.016,22.037c-0.001-1.044-0.001-2.084-0.001-3.128c2.081,0,4.162-0.003,6.243-0.003l0.07-0.006c1.524,4.709-0.32,6.259-4.91,5.243C50.949,23.441,50.482,22.739,50.016,22.037z"/>
<path fill="#363333" d="M59.377,9.537c-0.002,1.041-0.002,2.084-0.002,3.125c-1.04,0-2.082,0-3.125,0.003c0-1.043,0-2.084,0.002-3.128C57.294,9.537,58.335,9.537,59.377,9.537z"/>
<path fill="#262626" d="M25.116,65.701c0.035,1.051,0.07,2.1,0.107,3.153c-2.174-1.157-4.35-2.313-6.528-3.47C20.835,65.488,22.976,65.595,25.116,65.701z"/>
<path fill="#272727" d="M31.389,65.857c-2.169,0.003-4.341,0.009-6.512,0.016c1.094-1.218,2.189-2.433,3.287-3.653C29.239,63.428,30.314,64.643,31.389,65.857z"/>
<path fill="#272727" d="M37.595,68.872c-2.136,0.052-4.271,0.101-6.407,0.153c-0.004-1.108-0.009-2.219-0.015-3.33c0.995,0.01,1.99,0.006,2.98-0.006c1.207,0.092,2.418,0.187,3.628,0.281c0.738,1.132,0.671,2.179-0.325,3.128L37.595,68.872z"/>
<path fill="#1B1B1B" d="M71.548,65.622c-2.013,0.079-4.024,0.156-6.037,0.235c0.035-0.995,0.111-1.986,0.228-2.973c2.075-0.106,4.15-0.217,6.226-0.323C71.85,63.584,71.711,64.606,71.548,65.622z"/>
<path fill="#201F1F" d="M53.205,34.61c2.037-0.128,4.075-0.256,6.114-0.388c-1.024,2.185-2.048,4.37-3.07,6.559c-1.058-1.09-2.115-2.179-3.173-3.271c-0.937-0.687-1.228-1.343-0.88-1.975C52.536,34.918,52.872,34.61,53.205,34.61z"/>
<path fill="#433F3F" d="M53.205,34.61c-0.04,0.971-0.081,1.941-0.127,2.905c-2.043,0.101-4.085,0.205-6.125,0.312c-0.004-1.087-0.011-2.176-0.018-3.266c1.993-3.131,4.043-2.075,6.11-0.088L53.205,34.61z"/>
<path fill="#494545" d="M43.746,37.607c1.099,0.033,2.197,0.067,3.297,0.098c-1.056,0.921-2.115,1.843-3.174,2.762C43.822,39.515,43.781,38.562,43.746,37.607z"/>
<path fill="#212121" d="M43.664,75.223c0.006-1.077,0.011-2.157,0.015-3.234c3.182-0.006,6.363-0.012,9.548-0.019c-0.031,1.014-0.087,2.023-0.17,3.03C49.924,75.073,46.794,75.146,43.664,75.223z"/>
<path fill="#272727" d="M65.717,68.945c-1.054,0.214-2.108,0.428-3.163,0.647c-1.083-0.211-2.168-0.431-3.253-0.647c0.014-1.102,0.027-2.203,0.041-3.305c0.7-1.05,1.61-1.224,2.699-0.644c1.196,0.231,2.393,0.467,3.589,0.701C65.659,66.782,65.689,67.865,65.717,68.945z"/>
<path fill="#1E1E1E" d="M56.208,72.519c-1.087-0.138-2.173-0.271-3.261-0.409c2.189-1.102,4.379-2.203,6.568-3.305C58.413,70.044,57.31,71.28,56.208,72.519z"/>
<path fill="#464646" d="M62.041,64.997c-0.893,0.244-1.791,0.46-2.699,0.644c0.09-0.857,0.188-1.715,0.296-2.563C60.456,63.699,61.256,64.338,62.041,64.997z"/>
<path fill="#4B4B4B" d="M37.456,69.099c0.108-1.044,0.217-2.085,0.325-3.128C37.673,67.014,37.565,68.058,37.456,69.099z"/>
<path fill="#3F3B3B" d="M53.045,34.473c-2.037,0.027-4.074,0.058-6.11,0.085c-2.11-1.056-4.222-2.115-6.333-3.171c-0.003-1.022-0.009-2.048-0.018-3.067c2.098-1.053,4.198-2.106,6.295-3.159c0.667,0.003,1.334,0.009,2.001,0.012c1.36,0.018,2.6,0.424,3.732,1.172c0.17,0.644,0.342,1.288,0.511,1.935C53.098,30.344,53.07,32.407,53.045,34.473z"/>
<path fill="#3E3A3A" d="M46.896,22.064c1.04-0.012,2.079-0.021,3.119-0.027c0.001,0,0.083-0.083,0.083-0.083c0.886,0.72,1.293,1.538,1.223,2.448c-0.073,0.955-0.228,1.431-0.465,1.434c-1.49,0.699-2.82,0.47-3.992-0.68l0.017,0.006C46.882,24.127,46.888,23.096,46.896,22.064z"/>
<path fill="#3E3A3A" d="M50.004,24.952c0.025-0.998,0.056-1.996,0.093-2.997c2.077-1.019,4.153-2.036,6.23-3.055c2.064,1.043,4.129,2.087,6.191,3.128c0.002,1.05,0.002,2.097,0.002,3.144c-1.031,1.035-2.063,2.069-3.093,3.104c-2.102,0.003-4.203,0.003-6.304,0.006h-0.009C52.219,27.039,49.857,27.167,50.004,24.952z"/>
<path fill="#494545" d="M50.004,24.952c1.037,1.111,2.073,2.218,3.111,3.33c-2.085-1.041-4.168-2.084-6.252-3.125C47.91,25.089,48.957,25.021,50.004,24.952z"/>
</svg>