<?xml version="1.0" encoding="utf-8"?>
<!DOCTYPE svg PUBLIC "-//W3C//DTD SVG 1.1//EN" "http://www.w3.org/Graphics/SVG/1.1/DTD/svg11.dtd">
<svg version="1.1" xmlns="http://www.w3.org/2000/svg" xmlns:xlink="http://www.w3.org/1999/xlink" x="0px" y="0px" width="100px" height="100px" viewBox="0 0 100 100" enable-background="new 0 0 100 100" xml:space="preserve">
<path fill="#393123" d="M6.871,74.74C6.739,62.436,5.934,50.082,6.784,37.845c0.38-5.447,4.097-10.663,6.299-15.985c2.031,1.794,4.506,0.085,6.669,0.846c2.26,0.607,4.617,0.809,6.83,1.623c2.151,0.992,4.313,1.953,6.496,2.878c2.187,1.077,4.397,2.094,6.648,3.043c2.361,1.056,4.746,2.032,7.173,2.941c2.602,1.065,5.217,2.063,7.875,3c2.237,0.827,3.921,2.231,4.855,4.468c0.381,1.599,0.177,3.11-0.606,4.547c-2.577,3.439-6.714,3.848-10.296,5.316c-3.121,1.303-5.927,0.052-8.728-1.089c-1.332-0.491-2.681-0.989-4.016-1.477c-3.59-1.636-7.183-3.311-10.925-4.507c-1.504-0.321-3.053-0.528-4.581-0.366c0.052,0.073-1.314,0.33-1.259,0.403c0.055,0.073-1.166,0.567-1.109,0.638c-0.594,0.616-1.2,1.206-1.711,1.901c-0.38,0.845-0.771,1.654-1.079,2.527c-0.218,0.992-0.444,1.944-0.618,2.939c-0.11,1.089-0.232,2.145-0.33,3.229c-0.055,1.163-0.119,2.295-0.167,3.452c-0.028,1.221-0.06,2.414-0.085,3.625c-0.028,1.913-0.054,3.806-0.069,5.713c-0.015,1.336-0.078,2.655-0.194,3.982c-0.335,2.243-1.794,3.534-3.715,4.44C8.697,76.498,7.607,76.102,6.871,74.74z"/>
<path fill="#4D3513" d="M84.286,47.027c2.042,7.315,4.083,14.633,6.125,21.948c-4.495,6.003-10.179,8.218-17.421,5.472c-3.119-3.091-2.072-6.726-1.341-10.315c0.235-1.401,0.474-2.811,0.702-4.211c0.2-1.385,0.406-2.777,0.603-4.159c0.18-1.371,0.366-2.747,0.548-4.114c0.131-0.671,0.264-1.349,0.396-2.02c0.581-1.254,1.428-2.298,2.534-3.128c1.961-0.836,3.934-0.788,5.913-0.055C82.991,46.637,83.638,46.832,84.286,47.027z"/>
<path fill="#523813" d="M69.015,85.144c-4.308,2.756-8.617,5.512-12.924,8.265c-0.792,1.3-1.929,1.776-3.41,1.431c-2.033-0.821-3.551-2.106-3.987-4.379c-0.232-2.084-0.241-4.178-0.249-6.274c-0.006-2.13,0.003-4.257,0.073-6.391c0.078-1.471,0.394-2.877,0.923-4.251c0.893-1.218,1.996-2.179,3.327-2.896c2.107-0.928,4.188-1.886,6.361-2.658c1.576-0.317,3.134-0.293,4.697,0.07c2.249,0.964,4.148,2.454,6.085,3.9c1.175,1.185,2.026,2.563,2.559,4.142C72.685,79.642,70.956,82.434,69.015,85.144z"/>
<path fill="#231F19" d="M87.11,21.793c1.317,6.439,2.634,12.878,3.951,19.321c-1.27-0.211-2.478-0.61-3.633-1.196c-1.268-0.382-2.554-0.583-3.882-0.632c-2.072-0.073-4.13-0.113-6.201-0.29c-2.301-0.351-4.073-1.529-5.454-3.363c-0.769-1.354-1.167-2.801-1.252-4.349c0.346-4.571,3.145-6.869,7.301-7.913C80.863,22.07,84.179,23.047,87.11,21.793z"/>
<path fill="#4B3512" d="M89.828,37.427c0.41,1.227,0.821,2.457,1.231,3.683c-2.257,1.975-4.514,3.946-6.772,5.917c-0.001,0,0.198-0.085,0.198-0.085c-1.792,1.858-4.744,1.404-6.532,3.271l0.24-0.165c-1.708,1.559-2.95,3.454-3.998,5.499c-1.018,1.193-2.246,2.084-3.696,2.686c-2.101,1.074-4.207,2.115-6.616,2.298c-1.636-0.122-3.056-0.735-4.269-1.831c-0.942-1.312-1.458-2.774-1.55-4.379c-0.008-1.56,0.218-3.092,0.714-4.572c4.088-5.945,10.916-7.855,16.69-11.304c1.389-0.442,2.817-0.72,4.271-0.83c2.17-0.107,4.147-1.001,6.194-1.602C87.367,36.105,88.667,36.575,89.828,37.427z"/>
<path fill="#1F1B16" d="M54.001,93.759c0.687-0.174,1.382-0.29,2.09-0.348c-4.1,0.07-8.202,0.144-12.302,0.217c1.03-2.494-0.111-4.657-1.041-6.864c-0.33-1.614-0.503-3.235-0.519-4.879c0.027-5.054-0.319-10.111,0.439-15.146c0.57-1.721,1.597-3.085,3.094-4.111c1.729-0.702,3.453-0.717,5.192-0.052c4.718,3.458,3.478,7.791,1.812,12.186c-0.014,1.267-0.029,2.533-0.043,3.796C51.646,83.752,49.879,89.001,54.001,93.759z"/>
<path fill="#916323" d="M40.193,8.447c3.063-1.755,6.126-3.51,9.787-5.609c3.551,2.087,6.99,4.107,10.428,6.128c-0.06,2.856-1.691,4.34-4.321,4.944c-5.123-0.977-10.609,5.893-15.473-0.714C40.144,11.642,40.002,10.059,40.193,8.447z"/>
<path fill="#4C3614" d="M69.015,85.144c-0.09-3.329-0.179-6.659-0.269-9.991c0.328-0.668,0.656-1.337,0.985-2.008c2.164-1.44,4.27-0.586,6.381,0.158c2.159,0.397,4.563-0.262,6.409,1.486c0.363,1.55,0.061,2.936-1.012,4.132c-1.97,0.931-3.941,1.861-5.911,2.792l-0.252,0.25C73.237,83.023,71.126,84.085,69.015,85.144z"/>
<path fill="#A37227" d="M87.11,21.793c-1.835,1.236-3.671,2.475-5.507,3.711c-0.732-0.073-1.463-0.146-2.197-0.22c-1.479-0.064-2.95,0.003-4.419,0.201c-2.309,0.528-4.417,0.256-6.17-1.501c-0.785-1.333-1.165-2.765-1.146-4.309c0.314-1.544,1.111-2.774,2.386-3.696c0.723-0.244,1.447-0.488,2.168-0.732C77.188,17.428,82.15,19.61,87.11,21.793z"/>
<path fill="#75531F" d="M30.78,85.022c-4.165-2.105-8.33-4.214-12.494-6.32c0.065-0.781,0.131-1.563,0.197-2.341c1.435-3.021,3.75-4.935,7.053-5.609c2.37-0.202,4.685-0.073,6.81,1.153c1.188,1.031,2.113,2.265,2.772,3.692c0.271,1.535,0.281,3.073,0.026,4.611c-0.34,1.535-1.061,2.856-2.225,3.928C32.206,84.433,31.494,84.726,30.78,85.022z"/>
<path fill="#48350F" d="M81.26,75.137c-2.083-0.003-4.167-0.003-6.25-0.006c-0.484-0.521-0.966-1.043-1.45-1.565c0.485-0.522,0.969-1.041,1.454-1.563c5.133-1.007,10.265-2.017,15.396-3.027c-0.703,2.13-1.407,4.257-2.11,6.387C85.908,76.739,83.546,77.16,81.26,75.137z"/>
<path fill="#946820" d="M21.444,17.838c1.743-0.727,3.483-1.456,5.226-2.182c1.853-0.406,3.227-1.626,4.657-2.75c0.435-0.546,0.984-0.711,1.646-0.492c1.515-0.827,3.119-1.065,4.808-0.72c1.567,0.845,2.432,2.157,2.597,3.927c-0.513,2.527-2.013,4.41-3.948,5.997c-2.054,1.404-4.382,1.822-6.81,1.853c-2.35,0.003-4.688-0.088-6.778-1.376C21.829,20.859,21.386,19.43,21.444,17.838z"/>
<path fill="#8E691D" d="M52.992,9.543c2.474-0.192,4.945-0.381,7.417-0.574c1.866,0.958,3.732,1.92,5.6,2.881c-0.11,1.965-1.014,3.445-2.71,4.446C58.151,16.656,51.469,19.357,52.992,9.543z"/>
<path fill="#9B6E27" d="M18.907,25.018c-1.944-1.05-3.888-2.1-5.829-3.152c2.791-1.346,5.577-2.686,8.365-4.028c0.146,0.653,0.335,1.291,0.57,1.917c1.45,2.075,0.778,3.692-1.086,5.054C20.254,24.878,19.58,24.948,18.907,25.018z"/>
<path fill="#674C20" d="M46.27,87.567c-0.827,2.02-1.652,4.041-2.479,6.061c-2.4-1.898-4.799-3.8-7.199-5.698c0.786-3,2.838-4.019,5.76-3.681C43.879,85.095,45.186,86.2,46.27,87.567z"/>
<path fill="#664B16" d="M43.765,87.631c-2.391,0.101-4.78,0.202-7.171,0.302c-0.788,0.024-1.529-0.14-2.229-0.5c-0.812-0.8-1.18-1.666-1.104-2.609c0.079-0.977,0.229-1.465,0.447-1.465c1.753-3.311,4.64-3.497,7.833-2.838c1.308,0.796,2.35,1.855,3.076,3.213C45.321,85.248,44.989,86.535,43.765,87.631z"/>
<path fill="#946C2E" d="M37.576,12.65c-1.532-0.08-3.063-0.159-4.597-0.238c2.4-1.315,4.805-2.637,7.211-3.961c0.238,0.76,0.521,1.507,0.849,2.237c0.758,1.187,0.635,2.277-0.373,3.262C39.32,14.27,38.273,13.876,37.576,12.65z"/>
<path fill="#9F6E25" d="M66.009,11.85c2.072,1.132,4.144,2.265,6.218,3.396c-0.331,0.541-0.682,1.065-1.055,1.575c-1.662,1.617-3.501,2.084-5.607,0.879c-0.928-1.203-1-2.454-0.218-3.754C65.635,13.269,65.855,12.57,66.009,11.85z"/>
<path fill="#27221B" d="M6.871,74.74c1.022,0,2.043-0.012,3.064-0.04c1.083-0.69,2.159-0.717,3.227,0.031c0.697,1.117,0.58,2.173-0.239,3.174C10.905,76.849,8.888,75.797,6.871,74.74z"/>
<path fill="#72511C" d="M12.922,77.905c-0.07-0.937-0.212-1.862-0.424-2.777c0.449-0.641,0.896-1.285,1.343-1.926c1.512-0.696,3.009-0.662,4.489,0.098c1.229,1.184,1.611,2.597,1.144,4.239c-0.387,0.396-0.784,0.784-1.188,1.163C16.498,78.436,14.71,78.171,12.922,77.905z"/>
<path fill="#4A3416" d="M81.26,75.137c2.345,0.073,4.689,0.149,7.037,0.226c-2.26,1.184-4.524,2.368-6.787,3.555C81.426,77.658,81.344,76.398,81.26,75.137z"/>
<path fill="#75531F" d="M34.332,84.473c-0.001,0.988,0.009,1.978,0.032,2.963c-1.191-0.809-2.385-1.614-3.581-2.417c-0.003,0.003,0.865-0.918,0.865-0.918C32.667,83.328,33.569,83.407,34.332,84.473z"/>
<path fill="#946C2E" d="M31.327,12.906c-1.55,0.916-3.102,1.831-4.655,2.747C28.222,14.737,29.775,13.821,31.327,12.906z"/>
<path fill="#24201A" d="M52.768,74.762c-0.926-3.006-1.853-6.012-2.779-9.021c-0.958-0.946-1.919-1.889-2.881-2.829c-2.897-4.336-1.785-9.009-1.14-13.641c0.18-0.65,0.357-1.3,0.534-1.95c3.268-1.138,6.535-2.28,9.804-3.421c0.607,0.192,1.214,0.384,1.82,0.574c0.832,1.016,1.163,2.191,1.062,3.491c-0.984,2.322-1.427,4.751-1.36,7.269c-0.009,1.208-0.014,2.423-0.015,3.632c-0.001,1.193-0.003,2.39-0.004,3.58c-0.003,1.175-0.019,2.359-0.044,3.534c-0.044,1.166-0.227,2.319-0.528,3.449c-0.458,1.062-0.987,2.097-1.585,3.088c-0.739,0.891-1.434,1.816-2.093,2.768L52.768,74.762z"/>
<path fill="#7D571E" d="M40.586,44.458c1.973,0.955,3.944,1.907,5.916,2.862l0.317-0.278c2.484,3.153,1.741,6.571,0.819,10c-7.018,4.749-11.145-0.174-15.417-4.605c-0.839-1.593-1.108-3.277-0.806-5.054c0.833-1.654,2.164-2.643,3.99-2.96C37.13,44.711,38.857,44.723,40.586,44.458z"/>
<path fill="#8E691D" d="M49.856,40.213c-2.04-0.714-4.08-1.425-6.12-2.14c-1.633-1.758-4.178-2.643-4.991-5.191c-0.169-1.736,0.36-3.223,1.59-4.458c2.278-1.386,4.634-1.428,7.053-0.418c3.165,1.77,4.252,4.807,4.929,8.093C51.934,37.732,51.115,39.105,49.856,40.213z"/>
<path fill="#60471A" d="M9.449,43.393c0.202-2.054,0.401-4.11,0.603-6.165c1.354-0.818,2.824-1.206,4.41-1.166c3.015,0.985,6.012,1.996,7.832,4.898c0.951,2.368,0.945,4.73,0.037,7.104c-0.944,1.44-2.241,2.39-3.898,2.856c-1.733,0.149-3.293-0.293-4.689-1.328C12.324,47.516,11.099,45.306,9.449,43.393z"/>
<path fill="#6A4E15" d="M25.056,37.598c4.228,2.005,8.456,4.01,12.683,6.015c-0.417,0.549-0.835,1.099-1.253,1.648c-2.112,0.272-3.893,1.364-5.734,2.31c-1.405,0.202-2.748,0.016-4.027-0.616c-1.777-1.15-3.402-2.441-4.173-4.522c-0.388-1.413-0.168-2.738,0.573-3.989C23.77,38.162,24.414,37.878,25.056,37.598z"/>
<path fill="#79531C" d="M9.988,65.826C9.953,63.763,9.92,61.7,9.886,59.634c1.807-2.24,3.959-3.439,6.891-2.283c1.433,1.107,2.396,2.533,2.889,4.272c0.249,1.785-0.06,3.47-0.921,5.054c-1.195,1.407-2.715,2.108-4.56,2.112C12.481,68.231,11.082,67.245,9.988,65.826z"/>
<path fill="#7C561F" d="M12.448,37.564c-0.798-0.119-1.598-0.229-2.397-0.336c0.852-2.036,1.702-4.068,2.553-6.1c0.965,0.982,1.683,2.121,2.158,3.415c-0.186,0.656-0.374,1.309-0.562,1.965C13.615,36.859,13.032,37.213,12.448,37.564z"/>
<path fill="#9B6E27" d="M24.969,28.494c-2.022-1.16-4.042-2.319-6.063-3.476l0.867-0.421c1.239-0.817,2.591-1.294,4.077-1.336c1.367,0.729,2.097,1.901,2.333,3.406C25.779,27.276,25.374,27.884,24.969,28.494z"/>
<path fill="#946C2E" d="M31.115,31.549c-2.049-1.02-4.099-2.039-6.146-3.055l-0.083-0.934c0.856-1.221,1.936-2.182,3.273-2.853c1.523-0.11,2.879,0.311,4.072,1.26c0.808,1.309,0.983,2.713,0.61,4.196C32.267,30.624,31.692,31.088,31.115,31.549z"/>
<path fill="#7A551D" d="M12.505,34.515c0.032-1.129,0.064-2.258,0.098-3.387c2.053,1.12,4.106,2.243,6.159,3.366c-0.351,0.571-0.702,1.145-1.054,1.718C15.475,37.176,13.917,36.066,12.505,34.515z"/>
<path fill="#946C2E" d="M37.373,34.726c-2.086-1.059-4.172-2.118-6.258-3.177l0.32-0.36c1.29-2.432,3.255-3.158,5.841-2.319c1.408,1.001,1.939,2.353,1.593,4.047C38.371,33.517,37.872,34.122,37.373,34.726z"/>
<path fill="#7A551D" d="M18.762,34.494c2.098,1.035,4.196,2.069,6.294,3.104l-0.847,0.116c-0.816,1.154-1.903,1.922-3.262,2.31c-0.644-0.238-1.29-0.479-1.933-0.717c-0.551-0.412-1.1-0.824-1.651-1.236c-0.247-1.446,0.205-2.625,1.355-3.537L18.762,34.494z"/>
<path fill="#8F662A" d="M40.28,34.32c1.152,1.248,2.304,2.5,3.456,3.75c-2.121-1.114-4.242-2.23-6.363-3.345l0.604-1.092C39.192,32.364,39.938,32.663,40.28,34.32z"/>
<path fill="#866027" d="M49.856,40.213c0.044-0.803,0.084-1.608,0.119-2.414c0.487-1.526,1.488-2.539,3.006-3.046c1.58,0.037,2.89,0.666,3.969,1.804c0.173,0.739,0.345,1.477,0.518,2.213c-0.4,0.644-0.801,1.288-1.201,1.932C54.13,40.539,51.992,40.375,49.856,40.213z"/>
<path fill="#211E18" d="M56.306,43.9c-0.014-1.065-0.028-2.133-0.04-3.198l0.279,0.149c1.827-2.969,4.149-2.936,6.769-1.114c0.924,1.736,0.85,3.424-0.223,5.072c-2.58,1.889-4.922,2.039-6.836-0.934L56.306,43.9z"/>
<path fill="#27221B" d="M9.449,43.393c2.092,1.224,4.184,2.444,6.274,3.668c-2.04,2.319-4.15,2.145-6.311,0.177C9.425,45.956,9.437,44.674,9.449,43.393z"/>
<path fill="#584324" d="M9.413,47.238c2.103-0.061,4.206-0.119,6.31-0.177c0.001,0-0.165-0.168-0.165-0.168c1.23,1.3,1.341,2.692,0.334,4.172c-2.28,1.632-4.309,1.23-6.145-0.751C9.634,49.289,9.522,48.263,9.413,47.238z"/>
<path fill="#6A481B" d="M9.747,50.314c1.988-0.083,3.977-0.165,5.963-0.247c0.427,0.549,0.854,1.099,1.282,1.648c-0.001,1.456-0.582,2.646-1.662,3.604c-2.321,0.879-3.959-0.262-5.451-1.84C9.835,52.423,9.791,51.367,9.747,50.314z"/>
<path fill="#7F5A21" d="M9.879,53.479c1.908-0.067,3.815-0.131,5.722-0.195c0.388,0.504,0.777,1.01,1.165,1.52c-0.145,1.331-0.77,2.356-1.947,3.024c-1.811-0.031-3.862,0.653-4.896-1.66C9.813,55.274,9.799,54.376,9.879,53.479z"/>
<path fill="#6A4E15" d="M9.922,56.168c1.91,0.076,3.821,0.156,5.729,0.232l1.163,0.827l-0.002,1.428l-1.164,0.824c-1.923,0.052-3.847,0.104-5.766,0.156C9.898,58.481,9.91,57.324,9.922,56.168z"/>
<path fill="#72511C" d="M12.498,75.128c-0.861-0.107-1.717-0.247-2.565-0.427c0.032-1.993,0.063-3.986,0.093-5.975c1.363-0.867,2.701-0.876,4.013,0.106c1.285,2.319,0.62,4.245-1.188,5.945L12.498,75.128z"/>
<path fill="#7F5A21" d="M12.495,68.881c-0.824-0.055-1.65-0.104-2.471-0.155c-0.156-0.965-0.169-1.932-0.04-2.899c0.832-0.021,1.662-0.046,2.492-0.07c0.974,0.69,1.3,1.379,0.983,2.078C13.14,68.53,12.82,68.881,12.495,68.881z"/>
<path fill="#6D4B1A" d="M40.586,44.458c-1.091,0.851-2.184,1.7-3.274,2.551c-0.75-0.366-1.499-0.729-2.246-1.095c0.661-0.507,1.323-1.013,1.985-1.52l0.687-0.778C38.691,43.887,39.64,44.168,40.586,44.458z"/>
<path fill="#4B3610" d="M68.747,75.152c-1.053-0.012-2.106-0.027-3.16-0.04c-1.519-1.871-1.973-4.163-2.547-6.409c1.067-4.025,4.237-6.333,7.204-8.811c2.342-1.108,4.477-0.671,6.462,0.876c0.476,0.61,0.952,1.224,1.428,1.837c-1.039,3.131-2.08,6.266-3.119,9.396l-0.004-0.006c-1.508,2.185-4.69,1.034-6.242,3.131L68.747,75.152z"/>
<path fill="#020201" d="M77.954,50.213c2.177-1.089,4.355-2.179,6.532-3.271C82.309,48.031,80.131,49.124,77.954,50.213z"/>
<path fill="#1B1813" d="M71.766,53.195c2.143-1.05,4.285-2.1,6.427-3.146c-0.023,1.068-0.047,2.136-0.07,3.204C75.985,55.246,73.864,55.572,71.766,53.195z"/>
<path fill="#352915" d="M71.766,53.195c2.12,0.019,4.237,0.037,6.357,0.058c0,1.013-0.015,2.026-0.043,3.04c-1.77,2.231-3.853,2.752-6.323,1.163c-1.137-1.483-1.106-2.942,0.09-4.379L71.766,53.195z"/>
<path fill="#4A3212" d="M71.861,56.369c2.074-0.024,4.147-0.049,6.219-0.073c0.017,1.068,0.032,2.139,0.049,3.21c-0.417,0.467-0.833,0.934-1.251,1.401c-1.877,0.153-3.752,0.366-5.638,0.08c-0.862-1.004-1.181-2.148-0.875-3.449C70.864,57.147,71.363,56.756,71.861,56.369z"/>
<path fill="#48350F" d="M78.129,59.506c0.197,1.032,0.199,2.066,0.005,3.101l-0.008,0.021c-0.717-0.522-1.434-1.044-2.151-1.565c0.719-0.522,1.436-1.041,2.153-1.563L78.129,59.506z"/>
<path fill="#24201A" d="M54.001,93.759c-0.425-5.069-0.849-10.138-1.275-15.204c0.263,2.124,0.525,4.248,0.789,6.369l0.891,1.068l-0.809,1.129C53.732,89.334,53.866,91.547,54.001,93.759z"/>
<path fill="#48350F" d="M53.558,75.284c-0.016-1.145-0.031-2.286-0.047-3.43c1.317-1.55,2.838-2.433,4.913-1.508c0.314,0.549,0.63,1.102,0.945,1.651C57.432,73.092,55.494,74.188,53.558,75.284z"/>
<path fill="#563D17" d="M65.606,68.866c-0.006,2.082-0.012,4.166-0.018,6.247c-1.036-1.044-2.072-2.087-3.107-3.131c-0.781-0.662-1.106-1.379-0.975-2.157c0.136-0.809,0.314-1.212,0.537-1.212c0.615-0.25,1.229-0.497,1.845-0.748C64.46,68.197,65.034,68.533,65.606,68.866z"/>
<path fill="#48350F" d="M62.48,68.872c0.005,1.037,0.005,2.075,0.001,3.109c-1.037,0.009-2.075,0.016-3.112,0.016l0.021,0.021c-0.467-0.421-0.935-0.839-1.404-1.263c-0.189-1.331,0.214-2.42,1.299-3.241c0.633-0.012,1.266-0.021,1.899-0.033C61.616,67.944,62.048,68.408,62.48,68.872z"/>
<path fill="#563D17" d="M53.598,87.121c-0.084-0.732-0.111-1.468-0.084-2.2C53.622,85.653,53.649,86.386,53.598,87.121z"/>
<path fill="#946C2E" d="M81.604,25.504c-2.238,1.876-4.477,3.756-6.715,5.633c-1.816,2.625-2.417,6.284-6.175,7.254c-1.683,0.131-3.269-0.204-4.754-1.004c-2.213-1.178-4.071-2.719-5.161-5.042c-0.381-1.624-0.23-3.201,0.452-4.721c1.642-3.085,4.692-4.043,7.693-5.06c3.072-0.25,5.945,1.358,9.033,1.004c1.517-0.04,2.992,0.198,4.425,0.708C80.829,24.658,81.23,25.067,81.604,25.504z"/>
<path fill="#523813" d="M87.5,37.622c-2.086,1.041-4.172,2.081-6.258,3.122c-1.021-0.848-1.735-1.907-2.145-3.17c0.415-1.251,1.083-2.347,2.043-3.26c2.09-1.089,4.181-2.179,6.271-3.265l1.43,0.628l0.156,1.554c-0.078,1.071-0.449,2.032-1.112,2.881C87.886,36.111,87.5,37.622,87.5,37.622z"/>
<path fill="#553B15" d="M87.5,34.509c-0.029-1.153-0.06-2.307-0.088-3.46c0.807,2.127,1.614,4.254,2.418,6.378c-0.777,0.067-1.553,0.134-2.33,0.195l-0.014-0.092c-0.813-0.674-1.082-1.349-0.807-2.017C86.952,34.842,87.225,34.509,87.5,34.509z"/>
<path fill="#362F25" d="M68.516,34.387c2.124-1.083,4.248-2.167,6.372-3.25c0.038,1.147,0.075,2.295,0.113,3.439c-0.221,0.623-0.442,1.245-0.662,1.868c-1.094,0.824-2.321,1.15-3.681,0.983C69.419,36.786,68.705,35.77,68.516,34.387z"/>
<path fill="#48350F" d="M81.14,34.314c0.037,1.105,0.073,2.207,0.108,3.312c-1.86,1.877-3.963,2.097-6.273,0.925c-1.02-1.374-0.987-2.726,0.095-4.05c0,0-0.069,0.073-0.069,0.076C77.047,34.491,79.093,34.402,81.14,34.314z"/>
<path fill="#543B15" d="M78.135,40.759C72.924,43.881,67.713,47,62.502,50.122c-0.51-0.229-1.018-0.455-1.527-0.681c-0.194-0.525-0.388-1.047-0.58-1.572c0.177-0.531,0.352-1.059,0.529-1.59c0.856-0.732,1.683-1.489,2.492-2.274c0.627-0.946,1.195-1.922,1.705-2.938c0.327-1.123,0.941-2.042,1.899-2.726c1.09-0.391,2.207-0.613,3.365-0.641c1.762,0.015,3.429,0.452,5.043,1.129C76.619,39.071,77.506,39.731,78.135,40.759z"/>
<path fill="#403011" d="M53.143,59.415c0.124-1.19,0.249-2.377,0.372-3.568c1.063-1.779,1.708-3.86,3.595-5.057c2.425-0.543,3.92,0.928,5.385,2.469c0.021,0.922,0.042,1.844,0.067,2.765c0.394,2.722-0.403,4.883-2.934,6.226C56.802,62.826,54.939,61.197,53.143,59.415z"/>
<path fill="#563D17" d="M78.135,40.759c-1.05-0.003-2.098-0.006-3.148-0.012c-0.478-0.519-0.957-1.041-1.436-1.56c0.466-0.531,0.933-1.062,1.399-1.596c2.1,0.012,4.199,0.024,6.297,0.034c0,1.041-0.003,2.081-0.006,3.122C80.206,40.753,79.171,40.759,78.135,40.759z"/>
<path fill="#533611" d="M62.495,53.259c-2.074,0.019-4.147,0.037-6.223,0.052c-1.315-1.352-1.369-2.756-0.162-4.208c2.449-1.636,4.51-0.86,6.395,1.025l-0.003-0.006C62.5,51.166,62.498,52.213,62.495,53.259z"/>
<path fill="#1B1813" d="M71.847,53.076c0.004,1.095,0.009,2.194,0.014,3.292l0.144,0.25c-1.503,1.346-3.078,2.438-5.237,1.507c-0.354-0.555-0.708-1.111-1.062-1.666C67.753,55.331,69.799,54.205,71.847,53.076z"/>
<path fill="#1B1813" d="M59.411,59.543c1.05-1.168,2.1-2.34,3.151-3.516c1.047,0.141,2.094,0.287,3.142,0.434c0.002,0-0.102-0.141-0.102-0.141c2.383,5.209-0.758,5.454-4.575,5.09C60.488,60.788,59.95,60.165,59.411,59.543z"/>
<path fill="#6E4C1B" d="M46.421,69c-0.037,5.173-0.073,10.346-0.108,15.518c-0.854,1.416-1.712,1.419-2.571,0.006l-0.001-0.027c-3.383-3.653-7.316-7.001-7.008-12.692c0.896-2.566,2.688-4.178,5.269-4.947C43.76,66.983,45.233,67.697,46.421,69z"/>
<path fill="#5E4420" d="M46.421,69c-0.899-0.043-1.797-0.079-2.696-0.107c-2.645,0.989-4.927,0.641-6.636-1.8c-0.564-1.621-0.633-3.269-0.208-4.929c1.28-2.496,3.34-3.406,6.058-2.948c1.631,0.257,3.055,0.952,4.258,2.088c1.068,1.437,1.097,2.902,0.086,4.385C46.995,66.791,46.708,67.896,46.421,69z"/>
<path fill="#171511" d="M47.284,65.689c-0.26-0.956-0.446-1.919-0.559-2.902c1.028-1.413,2.113-1.392,3.249-0.128c0.012,1.029,0.018,2.057,0.015,3.083C49.087,65.729,48.185,65.713,47.284,65.689z"/>
<path fill="#6F5022" d="M43.742,84.525c0.858-0.003,1.717-0.006,2.573-0.006c0.188,1.02,0.175,2.036-0.041,3.049c-0.839,0.018-1.674,0.04-2.51,0.064C43.754,86.593,43.747,85.559,43.742,84.525z"/>
<path fill="#A37227" d="M65.347,13.946c0.142,0.727,0.282,1.453,0.423,2.182c0.464,0.546,0.928,1.095,1.392,1.639c0.189,0.684,0.38,1.374,0.575,2.054c-0.371,1.374-1.076,2.548-2.153,3.476c-1.126,0.738-2.321,1.389-3.548,1.944c-1.196,0.537-2.454,0.928-3.749,1.16c-1.291,0.021-2.573-0.131-3.833-0.43c-0.615-0.177-1.234-0.354-1.854-0.531c-1.866-0.519-3.74-1.022-5.626-1.505c-1.95-0.455-3.856-1.001-5.473-2.268c-1.557-1.452-2.612-3.137-2.583-5.353c0.046-1.45,0.606-2.655,1.682-3.619c0.14-0.675,0.285-1.349,0.439-2.015c3.985-0.375,7.971-0.757,11.955-1.138C57.11,11.011,61.229,12.479,65.347,13.946z"/>
<path fill="#543710" d="M68.768,75.128c2.081-1.044,4.161-2.087,6.242-3.131c0,1.043,0,2.09,0,3.134C72.929,75.131,70.849,75.128,68.768,75.128z"/>
<path fill="#563D17" d="M75.347,81.964c0,0,0.25-0.253,0.25-0.25C75.599,81.714,75.347,81.964,75.347,81.964z"/>
<path fill="#A66E1F" d="M78.354,24.811c-3.247,0.137-6.494,0.271-9.74,0.406c-0.467-0.46-0.934-0.921-1.401-1.382c-0.177-1.379,0.281-2.502,1.376-3.363c1.381-0.094,2.482,0.415,3.304,1.535c2.144,0.134,4.289,0.266,6.433,0.4c0.762,0.528,1.018,1.059,0.772,1.596C78.853,24.542,78.605,24.811,78.354,24.811z"/>
<path fill="#AA792D" d="M65.711,18.655c0.014-0.846,0.034-1.691,0.057-2.53c1.804,0.229,3.607,0.458,5.408,0.69c0.175,0.552,0.351,1.099,0.522,1.648C69.775,20.822,67.793,21.274,65.711,18.655z"/>
<path fill="#A16B23" d="M65.711,18.655c1.996-0.061,3.993-0.122,5.988-0.187c0.063,1.175,0.128,2.356,0.194,3.537c-1.048,0-2.097,0-3.144,0c-1.08,1.272-2.371,1.48-3.847,0.769c-0.751-1.48-0.469-2.768,0.711-3.894L65.711,18.655z"/>
<path fill="#AA792D" d="M78.354,24.811c-0.032-0.803-0.043-1.608-0.029-2.408c0.72,0.601,1.413,1.227,2.08,1.876C79.728,24.49,79.044,24.67,78.354,24.811z"/>
<path fill="#7A551D" d="M40.672,72.03c1.022,4.153,2.046,8.31,3.068,12.467c-3.136-0.009-6.271-0.016-9.407-0.021c-0.899-0.11-1.796-0.232-2.689-0.373c-0.152-0.937-0.296-1.876-0.427-2.817c0.365-0.598,0.731-1.199,1.096-1.8c0.594-1.343,0.633-2.701,0.119-4.08c-0.548-1.371-0.674-2.774-0.441-4.227c1.285-2.157,3.132-2.893,5.545-2.212C38.812,69.754,39.845,70.785,40.672,72.03z"/>
<path fill="#7F5A21" d="M19.474,77.539c-0.241-0.785-0.471-1.575-0.689-2.365c-0.111-0.763-0.221-1.523-0.331-2.283c0.51-1.511,1.474-2.625,2.893-3.345c1.599-0.144,2.977,0.36,4.168,1.416c0.717,1.501,0.498,2.884-0.526,4.166C23.15,75.931,21.312,76.736,19.474,77.539z"/>
<path fill="#7C5217" d="M24.989,75.128c-0.008-1.022-0.015-2.048-0.026-3.07c0.503-0.622,1.007-1.245,1.509-1.871c2.704-0.793,4.606,0.043,5.587,2.75c-0.285,0.745-0.57,1.489-0.854,2.234C29.133,75.155,27.061,75.143,24.989,75.128z"/>
<path fill="#7C5217" d="M34.38,75.116c1.035,1.053,2.069,2.106,3.104,3.159c-1.407,1.397-3.151,1.593-5.005,1.395c-0.432-0.421-0.865-0.842-1.297-1.264c0.008-1.08,0.016-2.157,0.023-3.234l0.037-0.028C32.275,73.627,33.322,73.617,34.38,75.116z"/>
<path fill="#7F5A21" d="M31.217,81.286c-0.18-0.958-0.192-1.922-0.035-2.884c0,0.003-0.006-0.159-0.006-0.159c0.738,0.51,1.479,1.022,2.217,1.535c-0.722,0.537-1.444,1.071-2.166,1.608L31.217,81.286z"/>
<path fill="#A66E1F" d="M28.153,28.168c-1.086-0.202-2.173-0.4-3.264-0.604c-1.71-0.989-3.419-1.975-5.121-2.963c0.75-1.621,1.497-3.238,2.244-4.853c2.03-0.253,4.059-0.516,6.088-0.775c0.966,0.897,1.897,1.828,2.788,2.798c0.579,1.233,0.656,2.497,0.232,3.791C30.174,26.477,29.185,27.347,28.153,28.168z"/>
<path fill="#A37227" d="M28.126,22.033c-0.004-1.022-0.012-2.044-0.024-3.063c2.12-0.028,4.239-0.062,6.358-0.092c0.4,0.592,0.801,1.184,1.203,1.776c-0.136,1.48-0.772,2.686-1.981,3.57C31.248,24.972,29.638,23.627,28.126,22.033z"/>
<path fill="#AA792D" d="M34.46,18.878c1.01-1.047,2.02-2.09,3.03-3.134c0.406,0.427,0.813,0.854,1.219,1.282c0.032,1.239-0.41,2.252-1.405,3.009c-1.253,0.278-2.232-0.122-2.936-1.193L34.46,18.878z"/>
<path fill="#AA792D" d="M40.599,12.695c0.004,1.001-0.003,2.002-0.021,3c-1.016,1.193-2.048,1.206-3.094,0.043c0,0,0.009,0.006,0.007,0.006c-0.012-1.031,0.012-2.066,0.081-3.094C38.583,12.677,39.591,12.689,40.599,12.695z"/>
<path fill="#7A5018" d="M24.963,72.058c-1.024-0.024-2.046-0.042-3.07-0.058c-0.948,1.163-2.237,1.98-3.169,3.162l0.06,0.009c-1.981-0.128-3.961-0.257-5.938-0.391c-0.114-1.969-0.232-3.934-0.351-5.899c-0.001-1.043-0.008-2.084-0.019-3.125c1.051-0.003,2.101-0.003,3.152-0.006c2.93-2.225,5.91-2.087,8.928-0.192c1.939,2.017,2.107,4.16,0.452,6.427L24.963,72.058z"/>
<path fill="#1F1B16" d="M49.974,62.658c-1.083,0.043-2.166,0.086-3.249,0.128l-0.084,0.134c-0.876-1.074-1.639-2.228-2.269-3.464c0.084-1.453,0.735-2.576,1.955-3.372c0.165-3.015,0.328-6.03,0.493-9.042C47.871,52.249,48.922,57.452,49.974,62.658z"/>
<path fill="#543A15" d="M56.263,50.116c0.003,1.065,0.006,2.13,0.009,3.195c-0.92,0.848-1.84,1.694-2.759,2.539c0.906-2.958,1.813-5.912,2.719-8.862c0.482,0.516,0.964,1.031,1.448,1.547C57.208,49.063,56.736,49.588,56.263,50.116z"/>
<path fill="#533812" d="M56.255,43.875c2.068-0.016,4.135-0.027,6.203-0.043c0.473,0.528,0.946,1.053,1.425,1.581c-0.458,0.537-0.92,1.077-1.382,1.614l0.008-0.024c-2.077,1.975-4.158,1.944-6.247,0.021c0,0-0.027-0.037-0.029-0.037C56.254,45.95,56.262,44.913,56.255,43.875z"/>
<path fill="#1A1713" d="M53.143,59.415c2.089,0.042,4.178,0.085,6.267,0.128c0.001,0-0.124-0.107-0.124-0.107c1.471,1.291,1.665,2.75,0.581,4.383c-2.568,1.599-4.742,0.814-6.729-1.111C53.14,61.609,53.141,60.513,53.143,59.415z"/>
<path fill="#3C2D18" d="M53.138,62.707c2.046-0.091,4.092-0.186,6.14-0.277c0.977,1.355,0.925,2.707-0.023,4.056c-2.203,1.602-4.188,1.26-5.998-0.665C53.216,64.782,53.176,63.745,53.138,62.707z"/>
<path fill="#493112" d="M53.257,65.82c2.021-0.077,4.043-0.15,6.065-0.223c0.488,0.537,0.977,1.078,1.466,1.618c-0.472,0.555-0.943,1.111-1.415,1.663l0.023-0.021c-1.909,2.078-3.886,1.828-5.907,0.18C53.413,67.963,53.335,66.891,53.257,65.82z"/>
<path fill="#563D17" d="M53.491,69.037c1.968-0.061,3.937-0.119,5.905-0.18c-0.001,1.053-0.003,2.109-0.006,3.162c-1.96-0.055-3.923-0.107-5.882-0.162C53.438,70.917,53.43,69.977,53.491,69.037z"/>
<path fill="#6D4B1A" d="M46.327,56.085c0.233,1.007,0.365,2.026,0.396,3.058c-1.195,2.274-3.366,1.825-5.349,1.917c-1.392,0.003-2.778-0.009-4.17-0.04c-2.156-0.095-4.181-0.534-5.805-2.1c-0.819-1.208-1.292-2.533-1.422-3.985c0.03-1.468,0.403-2.841,1.118-4.12c1.183-0.906,2.518-1.346,4.006-1.321C38.842,51.691,42.585,53.888,46.327,56.085z"/>
<path fill="#7F5A21" d="M37.051,44.394c0.118,0.87,0.206,1.74,0.263,2.615c-0.926-0.024-1.853-0.045-2.777-0.067c-0.966,1.114-2.11,1.346-3.433,0.699c-0.906-1.16-0.905-2.353-0.125-3.573C33.003,44.177,35.026,44.287,37.051,44.394z"/>
<path fill="#6D4B1A" d="M31.454,47c1.025-0.034,2.052-0.052,3.081-0.055c0.167,0.854,0.351,1.709,0.562,2.551c0.005-0.003-0.723,0.632-0.723,0.632c-0.791,1.123-1.865,1.581-3.223,1.376c-1.048-0.879-1.425-2.002-1.219-3.335C30.438,47.778,30.946,47.391,31.454,47z"/>
<path fill="#A66E1F" d="M53.126,37.28c-1.05,0.171-2.1,0.345-3.149,0.519c-1.047-2.127-2.092-4.257-3.137-6.384c0.479-0.778,0.958-1.553,1.436-2.329c2.772-1.587,5.194-1.199,7.246,1.282C56.688,33.353,55.943,35.675,53.126,37.28z"/>
<path fill="#A66E1F" d="M46.839,31.415c-2.087-0.027-4.175-0.058-6.262-0.085c-0.391-0.72-0.783-1.44-1.173-2.164c0.072-1.746,0.815-3.134,2.231-4.16c2.615-0.94,4.811-0.427,6.488,1.877c0.49,1.742,0.078,3.238-1.236,4.483L46.839,31.415z"/>
<path fill="#A37227" d="M40.28,34.32c-0.775-0.205-1.544-0.43-2.304-0.684c-0.151-0.726-0.292-1.45-0.418-2.179c1.008-1.181,2.039-1.257,3.091-0.055c0,0-0.072-0.07-0.072-0.073C40.501,32.33,40.402,33.325,40.28,34.32z"/>
<path fill="#7A5018" d="M18.782,40.723c-2.11-1.053-4.222-2.106-6.333-3.159c-0.001,0,0.029,0.055,0.029,0.055c2.098-1.953,4.19-1.959,6.279,0.012l-0.008-0.003c0.482,0.51,0.966,1.022,1.45,1.532C19.726,39.682,19.254,40.204,18.782,40.723z"/>
<path fill="#7C5217" d="M18.981,46.402c-0.067-1.892-0.134-3.784-0.2-5.676c0-0.003-0.032,0.027-0.032,0.027c0.507-0.491,1.015-0.986,1.523-1.48c1.45,0.32,2.518,1.15,3.261,2.423c0.801,1.206,1.274,2.524,1.366,3.974c-0.481,1.416-1.405,2.417-2.774,3.009C20.571,48.614,19.525,47.855,18.981,46.402z"/>
<path fill="#28241C" d="M18.981,46.402c0.954,0.223,1.917,0.394,2.889,0.516c1.033,1.431,1.019,2.85-0.043,4.263c-2.397,1.511-4.385,0.806-6.148-1.132c0,0,0.029,0.018,0.031,0.018c-0.05-1.059-0.101-2.115-0.151-3.174C16.699,46.729,17.84,46.567,18.981,46.402z"/>
<path fill="#644314" d="M21.926,43.887c-0.027-1.059-0.055-2.118-0.082-3.174c0.972-1.389,1.978-1.413,3.018-0.077c1.035,0.836,2.069,1.673,3.104,2.506c-0.014,0.61-0.029,1.221-0.042,1.831c-0.882,0.921-1.959,1.352-3.233,1.294C23.669,45.59,22.748,44.797,21.926,43.887z"/>
<path fill="#7A7A7A" d="M30.978,44.068c0.162,0.979,0.319,1.959,0.473,2.936c0.003-0.003-0.657-0.171-0.657-0.171c-0.803,1.102-1.792,1.306-2.966,0.613c-0.727-1.126-0.644-2.157,0.366-3.076l-0.228-1.224C28.97,43.451,29.974,43.759,30.978,44.068z"/>
<path fill="#7A551D" d="M24.862,40.637c-1.006,0.037-2.013,0.062-3.018,0.077l0.032,0.039c-1.043-0.696-1.389-1.389-1.042-2.084c0.346-0.693,0.693-1.041,1.043-1.041c0.783,0.027,1.564,0.055,2.339,0.085C24.47,38.678,24.688,39.654,24.862,40.637z"/>
<path fill="#7E581F" d="M21.823,68.866c-2.064-1.041-4.129-2.078-6.194-3.116c0.001-1.071,0.005-2.14,0.008-3.21c1.717-1.499,1.488-3.598,1.709-5.563c0.503-1.303,1.297-2.38,2.435-3.208c1.363-0.394,2.738-0.491,4.145-0.299c1.248,0.735,2.299,1.678,3.198,2.811c0.964,1.102,1.921,2.194,2.885,3.296c0.895,1.202,1.55,2.518,2.01,3.943c0.029,1.56-0.495,2.908-1.499,4.083C27.827,69.467,24.533,67.148,21.823,68.866z"/>
<path fill="#6A4E15" d="M18.75,59.503c-1.038,1.013-2.075,2.026-3.113,3.04c0.003-1.022,0.006-2.044,0.012-3.064l-0.026,0.024c0.522-0.723,1.042-1.45,1.563-2.173C17.708,58.053,18.228,58.78,18.75,59.503z"/>
<path fill="#6A4E15" d="M18.757,37.631c-2.092-0.003-4.184-0.006-6.278-0.009c0-1.038,0.009-2.072,0.024-3.11c2.072,0.009,4.145,0.015,6.215,0.021C18.736,35.568,18.75,36.6,18.757,37.631z"/>
<path fill="#93691E" d="M40.649,31.402c-1.031,0.012-2.063,0.03-3.093,0.055c-2.04-0.088-4.082-0.177-6.122-0.269c-0.075-0.982-0.142-1.965-0.197-2.948c0.301-0.653,0.601-1.306,0.903-1.962c1.227-0.781,2.55-1.327,3.972-1.639c1.5-0.021,2.802,0.476,3.908,1.489c0.197,0.699,0.394,1.395,0.591,2.094C40.623,29.284,40.635,30.343,40.649,31.402z"/>
<path fill="#8E691D" d="M28.153,28.168c0.023-0.977,0.044-1.95,0.06-2.923c1.03-1.346,2.304-1.645,3.822-0.9c0.731,1.501,0.47,2.805-0.784,3.909l-0.014-0.012C30.209,28.232,29.18,28.207,28.153,28.168z"/>
<path fill="#6A4E15" d="M21.877,37.628c0,1.041-0.001,2.084-0.003,3.125c-1.041,0-2.083,0-3.125,0c0-1.041,0-2.084,0-3.125C19.792,37.628,20.835,37.628,21.877,37.628z"/>
<path fill="#231F19" d="M68.516,34.387c1.122,0.064,2.241,0.128,3.363,0.189c1.065,0.757,1.444,1.767,1.134,3.037c-1.043,1.581-2.983,1.914-4.312,3.101l0.038,0.003c-0.917,0.894-2.008,1.443-3.274,1.645c-1.332,0.055-2.362-0.458-3.046-1.621c-1.958,0.037-3.917,0.073-5.875,0.11c0.067-0.882,0.072-1.764,0.014-2.649c0.111-0.662,0.221-1.321,0.333-1.984c2.063-4.098,5.428-2.811,8.655-2.09C66.514,34.451,67.504,34.537,68.516,34.387z"/>
<path fill="#A66E1F" d="M53.126,37.28c0-1.966,0-3.928,0.001-5.893c-0.5-0.541-1.001-1.081-1.501-1.618c-0.316-1.507,0.019-2.856,0.998-4.041c1.326-0.702,2.725-0.943,4.202-0.653c1.473,0.201,2.757,0.806,3.85,1.813c0.354,1.413,0.485,2.848,0.389,4.303c0.391,3.546-2.992,4.632-4.524,6.924l0.018,0.085C55.414,37.894,54.271,37.585,53.126,37.28z"/>
<path fill="#533A14" d="M62.418,40.741c1.041,0.137,2.08,0.271,3.121,0.409c0.918,0.583,1.237,1.181,0.958,1.801c-0.284,0.629-0.572,0.943-0.872,0.943l0.024-0.024c-1.021,1.218-2.058,1.233-3.111,0.046l-0.079-0.08C62.464,42.801,62.451,41.769,62.418,40.741z"/>
<path fill="#584324" d="M15.679,50.049c2.082,0.045,4.163,0.088,6.244,0.134c0.473,0.397,0.948,0.794,1.424,1.193c0.041,0.617,0.081,1.236,0.124,1.855c-0.661,1.157-1.657,1.688-2.985,1.59c-1.826,0.11-3.705,0.379-4.878-1.556c0,0-0.005,0.015-0.006,0.015C15.627,52.203,15.653,51.126,15.679,50.049z"/>
<path fill="#69481C" d="M15.608,53.265c1.872,0.031,3.744,0.061,5.618,0.091c0.955,0.614,1.331,1.294,1.126,2.045c-0.213,0.787-0.461,1.178-0.743,1.178c-0.954-0.061-1.907-0.125-2.861-0.192c-1.047,1.407-2.089,1.404-3.125-0.012c0,0,0.027,0.024,0.029,0.024C15.637,55.356,15.623,54.309,15.608,53.265z"/>
<path fill="#7F5A21" d="M15.623,56.375c1.042,0.003,2.084,0.003,3.126,0.006c0,1.044,0,2.084,0,3.122c-1.042,0-2.083,0-3.125,0C15.623,58.463,15.623,57.419,15.623,56.375z"/>
<path fill="#563D17" d="M71.869,62.625c-2.088,2.081-4.175,4.159-6.263,6.241l0.028,0.021c-0.505-0.531-1.01-1.062-1.515-1.593c-0.531-1.431-0.461-2.816,0.302-4.153c1.142-0.928,2.373-1.712,3.682-2.377c0.723,0.116,1.447,0.235,2.17,0.351C70.803,61.618,71.336,62.121,71.869,62.625z"/>
<path fill="#543B15" d="M78.127,59.5c0,1.043-0.001,2.084-0.001,3.128c-2.086,0-4.172,0-6.257-0.003l-0.008-0.009c-0.94-0.702-1.237-1.382-0.897-2.042c0.334-0.653,0.664-0.977,0.992-0.977C74.012,59.564,76.071,59.533,78.127,59.5z"/>
<path fill="#422F14" d="M71.956,59.598c-0.051,1.004-0.081,2.011-0.095,3.018h-1.55l-1.549,0.012c-0.964,1.12-2.123,2.048-3.142,3.113h-0.011c-0.789,1.007-1.825,1.52-3.105,1.535c-1.275-0.028-2.319-0.534-3.128-1.52c0,0-0.052-0.155-0.053-0.159c-0.014-1.056-0.029-2.109-0.044-3.165c0.038-1.001,0.042-1.999,0.009-2.997c2.104-1.037,4.21-2.078,6.314-3.116c2.133,0.098,4.267,0.195,6.401,0.296C71.983,57.611,71.968,58.603,71.956,59.598z"/>
<path fill="#4B3610" d="M62.501,65.753c1.036-0.012,2.072-0.015,3.108-0.012c0.007,1.047,0.015,2.097,0.024,3.146c-1.051-0.006-2.103-0.009-3.154-0.015l0.02,0.006c-1.025-0.693-1.367-1.389-1.025-2.084C61.814,66.101,62.156,65.753,62.501,65.753z"/>
<path fill="#563D17" d="M62.501,65.753c0,1.041-0.001,2.084-0.001,3.125c-1.042,0-2.083,0-3.125,0c0-1.041,0-2.084,0-3.125C60.417,65.753,61.459,65.753,62.501,65.753z"/>
<path fill="#866027" d="M56.541,38.116c0.957-2.209,1.914-4.422,2.87-6.631c0.479-0.705,0.957-1.41,1.436-2.118c0.548,0.656,1.094,1.309,1.642,1.962c1.018,0.934,2.037,1.868,3.057,2.798C62.544,35.458,59.543,36.789,56.541,38.116z"/>
<path fill="#AA792D" d="M68.614,25.216c-2.033,1.02-4.063,2.036-6.096,3.055c-0.473-0.4-0.946-0.8-1.418-1.2c-0.105-0.61-0.209-1.221-0.314-1.831c0.722-1.059,1.718-1.718,2.951-2.032c1.814,0.253,3.717,0.278,4.987,1.932L68.614,25.216z"/>
<path fill="#AA792D" d="M62.489,31.329c-1.027,0.061-2.054,0.107-3.079,0.149c-0.003-1.068-0.008-2.139-0.012-3.213c1.038-1.306,2.077-1.374,3.114,0c0,0,0.004,0.003,0.004,0.006C62.522,29.291,62.512,30.31,62.489,31.329z"/>
<path fill="#563D17" d="M87.5,34.509c-0.006,1.007-0.011,2.015-0.014,3.021C87.291,36.524,87.295,35.516,87.5,34.509z"/>
<path fill="#221E18" d="M71.87,37.357c0.001-0.928,0.004-1.855,0.009-2.78c1.062-0.024,2.124-0.049,3.189-0.076c-0.039,1.031-0.077,2.063-0.116,3.094c-0.001-0.003,0.001-0.037,0.001-0.037C73.823,39.053,72.79,39.066,71.87,37.357z"/>
<path fill="#48350F" d="M71.87,37.357c1.025,0.11,2.054,0.177,3.083,0.204c0.011,1.063,0.023,2.124,0.034,3.187c-2.095-0.009-4.19-0.021-6.287-0.034C69.756,39.593,70.813,38.477,71.87,37.357z"/>
<path fill="#48350F" d="M56.262,47.025c2.082-0.006,4.164-0.016,6.247-0.021c-0.001,1.041-0.001,2.084-0.005,3.125c-2.08-0.003-4.161-0.009-6.241-0.012C56.259,49.084,56.259,48.053,56.262,47.025z"/>
<path fill="#4B3512" d="M65.626,43.893c-0.026-0.916-0.053-1.834-0.085-2.747c1.065-0.14,2.132-0.287,3.198-0.43C67.701,41.776,66.664,42.834,65.626,43.893z"/>
<path fill="#48350F" d="M62.539,43.915c1.036-0.015,2.074-0.031,3.11-0.046c-1.048,1.053-2.098,2.106-3.148,3.159C62.51,45.99,62.524,44.952,62.539,43.915z"/>
<path fill="#7D5820" d="M40.672,72.03c-1.063-0.009-2.127-0.018-3.191-0.024c-3.425-1.376-6.143-3.085-3.505-7.352c2.522-1.611,4.703-0.979,6.673,1.02c1.025,1.074,2.052,2.145,3.078,3.219C42.708,69.937,41.689,70.984,40.672,72.03z"/>
<path fill="#5E421D" d="M40.649,65.674c-2.101-0.013-4.202-0.024-6.302-0.037c-0.772-0.07-1.544-0.14-2.318-0.21c-1.165-1.068-1.996-2.35-2.501-3.848c0.081-1.682,0.844-2.951,2.286-3.814c3.06,0.235,6.319-0.562,8.965,1.764l-0.205-0.165c0.778,0.467,1.556,0.934,2.334,1.401c-0.732,0.537-1.463,1.071-2.196,1.608C40.692,63.473,40.67,64.572,40.649,65.674z"/>
<path fill="#26221B" d="M40.713,62.372c-0.068-1.001-0.114-2.005-0.137-3.009c2.049-0.073,4.099-0.143,6.148-0.216c-0.026,1.254-0.052,2.511-0.08,3.772C44.665,62.738,42.689,62.555,40.713,62.372z"/>
<path fill="#9F6E25" d="M37.483,15.738c1.031-0.009,2.064-0.021,3.096-0.04c1.059,1.056,2.118,2.115,3.179,3.17c-0.179,0.62-0.359,1.239-0.537,1.855c-1.032,0.854-2.22,1.193-3.545,1.081c-0.543-0.345-1.088-0.69-1.631-1.038c-0.185-0.617-0.37-1.233-0.554-1.853C37.489,17.856,37.486,16.797,37.483,15.738z"/>
<path fill="#9F6E25" d="M43.757,18.869c2.131,0.04,4.262,0.08,6.393,0.119c0.926,1.328,1.129,2.741,0.496,4.251c-1.122,1.142-2.481,1.709-4.082,1.706c-1.601-0.11-2.933-0.763-4-1.959c-0.395-1.599-0.04-2.979,1.184-4.107L43.757,18.869z"/>
<path fill="#8E691D" d="M50.004,21.991c0.026-1.004,0.073-2.008,0.142-3.006c2.036-0.034,4.068-0.067,6.099-0.104v0.003c-0.003,1.044-0.008,2.091-0.012,3.134c-0.368,0.607-0.734,1.215-1.102,1.822c-1.35,0.602-2.699,0.595-4.043-0.018C50.726,23.212,50.366,22.601,50.004,21.991z"/>
<path fill="#9F6E25" d="M65.614,18.881c0.005,1.041,0.008,2.082,0.011,3.125c-0.526,0.427-1.051,0.854-1.578,1.282c-0.525-0.43-1.05-0.86-1.575-1.288C63.519,20.959,64.567,19.919,65.614,18.881z"/>
<path fill="#A66E1F" d="M59.338,22.025c1.045-0.009,2.09-0.019,3.136-0.024c-0.001,0,0.027,0.015,0.027,0.015c0.711,0.519,1.42,1.038,2.13,1.556c-0.707,0.522-1.415,1.044-2.123,1.566l-0.012-0.012c-1.07,1.306-2.356,1.504-3.829,0.754C57.9,24.423,58.076,23.129,59.338,22.025z"/>
<path fill="#8E691D" d="M59.338,22.025c0.011,1.031,0.015,2.063,0.012,3.094c-0.419,0.458-0.839,0.913-1.262,1.367c-1.282-0.034-2.393-0.476-3.305-1.388c-0.108-1.318,0.384-2.353,1.476-3.104c0,0-0.024,0.024-0.026,0.024C57.269,22.015,58.303,22.015,59.338,22.025z"/>
<path fill="#9F6E25" d="M56.245,18.881c0,0,0.001,0,0,0.003V18.881z"/>
<path fill="#A37227" d="M62.509,25.137c-0.005-1.041-0.008-2.082-0.008-3.122c1.042-0.003,2.083-0.006,3.124-0.009c1.042-0.003,2.083-0.003,3.125,0c-0.008,1.044-0.015,2.091-0.024,3.134C66.651,25.14,64.581,25.14,62.509,25.137z"/>
<path fill="#6D4E17" d="M34.347,65.637c1.043,2.124,2.089,4.245,3.134,6.369c-1.033,1.038-2.067,2.072-3.101,3.11c-1.045,0.009-2.092,0.018-3.139,0.027c-2.078-1.053-4.155-2.105-6.233-3.159c-1.062-1.037-2.124-2.078-3.186-3.119c2.104-1.102,4.21-2.204,6.315-3.305c2.162-1.941,4.257-1.495,6.317,0.18L34.347,65.637z"/>
<path fill="#6A4E15" d="M31.228,81.387c-0.017-1.047-0.033-2.097-0.052-3.144c2.103,0.009,4.205,0.019,6.31,0.031C35.398,79.312,33.314,80.35,31.228,81.387z"/>
<path fill="#6A4E15" d="M18.724,75.162c1.057-1.053,2.113-2.106,3.169-3.162C20.837,73.056,19.781,74.109,18.724,75.162z"/>
<path fill="#A16B23" d="M31.25,25.128c-1.015,0.019-2.028,0.055-3.04,0.113c-0.026-1.068-0.055-2.139-0.084-3.21c2.094-0.015,4.188-0.03,6.282-0.046c0.456,0.415,0.914,0.827,1.372,1.242c-0.001,0.62-0.003,1.236-0.004,1.855c-0.472,0.4-0.946,0.797-1.419,1.196C33.052,26.623,32.016,26.239,31.25,25.128z"/>
<path fill="#8E691D" d="M34.369,18.841c1.041,0.024,2.083,0.046,3.123,0.073c-0.001,0-0.041-0.027-0.041-0.027c0.787,0.689,1.117,1.437,0.987,2.246c-0.133,0.836-0.312,1.254-0.537,1.257c-1.288,0.812-2.463,0.674-3.525-0.415c0,0,0.029,0.009,0.031,0.009C34.395,20.938,34.382,19.888,34.369,18.841z"/>
<path fill="#2B2419" d="M40.779,59.527c-3.146-0.067-6.293-0.131-9.439-0.195c-0.471-0.442-0.944-0.882-1.416-1.324c-0.101-1.374,0.418-2.448,1.554-3.226c1.355-0.045,2.472,0.446,3.352,1.477C36.813,57.349,38.795,58.438,40.779,59.527z"/>
<path fill="#3E2E10" d="M31.601,50.122c0.924-0.028,1.848-0.024,2.772,0.006c-0.046,1.071-0.093,2.143-0.139,3.21c-1.13,0.867-2.295,0.916-3.496,0.144C30.198,52.149,30.487,51.028,31.601,50.122z"/>
<path fill="#211D16" d="M31.642,53.4c0.865-0.024,1.732-0.046,2.594-0.061c0.215,0.97,0.409,1.944,0.587,2.92c-1.018,0.009-2.04,0.024-3.064,0.037c-1.18-0.244-1.656-0.986-1.52-2.161C30.708,53.891,31.175,53.647,31.642,53.4z"/>
<path fill="#636363" d="M31.601,50.122c0.014,1.092,0.027,2.185,0.041,3.277l-0.771-0.293c-1.14,1.05-2.429,1.288-3.868,0.705c-1.062-1.056-1.613-2.322-1.573-3.833c0.308-0.656,0.618-1.313,0.926-1.969c0.671-0.277,1.341-0.555,2.011-0.833c0.812-0.104,1.621-0.22,2.428-0.348C31.062,47.928,31.331,49.026,31.601,50.122z"/>
<path fill="#A37227" d="M53.106,28.21c0.006,1.059,0.014,2.118,0.021,3.177c-2.081-0.006-4.161-0.012-6.242-0.021c-0.005-1.004-0.008-2.005-0.009-3.009C48.898,25.958,50.976,25.943,53.106,28.21z"/>
<path fill="#8E691D" d="M53.106,28.21c-2.077,0.049-4.153,0.095-6.23,0.144c-2.087-0.042-4.176-0.085-6.265-0.131l0.035,0.04c-0.742-0.739-1.093-1.55-1.05-2.436c0.044-0.918,0.163-1.376,0.357-1.376c1.738-1.876,3.908-0.928,5.934-0.9c1.402,0.009,2.808,0.018,4.21,0.024c1.44-0.049,2.724,0.387,3.873,1.245c0.711,1.395,0.421,2.536-0.87,3.421L53.106,28.21z"/>
<path fill="#5A411B" d="M21.926,43.887c1.139,0.042,2.278,0.088,3.417,0.131c0.882,0.992,1.298,2.139,1.172,3.473c-0.151,1.3-0.623,2.475-1.375,3.543c-1.341,0.382-2.463,0.043-3.371-1.01l0.153,0.155c-0.017-1.086-0.035-2.173-0.052-3.259C21.85,45.907,21.87,44.898,21.926,43.887z"/>
<path fill="#979797" d="M25.517,46.954c-0.316-0.964-0.374-1.944-0.174-2.936c0.974-0.067,1.923,0.052,2.851,0.351c0.003,0.937,0.058,1.874,0.171,2.808c0.003,0-0.38-0.256-0.38-0.256C27.189,49.072,26.368,49.081,25.517,46.954z"/>
<path fill="#48361D" d="M21.609,56.579c-0.124-1.074-0.249-2.148-0.378-3.223c-0.004,0,1.068-0.253,1.068-0.253c0.613-0.391,1.227-0.784,1.842-1.175c0.654,0.32,1.309,0.641,1.963,0.961c0.872,1.193,1.406,2.527,1.646,3.982c-0.166,0.708-0.331,1.419-0.496,2.13c-0.56,0.467-1.12,0.934-1.68,1.404c-1.55,0.434-2.722-0.049-3.516-1.45C21.945,58.157,21.795,57.367,21.609,56.579z"/>
<path fill="#7F5A21" d="M34.456,65.741c-2.106-0.058-4.213-0.116-6.317-0.177c-0.044-0.943-0.088-1.88-0.131-2.816c0.492-0.495,0.981-0.989,1.473-1.483c0.563,0.409,1.125,0.821,1.688,1.23C32.263,63.577,33.358,64.657,34.456,65.741z"/>
<path fill="#6D4E17" d="M22.059,58.957c1.033,0.266,2.066,0.528,3.098,0.793c0.897,0.675,1.181,1.328,0.853,1.959c-0.322,0.623-0.638,0.934-0.952,0.934C24.058,61.413,23.059,60.184,22.059,58.957z"/>
<path fill="#7F5A21" d="M25.058,62.643c0.011-0.967,0.042-1.935,0.098-2.896c0.001,0.003-0.282-0.592-0.282-0.592c0.471-0.388,0.943-0.778,1.416-1.166c1.312-0.208,2.309,0.256,2.992,1.395c0.328,1.279,0.007,2.338-1.061,3.146c0,0-0.209,0.214-0.21,0.214C27.024,62.698,26.042,62.662,25.058,62.643z"/>
<path fill="#A66E1F" d="M40.599,25.101c0.015,1.053,0.03,2.108,0.046,3.162c-2.091-0.006-4.183-0.012-6.274-0.019c-1.024-0.696-1.363-1.388-1.021-2.078c0.34-0.693,0.682-1.038,1.027-1.038l-0.009,0.015c0.867-1.013,1.952-1.651,3.259-1.914c0.646,0.073,1.291,0.146,1.937,0.22C39.907,23.999,40.254,24.551,40.599,25.101z"/>
<path fill="#AA792D" d="M34.376,25.128c-0.001,1.041-0.001,2.084-0.003,3.119c-1.044,0.003-2.083,0.006-3.124,0.006c0-1.044,0-2.084,0-3.125C32.292,25.128,33.334,25.128,34.376,25.128z"/>
<path fill="#A16B23" d="M56.268,25.104c1.028,0.009,2.055,0.015,3.083,0.019c1.047,0,2.097,0.003,3.145,0.003c0.004,1.047,0.009,2.093,0.015,3.14l-1.558-0.003l-1.557,0.002c-1.048-0.006-2.1-0.012-3.149-0.018c-1.032-0.705-1.372-1.404-1.022-2.103C55.57,25.451,55.918,25.104,56.268,25.104z"/>
<path fill="#A37227" d="M56.268,25.104c-0.008,1.05-0.014,2.097-0.021,3.144c-1.048,0-2.097-0.003-3.146-0.003c0.006-1.035,0.008-2.069,0.004-3.104c1.044-1.465,2.094-1.404,3.151-0.015L56.268,25.104z"/>
<path fill="#211D17" d="M24.559,53.381c-0.757-0.082-1.515-0.174-2.265-0.274c-0.215-1.022-0.392-2.048-0.523-3.082c0.952,0.076,1.907,0.146,2.862,0.21c0.549,0.287,1.097,0.574,1.646,0.86C26.602,52.533,25.984,53.259,24.559,53.381z"/>
<path fill="#4B3610" d="M65.62,65.741c1.046-1.038,2.095-2.075,3.142-3.113C67.715,63.666,66.667,64.703,65.62,65.741z"/>
<path fill="#483010" d="M28.221,62.53c-0.067-1.041-0.121-2.078-0.16-3.119c1.024-1.254,2.109-1.373,3.264-0.174c0,0,0.012,0.101,0.014,0.098c-0.055,1.053-0.111,2.109-0.169,3.162c-0.001-0.003-1.474,0.046-1.474,0.046L28.221,62.53z"/>
<path fill="#A66E1F" d="M43.75,18.878c0.003,1.041,0.004,2.084,0.004,3.125c-1.057,0.94-2.194,1.007-3.402,0.314c-0.734-1.199-0.655-2.341,0.235-3.427C41.641,18.887,42.695,18.884,43.75,18.878z"/>
<path fill="#AA792D" d="M40.586,18.89c0.009,1.022,0.012,2.042,0.006,3.064c0,0-0.689,1.379-0.688,1.382s-1.546,0.024-1.544,0.024c0,0.003-0.814-1.312-0.814-1.312c-0.031-1.053-0.061-2.109-0.093-3.162C38.496,18.89,39.541,18.89,40.586,18.89z"/>
<path fill="#A37227" d="M40.592,21.954c1.055,0.015,2.107,0.03,3.162,0.049c1.053,0.009,2.106,0.021,3.16,0.03c0.702,0.492,1.405,0.983,2.107,1.474c-0.696,0.5-1.393,1.001-2.09,1.501c-2.11,0.031-4.221,0.061-6.333,0.092l0.027,0.027c-0.712-0.519-1.425-1.041-2.138-1.56c0.711-0.521,1.424-1.043,2.136-1.565L40.592,21.954z"/>
<path fill="#AA792D" d="M46.931,25.009c-0.019-0.992-0.024-1.983-0.019-2.976c1.032-0.015,2.062-0.027,3.091-0.042l-0.007,0.012c0.711,0.519,1.422,1.038,2.133,1.553c-0.718,0.507-1.437,1.013-2.156,1.52C48.959,25.07,47.944,25.049,46.931,25.009z"/>
<path fill="#A66E1F" d="M49.974,25.076c0.015-1.022,0.023-2.048,0.023-3.073c2.087-0.003,4.175-0.006,6.262-0.009c0,1.044-0.001,2.087-0.003,3.131c-1.05,0.003-2.1,0.009-3.151,0.015C52.061,25.119,51.017,25.098,49.974,25.076z"/>
<path fill="#AA792D" d="M37.5,25.128c-1.044,0.006-2.087,0.009-3.133,0.015c0.003-1.056,0.006-2.112,0.009-3.167c1.056,0.024,2.112,0.046,3.168,0.073c0.001,0-0.047-0.049-0.047-0.049c1.027,0.692,1.369,1.389,1.028,2.084C38.185,24.78,37.844,25.128,37.5,25.128z"/>
<path fill="#575757" d="M31.324,59.237c-1.088,0.058-2.174,0.116-3.264,0.174l0.189,0.168c-1.031-0.814-1.581-1.877-1.649-3.189c0.046-0.628,0.09-1.257,0.134-1.886c0.487-0.399,0.974-0.799,1.46-1.199c0.894-0.058,1.785-0.125,2.676-0.198c0.294,1.065,0.589,2.127,0.887,3.192C31.526,57.263,31.381,58.246,31.324,59.237z"/>
<path fill="#8F8F8F" d="M25.517,46.954c0.824-0.012,1.646-0.021,2.469-0.034c0.011,0.992-0.042,1.981-0.154,2.963c-0.375,0.793-0.751,1.587-1.127,2.377c-0.465-0.742-0.931-1.486-1.396-2.228c0,0-0.673,0.205-0.674,0.202C24.928,49.139,25.222,48.047,25.517,46.954z"/>
<path fill="#7A7A7A" d="M25.308,50.033c0.845-0.027,1.689-0.073,2.528-0.146c0.116,1.139,0.237,2.277,0.359,3.415c0,0.003-0.149-0.116-0.149-0.116c-0.459,0.739-0.919,1.478-1.38,2.213c-0.343-0.797-0.688-1.596-1.031-2.396l-1.076,0.378C24.809,52.264,25.058,51.151,25.308,50.033z"/>
<path fill="#6C6C6C" d="M25.634,53.003c0.804,0.07,1.608,0.131,2.413,0.183c0.009,1.123,0.02,2.246,0.03,3.373c-1.222,1.23-2.234,1.144-3-0.479C25.262,55.054,25.448,54.028,25.634,53.003z"/>
<path fill="#483010" d="M25.077,56.079c0.997,0.183,1.996,0.342,3,0.476c0.053,1.01,0.11,2.018,0.171,3.024c-1.123-0.137-2.248-0.274-3.374-0.418C24.959,58.133,25.027,57.105,25.077,56.079z"/>
<path fill="#8E691D" d="M37.5,25.128c0-1.041,0-2.084-0.001-3.128c1.041,0,2.084,0.003,3.126,0.003c0,1.041,0,2.084,0.001,3.125C39.584,25.128,38.542,25.128,37.5,25.128z"/>
</svg>