<?xml version="1.0" encoding="utf-8"?>
<!DOCTYPE svg PUBLIC "-//W3C//DTD SVG 1.1//EN" "http://www.w3.org/Graphics/SVG/1.1/DTD/svg11.dtd">
<svg version="1.1" xmlns="http://www.w3.org/2000/svg" xmlns:xlink="http://www.w3.org/1999/xlink" x="0px" y="0px" width="100px" height="100px" viewBox="0 0 100 100" enable-background="new 0 0 100 100" xml:space="preserve">
<path fill="#FCF651" d="M25.501,35.022c5.131-2.344,10.261-4.688,15.392-7.031c1.289-1.102,2.693-1.218,4.196-0.485c4.49,2.823,6.102,6.934,5.441,12.076c-1.727,6.604-7.969,8.884-12.385,12.949c-2.777,1.56-5.792,1.855-8.888,1.672c-2.234-0.204-4.227-1.017-5.919-2.499c-2.594-3.192-1.767-5.872,1.233-8.185c0.816-0.495,1.253-0.75,1.253-0.75c0.604-1.901,0.442-1.969-0.543-0.22c-3.526,0.589-5.877-0.302-5.879-4.352c0.841-0.568,1.769-0.833,2.782-0.803C23.236,36.529,24.344,35.742,25.501,35.022z"/>
<path fill="#6F6C23" d="M91.435,56.315c-5.331,2.93-10.664,5.862-15.996,8.795c-1.21-0.645-2.174-0.382-2.896,0.781l0.142-0.122c-1.88,1.611-4.845,1.071-6.439,3.25l0.206-0.189c-1.058,0.864-2.135,1.703-3.233,2.515c-1.034,0.29-2.068,0.58-3.104,0.87c-2.989-0.488-5.578-1.627-7.164-4.4c-0.589-1.361-0.817-2.78-0.662-4.261c3.592-8.209,11.803-9.717,18.818-12.97c2.064-0.36,4.046-0.132,5.845,0.982c1.039,0.448,1.527,1.185,1.433,2.194c0.23-1.02-0.291-1.77-0.877-2.527c0.335-1.318,1.053-2.325,2.218-3.021c1.985-0.754,3.952-0.702,5.926,0.015C89.006,49.899,90.443,52.948,91.435,56.315z"/>
<path fill="#FCF94B" d="M47.454,40.628c-1.041-4.166-2.083-8.334-3.125-12.5c-0.932-0.57-1.239-1.138-0.923-1.7c0.314-0.555,0.629-0.836,0.946-0.836c0.883-0.464,1.825-0.714,2.821-0.75c4.899-1.184,8.753,1.919,13.053,3.189c1.001-0.021,1.935,0.22,2.803,0.717c0.896,1.184,1.178,2.512,0.938,3.973c-1.088,3.729-4.442,5.509-6.901,8.072c-1.14,0.921-2.414,1.581-3.825,1.978C50.954,43.033,48.974,42.453,47.454,40.628z"/>
<path fill="#F6EC59" d="M19.4,38.196c4.126,1.849,8.252,3.696,12.376,5.542c-0.897,1.346-1.857,1.331-2.869,0.128c-2.059,1.95-4.117,3.896-6.177,5.844c-0.473,0.571-0.946,1.142-1.417,1.715c-2.057,1.142-4.219,1.331-6.476,0.739c-3.333-1.798-6.625-3.635-4.945-8.393C13.062,41.913,16.231,40.054,19.4,38.196z"/>
<path fill="#FBD537" d="M78.45,52.862c-2.023,0.159-4.048,0.317-6.071,0.479c-1.993-1.572-2.81-3.699-2.956-6.155c0.659-4.755,2.324-9.018,6.111-12.216c3.177,1.794,6.355,3.585,9.532,5.377c1.024,0.742,1.484,1.743,1.387,3.003c-0.761,2.6-3.104,3.375-5.165,4.468c-0.959,0.68-1.771,1.51-2.452,2.472c-0.169,0.857-0.302,1.718-0.397,2.585L78.45,52.862z"/>
<path fill="#6B651B" d="M91.435,56.315c-2.202-2.21-4.403-4.419-6.607-6.629c-0.66-1.145-0.59-2.265,0.107-3.366c1.894-1.663,4.064-2.676,6.616-2.783C91.512,47.794,91.474,52.054,91.435,56.315z"/>
<path fill="#FDF350" d="M75.534,34.97c-1.002,3.973-2.003,7.947-3.004,11.92c-1.31,1.214-2.707,1.328-4.202,0.342c-1.157-1.138-1.961-2.481-2.438-4.031c-0.507-2.435-0.203-4.761,0.92-6.979c1.524-2.002,3.244-3.445,5.929-1.956C73.733,34.25,74.666,34.485,75.534,34.97z"/>
<path fill="#9E9E37" d="M9.893,43.772c2.182,1.834,4.364,3.665,6.546,5.499c0.955,0.879,1.352,1.959,1.193,3.25c-1.169,2.595-3.488,3.293-6.012,3.65c-0.61,0.079-1.223,0.155-1.833,0.231C9.822,52.191,9.857,47.98,9.893,43.772z"/>
<path fill="#9D9527" d="M50.257,77.572c-0.951-0.814-1.901-1.626-2.852-2.441c-1.701-2.029-4.575-1.568-6.521-3.072l0.151,0.115c-1.092-1.349-1.331-2.835-0.716-4.461c1.833-3.086,4.503-4.521,8.107-4.123c1.68,0.399,2.895,1.382,3.646,2.936C54.457,70.697,53.276,74.286,50.257,77.572z"/>
<path fill="#F9ED44" d="M60.226,28.03c-4.353-1.062-8.702-2.124-13.053-3.189C51.523,25.906,55.873,26.968,60.226,28.03z"/>
<path fill="#F9ED44" d="M72.739,34.265c-1.142,1.086-2.283,2.176-3.425,3.262c-1.088,1.053-2.355,1.361-3.805,0.928c-2.623-1.761-3.949-3.979-2.533-7.168c0.004-0.845,0.021-1.691,0.052-2.539C66.265,30.588,69.503,32.425,72.739,34.265z"/>
<path fill="#6E6D2C" d="M53.588,65.69c2.176,2.176,4.352,4.349,6.527,6.524c-2.118,1.028-4.234,2.06-6.353,3.091C51.488,72.141,51.643,68.934,53.588,65.69z"/>
<path fill="#F4C12E" d="M91.552,43.536c-2.074,1.188-4.147,2.375-6.222,3.564c-0.484-0.509-0.969-1.022-1.454-1.532c0.359-0.604,0.719-1.208,1.079-1.816c0.037-1.135,0.073-2.271,0.111-3.406C87.227,41.409,89.39,42.475,91.552,43.536z"/>
<path fill="#655C1D" d="M53.588,65.69c0.06,3.204,0.117,6.408,0.175,9.615c-1.168,0.758-2.337,1.511-3.506,2.268c0.149-3.951,0.301-7.906,0.451-11.858c0.732-0.968,1.644-1.13,2.71-0.602L53.588,65.69z"/>
<path fill="#A19F43" d="M15.848,59.516c-2.021-1.038-4.041-2.075-6.061-3.113l0.588-0.457c1.91-1.56,4.162-1.344,6.398-1.236c2.406,0.876,3.651,2.444,3.056,5.114C18.425,60.693,17.095,60.642,15.848,59.516z"/>
<path fill="#A09F3A" d="M28.502,65.872c-2.084-1.05-4.17-2.097-6.256-3.146c0.56-0.454,1.119-0.912,1.677-1.367c2.368-0.448,4.213,0.22,5.313,2.481C28.992,64.518,28.748,65.194,28.502,65.872z"/>
<path fill="#9FA039" d="M34.752,69c-2.083-1.043-4.166-2.084-6.25-3.128l0.289-0.399c2.915-2.371,5.067-1.45,6.735,1.56C35.268,67.688,35.01,68.344,34.752,69z"/>
<path fill="#A19E3E" d="M15.848,59.516c1.164-0.049,2.33-0.095,3.494-0.141c2.711-0.797,3.632,0.354,3.212,2.957l-0.307,0.391C20.114,61.654,17.981,60.584,15.848,59.516z"/>
<path fill="#6E6D2C" d="M66.246,69.019c2.146-1.083,4.291-2.167,6.438-3.25C70.539,66.852,68.393,67.936,66.246,69.019z"/>
<path fill="#A0A037" d="M41.179,68.762c-0.047,1.136-0.096,2.271-0.145,3.409c-2.093-1.056-4.187-2.114-6.282-3.171l0.293-0.424C37.143,66.849,39.182,67.114,41.179,68.762z"/>
<path fill="#A19D33" d="M40.883,72.059c2.174,1.021,4.347,2.047,6.521,3.072C45.23,74.106,43.056,73.08,40.883,72.059z"/>
<path fill="#F9ED44" d="M44.351,25.592c-0.012,0.846-0.02,1.691-0.023,2.536c-1.146-0.046-2.292-0.091-3.436-0.137C42.046,27.191,43.198,26.392,44.351,25.592z"/>
<path fill="#F6EC59" d="M25.501,35.022c-1.106,0.791-2.213,1.581-3.319,2.371C23.288,36.603,24.394,35.813,25.501,35.022z"/>
<path fill="#6E6D2C" d="M72.544,65.891c0.966-0.26,1.932-0.521,2.896-0.781C74.492,65.433,73.526,65.695,72.544,65.891z"/>
<path fill="#6E6D2C" d="M63.219,71.344c1.077-0.836,2.154-1.675,3.232-2.515C65.375,69.669,64.296,70.508,63.219,71.344z"/>
<path fill="#FBF564" d="M69.314,43.759c0.019,1.031,0.034,2.063,0.043,3.094c-3.641,13.452-15.549,13.629-25.975,16.178c-3.164,0.692-6.154,0.195-9.001-1.294c-1.979-1.063-3.605-2.563-5.031-4.282c-0.926-1.096-1.587-2.353-2.032-3.717c-0.142-1.462,0.335-2.704,1.425-3.708c3.096,0,6.19,0.003,9.287,0.003c0,0,1.491-0.098,1.496-0.115c0.7-1.44,0.981-3.08,2.233-4.233c2.207-1.227,4.785-0.583,7.053-1.486c2.601-0.495,5.222-0.894,7.302-2.762c1.184-0.76,2.464-1.242,3.834-1.52C63.66,39.761,66.775,41.062,69.314,43.759z"/>
<path fill="#FEF144" d="M50.531,46.838c-3.11,1.05-6.221,2.099-9.332,3.15c-1.036,1.251-2.082,1.26-3.134,0.021l-0.034,0.024c3.14-3.134,6.282-6.268,9.422-9.405c2.084-0.003,4.167-0.003,6.251-0.006c1.061-1.111,2.244-1.261,3.549-0.455c0.81,1.3,0.666,2.487-0.43,3.562l-0.016,0.019C55.148,45.654,52.2,44.949,50.531,46.838z"/>
<path fill="#F6EC59" d="M28.743,50.03c0.011,0.968,0.023,1.938,0.035,2.908c-3.441,1.85-6.355,2.585-6.302-2.972c0,0,0.249-0.248,0.252-0.254C24.736,49.816,26.74,49.924,28.743,50.03z"/>
<path fill="#FEF044" d="M28.908,43.866c0.957-0.049,1.913-0.092,2.87-0.128c0.061,0.677,0.122,1.355,0.244,2.698C30.707,45.349,29.809,44.607,28.908,43.866z"/>
<path fill="#FBF55C" d="M41.35,59.366c9.335-4.172,18.672-8.341,28.007-12.513c1.058,0.012,2.113,0.021,3.171,0.034c-0.047,2.152-0.098,4.3-0.147,6.452c-6.322,3.925-12.643,7.849-18.963,11.773c-0.923,0.119-1.826,0.317-2.711,0.602c-0.745-0.488-1.562-0.687-2.449-0.602C45.673,63.537,39.772,65.945,41.35,59.366z"/>
<path fill="#FECB35" d="M85.33,47.101c-0.205,0.854-0.373,1.716-0.502,2.585c-1.997,0.201-3.996,0.403-5.993,0.604c-0.023-1.142-0.048-2.283-0.07-3.424c1.926-1.678,3.88-1.846,5.872-0.11L85.33,47.101z"/>
<path fill="#6B651B" d="M78.438,52.875c0.3,0.177,0.601,0.356,0.901,0.534c-0.296-0.181-0.592-0.363-0.89-0.547L78.438,52.875z"/>
<path fill="#FAFB46" d="M62.976,31.287c1.083,2.078,2.167,4.16,3.25,6.241c-1.006,1.233-2.27,2.078-3.793,2.539c-3.188,0.107-6.171-0.482-8.721-2.557C56.801,35.434,59.89,33.362,62.976,31.287z"/>
<path fill="#F9F641" d="M53.713,37.509c3.146,0.006,6.293,0.009,9.438,0.015c0.214,5.655-2.715,5.026-6.274,3.134c-1.058-0.012-2.113-0.024-3.171-0.037C53.707,39.585,53.708,38.547,53.713,37.509z"/>
<path fill="#A19A2C" d="M41.35,59.366c2.303,1.916,4.604,3.833,6.906,5.746c-2.357,1.218-4.716,2.433-7.077,3.649c-2.044-0.061-4.088-0.125-6.134-0.186c-2.084-1.035-4.168-2.069-6.253-3.104c-2.08-1.047-4.158-2.094-6.236-3.141c-1.072-0.985-2.142-1.972-3.213-2.957c-1.035-1.05-2.067-2.097-3.102-3.146c-1.132-0.671-1.515-1.352-1.153-2.048c0.363-0.702,0.729-1.053,1.103-1.053c0.083-1.284,0.165-2.566,0.249-3.854c2.013,0.229,4.025,0.461,6.038,0.693c2.101,0.991,4.201,1.983,6.302,2.972l0.119,0.101c1.473,2.112,4.399,1.353,6.067,3.073C37.093,57.199,39.222,58.282,41.35,59.366z"/>
<path fill="#F5CD2E" d="M84.637,46.756c-1.958,0.037-3.916,0.073-5.874,0.11c2.065-1.038,4.128-2.075,6.192-3.113C84.9,44.76,84.793,45.761,84.637,46.756z"/>
<path fill="#FBF55C" d="M56.876,40.659c2.091-1.044,4.183-2.09,6.274-3.134c1.025,0.006,2.051,0.006,3.074,0.003c1.03,0.006,2.061,0.006,3.09,0c0,2.078,0,4.153,0,6.232c-4.162-0.009-8.326-0.021-12.49-0.031C56.835,42.703,56.851,41.681,56.876,40.659z"/>
<path fill="#A19F3F" d="M16.19,53.128c0.011,1.034,0.027,2.069,0.05,3.104c-1.958-0.095-3.914-0.188-5.869-0.283c0.394-1.285,0.785-2.567,1.23-4.028C13.414,52.396,14.803,52.762,16.19,53.128z"/>
<path fill="#FBF55C" d="M50.531,46.838c2.094-1.032,4.186-2.06,6.277-3.091C54.717,44.778,52.623,45.807,50.531,46.838z"/>
<path fill="#FEF84A" d="M38.065,50.009c1.045-0.006,2.089-0.012,3.134-0.021c0,0.689,0,1.376,0,2.603C39.952,51.565,39.009,50.787,38.065,50.009z"/>
<path fill="#F7EE5A" d="M34.964,56.112c-2.022-1.022-4.045-2.048-6.068-3.073C30.919,54.065,32.942,55.09,34.964,56.112z"/>
</svg>