<?xml version="1.0" encoding="utf-8"?>
<!DOCTYPE svg PUBLIC "-//W3C//DTD SVG 1.1//EN" "http://www.w3.org/Graphics/SVG/1.1/DTD/svg11.dtd">
<svg version="1.1" xmlns="http://www.w3.org/2000/svg" xmlns:xlink="http://www.w3.org/1999/xlink" x="0px" y="0px" width="100px" height="100px" viewBox="0 0 100 100" enable-background="new 0 0 100 100" xml:space="preserve">
<path fill="#4A4A4A" d="M100,56.25c-3.134,1.01-6.268,2.021-9.402,3.027c-0.99-0.946-1.591-2.091-1.74-3.464c0.529-4.438,3.726-5.008,7.295-5.038c1.283-0.26,2.564-0.516,3.848-0.775C100,52.084,100,54.166,100,56.25z"/>
<path fill="#9C9B9C" d="M96.152,50.775c-2.035,1.287-4.072,2.578-6.109,3.866c-0.268,2.826-2.346,3.821-4.646,4.596c-2.328,0.635-4.663,0.992-7.04,0.244c-2.292-0.961-4.074-2.526-5.477-4.553c-0.787-1.429-1.204-2.964-1.262-4.593c0.502-3.25,2.021-5.966,4.396-8.222c0.723-0.308,1.446-0.62,2.171-0.928C84.176,44.382,90.165,47.577,96.152,50.775z"/>
<path fill="#5E5E5C" d="M25.184,68.283c-1.131-0.772-2.261-1.541-3.392-2.311c-1.025-1.205-1.515-2.588-1.387-4.184c0.672-2.356,2.164-4.063,4.21-5.335c2.197-1.013,4.463-1.144,6.778-0.491c2.864,0.989,5.189,2.964,7.833,4.355c1.978,0.967,3.816,2.114,4.965,4.086c0.525,1.355,0.571,2.746,0.21,4.15c-1.158,1.886-2.861,2.905-5.06,3.098c-2.661,0.32-5.26-1.202-7.953-0.312c-1.084-0.937-2.171-1.87-3.257-2.808C27.214,67.67,26.232,67.587,25.184,68.283z"/>
<path fill="#7B1312" d="M56.019,19.119c1.077,3.019,2.156,6.04,3.235,9.058c-0.639,1.147-0.919,2.377-0.841,3.689c-0.379,1.264-1.074,2.313-2.083,3.159c-1.203,0.543-2.447,0.656-3.729,0.342c-2.528-1.395-2.805-4.053-3.591-6.421c-0.362-1.206-0.538-2.441-0.523-3.705c0.083-1.276,0.517-2.417,1.305-3.427l0.083-0.617c1.023-0.409,2.076-0.708,3.168-0.873C54.165,20.245,55.15,19.827,56.019,19.119z"/>
<path fill="#A1A1A1" d="M15.517,46.692c2.094-0.998,4.188-1.996,6.282-2.994c1.922-1.804,3.653-0.437,5.424,0.326c1.752,1.139,3.041,2.729,4.312,4.343c1.344,1.709,2.069,3.604,1.827,5.811c-0.426,1.389-1.227,2.506-2.403,3.357c-2.128,0.354-4.266,0.269-6.407,0.158c-4.396-0.939-8.194-2.743-10.271-7.056C14.087,49.133,14.5,47.818,15.517,46.692z"/>
<path fill="#65625D" d="M6.565,58.597c-0.003-2.646-0.006-5.295-0.011-7.94c1.654,0.678,3.303,0.049,4.958-0.013c1.108,0.309,2.095,0.837,2.969,1.587c0.862,0.767,1.737,1.514,2.631,2.243c1.488,0.977,2.798,2.109,3.497,3.809c0.259,1.175,0.218,2.341-0.079,3.501c-0.176,1.208-0.729,2.209-1.659,3.003c-3.172-1.733-6.345-3.467-9.516-5.2C8.66,58.594,7.731,58.264,6.565,58.597z"/>
<path fill="#791813" d="M78.113,37.375c0.024,1.27,0.051,2.539,0.075,3.809c-0.002,0.003,0.202-0.476,0.202-0.476c-1.119,0.992-2.407,1.666-3.86,2.026c-4.408-0.052-6.552-2.67-7.512-6.623c-0.111-1.434,0.104-2.829,0.6-4.178c1.597-3.04,5.11-1.718,7.379-3.232c1.001,2.93,2.002,5.859,3.003,8.786L78.113,37.375z"/>
<path fill="#807F80" d="M25.017,46.597c-1.073-0.967-2.145-1.935-3.218-2.899c2.052-1.038,4.104-2.075,6.157-3.113c1.015-0.918,2.074-1.782,3.185-2.585c0.934-0.381,1.904-0.601,2.911-0.659c0.719,0.058,1.438,0.116,2.159,0.174c1.459,0.165,2.808,0.647,4.065,1.404c1.029,1.114,1.56,2.411,1.519,3.937c-2.281,6.65-8.032,5.218-13.008,5.593C27.248,48.404,25.992,47.787,25.017,46.597z"/>
<path fill="#595959" d="M37.59,68.762c1.973,0.037,3.945,0.074,5.917,0.11c0.716-0.082,1.431-0.162,2.148-0.244c4.254,0.211,6.632,2.377,6.957,6.677c-0.484,2.097-0.974,4.193-3.113,5.326c-0.874-0.879-1.749-1.755-2.623-2.634c-0.832-0.876-1.785-1.038-2.861-0.485c-1.129-0.882-2.258-1.761-3.389-2.64c-1.431-1.123-3.297-1.657-4.378-3.25C35.904,70.297,36.352,69.345,37.59,68.762z"/>
<path fill="#313131" d="M49.5,80.631c0.127-2.351,0.255-4.7,0.382-7.053c2.438-3.4,5.345-4.893,9.259-2.265c0.695,0.821,0.979,1.679,0.852,2.572c-0.132,0.91-0.299,1.367-0.504,1.367l0.107-0.329c-1.021,0.897-2.021,1.818-2.994,2.768C54.234,78.671,51.866,79.65,49.5,80.631z"/>
<path fill="#A59B9B" d="M39.678,40.833c-0.851-0.116-1.69-0.299-2.515-0.546c-0.816-0.543-1.341-1.294-1.575-2.246c-0.435-0.403-0.947-0.635-1.537-0.699c2.166-0.998,4.329-1.993,6.494-2.988c0.681-0.473,1.361-0.946,2.042-1.419c0.705,0.437,1.41,0.873,2.113,1.306c1.18,2.42,1.059,4.736-0.545,6.937C42.583,42.133,41.089,42.017,39.678,40.833z"/>
<path fill="#797978" d="M12.707,52.963c-2.051-0.769-4.102-1.538-6.151-2.307c2.986-1.321,5.974-2.643,8.961-3.964c-0.118,1.043-0.235,2.087-0.353,3.134C14.829,51.251,14.01,52.295,12.707,52.963z"/>
<path fill="#4A4A4A" d="M84.269,56.171c1.926-0.51,3.85-1.017,5.775-1.526c0.185,1.545,0.369,3.092,0.556,4.636c-2.078,1.068-4.155,2.137-6.233,3.208l-1.283-0.876c-0.635-0.897-0.85-1.89-0.646-2.97C82.822,57.65,83.433,56.827,84.269,56.171z"/>
<path fill="#AA6D42" d="M49.833,25.208c0.236,1.059,0.473,2.118,0.709,3.177c1.144,1.728,1.027,3.607,0.679,5.518c-0.822,1.062-1.914,1.608-3.245,1.703c-0.597-0.248-1.19-0.492-1.785-0.742c-0.236-0.601-0.473-1.199-0.708-1.801c0.35-0.54,0.702-1.08,1.053-1.623c0.287-2.127,0.574-4.257,0.86-6.385C48.293,23.77,49.109,23.758,49.833,25.208z"/>
<path fill="#4A4A4A" d="M78.113,65.613c-2.083,1.04-4.164,2.084-6.245,3.125c-0.438-0.439-0.876-0.883-1.314-1.325c-0.418-1.202-0.443-2.42-0.129-3.652c1.026-1.782,2.548-2.622,4.615-2.424c1.164,0.528,2.086,1.337,2.765,2.421C77.907,64.377,78.011,64.993,78.113,65.613z"/>
<path fill="#65625D" d="M37.59,68.762c0.04,1.315,0.081,2.634,0.122,3.949l-0.083,1.44c-2.08-0.937-4.16-1.874-6.24-2.811C33.457,70.483,35.523,69.623,37.59,68.762z"/>
<path fill="#AA6D42" d="M68.863,29.901c0.195,1.571,0.391,3.143,0.586,4.715c-0.573,0.293-1.146,0.589-1.72,0.882c-1.347-0.061-2.437-0.61-3.23-1.715c-0.271-1.389,0.181-2.43,1.475-3.061c1.031-0.589,2.062-1.175,3.093-1.764L68.863,29.901z"/>
<path fill="#C9B82D" d="M68.863,29.901l0.201-0.943c1.977-0.088,3.951-0.174,5.93-0.259C72.953,29.102,70.908,29.502,68.863,29.901z"/>
<path fill="#9A9998" d="M46.535,31.44c0.005,1.077,0.009,2.157,0.014,3.234c-0.696,0.08-1.393,0.162-2.089,0.241c-1.305-0.186-2.609-0.375-3.914-0.562C42.542,33.383,44.538,32.41,46.535,31.44z"/>
<path fill="#4A4A4A" d="M84.366,62.488c-2.084,1.04-4.169,2.084-6.253,3.125l0.017,0.018c-0.426-0.524-0.852-1.053-1.278-1.58c0.149-1.416,0.824-2.481,2.1-3.146c2.125-0.547,3.95-0.064,5.428,1.599L84.366,62.488z"/>
<path fill="#831414" d="M65.974,30.722c0.027,1.282,0.053,2.56,0.081,3.842c0.405,1.211,0.209,2.298-0.691,3.231c-1.122,0.571-2.263,0.617-3.428,0.138c-0.804-0.94-1.237-2.033-1.35-3.26c0.19-1.242,0.823-2.206,1.84-2.933C63.608,31.402,64.791,31.064,65.974,30.722z"/>
<path fill="#4A4A4A" d="M71.868,68.738c-2.085,1.043-4.167,2.084-6.25,3.125c-0.313-0.563-0.626-1.127-0.938-1.688c0.156-0.625,0.312-1.251,0.467-1.876c0.525-0.376,1.05-0.748,1.575-1.123c2.038-0.52,3.771-0.043,5.156,1.577L71.868,68.738z"/>
<path fill="#4A4A4A" d="M59.488,75.253c-0.25-1.364-0.499-2.731-0.749-4.095c0.557-0.342,1.114-0.684,1.671-1.025c2.078-0.431,3.825,0.134,5.22,1.748l-0.012-0.018C63.574,72.995,61.531,74.124,59.488,75.253z"/>
<path fill="#CEB7B1" d="M53.066,21.39c-1.064-0.061-2.128-0.122-3.191-0.189c1.073-0.647,2.147-1.288,3.22-1.929C53.086,19.977,53.075,20.685,53.066,21.39z"/>
<path fill="#C9B82D" d="M53.066,21.39c0.009-0.705,0.018-1.413,0.027-2.118c0.952-0.47,1.924-0.522,2.92-0.156C55.034,19.876,54.05,20.633,53.066,21.39z"/>
<path fill="#B41C0E" d="M49.833,25.208c-0.811-0.088-1.624-0.14-2.438-0.153c0.799-1.08,1.599-2.16,2.396-3.241C49.805,22.946,49.819,24.078,49.833,25.208z"/>
<path fill="#77736B" d="M56.42,31.152c0.944-0.992,1.889-1.983,2.834-2.976c0.083,1.022,0.077,2.042-0.019,3.061c-0.479,0.342-0.96,0.684-1.44,1.025C57.337,31.894,56.878,31.522,56.42,31.152z"/>
<path fill="#77736B" d="M18.871,64.786c0-0.574-0.046-1.147-0.137-1.716c0.85-1.458,1.855-1.504,2.994-0.326c0.021,1.074,0.042,2.151,0.064,3.226C20.818,65.576,19.845,65.183,18.871,64.786z"/>
<path fill="#7B7B7B" d="M62.426,31.741c0.036,0.958-0.101,1.889-0.407,2.795c-1.174,0.443-2.221,0.217-3.162-0.595c-0.656-1.144-0.478-2.087,0.676-2.795c0,0-0.297,0.098-0.297,0.094C60.299,31.406,61.362,31.573,62.426,31.741z"/>
<path fill="#77736B" d="M25.184,68.283c1.028-0.498,2.011-0.412,2.948,0.25l-1.489,0.059L25.184,68.283z"/>
<path fill="#797978" d="M6.565,58.597c1.043,0.009,1.973,0.339,2.791,0.989C8.373,59.402,7.442,59.076,6.565,58.597z"/>
<path fill="#8B8B8B" d="M31.141,38.001c-1.062,0.861-2.123,1.724-3.185,2.585C29.018,39.725,30.079,38.861,31.141,38.001z"/>
<path fill="#77736B" d="M37.629,74.151c0,0,0.079-1.458,0.081-1.449c0.974,0.729,1.946,1.449,2.917,2.17C39.627,74.631,38.628,74.393,37.629,74.151z"/>
<path fill="#77736B" d="M44.016,77.512c1.043-0.391,1.997-0.229,2.861,0.485C45.879,78.101,44.925,77.939,44.016,77.512z"/>
<path fill="#4A4A4A" d="M56.602,77.691c0.998-0.922,1.996-1.843,2.994-2.768C58.598,75.846,57.6,76.77,56.602,77.691z"/>
<path fill="#3D3724" d="M75.2,50.87c0.119,0.787,0.098,1.568-0.067,2.35c-0.56,0.458-1.121,0.919-1.685,1.379c-2.282,0.681-4.301,0.287-5.991-1.468c-0.684-1.354-0.986-2.786-0.91-4.3c0.89-3.027,2.303-5.588,5.691-6.378c1.589,0,2.899,0.58,3.892,1.837C76.65,46.601,76.426,48.807,75.2,50.87z"/>
<path fill="#260B05" d="M75.2,50.87c-0.209-2.326-0.418-4.654-0.627-6.979c-0.914-0.931-1.101-1.657-0.563-2.179c0.431-0.418,0.881-0.628,1.354-0.628c1.006-0.15,2.016-0.275,3.027-0.375C77.327,44.095,76.264,47.482,75.2,50.87z"/>
<path fill="#7B7B7B" d="M84.269,56.171c-0.035,0.852-0.029,1.706,0.02,2.558c-0.894,1.745-2.439,2.2-4.244,2.136c-1.187-0.098-2.106-0.647-2.758-1.642c0.009-0.564,0.019-1.133,0.029-1.697c0.467-0.317,0.936-0.638,1.402-0.955C80.568,56.437,82.419,56.302,84.269,56.171z"/>
<path fill="#9E9E9E" d="M75.133,53.22c1.193,1.114,2.386,2.23,3.582,3.348c0.003,0.003-0.347-0.187-0.347-0.187c-1.178,1.02-2.436,1.179-3.784,0.349c-0.847-1.328-0.76-2.588,0.263-3.784L75.133,53.22z"/>
<path fill="#A4A4A4" d="M37.499,64.816c-2.051-1.847-4.103-3.692-6.154-5.539c0.447-0.439,0.894-0.876,1.341-1.315c1.835-0.857,3.604-0.714,5.309,0.36c0.814,0.988,1.272,2.121,1.372,3.396C39.135,62.985,38.53,64.029,37.499,64.816z"/>
<path fill="#A4A4A4" d="M25.071,56.141c1.761,0.042,3.521,0.088,5.284,0.131c1.156,0.473,1.66,1.104,1.51,1.901c-0.165,0.876-0.403,1.315-0.717,1.315l0.197-0.211c-2.194,0.135-4.39,0.266-6.584,0.399l-0.807-1.156c-0.001,0,0.092-1.41,0.09-1.41S25.071,56.141,25.071,56.141z"/>
<path fill="#4A4A4A" d="M21.728,62.744c-1.013-0.037-2.011,0.067-2.994,0.32c0.006-1.224,0.014-2.457,0.02-3.689c0.441-0.434,0.882-0.87,1.325-1.303c1.929-0.662,3.603-0.33,4.947,1.275l-0.265,0.33C23.749,60.699,22.738,61.722,21.728,62.744z"/>
<path fill="#A4A4A4" d="M37.499,64.816c-0.005-0.748-0.009-1.495-0.015-2.24c1.506-1.776,3.379-2.069,5.5-1.357c1.165,0.86,1.709,2.014,1.631,3.46c-0.485,0.485-0.971,0.968-1.456,1.453C41.274,65.692,39.387,65.253,37.499,64.816z"/>
<path fill="#A4A4A4" d="M43.508,68.872c-0.159-0.912-0.27-1.828-0.342-2.747c-0.006,0.007,0.563-0.479,0.563-0.479c1.208-1.08,2.596-1.495,4.195-1.142c1.593,1.224,3.006,2.582,1.099,4.544c-1.738,1.789-3.342,1.071-4.713-0.635L43.508,68.872z"/>
<path fill="#292110" d="M53.118,34.28c1.019,0.195,2.04,0.202,3.063,0.021c0.456,0.516,0.914,1.035,1.371,1.553c0.125,1.416-0.202,2.722-0.928,3.94c-1.518,1.645-3.329,2.417-5.583,1.868c-2.826-1.789-3.519-4.126-1.829-7.08l1.338-0.394c0.453-0.681,0.905-1.361,1.358-2.042C52.311,32.858,52.715,33.569,53.118,34.28z"/>
<path fill="#642112" d="M53.118,34.28l-1.286,0.016c0,0-1.284-0.098-1.282-0.104c-0.003-1.938-0.006-3.873-0.008-5.808C51.401,30.35,52.259,32.315,53.118,34.28z"/>
<path fill="#420000" d="M59.532,31.147c0.1,1.175,0.199,2.347,0.298,3.519c-0.531,0.36-1.063,0.717-1.593,1.08c-0.629-0.128-1.258-0.262-1.886-0.394c0,0-0.167-1.047-0.17-1.05c0.075-1.05,0.151-2.1,0.233-3.149C57.457,31.213,58.495,31.213,59.532,31.147z"/>
<path fill="#4E3535" d="M31.148,59.488c-0.266-1.074-0.53-2.146-0.793-3.217c0.007-1.096,0.015-2.188,0.023-3.284c-0.443-1.538-0.246-2.984,0.593-4.349c5.133-3.979,10.077-3.027,14.932,0.568c0.938,1.37,1.479,2.877,1.639,4.525c-0.058,2.585-1.004,4.755-2.977,6.451c-2.397,0.833-4.799,0.897-7.202,0.019C35.293,59.964,33.22,59.726,31.148,59.488z"/>
<path fill="#A4A4A4" d="M12.707,52.963c0.821-1.047,1.643-2.09,2.461-3.137c3.299,2.103,6.599,4.208,9.901,6.314c0.001,0-0.092,0.134-0.092,0.134c-1.274,1.685-3.113,1.489-4.899,1.468c-1.192-0.223-2.324-0.616-3.389-1.202c-1.573-0.937-2.893-2.157-4.022-3.592L12.707,52.963z"/>
<path fill="#A4A4A4" d="M31.057,49.967c-0.142,1.025-0.368,2.032-0.679,3.021c-0.754-0.994-1.508-1.989-2.26-2.981c0.485-0.348,0.971-0.692,1.456-1.037C30.068,49.301,30.563,49.634,31.057,49.967z"/>
<path fill="#A4A4A4" d="M25.017,46.597c1.018-0.085,2.037-0.156,3.057-0.21c0.789,0.787,1.061,1.584,0.816,2.39c-0.246,0.809-0.498,1.215-0.755,1.215l-0.017,0.015C27.085,48.868,26.05,47.732,25.017,46.597z"/>
<path fill="#4A4A4A" d="M18.753,59.375c-2.072-1.267-4.144-2.533-6.216-3.803c2.207-1.016,4.312-1.159,6.18,0.724l0.006-0.019c2.156,1.065,2.148,2.115-0.024,3.149L18.753,59.375z"/>
<path fill="#797978" d="M18.717,56.296c-2.06-0.238-4.12-0.477-6.181-0.718c0.067-0.879,0.11-1.754,0.131-2.63C14.684,54.065,16.701,55.182,18.717,56.296z"/>
<path fill="#642112" d="M75.363,41.083c-0.188,0.955-0.45,1.889-0.785,2.804c-0.889,0.031-1.771,0.083-2.654,0.153c-1.238,0.943-2.54,0.992-3.894,0.266c-1.56-1.718-2.018-3.711-1.48-5.951c0.433-1.37,1.009-2.68,1.711-3.931c0,0,1.188,0.195,1.188,0.192C71.421,36.771,73.393,38.925,75.363,41.083z"/>
<path fill="#77736B" d="M78.113,37.375c-0.339-0.18-0.676-0.363-1.015-0.543c0.301,0.217,0.602,0.437,0.901,0.656L78.113,37.375z"/>
<path fill="#A1A1A1" d="M28.135,49.991c-0.02-1.2-0.042-2.399-0.061-3.602c3.871-1.855,7.742-3.705,11.609-5.557c1.17-0.037,2.345-0.076,3.52-0.113c0.765-1.077,1.807-1.596,3.129-1.55c1.161,0.562,2.022,1.422,2.585,2.584c0.406,1.218,0.491,2.454,0.261,3.717c-0.494,1.175-1.183,2.225-2.061,3.153c-1.05,0.741-2.212,1.187-3.488,1.343c-4.19,0-8.382,0-12.572,0C30.083,49.979,29.108,49.988,28.135,49.991z"/>
<path fill="#BCBCBC" d="M35.588,38.04c0.668,0.647,1.193,1.395,1.577,2.246C36.638,39.536,36.113,38.788,35.588,38.04z"/>
<path fill="#949494" d="M44.309,68.414c0.844-0.982,1.689-1.965,2.533-2.951c-3.819-6.854,1.427-9.268,5.908-12.057c1.346-0.721,2.778-1.176,4.285-1.401c2.269-0.089,4.507,0.159,6.717,0.662c1.362,0.62,2.54,1.502,3.549,2.601c0.938,1.138,1.576,2.436,1.906,3.872c0.035,2.18-0.442,4.272-1.146,6.323c-0.712,1.248-1.666,2.273-2.864,3.073l0.143-0.378c-0.539,1.346-1.534,2.048-2.985,2.103c-0.673,0.003-1.346,0.006-2.02,0.009c-0.504,0.445-1.009,0.892-1.514,1.337c0,0-0.081-0.442-0.081-0.445c-2.952,0.806-5.905,1.614-8.857,2.42C48.023,71.856,46.166,70.136,44.309,68.414z"/>
<path fill="#BCBCBC" d="M46.325,40.015c-1.036,0.235-2.072,0.467-3.116,0.705c0.412-1.938,0.828-3.873,1.248-5.808c0.705-0.04,1.401-0.119,2.092-0.238l0.083-0.018C48.998,36.585,48.794,38.364,46.325,40.015z"/>
<path fill="#313131" d="M78.721,59.863c1.856-0.372,3.712-0.748,5.567-1.129c0.031,1.251,0.06,2.512,0.091,3.769c-2.153-0.046-4.307-0.092-6.461-0.138C77.219,61.225,77.436,60.373,78.721,59.863z"/>
<path fill="#9A9998" d="M46.325,40.015c0.102-1.785,0.205-3.57,0.307-5.356c0.859-0.045,1.719-0.07,2.581-0.076c1.229,2.219,2.459,4.434,3.689,6.653c0.625,0.644,0.9,1.333,0.824,2.075c-0.08,0.766-0.206,1.147-0.379,1.147c-0.978,0.751-2.075,1.184-3.312,1.248c-1.225-0.213-2.238-0.806-3.068-1.724C46.752,42.661,46.538,41.339,46.325,40.015z"/>
<path fill="#827F7D" d="M78.721,59.863c-0.281,0.83-0.547,1.666-0.801,2.506c-0.002-0.004,0.133-0.119,0.133-0.119c-0.594,1.275-1.488,1.544-2.686,0.806c-1.187,0.702-2.37,1.406-3.556,2.108c-1.823,2.771-3.943,2.154-6.149,0.537c-0.003-1.883-0.006-3.766-0.009-5.646c3.679-4.526,7.849-3.076,12.072-0.998L78.721,59.863z"/>
<path fill="#313131" d="M65.662,65.701c2.051-0.177,4.1-0.354,6.149-0.534c0.022,1.193,0.044,2.39,0.067,3.586c-2.224-0.07-4.448-0.141-6.678-0.214C65.209,67.569,65.364,66.623,65.662,65.701z"/>
<path fill="#313131" d="M75.367,63.056c0.898-0.26,1.794-0.528,2.686-0.806c0.025,1.126,0.052,2.255,0.077,3.381C77.208,64.773,76.288,63.913,75.367,63.056z"/>
<path fill="#8B8B8B" d="M68.261,34.424c0.312,0.9,0.421,1.825,0.329,2.774c-0.422,0.498-0.847,0.995-1.27,1.496c-0.529-0.385-1.059-0.769-1.588-1.154c-0.084-1.01,0.021-2.002,0.318-2.975C66.787,34.467,67.523,34.421,68.261,34.424z"/>
<path fill="#A4A4A4" d="M59.83,34.665c0.727-0.089,1.456-0.131,2.188-0.128c0.325,0.858,0.523,1.743,0.595,2.655c0.783,1.328,0.626,2.533-0.476,3.616c-1.398,0.571-2.658,0.354-3.786-0.647c-0.784-2.097-0.803-4.102,0.692-5.93L59.83,34.665z"/>
<path fill="#A4A4A4" d="M62.659,40.134c-0.03-0.983-0.046-1.962-0.046-2.942c1.039,0.119,2.08,0.235,3.119,0.351c0-0.003-0.298-0.122-0.298-0.122c1.028,0.699,1.421,1.675,1.264,2.89c-0.775,0.931-1.753,1.346-2.967,1.163C63.375,41.028,63.017,40.579,62.659,40.134z"/>
<path fill="#313131" d="M59.26,68.539c2.027-0.125,4.056-0.247,6.08-0.378c0.097,1.235,0.194,2.478,0.29,3.72c-2.268-0.092-4.535-0.18-6.806-0.271c0.118-1.001,0.24-2.002,0.365-3L59.26,68.539z"/>
<path fill="#B9A39E" d="M49.684,44.187c1.228-0.22,2.455-0.439,3.683-0.659c0.867-0.925,1.929-1.474,3.151-1.651c1.077,0.205,2.116,0.602,3.061,1.105c0.886,0.351,1.841,0.641,2.843,0.772c1.611,0.141,3.093,0.617,4.364,1.679c1.32,1.214,1.97,2.734,2.144,4.479c0.203,0.992,0.439,1.978,0.713,2.954c-0.787,1.176-1.863,1.901-3.271,2.112c-3.35,0.274-6.757,0.112-9.988,1.297l-0.139-0.146c-2.489,2.188-4.625,0.122-6.873-0.564c-0.941-0.83-1.647-1.831-2.081-3.013c-0.282-1.827-0.176-3.637,0.339-5.419C48.168,46.051,48.854,45.068,49.684,44.187z"/>
<path fill="#292110" d="M68.929,49.911c-1.176-1.001-2.351-2.005-3.527-3.006c-0.725-1.126-0.768-2.258-0.027-3.399c1.113-0.836,2.203-0.766,3.272,0.085c1.093,0.149,2.184,0.296,3.276,0.446C70.925,45.996,69.927,47.955,68.929,49.911z"/>
<path fill="#7B7B7B" d="M65.815,54.047c1.275-0.394,2.552-0.784,3.827-1.178c1.735,0.023,3.47,0.049,5.205,0.076c-0.11,0.836-0.339,1.642-0.687,2.41c-2.524,3.889-5.474,2.866-8.518,0.739l0.172-0.708L65.815,54.047L65.815,54.047z"/>
<path fill="#ACACAC" d="M65.643,56.095c2.841-0.244,5.682-0.488,8.521-0.735c1.399,0.338,2.801,0.68,4.205,1.021c-0.081,0.925-0.296,1.819-0.643,2.677c-4.025,0.329-8.049,0.659-12.072,0.992C65.648,58.734,65.646,57.413,65.643,56.095z"/>
<path fill="#949494" d="M37.363,60.202c2.156-0.192,4.311-0.382,6.465-0.574c0.732,0.708,0.954,1.392,0.666,2.051c-0.282,0.645-0.556,0.968-0.818,0.968c-2.063-0.024-4.127-0.052-6.192-0.073C37.487,61.783,37.445,60.992,37.363,60.202z"/>
<path fill="#797978" d="M18.699,59.427c0.009-1.05,0.017-2.1,0.024-3.149c2.086-0.003,4.17-0.003,6.256-0.006c0.005,1.028,0.02,2.054,0.046,3.076C22.916,59.375,20.808,59.399,18.699,59.427z"/>
<path fill="#978E8D" d="M43.676,62.647c0.061-1.007,0.111-2.011,0.151-3.019c0.316-2.228,0.63-4.452,0.945-6.68c1.869-1.071,3.622-0.394,5.371,0.356c2.034,0.94,4.066,1.883,6.101,2.823c-3.135,3.112-6.267,6.226-9.401,9.339c-1.034,0.094-2.072,0.155-3.113,0.18C43.708,64.646,43.69,63.645,43.676,62.647z"/>
<path fill="#181008" d="M59.044,34.231c0.192,1.914,0.385,3.827,0.575,5.74c-0.793,1.45-1.946,1.938-3.517,1.315c-0.878-0.799-1.169-1.599-0.878-2.401c0.293-0.8,0.586-1.2,0.879-1.2c0.086-0.781,0.168-1.565,0.248-2.34C57.21,34.885,58.107,34.509,59.044,34.231z"/>
<path fill="#393118" d="M56.104,37.686c0.051,1.081,0.102,2.161,0.151,3.241c1.129,0.702,1.454,1.291,0.982,1.776c-0.415,0.421-0.85,0.635-1.314,0.635c-0.846,0.141-1.697,0.205-2.557,0.189c-0.283-0.739-0.438-1.501-0.465-2.292C53.97,40.051,55.037,38.87,56.104,37.686z"/>
<path fill="#CCB3AD" d="M50.143,53.305c-1.79-0.119-3.582-0.237-5.371-0.356c-0.382-0.992-0.762-1.987-1.142-2.981c0.137-1.282,0.275-2.561,0.414-3.839c1.076-0.638,2.026-1.428,2.85-2.368c0,0,0.072,0.22,0.072,0.223c0.917-0.052,1.824,0.015,2.721,0.202c0.182,1.013,0.361,2.023,0.535,3.036c0.71,0.54,0.944,1.083,0.71,1.624c-0.237,0.54-0.474,0.813-0.711,0.813C50.194,50.87,50.168,52.088,50.143,53.305z"/>
<path fill="#831414" d="M68.647,43.591c-0.678,0.165-1.365,0.226-2.062,0.18c-0.605-0.043-1.213-0.083-1.818-0.125c-0.592-1.181-0.447-2.259,0.435-3.241c0.296-0.977,0.374-1.975,0.233-2.988c1.053-0.073,2.105-0.146,3.157-0.22C68.61,39.328,68.629,41.461,68.647,43.591z"/>
<path fill="#8B8B8B" d="M46.894,43.759c-0.952,0.791-1.902,1.583-2.853,2.371C44.994,45.337,45.943,44.546,46.894,43.759z"/>
<path fill="#838383" d="M65.815,54.047c0,0-0.004,1.349-0.003,1.343c-3.142,0.293-6.286,0.589-9.43,0.885C59.526,55.533,62.672,54.788,65.815,54.047z"/>
<path fill="#A4A4A4" d="M59.19,68.609c-0.348-0.668-0.694-1.333-1.042-2.002c0.032-0.015,0.065-0.033,0.098-0.049c0.339,0.659,0.676,1.321,1.015,1.98L59.19,68.609z"/>
<path fill="#B03429" d="M55.923,43.338c0.202-0.79,0.313-1.596,0.332-2.411c1.122-0.314,2.245-0.632,3.366-0.952c1.004,0.213,2.018,0.265,3.038,0.159l-0.229,0.692c1.167,0.675,2.046,1.618,2.638,2.829c0,0,1.506,0.122,1.511,0.119c-0.389,1.044-0.782,2.087-1.178,3.131c-2.01-0.058-4.021-0.113-6.03-0.171l0.16,0.192C58.329,45.731,57.125,44.534,55.923,43.338z"/>
<path fill="#AA6D42" d="M65.068,43.655c-0.88-0.943-1.759-1.886-2.638-2.829c0.917-0.183,1.842-0.323,2.771-0.421C65.157,41.489,65.113,42.572,65.068,43.655z"/>
<polygon fill="#AA6D42" points="59.371,46.734 58.739,47.373 59.531,46.924 "/>
<path fill="#AA6D42" d="M50.221,49.655c-0.077-0.812-0.077-1.624,0-2.436c0.338,0.571,0.728,1.123,0.962,1.736C51.22,49.051,50.559,49.414,50.221,49.655z"/>
</svg>