<?xml version="1.0" encoding="utf-8"?>
<!DOCTYPE svg PUBLIC "-//W3C//DTD SVG 1.1//EN" "http://www.w3.org/Graphics/SVG/1.1/DTD/svg11.dtd">
<svg version="1.1" xmlns="http://www.w3.org/2000/svg" xmlns:xlink="http://www.w3.org/1999/xlink" x="0px" y="0px" width="100px" height="100px" viewBox="0 0 100 100" enable-background="new 0 0 100 100" xml:space="preserve">
<path fill="#1A160F" d="M90.849,56.347c-1.116,7.324-2.231,14.646-3.347,21.967c-0.817-0.717-1.517-1.538-2.087-2.433c-0.464-0.771-0.688-1.632-0.672-2.371c-0.006,0.187,0.122-0.784,0.11-0.552c-0.013,0.231-0.46-0.024-0.447,0.207c0.012,0.235,0.209,0.665,0.224,0.849c0.156,0.925,0.46,1.587,0.974,2.249c0.569,0.821,1.186,1.48,1.898,2.051c-4.162,2.105-8.323,4.208-12.486,6.314c-1.94-1.67-2.678-3.751-2.184-6.113c-0.057,0.156,0.26-0.925,0.16-0.787c-0.099,0.138-0.451-0.595-0.521-0.477c-0.581,0.479-0.982,0.94-1.325,1.588c-0.479,0.857-0.726,1.681-0.8,2.618c-0.182,1.639-0.618,3.149-1.16,4.647c-0.131,0.562-0.259,1.104-0.388,1.651c-2.093,1.04-4.187,2.078-6.28,3.115c-0.862-0.149-1.692-0.402-2.478-0.738c0.011,0.027-1.237-0.183-1.226-0.146c0.011,0.037-1.124,0.519-1.117,0.543c-0.641,0.617-1.043,1.343-1.205,2.21c-0.005,0.006-0.198,1.267-0.198,1.267c-2.126,0.961-4.253,1.919-6.38,2.881c-4.343-4.636-4.894-10.224-4.071-16.159c0.444-2.43,1.491-4.574,3.1-6.427c1.015-1.154,2.212-2.121,3.541-2.894c3.966-1.706,7.688-3.925,11.42-6.112c1.251-0.583,2.539-1.104,3.827-1.608c4.364-1.938,8.507-4.373,13.04-5.951c1.281-0.479,2.596-0.846,3.939-1.096C86.753,56.451,88.801,56.412,90.849,56.347z"/>
<path fill="#262016" d="M50.069,78.476c-0.051,6.137-0.103,12.277-0.154,18.414c-2.092-0.955-4.183-1.91-6.274-2.862c-0.148-1.008-0.447-1.969-0.867-2.82c0.027,0.062-0.83-1.017-0.812-0.946c0.019,0.07-1.168-0.314-1.146-0.271c0.021,0.043-1.106,0.396-1.099,0.409c-0.71,0.348-1.465,0.528-2.255,0.559c-2.11-1.065-4.219-2.127-6.33-3.192c-0.183-1.449-0.745-2.795-1.155-4.147c-0.172-0.774-0.403-1.568-0.667-2.252c0.019,0.095-0.749-0.619-0.725-0.507c0.023,0.113-0.78,0.449-0.752,0.547c-0.337,0.674-0.708,1.245-1.085,1.861c0,0.052-0.735,0.876-0.74,0.9c-0.006,0.024-1.071,0.461-1.071,0.461c-4.173-2.082-8.347-4.166-12.52-6.25c0,0,0.23-0.764,0.232-0.775c0-0.016,0.571,0.58,0.58,0.573c0.009-0.009-0.785,0.22-0.785,0.22c-1.079-7.354-2.156-14.709-3.234-22.066c2.375,0.118,4.762,0.072,7.124,0.448c1.752,0.399,3.432,1.017,5.084,1.712c1.604,0.757,3.149,1.633,4.738,2.426c1.145,0.33,2.248,0.757,3.34,1.221c1.598,0.77,3.05,1.816,4.732,2.438c1.145,0.4,2.211,0.946,3.241,1.572c2.573,1.645,5.281,3.058,7.927,4.596c1.152,0.589,2.148,1.361,3.032,2.298C49.649,74.649,49.967,76.532,50.069,78.476z"/>
<path fill="#473D29" d="M28.258,47.284c7.245-3.985,14.491-7.971,21.738-11.957c1.626,1.81,2.352,3.854,1.655,6.287c-1.938,3.485-4.593,6.292-7.948,8.456c-2.223,1.065-4.591,1.337-7.018,1.288C33.268,51.263,30.643,49.521,28.258,47.284z"/>
<path fill="#473D29" d="M49.999,40.1c0-1.593-0.002-3.187-0.003-4.776c7.243,3.989,14.486,7.975,21.729,11.96c-1.669,1.526-3.4,2.966-5.589,3.72c-3.016,0.55-5.989,0.525-8.884-0.635c-2.859-1.227-4.712-3.473-6.144-6.131C50.507,42.926,50.14,41.544,49.999,40.1z"/>
<path fill="#1D1810" d="M78.1,72.043c-1.027,4.196-2.056,8.39-3.084,12.586c-2.072,1.043-4.146,2.084-6.218,3.128c0.001,0-0.108-0.214-0.108-0.214c-2.171-4.132-2.312-8.252,0.063-12.362l-0.009,0.012c1.674-1.867,4.591-1.245,6.256-3.128h-0.003C76.024,71.057,77.059,71.096,78.1,72.043z"/>
<path fill="#1D1910" d="M62.473,81.412c0.016,3.155,0.031,6.308,0.046,9.46c-2.075,1.044-4.148,2.088-6.224,3.132c0,0.003-0.104-0.214-0.104-0.214c-2.175-4.132-2.313-8.249,0.059-12.356l-0.006,0.006C58.312,79.605,60.389,79.589,62.473,81.412z"/>
<path fill="#D8CAB7" d="M17.269,60.117C17,59.543,16.571,59.339,15.982,59.5c-2.226-1.986-2.182-4-0.075-6.039c3.012-0.037,6.024-0.073,9.036-0.109c1.973,1.892,2.021,4.064,0.943,6.405C23.108,62.103,20.225,61.978,17.269,60.117z"/>
<path fill="#282216" d="M46.877,84.564c-1.079,3.155-2.158,6.308-3.236,9.464c-2.06-1.025-4.118-2.048-6.178-3.073c0.018-1.096,0.037-2.191,0.055-3.287C40.104,85.022,42.768,82.617,46.877,84.564z"/>
<path fill="#D1C0AA" d="M28.258,47.284c3.064,0.034,6.128,0.07,9.193,0.104c1.886,1.883,1.979,4.025,0.914,6.339c-2.533,2.545-5.423,2.737-8.562,1.306c-0.546-0.558-1.092-1.116-1.637-1.678C28.197,51.331,28.228,49.307,28.258,47.284z"/>
<path fill="#D8CAB7" d="M75.023,53.4c2.962,0.045,5.922,0.094,8.884,0.143c2.322,1.868,2.292,3.787,0.136,5.759l0.133-0.106c-2.829,2.841-6.04,2.432-9.358,1.099C73.226,57.947,73.038,55.639,75.023,53.4z"/>
<path fill="#C0AC91" d="M65.542,47.464c2.062-0.061,4.122-0.122,6.184-0.18c0.035,2.038,0.07,4.08,0.105,6.119c-0.546,0.437-1.093,0.872-1.639,1.309c-2.194,0.607-4.113,0.22-5.655-1.55C63.662,51.049,63.817,49.118,65.542,47.464z"/>
<path fill="#463A25" d="M15.908,53.461c0.024,2.014,0.049,4.025,0.073,6.039c-2.255-1.056-4.512-2.111-6.769-3.17C11.443,55.374,13.675,54.419,15.908,53.461z"/>
<path fill="#463A25" d="M84.043,59.301c-0.044-1.919-0.09-3.839-0.136-5.759c2.313,0.938,4.626,1.871,6.939,2.805C88.579,57.334,86.312,58.319,84.043,59.301z"/>
<path fill="#BDA98D" d="M24.85,59.165c0.032-1.938,0.064-3.876,0.094-5.813c1.073,0,2.147,0,3.221,0.003c0.001,0-0.149-0.198-0.149-0.198c1.991,1.867,5.157,3.299,2.58,6.881C28.46,61.191,26.506,61.145,24.85,59.165z"/>
<path fill="#D1C0AA" d="M75.023,53.4c0.008,1.907,0.016,3.814,0.022,5.725c-1.623,2.011-3.557,2.032-5.671,0.879c-2.506-3.604,0.589-4.986,2.682-6.766c0,0-0.224,0.165-0.226,0.165C72.895,53.403,73.96,53.4,75.023,53.4z"/>
<path fill="#282216" d="M34.351,84.555c-1.071,1.071-2.144,2.139-3.216,3.21c-2.066-1.044-4.131-2.09-6.195-3.137c-0.001,0,0.165-0.135,0.165-0.135C28.203,82.013,31.286,82.019,34.351,84.555z"/>
<path fill="#B9AC9A" d="M46.853,75.808c-0.898-0.326-1.816-0.589-2.752-0.787c-3.916-3.781-1.923-6.869,1.153-9.845c1.379-0.864,2.884-1.313,4.507-1.383c2.479,0.22,4.584,1.245,6.355,2.979c1.85,2.793,3.122,5.579-0.295,8.191c-0.896,0.18-1.767,0.439-2.615,0.774C51.101,76.901,48.982,76.907,46.853,75.808z"/>
<path fill="#473D29" d="M68.534,59.677c2.171-0.184,4.341-0.369,6.512-0.553c3.043,0.024,6.086,0.046,9.128,0.07c-5.214,3.198-10.428,6.394-15.642,9.592c-0.859-0.846-1.582-1.798-2.192-2.838c-0.31-1.185-0.322-2.372-0.084-3.568c0.277-0.537,0.559-1.07,0.838-1.604C67.572,60.41,68.053,60.044,68.534,59.677z"/>
<path fill="#473D29" d="M55.821,74.963c-0.674-2.081-1.349-4.166-2.021-6.247c-0.511-0.336-1.022-0.672-1.53-1.01c-0.016-0.611-0.032-1.225-0.049-1.835c0.678-1.056,1.604-1.818,2.734-2.353c0.591-0.158,1.19-0.296,1.782-0.467c0.608-0.062,1.224-0.082,1.837-0.156c1.855-0.039,3.675,0.229,5.454,0.785c1.165,0.47,2.063,1.263,2.702,2.34c0.354,1.285-0.054,2.299-1.114,3.076C62.351,71.054,59.087,73.007,55.821,74.963z"/>
<path fill="#241E13" d="M84.375,78.314c1.041-4.166,2.083-8.334,3.125-12.5c1.036,0.781,1.353,1.81,1.044,3.052c-1.365,1.935-2.827,3.833-2.641,6.412C85.822,76.507,85.335,77.53,84.375,78.314z"/>
<path fill="#241D13" d="M56.25,81.433c-0.018,4.119-0.038,8.239-0.059,12.356C56.211,89.67,56.231,85.549,56.25,81.433z"/>
<path fill="#241D13" d="M68.752,75.18c-0.021,4.122-0.041,8.242-0.063,12.362C68.711,83.422,68.731,79.302,68.752,75.18z"/>
<path fill="#1D1810" d="M87.5,68.939c0-1.041,0-2.084,0-3.125v-0.006c1.044-1.008,2.086-0.959,3.127,0.006c-1.041,2.088-2.081,4.172-3.122,6.256c-0.942-0.692-1.259-1.389-0.946-2.084C86.872,69.287,87.185,68.939,87.5,68.939z"/>
<path fill="#1D1910" d="M87.5,68.939c0.002,1.044,0.004,2.088,0.005,3.131c-0.001,1.041-0.003,2.078-0.005,3.119c-1.042,1.383-2.082,1.318-3.125,0C85.418,73.105,86.46,71.023,87.5,68.939z"/>
<path fill="#251E13" d="M74.999,72.064c-2.084,1.044-4.17,2.084-6.256,3.128C70.829,74.148,72.915,73.108,74.999,72.064z"/>
<path fill="#3C3322" d="M46.853,75.808c2.118-0.024,4.236-0.045,6.354-0.07c-1.047,0.913-2.092,1.822-3.137,2.734C48.996,77.587,47.926,76.697,46.853,75.808z"/>
<path fill="#251E13" d="M62.473,81.412c-2.076,0.009-4.151,0.019-6.229,0.027C58.321,81.43,60.397,81.42,62.473,81.412z"/>
<path fill="#A8967E" d="M65.616,69.097c-0.253-0.918-0.418-1.849-0.493-2.798c0.849-1.19,1.914-1.502,3.232-0.803c0.06,1.099,0.117,2.194,0.177,3.29L67.09,69.1L65.616,69.097z"/>
<path fill="#1D1910" d="M90.627,65.814c-1.042,0-2.084-0.003-3.127-0.006C88.543,65.811,89.585,65.814,90.627,65.814z"/>
<path fill="#221C12" d="M78.1,72.043c-1.033,0.013-2.067,0.019-3.103,0.021C76.032,72.058,77.065,72.052,78.1,72.043z"/>
<path fill="#1D1810" d="M84.375,75.189c1.043,0,2.083,0,3.125,0c0,1.041,0,2.084,0,3.125c0.002,0,0,0,0,0c-1.04,0-2.082,0-3.125,0C84.375,77.273,84.375,76.23,84.375,75.189z"/>
<path fill="#473D29" d="M46.869,65.808c-0.923,3.07-1.846,6.143-2.769,9.213c-3.264-2.097-6.528-4.196-9.792-6.293c-0.447-1.474-0.164-2.786,0.848-3.948c2.525-1.828,5.322-2.274,8.333-1.643c0.659,0.317,1.315,0.65,1.973,0.977C45.934,64.675,46.402,65.24,46.869,65.808z"/>
<path fill="#292317" d="M18.645,68.86c-2.075,3.174-4.15,6.345-6.227,9.519l0.027,0.018c0.019-1.07,0.037-2.142,0.055-3.216C9.896,68.548,12.088,66.584,18.645,68.86z"/>
<path fill="#352B1B" d="M18.645,68.86c-2.047,2.108-4.097,4.214-6.145,6.32c-1.012-2.961-2.023-5.921-4.111-12.04C13.858,66.193,16.252,67.526,18.645,68.86z"/>
<path fill="#2F2619" d="M31.235,75.189c1.038,1.037,2.075,2.075,3.111,3.113c-2.413,3.146-4.697,6.671-9.355,3.148c-1.019-1.064-2.04-2.13-3.059-3.194C24.273,74.926,26.69,71.829,31.235,75.189z"/>
<path fill="#2F2619" d="M46.877,84.564c-3.12,1.034-6.239,2.069-9.36,3.104c0.024-2.094,0.047-4.184,0.072-6.277c2.062-1.791,4.109-1.818,6.142,0.049C44.779,82.48,45.827,83.523,46.877,84.564z"/>
<path fill="#473D29" d="M24.85,59.165c2.199,0.158,4.399,0.317,6.598,0.476c0.197,0.534,0.396,1.068,0.594,1.6c-0.269,1.138-0.862,2.065-1.779,2.789c-1.553,0.607-3.414,0.122-4.799,1.337c-2.73-1.749-5.461-3.498-8.192-5.249C19.796,59.799,22.323,59.482,24.85,59.165z"/>
<path fill="#352B1B" d="M31.235,75.189c-3.101,1.022-6.203,2.048-9.303,3.07c0.366-2.237,0.731-4.475,1.32-8.078C26.662,72.32,28.949,73.754,31.235,75.189z"/>
<path fill="#292317" d="M24.991,81.451c3.119-1.049,6.238-2.1,9.355-3.148c0.001,2.084,0.004,4.168,0.004,6.253c-3.083-0.019-6.166-0.04-9.249-0.059C25.048,83.481,25.011,82.467,24.991,81.451z"/>
<path fill="#362C1B" d="M43.731,81.439c-2.047-0.016-4.095-0.03-6.143-0.049C39.637,81.406,41.683,81.423,43.731,81.439z"/>
<path fill="#654F31" d="M25.463,65.366c1.706-0.858,3.41-1.716,5.116-2.573c0.534,0.434,1.07,0.864,1.604,1.297c-0.111,0.681-0.223,1.358-0.334,2.039c-0.569,0.388-1.138,0.775-1.709,1.162c-0.613-0.311-1.229-0.625-1.842-0.937C27.347,66.04,26.403,65.711,25.463,65.366z"/>
<path fill="#D1C0AA" d="M34.9,66.339c-0.261,0.781-0.459,1.574-0.592,2.389l-1.348,0.095l-1.351-0.006c-1.112-0.757-1.515-1.767-1.1-3.07l1.381,0.184c0.555-0.327,1.11-0.653,1.666-0.979C34.006,65.415,34.453,65.879,34.9,66.339z"/>
<path fill="#292317" d="M30.51,65.747c0.368,1.022,0.734,2.048,1.1,3.07c-1.106-0.824-2.211-1.645-3.315-2.466C29.032,66.137,29.769,65.936,30.51,65.747z"/>
<path fill="#E3DACD" d="M49.999,40.1c0.816,0.546,1.693,0.967,2.634,1.254c1.801,2.832,0.364,4.932-1.56,6.925c-1.871,1.028-3.786,1.113-5.745,0.277c-0.473-0.473-0.943-0.946-1.415-1.422C45.941,44.791,47.971,42.444,49.999,40.1z"/>
<path fill="#C6B298" d="M37.45,52.972c0-1.861,0.001-3.723,0.001-5.585c2.155-0.085,4.309-0.167,6.463-0.253c-0.001,0-0.22-0.302-0.22-0.302c1.938,2.103,1.705,4.269,0.194,6.473C41.659,54.855,39.501,54.944,37.45,52.972z"/>
<path fill="#D1C0AA" d="M65.542,47.464c0.006,1.855,0.014,3.71,0.021,5.566c-2.146,3.013-4.971,3.165-8.126,1.936c-2.058-1.453-2.919-3.415-2.524-5.915c0.414-0.644,0.829-1.284,1.242-1.928C59.284,47.238,62.412,47.351,65.542,47.464z"/>
<path fill="#B5A287" d="M49.709,46.508c0.975-1.718,1.95-3.436,2.925-5.154c1.172,1.926,2.347,3.849,3.521,5.771c0-0.003,0.271-0.134,0.271-0.134C54.036,48.928,51.803,48.7,49.709,46.508z"/>
<path fill="#4A3F2A" d="M37.45,52.972c2.139,0.168,4.278,0.333,6.418,0.5c0.348,0.604,0.694,1.212,1.043,1.819c0.044,1.435-0.29,2.774-0.992,4.028c-1.333,1.785-3.098,2.869-5.286,3.266c-2.976,0.095-5.541-0.809-7.504-3.144c0,0,0.317,0.201,0.317,0.198c-1.145-2.16-2.287-4.324-3.432-6.484C31.161,53.094,34.305,53.033,37.45,52.972z"/>
<path fill="#4A3F2A" d="M56.162,53.458c3.133-0.144,6.267-0.284,9.4-0.428c2.164,0.07,4.329,0.138,6.494,0.208c-1.175,2.148-2.348,4.294-3.522,6.442c0-0.003,0.331-0.208,0.331-0.208c-1.095,1.154-2.306,2.154-3.752,2.842c-1.508,0.436-3.021,0.86-4.445,1.541c-1.411,0.58-3.093,0.555-4.175,1.87c-1.044-0.046-2.088-0.088-3.131-0.134c-1.116-0.714-1.929-1.69-2.489-2.894c-0.274-1.3-0.288-2.6-0.027-3.906c0.679-1.907,1.755-3.53,3.435-4.712C54.904,53.87,55.533,53.662,56.162,53.458z"/>
<path fill="#473D29" d="M53.144,62.778c0.021,0.942,0.094,1.88,0.217,2.813c0.002,0-0.394,0.388-0.394,0.388c-0.905,1.056-1.885,1.077-2.925,0.207c-1.058-0.128-2.115-0.253-3.173-0.378l-0.152-0.162c-0.809-1.416-0.655-2.713,0.464-3.9C49.399,60.754,51.442,60.779,53.144,62.778z"/>
<path fill="#BEAB92" d="M50.042,66.186c0.963-0.244,1.938-0.314,2.925-0.207c0.086,0.97,0.363,1.883,0.832,2.737C52.547,67.874,51.295,67.029,50.042,66.186z"/>
<path fill="#E3DACD" d="M59.272,62.485c0.992-0.813,1.982-1.627,2.975-2.438c1.823,1.455,4.884,0.336,6.146,2.957c0.212,0.836,0.2,1.666-0.036,2.496c-1.077,0.266-2.153,0.534-3.232,0.8l-1.062-0.342l-1.111,0.085c-1.275,0.903-2.528,0.827-3.761-0.085l0.052,0.043c-0.792-0.788-1.052-1.572-0.778-2.351C58.734,62.873,59.003,62.485,59.272,62.485z"/>
<path fill="#A8967E" d="M68.392,63.004c-2.048-0.986-4.097-1.972-6.146-2.957c2.206-0.192,4.412-0.382,6.619-0.574C68.708,60.65,68.551,61.826,68.392,63.004z"/>
<path fill="#D1C0AA" d="M59.19,65.958c1.254,0.027,2.507,0.058,3.761,0.085C61.698,66.015,60.443,65.985,59.19,65.958z"/>
<path fill="#D1C0AA" d="M59.272,62.485c-0.009,1.172-0.018,2.341-0.028,3.513c-0.916-0.113-1.833-0.202-2.752-0.272C57.419,64.645,58.346,63.565,59.272,62.485z"/>
<path fill="#CDBCA4" d="M31.13,59.442c3.113,0.195,6.224,0.391,9.335,0.586c2.661,0.998,5.62,1.847,2.724,5.563c-2.762,0.25-5.525,0.497-8.289,0.748c-0.429-0.318-0.854-0.642-1.277-0.971c-0.75-0.813-1.355-1.722-1.813-2.726l-1.231,0.149C30.762,61.675,30.947,60.559,31.13,59.442z"/>
<path fill="#55462D" d="M43.189,65.591c-0.908-1.853-1.816-3.708-2.724-5.563c0.894-1.205,1.788-2.414,2.683-3.622c2.147-0.076,3.519,1.077,4.502,2.841c0.371,1.291,0.144,2.444-0.775,3.445c-0.021,0.985-0.075,1.972-0.159,2.954C45.541,65.628,44.365,65.61,43.189,65.591z"/>
<path fill="#E3DACD" d="M31.811,62.643c0.605,0.909,1.211,1.819,1.816,2.729c-0.562,0.241-1.139,0.427-1.735,0.559C31.865,64.835,31.838,63.739,31.811,62.643z"/>
<path fill="#473D29" d="M49.709,46.508c2.238,0.162,4.479,0.321,6.717,0.482c-0.088,2.154-0.177,4.31-0.264,6.467l0.225-0.274c-4.25,3.589-8.5,3.592-12.75,0.003l0.233,0.286c-0.058-2.212-0.116-4.425-0.174-6.64C45.701,46.725,47.704,46.619,49.709,46.508z"/>
<path fill="#CFBEA7" d="M43.636,53.186c4.25,0,8.499-0.003,12.749-0.003c-1.12,2.288-2.241,4.577-3.363,6.866c0,0-1.497-0.238-1.497-0.235s-1.512-0.095-1.512-0.095s-1.509,0.116-1.509,0.119l-1.494,0.251c-1.286-1.228-2.574-2.454-3.862-3.684C43.311,55.335,43.474,54.26,43.636,53.186z"/>
<path fill="#654F31" d="M46.876,62.692c0.042-0.87,0.087-1.736,0.134-2.603l-0.195-1.103c2.083-1.067,4.205-1.028,6.354-0.226l-0.146,1.288c0.045,0.909,0.084,1.818,0.121,2.729C51.054,62.75,48.965,62.719,46.876,62.692z"/>
<path fill="#D8CAB7" d="M53.168,58.761c-2.117,0.076-4.235,0.149-6.354,0.226C48.933,58.911,51.051,58.837,53.168,58.761z"/>
</svg>