<?xml version="1.0" encoding="utf-8"?>
<!DOCTYPE svg PUBLIC "-//W3C//DTD SVG 1.1//EN" "http://www.w3.org/Graphics/SVG/1.1/DTD/svg11.dtd">
<svg version="1.1" xmlns="http://www.w3.org/2000/svg" xmlns:xlink="http://www.w3.org/1999/xlink" x="0px" y="0px" width="100px" height="100px" viewBox="0 0 100 100" enable-background="new 0 0 100 100" xml:space="preserve">
<path fill="#841707" d="M50.341,96.57c-2.037-0.761-4.074-1.521-6.111-2.283c-1.52-2.39-4.613-1.929-6.529-3.598l0.464,0.14c-1.797-2.008-4.762-1.604-6.73-3.262l0.169,0.207c-0.926-1.028-1.674-2.176-2.271-3.43c0.844-5.13,8.461-7.01,6.407-13.511c-0.101-1.431-0.447-2.773-1.096-4.056c-1.127-1.959-1.527-4.144-2.13-6.28c-0.717-2.292-1.248-4.56,0.151-6.799c3.237-3.903,5.591-8.448,9.124-12.131c1.471-1.102,3.101-1.785,4.919-2.06c2.994-0.137,5.489,0.772,7.245,3.314c2.637,13.449,0.58,27.026,1.218,40.524C55.454,88.446,54.205,92.987,50.341,96.57z"/>
<path fill="#5A0F05" d="M93.934,24.67c0.13,12.979,0.81,25.989,0.111,38.922c-0.269,4.971-3.681,9.774-5.66,14.654c-2.019,1.627-4.398,1.44-6.755,1.352c-2.711-0.308-3.95-2.026-4.341-4.541c-0.104-1.479-0.105-2.976-0.003-4.455c0.334-2.112,0.845-4.199,1.477-6.241c2.698-6.561-0.377-11.651-4.308-16.507c-0.234-1.327-0.261-2.686-0.18-4.016c-0.187-1.944-0.597-3.845-1.372-5.682c-0.606-1.239-1.078-2.512-1.479-3.827c-0.144-1.419,0.072-2.771,0.626-4.074c1.085-1.867,2.675-3.198,4.508-4.266c1.14-0.781,2.345-1.456,3.605-2.017c1.329-0.29,2.681-0.461,4.042-0.507c1.341-0.018,2.688-0.024,4.032-0.024C90.217,23.468,92.246,23.276,93.934,24.67z"/>
<path fill="#740F06" d="M34.627,9.76c0.954-0.29,1.923-0.36,2.907-0.208c0.737,0.003,1.474,0.006,2.211,0.009c3.019,0.546,5.817-0.46,8.649-1.211c3.033-0.095,5.35,1.98,8.103,2.686c1.286,0.445,2.415,1.169,3.351,2.13c0.755,0.974,1.245,2.106,1.457,3.314c0.179,1.104,0.365,2.249,0.6,3.375c0.151,0.546,0.271,1.105,0.415,1.664c0.107,0.564,0.191,1.132,0.284,1.709c-0.194,1.825-0.79,3.54-1.313,5.301c-0.454,1.254-1.113,2.353-2.021,3.327c-1.624,1.291-3.288,2.484-5.162,3.378c-2.084,0.629-4.215,0.662-6.358,0.598c-2.934-0.171-5.673-1.214-8.508-1.84c-2.177-0.473-4.355-0.918-6.549-1.321c-1.501-0.351-2.808-1.059-3.953-2.081c-0.856-1.291-1.387-2.701-1.598-4.236c-0.194-4.993,3.544-8.329,5.267-12.512C33.102,12.454,33.841,11.093,34.627,9.76z"/>
<path fill="#9E1908" d="M31.92,27.698c0.951,0.165,1.9,0.33,2.851,0.498c1.34,1.153,1.884,2.603,1.637,4.354c-0.81,1.514-2.044,2.503-3.697,2.967c-2.426,0.366-4.855,0.366-7.283,0.012c-3.076-0.875-6.116-1.874-9.114-2.972c-1.863-1.575-2.678-3.723-3.238-5.997c0.253-2.365,1.631-4.074,3.325-5.582c2.843-0.653,4.982-2.768,7.674-3.738c2.232-0.625,3.227-2.512,4.339-4.275c0.987-0.342,2.005-0.516,3.049-0.525c1.108-1.233,2.219-1.175,3.331-0.009c-0.98,4.27-1.959,8.539-2.939,12.805c-0.844,0.571-1.115,1.126-0.815,1.667C31.334,27.432,31.627,27.698,31.92,27.698z"/>
<path fill="#881808" d="M18.86,81.375c-1.976-0.937-3.954-1.874-5.93-2.811c-1.854-2.188-4.81-3.437-5.591-6.543c-0.006-2.137-0.012-4.272-0.019-6.408c0.994-1.169,2.074-2.256,3.24-3.26c0.703-0.32,1.404-0.638,2.108-0.955c1.542-0.184,3.085-0.269,4.639-0.269c2.649-0.165,4.396,1.278,5.855,3.266c1.207,1.083,2.436,2.127,3.703,3.14c0.569,0.599,1.129,1.188,1.695,1.785c0.877,1.453,1.355,3.016,1.44,4.706c0.027,3.434,0.063,6.86-3.781,8.582C23.661,82.821,21.099,83.072,18.86,81.375z"/>
<path fill="#8B1708" d="M9.929,65.609c-0.87,0-1.74,0-2.608,0.004c-0.05-13.62-0.1-27.243-0.149-40.866c1.55-1.477,3.462-1.297,5.368-1.168c1.161,0.644,2.019,1.568,2.585,2.777c0.612,1.193,0.961,2.448,1.013,3.787c-0.88,3.339-0.987,6.753-1.152,10.175c-0.177,3.623-0.29,7.239-0.362,10.864c-0.279,3.739,0.525,7.617-1.487,11.118C12.125,63.458,11.055,64.56,9.929,65.609z"/>
<path fill="#580F05" d="M50.341,96.57c0.279-4.05,0.56-8.103,0.841-12.155c0.886-1.182,1.663-2.43,2.34-3.745c0.666-1.349,1.605-2.456,2.866-3.283c0.732-0.135,1.462-0.269,2.192-0.403c1.508,0.141,2.875,0.638,4.085,1.554c1.915,2.475,2.292,5.398,2.446,8.386c-0.437,1.429-1.101,2.741-1.991,3.94l0.131-0.208c-1.902,1.725-5.045,1.279-6.534,3.729C54.592,95.114,52.466,95.844,50.341,96.57z"/>
<path fill="#AB1D09" d="M53.794,14.966c-2.146-0.836-4.293-1.672-6.438-2.509c-1.949-1.858-5.196-0.061-6.949-2.466c-0.663-1.26-0.47-2.374,0.575-3.341c0.888-0.406,1.817-0.571,2.789-0.498c2.6-1.99,5.562-1.453,8.479-1.218c1.354,0.613,2.444,1.547,3.296,2.762c0.887,1.206,1.291,2.548,1.129,4.047C55.897,12.979,54.947,14.063,53.794,14.966z"/>
<path fill="#BB220A" d="M81.965,18.695c1.042,0.192,2.082,0.384,3.123,0.573c1.079,0.873,2.129,1.773,3.152,2.71l-0.03-0.558c0.657,0.665,1.315,1.333,1.973,2.002c-0.687,0.638-1.373,1.279-2.06,1.917l0.109-0.345c-1.875,1.779-4.864,1.3-6.642,3.277l0.438,0.223c-2.426,1.117-4.443,0.125-6.391-1.233c-1.455-2.002-1.547-4.227-1.071-6.543c0.731-1.382,1.83-2.353,3.295-2.905C79.394,17.328,80.764,17.621,81.965,18.695z"/>
<path fill="#B21F09" d="M57.083,18.533c-0.056-0.97-0.177-1.932-0.361-2.887c0.093-2.17,0.513-4.172,2.729-5.24c2.127-0.213,4.165,0.577,6.275,0.546c1.437,0.085,2.715,0.58,3.837,1.477c1.013,0.031,1.994,0.22,2.944,0.574c0.882,1.303,1.247,2.738,1.096,4.306c-1.136,2.265-3.396,2.915-5.479,3.814c-3.531,1.578-7.071,3.424-10.406-0.384C57.505,20.004,57.294,19.269,57.083,18.533z"/>
<path fill="#601106" d="M81.616,78.055c2.256,0.064,4.511,0.128,6.768,0.192c-2.129,1.028-4.257,2.057-6.386,3.085c-2.165,1.765-4.459,1.624-6.82,0.458c-1.006-1.514-1.024-3.033-0.059-4.571C77.547,75.467,79.673,76.065,81.616,78.055z"/>
<path fill="#E2260C" d="M53.566,6.067c-3.265,0.027-6.529,0.058-9.795,0.085c3.282-0.793,6.564-1.587,9.845-2.38c0.488,0.394,0.979,0.788,1.467,1.181C54.578,5.322,54.071,5.694,53.566,6.067z"/>
<path fill="#631005" d="M75.431,84.317c-2.032,1.102-4.063,2.2-6.095,3.299c-0.744-0.303-1.487-0.607-2.232-0.909c-1.154-1.197-1.788-2.628-1.897-4.288c0.204-0.772,0.408-1.548,0.611-2.319c0.531-0.596,1.063-1.193,1.592-1.788c1.506-0.751,3.032-0.791,4.576-0.119c1.148,1.116,2.063,2.398,2.74,3.854C74.961,82.804,75.195,83.561,75.431,84.317z"/>
<path fill="#8F1808" d="M7.34,72.022c1.863,2.182,3.728,4.361,5.591,6.543C11.067,76.383,9.203,74.203,7.34,72.022z"/>
<path fill="#E2260C" d="M72.23,15.677c0.101-0.888,0.194-1.782,0.276-2.673c2.037,1.074,4.074,2.148,6.111,3.223l-0.151,1.499l0.132,0.964c-1.789,1.901-3.791,2.762-6.271,1.282C71.166,18.564,71.135,17.133,72.23,15.677z"/>
<path fill="#E2260C" d="M25.478,16.66c-2.092,1.578-4.184,3.155-6.274,4.733c-0.676-0.467-1.351-0.937-2.025-1.403c0.664-0.482,1.327-0.965,1.993-1.447c2.103-0.989,4.206-1.978,6.308-2.966L25.478,16.66z"/>
<path fill="#E2260C" d="M19.171,18.543c0.015,0.952,0.026,1.907,0.032,2.856c-0.732,1.138-1.463,2.283-2.194,3.427c-1.285,1.642-2.66,1.721-4.125,0.235l0.076,0.006c-0.715-0.565-1.43-1.129-2.146-1.691c0.694-0.592,1.389-1.181,2.083-1.77C14.989,20.584,17.079,19.565,19.171,18.543z"/>
<path fill="#8F1808" d="M18.86,81.375c2.209-0.039,4.417-0.079,6.625-0.119c3.323-1.324,4.318,0.146,3.932,3.274c-0.696,0.431-1.392,0.861-2.087,1.291c-0.676-0.458-1.352-0.918-2.028-1.376C23.155,83.423,21.007,82.398,18.86,81.375z"/>
<path fill="#631005" d="M76.006,81.402c1.996-0.021,3.991-0.046,5.99-0.07c-2.188,0.995-4.376,1.993-6.565,2.988c0-0.003,0.098,0.115,0.098,0.115c-0.824-0.891-1.233-1.949-1.282-3.158C74.832,81.32,75.418,81.363,76.006,81.402z"/>
<path fill="#8F1808" d="M25.302,84.445c1.081-0.019,2.161-0.033,3.243-0.049c1.173-1.139,2.219-1.093,3.114,0.336c-0.021,1.013-0.04,2.026-0.055,3.039C29.503,86.664,27.402,85.553,25.302,84.445z"/>
<path fill="#B9210A" d="M53.76,9.479c-0.063-1.135-0.128-2.271-0.192-3.409c-0.001-0.003-0.12-1.138-0.12-1.138c1.362-0.07,2.555,0.348,3.575,1.251c1.022,0.024,2.013,0.214,2.97,0.574c0.4,0.534,0.801,1.068,1.202,1.602c-0.232,0.625-0.464,1.251-0.693,1.874c-1.053,0.846-2.246,1.374-3.579,1.584C55.705,11.258,54.642,10.492,53.76,9.479z"/>
<path fill="#8F1808" d="M31.434,87.567c2.243,1.089,4.486,2.176,6.729,3.262C35.921,89.743,33.676,88.653,31.434,87.567z"/>
<path fill="#631005" d="M63.12,90.863c-0.042-1.117-0.081-2.237-0.122-3.354c0.317-0.579,0.636-1.159,0.953-1.736c2.17-0.977,3.732,0.04,5.138,1.569c0,0,0.246,0.271,0.247,0.271C67.264,88.699,65.191,89.779,63.12,90.863z"/>
<path fill="#8F1808" d="M37.7,90.69c2.176,1.199,4.352,2.398,6.528,3.598C42.052,93.088,39.876,91.889,37.7,90.69z"/>
<path fill="#B8220A" d="M66.176,12.473c-2.105,0.012-4.211,0.021-6.316,0.033c-0.484-0.521-0.97-1.041-1.455-1.563c0.487-0.519,0.973-1.041,1.458-1.559l0.14-0.15c1.114-1.089,2.204-1.12,3.266,0.077c1.024,0.021,2.016,0.21,2.976,0.571c0.844,0.598,1.114,1.181,0.813,1.749C66.762,12.192,66.469,12.473,66.176,12.473z"/>
<path fill="#E2260C" d="M25.478,16.66l0.001-1.083c0.978-0.87,1.956-1.743,2.934-2.612C27.434,14.194,26.456,15.427,25.478,16.66z"/>
<path fill="#E2260C" d="M12.898,21.606c0.021,1.153,0.043,2.304,0.063,3.458c-1.93-0.104-3.86-0.21-5.789-0.317C9.08,23.7,10.99,22.653,12.898,21.606z"/>
<path fill="#E2260C" d="M88.123,25.339c0.028-1.306,0.057-2.609,0.085-3.918c1.909,1.083,3.816,2.167,5.726,3.25C91.997,24.893,90.059,25.116,88.123,25.339z"/>
<path fill="#631005" d="M56.717,94.385c2.178-1.242,4.355-2.484,6.532-3.729C61.073,91.898,58.896,93.14,56.717,94.385z"/>
<path fill="#E2260C" d="M57.022,6.183c-1.19-0.412-2.382-0.827-3.573-1.245c-0.002-0.006,0.167-1.166,0.167-1.166C54.752,4.578,55.887,5.38,57.022,6.183z"/>
<path fill="#E2260C" d="M40.982,6.65c0.114,0.913,0.174,1.831,0.175,2.75c-1.228,1.349-2.002,1.056-2.382-0.659l-0.954-0.104l-0.289,0.915C38.684,8.585,39.833,7.617,40.982,6.65z"/>
<path fill="#E3240C" d="M63.267,9.311c-1.091-0.024-2.182-0.046-3.269-0.07c-0.017-0.833-0.021-1.657-0.007-2.484C61.084,7.608,62.175,8.46,63.267,9.311z"/>
<path fill="#C5200B" d="M34.793,12.43c-1.109,0.003-2.22,0.006-3.33,0.009c1.054-0.894,2.109-1.789,3.163-2.679C34.773,10.645,34.829,11.536,34.793,12.43z"/>
<path fill="#E2260C" d="M88.24,21.979c-1.051-0.903-2.103-1.807-3.152-2.71C86.138,20.172,87.189,21.075,88.24,21.979z"/>
<path fill="#E2260C" d="M66.176,12.473c0.002-0.864,0.024-1.728,0.067-2.591c1.106,0.848,2.213,1.696,3.319,2.548C68.433,12.445,67.306,12.457,66.176,12.473z"/>
<path fill="#E2260C" d="M78.467,17.725l0.151-1.499c1.115,0.821,2.23,1.645,3.348,2.469C80.799,18.372,79.633,18.048,78.467,17.725z"/>
<path fill="#500B04" d="M22.551,71.726c-1.145-0.04-2.289-0.083-3.433-0.122c-1.61-2.506-3.563-4.642-6.33-5.908l-0.001,0.231c-0.856-0.997-1.32-2.146-1.335-3.47c-0.037-1.3,0.133-2.566,0.482-3.814c1.511-3.073,0.803-6.424,1.399-9.607c0.549-1.238,0.947-2.499,1.382-3.762c0.594-1.242,1.231-2.438,1.973-3.592c1.442-2.438,2.821-4.928,5.99-5.462c5.554,0.223,11.76-2.277,15.891,3.824c0.525,1.337,0.839,2.726,0.941,4.16c0.119,2.112,0.404,4.224,0.267,6.347c-0.25,2.061-0.159,4.212-1.497,6.003c-0.102,1.81-0.203,3.616-0.305,5.423c0.932,1.255,1.848,2.527,3.056,3.547c0.2,0.942,0.334,1.892,0.4,2.854c-0.23,9.104-1.975,16.125-13.449,9.769c-0.632-1.45-0.951-2.957-0.963-4.529c-0.543-0.562-1.083-1.123-1.624-1.685l0.124,0.01C24.605,70.838,23.619,70.715,22.551,71.726z"/>
<path fill="#5B0F05" d="M53.664,84.356c-0.83,0.019-1.66,0.037-2.486,0.059c-0.146-13.343-0.296-26.682-0.445-40.024c-0.204-3.723,2.3-5.728,4.882-7.681c2.805-1.581,5.409-3.631,8.844-3.714c2.512-0.055,4.942,0.171,6.99,1.855c4.406,8.2,2.879,16.226-0.624,24.231c-6.763,3.576-3.643,12.582-9.166,16.834c-1.363,2.087-3.232,3.704-5.007,5.41l0.144-0.134C55.858,82.352,54.54,83.136,53.664,84.356z"/>
<path fill="#510B04" d="M28.65,71.772c4.258-1.129,8.519-2.262,12.78-3.394c0.406,3.437,0.811,6.875,1.341,11.396c-3.978,1.772-7.545,3.365-11.113,4.959c-1.038-0.11-2.077-0.223-3.114-0.336c-1.021-1.047-2.04-2.094-3.06-3.141c-0.029-3.109-0.058-6.216-0.088-9.326c1.106-0.027,2.214-0.058,3.322-0.085L28.65,71.772z"/>
<path fill="#E2260C" d="M56.881,40.759c-2.05,1.211-4.099,2.42-6.148,3.631c-2.151-0.229-4.303-0.458-6.454-0.687c-0.574-0.625-1.147-1.254-1.723-1.88c-0.244-1.813,0.317-3.323,1.688-4.532c4.151-1.575,8.219-2.136,11.979,1.001C56.441,39.117,56.661,39.939,56.881,40.759z"/>
<path fill="#5F0F05" d="M38.281,56.552c-0.197-2.197-0.395-4.395-0.593-6.592c-0.783-1.525-0.661-2.975,0.369-4.349c2.475-1.403,4.407-0.552,6.056,1.462C42.169,50.235,40.225,53.394,38.281,56.552z"/>
<path fill="#7A1606" d="M44.113,47.073c-2.081-0.006-4.163-0.012-6.244-0.018c-0.424-0.516-0.849-1.035-1.273-1.553c0.063-0.668,0.124-1.337,0.187-2.005c0.406-1.355,1.27-2.283,2.592-2.786c2.309-0.116,3.485,1.721,5.034,2.915l-0.131,0.079C44.223,44.827,44.168,45.95,44.113,47.073z"/>
<path fill="#510B04" d="M41.033,65.522c-1.018-1.178-2.037-2.359-3.055-3.543C38.994,63.156,40.013,64.34,41.033,65.522z"/>
<path fill="#350703" d="M56.651,81.326c0.089-2.136,0.177-4.272,0.266-6.408c4.352-6.177-0.482-13.416,2.289-19.782c5.441-3.503,6.155-10.748,11.396-14.392c0.803-1.044,1.679-2.042,2.604-2.976c1.25-0.342,2.528-0.43,3.815-0.256c1.259,0.018,2.528,0.037,3.791,0.058c2.018,0.134,3.558,0.888,3.965,3.094c0.025,1.035,0.052,2.066,0.077,3.098c1.743,7.105,0.153,14.422,1.367,21.561c-0.83,2.646-2.491,4.736-4.415,6.655l-0.011-0.063c-1.223,1.257-2.517,2.404-4.271,2.878c-0.583,0.076-1.162,0.152-1.747,0.229c-0.573,0.149-1.142,0.299-1.715,0.448c-0.508,0.309-1.014,0.616-1.521,0.928c-2.11,1.179-4.082,2.542-5.805,4.251c-0.931,0.84-2.016,1.325-3.261,1.459c-1.159-0.402-2.339-0.732-3.535-0.998C58.844,81.18,57.749,81.253,56.651,81.326z"/>
<path fill="#3F0903" d="M84.784,65.622c0.022-7.284,0.047-14.572,0.071-21.86c1.027,8.319,2.055,16.638,3.081,24.958C84.733,69.879,83.591,68.94,84.784,65.622z"/>
<path fill="#460B03" d="M84.778,40.665c-2.054-0.012-4.108-0.024-6.162-0.037c-1.96-2.06-2.85-4.126-0.03-6.21C80.65,36.502,82.715,38.584,84.778,40.665z"/>
<path fill="#3B0803" d="M75.36,71.799c2.144,0.036,4.289,0.076,6.435,0.113c-0.055,2.051-0.113,4.098-0.174,6.146c-2.015,0.07-4.023,0.146-6.035,0.22c-0.63-0.339-1.26-0.681-1.892-1.016c-0.615-1.358-0.631-2.713,0.047-4.057C74.28,72.735,74.82,72.269,75.36,71.799z"/>
<path fill="#3B0803" d="M84.784,65.622c1.052,1.034,2.103,2.065,3.154,3.098c-2.045,1.086-4.088,2.173-6.131,3.259C82.799,69.861,83.791,67.74,84.784,65.622z"/>
<path fill="#DC270E" d="M78.505,25.693c1.174,0.931,2.347,1.861,3.522,2.798c-2.135,0.952-4.271,1.901-6.409,2.847c-0.699-0.33-1.399-0.662-2.098-0.989c-0.811-1.385-0.995-2.854-0.555-4.395C74.721,23.984,76.534,23.181,78.505,25.693z"/>
<path fill="#E2260C" d="M75.618,31.338c-0.106,0.977-0.195,1.953-0.269,2.933c-0.504,0.622-1.007,1.248-1.512,1.871c-2.738,0.769-4.563-0.699-6.236-2.539c-0.406-1.724,0.046-3.174,1.356-4.358c2.686-1.077,4.66,0.146,6.446,1.983L75.618,31.338z"/>
<path fill="#E2260C" d="M81.591,28.272c2.214-1.093,4.43-2.185,6.644-3.277C86.018,26.086,83.805,27.179,81.591,28.272z"/>
<path fill="#370703" d="M78.586,34.418c0.011,2.072,0.02,4.141,0.03,6.21l0.024-0.006c-1.056,1.031-2.111,1.031-3.166,0l0.023,0.018c-2.451-2.081-1.987-4.15,0.024-6.216l-0.173-0.152C76.429,34.32,77.507,34.369,78.586,34.418z"/>
<path fill="#B51F09" d="M69.434,31.531c0.194,1.15,0.39,2.301,0.585,3.449c-0.61,0.299-1.22,0.595-1.828,0.894c-2.025,0.091-4.071-0.031-6.04,0.613c-1.301,0.449-2.63,0.555-3.986,0.32c-1.922-0.696-3.802-1.446-4.764-3.46c-0.029-0.678-0.06-1.358-0.091-2.036c1.331-1.05,2.661-2.097,3.992-3.146c0.622-1.379,1.506-2.569,2.596-3.653c2.912-1.099,5.885-1.331,8.897-0.424c1.357,0.824,2.285,1.923,2.7,3.446C71.166,29.059,70.479,30.386,69.434,31.531z"/>
<path fill="#710E06" d="M41.115,28.125c2.083,1.038,4.166,2.072,6.248,3.11c1.174,1.306,1.375,2.747,0.602,4.327c-1.837,1.865-4.222,1.953-6.607,2.042c-1.613-0.54-2.699-1.608-3.261-3.213C38.071,31.806,39.374,29.858,41.115,28.125z"/>
<path fill="#9E1908" d="M38.776,8.74c0.777,0.281,1.57,0.5,2.382,0.659c2.066,1.02,4.132,2.039,6.198,3.058C44.496,11.218,41.635,9.98,38.776,8.74z"/>
<path fill="#811207" d="M41.115,28.125c0.032,2.029,0.064,4.059,0.098,6.088c-3.99,2.856-5.759,1.163-6.287-3.07c-0.032-0.986-0.083-1.968-0.154-2.951C36.885,28.171,39,28.149,41.115,28.125z"/>
<path fill="#BB1C0A" d="M59.859,12.506c-1.046,1.047-2.091,2.094-3.138,3.141c-0.993-0.149-1.97-0.375-2.928-0.678c-0.018-0.854-0.038-1.703-0.062-2.551c0.784-0.992,1.822-1.446,3.075-1.443c1.243,0.061,2.276,0.546,3.062,1.526L59.859,12.506z"/>
<path fill="#700E06" d="M50.632,21.841c-0.28-0.711-0.656-1.407-0.793-2.142c-0.046-0.247,0.511-0.607,0.793-0.913c0.692,0.51,1.384,1.016,2.075,1.526C52.016,20.822,51.324,21.332,50.632,21.841z"/>
<path fill="#8F1008" d="M50.632,21.841c-0.02-1.019-0.02-2.039-0.001-3.055c2.149-0.085,4.297-0.171,6.449-0.253c0.003,0-0.198-0.037-0.198-0.037c0.838,0.739,1.236,1.566,1.196,2.484c-0.041,0.964-0.169,1.446-0.388,1.446c-1.417,0.815-2.737,0.678-3.956-0.412C52.699,21.954,51.666,21.897,50.632,21.841z"/>
<path fill="#811207" d="M47.038,34.018c0.101-0.928,0.209-1.855,0.325-2.783c1.984,0.024,3.968,0.049,5.949,0.076c-0.003,0,1.458-0.119,1.458-0.119c0.768,1.3,1.018,2.686,0.674,4.169c-1.512,2.054-3.657,2.044-5.873,1.797C48.142,36.585,47.296,35.538,47.038,34.018z"/>
<path fill="#D02B13" d="M59.195,28.095l-0.954-0.009c0,0-0.949,0.079-0.944,0.079c-0.252-0.961-0.386-1.941-0.398-2.939c0.563-0.409,1.125-0.817,1.688-1.224C60.402,25.125,62.427,26.218,59.195,28.095z"/>
<path fill="#811207" d="M31.92,27.698c-0.452-0.809-0.475-1.629-0.065-2.463C31.873,26.056,31.894,26.877,31.92,27.698z"/>
<path fill="#700E06" d="M53.734,22.016c0.99-0.15,1.981-0.29,2.974-0.424c0.938,0.781,1.283,1.596,1.036,2.447c-0.252,0.867-0.523,1.3-0.814,1.3l-0.031-0.113C55.845,24.158,54.788,23.086,53.734,22.016z"/>
<path fill="#D7250B" d="M34.926,31.143c2.095,1.025,4.19,2.048,6.285,3.07c0.002,0,0.066,0.067,0.066,0.067c0.465,0.574,0.931,1.15,1.396,1.728c0.078,1.556-0.464,2.829-1.72,3.781c-1.434,0.473-2.895,0.607-4.387,0.348c-2.591-1.19-6.081-1.004-7.082-4.626c0.261-1.526,0.978-2.792,2.15-3.806C32.732,31.519,33.829,31.333,34.926,31.143z"/>
<path fill="#E2260C" d="M12.885,25.061c1.37-0.08,2.74-0.156,4.118-0.235c0.646,1.211,1.285,2.423,1.924,3.638c-0.389,0.543-0.78,1.086-1.17,1.629c-2.168,0.711-3.854,0.321-4.677-2.044C12.999,27.054,12.935,26.056,12.885,25.061z"/>
<path fill="#E2260C" d="M31.635,31.705c-0.024,1.273-0.047,2.542-0.072,3.815c-1.799,1.498-3.738,2.435-6.139,1.541c-1.168-1.056-1.7-2.368-1.591-3.94c0.503-0.555,1.007-1.114,1.511-1.669C27.441,31.537,29.538,31.622,31.635,31.705z"/>
<path fill="#E2260C" d="M18.927,28.464c2.139,0.995,4.279,1.99,6.417,2.987l-0.024-0.036c-3.928,2.841-6.444,2.737-6.264-3L18.927,28.464z"/>
<path fill="#510B04" d="M12.788,65.695c2.112,1.969,4.222,3.939,6.333,5.911C17.008,69.632,14.899,67.664,12.788,65.695z"/>
<path fill="#510B04" d="M22.551,71.726c1.002-0.106,1.991-0.037,2.968,0.214C24.529,71.887,23.54,71.817,22.551,71.726z"/>
<path fill="#510B04" d="M12.935,62.348c-0.049,1.193-0.098,2.383-0.146,3.576c-0.955-0.098-1.907-0.204-2.859-0.314c0.167-0.823,0.3-1.653,0.404-2.486c0.169-1.017,0.339-2.033,0.508-3.049C11.539,60.834,12.236,61.591,12.935,62.348z"/>
<path fill="#701306" d="M16.153,49.97c-1.035,3.161-2.071,6.323-3.105,9.487c-3.254-2.42-0.167-6.863-3.006-9.417c0.015-4.136,0.029-8.271,0.044-12.406c1.207-1.48,2.477-2.896,4.033-4.016c1.254-0.308,2.452-0.131,3.592,0.449c0.997,0.723,1.894,1.559,2.667,2.515c0.131,0.589,0.264,1.187,0.398,1.776c0.021,1.196,0.031,2.399,0.026,3.598c0.041,1.813-0.177,3.549-1.554,4.919l-0.004,0.003C18.213,47.906,17.183,48.938,16.153,49.97z"/>
<path fill="#7A1506" d="M16.13,37.5c-2.016,0.043-4.031,0.088-6.045,0.131c0.999-3.192,1.997-6.387,2.995-9.583c1.993,0.122,3.984,0.244,5.976,0.366c2.089,1.001,4.176,1.999,6.264,3c-0.017,0.995,0.032,1.989,0.145,2.979c-0.056,3.848-3.05,4.166-5.777,4.8C18.193,39.276,17.008,38.711,16.13,37.5z"/>
<path fill="#7A1506" d="M10.042,50.04c1.002,3.137,2.003,6.277,3.004,9.417c-0.042,0.965-0.081,1.929-0.111,2.894c-0.868,0.256-1.736,0.513-2.603,0.769C10.236,58.762,10.14,54.4,10.042,50.04z"/>
<path fill="#3E0903" d="M59.941,81.109c1.086-0.955,2.173-1.907,3.259-2.859c3.104,3.149,2.767,6.231-0.167,9.271l-0.035-0.013C61.978,85.376,60.961,83.243,59.941,81.109z"/>
<path fill="#400903" d="M53.664,84.356c1.044-1.053,2.087-2.108,3.131-3.161C55.751,82.248,54.708,83.304,53.664,84.356z"/>
<path fill="#C7200B" d="M56.744,12.5c-1.005-0.019-2.011-0.043-3.013-0.079c-0.034-0.983-0.026-1.966,0.025-2.945c0.998-0.042,1.993-0.076,2.987-0.101c1.036,0.696,1.382,1.389,1.038,2.084C57.438,12.152,57.094,12.5,56.744,12.5z"/>
<path fill="#AF200B" d="M78.505,25.693c-1.016,0.802-2.032,1.602-3.049,2.405c-1.153,1.3-2.441,1.522-3.886,0.488c-1.747-2.521-4.098-4.874-2.322-8.371c1.158-1.099,2.539-1.718,4.115-1.926c1.744,0.134,3.489,0.269,5.235,0.4C78.566,21.023,78.536,23.358,78.505,25.693z"/>
<path fill="#7C1106" d="M56.93,25.339c-0.073-1.248-0.146-2.497-0.22-3.745c0.049-1.035,0.106-2.066,0.172-3.098c2.987-0.894,5.976-1.788,8.962-2.682c1.08,0.781,2.024,1.7,2.854,2.743c0.801,1.822,1.626,3.638,1.374,5.89c-0.587,1.792-2.683,2.618-3.587,4.397c-2.43-0.25-4.858-0.5-7.288-0.75C58.439,27.176,57.684,26.257,56.93,25.339z"/>
<path fill="#A31C09" d="M66.349,18.436c-0.148-0.879-0.314-1.755-0.502-2.625c2.127-0.042,4.257-0.088,6.386-0.134c0.375,0.873,0.749,1.743,1.124,2.615c0.007-0.003-1.324,0.565-1.324,0.565C69.984,20.795,68.087,20.691,66.349,18.436z"/>
<path fill="#3E0903" d="M66.107,78.065c2.122-2.082,4.245-4.163,6.366-6.247c0.438,0.388,0.874,0.774,1.311,1.159c0.198,1.7,0.035,3.519,1.589,4.764c0,0,0.212,0.534,0.213,0.534c0.138,1.044,0.275,2.085,0.415,3.128c0.005,0-0.763-0.223-0.763-0.223c-0.958,1.321-1.965,1.358-3.021,0.116l-1.477,0.012l-1.478-0.021C66.953,81.445,66.091,80.185,66.107,78.065z"/>
<path fill="#5B1106" d="M66.107,78.065c1.052,1.074,2.103,2.148,3.155,3.223l0.021-0.172c-0.879,0.721-1.177,1.447-0.894,2.18c0.282,0.735,0.568,1.102,0.858,1.102c-0.043,0.982-0.095,1.965-0.158,2.945c-2.021,0.061-4.039,0.118-6.058,0.18c0.053-3.092,0.106-6.183,0.164-9.271C64.171,78.211,65.14,78.149,66.107,78.065z"/>
<path fill="#3E0903" d="M69.249,84.397c0.013-1.093,0.024-2.186,0.037-3.281C69.272,82.208,69.262,83.304,69.249,84.397z"/>
<path fill="#390803" d="M72.217,81.296c1.011-0.03,2.021-0.07,3.026-0.116c0.091,1.087,0.188,2.17,0.286,3.256C74.425,83.39,73.322,82.343,72.217,81.296z"/>
<path fill="#AA1E09" d="M56.744,12.5c0-1.041,0-2.084,0-3.125c1.043,0,2.083,0,3.121,0.003c0.003,1.044,0.006,2.084,0.004,3.122C58.829,12.5,57.787,12.5,56.744,12.5z"/>
<path fill="#6E1206" d="M19.235,37.5c2.077-1.035,4.153-2.072,6.229-3.106c2.034,0.372,4.067,0.748,6.099,1.123c2.008,0.702,4.018,1.4,6.026,2.1c1.132,0.662,1.982,1.587,2.548,2.768c-0.3,1.276-0.906,2.375-1.863,3.274l-0.287,0.095c-0.52,0.727-1.039,1.456-1.559,2.185c-0.518-0.729-1.035-1.461-1.552-2.191c-4.173-1.017-8.347-2.029-12.52-3.043c-0.327,0.873-0.653,1.746-0.979,2.619c-0.545-0.757-1.088-1.514-1.633-2.271l-0.51-0.437c-1.143-0.693-1.521-1.385-1.143-2.078C18.47,37.848,18.85,37.5,19.235,37.5z"/>
<path fill="#510B04" d="M19.744,41.052c0.87-0.131,1.739-0.247,2.612-0.351c-1.036,2.06-2.072,4.117-3.107,6.174C19.414,44.934,19.579,42.993,19.744,41.052z"/>
<path fill="#510B04" d="M37.87,47.055c-0.052,0.97-0.11,1.941-0.179,2.908c-0.943-1.031-1.883-2.06-2.823-3.088c1.042-1.471,2.083-1.404,3.124,0.003L37.87,47.055z"/>
<path fill="#631005" d="M37.992,46.878c-1.041-0.003-2.082-0.003-3.124-0.003c0-1.041,0.001-2.084,0.004-3.128c1.044,0.003,2.083,0.003,3.118,0.003C37.988,44.794,37.99,45.835,37.992,46.878z"/>
<path fill="#831B0C" d="M28.719,71.845l-0.068-0.07C28.65,71.772,28.719,71.845,28.719,71.845z"/>
<path fill="#510B04" d="M16.153,49.97c1.03-1.032,2.062-2.063,3.091-3.092C18.215,47.906,17.183,48.938,16.153,49.97z"/>
<path fill="#3F0903" d="M75.522,34.424c-0.01,2.072-0.018,4.145-0.024,6.216c-5.207,5.207-10.414,10.413-15.621,15.619c-2.195,0.171-1.73-2.288-3-3.033c4.109-5.271,8.219-10.544,12.328-15.814c-0.757-0.696-1.514-1.395-2.27-2.094c1.005-0.226,2.009-0.452,3.011-0.677l0.072,0.339C71.852,34.796,73.686,34.61,75.522,34.424z"/>
<path fill="#3E0903" d="M56.877,53.226c1,1.011,1.999,2.023,3,3.033c-0.987,6.22-1.976,12.442-2.961,18.662C56.903,67.688,56.89,60.455,56.877,53.226z"/>
<path fill="#E2260C" d="M63.316,37.665c-2.146,1.031-4.292,2.063-6.438,3.094c0.002,0-0.149-0.156-0.149-0.156c-2.643-3.943-2.622-6.516,3.157-6.116l0.375,0.842C61.728,35.523,62.767,36.273,63.316,37.665z"/>
<path fill="#E2260C" d="M63.316,37.665c-1.021-0.785-2.041-1.566-3.06-2.341c3.23-0.226,6.456-0.455,9.687-0.684c-0.218,0.931-0.467,1.855-0.738,2.771C67.242,37.497,65.279,37.579,63.316,37.665z"/>
<path fill="#BC1F0A" d="M59.887,34.488c-1.053,2.039-2.104,4.077-3.157,6.116c-4.218,0.009-8.434,0.016-12.651,0.021c-0.901,1.279-2.034,1.532-3.394,0.757c-0.639-0.766-0.95-1.59-0.934-2.469c0.018-0.91,0.11-1.364,0.274-1.364c0.618-0.146,1.244-0.259,1.877-0.333c1.374-1.56,3.232-1.221,4.99-1.279c2.361-0.07,4.846,0.372,6.734-1.642c0.378-1.035,0.758-2.069,1.142-3.104C56.476,32.291,58.181,33.389,59.887,34.488z"/>
<path fill="#8F1808" d="M40.874,40.329c1.069,0.101,2.138,0.198,3.206,0.296c0.109,1.001,0.22,2.002,0.329,3.003c-2.047,0.009-4.097,0.021-6.14,0.034c-0.008-1.129-0.02-2.258-0.032-3.384C39.139,39.182,40.019,39.145,40.874,40.329z"/>
<path fill="#5B1308" d="M72.579,65.649c0.928,2.051,1.855,4.102,2.783,6.149c-0.002,0,0.071-0.055,0.071-0.055c-0.504,0.757-1.007,1.517-1.511,2.276c-0.511-0.754-1.022-1.508-1.533-2.262c0,0,0.082,0.062,0.084,0.062c-0.11-1.08-0.222-2.161-0.333-3.241C71.21,67.44,71.408,66.474,72.579,65.649z"/>
<path fill="#3E0903" d="M72.579,65.649c-0.157,0.977-0.303,1.956-0.438,2.933C72.043,67.566,72.188,66.59,72.579,65.649z"/>
<path fill="#3F0903" d="M75.475,40.622c1.055,0,2.11,0,3.165,0C77.585,40.622,76.529,40.622,75.475,40.622z"/>
<path fill="#360603" d="M72.39,71.759c1.015,0.013,2.029,0.007,3.044-0.015c-0.02,2.002-0.04,4.004-0.06,6.002C74.379,75.748,73.385,73.752,72.39,71.759z"/>
<path fill="#C1220A" d="M72.252,28.033c1.068,0.021,2.137,0.043,3.204,0.064c-0.017,1.043-0.034,2.087-0.052,3.131c-1.991,0.098-3.983,0.195-5.974,0.299c-0.012-0.916-0.02-1.837-0.019-2.756C69.973,27.042,70.9,26.724,72.252,28.033z"/>
<path fill="#8C1507" d="M72.252,28.033c-0.957,0.205-1.904,0.449-2.841,0.736c-0.977-0.012-1.955,0.009-2.929,0.073c-0.044-3.464-0.091-6.934-0.136-10.404c1.898,0.138,3.795,0.278,5.688,0.418C72.105,21.915,72.179,24.973,72.252,28.033z"/>
<path fill="#811106" d="M47.086,37.402c-1.729-0.061-3.458-0.122-5.185-0.186c-0.317-0.956-0.526-1.935-0.624-2.936c1.922-0.085,3.845-0.171,5.765-0.259c-0.003-0.003,0.856,0.91,0.856,0.91c0.839,0.882,0.998,1.544,0.478,1.983C47.992,37.237,47.563,37.402,47.086,37.402z"/>
<path fill="#B51F09" d="M47.086,37.402c0.284-0.821,0.552-1.648,0.811-2.475c1.91-0.208,3.818-0.418,5.728-0.631C51.445,35.33,49.267,36.368,47.086,37.402z"/>
<path fill="#E2260C" d="M40.874,40.329l-1.32,0.033l-1.317-0.085c-0.243-0.882-0.459-1.767-0.648-2.661c0.818,0.009,1.634-0.016,2.443-0.067C40.383,38.452,40.666,39.38,40.874,40.329z"/>
<path fill="#831B0C" d="M19.235,37.5c0.006,1.041,0.008,2.081,0.001,3.119c-1.071,0.015-2.139,0.033-3.207,0.052l0.045,0.046c0.017-1.071,0.034-2.146,0.052-3.217C17.165,37.503,18.201,37.503,19.235,37.5z"/>
<path fill="#510B04" d="M16.03,40.671l0.045,0.046L16.03,40.671z"/>
</svg>