<?xml version="1.0" encoding="utf-8"?>
<!DOCTYPE svg PUBLIC "-//W3C//DTD SVG 1.1//EN" "http://www.w3.org/Graphics/SVG/1.1/DTD/svg11.dtd">
<svg version="1.1" xmlns="http://www.w3.org/2000/svg" xmlns:xlink="http://www.w3.org/1999/xlink" x="0px" y="0px" width="100px" height="100px" viewBox="0 0 100 100" enable-background="new 0 0 100 100" xml:space="preserve">
<path fill="#532B2B" d="M6.967,29.796c1.886-3.14,3.772-6.281,5.658-9.417c0.786-0.998,1.744-1.792,2.849-2.411c4.224-2.151,8.447-4.303,12.671-6.458c0.981,0.861,1.759,1.874,2.318,3.058c0.725,2.579,0.523,5.09-0.508,7.543c-0.602,1.108-1.402,2.069-2.33,2.917c-1.422,1.129-3.006,2.005-4.697,2.665c-1.077,0.366-2.205,0.583-3.334,0.705c-1.073,0.18-2.171,0.309-3.251,0.476c-1.033,0.305-2.084,0.565-3.125,0.87c-1.027,0.372-2.086,0.625-3.162,0.814C8.934,30.678,7.899,30.434,6.967,29.796z"/>
<path fill="#AD9A90" d="M28.166,23.558c-0.009-3.165-0.02-6.333-0.029-9.5c1.028-1.111,2.013-2.261,3.105-3.314l-0.229,0.226c1.036-0.83,2.03-1.709,2.971-2.646c1.138-0.156,2.275-0.308,3.413-0.461c0.64,0.122,1.279,0.244,1.918,0.363c1.12,0.693,2.031,1.596,2.715,2.725c1.282,3.226,0.439,6.262-0.827,9.256c-0.447,1.126-1.005,2.212-1.599,3.271c-1.16,2.057-2.405,4.068-4.109,5.744c-0.943,0.702-2.008,1.071-3.19,1.077c-1.08-0.412-2.003-1.059-2.75-1.953c-0.64-0.946-1.102-1.98-1.402-3.085C28.152,24.696,28.158,24.129,28.166,23.558z"/>
<path fill="#2D0C0C" d="M56.138,91.893c-3.047,0.842-6.094,1.685-9.142,2.526c-3.147-6.146-1.082-11.762,1.72-17.31c0.323-1.284,0.768-2.523,1.288-3.738c0.554-1.193,1.3-2.265,2.219-3.204c1.18-0.635,2.412-0.692,3.673-0.269c1.606,1.117,2.521,2.71,3.071,4.541c0.344,1.138,0.588,2.313,0.801,3.488c0.404,1.709,0.777,3.433,1.044,5.182c0.078,1.175-0.06,2.331-0.364,3.47C59.574,88.801,58.062,90.516,56.138,91.893z"/>
<path fill="#201010" d="M53.1,76.6c-2.034,5.939-4.067,11.878-6.104,17.819c-3.249-1.699-6.497-3.396-9.746-5.093c0,0,0.162-1.529,0.153-1.532c0.345-0.979,0.854-1.865,1.494-2.677c0.854-1.275,1.736-2.533,2.6-3.812c0.569-0.885,1.253-1.672,1.999-2.414c0.793-0.714,1.663-1.318,2.573-1.874c0.911-0.582,1.872-1.059,2.866-1.485c0.52-0.15,1.046-0.278,1.571-0.419C51.659,75.102,52.524,75.599,53.1,76.6z"/>
<path fill="#6D413C" d="M6.838,70.284c0.006-2.137,0.012-4.27,0.019-6.403c0.531-0.994,0.99-2.022,1.378-3.088c0.746-1.584,1.229-3.269,2.019-4.847c0.598-1.086,1.338-2.051,2.194-2.947c1.494-1.301,3.177-2.078,5.209-1.936c1.207,0.629,2.075,1.563,2.626,2.808c0.954,5.075-1.794,9.082-3.789,13.321c-0.351,0.589-0.732,1.153-1.091,1.739c-0.839,1.108-1.859,2.012-3.057,2.713C10.251,72.257,8.335,72.108,6.838,70.284z"/>
<path fill="#551C1C" d="M37.397,7.863c5.105-1.395,10.211-2.786,15.318-4.181c1.215,0.76,1.955,1.853,2.294,3.235c-0.02,1.401-0.41,2.698-1.102,3.909c-1.418,1.59-3.225,2.423-5.312,2.686c-1.333,0.043-2.635-0.18-3.899-0.601c-1.785-0.845-2.794-2.64-4.416-3.696c-0.427-0.47-0.857-0.94-1.286-1.41l-0.822-0.607L37.397,7.863z"/>
<path fill="#331B1B" d="M9.525,61.088c-0.89,0.931-1.779,1.861-2.668,2.792c0-6.177-0.001-12.354-0.003-18.53c0.719-0.995,1.691-1.535,2.912-1.629c1.164,0.18,2.211,0.638,3.136,1.354c0.731,0.86,1.24,1.853,1.535,2.933c0.016,0.528,0.023,1.077,0.043,1.605c-0.188,0.47-0.386,0.968-0.569,1.44c-0.969,0.516-1.448,1.346-1.413,2.466c0.007-0.003,0.157,1.483,0.157,1.483c-0.183,0.985-0.335,1.978-0.458,2.973C11.276,58.986,10.385,60.023,9.525,61.088z"/>
<path fill="#361A1A" d="M78.105,14.638c4.09,2.243,8.181,4.489,12.27,6.735c0.547,2.167,0.016,4.068-1.416,5.747c-1.064,0.885-2.264,1.529-3.59,1.919c-2.001,0.381-3.968,0.238-5.865-0.51c-1.134-0.632-1.896-1.59-2.274-2.829c0.151-1.224,0.684-2.276,1.578-3.131c0.836-0.418,1.642-0.439,2.376-0.021c0.809,0.464,0.636,0.259-0.51-0.628c-1.163-0.101-2.176-0.531-3.036-1.321c-0.688-0.946-1.093-1.999-1.229-3.156C76.564,16.258,77.107,15.309,78.105,14.638z"/>
<path fill="#170909" d="M93.112,61.004c-1.82,5.258-3.642,10.516-5.464,15.774c-0.432-0.309-0.862-0.617-1.299-0.919c-0.513-0.946-0.774-1.959-0.84-3.03c0.066-1.056,0.294-2.081,0.657-3.076c0.557-1.462,1.134-2.924,1.634-4.419c0.301-1.028,0.736-1.996,1.258-2.933C90.116,61.086,91.296,60.106,93.112,61.004z"/>
<path fill="#260B0B" d="M31.292,85.899c-3.145-1.187-6.291-2.374-9.436-3.564c-0.921-0.796-1.416-1.815-1.544-3.018c-0.095-1.221,0.264-2.295,1.012-3.257c1.048-0.592,2.173-0.866,3.383-0.793c1.758,0.363,3.38,1.08,4.948,1.94c1.041,0.602,1.93,1.38,2.695,2.308c0.539,1.08,0.771,2.233,0.755,3.439c-0.174,0.567-0.357,1.132-0.536,1.699C32.147,85.072,31.719,85.484,31.292,85.899z"/>
<path fill="#432926" d="M86.989,26.863c1.129-1.831,2.257-3.662,3.386-5.49c0.889,2.847,1.778,5.694,2.666,8.542c-0.699,1.688-1.226,3.524-3.423,3.9c-2.04-0.351-3.237-1.599-3.781-3.546C85.822,29,86.189,27.858,86.989,26.863z"/>
<path fill="#613A36" d="M62.156,17.226c3.147-0.018,6.294-0.037,9.441-0.055c0.455,0.381,0.91,0.763,1.367,1.145c0.406,1.141,0.491,2.304,0.214,3.491c-0.563,1.086-1.37,1.932-2.446,2.527c-1.731,0.583-3.524,0.803-5.35,0.882c-1.242,0-2.431-0.266-3.586-0.72c-1.647-0.995-2.87-2.353-3.578-4.16c-0.164-1.272,0.067-2.463,0.742-3.562C60.15,16.033,61.211,16.225,62.156,17.226z"/>
<path fill="#240505" d="M15.612,79.255c-1.128-0.784-2.255-1.568-3.383-2.35c-1.601-2.216-1.605-4.416,0.052-6.604l1.442,0.251c3.271-2.546,5.135-0.903,6.516,2.188C20.454,76.158,18.459,78.01,15.612,79.255z"/>
<path fill="#270303" d="M93.112,61.004c-0.834,1.021-1.67,2.047-2.507,3.072c-0.865,1.081-1.929,1.404-3.224,0.846c-1.462-1.413-1.918-3.18-1.806-5.146c0.287-1.853,0.971-3.57,1.887-5.197c0.625-1.043,1.408-1.965,2.331-2.765c1.082-0.665,2.213-0.702,3.372-0.192C93.147,54.747,93.131,57.875,93.112,61.004z"/>
<path fill="#290E0C" d="M86.956,29.756c1.286,1.043,2.572,2.087,3.858,3.131c0.771-1.166,1.562-1.12,2.367-0.037c0.006,2.094,0.012,4.187,0.019,6.281c-0.995,0.955-2.159,1.318-3.526,1.007c-1.941-0.625-3.646-1.648-5.151-3.024c-0.91-1.046-1.529-2.243-1.888-3.58c-0.079-1.401,0.203-2.722,0.835-3.973c0.6-0.339,1.202-0.675,1.805-1.01C85.834,28.951,86.395,29.354,86.956,29.756z"/>
<path fill="#260606" d="M90.608,39.119c0.864,0.003,1.728,0.006,2.592,0.012c-0.011,4.163-0.023,8.325-0.034,12.49c-0.644-0.033-1.284-0.085-1.924-0.152c-0.516-0.165-1.031-0.329-1.552-0.494c-0.665-0.876-1.142-1.844-1.426-2.911c-0.229-1.074-0.315-2.164-0.311-3.263c0.031-1.104,0.237-2.182,0.554-3.238C88.942,40.523,89.66,39.72,90.608,39.119z"/>
<path fill="#776660" d="M12.281,70.301c-0.017,2.2-0.034,4.404-0.052,6.604c-1.798-2.21-3.594-4.416-5.391-6.625C8.653,70.29,10.467,70.296,12.281,70.301z"/>
<path fill="#201010" d="M81.377,79.784c-3.167,1.855-6.335,3.711-9.503,5.566c-1.81-1.521-1.665-3.336-0.804-5.268c0.855-1.047,1.897-1.84,3.145-2.368c1.31-0.33,2.634-0.385,3.969-0.189C79.493,77.928,80.544,78.7,81.377,79.784z"/>
<path fill="#221615" d="M81.377,79.784c-1.214-0.092-2.429-0.184-3.644-0.278c-0.857-0.775-1.814-1.41-2.857-1.919c-0.335-0.477-0.663-0.955-0.995-1.438c-0.176-1.199,0.084-2.305,0.712-3.336c0.98-0.702,2.062-1.138,3.263-1.288c1.21,0.028,2.368,0.284,3.488,0.742c1.628,0.869,2.945,2.054,3.766,3.738c0.501,1.202,0.298,2.249-0.708,3.112C83.425,79.491,82.418,79.711,81.377,79.784z"/>
<path fill="#7B4949" d="M12.156,45.323c-0.948,0.006-1.894,0.018-2.841,0.03c-0.833-0.787-1.311-1.749-1.436-2.887c-0.071-1.126-0.439-2.151-1.063-3.091c0.003-1.208,0.005-2.42,0.008-3.632c0.838-0.906,1.874-1.376,3.111-1.419c1.204,0.235,2.255,0.772,3.19,1.563c0.758,0.964,1.282,2.044,1.596,3.229c0.166,1.215,0.096,2.42-0.182,3.617c-0.276,0.537-0.562,1.074-0.844,1.614C13.186,44.673,12.672,45,12.156,45.323z"/>
<path fill="#531616" d="M53.389,8.522c-0.225-1.611-0.449-3.226-0.674-4.84c2.207,0.555,4.413,1.111,6.62,1.663c0.416,0.446,0.833,0.891,1.252,1.337c-0.192,0.577-0.389,1.156-0.584,1.736c-0.972,0.781-2.077,1.254-3.312,1.431C55.433,9.804,54.323,9.38,53.389,8.522z"/>
<path fill="#421D1C" d="M15.612,79.255c1.025-2.048,2.051-4.093,3.076-6.137c1.146-0.559,2.231-0.458,3.254,0.302c0.771,1.05,0.793,2.091-0.044,3.116c-0.009,1.063-0.017,2.121-0.026,3.183c-1.114,1.123-2.26,1.156-3.438,0.104C17.44,79.903,16.499,79.711,15.612,79.255z"/>
<path fill="#140707" d="M56.138,91.893c0.998-1.932,1.997-3.867,2.995-5.799c0,0,1.301,0.073,1.304,0.067c0.825,0.372,1.458,0.961,1.91,1.745c0.006-0.003,0.242,1.288,0.242,1.288C60.439,90.095,58.289,90.996,56.138,91.893z"/>
<path fill="#200B0B" d="M71.904,79.756c-0.009,1.864-0.02,3.729-0.03,5.594c-0.85,0.537-1.777,0.79-2.781,0.766c-1.042,0.857-2.205,1.077-3.49,0.659c-0.866-1.007-1.246-2.173-1.151-3.5c0.666-1.932,2.013-3.226,3.828-4.08c0.632-0.104,1.268-0.199,1.902-0.297C70.756,79.182,71.331,79.469,71.904,79.756z"/>
<path fill="#0B0404" d="M65.586,85.942c1.169,0.058,2.338,0.116,3.507,0.174c-2.169,1.028-4.335,2.054-6.504,3.079l-0.155-0.223c-0.394-0.564-0.786-1.126-1.185-1.688c0.262-0.635,0.523-1.27,0.785-1.901C63.355,84.688,64.547,84.828,65.586,85.942z"/>
<path fill="#341716" d="M62.156,17.226c-0.81-0.317-1.633-0.589-2.471-0.814c-1.912-1.636-2.018-3.595-1.045-5.753c1.312-0.879,2.556-0.839,3.72,0.275C62.293,13.03,62.225,15.13,62.156,17.226z"/>
<path fill="#720A0A" d="M78.105,14.638c-0.038,0.827-0.082,1.654-0.131,2.481c-1.642,1.99-3.364,1.797-5.141,0.195l-1.236-0.144c0.11-1.032,0.22-2.063,0.33-3.098c1.104-0.952,2.233-0.979,3.384-0.083C76.288,14.012,77.22,14.229,78.105,14.638z"/>
<path fill="#2E1717" d="M37.251,89.327c-1.987-1.142-3.972-2.283-5.958-3.428l0.4-0.747c0.897-0.653,1.894-0.998,3.007-1.001c1.085,0.213,2.049,0.68,2.898,1.385c0.493,0.602,0.73,1.252,0.717,1.941c-0.014,0.714-0.082,1.068-0.208,1.068L37.251,89.327z"/>
<path fill="#5A2626" d="M59.484,7.979c-0.078-0.876-0.129-1.755-0.149-2.634c0.95,0.867,1.899,1.73,2.85,2.594C61.302,9.105,60.401,9.178,59.484,7.979z"/>
<path fill="#820D0D" d="M33.984,8.324c-0.99,0.882-1.981,1.764-2.971,2.646C32.003,10.088,32.994,9.206,33.984,8.324z"/>
<path fill="#140A0A" d="M59.484,7.979c0.9-0.037,1.8-0.049,2.7-0.04c0.223,0.656,0.528,1.297,0.634,1.968c0.049,0.311-0.293,0.684-0.458,1.025c-0.868-0.027-1.735-0.085-2.599-0.174c-0.938-0.559-1.283-1.166-1.037-1.819c0.253-0.678,0.522-1.017,0.813-1.017L59.484,7.979z"/>
<path fill="#370808" d="M67.468,8.208c0,0.921,0,1.843,0,2.765c-0.303,0-0.604,0-0.906,0c0-0.921,0-1.843,0-2.765C66.863,8.208,67.165,8.208,67.468,8.208z"/>
<path fill="#820D0D" d="M31.242,10.744c-1.035,1.108-2.071,2.213-3.105,3.317c0.003-0.852,0.004-1.7,0.007-2.551C29.177,11.256,30.21,11,31.242,10.744z"/>
<path fill="#5A0606" d="M75.312,13.991c-1.127,0.028-2.257,0.055-3.384,0.083c0.196-0.799,0.394-1.599,0.781-3.177C73.811,12.206,74.562,13.097,75.312,13.991z"/>
<path fill="#401919" d="M15.473,17.967c-0.949,0.803-1.898,1.605-2.849,2.411C13.575,19.573,14.524,18.77,15.473,17.967z"/>
<path fill="#2B1B19" d="M6.967,29.796c0.809,0.076,1.616,0.061,2.42-0.046c0.32,0.556,0.639,1.108,0.959,1.663c-0.125,0.629-0.249,1.257-0.374,1.886c-0.574,0.287-1.149,0.571-1.724,0.857c-0.488-0.418-0.975-0.836-1.462-1.254C6.846,31.865,6.906,30.831,6.967,29.796z"/>
<path fill="#240A0A" d="M93.182,32.851c-0.791,0-1.581,0.012-2.368,0.037c0.743-0.992,1.486-1.98,2.228-2.972C93.766,30.861,93.814,31.84,93.182,32.851z"/>
<path fill="#1B0909" d="M6.787,32.902c0.83-0.009,1.66,0.009,2.489,0.058c0.664,0.556,0.877,1.102,0.644,1.639c-0.232,0.534-0.46,0.8-0.688,0.8c-0.786,0.241-1.588,0.354-2.409,0.345C6.222,34.804,6.21,33.858,6.787,32.902z"/>
<path fill="#390404" d="M9.163,42.226c0.05,1.044,0.102,2.087,0.152,3.128l-1.231-0.027l-1.23,0.024C6.833,44.31,6.81,43.27,6.789,42.226C7.58,41.261,8.371,41.261,9.163,42.226z"/>
<path fill="#320404" d="M9.163,42.226H7.975H6.788c-0.575-0.955-0.566-1.904,0.027-2.85C7.598,40.328,8.379,41.276,9.163,42.226z"/>
<path fill="#1A0C0C" d="M84.401,79.118c0.021-0.82,0.055-1.639,0.1-2.459c0.743-0.962,1.625-1.114,2.646-0.455l0.502,0.574C86.566,77.555,85.483,78.337,84.401,79.118z"/>
<path fill="#100606" d="M18.435,79.823c1.146-0.033,2.292-0.066,3.438-0.104c0.009,0.873,0.003,1.746-0.019,2.615C20.715,81.499,19.575,80.663,18.435,79.823z"/>
<path fill="#4C1111" d="M18.621,26.57c1.241-0.089,2.479-0.174,3.72-0.26c0.517-0.348,1.036-0.696,1.553-1.05c0.562,0.272,1.125,0.543,1.688,0.812c0.408,1.227,0.286,2.417-0.288,3.567c-0.894,0.894-1.97,1.447-3.218,1.663c-1.252-0.098-2.367-0.552-3.337-1.355c-0.259-0.552-0.521-1.107-0.783-1.663C18.179,27.714,18.4,27.141,18.621,26.57z"/>
<path fill="#C17373" d="M25.106,26.457l-1.39,0.07L22.34,26.31c0.918-0.824,1.837-1.648,2.756-2.472c0.68,0.58,0.909,1.16,0.685,1.743C25.558,26.164,25.332,26.457,25.106,26.457z"/>
<path fill="#BCA499" d="M25.106,26.457c-0.02-0.873-0.024-1.746-0.01-2.618c0.996-0.381,2.019-0.476,3.07-0.281l0.057,0.027c0.72,0.745,1.016,1.535,0.885,2.365c-0.136,0.854-0.308,1.282-0.514,1.282c-1.332,0.635-2.576,0.488-3.726-0.439L25.106,26.457z"/>
<path fill="#2B1B19" d="M9.387,29.75c1.085-0.87,2.17-1.736,3.254-2.606c0.446,1.104,0.244,2.103-0.511,3.006c-1.048,0.674-1.972,0.531-2.767-0.43L9.387,29.75z"/>
<path fill="#291010" d="M12.443,29.781c0.027-0.885,0.093-1.767,0.197-2.643c0.977-0.348,1.982-0.516,3.019-0.494l0.906,1.156c0.009,1.093-0.465,1.904-1.424,2.433c0.001,0-1.438,0.305-1.438,0.305L12.443,29.781z"/>
<path fill="#2A0E0E" d="M15.658,26.644c0.989-0.024,1.978-0.049,2.964-0.073c-0.001,0,0.096,0.088,0.096,0.088c-1.063,1.285-2.098,1.196-3.108-0.067L15.658,26.644z"/>
<path fill="#331A1A" d="M40.708,8.192c1.013,0.956,2.025,1.914,3.037,2.869c1.033,1.05,1.875,2.234,2.505,3.574c0.786,3.009,0.5,5.847-1.329,8.441c-1.188,0.983-2.527,1.318-4.032,0.919c-1.301-0.775-2.15-1.898-2.542-3.366c0.717-3.116,1.435-6.231,2.151-9.348c-0.76-0.741-0.981-1.446-0.665-2.115C40.139,8.516,40.431,8.192,40.708,8.192z"/>
<path fill="#381D1D" d="M34.309,29.53c1.16-2.008,2.319-4.016,3.479-6.024c0.389,0.574,0.778,1.147,1.169,1.721c0.125,1.413-0.182,2.728-0.92,3.939c-0.591,0.36-1.184,0.717-1.776,1.078C35.61,30.006,34.959,29.769,34.309,29.53z"/>
<path fill="#874F4F" d="M24.867,26.793c1.061-0.073,2.121-0.146,3.181-0.22c0.781-1.081,1.665-1.172,2.654-0.281c0.175,1.104,0.351,2.207,0.526,3.311c-0.437,0.442-0.873,0.888-1.308,1.333c-1.208,0.391-2.425,0.439-3.651,0.095c-0.475-0.403-0.948-0.809-1.421-1.214C24.969,28.81,24.975,27.803,24.867,26.793z"/>
<path fill="#392020" d="M40.708,8.192c-0.065,1.029-0.136,2.06-0.209,3.088c-0.502-1.16-1.002-2.319-1.504-3.479C39.57,7.912,40.142,8.04,40.708,8.192z"/>
<path fill="#160909" d="M38.348,20.629c0.746,0.918,1.492,1.834,2.238,2.752c-0.465,0.4-0.931,0.8-1.395,1.2c-0.493-0.366-0.984-0.736-1.476-1.102c0,0,0.069,0.028,0.07,0.028C37.355,22.426,37.542,21.468,38.348,20.629z"/>
<path fill="#3E2928" d="M30.702,26.293c-0.879,0.144-1.763,0.238-2.652,0.281c0.042-0.998,0.099-1.996,0.171-2.991C29.047,24.489,29.875,25.389,30.702,26.293z"/>
<path fill="#140A0A" d="M31.228,29.604c1.03,0.095,2.057,0.07,3.081-0.07c0-0.003-0.003,0.378-0.003,0.378c0.735,0.498,1.091,1.096,1.07,1.789c-0.024,0.742-0.13,1.114-0.316,1.114c-0.989,0.729-2.057,0.836-3.191,0.4c-0.653-0.601-0.905-1.236-0.752-1.901c0.156-0.677,0.333-1.019,0.531-1.019L31.228,29.604z"/>
<path fill="#54433E" d="M56.878,76.93c-0.141-2.121-0.279-4.242-0.42-6.363c0.143-0.604,0.285-1.211,0.425-1.818c0.758-1.02,1.715-1.792,2.868-2.332c1.277-0.244,2.477-0.049,3.592,0.642c0.818,0.994,1.388,2.117,1.771,3.344c0.288,1.252,0.402,2.521,0.392,3.806c-0.065,1.285-0.335,2.533-0.741,3.754c-0.531,1.188-1.359,2.133-2.422,2.875c-1.281,0.312-2.467,0.063-3.562-0.656C57.998,79.188,57.371,78.099,56.878,76.93z"/>
<path fill="#331615" d="M53.186,70.317c-0.024,1.059-0.051,2.115-0.075,3.174c-0.556,0.439-1.11,0.879-1.666,1.324c-0.694-0.134-1.391-0.274-2.088-0.405c-1.153-0.84-2.078-1.884-2.743-3.146c-0.417-1.38-0.327-2.726,0.334-4.014c1.763-1.479,3.659-1.647,5.677-0.562c0.72,0.712,1.045,1.486,0.97,2.326C53.518,69.883,53.382,70.317,53.186,70.317z"/>
<path fill="#190C0C" d="M59.153,79.237c1.077,0.119,2.154,0.235,3.233,0.354c0.767,0.665,1.126,1.413,1.074,2.24c-0.054,0.869-0.181,1.303-0.384,1.303c-1.179,0.982-2.331,0.9-3.456-0.098c-1.115-1.117-2.229-2.237-3.345-3.357C57.101,78.658,58.065,78.55,59.153,79.237z"/>
<path fill="#090404" d="M53.186,70.317c-0.023-1.022-0.023-2.045-0.002-3.067l1.233-0.771c1.075-0.019,1.896,0.43,2.466,1.346c0.552,1.022,0.381,1.91-0.512,2.655c0,0,0.084,0.085,0.086,0.085C55.367,70.485,54.276,70.399,53.186,70.317z"/>
<path fill="#5D544E" d="M59.153,79.237c-0.941,0.266-1.9,0.412-2.877,0.442c0.031-0.955,0.229-1.87,0.599-2.749C57.637,77.699,58.395,78.468,59.153,79.237z"/>
<path fill="#573434" d="M59.621,83.037c0.954-0.055,1.909-0.082,2.864-0.082c0.92,0.655,1.247,1.336,0.979,2.041c-0.272,0.718-0.556,1.074-0.849,1.074l-0.216-0.144c-0.97,1.09-1.926,1.022-2.867-0.036c0,0-0.397,0.201-0.398,0.201C59.262,85.069,59.425,84.049,59.621,83.037z"/>
<path fill="#371D1D" d="M49.95,73.506c1.055-0.004,2.107-0.01,3.16-0.016c0.008,1.037,0.005,2.072-0.011,3.109c-1.036,0.01-2.072,0.019-3.106,0.027C49.258,75.599,49.277,74.556,49.95,73.506z"/>
<path fill="#390404" d="M49.95,73.506c0.03,1.04,0.045,2.081,0.043,3.121l0.026-0.058c-1.084,0.974-2.099,2.015-3.035,3.128c-1.134,0.062-2.268,0.119-3.401,0.177c-0.377-0.405-0.752-0.812-1.132-1.217c-0.386-1.065-0.47-2.158-0.308-3.275c0.38-1.067,0.993-1.98,1.825-2.749c0.975-0.586,2.03-0.843,3.167-0.727c1.071,0.33,2.026,0.867,2.865,1.614L49.95,73.506z"/>
<path fill="#4C2828" d="M46.984,79.698c1.012-1.04,2.023-2.084,3.035-3.128C49.008,77.614,47.996,78.658,46.984,79.698z"/>
<path fill="#80756F" d="M43.583,79.875c0.03,0.854,0.055,1.709,0.072,2.563c-0.687,1.182-1.585,1.374-2.696,0.583c-0.693-1.034-0.758-2.111-0.197-3.226c0.995-0.891,1.953-0.809,2.876,0.119L43.583,79.875z"/>
<path fill="#170505" d="M40.615,83.137c1.027-0.168,2.042-0.402,3.04-0.699c-0.875,1.221-1.75,2.445-2.625,3.666c0,0-1.433-0.425-1.435-0.425c-0.002,0-0.047-1.495-0.047-1.495C39.547,84.184,40.615,83.137,40.615,83.137z"/>
<path fill="#1E1010" d="M38.106,88.546c-0.299-0.59-0.445-1.212-0.442-1.871c0.395-0.567,0.791-1.136,1.186-1.703c0.601,0.345,1.201,0.687,1.801,1.031c0,0,0.377,0.102,0.378,0.102C40.055,86.919,39.08,87.73,38.106,88.546z"/>
<path fill="#776660" d="M12.543,67.396c2.158-5.074,4.315-10.146,6.473-15.219c0.294-0.47,0.589-0.943,0.879-1.416c1.056-0.345,2.141-0.473,3.244-0.434c1.68-0.134,3.224-0.75,4.774-1.385c2.24-0.889,4.497-1.67,6.905-1.953c1.285,0.024,2.446,0.421,3.517,1.116c0.818,0.979,1.392,2.091,1.784,3.299c0.444,1.847,0.502,3.711,0.238,5.585c-0.238,1.202-0.67,2.341-1.277,3.403c-0.752,0.948-1.73,1.587-2.889,1.929c-1.654,0.32-3.346,0.399-5.026,0.47c-1.036,0.109-2.094,0.165-3.133,0.25c-1.578,0.388-2.846,1.37-4.198,2.216c-2.023,1.159-3.79,2.749-6.067,3.457C15.91,68.712,14.012,68.898,12.543,67.396z"/>
<path fill="#120606" d="M12.543,67.396c1.894-0.137,3.786-0.271,5.68-0.405c1.046-1.08,2.252-1.367,3.644-0.732c1.01,1.007,1.63,2.206,1.801,3.632c-0.125,0.684-0.255,1.366-0.383,2.05c-0.432,0.547-0.865,1.09-1.298,1.636c-1.097-0.149-2.196-0.302-3.296-0.454c-1.659-0.86-3.317-1.715-4.971-2.569C13.33,69.503,12.938,68.45,12.543,67.396z"/>
<path fill="#271616" d="M15.539,51.5c-0.963,1.169-1.924,2.335-2.886,3.504l-0.375-0.735c-0.038-0.662-0.077-1.321-0.115-1.984l0.394-0.76c0.493-0.378,0.987-0.754,1.481-1.132C14.54,50.761,15.039,51.13,15.539,51.5z"/>
<path fill="#4E0808" d="M9.525,61.088c0.891-1.041,1.784-2.078,2.672-3.116C11.306,59.013,10.417,60.051,9.525,61.088z"/>
<path fill="#251212" d="M19.017,52.177c-1.158-0.226-2.318-0.451-3.478-0.675c0-0.003,0.122,0.138,0.122,0.138c-1.058-0.852-1.341-1.91-0.852-3.174c1.077-0.711,2.214-0.854,3.414-0.333c0.679,0.623,0.978,1.304,0.896,2.045c-0.087,0.77-0.223,1.153-0.412,1.153L19.017,52.177z"/>
<path fill="#AE8B82" d="M47.122,11.077c2.02,0.003,4.039,0.003,6.059,0.003c0.643,0.168,1.285,0.335,1.931,0.498c1.066,0.842,1.837,1.898,2.319,3.17c0.068,1.395-0.371,2.6-1.315,3.632c-1.912,0.986-3.889,1.074-5.925,0.458c-1.937-0.912-3.347-2.332-4.143-4.336C45.484,13.072,45.889,11.943,47.122,11.077z"/>
<path fill="#AE8B82" d="M53.389,8.522c0.739-0.07,1.477-0.155,2.212-0.253c1.118,0.366,1.652,0.943,1.608,1.73c-0.052,0.888-0.22,1.334-0.504,1.334c-1.346,0.821-2.58,0.674-3.701-0.431l0.177,0.177C53.413,10.24,53.481,9.389,53.389,8.522z"/>
<path fill="#1F0D0D" d="M47.122,11.077c-0.168,0.946-0.345,1.886-0.531,2.829c-0.722,1.096-1.614,1.318-2.707,0.534c-0.047-1.126-0.093-2.255-0.139-3.378C44.871,11.067,45.996,11.073,47.122,11.077z"/>
<path fill="#897C73" d="M18.872,48.735l-1.523-0.22l-1.535,0.082c-1.146,1.193-2.243,1.151-3.294-0.125c-0.12-1.05-0.239-2.1-0.361-3.149c-0.001,0,0.624,0.088,0.624,0.088c1.1-1.343,1.323-2.951,1.399-4.614c0.134-0.546,0.271-1.083,0.407-1.633c0.314-0.476,0.628-0.943,0.94-1.425c0.891-0.751,1.874-1.34,2.931-1.831c1.097-0.452,2.231-0.745,3.406-0.903c1.219-0.028,2.348,0.281,3.398,0.894c0.87,0.845,1.52,1.837,1.981,2.957c0.36,1.138,0.557,2.313,0.636,3.503c0.041,1.169-0.077,2.334-0.296,3.479c-0.277,1.114-0.778,2.142-1.438,3.085c-0.478,0.293-0.966,0.589-1.433,0.879c-0.536,0.021-1.092,0.046-1.621,0.076c-0.812-0.626-1.724-1.12-2.713-1.438C20.387,48.461,18.872,48.735,18.872,48.735z"/>
<path fill="#0D0606" d="M12.164,52.284c0.176,0.656,0.215,1.318,0.116,1.987c-0.386-0.494-0.772-0.986-1.157-1.475C11.469,52.626,11.817,52.455,12.164,52.284z"/>
<path fill="#74615C" d="M12.519,48.472c1.096,0.04,2.19,0.08,3.29,0.122c-0.183,1.011-0.235,2.023-0.149,3.043c-1.035-0.033-2.071-0.07-3.105-0.11C12.385,50.508,12.373,49.492,12.519,48.472z"/>
<path fill="#482525" d="M78.028,26.57c2.13,0.012,4.26,0.024,6.392,0.04c0.814,0.711,1.072,1.404,0.772,2.081c-0.297,0.668-0.586,1.001-0.87,1.001l0.041,0.04c-0.765,0.906-1.685,1.611-2.76,2.115c-1.168,0.244-2.337,0.259-3.51,0.061c-1.136-0.366-2.13-0.967-2.967-1.819c-0.572-1.077-0.635-2.176-0.115-3.293C75.956,25.951,76.96,25.835,78.028,26.57z"/>
<path fill="#4E2727" d="M72.834,17.315c1.715-0.064,3.429-0.128,5.143-0.195c0.166,1.15,0.335,2.301,0.505,3.448c-0.582,0.421-1.164,0.845-1.747,1.267c-2.311,0.293-4.293,0.03-4.76-2.805C72.234,18.443,72.52,17.87,72.834,17.315z"/>
<path fill="#240808" d="M78.481,20.567c1.039-0.098,2.079-0.128,3.122-0.091c0.537,1,0.527,1.98-0.122,2.933c-1.063-0.012-2.124-0.028-3.187-0.04c-0.438-0.436-0.876-0.87-1.313-1.306c0.274-0.552,0.549-1.107,0.824-1.66L78.481,20.567z"/>
<path fill="#874848" d="M81.481,23.409c-0.146-0.986-0.107-1.962,0.12-2.933c0.383,0.717,0.818,1.413,1.083,2.167C82.72,22.746,81.903,23.146,81.481,23.409z"/>
<path fill="#680808" d="M78.028,26.57c-1.07,0.113-2.14,0.229-3.209,0.345c-0.347-0.449-0.693-0.897-1.042-1.349c-0.107-1.193,0.265-2.194,1.199-2.969c1.191-0.445,2.142-0.14,2.856,0.91c0,0,0.459-0.134,0.461-0.138C78.206,24.437,78.116,25.502,78.028,26.57z"/>
<path fill="#221111" d="M84.322,29.692c0.036-1.028,0.068-2.054,0.096-3.082c0.867,0.018,1.727,0.101,2.576,0.25c0.186,0.968,0.177,1.932-0.034,2.896C86.077,29.738,85.199,29.716,84.322,29.692z"/>
<path fill="#2C1A19" d="M90.647,67.122c-1.089,1.227-2.177,2.454-3.267,3.684c-0.884,0.775-1.894,1.321-3.027,1.639c-1.18,0.027-2.295-0.238-3.356-0.744c-1.481-0.9-2.957-1.816-4.216-3.03c-1.285-1.151-2.486-2.384-3.655-3.653c-1.187-1.264-2.184-2.658-2.835-4.272c-0.464-1.682-0.381-3.329,0.374-4.92c0.647-0.899,1.502-1.556,2.507-2.017c1.519-0.479,3.07-0.885,4.564-1.483c1.481-0.724,3.001-1.321,4.664-1.489c1.149,0.171,2.118,0.678,2.927,1.505c0.6,0.974,0.914,2.038,0.998,3.171c-0.131,0.533-0.269,1.074-0.398,1.607c-0.312,0.438-0.63,0.889-0.936,1.328c-2.681,1.525,1.028,1.84,0.583,2.948c0.313,1.623,0.672,3.213,2.202,4.192C88.868,65.849,89.829,66.35,90.647,67.122z"/>
<path fill="#2D0303" d="M87.147,76.204c-0.873,0.204-1.756,0.357-2.647,0.455c-1.145-1.028-2.29-2.058-3.438-3.086c0,0,0.748-1.33,0.744-1.333c0.998-0.235,2.01-0.306,3.032-0.214c1.104,0.033,1.967,0.51,2.586,1.428C87.407,74.379,87.314,75.295,87.147,76.204z"/>
<path fill="#140A09" d="M90.647,67.122c-1.043-0.125-2.087-0.253-3.131-0.378c-0.873-0.593-1.162-1.188-0.873-1.782c0.289-0.596,0.579-0.892,0.872-0.892c1.029,0,2.062,0.003,3.091,0.006C90.615,65.089,90.629,66.106,90.647,67.122z"/>
<path fill="#100303" d="M87.424,73.454c-1.016-0.003-2.03,0.007-3.045,0.028c-1.076-0.702-1.43-1.398-1.065-2.091c0.361-0.689,0.724-1.034,1.088-1.034c0.989,0.186,1.982,0.332,2.98,0.445C87.45,71.687,87.464,72.569,87.424,73.454z"/>
<path fill="#705E57" d="M21.899,76.537c-0.046-0.989-0.017-1.975,0.087-2.961l-0.171-0.204c1.846-1.755,3.819-1.645,5.875-0.399c0.394,0.616,0.786,1.229,1.18,1.846c-0.08,0.732-0.16,1.459-0.241,2.188c-1.367,0.866-2.65,0.757-3.852-0.323C23.82,76.6,22.86,76.551,21.899,76.537z"/>
<path fill="#190F0F" d="M31.3,79.777c-1.116-0.042-2.229-0.088-3.345-0.131c-0.91-1.12-0.75-2.054,0.48-2.808l-0.258-0.052c0.615-1.083,1.524-1.733,2.774-1.893c1.208,0.138,2.275,0.602,3.203,1.389c0.653,1.074,0.682,2.188,0.172,3.323C33.369,80.531,32.355,80.549,31.3,79.777z"/>
<path fill="#72685D" d="M28.436,76.838c-0.205,0.931-0.363,1.864-0.479,2.808c-1.059-0.988-2.118-1.978-3.177-2.963C25.997,76.735,27.216,76.787,28.436,76.838z"/>
<path fill="#620C0C" d="M31.3,79.777c1.033-0.088,2.06-0.22,3.082-0.387c0.336,0.598,0.671,1.196,1.007,1.797c-0.116,0.681-0.233,1.358-0.35,2.036c-0.603,0.335-1.206,0.671-1.808,1.007c-0.63-0.278-1.259-0.559-1.889-0.84C31.327,82.185,31.314,80.983,31.3,79.777z"/>
<path fill="#260505" d="M31.342,83.39c0.849-0.342,1.729-0.53,2.643-0.567c0.529,0.641,1.061,1.279,1.59,1.92c-0.707,0.437-1.413,0.876-2.12,1.313c-0.61-0.257-1.198-0.553-1.764-0.897C31.497,84.581,31.379,83.992,31.342,83.39z"/>
<path fill="#271817" d="M74.819,26.915c0.096,0.918,0.157,1.843,0.183,2.768c-0.396,0.467-0.793,0.937-1.188,1.413c-1.68,0.946-3.482,1.212-5.38,0.992c-1.233-0.272-2.349-0.8-3.357-1.563c-0.752-1.017-1.188-2.161-1.318-3.418c0.165-1.257,0.696-2.341,1.587-3.25c2.025-0.018,4.049-0.04,6.073-0.061c0.549-0.021,1.099-0.042,1.649-0.067c0.486,0.986,1.09,1.901,1.794,2.75L74.819,26.915z"/>
<path fill="#5E2929" d="M56.099,10.536c-0.181-0.753-0.346-1.51-0.496-2.271c1.311-0.113,2.621-0.229,3.935-0.345c-0.06,0.958,0.014,1.904,0.222,2.841c-0.024,1.886-0.051,3.772-0.076,5.655c-0.11,1.276-0.223,2.561-0.336,3.842c0.734,0.628,1.09,1.339,1.066,2.133c-0.024,0.836-0.13,1.254-0.315,1.254c-1.196,0.629-2.417,0.678-3.661,0.144c-0.975-0.888-1.598-1.978-1.867-3.271c0.071-1.336,0.651-2.423,1.665-3.287c0.011-1.108,0.021-2.219,0.031-3.327c-0.894-0.705-1.217-1.44-0.969-2.203C55.551,10.924,55.815,10.536,56.099,10.536z"/>
<path fill="#BDA49A" d="M58.958,23.561c0.129-1.099,0.259-2.2,0.389-3.302c1.047,1.126,2.095,2.252,3.142,3.378c1.014,0.72,1.516,1.703,1.51,2.945c0.021,1.184,0.044,2.368,0.077,3.552c-0.18,1.221-0.728,2.24-1.644,3.067c-1.137,0.525-2.291,0.604-3.479,0.174c-0.881-0.879-1.484-1.919-1.871-3.098c-0.242-1.214-0.245-2.435-0.063-3.659C57.398,25.435,58.048,24.416,58.958,23.561z"/>
<path fill="#874F4F" d="M77.833,23.506h-1.36l-1.36,0.003c-1.025,1.169-2.036,1.099-3.03-0.043c0,0-0.659,0.327-0.661,0.33c0.184-1.578,0.371-3.158,0.556-4.751c1.943,0.442,3.888,0.9,5.83,1.358C78.025,21.434,78.034,22.469,77.833,23.506z"/>
<path fill="#E6DFD5" d="M62.664,26.576c0.008-0.982-0.052-1.962-0.176-2.939c0.962-0.033,1.914,0.043,2.856,0.223c0.327,0.937,0.255,1.846-0.215,2.722C64.305,28.117,63.481,28.038,62.664,26.576z"/>
<path fill="#170909" d="M87.515,64.07c-0.008,0.895-0.008,1.788,0.001,2.68c-1.064-1.956-2.13-3.903-3.193-5.854c-0.694-0.727-0.898-1.422-0.615-2.09c0.278-0.653,0.542-0.983,0.794-0.983l-0.129,0.043c0.556-0.391,1.111-0.781,1.667-1.172c0.543,0.406,1.086,0.812,1.631,1.218C87.618,59.965,87.566,62.016,87.515,64.07z"/>
<path fill="#5F4845" d="M91.242,51.469c-0.205,1.09-0.41,2.182-0.615,3.271c-0.915,0.839-1.91,0.995-2.998,0.357c-0.658-0.998-0.78-2.045-0.282-3.146c0.911-0.885,1.884-0.916,2.909-0.208L91.242,51.469z"/>
<path fill="#190303" d="M87.64,54.915c0.991-0.109,1.988-0.168,2.987-0.174c-0.987,1.059-1.973,2.115-2.959,3.171c0.002,0-0.174-0.058-0.174-0.058c-0.459-0.513-0.917-1.029-1.382-1.542C86.617,55.845,87.128,55.381,87.64,54.915z"/>
<path fill="#4A3532" d="M84.509,36.134c0.924-0.04,1.849-0.076,2.773-0.107c1.416,1.251,1.769,2.881,1.652,4.679c-0.224,1.15-0.579,2.255-1.057,3.329c-0.562,1.74-1.521,3.21-2.901,4.413c-1.045,0.681-2.194,0.919-3.427,0.797c-1.784-0.562-3.218-1.605-4.281-3.152c-0.475-1.126-0.604-2.301-0.458-3.513c0.565-1.746,1.631-3.162,2.941-4.416c0.89-0.79,1.894-1.41,2.986-1.886C83.326,36.223,83.916,36.177,84.509,36.134z"/>
<path fill="#270303" d="M81.319,29.744c1.015,0,2.029-0.006,3.044-0.012c0.048,2.133,0.095,4.266,0.144,6.399c0.002,0.003-0.067-0.092-0.067-0.092c-1.019,1.044-2.195,1.273-3.53,0.687c-0.864-1.056-1.358-2.265-1.489-3.623C79.624,31.743,80.28,30.635,81.319,29.744z"/>
<path fill="#370606" d="M87.441,42.186c-0.052-2.051-0.104-4.104-0.157-6.159c1.107,1.032,2.215,2.063,3.324,3.092c-0.006,0.985,0,1.968,0.018,2.951C89.606,43.26,88.547,43.361,87.441,42.186z"/>
<path fill="#524542" d="M90.543,45.644c0.008,0.961-0.063,1.914-0.21,2.863c-1.193,0.671-2.271,0.519-3.232-0.461c-0.545-1.221-0.419-2.365,0.377-3.442C88.801,44.069,89.808,44.46,90.543,45.644z"/>
<path fill="#090404" d="M90.543,45.644c-1.002-0.177-2.013-0.256-3.03-0.238c-0.836-0.693-1.117-1.389-0.842-2.084c0.274-0.699,0.551-1.047,0.83-1.047c0,0-0.059-0.085-0.059-0.088c1.061-0.037,2.123-0.073,3.184-0.113C90.598,43.263,90.57,44.454,90.543,45.644z"/>
<path fill="#554D48" d="M87.23,48.277c1.034,0.089,2.069,0.165,3.104,0.229c-0.025,1.077-0.05,2.157-0.076,3.237c-0.908-0.085-1.815-0.134-2.726-0.146c0,0-1.231-0.803-1.234-0.803c-0.001,0.004-0.098-1.468-0.099-1.468C86.196,49.327,87.23,48.277,87.23,48.277z"/>
<path fill="#200B0B" d="M75.097,79.613c-1.063,0.046-2.129,0.095-3.192,0.144l-0.185-0.224c-0.372-2.581,0.547-3.76,3.257-2.99l0.183,0.431c0.637,0.601,0.838,1.192,0.607,1.775C75.539,79.323,75.316,79.613,75.097,79.613z"/>
<path fill="#1A0303" d="M75.097,79.613c-0.054-0.886-0.032-1.768,0.063-2.644c0.862,0.849,1.723,1.694,2.579,2.539C76.857,79.594,75.978,79.628,75.097,79.613z"/>
<path fill="#4E473F" d="M74.977,76.543c-1.085,0.998-2.169,1.999-3.255,2.994c-1.003,0.063-2.007,0.104-3.011,0.109c-0.42-0.546-0.841-1.093-1.265-1.636c-0.822-3.052,0.364-5.362,2.665-7.267c1.212-0.692,2.519-0.961,3.906-0.809c1.19,0.834,1.702,1.953,1.42,3.406C75.283,74.41,75.129,75.474,74.977,76.543z"/>
<path fill="#1C0606" d="M78.661,67.418c0.865,0.983,1.729,1.966,2.594,2.948c0.917,0.696,1.22,1.389,0.913,2.081c-0.307,0.693-0.613,1.038-0.924,1.038c0,0-0.18,0.088-0.182,0.088c-0.996-0.144-1.997-0.229-3.003-0.253c-1.007-0.83-1.534-1.898-1.587-3.201c0.181-0.599,0.36-1.199,0.541-1.798C77.563,68.019,78.112,67.72,78.661,67.418z"/>
<path fill="#110A0A" d="M78.069,70.201c0.029,1.041,0.025,2.081-0.01,3.122c0-0.003-1.314,0.076-1.314,0.076s-1.317-0.055-1.313-0.058c-0.299-1.001-0.403-2.021-0.307-3.061c0.482-0.373,0.963-0.745,1.443-1.117C77.069,69.508,77.568,69.853,78.069,70.201z"/>
<path fill="#2C1818" d="M9.231,35.399c0.07-0.812,0.085-1.626,0.046-2.438c-0.001,0,0.149-0.162,0.149-0.162c0.525-0.427,1.048-0.857,1.57-1.291c0.635,0.229,1.272,0.458,1.909,0.687c0.188,0.647,0.377,1.297,0.566,1.944c-0.288,0.61-0.578,1.221-0.867,1.831C11.48,35.78,10.355,35.588,9.231,35.399z"/>
<path fill="#74615C" d="M15.197,41.722c-0.806,1.23-1.611,2.459-2.416,3.689c-0.148-1.022-0.249-2.051-0.301-3.085C13.14,41.017,14.057,40.871,15.197,41.722z"/>
<path fill="#41241E" d="M15.197,41.722c-0.884,0.299-1.789,0.5-2.715,0.604c0.113-1.144,0.226-2.292,0.339-3.436l1.215-0.94l1.207,0.946C15.435,39.842,15.42,40.785,15.197,41.722z"/>
<path fill="#0F0606" d="M15.243,38.896l-1.213,0.092c0,0-1.213-0.095-1.211-0.095c-0.238-0.964-0.312-1.938-0.215-2.923c0.001,0-0.073,0.152-0.073,0.152c0.997-0.918,2.034-0.97,3.119-0.159c0.603,0.696,0.816,1.404,0.646,2.124c-0.172,0.729-0.354,1.093-0.546,1.093L15.243,38.896z"/>
<path fill="#4C2D2D" d="M59.533,85.89c0.955,0.049,1.911,0.063,2.868,0.036c0.059,1.014,0.068,2.029,0.032,3.046C61.466,87.944,60.499,86.916,59.533,85.89z"/>
<path fill="#301717" d="M62.616,86.07c-0.087-1.037-0.131-2.078-0.131-3.115c-0.032-1.12-0.064-2.24-0.098-3.363c-0.001,0-0.071,0.101-0.071,0.101c0.774-0.32,1.55-0.641,2.326-0.965c0.65,0.531,1.301,1.065,1.952,1.6c-0.309,0.781-0.621,1.563-0.933,2.344c-0.025,1.09-0.05,2.182-0.074,3.271C64.596,85.963,63.605,86.006,62.616,86.07z"/>
<path fill="#4C413B" d="M65.662,82.671c0.026-0.87,0.084-1.736,0.171-2.604c0.881-1.321,1.879-1.419,2.997-0.29l-0.119-0.131C67.694,80.653,66.679,81.664,65.662,82.671z"/>
<path fill="#6F4838" d="M33.456,86.055c0.177-1.078,0.356-2.155,0.531-3.232c-0.001,0,0.403,0.037,0.403,0.037c0.749-0.317,1.499-0.635,2.249-0.952c0.623,0.524,1.245,1.05,1.868,1.574c-0.337,0.738-0.674,1.48-1.012,2.222c0,0,0.168,0.965,0.169,0.968C36.26,86.466,34.858,86.262,33.456,86.055z"/>
<path fill="#4C2C2C" d="M12.589,32.86c-1.056-0.019-2.11-0.04-3.163-0.058c-0.04-1.028-0.06-2.054-0.063-3.082c1.027,0.003,2.054,0.024,3.081,0.061c-0.001,0,0.055-0.037,0.055-0.037c0.684,0.674,0.925,1.361,0.723,2.057C13.02,32.506,12.809,32.86,12.589,32.86z"/>
<path fill="#7B5542" d="M15.611,26.591c1.038,0.009,2.074,0.031,3.108,0.064c-0.044,0.967-0.126,1.929-0.249,2.887c0,0-0.704,0.949-0.702,0.952c0,0.003-1.187,0.003-1.187,0.006c-0.001,0.003-0.677-0.977-0.677-0.977C15.742,28.554,15.644,27.577,15.611,26.591z"/>
<path fill="#492626" d="M18.47,29.543c1.122,0.092,2.243,0.183,3.365,0.271c0.424,0.568,0.848,1.135,1.274,1.7c-0.267,0.659-0.533,1.315-0.798,1.974c-1.364,0.61-2.697,0.549-4-0.183c-0.815-1.333-0.681-2.566,0.4-3.695L18.47,29.543z"/>
<path fill="#341919" d="M21.936,32.973c-0.034-1.053-0.066-2.105-0.099-3.159c1.004-0.045,2.009-0.045,3.013,0.003c-0.001,0,0.487-0.263,0.487-0.263c0.673,1.114,0.653,2.188-0.165,3.226C24.136,33.559,23.059,33.659,21.936,32.973z"/>
<path fill="#2C0404" d="M12.589,32.86c-0.055-1.038-0.085-2.075-0.09-3.116c1.134-0.07,2.268-0.144,3.403-0.22c0.001,0-0.212,0.061-0.212,0.061c0.719,0.689,0.994,1.41,0.823,2.164c-0.174,0.766-0.371,1.15-0.588,1.15c-1.173,0.769-2.322,0.732-3.442-0.116L12.589,32.86z"/>
<path fill="#E5DFD6" d="M43.884,14.44c0.924-0.064,1.828-0.241,2.708-0.534c1.199,1.178,2.398,2.356,3.6,3.534c1.524,1.489,1.95,3.314,1.669,5.371c-0.471,1.965-1.37,3.726-2.521,5.377c-0.816,1.068-1.807,1.95-2.938,2.673c-1.926,0.818-3.841,0.827-5.73-0.122c-0.975-0.964-1.404-2.121-1.207-3.491c0.894-1.825,2.937-2.496,4.097-4.062C43.668,20.272,43.775,17.354,43.884,14.44z"/>
<path fill="#CCAAA1" d="M43.562,23.186c-0.801,1.193-1.602,2.384-2.403,3.577c-1.144-0.415-1.648-1.007-1.515-1.773c0.146-0.854,0.373-1.282,0.679-1.282l0.264-0.327C41.601,23.674,42.593,23.61,43.562,23.186z"/>
<path fill="#890F0F" d="M40.322,23.708c0.279,1.02,0.557,2.036,0.836,3.055c-0.25,0.98-0.396,1.972-0.438,2.982c-0.625,0.262-1.252,0.525-1.88,0.787c-0.572-0.366-1.143-0.735-1.715-1.102c0.197-1.984,0.394-3.967,0.59-5.951C38.604,23.341,39.472,23.418,40.322,23.708z"/>
<path fill="#4E2727" d="M34.373,32.829c-0.017-0.973-0.039-1.944-0.067-2.917c0.951-0.106,1.892-0.265,2.821-0.479c-0.001-0.003,0.941,1.032,0.941,1.032c0.757,0.882,1.096,1.901,1.021,3.058c-0.334,1.096-0.958,1.993-1.865,2.692c-1.123,0.345-2.156,0.14-3.105-0.534C33.404,34.66,33.526,33.712,34.373,32.829z"/>
<path fill="#733C3C" d="M25.027,32.93c0.102-1.126,0.205-2.25,0.308-3.375c2.104,0.244,4.207,0.488,6.311,0.735c-0.246,0.879-0.41,1.77-0.494,2.677c-0.449,0.406-0.897,0.809-1.346,1.214c-1.173,0.385-2.354,0.406-3.542,0.073C25.853,33.815,25.439,33.373,25.027,32.93z"/>
<path fill="#7E4242" d="M34.373,32.829c-0.005,1.068-0.011,2.136-0.017,3.205c0,0-1.366,0.714-1.367,0.714c-1.134-0.042-1.988-0.552-2.565-1.529c-0.003,0-0.354-1.514-0.354-1.514l1.274-0.891c0,0-0.19,0.153-0.192,0.153C32.225,32.921,33.299,32.875,34.373,32.829z"/>
<path fill="#221615" d="M68.83,79.777c-1.009,0.01-2.008,0.104-2.998,0.287c0.001,0.003-0.347-0.576-0.347-0.576c-1.571-1.538-1.285-3.886-2.433-5.609c-0.185-1.206-0.37-2.414-0.555-3.619c1.283-1.185,1.596-3.141,3.216-4.068c0.586-0.113,1.169-0.22,1.757-0.333c0.584,0.135,1.162,0.278,1.748,0.412c1.038,0.642,1.873,1.483,2.517,2.518c0.114,0.59,0.223,1.182,0.329,1.773C70.986,73.634,69.907,76.705,68.83,79.777z"/>
<path fill="#0C0404" d="M63.053,73.879c0.813,1.87,1.624,3.744,2.435,5.612c-1.058,0.066-2.114,0.134-3.17,0.201C62.562,77.755,62.808,75.816,63.053,73.879z"/>
<path fill="#64615D" d="M65.551,67.103c-1.018,1.054-2.035,2.106-3.053,3.159c0.109-1.031,0.098-2.057-0.037-3.086c-0.619-1.221-0.445-2.279,0.644-3.152C65.269,63.978,66.709,64.509,65.551,67.103z"/>
<path fill="#3C0606" d="M63.217,64.11c-0.252,1.022-0.504,2.048-0.754,3.066c-1.043,0.004-2.085,0.007-3.125,0.01c-0.257-0.461-0.512-0.919-0.77-1.377c0.271-1.059,0.884-1.864,1.795-2.453c0.521-0.055,1.047-0.11,1.569-0.165C62.36,63.497,62.787,63.804,63.217,64.11z"/>
<path fill="#1A0F0F" d="M56.371,70.479c-0.077-0.952-0.109-1.904-0.095-2.859c0.482-0.455,0.966-0.907,1.448-1.361c0.562,0.354,1.122,0.708,1.682,1.059l-0.068-0.131C58.349,68.285,57.36,69.38,56.371,70.479z"/>
<path fill="#2C1717" d="M53.184,67.25c-2.017-0.039-4.036-0.082-6.053-0.122c-0.467-0.552-0.936-1.107-1.404-1.663c-0.287-1.471-0.064-2.865,0.601-4.202c1.062-1.059,2.334-1.703,3.816-1.94c1.507,0.115,2.798,0.717,3.906,1.736c0.988,2.191,0.886,4.221-0.893,6L53.184,67.25z"/>
<path fill="#8A6965" d="M47.131,67.128c-0.253,0.949-0.458,1.908-0.617,2.875c-0.378,0.372-0.757,0.741-1.137,1.111c-1.061-0.303-1.874-0.913-2.405-1.89c-0.162-1.12,0.186-2.068,0.974-2.868c1.14-0.415,1.96-0.104,2.412,1.056L47.131,67.128z"/>
<path fill="#33231D" d="M49.999,73.521c-1.04-0.033-2.079-0.058-3.119-0.073c-0.936-0.711-1.26-1.435-0.974-2.176c0.289-0.747,0.584-1.12,0.888-1.12c0,0-0.278-0.146-0.279-0.146C47.676,71.174,48.837,72.346,49.999,73.521z"/>
<path fill="#412C2A" d="M53.158,67.058c0-2.121,0.001-4.242,0.003-6.363c-1.021-2.457,0.388-3.04,2.425-3.144c1.092,0.599,1.895,1.468,2.456,2.573c0.344,1.187,0.374,2.386,0.105,3.592c-0.271,1.221-0.923,2.2-1.898,2.976c0,0,0.026,0.921,0.026,0.924C55.236,67.433,54.197,67.244,53.158,67.058z"/>
<path fill="#250404" d="M46.795,70.152c0.029,1.099,0.057,2.197,0.085,3.296c-0.984,0.021-1.967,0.064-2.948,0.132c0,0-0.989-0.854-0.992-0.852c-0.003,0-0.004-1.31-0.006-1.31c-0.003,0,0.99-0.857,0.99-0.857C44.881,70.427,45.838,70.29,46.795,70.152z"/>
<path fill="#201010" d="M43.933,73.58c-0.146,0.982-0.22,1.971-0.22,2.969c-1.147,0.833-2.171,0.705-3.076-0.388c-0.25-2.255,0.378-3.555,2.964-2.713L43.933,73.58z"/>
<path fill="#340B0B" d="M40.321,76.307c1.13,0.08,2.261,0.162,3.392,0.241c-0.024,1.12-0.049,2.243-0.075,3.366l-1.51-0.089l-1.479,0.334c0,0-1.007-1.093-1.01-1.093c-0.001,0-0.083-1.486-0.085-1.486C39.552,77.58,40.321,76.307,40.321,76.307z"/>
<path fill="#563232" d="M40.649,80.159c0.032,0.992,0.021,1.983-0.034,2.979l0.178-0.274c-1.088,1.147-2.182,1.153-3.282,0.019L37.5,82.852c-0.447-0.537-0.895-1.074-1.346-1.611c0.228-0.659,0.459-1.318,0.688-1.98c1.218-0.86,2.507-0.937,3.856-0.329L40.649,80.159z"/>
<path fill="#857973" d="M37.512,82.881c1.092-0.007,2.183-0.013,3.279-0.019c-0.044,1.047-0.093,2.094-0.14,3.14c-1.051-0.094-2.104-0.188-3.156-0.289C37.502,84.764,37.507,83.821,37.512,82.881z"/>
<path fill="#251313" d="M34.482,48.854c-2.146,0.665-4.293,1.327-6.442,1.989c-1.041-0.809-1.506-1.87-1.395-3.188c0.106-0.62,0.215-1.236,0.322-1.855c0.662-1.132,1.628-1.865,2.893-2.207c2.008-0.171,3.723,0.424,5.081,1.947C35.621,46.757,35.427,47.859,34.482,48.854z"/>
<path fill="#170B0B" d="M34.414,60.814c0.891-0.04,1.779-0.101,2.667-0.184c1.767-1.4,3.679-1.623,5.731-0.698c1.091,0.925,1.724,2.087,1.831,3.527c-0.713,1.236-1.732,2.13-3.015,2.744c-1.361,0.391-2.742,0.519-4.15,0.366c-1.381-0.349-2.593-1.011-3.641-1.975c-0.189-0.672-0.377-1.346-0.565-2.021C33.653,61.989,34.034,61.403,34.414,60.814z"/>
<path fill="#170B0B" d="M28.107,48.475c-0.007,0.791-0.03,1.581-0.067,2.368c-2.043,0.199-4.088,0.397-6.132,0.593c-0.908-0.431-1.245-0.919-1.017-1.468c0.241-0.577,0.496-0.867,0.772-0.867c1.097-0.211,2.195-0.421,3.292-0.632C26.011,46.937,27.061,46.868,28.107,48.475z"/>
<path fill="#1B0E0E" d="M21.745,67.235c-1.172-0.083-2.345-0.162-3.52-0.244c0.479-1.307,0.961-2.609,1.529-4.153c1.845,0.454,3.551,0.876,5.257,1.294c0.11,0.711,0.218,1.425,0.326,2.136C24.403,67.571,23.207,67.891,21.745,67.235z"/>
<path fill="#1A0B0B" d="M38.063,51.634c-0.281-0.949-0.499-1.917-0.653-2.896c-0.72-0.671-0.974-1.357-0.763-2.06c0.213-0.708,0.435-1.062,0.665-1.065c2.072-1.12,3.476-0.293,4.532,1.554c0.246,1.254,0.092,2.46-0.462,3.613C40.452,51.741,39.336,51.995,38.063,51.634z"/>
<path fill="#160A0A" d="M38.063,51.634c0.708,0.033,1.415,0.079,2.121,0.141c0.527,0.524,1.053,1.05,1.58,1.574c0.396,1.474,0.328,2.924-0.203,4.354c-1.225,1.215-2.423,1.188-3.592-0.082C38,55.626,38.03,53.63,38.063,51.634z"/>
<path fill="#231716" d="M25.01,64.131c1.076-1.114,2.151-2.229,3.227-3.345c0.778,1.086,0.781,2.173,0.006,3.262c-1.06,0.827-2.156,0.837-3.284,0.146L25.01,64.131z"/>
<path fill="#3D2927" d="M37.968,57.622c0.795,0.106,1.591,0.177,2.391,0.217c1.024-0.971,2.1-1.08,3.238-0.201c0.316,0.552,0.63,1.104,0.946,1.657c-0.169,0.613-0.339,1.227-0.508,1.84c-2.316-0.168-4.633-0.333-6.95-0.501C37.377,59.627,37.673,58.626,37.968,57.622z"/>
<path fill="#140808" d="M37.496,45.375c-0.029,1.12-0.058,2.24-0.087,3.363l-1.468-0.036c0,0-1.459,0.149-1.459,0.152c-0.096-1.236-0.193-2.475-0.291-3.714c0,0,1.069-0.754,1.069-0.757s1.309,0.064,1.311,0.061L37.496,45.375z"/>
<path fill="#29201E" d="M30.821,60.698c0.619-0.632,1.24-1.264,1.901-1.938c0.582,0.705,1.137,1.382,1.692,2.057c0-0.003-0.034,0.171-0.034,0.171c-0.627,0.36-1.252,0.72-1.88,1.08C31.94,61.61,31.38,61.153,30.821,60.698z"/>
<path fill="#382927" d="M27.972,63.961c0.088-1.057,0.176-2.115,0.266-3.171c0.862-0.089,1.726-0.116,2.588-0.089c-0.004-0.003,0.427,0.281,0.427,0.281c0.45,0.524,0.899,1.053,1.354,1.577c-0.282,0.632-0.568,1.264-0.85,1.896c-0.664,0.183-1.332,0.369-1.997,0.556C29.165,64.659,28.568,64.311,27.972,63.961z"/>
<path fill="#0E0606" d="M21.664,49.101c0.068,0.778,0.151,1.56,0.244,2.338c-1.067-0.037-2.135-0.07-3.202-0.107c0.042-0.866,0.096-1.733,0.165-2.597l-0.293-0.817c1.169-0.36,2.313-0.297,3.435,0.191L21.664,49.101z"/>
<path fill="#402020" d="M24.959,64.195c1.006-0.07,2.011-0.146,3.014-0.231c-0.001-0.003,0.2,0.195,0.2,0.195c1.019,1.001,1.564,2.203,1.559,3.644c-0.36,1.376-1.082,2.521-2.159,3.442c-2.043,0.629-4.05,1.028-5.667-0.931c-0.003-1.028-0.055-2.057-0.16-3.079C22.816,66.221,23.889,65.209,24.959,64.195z"/>
<path fill="#230F0F" d="M21.906,70.314c2.054,0.009,4.106,0.016,6.16,0.021c0,0,0.9,0.9,0.903,0.9c0.003,0-0.003,1.275,0,1.275c0.003,0.003-0.936,0.873-0.936,0.873c-2.072-0.004-4.146-0.007-6.219-0.013C21.836,72.352,21.867,71.334,21.906,70.314z"/>
<path fill="#4C3633" d="M50.272,23.402c-0.027-1.987-0.054-3.976-0.081-5.963c2.015-0.07,4.028-0.141,6.043-0.208c-0.024,1.132-0.049,2.268-0.073,3.402c-0.572,1.206-1.323,2.292-2.222,3.278c-0.645,0.159-1.29,0.314-1.936,0.473C51.428,24.059,50.851,23.732,50.272,23.402z"/>
<path fill="#3A211B" d="M56.099,10.536c0.056,1.123,0.112,2.246,0.167,3.369c-1.088-1.001-2.174-2.002-3.262-3.003C54.029,10.726,55.061,10.604,56.099,10.536z"/>
<path fill="#7B4949" d="M21.936,32.973c1.028-0.091,2.06-0.107,3.091-0.042l-0.131-0.119c0.385,0.574,0.769,1.145,1.155,1.718c-0.508,0.464-1.02,0.928-1.531,1.388l-1.083,0.028l-1.083-0.024c-0.503-0.452-1.009-0.903-1.515-1.355c0.388-0.553,0.775-1.108,1.163-1.664L21.936,32.973z"/>
<path fill="#898076" d="M25.079,45.583c-0.004-1.178-0.009-2.356-0.012-3.534c0.918-0.76,1.86-0.791,2.825-0.089c0.746,0.949,0.696,1.886-0.037,2.817l0.363,0.894C27.147,46.541,26.1,46.513,25.079,45.583z"/>
<path fill="#150606" d="M25.079,45.583c1.045,0.027,2.09,0.052,3.137,0.083c-0.075,0.94-0.111,1.874-0.107,2.81c-1.051-0.003-2.101-0.003-3.151-0.006C24.932,47.505,24.974,46.544,25.079,45.583z"/>
<path fill="#603E3A" d="M28.079,42.113l-1.51,0.046c0,0-1.504-0.107-1.504-0.11c0.119-1.071,0.238-2.143,0.357-3.214c1.067-0.723,1.991-0.577,2.779,0.446c0.001-0.003,0.574,1.443,0.575,1.443S28.079,42.113,28.079,42.113z"/>
<path fill="#74615C" d="M22.013,48.109c-1.145-0.063-2.29-0.128-3.435-0.191C19.723,47.981,20.869,48.046,22.013,48.109z"/>
<path fill="#530808" d="M28.082,39.064c-0.891-0.034-1.777-0.11-2.661-0.229c-0.302-0.97-0.601-1.944-0.898-2.914c-0.002-0.003,1.072,0.229,1.072,0.229c0.82-1.294,1.85-1.425,3.06-0.555c0.182,0.623,0.365,1.248,0.548,1.871C28.828,37.996,28.454,38.53,28.082,39.064z"/>
<path fill="#530808" d="M22.354,35.921c-1.033,0.94-2.066,1.88-3.099,2.82c-1.433-0.568-1.896-1.538-1.248-2.976c1.213-0.964,2.296-0.784,3.262,0.384L22.354,35.921z"/>
<path fill="#74615C" d="M18.51,36.086c0.103,0.925,0.35,1.81,0.742,2.655c-1.166,0.146-2.334,0.293-3.503,0.439c0.018-1.047,0.037-2.094,0.055-3.137c0.458-0.378,0.914-0.754,1.372-1.135C17.62,35.298,18.066,35.692,18.51,36.086z"/>
<path fill="#390606" d="M75.002,29.683c1.031,0.024,2.063,0.042,3.093,0.052c0.438,0.473,0.876,0.946,1.317,1.413c-0.173,0.619-0.347,1.239-0.519,1.855c-1.182,0.647-2.379,0.674-3.589,0.079c-0.684-0.671-0.971-1.389-0.856-2.154c0.116-0.791,0.273-1.184,0.47-1.184L75.002,29.683z"/>
<path fill="#543232" d="M78.105,32.9c-0.003-1.056-0.005-2.109-0.008-3.165c1.072,0.003,2.146,0.006,3.223,0.009c-0.054,0.992-0.1,1.98-0.138,2.972C80.219,33.858,79.197,33.977,78.105,32.9z"/>
<path fill="#B16969" d="M72.082,23.466c1.01,0.021,2.019,0.034,3.03,0.043c-0.065,0.992-0.148,1.98-0.249,2.969C73.936,25.475,73.008,24.471,72.082,23.466z"/>
<path fill="#5F5854" d="M65.551,67.103c-0.779-0.997-1.56-1.995-2.338-2.993c0.004,0-1.143,0.106-1.143,0.106c-0.339-0.562-0.678-1.126-1.021-1.69c0.074-0.653,0.152-1.31,0.22-1.966c0.499-1.235,1.2-2.347,2.045-3.375c1.352-1.483,2.928-2.658,4.803-3.405c0.653-0.049,1.313-0.089,1.969-0.132c0.567,0.327,1.135,0.659,1.704,0.992c0.008,2.111,0.016,4.227,0.023,6.342c0.014,1.251-0.205,2.453-0.688,3.613c-0.682,1.08-1.634,1.815-2.85,2.212C67.365,66.875,66.456,66.972,65.551,67.103z"/>
<path fill="#412823" d="M68.922,64.159c0.964-1.06,1.929-2.118,2.892-3.177c1.1,1.107,2.2,2.215,3.302,3.323c-0.461,0.391-0.922,0.781-1.383,1.175C71.852,66.053,70.205,65.773,68.922,64.159z"/>
<path fill="#5F5954" d="M75.308,55.156c-1.172-0.171-2.344-0.342-3.516-0.516c-0.002,0,0.101,0.113,0.101,0.113c-0.798-0.708-1.118-1.465-0.965-2.274c0.159-0.833,0.355-1.251,0.588-1.251c1.319-0.598,2.626-0.562,3.915,0.101c0.244,0.647,0.49,1.294,0.735,1.938C75.881,53.895,75.594,54.527,75.308,55.156z"/>
<path fill="#100808" d="M81.162,51.729c-0.984,0.977-1.969,1.953-2.952,2.93c-0.436-0.363-0.868-0.727-1.305-1.087c0.052-0.564,0.104-1.126,0.155-1.69c0.409-0.391,0.819-0.781,1.229-1.172c0.561-0.064,1.123-0.128,1.685-0.192C80.37,50.921,80.767,51.326,81.162,51.729z"/>
<path fill="#63605C" d="M87.532,51.597c0.035,1.105,0.07,2.21,0.105,3.317c0.002,0-0.131-0.177-0.131-0.177c-1.044,1.12-2.086,1.172-3.124-0.009c-0.158-1.103-0.315-2.201-0.474-3.303c0.617-0.366,1.235-0.735,1.854-1.102c0.578,0.428,1.156,0.854,1.734,1.282L87.532,51.597z"/>
<path fill="#1C1615" d="M78.21,54.659c-0.97,0.164-1.938,0.329-2.905,0.494c0.003,0.003-0.306-0.421-0.306-0.421c1.041-1.472,2.083-1.472,3.124,0L78.21,54.659z"/>
<path fill="#5F504C" d="M84.383,54.729c1.039,0.003,2.077,0.003,3.119,0.006c-0.003,1.04-0.005,2.081-0.005,3.119c-0.003,0-1.563,0.003-1.563,0.003s-1.561,0-1.563,0.003C84.376,56.819,84.38,55.775,84.383,54.729z"/>
<path fill="#4E3F3D" d="M84.501,57.823c-0.063,1.025-0.121,2.051-0.179,3.073c-0.559-0.521-1.117-1.044-1.709-1.596C83.271,58.785,83.886,58.305,84.501,57.823z"/>
<path fill="#534843" d="M75.115,64.305c1.18,1.037,2.36,2.075,3.545,3.112c0.001,0-0.723-0.217-0.723-0.217c-1.032,1.196-2.211,1.361-3.532,0.501c-0.698-1.383-0.448-2.566,0.751-3.553L75.115,64.305z"/>
<path fill="#564B47" d="M81.244,73.485c0.002-1.044,0.004-2.085,0.008-3.122c1.042-0.006,2.083-0.01,3.136-0.006c0.005,1.04-0.005,2.084-0.012,3.125C83.333,73.482,82.29,73.485,81.244,73.485z"/>
<path fill="#241414" d="M81.412,48.607c1.017-0.019,2.033-0.059,3.049-0.11c0.421,0.528,0.843,1.06,1.27,1.587c-0.444,0.51-0.893,1.02-1.341,1.529c0,0-0.477-0.184-0.479-0.187c-0.915,0.11-1.831,0.208-2.746,0.303c-0.002,0,0.085-0.122,0.085-0.122c-0.385-0.522-0.769-1.044-1.155-1.565C80.533,49.562,80.973,49.086,81.412,48.607z"/>
<path fill="#8E8880" d="M31.272,76.115c-1.032,0.224-2.063,0.446-3.095,0.672c-0.047-1.136-0.095-2.268-0.142-3.402c-0.001,0-0.106-0.104-0.106-0.104c0.984-0.982,2.092-1.153,3.326-0.516C32.085,73.876,32.092,74.996,31.272,76.115z"/>
<path fill="#918D87" d="M31.272,76.115c-0.014-0.875-0.02-1.751-0.021-2.627c0.984-0.604,1.959-0.589,2.927,0.039c0.25,0.474,0.499,0.949,0.748,1.426c-0.235,0.482-0.472,0.964-0.708,1.446l-1.494,0.086L31.272,76.115z"/>
<path fill="#290808" d="M34.382,79.39c-0.035-0.998-0.09-1.996-0.165-2.991l-0.088,0.04c0.755-0.281,1.512-0.562,2.267-0.843c0.652,0.479,1.302,0.955,1.952,1.432c-0.322,0.741-0.646,1.479-0.967,2.219l0.121,0.497c-1.044,1.114-2.084,1.169-3.126,0L34.382,79.39z"/>
<path fill="#714242" d="M34.375,79.744c1.042-0.012,2.083-0.016,3.125-0.006c0,1.044,0,2.081,0.001,3.115c-1.042,0-2.084,0-3.119,0.004C34.375,81.819,34.37,80.782,34.375,79.744z"/>
<path fill="#470606" d="M61.522,32.732c0.326-0.995,0.652-1.993,0.98-2.987c0.871-1.196,1.804-1.303,2.804-0.153c1.252,0.083,2.507,0.162,3.76,0.241c0.648,0.65,0.938,1.352,0.868,2.105c-0.072,0.785-0.197,1.175-0.373,1.181c-0.909,0.882-1.981,1.456-3.215,1.736c-1.26,0.061-2.464-0.18-3.61-0.708C62.33,33.678,61.926,33.205,61.522,32.732z"/>
<path fill="#A35858" d="M69.115,32.601c-0.225-0.919-0.242-1.843-0.054-2.768c1.955-0.031,3.908-0.058,5.858-0.088c0.061,1.034,0.006,2.063-0.163,3.088c-0.604,0.381-1.207,0.763-1.81,1.144C71.459,34.102,70.182,33.641,69.115,32.601z"/>
<path fill="#E1D7CB" d="M65.306,29.591c-0.93,0.144-1.865,0.192-2.804,0.153c0.048-1.056,0.095-2.109,0.153-3.165c0.834,0.028,1.66,0.028,2.479,0.006C65.665,27.559,65.724,28.563,65.306,29.591z"/>
<path fill="#945C51" d="M53.165,23.372c0.998-0.913,1.998-1.828,2.997-2.741c0.052,0.964,0.1,1.926,0.141,2.887c-0.536,0.253-1.073,0.506-1.608,0.76C54.185,23.976,53.675,23.674,53.165,23.372z"/>
<path fill="#3E1D1D" d="M58.958,23.561c0.473,0.943,0.505,1.901,0.099,2.875c-2.604,0.589-3.648-0.305-2.827-2.973c0,0,0.07,0.055,0.071,0.055C57.188,23.494,58.072,23.506,58.958,23.561z"/>
<path fill="#350D0D" d="M59.146,29.787c0.342,0.833,0.654,1.672,0.941,2.524c0.572,1.712,2.232,2.359,3.416,3.479c0.631,0.949,1.044,1.983,1.302,3.091c0.152,1.126,0.1,2.246-0.098,3.363c-0.325,1.086-0.893,2.039-1.647,2.88c-0.956,0.629-2.001,0.867-3.135,0.671c-0.988-0.503-1.84-1.193-2.567-2.032c-1.049-1.267-2.016-2.6-3.026-3.912c-1.085-1.325-2.003-2.747-2.686-4.331c-0.378-1.132-0.523-2.292-0.472-3.485c0.156-0.58,0.325-1.15,0.487-1.73c0.636-1.071,1.547-1.813,2.689-2.286C56.2,27.925,57.974,28.044,59.146,29.787z"/>
<path fill="#673232" d="M59.146,29.787c-1.955,0.052-3.911,0.101-5.867,0.149c-1.045-0.857-1.671-1.953-1.877-3.29c0.16-1.346,0.763-2.451,1.81-3.311c0,0-0.047,0.037-0.046,0.037c1.02,0.119,2.04,0.149,3.064,0.091c0.943,0.992,1.885,1.984,2.827,2.976C59.086,27.553,59.116,28.67,59.146,29.787z"/>
<path fill="#7E5852" d="M62.282,35.652c-0.73-1.114-1.463-2.228-2.195-3.342l1.435,0.421c0.564-0.216,1.127-0.213,1.688,0.006c0.17,0.589,0.338,1.178,0.507,1.764C63.239,34.886,62.762,35.268,62.282,35.652z"/>
<path fill="#160B0B" d="M72.495,51.613c-0.201,1.047-0.402,2.094-0.603,3.141c-1.049-0.01-2.095-0.016-3.144-0.021c-1.161,0.823-2.251,0.784-3.262-0.266c-1.551-3.357-0.187-6.226,1.489-9.049c1.528-2.001,3.43-3.646,5.242-5.392c0.925-0.888,1.996-1.544,3.176-2.036c0.636-0.009,1.272-0.009,1.912-0.012c0.554,0.317,1.104,0.641,1.658,0.961c0.54,1.3,0.257,2.386-0.849,3.259c0.078,1.102,0.157,2.203,0.235,3.305c0.587,0.665,0.801,1.346,0.641,2.041c-0.163,0.702-0.336,1.053-0.519,1.053C76.952,50.533,73.896,49.427,72.495,51.613z"/>
<path fill="#1B0D0D" d="M87.501,42.275c0.003,1.044,0.007,2.087,0.012,3.131c-0.008,0.967-0.099,1.926-0.279,2.874c-0.003-0.003,0.264,0.199,0.264,0.199c-1.042,1.15-2.084,1.15-3.126-0.004c0,0,0.089,0.019,0.09,0.019C85.475,46.422,86.487,44.347,87.501,42.275z"/>
<path fill="#544A45" d="M78.08,48.406c0.006-0.977,0.096-1.944,0.27-2.906c1.021,1.038,2.04,2.072,3.062,3.107c0.001,0-0.159-0.122-0.159-0.122c-0.54,0.458-1.08,0.918-1.622,1.386C79.114,49.385,78.597,48.897,78.08,48.406z"/>
<path fill="#0D0606" d="M78.116,42.198c0.041-0.979,0.086-1.962,0.132-2.942c0.483-0.381,0.969-0.763,1.454-1.145c0.519,0.333,1.037,0.666,1.556,1.001C80.21,40.141,79.163,41.17,78.116,42.198z"/>
<path fill="#110909" d="M81.255,35.97c1.061,0.021,2.123,0.045,3.184,0.07c-1.06,1.022-2.12,2.048-3.181,3.073l-0.091-0.042c-0.74-0.711-0.976-1.407-0.702-2.087C80.735,36.308,80.997,35.97,81.255,35.97z"/>
<path fill="#170C0C" d="M81.255,35.97c-0.006,1.034-0.035,2.069-0.087,3.101c-0.978,0.021-1.951,0.082-2.922,0.183c0.002,0.003-0.245-0.275-0.245-0.275c-0.942-0.852-1.482-1.904-1.626-3.165c0.21-1.26,0.854-2.252,1.866-3.015L78.104,32.9c1.028-0.015,2.055-0.073,3.077-0.18C81.206,33.803,81.23,34.886,81.255,35.97z"/>
<path fill="#5E5A56" d="M84.371,48.475c1.042,0.004,2.086,0.004,3.126,0.004c0,1.04,0.002,2.084,0.002,3.128c-1.042,0-2.084,0-3.117,0.003C84.383,50.569,84.377,49.522,84.371,48.475z"/>
<path fill="#211513" d="M75.156,64.149c0.03,1.063,0.06,2.128,0.09,3.192c0.762,0.754,0.974,1.462,0.638,2.118c-0.321,0.632-0.625,0.949-0.914,0.949l0.156-0.128c-1.02,0.106-2.042,0.201-3.063,0.28c0.001,0-0.184-0.204-0.184-0.204c-0.926-1.15-1.971-2.186-3.117-3.119c0,0-0.479-0.421-0.482-0.428c0.164-0.896,0.379-1.778,0.642-2.651C71,64.156,73.078,64.153,75.156,64.149z"/>
<path fill="#64615D" d="M74.97,70.409c0.021-1.031,0.107-2.054,0.269-3.07c0.907-0.079,1.809-0.125,2.706-0.138c0.192,0.995,0.236,1.999,0.126,3.003C77.039,70.323,76.006,70.39,74.97,70.409z"/>
<path fill="#563232" d="M12.482,32.784c1.05,0.018,2.1,0.037,3.149,0.055c0.447,0.549,0.896,1.096,1.349,1.642c-0.426,0.564-0.856,1.129-1.285,1.693c0,0,0.104-0.131,0.105-0.131c-1.089,0.024-2.18,0.052-3.271,0.076C12.515,35.008,12.498,33.895,12.482,32.784z"/>
<path fill="#120606" d="M15.632,32.838c0.019-1.083,0.039-2.167,0.058-3.253c1.006,0.101,2.013,0.11,3.02,0.027c0.007,1.08,0.015,2.161,0.022,3.244c-1.025,1.257-2.089,1.291-3.188,0.091L15.632,32.838z"/>
<path fill="#311818" d="M15.545,32.948c1.062-0.03,2.125-0.061,3.189-0.091c1.088,0.015,2.176,0.027,3.265,0.042c-0.238,1.083-0.479,2.167-0.725,3.25c-0.006,0-1.381-0.101-1.381-0.101s-1.379,0.034-1.381,0.034c-0.003,0.003-1.413-0.021-1.413-0.021l-1.405,0.11C15.646,35.1,15.595,34.026,15.545,32.948z"/>
<path fill="#CCAAA1" d="M37.765,31.95c0,0,0.305-1.486,0.304-1.486c0.879-0.26,1.763-0.5,2.652-0.72c1.981,0.024,3.96,0.052,5.939,0.076c0.444,0.33,0.888,0.662,1.337,0.989c0.486,1.019,0.689,2.09,0.619,3.22c-0.28,1.102-0.877,2.008-1.733,2.747c-1.066,0.357-2.154,0.403-3.258,0.204c-1.596-0.439-3.05-1.172-4.332-2.228C38.612,33.919,38.102,32.979,37.765,31.95z"/>
<path fill="#C1A899" d="M53.211,23.336c0.003,1.016-0.063,2.032-0.196,3.04c-1.82,2.066-3.815,2.093-5.947,0.506c1.068-1.16,2.136-2.319,3.205-3.479C51.252,23.378,52.231,23.354,53.211,23.336z"/>
<path fill="#473B37" d="M47.068,26.881c1.982-0.168,3.964-0.335,5.947-0.506c0.087,1.184,0.174,2.371,0.262,3.558c0.002,0.003-0.324-0.165-0.324-0.165c-1.98,1.761-3.84,1.803-5.538-0.397L46.66,29.82C46.616,28.817,46.752,27.837,47.068,26.881z"/>
<path fill="#7B4949" d="M34.356,36.034c1.071-0.034,2.143-0.067,3.213-0.101c0.296,0.513,0.592,1.022,0.888,1.535c-0.099,1.27-0.755,2.143-1.898,2.67c-0.594-0.046-1.188-0.088-1.781-0.134c-0.452-0.391-0.899-0.784-1.349-1.175c-0.458-1.245-0.121-2.216,1.007-2.908L34.356,36.034z"/>
<path fill="#7B0C0C" d="M37.765,31.95c0.974,0.229,1.874,0.626,2.696,1.196c0.597,0.668,0.798,1.34,0.603,2.014c-0.194,0.675-0.389,1.013-0.588,1.013c-1.057,0.791-2.064,0.696-3.029-0.167c0,0,0.121-0.07,0.122-0.07C37.635,34.606,37.699,33.278,37.765,31.95z"/>
<path fill="#311919" d="M28.173,36.015c-0.867-0.021-1.73,0.024-2.585,0.134c-0.226-1.111-0.458-2.225-0.691-3.335c2.147,0,4.297,0,6.447,0.003c-0.044,1.096-0.088,2.194-0.132,3.293c-0.518,0.357-1.036,0.714-1.554,1.074C29.162,36.797,28.668,36.406,28.173,36.015z"/>
<path fill="#530808" d="M34.437,35.921c-0.02,1.117-0.042,2.237-0.061,3.354c-1.234,0.717-2.497,0.769-3.787,0.15c-0.682-1.34-0.454-2.502,0.68-3.485c0,0-0.056,0.168-0.056,0.171C32.287,36.046,33.363,35.985,34.437,35.921z"/>
<path fill="#321A1A" d="M68.763,67.238c1.039,1.041,2.078,2.081,3.117,3.119C70.841,69.319,69.802,68.279,68.763,67.238z"/>
<path fill="#180D0D" d="M62.522,60.936c-0.15,1.093-0.3,2.188-0.45,3.28c-0.727-0.098-1.453-0.18-2.181-0.247c-0.551-0.201-1.101-0.402-1.652-0.604c-0.132-1.214,0.198-2.273,1.063-3.152C60.499,59.898,61.566,60.167,62.522,60.936z"/>
<path fill="#49423E" d="M56.249,66.692c0.052-0.895,0.094-1.789,0.122-2.683c0.989-1.407,1.912-1.367,2.771,0.122c0,0,0.743-0.162,0.746-0.162c-0.159,1.114-0.32,2.23-0.482,3.348C58.355,67.11,57.302,66.899,56.249,66.692z"/>
<path fill="#3A1A1A" d="M50.319,60.777c-1.278,0.168-2.556,0.336-3.833,0.501c0,0-0.967-1.218-0.971-1.218c-0.251-1.025-0.61-2.005-1.112-2.942c-0.969-1.346-1.944-2.676-1.976-4.446c0.299-1.159,0.809-2.2,1.503-3.171c2.011-1.727,4.175-2.637,6.779-1.343c0.865,0.995,1.479,2.118,1.871,3.376c0.261,1.294,0.313,2.597,0.162,3.909C52.098,57.293,51.55,59.19,50.319,60.777z"/>
<path fill="#5D4136" d="M50.319,60.777c-0.108-2.063-0.217-4.129-0.324-6.194c1.062-0.986,2.317-1.432,3.766-1.337c1.352,0.494,2.379,1.361,3.03,2.651c-0.162,0.681-0.326,1.358-0.49,2.039c-1.047,0.922-2.095,1.843-3.142,2.762c0.002-0.003-1.417,0.101-1.417,0.101L50.319,60.777z"/>
<path fill="#776460" d="M43.682,63.774c-0.038-0.9,0.078-1.779,0.35-2.64c0.003,0-0.226,0.089-0.226,0.089c0.5-0.607,1-1.212,1.5-1.819c0.502,0.604,1.004,1.209,1.504,1.813c0,0-0.317,0.062-0.32,0.062c-0.046,2.045-0.087,4.089-0.131,6.134c-0.804-0.122-1.614-0.198-2.428-0.223c-0.932-0.696-1.278-1.435-1.042-2.213C43.131,64.173,43.396,63.774,43.682,63.774z"/>
<path fill="#908C85" d="M43.682,63.774c0.083,1.139,0.163,2.276,0.247,3.415c0,1.123-0.003,2.249-0.004,3.372l0.034-0.027c-1.897,1.642-3.903,1.728-6.009,0.424c-0.41-0.613-0.818-1.227-1.228-1.837c0.024-0.738,0.052-1.474,0.076-2.209c1.109-0.989,2.367-1.737,3.748-2.283C41.59,64.344,42.637,64.058,43.682,63.774z"/>
<path fill="#57504B" d="M62.522,60.936c-1.011,0.03-2.022,0.058-3.034,0.079c-1.015,1.282-2.03,1.218-3.047,0.003c-0.021-1.031-0.068-2.057-0.141-3.082l-0.06,0.03c0.751-1.093,1.787-1.699,3.11-1.821c1.283,0.191,2.4,0.729,3.353,1.611c0.69,1.187,0.636,2.313-0.284,3.362L62.522,60.936z"/>
<path fill="#5C5650" d="M56.441,61.018c1.015-0.027,2.029-0.027,3.046-0.003c-0.11,1.041-0.223,2.078-0.341,3.116c-0.932-0.013-1.856-0.052-2.778-0.122C56.287,63.008,56.311,62.01,56.441,61.018z"/>
<path fill="#7D6E66" d="M38.532,70.149c1.81,0.128,3.618,0.257,5.426,0.385c-0.069,0.977-0.187,1.95-0.357,2.914c-1.092,0.955-2.185,1.907-3.279,2.859c-0.001,0,0.121-0.012,0.121-0.012c-0.914,1.446-1.828,1.443-2.739-0.003l0.055,0.112c-1.077-0.652-1.723-1.602-1.937-2.844c-0.107-1.236,0.172-2.374,0.894-3.394C37.322,70.162,37.927,70.155,38.532,70.149z"/>
<path fill="#1E1010" d="M37.704,76.293c0.913,0.052,1.827,0.055,2.741,0.003c0.09,0.879,0.174,1.761,0.253,2.637c-1.105,0.104-2.211,0.214-3.317,0.317C37.485,78.26,37.594,77.278,37.704,76.293z"/>
<path fill="#70665F" d="M27.855,44.777c0.125-0.882,0.201-1.77,0.226-2.661c-0.001-0.003-0.111,0.067-0.111,0.067c1.727-1.935,3.729-1.499,5.775-0.666c0.761,0.748,1.08,1.547,0.958,2.402c-0.125,0.879-0.296,1.318-0.514,1.318l0.005-0.098C32.08,45.018,29.966,44.899,27.855,44.777z"/>
<path fill="#3C1A1A" d="M34.376,64.107c1.144,0.061,2.289,0.125,3.433,0.186c0.691,1.001,0.699,2.009,0.021,3.021l-0.624-0.296c-1.251,1.916-3.049,2.173-5.1,1.679c-0.537-0.385-1.071-0.772-1.608-1.16c-0.581-1.327-0.375-2.478,0.745-3.433l0.008,0.003C32.292,62.868,33.334,62.806,34.376,64.107z"/>
<path fill="#482525" d="M34.376,64.107c-1.042,0-2.084,0-3.126,0c0-1.041,0-2.085,0.001-3.125c1.042,0,2.083,0,3.126,0.003C34.375,62.025,34.373,63.066,34.376,64.107z"/>
<path fill="#908C87" d="M37.831,67.314c-0.272-1.007-0.279-2.014-0.021-3.021c0.952-0.223,1.865-0.109,2.736,0.336C39.64,65.523,38.735,66.417,37.831,67.314z"/>
<path fill="#7A5A55" d="M50.04,48.713c-2.03,1.035-4.06,2.072-6.091,3.11c-1.227,1.446-2.231,1.306-3.015-0.422l-0.749,0.373c0.27-0.98,0.49-1.972,0.654-2.973c1.045-1.755,1.083-3.967,2.516-5.554c3.256-3.076,6.877-4.56,11.279-2.53c1.212,0.726,1.966,1.794,2.322,3.155c-0.203,2.176-1.315,3.79-3.088,4.992C52.57,49.437,51.292,49.413,50.04,48.713z"/>
<path fill="#361212" d="M44.201,44.887c-1.122,1.303-2.242,2.609-3.362,3.913c-1.114-1.142-2.228-2.283-3.343-3.424l0.005-0.042c-0.818-1.071-0.854-2.194-0.214-3.36c0.966-0.83,2.077-1.358,3.317-1.632c1.285,0.055,2.458,0.439,3.528,1.15C44.926,42.607,44.949,43.739,44.201,44.887z"/>
<path fill="#603A32" d="M40.934,51.402c1.01,0.101,2.014,0.238,3.014,0.418c-0.066,0.989-0.052,1.972,0.04,2.954c0.377,0.562,0.754,1.123,1.135,1.685c-0.467,0.488-0.938,0.974-1.408,1.462c-1.117-0.027-2.234-0.055-3.353-0.082C40.551,55.693,40.743,53.547,40.934,51.402z"/>
<path fill="#0D0606" d="M46.81,61.216l-1.501-0.128c0,0-1.503,0.131-1.503,0.135c-0.03-1.103-0.061-2.204-0.091-3.303l0.165,0.003c0.969-1.059,1.932-1.053,2.89,0.013C46.783,59.032,46.796,60.125,46.81,61.216z"/>
<path fill="#201010" d="M37.747,41.979c-0.083,1.117-0.164,2.237-0.246,3.354c-1.104-0.031-2.207-0.062-3.312-0.095c-0.146-1.083-0.291-2.17-0.436-3.256c0.403-0.339,0.807-0.674,1.21-1.016c0.526-0.009,1.054-0.012,1.582-0.019C36.947,41.289,37.347,41.634,37.747,41.979z"/>
<path fill="#5E3A33" d="M31.243,64.104c-0.011,1.059-0.021,2.117-0.032,3.177c-1.017,1.013-2.045,1.08-3.088,0.039c0.017-1.053,0.033-2.108,0.05-3.164C29.197,64.122,30.219,64.104,31.243,64.104z"/>
<path fill="#271212" d="M28.123,67.32c1.028-0.07,2.058-0.082,3.088-0.039l-0.078-0.092c0.865,2.917,0.148,4.27-3.09,3.119c0,0,0.024,0.027,0.023,0.027C28.125,69.332,28.143,68.328,28.123,67.32z"/>
<path fill="#66504A" d="M28.043,70.308c1.03-1.038,2.06-2.078,3.09-3.119c2.023-0.055,4.048-0.113,6.073-0.171c0.438,1.044,0.877,2.087,1.321,3.131c0.004,0-1.271,0.33-1.271,0.33c-0.664,0.812-1.188,1.709-1.587,2.679c-0.513,0.101-1.027,0.198-1.54,0.296l-1.442-0.109l-1.438,0.144c-1.108-0.07-2.214-0.138-3.322-0.208C27.954,72.289,27.992,71.299,28.043,70.308z"/>
<path fill="#817A71" d="M33.753,41.982c-1.929,0.067-3.856,0.134-5.783,0.205c0.101-1.041,0.139-2.082,0.111-3.122l0.064,0.064c1.018-1.266,2.102-1.327,3.252-0.18c0.984,0.183,1.976,0.29,2.977,0.326c0.001,0-0.153-0.152-0.153-0.152c1.117,0.592,1.542,1.263,1.282,2.014c-0.274,0.793-0.578,1.187-0.911,1.187L33.753,41.982z"/>
<path fill="#5B4A46" d="M31.397,38.948c-1.083,0.061-2.168,0.119-3.252,0.18c-0.027-1.038-0.02-2.078,0.026-3.116c1.033-0.018,2.064-0.042,3.097-0.07C31.227,36.946,31.269,37.95,31.397,38.948z"/>
<path fill="#574D48" d="M78.241,32.799c-0.108,1.038-0.269,2.066-0.479,3.085c-1.011,1.242-2.147,1.309-3.393,0.366c-0.703-1.349-0.492-2.542,0.629-3.574l-0.241,0.152C75.918,32.82,77.079,32.811,78.241,32.799z"/>
<path fill="#100808" d="M65.937,54.881c0.938-0.055,1.874-0.104,2.813-0.149c-1.08,0.998-2.159,1.995-3.239,2.993c0,0-0.957-0.931-0.958-0.931c-0.002,0,0.188-1.321,0.188-1.321C64.737,55.473,65.937,54.881,65.937,54.881z"/>
<path fill="#0A0404" d="M62.42,61.119c0.081-1.116,0.162-2.233,0.242-3.351c0.509-0.382,1.019-0.763,1.527-1.147c0.481,0.415,0.963,0.833,1.444,1.251c0,0-0.122-0.144-0.124-0.144C64.48,58.858,63.45,59.99,62.42,61.119z"/>
<path fill="#605853" d="M72.495,51.613c1.861-1.068,3.725-2.14,5.586-3.207c-0.001,0,0.04,0.082,0.04,0.082c0.838,0.692,1.117,1.386,0.839,2.078c-0.275,0.696-0.554,1.044-0.833,1.044h0.002c-1.046,1.26-2.088,1.26-3.13-0.003C74.164,51.607,73.33,51.61,72.495,51.613z"/>
<path fill="#4C3B36" d="M74.999,51.607c1.042,0,2.083,0,3.127,0.003c-0.002,1.04-0.003,2.081-0.002,3.122c-1.042,0-2.084,0-3.125,0C74.999,53.691,74.999,52.647,74.999,51.607z"/>
<path fill="#503C38" d="M78.127,51.61c-0.001-1.044-0.001-2.085-0.004-3.125c1.042,0,2.084,0,3.128-0.003c-0.002,1.043-0.003,2.084-0.002,3.125h-1.561L78.127,51.61z"/>
<path fill="#251817" d="M37.252,73.503c0.256,0.952,0.424,1.923,0.504,2.902c-1.206,0.013-2.414,0.024-3.625,0.037c0.21-0.998,0.212-1.99,0-2.984c0-0.004,1.123,0.213,1.123,0.213C35.92,73.613,36.585,73.558,37.252,73.503z"/>
<path fill="#2A1414" d="M74.999,32.677c0.037,1.104,0.072,2.209,0.106,3.314c-0.62,0.888-1.354,1.669-2.215,2.338c-1.282,1.068-2.72,1.855-4.275,2.447c-1.084,0.317-2.187,0.394-3.307,0.29c-1.066-0.378-1.96-1.01-2.682-1.886c-0.112-1.175-0.227-2.347-0.343-3.525c-0.002-0.003,0.095,0.259,0.095,0.259c1.153-0.918,2.037-2.127,3.224-3.009c1.171-0.101,2.343-0.205,3.513-0.305C71.076,32.625,73.038,32.652,74.999,32.677z"/>
<path fill="#190909" d="M65.603,32.906c-1.074,1.004-2.148,2.008-3.224,3.009c0.276-1.059,0.554-2.118,0.831-3.177C64.007,32.805,64.805,32.863,65.603,32.906z"/>
<path fill="#B6817B" d="M44.201,44.887c-0.253-0.913-0.598-1.788-1.035-2.627c-0.5-1.15-0.444-2.258,0.256-3.314c1.272-1.416,3.204-1.339,4.766-2.105c1.072-0.513,2.206-0.775,3.394-0.8c0.584,0.061,1.168,0.125,1.753,0.189c1.226,1.004,2.452,2.008,3.679,3.009c0.23,0.602,0.461,1.2,0.697,1.801c-0.526,0.366-1.058,0.732-1.588,1.099C52.147,43.053,48.174,43.971,44.201,44.887z"/>
<path fill="#241212" d="M47.088,35.933c-0.085-0.879-0.017-1.746,0.209-2.6c1.606-2.686,3.6-2.118,5.696-0.675c0.112,1.19,0.228,2.38,0.34,3.571c0.002,0-0.095-0.137-0.095-0.137c-0.964,0.711-2.03,1.168-3.219,1.343C48.772,37.462,47.78,36.989,47.088,35.933z"/>
<path fill="#8D786B" d="M52.993,32.658c-1.898,0.226-3.798,0.449-5.696,0.675c0.038-1.318,0.076-2.64,0.116-3.961c1.85,0.131,3.697,0.266,5.542,0.397C53.002,30.733,53.016,31.694,52.993,32.658z"/>
<path fill="#1E0303" d="M56.081,45.235c0.005-1.032,0.019-2.066,0.04-3.098c0.002,0,0.563,0.238,0.563,0.238c0.809-1.111,1.643-1.129,2.504-0.061c0.058,1.01,0.123,2.018,0.199,3.024c0,0-1.007,0.939-1.007,0.943c0.002,0-1.376-0.024-1.376-0.024L56.081,45.235z"/>
<path fill="#110808" d="M59.388,45.338c0.973,0.024,1.944,0.006,2.915-0.049c0.362,0.421,0.726,0.842,1.089,1.264c0.029,1.187-0.462,2.09-1.473,2.716c-1.165,0.036-2.158-0.366-3.009-1.15c-0.616-1.08-0.482-2.023,0.518-2.805L59.388,45.338z"/>
<path fill="#221111" d="M62.627,39.18c0.971-0.046,1.941-0.077,2.913-0.085c0.445,0.521,0.893,1.043,1.34,1.565c-0.244,0.644-0.488,1.288-0.732,1.932c-1.278,0.833-2.474,0.723-3.581-0.327C62.537,41.237,62.558,40.209,62.627,39.18z"/>
<path fill="#1C0B0B" d="M59.189,42.314c-0.837-0.018-1.671,0-2.504,0.061c0.109-1.046,0.22-2.09,0.329-3.134C57.738,40.263,58.463,41.289,59.189,42.314z"/>
<path fill="#390606" d="M62.566,42.265c0.929-0.04,1.858-0.088,2.786-0.149c0.832,0.659,1.229,1.413,1.191,2.265c-0.039,0.9-0.166,1.352-0.38,1.354c-1.309,0.809-2.532,0.732-3.654-0.36c0,0-0.203-0.083-0.204-0.083C62.445,44.286,62.533,43.278,62.566,42.265z"/>
<path fill="#65625E" d="M62.51,45.375c0.933,0,1.858-0.08,2.778-0.232c1.305-1.016,2.532-0.928,3.681,0.259c-1.012,3.159-2.023,6.32-3.033,9.479c0.001,0-0.345-0.174-0.345-0.174c-0.498,0.445-0.997,0.888-1.492,1.336c-1.363-0.25-2.42-0.948-3.128-2.157c-0.61-2.029-0.422-3.903,1.112-5.502C62.344,47.398,62.485,46.394,62.51,45.375z"/>
<path fill="#584C47" d="M68.969,45.402c-1.226-0.085-2.452-0.171-3.679-0.259c0.155-1.007,0.177-2.014,0.064-3.027c-0.002,0,0.337,0.165,0.337,0.165c1.425-1.761,3.551-1.669,5.487-2.082c1.34,0.314,2.482,0.961,3.399,1.996C72.709,43.263,70.84,44.335,68.969,45.402z"/>
<path fill="#46423D" d="M72.257,36.088c0.951,0.016,1.9-0.015,2.849-0.098c0.889-0.015,1.775-0.052,2.658-0.106c0.213,1.022,0.292,2.054,0.238,3.094c-0.971,0.134-1.942,0.183-2.919,0.141c-0.539,0.47-1.076,0.94-1.614,1.413c-0.646-0.308-1.291-0.616-1.938-0.928C70.669,38.204,70.966,37.044,72.257,36.088z"/>
<path fill="#59544E" d="M72.408,39.223c0.891-0.024,1.782-0.058,2.673-0.104c-0.163,1.025-0.329,2.051-0.498,3.076c-0.936,0.012-1.868,0.018-2.801,0.012c-0.842-0.867-1.029-1.599-0.564-2.194C71.629,39.488,72.023,39.223,72.408,39.223z"/>
<path fill="#7A5A55" d="M47.088,35.933c0.879,0.061,1.76,0.104,2.642,0.134l1.165,0.992l-0.377,1.486c-2.396,0.235-4.792,0.467-7.188,0.702c0,0-0.769-1.074-0.771-1.074c-0.003,0,0.067-1.324,0.064-1.324c-0.001,0,1.085-0.76,1.085-0.76C44.834,36.037,45.962,35.985,47.088,35.933z"/>
<path fill="#84645D" d="M40.006,36.04c0.304-0.94,0.455-1.907,0.455-2.896c1.083,0.983,2.166,1.962,3.247,2.945l0.093-0.073c-0.63,0.382-1.26,0.766-1.891,1.147C41.276,36.791,40.641,36.415,40.006,36.04z"/>
<path fill="#5F3636" d="M40.351,42.061c-0.868-0.052-1.738-0.08-2.607-0.08c0.003-0.003-0.167,0.177-0.167,0.177c-0.969-0.675-1.3-1.361-1-2.063c0.302-0.711,0.612-1.065,0.928-1.065c-0.008-1.007-0.026-2.017-0.058-3.024c0.854-0.034,1.709-0.021,2.561,0.033c-0.001,0,1.028-0.061,1.028-0.061c0.737,0.958,1.085,2.042,1.044,3.247C41.982,40.465,41.384,41.396,40.351,42.061z"/>
<path fill="#241414" d="M37.505,39.03c0.023,1.044,0.044,2.087,0.069,3.131c-0.997,0.04-1.993,0.095-2.986,0.162c-0.117-1.068-0.239-2.136-0.363-3.204C35.316,39.091,36.411,39.061,37.505,39.03z"/>
<path fill="#120606" d="M53.042,54.485L51.521,54.6c0,0-1.525-0.012-1.525-0.015c0.022-0.986,0.038-1.969,0.047-2.954c0.934-0.861,1.912-0.916,2.936-0.165C53.747,52.455,53.769,53.463,53.042,54.485z"/>
<path fill="#500808" d="M46.769,57.936l-1.447-0.037c0,0-1.446,0.021-1.445,0.021c0.037-1.047,0.072-2.097,0.108-3.146C44.915,55.831,45.841,56.883,46.769,57.936z"/>
<path fill="#1E1211" d="M53.08,51.625l-1.52-0.006l-1.521,0.013c-0.044-0.974-0.045-1.95,0-2.921c0.786-0.451,1.632-0.727,2.532-0.83c0.459,0.284,0.918,0.564,1.379,0.846c0.037,0.537,0.072,1.074,0.11,1.611C53.736,50.767,53.408,51.195,53.08,51.625z"/>
<path fill="#281613" d="M53.042,54.485c0.063-0.956,0.076-1.908,0.038-2.86l0.151-0.063c0.578-0.754,1.259-1.401,2.037-1.95c0.766-0.61,1.637-0.958,2.61-1.044c-0.002-0.006,1.417-0.098,1.417-0.098c0.932-0.012,1.86-0.039,2.788-0.085c0.122,2.127,0.247,4.257,0.371,6.387c-0.678,1.242-1.644,2.173-2.945,2.747c-1.089,0.149-2.179,0.299-3.269,0.448C55.175,56.807,54.108,55.644,53.042,54.485z"/>
<path fill="#1B1211" d="M59.51,57.518c0.982-0.916,1.964-1.831,2.945-2.75c0,0.003,0.081-0.061,0.081-0.061c0.816,0.714,1.081,1.419,0.798,2.121c-0.281,0.695-0.561,1.043-0.838,1.043c0,0,0.163-0.101,0.165-0.101C61.611,57.686,60.562,57.6,59.51,57.518z"/>
<path fill="#2C1B1A" d="M37.252,73.503c-0.671,0.01-1.339,0.064-2,0.168c0.67-1.064,1.338-2.13,2.007-3.191C37.559,71.486,37.557,72.496,37.252,73.503z"/>
<path fill="#1E1211" d="M52.572,47.88c1.172-0.882,2.342-1.761,3.511-2.646c-0.002,0,0.215,0.058,0.215,0.058c0.704,0.714,0.955,1.446,0.759,2.194c-0.198,0.757-0.411,1.132-0.634,1.135c-1.146,0.919-2.246,0.824-3.308-0.149L52.572,47.88z"/>
<path fill="#311919" d="M40.351,42.061c0.107-1.086,0.212-2.173,0.319-3.259c1.183-0.867,2.19-0.742,2.991,0.534c0,0-0.328-0.088-0.33-0.088c0.244,1.02,0.189,2.023-0.165,3.009C42.225,42.232,41.287,42.168,40.351,42.061z"/>
<path fill="#483D39" d="M62.496,57.872c0.008-1.05,0.016-2.103,0.03-3.158c1.033,0.016,2.058,0.019,3.073,0c0.005,1.047,0.017,2.1,0.032,3.155C64.588,57.872,63.541,57.872,62.496,57.872z"/>
<path fill="#422B28" d="M72.408,39.223c-0.337,0.967-0.545,1.965-0.624,2.988c-2.032,0.021-4.063,0.046-6.093,0.07c-0.051-1.062-0.1-2.124-0.149-3.186c1.096-0.046,2.191-0.089,3.288-0.134c0.966-1.035,1.901-0.956,2.806,0.082L72.408,39.223z"/>
<path fill="#390606" d="M71.636,39.043l-1.405,0.003c0,0-1.403-0.083-1.402-0.085c1.142-0.958,2.281-1.917,3.426-2.872C72.091,37.081,71.884,38.066,71.636,39.043z"/>
<path fill="#260909" d="M50.518,38.546c-0.421-0.775-0.682-1.603-0.785-2.478c1.166,0.006,2.336,0.015,3.506,0.024C52.332,36.91,51.425,37.728,50.518,38.546z"/>
<path fill="#3B2222" d="M56.292,48.482c0.003-1.063,0.005-2.124,0.006-3.189c1.042,0.009,2.086,0.016,3.13,0.021c-0.043,1.053-0.087,2.103-0.132,3.155l0.1-0.052c-0.508,0.421-1.018,0.839-1.525,1.264C57.345,49.285,56.818,48.884,56.292,48.482z"/>
<path fill="#C17373" d="M43.661,39.336c-1.002-0.143-2-0.32-2.992-0.531c-0.053-0.964,0.066-1.904,0.362-2.826c0.928-0.006,1.849,0.006,2.77,0.037C43.754,37.123,43.707,38.228,43.661,39.336z"/>
<path fill="#341E1E" d="M53.115,48.472c1.059,0.003,2.118,0.007,3.177,0.01l-0.063-0.034c0.738,0.696,0.988,1.395,0.751,2.1c-0.24,0.705-0.482,1.06-0.727,1.06c-1.009-0.013-2.018-0.027-3.024-0.046C53.162,50.533,53.124,49.505,53.115,48.472z"/>
<path fill="#0A0404" d="M56.254,51.607c-0.008-1.053-0.017-2.106-0.024-3.159c1.056-0.009,2.11-0.018,3.166-0.027C58.349,49.483,57.301,50.545,56.254,51.607z"/>
</svg>