<?xml version="1.0" encoding="utf-8"?>
<!DOCTYPE svg PUBLIC "-//W3C//DTD SVG 1.1//EN" "http://www.w3.org/Graphics/SVG/1.1/DTD/svg11.dtd">
<svg version="1.1" xmlns="http://www.w3.org/2000/svg" xmlns:xlink="http://www.w3.org/1999/xlink" x="0px" y="0px" width="100px" height="100px" viewBox="0 0 100 100" enable-background="new 0 0 100 100" xml:space="preserve">
<path fill="#ECEAE3" d="M68.857,12.402c1.005,0.29,2.009,0.58,3.013,0.87c2.612,3.537,4.785,7.303,6.02,11.572c0.465,2.237,0.444,4.471-0.055,6.699c-0.433,1.45-1.096,2.789-1.969,4.025c-5.984,5.729-13.168,9.174-21.18,11.02c-1.387,0.165-2.79,0.137-4.178-0.024c-1.995-0.25-3.9-0.964-5.883-1.321c-1.924-0.388-3.791-0.983-5.597-1.779c-1.19-0.58-2.237-1.361-3.181-2.292c-0.854-1.025-1.535-2.158-2.095-3.373c-1.001-2.594-1.401-5.206-0.182-7.861c1.045-1.828,2.501-3.238,4.358-4.236c3.946-1.147,7.901-1.965,11.832,0.067c2.132,0.711,4.221,0.87,6.206-0.214c-1.798,0.69-3.664,0.473-5.576,0.128c-2.855-1.7-6.361-1.111-9.208-2.719c-1.839-1.929-2.071-4.397-2.298-6.87c-0.105-2.377,0.748-4.431,2.209-6.253c0.868-1.102,2.764-1.553,2.307-3.546c3.264-0.799,6.527-1.602,9.791-2.401c1.162,0.76,2.288,1.568,3.378,2.429c0.996-0.019,1.932,0.213,2.803,0.696c0.795,0.961,1.168,2.063,1.136,3.293C62.427,14.459,65.983,12.079,68.857,12.402z"/>
<path fill="#989792" d="M6.774,62.588C6.747,50.042,6.72,37.497,6.692,24.948c3.958-2.365,7.894-1.19,11.844,0.037c1.922,0.76,3.692,1.843,5.592,2.673c1.265,0.604,2.446,1.34,3.59,2.152c2.791,2.273,5.438,4.639,4.591,8.81c-1.831,4.733-6.093,7.306-9.459,10.663c-1.746,2.021-2.548,4.327-2.069,7.025c1.056,3.967,1.709,7.916-0.302,11.792c-2.071,2.722-4.553,2.148-7.118,0.903c-1.071-0.669-2.033-1.495-2.899-2.414C9.278,65.231,8.259,63.7,6.774,62.588z"/>
<path fill="#979591" d="M12.498,65.814c2.083,1.041,4.167,2.081,6.251,3.122c4.018-3.067,9.607,0.089,13.495-3.461c1.143-0.741,2.382-1.245,3.704-1.547c4.955,1.153,11.333-1.288,14.122,5.523c-0.774,15.595-2.794,17.536-19.043,18.344c-4.119-2.022-8.237-4.046-12.355-6.069C14.315,77.313,7.182,73.977,12.498,65.814z"/>
<path fill="#676562" d="M93.189,28.479c0,15.427,0,30.85,0,48.27c-5.456,2.408-11.755,5.191-18.054,7.971c-0.455-0.509-0.91-1.021-1.369-1.531c-1.746-7.37,6.144-10.041,7.658-15.82c2.431-4.581,5.157-9.061,4.596-14.588c-0.153-1.303-0.315-2.6-0.56-3.894c-0.295-1.315-0.466-2.64-0.626-3.979c-0.218-1.374-0.264-2.741-0.23-4.126C86.064,35.709,85.192,28.98,93.189,28.479z"/>
<path fill="#93908B" d="M31.027,87.795c4.907-2.588,9.814-5.172,15.091-7.952c0.262-5.026,0.496-9.528,0.731-14.032c-1.489-1.251-2.585-2.786-3.297-4.599c-0.543-6.25-2.971-13.565,7.599-13.62c8.732,14.426,2.92,29.517,2.024,44.385c-0.863,1.709-1.996,3.217-3.394,4.522C43.53,93.6,37.278,90.698,31.027,87.795z"/>
<path fill="#EEECE6" d="M18.546,28.509c-3.952-1.187-7.904-2.374-11.854-3.562c8.103-4.153,16.205-8.31,24.309-12.463c0.633,0.167,1.268,0.335,1.904,0.5c3.206,1.984,4.132,4.932,3.618,8.5c-0.417,1.901-1.234,3.634-2.353,5.221c-1.506,2.036-3.412,3.452-6.004,3.724c-1.127-0.101-2.234-0.373-3.29-0.794c-1.494-0.674-3.042-1.19-4.718-1.202C19.622,28.46,19.085,28.485,18.546,28.509z"/>
<path fill="#676663" d="M93.189,28.479c-1.896,5.151-3.793,10.306-5.69,15.457c-1.731,1.221-3.506,0.928-5.299,0.168c-1.099-0.583-2.081-1.337-2.987-2.185c-1.684-1.773-3.179-3.69-4.212-5.933c-0.117-0.589-0.228-1.184-0.336-1.779c0.125-0.857,0.265-1.715,0.415-2.57c3.263-3.851,6.439-7.837,12.177-7.843c2.121-0.113,4.271-0.363,6.127,1.068C93.319,26.068,93.254,27.273,93.189,28.479z"/>
<path fill="#676562" d="M49.781,96.5c0.076-0.879,0.192-1.755,0.348-2.624c2.598-2.805,0.711-6.543,2.007-9.623c1.196-2.743,3.255-4.36,6.224-4.813c4.743-0.052,7.768,2.591,10.041,6.412c0.175,0.671,0.343,1.346,0.511,2.021C62.534,90.747,56.158,93.625,49.781,96.5z"/>
<path fill="#EEECE6" d="M68.857,12.402c-5.005,2.551-10.01,5.105-15.013,7.657c-0.868-1.431-1.735-2.866-2.602-4.297c2.707-2.063,5.415-4.126,8.122-6.189c1.096,0.073,2.176-0.018,3.239-0.302C64.689,10.315,66.773,11.358,68.857,12.402z"/>
<path fill="#E5E1D8" d="M87.637,25.528c-4.186,2.036-8.371,4.074-12.557,6.109c-0.024-2.148-0.047-4.297-0.071-6.445c0.046-3.287-0.162-6.662,3.09-8.825c3.179,1.782,6.356,3.564,9.535,5.347C89.489,22.986,89.491,24.255,87.637,25.528z"/>
<path fill="#93918C" d="M12.498,65.814c2.057,5.304,4.115,10.608,6.174,15.912c-3.954-2.228-7.909-4.459-11.862-6.689C10.003,72.763,4.202,64.938,12.498,65.814L12.498,65.814z"/>
<path fill="#ECE9E3" d="M78.099,16.367c-1.03,2.941-2.06,5.884-3.09,8.825c-1.045-3.973-2.092-7.946-3.139-11.92C73.946,14.303,76.022,15.335,78.099,16.367z"/>
<path fill="#979692" d="M12.498,65.814c-1.896,3.073-3.792,6.146-5.688,9.223c-0.012-4.15-0.023-8.298-0.035-12.448c1.384-1.147,2.77-2.298,5.119-4.248C12.148,61.487,12.322,63.651,12.498,65.814z"/>
<path fill="#E8E4DC" d="M43.748,9.561c-1.041,2.084-2.082,4.169-3.122,6.25c-3.195,2.039-4.805-0.482-6.656-2.313c-0.841-1.245-0.712-2.38,0.384-3.405c0.881-0.439,1.813-0.656,2.795-0.656C39.381,7.794,41.581,7.767,43.748,9.561z"/>
<path fill="#ECE9E3" d="M43.748,9.561c-2.199-0.04-4.399-0.083-6.598-0.125c2.083-1.047,4.167-2.094,6.25-3.141c0.457,0.739,0.998,1.444,1.31,2.237C44.784,8.719,44.088,9.21,43.748,9.561z"/>
<path fill="#E1DCD2" d="M87.637,25.528c0-1.27-0.001-2.542-0.003-3.814c1.916,1.05,3.833,2.1,5.75,3.149C91.469,25.083,89.552,25.305,87.637,25.528z"/>
<path fill="#ECE9E3" d="M62.605,9.271c-1.08,0.101-2.159,0.202-3.239,0.302c0.003-0.852,0.005-1.703,0.006-2.554C60.448,7.77,61.526,8.521,62.605,9.271z"/>
<path fill="#676562" d="M75.136,84.719c-2.075,1.051-4.15,2.1-6.226,3.153c0.001,0-0.284-0.412-0.284-0.412c0.279-4.532,2.618-5.008,6.155-3.128L75.136,84.719z"/>
<path fill="#EEECE6" d="M34.355,10.092c0.006,0.863,0.009,1.727,0.008,2.594c-0.714,1.208-1.581,1.272-2.58,0.342l-0.781-0.543C32.119,11.688,33.236,10.889,34.355,10.092z"/>
<path fill="#ECE9E3" d="M56.568,6.323c-1.126-0.809-2.252-1.621-3.378-2.429C54.316,4.703,55.442,5.514,56.568,6.323z"/>
<path fill="#676663" d="M74.781,84.333c-2.052,1.043-4.104,2.084-6.155,3.128c-3.084-2.009-6.168-4.017-9.252-6.024c-3.585-1.962-4.561,1.294-6.25,3.125c-0.999,3.104-1.997,6.21-2.996,9.314c-0.132-15.573-0.265-31.146-0.396-46.72c-0.599-0.653-0.765-1.272-0.499-1.855c0.258-0.568,0.499-0.849,0.725-0.849c8.236-3.415,16.472-6.83,24.708-10.245l0.613,0.666c0.864,1.208,1.196,2.551,1.019,4.022c-2.109,6.653-6.501,12.222-8.936,18.713c-0.282,2.612-0.265,5.225,0.069,7.791c5.044,6.263,9.444-0.32,14.135-0.708c2.279,0.522,4.303,1.224,2.809,4.245C81.177,74.069,77.98,79.199,74.781,84.333z"/>
<path fill="#979591" d="M49.957,44.452c0.024,0.91-0.051,1.81-0.223,2.704c-0.966,5.179-1.929,10.354-2.892,15.53c-3.929,1.947-9.479-2.579-12.466,3.125h-0.001c-3.128,1.871-5.446,0.125-7.756-1.709c-4.033-5.023-6.944-10.58-7.871-17.047c4.277-3.168,8.556-6.336,12.833-9.503c2.101-1.697,4.076-1.843,5.849,0.476c0.075,0.879,0.169,1.758,0.286,2.634l-0.066-0.067c1.924,0.11,3.848,0.223,5.772,0.333c1.912,1.568,4.384,1.4,6.569,2.127L49.957,44.452z"/>
<path fill="#E8E4DC" d="M31.263,25.18c1.035-1.044,2.069-2.088,3.104-3.131c1.679-1.858,2.771-4.898,6.261-3.116c3.122,1.043,6.246,2.087,9.369,3.128c2.126,1.386,4.058,2.881,3.32,5.881c-2.02,1.962-4.165,2.334-6.442,0.366c-3.125,0-6.25,0-9.375,0.003C33.837,30.42,32.73,27.444,31.263,25.18z"/>
<path fill="#ECE9E3" d="M46.875,28.308c1.041-2.082,2.082-4.166,3.122-6.247c4.975,0,9.95,0,14.925,0c0.163,1.443,0.327,2.884,0.49,4.327C59.232,27.026,53.055,27.667,46.875,28.308z"/>
<path fill="#ECE9E3" d="M40.627,18.933c-2.087,1.041-4.175,2.078-6.261,3.116c-0.863-3.009-1.727-6.015-2.586-9.021c0.853-0.18,1.714-0.293,2.582-0.342c2.087,1.041,4.176,2.084,6.264,3.125c0.355,0.735,0.8,1.446,1.004,2.222C41.682,18.231,40.981,18.628,40.627,18.933z"/>
<path fill="#EBE8E2" d="M31.263,25.18c2.078,1.043,4.158,2.087,6.236,3.131c-1.042,1.044-2.086,2.084-3.128,3.128c-3.165,2.405-6.371,1.984-9.596,0.141l0.068,0.119c-0.769-0.791-1.001-1.557-0.7-2.295c0.297-0.729,0.581-1.093,0.856-1.093C27.087,27.267,29.176,26.224,31.263,25.18z"/>
<path fill="#EFEDE7" d="M24.775,31.58c3.198-0.049,6.398-0.095,9.596-0.141c1.019,2.194,2.039,4.392,3.058,6.589c-1.95-0.159-3.9-0.317-5.85-0.476C29.312,35.562,27.044,33.569,24.775,31.58z"/>
<path fill="#EEEBE5" d="M49.99,43.054c-2.189-0.711-4.377-1.419-6.567-2.127C45.611,41.635,47.801,42.343,49.99,43.054z"/>
<path fill="#969490" d="M28.131,62.683c2.081,1.044,4.162,2.087,6.244,3.128c0.233,2.49,0.468,4.983,0.841,8.944c-6.067-2.146-11.267-3.982-16.466-5.819c-1.038-4.169-2.077-8.338-3.116-12.509C23.696,50.729,23.5,61.526,28.131,62.683z"/>
<path fill="#93918C" d="M28.131,62.683c-4.166-2.085-8.332-4.169-12.497-6.256c1.038-3.125,2.077-6.247,3.114-9.372C21.876,52.264,25.002,57.473,28.131,62.683z"/>
<path fill="#EFEDE6" d="M25,28.311c-0.052,1.126-0.102,2.255-0.154,3.384c-2.1-1.062-4.198-2.124-6.297-3.186c-0.001,0,0.426-0.326,0.426-0.326c2.046-1.688,4.053-1.578,6.027,0.128H25z"/>
<path fill="#989793" d="M34.376,65.811c0-3.247,0-6.494,0-12.516c5.653,4.258,9.061,6.824,12.468,9.391c0.002,1.041,0.003,2.084,0.005,3.125c-1.519,1.229-3.035,2.457-4.214,3.412C39.66,67.993,37.018,66.901,34.376,65.811z"/>
<path fill="#676663" d="M84.374,68.936c-1.04-1.041-2.082-2.084-3.125-3.125c-4.857,0.814-8.741-1.117-12.192-4.306c-2.128-2.466-2.954-5.207-1.738-8.368c4.615-3.256,3.812-9.689,7.791-13.324c2.272-1.056,4.33-0.793,6.139,0.998h0.003c2.015,4.229,3.256,9.231,9.363,9.372C88.534,56.433,86.454,62.686,84.374,68.936z"/>
<path fill="#696865" d="M90.614,50.183c-3.791,2.301-7.581,4.602-14.64,8.887c2.586-8.951,3.931-13.605,5.276-18.259c2.083,1.044,4.166,2.084,6.248,3.125l0,0c0.983,1.099,2.027,2.136,3.115,3.131C90.615,48.105,90.615,49.142,90.614,50.183z"/>
<path fill="#676663" d="M90.614,47.067c-1.039-1.043-2.077-2.087-3.115-3.131C88.537,44.98,89.575,46.023,90.614,47.067z"/>
<path fill="#ECEAE2" d="M25.001,28.311c-2.011-0.043-4.021-0.085-6.029-0.128C20.982,28.226,22.991,28.268,25.001,28.311z"/>
<path fill="#666460" d="M81.248,40.811c-2.083,0-4.166,0-6.249,0c-1.002-0.696-1.335-1.389-1.002-2.084c0.333-0.693,0.665-1.041,1.002-1.041c0.035-0.946,0.127-1.886,0.278-2.817C77.269,36.85,79.258,38.831,81.248,40.811z"/>
<path fill="#676563" d="M53.124,84.561c0.132-2.026,0.263-4.05,0.523-8.057c2.647,2.279,4.188,3.604,5.727,4.932C57.292,82.477,55.207,83.52,53.124,84.561z"/>
<path fill="#676563" d="M71.874,59.561c3.125,2.084,6.25,4.166,9.375,6.25c-5.285,3.931-10.569,7.864-17.302,12.872c-0.679-6.036-1.063-9.454-1.446-12.875C65.403,63.394,69.035,62.073,71.874,59.561z"/>
<path fill="#656360" d="M71.874,59.561c-0.247,2.35-0.494,4.703-0.858,8.188c-3.35-0.763-5.933-1.352-8.515-1.94c0-3.122,0-6.244,0.002-9.369c1.729-1.749,2.678-5.054,6.246-3.128C69.792,55.395,70.832,57.477,71.874,59.561z"/>
<path fill="#676563" d="M68.749,53.311c-2.082,1.044-4.165,2.084-6.246,3.128c4.165-6.25,8.331-12.503,12.496-18.753c0,1.041,0,2.084,0,3.125C72.917,44.977,70.832,49.145,68.749,53.311z"/>
<path fill="#93918C" d="M37.649,40.594c-1.016,1.651-2.032,3.299-3.05,4.947c-0.608-0.607-1.219-1.218-1.829-1.828c1.647-1.017,3.296-2.036,4.945-3.052L37.649,40.594z"/>
</svg>