<?xml version="1.0" encoding="utf-8"?>
<!DOCTYPE svg PUBLIC "-//W3C//DTD SVG 1.1//EN" "http://www.w3.org/Graphics/SVG/1.1/DTD/svg11.dtd">
<svg version="1.1" xmlns="http://www.w3.org/2000/svg" xmlns:xlink="http://www.w3.org/1999/xlink" x="0px" y="0px" width="100px" height="100px" viewBox="0 0 100 100" enable-background="new 0 0 100 100" xml:space="preserve">
<path fill="#747474" d="M15.781,19.382c2.095-1.01,4.192-2.023,6.287-3.033c3.392,2.2,4.294-1.212,6.055-2.688c1.109-0.351,2.219-0.705,3.33-1.056c0.574,0,1.149-0.003,1.728-0.003c1.168,0.04,2.331,0,3.501-0.116c1.172-0.29,2.323-0.616,3.475-0.989c1.233-0.25,2.461-0.36,3.722-0.317c0.639,0.113,1.26,0.229,1.898,0.348c1.195,0.58,2.314,1.251,3.396,2.011c2.989,1.91,5.465,4.113,4.858,8.142c-0.546,1.203-1.316,2.246-2.241,3.095c-0.735,0.503-1.199,0.998-1.079,1.669c0.777,1.035,0.837,1.914,0.414,2.942c-0.513,1.147-1.251,1.996-2.207,2.691c-1.652,0.724-3.381,0.784-5.113,0.678c-1.111-0.156-2.068-0.647-2.844-1.465c-0.24-0.479-0.488-0.968-0.735-1.45c-0.253-0.47-0.508-0.949-0.762-1.428c0.534,0.958,0.916,1.972,1.169,3.042c-0.119,1.154-0.597,2.13-1.399,2.969c-0.941,0.739-1.99,1.203-3.157,1.44c-3.093,0.229-6.175,0.177-9.267,0.098c-1.303-0.085-2.574-0.305-3.832-0.653c-0.632-0.195-1.254-0.388-1.885-0.583c-1.919-0.583-3.834-1.157-5.757-1.718c-2.989-0.616-4.805-2.362-5.243-5.438C10.394,23.734,15.202,23.029,15.781,19.382z"/>
<path fill="#575757" d="M12.37,78.516c-1.858-10.55-3.717-21.1-5.574-31.649c0.438-0.491,0.877-0.983,1.317-1.474c0.743-1.102,1.381-2.255,1.897-3.485c0.401-0.534,0.801-1.065,1.204-1.6c1.215-0.607,2.495-0.931,3.854-0.924c1.349,0.149,2.592,0.592,3.729,1.324c1.471,1.297,2.986,2.561,3.995,4.288c0.832,2.408,0.691,4.874,0.364,7.337c-0.099,1.145-0.204,2.304-0.269,3.457c0.028,1.13,0.042,2.268,0.095,3.403c0.121,1.129,0.225,2.258,0.35,3.391c0.104,1.144,0.162,2.288,0.179,3.436c0.006,1.163-0.009,2.319-0.042,3.482c-0.075,1.178-0.305,2.319-0.72,3.424c-0.603,1.022-1.324,1.95-2.148,2.802c-0.88,0.812-1.866,1.453-2.963,1.929c-1.14,0.351-2.304,0.577-3.491,0.678C13.553,78.394,12.962,78.455,12.37,78.516z"/>
<path fill="#3E3E3E" d="M93.45,24.769c-0.039,6.354-0.077,12.71-0.117,19.064c-2.069,2.164-2.705,5.402-5.355,7.126c-1.446,0.391-2.921,0.601-4.416,0.638c-2.208,0.021-4.418,0.018-6.551-0.653c-1.246-0.754-2.203-1.791-2.899-3.061c-0.318-1.361-0.468-2.756-0.45-4.157c0.122-2.051,0.697-4.022,1.206-6c0.152-0.653,0.314-1.306,0.465-1.959c0.143-0.65,0.293-1.303,0.436-1.959c0.407-1.978,0.806-3.955,1.178-5.945c0.5-1.297,1.285-2.383,2.359-3.265c3.283-1.722,6.863-0.284,10.243-0.971C90.989,23.532,92.289,23.914,93.45,24.769z"/>
<path fill="#404040" d="M56.443,94.074c-2.197,0.79-4.395,1.58-6.594,2.367c-1.654-1.495-2.752-3.433-4.109-5.172c-1.158-0.959-2.131-2.069-2.897-3.366c-0.313-1.492-0.483-2.988-0.493-4.514c0.02-1.551,0.162-3.079,0.449-4.603c0.68-2.273,1.356-4.537,2.029-6.809c0.661-2.334,1.251-4.696,3.241-6.348c1.46-0.82,3.022-1.181,4.69-1.086c1.639,0.274,3.091,0.949,4.357,2.014c1.12,1.145,2.245,2.292,3.363,3.434c1.101,1.114,2.208,2.234,3.31,3.342c1.142,1.028,2.091,2.225,2.837,3.562c0.346,1.452,0.334,2.924-0.038,4.376c-1.193,2.811-3.705,4.229-6.13,5.726c-0.934,1.025-1.602,2.209-2.002,3.543C57.974,91.822,57.303,93.003,56.443,94.074z"/>
<path fill="#777777" d="M77.972,16.248c3.295,1.874,6.589,3.747,9.884,5.621c-0.688,1.761-2.094,2.637-3.833,3.101c-1.158,0.177-2.249,0.54-3.271,1.12c-0.885,0.775-1.636,1.66-2.253,2.661c-0.415,1.104-0.99,2.118-1.729,3.036c-1.029,0.595-2.132,0.946-3.32,1.025c-1.769,0.058-3.526,0.013-5.235-0.537c-1.043-0.577-2.023-1.239-2.938-2.008c-0.852-0.864-1.698-1.721-2.555-2.582c-0.437-0.436-0.865-0.866-1.303-1.303c-1.331-1.374-2.384-2.915-3-4.743c-0.133-1.318,0.041-2.584,0.521-3.818c1.032-1.776,2.452-3.128,4.282-4.056c1.883-0.814,3.85-1.306,5.865-1.62c1.007,0.329,2.015,0.659,3.022,0.988C73.726,14.811,74.73,17.64,77.972,16.248z"/>
<path fill="#5B5B5B" d="M43.68,93.943c-6.31-3.033-12.621-6.069-18.93-9.106c-0.674-3.217,0.498-5.6,3.261-7.26c1.996-0.772,4.031-0.784,6.078-0.26c1.244,0.452,2.498,0.909,3.74,1.364c1.798,0.689,3.701,1.178,5.254,2.414c0.807,0.977,1.492,2.042,2.029,3.192c0.179,1.248,0.461,2.475,0.859,3.674c1.167,1.443,2.552,2.796,2.141,4.926C46.982,94.699,45.625,95.557,43.68,93.943z"/>
<path fill="#565656" d="M12.526,25.168c2.103,1.017,4.204,2.033,6.305,3.049c0.903,0.982,1.608,2.094,2.144,3.317c0.381,2.035-0.278,3.931-0.786,5.847c-0.502,1.27-1.35,2.246-2.498,2.972c-1.313,0.232-2.635,0.348-3.966,0.366c-1.332,0.083-2.657,0.024-3.972-0.195c-1.007-0.87-1.955-1.8-2.836-2.798C6.868,33.46,6.819,29.191,6.77,24.924c1.338-1.486,3.085-1.4,4.846-1.263C11.92,24.164,12.224,24.668,12.526,25.168z"/>
<path fill="#3B3B3B" d="M56.443,94.074c-0.035-1.12-0.069-2.24-0.103-3.36c-0.122-0.519-0.243-1.038-0.363-1.557c-0.496-0.198-0.99-0.396-1.484-0.595c-0.425-0.32-0.851-0.645-1.274-0.965c3.125-2.084,6.25-4.168,9.373-6.253c0.736-0.187,1.47-0.372,2.204-0.556c1.449-0.521,2.934-0.631,4.451-0.391c1.306,0.889,2.055,2.118,2.247,3.687c-0.641,1.38-1.473,2.637-2.493,3.767l0.017-0.257c-1.817,1.779-4.811,1.294-6.473,3.372C60.51,92.002,58.476,93.039,56.443,94.074z"/>
<path fill="#888888" d="M37.538,9.394c1.951-1.086,3.904-2.173,5.856-3.259c1.241-0.891,2.6-1.199,4.099-0.842c2.065,0.821,4.325,1.047,6.318,2.1c1.181,0.952,2.216,2.032,3.088,3.274c0.328,1.544,0.084,2.994-0.652,4.376c-1.618,1.876-3.686,2.646-6.122,2.521c-2.252-0.32-4.671-0.091-6.442-1.974l0.307,0.134c-0.776-0.625-1.633-1.107-2.568-1.452c-0.957-0.26-1.877-0.614-2.762-1.063c-1.089-0.418-1.563-1.205-1.419-2.365L37.538,9.394z"/>
<path fill="#555555" d="M31.125,81.385c-2.124,1.15-4.248,2.301-6.374,3.451c-0.001,0,0.507-0.195,0.507-0.195c-1.672-2.124-4.793-1.349-6.564-3.277c-2.107-0.949-4.216-1.898-6.323-2.848l0.671-0.781c0.812-0.784,1.613-1.58,2.4-2.387l0.562-0.424c0.56-0.369,1.12-0.738,1.687-1.104c1.338-0.25,2.627-0.644,3.88-1.188c1.682-1.419,3.598-2.048,5.8-1.779c1.393,0.452,2.649,1.133,3.805,2.026c1.653,1.572,2.974,3.312,3.113,5.704C33.74,80.094,32.686,81.028,31.125,81.385z"/>
<path fill="#3E3E3E" d="M93.373,53.135c0.027,5.255,0.055,10.507,0.081,15.759c-0.984,0.995-2.028,1.929-3.141,2.783c-1.424,0.159-2.786-0.04-4.083-0.659c-0.651-0.277-1.302-0.553-1.953-0.83c-1.256-0.668-2.451-1.428-3.588-2.279c-1.748-1.288-3.131-2.848-3.697-5.005c-0.149-1.397-0.104-2.796,0.132-4.178c0.562-1.276,1.357-2.384,2.418-3.29c1.188-0.641,2.384-1.288,3.571-1.932c1.164-0.632,2.336-1.27,3.501-1.904c1.198-0.543,2.459-0.879,3.777-0.968C91.508,51.316,92.497,52.158,93.373,53.135z"/>
<path fill="#404040" d="M69,87.852c-0.054-1.127-0.106-2.256-0.16-3.385c-0.585-4.779,1.449-8.108,5.669-10.229c1.712-0.32,3.362-0.128,4.954,0.577c1.419,1.074,2.238,2.496,2.457,4.26c-0.129,0.84-0.258,1.679-0.388,2.518C77.355,83.677,73.177,85.764,69,87.852z"/>
<path fill="#7C7C7C" d="M80.496,22.486c2.452-0.204,4.905-0.412,7.359-0.616c0.967,0.189,1.924,0.424,2.87,0.711c0.003,0.653,0.006,1.306,0.009,1.959c-3.104,1.288-6.212,2.579-9.316,3.867c-1.28-0.321-1.982-1.114-2.01-2.46C79.727,24.778,80.089,23.624,80.496,22.486z"/>
<path fill="#424242" d="M83.92,47.175c1.255-0.08,2.51-0.159,3.765-0.238c1.918-1.718,3.793-2.051,5.588,0.174c0.025,1.099,0.052,2.197,0.076,3.293c-0.693,1.113-1.572,2.057-2.637,2.822l0.019-0.009c-1.675,1.755-3.588,2.981-6.148,2.789c-1.66-0.293-2.854-1.196-3.589-2.71C80.656,50.626,82.335,48.923,83.92,47.175z"/>
<path fill="#838383" d="M69.087,12.147c-1.194,1.229-2.39,2.459-3.584,3.692c-0.708,0.034-1.418,0.067-2.127,0.101c-4.508,0.76-6.78-1.043-6.553-5.713c0.637-1.294,1.523-2.383,2.629-3.299C62.665,8.667,65.875,10.407,69.087,12.147z"/>
<path fill="#6A6A6A" d="M9.473,37.58c1.062-0.009,2.125-0.018,3.188-0.024c1.227,1.648,3.882,1.035,4.869,3.067c0.094,1.468-0.545,2.521-1.819,3.214c-1.045,0.04-2.09,0.082-3.135,0.122c-1.117,0.921-1.105,2.997-3.093,3.027c-0.896-0.031-1.793-0.07-2.687-0.119c0.141-2.161,0.279-4.324,0.419-6.485C7.676,39.213,8.443,38.291,9.473,37.58z"/>
<path fill="#7F7F7F" d="M28.122,13.66c-2.019,0.897-4.038,1.791-6.055,2.688C24.084,15.451,26.103,14.557,28.122,13.66z"/>
<path fill="#404040" d="M87.644,78.364c-2.037,1.074-4.074,2.151-6.111,3.229l-0.467-0.784c-0.289-0.607-0.577-1.218-0.865-1.828c-0.243-0.635-0.485-1.263-0.729-1.895c-0.777-1.12-1.506-2.265-2.192-3.442c-0.142-1.401,0.142-2.701,0.852-3.916c1.021-0.985,2.222-1.584,3.636-1.742c1.371,0.263,2.731,0.546,4.092,0.857c1.367,0.402,2.521,1.139,3.47,2.206c0.769,1.221,1.078,2.539,0.853,3.974C89.482,76.248,88.637,77.363,87.644,78.364z"/>
<path fill="#7C7C7C" d="M47.321,6.366c-1.309-0.076-2.617-0.156-3.926-0.232c4.456,0.009,8.91,0.015,13.366,0.024c-0.593,1.504-1.667,2.2-3.296,1.965C51.338,7.81,49,8.237,47.321,6.366z"/>
<path fill="#404040" d="M87.644,78.364c-0.018-1.086-0.035-2.176-0.054-3.263c1.386-1.211,1.286-3.366,2.843-4.464c1.285-0.232,2.282,0.198,2.994,1.293C91.497,74.073,89.571,76.218,87.644,78.364z"/>
<path fill="#7F7F7F" d="M15.781,19.382c-1.085,1.929-2.168,3.857-3.253,5.786c-0.001,0,0.032-0.033,0.032-0.033c-0.731-0.562-1.461-1.126-2.192-1.688c0.689-0.613,1.378-1.227,2.066-1.84C13.55,20.865,14.665,20.124,15.781,19.382z"/>
<path fill="#5E5E5E" d="M43.68,93.943c1.092-1.065,2.185-2.13,3.277-3.198c0.957-1.306,1.945-1.395,2.976-0.082c-0.027,1.929-0.055,3.854-0.082,5.783C47.792,95.609,45.737,94.776,43.68,93.943z"/>
<path fill="#8E8E8E" d="M77.972,16.248c-1.954-1.038-3.909-2.075-5.862-3.113C74.063,14.173,76.018,15.21,77.972,16.248z"/>
<path fill="#868686" d="M53.017,6.369c1.246-0.07,2.494-0.14,3.743-0.21c0.932,0.134,1.829,0.391,2.692,0.769c0.004,0.845,0.008,1.69,0.014,2.536c-0.755,1.114-1.775,1.871-3.061,2.268c-1.248-0.464-2.3-1.209-3.152-2.228l-0.054-0.006c-0.73-0.482-1.462-0.961-2.19-1.443C51.677,7.492,52.347,6.931,53.017,6.369z"/>
<path fill="#8E8E8E" d="M31.451,12.604c2.028-1.071,4.057-2.139,6.087-3.21l0.09,0.214c0.845,0.744,1.198,1.55,1.054,2.417c-0.148,0.897-0.343,1.346-0.584,1.346c-2.16,1.16-4.138,1.077-5.841-0.867L31.451,12.604z"/>
<path fill="#454545" d="M93.427,71.93c-0.918,0.021-1.833,0.043-2.749,0.062c-1.025,1.3-2.035,1.229-3.03-0.036l-0.105-0.019c-0.471-0.449-0.941-0.897-1.412-1.346c-0.312-1.386,0.143-2.441,1.363-3.171c1.393-0.247,2.451,0.259,3.223,1.419c0.916,0.015,1.83,0.03,2.742,0.055C93.544,69.907,93.534,70.917,93.427,71.93z"/>
<path fill="#6A6A6A" d="M18.694,81.364c2.187,1.093,4.375,2.188,6.563,3.28C23.07,83.548,20.882,82.456,18.694,81.364z"/>
<path fill="#484848" d="M62.544,90.967c2.157-1.123,4.313-2.246,6.472-3.372C66.86,88.718,64.701,89.844,62.544,90.967z"/>
<path fill="#747474" d="M12.433,21.607c0.043,1.175,0.085,2.35,0.126,3.528c-1.93-0.07-3.86-0.141-5.791-0.211C8.658,23.82,10.545,22.715,12.433,21.607z"/>
<path fill="#363636" d="M93.273,47.111c-1.863-0.058-3.729-0.116-5.59-0.174c1.887-1.035,3.771-2.069,5.652-3.104C93.314,44.926,93.292,46.018,93.273,47.111z"/>
<path fill="#6A6A6A" d="M9.473,37.58c-0.754,0.934-1.508,1.868-2.26,2.801c-0.258-0.866-0.357-1.751-0.296-2.655C7.77,37.68,8.621,37.629,9.473,37.58z"/>
<path fill="#7F7F7F" d="M90.735,24.54c-0.003-0.653-0.006-1.306-0.009-1.962c0.908,0.732,1.817,1.462,2.725,2.191C92.538,24.778,91.634,24.701,90.735,24.54z"/>
<path fill="#484848" d="M90.712,53.226c0.88-0.942,1.761-1.883,2.64-2.822c0.099,0.909,0.108,1.821,0.024,2.731C92.487,53.168,91.599,53.198,90.712,53.226z"/>
<path fill="#7F7F7F" d="M25.043,31.321c4.015,0.07,8.029,0.138,12.045,0.205c0.773,0.153,1.549,0.305,2.324,0.455c1.417,0.916,2.164,2.216,2.235,3.9c-0.253,1.587-0.906,2.991-1.956,4.205c-1.224,1.025-2.625,1.672-4.198,1.941c-1.556,0.107-3.111,0.08-4.66-0.107c-2.289-0.644-4.126-2.1-6.062-3.375c-1.84-1.66-2.884-3.552-1.737-6.07C23.703,32.093,24.373,31.705,25.043,31.321z"/>
<path fill="#373737" d="M43.683,15.589c2.121-0.083,4.242-0.168,6.363-0.253c2.607-1.001,5.177-2.71,7.966-0.437c2.303,2.466,1.378,5.347,1.054,8.151c-2.109,2.676-4.629,3.131-7.554,1.401c-0.439-0.854-0.877-1.712-1.315-2.567C48.026,19.785,45.854,17.689,43.683,15.589z"/>
<path fill="#8E8E8E" d="M40.883,28.458c2.104-0.138,4.21-0.271,6.314-0.406c2.164-2.185,4.607-2.89,7.456-1.413c1.361,1.373,1.869,3.021,1.517,4.922c-2.509,5.023-7.072,4.392-11.487,4.153c-1.771-0.317-3.152-1.233-4.132-2.743c-0.337-0.778-0.677-1.563-1.015-2.344C39.986,29.907,40.434,29.181,40.883,28.458z"/>
<path fill="#7F7F7F" d="M32.257,12.504c1.771,0.03,3.544,0.058,5.316,0.088c1.002-1.282,2.038-1.313,3.109-0.085l0.014,0.042c0.864,0.647,1.18,1.325,0.949,2.036c-0.236,0.729-0.488,1.093-0.758,1.093c-1.152,0.03-2.306,0.061-3.458,0.088c-0.934,1.111-1.868,1.163-2.802,0C33.838,14.679,33.048,13.593,32.257,12.504z"/>
<path fill="#747474" d="M38.045,28.418c-1.211-1.056-2.421-2.108-3.633-3.161c2.059-2.191,4.172-1.981,6.32-0.141c0.049,1.111,0.098,2.222,0.149,3.339c0.002,0.003-0.407-0.162-0.407-0.162c-0.368,0.742-0.735,1.486-1.104,2.228C38.928,29.819,38.486,29.117,38.045,28.418z"/>
<path fill="#343434" d="M53.112,27.875c-1.975,0.061-3.948,0.122-5.917,0.18c-0.174-1.007-0.29-2.021-0.347-3.04c0.737-1.05,1.748-1.541,3.028-1.474c1.214-0.027,2.415,0.083,3.603,0.348c1.085,0.741,1.479,1.754,1.184,3.033C54.146,27.24,53.628,27.558,53.112,27.875z"/>
<path fill="#8E8E8E" d="M19.017,31.174c-0.073-0.985-0.134-1.971-0.185-2.957c2.068,0.021,4.135,0.04,6.204,0.058l-0.003-0.003c0.014,1.017,0.017,2.036,0.011,3.052c-0.001-0.003,0.023-0.024,0.023-0.024c-0.798,1.175-1.886,1.972-3.227,2.436c-0.663-0.214-1.323-0.43-1.985-0.647C19.574,32.45,19.296,31.812,19.017,31.174z"/>
<path fill="#8E8E8E" d="M40.732,25.116c-2.105,0.046-4.213,0.092-6.318,0.141c-0.002,0-0.043-0.238-0.043-0.238c-0.705-0.696-0.928-1.376-0.671-2.048c0.255-0.665,0.502-0.998,0.746-0.998C36.54,23.02,38.637,24.07,40.732,25.116z"/>
<path fill="#454545" d="M40.887,15.677c-0.063-1.041-0.126-2.084-0.189-3.125c1.097,1.056,2.194,2.115,3.291,3.17C42.955,15.711,41.922,15.696,40.887,15.677z"/>
<path fill="#686868" d="M34.628,15.766c0.936,0,1.871-0.003,2.803,0c-0.001,0-1.402,0.073-1.402,0.073L34.628,15.766z"/>
<path fill="#3F3F3F" d="M38.045,28.418c0.813-0.033,1.625-0.076,2.434-0.125c0.152,0.964,0.293,1.932,0.415,2.902c-0.956,1.367-1.931,1.313-2.921,0.037c0,0-0.876,0.29-0.88,0.29C37.407,30.488,37.726,29.453,38.045,28.418z"/>
<path fill="#7F7F7F" d="M25.036,28.275l-0.003-0.003L25.036,28.275z"/>
<path fill="#7F7F7F" d="M50.012,24.653c-1.054,0.122-2.107,0.244-3.163,0.363c-0.001,0,0.146,0.223,0.146,0.223c-0.723-0.647-1.001-1.331-0.832-2.048c0.172-0.732,0.368-1.102,0.587-1.102c1.147-0.067,2.295-0.134,3.444-0.205c0.001,0-0.021-0.034-0.021-0.034C52.505,22.922,52.45,23.856,50.012,24.653z"/>
<path fill="#3F3F3F" d="M46.751,22.089c0.083,1.05,0.164,2.1,0.246,3.149C46.915,24.189,46.832,23.139,46.751,22.089z"/>
<path fill="#747474" d="M34.445,21.973c-0.04,1.017-0.064,2.033-0.075,3.046C34.281,23.999,34.305,22.987,34.445,21.973z"/>
<path fill="#565656" d="M15.71,43.836c0.008-1.041,0.016-2.079,0.024-3.119c0.931-0.94,1.979-1.73,3.131-2.39c2.071-0.412,3.966,0.354,5.91,0.857c1.364,0.342,2.6,0.928,3.732,1.771c1.206,0.79,2.457,1.465,3.786,2.029c1.242,0.827,2.368,1.764,3.419,2.813c1.581,1.739,2.729,3.675,2.986,6.058c-0.07,1.643-0.647,3.064-1.736,4.288c-1.326,0.971-2.803,1.505-4.44,1.611c-1.618,0.082-3.228,0.07-4.842-0.037c-6.247-0.704-7.327-5.554-8.374-10.428C18.108,46.137,16.908,44.987,15.71,43.836z"/>
<path fill="#2A2A2A" d="M19.307,47.29c2.92,1.987,5.841,3.974,8.76,5.964c1.43,1.248,1.959,2.801,1.587,4.659c-5.332,5.524-9.284,1.676-13.266-1.956c-0.241-0.836-0.482-1.678-0.722-2.518C16.879,51.389,18.094,49.338,19.307,47.29z"/>
<path fill="#565656" d="M12.601,59.47c0.429-1.926,0.856-3.849,1.285-5.773c1.137,0.72,2.277,1.434,3.422,2.146c1.063,0.931,1.58,2.1,1.552,3.512c-0.357,0.577-0.714,1.15-1.071,1.725c-0.638,0.229-1.276,0.455-1.915,0.681C14.583,61.282,13.493,60.52,12.601,59.47z"/>
<path fill="#6A6A6A" d="M18.864,68.815c-0.064-1.114-0.13-2.228-0.195-3.342c-1.382-1.574-1.389-3.152-0.015-4.739c1.628-1.08,3.337-1.233,5.134-0.467c2.632,1.33,4.184,3.481,4.846,6.323c-0.024,1.999-0.867,3.546-2.53,4.647C23.065,72.293,20.645,71.509,18.864,68.815z"/>
<path fill="#6A6A6A" d="M12.601,59.47c1.047-0.009,2.093-0.019,3.14-0.024c1.34,0.488,1.914,1.44,1.721,2.854c-0.105,1.318-0.624,2.447-1.558,3.385C14.802,63.612,13.702,61.542,12.601,59.47z"/>
<path fill="#5E5E5E" d="M18.864,68.815c2.066-0.019,4.13-0.037,6.195-0.052c1.755,4.653-0.898,5.222-4.527,4.88c-0.588-0.51-1.174-1.022-1.761-1.532C18.802,71.012,18.834,69.913,18.864,68.815z"/>
<path fill="#565656" d="M9.482,46.986c1.032-1.01,2.063-2.021,3.095-3.027c0.021,0.977,0.042,1.95,0.063,2.923c-1.061,1.095-2.143,1.168-3.247,0.064L9.482,46.986z"/>
<path fill="#292929" d="M15.904,65.684c-0.026-0.928-0.014-1.859,0.032-2.787c0.775-1.525,1.689-1.69,2.765-0.283c0.022,0.955,0.014,1.913-0.029,2.862C17.751,65.576,16.829,65.647,15.904,65.684z"/>
<path fill="#272727" d="M18.52,74.918l-1.261,0.019c0,0-1.262-0.01-1.259-0.013c0.926-0.939,1.85-1.877,2.771-2.816c0,0.003-0.042-0.046-0.042-0.046c1.004,0.711,1.306,1.373,0.911,1.983C19.263,74.628,18.89,74.918,18.52,74.918z"/>
<path fill="#6A6A6A" d="M9.392,46.946c1.082-0.021,2.164-0.042,3.247-0.064C11.557,46.903,10.474,46.924,9.392,46.946z"/>
<path fill="#5E5E5E" d="M15.442,75.348c-0.802,0.797-1.605,1.597-2.404,2.39C13.843,76.939,14.642,76.142,15.442,75.348z"/>
<path fill="#020202" d="M14.942,55.374c-0.309-0.592-0.664-1.15-1.061-1.681c0.623,0.091,1.216,0.006,1.785-0.254l-0.139-0.195c0.982,0.778,1.222,1.352,0.723,1.728C15.894,55.238,15.459,55.374,14.942,55.374z"/>
<path fill="#3B3B3B" d="M78.196,43.854c0.063,1.206,0.128,2.411,0.19,3.617c0.859,0.68,1.676,1.406,2.45,2.179c0.396,0.378,0.791,0.757,1.185,1.135c0.775,0.775,1.539,1.557,2.295,2.351l0.518,0.217c0.663,0.711,0.941,1.461,0.831,2.258c-0.111,0.814-0.263,1.221-0.453,1.221c-1.688,1.01-3.755,1.086-5.401,2.197c-0.938,0.925-1.749,1.947-2.416,3.085c-0.923,0.998-2.062,1.594-3.395,1.841c-1.345,0.092-2.685,0.137-4.031,0.125c-2.769-0.016-5.53,0.024-8.303-0.021c-1.452-0.07-2.841-0.375-4.178-0.952c-1.17-0.919-2.074-2.042-2.726-3.375c-1.088-1.935-2.32-3.794-2.825-5.997c-0.146-1.468-0.186-2.945-0.104-4.413c0.2-1.452,0.731-2.786,1.545-4c1.476-1.59,3.224-2.701,5.429-2.945c2.011-0.217,4.033-0.455,6.039-0.714c1.294-0.189,2.598-0.375,3.893-0.574c2.538-0.271,5.032-1.278,7.644-0.513C77.318,41.483,77.939,42.57,78.196,43.854z"/>
<path fill="#3D3D3D" d="M78.196,43.854c-1.161,0.04-2.324,0.08-3.485,0.119c-0.794-0.144-1.587-0.287-2.377-0.427c-1.573-0.513-2.826-1.453-3.756-2.817c-0.641-1.517-0.667-3.052-0.082-4.59c0.912-1.285,2.11-2.222,3.573-2.805c2.254-0.375,4.511-0.387,6.749,0.122c1.392,0.485,2.789,0.98,4.181,1.474c1.317,0.65,2.655,1.267,4.007,1.85c-1.894,1.315-3.788,2.633-5.684,3.952c-1.028,1.032-2.059,2.063-3.091,3.095L78.196,43.854z"/>
<path fill="#1B1B1B" d="M84.316,53.135c-1.98,0.03-3.96,0.063-5.938,0.098c-0.859-0.583-1.189-1.215-0.987-1.898c0.207-0.708,0.44-1.065,0.698-1.065c0.104-0.934,0.203-1.87,0.298-2.801c1.848-0.098,3.695-0.198,5.539-0.296C84.052,49.161,84.183,51.148,84.316,53.135z"/>
<path fill="#7B7B7B" d="M80.76,23.975c0.219,1.474,0.438,2.951,0.656,4.428c-0.075,0.891-0.155,1.776-0.244,2.665c-0.165,0.668-0.329,1.336-0.496,2.008c-1.155,0.827-2.439,1.206-3.86,1.129c-1.427-0.271-2.507-1.019-3.195-2.31c-0.006-1.44,0.467-2.688,1.489-3.717l-0.082,0.098c0.853-0.818,1.698-1.645,2.533-2.484c0.511-0.494,1.016-0.995,1.517-1.501C79.639,24.183,80.198,24.079,80.76,23.975z"/>
<path fill="#3B3B3B" d="M78.231,43.827c1.031-1.032,2.062-2.063,3.091-3.095C80.292,41.764,79.262,42.795,78.231,43.827z"/>
<path fill="#020202" d="M87.005,36.781c-0.533,0.119-1.057,0.28-1.568,0.476c-1.004-0.375-1.802-1.013-2.394-1.907c0.544-1.147,1.302-1.254,2.246-0.464C85.841,35.535,86.413,36.164,87.005,36.781z"/>
<path fill="#484848" d="M81.172,31.068c1.37,1.27,2.74,2.542,4.114,3.817c0.003,0-0.232,0.043-0.232,0.043c-0.984,0.555-2.035,0.882-3.166,0.946c-1.152-0.247-1.959-0.921-2.468-1.974c0.394-1.059,0.998-1.981,1.812-2.765L81.172,31.068z"/>
<path fill="#3C3C3C" d="M75.104,78.418c-2.087,2.018-4.177,4.031-6.264,6.049h0.003c-1.634-1.941-4.59-1.242-6.255-3.125l0.003,0.003c0-1.044,0-2.091,0-3.134c-1.176-1.087-1.963-2.405-2.361-3.958c0.583-3.293,3.314-5.197,5.017-7.767c1.22-1.008,2.596-1.682,4.152-1.975c1.577-0.053,3.071,0.289,4.49,0.967c1.188,1.041,1.98,2.338,2.428,3.849c0.162,1.538,0.162,3.082-0.001,4.623C75.841,75.418,75.437,76.91,75.104,78.418z"/>
<path fill="#3B3B3B" d="M62.598,75.08c-0.003,1.043-0.005,2.087-0.007,3.131c-1.043,0.003-2.087,0.003-3.131,0.003c-0.848-1.212-2.203-1.923-3.087-3.104c-1.036-1.077-2.073-2.158-3.109-3.235c0.846-0.711,1.571-1.531,2.182-2.466c0.377-1.102,0.369-2.2,0.027-3.317c-0.12-0.579-0.236-1.141-0.355-1.724c0.1-1.264,0.645-2.283,1.586-3.119c1.251-0.238,2.496-0.366,3.771-0.375c1.302-0.251,2.556-0.604,3.797-1.071c1.375-0.312,2.678-0.181,3.932,0.467c1.622,1.383,3.249,2.74,3.271,5.13c-0.665,1.291-1.543,2.417-2.601,3.405l-0.236,0.306C67.305,71.79,64.989,73.475,62.598,75.08z"/>
<path fill="#434343" d="M59.495,62.543c-0.009,1.063-0.017,2.124-0.025,3.186c0.82,0.693,1.089,1.38,0.809,2.063c-0.281,0.681-0.559,1.02-0.836,1.02l0.042,0.015c-0.882,0.852-1.938,1.346-3.142,1.535c-1.262,0.043-2.265-0.445-3.011-1.465c-1.124-0.006-2.25-0.009-3.375-0.015c-1.191,1.33-2.652,1.77-4.381,1.324c-2.246-1.761-2.39-3.928-1.211-6.333c0.981-1.187,2.151-2.176,3.471-2.966c1.255-0.8,2.52-1.608,3.778-2.405c1.202-0.866,2.547-1.376,4.037-1.461c1.373,0.519,2.57,1.314,3.583,2.383l0.339,0.092c0.63,0.521,1.262,1.044,1.892,1.563C60.81,61.567,60.152,62.055,59.495,62.543z"/>
<path fill="#676767" d="M47.104,68.799c0.952,0.027,1.904,0.052,2.855,0.083c-0.038,2.038-0.075,4.077-0.11,6.115c-1.858,2.042-4.01,3.455-6.931,3.204c-2.688-1.031-4.143-3.219-5.304-5.682c-0.495-1.813-0.247-3.516,0.746-5.112c1.335-1.303,2.934-1.983,4.8-2.035C44.916,66.01,46.23,67.152,47.104,68.799z"/>
<path fill="#5E5E5E" d="M43.829,75.092c2.006-0.03,4.015-0.064,6.021-0.095c-0.884,2.127-1.765,4.257-2.645,6.388c-0.897,1.196-2.063,1.666-3.539,1.291c-1.3-0.553-2.612-1.057-3.952-1.511c-1.328-0.629-2.313-1.6-2.966-2.915c-0.008-0.726-0.012-1.443-0.017-2.166c0.668-1.361,1.71-2.253,3.195-2.609C41.432,73.524,42.723,74.088,43.829,75.092z"/>
<path fill="#666666" d="M49.933,90.662c-0.992,0.03-1.983,0.058-2.976,0.082c-1.038-1.047-2.077-2.094-3.114-3.141c0.826-2.258,2.1-2.548,3.822-0.872C48.421,88.04,49.178,89.353,49.933,90.662z"/>
<path fill="#202020" d="M53.332,68.897c1.014,0.024,2.025,0.07,3.035,0.132c0.878,0.616,1.171,1.235,0.882,1.855c-0.288,0.622-0.576,0.934-0.869,0.934c-1.039,0.033-2.08,0.055-3.118,0.061C53.267,70.884,53.291,69.889,53.332,68.897z"/>
<path fill="#484848" d="M56.373,75.111c1.03,1.034,2.059,2.069,3.087,3.104C58.432,77.18,57.404,76.145,56.373,75.111z"/>
<path fill="#6A6A6A" d="M43.674,81.421c1.173-0.012,2.349-0.024,3.526-0.036c0.027,1.132,0.05,2.264,0.072,3.399c-1.251,1.205-2.339,1.074-3.266-0.399l-0.212,0.061c-0.97-0.635-1.312-1.294-1.025-1.978C43.062,81.773,43.361,81.421,43.674,81.421z"/>
<path fill="#565656" d="M44.006,84.385c1.087,0.131,2.173,0.262,3.263,0.394c0.131,0.659,0.26,1.315,0.391,1.962c-1.268,0.281-2.542,0.57-3.816,0.863C43.897,86.53,43.951,85.459,44.006,84.385z"/>
<path fill="#484848" d="M53.218,87.598c1.034,0,2.067,0,3.103,0.003c0.773,0.687,1.034,1.377,0.782,2.072c-0.253,0.696-0.507,1.044-0.765,1.044l0.002-0.003C55.299,89.673,54.259,88.636,53.218,87.598z"/>
<path fill="#3F3F3F" d="M62.482,21.406c2.097,0.18,4.193,0.36,6.29,0.543c0.806,0.729,1.077,1.468,0.817,2.21c-0.261,0.741-0.523,1.114-0.789,1.114l-0.022-0.364c-0.783,1.526-1.885,2.768-3.31,3.723c-0.843,0.061-1.682,0.122-2.525,0.183c-1.709-0.617-2.783-1.807-3.228-3.567c0.209-0.824,0.421-1.642,0.63-2.463C61.058,22.324,61.769,21.866,62.482,21.406z"/>
<path fill="#8E8E8E" d="M75.11,28.177c0.027,1.095,0.057,2.194,0.084,3.29c-0.294,0.668-0.589,1.334-0.884,1.999c-2.06,1.013-4.144,1.291-6.272,0.198c-0.952-1.205-1.299-2.551-0.952-4.059c0.578-0.455,1.155-0.91,1.733-1.367C70.917,28.22,73.013,28.198,75.11,28.177z"/>
<path fill="#343434" d="M65.503,15.839c-1.018,1.163-2.037,2.329-3.057,3.494c-0.523-0.418-1.047-0.836-1.571-1.254c-0.265-1.416,0.179-2.561,1.325-3.431c1.404-0.265,2.57,0.141,3.501,1.227L65.503,15.839z"/>
<path fill="#6D6D6D" d="M62.447,19.333c0.035,0.696,0.049,1.392,0.037,2.078c-0.002-0.006,0.234,1.142,0.234,1.142c-1.251,1.438-2.646,1.593-4.183,0.47c-0.551-1.59-0.529-3.167,0.062-4.742c1.441-1.242,2.841-1.196,4.2,0.137L62.447,19.333z"/>
<path fill="#8E8E8E" d="M77.561,25.791c-0.844,0.83-1.688,1.657-2.533,2.484C75.871,27.448,76.717,26.621,77.561,25.791z"/>
<path fill="#8E8E8E" d="M65.856,25.129c0.977-0.042,1.951-0.116,2.923-0.213c0.013,1.104,0.028,2.212,0.042,3.323c-0.002,0,0.05-0.049,0.05-0.049c-0.977,1.633-2.271,1.947-3.887,0.943C64.039,27.531,64.331,26.197,65.856,25.129z"/>
<path fill="#020202" d="M80.76,23.975c-0.575,0.028-1.137,0.135-1.683,0.314c0.532-0.559,1.007-1.16,1.42-1.804C80.496,22.486,80.76,23.975,80.76,23.975z"/>
<path fill="#8E8E8E" d="M68.8,25.272c-0.009-1.108-0.02-2.216-0.028-3.324C68.781,23.056,68.789,24.164,68.8,25.272z"/>
<path fill="#2A2A2A" d="M43.674,81.421c0.078,1.007,0.119,2.018,0.121,3.024c-2.234,0.125-4.469,0.25-6.703,0.375c-0.705,0.004-1.41,0.01-2.113,0.013c-1.282-1.15-2.563-2.298-3.85-3.448c0.12-1.031,0.197-2.063,0.229-3.104c0.142-0.729,0.286-1.459,0.427-2.188c0.987-1.188,2.254-1.81,3.798-1.858c2.22,0.738,3.589,2.502,5.034,4.178l-0.035-0.241c1.274,0.931,2.084,2.322,3.305,3.309L43.674,81.421z"/>
<path fill="#6A6A6A" d="M34.978,84.833c0.707-0.052,1.413-0.055,2.116-0.013c-0.003,0-1.061-0.018-1.061-0.018L34.978,84.833z"/>
<path fill="#6A6A6A" d="M16.03,34.696c0.995-1.172,1.99-2.347,2.986-3.522c0.001,0-0.076-0.04-0.076-0.04c0.801,0.854,1.476,1.797,2.025,2.829c-0.256,1.199-0.928,2.054-2.077,2.511C17.709,36.246,16.756,35.651,16.03,34.696z"/>
<path fill="#5B5B5B" d="M18.862,40.726c-1.044-0.003-2.086-0.006-3.127-0.009c-1.025-1.053-2.052-2.105-3.076-3.162c1.126-0.04,2.251-0.08,3.375-0.116c0.502-0.412,1.004-0.824,1.507-1.236c1.396-0.223,2.448,0.278,3.157,1.501c-0.07,0.647-0.142,1.291-0.213,1.938C19.943,40.006,19.402,40.366,18.862,40.726z"/>
<path fill="#292929" d="M18.738,37.568c-0.903-0.04-1.807-0.083-2.707-0.128c-0.046-0.916-0.049-1.831-0.005-2.747c0.914-0.07,1.827-0.119,2.741-0.149c0.723,0.681,0.961,1.355,0.711,2.023C19.229,37.235,18.984,37.568,18.738,37.568z"/>
<path fill="#404040" d="M62.588,81.342c2.086,1.041,4.171,2.084,6.255,3.125C66.759,83.426,64.674,82.383,62.588,81.342z"/>
<path fill="#404040" d="M56.338,90.717c-0.004-1.041-0.011-2.078-0.018-3.116C56.471,88.639,56.478,89.676,56.338,90.717z"/>
<path fill="#6D6D6D" d="M53.017,6.369c0.061,1.041,0.122,2.084,0.183,3.128c-1.962-1.043-3.924-2.087-5.882-3.131C49.219,6.366,51.116,6.369,53.017,6.369z"/>
<path fill="#6D6D6D" d="M56.164,16.022c-2.04-0.229-4.08-0.455-6.118-0.684c1.059-0.918,2.117-1.834,3.177-2.747c1.151-1.499,2.456-1.645,3.914-0.445C58.084,13.755,57.759,15.049,56.164,16.022z"/>
<path fill="#747474" d="M40.683,12.507c-1.036,0.031-2.072,0.058-3.109,0.085c0.02-0.995,0.038-1.99,0.055-2.984C38.646,10.575,39.665,11.539,40.683,12.507z"/>
<path fill="#373737" d="M56.229,12.387c-1.001,0.092-2.002,0.162-3.006,0.205c-0.041-1.031-0.032-2.063,0.028-3.091c0.884,0.079,1.768,0.143,2.65,0.186c1.317,0.452,1.801,1.001,1.462,1.651C57.001,12.036,56.624,12.387,56.229,12.387z"/>
<path fill="#585858" d="M18.52,74.918c0.102-0.949,0.172-1.901,0.209-2.856c2.11-1.099,4.221-2.197,6.332-3.299c-0.108-0.949-0.215-1.898-0.322-2.848c0.363-0.705,0.728-1.413,1.089-2.118c2.577-1.175,4.506-0.274,6.035,1.887c0.598,1.461,0.865,2.987,0.801,4.568c-0.163,1.574-0.755,2.963-1.846,4.126c-0.709,0.314-1.419,0.625-2.128,0.939c-1.19-0.073-2.38-0.149-3.571-0.223c-1.959,1.819-3.94,1.874-5.943,0.073L18.52,74.918z"/>
<path fill="#5B5B5B" d="M19.176,75.168c1.981-0.024,3.963-0.049,5.943-0.073C23.138,75.119,21.158,75.144,19.176,75.168z"/>
<path fill="#2F2F2F" d="M31.357,78.282c-0.893-0.989-1.784-1.978-2.672-2.967c0.005,0.003-0.45-0.158-0.45-0.158c1.085-1.15,2.301-1.313,3.648-0.485c0.769,1.382,0.518,2.597-0.621,3.655L31.357,78.282z"/>
<path fill="#464646" d="M81.189,62.51c1.098,1.074,2.193,2.151,3.288,3.229c-0.021,0.619-0.042,1.236-0.063,1.855c-0.463,1.91-1.831,3.164-3.197,4.425l0.164-0.138c-1.168,1.065-2.529,1.45-4.082,1.151c-1.221-0.977-1.926-2.249-2.184-3.784c-0.295-1.489-0.543-2.985-0.749-4.486c0.594-1.435,1.528-2.594,2.803-3.477C78.749,60.907,80.089,61.314,81.189,62.51z"/>
<path fill="#484848" d="M84.474,56.351c0.101-1.004,0.219-2.002,0.355-2.999c1.969-0.043,3.936-0.089,5.901-0.135c-1.049,2.084-2.099,4.169-3.146,6.25c-0.762-0.775-1.67-1.297-2.726-1.563C84.731,57.386,84.603,56.867,84.474,56.351z"/>
<path fill="#484848" d="M78.242,56.342c2.077,0.003,4.155,0.003,6.231,0.006c0,0.003-0.017-0.024-0.017-0.024c0.9,0.702,1.199,1.397,0.896,2.097c-0.301,0.696-0.603,1.044-0.906,1.044c-1.078,0.024-2.157,0.049-3.234,0.076c-1.092,1.196-2.365,1.386-3.803,0.699C76.845,58.759,77.124,57.459,78.242,56.342z"/>
<path fill="#1A1A1A" d="M78.346,59.201c0.957,0.113,1.914,0.226,2.869,0.336c0.033,0.995,0.027,1.983-0.021,2.973c-0.969,0.042-1.934,0.079-2.899,0.109c-1.135,1.429-2.493,1.688-4.072,0.77c-1.012-1.597-0.711-2.894,0.898-3.882l-0.02-0.141C76.124,58.173,77.209,58.173,78.346,59.201z"/>
<path fill="#3B3B3B" d="M84.447,59.464c0.003-1.047,0.008-2.094,0.011-3.141c1.042,1.05,2.085,2.097,3.127,3.144C86.537,59.467,85.491,59.464,84.447,59.464z"/>
<path fill="#484848" d="M87.596,65.723c1.041-0.003,2.08-0.006,3.12-0.009c-0.519,0.521-1.037,1.044-1.556,1.565C88.638,66.761,88.118,66.242,87.596,65.723z"/>
<path fill="#484848" d="M84.477,65.739c1.041-0.013,2.08-0.016,3.119-0.016l-0.005-0.006c1.029,0.692,1.371,1.389,1.029,2.081c-0.341,0.696-0.683,1.044-1.029,1.044l-0.015,0.012c-3.222,1.35-4.155,0.244-3.152-2.938L84.477,65.739z"/>
<path fill="#3B3B3B" d="M87.591,68.842c0-1.044,0-2.084,0-3.125c1.043,0,2.083,0,3.125,0c0,1.041,0,2.081,0,3.125c0-0.003-1.563,0-1.563,0H87.591z"/>
<path fill="#1C1C1C" d="M78.112,71.693c1.089,0.063,2.179,0.128,3.269,0.188c0.068,1.218,0.136,2.436,0.204,3.656c0.608,0.684,0.766,1.318,0.47,1.901c-0.282,0.556-0.541,0.833-0.782,0.833l0.021-0.183c-0.706,1.364-1.634,1.465-2.751,0.479c-1.146-0.052-2.292-0.104-3.438-0.152c-1.038-1.065-2.075-2.133-3.114-3.201c0.778-0.687,1.471-1.449,2.078-2.292c0.523-1.034,1.365-1.55,2.525-1.541L78.112,71.693z"/>
<path fill="#484848" d="M78.541,78.568c0.916-0.171,1.833-0.329,2.753-0.479c-0.068,0.909-0.144,1.818-0.228,2.725C80.223,80.064,79.382,79.316,78.541,78.568z"/>
<path fill="#7B7B7B" d="M56.229,12.387c-0.021-0.909-0.128-1.813-0.323-2.701c1.186-0.073,2.372-0.146,3.561-0.223c2.079,2.136,4.155,4.272,6.233,6.409c-1.015-0.021-2.026,0.024-3.034,0.137c-0.971,0.943-1.996,1.822-3.066,2.646c0.029,1.227,0.06,2.454,0.089,3.68c0.947,1.282,1.004,2.604,0.169,3.964c-1.466,0.568-2.809,0.357-4.031-0.635c-0.785-1.404-0.646-2.707,0.422-3.913c-0.026-1.913-0.053-3.827-0.081-5.734C56.186,14.811,56.207,13.599,56.229,12.387z"/>
<path fill="#1D1D1D" d="M84.424,65.915c1.051,0.979,2.101,1.959,3.152,2.938c-0.006,1.029-0.017,2.055-0.034,3.083c-2.108,0.027-4.216,0.052-6.324,0.079C82.286,69.984,83.356,67.951,84.424,65.915z"/>
<path fill="#3B3B3B" d="M87.648,71.955c1.011,0.012,2.022,0.023,3.03,0.036c-1.029,1.038-2.058,2.072-3.088,3.109C87.61,74.051,87.628,73.004,87.648,71.955z"/>
<path fill="#484848" d="M81.272,78.272c0.093-0.915,0.196-1.831,0.313-2.74C81.531,76.456,81.427,77.365,81.272,78.272z"/>
<path fill="#636363" d="M25.154,43.866c-1.043-0.006-2.089-0.009-3.132-0.015c-1.036-0.967-1.409-2.148-1.113-3.537c0.521-1.26,1.348-2.261,2.529-2.963c1.335,0.012,2.668,0.08,3.999,0.195c1.337,0.019,2.672,0.012,4.007-0.018c1.093,0.11,2.184,0.223,3.276,0.333c2.272,0.885,4.958,1.135,6.003,3.903c-0.06,4.303-2.377,5.819-6.424,5.197c-1.559-0.485-3.126-0.961-4.692-1.432C27.908,45.554,26.422,44.999,25.154,43.866z"/>
<path fill="#6A6A6A" d="M28.336,40.656c-1.013,0.015-2.026,0.037-3.038,0.061c-1.622-2.014-5-0.534-6.307-3.174c0,0-0.249,0.024-0.25,0.024c0.03-1.007,0.041-2.017,0.027-3.024c-0.001,0,0.116-0.162,0.116-0.162c0.835-1.022,1.767-1.947,2.813-2.759c1.125-0.11,2.248-0.217,3.372-0.324c1.125,1.136,2.251,2.271,3.375,3.409C30.048,36.719,30.003,38.703,28.336,40.656z"/>
<path fill="#4D4D4D" d="M28.336,40.656c0.035-1.984,0.07-3.967,0.107-5.951c1.001,0.943,2,1.883,3,2.823C30.407,38.572,29.372,39.613,28.336,40.656z"/>
<path fill="#8E8E8E" d="M37.625,37.546c0.009-1.114,0.02-2.225,0.029-3.338c1.417-1.029,2.996-1.438,4.736-1.224c1.785,0.327,3.037,1.322,3.757,2.991c-0.526,4.657-2.902,5.725-6.935,3.576C38.682,38.883,38.153,38.215,37.625,37.546z"/>
<path fill="#5D5D5D" d="M37.589,40.711c-0.958-0.952-1.917-1.904-2.872-2.854c0.97-0.113,1.938-0.217,2.908-0.312l-0.032,0.043c0.5,0.521,1.002,1.043,1.504,1.563C38.594,39.673,38.091,40.192,37.589,40.711z"/>
<path fill="#343434" d="M40.653,33.964c-0.99,0.189-1.99,0.271-2.999,0.247c0.047-0.998,0.151-1.99,0.316-2.979c0.977,0.006,1.949-0.006,2.924-0.037l-0.04-0.049c0.72,0.522,1.442,1.047,2.164,1.568C42.229,33.134,41.441,33.549,40.653,33.964z"/>
<path fill="#747474" d="M56.247,21.753c0.027,1.117,0.055,2.231,0.082,3.348c-0.521,0.5-1.042,1.001-1.563,1.501c-0.519-0.504-1.037-1.007-1.557-1.511c-1.064-0.144-2.132-0.287-3.198-0.434c0.049-0.939,0.103-1.874,0.162-2.808C52.198,21.818,54.222,21.787,56.247,21.753z"/>
<path fill="#747474" d="M56.329,25.101c1.158-0.037,2.314-0.07,3.473-0.104c1.063-1.382,1.947-1.214,2.68,0.305l0.047-0.183c0.469,0.623,0.936,1.245,1.402,1.868c0.1,1.566-0.036,3.113-0.408,4.639c-0.865,1.34-1.985,2.411-3.365,3.213c-2.357,0.922-4.574,0.882-6.529-0.952c-0.196-0.763-0.394-1.529-0.589-2.292c0.023-1.239,0.048-2.478,0.072-3.72l-0.129,0.424c1.133-1.01,2.036-2.261,3.275-3.162L56.329,25.101z"/>
<path fill="#3F3F3F" d="M40.653,33.964c0.056-0.94,0.124-1.877,0.2-2.817c4.063,0.146,8.125,0.293,12.187,0.445c0,0.003-0.084-0.158-0.084-0.158c1.521,1.263,2.022,2.853,1.51,4.761c-1.83,2.563-4.429,2.722-7.21,2.307c-1.611-0.854-2.927-2.038-3.949-3.549C42.418,34.632,41.533,34.302,40.653,33.964z"/>
<path fill="#8E8E8E" d="M56.258,25.138c-1.092,1.053-2.184,2.105-3.275,3.162c0.075-1.068,0.151-2.136,0.228-3.208C54.227,25.126,55.243,25.141,56.258,25.138z"/>
<path fill="#5E5E5E" d="M21.697,31.623c-0.938,0.918-1.875,1.84-2.814,2.762c0.019-1.083,0.037-2.164,0.055-3.247C19.859,31.287,20.78,31.449,21.697,31.623z"/>
<path fill="#636363" d="M34.311,53.306c0.054-1.071,0.105-2.143,0.159-3.214c0.423-0.668,0.847-1.34,1.274-2.008c1.533-0.564,3.096-0.666,4.69-0.306c2.306,0.693,4.723,1.084,6.699,2.618c1.204,1.111,2.268,2.341,3.19,3.69c0.699,1.534,0.863,3.125,0.482,4.761c-1.564,3.329-4.73,4.123-7.845,5.002c-1.573,0.183-3.149,0.094-4.704-0.224c-1.427-0.622-2.73-1.465-3.913-2.48c-1.131-1.077-1.886-2.381-2.257-3.9C32.51,55.753,33.235,54.432,34.311,53.306z"/>
<path fill="#5E5E5E" d="M28.114,56.122c0.009-0.955-0.006-1.913-0.046-2.868c1.091-0.013,2.184-0.025,3.276-0.037c1.099,1.007,2.324,1.889,3.168,3.152l-0.038-0.006c0.873,1.709,0.844,3.402-0.087,5.084c-2.531,2.109-4.898,1.557-7.179-0.439C26.442,59.183,26.744,57.554,28.114,56.122z"/>
<path fill="#4D4D4D" d="M34.512,56.369c-1.056-1.053-2.112-2.103-3.168-3.152c0.99,0.021,1.981,0.052,2.969,0.089C34.381,54.328,34.448,55.347,34.512,56.369z"/>
<path fill="#4D4D4D" d="M22.052,40.726c-0.011,1.041-0.021,2.084-0.03,3.125c-1.055-1.041-2.107-2.084-3.162-3.125c0.002,0-0.001,0.009-0.001,0.009C19.919,39.32,20.982,39.246,22.052,40.726z"/>
<path fill="#5E5E5E" d="M34.469,50.092c-1.063-1.071-2.127-2.146-3.19-3.217c0.625-0.317,1.25-0.631,1.875-0.949c2.528,0.726,3.564,1.931,1.346,4.184L34.469,50.092z"/>
<path fill="#272727" d="M28.285,44.218c0.879-0.07,1.761-0.119,2.643-0.144c0.778,0.381,1.557,0.76,2.334,1.141c-0.653,0.568-1.306,1.136-1.959,1.706c0,0-0.021-0.042-0.023-0.042c-1.002-0.037-2.002-0.098-3-0.18c-0.929-0.552-1.239-1.104-0.929-1.657C27.661,44.492,27.971,44.218,28.285,44.218z"/>
<path fill="#2F2F2F" d="M28.285,44.218c-0.006,0.83-0.008,1.657-0.005,2.484c-1.042-0.946-2.086-1.892-3.128-2.835C26.198,43.983,27.241,44.098,28.285,44.218z"/>
<path fill="#565656" d="M28.114,56.122c0.029,1.117,0.056,2.233,0.085,3.351c-0.658,3.879-3.748,2.905-6.238,3.125c-1.086,0.006-2.171,0.01-3.259,0.016c-0.926,0.07-1.85,0.162-2.768,0.28c-0.064-1.147-0.13-2.298-0.194-3.448l-0.046,0.095c0.804-0.507,1.108-1.059,0.914-1.66c-0.203-0.626-0.426-0.937-0.67-0.937c-0.328-0.522-0.658-1.044-0.996-1.566c0.059-0.75,0.256-1.458,0.584-2.133C19.723,54.202,23.92,55.164,28.114,56.122z"/>
<path fill="#6A6A6A" d="M15.939,56.944c0.024,0.875-0.056,1.739-0.244,2.594C15.772,58.674,15.852,57.807,15.939,56.944z"/>
<path fill="#575757" d="M21.962,62.598c2.078-1.04,4.158-2.084,6.238-3.125c1.861,0.031,3.723,0.062,5.583,0.095c0.623,0.394,1.244,0.787,1.865,1.181c0.749,1.347,0.818,2.729,0.204,4.142c-3.175,3.711-6.937-0.988-10.25,0.714c0,0-0.856,0.309-0.859,0.313C23.813,64.811,22.886,63.706,21.962,62.598z"/>
<path fill="#404040" d="M56.349,46.943c-0.004,1.059-0.008,2.121-0.011,3.183c-1.617,1.435-1.313,3.11-0.598,4.841c0.467,1.938-0.502,3.606-0.977,5.383c-0.274,1.321-0.941,2.381-2.025,3.198c-1.373,0.357-2.688,0.254-3.996-0.317c-0.754-0.772-1.115-1.599-1.11-2.502c0.004-0.94,0.098-1.413,0.287-1.438c0.717-2.433-0.49-4.544-1.014-6.784c-1.448-4.147-2.403-8.212,1.384-11.734c1.673-0.854,3.404-1.074,5.229-0.659c1.777,0.83,2.852,2.197,3.242,4.108C56.625,45.13,56.487,46.036,56.349,46.943z"/>
<path fill="#272727" d="M62.553,59.4c3.141,0.021,6.281,0.04,9.421,0.062c-0.122,0.57-0.242,1.138-0.363,1.709c-1.425,1.547-3.063,1.208-4.737,0.537c-1.09-0.425-2.214-0.705-3.375-0.836C63.184,60.379,62.867,59.891,62.553,59.4z"/>
<path fill="#484848" d="M53.216,59.464c0.002-2.085,0.004-4.172,0.004-6.259c0.991-1.279,2.019-1.249,3.072-0.08c0.983,2.1,1.964,4.199,2.944,6.302c-0.968,0.016-1.934,0.028-2.899,0.043c-0.522,0.644-1.042,1.291-1.564,1.935C54.254,60.758,53.736,60.111,53.216,59.464z"/>
<path fill="#484848" d="M62.579,46.961c-2.077-0.006-4.153-0.013-6.23-0.019l0.008,0.027c-0.416-0.708-0.831-1.419-1.246-2.13c-0.121-1.74,0.445-3.217,1.701-4.428c1.546-0.702,3.155-0.928,4.834-0.677c1.686,0.543,2.821,1.651,3.408,3.32c-0.147,0.817-0.296,1.636-0.443,2.453C63.933,45.993,63.257,46.476,62.579,46.961z"/>
<path fill="#1A1A1A" d="M74.71,43.973c-1.917,0.973-3.833,1.944-5.75,2.917c-0.636-0.33-1.273-0.659-1.911-0.989c-0.185-0.693-0.368-1.389-0.553-2.082c0.32-0.641,0.643-1.282,0.963-1.922c1.3-0.772,2.638-0.842,4.012-0.208c1.346,0.519,2.563,1.248,3.635,2.215L74.71,43.973z"/>
<path fill="#393939" d="M78.346,59.201c-1.083,0.055-2.165,0.113-3.247,0.165c1.049-1.011,2.096-2.018,3.144-3.024C78.272,57.294,78.307,58.249,78.346,59.201z"/>
<path fill="#232323" d="M59.495,62.543c0.002-1.01,0.024-2.021,0.075-3.027c0.998-0.027,1.991-0.064,2.984-0.113c-0.002-0.003,0.089,0.181,0.089,0.181c0.725,0.47,1.449,0.942,2.176,1.413c-0.724,0.473-1.447,0.949-2.17,1.422C61.598,62.461,60.547,62.5,59.495,62.543z"/>
<path fill="#272727" d="M75.12,59.507c-0.019,1.025-0.032,2.054-0.043,3.079c-1.123,1.238-2.459,1.474-3.98,0.854c-0.708-1.508-0.435-2.813,0.816-3.919l0.06-0.061C73.023,59.476,74.071,59.491,75.12,59.507z"/>
<path fill="#343434" d="M65.738,50.086c-1.053-1.044-2.105-2.085-3.158-3.125l0.012,0.006c1.052-1.27,2.31-1.602,3.811-0.852C67.122,47.596,66.857,48.911,65.738,50.086z"/>
<path fill="#434343" d="M65.738,50.086c-0.004-1.041-0.011-2.078-0.018-3.119c1.039-1.425,2.095-1.37,3.167-0.037c0,0,0.07-0.04,0.072-0.04C67.886,47.955,66.812,49.021,65.738,50.086z"/>
<path fill="#343434" d="M56.292,53.125c-1.023,0.037-2.047,0.062-3.072,0.083c1.04-1.028,2.079-2.058,3.118-3.083C56.324,51.126,56.31,52.124,56.292,53.125z"/>
<path fill="#393939" d="M78.088,50.269c0.087,0.989,0.182,1.975,0.287,2.96C78.133,52.259,78.036,51.27,78.088,50.269z"/>
<path fill="#434343" d="M71.992,37.565c-0.008,1.053-0.017,2.108-0.024,3.165c-0.128,0.519-0.256,1.041-0.385,1.56c-1.029,0.348-1.921,0.913-2.676,1.694v-0.08c-2.123,1.886-4.229,1.914-6.316-0.061v0.003c-0.886-1.117-1.639-2.313-2.235-3.613c0.089-2.246,0.997-4.12,2.552-5.707c1.798-1.416,3.903-1.608,6.074-1.523c1.437,0.027,2.813,0.327,4.112,0.946C73.595,35.419,73.229,36.625,71.992,37.565z"/>
<path fill="#484848" d="M75.194,31.467c1.115,0.104,2.232,0.208,3.348,0.312c1.093,0.735,2.026,1.636,2.805,2.698l-0.011-0.015c1.033,0.695,1.377,1.392,1.03,2.084c-0.347,0.693-0.691,1.041-1.041,1.041c-2.07,0-4.141,0.003-6.212,0.006c-0.994-0.836-1.545-1.901-1.652-3.195c-0.041-1.352,0.562-2.328,1.723-2.984L75.194,31.467z"/>
<path fill="#484848" d="M75.106,43.906c-1.017-0.079-2.031-0.165-3.046-0.253c-0.955-0.622-1.286-1.263-0.996-1.925c0.293-0.674,0.593-1.01,0.902-1.01l0.002,0.011C73.013,41.788,74.059,42.847,75.106,43.906z"/>
<path fill="#3E3E3E" d="M81.324,37.586c0.003-1.044,0.007-2.084,0.011-3.125c1.236,0.152,2.474,0.308,3.716,0.464c0.134,0.778,0.258,1.556,0.382,2.331C84.067,37.366,82.697,37.476,81.324,37.586z"/>
<path fill="#343434" d="M75.068,34.321c0.015,1.089,0.028,2.179,0.045,3.271c-1.04-0.003-2.081-0.012-3.12-0.027c0.024-0.9,0.052-1.798,0.079-2.695C72.784,33.13,73.782,32.944,75.068,34.321z"/>
<path fill="#404040" d="M81.346,34.476c-0.937-0.9-1.874-1.804-2.808-2.701c0.896-0.226,1.793-0.439,2.693-0.641C81.27,32.248,81.308,33.363,81.346,34.476z"/>
<path fill="#363636" d="M78.036,65.506c0.057,1.102,0.113,2.201,0.171,3.303c-1.21,1.224-1.707,3.021-3.231,3.991c-1.19,0.409-2.193,0.132-3.008-0.824c0-1.043-0.002-2.087-0.002-3.131c-0.479-0.479-0.956-0.958-1.436-1.435c-0.044-1.455,0.586-2.508,1.893-3.152C74.394,64.215,76.454,63.782,78.036,65.506z"/>
<path fill="#484848" d="M62.598,75.08c2.014-1.99,4.029-3.983,6.042-5.973C66.624,71.1,64.611,73.09,62.598,75.08z"/>
<path fill="#484848" d="M71.968,71.976c1.041,0,2.083,0,3.125,0c0.439,0.544,0.877,1.087,1.318,1.63c-0.523,0.464-1.048,0.925-1.573,1.389c-0.95,0.07-1.899,0.141-2.849,0.217C71.982,74.134,71.976,73.057,71.968,71.976z"/>
<path fill="#202020" d="M71.971,65.638c-0.001,1.067-0.003,2.136-0.005,3.207c-1.031-0.003-2.064-0.012-3.094-0.036c0.011-1.001,0.035-1.996,0.073-2.994C69.879,64.49,70.891,64.488,71.971,65.638z"/>
<path fill="#404040" d="M71.971,65.638c-1.01,0.055-2.021,0.112-3.027,0.177c-1.093-1.111-2.185-2.225-3.279-3.336c-1.022-0.833-1.292-1.544-0.813-2.139c0.427-0.531,0.853-0.797,1.283-0.797c1.927-0.009,3.854-0.016,5.779-0.021c0.031,1.038,0.073,2.075,0.127,3.113c0.713,0.552,1.425,1.102,2.14,1.654c-0.762,0.481-1.521,0.964-2.281,1.449L71.971,65.638z"/>
<path fill="#1C1C1C" d="M66.135,59.543c-0.171,0.977-0.328,1.956-0.471,2.936c-1.005,0-2.013-0.018-3.017-0.058c-0.008-0.949-0.011-1.896-0.004-2.841C63.808,59.568,64.97,59.556,66.135,59.543z"/>
<path fill="#343434" d="M59.443,68.812c0.006-1.028,0.015-2.054,0.027-3.083C59.585,66.758,59.576,67.786,59.443,68.812z"/>
<path fill="#1C1C1C" d="M56.38,71.818c-0.01-0.931-0.013-1.864-0.013-2.792c1.038-0.086,2.077-0.153,3.116-0.199C58.448,69.824,57.414,70.82,56.38,71.818z"/>
<path fill="#646464" d="M47.104,68.799c-1.102,0.01-2.205,0.019-3.308,0.027c-1.843-1.034-4.297-1.025-5.472-3.204c-0.012-0.732-0.021-1.465-0.032-2.197c0.859-1.248,2.033-2.023,3.517-2.331c2.719,0.28,5.896-1.535,7.959,1.742l0.303-0.235c0.652,0.517,1.305,1.028,1.957,1.545c-0.646,0.524-1.291,1.046-1.935,1.571C49.097,66.745,48.1,67.771,47.104,68.799z"/>
<path fill="#3B3B3B" d="M53.216,59.464c1.041,0.003,2.082,0.003,3.121,0.006c-0.002,1.05-0.003,2.1-0.003,3.149c-0.523,0.452-1.047,0.903-1.57,1.358c-0.516-0.458-1.031-0.922-1.548-1.386C53.216,61.551,53.216,60.508,53.216,59.464z"/>
<path fill="#3B3B3B" d="M50.093,65.717c-0.02-1.037-0.025-2.078-0.021-3.116c1.049-0.003,2.097-0.006,3.145-0.009h-0.001c0.891,0.699,1.186,1.395,0.887,2.088c-0.3,0.692-0.599,1.04-0.899,1.04l-1.555-0.003H50.093z"/>
<path fill="#484848" d="M53.202,65.72c0.005-1.044,0.01-2.087,0.013-3.128c1.039,0.006,2.08,0.016,3.119,0.027C55.29,63.655,54.246,64.686,53.202,65.72z"/>
<path fill="#565656" d="M40.709,65.726c1.03,1.032,2.06,2.066,3.088,3.101c-1.036-0.006-2.07-0.006-3.105-0.009l-1.267-0.803l0.006-1.501L40.709,65.726z"/>
<path fill="#565656" d="M40.692,68.818c0.001,1.053,0.003,2.108,0.004,3.161c-0.574,0.501-1.147,1.005-1.723,1.508c-1.639,0.098-2.875-0.583-3.766-1.94c-0.18-1.608,0.322-2.96,1.506-4.06c1.619-0.345,2.946,0.153,4.025,1.377L40.692,68.818z"/>
<path fill="#565656" d="M43.829,75.092c-1.02-0.012-2.039-0.027-3.058-0.04c-1.033-0.681-1.381-1.364-1.048-2.06c0.334-0.695,0.669-1.044,1.013-1.044l-0.04,0.03C41.74,73.017,42.784,74.055,43.829,75.092z"/>
<path fill="#676767" d="M40.737,71.948c0.007,1.035,0.018,2.069,0.033,3.104c-0.049,1.117-0.101,2.234-0.152,3.357c-2.059-0.189-4.115-0.379-6.171-0.571c-1.005-1.021-1.749-2.203-2.189-3.573c-0.296-1.495,0.154-2.737,1.253-3.766c1.492-0.354,2.734,0.055,3.726,1.221C38.404,71.796,39.569,71.872,40.737,71.948z"/>
<path fill="#6A6A6A" d="M43.886,81.479c-1.102-1.103-2.202-2.204-3.304-3.306C41.682,79.276,42.784,80.377,43.886,81.479z"/>
<path fill="#343434" d="M62.878,27.86c-0.145-0.91-0.258-1.825-0.345-2.744c1.101,0.006,2.205,0.006,3.315,0.012c-0.102,1.019-0.201,2.042-0.289,3.064C64.543,29.077,63.645,29.013,62.878,27.86z"/>
<path fill="#373737" d="M62.482,25.302c-0.895-0.107-1.788-0.208-2.681-0.305c-0.07-0.888-0.108-1.776-0.114-2.661c1.016-0.012,2.025,0.058,3.03,0.214C62.631,23.469,62.552,24.384,62.482,25.302z"/>
<path fill="#747474" d="M62.878,27.86c0.89,0.156,1.785,0.265,2.685,0.333c1.1-0.003,2.203-0.003,3.307-0.003c-0.021,1.05-0.043,2.1-0.064,3.149c-0.501,0.607-1.001,1.214-1.501,1.822c-1.462,0.879-2.939,0.906-4.434,0.083c-1.127-1.3-1.36-2.747-0.698-4.337L62.878,27.86z"/>
<path fill="#7F7F7F" d="M75.068,34.321c-1.008,0.137-2.007,0.314-2.997,0.543c0.001,0.006-1.5-0.027-1.5-0.027l-1.5,0.07c-0.543-0.241-1.088-0.482-1.631-0.723c-0.14-1.267,0.297-2.252,1.405-2.917l-0.038,0.073c2.122,0.024,4.248,0.046,6.375,0.07C75.137,32.38,75.099,33.35,75.068,34.321z"/>
<path fill="#3F3F3F" d="M59.599,18.656c1.021-0.882,2.044-1.767,3.066-2.646c0.033,0.806,0.076,1.611,0.131,2.411C61.731,18.497,60.666,18.576,59.599,18.656z"/>
<path fill="#6A6A6A" d="M34.469,75.104c-0.007,0.916-0.015,1.832-0.023,2.741c-1.062,0.155-2.122,0.317-3.185,0.481c0.026-1.077,0.054-2.157,0.081-3.234c0.523-0.5,1.047-1.001,1.57-1.502C33.432,74.094,33.951,74.601,34.469,75.104z"/>
<path fill="#565656" d="M22.052,40.726c-1.065,0.003-2.128,0.006-3.194,0.009c0.044-1.065,0.087-2.13,0.131-3.192c2.101,1.056,4.202,2.115,6.305,3.174C24.216,40.72,23.134,40.723,22.052,40.726z"/>
<path fill="#2C2C2C" d="M25.601,65.604c2.971-0.991,5.943-1.983,8.914-2.975c0.615,0.183,1.229,0.365,1.843,0.546c0.737,1.126,0.867,2.331,0.47,3.604c-0.299,0.567-0.596,1.132-0.896,1.699c-0.398,0.498-0.796,0.998-1.195,1.498c-1.095,0.688-2.284,1.111-3.567,1.273c-1.108-0.65-2.092-1.453-2.956-2.405C27.344,67.765,26.472,66.685,25.601,65.604z"/>
<path fill="#535353" d="M28.215,68.845c1.054,0.144,2.107,0.287,3.16,0.431c0.88,0.681,1.233,1.419,1.054,2.215c-0.183,0.83-0.404,1.242-0.665,1.246c-1.393,0.781-2.563,0.488-3.54-0.732C28.221,70.95,28.218,69.898,28.215,68.845z"/>
<path fill="#6A6A6A" d="M28.224,72.004c1.028,0.021,2.057,0.045,3.085,0.066c1.055,0.662,1.41,1.331,1.068,2.005c-0.342,0.678-0.687,1.02-1.039,1.02l0.004-0.003c-1.036,0.009-2.072,0.03-3.108,0.061C28.232,74.107,28.227,73.053,28.224,72.004z"/>
<path fill="#1A1A1A" d="M71.9,65.739c0.044-1.035,0.09-2.069,0.141-3.104c1.013-0.021,2.025-0.04,3.037-0.049c1.071,0.012,2.143,0.021,3.216,0.033c-0.072,0.968-0.156,1.932-0.254,2.891C75.99,65.582,73.945,65.659,71.9,65.739z"/>
<path fill="#484848" d="M75.093,71.976c1.038-1.056,2.077-2.111,3.114-3.167c-0.024,0.964-0.055,1.929-0.095,2.887c-0.001-0.003,0.127,0.399,0.127,0.399c-1.139,1.206-2.2,1.081-3.198-0.183L75.093,71.976z"/>
<path fill="#2A2A2A" d="M75.041,71.912c1.066,0.061,2.132,0.119,3.198,0.183c-1.132,0.968-2.265,1.935-3.398,2.899C74.914,73.969,74.982,72.941,75.041,71.912z"/>
<path fill="#5D5D5D" d="M31.303,46.921c-0.081-0.955-0.206-1.904-0.374-2.847c2.219-1.12,4.439-2.243,6.659-3.363l0.121-0.092c3.003-1.996,5.882-2.414,8.493,0.653c0.414,2.536-0.348,4.721-2.012,6.625c-1.323,0.909-2.756,1.587-4.299,2.039c-0.789,0.098-1.579,0.198-2.37,0.299c-1.007-0.043-2.014-0.086-3.021-0.125C33.435,49.045,32.368,47.984,31.303,46.921z"/>
<path fill="#7C7C7C" d="M43.989,43.592c-2.095-0.989-4.188-1.981-6.282-2.973c-0.032-1.01-0.071-2.021-0.114-3.03c1.904-0.879,3.81-1.758,5.713-2.637c1.093-0.125,2.185-0.253,3.278-0.382c1.692,1.294,3.813,1.566,5.704,2.393c1.386,0.174,2.772,0.26,4.169,0.253c1.27,0.739,2.019,1.831,2.252,3.278c-0.548,1.315-1.383,2.408-2.503,3.287l0.045-0.14c-0.647,1.361-1.57,1.583-2.767,0.665c-1.025-0.079-2.051-0.11-3.079-0.088c-1.095,0.909-2.318,1.59-3.656,2.072c-0.662-0.241-1.326-0.482-1.99-0.723C44.502,44.907,44.246,44.251,43.989,43.592z"/>
<path fill="#8B8B8B" d="M52.681,34.528c0.174-1.025,0.268-2.057,0.277-3.094c2.181-0.021,4.363-0.04,6.547-0.062c0.584,0.418,1.168,0.839,1.753,1.258c0.947,1.163,1.324,2.484,1.128,3.973c-0.568,1.367-1.469,2.457-2.707,3.265c-2.242,0.073-4.272-0.726-6.31-1.501c-0.802-0.739-1.171-1.554-1.106-2.445C52.328,34.992,52.467,34.528,52.681,34.528z"/>
<path fill="#8E8E8E" d="M62.172,28.907c0.137,0.83,0.258,1.66,0.363,2.49c-0.522,0.485-1.042,0.971-1.563,1.456c-0.504-0.507-1.006-1.01-1.508-1.514l0.04,0.033C60.394,30.552,61.283,29.731,62.172,28.907z"/>
<path fill="#373737" d="M52.681,34.528c0.166,0.943,0.233,1.895,0.204,2.85c-0.258,0.602-0.514,1.203-0.771,1.804c-0.547-0.357-1.093-0.717-1.641-1.074c-1.294-1.181-2.588-2.359-3.886-3.537C48.616,34.559,50.649,34.543,52.681,34.528z"/>
<path fill="#5C5C5C" d="M46.719,44.123c1.228,0.031,2.455,0.061,3.683,0.095c-0.152,4-0.308,8.001-0.464,12c-0.467,0.681-0.934,1.361-1.4,2.041c-0.521-0.638-1.045-1.278-1.567-1.916l0.005,0.016c-1.007-1.081-2.171-2.009-3.13-3.141c-2.108-0.995-4.216-1.99-6.325-2.984c0,0.003,0.212-0.229,0.212-0.229c0.685-0.598,1.443-1.083,2.273-1.458c0.755-0.501,1.463-1.06,2.125-1.676c0.644-0.653,1.389-1.157,2.234-1.508C45.314,45.258,46.098,44.846,46.719,44.123z"/>
<path fill="#4F4F4F" d="M46.971,56.342c0.99-0.033,1.98-0.076,2.97-0.122c-0.057,2.203-0.111,4.407-0.17,6.613c-3.013-0.083-6.024-0.165-9.034-0.25c-0.902-0.699-1.198-1.392-0.89-2.082c0.307-0.684,0.612-1.025,0.918-1.025C42.833,58.433,44.902,57.386,46.971,56.342z"/>
<path fill="#565656" d="M43.846,53.217c1.042,1.047,2.086,2.094,3.13,3.141C45.932,55.311,44.89,54.264,43.846,53.217z"/>
<path fill="#333333" d="M33.783,59.568c0.23-1.068,0.461-2.136,0.691-3.204c1.266,1.104,2.534,2.209,3.801,3.314c-0.331,0.451-0.662,0.9-0.993,1.349c-1.188-0.03-2.077-0.559-2.667-1.59L33.783,59.568z"/>
<path fill="#6A6A6A" d="M40.765,59.476c-0.004,1.035-0.015,2.072-0.031,3.107c0.002,0-0.017,0-0.017,0c-1.066,1.303-2.357,1.583-3.87,0.842c-0.76-1.477-0.563-2.811,0.59-4.004c0,0,0.824,0.253,0.83,0.253C39.105,59.602,39.935,59.534,40.765,59.476z"/>
<path fill="#292929" d="M37.439,59.421c0.023,1.053,0.047,2.105,0.07,3.159c-1.043,1.388-2.072,1.376-3.082-0.037c0,0,0.085,0.086,0.087,0.086c0.03-1.063,0.06-2.128,0.095-3.189C35.556,59.443,36.497,59.437,37.439,59.421z"/>
<path fill="#3B3B3B" d="M53.484,44.306c0.919-0.241,1.842-0.461,2.768-0.665c0.034,1.11,0.069,2.218,0.104,3.329C55.399,46.082,54.441,45.194,53.484,44.306z"/>
<path fill="#3B3B3B" d="M56.205,43.781c0.194-0.977,0.397-1.95,0.609-2.923c1.071-2.124,3.025-1.877,4.908-1.828c0.278,0.577,0.555,1.153,0.83,1.73c0.011,1.028,0.024,2.057,0.038,3.085C60.463,43.823,58.334,43.802,56.205,43.781z"/>
<path fill="#393939" d="M62.591,43.842c2.104,0.019,4.207,0.037,6.313,0.058c-0.015,1.013-0.021,2.023-0.021,3.03c-1.053,0.012-2.108,0.024-3.164,0.037c-1.043,0-2.086,0-3.129,0C62.591,45.927,62.591,44.883,62.591,43.842z"/>
<path fill="#393939" d="M71.966,40.717c0.023,0.982,0.054,1.962,0.092,2.939c-1.05,0.107-2.101,0.213-3.152,0.323C69.926,42.893,70.946,41.806,71.966,40.717z"/>
<path fill="#797979" d="M59.449,37.583c0.019-1.041,0.026-2.078,0.024-3.119c0.9-1.062,2.034-1.603,3.438-1.547c1.965,0.037,4.002-0.287,5.689,1.138c0,0,0.463,0.836,0.466,0.846c-1.226,1.086-2.454,2.169-3.683,3.253c-0.982,0.632-2.06,0.958-3.229,0.979C60.916,39.206,60.014,38.688,59.449,37.583z"/>
<path fill="#404040" d="M62.875,37.72c0.844,0.104,1.684,0.248,2.512,0.431c-0.946,0.87-1.889,1.739-2.832,2.609c-0.002,0-0.151-0.293-0.151-0.293c-0.781-0.607-1.563-1.212-2.344-1.816C60.998,38.34,61.937,38.032,62.875,37.72z"/>
<path fill="#565656" d="M34.427,62.543c1.03,0.024,2.058,0.037,3.085,0.037c1.067,0.003,2.137,0.003,3.206,0.003c-0.003,1.046-0.006,2.093-0.009,3.143l0.031-0.033c-1.911,1.978-3.882,2.038-5.916,0.192C34.691,64.771,34.56,63.657,34.427,62.543z"/>
<path fill="#6A6A6A" d="M34.823,65.885c1.972-0.064,3.943-0.128,5.916-0.192c0,1.059,0,2.115,0,3.171c-1.154,0.067-2.307,0.134-3.459,0.201c-1.024,1.279-1.982,1.169-2.887-0.131C34.523,67.914,34.665,66.898,34.823,65.885z"/>
<path fill="#272727" d="M34.393,68.934c0.966,0.003,1.93,0.046,2.889,0.131c0.037,0.889,0.024,1.773-0.043,2.658c-0.914,0.04-1.825,0.055-2.736,0.043c-1.066-0.684-1.412-1.353-1.041-2.012c0.366-0.646,0.731-0.973,1.099-0.973L34.393,68.934z"/>
<path fill="#565656" d="M34.561,68.782c-0.026,0.997-0.046,1.992-0.058,2.987c-0.012,1.11-0.023,2.222-0.034,3.335c-1.043-0.003-2.087-0.006-3.131-0.009c-0.006-1.01-0.017-2.021-0.029-3.027c0.021-0.934,0.044-1.867,0.066-2.798C32.437,69.111,33.499,68.946,34.561,68.782z"/>
<path fill="#8E8E8E" d="M68.602,34.055c-2.005,0.138-4.009,0.275-6.014,0.412c-1.04-0.696-1.385-1.392-1.037-2.087c0.345-0.693,0.692-1.041,1.042-1.041c0,0-0.057,0.058-0.058,0.058c2.103-0.042,4.205-0.085,6.31-0.131C68.775,32.197,68.695,33.127,68.602,34.055z"/>
<path fill="#2F2F2F" d="M40.759,49.9c-1.008,0.07-2.019,0.104-3.029,0.106c1.2-1.251,2.396-2.502,3.592-3.753c0.259,0.662,0.519,1.324,0.779,1.986C41.655,48.795,41.208,49.348,40.759,49.9z"/>
<path fill="#5E5E5E" d="M41.322,46.253c0.888-0.885,1.776-1.771,2.666-2.658c0.001-0.003-0.102,0.14-0.102,0.14c0.89,0.699,1.184,1.398,0.886,2.094c-0.297,0.696-0.595,1.043-0.893,1.043l-0.167,0.177c-0.977,1.19-2,1.175-3.063,0.119L41.322,46.253z"/>
<path fill="#747474" d="M62.875,37.72c-0.189,0.913-0.343,1.831-0.469,2.75c-1.867,0.125-3.731,0.256-5.595,0.388c-1.188-0.043-2.379-0.089-3.57-0.131C52.323,40,52,39.256,52.268,38.487c0.273-0.778,0.556-1.166,0.85-1.166c0,0-0.226,0.058-0.229,0.058c2.185,0.07,4.373,0.138,6.561,0.205C60.591,37.629,61.733,37.675,62.875,37.72z"/>
<path fill="#8E8E8E" d="M53.118,37.321c0.04,1.135,0.081,2.271,0.121,3.406c-0.922-0.876-1.845-1.749-2.768-2.622C51.343,37.802,52.225,37.54,53.118,37.321z"/>
<path fill="#565656" d="M43.88,46.872c0.001-1.043,0.003-2.09,0.006-3.134c0.947,0.116,1.895,0.244,2.836,0.381C45.773,45.038,44.826,45.957,43.88,46.872z"/>
<path fill="#747474" d="M62.593,31.339c0,1.043-0.002,2.084-0.003,3.128c-0.002,0-1.563,0-1.563,0s-1.562,0-1.557,0c-0.001-1.044-0.005-2.084-0.005-3.125C60.509,31.339,61.551,31.339,62.593,31.339z"/>
<path fill="#292929" d="M40.65,47.168c1.022-0.067,2.044-0.106,3.065-0.119c-0.987,0.952-1.972,1.904-2.956,2.853C40.724,48.99,40.688,48.078,40.65,47.168z"/>
</svg>