<?xml version="1.0" encoding="utf-8"?>
<!DOCTYPE svg PUBLIC "-//W3C//DTD SVG 1.1//EN" "http://www.w3.org/Graphics/SVG/1.1/DTD/svg11.dtd">
<svg version="1.1" xmlns="http://www.w3.org/2000/svg" xmlns:xlink="http://www.w3.org/1999/xlink" x="0px" y="0px" width="100px" height="100px" viewBox="0 0 100 100" enable-background="new 0 0 100 100" xml:space="preserve">
<path fill="#020601" d="M46.803,48.954c0.021-0.797,0.058-1.59,0.112-2.384c2.125-3.799-1.73-4.315-3.331-6.067l0.305,0.244c-1.302-1.227-1.799-2.719-1.496-4.477c0.857-1.48,2.104-2.49,3.728-3.027c2.419-0.378,4.831-0.375,7.21,0.266c2.171,0.989,3.999,2.472,5.722,4.093c3.488,3.915,8.268,7.049,8.062,13.217c0.006,2.967,0.229,5.957-0.937,8.802c-0.865,1.227-2.013,2.087-3.432,2.584c-2.582,0.232-5.37-3.271-7.766,0.428c-0.192,1.483-0.63,2.887-1.285,4.229c-0.866,1.285-2.051,2.1-3.563,2.441c-1.519-0.329-2.777-1.074-3.738-2.301c-1.874-3.806,0.59-7.446,0.432-11.185C46.872,53.528,46.838,51.239,46.803,48.954z"/>
<path fill="#040A02" d="M81.244,78.064c-1.09,2.081-2.179,4.166-3.267,6.247c-1.364-0.653-2.34-1.685-2.982-3.046c-0.027-1.843-0.056-3.687-0.085-5.529c0.116-3.604,0.253-7.215-1.473-10.571c-0.667-1.337-0.985-2.74-0.953-4.233c1.161-2.795,2.925-5.242,4.404-7.861c0.921-1.263,2.023-2.328,3.314-3.204c1.443-0.687,2.954-0.9,4.532-0.708c1.514,0.714,2.426,1.896,2.742,3.537c0.454,3.842-2.644,7.474-0.684,11.404c0.443,2.35-0.643,4.517-0.847,6.787C85.994,74.335,84.15,76.548,81.244,78.064z"/>
<path fill="#193F09" d="M37.518,49.884c-3.151,2.081-6.302,4.162-9.453,6.244c-0.978-0.678-1.294-1.34-0.952-1.99c0.337-0.644,0.673-0.968,1.01-0.968c-0.096-6.143-0.192-12.283-0.29-18.426c0.806-2.75,2.655-3.385,5.211-2.579c3.04,2.512,4.208,6.037,5.196,9.65c0.456,1.379,0.708,2.804,0.784,4.257C39.122,47.577,38.62,48.846,37.518,49.884z"/>
<path fill="#132F06" d="M65.686,86.936c-3.585-0.354-4.081-0.403-5.902-0.583c0.187-2.183,0.375-4.383,0.563-6.583c0.872-0.116,1.741-0.232,2.612-0.348C63.715,81.501,64.468,83.582,65.686,86.936z"/>
<path fill="#183D08" d="M16.327,53.348c-0.198-2.183-0.397-4.367-0.594-6.549c-0.198-0.653-0.396-1.306-0.595-1.959c-1.428-3.799-0.361-6.631,3.284-8.459c1.387-0.253,2.672-0.013,3.838,0.796c0.955,5.286,1.91,10.574,2.865,15.86c-0.269,1.288-0.939,2.311-2.012,3.073c-1.285,0.211-2.513,0.019-3.693-0.525C18.428,54.786,17.396,54.041,16.327,53.348z"/>
<path fill="#183C09" d="M12.727,47.205c-1.349,5.161-2.696,10.321-4.043,15.484c-0.591-0.003-1.181-0.003-1.772-0.003c0.763-6.356,1.526-12.71,2.289-19.064c0.548-0.107,1.097-0.214,1.645-0.321c1.111,0.382,1.842,1.136,2.192,2.255C12.935,46.106,12.831,46.655,12.727,47.205z"/>
<path fill="#112B06" d="M81.244,78.064c0.157-3.161,0.313-6.323,0.47-9.484c0.984-0.818,2.113-1.301,3.388-1.447c1.308,0.141,2.316,0.764,3.025,1.868c0.729,1.028,1.54,1.983,2.434,2.868c0.881,1.209,1.762,2.417,2.641,3.626c-0.678,0.717-1.378,1.41-2.102,2.081C87.814,77.738,84.529,77.899,81.244,78.064z"/>
<path fill="#398F13" d="M37.648,12.406c1.29-0.937,2.579-1.871,3.868-2.808c2.821-1.376,3.97,1.385,5.85,2.365c1.551,0.37,3.064,0.83,4.56,1.382c1.315,1.102,1.951,2.503,1.921,4.215c-0.437,1.608-1.27,2.972-2.502,4.092c-2.877,2.051-6.197,1.651-9.43,1.724c-1.626-0.003-3.24-0.171-4.833-0.5c-1.527-0.656-2.719-1.7-3.572-3.128c-0.128-0.793-0.258-1.59-0.386-2.386c-0.09-1.673,0.392-3.162,1.449-4.465l0.212-0.192C35.612,11.386,36.566,11.286,37.648,12.406z"/>
<path fill="#0B1B04" d="M93.383,43.53c-0.955,3.192-1.91,6.384-2.865,9.58l-1.277,0.857c-0.57,1.044-1.44,1.459-2.61,1.248c-0.808-0.638-1.556-1.34-2.242-2.105l-0.918-0.131c-1.929-0.977-4.31-1.179-5.596-3.254c-1.115-4.367,1.913-6.613,4.62-9.018c1.216-0.738,2.534-1.199,3.954-1.34c1.414,0.076,2.706,0.525,3.863,1.346C91.34,41.645,92.364,42.585,93.383,43.53z"/>
<path fill="#112A06" d="M53.299,75.077c-1.229,7.168-2.456,14.337-3.684,21.506c-0.931-1.014-1.897-1.99-2.896-2.934l0.064,0.281c-0.882-0.922-1.633-1.938-2.257-3.055c-0.261-1.969,0.467-3.833,0.575-5.771c0.076-2.025,0.144-4.043,0.212-6.072c0.054-2.134,0.197-4.23,1.531-6.04c1.17-0.955,2.491-1.397,4.001-1.263c0.604,0.415,1.202,0.833,1.802,1.251C52.865,73.682,53.082,74.378,53.299,75.077z"/>
<path fill="#133207" d="M62.576,59.33c0.148-3.128,0.298-6.253,0.445-9.382c1.1-0.994,2.381-1.607,3.848-1.837c1.385,0.504,2.616,1.255,3.695,2.259c1.142,0.925,2.229,1.904,3.261,2.951c1.332,1.861,2.21,3.802,1.077,6.1c-1.755,2.408-4.286,4.087-6.058,6.477c-0.133,0.845-0.267,1.69-0.403,2.533c-0.837,1.092-1.945,1.626-3.32,1.602c-1.916-1.062-2.497-2.838-2.605-4.867c-0.08-1.297-0.108-2.594-0.08-3.895C62.483,60.624,62.529,59.976,62.576,59.33z"/>
<path fill="#091603" d="M71.874,18.765c0.08,0.61,0.042,1.215-0.115,1.81c0.219,1.718,0.184,3.433-0.104,5.145c-0.946,1.505-2.24,2.594-3.887,3.266c-3.741,0.769-6.798-0.33-9.147-3.351c-1.288-2.228-2.858-4.318-3.339-6.927c0.014-1.764,0.566-3.342,1.654-4.728c2.11-1.837,4.542-1.929,7.104-1.288C67.329,13.84,69.477,16.462,71.874,18.765z"/>
<path fill="#1B430A" d="M15.429,75.278c2.248-0.567,4.495-1.135,6.741-1.703c0.062,1.373,0.124,2.747,0.185,4.12c-2.26-0.852-4.518-1.706-6.777-2.558L15.429,75.278z"/>
<path fill="#1C450A" d="M31.772,80.844c-0.169-5.041-0.339-10.083-0.508-15.125c0.795,0.034,1.589,0.064,2.385,0.098c1.184,1.105,2.093,2.399,2.736,3.889c0.934,1.324,1.686,2.74,2.261,4.257c0.259,3.26,0.735,6.583-2.693,8.697C34.163,82.963,32.77,82.358,31.772,80.844z"/>
<path fill="#0E2205" d="M65.467,62.229c0.133,1.977,0.266,3.955,0.398,5.932c-0.011,0.522-0.022,1.044-0.033,1.566c-0.191,1.104-0.824,1.815-1.898,2.133c-0.522,0.003-1.044,0.003-1.565,0.003c-1.994-3.061-3.989-6.122-5.983-9.186c-0.903-0.702-1.321-1.508-1.256-2.411c0.07-0.955,0.225-1.432,0.463-1.432c1.4-0.924,2.654-0.805,3.735,0.528c1.082-0.012,2.165-0.021,3.247-0.033c0.001,0-0.189-0.086-0.189-0.086C63.373,60.279,64.401,61.276,65.467,62.229z"/>
<path fill="#1D4A0A" d="M22.258,53.238c0.957-0.046,1.912-0.112,2.867-0.201c1,0.04,1.999,0.082,2.999,0.134c-0.04,0.986-0.058,1.972-0.058,2.958c-1.089,2.92-2.18,5.844-3.27,8.768c-1.151,1.617-2.452,1.825-3.926,0.421c-0.4-0.998-0.784-2.002-1.149-3.012c-0.415-0.983-0.691-2.009-0.804-3.07c-0.023-1.053,0.023-2.105,0.146-3.152c0.302-1.02,0.865-1.88,1.648-2.594C21.226,53.406,21.742,53.324,22.258,53.238z"/>
<path fill="#143207" d="M74.886,65.656c0.008,3.36,0.016,6.717,0.023,10.077c-1.015-3.373-2.029-6.748-3.044-10.123C72.892,64.405,73.9,64.42,74.886,65.656z"/>
<path fill="#378B13" d="M53.247,9.516c0.166-1.444,0.334-2.887,0.673-5.817c3.236,2.185,5.77,3.894,8.301,5.603c0.111,0.629,0.225,1.254,0.336,1.883c-0.452,1.245-1.282,2.151-2.441,2.771c-1.158,0.559-2.353,1.017-3.589,1.374c-2.225-0.351-3.19-1.834-3.518-3.897C53.089,10.795,53.168,10.154,53.247,9.516z"/>
<path fill="#1A3F09" d="M49.487,53.14c0.068,4.153,0.138,8.311,0.208,12.464c-0.596,1.275-1.615,1.916-2.997,2.017c-1.28-0.473-2.13-1.373-2.606-2.64c-0.226-1.278-0.331-2.569-0.317-3.869c0.019-0.65,0.035-1.297,0.052-1.947c0.116-1.068,0.23-2.137,0.347-3.204C45.505,54.193,46.162,51.154,49.487,53.14z"/>
<path fill="#132F07" d="M84.388,53.11c1.227-0.073,2.454-0.146,3.681-0.22c0.996-0.803,1.898-0.751,2.694,0.29c0,0-0.242-0.07-0.244-0.07c-0.082,1.145-0.163,2.292-0.244,3.439c-0.982,1.01-1.918,2.063-2.797,3.164c0.046,0.883,0.098,1.765,0.154,2.646c1.052,0.939,1.578,2.111,1.581,3.521c-0.874,1.185-2.037,1.557-3.45,1.224c-0.469-0.488-0.937-0.977-1.405-1.465C84.369,61.463,84.38,57.288,84.388,53.11z"/>
<path fill="#337F11" d="M18.631,18.68c3.24-0.708,6.478-1.416,9.717-2.124c2.423,1.62,3.602,3.683,2.336,6.607c-2.072,2.267-4.56,1.876-7.104,1.102C21.138,23.105,19.459,21.271,18.631,18.68z"/>
<path fill="#0F2606" d="M31.772,80.844c0.687,0.049,1.372,0.104,2.059,0.162c2.232-0.33,4.408-1.157,6.726-0.764c0.676,0.354,1.35,0.705,2.028,1.06c1.021,1.227,1.413,2.64,1.272,4.218c-0.792,1.416-1.978,2.2-3.62,2.242c-2.105,0.843-4.213,1.682-6.32,2.521c-0.91-1.011-1.857-1.98-2.843-2.915l0.137,0.327c-0.803-0.767-1.066-1.526-0.793-2.28c0.273-0.754,0.545-1.132,0.816-1.132C31.413,83.136,31.591,81.992,31.772,80.844z"/>
<path fill="#122E07" d="M93.383,43.53c-1.055,0.11-2.108,0.217-3.163,0.327c-1.028,0.958-1.993,0.894-2.89-0.186l0.299-0.064c-2.621-1.285-4.208-3.159-3.577-6.293c2.24-3.708,5.701-3.5,9.287-2.89C93.354,37.461,93.369,40.497,93.383,43.53z"/>
<path fill="#1F4E0A" d="M40.237,87.762c0.133-1.162,0.266-2.325,0.397-3.488c1.201-2.355,2.966-2.532,5.09-1.318c0.812,1.13,1.486,2.335,2.002,3.629c0.58,1.386,0.317,2.618-0.671,3.721c-0.09,1.208-0.18,2.416-0.271,3.625C44.601,91.874,42.419,89.82,40.237,87.762z"/>
<path fill="#3A9114" d="M43.495,11.924c-0.635-0.796-1.294-1.572-1.979-2.325c0.492-1.169,0.984-2.338,1.476-3.51c1.387,0.897,2.772,1.792,4.16,2.688c1.045,1.3,1.053,2.646,0.171,4.031C45.808,13.541,44.532,13.248,43.495,11.924z"/>
<path d="M37.692,44.492c-2.159-2.542-4.317-5.084-6.476-7.626c0.79-1.168,1.716-2.212,2.801-3.113c1.389-0.357,2.744-0.253,4.063,0.312c1.161,0.833,1.949,1.938,2.36,3.308c0.077,1.392,0.072,2.786-0.012,4.178l0.362,1.172C40.413,44.458,39.41,45.105,37.692,44.492z"/>
<path fill="#0F2706" d="M46.632,62.128c0.18,1.035,0.36,2.072,0.541,3.107c0.063,0.763,0.126,1.528,0.19,2.291c-0.276,1.569-1.089,2.793-2.367,3.727c-1.555,0.406-2.98,0.11-4.291-0.797c-0.185-0.744-0.369-1.488-0.552-2.229c1.224-3.018,2.447-6.039,3.672-9.058c0-0.003-0.218,0.04-0.218,0.04C44.554,60.245,45.559,61.221,46.632,62.128z"/>
<path fill="#40A016" d="M28.302,20.993c0.015-1.48,0.03-2.957,0.045-4.437c0.892-0.543,1.857-0.858,2.898-0.94c0.944-1.26,1.909-1.272,2.89-0.042l0.075-0.116c1.114,1.285,1.835,2.765,2.165,4.434c0.464,1.739,0.104,3.284-1.085,4.635c-1.492,0.958-3.09,1.193-4.796,0.702C28.99,24.216,28.26,22.806,28.302,20.993z"/>
<path fill="#1C4509" d="M9.201,43.622c1.089-1.999,2.179-4.001,3.267-6c0.684,0.092,1.366,0.183,2.049,0.275c2.618,2.774,3.77,5.719,1.041,9.104c0,0,0.174-0.205,0.174-0.202c-1.012,0.052-2.016,0.186-3.006,0.403c0.001,0.003-0.734-0.931-0.734-0.931c-0.704-0.586-1.341-1.233-1.917-1.944L9.201,43.622z"/>
<path fill="#3C9614" d="M34.051,36.692l-1.407,0.262l-1.428-0.088c-1.128-0.708-2.255-1.416-3.383-2.121c-0.786-1.147-1.573-2.295-2.359-3.439c1.724-2.158,3.523-4.196,6.659-4.025c1.842,0.4,3.371,1.315,4.593,2.75C37.974,33.112,37.039,35.315,34.051,36.692z"/>
<path fill="#368712" d="M71.758,20.575c2.134,0.491,4.269,0.986,6.403,1.477c1.271,1.153,2.361,2.459,3.268,3.918c0.416,1.751,0.075,3.348-1.015,4.779c-1.425,1.038-3.013,1.435-4.759,1.19c-2.469-0.916-4.292-2.493-5.141-5.06c-0.133-1.733,0.35-3.274,1.449-4.62C71.902,21.695,71.834,21.133,71.758,20.575z"/>
<path fill="#358512" d="M31.52,31.104c-2.016,0.067-4.031,0.134-6.045,0.202c-0.327-0.94-0.517-1.904-0.572-2.896c-0.955-1.022-1.318-2.228-1.086-3.607c2.606-2.155,5.043-0.168,7.544,0.308c1.273,0.602,2.113,1.56,2.461,2.936C33.54,29.431,32.773,30.451,31.52,31.104z"/>
<path fill="#153607" d="M93.34,34.424c-1.773,0.986-3.545,1.975-5.318,2.96c-1.602-0.287-2.629-1.212-3.082-2.777c0.238-1.584,1.058-2.728,2.545-3.369C89.436,32.3,91.387,33.362,93.34,34.424z"/>
<path fill="#132E07" d="M22.259,37.177c-1.236,0.116-2.472,0.229-3.708,0.342c-2.112,2.105-4.196,1.794-6.264-0.07c0,0,0.18,0.171,0.18,0.174c0.075-1.138,0.148-2.28,0.223-3.418c0.544-0.717,1.089-1.434,1.634-2.151c0.473,0.766,0.944,1.535,1.416,2.301C17.914,35.297,20.087,36.237,22.259,37.177z"/>
<path fill="#3E9B15" d="M71.874,18.765c-1.963-1.013-3.925-2.029-5.889-3.042l-0.374-1.382c0.154-1.147,0.811-1.724,1.969-1.73l1.411,0.229C69.952,14.814,70.914,16.791,71.874,18.765z"/>
<path fill="#0C1A04" d="M65.866,68.161c0.856,0.129,1.715,0.221,2.577,0.272c-2.024,1.141-4.048,2.285-6.073,3.43c-0.001,0,0.011,0.089,0.011,0.089c1.022-0.977,2.029-1.972,3.024-2.976L65.866,68.161z"/>
<path fill="#2E7410" d="M84.358,21.863c2.175,0.232,4.347,0.464,6.521,0.696c-0.023,0.65-0.046,1.3-0.069,1.95c-1.153,1.123-2.307,2.243-3.459,3.366c-0.954,1.336-2.241,1.871-3.862,1.605c-1.24-1.016-1.821-2.325-1.74-3.924C82.383,24.158,83.243,22.919,84.358,21.863z"/>
<path fill="#378B13" d="M18.631,18.68c1.071,1.046,2.143,2.09,3.212,3.137c0.532,0.473,1.063,0.949,1.596,1.422c-0.499,0.506-0.996,1.016-1.494,1.526c-2.141-1.132-4.28-2.268-6.419-3.399c-0.984-0.477-1.311-0.949-0.986-1.425c0.325-0.473,0.652-0.711,0.986-0.711C16.562,19.047,17.596,18.863,18.631,18.68z"/>
<path fill="#24590C" d="M43.584,40.503c1.37,0.541,2.742,1.081,4.441,1.752c-0.401,1.556-0.755,2.936-1.11,4.315C45.803,44.547,44.693,42.524,43.584,40.503z"/>
<path fill="#1A4009" d="M37.518,49.884c0.101-1.153,0.2-2.304,0.3-3.455c1.059-1.041,1.947-0.91,2.666,0.387C39.496,47.84,38.507,48.862,37.518,49.884z"/>
<path fill="#1F4E0B" d="M49.487,53.14c-1.772,0.94-3.544,1.88-5.316,2.82c0.879-2.335,1.756-4.669,2.632-7.007C47.699,50.348,48.593,51.743,49.487,53.14z"/>
<path fill="#1E4C0B" d="M31.263,65.719c1.804-0.934,3.606-1.864,5.408-2.798c-0.401,0.845-0.712,1.728-0.932,2.637c-0.378,1.04-1.119,1.498-2.219,1.37c-0.813-0.458-1.619-0.931-2.417-1.419L31.263,65.719z"/>
<path fill="#112A06" d="M74.886,65.656c-1.007-0.009-2.014-0.024-3.021-0.046c-1.009,0.082-2.016,0.177-3.021,0.284c0.827-2.204,1.654-4.41,2.482-6.613c1.429-0.442,2.632-0.125,3.577,1.062c0.022,0.696,0.047,1.389,0.07,2.082C74.945,63.502,74.916,64.579,74.886,65.656z"/>
<path fill="#0F2406" d="M21.629,62.293c1.056,0.87,2.11,1.739,3.167,2.606c-2.034-0.889-4.067-1.773-6.099-2.658c0.496-0.428,0.992-0.854,1.489-1.281C20.666,61.402,21.149,61.847,21.629,62.293z"/>
<path fill="#173A09" d="M6.88,75.177c-0.078-3.238-0.156-6.479-0.233-9.717c0.768-1.27,1.535-1.334,2.301,0.003c-0.078,3.238-0.154,6.476-0.232,9.717C8.104,75.18,7.492,75.177,6.88,75.177z"/>
<path fill="#1A420A" d="M15.579,75.137c-0.468-0.863-0.935-1.73-0.329-0.61c-0.296-1.199-0.057-0.229,0.181,0.748C15.429,75.278,15.579,75.137,15.579,75.137z"/>
<path fill="#102806" d="M37.742,68.458c0.807-0.049,1.611-0.125,2.411-0.232l0.916,0.961c2.171,1.068,3.732,2.606,3.972,5.161c0.061,1.538-0.162,3.039-0.63,4.501c-1.08,1.12-2.38,1.822-3.931,2.029c-1.579-0.082-2.847-0.771-3.84-1.986c-0.882-2.154-0.702-4.428-0.707-6.678C35.835,70.624,36.439,69.373,37.742,68.458z"/>
<path fill="#348111" d="M46.881,11.786c0.075-1.004,0.165-2.008,0.27-3.009c2.032,0.244,4.063,0.491,6.096,0.739l-0.245-0.354c0.975,1.034,1.517,2.258,1.625,3.677c-0.721,1.272-1.812,1.95-3.271,2.029c-1.271-0.528-2.592-0.891-3.954-1.089C47.229,13.114,47.055,12.451,46.881,11.786z"/>
<path fill="#153708" d="M56.439,59.393c-0.02,1.093-0.04,2.186-0.057,3.281c-0.263,0.982-0.505,1.965-0.729,2.954c-0.662,1.196-1.387,1.235-2.176,0.122c0.033-2.1,0.067-4.202,0.103-6.302C54.506,58.017,55.46,57.999,56.439,59.393z"/>
<path fill="#21540C" d="M62.22,9.302c2.257,1.178,4.514,2.356,6.771,3.534c0,0.003-0.005-0.345-0.005-0.345c-1.078,0.876-2.309,1.383-3.69,1.52c-1.399,0.052-2.655-0.351-3.768-1.203c-0.336-1.4-0.014-2.63,0.966-3.687L62.22,9.302z"/>
<path fill="#0B1A04" d="M84.491,27.878c0.953,0.165,1.907,0.165,2.859-0.003c0.044,1.12,0.09,2.243,0.134,3.363c-0.079,1.099-0.16,2.2-0.239,3.299c-1.271,1.346-2.768,1.682-4.493,1.007c-1.334-1.196-1.896-2.683-1.688-4.461C81.566,29.331,82.709,28.262,84.491,27.878z"/>
<path fill="#1A410A" d="M18.696,62.241c-0.876-2.045-1.752-4.09-2.627-6.134c0.958-1.102,2.087-1.321,3.389-0.659c0.709,1.15,1.006,2.404,0.94,3.747c-0.117,1.38-0.761,2.457-1.855,3.284L18.696,62.241z"/>
<path fill="#0A1803" d="M87.484,65.622c0.048-1.086,0.094-2.169,0.146-3.259c1.083,0.146,2.164,0.293,3.242,0.442c1.578,2.109,1.475,4.147-0.255,6.119l0.105-0.189c-1.079,1.31-2.336,1.514-3.771,0.61C85.999,67.942,86.175,66.703,87.484,65.622z"/>
<path fill="#143307" d="M90.617,68.925c0.084-2.042,0.17-4.08,0.255-6.122C90.788,64.844,90.703,66.885,90.617,68.925z"/>
<path fill="#1A420A" d="M37.742,68.458c-0.088,1.162-0.175,2.328-0.264,3.494c-0.644,2.361-1.606,2.502-2.89,0.415c-0.119-1.349-0.238-2.698-0.357-4.047c-0.844-0.524-1.132-1.062-0.868-1.614c0.267-0.556,0.537-0.833,0.813-0.833l0.809-0.882c0.662,0.152,1.325,0.308,1.987,0.461C37.242,66.449,37.498,67.45,37.742,68.458z"/>
<path fill="#1F4E0B" d="M12.966,31.275c0.42-0.589,0.841-1.175,1.311-1.834c0.419,0.625,0.799,1.19,1.178,1.755C14.671,32.617,13.844,32.715,12.966,31.275z"/>
<path fill="#0F2605" d="M55.934,68.597c-0.879,2.161-1.76,4.318-2.637,6.479c0.001,0-0.724-0.467-0.724-0.467c-1.354-1.267-2.868-2.445-2.582-4.627c0.662-1.096,1.564-1.913,2.747-2.417C54.041,67.175,55.105,67.52,55.934,68.597z"/>
<path fill="#41A316" d="M84.358,21.863c-0.027,1.199-0.057,2.402-0.084,3.601c-2.098,2.063-4.132,2.069-6.095-0.189c-0.006-1.074-0.012-2.148-0.018-3.223C80.227,21.988,82.294,21.927,84.358,21.863z"/>
<path fill="#21520C" d="M18.579,56.143c-0.837-0.009-1.675-0.021-2.512-0.036c-0.082-0.938,0.002-1.855,0.257-2.759c0.674-0.006,1.346-0.034,2.016-0.089c0.554,0.439,1.109,0.876,1.663,1.315C19.528,55.096,19.053,55.622,18.579,56.143z"/>
<path fill="#22540C" d="M12.966,31.275c0.83-0.024,1.66-0.049,2.489-0.079c0.095,1.053,0.188,2.105,0.284,3.159c-1.02,0-2.039-0.049-3.052-0.15C12.674,33.216,12.765,32.242,12.966,31.275z"/>
<path fill="#122E06" d="M87.478,59.714c0.934-1.056,1.868-2.114,2.799-3.167C89.343,57.605,88.411,58.658,87.478,59.714z"/>
<path fill="#20510B" d="M40.485,46.817c-0.894-0.101-1.786-0.229-2.67-0.384c-0.035-0.65-0.078-1.294-0.124-1.941c1.035-0.586,2.067-1.175,3.101-1.767C40.689,44.089,40.587,45.453,40.485,46.817z"/>
<path fill="#1F4E0B" d="M8.947,65.464l-1.152,0.012c0,0-1.154-0.012-1.15-0.015c-0.058-0.94,0.029-1.864,0.264-2.777c0.595,0.009,1.188,0.009,1.778,0.003C8.916,63.599,9.004,64.524,8.947,65.464z"/>
<path fill="#22540B" d="M36.972,65.452c-0.67-0.132-1.335-0.281-1.991-0.458c0.562-0.699,1.123-1.389,1.69-2.072C36.943,63.743,37.044,64.588,36.972,65.452z"/>
<path fill="#327E11" d="M34.135,15.573l-1.444,0.128l-1.446-0.086c1.109-0.906,2.217-1.813,3.326-2.719C34.482,13.798,34.337,14.692,34.135,15.573z"/>
<path fill="#163807" d="M55.934,68.597c-0.938,0.056-1.879,0.098-2.818,0.132c-0.997-0.693-1.321-1.377-0.979-2.054c0.34-0.669,0.68-1.005,1.021-1.005c0,0,0.314,0.077,0.317,0.077c0.73-0.043,1.459-0.086,2.184-0.119C55.829,66.611,55.922,67.6,55.934,68.597z"/>
<path fill="#183D0A" d="M8.944,28.055l-1.15,0.72l-1.152-0.72c0.385-0.724,0.768-1.45,1.152-2.173C8.177,26.606,8.562,27.332,8.944,28.055z"/>
<polygon fill="#3F9D15" points="79.573,18.033 79.204,17.014 80.153,17.118 "/>
<path fill="#338011" d="M43.608,37.357c0.093,1.129,0.188,2.261,0.281,3.39c-1.152,0.266-2.306,0.534-3.459,0.803l0.263-1.3c-0.846-0.653-1.244-1.4-1.195-2.249c0.052-0.897,0.188-1.346,0.407-1.346c0.674-0.192,1.352-0.385,2.028-0.577C42.489,36.506,43.049,36.929,43.608,37.357z"/>
<path fill="#327E11" d="M37.648,12.406c-0.947,0.162-1.901,0.262-2.862,0.299C35.74,12.604,36.694,12.507,37.648,12.406z"/>
<path fill="#388C13" d="M6.616,24.658c0.891-0.76,1.781-1.52,2.67-2.28c1.024,0.553,1.363,1.099,1.021,1.648c-0.339,0.546-0.679,0.821-1.027,0.821l0.317,0.46C8.296,26.505,7.301,26.288,6.616,24.658z"/>
<path fill="#327E11" d="M9.28,24.848c-0.01-0.824-0.007-1.645,0.006-2.469c0.726-0.229,1.376-0.091,1.952,0.406c0.581-0.739,1.161-1.48,1.866-2.377c-0.885,0.726-1.501,1.443-2.187,2.093C10.371,23.282,9.826,24.067,9.28,24.848z"/>
<path fill="#153508" d="M87.736,68.964c0.994-0.079,1.987-0.155,2.985-0.229c-0.051,1.044-0.104,2.091-0.159,3.134c-1.145-0.061-2.287-0.125-3.43-0.186c-0.873-0.827-1.073-1.508-0.604-2.036C86.929,69.193,87.331,68.964,87.736,68.964z"/>
<path fill="#1D490C" d="M6.88,75.177c0.612,0.006,1.225,0.006,1.837,0.003c-0.001,0-0.92,0.79-0.92,0.79L6.88,75.177z"/>
<path fill="#3C9514" d="M24.908,25.562c-0.029,0.949-0.031,1.898-0.006,2.847c-0.984-1.214-1.968-2.426-2.954-3.644c-0.003,0-0.253,0.427-0.253,0.427C23.006,23.23,24.077,23.355,24.908,25.562z"/>
<path fill="#1B440A" d="M6.616,24.658c1.002,0.18,1.996,0.397,2.981,0.65c-0.181,0.925-0.396,1.84-0.646,2.75c-0.006-0.003-1.163,0.003-1.163,0.003s-1.156-0.003-1.152-0.003C6.633,26.923,6.625,25.791,6.616,24.658z"/>
<path fill="#153608" d="M91.099,77.576c0.686-0.714,1.387-1.41,2.104-2.084C92.683,76.374,91.983,77.066,91.099,77.576z"/>
<path fill="#41A216" d="M90.809,24.509c0.104-0.647,0.127-1.297,0.069-1.95c0.665,0.354,1.328,0.711,1.992,1.071C92.182,23.929,91.496,24.219,90.809,24.509z"/>
<path fill="#40A016" d="M15.526,19.229c0.008,0.711,0.008,1.425,0,2.137c-1.527,0.369-3.055,0.738-4.594,1.123c-0.014,0.012,0.323,0.28,0.316,0.29C12.668,21.601,14.097,20.417,15.526,19.229z"/>
<path fill="#153609" d="M74.995,81.265c0.995,1.017,1.99,2.032,2.983,3.046c-1.02,0-2.038-0.009-3.057-0.024l0.135,0.138C75.037,83.372,75.016,82.318,74.995,81.265z"/>
<path fill="#1F4D0B" d="M31.235,84.284c-0.008,1.135-0.015,2.273-0.023,3.412C31.219,86.557,31.227,85.419,31.235,84.284z"/>
<path fill="#153508" d="M74.922,84.287c0,0,0.137,0.134,0.137,0.138C75.056,84.425,74.922,84.287,74.922,84.287z"/>
<path fill="#204F0C" d="M31.074,87.369c0.949,0.971,1.896,1.944,2.844,2.915C32.969,89.313,32.022,88.34,31.074,87.369z"/>
<path fill="#204F0B" d="M46.719,93.649c0.966,0.977,1.932,1.957,2.897,2.934C48.649,95.602,47.685,94.626,46.719,93.649z"/>
<path fill="#143408" d="M65.907,50.192c-0.963-0.082-1.926-0.161-2.887-0.244c-2.275-3.18-4.554-6.362-6.83-9.542c0.447-0.824,0.896-1.648,1.345-2.472c7.71-2.155,12.642,0.595,14.738,8.35c-0.486,1.956-1.668,3.299-3.546,4.028C67.787,50.272,66.847,50.232,65.907,50.192z"/>
<path fill="#0F2605" d="M53.157,65.671c-0.002,1.02-0.016,2.039-0.041,3.059l-0.019,0.039c-2.032,1.472-0.934,4.353-2.68,5.951l-0.532,0.33c-1.115,1.205-2.485,1.593-4.077,1.272c-2.062-1.716-1.979-3.919-1.402-6.229c0.598-1.401,1.323-2.734,2.159-4.011c0,0,0.598-0.839,0.603-0.842c0.844,0.141,1.687,0.263,2.528,0.363C50.848,65.629,52.002,65.65,53.157,65.671z"/>
<path fill="#123006" d="M56.439,59.393c-0.955,0.016-1.909,0.034-2.862,0.056c1.919-0.028,3.834-0.056,5.751-0.086C58.365,59.379,57.402,59.39,56.439,59.393z"/>
<path fill="#398E13" d="M52.945,37.241c-2.056-0.104-4.111-0.208-6.167-0.312c-1.413-1.245-1.797-2.755-1.152-4.525c1.91-2.2,4.239-2.42,6.819-1.438c1.451,1.068,2.143,2.505,2.07,4.306C53.993,35.928,53.468,36.585,52.945,37.241z"/>
<path fill="#40A016" d="M46.773,34.973c0.003,0.653,0.004,1.306,0.006,1.956c-1.057,0.141-2.115,0.278-3.172,0.421c0.002,0.006,0.371,0.174,0.371,0.174c-0.587-0.891-0.998-1.828-0.624-2.429C44.354,33.481,45.599,34.238,46.773,34.973z"/>
<path fill="#21540C" d="M56.19,40.405c-1.082-1.056-2.163-2.109-3.245-3.165l-0.06,0.284c1.037-1.227,2.26-1.453,3.667-0.674c0.831,1.364,0.711,2.6-0.504,3.684L56.19,40.405z"/>
<path fill="#143408" d="M80.949,56.189c-1.991,2.078-3.983,4.156-5.975,6.235l0.082,0.104c-2.354-3.473-2.479-6.537,1.63-8.82C78.656,53.592,80.077,54.42,80.949,56.189z"/>
<path d="M81.149,50.058c0.778,0.974,1.557,1.947,2.327,2.921c-0.006,0-1.001-0.007-1.001-0.007l-0.995,0.013l-1.396-0.531l-0.122-1.489L81.149,50.058z"/>
<path fill="#173A08" d="M80.949,56.189c-0.904,0.016-1.811,0.034-2.716,0.046c-1.007-0.626-1.495-1.395-1.465-2.304c0.033-0.979,0.179-1.472,0.435-1.472c1.51-0.86,2.772-0.54,3.829,0.791c0,0,0.438-0.26,0.442-0.263C81.303,54.053,81.127,55.121,80.949,56.189z"/>
<path fill="#153508" d="M83.99,68.683c-0.761-0.024-1.522-0.058-2.281-0.101c0.887-0.982,1.768-1.963,2.649-2.942l-0.111-0.104c0.564,0.573,1.129,1.147,1.693,1.722C85.291,67.734,84.64,68.207,83.99,68.683z"/>
<path d="M12.288,37.448c2.089,0.024,4.176,0.046,6.264,0.07c-0.998,3.162-1.996,6.323-2.994,9.482C14.468,43.818,13.377,40.634,12.288,37.448z"/>
<path d="M18.34,53.259c1.305-0.006,2.61-0.012,3.918-0.021l-0.432-0.161c-0.508,0.75-1.016,1.501-1.522,2.249c-0.522-0.739-1.042-1.48-1.564-2.219L18.34,53.259z"/>
<path fill="#204F0A" d="M10.075,44.327c0.647,0.644,1.289,1.297,1.921,1.95C11.32,45.654,10.681,45.008,10.075,44.327z"/>
<path d="M83.99,68.683c0.086-1.05,0.173-2.097,0.258-3.146c1.079,0.027,2.158,0.058,3.236,0.085c0.083,1.114,0.165,2.226,0.249,3.339c-0.189,0.913-0.389,1.819-0.598,2.726C86.086,70.682,85.037,69.684,83.99,68.683z"/>
<path fill="#23560C" d="M49.653,12.751c0.97-0.202,1.949-0.351,2.935-0.446c1.988,0.088,3.602,1.276,5.423,1.85c0.423,0.482,0.846,0.967,1.267,1.45c-0.064,1.013,0.008,2.017,0.219,3.009c-1.521,4.56-4.548,4.874-8.365,2.976c-0.426-0.784-0.852-1.569-1.277-2.353c0.04-1.245,0.081-2.493,0.121-3.738c-0.757-0.375-1.516-0.751-2.272-1.126C48.352,13.831,49.002,13.291,49.653,12.751z"/>
<path d="M41.017,19.199c2.944,0.009,5.889,0.019,8.833,0.034c0.003,0.003-0.145-0.385-0.145-0.385c1.091,1.19,1.601,2.591,1.527,4.208c-0.792,1.395-1.929,2.396-3.411,3.009c-1.551,0.235-3.106,0.263-4.663,0.08c-1.531-0.485-2.706-1.431-3.571-2.774C39.42,21.762,39.862,20.359,41.017,19.199z"/>
<path fill="#1F4C0A" d="M41.017,19.199c-0.068,1.001-0.189,1.993-0.363,2.979c-0.176,0.647-0.351,1.291-0.526,1.938c-1.064,0.909-2.288,1.27-3.673,1.083c-0.534-0.406-1.067-0.815-1.601-1.221c-0.122-0.659-0.246-1.318-0.368-1.978c0.077-1.178,0.154-2.359,0.232-3.537c0.948-1.007,1.781-0.922,2.5,0.259C38.484,18.882,39.751,19.04,41.017,19.199z"/>
<path fill="#1D4A0A" d="M43.495,11.924c1.129-0.046,2.257-0.092,3.386-0.137l0.11,1.309c0.934,0.396,1.271,0.842,1.017,1.346c-0.266,0.525-0.542,0.788-0.831,0.788C45.95,14.127,44.723,13.025,43.495,11.924z"/>
<path d="M47.177,15.229c-0.087-0.708-0.149-1.419-0.186-2.133c0.862-0.317,1.75-0.434,2.664-0.345c0.173,0.909,0.28,1.822,0.32,2.747C49.029,15.537,48.097,15.448,47.177,15.229z"/>
<path d="M37.217,18.723c-0.836-0.061-1.669-0.146-2.5-0.259c-0.267-0.986-0.435-1.984-0.506-3.003C35.213,16.547,36.215,17.633,37.217,18.723z"/>
<path fill="#020501" d="M84.603,34.525c0.881-0.016,1.763-0.013,2.642,0.012c0.257,0.949,0.515,1.898,0.775,2.848c-0.128,2.075-0.26,4.147-0.391,6.223c-2.159,2.148-4.318,4.3-6.479,6.451c-0.002,0,0.069-0.073,0.069-0.073c-3.913,1.435-6.541,0.375-7.518-3.867c-0.238-2.405-0.26-4.822,0.075-7.217c0.476-1.477,1.243-2.805,2.287-3.958C78.79,32.514,81.711,33.804,84.603,34.525z"/>
<path d="M90.763,53.18c-0.901-0.082-1.804-0.177-2.697-0.29C88.969,52.975,89.867,53.073,90.763,53.18z"/>
<path d="M87.331,43.671c0.966,0.049,1.932,0.113,2.893,0.186C89.257,43.823,88.292,43.759,87.331,43.671z"/>
<path fill="#030801" d="M46.446,74.457c1.149,0.195,2.297,0.391,3.442,0.589c0.03,2.109,0.063,4.215,0.096,6.32c-2.273,1.465-0.682,4.819-3.053,6.238c-2.1-1.107-4.199-2.216-6.297-3.326c0-0.004,0.172,0.036,0.172,0.036c-2.339-2.051-2.336-4.107-0.024-6.177l-0.174,0.086c0.897-1.169,1.573-2.457,2.062-3.849c0.638-0.366,1.275-0.729,1.913-1.096C45.204,73.673,45.825,74.063,46.446,74.457z"/>
<path fill="#163907" d="M50.418,74.719c0.893-1.983,1.787-3.967,2.68-5.954c-0.173,1.95-0.344,3.9-0.521,5.848C51.857,74.671,51.138,74.708,50.418,74.719z"/>
<path fill="#1E4B0A" d="M46.931,87.604c1.018-2.081,2.035-4.16,3.053-6.238c-0.01,2.078-0.021,4.157-0.031,6.235c-1.161,1.229-2.229,1.089-3.215-0.223L46.931,87.604z"/>
<path d="M46.737,87.379c1.071,0.073,2.144,0.149,3.216,0.223c-0.967,0.903-1.933,1.804-2.899,2.707C46.944,89.332,46.838,88.355,46.737,87.379z"/>
<path fill="#040B01" d="M78.293,53.126c-0.008,1.037-0.027,2.075-0.061,3.109c-1.058,2.1-2.117,4.196-3.176,6.293c-1.24-1.08-2.482-2.164-3.728-3.247c-0.913-1.022-1.823-2.048-2.734-3.07c-0.946-1.147-1.993-2.203-2.979-3.314c0.122-0.9,0.217-1.804,0.288-2.707c0.003,0.003-0.256-0.122-0.256-0.122c0.896-0.931,1.758-1.892,2.58-2.89c-4.061-2.212-8.121-4.428-12.18-6.644c0.383-1.325,0.766-2.649,1.15-3.971c-0.177-0.549-0.353-1.095-0.534-1.647c-1.006-0.607-2.038-1.154-3.109-1.651c-1.639-0.863-3.192-1.819-4.338-3.335c-0.349-1.279-0.338-2.536,0.085-3.796c0.816-1.065,1.739-2.008,2.786-2.844c1.207-0.699,2.501-0.974,3.882-0.885c3.336,0.827,5.586,4.086,9.269,4.108c1.354-0.076,2.708-0.024,4.051,0.134c1.149,0.696,2.123,1.596,2.933,2.664c1.215,1.508,2.821,2.719,3.577,4.587c0.049,1.907-0.543,3.741-0.734,5.618c-0.041,1.23-0.061,2.469-0.074,3.699c0.039,1.816-0.049,3.647,0.307,5.451C76.011,50.336,77.485,51.508,78.293,53.126z"/>
<path fill="#122D06" d="M65.616,52.896c0.995,1.104,1.988,2.21,2.979,3.314C67.602,55.106,66.609,54.001,65.616,52.896z"/>
<path d="M65.467,62.229c-1.026-0.995-2.054-1.99-3.081-2.985C63.414,60.239,64.441,61.234,65.467,62.229z"/>
<path fill="#3C9614" d="M68.776,28.153c-4.131-1.078-8.262-2.152-12.392-3.226c-0.127-0.607-0.252-1.211-0.379-1.819c0.637-1.104,1.544-1.877,2.765-2.268c1.293-0.345,2.346-0.012,3.121,1.105c2.302,1.077,4.604,2.155,6.906,3.229c0.419,0.5,0.839,1.001,1.259,1.498C69.629,27.167,69.203,27.658,68.776,28.153z"/>
<path fill="#368812" d="M61.891,21.945c-0.97,0.024-1.938,0.031-2.907,0.027c-0.803,0.9-1.796,1.404-3.014,1.447c-1.175,0.106-2.322,0.33-3.451,0.668c-0.571-0.152-1.139-0.308-1.708-0.46c-0.224-0.546-0.446-1.093-0.67-1.639c-0.145-1.046-0.291-2.093-0.436-3.14c3.262-0.079,6.525-0.156,9.79-0.235C60.294,19.724,61.093,20.835,61.891,21.945z"/>
<path fill="#1F4C0B" d="M62.253,12.415c1.229,0.073,2.455,0.149,3.684,0.223c0.812,1.163,0.751,2.243-0.314,3.223c0,0,0.361-0.134,0.361-0.137c-2.233-0.04-4.471-0.079-6.706-0.116c0-0.003,0.159,0.144,0.159,0.144c-0.663-0.571-1.325-1.139-1.988-1.709c0.616-0.62,1.234-1.236,1.851-1.855l-0.214,0.238C60.137,11.267,61.194,11.264,62.253,12.415z"/>
<path fill="#409E15" d="M71.965,22.26c-0.076,0.732-0.139,1.468-0.188,2.203c-0.484,0.635-0.968,1.27-1.451,1.904c-0.589-0.537-1.18-1.074-1.771-1.611c0,0,0.249,0.418,0.246,0.418C69.853,24.204,70.909,23.23,71.965,22.26z"/>
<path d="M34.589,72.367c0.954-0.198,1.918-0.339,2.89-0.415c0.131,2.124,0.263,4.245,0.394,6.369c1.356,2.117,1.698,4.165-0.427,6.036c-1.203-1.117-2.405-2.231-3.61-3.348C34.083,78.129,34.335,75.248,34.589,72.367z"/>
<path d="M34.176,65.873c0.049,0.817,0.067,1.633,0.055,2.45c-1.042-0.939-2.084-1.877-3.126-2.813C32.136,65.558,33.162,65.68,34.176,65.873z"/>
<path d="M65.405,68.976c-1.009,0.991-2.016,1.983-3.024,2.976C63.389,70.96,64.396,69.967,65.405,68.976z"/>
<path fill="#0F2706" d="M18.739,53.107c1.03-0.009,2.059-0.019,3.087-0.027c0.096,1.172,0.191,2.344,0.287,3.516l0.934,1.016l-0.513,1.285l-1.089,0.519c-0.705,1.377-1.529,1.383-2.457,0.214c-0.134-1.159-0.267-2.319-0.404-3.482C18.653,55.133,18.707,54.12,18.739,53.107z"/>
<path fill="#204F0A" d="M22.534,58.896c-0.178-0.763-0.32-1.532-0.421-2.308C22.276,57.358,22.417,58.124,22.534,58.896z"/>
<path d="M18.988,59.629c0.818-0.092,1.639-0.165,2.459-0.217c0.167,0.955,0.23,1.917,0.185,2.881c-1.03,0.076-2.058,0.138-3.09,0.187C18.668,61.524,18.817,60.575,18.988,59.629z"/>
<path d="M59.299,12.186c0.046,1.187,0.092,2.374,0.138,3.564c-2.283-1.147-4.565-2.298-6.849-3.446c0.138-1.046,0.276-2.096,0.414-3.143C55.101,10.169,57.199,11.179,59.299,12.186z"/>
<path d="M62.253,12.415c-1.056,0.003-2.112,0.006-3.168,0.006c1.136-1.099,2.271-2.197,3.407-3.299C62.413,10.22,62.334,11.316,62.253,12.415z"/>
<path d="M46.632,62.128c-1.007-0.973-2.014-1.946-3.022-2.92C44.616,60.181,45.624,61.155,46.632,62.128z"/>
<path d="M24.908,25.562c-1.071-0.125-2.143-0.247-3.213-0.369c0.05-1.126,0.099-2.249,0.148-3.375c2.153-0.274,4.306-0.549,6.459-0.824c0.816,0.546,1.694,0.964,2.632,1.251c2.333,1.919,2.749,3.937,0.305,6.094C29.129,27.414,27.019,26.487,24.908,25.562z"/>
<path fill="#193F09" d="M37.445,84.357c0.14-2.015,0.281-4.028,0.424-6.04c0.972-0.063,1.941-0.125,2.912-0.18c0.009,2.061,0.015,4.12,0.024,6.177C39.685,84.33,38.565,84.344,37.445,84.357z"/>
<path fill="#2A6B0F" d="M34.051,36.692c0.084-1.889,0.168-3.778,0.251-5.667c0.603-0.479,1.206-0.958,1.807-1.438c1.607,0.006,2.921,0.632,3.938,1.874c0.414,1.542,0.175,2.979-0.717,4.306c-0.517,0.565-1.033,1.129-1.55,1.697C36.537,37.207,35.295,36.951,34.051,36.692z"/>
<path fill="#40A016" d="M40.452,38.086c0.055,0.723,0.134,1.447,0.24,2.164c-0.971-0.928-1.941-1.855-2.912-2.786l-0.256,0.293C38.674,36.31,39.651,36.42,40.452,38.086z"/>
<path fill="#22540B" d="M40.971,74.833c0.03-1.883,0.061-3.77,0.094-5.649c0.987-0.229,1.973-0.454,2.959-0.684c0.386,0.485,0.772,0.971,1.158,1.453c0.082,1.831,0.33,3.711-1.483,4.978l-0.011,0.021C42.724,76.266,41.821,76.166,40.971,74.833z"/>
<path d="M46.565,66.083c0.099,0.824,0.195,1.646,0.288,2.469c-0.458,0.8-0.914,1.597-1.37,2.393c-0.612-0.687-1.224-1.37-1.835-2.057l0.375-0.385C44.871,67.694,45.718,66.888,46.565,66.083z"/>
<path fill="#1F4D0B" d="M31.239,28.339c-0.102-2.033-0.203-4.065-0.305-6.094c1.184-0.083,2.367-0.165,3.551-0.248c0.001,0.003-0.239-0.192-0.239-0.192c0.947,0.894,2.06,1.486,3.317,1.822c1.207,0.567,2.072,1.453,2.542,2.71c-0.112,1.349-0.719,2.414-1.821,3.198c-1.291,0.098-2.584,0.14-3.88,0.116c-1.34-0.055-2.472-0.567-3.396-1.538L31.239,28.339z"/>
<path d="M31.008,28.113c1.108-0.003,2.216-0.003,3.324-0.003c1.152,0.72,1.523,1.416,1.117,2.097c-0.398,0.668-0.795,1.004-1.196,1.004c0,0,0.052-0.18,0.052-0.183c-0.001-0.003-1.388,0.183-1.388,0.183s-1.398-0.107-1.396-0.107C31.352,30.106,31.183,29.108,31.008,28.113z"/>
<path d="M78.179,25.275c2.033,0.064,4.063,0.125,6.095,0.189c-0.005,0.812,0.067,1.618,0.217,2.414c-0.043,1.123-0.087,2.243-0.132,3.363c-1.029,0.956-2.242,1.529-3.639,1.715c-2.268-0.873-3.055-2.512-2.512-4.84C78.178,27.17,78.169,26.221,78.179,25.275z"/>
<path fill="#1F4C0B" d="M78.209,28.116c0.954,1.05,1.907,2.1,2.861,3.146c-0.281,0.671-0.563,1.34-0.844,2.008c-1.264,0.769-2.634,1.15-4.114,1.144c-1.291-0.711-2.33-1.693-3.153-2.911c0.055-0.727,0.111-1.45,0.166-2.173c0.557-0.467,1.115-0.931,1.672-1.397C75.933,27.994,77.072,28.055,78.209,28.116z"/>
<path d="M68.554,24.756c1.074-0.098,2.148-0.195,3.222-0.293c1.008,1.16,2.017,2.316,3.023,3.473c-0.003-0.003-0.031-0.281-0.031-0.281c-1.918,2.64-3.974,2.563-6.138,0.308l0.144,0.186C68.703,27.021,68.63,25.888,68.554,24.756z"/>
<path d="M65.622,15.86c0.103-1.077,0.204-2.151,0.31-3.226c1.022-0.037,2.039-0.082,3.055-0.144C67.865,13.614,66.743,14.737,65.622,15.86z"/>
<path fill="#1C470A" d="M40.971,74.833c0.906,0.039,1.813,0.079,2.719,0.119c-1.028,1.089-2.055,2.179-3.082,3.271C40.729,77.093,40.851,75.962,40.971,74.833z"/>
<path fill="#153608" d="M81.07,31.262c1.097-0.006,2.192-0.015,3.289-0.021c0.08,1.093,0.161,2.188,0.243,3.281c-1.408,0.949-2.818,1.895-4.229,2.841c-2.111-2.451-0.934-4.425,0.911-6.302L81.07,31.262z"/>
<path fill="#060E02" d="M40.452,38.086c-0.957-0.281-1.933-0.391-2.928-0.33c-0.004-2.167-0.011-4.333-0.015-6.503c0.383-0.574,0.766-1.147,1.149-1.718c2.535-2.591,5.792-3.617,9.229-4.248c2.27-0.092,3.911,0.989,5.194,2.75c0.032,1.132,0.065,2.268,0.098,3.399c0.465,0.452,0.931,0.9,1.397,1.352c-0.465,0.452-0.93,0.903-1.393,1.355c-2.139,0.278-4.274,0.553-6.411,0.83c-0.932,0.852-1.863,1.7-2.795,2.551C42.802,37.711,41.627,37.9,40.452,38.086z"/>
<path fill="#122D06" d="M68.228,47.177c-0.861,0.964-1.72,1.926-2.58,2.89C66.507,49.103,67.367,48.141,68.228,47.177z"/>
<path fill="#1C470A" d="M43.648,68.887c1.068-0.109,2.138-0.223,3.206-0.332c-0.134,1.968-0.269,3.939-0.404,5.904c-0.914,0.184-1.829,0.342-2.75,0.471C43.681,72.916,43.664,70.902,43.648,68.887z"/>
<path d="M57.199,36.563c-1.438,0.321-2.876,0.641-4.313,0.961c0.099-1.126,0.198-2.252,0.298-3.381l-0.225,0.409c0.883-1.224,2.054-1.642,3.513-1.257c0.822,0.684,1.173,1.437,1.058,2.258c-0.124,0.857-0.3,1.288-0.53,1.288L57.199,36.563z"/>
<path fill="#102705" d="M78.293,53.126c-1.924-1.364-3.85-2.729-5.775-4.093c1.107-1.923,0.72-4.27,1.75-6.213c1.459-0.699,2.68-0.366,3.697,0.852c1.087,2.103,2.172,4.208,3.256,6.314c-0.063,1.086-0.125,2.176-0.188,3.266C80.118,53.216,79.205,53.175,78.293,53.126z"/>
<path fill="#388C13" d="M53.081,28.037c-1.934,0.302-3.867,0.604-5.8,0.909c-0.595-0.189-1.192-0.378-1.787-0.567c-0.975-0.879-1.379-1.987-1.294-3.284c0.734-1.01,1.596-1.901,2.568-2.686c1.124-0.14,2.249-0.281,3.373-0.421l-0.364-0.28c0.762,0.799,1.685,1.327,2.745,1.62c0.127,0.528,0.253,1.056,0.378,1.581C52.962,25.952,53.021,26.993,53.081,28.037z"/>
<path fill="#3C9614" d="M40.654,22.177c1.043,0.067,2.087,0.134,3.131,0.201c0.791,0.693,1.143,1.462,1.056,2.301c-0.09,0.876-0.244,1.315-0.461,1.315c-0.577,0.396-1.152,0.791-1.729,1.187c-1.497-0.021-2.592-0.696-3.288-2.017c-0.391-1.501,0.11-2.6,1.5-3.29L40.654,22.177z"/>
<path fill="#41A216" d="M43.812,24.543c-0.015-0.72-0.026-1.443-0.027-2.164c0.998-0.342,1.993-0.333,2.983,0.031c0.014,0.897,0.038,1.792,0.073,2.688C45.589,26.245,44.568,26.127,43.812,24.543z"/>
<path fill="#348212" d="M37.819,24.851c-1.19-1.013-2.382-2.029-3.573-3.045c1.15,0.024,2.301,0.049,3.451,0.07c0.875,0.625,1.183,1.276,0.929,1.95C38.366,24.509,38.098,24.851,37.819,24.851z"/>
<path d="M37.819,24.851c-0.188-0.986-0.23-1.979-0.124-2.976c1.056,0,2.112,0,3.168,0c-0.049,1.074-0.099,2.146-0.148,3.217c-1.23,1.217-2.296,1.031-3.224-0.37L37.819,24.851z"/>
<path d="M81.285,31.061c-0.301,2.1-0.602,4.202-0.906,6.302c-0.638-0.027-1.271-0.043-1.904-0.055c-0.705,0.073-1.41,0.149-2.115,0.223c-1.277-0.705-2.184-1.736-2.717-3.095c-0.469-1.522,0.022-2.612,1.477-3.271C77.174,31.132,79.229,31.094,81.285,31.061z"/>
<path fill="#153507" d="M77.965,43.671c-0.995,0.024-1.989,0.045-2.984,0.064c-0.401,0.796-0.805,1.593-1.207,2.39c-0.4-0.8-0.8-1.596-1.199-2.396c0.017-1.032,0.063-2.063,0.139-3.092c1.021-2.276,1.448-5.621,5.24-2.911c0,0,0.513-0.412,0.517-0.415C78.304,39.429,78.134,41.55,77.965,43.671z"/>
<path fill="#398F13" d="M56.999,36.841c-0.155-0.857-0.413-1.685-0.771-2.478c0.521-1.373,1.503-2.194,2.948-2.459c1.489,1.08,2.979,2.161,5.997,4.352C61.05,36.548,59.024,36.695,56.999,36.841z"/>
<path fill="#102705" d="M77.953,37.726c-1.751,0.97-3.501,1.941-5.245,2.911c-0.314-1.953-0.633-3.906-0.952-5.859c0.753-1.425,1.706-1.645,2.892-0.482C75.749,35.44,76.85,36.585,77.953,37.726z"/>
<path fill="#409F16" d="M59.176,31.904c-0.982,0.821-1.966,1.642-2.948,2.459c-1.089,0.064-2.181,0.125-3.27,0.189c0.073-1.038,0.146-2.078,0.22-3.116C55.177,31.592,57.177,31.748,59.176,31.904z"/>
<path fill="#409E15" d="M74.647,34.296c-0.981,0.058-1.945,0.22-2.892,0.482c-0.844-1.068-1.686-2.136-2.528-3.207c1.816-2.246,3.536-2.78,5.051,0.287l0.839-0.69C74.962,32.209,74.804,33.252,74.647,34.296z"/>
<path fill="#255D0D" d="M74.278,31.858c-1.685-0.095-3.367-0.189-5.051-0.287c-0.198-1.203-0.398-2.405-0.597-3.607c2.047-0.101,4.093-0.201,6.139-0.305C74.604,29.056,74.441,30.457,74.278,31.858z"/>
<path fill="#153508" d="M72.574,43.729c0.803,0.003,1.605,0.003,2.406,0.006c-0.822,1.77-1.646,3.54-2.466,5.304C72.536,47.266,72.555,45.499,72.574,43.729z"/>
<path fill="#358312" d="M52.807,21.985c1.181-0.027,2.36-0.055,3.542-0.079c0.776,0.796,1.004,1.56,0.685,2.289c-0.313,0.711-0.608,1.068-0.891,1.068c0,0,0.244-0.336,0.242-0.336c-1.162-0.006-2.322-0.012-3.483-0.018c-0.002,0,0.331,0.335,0.331,0.335c-0.808-0.631-1.139-1.324-0.996-2.081C52.384,22.379,52.576,21.985,52.807,21.985z"/>
<path d="M56.143,25.263c0.068-1.12,0.136-2.24,0.204-3.36c0.881-0.006,1.76,0.015,2.637,0.07C58.037,23.069,57.09,24.167,56.143,25.263z"/>
<path d="M52.807,21.985c0.142,1.086,0.284,2.173,0.426,3.259c-1.152-1.178-2.304-2.359-3.456-3.537C50.776,21.918,51.787,22.009,52.807,21.985z"/>
<path fill="#3E9A15" d="M34.253,31.211c0.072-1.031,0.098-2.066,0.08-3.101c0.993-0.015,1.987-0.037,2.979-0.07c0.511,0.488,1.021,0.977,1.532,1.465c-0.487,0.51-0.975,1.022-1.465,1.532l0.131,0.217C36.424,31.241,35.339,31.226,34.253,31.211z"/>
<path fill="#43A817" d="M37.491,24.722c1.072,0.122,2.146,0.248,3.223,0.37c0.001,0-0.284-0.095-0.284-0.095c0.984,0.65,1.462,1.431,1.432,2.35c-0.034,0.982-0.176,1.474-0.429,1.474c-1.517,0.803-2.808,0.534-3.875-0.806c0,0-0.238,0.024-0.243,0.024C37.37,26.932,37.429,25.827,37.491,24.722z"/>
<path fill="#368712" d="M37.556,28.015c1.079,0.027,2.158,0.052,3.236,0.076c2.083-1.886,4.141-2.042,6.169,0.086c0,0,0.316,0.757,0.317,0.763c-3.299,0.702-6.599,1.401-9.901,2.097C37.448,30.029,37.507,29.023,37.556,28.015z"/>
<path fill="#20500B" d="M46.962,28.177c-2.057-0.028-4.115-0.055-6.172-0.086c-0.115-1.031-0.235-2.066-0.36-3.097c1.128-0.146,2.254-0.293,3.383-0.446c1.001,0.226,2.011,0.409,3.029,0.546C46.872,26.123,46.911,27.149,46.962,28.177z"/>
</svg>