<?xml version="1.0" encoding="utf-8"?>
<!DOCTYPE svg PUBLIC "-//W3C//DTD SVG 1.1//EN" "http://www.w3.org/Graphics/SVG/1.1/DTD/svg11.dtd">
<svg version="1.1" xmlns="http://www.w3.org/2000/svg" xmlns:xlink="http://www.w3.org/1999/xlink" x="0px" y="0px" width="100px" height="100px" viewBox="0 0 100 100" enable-background="new 0 0 100 100" xml:space="preserve">
<path fill="#A45C3D" d="M75.393,15.689c0.846,0.076,1.649,0.296,2.416,0.659c1.869,1.773,3.05,3.842,2.819,6.503c-3.207,4.925-7.321,4.349-11.818,2.264c-1.381-0.247-2.556-1.156-3.926-1.336c0.111,0.021-0.903-0.205-0.801-0.177s-0.683-0.241-0.632-0.223c0.051,0.015,0.618,0.253,0.711,0.274c0.79,0.138,1.454,0.354,2.208,0.724c1.022,0.687,1.52,1.553,1.674,2.728c-0.114,1.996-0.523,3.885-0.755,5.838c-0.191,2.258-0.564,4.425-1.911,6.308c-2.079,2.433-4.919,3.693-7.672,5.075c-2.163,0.909-4.428,1.059-6.73,0.864c-2.929-0.571-5.632-1.84-8.444-2.771c-4.061-1.544-8.319-2.524-12.349-4.19c-1.242-0.787-2.399-1.678-3.476-2.679c-2.196-2.042-4.422-4.046-6.293-6.412c-4.228-5.606-1.861-9.088,3.508-12.076c5.701-3.17,12.347-4.785,16.858-9.97c12.618-9.519,20.988,2.533,31.029,6.106C73.046,13.968,74.244,14.792,75.393,15.689z"/>
<path fill="#995A40" d="M40.78,7.093c-5.185,6.982-10.37,13.965-15.557,20.95c-0.081,0.735-0.163,1.471-0.246,2.207c-1.362,2.081-3.47,2.5-5.732,2.551c-1.465-0.031-2.887-0.305-4.267-0.791c-1.259-0.717-2.394-1.602-3.396-2.649c-0.786-1.221-1.262-2.554-1.378-4.007c0.488-1.367,1.267-2.548,2.293-3.571C21.926,16.886,31.353,11.988,40.78,7.093z"/>
<path fill="#945B43" d="M78.213,22.018c-0.133-1.889-0.266-3.778-0.401-5.67c5.214,2.612,10.431,5.222,15.647,7.834c-0.58,1.126-1.236,2.206-1.97,3.244c-0.854,1.733-1.633,3.506-3.008,4.925c-1.701,1.065-3.358,2.191-5.184,3.052c-1.347,0.363-2.705,0.571-4.102,0.604c-1.428,0.003-2.832-0.119-4.238-0.351c-0.656-0.312-1.3-0.62-1.953-0.934c-1.098-1.007-1.845-2.222-2.302-3.631C68.888,24.484,75.431,24.811,78.213,22.018z"/>
<path fill="#423F38" d="M6.809,56.391c-0.003-7.135-0.008-14.27-0.011-21.408c1.952-1.843,3.345-4.565,6.689-4.227c1.401,0.354,2.751,0.815,4.071,1.407c1.207,0.928,2.013,2.108,2.419,3.567c0.409,3.812,0.535,7.599-0.307,11.368c-0.931,2.179-2.203,4.154-3.511,6.113c-1.55,1.782-2.829,3.845-5.116,4.846C9.348,58.219,7.938,57.663,6.809,56.391z"/>
<path fill="#2D2A26" d="M59.368,93.387c-3.222,1.06-6.442,2.118-9.664,3.178c-2.157-2.088-4.455-4.053-5.977-6.714c-0.348-1.517-0.285-3.016,0.133-4.505c1.354-3.521,1.433-7.693,5.125-10.01c3.335-1.455,5.82-0.189,7.868,2.444c0.622,1.297,1.237,2.615,1.835,3.925c0.597,1.264,1.157,2.561,1.662,3.866c0.294,1.34,0.42,2.71,0.343,4.087C60.704,91.056,60.24,92.295,59.368,93.387z"/>
<path fill="#413D37" d="M6.809,56.391c0.775,0.016,1.55,0.03,2.325,0.046c1.427-0.027,2.71,0.391,3.85,1.251c1.066,1.813,2.042,3.672,3.042,5.521c0.676,1.249,1.344,2.497,2.008,3.748c1.082,1.883,1.937,3.833,1.952,6.061c-0.136,1.474-0.659,2.789-1.573,3.955c-1.266,0.745-2.623,1.221-4.086,1.386c-0.725,0.07-1.45,0.137-2.175,0.204C10.372,71.174,8.591,63.782,6.809,56.391z"/>
<path fill="#262320" d="M72.172,86.994c-1.099,0.231-2.197,0.464-3.296,0.695c-1.172,1.15-2.524,1.367-4.032,0.77c-2.211-1.074-3.483-2.832-3.855-5.259c-0.862-4.58-2.192-9.061-2.957-13.669c-0.1-1.614-0.052-3.213,0.144-4.818c0.909-3.562,2.92-5.765,6.858-5.604c2.455,0.645,4.354,2.134,6.014,3.974c1.506,1.935,2.235,4.175,2.545,6.57c0.271,1.521,0.54,3.049,0.811,4.572c0.374,2.236,0.949,4.458,0.771,6.763C74.399,83.1,73.363,85.086,72.172,86.994z"/>
<path fill="#49443E" d="M15.562,75.333c0.033-1.077,0.067-2.154,0.102-3.231c-2.647-4.02-3.76-8.311-2.33-13.053c1.206-1.508,2.774-2.262,4.701-2.258c1.793,0.509,3.214,1.541,4.251,3.091c1.852,5.005,2.606,10.294,3.844,15.454c0.453,3.833-0.672,6.873-4.352,8.621c-3.209-1.797-6.417-3.598-9.625-5.396l1.085-0.872C13.94,76.831,14.71,76.041,15.562,75.333z"/>
<path fill="#3E3A34" d="M21.778,83.957c-0.049-3.104-0.099-6.204-0.148-9.308c0.311-0.671,0.621-1.346,0.931-2.018c1.104-1.04,2.406-1.653,3.909-1.84c1.482-0.003,2.922,0.235,4.311,0.748c1.28,0.687,2.559,1.385,3.823,2.09c1.282,0.647,2.367,1.551,3.27,2.658c0.6,1.251,0.943,2.585,1.021,3.964c0.008,1.331-0.192,2.649-0.564,3.925c-0.666,1.126-1.602,1.972-2.794,2.515c-1.229,0.296-2.475,0.306-3.717,0.062c-1.215-0.425-2.4-0.345-3.553,0.247C26.104,85.986,23.94,84.971,21.778,83.957z"/>
<path fill="#37332F" d="M12.648,34.439c-0.65,1.202-1.3,2.405-2.151,3.982c-1.53-1.422-2.615-2.432-3.699-3.439c-0.053-3.378-0.107-6.756-0.16-10.135c2.054-1.324,4.045-1.868,5.807,0.461l-0.391,0.479c1.218,0.766,2.075,1.828,2.568,3.18C15.491,31.342,14.203,32.941,12.648,34.439z"/>
<path fill="#44403A" d="M34.339,84.479c0.043-1.063,0.084-2.124,0.125-3.189c0.971-0.964,1.942-1.926,2.91-2.887c1.091-0.833,2.324-1.31,3.688-1.423c1.328,0.019,2.603,0.3,3.799,0.876c0.916,0.928,1.515,2.039,1.788,3.312c0.113,1.236,0.093,2.484-0.079,3.717c-0.323,1.166-0.589,2.356-0.792,3.55c0.024,1.187,0.154,2.374,0.388,3.54c-0.258,0.527-0.513,1.062-0.768,1.593c-0.569,0.149-1.14,0.302-1.709,0.454c-3.108-1.26-6.216-2.521-9.325-3.777c-0.83-0.485-1.332-1.196-1.509-2.143c-0.022-0.979,0.366-1.752,1.167-2.316C34.022,85.785,34.339,84.479,34.339,84.479z"/>
<path fill="#2E2C27" d="M71.928,81.428c-1.046-2.1-2.089-4.203-3.135-6.306c1.025-1.013,1.993-2.078,2.901-3.194c1.611-2.533,3.596-4.426,6.91-4.011c2.05,0.589,3.627,1.883,5.024,3.421c0.8,1.074,1.313,2.28,1.529,3.604c-0.284,1.989-1.231,3.646-2.623,5.072c-0.329,0.549-0.662,1.099-0.995,1.647c-2.122,1.035-4.245,2.066-6.367,3.098C73.093,84.623,73.04,82.511,71.928,81.428z"/>
<path fill="#2C2A25" d="M59.368,93.387c-0.027-0.921-0.056-1.843-0.083-2.762c-1.042-0.982-2.064-1.983-3.069-3l0.058,0.077c-0.448-0.607-0.896-1.218-1.345-1.828c0.287-1.489,0.624-2.967,1.019-4.432c0.673-4.824-4.294-10.645,2.546-14.377c1.584,0.07,2.948,0.656,4.093,1.758l-0.089,0.067c2.772,3.369,1.096,7.37,1.565,11.065c0,2.295-0.006,4.59,0.028,6.882c0.14,1.6-0.382,2.939-1.565,4.022C61.474,91.703,60.421,92.545,59.368,93.387z"/>
<path fill="#272521" d="M81.116,78.599c-0.032-1.285-0.063-2.573-0.093-3.857c-1.925-3.665-4.628-7.034-4.373-11.53c-0.035-2.535,0.02-5.06,0.813-7.501c0.852-1.528,2.104-2.585,3.746-3.167c1.687-0.272,3.292-0.013,4.801,0.774c1.302,1.038,2.188,2.368,2.647,3.971c0.488,3.119,0.371,6.271,0.396,9.408c-0.007,1.499-0.039,3.013-0.097,4.514c-0.073,2.286-1.102,4.242-2.194,6.171c-0.636,1.309-1.427,2.526-2.344,3.662c-0.963,0.189-1.922,0.396-2.879,0.619c0.001,0-0.745-0.945-0.745-0.945C80.901,80.012,81.008,79.304,81.116,78.599z"/>
<path fill="#383530" d="M93.238,56.494c-0.026,4.087-0.053,8.176-0.08,12.263c-1.631,0.83-3.123,0.625-4.44-0.626c-1.552-3.982-1.789-7.938,0.185-11.859C90.429,55.109,91.864,55.183,93.238,56.494z"/>
<path fill="#393630" d="M90.455,25.363c1-0.391,2-0.778,3.002-1.175c-0.065,3.415-0.134,6.839-0.202,10.26c-1.524,0.888-2.959,0.76-4.302-0.385C86.883,30.723,88.991,28.098,90.455,25.363z"/>
<path fill="#46423B" d="M34.392,87.553c-0.009,0.896-0.018,1.794-0.027,2.691c-2.032-1.08-4.066-2.161-6.099-3.241c0.119-0.919,0.235-1.837,0.348-2.753c0.993-0.869,1.88-0.775,2.663,0.287c1.022-0.012,2.043-0.03,3.064-0.055c-0.001-0.003,0.087,0.231,0.087,0.231c0.789,0.642,1.045,1.276,0.772,1.904C34.929,87.241,34.661,87.553,34.392,87.553z"/>
<path fill="#2A2724" d="M93.307,40.692c0.014,3.186,0.027,6.369,0.041,9.556c-1.584,1.3-3.234,1.395-4.956,0.277c-2.629-3.314-2.615-6.647-0.067-9.998C90.024,39.371,91.686,39.426,93.307,40.692z"/>
<path fill="#796356" d="M12.445,25.309c-1.935-0.152-3.871-0.308-5.807-0.461c1.952-1.019,3.903-2.039,5.858-3.061C12.481,22.959,12.464,24.134,12.445,25.309z"/>
<path fill="#2D2B26" d="M90.605,68.918c0.853-0.058,1.707-0.109,2.557-0.161c0.037,2.157,0.075,4.314,0.115,6.473c-0.594,0.399-1.188,0.8-1.781,1.199c-0.678-0.229-1.354-0.461-2.034-0.692c-1.051-1.051-1.573-2.316-1.565-3.803c0.273-0.666,0.545-1.328,0.816-1.993C89.342,69.599,89.974,69.257,90.605,68.918z"/>
<path fill="#322F2A" d="M93.307,40.692c-0.879,0.016-1.758,0.024-2.637,0.031c-2.34-1.108-2.71-2.89-1.757-5.124c0.602-0.36,1.203-0.72,1.804-1.081c0.847-0.021,1.694-0.042,2.539-0.067C93.272,36.53,93.288,38.611,93.307,40.692z"/>
<path fill="#322F2A" d="M90.653,50.205c0.899,0.006,1.799,0.021,2.696,0.043c-0.037,2.081-0.073,4.165-0.11,6.246c-0.838-0.006-1.674-0.012-2.51-0.018C88.37,54.413,88.364,52.322,90.653,50.205z"/>
<path fill="#37342F" d="M71.928,81.428c1.081,1.11,2.163,2.222,3.245,3.332c-1.001,0.748-2.002,1.492-3.003,2.237C72.091,85.139,72.008,83.283,71.928,81.428z"/>
<path fill="#2D2A26" d="M62.525,90.86c-0.007-1.068-0.013-2.14-0.019-3.21c0.523-0.712,1.045-1.42,1.568-2.131c0.518,0.715,1.033,1.429,1.55,2.143c1.082,0.009,2.166,0.019,3.251,0.027C66.759,88.745,64.643,89.805,62.525,90.86z"/>
<path fill="#49443E" d="M46.805,90.803c0.966,1.919,1.933,3.842,2.899,5.762l-1.392,0.115l-1.385-0.161c-0.99-0.699-1.517-1.657-1.578-2.869c0.043-0.576,0.085-1.153,0.126-1.73C45.919,91.547,46.363,91.175,46.805,90.803z"/>
<path fill="#2A2723" d="M90.728,77.888c-0.955,0.28-1.916,0.546-2.882,0.793c-0.555-0.363-1.108-0.729-1.664-1.096c-0.118-1.367,0.241-2.603,1.012-3.726c1.41-0.309,2.525,0.155,3.385,1.287l0.073,0.021c0.882,0.58,1.186,1.175,0.916,1.789C91.294,77.576,91.015,77.888,90.728,77.888z"/>
<path fill="#322F2A" d="M90.728,77.888c-0.035-0.907-0.061-1.813-0.076-2.72c0.876,0.016,1.753,0.037,2.626,0.059C92.426,76.114,91.578,76.999,90.728,77.888z"/>
<path fill="#2A2723" d="M84.418,81.043c0.024-0.998,0.054-1.996,0.086-2.994c0.366-0.695,0.732-1.395,1.099-2.09c0.483,0.622,0.967,1.242,1.451,1.864c0,0,0.787,0.854,0.79,0.857C86.702,79.468,85.562,80.256,84.418,81.043z"/>
<path fill="#945B43" d="M75.393,15.689c-1.193-0.83-2.387-1.66-3.583-2.49C73.003,14.029,74.198,14.859,75.393,15.689z"/>
<path fill="#423E37" d="M46.705,93.659c0.076,0.952,0.149,1.907,0.223,2.859c-1.079-0.833-2.159-1.667-3.238-2.497l0.008-0.118c0.444-0.748,0.886-1.496,1.331-2.246C45.586,92.325,46.146,92.99,46.705,93.659z"/>
<path fill="#A85C3D" d="M78.213,22.018c-1.318,2.82-2.636,5.637-3.952,8.457c-0.623,4.471-3.366,5.365-7.265,4.312c-2.565-2.136-4.398-5.13-7.614-6.503c-0.014-1.056-0.027-2.115-0.041-3.171c-0.087-0.662-0.175-1.324-0.263-1.987c0.514-2.011,1.878-3.494,3.122-5.054c1.354-0.522,2.512-0.244,3.476,0.839C69.856,19.95,74.033,20.984,78.213,22.018z"/>
<path fill="#B75C3B" d="M59.341,25.113c-5.194-2.078-10.387-4.153-15.58-6.229c4.181-2.277,8.351-2.377,12.509,0.064l-0.073-0.006c1.983,1.611,5.51,2.441,3.139,6.241L59.341,25.113z"/>
<path fill="#92583F" d="M32.16,34.396c3.915,1.032,7.831,2.063,11.746,3.098c0.106,0.8,0.215,1.599,0.323,2.396c-0.172,1.682-0.934,3.031-2.283,4.047c-4.377,2.112-7.498-0.836-10.879-2.704c-1.117-1.107-1.797-2.438-1.962-4.013C29.52,35.63,30.538,34.686,32.16,34.396z"/>
<path fill="#945B43" d="M65.473,31.309c2.932-0.275,5.862-0.55,8.791-0.827c-0.003-0.006,0.972,1.178,0.972,1.178c0.445,0.549,0.892,1.102,1.338,1.651c0.53,1.367,0.522,2.719-0.106,4.056c-1.517,1.578-3.584,2.139-5.504,2.969c-1.272,0.562-2.586,1.019-3.928,1.389c-1.41,0.107-2.724-0.205-3.937-0.931c-0.871-1.126-1.247-2.411-1.193-3.827c0.238-1.789,0.478-3.574,0.716-5.362C63.428,30.124,64.371,29.956,65.473,31.309z"/>
<path fill="#A05B3B" d="M56.271,18.949c-4.171-0.021-8.341-0.042-12.509-0.064C47.93,18.906,52.1,18.927,56.271,18.949z"/>
<path fill="#A15B3B" d="M59.336,25.184c-1.045-2.082-2.092-4.16-3.139-6.241c1.082-0.015,2.163-0.033,3.245-0.049c1.036-1.346,2.048-1.266,3.037,0.052C61.433,21.024,60.384,23.105,59.336,25.184z"/>
<path fill="#AF5C3A" d="M62.48,18.946c-1.012-0.021-2.025-0.04-3.038-0.052c2.079,0.006,4.156,0.013,6.234,0.019C64.61,18.924,63.546,18.934,62.48,18.946z"/>
<path fill="#99553C" d="M25.223,28.043c1.97,1.184,3.938,2.368,5.908,3.549c-1.695,1.709-3.585,2.707-6.04,1.675c-1.161-1.153-1.431-2.509-0.935-4.043C24.511,28.827,24.866,28.434,25.223,28.043z"/>
<path fill="#92583F" d="M55.543,39.881c2.123-0.968,4.246-1.938,6.365-2.912c-0.003-0.003,0.787,0.937,0.787,0.937c1.063,1.114,1.542,2.451,1.516,3.977c-0.668,1.367-1.69,2.356-3.114,2.911c-1.497,0.149-2.905-0.144-4.219-0.876C55.919,42.743,55.474,41.397,55.543,39.881z"/>
<path fill="#92583F" d="M43.906,37.494c2.188,0.906,4.376,1.816,6.564,2.726c-0.031,1.468-0.553,2.731-1.565,3.79c-1.32,0.629-2.689,0.76-4.105,0.396c-1.224-0.827-1.959-1.968-2.205-3.424c0.112-0.702,0.225-1.404,0.336-2.105C43.254,38.413,43.58,37.952,43.906,37.494z"/>
<path fill="#714D3E" d="M24.982,31.431c2.051,0.055,4.102,0.106,6.15,0.162c0.29,0.952,0.629,1.889,1.021,2.804c0.006,0-1.499,0.363-1.499,0.363c-1.666,2.524-3.755,2.524-6.096,1.025C23.626,34.229,23.766,32.779,24.982,31.431z"/>
<path fill="#AF5C3A" d="M65.473,31.309c-0.95,0.098-1.902,0.195-2.854,0.293c-1.078-1.102-2.159-2.21-3.237-3.317C61.412,29.294,63.442,30.301,65.473,31.309z"/>
<path fill="#92583F" d="M50.471,40.22c1.692-0.11,3.386-0.22,5.075-0.333c-0.003-0.006,0.863,1.142,0.863,1.142c1.544,2.777,0.415,4.636-2.073,6.024c-1.725,0.324-3.285-0.045-4.682-1.111c-1.102-1.498-1.134-3.021-0.095-4.565L50.471,40.22z"/>
<path fill="#4D453D" d="M24.982,31.431c0.067,0.958,0.154,1.916,0.261,2.872c-0.307,1.526-1.154,2.64-2.541,3.341c-0.742,0.021-1.483,0.043-2.223,0.067c-1.378-0.632-2.419-1.624-3.119-2.966c-1.042-2.2-1.071-4.202,1.131-5.765c1.891,0.079,3.779,0.159,5.667,0.241C24.382,29.977,24.657,30.713,24.982,31.431z"/>
<path fill="#37332E" d="M18.491,28.98c0.065,1.834,0.131,3.665,0.195,5.499c-0.981,1.306-2,1.401-3.06,0.092l-0.024-0.034c-1.794-1.373-1.507-3.293-1.361-5.176c0.485-0.412,0.972-0.821,1.457-1.233C16.689,28.22,17.62,28.504,18.491,28.98z"/>
<path fill="#55473E" d="M12.315,28.363c-0.144-0.854-0.23-1.712-0.258-2.576c1.211,0.781,2.424,1.563,3.641,2.341c0.001,0,0.163,0.589,0.163,0.589C14.474,30.649,13.291,30.53,12.315,28.363z"/>
<path fill="#33302B" d="M80.94,30.927c2.078-1.166,4.156-2.332,6.233-3.497c2.315,1.19,1.775,3.387,1.889,5.35c0.008,1.358-0.03,2.719-0.113,4.077c-1.129,3.095-3.424,5.823-2.995,9.415c-0.029,1.312-0.103,2.627-0.212,3.937c-0.246,1.306-0.806,2.46-1.679,3.464c-0.939,0.903-1.863,1.824-2.772,2.762l-0.078-0.027c-1.471,1.376-3.123,1.647-4.962,0.817c-4.517-6.698-3.412-13.647-0.898-20.657c0.819-1.62,1.709-3.201,2.673-4.736c0.882-0.339,1.79-0.58,2.723-0.723L80.94,30.927z"/>
<path fill="#2B2925" d="M87.525,34.549c-0.116-2.371-0.234-4.743-0.352-7.117c1.096-0.693,2.191-1.382,3.284-2.069c0.084,3.052,0.169,6.104,0.258,9.155c0.001,0-0.16,0.024-0.16,0.024C89.551,36.817,88.541,36.82,87.525,34.549z"/>
<path fill="#2A2824" d="M78.024,31.83c0.034,0.903,0.056,1.813,0.063,2.719c-1.196,1.224-2.279,1.132-3.25-0.281c0.111-0.876,0.243-1.746,0.397-2.612C76.176,31.553,77.105,31.61,78.024,31.83z"/>
<path fill="#3C3832" d="M15.996,59.296c-0.111,4.27-0.223,8.536-0.334,12.802c-1.126-1.224-2.254-2.447-3.38-3.671c-0.913-1.083-1.378-2.322-1.332-3.747c-0.015-2.075-0.012-4.15-0.012-6.226c0.252-2.683-0.78-5.598,1.433-7.926c0.994-1.12,1.987-2.24,2.979-3.363c0.836,0.287,1.672,0.574,2.507,0.86C21.078,52.417,20.412,56.168,15.996,59.296z"/>
<path fill="#4D453D" d="M15.627,34.571c1.021-0.019,2.04-0.049,3.061-0.092c-0.001,0,0.557,0.455,0.557,0.455c2.145,2.344,5.803,3.174,6.747,6.729c0.244,1.657,0.13,3.284-0.34,4.892c-1.214,2.506-3.177,3.711-5.981,3.47c-1.51-0.771-2.85-1.77-4.022-2.993c0,0-0.293,0.131-0.296,0.134C15.442,42.966,15.534,38.77,15.627,34.571z"/>
<path fill="#565149" d="M12.371,50.528c-0.012,2.917-0.026,5.832-0.038,8.746c-0.483,0.791-0.969,1.581-1.453,2.371c-0.452-0.809-0.905-1.617-1.356-2.429c-0.096-0.931-0.226-1.858-0.388-2.78C10.213,54.468,11.292,52.5,12.371,50.528z"/>
<path fill="#4D453D" d="M12.315,28.363c1.181,0.116,2.36,0.229,3.543,0.351c-0.083,1.944-0.169,3.882-0.255,5.823c-0.987-0.034-1.973-0.064-2.957-0.095C12.537,32.413,12.426,30.39,12.315,28.363z"/>
<path fill="#312F2A" d="M53.342,84.678c-1.063-2.151-2.127-4.303-3.19-6.455c-0.825-0.28-1.65-0.564-2.478-0.848c-2.063-2.051-2.166-4.685-2.188-7.346c0.07-2.734,0.6-5.283,2.897-7.104c1.673-0.803,3.388-0.903,5.141-0.309c4.705,2.887,1.741,8.212,3.787,11.941c0.477,3.366,1.332,6.772-0.99,9.86l-0.223,0.171C55.218,85.788,54.301,85.818,53.342,84.678z"/>
<path fill="#534E46" d="M50.151,78.223c-1.097,3.141-2.195,6.284-3.294,9.424c-0.487-0.552-0.975-1.107-1.463-1.66c0.357-2.805-1.625-5.713,0.378-8.44c1.503-0.65,2.724-0.306,3.662,1.037L50.151,78.223z"/>
<path fill="#383530" d="M53.342,84.678c0.921-0.043,1.841-0.073,2.758-0.092c0.065,1.037,0.123,2.075,0.174,3.116C55.297,86.694,54.32,85.687,53.342,84.678z"/>
<path fill="#544F48" d="M43.801,91.254c-0.015-1.221-0.032-2.444-0.047-3.665c1.117-1.364,2.171-1.254,3.171,0.138l-0.065-0.08c-0.019,1.053-0.034,2.104-0.052,3.156c-0.001,0,0.103-0.129,0.103-0.129C46.099,92.078,45.052,92.215,43.801,91.254z"/>
<path fill="#38342F" d="M56.216,87.625c1.023,1.002,2.047,2.002,3.069,3C58.262,89.624,57.237,88.627,56.216,87.625z"/>
<path fill="#423F38" d="M9.523,59.217c0.936,0.079,1.874,0.101,2.811,0.061c-0.026,2.271-0.052,4.541-0.078,6.814c-0.836,0.953-1.689,1.017-2.562,0.046C9.638,63.831,9.58,61.523,9.523,59.217z"/>
<path fill="#514C45" d="M15.562,75.333c-0.777,0.787-1.554,1.575-2.327,2.359C14.013,76.901,14.786,76.117,15.562,75.333z"/>
<path fill="#524D46" d="M9.694,66.138c0.854-0.061,1.71-0.079,2.563-0.049c0.015,0.781,0.024,1.563,0.026,2.341C11.42,67.664,10.557,66.901,9.694,66.138z"/>
<path fill="#2E2B27" d="M53.103,65.775c-0.984-0.007-1.97-0.016-2.954-0.025c-1.561-0.033-2.849-0.644-3.862-1.824c-1.131-2.786-0.916-5.71-0.865-8.604c0.098-1.376,0.447-2.7,1.035-3.948c0.455-0.479,0.918-0.977,1.368-1.462c1.136-0.662,2.375-1.053,3.68-1.206c1.265-0.079,2.542-0.183,3.809-0.302c1.229-0.266,2.418-0.678,3.552-1.239c0.559-0.287,1.12-0.573,1.682-0.857c0.557-0.296,1.114-0.589,1.671-0.885c2.623-1.132,3.213-3.784,4.455-5.96c0.666-1.151,1.567-2.066,2.685-2.78c1.332-0.309,2.591-0.134,3.788,0.521c2.78,2.521,1.307,6.406,2.985,9.277c0.51,1.947,0.439,3.931,0.348,5.911c-0.519,1.887-1.226,3.724-1.571,5.655c-0.696,1.88-1.971,3.287-3.603,4.397c-1.244,0.342-2.509,0.455-3.795,0.336c-0.64-0.021-1.28-0.04-1.92-0.062c-1.003,2.036-2.004,4.068-3.005,6.104c-1.051,0.024-2.103,0.052-3.153,0.077c-1.743,0.313-2.875-0.485-3.626-1.981C55.08,66.123,54.179,65.741,53.103,65.775z"/>
<path fill="#3A3731" d="M62.519,81.396c-0.008-4.168-0.014-8.337-0.021-12.506c1.025,4.166,2.051,8.331,3.076,12.497c-0.506,0.72-1.013,1.44-1.52,2.164C63.541,82.834,63.03,82.114,62.519,81.396z"/>
<path fill="#2D2A25" d="M68.789,72.083c-0.011-2.103-0.021-4.205-0.032-6.308c0.622-0.409,1.245-0.821,1.87-1.23c1.543,0.149,2.813,0.806,3.77,2.042c0.879,2.456-0.275,4.33-1.743,6.112C71.202,73.505,69.905,73.352,68.789,72.083z"/>
<path fill="#33302C" d="M62.519,81.396c1.02,0.01,2.04,0.007,3.058-0.009c0.015,2.091,0.031,4.184,0.049,6.274c-1.04,0-2.079-0.003-3.118-0.012C62.511,85.565,62.515,83.481,62.519,81.396z"/>
<path fill="#38342F" d="M68.789,72.083c0.958,0.04,1.914,0.106,2.868,0.198c0.977,0.659,1.282,1.291,0.923,1.893c-0.349,0.586-0.695,0.882-1.042,0.882c-0.915,0.036-1.832,0.061-2.748,0.069C68.776,74.109,68.775,73.096,68.789,72.083z"/>
<path fill="#2E2B27" d="M68.757,65.775c-1.056-1.02-2.112-2.039-3.168-3.056l0.128-0.109c1.163-1.139,2.462-1.321,3.896-0.553c0.696,1.478,0.455,2.737-0.877,3.738L68.757,65.775z"/>
<path fill="#554F47" d="M21.63,74.649c-0.946-3.995-1.891-7.989-2.837-11.984c1.438-1.202,3.017-1.435,4.738-0.698c3.104,2.63,3.053,5.841,1.713,9.289c-0.987,1.4-2.087,2.707-3.302,3.918L21.63,74.649z"/>
<path fill="#544F47" d="M15.648,47.031c1.097-0.024,2.194-0.046,3.291-0.07c2.086,1.251,3.948,2.683,4.276,5.341c0.034,2.432-0.24,4.764-2.173,6.543c-0.763,0.229-1.526,0.46-2.289,0.689c-0.923-0.067-1.845-0.144-2.76-0.235C15.88,55.21,15.764,51.12,15.648,47.031z"/>
<path fill="#544F47" d="M21.7,62.595c-0.971,0.027-1.941,0.049-2.909,0.07c-0.012-1.044-0.024-2.087-0.038-3.131L18.7,59.589c0.986-1.093,2.101-1.248,3.345-0.47c0.246,0.607,0.493,1.221,0.738,1.828C22.422,61.496,22.062,62.046,21.7,62.595z"/>
<path fill="#33302B" d="M31.11,78.201c-1.009-1.031-2.018-2.063-3.027-3.094c-1.343-1.361-1.882-2.991-1.611-4.886c1.747-2.939,4.033-3.22,6.752-1.367C36.045,72.769,33.965,75.574,31.11,78.201z"/>
<path fill="#3D3933" d="M31.11,78.201c0.047-3.109,0.096-6.219,0.143-9.329c0.595-0.549,1.19-1.099,1.787-1.647c1.704-0.299,3.183,0.149,4.436,1.346c0.842,1.44,1.231,2.994,1.167,4.66c-0.333,2.701-1.755,4.438-4.456,5.048C33.163,78.26,32.136,78.235,31.11,78.201z"/>
<path fill="#534E47" d="M34.188,78.278c0.136-2.066,0.271-4.133,0.407-6.198c0.659-0.494,1.32-0.989,1.98-1.483c1.773,0,3.165,0.727,4.18,2.179c1.451,3.854-0.974,6.207-3.324,8.591c-0.99-0.024-1.98-0.049-2.969-0.073C34.386,80.286,34.293,79.279,34.188,78.278z"/>
<path fill="#33302B" d="M21.942,75.174c0.051-1.034,0.131-2.065,0.246-3.097c1.001-1.057,2.104-1.179,3.311-0.36c0.696,1.267,0.496,2.408-0.472,3.442C24,75.168,22.971,75.174,21.942,75.174z"/>
<path fill="#524C45" d="M25.028,75.159c-0.029-1.05-0.058-2.1-0.087-3.149c0.513-0.382,1.025-0.763,1.538-1.147c0.459,0.445,0.917,0.894,1.375,1.34c0.107,0.967,0.185,1.938,0.232,2.908C27.065,75.15,26.047,75.168,25.028,75.159z"/>
<path fill="#514C44" d="M31.276,84.537c-0.891-0.082-1.781-0.177-2.666-0.287C29.528,84.106,30.414,84.201,31.276,84.537z"/>
<path fill="#3A3631" d="M46.924,87.727c-1.056-0.046-2.113-0.089-3.171-0.135c0-0.003,0.066,0.156,0.066,0.156c-0.788-0.577-1.081-1.19-0.879-1.841c0.206-0.668,0.429-1.001,0.671-1.001c0.017-1.196,0.035-2.396,0.052-3.592c-1.846-1.972-2.736-4.12-1.26-6.717c1.448-1.117,3.012-1.318,4.696-0.607c1.253,1.486,1.253,2.97,0,4.455C47.042,81.54,46.984,84.632,46.924,87.727z"/>
<path fill="#48443D" d="M37.432,81.366c0.054-3.122,0.107-6.244,0.16-9.366c1.483-1.141,2.932-1.098,4.344,0.132c0.62,3.231,0.972,6.427-1.278,9.262C39.582,81.385,38.508,81.375,37.432,81.366z"/>
<path fill="#544F48" d="M40.658,81.393c0.033-3.098,0.068-6.194,0.102-9.292c1.086-1.068,2.325-1.291,3.719-0.669c0.775,1.328,0.682,2.558-0.409,3.675c-0.133,2.072-0.267,4.145-0.403,6.21C42.661,81.36,41.66,81.385,40.658,81.393z"/>
<path fill="#504B44" d="M34.392,87.553c0.011-0.946,0.023-1.896,0.035-2.842C34.633,85.663,34.621,86.609,34.392,87.553z"/>
<path fill="#514C44" d="M43.612,84.906c0.082,0.946,0.151,1.893,0.209,2.838C43.592,86.81,43.522,85.864,43.612,84.906z"/>
<path fill="#2D2A26" d="M43.801,91.254c1.036-0.192,2.072-0.385,3.108-0.576c-0.069,0.994-0.134,1.989-0.202,2.984c-1.005,0.073-2.008,0.155-3.01,0.241C43.749,93.021,43.784,92.139,43.801,91.254z"/>
<path fill="#282521" d="M71.538,75.056c0.062-0.925,0.103-1.853,0.122-2.777c0.07-2.161,0.143-4.324,0.214-6.488c-0.002-0.613-0.003-1.229-0.005-1.843c-0.063-1.85-0.009-3.687,0.606-5.46c0.822-1.627,0.993-3.564,2.378-4.916c0.015-2.274,0.029-4.548,0.043-6.821c-2.279-2.505-1.169-5.612-1.504-8.462c-0.127-1.541,0.354-2.862,1.44-3.964c0,0,0.003-0.055,0.004-0.055c1.085,0.092,2.169,0.186,3.252,0.281c0.029,7.293,0.06,14.587,0.089,21.881c1.959,1.886,1.434,4.333,1.51,6.646c-0.416,3,1.145,6.378-1.704,8.911C75.835,73.011,73.687,74.033,71.538,75.056z"/>
<path fill="#3A3631" d="M77.983,71.988c0.072-3.104,0.146-6.207,0.219-9.311c0.5-0.718,1.001-1.438,1.501-2.155c0.504,0.715,1.007,1.432,1.513,2.148c-0.063,4.025-0.126,8.054-0.191,12.076C80.01,73.825,78.997,72.907,77.983,71.988z"/>
<path fill="#37342E" d="M81.116,78.599c-0.098,0.711-0.204,1.422-0.32,2.124C80.794,79.993,80.901,79.288,81.116,78.599z"/>
<path fill="#25221F" d="M56.146,62.705c1.094,2.065,2.188,4.132,3.283,6.195c-1.036,5.176-2.072,10.348-3.108,15.518c-0.05-3.141-0.101-6.277-0.15-9.418C53.927,70.905,53.977,66.807,56.146,62.705z"/>
<path fill="#37342E" d="M81.25,50.162c0.013-1.056,0.023-2.108,0.035-3.162c1.898-2.334,2.992-6.735,7.317-2.854c0.722,5.023,0.682,10.046,0.025,15.073c-1.28,1.614-2.68,1.725-4.194,0.333c-0.026-1.047-0.051-2.091-0.075-3.135c-1.029-0.766-1.549-1.788-1.556-3.073C82.663,52.1,82.147,51.038,81.25,50.162z"/>
<path fill="#3A3732" d="M84.434,59.553c0.99-0.004,1.982,0,2.973,0.009c2.641,2.683,1.666,5.762,0.966,8.808c-1.165,1.443-2.489,1.608-3.976,0.494C84.409,65.76,84.421,62.656,84.434,59.553z"/>
<path fill="#37342E" d="M81.216,62.671l-1.511-0.003c0,0-1.513,0.01-1.508,0.01c-0.006-2.082-0.016-4.166-0.021-6.247c1.015-0.01,2.028-0.019,3.04-0.024C81.214,58.493,81.214,60.581,81.216,62.671z"/>
<path fill="#38342F" d="M87.054,77.823c-0.849,0.113-1.698,0.189-2.552,0.229c-0.033-1.989-0.068-3.979-0.102-5.966c1.086-0.934,2.244-1.031,3.474-0.296c0.859,1.199,0.718,2.31-0.296,3.345C87.423,76.035,87.247,76.929,87.054,77.823z"/>
<path fill="#2A2724" d="M84.391,53.287c-0.011,1.044-0.021,2.088-0.032,3.131c-1.023,0-2.046,0.003-3.068,0.013c-0.003-1.047-0.008-2.094-0.011-3.144C82.317,52.06,83.354,52.06,84.391,53.287z"/>
<path fill="#2A2723" d="M87.554,72.025c-1.051,0.018-2.104,0.039-3.155,0.058c0-1.071-0.002-2.143-0.002-3.217c1.052,0.024,2.104,0.052,3.154,0.079c0,0,1.297,0.781,1.299,0.778c0.003,0,0.003,1.517,0.004,1.521C88.856,71.244,87.554,72.025,87.554,72.025z"/>
<path fill="#282522" d="M87.551,68.945c-0.047-3.131-0.095-6.259-0.144-9.384c-0.104-5.185-0.204-10.367-0.307-15.549c-2.089-2.124-1.658-4.166,0.195-6.165c0.076-1.099,0.151-2.2,0.229-3.299c1.011-0.006,2.022-0.006,3.031-0.006c0.037,2.06,0.075,4.123,0.113,6.183c-0.006,3.159-0.013,6.317-0.019,9.476c0.026,2.09,0.049,4.181,0.076,6.271c-0.039,4.15-0.081,8.295-0.123,12.442c0,0.003,0.021-0.003,0.021-0.003c-0.521,0.711-1.043,1.419-1.565,2.13c-0.52-0.711-1.04-1.422-1.561-2.133L87.551,68.945z"/>
<path fill="#25231F" d="M87.578,75.135c-0.025-1.038-0.035-2.072-0.024-3.109l-0.055,0.015c1.037-1.459,2.08-1.389,3.125-0.009c-0.008,1.037-0.021,2.078-0.044,3.115C89.579,75.146,88.579,75.141,87.578,75.135z"/>
<path fill="#3A3631" d="M90.624,72.031c-1.041,0.006-2.083,0.006-3.124,0.009c-0.001-1.044,0-2.084-0.001-3.128c1.042-0.003,2.084,0,3.126,0C90.622,69.949,90.622,70.99,90.624,72.031z"/>
<path fill="#47433C" d="M43.544,72.178c-0.929-0.024-1.858-0.049-2.786-0.076c-1.054-0.034-2.112-0.067-3.168-0.102c0.001,0-0.128,0.064-0.128,0.064c-1.5-1.532-2.014-3.879-4.083-4.943c-1.221-0.83-2.235-1.859-3.048-3.092c-1.114-7.294-1.645-14.664-3.044-21.921c0.119-1.544,0.769-2.829,1.877-3.894c0.705-0.25,1.408-0.5,2.113-0.75c2.973,0.982,5.943,1.965,8.916,2.945c1.259-1.041,2.243-0.879,2.907,0.668l0.519,0.427c2.573,0.659,4.323,2.334,5.638,4.541c0.661,1.938-0.006,3.482-1.432,4.794c-0.714,0.934-1.341,1.932-1.89,2.976c-0.146,0.567-0.294,1.138-0.442,1.709c-0.043,0.586-0.085,1.175-0.128,1.764c-0.042,1.804-0.04,3.601,0.011,5.404c-0.006,2.493,1.379,4.782,1.044,7.321C45.8,71.188,44.841,71.909,43.544,72.178z"/>
<path fill="#3C3832" d="M21.599,34.537c1.212-0.076,2.425-0.152,3.641-0.232c1.808,0.149,3.613,0.302,5.417,0.455c0.264,0.891,0.472,1.794,0.62,2.707c0-0.003-0.107,0.131-0.107,0.131c-0.911,0.998-1.858,1.962-2.841,2.89c-1.313,0.485-2.617,0.47-3.917-0.049c-1.135-0.751-2.243-1.538-3.325-2.362C20.335,36.762,20.548,35.59,21.599,34.537z"/>
<path fill="#534D46" d="M43.099,41.077c-0.974-0.195-1.941-0.415-2.904-0.666c0.911-0.516,1.825-1.028,2.737-1.538C43.01,39.609,43.067,40.342,43.099,41.077z"/>
<path fill="#2A2824" d="M74.833,34.323c0.038,1.151,0.074,2.298,0.111,3.449c-0.502,0.677-1.006,1.352-1.508,2.029c-0.483-0.689-0.966-1.382-1.449-2.072c-1.047-0.028-2.094-0.058-3.14-0.086c-0.519-0.464-1.037-0.931-1.558-1.395c0.445-0.534,0.893-1.071,1.339-1.605C70.696,34.537,72.765,34.43,74.833,34.323z"/>
<path fill="#2F2C27" d="M68.848,37.643c-0.052,1.093-0.104,2.188-0.155,3.281c-0.969,1.022-2.122,1.74-3.489,2.103c-1.447-0.269-2.451-1.081-3.013-2.441c0.157-0.897,0.325-1.792,0.505-2.68c1.148-0.421,2.295-0.845,3.441-1.27l1.199-0.36l0.895,0.876L68.848,37.643z"/>
<path fill="#92583F" d="M68.231,37.152c-0.722-0.079-1.424-0.25-2.099-0.513c0.838-0.668,1.67-1.333,2.5-1.999C68.454,35.474,68.321,36.31,68.231,37.152z"/>
<path fill="#2D2A26" d="M59.396,53.278c-1.046,0.003-2.091,0.006-3.136,0.006c-0.529,0.708-1.058,1.416-1.586,2.124c-0.524-0.708-1.051-1.419-1.576-2.13l0.045,0.039c-3.067-2.917-3.289-5.905-0.222-8.975c1.163-1.104,2.325-2.212,3.488-3.317c0.93-0.062,1.848,0.015,2.753,0.235c1.234,1.025,2.323,2.185,3.27,3.482C63.483,48.322,61.66,50.879,59.396,53.278z"/>
<path fill="#393530" d="M59.371,44.053c-0.057-0.931-0.125-1.865-0.206-2.792c0.99-0.296,1.999-0.519,3.024-0.671c1.229,0.07,2.456,0.14,3.685,0.21c1.711,1.785,1.32,3.897,0.938,6.009c-0.947,1.108-2.139,1.8-3.572,2.076C61.088,47.968,60.845,45.518,59.371,44.053z"/>
<path fill="#544F47" d="M46.698,47.309c-1.027-1.938-2.052-3.873-3.079-5.808c1.98-0.042,3.961-0.085,5.941-0.128c0.444,0.842,0.848,1.703,1.204,2.585c0.997,3.192,1.461,6.359-0.448,9.411l-0.885-0.399c-1.073,1.343-2.335,1.55-3.783,0.622C44.338,51.221,45.391,49.243,46.698,47.309z"/>
<path fill="#24221F" d="M50.316,53.369c0.144-3.134,0.288-6.271,0.439-9.411c0.751,0,1.471,0.131,2.167,0.384c0.071,2.991,0.145,5.985,0.22,8.975C52.201,53.336,51.258,53.354,50.316,53.369z"/>
<path fill="#565048" d="M21.599,34.537c0.122,1.053,0.244,2.105,0.366,3.155c0.875,0.742,1.134,1.438,0.777,2.091c-0.342,0.628-0.674,0.943-0.997,0.943c-0.836-1.935-1.674-3.867-2.505-5.798C20.029,34.796,20.814,34.665,21.599,34.537z"/>
<path fill="#393631" d="M87.296,37.848c-0.063,2.054-0.125,4.108-0.192,6.162c-1.942,0.998-3.88,1.996-5.818,2.991C83.289,43.949,85.293,40.9,87.296,37.848z"/>
<path fill="#2A2824" d="M84.391,53.287c-1.037,0-2.075,0-3.112,0c-0.01-1.041-0.019-2.084-0.028-3.125C82.297,51.203,83.344,52.246,84.391,53.287z"/>
<path fill="#3A3731" d="M80.94,30.927c0,0-0.188,0.18-0.189,0.18C80.747,31.107,80.94,30.927,80.94,30.927z"/>
<path fill="#444039" d="M18.919,53.498c0.006-2.18,0.011-4.355,0.018-6.534c1.006-1.053,2.008-2.1,3.012-3.149c0.916-1.013,2.017-1.746,3.305-2.194c2.121,0.208,3.642,1.572,5.269,2.731c0.96,0.952,1.674,2.066,2.143,3.332c0.206,2.662,0.19,5.322,0.026,7.98c-0.438,1.248-1.036,2.417-1.792,3.504c-1.587,1.504-3.425,1.59-5.391,0.946c-1.128-0.61-2.229-1.276-3.294-1.993C20.603,56.949,20.156,54.941,18.919,53.498z"/>
<path fill="#34312C" d="M24.975,43.866c-1.012,0.006-2.022-0.009-3.029-0.049c-0.044-1.031-0.108-2.06-0.195-3.088c0.075-1.013,0.146-2.026,0.212-3.037c1.036-0.021,2.071-0.03,3.105-0.03C26.987,39.759,27.267,41.831,24.975,43.866z"/>
<path fill="#393631" d="M56.146,62.705c0.007,4.099,0.017,8.2,0.024,12.299c-1.022-3.076-2.043-6.152-3.065-9.229C54.117,64.753,55.131,63.727,56.146,62.705z"/>
<path fill="#423E38" d="M49.648,62.553c0.164,1.067,0.329,2.133,0.497,3.197c-0.122,2.125-0.247,4.252-0.372,6.376c-1.486,1.275-2.838,1.147-4.061-0.385c-0.347-3.119-2.69-6.144-0.423-9.381C46.798,61.216,48.249,61.283,49.648,62.553z"/>
<path fill="#48443E" d="M46.938,72.07c0.946,0.016,1.892,0.034,2.836,0.056c-0.112,2.151-0.224,4.303-0.337,6.454c-0.781-0.058-1.561-0.104-2.339-0.138c-0.122-1.107-0.244-2.215-0.368-3.323c-0.978-0.747-1.272-1.449-0.887-2.103C46.216,72.388,46.58,72.07,46.938,72.07z"/>
<path fill="#393530" d="M71.987,37.729c0.985-0.003,1.973,0.009,2.957,0.042c-0.016,2.994-0.031,5.991-0.046,8.981C73.926,43.744,72.957,40.735,71.987,37.729z"/>
<path fill="#25231F" d="M65.41,46.973c0.152-2.057,0.306-4.114,0.461-6.174c0.941,0.049,1.883,0.088,2.821,0.125c-0.981,3.046-1.962,6.091-2.943,9.137c-0.984-0.586-1.362-1.239-1.135-1.959C64.852,47.352,65.116,46.973,65.41,46.973z"/>
<path fill="#25221F" d="M59.371,44.053c1.1,0.977,2.201,1.953,3.302,2.933c1.735,2.182,1.777,4.278-0.317,6.269c-0.987,0.009-1.973,0.018-2.96,0.024C59.388,50.202,59.379,47.129,59.371,44.053z"/>
<path fill="#35322D" d="M62.356,53.254c0.105-2.091,0.209-4.178,0.316-6.269c0.915,0.003,1.829,0,2.74-0.009c0.111,1.029,0.223,2.057,0.336,3.085C64.617,51.127,63.486,52.188,62.356,53.254z"/>
<path fill="#48443D" d="M49.648,62.553c-0.881,0.018-1.762,0.033-2.64,0.049c-3.078-0.922-3.804-3.244-3.627-6.101c0.642-1.755,1.865-2.875,3.668-3.36c0.796-0.049,1.591-0.106,2.385-0.171C49.503,56.165,49.576,59.36,49.648,62.553z"/>
<path fill="#262320" d="M68.735,65.796c-0.03-1.08-0.062-2.16-0.092-3.24c-0.884-0.65-1.172-1.298-0.868-1.936c0.301-0.635,0.602-0.952,0.902-0.952c1.002-1.056,2.005-2.114,3.007-3.17c1.245,0.823,1.792,1.995,1.738,3.47c0.003,2.081,0.166,4.202-1.552,5.825l0.003-0.003C70.827,65.793,69.782,65.793,68.735,65.796z"/>
<path fill="#38342F" d="M71.914,59.473c-0.064-0.991-0.14-1.986-0.227-2.979c1.055-0.977,2.112-1.953,3.168-2.926c0.03,1.946,0.062,3.891,0.093,5.834c-0.488,0.758-0.978,1.511-1.466,2.265C72.959,60.935,72.438,60.205,71.914,59.473z"/>
<path fill="#262320" d="M53.098,53.278c1.053,0.003,2.107,0.006,3.162,0.006C55.205,53.284,54.15,53.281,53.098,53.278z"/>
<path fill="#383530" d="M68.678,59.668c0.007,0.965-0.002,1.929-0.032,2.891c-0.979,0.027-1.955,0.046-2.932,0.052C66.703,61.631,67.69,60.648,68.678,59.668z"/>
<path fill="#36332E" d="M24.941,72.01c-0.921,0.021-1.843,0.046-2.759,0.067c-0.154-3.159-0.314-6.32-0.479-9.479c-0.003-0.003,0.758,0.278,0.758,0.278c1.476-1.304,2.953-1.304,4.431-0.003c2.103,3.601-0.063,6.405-1.738,9.305L24.941,72.01z"/>
<path fill="#3B3731" d="M18.919,53.498c1.033,1.025,2.067,2.051,3.101,3.079c0.419,0.491,0.837,0.985,1.256,1.479c-0.438,0.477-0.876,0.955-1.314,1.432c-1.086,0.033-2.173,0.064-3.259,0.098C18.773,57.557,18.845,55.527,18.919,53.498z"/>
<path fill="#393530" d="M24.973,62.659c-0.839,0.063-1.679,0.138-2.515,0.214c-0.165-1.127-0.331-2.256-0.498-3.385l-0.134,0.162c0.862-1.123,1.835-2.14,2.938-3.031c1.221,0.025,2.44,0.046,3.661,0.07c1.811,1.99,2.467,4.126,0.837,6.556C27.666,64.258,26.238,64.062,24.973,62.659z"/>
<path fill="#413D37" d="M24.973,62.659c1.095-0.006,2.189-0.013,3.284-0.016c0.911-1.181,2.063-1.587,3.497-1.089c0.714,1.202,1.067,2.508,1.106,3.902c0.096,1.456-0.45,2.609-1.639,3.461l0.032-0.046c-1.13,1.108-2.261,2.216-3.395,3.327c-0.004,0.003-1.356-0.031-1.356-0.031s-1.352,0.004-1.349,0.007C25.095,69.004,25.034,65.83,24.973,62.659z"/>
<path fill="#514B44" d="M34.563,65.744c0.968,2.109,1.934,4.215,2.899,6.32c-0.957,0-1.914,0.006-2.869,0.016c-0.134-1.087-0.269-2.173-0.404-3.263c-0.963-0.809-1.227-1.535-0.797-2.176C33.794,66.047,34.183,65.744,34.563,65.744z"/>
<path fill="#33302A" d="M34.563,65.744c-0.121,1.028-0.243,2.051-0.371,3.076c-0.992,0.04-1.98,0.073-2.971,0.098c0.04-1.031,0.079-2.063,0.116-3.091c0.475-0.729,0.948-1.456,1.42-2.186c0.405,0.77,0.809,1.538,1.212,2.308L34.563,65.744z"/>
<path fill="#36322D" d="M46.799,56.458c0.067,2.048,0.136,4.096,0.206,6.144c-0.021,3.155-0.046,6.311-0.067,9.469c-0.063,1.017-0.129,2.033-0.205,3.049c-0.003,0-1.338,0-1.338,0s-1.335-0.009-1.331-0.009c-0.18-0.977-0.354-1.956-0.518-2.933c0.019-1.139,0.04-2.277,0.061-3.415c-2.153-2.609-1.173-6.109-2.537-8.944c-0.164-1.673,0.349-3.102,1.54-4.288C44.243,54.773,45.64,55.082,46.799,56.458z"/>
<path fill="#2A2824" d="M71.914,59.473c1.012-0.003,2.024-0.024,3.034-0.066c-1.025,2.127-2.052,4.257-3.077,6.387C71.885,63.685,71.9,61.579,71.914,59.473z"/>
<path fill="#37332E" d="M33.97,65.949c-0.877-0.053-1.755-0.092-2.632-0.122c-0.09-1.123-0.182-2.246-0.273-3.369c-1.747-1.893-1.639-3.824-0.124-5.786c0.079-3.235,0.16-6.47,0.239-9.702c-1.929-2.081-2.174-4.126,0.127-6.119C32.195,49.219,33.083,57.584,33.97,65.949z"/>
<path fill="#37342E" d="M40.613,62.641c-0.998-4.135-1.998-8.271-2.997-12.405c0.466-0.735,0.931-1.471,1.396-2.206c0.426,0.76,0.852,1.517,1.277,2.276l0.394-0.146c3.166,2.316,1.863,5.441,1.515,8.396C42.253,60.142,41.726,61.502,40.613,62.641z"/>
<path fill="#534D46" d="M31.307,40.851c-0.04,2.042-0.081,4.083-0.124,6.122c-0.989,0.03-1.976,0.055-2.962,0.067c-2.319-3.106-2.409-6.219-0.026-9.341c0.992-0.049,1.983-0.083,2.975-0.101C31.215,38.682,31.261,39.768,31.307,40.851z"/>
<path fill="#3C3833" d="M46.799,56.458l-1.454-0.006l-1.455,0.006c-2.07-2.023-2.096-4.11-0.186-6.253c1-0.968,1.999-1.936,2.996-2.899c0.114,1.947,0.23,3.891,0.348,5.835C46.965,54.245,46.883,55.353,46.799,56.458z"/>
<path fill="#534E46" d="M43.705,50.205c0.061,2.084,0.121,4.168,0.185,6.253c-0.154,0.968-0.299,1.938-0.43,2.911c-0.426,0.757-0.85,1.514-1.275,2.271c-0.426-0.754-0.853-1.511-1.28-2.268c-0.075-3.073-0.148-6.143-0.221-9.213C41.69,50.165,42.698,50.181,43.705,50.205z"/>
<path fill="#48443D" d="M40.903,59.372c0.853,0.016,1.706,0.016,2.557-0.003c0.049,3.131,0.099,6.263,0.148,9.394c-0.998-2.042-1.996-4.083-2.995-6.122C40.71,61.551,40.807,60.462,40.903,59.372z"/>
<path fill="#3D3933" d="M40.29,50.306c-0.892-0.034-1.782-0.058-2.674-0.073C38.508,50.257,39.398,50.281,40.29,50.306z"/>
<path fill="#403C36" d="M28.196,37.699c0.007,3.113,0.015,6.229,0.024,9.341c-1.081-1.056-2.162-2.115-3.246-3.174c0.03-2.069,0.061-4.138,0.091-6.204C26.11,37.674,27.152,37.686,28.196,37.699z"/>
<path fill="#514C44" d="M30.941,56.672c0.042,1.929,0.083,3.857,0.125,5.786c-0.937,0.076-1.874,0.137-2.811,0.186c0.055-1.986,0.11-3.974,0.166-5.957C29.262,56.662,30.102,56.656,30.941,56.672z"/>
<path fill="#524D45" d="M24.764,56.619c-0.98,1.011-1.958,2.021-2.938,3.031c0.049-1.025,0.111-2.055,0.191-3.076C22.935,56.567,23.85,56.583,24.764,56.619z"/>
</svg>