<?xml version="1.0" encoding="utf-8"?>
<!DOCTYPE svg PUBLIC "-//W3C//DTD SVG 1.1//EN" "http://www.w3.org/Graphics/SVG/1.1/DTD/svg11.dtd">
<svg version="1.1" xmlns="http://www.w3.org/2000/svg" xmlns:xlink="http://www.w3.org/1999/xlink" x="0px" y="0px" width="100px" height="100px" viewBox="0 0 100 100" enable-background="new 0 0 100 100" xml:space="preserve">
<path fill="#4F3F27" d="M12.363,79.013c-8.157-13.032-7.986-47.19,0.286-56.788c0.949,0.836,1.956,1.593,3.045,2.271c1.572,1.132,2.727,2.551,3.414,4.306c0.262,0.47,0.426,1.032,0.734,1.48c0.302,0.415,0.459,0.943,0.748,1.386c0.319,0.412,0.505,0.909,0.826,1.343c0.682,0.891,1.059,1.904,1.358,2.981c0.322,1.132,0.33,2.268,0.148,3.421c-0.899,2.823-2.028,5.573-2.608,8.493c-0.48,1.728-0.977,3.448-1.338,5.191c-0.238,1.688-0.358,3.387-0.27,5.087c0.253,1.614,0.646,3.201,1.274,4.728c0.264,0.491,0.487,0.991,0.743,1.492c0.587,0.985,1.117,1.989,1.639,3.018c0.523,1.084,0.885,2.204,1.108,3.382c0.189,1.87,0.179,3.726,0.009,5.594c-0.287,2.018-1.196,3.659-2.835,4.88c-0.606,0.256-1.21,0.51-1.814,0.763c-0.964-0.269-1.935-0.513-2.912-0.729c-0.699-0.503-1.173-1.166-1.423-1.992c-0.001-0.004-0.974-0.781-0.975-0.788C13.517,78.527,12.363,79.013,12.363,79.013z"/>
<path fill="#342919" d="M62.657,90.594c-4.216,2.109-8.431,4.221-12.645,6.33c-0.662-0.965-1.149-2.008-1.461-3.131c-0.185-1.719,0.069-3.415,0.287-5.109c0.167-1.104,0.472-2.179,0.9-3.213c0.267-0.485,0.545-0.971,0.809-1.462c0.562-0.962,1.125-1.926,1.66-2.915c0.746-1.59,1.397-3.207,1.941-4.889c0.969-3.043,1.074-6.516,4.314-8.398c1.361-0.537,2.749-0.674,4.192-0.445c1.378,0.58,2.505,1.462,3.41,2.646c1.72,3.482,1.303,7.208,1.265,10.889c-0.122,2.253-0.807,4.349-1.794,6.357C64.736,88.504,63.776,89.617,62.657,90.594z"/>
<path fill="#4D3E25" d="M44.082,94.092c-8.418-4.02-16.835-8.035-25.253-12.052l0.685-0.83c0.868-0.849,1.762-1.669,2.673-2.469c0.997-0.714,2.105-1.156,3.308-1.37c1.206-0.086,2.409-0.07,3.61,0.067c1.784,0.384,3.421,1.159,5.069,1.91c1.115,0.491,2.229,0.979,3.349,1.468c1.105,0.567,2.199,1.142,3.299,1.721c1.137,0.568,2.244,1.169,3.346,1.804c1.022,0.827,1.8,1.835,2.386,3.003c0.339,1.291,0.363,2.579,0.085,3.879C46.107,92.465,45.235,93.405,44.082,94.092z"/>
<path fill="#1E180E" d="M72.757,87.305c-1.167,0.231-2.336,0.467-3.505,0.701c-1.132,1.233-2.394,1.322-3.768,0.425c-1.287-1.983-1.097-4.227-1.121-6.431c-0.583-4.263,1.387-8.838-1.564-12.813l0.167-0.095c-1.961-1.682-2.124-3.721-1.183-5.976c1.086-1.065,2.377-1.703,3.898-1.85c2.303,0.177,4.145,1.272,5.702,2.905c1.327,1.715,2.036,3.689,2.316,5.823c0.229,1.34,0.458,2.691,0.691,4.037c0.38,2.615,1.288,5.194,0.758,7.901C74.41,83.746,73.636,85.55,72.757,87.305z"/>
<path fill="#9D7D4E" d="M12.781,25.741c-0.044-1.172-0.089-2.344-0.133-3.516c5.307-2.789,10.614-5.579,15.921-8.368c1.061,0.931,1.991,1.974,2.798,3.137c0.522,1.333,0.697,2.716,0.589,4.141c-0.384,1.37-1.054,2.588-1.997,3.65c-1.639,1.364-3.589,2.045-5.632,2.505c-1.97,0.513-3.938,1.074-6.017,0.824C16.367,27.566,14.437,26.971,12.781,25.741z"/>
<path fill="#261E12" d="M85.096,81c-1.063,0.316-2.127,0.635-3.19,0.948c-0.653-0.293-1.307-0.586-1.961-0.882c-1.087-0.964-1.918-2.108-2.457-3.464c-0.298-1.416-0.472-2.844-0.542-4.29c-0.082-3.638-0.128-7.275,0.121-10.91c0.223-2.256,0.941-4.288,2.618-5.894c1.234-0.83,2.601-1.281,4.083-1.373c5.577,1.229,5.225,5.966,5.93,10.062c0.357,1.285,0.659,2.594,0.895,3.903c0.043,1.304-0.13,2.594-0.482,3.849c-0.532,1.159-1.208,2.243-2.021,3.231C87.026,77.74,86.176,79.443,85.096,81z"/>
<path fill="#342919" d="M81.249,74.865c-0.005,1.435-0.01,2.869-0.014,4.303l-0.954,0.904l0.661,1.135c0,0,0.959,0.741,0.961,0.741c-2.171,1.022-4.344,2.045-6.517,3.067c-1.084-1.017-1.748-2.258-1.988-3.723c-0.509-1.361-0.856-2.766-1.063-4.203c0.028-3.567-0.803-7.266,1.599-10.471c1.149-0.934,2.466-1.395,3.944-1.379C81.654,67.519,78.651,72.174,81.249,74.865z"/>
<path fill="#9C814B" d="M54.739,6.454c2.728,1.114,5.455,2.228,8.183,3.342c-0.187,2.5-1.258,4.517-3.258,6.036c-2.186,1.178-4.489,1.371-6.881,0.824c-2.949-1.303-5.475-3.07-6.755-6.195c-0.327-1.587-0.124-3.104,0.607-4.55l-0.249,0.348C49.205,4.864,51.986,5.087,54.739,6.454z"/>
<path fill="#B38F5A" d="M66.501,12.313c2.889,1.285,5.777,2.573,8.667,3.86c-0.087,2.341-1.271,4.004-3.203,5.209c-2.113,0.845-4.171,0.739-6.175-0.351c-1.085-0.973-1.787-2.179-2.153-3.583c-0.028-1.447,0.313-2.798,1.025-4.056C65.276,13.034,65.888,12.674,66.501,12.313z"/>
<path fill="#3F311F" d="M85.096,81c-0.003-1.896-0.008-3.788-0.013-5.683c0.813-0.8,1.761-1.383,2.824-1.782c1.067-0.437,2.161-0.522,3.282-0.257c0.976,0.589,1.771,1.364,2.384,2.325C90.747,77.404,87.922,79.202,85.096,81z"/>
<path fill="#4C3C24" d="M93.533,56.879c-0.071,4.016-0.143,8.031-0.217,12.045c-1.545,0.455-2.812,0.046-3.801-1.23c-1.981-3.533-2.206-7.059,0.032-10.58C90.821,56.085,92.147,55.963,93.533,56.879z"/>
<path fill="#362C1B" d="M93.544,41.027c0.021,3.183,0.042,6.366,0.063,9.549c-1.474,0.764-2.843,0.607-4.108-0.467c-2.023-2.826-1.966-5.667-0.06-8.521C90.679,40.463,92.054,40.323,93.544,41.027z"/>
<path fill="#4D3D25" d="M93.589,25.302c-0.013,3.144-0.024,6.287-0.035,9.43c-1.248,0.989-2.552,1.022-3.905,0.229c-1.628-1.654-2.289-3.647-2.089-5.945c0.38-1.425,1.096-2.667,2.099-3.744C90.973,24.441,92.284,24.411,93.589,25.302z"/>
<path fill="#3F311F" d="M91.222,34.707c0.778,0.015,1.557,0.024,2.333,0.027c-0.003,2.097-0.004,4.193-0.008,6.292c-0.768-0.012-1.531-0.03-2.298-0.049C89.315,38.897,89.318,36.807,91.222,34.707z"/>
<path fill="#3F311F" d="M91.172,50.61c0.813-0.019,1.626-0.03,2.437-0.034c-0.026,2.1-0.049,4.203-0.073,6.303c-0.74,0.012-1.479,0.03-2.217,0.055C89.309,54.87,89.313,52.762,91.172,50.61z"/>
<path fill="#B38F5A" d="M54.739,6.454c-2.781-0.064-5.563-0.128-8.347-0.192C49.172,6.323,51.955,6.39,54.739,6.454z"/>
<path fill="#B38F5A" d="M46.636,5.911c0.171,1.336,0.342,2.676,0.513,4.013c-0.415,0.452-0.83,0.907-1.245,1.358c-1.154,0.485-2.349,0.625-3.583,0.427c-1.196-0.507-1.921-1.379-2.103-2.68C42.357,7.989,44.497,6.949,46.636,5.911z"/>
<path fill="#B38F5A" d="M34.121,12.359c2.032-1.111,4.065-2.222,6.097-3.33l0.758,0.892c0.421,0.488,0.842,0.974,1.265,1.462c-0.145,1.333-0.78,2.39-1.836,3.204c-1.214,0.482-2.47,0.62-3.761,0.415C35.399,14.508,34.559,13.626,34.121,12.359z"/>
<path fill="#AC8C55" d="M59.667,13.052c1.085-1.083,2.17-2.17,3.255-3.256c1.192,0.839,2.386,1.679,3.579,2.518l-0.598,0.769c-1.35,1.557-3.005,1.908-4.918,1.254C60.546,13.91,60.107,13.482,59.667,13.052z"/>
<path fill="#B4905A" d="M28.777,15.435c0.007-0.537-0.063-1.062-0.208-1.578c1.849-0.5,3.7-1.001,5.551-1.499l0.619,0.708c0.409,0.531,0.818,1.065,1.226,1.599c-0.304,1.382-1.109,2.371-2.353,3.021C31.473,18.069,29.653,17.767,28.777,15.435z"/>
<path fill="#B38F5A" d="M72.091,19.256c1.025-1.028,2.051-2.054,3.077-3.083c1.258,0.813,2.517,1.621,3.775,2.433c-0.4,0.567-0.8,1.135-1.199,1.706c-1.32,0.521-2.671,0.613-4.05,0.274C73.16,20.142,72.626,19.699,72.091,19.256z"/>
<path fill="#342919" d="M90.999,69.223c0.77-0.134,1.543-0.231,2.319-0.299c0.086,2.229,0.171,4.455,0.257,6.68c-0.894-0.045-1.782-0.085-2.674-0.125c-1.041-0.793-1.587-1.843-1.639-3.149c0.116-0.613,0.231-1.229,0.348-1.843C90.074,70.065,90.537,69.643,90.999,69.223z"/>
<path fill="#B8945F" d="M78.944,18.606c1.831,0.461,3.662,0.918,5.493,1.379c0.795,0.72,1.074,1.456,0.838,2.207c-0.238,0.757-0.485,1.135-0.742,1.138c-1.968,1.019-3.871,0.924-5.71-0.324c-0.659-0.745-0.942-1.538-0.85-2.374c0.095-0.861,0.235-1.291,0.421-1.291L78.944,18.606z"/>
<path fill="#6D5837" d="M93.589,25.302c-0.91,0.11-1.819,0.211-2.73,0.296c-1.104,0.757-2.16,0.656-3.174-0.183c-0.237-0.556-0.476-1.111-0.714-1.667c0.36-0.482,0.721-0.967,1.08-1.453C89.898,23.297,91.742,24.301,93.589,25.302z"/>
<path fill="#4A3A22" d="M75.276,81.796c0.038,1.071,0.074,2.146,0.111,3.217c-0.878,0.766-1.755,1.532-2.631,2.295c-0.222-1.861-0.444-3.724-0.667-5.582C73.176,80.612,74.238,80.688,75.276,81.796z"/>
<path fill="#342A19" d="M65.989,87.982c1.088,0.009,2.175,0.015,3.263,0.023c-2.196,0.864-4.395,1.728-6.594,2.592c0.067-0.883,0.122-1.758,0.163-2.637c0.533-0.662,1.065-1.328,1.598-1.99C64.942,86.642,65.465,87.313,65.989,87.982z"/>
<path fill="#4B3B23" d="M44.082,94.092c0.024-1.096,0.05-2.191,0.075-3.284c0.534-0.323,1.069-0.644,1.604-0.967c0.6,0.171,1.199,0.345,1.799,0.516c0.9,0.921,1.363,2.032,1.448,3.311c-0.211,1.258-0.776,2.329-1.7,3.211C46.232,95.947,45.156,95.019,44.082,94.092z"/>
<path fill="#937649" d="M84.211,22.424c0.036-0.814,0.111-1.629,0.226-2.438c1.205,0.769,2.409,1.541,3.614,2.31c-0.587,0.009-1.153,0.125-1.696,0.351C85.639,22.574,84.925,22.5,84.211,22.424z"/>
<path fill="#504027" d="M15.885,78.546c0.012,0.925,0.023,1.847,0.032,2.768c-1.184-0.769-2.368-1.534-3.554-2.301l1.114-0.824l1.313-0.549L15.885,78.546z"/>
<path fill="#5C492E" d="M47.307,96.878c-0.003-0.781,0.014-1.557,0.049-2.335c0.446-0.494,0.891-0.985,1.338-1.479c0.56,0.356,1.12,0.717,1.682,1.074c-0.11,0.931-0.229,1.861-0.363,2.789c0-0.003-1.356,0.141-1.356,0.141L47.307,96.878z"/>
<path fill="#312718" d="M12.581,66.445c0.027-2.271,0.057-4.541,0.084-6.812c-1.999-2.944-1.947-5.896-0.027-8.853c0.946-1.022,1.891-2.045,2.836-3.067c0.745,0.376,1.489,0.748,2.232,1.123c3.221,3.396,2.719,7.654,2.721,11.795c-0.159,3.479-1.157,6.546-4.216,8.601c-1.252-0.159-2.507-0.314-3.76-0.474l-0.926-1.212L12.581,66.445z"/>
<path fill="#544329" d="M15.474,47.714c1.093-3.253,2.185-6.506,3.278-9.759c2.406-0.11,4.132,0.998,5.366,2.991c0.452,1.404,0.564,2.829,0.287,4.281c-0.905,2.155-2.474,3.498-4.797,3.916c-1.494-0.107-2.759-0.715-3.829-1.749L15.474,47.714z"/>
<path fill="#423520" d="M12.781,25.741c1.683,0.189,3.366,0.378,5.049,0.568c0.587-0.275,1.173-0.546,1.761-0.815c1.083,0.757,1.909,1.721,2.436,2.939c0.267,1.297,0.232,2.584-0.104,3.863c-0.337,0.562-0.676,1.12-1.015,1.682c-0.54,0.373-1.079,0.742-1.619,1.114c-1.198-0.07-2.395-0.14-3.591-0.21c-0.918-0.604-1.24-1.229-0.972-1.886c0.273-0.665,0.555-0.998,0.85-0.998C14.644,29.913,13.714,27.826,12.781,25.741z"/>
<path fill="#725A38" d="M12.638,50.781c0.009,2.951,0.018,5.902,0.027,8.853C12.656,56.684,12.647,53.732,12.638,50.781z"/>
<path fill="#312819" d="M12.825,34.854c-0.218,1.339-0.435,2.682,0.003-0.015c-1.227,2.404-0.615,1.205-0.004,0.009L12.825,34.854z"/>
<path fill="#504027" d="M16.211,69.232c0.017-3.214,0.034-6.428,0.052-9.645c1.401-0.356,2.693-0.137,3.857,0.742c2.036,2.447,2.075,5.008,0.435,7.663c-0.574,0.394-1.149,0.787-1.723,1.178C17.959,69.192,17.084,69.214,16.211,69.232z"/>
<path fill="#715936" d="M21.802,40.863c-1.015-0.967-2.028-1.938-3.047-2.908c0.195-0.952,0.374-1.908,0.532-2.866c0.002,0.003,0.339,0.079,0.339,0.079c0.435-0.464,0.872-0.928,1.308-1.392c1.296,0.299,2.26,1.022,2.84,2.234C24.135,38.043,23.726,39.761,21.802,40.863z"/>
<path fill="#725A38" d="M19.218,75.28c-0.127-2.035-0.252-4.071-0.381-6.106c-0.003-0.003,0.432,0.168,0.432,0.168c1.018-1.107,2.187-1.361,3.531-0.623c0.883,1.093,1.417,2.329,1.55,3.729c-0.142,0.675-0.285,1.349-0.427,2.023c-0.414,0.55-0.829,1.099-1.242,1.648C21.302,76.767,20.147,76.486,19.218,75.28z"/>
<path fill="#5C492E" d="M19.218,75.28c0.806-0.003,1.613-0.024,2.418-0.063c2.177,1.998,2.421,4.168,0.58,6.524c-0.911-0.132-1.814-0.309-2.707-0.528C19.414,79.232,19.315,77.258,19.218,75.28z"/>
<path fill="#705835" d="M15.885,78.546c-0.813-0.062-1.618-0.177-2.41-0.357C14.364,77.658,15.165,77.777,15.885,78.546z"/>
<path fill="#514129" d="M15.576,31.997c0.07,0.961,0.113,1.922,0.124,2.884c-0.96-0.009-1.918-0.018-2.875-0.027l-0.001-0.006C13.741,33.898,14.659,32.946,15.576,31.997z"/>
<path fill="#725A38" d="M12.581,66.445c0.021,0.775-0.021,1.548-0.128,2.316C11.93,67.959,11.972,67.187,12.581,66.445z"/>
<path fill="#211A10" d="M53.599,87.814c-1.074,2.108-2.148,4.214-3.223,6.323l-0.33,0.296c-0.819-1.224-2.165-2.042-2.693-3.491l-0.563,0.137c-0.461-1.352-0.766-2.737-0.891-4.162c-0.169-3.724,0.146-7.229,4.004-9.201c1.436-0.372,2.833-0.28,4.188,0.336c1.619,1.712,2.083,3.711,1.501,5.972C55.208,85.436,54.543,86.7,53.599,87.814z"/>
<path fill="#362C1B" d="M62.831,63.043c0.045,2.018,0.087,4.034,0.133,6.049c-1.058,0.043-2.118,0.088-3.177,0.131c-1.425-0.207-2.735-0.705-3.918-1.544c-1.685-1.446-2.913-3.187-3.464-5.371c-0.185-1.483-0.208-2.957-0.067-4.446c0.448-2.371,1.665-4.196,3.792-5.387c1.561-0.345,3.066-0.18,4.538,0.421C64.255,55.67,65.444,58.953,62.831,63.043z"/>
<path fill="#211B11" d="M59.516,66.116c0.078,1.037,0.168,2.072,0.271,3.106c-0.069,4.188-0.141,8.374-0.213,12.562c-1.037,1.26-2.23,1.364-3.555,0.476c-1.115-1.84-1.299-4.062-2.4-5.908c-1.509-2.615-1.631-5.355-0.735-8.188c0.698-1.248,1.654-2.259,2.861-3.024C57.189,64.736,58.447,65.063,59.516,66.116z"/>
<path fill="#4C3D25" d="M62.799,69.186c1.014,4.171,2.027,8.347,3.04,12.518c-0.499,0.684-0.998,1.367-1.497,2.054c-0.507-0.68-1.012-1.36-1.518-2.038C62.817,77.542,62.807,73.364,62.799,69.186z"/>
<path fill="#3F311F" d="M62.824,81.72c1.008,0.019,2.016,0.016,3.02-0.016c0.044,2.094,0.091,4.188,0.142,6.281c-1.053-0.01-2.11-0.016-3.166-0.024C62.822,85.879,62.822,83.798,62.824,81.72z"/>
<path fill="#1D160D" d="M56.725,81.781c0.951-0.007,1.901-0.004,2.851,0.003c-0.995,1.013-1.986,2.029-2.98,3.045c-0.402-0.527-0.807-1.053-1.21-1.58C55.832,82.761,56.278,82.269,56.725,81.781z"/>
<path fill="#4E3E26" d="M53.599,87.814c0-0.935,0.036-1.868,0.111-2.799c0.438-0.714,0.874-1.428,1.312-2.143c0.481,0.687,0.962,1.37,1.442,2.057c0,0,0.13-0.101,0.131-0.101c-0.033,1.06-0.068,2.121-0.102,3.184l0.076-0.076C55.577,87.936,54.587,87.896,53.599,87.814z"/>
<path fill="#4C3C24" d="M56.493,88.013l0.076-0.073C56.57,87.936,56.493,88.013,56.493,88.013z"/>
<path fill="#4E3E26" d="M40.903,88c-1.112-0.049-2.226-0.101-3.34-0.149c-0.762-1.178-1.378-2.426-1.85-3.747c-0.664-1.245-1.3-2.5-1.919-3.767c-0.713-2.816-0.623-5.688-0.632-8.56c0.032-2.237,0.153-4.459,0.763-6.632c0.671-1.41,1.642-2.558,2.873-3.503c1.457-0.604,2.96-0.788,4.52-0.564c3.151,1.132,4.677,3.79,6.133,6.509c0.47,1.419,0.666,2.89,0.588,4.386c-0.445,2.847-1.579,5.581-1.53,8.521c0.093,1.413-0.067,2.802-0.482,4.156C44.9,86.648,42.746,87.088,40.903,88z"/>
<path fill="#4A3B23" d="M37.749,81.5c0.004,1.166,0.009,2.328,0.014,3.491c-0.958,1.218-1.901,1.15-2.832-0.03c-1.184-0.062-2.367-0.119-3.549-0.181c-0.804-1.192-1.448-2.472-1.932-3.826c-0.67-1.276-1.285-2.573-1.848-3.897c-0.505-2.994-0.119-5.722,2.31-7.846c1.242-0.757,2.599-1.065,4.042-0.989c1.285,0.729,2.023,1.828,2.209,3.296C36.758,74.832,35.039,78.518,37.749,81.5z"/>
<path fill="#504029" d="M31.502,78.381c-0.024,1.19-0.05,2.378-0.075,3.564c-0.818,1.123-1.625,1.117-2.421-0.021c-1.083-0.045-2.168-0.091-3.252-0.137c-1.878-1.114-1.994-2.927-1.913-4.819c0.251-1.3,1.004-2.197,2.188-2.752c1.294-0.129,2.438,0.237,3.455,1.034C29.981,76.406,30.654,77.45,31.502,78.381z"/>
<path fill="#382D1C" d="M24.796,75.271c0.316,2.173,0.632,4.343,0.954,6.516c-1.175-0.016-2.354-0.031-3.534-0.046c-0.192-2.173-0.384-4.349-0.578-6.521c-0.001-0.003,0.818,0.342,0.818,0.342C23.098,74.338,23.884,74.292,24.796,75.271z"/>
<path fill="#6C5532" d="M29.006,81.924c0.807-0.024,1.616-0.018,2.421,0.019c0.009,0.949-0.004,1.896-0.046,2.841C30.59,83.828,29.798,82.876,29.006,81.924z"/>
<path fill="#715936" d="M34.931,84.961c0.944-0.019,1.889-0.01,2.832,0.03c-0.032,0.955-0.098,1.91-0.198,2.859C36.686,86.887,35.808,85.922,34.931,84.961z"/>
<path fill="#6E5633" d="M40.903,88c0.931-0.955,1.86-1.91,2.791-2.865c0.407,0.418,0.816,0.836,1.224,1.251c-0.255,0.528-0.51,1.053-0.766,1.578C43.07,87.975,41.987,87.988,40.903,88z"/>
<path fill="#745C39" d="M47.089,87.975c-0.096,1.035-0.192,2.069-0.293,3.104c-0.877-0.149-1.756-0.237-2.641-0.269c-0.083-0.952-0.084-1.897-0.005-2.847c0.001,0-0.075-0.01-0.075-0.01c0.505-0.388,1.009-0.778,1.514-1.165C46.09,87.185,46.589,87.579,47.089,87.975z"/>
<path fill="#352A19" d="M62.831,63.043c-1.062-3.113-2.124-6.226-3.185-9.338c0.037-0.553,0.073-1.105,0.111-1.664c0.229-1.113,0.604-2.173,1.111-3.201c0.478-1.089,0.969-2.151,1.481-3.223c1.102-2.301,1.921-4.708,3.162-6.958c0.921-1.102,2.035-1.901,3.338-2.481c0.719-0.11,1.424-0.201,2.145-0.305c1.476,0.217,2.786,0.791,3.955,1.703c1.886,2.279,2.824,5.06,4.081,7.666c0.408,1.361,0.655,2.759,0.719,4.178c-0.012,1.389-0.175,2.771-0.486,4.123c-0.752,1.895-1.896,3.57-3.061,5.225c-1.266,1.508-2.804,2.71-4.435,3.793c-1.198,0.467-2.441,0.742-3.728,0.818c-0.637,0.058-1.272,0.119-1.911,0.177C65.03,63.385,63.93,63.214,62.831,63.043z"/>
<path fill="#362C1B" d="M75.276,81.796c-1.063-0.024-2.125-0.049-3.187-0.07c-0.937-2.142-1.874-4.284-2.81-6.427c0.82-0.952,1.836-1.264,3.048-0.931c1.368,1.159,1.698,3.042,2.974,4.267C75.293,79.687,75.284,80.74,75.276,81.796z"/>
<path fill="#332918" d="M69.301,72.619c-0.125-2.188-0.25-4.376-0.375-6.564c0.589-0.22,1.18-0.436,1.769-0.656c1.24,0.406,2.168,1.182,2.784,2.332c0.263,1.907,0.335,3.778-0.969,5.404C71.297,73.855,70.221,73.727,69.301,72.619z"/>
<path fill="#4E3E26" d="M69.301,72.619c0.852-0.006,1.701,0.021,2.55,0.086c0.979,0.601,1.29,1.178,0.938,1.733c-0.342,0.537-0.684,0.809-1.028,0.809c-0.829,0.043-1.657,0.061-2.483,0.055C69.213,74.404,69.221,73.514,69.301,72.619z"/>
<path fill="#251E13" d="M68.926,66.055c-0.934-0.839-1.869-1.675-2.8-2.505c0.004,0.006-0.083-0.721-0.083-0.721c1.061-1.037,2.215-1.208,3.478-0.375c0.681,1.306,0.521,2.499-0.48,3.576L68.926,66.055z"/>
<path fill="#B6925D" d="M28.414,22.345c-0.015-1.111-0.032-2.222-0.047-3.333c1.706-1.877,4.706-0.925,6.361-2.912l-0.063,0.034c1.004-1.257,2.216-1.581,3.674-0.824c1.189,0.916,2.052,2.069,2.605,3.467c0.281,1.477,0.22,2.938-0.164,4.388c-0.961,2.13-2.623,3.516-4.723,4.431c-1.443,0.339-2.885,0.293-4.318-0.079c-1.287-0.72-2.293-1.728-3.017-3.019C28.621,23.782,28.518,23.065,28.414,22.345z"/>
<path fill="#9B804A" d="M34.728,16.1c-2.121,0.971-4.24,1.944-6.361,2.915c0.134-1.19,0.27-2.377,0.408-3.574C30.76,15.658,32.744,15.878,34.728,16.1z"/>
<path fill="#BE9A65" d="M21.849,22.409c2.188-0.021,4.376-0.042,6.564-0.064l-0.052,0.03c0.449,0.541,0.897,1.081,1.347,1.624c-0.171,0.684-0.34,1.364-0.511,2.047c-1.089,0.934-2.337,1.514-3.767,1.691c-1.428-0.141-2.713-0.638-3.834-1.544C20.818,24.874,20.904,23.614,21.849,22.409z"/>
<path fill="#987E47" d="M21.849,22.409c0.139,1.022,0.232,2.048,0.279,3.08c-1.08,1.199-2.234,1.275-3.46,0.226c0,0-0.83,0.589-0.833,0.592C19.17,25.009,20.51,23.709,21.849,22.409z"/>
<path fill="#271F13" d="M91.172,50.61c0.047,2.104,0.094,4.214,0.143,6.323c-0.104,4.099-0.21,8.193-0.316,12.289c0.001,0-0.104,0.107-0.104,0.107c-1.132,1.468-2.189,1.416-3.172-0.156l0.131,0.214c-3.48-3.592,0.184-8.93-3.068-12.576c-1.066-0.027-2.135-0.056-3.203-0.083c-0.546-0.418-1.091-0.836-1.637-1.254c-1.147-1.88-1.163-3.885-0.675-5.951c1.489-4.629,3.082-9.231,3.735-14.093c0.376-2.976,0.968-5.835,3.779-7.593c1.523-0.513,2.886-0.266,4.068,0.845c0.122,2.008,0.243,4.016,0.366,6.024c0.011,2.09,0.019,4.181,0.027,6.271C91.224,44.189,91.197,47.399,91.172,50.61z"/>
<path fill="#4C3D25" d="M84.784,56.811c1.023,4.189,2.046,8.383,3.068,12.576C86.83,65.194,85.808,61.001,84.784,56.811z"/>
<path fill="#4E3F27" d="M81.249,74.865c-0.986-2.951-1.972-5.898-2.959-8.85c-0.675-1.011-0.697-2.015,0.032-3.013c0.991-0.744,1.975-0.732,2.949,0.031C81.264,66.979,81.256,70.923,81.249,74.865z"/>
<path fill="#4A3A22" d="M81.272,63.034c-0.884-0.04-1.769-0.073-2.652-0.101c-0.494-0.439-0.986-0.883-1.481-1.322c-0.799-1.998-0.597-3.854,0.795-5.539c1.339-0.644,2.454-0.332,3.376,0.794c0,0,0.271-0.138,0.272-0.138C81.478,58.832,81.375,60.934,81.272,63.034z"/>
<path fill="#4F3F27" d="M87.722,69.174c1.058,0.049,2.116,0.101,3.172,0.156c-0.065,0.826-0.071,1.653-0.019,2.48c-0.395,0.647-0.791,1.294-1.187,1.944c-0.603-0.458-1.206-0.922-1.809-1.383C87.827,71.304,87.776,70.239,87.722,69.174z"/>
<path fill="#4B3B23" d="M87.709,75.506c-0.879-0.049-1.755-0.112-2.629-0.188c0.936-0.983,1.868-1.966,2.8-2.945l-0.139-0.082c1.082,0.723,1.438,1.443,1.068,2.154C88.444,75.152,88.077,75.506,87.709,75.506z"/>
<path fill="#4D3D25" d="M80.943,81.207c-0.37-0.751-0.272-1.435,0.294-2.042C81.185,79.855,81.087,80.535,80.943,81.207z"/>
<path fill="#241D12" d="M71.76,75.247c0.096-0.846,0.128-1.694,0.094-2.542c0.11-2.207,0.223-4.416,0.335-6.623l0.918-0.909l1.291,0.01l0.9,0.925c0.001,4.174,0.001,8.353,0.003,12.527C74.121,77.505,72.941,76.376,71.76,75.247z"/>
<path fill="#1D160D" d="M78.619,62.934c-0.129,1.028-0.236,2.057-0.324,3.085c-1.001,0.07-1.999,0.101-2.997,0.089l0.008,0.012c-0.795-0.619-1.152-1.321-1.071-2.105c0.084-0.824,0.233-1.236,0.447-1.236c1.213-0.833,2.326-0.714,3.342,0.352L78.619,62.934z"/>
<path fill="#B6925C" d="M47.149,9.924c2.102,0.986,4.202,1.972,6.304,2.958c1.094,1.108,1.397,2.42,1.021,3.909c-0.765,1.257-1.782,2.258-3.051,3.003c-2.087,0.717-4.229,0.809-6.399,0.54c-1.405-0.338-2.67-0.97-3.788-1.889c-0.394-0.595-0.789-1.19-1.181-1.785c-0.594-1.438-0.299-2.664,0.886-3.674l-0.049,0.064c1.52-2.267,4.762-1.117,6.371-3.207L47.149,9.924z"/>
<path fill="#BB9762" d="M53.443,16.07c0.003-1.062,0.005-2.121,0.008-3.186c2.072,0.055,4.145,0.11,6.217,0.168l-0.021-0.058c0.793,0.625,1.173,1.34,1.137,2.151c-0.037,0.854-0.159,1.285-0.365,1.285c-1.026,0.912-2.223,1.428-3.59,1.55C55.465,17.761,54.337,17.123,53.443,16.07z"/>
<path fill="#B8945E" d="M56.53,16.128c1.071-0.009,2.143-0.019,3.214-0.031c2.084-1.868,4.15-1.999,6.19,0.07c-0.013,1.041-0.013,2.081-0.003,3.119c0.583,1.422,0.378,2.694-0.731,3.79c-3.926,1.782-6.931,0.65-9.172-2.899C55.53,18.746,55.732,17.401,56.53,16.128z"/>
<path fill="#9A8049" d="M65.934,16.168c-2.066-0.021-4.132-0.046-6.195-0.067c-0.025-1.037-0.058-2.072-0.092-3.106c2.085,0.03,4.171,0.058,6.257,0.085C65.915,14.111,65.924,15.14,65.934,16.168z"/>
<path fill="#BB9762" d="M65.931,22.36c-0.002-1.025-0.002-2.051,0-3.073c2.055-0.009,4.11-0.021,6.163-0.031c-0.003,0,0.036-0.018,0.036-0.018c0.679,1.349,0.558,2.591-0.488,3.714c-1.267,0.681-2.604,0.925-4.026,0.671C67.054,23.202,66.492,22.781,65.931,22.36z"/>
<path fill="#1F180F" d="M87.709,75.506c0.011-1.07,0.021-2.145,0.032-3.216c1.045-0.156,2.091-0.312,3.134-0.474c0.01,1.218,0.019,2.438,0.026,3.662C89.838,75.488,88.773,75.497,87.709,75.506z"/>
<path fill="#392D1B" d="M90.853,28.683c-0.919,0.049-1.831,0.153-2.737,0.312c-1.158-0.409-1.605-1.211-1.342-2.408l0.862-1.239c1.076,0.083,2.15,0.165,3.225,0.247C90.896,26.626,90.893,27.655,90.853,28.683z"/>
<path fill="#9C814A" d="M47.263,9.842c-2.123,1.068-4.247,2.139-6.371,3.207c0.028-1.041,0.057-2.084,0.084-3.128C43.072,9.893,45.168,9.866,47.263,9.842z"/>
<path fill="#9E834D" d="M40.941,12.985c-0.006,1.044-0.012,2.084-0.018,3.128c-0.952,1.086-1.958,1.083-3.008,0.146c-1.083-0.043-2.165-0.086-3.249-0.128c0.009-1.022,0.034-2.044,0.073-3.064C36.808,13.04,38.874,13.013,40.941,12.985z"/>
<path fill="#9E834D" d="M72.297,22.299c-0.057-1.019-0.112-2.042-0.167-3.061c2.088,0.036,4.175,0.07,6.263,0.104c0.017,1.01,0.028,2.021,0.039,3.03c-0.438,0.421-0.874,0.842-1.311,1.264c-1.188,0.36-2.374,0.369-3.555-0.027C73.142,23.172,72.719,22.735,72.297,22.299z"/>
<path fill="#B38F5A" d="M84.211,22.424c0.709,0.113,1.425,0.187,2.144,0.223c0.613,0.812,1.04,1.712,1.281,2.704c0-0.003,0.316,0.476,0.316,0.476c-3.247,2.756-5.823,7.126-11.235,4.66c-1.196-0.9-2.029-2.057-2.443-3.503c0.056-2.707,2.465-3.281,4.12-4.538l0.038-0.073C80.358,22.391,82.283,22.409,84.211,22.424z"/>
<path fill="#4C3D24" d="M47.353,90.942c0.899,1.162,1.797,2.325,2.695,3.491c-0.902-0.01-1.8,0.024-2.693,0.106C47.355,93.344,47.355,92.142,47.353,90.942z"/>
<path fill="#705836" d="M19.042,59.857c-0.929-0.074-1.857-0.162-2.78-0.266c-0.159-4.068-0.319-8.133-0.481-12.198c1.14-0.037,2.281-0.07,3.421-0.107c1.918,1.294,3.254,3.003,3.773,5.295c0.185,2.331-0.423,4.403-1.993,6.167C20.336,59.118,19.689,59.487,19.042,59.857z"/>
<path fill="#4D3E26" d="M19.31,53.942c-0.037-2.219-0.073-4.434-0.108-6.652c1.036-1.126,2.072-2.25,3.108-3.373c2.143-2.332,1.199-8.001,6.955-6.421c3.625,1.789,4.611,5.469,6.236,8.688c0.536,2.115,0.615,4.266,0.499,6.433c-0.128,1.446-0.482,2.835-1.035,4.178c-0.766,1.261-1.796,2.262-3.012,3.082c-1.955,1.014-4.048,1.157-6.184,0.897c-1.315-0.312-2.51-0.912-3.56-1.767C20.985,57.479,20.536,55.486,19.31,53.942z"/>
<path fill="#342A19" d="M28.54,38.11c-2.077,1.938-4.155,3.875-6.231,5.811c-0.142-1.025-0.31-2.042-0.505-3.055c0.082-2.02,0.166-4.041,0.249-6.061c1.427-1.682,3.232-2.054,5.296-1.542c1.196,0.687,1.917,1.697,2.078,3.08C29.133,36.932,28.837,37.521,28.54,38.11z"/>
<path fill="#6B5534" d="M28.3,34.988c-2.082-0.061-4.163-0.122-6.246-0.183c-0.001,0,0,0.055,0,0.055c-1.031-0.745-1.723-1.73-2.069-2.954c-0.256-1.168-0.513-2.334-0.768-3.503c1.434-1.709,3.374-1.27,5.225-1.224c1.233,0.348,2.451,0.729,3.664,1.145c1.965,0.546,3.462,1.66,4.346,3.537c0.261,1.336,0.014,2.569-0.742,3.705C30.428,36.221,29.285,36.068,28.3,34.988z"/>
<path fill="#B38F5A" d="M25.199,28.775c-1.995-0.122-3.989-0.248-5.983-0.373c-0.479-0.839-0.659-1.736-0.543-2.691c1.149-0.073,2.304-0.146,3.456-0.223c1.091,0.033,2.182,0.067,3.273,0.101c0.71,0.757,0.917,1.48,0.62,2.173C25.733,28.436,25.458,28.775,25.199,28.775z"/>
<path fill="#604D2F" d="M19.985,31.906c0.689,0.986,1.379,1.968,2.069,2.954c-0.81,0.104-1.622,0.208-2.431,0.308C19.745,34.082,19.864,32.995,19.985,31.906z"/>
<path fill="#6E5634" d="M21.795,69.268c-0.844,0.016-1.688,0.036-2.528,0.073c-0.073-3.162-0.148-6.323-0.225-9.484l-0.079,0.088c0.499-0.5,0.997-1.004,1.497-1.504c1.433,0.231,2.666,0.854,3.704,1.867c1.172,1.941,1.387,3.985,0.687,6.134C24.156,67.736,23.139,68.68,21.795,69.268z"/>
<path fill="#2B2113" d="M21.795,69.268c0.218-1.022,0.437-2.045,0.655-3.07c1.236-1.019,2.49-0.998,3.764-0.07c0.766,1.264,1.094,2.637,1.048,4.104c-0.415,1.438-1.264,2.521-2.609,3.202c-0.627-0.357-1.256-0.712-1.883-1.065C22.445,71.335,22.119,70.303,21.795,69.268z"/>
<path fill="#2A2012" d="M22.77,72.369c0.786-0.027,1.571-0.058,2.359-0.092c0.832,0.617,1.172,1.297,1.025,2.042c-0.154,0.781-0.35,1.172-0.589,1.172c0,0-0.757-0.214-0.763-0.217c-0.784,0.113-1.565,0.208-2.348,0.284C22.561,74.496,22.664,73.432,22.77,72.369z"/>
<path fill="#352B1A" d="M56.553,59.885c0.022,1.11,0.044,2.222,0.065,3.332c0.817,0.55,1.155,1.172,1.016,1.865c-0.146,0.729-0.335,1.095-0.567,1.095l-0.624,0.037c-2.455,2.774-1.065,6.164-1.484,9.262c0.02,1.364-0.547,2.438-1.619,3.26c-0.903-0.067-1.809-0.141-2.71-0.223c-0.635-0.33-1.268-0.663-1.901-0.995c-1.486-1.725-1.958-3.751-1.762-5.973c0.192-2.908-1.021-5.624-1.176-8.483c-0.035-2.866-0.142-5.747,1.53-8.295c0.985-1.056,2.17-1.801,3.545-2.237c1.479-0.07,2.706,0.471,3.712,1.541C55.072,56.06,54.799,58.315,56.553,59.885z"/>
<path fill="#3F311F" d="M53.339,78.735c0.058-1.117,0.116-2.234,0.174-3.348c0.453-0.645,0.906-1.285,1.359-1.929c0.471,0.631,0.938,1.263,1.407,1.895c0.146,2.143,0.295,4.282,0.442,6.424c-0.082,1.05-0.169,2.1-0.256,3.149c-0.922,0.003-1.844,0.031-2.759,0.086C53.586,82.922,53.463,80.828,53.339,78.735z"/>
<path fill="#715936" d="M50.629,78.513c-1.181,3.155-2.36,6.308-3.54,9.463l0.18,0.135c-1.901-1.429-1.566-3.613-1.894-5.576c-0.228-1.395,0.07-2.683,0.824-3.872c1.242-0.895,2.403-0.8,3.483,0.287L50.629,78.513z"/>
<path fill="#312717" d="M59.647,53.705c-1.043-0.028-2.086-0.056-3.128-0.08c-0.529,0.672-1.059,1.343-1.587,2.015c-0.521-0.678-1.043-1.355-1.563-2.032l0.071,0.055c-2.856-1.966-4.24-4.666-4.051-8.146c0.335-2.457,1.527-4.501,3.071-6.378c1.059-1.236,2.359-2.121,3.894-2.658c1.61-0.302,3.143-0.064,4.587,0.705c1.897,1.59,2.805,3.674,2.991,6.104c0.008,1.541-0.215,3.055-0.665,4.532c-0.757,2.194-1.956,4.12-3.583,5.783L59.647,53.705z"/>
<path fill="#221B12" d="M53.368,53.607c1.05,0.006,2.101,0.012,3.15,0.018c0.011,2.085,0.023,4.172,0.034,6.26C55.49,57.791,54.429,55.697,53.368,53.607z"/>
<path fill="#221B11" d="M57.067,66.177c-0.174-0.985-0.323-1.974-0.448-2.963c0.967,0.971,1.935,1.935,2.899,2.902C58.699,66.128,57.883,66.149,57.067,66.177z"/>
<path fill="#4E3E26" d="M56.28,75.353c-0.922,0.034-1.845,0.046-2.768,0.034c0.978-3.059,1.956-6.116,2.933-9.174C56.389,69.26,56.334,72.309,56.28,75.353z"/>
<path fill="#2E2517" d="M43.763,72.811c0.01-1.291,0.02-2.585,0.03-3.876c-1.778-2.603-1.206-5.936-2.693-8.627c-0.485-2.338-0.038-4.468,1.435-6.363c1.221-0.982,2.596-1.227,4.097-0.83c2.915,2.039,1.857,5.146,2.104,7.896c-0.002,2.762,0.011,5.532-0.019,8.294c-0.001,1.374-0.371,2.646-1.106,3.806c-0.656,0.146-1.314,0.293-1.97,0.442C45.015,73.306,44.39,73.059,43.763,72.811z"/>
<path fill="#5C492E" d="M43.657,59.683c0.046,3.086,0.091,6.171,0.137,9.257c-0.99-2.036-1.979-4.068-2.968-6.101c-0.577-0.607-0.792-1.236-0.644-1.884c0.149-0.655,0.313-0.985,0.493-0.985C41.61,59.25,42.6,59.121,43.657,59.683z"/>
<path fill="#735B38" d="M37.749,81.5c-0.986-3.033-1.973-6.07-2.96-9.106c0.49-0.681,0.981-1.361,1.471-2.045c0.494,0.681,0.987,1.358,1.481,2.036C37.744,75.424,37.748,78.464,37.749,81.5z"/>
<path fill="#705835" d="M43.708,81.491c0.018-2.894,0.038-5.79,0.057-8.68c-0.001,0,0.338-0.47,0.338-0.47c2.693,2.236,2.037,5.011,1.256,7.807C44.808,80.594,44.259,81.042,43.708,81.491z"/>
<path fill="#5C492E" d="M37.896,62.839c-0.046,1.107-0.092,2.212-0.137,3.32c-0.487,0.457-0.974,0.918-1.46,1.376c-1.369-0.195-2.47-0.846-3.305-1.95c-0.769-1.98-0.612-3.869,0.574-5.651c1.142-0.803,2.368-0.965,3.678-0.482c0.776,0.629,1.132,1.343,1.066,2.136C38.242,62.42,38.105,62.839,37.896,62.839z"/>
<path fill="#6E5633" d="M35.029,66.04c0.911,0.046,1.822,0.085,2.731,0.116c-0.005,2.078-0.009,4.153-0.016,6.229c-0.003,0-1.484-0.01-1.484-0.01s-1.481,0.016-1.476,0.019c-0.107-1.11-0.218-2.219-0.33-3.329C33.692,67.874,33.883,66.867,35.029,66.04z"/>
<path fill="#2D2416" d="M46.849,81.768c0.139,2.115,0.279,4.227,0.418,6.342c-1.063-0.052-2.129-0.104-3.192-0.153c-0.042-0.955-0.168-1.897-0.378-2.825c0.003-1.212,0.009-2.423,0.014-3.638c-0.003-0.003,0.345,0.253,0.345,0.253c0.47-0.684,0.941-1.367,1.413-2.048C45.929,80.389,46.389,81.079,46.849,81.768z"/>
<path fill="#291F11" d="M37.896,62.839c-0.21-1.038-0.42-2.072-0.63-3.11l1.224-0.949l1.55-0.024l1.254,0.91c-0.154,1.059-0.308,2.12-0.464,3.177c-0.003-0.003-1.468,0.063-1.468,0.063L37.896,62.839z"/>
<path fill="#2A2012" d="M31.502,78.381c-1.122-1.028-2.241-2.057-3.363-3.088c-0.951-1.057-1.328-2.289-1.126-3.696c0.397-1.364,1.239-2.344,2.527-2.938c0.656,0.184,1.313,0.363,1.967,0.546C31.505,72.263,31.504,75.323,31.502,78.381z"/>
<path fill="#2A2112" d="M35.029,66.04c-0.206,1.007-0.395,2.017-0.571,3.027c-0.982,0.104-1.964,0.152-2.949,0.137c-0.001,0,0.104,0.083,0.104,0.083c-0.781-0.58-1.15-1.252-1.108-2.018c0.044-0.812,0.168-1.218,0.371-1.218c1.145-0.857,2.214-0.771,3.209,0.26L35.029,66.04z"/>
<path fill="#725A38" d="M27.996,72.616c0.192,0.885,0.243,1.779,0.148,2.68c-0.864,0.092-1.724,0.158-2.583,0.195c-0.139-1.071-0.284-2.14-0.43-3.211c-0.001-0.003,0.54,0.379,0.54,0.379C26.413,70.916,27.187,70.812,27.996,72.616z"/>
<path fill="#231C11" d="M75.383,50.518c-0.085-1.166-0.171-2.328-0.256-3.491c-2.709-2.402-0.049-6.573-2.938-8.914l-0.019-0.699c-0.72-1.578-0.339-2.881,0.99-3.946c1.473-0.595,2.991-0.766,4.56-0.516c6.453,3.149,5.552,8.514,4.213,14.004c-0.708,1.355-1.535,2.637-2.498,3.824C78.027,51.623,76.671,51.587,75.383,50.518z"/>
<path fill="#1F180F" d="M75.383,50.518c0.986-0.021,1.974-0.04,2.959-0.052c1.918,2.026,1.961,4.156,0.342,6.375c-0.215,2.094-0.432,4.188-0.654,6.283c-0.896-0.063-1.787-0.106-2.68-0.125c-1.106-0.839-1.829-1.932-2.171-3.277c0.14-2.042,0.565-3.995,1.824-5.683C75.13,52.868,75.257,51.693,75.383,50.518z"/>
<path fill="#4D3D25" d="M72.19,38.113c0.979,2.972,1.959,5.945,2.939,8.914C74.148,44.055,73.169,41.082,72.19,38.113z"/>
<path fill="#3F311F" d="M66.015,50.256c-1.084,1.105-2.167,2.21-3.25,3.314c-2.106-1.758-1.494-3.769-0.537-5.811c1.159-0.986,2.496-1.313,3.986-1.062c0.788,0.836,1.02,1.645,0.699,2.42C66.599,49.878,66.298,50.256,66.015,50.256z"/>
<path fill="#201910" d="M66.015,50.256c-0.143-1.016-0.286-2.032-0.431-3.048c-1.651-1.911-1.633-3.949-0.451-6.07c1.333-0.977,2.602-0.849,3.813,0.226C67.968,44.329,66.991,47.293,66.015,50.256z"/>
<path fill="#201910" d="M69.04,66.03c0.016-1.01,0.02-2.022,0.011-3.033c-0.939-0.543-1.286-1.138-1.044-1.782c0.251-0.668,0.52-1.001,0.808-1.001c1.042-1.117,2.084-2.23,3.125-3.348c1.208,0.863,1.769,2.051,1.766,3.521c-0.059,2.036,0.48,4.229-1.54,5.734l0.023-0.04C71.139,66.064,70.09,66.049,69.04,66.03z"/>
<path fill="#372C1C" d="M68.946,41.363c-0.855-0.03-1.71-0.076-2.564-0.128c-2.322,1.623-3.651,0.482-4.621-1.664c0.086-1.465,0.737-2.573,2.047-3.268c1.375-0.351,2.737-0.317,4.092,0.098c0.533,0.448,1.067,0.897,1.6,1.346C69.314,38.952,69.129,40.158,68.946,41.363z"/>
<path fill="#201A10" d="M63.187,47.159c-0.14,2.139-0.279,4.279-0.421,6.415c-1.028,0.03-2.056,0.043-3.082,0.03c0.063-2.1,0.123-4.199,0.186-6.295c0.537-0.373,1.074-0.745,1.613-1.117C62.05,46.515,62.619,46.835,63.187,47.159z"/>
<path fill="#4D3D25" d="M72.254,59.796c-0.069-0.979-0.173-1.956-0.313-2.93c1.021-0.943,2.044-1.886,3.064-2.829c0.07,1.923,0.144,3.842,0.215,5.759c-0.494,0.696-0.99,1.389-1.484,2.081C73.241,61.184,72.748,60.488,72.254,59.796z"/>
<path fill="#4E3E26" d="M68.815,60.214c0.108,0.925,0.188,1.853,0.236,2.783c-1.009,0.03-2.011-0.024-3.009-0.165C66.968,61.957,67.892,61.084,68.815,60.214z"/>
<path fill="#211A11" d="M72.16,35.574c-0.003,0.616,0.002,1.233,0.011,1.846c-0.882,0.189-1.775,0.302-2.676,0.33c0.003-0.003-0.354,0.253-0.354,0.253c-0.659-0.681-0.882-1.364-0.667-2.051c0.217-0.687,0.434-1.029,0.652-1.029C70.319,34.289,71.34,34.466,72.16,35.574z"/>
<path fill="#997F48" d="M37.647,22.363c0.04-1.022,0.092-2.045,0.156-3.064c0.833-1.062,1.926-1.587,3.276-1.568c0.645,0.04,1.288,0.079,1.932,0.119c1.306,0.476,2.037,1.385,2.1,2.795c-0.592,2.093-2.023,3.189-4.132,3.476C39.644,23.959,38.533,23.37,37.647,22.363z"/>
<path fill="#9E834D" d="M37.647,22.363c1.128,0.015,2.255,0.03,3.383,0.049c0.539,1.385,0.303,2.627-0.704,3.723c-1.259,0.666-2.588,0.87-3.989,0.62c-0.551-0.424-1.102-0.845-1.651-1.27C35.673,24.444,36.66,23.404,37.647,22.363z"/>
<path fill="#BA9661" d="M31.534,25.485c1.05,0,2.101,0.003,3.152,0.003c0-0.003,0.011-0.019,0.011-0.019c0.821,1.166,0.841,2.344,0.055,3.54c-1.027,0.903-2.229,1.318-3.59,1.309c-1.354-0.143-2.527-0.687-3.549-1.575c-0.642-1.324-0.415-2.429,0.827-3.28l-0.067,0.015C29.428,24.209,30.483,24.212,31.534,25.485z"/>
<path fill="#B08C57" d="M31.534,25.485c-1.055,0-2.107-0.003-3.162-0.006c0.012-1.035,0.009-2.069-0.011-3.104C29.419,23.413,30.477,24.45,31.534,25.485z"/>
<path fill="#C8A46F" d="M40.915,19.235c-1.038,0.012-2.075,0.034-3.113,0.064c0.005-1.016,0.042-2.029,0.111-3.042c1.002-0.073,2.005-0.119,3.009-0.143l-0.005,0.009c0.67,0.519,1.34,1.041,2.01,1.56C42.257,18.197,41.587,18.716,40.915,19.235z"/>
<path fill="#9E834D" d="M28.44,25.464c0.063,1.05,0.127,2.1,0.191,3.146c-1.146,1.309-2.324,1.276-3.533,0.092c0,0,0.103,0.07,0.103,0.073c0.065-1.062,0.131-2.124,0.2-3.186C26.415,25.534,27.426,25.494,28.44,25.464z"/>
<path fill="#4D3D25" d="M87.448,38.202c-1.965,4.083-3.929,8.167-5.895,12.247c-0.453-0.629-0.907-1.257-1.361-1.886c-0.014-3.821-1.04-7.733,1.005-11.374C83.513,36.096,85.641,36.166,87.448,38.202z"/>
<path fill="#3E301E" d="M87.448,38.202c-1.927-0.012-3.854-0.024-5.781-0.04c-1.201,0.015-1.795-0.577-1.781-1.779c-0.188-0.995-0.701-1.77-1.549-2.329c-0.853-0.47-1.754-0.793-2.713-0.973c-1.123-0.324-1.637-1.065-1.547-2.231c0-0.003,0.515-1.382,0.516-1.386c0-0.006,1.479-0.049,1.479-0.049c3.96-1.196,7.919-2.393,11.881-3.589c0.052,1.053,0.105,2.109,0.16,3.165C87.893,32.064,87.671,35.135,87.448,38.202z"/>
<path fill="#3F311F" d="M78.684,56.842c-0.113-2.124-0.226-4.251-0.34-6.375c-0.002,0,0.408,0.149,0.408,0.149c0.802-2.197,1.769-2.276,2.905-0.231c0,0-0.104,0.066-0.104,0.063c-0.079,2.14-0.158,4.275-0.241,6.418c-0.004,0-1.316-0.036-1.316-0.036L78.684,56.842z"/>
<path fill="#352A1A" d="M72.254,59.796c0.991,0.052,1.981,0.055,2.969,0.006c0.038,1.063,0.08,2.13,0.124,3.198c-0.032,1.041-0.048,2.082-0.041,3.119c-1.047,0.003-2.094,0.003-3.141,0.003C72.195,64.014,72.225,61.904,72.254,59.796z"/>
<path fill="#9C814B" d="M44.057,16.122c2.072,0.021,4.144,0.04,6.214,0.058c0.974,1.352,0.979,2.67-0.145,3.946c-2.257,1.077-4.346,1.044-6.137-0.931l0.061,0.052c-1.013-0.696-1.347-1.392-1.01-2.084C43.378,16.47,43.717,16.122,44.057,16.122z"/>
<path fill="#A28751" d="M50.23,19.034c0.025-0.952,0.041-1.904,0.044-2.856c1.056-0.034,2.111-0.067,3.169-0.104c1.03,0.027,2.059,0.046,3.087,0.055c-0.003,1.056-0.004,2.115-0.008,3.17c-0.464,0.415-0.929,0.83-1.395,1.249C53.171,21.09,51.475,20.791,50.23,19.034z"/>
<path fill="#B2905A" d="M44.057,16.122c-0.006,1.041-0.009,2.082-0.008,3.125c-1.041,0-2.083-0.003-3.129-0.009c0.004-1.041,0.007-2.082,0.001-3.116C41.965,16.122,43.012,16.122,44.057,16.122z"/>
<path fill="#9E834D" d="M56.522,19.299c3.138,1.022,6.273,2.042,9.409,3.061l-0.041,0.024c1.086,2.774-0.509,4.123-2.734,5.133c-1.526,0.241-3.002,0.049-4.437-0.51c-2.58-2.084-4.095-4.462-2.131-7.788L56.522,19.299z"/>
<path fill="#B6925C" d="M62.839,25.516c1.017-1.044,2.034-2.087,3.051-3.131c2.134-0.027,4.269-0.058,6.405-0.085c0.002,0-0.078-0.04-0.078-0.04c1.087,0.918,1.627,2.078,1.529,3.513c-0.038,1.388-0.418,2.676-1.094,3.885c-0.981,0.998-2.143,1.682-3.49,2.06c-1.365,0.311-2.731,0.323-4.102,0.037c-1.294-0.571-2.354-1.425-3.186-2.57C61.436,27.759,61.718,26.525,62.839,25.516z"/>
<path fill="#BC9863" d="M72.223,25.702c-0.001-1.147-0.004-2.292-0.006-3.439c2.061,0.058,4.118,0.119,6.177,0.183c-1.091,1.065-2.182,2.127-3.271,3.192c-0.47,0.635-0.939,1.267-1.409,1.898C73.217,26.925,72.719,26.312,72.223,25.702z"/>
<path fill="#9A8049" d="M72.223,25.702c0.967-0.064,1.934-0.085,2.901-0.064c0.315,1.257,0.633,2.515,0.949,3.775c-0.002,0.003-0.203-0.442-0.203-0.442c-1.317,1.019-2.504,0.836-3.58-0.385C72.271,27.624,72.248,26.663,72.223,25.702z"/>
<path fill="#2E2516" d="M22.24,59.927c-1.092,0.007-2.185,0.013-3.277,0.019c0.116-2.002,0.23-4.004,0.346-6.006c1.056,1.028,2.11,2.054,3.167,3.076C23.305,58.059,23.186,59.027,22.24,59.927z"/>
<path fill="#2D2415" d="M34.084,66.311c-0.731-0.076-1.465-0.125-2.199-0.152c-1.222-0.458-2.116-1.288-2.728-2.43c-0.339-1.232-0.374-2.472-0.107-3.72c0.6-1.111,1.335-2.127,2.204-3.043c0.233-1.113,0.465-2.228,0.699-3.339c1.328-0.866,2.569-0.757,3.729,0.324c1.068,2.105,0.862,4.11-0.487,6.021C34.824,62.085,34.455,64.199,34.084,66.311z"/>
<path fill="#2D2416" d="M34.394,53.625c-0.816,0-1.633,0-2.444,0.003c-0.225-2.233-0.452-4.464-0.678-6.695c-1.221-2.64-2.151-5.197,1.749-6.448C39.447,44.241,39.328,48.682,34.394,53.625z"/>
<path fill="#2C2315" d="M25.019,56.991c1.218-0.021,2.436-0.04,3.653-0.058c0.967,0.928,1.395,2.063,1.28,3.399c-0.035,1.306-0.396,2.506-1.132,3.589c-1.224,0.546-2.439,0.528-3.646-0.055c-0.897-0.974-1.34-2.134-1.394-3.449C23.67,59.088,24.056,57.934,25.019,56.991z"/>
<path fill="#715936" d="M31.794,41.427c-0.174,1.834-0.348,3.671-0.522,5.505c-0.911-2.942-1.822-5.881-2.731-8.822l0.06,0.122C31.891,37.072,32.427,38.665,31.794,41.427z"/>
<path fill="#725A38" d="M25.019,56.991c0.174,0.962,0.273,1.935,0.297,2.911c-0.56,0.662-1.12,1.325-1.68,1.987c-0.51-0.702-1.018-1.404-1.527-2.106l0.129,0.144c-0.014-0.979,0.064-1.95,0.233-2.911C23.322,56.942,24.17,56.934,25.019,56.991z"/>
<path fill="#6C5431" d="M28.804,59.915c-0.167-0.989-0.212-1.987-0.134-2.984c0.865-0.046,1.728-0.037,2.586,0.033c0.047,0.995-0.014,1.983-0.185,2.963C30.306,61.785,29.551,61.687,28.804,59.915z"/>
<path fill="#534329" d="M31.794,41.427c-1.065-1.065-2.13-2.13-3.194-3.195c-0.099-1.081-0.2-2.164-0.3-3.244c1.163-0.089,2.325-0.174,3.488-0.263c1.636-1.788,3.644-2.688,6.085-2.561c2.354,0.482,4.077,1.893,5.489,3.748c0.789,1.275,1.367,2.646,1.733,4.098c0.159,1.465,0.149,2.939-0.028,4.404c-0.638,2.878-2.582,5.167-3.604,7.87c-0.648,2.771-1.236,5.576-3.338,7.722c0,0-0.854-0.275-0.858-0.275c-0.692,0.086-1.385,0.168-2.075,0.241c-0.262-2.114-0.528-4.232-0.796-6.351C33.527,49.558,32.66,45.492,31.794,41.427z"/>
<path fill="#B08C57" d="M25.098,28.702c1.175-0.031,2.352-0.061,3.53-0.092c0.984-0.003,1.965,0.006,2.948,0.031c0.343,0.519,0.687,1.041,1.03,1.56c-0.353,0.516-0.704,1.031-1.056,1.544C29.4,30.731,27.248,29.715,25.098,28.702z"/>
<path fill="#B38F5A" d="M37.702,35.696c-1.971-0.324-3.944-0.647-5.916-0.971c-0.129-0.989-0.21-1.983-0.236-2.981l0.063-0.012c0.936-1.086,2.133-1.648,3.554-1.758c1.419,0.177,2.576,0.824,3.475,1.935C38.951,33.325,38.639,34.588,37.702,35.696z"/>
<path fill="#372C1C" d="M22.109,59.783c1.069,0.04,2.138,0.08,3.207,0.119c0.021,0.922,0.011,1.841-0.032,2.762c0.874,0.797,1.156,1.581,0.845,2.356c-0.31,0.766-0.613,1.15-0.914,1.15l-1.387-0.009c0,0-1.388,0.033-1.384,0.036C22.336,64.062,22.223,61.923,22.109,59.783z"/>
<path fill="#4E3E27" d="M25.216,66.171c0.024-1.166,0.047-2.331,0.07-3.503c1.021,0.14,2.048,0.25,3.078,0.326c0.842-1.367,1.801-1.453,2.872-0.256c0.215,1.141,0.429,2.279,0.647,3.421c-0.088,1.043-0.18,2.084-0.27,3.128c-1.206,1.11-2.409,2.219-3.616,3.329h-1.165c0,0-1.164,0.04-1.163,0.043C25.519,70.495,25.368,68.335,25.216,66.171z"/>
<path fill="#504028" d="M47.457,72.521c0.017-3.213,0.035-6.43,0.052-9.646c0.85-1.755,1.696-1.755,2.537,0.006c0.007,3.198,0.017,6.396,0.024,9.595C49.215,73.468,48.345,73.483,47.457,72.521z"/>
<path fill="#201A10" d="M53.125,45.166c0.104,2.832,0.209,5.664,0.314,8.496c-0.879-0.092-1.758-0.189-2.635-0.293c-0.578-0.29-1.157-0.577-1.736-0.867c-1.396-1.547-1.789-3.359-1.426-5.374c0.494-1.218,1.253-2.234,2.314-3.015C51.299,43.603,52.355,43.954,53.125,45.166z"/>
<path fill="#5C492E" d="M50.045,62.881l-1.273,0.016c0,0-1.271-0.019-1.268-0.021c-0.296-3.101-0.595-6.201-0.896-9.302c0.581-0.348,1.161-0.695,1.741-1.04c0.557,0.381,1.113,0.766,1.669,1.15c0,0,0.779-0.312,0.783-0.314C50.551,56.54,50.298,59.711,50.045,62.881z"/>
<path fill="#5C492E" d="M47.457,72.521c0.872-0.039,1.745-0.055,2.614-0.046c-0.13,2.158-0.256,4.315-0.386,6.474c-0.753-0.08-1.505-0.15-2.257-0.211c-2.094-2.026-2.15-4.172-0.377-6.424L47.457,72.521z"/>
<path fill="#312819" d="M47.051,72.314c0.121,2.139,0.243,4.278,0.371,6.421c-0.159,1.016-0.346,2.026-0.566,3.033c-0.938-0.013-1.869-0.021-2.8-0.021c0.015-3.134,0.029-6.269,0.045-9.405C45.086,72.353,46.068,72.345,47.051,72.314z"/>
<path fill="#BC9863" d="M59.499,38.69c-0.879-0.464-1.812-0.625-2.796-0.482c-0.668-0.128-1.336-0.26-2.005-0.388c-1.167-0.76-1.999-1.801-2.54-3.076c-0.084-1.392,0.251-2.673,1.001-3.849c1.015-0.924,2.187-1.563,3.529-1.864c1.365-0.016,2.648,0.308,3.847,0.964c1.091,0.772,2.087,1.66,2.982,2.655c0.248,0.62,0.495,1.239,0.742,1.855c0.065,1.404-0.482,2.527-1.562,3.406l0.146,0.134C61.968,39.505,60.864,39.779,59.499,38.69z"/>
<path fill="#B38F59" d="M56.703,38.208c-0.027,0.967-0.079,1.935-0.158,2.899c-1.456,1.575-3.49,1.517-5.37,1.898c-1.88,0.638-3.77,1.087-5.743,0.403c-1.176-0.684-2.003-1.657-2.485-2.93c-0.092-1.358,0.22-2.616,0.932-3.775c0.958-0.961,2.093-1.624,3.384-2.029c2.088-0.259,3.923,0.491,5.712,1.425c1.297,0.366,2.477,0.958,3.522,1.81L56.703,38.208z"/>
<path fill="#4D3D25" d="M59.499,38.69c1.115-0.213,2.229-0.427,3.345-0.644c1.176,1.062,2.353,2.124,3.534,3.189c-0.262,1.993-0.525,3.982-0.792,5.972c-0.803,0.015-1.604,0-2.402-0.046c0.003-0.003-0.621,0.29-0.621,0.29c-0.942-1.007-1.905-1.993-2.889-2.963C59.616,42.557,59.557,40.625,59.499,38.69z"/>
<path fill="#473923" d="M50.211,41.955c2.111-0.284,4.224-0.564,6.334-0.848c-1.14,1.349-2.28,2.701-3.42,4.056c-0.691-0.333-1.354-0.717-1.992-1.144c-0.531-0.177-1.063-0.351-1.595-0.525C49.762,42.98,49.987,42.468,50.211,41.955z"/>
<path fill="#1C160C" d="M59.674,44.488c0.965,0.989,1.928,1.975,2.891,2.963c-0.9-0.049-1.801-0.098-2.696-0.144C59.801,46.368,59.736,45.428,59.674,44.488z"/>
<path fill="#725A38" d="M43.657,59.683l-1.186,0.028c0,0-1.184-0.043-1.181-0.046c0.003,0-0.639,0.332-0.639,0.332c-2.01-2.688-1.277-5.603-0.704-8.502c0.989-1.202,2.261-1.745,3.813-1.624c0.85,0.715,1.247,1.521,1.188,2.414c-0.063,0.94-0.206,1.41-0.432,1.41C44.23,55.691,43.943,57.687,43.657,59.683z"/>
<path fill="#382D1C" d="M44.516,53.695c-0.25-1.016-0.499-2.035-0.749-3.055c-0.551-3.079,0.824-3.9,3.605-3.07c1.431,1.98,1.697,4.001,0.192,6.076c0,0-0.943-0.073-0.949-0.073C45.911,53.619,45.214,53.659,44.516,53.695z"/>
<path fill="#2D2415" d="M41.219,50.43c-0.188,3.189-0.377,6.375-0.566,9.567c-0.001,0-1.27-0.024-1.27-0.024s-1.268,0.031-1.264,0.034c-0.064-3.149-0.131-6.299-0.198-9.445c0.534-0.409,1.068-0.818,1.604-1.224C40.09,49.701,40.655,50.063,41.219,50.43z"/>
<path fill="#392E1C" d="M81.657,50.385c-0.97,0.072-1.94,0.149-2.908,0.229c-1.238-5.31-2.482-10.623-3.726-15.934c-0.179-0.766-0.355-1.532-0.534-2.298c0.751-0.229,1.501-0.461,2.254-0.692c1.431,0.012,2.86,0.021,4.292,0.03c0.975,0.467,1.39,1.05,1.245,1.752c-0.157,0.76-0.371,1.138-0.641,1.138c0.009,1.184,0.017,2.368,0.025,3.552C81.664,42.236,81.661,46.31,81.657,50.385z"/>
<path fill="#745F3E" d="M76.743,31.689c-0.572,0.998-1.145,1.996-1.719,2.99c-0.95,0.312-1.905,0.607-2.864,0.892c0,0.003-1.393-0.199-1.393-0.199l-1.386,0.244c-0.399-0.509-0.801-1.019-1.202-1.529c0.052-1.355,0.58-2.466,1.661-3.302c1.887-0.528,3.772-1.065,5.196,0.943C75.6,31.518,76.169,31.503,76.743,31.689z"/>
<path fill="#5E4B2D" d="M62.698,37.912c0.046-1.028,0.06-2.06,0.043-3.088c1.868-1.688,3.871-1.944,6.03-0.577c0,0,0.609,1.364,0.61,1.367c-0.13,0.793-0.21,1.59-0.244,2.39C66.992,37.973,64.846,37.942,62.698,37.912z"/>
<path fill="#BB9761" d="M56.588,19.22c1.023,2.09,2.049,4.181,3.074,6.271c-0.972,1.929-2.631,2.777-4.695,2.991c-2.64,0.11-5.226,0.628-7.835,0.986c-2.089,0.045-3.876-0.659-5.342-2.155c-0.276-0.604-0.551-1.208-0.824-1.816c0.006-1.028,0.028-2.06,0.064-3.088c0.987-1.071,1.973-2.142,2.96-3.213c2.08-0.055,4.161-0.107,6.241-0.162C52.349,19.095,54.468,19.159,56.588,19.22z"/>
<path fill="#B38F59" d="M34.649,28.692c0.015-1.074,0.032-2.148,0.049-3.223c2.089,0.009,4.176,0.019,6.267,0.027c0.001,0-0.046-0.058-0.046-0.058c0.724,1.37,0.523,2.624-0.473,3.784c-1.272,0.732-2.635,0.952-4.077,0.738C35.795,29.541,35.221,29.117,34.649,28.692z"/>
<path fill="#9E834D" d="M34.655,31.741c-1.015-0.003-2.029-0.006-3.044-0.009c-0.03-1.028-0.043-2.06-0.037-3.091c1.025,0,2.051,0.015,3.075,0.052l-0.011-0.061c0.679,0.513,1.358,1.028,2.037,1.544C36.002,30.697,35.329,31.219,34.655,31.741z"/>
<path fill="#B38F5A" d="M75.037,31.729c-2.002,0-4.004,0.003-6.005,0.006c-0.389-0.491-0.778-0.979-1.165-1.468c0.343-0.522,0.685-1.043,1.028-1.565c1.13-0.04,2.261-0.077,3.394-0.116c1.191,0.125,2.38,0.25,3.575,0.381C75.824,29.959,75.547,30.88,75.037,31.729z"/>
<path fill="#4E3E26" d="M81.64,34.61c-0.138-0.974-0.335-1.938-0.599-2.89c0.284,0.623,0.638,1.221,0.832,1.871C81.96,33.88,81.728,34.268,81.64,34.61z"/>
<path fill="#A3854F" d="M53.48,25.54c2.062-0.016,4.121-0.034,6.183-0.049c1.059,0.006,2.116,0.015,3.177,0.024c-0.073,1.004-0.134,2.011-0.187,3.018c-0.619,1.096-1.558,1.669-2.813,1.721c-1.761-0.092-3.532-0.027-5.279-0.323c-0.977-0.702-1.596-1.645-1.855-2.82C52.962,26.587,53.22,26.065,53.48,25.54z"/>
<path fill="#B8945F" d="M59.678,28.625c0.993-0.04,1.986-0.07,2.979-0.088c1.137,0.037,2.277,0.077,3.418,0.119c1.08,0.943,2.057,1.984,2.943,3.113l0.015-0.034c-0.024,0.842-0.111,1.682-0.261,2.512c-2.01,0.192-4.02,0.384-6.03,0.577l0.021,0.043c-0.998-1.028-2.004-2.048-3.017-3.058l-0.082-0.055c-0.661-0.525-1.322-1.047-1.982-1.572C58.347,29.663,59.012,29.144,59.678,28.625z"/>
<path fill="#9E834D" d="M69.018,31.768c-0.983-1.038-1.964-2.075-2.945-3.116c0.943,0.009,1.885,0.024,2.824,0.049C68.955,29.724,68.996,30.746,69.018,31.768z"/>
<path fill="#715A37" d="M31.235,62.738c-0.955,0.106-1.912,0.191-2.872,0.256c0.06-1.037,0.205-2.066,0.438-3.079c0.76-0.006,1.518-0.003,2.273,0.012C31.266,60.854,31.319,61.792,31.235,62.738z"/>
<path fill="#58462C" d="M46.959,47.384c-1.062,1.083-2.125,2.17-3.189,3.256c-0.852-0.092-1.701-0.162-2.553-0.211c0.001,0-0.955,0.33-0.955,0.33c-1.12-2.186-1.172-4.275,0.554-6.208c0.092-1.285,0.182-2.569,0.273-3.854c1.212-1.053,2.316-0.895,3.327,0.296l-0.441-0.162c0.88,0.885,1.889,1.587,3.027,2.103c0.917,0.9,1.386,1.99,1.4,3.274C47.922,46.6,47.442,46.994,46.959,47.384z"/>
<path fill="#9F844E" d="M37.702,35.696c0.049-1.306,0.096-2.609,0.144-3.916c1.207-0.723,2.397-0.666,3.577,0.07c0.871,1.013,1.358,2.194,1.512,3.516c-0.167,0.631-0.334,1.263-0.5,1.895c-0.408,0.513-0.815,1.025-1.223,1.535C40.043,37.762,38.872,36.73,37.702,35.696z"/>
<path fill="#382D1C" d="M40.816,44.552c-0.183,2.069-0.365,4.135-0.551,6.205c-0.783-0.086-1.563-0.153-2.345-0.198C38.886,48.557,39.852,46.554,40.816,44.552z"/>
<path fill="#3C2F1C" d="M44.416,40.994c-1.109-0.095-2.22-0.192-3.328-0.293c0.067-0.635,0.108-1.27,0.124-1.904l-0.345-0.989c0.528-0.33,1.055-0.659,1.583-0.989c0.412,0.464,0.824,0.931,1.236,1.397C43.932,39.142,44.176,40.069,44.416,40.994z"/>
<path fill="#BB9762" d="M40.902,31.774l-1.53-0.009c0,0-1.529,0.012-1.527,0.012c-1.061-0.009-2.124-0.024-3.188-0.037c0.01-1.038,0.006-2.075-0.017-3.113c2.1-0.006,4.201-0.015,6.3-0.021c0,0,0.908,0.94,0.913,0.94c0.003,0-0.015,1.313-0.014,1.313C41.842,30.859,40.902,31.774,40.902,31.774z"/>
<path fill="#705835" d="M47.565,53.646c-0.2-2.087-0.4-4.175-0.603-6.262c-0.003,0,0.924,0,0.924,0c0.634-0.015,1.267-0.03,1.9-0.045c0.079,2.111,0.158,4.227,0.234,6.341C49.201,53.656,48.383,53.643,47.565,53.646z"/>
<path fill="#745C39" d="M49.787,47.339c-0.637,0.006-1.273,0.021-1.904,0.045c-0.191-0.867-0.345-1.743-0.457-2.627c0.393-0.699,0.788-1.401,1.182-2.1c0.54,0.592,1.082,1.187,1.622,1.782c0,0,0.882-0.418,0.893-0.421C50.684,45.123,50.236,46.231,49.787,47.339z"/>
<path fill="#B9955F" d="M40.937,34.866c-0.026-1.032-0.037-2.06-0.035-3.092l0.017-0.049c1.47-1.559,3.208-2.633,5.345-3c2.164-0.388,4.127,0.024,5.839,1.453c0.444,0.537,0.889,1.071,1.332,1.608c0.032,1.159,0.064,2.316,0.095,3.476c0.818,0.54,1.115,1.117,0.896,1.725c-0.228,0.625-0.468,0.937-0.723,0.937c-2.193,0.021-4.388,0.043-6.582,0.064c-0.85-0.895-1.888-1.413-3.114-1.554C42.763,36.343,41.739,35.818,40.937,34.866z"/>
<path fill="#B38F5A" d="M59.678,28.625c-0.005,1.044-0.008,2.084-0.014,3.128c-2.077,0.009-4.154,0.018-6.229,0.03c0,0.003-0.024-0.07-0.024-0.07c-0.394-0.513-0.785-1.022-1.184-1.535c0.375-0.522,0.755-1.047,1.135-1.569C55.466,28.613,57.572,28.619,59.678,28.625z"/>
<path fill="#9C7F4D" d="M59.746,31.808c1.006,1.02,2.011,2.039,3.017,3.058C61.757,33.847,60.752,32.828,59.746,31.808z"/>
<path fill="#9C7F4D" d="M53.703,37.924c-0.063-0.888-0.122-1.779-0.174-2.664c0.99,0.885,1.979,1.767,2.968,2.649L55.1,37.906L53.703,37.924z"/>
<path fill="#3C2F1C" d="M50.231,44.439c-0.946,0-1.881,0.104-2.804,0.314c-1.149-1.306-2.3-2.615-3.45-3.925c2.077,0.375,4.157,0.751,6.235,1.126C50.182,42.782,50.188,43.609,50.231,44.439z"/>
<path fill="#A28751" d="M44.111,34.909c1.004,1.025,2.008,2.054,3.011,3.08c-1.145,0.076-2.291,0.152-3.437,0.229l0.243,0.021c-0.979-0.796-1.279-1.557-0.899-2.276C43.398,35.26,43.758,34.909,44.111,34.909z"/>
<path fill="#B38F5A" d="M47.146,25.564c2.111-0.006,4.222-0.016,6.332-0.024c0.002,0-0.035-0.043-0.035-0.043c-1.329,1.618-2.997,1.993-4.943,1.349C48.049,26.419,47.597,25.992,47.146,25.564z"/>
<path fill="#9E834D" d="M40.94,28.607c-0.006-1.056-0.014-2.112-0.021-3.167c2.077,0.04,4.154,0.082,6.229,0.125c-0.001,0-0.026-0.058-0.026-0.058c0.74,1.364,0.59,2.619-0.453,3.769c-2.042,0.891-4.041,1.4-5.751-0.644L40.94,28.607z"/>
<path fill="#BD9964" d="M47.252,28.634c-0.042-1.043-0.085-2.084-0.129-3.128c2.106-0.003,4.212-0.006,6.32-0.009c-0.032,1.038-0.058,2.075-0.081,3.113l0.063-0.024c-1.298,1.685-3.094,1.566-4.916,1.358C48.09,29.507,47.671,29.071,47.252,28.634z"/>
<path fill="#B6925C" d="M44.111,34.909c-0.06,1.105-0.119,2.212-0.18,3.324c-1.018-0.177-2.037-0.317-3.063-0.424c0.023-0.983,0.046-1.962,0.069-2.942C41.994,34.878,43.053,34.893,44.111,34.909z"/>
<path fill="#B6925C" d="M40.917,28.631c2.11,0,4.222,0,6.334,0.003c0.001,0-0.081-0.049-0.081-0.049c0.667,0.513,1.335,1.022,2.003,1.535c-0.651,0.534-1.303,1.065-1.953,1.599c-2.101,0.003-4.201,0.003-6.302,0.006C40.918,30.694,40.917,29.663,40.917,28.631z"/>
<path fill="#9E834D" d="M47.22,31.72c-0.017-1.044-0.034-2.087-0.05-3.134c2.084,0,4.17,0.003,6.254,0.003c-0.004,1.041-0.007,2.084-0.014,3.128C51.346,31.717,49.283,31.717,47.22,31.72z"/>
</svg>