<?xml version="1.0" encoding="utf-8"?>
<!DOCTYPE svg PUBLIC "-//W3C//DTD SVG 1.1//EN" "http://www.w3.org/Graphics/SVG/1.1/DTD/svg11.dtd">
<svg version="1.1" xmlns="http://www.w3.org/2000/svg" xmlns:xlink="http://www.w3.org/1999/xlink" x="0px" y="0px" width="100px" height="100px" viewBox="0 0 100 100" enable-background="new 0 0 100 100" xml:space="preserve">
<path fill="#41281D" d="M93.716,56.369c0.006,3.036,0.01,6.073,0.017,9.109c-2.73,1.709-4.464,4.392-6.55,6.729c-1.425,1.251-1.936,3.332-3.753,4.22c-0.838,0.953-1.66,1.911-2.419,2.927c-1.257,2.326-3.63,3.498-5.428,5.262l0.165-0.184c-1.875,1.712-4.846,1.224-6.557,3.266l0.258-0.089c-1.303,0.864-2.656,1.584-4.309,1.435c-1.087,0.01-2.161,0.016-3.258,0.03c-1.161,0.067-2.265,0.306-3.333,0.77c-3.424,1.557-6.817,3.427-10.561,0.827c-0.951-1.028-1.604-2.191-1.914-3.55c-0.281-2.816-0.246-5.624-0.167-8.438c0.27-10.629,9.892-17.7,10.624-28.155c0.237-2.652,1.41-5.084,1.618-7.755c0.126-1.419,0.305-2.811,0.513-4.218c0.489-1.4,1.188-2.661,2.146-3.787c2.302-1.971,5.078-3.073,7.737-4.376c2.146-0.613,4.335-0.662,6.534-0.455c2.217,0.415,3.848,1.667,5.002,3.568c0.543,0.418,1.091,0.848,1.652,1.266c2.027,0.348,4.234,0.046,5.694,1.792c1.442,2.579,2.091,5.268,1.948,8.188c1.226,1.853-1.286,3.702,0.194,5.585c0.081,0.622,0.261,1.229,0.396,1.853c0.279,0.564,0.602,1.11,0.919,1.66C91.755,54.77,92.699,55.609,93.716,56.369z"/>
<path fill="#955B41" d="M28.603,13.031c0.911-0.348,1.851-0.55,2.824-0.607c1.106-0.879,2.239-1.728,3.395-2.542c0.956-0.354,1.937-0.607,2.944-0.76c0.567,0.049,1.135,0.095,1.704,0.141c1.138,0.061,2.277,0.055,3.415-0.019c1.695-0.235,3.314-0.836,5.011-1.071c1.755,0.021,3.361,0.622,4.964,1.26c1.628,0.668,3.299,1.168,5.047,1.428c1.813,0.259,3.528,0.833,5.227,1.501c1.186,0.452,2.268,1.062,3.267,1.843c1.084,0.729,2.265,1.181,3.545,1.4c1.311,0.195,2.499,0.672,3.578,1.429c1.009,0.845,1.869,1.815,2.568,2.926c0.128,1.313-0.108,2.554-0.757,3.705c-0.794,0.995-1.698,1.889-2.713,2.658c-1.54,1.025-3.066,2.084-4.551,3.187c-0.47,0.369-0.953,0.735-1.425,1.099c-0.895,0.757-1.784,1.535-2.644,2.319c-0.913,0.659-1.913,1.193-2.952,1.611c-1.595-0.067-2.943-0.91-4.34-1.505c-0.862-0.152-1.764-0.269-2.629-0.333c-0.72-0.14-1.443-0.397-2.024-0.723c0.102,0.04-0.767-0.312-0.61-0.253c0.153,0.055-0.42-0.14-0.237-0.07c0.184,0.067,0-0.045,0.199,0c0.196,0.046,0.37,0.171,0.538,0.256s0.719,0.29,0.859,0.36c0.139,0.073,0.988,0.366,1.112,0.396c1.619,0.214,3.13,0.336,4.459,1.297c1.026,0.919,1.534,2.011,1.5,3.378c-0.333,1.382-0.942,2.585-1.812,3.687c-1.271,0.711-2.577,1.276-3.955,1.709c-3.505,1.227-6.929,2.725-10.753,2.536c-2.26,0.018-4.515,0.003-6.749-0.388c-2.208-0.644-4.053-1.944-5.91-3.226c-3.964-2.243-9.215-2.762-11.031-7.962c-0.725-1.264-1.378-2.606-2.128-3.882c-0.929-1.151-1.593-2.454-2.049-3.857c0.049-1.471,0.479-2.832,1.277-4.071c1.629-1.407,3.56-2.408,5.232-3.756C24.658,17.029,27.054,15.579,28.603,13.031z"/>
<path fill="#5E3929" d="M7.312,68.777c-0.003-4.184-0.005-8.368-0.008-12.552c1.538-7.056,4.462-12.991,12.158-15.106c4.739-3.241,7.042,2.066,10.643,2.924c0.655,0.085,1.262,0.256,1.919,0.354c0.583,0.302,1.117,0.677,1.682,1.013c0.453,0.461,0.877,0.958,1.332,1.428c1.45,1.382,3.024,2.633,4.297,4.211c0.854,1.117,1.689,2.228,2.541,3.348c3.693,5.808,5.866,11.49-1.236,16.373c-0.658,0.628-1.408,1.288-2.051,1.91c0.114-0.03-0.834,0.839-0.705,0.852c0.13,0.015-0.456,0.982-0.31,1.034c0.148,0.055,0.024,1.16,0.167,1.221c0.14,0.059,0.441,1.258,0.566,1.313c0.646,0.995,0.977,1.996,1.142,3.122c0.07,1.272,0.036,2.484-0.078,3.735c-0.271,1.361-0.944,2.432-2.034,3.262c-1.861,0.886-3.703,1.811-5.746,0.547l0.323-0.052c-1.756-2.058-4.739-1.6-6.689-3.26l0.452,0.128c-1.769-2.02-4.735-1.59-6.672-3.262l0.084,0.241c-0.719-1.081-1.402-2.183-2.053-3.309c-0.757-1.08-1.7-1.953-2.816-2.648C10.974,74.279,9.485,71.18,7.312,68.777z"/>
<path fill="#41291D" d="M84.898,53.125c-2.078-2.091-4.156-4.181-6.234-6.269c1.745-1.724,5.484-2.447,3.116-6.229c-2.085,0-4.169-0.003-6.254-0.003l0,0c-0.027-2.203-0.053-4.404-0.08-6.607c-3.304-4.013-0.652-6.384,2.383-8.649c1.171-0.799,2.443-1.373,3.832-1.678c2.783-0.29,5.586,0.335,8.367-0.162c1.431-0.101,2.717,0.293,3.879,1.12c-0.06,9.5-0.117,19-0.177,28.5C90.779,55.716,87.835,55.819,84.898,53.125z"/>
<path fill="#965D44" d="M56.776,15.625c-2.089-0.003-4.176-0.003-6.264-0.006c-0.977-1.087-2.111-2.018-3.083-3.107c-2.09-0.003-4.181-0.006-6.271-0.009c-0.736-0.784-1.489-1.55-2.263-2.295c-0.369-0.369-0.746-0.729-1.129-1.086c11.699-11.16,21.644-4.059,31.591,3.034c1.155,1.547,3.257,1.962,4.317,3.619c0.456,1.367-0.013,2.338-1.274,2.97c-2.088,0-4.177,0-6.264-0.003c-1.001-1.08-2.092-2.072-3.122-3.125l0.026,0.019C60.955,13.806,58.867,13.629,56.776,15.625z"/>
<path fill="#613D2C" d="M19.24,46.854c-1.683,2.655-3.366,5.313-5.646,8.908c-1.369,0.101-3.829,0.284-6.29,0.464c-0.006-4.163-0.012-8.322-0.018-12.485c3.354-3.415,6.002-8.16,12.097-6.402C23.377,40.57,23.599,43.747,19.24,46.854z"/>
<path fill="#40271B" d="M78.651,78.128c-1.04-0.003-2.082-0.003-3.123-0.003c-1.275-6.21,3.728-8.444,7.327-11.569c6.44,0.925,12.006,2.499,8.279,11.041c-3.061,1.318-6.121,2.637-9.181,3.955C79.729,81.494,79.551,79.462,78.651,78.128z"/>
<path fill="#5E3B2B" d="M19.284,78.085c-0.066,1.16-0.131,2.316-0.195,3.477c-3.926-4.261-7.853-8.524-11.777-12.785c3.992,2.091,7.983,4.178,11.975,6.269c0,0-0.324,1.456-0.322,1.456c0.003,0-1.478,0.085-1.478,0.085s1.482,0.046,1.483,0.046S19.284,78.085,19.284,78.085z"/>
<path fill="#41281D" d="M50.867,87.378c4.051-1.001,8.104-2.002,12.155-3.003l0.003,0.003c0.001,1.041,0.003,2.081,0.003,3.122c0,0,0.024,1.275,0.021,1.275s0.797,0.995,0.797,0.995c0.001-0.003-0.691,1.068-0.691,1.068c-4.291,1.843-8.582,3.689-12.873,5.532C47.356,93.17,45.657,90.048,50.867,87.378z"/>
<path fill="#422A1E" d="M91.134,77.597c-3.12-2.95-6.239-5.901-9.358-8.85c-1.028-3.116-0.34-4.511,3.127-3.122c2.943-0.049,5.886-0.098,8.829-0.146C92.865,69.52,92,73.557,91.134,77.597z"/>
<path fill="#623E2D" d="M16.147,40.637c-2.954,1.035-5.907,2.069-8.861,3.104c0.012-3.106,0.024-6.216,0.035-9.326c1.822-2.234,3.842-4.007,7.045-3.018C18.103,33.872,19.058,36.884,16.147,40.637z"/>
<path fill="#5D3929" d="M13.045,34.356c-1.907,0.019-3.814,0.04-5.723,0.058c-0.031-3.223-0.061-6.445-0.092-9.668c5.496-3.439,9.378,0.4,13.536,3.009c1.233,1.327,1.66,2.872,1.286,4.642C19.809,36.56,16.231,34.552,13.045,34.356z"/>
<path fill="#955A40" d="M72.4,18.744c0.008-1.02,0.014-2.036,0.019-3.055c1.077-1.331,2.217-1.456,3.427-0.177c3.032,1.251,6.063,2.502,9.095,3.753c0.983,0.913,1.521,2.039,1.614,3.378c-0.089,3.131-3.146,3.833-4.711,5.755l0.086-0.045c-2.062,1.328-3.966,0.375-5.881-0.403c-1.011-0.998-1.567-2.207-1.671-3.623c0.096-2.13-0.428-4.043-1.983-5.591L72.4,18.744z"/>
<path fill="#5E3828" d="M47.418,96.332c-3.169-1.792-6.338-3.58-9.507-5.371c-2-2.033-1.595-4.56-1.445-7.034c-0.073-1.719,0.353-3.3,1.274-4.752c5.873-2.759,7.071,1.801,8.757,5.591C47.113,88.596,50.649,92.193,47.418,96.332z"/>
<path fill="#955B42" d="M19.122,28.43c-3.964-1.227-7.928-2.454-11.893-3.684c2.989-1.816,5.979-3.634,8.968-5.45c1.076,0.546,1.683,1.407,1.743,2.627c0.067,1.172,0.506,2.182,1.315,3.03l0.031,0.055c0.959,0.809,1.254,1.583,0.888,2.329C19.814,28.067,19.464,28.43,19.122,28.43z"/>
<path fill="#955A40" d="M81.843,28.399c1.021-2.179,2.042-4.357,3.063-6.537c1.115-1.245,2.265-1.279,3.447-0.095c0.968,0.07,1.902,0.281,2.808,0.629c0.895,0.46,1.193,0.921,0.9,1.388c-0.293,0.467-0.588,0.702-0.89,0.702C88.061,25.791,84.954,27.097,81.843,28.399z"/>
<path fill="#432B1F" d="M84.898,53.125c2.943,0.006,5.889,0.016,8.832,0.024c-0.005,1.074-0.009,2.146-0.015,3.22c-2.938-0.04-5.877-0.079-8.814-0.119h0.002C84.901,55.209,84.9,54.166,84.898,53.125z"/>
<path fill="#613E2C" d="M47.418,96.332c-1.046-2.945-2.093-5.887-3.14-8.832c2.033-2.39,3.998-2.021,5.919,0.144c0,0,0.664-0.266,0.667-0.266c-0.192,2.997-0.388,5.997-0.582,8.993l-1.434,0.125L47.418,96.332z"/>
<path fill="#41281D" d="M78.651,78.128c1.101,1.142,2.201,2.283,3.301,3.424c-2.122,1.02-4.245,2.039-6.369,3.062C76.605,82.452,77.63,80.289,78.651,78.128z"/>
<path fill="#9B6549" d="M28.603,13.031c-2.069,1.904-4.138,3.805-6.208,5.707c-0.478-0.433-0.955-0.87-1.433-1.303c0.496-0.415,0.992-0.83,1.488-1.242C24.501,15.14,26.552,14.087,28.603,13.031z"/>
<path fill="#5F3B2B" d="M38.027,84.375c-0.038,2.194-0.078,4.392-0.116,6.586c-2.107-1.065-4.215-2.134-6.32-3.198c1.103-1.13,2.208-2.259,3.311-3.388c0.521-0.76,1.042-1.517,1.563-2.276C36.985,82.858,37.506,83.615,38.027,84.375z"/>
<path fill="#9B644B" d="M75.845,15.512c-1.142,0.058-2.284,0.116-3.427,0.177c-1.021-1.178-2.04-2.356-3.062-3.534C71.521,13.275,73.683,14.395,75.845,15.512z"/>
<path fill="#9C644A" d="M16.15,21.823c0.02-0.842,0.035-1.685,0.047-2.527c0.874-0.363,1.781-0.595,2.721-0.702c1.221-1.187,2.38-1.077,3.49,0.162l-0.013-0.018c-1.048,1.065-2.095,2.13-3.143,3.198C18.174,23.157,17.139,23.117,16.15,21.823z"/>
<path fill="#623E2D" d="M19.004,81.32c2.223,1.09,4.446,2.179,6.671,3.266C23.451,83.496,21.227,82.41,19.004,81.32z"/>
<path fill="#5F3B2B" d="M25.224,84.454c2.229,1.087,4.457,2.176,6.688,3.263C29.683,86.627,27.454,85.541,25.224,84.454z"/>
<path fill="#41281D" d="M69.191,87.698c2.185-1.086,4.37-2.176,6.557-3.266C73.563,85.523,71.378,86.612,69.191,87.698z"/>
<path fill="#432A1E" d="M63.028,87.5c2.14,0.037,4.278,0.073,6.42,0.106c-2.097,1.077-4.196,2.151-6.295,3.229c0.002,0.003-0.177-0.522-0.177-0.522c-0.724-0.635-0.958-1.26-0.703-1.88c0.251-0.613,0.5-0.922,0.747-0.922L63.028,87.5z"/>
<path fill="#9C6348" d="M88.353,21.768c-1.149,0.034-2.298,0.064-3.447,0.098c0.005-0.87,0.016-1.736,0.034-2.604C86.078,20.099,87.216,20.935,88.353,21.768z"/>
<path fill="#955B41" d="M22.408,18.756c-1.165-0.055-2.327-0.109-3.49-0.162c1.178-0.802,2.354-1.602,3.532-2.402C22.437,17.047,22.422,17.901,22.408,18.756z"/>
<path fill="#9B6447" d="M34.822,9.882c-1.132,0.848-2.264,1.696-3.395,2.542C32.559,11.578,33.69,10.73,34.822,9.882z"/>
<path fill="#955E45" d="M91.172,24.487c-0.005-0.696-0.01-1.395-0.011-2.09c0.915,0.75,1.831,1.501,2.746,2.252l-1.374,0.037L91.172,24.487z"/>
<path fill="#41281D" d="M63.037,56.244c-4.023,7.263-8.046,14.523-12.067,21.786c-0.771-0.058-1.541-0.119-2.313-0.177c-1.359-0.854-2.186-2.084-2.543-3.638c-0.421-3.839-0.203-7.696-0.332-11.542c-0.061-3.061-0.604-6.104-0.338-9.174c0.137-1.52,0.277-3.039,0.417-4.559c0.119-2.347,0.771-4.483,2.461-6.205c1.78-1.703,3.99-2.069,6.331-2.039c1.55,0.012,3.021,0.357,4.415,1.035c1.929,2.447,4.97,3.628,6.902,6.07C66.71,51.215,64.682,53.662,63.037,56.244z"/>
<path fill="#5F3B2A" d="M50.197,87.644c-1.973-0.046-3.946-0.095-5.919-0.144c-2.084-2.084-4.168-4.166-6.251-6.25c-1.042,1.432-2.083,1.432-3.125,0l-0.011-0.07c-1.558-3.494-2.196-6.903,0.88-9.979c1.033-0.979,2.216-1.742,3.537-2.279c2.729-0.58,5.513-1.386,7.388,1.715c0.64,1.202,1.256,2.42,1.848,3.647c0.381,1.309,0.909,2.554,1.606,3.729c0,0,0.812,0.019,0.814,0.019C50.712,81.234,50.455,84.44,50.197,87.644z"/>
<path fill="#3F261A" d="M63.037,56.244c-0.011-3.131-0.021-6.266-0.031-9.396c-0.49-0.519-0.979-1.041-1.468-1.56c0.497-0.513,0.994-1.025,1.492-1.538c2.529,1.44,5.06,2.878,8.96,5.094C68.242,51.941,65.639,54.093,63.037,56.244z"/>
<path fill="#955D43" d="M78.65,24.994c1.094,1.12,2.187,2.237,3.279,3.36c-2.161,1.889-4.321,3.778-6.483,5.664c-1.966,0.177-3.933,0.354-5.899,0.528c-0.757-0.232-1.515-0.464-2.272-0.699c-2.19-1.599-2.461-3.864-2.179-6.314c0.847-2.289,2.493-3.989,4.18-5.658c1.045,0,2.092-0.003,3.137-0.003c0,0,1.478,0.003,1.476,0.003c-0.001,0,1.448,0.259,1.447,0.256c-0.002,0,1.194,0.854,1.193,0.852C77.197,23.691,77.905,24.362,78.65,24.994z"/>
<path fill="#442B1F" d="M84.903,65.625c-1.042,1.041-2.084,2.081-3.127,3.122c-2.082,3.125-4.165,6.25-6.248,9.378C78.653,73.959,81.778,69.791,84.903,65.625z"/>
<path fill="#452B20" d="M81.78,40.628c-1.039,2.075-2.078,4.153-3.116,6.229C79.702,44.778,80.741,42.703,81.78,40.628z"/>
<path fill="#452C20" d="M63.031,74.976c2.081,0.006,4.164,0.013,6.245,0.019C67.189,76.856,65.108,76.861,63.031,74.976z"/>
<path fill="#9A6147" d="M69.547,34.546c-2.126,1.065-4.251,2.13-6.378,3.195c-0.439-0.693-0.881-1.383-1.32-2.072c1.597-4.828,4.223-4.025,7.196-1.318L69.547,34.546z"/>
<path fill="#945F44" d="M63.169,37.741c-0.076,0.863-0.159,1.729-0.244,2.594c-1.163,1.535-2.378,2.976-4.631,2.478c-1.212-0.464-2.259-1.175-3.17-2.093c0.014-1.349,0.566-2.42,1.652-3.22l0,0c0.869-1.016,1.911-1.794,3.154-2.295c1.307,0.36,2.367,1.08,3.18,2.164L63.169,37.741z"/>
<path fill="#40271C" d="M56.973,40.848c1.985-0.168,3.969-0.335,5.952-0.506c0.034,1.132,0.069,2.271,0.104,3.409l0.006-0.003c-1.945,2.072-3.928,1.77-5.932,0.091l-0.554-0.305c-0.784-0.735-0.98-1.376-0.597-1.929C56.308,41.101,56.647,40.848,56.973,40.848z"/>
<path fill="#41281D" d="M63.031,74.976c2.081,0.006,4.164,0.013,6.245,0.019C67.195,74.988,65.112,74.981,63.031,74.976z"/>
<path fill="#41291D" d="M75.526,40.625L75.526,40.625L75.526,40.625z"/>
<path fill="#422C20" d="M63.022,84.375l0.003,0.003L63.022,84.375z"/>
<path fill="#5E3929" d="M50.203,53.036c0.032,3.149,0.064,6.302,0.098,9.452c-7.057,7.098-8.064-2.598-11.947-4.307c-2.231-1.874-1.402-6.152-5.287-6.729c-2.808-1.355-5.345-3.07-7.417-5.438c-0.838-1.38-1.311-2.866-1.424-4.477c0.391-3.796,3.128-5.337,6.246-6.519c1.648,0.271,3.09,0.964,4.331,2.081c1.089,1.129,2.18,2.258,3.27,3.388c0.714,0.83,1.487,1.599,2.332,2.295c0.934,0.564,1.901,1.065,2.904,1.495c0.97,0.503,1.843,1.142,2.617,1.914c0.566,0.925,1.063,1.889,1.5,2.884C48.043,50.61,49.095,51.84,50.203,53.036z"/>
<path fill="#93583F" d="M53.641,31.244c2.086,0.006,4.17,0.012,6.254,0.018c0.93,0.705,1.329,1.492,1.201,2.368c-0.135,0.918-0.33,1.379-0.588,1.379c-1.436,0.916-2.67,0.65-3.73-0.635c-5.209-1.038-10.418-2.075-15.626-3.113c-0.931-0.839-1.309-1.883-1.134-3.125c1.012-1.581,2.957-1.889,4.234-3.107c2.092-1.056,4.185-2.111,6.278-3.167c-1.217,0.848-1.903,2.228-3.103,3.094c0.021,1.087,0.043,2.173,0.065,3.26C48.952,30.426,52.424,28.543,53.641,31.244z"/>
<path fill="#996046" d="M34.801,37.1l-1.45,0.137h-1.454c-4.446,0.714-9.29,2.176-9.483-5.065c0.001-2.832,1.091-5.191,3.105-7.147C28.612,29.05,31.706,33.075,34.801,37.1z"/>
<path fill="#9B6246" d="M69.275,21.875c-0.003,2.066-0.006,4.129-0.011,6.195c-0.846,0.949-1.796,1.779-2.835,2.505c-1.224,0.424-2.457,0.427-3.696,0.073c-1.011-0.757-1.953-1.593-2.835-2.5c0.005-2.097,0.008-4.19,0.013-6.287l-0.02,0.021C63.019,21.881,66.147,21.878,69.275,21.875z"/>
<path fill="#955D44" d="M56.973,40.848c-0.133,0.897-0.273,1.792-0.423,2.686c-1.937,0.223-3.872,0.449-5.811,0.675c-2.076,1.803-4.283,2.722-6.872,0.995c-1.206-1.572-1.126-3.079,0.238-4.517c3.195-1.059,6.39-2.121,9.585-3.18c1.09,0.858,2.074,1.822,2.968,2.878L56.973,40.848z"/>
<path fill="#955A41" d="M59.898,28.149c1.03-0.009,2.059-0.019,3.089-0.021c1.062,1.175,2.125,1.175,3.19,0.003c1.028-0.018,2.059-0.036,3.087-0.061c-0.073,2.093-0.145,4.187-0.218,6.28c-1.979,1.007-3.959,2.011-5.937,3.018c-1.069,0.043-2.139,0.085-3.21,0.131c-1.041-0.696-1.387-1.389-1.041-2.084c0.345-0.693,0.691-1.041,1.042-1.041c-0.001-1.038-0.003-2.075-0.006-3.113C59.897,30.225,59.898,29.187,59.898,28.149z"/>
<path fill="#9C6347" d="M25.519,25.024c-0.032,2.265-0.063,4.532-0.094,6.796c-2.251,2.225-4.218,1.889-5.942-0.656c-0.105-0.916-0.224-1.831-0.357-2.741c0.052-1.135,0.105-2.273,0.159-3.415C21.362,25.012,23.441,25.019,25.519,25.024z"/>
<path fill="#5C3627" d="M44.106,40.686c0.172,0.983,0.346,1.965,0.521,2.945c-2.152,2.829-4.366,1.627-6.586,0.104c0.009-1.081,0.019-2.161,0.031-3.244C40.082,40.555,42.093,40.619,44.106,40.686z"/>
<path fill="#9A6246" d="M56.776,15.625c2.088,0.003,4.177,0.006,6.265,0.009C60.953,15.631,58.864,15.628,56.776,15.625z"/>
<path fill="#9A6346" d="M72.394,18.738c2.086,1.047,4.172,2.097,6.259,3.143c-2.086,1.871-4.169,2.106-6.252-0.003l0.011-0.006C72.406,20.825,72.4,19.781,72.394,18.738z"/>
<path fill="#996045" d="M44.252,25.03c-1.039,1.044-2.078,2.088-3.116,3.131c-1.068,1.279-2.104,1.196-3.118-0.067C40.097,27.072,42.174,26.053,44.252,25.03z"/>
<path fill="#9D6449" d="M53.641,31.244c-2.05-1.01-4.101-2.018-6.15-3.027c2.055-0.031,4.108-0.062,6.162-0.092l-0.002-0.003C53.651,29.163,53.648,30.203,53.641,31.244z"/>
<path fill="#9B6247" d="M59.911,21.863l-0.02,0.021L59.911,21.863z"/>
<path fill="#9D6449" d="M47.429,12.512c1.029,1.035,2.057,2.072,3.085,3.107C49.486,14.585,48.458,13.547,47.429,12.512z"/>
<path fill="#9A6448" d="M38.895,10.208c0.754,0.766,1.509,1.529,2.263,2.295C40.404,11.737,39.649,10.974,38.895,10.208z"/>
<path fill="#96543A" d="M56.659,40.384c-0.988-0.958-1.979-1.917-2.969-2.878c1.029,0,2.058,0,3.086-0.006C56.738,38.461,56.699,39.423,56.659,40.384z"/>
<path fill="#90563C" d="M59.901,34.375c0,1.041,0,2.084,0,3.125c-1.042,0-2.084,0-3.125,0c0-1.041,0-2.084,0-3.125C57.819,34.375,58.859,34.375,59.901,34.375z"/>
<path fill="#93583B" d="M53.653,28.125l-0.002-0.003L53.653,28.125z"/>
<path fill="#9B6247" d="M63.014,15.616c1.041,1.044,2.081,2.084,3.122,3.125C65.095,17.7,64.055,16.66,63.014,15.616z"/>
<path fill="#8F563D" d="M38.019,28.095c1.04,0.021,2.079,0.042,3.118,0.067c0.006,1.035,0.011,2.066,0.015,3.101C40.108,30.206,39.063,29.15,38.019,28.095z"/>
<path fill="#996245" d="M47.427,24.957c1.033-1.031,2.067-2.063,3.103-3.091C49.495,22.895,48.461,23.926,47.427,24.957z"/>
<path fill="#8D5A41" d="M16.15,21.823c1.035,0.037,2.069,0.073,3.104,0.11c0.003,1.01,0.005,2.017,0.001,3.024C18.219,23.911,17.185,22.867,16.15,21.823z"/>
<path fill="#5E3929" d="M19.483,31.165c1.98,0.22,3.961,0.437,5.942,0.656c2.157,1.807,4.315,3.61,6.473,5.417c-1.082,2.167-2.164,4.334-3.246,6.5c-0.819,0.693-1.092,1.389-0.822,2.084c0.271,0.696,0.543,1.043,0.816,1.043c2.092,1.05,4.184,2.1,6.276,3.15c0.932,0.705,1.236,1.4,0.912,2.087c-0.32,0.681-0.641,1.022-0.959,1.022c-2.074,0-4.149,0-6.224,0.003l0,0c-3.136-2.091-6.273-4.184-9.409-6.274c-1.031-2.072-2.063-4.144-3.094-6.216c-1.035-2.093-2.068-4.187-3.103-6.281C15.192,33.292,17.337,32.23,19.483,31.165z"/>
<path fill="#613D2C" d="M38.017,56.25c4.096,2.081,8.191,4.159,12.285,6.238c-0.046,4.181-0.09,8.358-0.133,12.539c-0.934,1.199-1.855,1.136-2.767-0.027l-0.004-0.006c-1.781-2.842-3.812-5.271-7.686-4.663c-1.787,0.033-3.865,0.949-4.811-1.581c0.009-4.172,0.02-8.347,0.029-12.521c0.519-0.72,1.039-1.44,1.558-2.16C36.998,54.797,37.507,55.523,38.017,56.25z"/>
<path fill="#633F2E" d="M38.013,71.881c-1.041,3.101-2.082,6.198-3.122,9.299c-2.072-3.098-4.146-6.195-6.219-9.289C31.784,70.523,34.899,70.526,38.013,71.881z"/>
<path fill="#5F3B2B" d="M38.013,71.881c-3.114,0.003-6.227,0.006-9.341,0.01l-0.037-0.034c-0.929-0.695-1.235-1.389-0.919-2.075c0.314-0.687,0.627-1.028,0.942-1.028c2.081-0.003,4.162-0.003,6.244-0.003c2.083,0,4.167,0,6.25,0c0.639,0.519,1.277,1.041,1.917,1.56c-0.638,0.521-1.275,1.044-1.914,1.565C40.108,71.875,39.06,71.878,38.013,71.881z"/>
<path fill="#643F2E" d="M25.52,68.747c-0.687-0.599-1.373-1.193-2.138-1.858c0.746-0.445,1.436-0.854,2.127-1.264c0.94,0.689,1.255,1.383,0.946,2.078C26.146,68.399,25.835,68.747,25.52,68.747z"/>
<path fill="#643F2E" d="M38.017,56.25c-1.028-0.006-2.058-0.012-3.087-0.019c-0.018-1.037-0.038-2.072-0.055-3.106c0.015-1.037,0.03-2.075,0.046-3.109C35.953,52.094,36.986,54.172,38.017,56.25z"/>
<path fill="#623C2D" d="M28.65,53.128c0,2.085,0,4.169,0,6.253l0.008-0.009C28.654,57.291,28.653,55.209,28.65,53.128L28.65,53.128z"/>
<path fill="#5E3825" d="M25.52,68.747c0-1.041-0.004-2.081-0.01-3.122c1.05,1.041,2.098,2.084,3.148,3.128c-0.008,1.034-0.014,2.069-0.021,3.104C27.597,70.819,26.56,69.784,25.52,68.747z"/>
<path fill="#61412F" d="M19.287,75.046c0.142,1.017,0.14,2.029-0.003,3.039l-0.003,0.046c-0.766-0.698-1.021-1.397-0.764-2.097c0.256-0.698,0.513-1.05,0.769-1.05L19.287,75.046z"/>
<path fill="#593825" d="M34.902,81.25c1.042,0,2.083,0,3.125,0c0,1.041,0,2.084,0,3.125c-1.042,0-2.083,0-3.125,0C34.902,83.334,34.902,82.291,34.902,81.25z"/>
<path fill="#633E2D" d="M28.65,59.381l0.008-0.009L28.65,59.381z"/>
<path fill="#5C3626" d="M19.286,74.984c-0.001,1.05-0.003,2.1-0.005,3.146C19.283,77.084,19.284,76.034,19.286,74.984z"/>
<path fill="#422419" d="M63.02,87.512c-0.017,0.935-0.032,1.868-0.044,2.802C62.833,89.377,62.846,88.443,63.02,87.512z"/>
<path fill="#93593F" d="M72.401,21.878c2.083,0,4.168,0,6.252,0.003c-0.002,1.038-0.002,2.075-0.003,3.113c-1.055,0.003-2.107,0.006-3.162,0.009c-1.01,1.108-2.029,1.117-3.056,0.024C72.422,23.978,72.411,22.928,72.401,21.878z"/>
<path fill="#5E3928" d="M38.04,43.735c2.194-0.034,4.389-0.067,6.584-0.104c2.04,0.192,4.077,0.385,6.115,0.574c-0.186,1.944-0.372,3.888-0.559,5.833c-1.978,1.959-3.942,1.709-5.898-0.037l-0.003,0.003c-1.027-1.056-2.118-2.045-3.12-3.125C40.12,45.831,39.079,44.781,38.04,43.735z"/>
<path fill="#442B20" d="M57.104,43.838c1.978-0.03,3.954-0.061,5.932-0.091c-0.01,1.034-0.02,2.069-0.03,3.101C61.039,45.847,59.071,44.843,57.104,43.838z"/>
<path fill="#603C28" d="M44.283,50c1.968,0.012,3.937,0.024,5.901,0.037c0.045,0.997,0.053,1.998,0.021,2.999C48.228,52.023,46.256,51.01,44.283,50z"/>
<path fill="#623F2F" d="M47.403,75c0.925,0.009,1.848,0.019,2.77,0.027c0.049,0.995,0.044,1.993-0.019,2.988C49.236,77.008,48.319,76.004,47.403,75z"/>
<path fill="#63402E" d="M41.154,71.875c0-1.041-0.001-2.084-0.003-3.125c2.083,2.081,4.166,4.162,6.247,6.244C45.317,73.953,43.236,72.916,41.154,71.875z"/>
<path fill="#8C593A" d="M72.432,25.027c1.02-0.009,2.037-0.018,3.056-0.024l-1.527,0.134L72.432,25.027z"/>
<path fill="#60402C" d="M41.159,46.878c1.041,1.041,2.081,2.085,3.12,3.125C43.24,48.963,42.2,47.919,41.159,46.878z"/>
<path fill="#633A2A" d="M28.645,46.866c0.002-1.041,0.005-2.084,0.006-3.128C28.65,44.781,28.647,45.822,28.645,46.866z"/>
<path fill="#9D664D" d="M66.177,28.131c-1.063,0-2.127-0.003-3.19-0.003C64.05,28.128,65.114,28.131,66.177,28.131z"/>
</svg>