<?xml version="1.0" encoding="utf-8"?>
<!DOCTYPE svg PUBLIC "-//W3C//DTD SVG 1.1//EN" "http://www.w3.org/Graphics/SVG/1.1/DTD/svg11.dtd">
<svg version="1.1" xmlns="http://www.w3.org/2000/svg" xmlns:xlink="http://www.w3.org/1999/xlink" x="0px" y="0px" width="100px" height="100px" viewBox="0 0 100 100" enable-background="new 0 0 100 100" xml:space="preserve">
<path fill="#48556C" d="M81.692,82.009c-10.514,4.926-21.028,9.849-31.542,14.774c-5.296-4.563-4.521-10.746-4.472-16.721c0.12-6.375-0.324-12.778,0.485-19.126c0.343-1.44,0.958-2.78,1.797-4.004c1.903-2.209,4.451-3.445,7.096-4.55c1.335-0.479,2.716-0.623,4.135-0.494c1.378,0.43,2.573,1.162,3.61,2.173c4.985,5.676,0.775,12.476,2.05,18.747c5.618,2.127,7.624-3.946,11.728-4.855c2.003-0.952,3.692-2.476,5.821-3.217c1.483-0.439,2.981-0.482,4.5-0.223c1.427,0.646,2.505,1.666,3.247,3.045C92.744,75.54,85.78,77.936,81.692,82.009z"/>
<path fill="#697C9E" d="M50.698,56.626c-0.212,7.342-0.422,14.688-0.635,22.03c-1.848,3.409-1.614,8.041-8.623,11.249c-1.688,0.705-5.983,0.217-10.191-1.917c-2.007-0.961-4.015-1.926-6.021-2.89c-1.107-0.925-1.425-2.072-0.951-3.458c1.668-2.344,4.17-3.046,6.715-3.573c1.009-0.309,2.097-0.513,3.121-0.724c-0.075-0.067,1.431-0.391,1.354-0.461c0.731-0.467,1.474-0.955,2.057-1.623c-0.096-0.083,0.534-1.224,0.436-1.304c-0.07-1.067-0.037-2.057-0.055-3.1c-0.128-2.951,1.333-5.68,0.832-8.604c-0.829-2.338-2.489-4.193-3.703-6.332c-1.053-1.868-1.455-3.885-1.581-6.006c-0.03-1.52,0.06-3.003,0.267-4.511c0.529-2.447,1.749-4.434,3.735-5.963c2.332-1.258,4.781-1.535,7.35-0.986c3.239,1.306,6.439,2.664,8.157,6.027C54.935,49.036,53.465,52.951,50.698,56.626z"/>
<path fill="#48556C" d="M93.767,25.021c-0.063,10.59-0.123,21.176-0.186,31.766c-1.742,2.615-0.452,8.015-6.298,6.87c-2.136-0.681-3.983-1.782-5.307-3.653C79,56.165,80.81,51.182,78.848,46.942c-2.408-3.625-7.584-2.048-10.365-5.176c-0.885-1.306-1.345-2.747-1.467-4.315c0.339-4.452,3.412-6.888,6.721-9.158C80.117,25.409,86.371,21.695,93.767,25.021z"/>
<path fill="#6A7E9F" d="M7.124,69.129C7.099,54.456,7.075,39.786,7.05,25.116c6.57-2.976,12.276-1.117,17.563,3.125c0.986,1.016,1.713,2.197,2.165,3.534c0.156,1.382-0.102,2.71-0.68,3.97c-1.772,2.813-5.26,3.634-7.234,6.216c-1.111,1.419-2.189,2.859-2.981,4.489c-0.856,2.433-0.292,4.88-0.064,7.333c0.072,4.09-1.518,7.837-2.298,11.759c-0.613,1.242-1.456,2.304-2.505,3.21C9.779,69.479,8.477,69.577,7.124,69.129z"/>
<path fill="#A3C0F4" d="M59.689,7.108c1.092,0.75,2.187,1.501,3.278,2.249c1.21,1.581,3.235,2.173,4.486,3.714c1.955,2.872,5.902,3.571,7.479,6.875c0.914,2.121,1.062,4.291,0.542,6.531c-0.529,1.465-1.351,2.728-2.487,3.787c-3.146,2.341-6.263,4.8-10.553,2.725c-5.411-5.173-5.631-12.515-7.941-18.997C54.388,10.315,56.477,8.285,59.689,7.108z"/>
<path fill="#6B7EA1" d="M31.25,87.988c6.272-3.112,12.545-6.223,18.816-9.332c0.026,6.042,0.056,12.085,0.084,18.128C43.85,93.85,37.55,90.921,31.25,87.988z"/>
<path fill="#A4C2F7" d="M22.218,16.504c2.092-1.05,4.184-2.1,6.276-3.149c2.812,2.353,7.211,2.524,8.897,6.455c1.286,3.083,1.198,6.134-0.162,9.17c-1.234,2.179-3.018,3.714-5.377,4.572c-2.52,0.482-4.724-0.195-6.659-1.843l0.043,0.136c-0.841-1.031-1.736-2.014-2.687-2.948c-1.454-1.425-2.753-2.945-3.151-5.032C19.238,20.99,20.375,18.61,22.218,16.504z"/>
<path fill="#A9C7FD" d="M93.767,25.021c-6.102,2.322-12.202,4.642-18.303,6.964c-1.118-0.778-1.696-1.846-1.736-3.208c0.049-1.294,0.222-2.573,0.515-3.836c1.126-2.96,1.251-6.424,4.252-8.441C83.586,19.342,88.675,22.183,93.767,25.021z"/>
<path fill="#4A576E" d="M87.893,62.857c1.896-2.023,3.793-4.047,5.688-6.07c0,5.97,0,11.938,0,20.081c-3.317,1.434-7.604,3.289-11.89,5.142c2.054-5.35,4.106-10.702,6.158-16.055c-0.786-0.699-1.04-1.392-0.768-2.075C87.356,63.196,87.626,62.857,87.893,62.857z"/>
<path fill="#A9C8FE" d="M22.218,16.504c0.029,3.012,0.056,6.024,0.085,9.037c0.999,0.921,1.988,1.855,2.966,2.798c-0.011,1.169-0.021,2.338-0.034,3.506c-6.063-2.243-12.123-4.486-18.186-6.729C12.107,22.244,17.163,19.376,22.218,16.504z"/>
<path fill="#A3C1F4" d="M31.472,12.506c2.009-0.964,4.021-1.932,6.03-2.896c3.017-1.938,6.984-1.596,9.773-4.077c2.125-0.531,4.232-0.589,6.294,0.284c1.622,1.724,1.742,3.799,1.397,5.984c-0.321,1.438-1.022,2.655-2.083,3.671c-1.129,0.9-2.383,1.584-3.728,2.103c-2.017,0.647-4.133,0.937-6.158,1.599c-0.696,0.113-1.397,0.192-2.095,0.305c-1.416,0-2.783-0.287-4.092-0.818c-1.245-0.625-2.547-1.111-3.901-1.45C31.327,15.982,29.232,14.908,31.472,12.506z"/>
<path fill="#A6C4F9" d="M78.495,16.501c-1.045,2.951-2.09,5.905-3.136,8.859c-0.52,0.659-1.042,1.318-1.563,1.978c-0.52-0.659-1.04-1.318-1.563-1.978c0-2.081-0.001-4.166-0.003-6.247c-0.592-2.966-0.028-4.7,3.493-3.274C76.698,15.851,77.621,16.073,78.495,16.501z"/>
<path fill="#A5C3F8" d="M75.724,15.839c-1.164,1.089-2.328,2.182-3.491,3.274c-2.084-2.084-4.169-4.166-6.252-6.25c1.114-1.285,2.277-1.327,3.488-0.134C71.554,13.766,73.64,14.801,75.724,15.839z"/>
<path fill="#6A7E9F" d="M25.36,81.61c-0.044,1.163-0.088,2.325-0.131,3.488c-3.081-1.334-6.161-2.667-9.242-4.001c-0.174-1.645,0.43-2.954,1.703-3.979C21.726,76.087,25.55,75.421,25.36,81.61z"/>
<path fill="#A7C6FC" d="M47.235,6.61c-3.244,1.001-6.488,1.999-9.732,3c3.244-1.868,6.488-3.735,9.732-5.603c0.682,0.433,1.364,0.87,2.046,1.303C48.598,5.743,47.917,6.176,47.235,6.61z"/>
<path fill="#AAC8F5" d="M53.481,12.86c-0.001-2.081-0.001-4.163-0.003-6.244c1.115-1.3,2.286-1.288,3.502-0.143c0.951,0.009,1.854,0.22,2.709,0.635c-1.022,1.922-2.045,3.845-3.069,5.765c0.824,0.702,1.183,1.474,1.073,2.316c-0.113,0.879-0.284,1.318-0.512,1.318c-1.35,0.552-2.695,0.562-4.031-0.055C52.238,15.161,52.393,13.968,53.481,12.86z"/>
<path fill="#6B7EA0" d="M12.62,78.741c-1.833-2.172-3.665-4.349-5.498-6.521c0.903-0.991,2.005-1.617,3.34-1.821c0.648,0.109,1.294,0.223,1.942,0.332c1.15,0.718,1.935,1.725,2.408,2.988c0.162,1.33-0.052,2.6-0.638,3.809C13.657,77.932,13.139,78.339,12.62,78.741z"/>
<path fill="#A8C7FC" d="M56.98,6.473c-1.167,0.045-2.334,0.094-3.502,0.143c-2.081-0.003-4.162-0.003-6.244-0.006c0-0.867,0-1.733,0-2.603C50.483,4.828,53.732,5.652,56.98,6.473z"/>
<path fill="#ABC8F5" d="M31.472,12.506c1.085,1.16,2.168,2.319,3.253,3.479c0.798,0.699,1.061,1.389,0.788,2.078c-0.272,0.687-0.543,1.028-0.813,1.028c-2.069-1.91-4.138-3.824-6.206-5.737C29.463,12.988,30.456,12.708,31.472,12.506z"/>
<path fill="#A7C6FC" d="M69.469,12.729c-1.162,0.046-2.325,0.092-3.488,0.134c-1.005-1.169-2.009-2.337-3.014-3.506C65.134,10.483,67.301,11.606,69.469,12.729z"/>
<path fill="#7183A1" d="M9.735,72.235c-0.871,0-1.743-0.006-2.612-0.016c0-1.031,0-2.063,0.001-3.091c0.87-0.013,1.741-0.016,2.611-0.016c0.391,0.519,0.781,1.041,1.176,1.56C10.52,71.194,10.128,71.714,9.735,72.235z"/>
<path fill="#6B7EA0" d="M15.992,78.476c-0.003,0.876-0.006,1.748-0.006,2.621c-1.122-0.784-2.243-1.568-3.366-2.356l0.515-0.521c0.505-0.277,1.01-0.556,1.517-0.836C15.098,77.747,15.545,78.113,15.992,78.476z"/>
<path fill="#445167" d="M69.114,40.991c4.326-1.221,8.653-2.441,15.635-4.413c0,8.502,0,15.844,0,23.187c1.794,2.069,1.995,4.136-0.004,6.198c-0.006,1.053-0.011,2.103-0.017,3.155c-1.086,0.979-2.121,2.015-3.096,3.107c-5.791,3.76-11.58,7.52-21.908,14.227c0-12.644,0-22.817,0-32.989c-0.45-0.562-0.9-1.126-1.351-1.693c-0.084-0.721-0.168-1.44-0.261-2.161c0.242-1.458,0.755-2.811,1.507-4.086C61.971,42.319,65.124,40.771,69.114,40.991z"/>
<path fill="#49566E" d="M69.114,40.991c-2.089,2.088-4.176,4.175-6.264,6.263c-1.134,0.955-2.064,2.111-3.13,3.134l0.039-0.039c-0.913,1.168-1.803,2.361-3.136,3.109c-0.015,1.062-0.026,2.127-0.04,3.192c-1.041,1.089-2.069,1.022-3.084-0.037c-0.936,0.003-1.871,0.006-2.805,0.013c-0.038-4.008-0.079-8.015-0.119-12.024c0.574-3.311,2.486-5.624,5.362-7.227c4.361-1.361,8.745-3.763,13.063,0.122C69.04,38.663,69.076,39.828,69.114,40.991z"/>
<path fill="#59606C" d="M84.745,65.964c0-2.066,0.002-4.132,0.004-6.198c1.048,1.032,2.096,2.061,3.145,3.092c-0.02,1.031-0.035,2.065-0.043,3.101c0-0.003-1.554,0.009-1.554,0.009L84.745,65.964z"/>
<path fill="#59606C" d="M56.624,53.458c1.045-1.038,2.09-2.075,3.136-3.109c-0.01,1.037-0.021,2.078-0.035,3.118c0-0.003-1.551,0-1.551,0L56.624,53.458z"/>
<path fill="#5B616D" d="M53.5,56.613c1.028,0.003,2.056,0.016,3.084,0.037C55.555,56.637,54.527,56.626,53.5,56.613z"/>
<path fill="#59606B" d="M81.632,72.226c1.031-1.035,2.064-2.072,3.098-3.107C83.697,70.154,82.664,71.191,81.632,72.226z"/>
<path fill="#627595" d="M37.86,50.36c0.018,2.078,0.035,4.156,0.052,6.231c1.129,1.053,1.953,2.308,2.52,3.738c0.87,4.993-0.357,9.073-5.04,11.677c-4.349,1.357-8.623,3.106-13.321,2.963c-10.34-2.856-9.836-10.498-8.216-18.628c0.272-1.501,0.574-3.003,0.888-4.495c0.539-1.422,1.311-2.71,2.312-3.857c2.867-2.209,6.081-3.882,9.219-5.643c1.275-0.428,2.611-0.562,3.937-0.495c1.208,0.22,2.345,0.717,3.35,1.416c0.368,0.409,0.761,0.857,1.137,1.263c0.471,0.91,0.885,1.896,1.211,2.869c-0.009-0.049-0.456,1.397-0.438,1.357c0.019-0.039,0.827,1.133,0.824,1.103c-0.005-0.031,1.112-0.827,1.125-0.821C37.429,49.045,37.86,50.36,37.86,50.36z"/>
<path fill="#66799A" d="M15.994,53.485c3.137,6.247,6.276,12.494,9.413,18.741c0.586-0.775,1.27-1.456,2.049-2.036c0.773-0.638,1.662-0.982,2.664-1.034c0-0.003,1.448-0.058,1.448-0.058c2.108-3.129,4.219-6.257,6.329-9.385c2.077-1.758,4.147-1.916,6.21,0.021c-1.032,5.236-2.062,10.471-3.091,15.707c0.769,0.699,1.016,1.389,0.741,2.066c-0.271,0.675-0.539,1.01-0.802,1.01l0.06-0.073c-1.047,1.054-2.098,2.103-3.144,3.156l-0.026,0.012c-1.002,1.077-2.161,1.999-3.118,3.122c-3.122-1.041-6.245-2.084-9.369-3.125c-3.122-1.044-6.244-2.088-9.367-3.134l0,0c-2.129-1.535-1.152-4.63-3.131-6.244l-0.001,0.003c-0.984-0.8-1.485-1.84-1.569-3.095c-0.16-1.232-0.659-2.295-1.553-3.167c1.041-4.16,2.082-8.322,3.122-12.485l0.916-0.931h1.303L15.994,53.485z"/>
<path fill="#687A9B" d="M31.605,44.116c-1.039-0.003-2.08-0.003-3.119-0.003c-0.708,0.745-1.575,1.108-2.611,1.12c-1.027,0.339-1.842,0.928-2.475,1.853c-1.309,1.31-2.897,2.16-4.292,3.271h-0.001c-0.887,0.842-1.941,1.346-3.142,1.557c-1.219,0.158-2.246,0.698-3.104,1.571l-0.001,0.003c-1.039-3.134-2.078-6.271-3.117-9.405c1.632-2.481,3.563-4.663,6.19-6.14c3.223-1.102,6.447-2.207,9.671-3.308c1.221-1.813,3.11-1.361,4.852-1.432c1.23,0.019,2.443,0.146,3.658,0.357c1.807,0.702,3.206,1.874,4.178,3.555c0.47,1.227,0.365,2.411-0.305,3.543c-0.042,2.191-0.084,4.382-0.126,6.577c-1.042,1.557-2.083,1.48-3.125,0C33.784,46.103,32.549,45.255,31.605,44.116z"/>
<path fill="#A9C8FE" d="M56.979,41.144c-2.135,1.154-4.27,2.307-6.403,3.458c-2.239-1.114-4.479-2.228-6.72-3.342c0.104-0.723,0.206-1.443,0.307-2.167c0.72-1.3,1.689-2.365,2.945-3.174c2.138-0.888,4.284-0.897,6.44-0.061C55.567,37.049,56.795,38.758,56.979,41.144z"/>
<path fill="#6B7F9A" d="M44.108,59.735c-2.071-0.006-4.141-0.016-6.21-0.021c-0.009-1.041-0.006-2.081,0.014-3.122c1.819-0.754,3.636-1.507,7.1-2.941C44.591,56.472,44.349,58.105,44.108,59.735z"/>
<path fill="#A8C7FD" d="M37.986,40.658c-0.114-0.86-0.227-1.721-0.337-2.582c0.444-0.5,0.888-1.001,1.333-1.501c1.268-0.51,2.576-0.647,3.923-0.412c0.583,0.335,1.165,0.674,1.748,1.013c0.786,1.257,0.674,2.429-0.33,3.519l-0.467,0.562C41.899,41.058,39.943,40.857,37.986,40.658z"/>
<path fill="#657898" d="M34.735,47.235c1.042,0,2.083,0,3.125,0c0,1.041,0,2.084,0,3.125c-1.051,0.003-2.104,0.009-3.157,0.012l0.02,0.019C34.727,49.341,34.73,48.288,34.735,47.235z"/>
<path fill="#828C9C" d="M40.956,78.518c0.018-1.025,0.038-2.054,0.061-3.079c0.284,0.718,0.664,1.416,0.795,2.161C41.856,77.847,41.259,78.211,40.956,78.518z"/>
<path fill="#818A9B" d="M37.872,81.601c1.047-1.054,2.095-2.104,3.142-3.153C39.967,79.499,38.919,80.548,37.872,81.601z"/>
<path fill="#6D809C" d="M34.728,84.735c1.04-1.041,2.079-2.081,3.119-3.122C36.807,82.654,35.768,83.694,34.728,84.735z"/>
<path fill="#A6C4F9" d="M56.979,41.144c-1.165-1.096-2.329-2.191-3.495-3.287c0.894-5.436,4.465-6.845,9.377-6.247c3.125-1.041,6.248-2.084,9.373-3.125c1.043-1.435,2.083-1.364,3.125,0c0.035,1.166,0.07,2.334,0.105,3.5c-2.154,1.837-4.309,3.674-6.463,5.511C64.994,38.715,60.986,39.929,56.979,41.144z"/>
<path fill="#838D9D" d="M15.933,37.943c-2.063,2.047-4.127,4.095-6.19,6.143C11.805,42.038,13.87,39.99,15.933,37.943z"/>
<path fill="#A7C6FA" d="M31.394,35.007c-1.933-0.125-3.866-0.247-5.795-0.369c-0.16-0.977-0.295-1.953-0.403-2.933c2.134-0.031,4.271-0.064,6.407-0.098C32.388,32.791,32.277,33.924,31.394,35.007z"/>
<path fill="#6F819E" d="M9.737,65.973c1.041,1.046,2.082,2.09,3.122,3.137c-1.042,1.346-2.083,1.346-3.125,0v0.003C9.736,68.066,9.736,67.019,9.737,65.973z"/>
<path fill="#9FBCEF" d="M62.861,31.61c-3.125,2.084-6.25,4.166-9.377,6.247c-2.087,0.006-4.174,0.015-6.262,0.021c-1.048,1.205-2.083,1.251-3.105-0.034l0.006-0.015c-1.407-1.383-3.213-1.529-5.039-1.621c-1.204-0.275-2.319-0.742-3.341-1.438c-0.861-0.888-1.55-1.892-2.045-3.03c-0.293-1.276,0.015-2.362,1.013-3.232c-0.003-3.137-0.008-6.277-0.012-9.418c0.017-1.034,0.026-2.072,0.026-3.106c1.045,0,2.089,0,3.134,0c0.812,0.824,1.634,1.636,2.464,2.426c0.773,0.809,1.43,1.712,1.965,2.682c0.613,1.376,1.349,2.701,2.418,3.769c0.65,0.565,1.395,1.025,2.228,1.27c0.84,0.095,1.633-0.045,2.36-0.546c0.628-0.65,1.188-1.309,1.635-2.1c0.519-1.465,1.184-2.804,2.101-4.037c1.185-1.188,2.387-2.329,3.577-3.482c0-1.031,0.005-2.063,0.012-3.094C58.702,19.119,60.781,25.366,62.861,31.61z"/>
<path fill="#ABC9F7" d="M75.359,28.485c-1.042,0-2.082,0-3.125,0c0-1.041,0-2.084,0-3.125c1.043,0,2.083,0,3.125,0C75.359,26.401,75.359,27.445,75.359,28.485z"/>
<path fill="#ABC8F5" d="M34.712,28.509c0.019,1.031,0.029,2.06,0.034,3.091c0.859,0.711,1.207,1.48,1.045,2.313c-0.167,0.857-0.374,1.288-0.623,1.291c-1.339,0.8-2.606,0.742-3.787-0.317c0,0,0.016,0.116,0.014,0.116c0.07-1.132,0.139-2.265,0.209-3.396C32.639,30.575,33.675,29.541,34.712,28.509z"/>
<path fill="#D0DFF9" d="M25.27,28.339c-0.989-0.934-1.978-1.868-2.966-2.802C23.292,26.471,24.281,27.405,25.27,28.339z"/>
<path fill="#96B4E6" d="M56.608,15.966c-0.009,2.137-0.019,4.272-0.029,6.406c-1.999,1.499-1.08,4.471-3.031,5.994c-0.023,1.077-0.046,2.155-0.069,3.232c-2.076,1.843-4.158,1.892-6.244,0.018c-2.086-1.043-4.172-2.087-6.256-3.131c-1.978-1.617-1.132-4.639-3.114-6.256c0.005-1.035,0.008-2.069,0.008-3.107c0.958-1.123,1.835-2.329,3.111-3.14l0,0c1.663-1.889,4.605-1.181,6.262-3.083c1.035-0.006,2.069-0.009,3.104-0.012c1.083,1.004,2.437,1.728,3.198,3.067C54.566,15.958,55.588,15.961,56.608,15.966z"/>
<path fill="#9CB9EC" d="M47.245,12.9c-2.087,1.025-4.175,2.054-6.262,3.083C43.07,14.954,45.158,13.925,47.245,12.9z"/>
<path fill="#9CB9EC" d="M53.548,15.955c-1.067-1.022-2.132-2.045-3.198-3.067c1.043-0.009,2.087-0.018,3.132-0.027C53.499,13.891,53.519,14.923,53.548,15.955z"/>
<path fill="#9CB9EC" d="M40.983,15.982c-1.038,1.047-2.074,2.093-3.111,3.14c-0.003-1.043-0.008-2.09-0.012-3.137C38.9,15.982,39.941,15.982,40.983,15.982z"/>
<path fill="#6A7E9F" d="M12.861,72.232c1.044,2.081,2.087,4.162,3.131,6.244c-0.957-0.049-1.911-0.135-2.86-0.257C13.043,76.223,12.953,74.228,12.861,72.232z"/>
<path fill="#6A7E9F" d="M9.735,69.11c1.042,0,2.083,0,3.125,0c0,1.041,0,2.084,0,3.125c-1.042,0-2.083,0-3.125,0C9.735,71.194,9.735,70.151,9.735,69.11z"/>
<path fill="#535965" d="M75.369,50.363c0.331-1.022,0.66-2.045,0.019-0.058c1.219-1.688,0.593-0.821-0.031,0.046L75.369,50.363z"/>
<path fill="#59606C" d="M59.72,50.387c1.044-1.047,2.086-2.09,3.13-3.134C61.806,48.298,60.764,49.341,59.72,50.387z"/>
<path fill="#657898" d="M19.108,50.357c1.042-3.125,2.084-6.25,3.128-9.375c1.044-1.248,2.084-1.245,3.121,0.012c1.042,1.041,2.086,2.078,3.129,3.119C25.36,46.195,22.233,48.276,19.108,50.357z"/>
<path fill="#798293" d="M28.422,72.235c-1.005-0.006-2.01-0.009-3.015-0.009c2.054-1.041,4.107-2.085,6.162-3.128l0.04-0.013C30.48,70.068,29.423,71.124,28.422,72.235z"/>
<path fill="#657898" d="M15.974,50.363c1.044,0,2.089-0.003,3.133-0.006c-1.038,1.044-2.075,2.084-3.113,3.128l-0.024-0.006c-0.827-0.696-1.102-1.386-0.826-2.078C15.42,50.711,15.696,50.363,15.974,50.363z"/>
<path fill="#798292" d="M31.632,53.494c1.03-1.034,2.06-2.068,3.09-3.104l-0.019-0.019c-1.036,1.029-2.07,2.061-3.105,3.089L31.632,53.494z"/>
<polygon fill="#788191" points="31.599,53.461 30.822,54.269 31.632,53.494 "/>
<path fill="#657898" d="M31.605,44.116c1.043,1.041,2.086,2.079,3.129,3.119C33.691,46.195,32.649,45.157,31.605,44.116z"/>
<path fill="#627595" d="M28.422,72.235c1.062-1.05,2.124-2.1,3.186-3.149C30.546,70.135,29.484,71.185,28.422,72.235z"/>
<path fill="#6A7E9F" d="M15.974,50.363c0.003,1.038,0.001,2.075-0.004,3.116c-1.036,0.003-2.072,0.006-3.108,0.006C13.899,52.444,14.936,51.404,15.974,50.363z"/>
<path fill="#A8C7FC" d="M31.381,34.887c1.117-0.052,2.234-0.101,3.353-0.152c1.042-1.215,2.084-1.279,3.126,0l0,0c0.65,0.455,1.3,0.913,1.95,1.367c-0.594,0.528-1.186,1.056-1.779,1.584c0,0-0.381,0.388-0.381,0.391C35.558,37.011,33.469,35.95,31.381,34.887z"/>
<path fill="#6C7F9B" d="M25.357,40.994c-1.041-0.006-2.082-0.009-3.121-0.012c0.923-0.76,1.846-1.523,3.121-2.576C25.357,39.642,25.357,40.32,25.357,40.994z"/>
<path fill="#AECCFA" d="M44.117,37.845c1.036,0,2.07,0.012,3.105,0.034c-0.967,0.939-1.933,1.88-2.901,2.819C44.219,39.749,44.151,38.797,44.117,37.845z"/>
<path fill="#A6C4F9" d="M38.03,37.686c-0.083-0.983-0.139-1.965-0.171-2.951c2.087,1.031,4.175,2.063,6.264,3.095C42.092,37.781,40.061,37.732,38.03,37.686z"/>
<path fill="#9CB9EC" d="M47.235,31.616c2.082-0.006,4.163-0.012,6.244-0.018C51.397,31.604,49.316,31.61,47.235,31.616z"/>
<path fill="#BFCDE8" d="M53.548,28.366c1.011-1.999,2.021-3.998,3.033-5.994C55.569,24.371,54.558,26.367,53.548,28.366z"/>
<path fill="#9CB9EC" d="M37.864,22.229c1.038,2.087,2.077,4.171,3.114,6.256C39.941,26.401,38.902,24.316,37.864,22.229z"/>
<path fill="#A6C4F9" d="M37.86,34.735c-1.042,0-2.084,0-3.126,0c0.003-1.044,0.008-2.09,0.012-3.134C35.783,32.645,36.822,33.691,37.86,34.735z"/>
</svg>