<?xml version="1.0" encoding="utf-8"?>
<!DOCTYPE svg PUBLIC "-//W3C//DTD SVG 1.1//EN" "http://www.w3.org/Graphics/SVG/1.1/DTD/svg11.dtd">
<svg version="1.1" xmlns="http://www.w3.org/2000/svg" xmlns:xlink="http://www.w3.org/1999/xlink" x="0px" y="0px" width="100px" height="100px" viewBox="0 0 100 100" enable-background="new 0 0 100 100" xml:space="preserve">
<path fill="#EDD722" d="M26.004,43.582c3.891-4.251,7.782-8.502,11.673-12.753c0.722,0.146,1.443,0.293,2.168,0.437c2.736,1.346,5.168,3.018,6.433,5.963c0.771,2.24,0.751,4.479,0.014,6.726c-1.782,3.415-4.29,6.162-7.646,8.103c-2.161,0.794-4.333,0.809-6.505,0.037C28.447,50.455,28.437,46.148,26.004,43.582z"/>
<path fill="#F0E324" d="M69.351,37.094c8.555,6.717,8.556,18.619,0.003,25.376c-0.681-0.119-1.36-0.235-2.043-0.352c-3.299-1.413-6.149-3.329-7.688-6.753c-1.272-3.394-1.297-6.748,0.374-10.016c0.707-1.062,1.624-1.944,2.707-2.606c1.665-0.592,3.28-0.644,4.631,0.72c0.228,0.922,0.756,1.7,1.52,2.265c-0.031-0.027,0.184,1.239,0.184,1.239s1.237,0.342,1.231,0.348c-0.923-0.238-1.519-0.812-1.793-1.73c-0.008-0.009-0.51-1.218-0.513-1.23c-0.003-0.012-0.276-1.315-0.284-1.328c-0.423-0.854-0.627-1.749-0.633-2.701c0.014-1.001,0.356-1.868,1.017-2.612C68.061,37.707,69.351,37.094,69.351,37.094z"/>
<path fill="#EEDB23" d="M56.633,74.234c-4.166-0.019-8.333-0.037-12.499-0.056c-1.972-1.94-2.919-4.327-3.073-7.067c0.165-2.881,1.375-5.191,3.696-6.925c4.588-2.404,8.879-2.14,12.802,1.419C60.615,66.058,60.038,70.251,56.633,74.234z"/>
<path fill="#F0E324" d="M37.677,30.828c4.245-1.807,8.49-3.61,12.733-5.414c1.901,2.044,1.609,4.178,0.264,6.36c-1.753,1.776-3.892,2.508-6.361,2.337c-2.405-0.284-4.431-1.364-6.203-2.976L37.677,30.828z"/>
<path fill="#F0E324" d="M26.004,43.582c1.899,2.118,3.799,4.236,5.7,6.354c1.839,1.932,1.646,3.968,0.309,6.061c-1.98,1.526-3.969,1.898-5.971,0.037C26.03,51.883,26.016,47.732,26.004,43.582z"/>
<path fill="#ECCF23" d="M56.633,74.234c-0.021-4.041-0.041-8.085-0.062-12.125c0.502-0.445,1.004-0.889,1.508-1.334c1.294-0.439,2.609-0.513,3.946-0.229c1.24,0.61,2.128,1.565,2.714,2.811c0.443,2.133-0.227,3.918-1.718,5.444C60.892,70.611,58.763,72.424,56.633,74.234z"/>
<path fill="#F0E324" d="M63.054,30.658c2.098,2.146,4.197,4.291,6.297,6.436l-0.31,0.314c-1.808,1.685-3.838,1.865-6.039,0.895c-1.792-1.691-2.135-3.724-1.421-6.003C62.071,31.75,62.562,31.204,63.054,30.658z"/>
<path fill="#F0E324" d="M26.042,56.033c1.846-0.027,3.692-0.055,5.539-0.079c0.441,0.473,0.884,0.942,1.326,1.416c0.366,1.27,0.365,2.532-0.055,3.79c-0.468,0.445-0.937,0.891-1.407,1.337c-1.727-0.189-3.456-0.379-5.865-0.642C25.771,59.445,25.906,57.739,26.042,56.033z"/>
<path fill="#F0E324" d="M50.356,30.978c0.019-1.855,0.037-3.711,0.054-5.563c2.073-0.049,4.147-0.098,6.221-0.146c1.073,0.985,1.638,2.206,1.695,3.665c-0.313,1.419-1.036,2.566-2.236,3.399c-1.377,0.424-2.758,0.437-4.142,0.043C51.417,31.909,50.888,31.445,50.356,30.978z"/>
<path fill="#F0E324" d="M37.723,68.72c-2.092-2.072-4.186-4.147-6.278-6.223l0.394-0.391c1.753-1.66,3.68-1.66,5.72-0.602c1.715,1.557,2.22,3.452,1.58,5.664C38.667,67.687,38.194,68.203,37.723,68.72z"/>
<path fill="#E5B020" d="M56.602,31.057c0.009-1.932,0.018-3.86,0.027-5.789c1.512-0.098,3.022-0.195,5.396-0.348c0.354,1.975,0.689,3.857,1.027,5.737l-0.192,1.499C60.509,33.309,58.439,32.846,56.602,31.057z"/>
<path fill="#F0E324" d="M63.021,68.802c-0.036-2.185-0.071-4.37-0.108-6.556c2.008-1.626,4.036-1.843,6.093-0.085l0.348,0.309C67.242,64.578,65.132,66.689,63.021,68.802z"/>
<path fill="#F0E324" d="M44.171,68.603c-0.012,1.858-0.024,3.717-0.037,5.575c-1.705,0.122-3.409,0.244-5.817,0.415c-0.244-2.414-0.419-4.145-0.595-5.874l0.315-0.312C40.141,66.678,42.187,66.693,44.171,68.603z"/>
<path fill="#E19C20" d="M43.859,43.24c0.149-1.972,0.299-3.943,0.45-5.914c0.391-0.559,0.781-1.12,1.173-1.682c1.789-1.233,3.833-1.367,5.91-1.386c2.129,0.037,4.193,0.278,5.945,1.669c1.525,1.727,2.016,3.742,1.707,5.994c-0.427,1.422-1.155,2.661-2.202,3.72c-1.81,1.382-3.874,2.008-6.137,2.023c-2.265-0.098-4.239-0.897-5.881-2.481C44.502,44.54,44.182,43.89,43.859,43.24z"/>
<path fill="#E19C20" d="M37.316,49.902c2.182-2.219,4.366-4.438,6.546-6.662c-0.003,0,0.459,0.455,0.459,0.455c2.859,2.838,4.526,6.042,3.145,10.193c-0.62,1.401-1.549,2.573-2.721,3.55c-1.367,0.646-2.813,0.951-4.326,0.875c-1.458-0.363-2.694-1.113-3.7-2.233C35.742,53.912,35.972,51.855,37.316,49.902z"/>
<path fill="#F0E324" d="M37.316,49.902c0.209,2.041,0.42,4.08,0.63,6.119c-2.097,1.678-4.193,1.883-6.292,0.006l-0.073-0.073c0.04-2.009,0.08-4.014,0.121-6.019C33.575,49.927,35.446,49.914,37.316,49.902z"/>
<path fill="#E7BD20" d="M38.11,31.137c2.045-0.04,4.089-0.082,6.133-0.125c1.771,2.13,1.767,4.233-0.081,6.314c0,0,0.145,0,0.146,0C42.242,35.263,40.176,33.2,38.11,31.137z"/>
<path fill="#E0971F" d="M62.791,43.579c-0.022,4.138-0.047,8.279-0.07,12.417c-0.491,0.482-0.981,0.965-1.474,1.45c-1.326,0.497-2.685,0.592-4.079,0.345c-1.312-0.586-2.383-1.462-3.237-2.615c-1.074-1.929-1.396-3.985-1.019-6.155c0.632-2.091,2.066-3.644,3.528-5.176l0.49-0.647c1.353-1.413,2.939-1.623,4.707-0.921C62.022,42.712,62.406,43.145,62.791,43.579z"/>
<path fill="#E7BD20" d="M62.905,37.225c2.045,0.061,4.09,0.122,6.136,0.183c0.084,1.022,0.168,2.042,0.252,3.061c0.706,0.723,0.912,1.416,0.622,2.082c-0.282,0.646-0.552,0.97-0.809,0.97l0.019-0.049c-0.925,1.413-1.932,1.544-3.033,0.198c-1.101-0.03-2.199-0.061-3.299-0.091c-0.002,0,0.065,0.125,0.065,0.125C61.044,41.531,61.21,39.373,62.905,37.225z"/>
<path fill="#E7BD20" d="M69.006,62.161c-2.031,0.027-4.062,0.058-6.093,0.085l0.014,0.031c-1.864-2.094-1.861-4.199-0.039-6.314c0,0-0.164,0.033-0.165,0.033C64.815,58.051,66.911,60.104,69.006,62.161z"/>
<path fill="#F0E324" d="M66.092,43.67c1.01-0.079,2.021-0.146,3.033-0.195c0.013,1.059,0.024,2.121,0.036,3.183C68.138,45.663,67.115,44.665,66.092,43.67z"/>
<path fill="#F0E324" d="M69.127,49.759c0.012-1.034,0.024-2.066,0.034-3.101c0.265,0.724,0.625,1.435,0.745,2.179c0.046,0.284-0.462,0.653-0.717,0.983L69.127,49.759z"/>
<path fill="#F0E324" d="M69.106,43.521c0.048-1.019,0.108-2.036,0.187-3.052c0.209,0.714,0.511,1.422,0.578,2.148C69.895,42.895,69.378,43.219,69.106,43.521z"/>
<polygon fill="#F0E324" points="69.189,49.82 68.479,50.464 69.127,49.759 "/>
<path fill="#E0971F" d="M56.571,62.109c-4.127,0.021-8.255,0.043-12.381,0.064c-0.435-0.422-0.868-0.843-1.303-1.264c-0.667-1.871-0.386-3.507,1.201-4.819l0.259-0.186c3.995-3.376,8.019-3.507,12.076-0.11l0.271,0.271c1.813,2.091,1.81,4.15-0.1,6.18L56.571,62.109z"/>
<path fill="#E7BD20" d="M44.171,68.603c-2.043-0.064-4.088-0.131-6.133-0.195c-0.04-2.042-0.079-4.083-0.119-6.125c0.45-0.428,0.898-0.854,1.347-1.285c1.924-0.652,3.609-0.354,4.955,1.264c0,0-0.032-0.085-0.032-0.088C44.184,64.315,44.177,66.461,44.171,68.603z"/>
<path fill="#F0E324" d="M44.162,37.326c0.026-2.103,0.05-4.208,0.08-6.312c2.042-0.012,4.08-0.024,6.117-0.036c-0.002,0,0.046,0.049,0.046,0.049c1.832,2.087,1.834,4.159-0.057,6.213C48.286,37.271,46.225,37.298,44.162,37.326z"/>
<path fill="#EDDA22" d="M56.596,62.246c0.032-2.06,0.064-4.122,0.098-6.18c2.066-0.033,4.131-0.066,6.194-0.101c0.012,2.1,0.025,4.206,0.039,6.312C60.816,62.267,58.706,62.256,56.596,62.246z"/>
<path fill="#EDD822" d="M62.905,37.225c-0.015,2.161-0.03,4.318-0.046,6.476c-1.978-0.165-3.955-0.333-5.931-0.5c-0.108-1.965-0.217-3.925-0.326-5.887c-1.801-2.118-1.786-4.217,0.065-6.295c0,0-0.064,0.037-0.064,0.04c2.085,0.363,4.17,0.727,6.256,1.093C62.877,33.847,62.891,35.537,62.905,37.225z"/>
<path fill="#ECCF23" d="M31.655,56.027c2.097-0.003,4.192-0.003,6.29-0.003c0.001-0.003-0.005-0.04-0.005-0.04c1.799,2.108,1.801,4.215-0.02,6.314l-0.001-0.016c-2.026-0.058-4.054-0.119-6.081-0.177C31.777,60.08,31.717,58.054,31.655,56.027z"/>
<path fill="#E5B020" d="M56.668,31.018c-0.021,2.096-0.04,4.196-0.063,6.295c-2.086-0.021-4.169-0.045-6.255-0.07c0.017-2.072,0.035-4.145,0.055-6.216C52.493,31.024,54.58,31.021,56.668,31.018z"/>
<path fill="#DB821E" d="M56.424,55.795c-4.027,0.04-8.056,0.076-12.079,0.113c-0.008-4.074-0.017-8.148-0.024-12.216c2.045-0.024,4.088-0.052,6.13-0.08c2.04,2.015,4.062,4.05,6.064,6.104C56.484,51.742,56.454,53.768,56.424,55.795z"/>
<path fill="#D57E19" d="M56.515,49.716c-2.021-2.035-4.043-4.071-6.064-6.106c1.998,0.076,3.996,0.153,5.992,0.232C56.465,45.801,56.491,47.76,56.515,49.716z"/>
<path fill="#ECD522" d="M37.921,62.299c0.006-2.104,0.012-4.209,0.02-6.314c2.053,0.033,4.105,0.067,6.152,0.104c0.038,2.061,0.081,4.117,0.127,6.174C42.121,62.274,40.022,62.286,37.921,62.299z"/>
</svg>