<?xml version="1.0" encoding="utf-8"?>
<!DOCTYPE svg PUBLIC "-//W3C//DTD SVG 1.1//EN" "http://www.w3.org/Graphics/SVG/1.1/DTD/svg11.dtd">
<svg version="1.1" xmlns="http://www.w3.org/2000/svg" xmlns:xlink="http://www.w3.org/1999/xlink" x="0px" y="0px" width="100px" height="100px" viewBox="0 0 100 100" enable-background="new 0 0 100 100" xml:space="preserve">
<path fill="#67797B" d="M47.364,100c0.401-0.699,0.923-1.364,1.144-2.118c0.086-0.293-0.505-0.784-0.787-1.187c1.085-0.495,2.126-0.439,3.122,0.244c0.543,1.096,0.424,2.117-0.354,3.061C49.446,100,48.406,100,47.364,100z"/>
<path fill="#87A6AA" d="M50.488,100c0.225-0.684,0.561-1.361,0.615-2.057c0.021-0.269-0.601-0.586-0.929-0.882c0,0,0.991,0.073,0.993,0.073l-0.965-0.251c1.137,1.038,2.273,2.079,3.41,3.116C52.571,100,51.531,100,50.488,100z"/>
<path fill="#B8C6C8" d="M47.331,47.452c-7.353-3.47-14.708-6.94-22.615-10.672c-0.437,1.248,0.183-0.519,0.801-2.283l-0.366,0.375c7.419,1.947,14.839,3.891,22.258,5.838C49.248,42.978,49.08,45.224,47.331,47.452z"/>
<path fill="#808080" d="M47.331,47.452c0.026-2.25,0.05-4.496,0.077-6.742c5.188-1.062,10.374-2.124,15.563-3.183c1.867,1.022,1.867,2.048,0,3.07c-3.128,5.23-6.256,10.461-9.385,15.692c-2.809,0.589-4.227-0.165-3.186-3.296C49.378,51.145,48.355,49.298,47.331,47.452z"/>
<path fill="#BABEBE" d="M12.864,28.482c0,3.943,0,7.886,0,13.3c-0.128,0.064-2.179,1.108-4.231,2.151c-1.301-0.708-2.604-1.413-3.906-2.121c2.599-6.659,5.197-13.321,7.796-19.98l-0.412-0.384c0.34,1.019,0.682,2.042,1.022,3.061c0.377,0.689,0.752,1.382,1.129,2.072C13.796,27.216,13.329,27.847,12.864,28.482z"/>
<path fill="#797F80" d="M62.97,40.598c0.033-1.022,0.033-2.048,0-3.07c5.106-2.523,10.216-5.044,15.322-7.565c0.693,1.496,1.386,2.988,2.078,4.483C74.571,36.496,68.77,38.547,62.97,40.598z"/>
<path fill="#69787A" d="M91.231,34.213c-1.053-4.01-2.107-8.017-3.16-12.024c1.782-0.021,3.564-0.043,5.347-0.064c-0.9,4.035-1.799,8.069-2.698,12.106L91.231,34.213z"/>
<path fill="#B7C8CB" d="M12.864,28.482c0.09-1.324,0.18-2.649,0.269-3.973c4.01,3.451,8.019,6.9,12.024,10.357c-0.005,0.006,0.371-0.381,0.366-0.375C21.3,32.492,17.081,30.487,12.864,28.482z"/>
<path fill="#8AABB0" d="M50.4,52.994c1.062,1.099,2.124,2.197,3.186,3.296l-0.009-0.013c0.689,0.681,0.919,1.364,0.689,2.048c-0.23,0.684-0.459,1.022-0.689,1.022l0.011-0.013c-1.031,1.13-1.31,2.988-3.188,3.296c-3.537-1.87-7.074-3.744-12.325-6.524C42.596,54.965,46.498,53.98,50.4,52.994z"/>
<path fill="#87A6AA" d="M50.175,97.062l-1.174-0.544l-1.28,0.178c0-5.057,0-10.114,0-15.174c0.998,0.055,1.996,0.11,2.994,0.165c0,1.831,0,3.662,0,5.493c1.753,3.234,2.104,6.433-0.254,9.561L50.175,97.062z"/>
<path fill="#5C7174" d="M91.231,34.213c0,0-0.513,0.012-0.513,0.015c0.738,3.125,1.477,6.247,2.216,9.369l0.271-0.062C92.548,40.43,91.888,37.32,91.231,34.213z"/>
<path fill="#5C7174" d="M94.043,64.749c-0.204,4.175-0.408,8.35-0.614,12.524c-1.068-0.085-2.137-0.168-3.204-0.253c0.601-4.147,1.202-8.295,1.803-12.442C92.701,64.637,93.372,64.694,94.043,64.749z"/>
<path fill="#BFF4FD" d="M58.72,21.164c-4.199,0-8.398,0-12.598,0c-0.007-0.488-0.015-0.979-0.022-1.471c4.202,0,8.402,0,12.604,0C58.71,20.185,58.715,20.676,58.72,21.164z"/>
<path fill="#BFF4FD" d="M12.522,21.832c2.922-1.895,5.844-3.787,8.768-5.682c0.442,1.294,0.885,2.588,1.329,3.882c-3.491,0.479-6.981,0.958-10.491,1.425C12.11,21.448,12.522,21.832,12.522,21.832z"/>
<path fill="#B0BABB" d="M8.602,56.408c-0.716-2.386-1.432-4.772-2.147-7.159c0.616-0.29,1.231-0.579,1.848-0.869c1.288,2.169,2.576,4.336,3.865,6.506C10.979,55.393,9.79,55.902,8.602,56.408z"/>
<path fill="#B0BABB" d="M31.281,67.606c-2.336,1.438-4.672,2.878-7.009,4.318c-0.426-0.705-0.85-1.407-1.275-2.111c2.334-1.441,4.671-2.885,7.005-4.325C30.428,66.192,30.855,66.898,31.281,67.606z"/>
<path fill="#97B1B5" d="M8.563,78.19c-0.712-2.348-1.425-4.697-2.138-7.044c0.614-0.29,1.229-0.577,1.842-0.866c1.271,2.136,2.541,4.272,3.812,6.405C10.907,77.189,9.735,77.689,8.563,78.19z"/>
<path fill="#787F80" d="M50.707,68.354c1.39,0.351,2.78,0.701,6.282,1.587c-2.824,2.301-4.706,3.833-6.589,5.368C48.648,72.906,48.67,70.587,50.707,68.354z"/>
<path fill="#67797B" d="M50.461,96.74c0.084-3.186,0.17-6.375,0.254-9.561c1.533,2.734,3.066,5.469,4.861,8.667c-2.58,0.5-3.971,0.772-5.366,1.04C50.203,96.884,50.461,96.74,50.461,96.74z"/>
<path fill="#5A6C6F" d="M93.206,43.536c0,0-0.282,0.062-0.278,0.062c0.363,2.344,0.722,4.688,1.079,7.031c-0.754-0.01-1.508-0.016-2.263-0.021C92.232,48.248,92.719,45.893,93.206,43.536z"/>
<path fill="#849EA1" d="M50.707,68.354c-0.101,2.319-0.203,4.636-0.306,6.951c0.144-3.174,0.289-6.348,0.434-9.521l-0.272-0.201C50.463,66.513,50.51,67.438,50.707,68.354z"/>
<path fill="#808080" d="M50.4,62.631c1.062-1.099,2.124-2.197,3.188-3.296c-1.012,2.082-2.023,4.163-3.03,6.244c0.005,0.003,0.267,0.201,0.271,0.204C50.69,64.734,50.545,63.684,50.4,62.631z"/>
<path fill="#808080" d="M53.577,59.348c-0.185-1.022-0.185-2.048,0-3.07c0.72,0.678,1.44,1.355,2.162,2.032C55.019,58.654,54.297,59.003,53.577,59.348z"/>
</svg>