<?xml version="1.0" encoding="utf-8"?>
<!DOCTYPE svg PUBLIC "-//W3C//DTD SVG 1.1//EN" "http://www.w3.org/Graphics/SVG/1.1/DTD/svg11.dtd">
<svg version="1.1" xmlns="http://www.w3.org/2000/svg" xmlns:xlink="http://www.w3.org/1999/xlink" x="0px" y="0px" width="100px" height="100px" viewBox="0 0 100 100" enable-background="new 0 0 100 100" xml:space="preserve">
<path fill="#332D2A" d="M12.285,77.566c-8.434-12.033-8.556-42.407-0.224-55.765c2.305,0.055,4.611,0.07,6.917,0.165c1.54,0.21,2.997,0.677,4.387,1.364c2.266,0.824,3.896,2.329,4.864,4.532c0.35,1.48,0.198,2.93-0.366,4.331c-1.063,1.904-2.672,3.238-4.578,4.218c-1.591,1.071-3.114,2.267-4.465,3.647c-0.366,0.494-0.783,0.958-1.149,1.449c-1.411,2.087-2.357,4.367-2.867,6.852c-0.183,1.327-0.381,2.634-0.544,3.958c-0.423,4.196-0.409,8.386-0.298,12.582C13.774,69.174,15.384,73.682,12.285,77.566z"/>
<path fill="#342C29" d="M87.013,21.866c0.87,2.212,1.74,4.425,2.609,6.635c-1.175,2.246-2.235,4.547-3.332,6.839c0.018,2.063,1.309,3.628,2.073,5.414c0.214,1.358,0.078,2.677-0.361,3.977c-0.786,1.962-0.976,4.071-1.641,6.067c-0.653,1.346-1.633,2.337-3.009,2.938c-1.509,0.144-2.915-0.152-4.237-0.882c-2.373-1.907-3.912-4.525-5.864-6.79c-1.421-1.782-2.854-3.553-4.313-5.301c-1.459-1.748-3.038-3.409-4.071-5.472c-0.485-1.453-0.563-2.923-0.172-4.413c1.232-2.985,4.032-4.129,6.574-5.57c2.456-1.538,5.263-1.962,8.039-2.462c1.368-0.189,2.734-0.122,4.086,0.165C84.809,23.297,86.027,22.952,87.013,21.866z"/>
<path fill="#151211" d="M55.978,94.065c-2.379,0.684-4.757,1.364-7.136,2.048c-7.513-14.612-2.653-31.073-6.903-46.173c-0.049-1.881,0.16-3.729,0.629-5.552c2.554-5.1,6.984-5.511,11.875-4.754c1.744,0.638,3.188,1.7,4.321,3.174c1.897,3.412,0.5,6.897,0.199,10.348c-0.421,3.323-0.766,6.662-1.001,10.004c-0.509,7.193-0.538,14.404-0.59,21.612C57.558,87.967,56.673,91,55.978,94.065z"/>
<path fill="#452E23" d="M86.673,44.394c0.106-1.267,0.214-2.53,0.32-3.796c-0.688-0.647-1.354-1.318-1.997-2.011c-0.655-0.681-1.304-1.367-1.944-2.06c-0.661-0.677-1.286-1.385-1.88-2.121c2.818-1.968,5.635-3.937,8.452-5.905c0.283,13.431,0.57,26.859,0.855,40.29c-1.103,1.062-2.396,1.764-3.901,2.054c-1.476-0.396-2.618-1.261-3.465-2.515c-0.693-2.018-1.233-4.093-1.822-6.134c-0.372-1.285-0.749-2.588-1.121-3.87c-0.133-0.632-0.27-1.282-0.403-1.913c-0.044-1.291,0.322-2.473,1.096-3.513c1.001-0.708,2.043-1.38,3.106-1.996c0.808-0.925,1.311-2.002,1.503-3.22C85.502,46.457,85.902,45.358,86.673,44.394z"/>
<path fill="#382A23" d="M46.885,49.674c0.655,15.481,1.308,30.96,1.959,46.438c-1.766-0.922-3.529-1.844-5.293-2.765c0.552-4.551-2.551-8.612-1.765-13.199C44.029,70.077,36.494,58.374,46.885,49.674z"/>
<path fill="#764E39" d="M30.844,12.616c1.173-0.788,2.345-1.575,3.517-2.362c1.081,0.507,1.984,0.287,2.708-0.665c2.008-1.166,4.016-2.335,6.023-3.5c1.244-1.032,2.618-1.254,4.123-0.674c1.351,0.705,2.458,1.681,3.277,2.969c0.332,1.461,0.403,2.942,0.252,4.434c-0.44,1.428-1.166,2.704-2.135,3.845c-1.061,1.035-2.122,2.069-3.183,3.107c-1.596,1.581-3.189,3.165-4.781,4.757c-1.251,0.913-2.641,1.483-4.167,1.752c-1.565,0.067-3.09-0.134-4.591-0.571c-2.722-1.599-5.658-2.976-6.444-6.488c0.435-1.544,0.966-3.052,1.593-4.525l0.391,0.955C28.749,14.844,29.594,13.501,30.844,12.616z"/>
<path fill="#654331" d="M12.285,77.566c-0.862-3.945-1.724-7.892-2.585-11.838c1.122-0.928,2.375-1.617,3.745-2.105c2.862,0.302,5.795,0.396,8.003,2.664c0.808,1.224,1.264,2.572,1.416,4.025c0.09,2.179,0.046,4.334-0.998,6.329c-1.143,0.916-2.431,1.521-3.865,1.813C16.095,78.158,14.189,77.862,12.285,77.566z"/>
<path fill="#31231B" d="M55.978,94.065c-1.084-2.194-2.166-4.389-3.247-6.586c1.602-1.617,3.218-3.22,5.334-4.184c1.505-0.235,3.016-0.269,4.529-0.101c2.312,0.665,3.798,2.39,5.285,4.116C63.913,89.56,59.945,91.813,55.978,94.065z"/>
<path fill="#935F44" d="M83.725,24.387c-0.911,0.305-1.82,0.613-2.731,0.925c-0.735-0.064-1.473-0.125-2.211-0.187c-1.489-0.042-2.968,0.049-4.44,0.271c-2.348,0.586-4.43,0.195-6.128-1.645c-0.723-1.37-1.083-2.82-1.026-4.37c0.343-1.55,1.156-2.768,2.512-3.607c0.733-0.226,1.466-0.448,2.2-0.671c4.144,1.911,8.287,3.824,12.431,5.737C85.463,22.251,85.262,23.432,83.725,24.387z"/>
<path fill="#654434" d="M45.537,84.391c-0.661,2.987-1.321,5.972-1.984,8.96c-2.365-1.7-4.727-3.4-7.091-5.097c-0.009-0.678-0.017-1.355-0.026-2.029c0.348-1.353,1.114-2.414,2.243-3.223c1.131-0.803,2.394-1.182,3.773-1.193C43.638,82.48,44.667,83.341,45.537,84.391z"/>
<path fill="#564136" d="M46.899,6.296c-1.268-0.07-2.538-0.141-3.807-0.208c4.274,0.021,8.546,0.042,12.82,0.064c-0.293,1.743-1.265,2.93-2.919,3.555C50.224,9.891,48.532,8.145,46.899,6.296z"/>
<path fill="#472F23" d="M75.359,81.998c-2.071,0.903-4.144,1.807-6.215,2.71c-1.449,1.15-3.007,1.324-4.669,0.521c-2.396-1.337-3.535-3.342-3.228-6.098c0.525-1.55,1.429-2.856,2.692-3.896c2.195-1.298,4.408-1.145,6.608-0.01c1.268,0.794,2.52,1.636,3.729,2.527C75.033,79.062,75.416,80.472,75.359,81.998z"/>
<path fill="#3C291F" d="M87.08,68.668c1.132,0.039,2.266,0.079,3.399,0.122c-0.935,2.218-1.87,4.437-2.806,6.655c-0.688-0.186-1.378-0.375-2.067-0.562c-1.101-0.995-1.676-2.225-1.648-3.72c0.358-0.616,0.719-1.233,1.079-1.85C85.718,69.098,86.398,68.881,87.08,68.668z"/>
<path fill="#83533B" d="M53.283,6.415c0.89,0.042,1.768-0.043,2.629-0.263c1.141,0.635,2.28,1.27,3.418,1.904c0.813,1.443,1.29,2.991,1.43,4.642c-0.595,1.633-1.729,2.688-3.402,3.165c-1.663-0.077-3.146-0.638-4.441-1.685c-1.294-1.053-2.082-2.408-2.359-4.056C50.869,8.45,51.779,7.214,53.283,6.415z"/>
<path fill="#714F3D" d="M18.226,25.134c-2.056-1.111-4.111-2.222-6.166-3.333c1.248-0.738,2.496-1.48,3.744-2.219C18.306,20.694,21.563,21.475,18.226,25.134z"/>
<path fill="#945A3E" d="M18.226,25.134c-0.809-1.849-1.619-3.699-2.425-5.548c0.778-0.519,1.631-0.769,2.562-0.748c0.618-0.488,1.236-0.979,1.854-1.468c1.585,0.348,2.933,1.114,4.041,2.304c1.193,2.508,0.674,4.529-1.705,6.024c-1.579,0.833-3.017,0.635-4.311-0.592L18.226,25.134z"/>
<path fill="#935F44" d="M66.049,12.125c1.95,0.992,3.9,1.987,5.851,2.979c-0.404,0.461-0.809,0.925-1.213,1.386c-1.795,1.776-3.661,3.406-6.45,3.159c-1.688-0.461-2.991-1.432-3.912-2.918c-0.354-1.739,0-3.314,1.063-4.733C62.97,11.029,64.523,11.072,66.049,12.125z"/>
<path fill="#825742" d="M66.049,12.125c-1.294,0.122-2.589,0.244-3.885,0.366c-0.421,1.206-1.251,1.648-2.487,1.325c-0.196-0.528-0.394-1.056-0.592-1.584c0.084-1.389,0.166-2.777,0.247-4.172C61.57,9.412,63.81,10.77,66.049,12.125z"/>
<path fill="#875C46" d="M27.037,14.694c0.226,1.349,0.45,2.698,0.676,4.05c-0.314,0.595-0.629,1.193-0.941,1.791c-2.24,1.022-3.8-0.14-5.257-1.633l-0.209-0.213c-0.885-0.617-1.125-1.111-0.725-1.492c0.334-0.317,0.695-0.479,1.088-0.479C23.457,16.043,25.247,15.369,27.037,14.694z"/>
<path fill="#432D22" d="M87.674,75.445c-2.074,1.108-4.149,2.216-6.223,3.323c-0.67-0.448-1.338-0.896-2.008-1.346c-0.39-1.702,0.055-3.149,1.332-4.339c2.676-1.154,4.57,0.195,6.329,1.977L87.674,75.445z"/>
<path fill="#654434" d="M20.791,81.69c-0.928-1.08-1.855-2.16-2.788-3.241c-0.003,0.007,0.252-0.244,0.252-0.244c1.123-1.202,2.428-2.154,3.917-2.856c1.749-0.027,3.136,0.669,4.163,2.082c0.56,1.688,0.243,3.186-0.951,4.501C23.807,82.745,22.274,82.666,20.791,81.69z"/>
<path fill="#452E23" d="M81.451,78.769c-2.031,1.074-4.063,2.148-6.093,3.226c0.001,0.004-1.079-0.97-1.079-0.97c-1.243-1.212-1.605-2.646-1.083-4.304c1.05-1.333,2.423-1.962,4.118-1.886c1.533,0.62,2.656,1.679,3.366,3.171L81.451,78.769z"/>
<path fill="#563B2A" d="M20.791,81.69c0.719-0.217,1.454-0.345,2.203-0.391c0.638-2.368,2.033-2.963,4.183-1.785c0.508,0.827,1.016,1.654,1.526,2.48c-0.363,0.9-0.728,1.801-1.091,2.701C25.338,83.694,23.065,82.69,20.791,81.69z"/>
<path fill="#654434" d="M36.462,88.254c-2.063-1.068-4.124-2.133-6.186-3.198c0.239-0.803,0.48-1.605,0.72-2.411c1.275-1.26,2.798-1.742,4.567-1.452c2.545,1.498,3.396,3.451,1.616,6.097L36.462,88.254z"/>
<path fill="#452E23" d="M65.012,84.311c1.374,0.132,2.748,0.263,4.127,0.395c-0.301,0.924-0.72,1.794-1.256,2.605c-1.785,0.046-3.567,0.092-5.35,0.141c-1.47-0.824-1.978-2.014-1.375-3.625C62.582,82.886,63.865,83.048,65.012,84.311z"/>
<path fill="#875C46" d="M37.069,9.589c-1.008-0.208-1.912,0.015-2.71,0.665C35.181,9.695,36.084,9.473,37.069,9.589z"/>
<path fill="#875C46" d="M30.844,12.616c-1.138,1.01-2.278,2.02-3.417,3.033C28.566,14.639,29.705,13.629,30.844,12.616z"/>
<path fill="#714F3D" d="M21.669,16.718c0,0.677-0.121,1.336-0.363,1.971l-1.462,0.202c0,0-1.474-0.052-1.477-0.052C19.465,18.13,20.567,17.426,21.669,16.718z"/>
<path fill="#795543" d="M83.725,24.387c0.203-1.181,0.406-2.362,0.609-3.543c0.993,0.076,1.887,0.418,2.679,1.022C85.916,22.705,84.82,23.547,83.725,24.387z"/>
<path fill="#654434" d="M27.612,84.695c-0.105-1.288-0.212-2.578-0.317-3.869c0.482-0.415,0.962-0.834,1.443-1.252c1.347-0.052,2.412,0.492,3.233,1.545c0.201,1.33-0.205,2.444-1.215,3.335c0,0-0.476,0.593-0.479,0.596C29.365,85.105,28.477,84.985,27.612,84.695z"/>
<path fill="#60402A" d="M9.796,47.024C9.764,42.752,9.732,38.479,9.7,34.21c0.59-0.378,1.183-0.753,1.778-1.129c0.653,0.269,1.303,0.537,1.956,0.806c1.193,0.778,2.436,1.456,3.737,2.039c2.092,0.793,3.745,2.106,4.868,4.062c0.503,1.389,0.761,2.816,0.738,4.297c-0.183,1.483-0.671,2.85-1.514,4.093c-1.045,1.077-2.271,1.873-3.68,2.389c-1.512,0.049-2.925-0.299-4.241-1.043C12.213,48.752,11.029,47.855,9.796,47.024z"/>
<path fill="#623D2C" d="M11.781,65.524c-0.694,0.067-1.39,0.134-2.083,0.204C9.679,60.43,9.66,55.132,9.641,49.837c1.376-0.641,2.791-0.732,4.239-0.271c1.208,0.861,2.269,1.877,3.18,3.046c0.873,1.205,1.602,2.487,2.188,3.854c0.256,1.486,0.177,2.948-0.236,4.397c-1.154,2.029-2.873,3.375-5.043,4.172C13.24,65.201,12.51,65.362,11.781,65.524z"/>
<path fill="#654434" d="M11.981,34.234c-0.761-0.006-1.523-0.015-2.283-0.024c0.78-0.952,1.557-1.901,2.334-2.85c0.986,0.656,1.305,1.3,0.963,1.935C12.657,33.92,12.32,34.234,11.981,34.234z"/>
<path fill="#754E3A" d="M24.539,31.284c0.037-1.081,0.073-2.158,0.11-3.238c0.459-0.781,0.917-1.566,1.376-2.347c2.859-1.672,5.183-0.687,7.275,1.465c0.752,1.776,0.715,3.534-0.11,5.277c-2.128,2.267-4.522,2.975-7.333,1.26C25.418,32.895,24.978,32.089,24.539,31.284z"/>
<path fill="#614031" d="M11.981,34.234c0.034-0.958,0.052-1.919,0.053-2.877c1.896,0,3.792-0.003,5.687-0.003c1.514,1.093,1.796,2.445,0.845,4.053c-2.353,1.795-4.388,1.017-6.3-0.772L11.981,34.234z"/>
<path fill="#272320" d="M18.476,34.418c-0.249-1.022-0.498-2.045-0.75-3.064c2.267-0.024,4.541-0.049,6.813-0.07l0.007,0.006c1.142,1.257,1.46,2.698,0.957,4.321c-0.987,1.361-2.321,2.039-4.001,2.033c-0.705-0.348-1.408-0.699-2.112-1.05C19.085,35.867,18.78,35.144,18.476,34.418z"/>
<path fill="#745039" d="M18.243,25.107c0.934-0.156,1.871-0.299,2.809-0.427c3.475-1.416,4.338,0.058,3.623,3.274c0,0-0.027,0.095-0.026,0.095C22.514,27.066,20.378,26.086,18.243,25.107z"/>
<path fill="#654434" d="M11.886,49.899c-0.749-0.019-1.5-0.037-2.248-0.062c-0.032-0.942,0.019-1.883,0.154-2.816c0.803-0.058,1.601-0.122,2.4-0.186c0.455,0.287,0.91,0.577,1.364,0.864c-0.056,0.534-0.113,1.071-0.169,1.605C12.887,49.503,12.387,49.701,11.886,49.899z"/>
<path fill="#865A41" d="M74.457,28.07c-1.939,1.144-3.879,2.289-5.817,3.43c-0.779-0.067-1.558-0.137-2.334-0.204c-1.249-1.022-1.942-2.341-2.085-3.943c0.268-1.547,0.952-2.887,2.053-4.007c1.441-0.689,2.881-0.635,4.306,0.058c1.439,0.513,2.706,1.3,3.77,2.405C74.383,26.563,74.42,27.316,74.457,28.07z"/>
<path fill="#492D21" d="M87.022,37.415c-0.01,1.062-0.019,2.124-0.027,3.183c-1.944-2.063-3.887-4.129-5.826-6.192c0.946,0,1.889,0,2.832,0C84.996,35.422,86.003,36.426,87.022,37.415z"/>
<path fill="#825742" d="M80.993,25.312c-2.179,0.918-4.357,1.84-6.536,2.759l0.193,0.204c-0.846-0.934-1.278-2.023-1.239-3.29c0.838-0.949,1.89-1.453,3.152-1.517c1.23-0.021,2.416,0.195,3.545,0.693L80.993,25.312z"/>
<path fill="#4E3326" d="M74.544,37.405c1.066,2.072,2.133,4.145,3.201,6.217c-0.645,0.519-1.288,1.041-1.932,1.559c-1.776,0.055-3.182-0.641-4.217-2.087c-0.562-1.675-0.337-3.235,0.677-4.685C73.03,38.077,73.787,37.741,74.544,37.405z"/>
<path fill="#191614" d="M68.197,34.268c2.115,1.047,4.229,2.094,6.345,3.137c0.002,0-0.006,0.049-0.006,0.049c-1.598,1.651-3.226,3.232-5.845,2.454c-1.268-0.973-1.875-2.276-1.915-3.86C67.25,35.455,67.723,34.86,68.197,34.268z"/>
<path fill="#4B3022" d="M77.745,43.622c1.058,2.121,2.114,4.238,3.174,6.359c-0.775,0.369-1.549,0.742-2.324,1.111c-4.352-1.99-4.81-4.443-0.879-7.416L77.745,43.622z"/>
<path fill="#4E3326" d="M80.919,49.981c1.005,0.03,2.009,0.03,3.015,0c0.47,0.507,0.941,1.017,1.415,1.526c-0.471,0.51-0.945,1.016-1.418,1.525l-0.049,0.07c-1.063,1.377-2.357,1.645-3.88,0.806c-0.781-1.544-0.484-2.841,0.894-3.891L80.919,49.981z"/>
<path fill="#030202" d="M86.673,44.394c-0.016,0.577,0.047,1.147,0.188,1.709c-0.201,0.827-0.401,1.657-0.615,2.539c-1.333,0.171-1.507-1.26-2.357-1.736C84.815,46.069,85.745,45.233,86.673,44.394z"/>
<path fill="#4E3326" d="M83.888,46.905c0.968-0.354,1.96-0.619,2.973-0.799c0.067,1.279,0.136,2.564,0.203,3.848c-0.977,1.224-1.991,1.318-3.052,0.104l-0.078-0.076C83.957,48.956,83.941,47.931,83.888,46.905z"/>
<path fill="#875C46" d="M68.64,31.5c-0.193,0.916-0.34,1.837-0.442,2.768l0.049-0.015c-0.874,1.41-2.107,1.782-3.649,1.264c-0.69-0.824-1.008-1.7-0.954-2.634c0.055-0.958,0.176-1.438,0.358-1.435c1.207-1.038,2.517-1.239,3.94-0.467L68.64,31.5z"/>
<path fill="#654434" d="M45.537,84.391l-1.546,0.003c-1.399-0.122-2.64-0.642-3.741-1.499c-1.265-1.721-1.52-3.72-1.572-5.771c-0.02-1.334-0.032-2.673-0.034-4.007c-0.001-1.324-0.003-2.652-0.003-3.979c-0.001-1.327-0.001-2.655-0.001-3.985c0-1.34,0-2.677,0-4.022c0.001-1.367,0.001-2.726,0.001-4.093c-0.003-2.103,0.008-4.196,0.052-6.302c0.054-1.452,0.279-2.865,0.705-4.254c0.891-1.239,2.089-1.941,3.6-2.115c1.405,0.537,2.501,1.44,3.29,2.719c0.225,0.858,0.424,1.721,0.598,2.588C46.437,61.246,45.987,72.818,45.537,84.391z"/>
<path fill="#452E23" d="M59.421,87.503c-2.231-0.009-4.461-0.015-6.691-0.024c0.11-8.307,0.218-16.613,0.328-24.921c0.974-1.126,2.178-1.886,3.604-2.285c2.426,0.396,3.476,2.127,4.092,4.251c0.675,1.84,1.363,3.698,2.056,5.526c0.363,1.16,0.563,2.368,0.575,3.583c-0.187,1.142-0.559,2.243-1.131,3.253c-0.594,0.925-1.106,1.917-1.524,2.942c-0.067,0.527-0.14,1.071-0.21,1.602c-0.034,1.053-0.062,2.121-0.083,3.181C60.433,85.688,60.078,86.648,59.421,87.503z"/>
<path fill="#272320" d="M46.287,47.085c-0.987-0.052-1.973-0.125-2.956-0.216c-2.609,0.75-5.199,1.227-7.632-0.525c-2.005-2.011-2.95-4.288-1.741-7.083c1.601-2.279,3.929-3.088,6.58-3.22c2.472-0.094,4.955-0.101,7.428-0.088c1.604,0,3.217,0.058,4.817,0.171c1.611,0.18,3.045,0.8,4.284,1.846c0.99,1.352,1.229,2.826,0.705,4.422c-0.611,0.488-1.222,0.979-1.832,1.471C52.722,44.937,49.506,46.011,46.287,47.085z"/>
<path fill="#412B1E" d="M56.579,62.809c-1.176-0.083-2.353-0.168-3.524-0.251c-0.021-3.152-0.046-6.305-0.07-9.457c1.156-1.278,2.521-2.271,4.094-2.979c1.796-0.122,3.334,0.445,4.616,1.709c1.612,2.197,1.829,4.715,1.688,7.315c-0.156,1.782-0.88,3.286-2.173,4.52C59.463,64.475,57.921,64.188,56.579,62.809z"/>
<path fill="#4B2D1F" d="M55.908,46.838c0.003-0.992,0.012-1.984,0.03-2.976c0.002,0-0.044,0.043-0.044,0.043c1.872-2.548,2.39-6.473,6.672-6.571c1.684,0.248,3.181,0.91,4.492,1.99c1.189,1.202,2.007,2.618,2.454,4.251c0.277,2.49,0.189,4.929-1.074,7.187c-0.989,1.361-2.286,2.305-3.882,2.832c-1.671,0.056-3.211-0.369-4.616-1.275c-1.484-0.72-2.72-1.742-3.703-3.07C56.128,48.446,56.018,47.645,55.908,46.838z"/>
<path fill="#452E23" d="M55.972,53.085c-0.996,0.003-1.992,0.01-2.989,0.016c0.977-2.087,1.95-4.175,2.926-6.262l-0.119-0.073C57.499,48.822,58.017,50.916,55.972,53.085z"/>
<path fill="#4B3022" d="M86.645,58.648c0.142,2.326,0.282,4.648,0.424,6.971c-1.994,1.926-3.942,3.958-7.146,3.03c-1.635-1.014-2.629-2.466-2.981-4.354c0.052-3.08,1.703-5.036,4.402-6.25C83.165,57.761,84.934,57.962,86.645,58.648z"/>
<path fill="#4A2C1F" d="M81.216,65.57c1.952,0.015,3.903,0.03,5.854,0.049c0.005,1.016,0.008,2.035,0.011,3.052c0-0.003-0.024,0.14-0.024,0.14c-1.878,1.835-3.904,2.756-6.359,1.029C79.687,68.273,79.861,66.849,81.216,65.57z"/>
<path fill="#4E3326" d="M87.022,37.415c-1.008-1.004-2.015-2.008-3.021-3.009C85.008,35.406,86.015,36.411,87.022,37.415z"/>
<path fill="#492D21" d="M84.012,50.058c1.018-0.033,2.035-0.066,3.052-0.101c-1.044,1.025-2.088,2.051-3.133,3.076C83.955,52.042,83.982,51.05,84.012,50.058z"/>
<path fill="#492D21" d="M81.261,53.03c0.874,0.027,1.75,0.052,2.623,0.073c0.028,1.059,0.06,2.118,0.091,3.174c-0.478,0.482-0.953,0.965-1.431,1.446c-1.456,0.135-2.563-0.424-3.327-1.672C79.184,54.563,79.866,53.556,81.261,53.03z"/>
<path fill="#030202" d="M86.645,58.648c-0.916,0.132-1.806,0.36-2.671,0.684c-0.993-0.717-1.295-1.392-0.91-2.02c0.37-0.607,0.733-0.913,1.095-0.913l-0.185-0.122C84.864,57.068,85.756,57.858,86.645,58.648z"/>
<path fill="#4C2E20" d="M36.802,22.058c0.105-1.169,0.211-2.334,0.316-3.503c1.212-0.824,2.501-1.501,3.859-2.057c1.399-0.479,2.832-0.778,4.311-0.873c2.19-0.144,4.397-0.916,6.544,0.214c1.098,1.065,1.801,2.347,2.11,3.845c0.078,1.496-0.102,2.963-0.535,4.395c-0.7,1.291-1.475,2.542-2.324,3.735c-0.812,1.196-1.772,2.274-2.868,3.217c-1.893,1.221-3.884,1.44-5.967,0.543c-0.607-0.296-1.224-0.601-1.831-0.897c-1.186-0.607-2.38-1.221-3.569-1.825c-1.007-0.895-1.634-2.011-1.869-3.339C35.428,24.28,36.042,23.132,36.802,22.058z"/>
<path fill="#945B40" d="M46.071,12.94c0.146-1.349,0.292-2.701,0.436-4.05c2.224-1.202,4.37-1.666,6.229,0.644l-0.155-0.299c0.925,0.983,1.508,2.14,1.747,3.467c0.116,1.371-0.252,2.588-1.109,3.662c-1.222,0.583-2.509,0.843-3.86,0.788c-1.356,0.031-2.653-0.217-3.887-0.788C44.745,15.061,44.946,13.919,46.071,12.94z"/>
<path fill="#875C46" d="M27.713,18.744c2.097,0.814,4.194,1.629,6.291,2.444c1.093,1.361,1.3,2.847,0.62,4.456c-1.272,1.263-2.718,1.507-4.333,0.732c-3.008-1.804-5.28-3.857-2.6-7.605L27.713,18.744z"/>
<path fill="#503321" d="M52.735,9.534c-2.075-0.213-4.151-0.43-6.229-0.644c0.111-0.867,0.238-1.733,0.386-2.594c2.13,0.04,4.255,0.076,6.384,0.116C53.101,7.456,52.919,8.493,52.735,9.534z"/>
<path fill="#935F44" d="M40.161,15.515c1.178-0.87,2.355-1.74,3.534-2.609c0.34,0.604,0.681,1.206,1.019,1.807c-0.351,0.595-0.703,1.193-1.056,1.789c-0.674,0.155-1.347,0.314-2.021,0.473C41.145,16.489,40.654,16.001,40.161,15.515z"/>
<path fill="#472D20" d="M43.211,15.747c0.122-0.955,0.282-1.901,0.482-2.841c0.795-0.034,1.588-0.024,2.379,0.034c0.078,0.83,0.067,1.654-0.034,2.481C45.237,16.751,44.294,16.861,43.211,15.747z"/>
<path fill="#905840" d="M40.097,18.72c-0.996-0.019-1.99-0.073-2.98-0.162c1.016-1.016,2.031-2.029,3.046-3.042c-0.001,0-0.046,0-0.046,0C42.505,16.599,42.497,17.667,40.097,18.72z"/>
<path fill="#9A664B" d="M33.926,24.981c0.026-1.26,0.052-2.521,0.078-3.787c0.934,0.284,1.866,0.574,2.798,0.864c0.141,1.01,0.205,2.026,0.188,3.049l-0.861,1.187l-1.468-0.04L33.926,24.981z"/>
<path fill="#66422F" d="M18.65,72.583c-0.226-1.514-0.45-3.03-0.676-4.547c-1.221-1.071-1.988-2.405-2.299-4.001c0.224-0.76,0.447-1.517,0.673-2.276c0.935-1.294,1.758-2.652,2.472-4.084c1.025-1.343,2.379-2.081,4.063-2.218c1.618,0.289,3.037,0.985,4.257,2.081c1.588,1.98,1.985,4.281,1.804,6.735c-0.437,2.368-1.608,4.419-2.814,6.451c-0.693,1.435-1.753,2.515-3.177,3.234C21.354,74.021,19.928,73.535,18.65,72.583z"/>
<path fill="#341E15" d="M17.764,66.019c0.094,0.672,0.166,1.343,0.212,2.018c-2.064-0.837-4.129-1.673-6.193-2.512c-0.001,0,0.56,0.354,0.56,0.354C14.21,63.523,16.021,63.437,17.764,66.019z"/>
<path fill="#392518" d="M18.65,72.583c0.957-0.284,1.924-0.528,2.902-0.735c2.477,2.222,2.66,4.309-0.363,6.207c-0.978,0.062-1.955,0.11-2.934,0.149C18.387,76.33,18.519,74.457,18.65,72.583z"/>
<path fill="#251811" d="M59.421,87.503c0.042-1.065,0.085-2.13,0.129-3.195c0.921-0.852,1.809-0.814,2.661,0.104c0.066,1.016,0.17,2.029,0.317,3.039C61.496,87.457,60.458,87.473,59.421,87.503z"/>
<path fill="#4F3022" d="M71.237,25.284c-1.036,0.736-2.074,1.468-3.111,2.204c-1.236,0.952-2.626,1.477-4.195,1.514c-1.444-0.617-2.559-1.614-3.387-2.942c-0.876-1.282-1.521-2.667-1.969-4.15c-0.011-1.605,0.551-2.969,1.683-4.102c1.494-0.427,3.016-0.644,4.569-0.617c2.29,0.037,4.643-0.299,6.698,1.132c0.009,1.068,0.017,2.139,0.025,3.21C73.091,22.919,72.987,24.17,71.237,25.284z"/>
<path fill="#9A664B" d="M71.525,18.323c-1.969,0.101-3.938,0.202-5.906,0.302c-0.66-0.439-1.317-0.876-1.977-1.315c0.55-0.571,1.099-1.138,1.648-1.709c1.8,0.293,3.601,0.586,5.398,0.885C70.964,17.102,71.244,17.712,71.525,18.323z"/>
<path fill="#46291E" d="M71.237,25.284c0.104-1.248,0.209-2.5,0.313-3.75c2.092,0.113,4.183,0.229,6.272,0.345c0.868,0.781,1.111,1.501,0.732,2.158c-0.361,0.628-0.706,0.943-1.037,0.943c-0.882,0.021-1.763,0.058-2.642,0.116c-1.183,1.19-2.352,1.239-3.505-0.043L71.237,25.284z"/>
<path fill="#9A664B" d="M77.518,24.979c0.113-1.031,0.215-2.066,0.305-3.101c0.765,0.763,1.527,1.526,2.289,2.286C79.243,24.426,78.378,24.698,77.518,24.979z"/>
<path fill="#69442F" d="M37.179,87.289c-1.097-0.977-2.192-1.956-3.29-2.936c-0.99-1.196-1.721-2.533-2.196-4.01c-0.467-1.523-0.322-2.97,0.531-4.33c1.213-0.977,2.605-1.469,4.163-1.472c1.447,0.531,2.565,1.465,3.348,2.793c0.625,1.349,1.221,2.716,1.78,4.095c0.275,2.219,0.467,4.422-1.443,6.128C39.108,87.47,38.143,87.381,37.179,87.289z"/>
<path fill="#382A23" d="M40.072,87.558c0.031-2.111,0.063-4.224,0.093-6.335c1.094-1.346,2.146-1.315,3.154,0.098c0.22,1.025,0.441,2.048,0.666,3.073C42.684,85.446,41.378,86.502,40.072,87.558z"/>
<path fill="#23150F" d="M68.33,78.125c-1.058-0.04-2.115-0.082-3.174-0.122c-0.662-0.106-1.324-0.214-1.988-0.326c-0.917-1.028-1.522-2.216-1.861-3.553c-0.312-0.619-0.621-1.227-0.934-1.847c-0.62-1.275-0.946-2.608-0.936-4.031c0.531-1.363,1.419-2.417,2.673-3.17c1.355-0.553,2.755-0.827,4.213-0.834c0.727,0.083,1.447,0.165,2.172,0.251c1.392,0.54,2.544,1.395,3.464,2.566c0.938,2.084,0.979,4.26,0.665,6.473c-0.546,1.379-1.294,2.637-2.241,3.771C69.697,77.579,69.014,77.851,68.33,78.125z"/>
<path fill="#291B13" d="M62.211,84.412c-0.893-0.028-1.783-0.062-2.668-0.104c0.007,0-0.826,0-0.826,0c-0.356-0.54-0.712-1.08-1.069-1.62c0.084-1.313,0.472-2.527,1.164-3.644c1.914-2.023,3.914-3.439,6.47-0.916l-0.123-0.122c-0.048,2.1-0.095,4.202-0.144,6.305C64.079,84.359,63.145,84.394,62.211,84.412z"/>
<path fill="#4E3326" d="M74.533,78.241c-0.067,0.931-0.15,1.858-0.251,2.786c-0.931,0.085-1.858,0.168-2.787,0.238c-1.025-1.09-1.573-2.371-1.565-3.879c0.084-0.727,0.166-1.447,0.25-2.173c0.656-1.438,1.771-2.137,3.351-2.097C75.796,74.447,76.535,76.077,74.533,78.241z"/>
<path fill="#20150E" d="M71.382,78.152c0.038,1.038,0.075,2.075,0.113,3.113c-1.055-1.047-2.11-2.094-3.165-3.141h0.019c0.513-0.735,1.025-1.474,1.538-2.209C70.386,76.663,70.885,77.408,71.382,78.152z"/>
<path fill="#2B1A11" d="M81.019,68.243c2.013,0.189,4.025,0.376,6.038,0.564c-0.024,1.044-0.056,2.085-0.094,3.122c-1.579,1.972-3.728,1.45-5.787,1.321c-1.188-0.891-1.785-2.065-1.708-3.564C79.986,69.208,80.502,68.726,81.019,68.243z"/>
<path fill="#20150E" d="M80.85,71.881c2.04,0.016,4.082,0.031,6.119,0.049c0.041,1.044,0.087,2.085,0.135,3.131c-2.08-0.036-4.161-0.072-6.241-0.109l-1.274-0.775c-0.001,0,0.002-1.495,0.002-1.495C79.588,72.681,80.85,71.881,80.85,71.881z"/>
<path fill="#503321" d="M52.596,12.598c-0.005-1.12-0.01-2.24-0.016-3.363c1.066,1.114,2.132,2.225,3.196,3.339c-0.527,0.339-1.054,0.678-1.582,1.016C53.662,13.26,53.129,12.927,52.596,12.598z"/>
<path fill="#472A1D" d="M55.776,12.573c1.103-0.113,2.205-0.226,3.309-0.342l-0.386,0.607c0.917,1.285,0.95,2.563-0.045,3.827c-1.44,0.592-2.765,0.403-3.978-0.571c-0.414-1.522-0.026-2.768,1.283-3.689L55.776,12.573z"/>
<path fill="#714F3D" d="M27.69,18.772c1.35,2.206,2.699,4.41,4.05,6.613c0.29,0.482,0.578,0.964,0.868,1.446c-0.339,0.449-0.676,0.897-1.015,1.346c-2.306-0.073-4.613-0.146-6.918-0.223c-1.206-1.089-2.411-2.176-3.62-3.269c0.151-1.932,0.305-3.857,0.459-5.783C23.573,18.857,25.631,18.814,27.69,18.772z"/>
<path fill="#5B3828" d="M58.282,15.39c0.171-0.849,0.313-1.7,0.42-2.554c1.151-0.113,2.306-0.229,3.46-0.345c-0.041,1.074-0.082,2.152-0.125,3.229c-0.366,0.482-0.733,0.964-1.102,1.446c-0.603-0.055-1.205-0.113-1.808-0.168C58.846,16.461,58.562,15.927,58.282,15.39z"/>
<path fill="#472A1D" d="M65.291,15.601c-0.008,1.022,0.099,2.029,0.323,3.024c-1.139,0.058-2.28,0.119-3.423,0.177c-0.521-0.546-1.039-1.092-1.56-1.639c0.537-0.528,1.076-1.056,1.614-1.584c0,0-0.206,0.144-0.207,0.141C63.122,15.68,64.207,15.64,65.291,15.601z"/>
<path fill="#4B3022" d="M80.681,78.006c-0.897,0.067-1.795,0.125-2.691,0.171c-1.614-0.922-2.021-2.219-1.218-3.891c1.563-0.958,2.917-0.724,4.063,0.708c0,0,0.024-0.04,0.025-0.04C80.816,75.971,80.756,76.99,80.681,78.006z"/>
<path fill="#714935" d="M21.189,78.055c0.121-2.069,0.241-4.138,0.363-6.207l-0.215,0.192c1.191-1.242,2.537-2.289,4.04-3.135c1.773-0.464,3.373-0.118,4.798,1.032c1.015,1.52,1.221,3.143,0.622,4.867c-0.935,1.517-2.266,2.512-3.987,2.981c-0.852,0.058-1.705,0.116-2.559,0.174C23.231,77.99,22.21,78.022,21.189,78.055z"/>
<path fill="#2F1E14" d="M27.295,80.826c-1.43,0.158-2.86,0.317-4.295,0.476c0.415-1.114,0.834-2.228,1.252-3.342l0.713,0.366c1.088-0.891,2.238-0.979,3.451-0.266c0.713,1.273,0.479,2.338-0.703,3.192L27.295,80.826z"/>
<path fill="#2C1C13" d="M77.722,75.006c0.087,1.057,0.174,2.112,0.265,3.171c-1.149,0.021-2.302,0.043-3.453,0.064c-1.024-1.053-2.048-2.106-3.073-3.159c-2.413-1.489-1.053-4.852-3.214-6.467l0.107,0.199c-1.177-1.13-2.197-2.384-3.063-3.757c-0.295-1.642,0.01-3.168,0.906-4.563c1.134-1.126,2.501-1.834,4.072-2.118c2.438,0.04,4.242,1.205,5.547,3.204c0.844,1.944,1.565,3.943,1.912,6.049c0.268,1.334,0.658,2.643,1.167,3.909C79.266,72.949,78.875,74.106,77.722,75.006z"/>
<path fill="#352118" d="M33.621,81.302c0.121,1.017,0.212,2.032,0.27,3.052c-1.045,0.03-2.089,0.064-3.134,0.098c-0.096-1.123-0.192-2.246-0.288-3.369c0.554-0.375,1.107-0.748,1.663-1.12C32.627,80.408,33.125,80.856,33.621,81.302z"/>
<path fill="#734C38" d="M27.713,81.253c-0.107-1.08-0.214-2.16-0.32-3.241c0.432-0.439,0.863-0.882,1.295-1.321c1.289-0.161,2.377,0.211,3.231,1.209c0.165,1.257-0.088,2.423-0.758,3.5c0,0-0.684-0.314-0.688-0.317C29.55,81.149,28.631,81.207,27.713,81.253z"/>
<path fill="#341E15" d="M18.247,40.518c-1.963-0.986-3.927-1.971-5.891-2.954c1.399-2.105,3.499-1.541,5.478-1.44c1.415,0.516,2.059,1.523,1.935,3.021C19.261,39.603,18.754,40.061,18.247,40.518z"/>
<path fill="#3B2618" d="M18.038,37.564c-1.896,0-3.792,0-5.685,0c-0.072-0.977-0.103-1.956-0.089-2.933c2.071-0.07,4.14-0.144,6.21-0.213c0.001,0-0.186-0.177-0.186-0.177c1.012,0.821,1.311,1.584,0.9,2.298C18.795,37.222,18.413,37.564,18.038,37.564z"/>
<path fill="#6F432E" d="M18.344,43.842c-0.03-1.108-0.063-2.213-0.095-3.324c-0.001,0,0,0.04,0,0.04c1.113-1.254,2.445-1.495,3.968-0.857c0.882,1.383,0.897,2.795,0.169,4.242C21.014,44.903,19.667,44.87,18.344,43.842z"/>
<path fill="#6E4632" d="M15.234,46.881c0.875,0.067,1.751,0.138,2.627,0.202c0.584,0.327,1.17,0.653,1.754,0.976c0.382,1.361,0.108,2.595-0.73,3.715c-1.229,0.649-2.49,0.754-3.788,0.213c-0.786-1.102-1.228-2.325-1.268-3.689C14.297,47.827,14.766,47.354,15.234,46.881z"/>
<path fill="#462C21" d="M18.344,43.842c1.082-0.034,2.166-0.064,3.249-0.098c0.495,0.433,0.989,0.866,1.483,1.3c0.194,1.389-0.255,2.518-1.349,3.394c-1.405,0.168-2.477-0.326-3.165-1.587c0,0-0.688,0.229-0.694,0.229C18.022,46.002,18.184,44.922,18.344,43.842z"/>
<path fill="#6F432E" d="M12.193,46.835c1.015-0.058,2.028-0.043,3.042,0.045l-0.031-0.006c-0.522,0.738-1.043,1.474-1.565,2.213c-0.521-0.739-1.041-1.478-1.561-2.216L12.193,46.835z"/>
<path fill="#4A3022" d="M17.764,66.019c-1.808-0.049-3.617-0.095-5.423-0.141c0.981-2.2,1.961-4.4,2.942-6.604c2.293-0.171,3.096,1.074,3.017,3.165C18.121,63.632,17.942,64.825,17.764,66.019z"/>
<path fill="#734C38" d="M18.3,62.44c-1.006-1.054-2.013-2.109-3.019-3.162c-0.033-1.007-0.067-2.011-0.098-3.019c0.38-0.586,0.762-1.175,1.142-1.764c0.687-0.131,1.375-0.263,2.063-0.394c1.361,0.562,2.194,1.581,2.571,2.99c-0.946,1.835-1.188,4.02-2.757,5.546L18.3,62.44z"/>
<path fill="#341E16" d="M15.211,49.994c1.074,0.052,2.148,0.101,3.221,0.149c0.503,0.378,1.007,0.754,1.512,1.129c0.278,1.304-0.056,2.423-0.998,3.36c-1.25,0.043-2.501,0.046-3.752,0.012c-1.257-0.253-2.293-0.885-3.14-1.84c-0.029-0.971-0.084-1.938-0.167-2.905c-0.001,0,0.211,0.112,0.211,0.112C13.127,48.6,14.164,48.526,15.211,49.994z"/>
<path fill="#734C38" d="M12.054,52.805c1.028,0.149,2.063,0.263,3.101,0.336c0.775,0.5,1.55,0.998,2.326,1.498c-0.752,0.531-1.506,1.063-2.259,1.593c0,0-0.038,0.03-0.038,0.027C14.14,55.108,13.096,53.958,12.054,52.805z"/>
<path fill="#332D2A" d="M24.533,34.497c0.005-1.068,0.009-2.139,0.014-3.208c2.118,0.028,4.236,0.055,6.354,0.083c0.468,0.662,0.938,1.324,1.408,1.99c0,1.746-0.722,3.113-2.164,4.102c-1.659,0.528-3.195,0.284-4.611-0.729C25.2,35.989,24.867,35.242,24.533,34.497z"/>
<path fill="#3F291B" d="M30.9,31.372c0.226-1.065,0.453-2.133,0.687-3.198c0.006,0.003-0.746-0.473-0.746-0.473c1.517-1.019,2.989-0.961,4.419,0.18c0.763,1.617,0.583,3.119-0.54,4.511c-1.723,0.885-3.055,0.479-3.993-1.212L30.9,31.372z"/>
<path fill="#614031" d="M21.124,40.671c-0.957-0.027-1.915-0.064-2.873-0.11c-0.006-1.004-0.073-2.005-0.208-3c0.079-1.105,0.163-2.209,0.247-3.317c1.028,0.141,2.055,0.296,3.082,0.461c1.139,0.824,1.92,1.907,2.342,3.25C23.405,39.386,22.567,40.317,21.124,40.671z"/>
<path fill="#543827" d="M21.893,38.067c-0.174-1.123-0.346-2.249-0.521-3.369c1.053-0.064,2.107-0.134,3.162-0.204c-0.001,0.003-0.061-0.092-0.061-0.092c1.102,0.897,1.396,2.005,0.887,3.33C24.281,38.648,23.126,38.76,21.893,38.067z"/>
<path fill="#462C21" d="M15.211,49.994c-1.044,0.003-2.089,0.003-3.124,0.012c0.004-1.037-0.003-2.084-0.009-3.131c1.041-0.003,2.083,0,3.125,0C15.202,47.916,15.205,48.956,15.211,49.994z"/>
<path fill="#3F291B" d="M71.371,25.052c1.167,0.012,2.333,0.027,3.502,0.04c-0.071,1.062-0.146,2.121-0.221,3.18C73.558,27.2,72.465,26.126,71.371,25.052z"/>
<path fill="#905840" d="M65.126,28.204c0.99-0.28,1.989-0.519,3.001-0.714c-0.061,1.163-0.119,2.329-0.183,3.494c-0.658,0.076-1.314,0.146-1.972,0.208c-0.567-0.034-1.137-0.067-1.706-0.101c-0.114-0.555-0.228-1.114-0.342-1.672C64.324,29.013,64.725,28.61,65.126,28.204z"/>
<path fill="#281911" d="M81.261,53.03c-0.104,1.083-0.208,2.167-0.312,3.25c-3.328,4.093-6.055,1.682-8.772-0.809c-1.715-2.185-2.162-4.721-2.026-7.413c0.114-1.797,0.791-3.351,2.028-4.663c0.841-0.217,1.683-0.437,2.523-0.656c1.004,0.312,2.01,0.625,3.016,0.937c1.059,2.115,2.119,4.227,3.178,6.342C80.974,51.028,81.094,52.032,81.261,53.03z"/>
<path fill="#3C271C" d="M68.286,37.57c2.084-0.04,4.167-0.076,6.251-0.116c0.054,1.767,0.108,3.534,0.165,5.292c0-0.006-0.106,1.096-0.106,1.096c-0.897,0.943-1.928,1.696-3.114,2.233c-1.345-0.158-2.362-0.836-3.097-1.959c-0.471-1.199-0.963-2.39-1.474-3.57c-0.081-0.641-0.16-1.279-0.241-1.917C67.209,38.275,67.747,37.924,68.286,37.57z"/>
<path fill="#312C28" d="M65.381,33.89c0.944,0.211,1.899,0.333,2.865,0.363c0.014,1.104,0.027,2.209,0.041,3.317c-0.001,0,0.105-0.11,0.105-0.11c-1.905,2.222-4.381,1.544-6.769,1.324c-1.191-1.367-1.391-2.869-0.6-4.498C62.368,32.971,63.821,32.84,65.381,33.89z"/>
<path fill="#745039" d="M65.381,33.89c-1.123,0.162-2.248,0.324-3.371,0.485c-0.448-0.372-0.897-0.745-1.344-1.117c-0.159-1.221,0.218-2.246,1.129-3.07c1.204-0.299,2.233-0.018,3.061,0.928c0,0,1.105,0.076,1.111,0.076C65.742,32.083,65.545,32.983,65.381,33.89z"/>
<path fill="#382A23" d="M43.286,53.29c-0.058,2.038-0.116,4.08-0.174,6.118c-1.55,1.196-3.169,1.297-4.858,0.303c-2.078-2.39-2.005-4.725,0.188-7.001C40.184,51.828,41.798,52.021,43.286,53.29z"/>
<path fill="#734C38" d="M40.507,44.452c0.941,0.806,1.883,1.611,2.824,2.417c-0.026,1.031-0.038,2.06-0.037,3.091c-1.193,0.797-2.498,1.087-3.915,0.867c-1.143-0.903-1.728-2.081-1.755-3.54C38.25,46.002,39.212,45.056,40.507,44.452z"/>
<path fill="#6D4330" d="M43.319,81.32c-1.05-0.03-2.101-0.064-3.152-0.098c-0.001,0,0.141,0.171,0.141,0.171c-1.007-1.102-1.732-2.368-2.179-3.797c-0.249-1.544,0.162-2.865,1.335-3.927c1.561-0.336,2.848,0.112,3.865,1.339C43.326,77.111,43.322,79.218,43.319,81.32z"/>
<path fill="#6C412F" d="M40.603,50.101c0.898-0.043,1.796-0.089,2.693-0.138c-0.004,1.105-0.006,2.21-0.01,3.32c-1.048-0.061-2.097-0.125-3.144-0.188c0,0-1.188-0.989-1.19-0.986l0.18-1.534L40.603,50.101z"/>
<path fill="#2F1E14" d="M40.094,59.244c1.009,0.058,2.017,0.112,3.023,0.164c0.18,1.025,0.251,2.061,0.213,3.101c-0.847,1.133-1.973,1.633-3.383,1.502c-1.112-0.888-1.565-2.039-1.364-3.445C39.085,60.123,39.59,59.684,40.094,59.244z"/>
<path fill="#734C38" d="M40.269,62.781c1.017-0.138,2.037-0.229,3.061-0.272c-0.009,1.02-0.02,2.036-0.03,3.056c-0.919,1.095-2.005,1.357-3.287,0.662C39.253,65.015,39.34,63.867,40.269,62.781z"/>
<path fill="#6C412F" d="M40.077,65.549c1.076,0.006,2.15,0.012,3.224,0.016c0.004,1.077,0.009,2.154,0.015,3.231c-0.853,1.102-1.959,1.623-3.361,1.479c-1.091-0.885-1.58-2.008-1.371-3.411C39.082,66.425,39.58,65.985,40.077,65.549z"/>
<path fill="#462C21" d="M40.377,69.046c0.978-0.106,1.958-0.189,2.939-0.253c-0.035,1.062-0.07,2.117-0.105,3.177c-0.562,0.445-1.123,0.894-1.683,1.343c-0.69-0.198-1.381-0.394-2.071-0.589C38.839,71.268,39.189,70.05,40.377,69.046z"/>
<path fill="#2F1E14" d="M40.582,72.372c0.875-0.161,1.753-0.296,2.634-0.405c0.133,1.013,0.172,2.026,0.113,3.042c-1.039,0.007-2.078,0.04-3.116,0.098c-0.653-0.708-0.815-1.349-0.488-1.922C40.031,72.645,40.316,72.372,40.582,72.372z"/>
<path fill="#492E20" d="M65.281,78.128c-2.133,1.044-4.267,2.088-6.399,3.131c-1.036-0.677-1.552-1.617-1.462-2.868c0.021-1.215,0.508-2.219,1.394-3.037c-0.002-1.195-0.005-2.393-0.008-3.588c0.559-0.461,1.115-0.925,1.674-1.386c0.535,0.485,1.071,0.974,1.606,1.462l0.09,0.351c0.974,0.8,1.898,1.654,2.77,2.563C65.059,75.882,65.17,77.005,65.281,78.128z"/>
<path fill="#23150F" d="M56.579,62.809c0.69,0.07,1.381,0.094,2.075,0.076c1.415,0.342,2.327,1.189,2.658,2.627c-0.404,1.318-1.063,2.497-1.942,3.559c-1.289,0.77-2.474,0.632-3.549-0.418C56.074,66.705,56.326,64.758,56.579,62.809z"/>
<path fill="#4E3326" d="M55.821,68.652c1.023,0.089,2.048,0.18,3.069,0.271c0.545,0.482,1.09,0.961,1.635,1.44c-0.523,0.501-1.045,1.004-1.567,1.508c0,0-0.149-0.104-0.151-0.104C57.81,70.728,56.815,69.69,55.821,68.652z"/>
<path fill="#271D18" d="M58.813,75.354c-0.052,0.94-0.107,1.884-0.162,2.826c-0.447,0.715-0.893,1.429-1.34,2.143c-0.437-0.721-0.871-1.44-1.308-2.16C56.941,77.225,57.878,76.288,58.813,75.354z"/>
<path fill="#24150F" d="M56.004,78.162c0.887-0.004,1.773,0.003,2.653,0.018c0.111,1.022,0.189,2.051,0.225,3.079l0.139-0.131c-1.018,1.361-2.081,1.397-3.193,0.116C55.854,80.213,55.912,79.188,56.004,78.162z"/>
<path fill="#4E3326" d="M55.827,81.244c1.065-0.04,2.129-0.076,3.192-0.113c-0.098,1.059-0.197,2.118-0.3,3.177C57.754,83.285,56.791,82.264,55.827,81.244z"/>
<path fill="#945A3E" d="M62.01,34.375c-0.117,0.995-0.206,1.996-0.269,2.997c-0.876,1.681-2.192,2.801-4.081,3.186c-0.602,0.009-1.203,0.016-1.804,0.021c-1.015,0.043-2.025-0.003-3.03-0.144c-1.122-1.001-2.251-1.007-3.387-0.021c-1.986,0.034-3.973,0.064-5.96,0.098c-0.543-0.485-1.086-0.971-1.629-1.453c-1.051-1.096-1.508-2.402-1.375-3.913c0.618-1.312,1.325-2.579,2.115-3.796c1.209-0.79,2.479-1.474,3.798-2.06c1.922-0.919,3.705-2.201,5.937-2.326c3.117,0.177,5.031,2.368,7.123,4.26c0.887,1.099,1.764,2.207,2.63,3.323L62.01,34.375z"/>
<path fill="#503426" d="M40.507,44.452c-0.266,0.967-0.575,1.919-0.932,2.859c-1.621,1.785-3.343,3.372-6.037,3.042c-2.332-0.674-4.43-1.867-6.59-2.936c-1.183-1.208-1.858-2.652-2.034-4.333c0.042-1.74,0.698-3.195,1.973-4.374c1.485-0.809,3.058-1.333,4.727-1.578c2.855-0.437,4.871,0.494,5.652,3.448C38.347,41.87,39.427,43.161,40.507,44.452z"/>
<path fill="#272320" d="M37.266,40.582c-2.119,0.006-4.239,0.013-6.356,0.019c-0.525-0.564-1.048-1.132-1.573-1.7c0.139-1.648,0.993-2.798,2.462-3.519c2.141-0.958,4.387-1.574,6.67-2.087c2.664,0.104,4.303,1.456,4.941,4.037c0.023,1.059,0.047,2.121,0.07,3.18C41.408,40.533,39.337,40.558,37.266,40.582z"/>
<path fill="#191614" d="M61.918,40.604c-2.008,1.099-4.018,2.197-6.023,3.299c-0.014-1.104-0.026-2.215-0.04-3.323c0.002,0,0.189,0.073,0.189,0.073C57.986,38.779,59.944,38.681,61.918,40.604z"/>
<path fill="#684838" d="M49.439,40.415c1.13,0.009,2.257,0.015,3.387,0.021C51.698,40.43,50.569,40.424,49.439,40.415z"/>
<path fill="#2A1B13" d="M62.221,50.055c1.02-0.006,2.038-0.021,3.058-0.055c0.691,0.021,1.383,0.046,2.075,0.07c2.04,0.961,2.772,2.984,3.841,4.736c0.548,1.337,0.6,2.68,0.076,4.034c-1.028,0.965-2.156,1.792-3.374,2.503c-1.221,0.711-2.508,1.257-3.877,1.614c-2.237-0.418-3.564-2.118-5.062-3.58c0.003-2.108,0.005-4.218,0.008-6.326c0.12-0.534,0.241-1.065,0.361-1.596C60.412,51.239,61.377,50.773,62.221,50.055z"/>
<path fill="#4E3326" d="M58.958,59.378c2.001,0.019,4.001,0.037,6,0.055c1.221,0.65,1.892,1.679,2.084,3.034c-0.101,0.649-0.201,1.297-0.304,1.943c-0.433,1.307-1.314,2.186-2.583,2.691c-1.918,0.132-3.933,0.571-5.113-1.62c-0.117-0.87-0.244-1.739-0.383-2.603C58.755,61.716,58.857,60.547,58.958,59.378z"/>
<path fill="#23150F" d="M55.972,53.085c-0.061-2.105-0.122-4.214-0.183-6.32c1.188,1.078,2.377,2.158,3.565,3.235c0.875,1.229,0.713,2.301-0.484,3.217c0,0,0.096-0.162,0.096-0.165C57.968,53.07,56.97,53.082,55.972,53.085z"/>
<path fill="#1B1816" d="M61.918,40.604c-1.959,0.019-3.918,0.034-5.876,0.052c1.901-1.095,3.803-2.191,5.701-3.283c2.216,0.03,4.431,0.058,6.648,0.088c-0.126,0.946-0.257,1.889-0.391,2.835c-0.664,1.593-1.687,1.782-3.016,0.772C63.962,40.921,62.939,40.769,61.918,40.604z"/>
<path fill="#24150F" d="M65.278,50c0.067-1.962,0.133-3.925,0.2-5.89c0.865-1.575,2.046-1.865,3.544-0.87c0.903,1.282,1.58,2.673,2.031,4.178c0.11,1.688-0.521,3.019-1.896,4.001c-1.692,0.372-3.043-0.146-4.053-1.554L65.278,50z"/>
<path fill="#4B2D1F" d="M58.87,53.217c0.158-1.071,0.317-2.143,0.48-3.217c0.958,0.016,1.912,0.033,2.868,0.052C61.103,51.107,59.986,52.164,58.87,53.217z"/>
<path fill="#39261C" d="M67.836,44.184c-0.789-0.016-1.576-0.043-2.36-0.077c-0.171-1.01-0.335-2.026-0.488-3.042c1.002-0.263,2.009-0.519,3.017-0.766c-0.003-0.003,0.548,0.678,0.548,0.678c0.891,0.949,1.08,1.739,0.572,2.374C68.68,43.906,68.251,44.184,67.836,44.184z"/>
<path fill="#3E271B" d="M74.423,53.128c2.173,1.05,4.348,2.103,6.523,3.152c1.071,0.04,2.141,0.076,3.212,0.116c0,0.985-0.062,1.962-0.185,2.936c-0.8,1.102-1.6,2.207-2.4,3.309c-1.152,0.939-2.446,1.602-3.882,1.992c-1.37-0.592-2.545-1.452-3.524-2.578c-0.992-1.114-1.793-2.347-2.403-3.705c-0.3-1.502-0.083-2.918,0.648-4.26C73.082,53.769,73.752,53.448,74.423,53.128z"/>
<path fill="#342117" d="M77.765,62.47c1.265,0.055,2.528,0.112,3.801,0.171c-0.166,0.971-0.287,1.947-0.353,2.93c-0.079,0.891-0.145,1.788-0.195,2.68c0.002-0.007-0.201,0.606-0.201,0.606c-0.988,1.224-2.167,1.447-3.534,0.666c-0.803-1.179-1.303-2.479-1.539-3.882C75.645,64.09,76.356,63.059,77.765,62.47z"/>
<path fill="#764F38" d="M43.41,37.332c-2.048,0.024-4.096,0.049-6.144,0.076c0,0-1.025-0.973-1.027-0.973c-0.804-0.577-1.362-1.333-1.678-2.274c0.278-0.934,0.583-1.852,0.914-2.771c0.026-0.995,0.07-1.984,0.136-2.976c0.358-1.047,1.069-1.703,2.139-1.978c0.99-0.317,1.827-0.867,2.513-1.645l-0.284,0.153c0.973-0.903,1.982-0.992,3.035-0.138c1.204,0.986,2.408,1.972,3.613,2.954c0.34,0.427,0.681,0.854,1.021,1.282c-0.371,0.403-0.742,0.803-1.112,1.203c-0.142,1.553-0.284,3.106-0.426,4.657c-1.03,0.839-1.994,1.746-2.884,2.731L43.41,37.332z"/>
<path fill="#996348" d="M55.96,12.405c0.108,1.047,0.218,2.097,0.326,3.146c1.033,1.611,0.958,3.168-0.223,4.675c-2.646,1.618-4.818,0.748-6.768-1.288c-1.918-0.086-3.834-0.171-5.752-0.253c-1.169-0.671-1.569-1.364-1.206-2.079c0.368-0.72,0.742-1.08,1.125-1.08l-0.252,0.22c0.945-0.098,1.888-0.208,2.829-0.327c1.32-0.015,2.64-0.03,3.961-0.045c0.921-1.01,1.858-2.002,2.814-2.976c0,0-0.217,0.198-0.219,0.198C53.717,12.534,54.838,12.47,55.96,12.405z"/>
<path fill="#41291C" d="M46.627,27.762c-0.049-0.949-0.094-1.901-0.14-2.854c1.181-0.882,2.095-2.042,3.144-3.061l-0.035,0.003c1.207-1.337,2.603-1.581,4.191-0.732c2.377,1.257,3.218,3.25,2.789,5.847c-0.72,1.52-1.915,2.402-3.581,2.646c-2.271-0.006-4.693,0.595-6.442-1.569L46.627,27.762z"/>
<path fill="#86573A" d="M52.507,21.927c-0.971-0.03-1.941-0.055-2.911-0.076c-0.008-0.982-0.107-1.953-0.298-2.915c2.275-0.119,4.552-0.241,6.828-0.363c0.412,0.473,0.824,0.943,1.237,1.416c0.021,1.315-0.503,2.365-1.565,3.143C54.49,23.306,53.402,22.879,52.507,21.927z"/>
<path fill="#46291E" d="M43.463,15.527c0.024,1.053,0.049,2.105,0.076,3.159c-1.143,0.012-2.29,0.024-3.441,0.034c0.006-1.065,0.014-2.133,0.021-3.202C41.232,15.518,42.348,15.524,43.463,15.527z"/>
<path fill="#935F44" d="M43.014,24.808c-1.012,0.067-2.021,0.113-3.035,0.138C40.991,24.899,42.002,24.854,43.014,24.808z"/>
<path fill="#5F3C2C" d="M49.631,21.848c-1.049,1.022-2.097,2.042-3.145,3.061C47.534,23.889,48.582,22.867,49.631,21.848z"/>
<path fill="#945A3E" d="M40.263,24.793c-1,1.083-1.998,2.164-2.997,3.247c-1.126-0.671-1.517-1.367-1.175-2.087c0.348-0.732,0.704-1.099,1.07-1.099l-0.171,0.253C38.081,25.003,39.172,24.897,40.263,24.793z"/>
<path fill="#5F3C2C" d="M52.815,12.399c-0.938,0.992-1.877,1.983-2.815,2.976C50.939,14.383,51.877,13.391,52.815,12.399z"/>
<path fill="#9A664B" d="M33.887,27.908l-1.531,0.006c0,0-1.517-0.205-1.515-0.208c0.334-0.763,0.63-1.538,0.894-2.322c0.732-0.138,1.462-0.272,2.191-0.403l0.136,0.125c0.998,0.689,1.303,1.331,0.92,1.935C34.614,27.618,34.249,27.908,33.887,27.908z"/>
<path fill="#46291E" d="M33.887,27.908c0.053-0.934,0.109-1.871,0.172-2.805c1.036-0.076,2.069-0.162,3.101-0.25c0.033,1.062,0.065,2.127,0.102,3.186c-0.241,0.94-0.378,1.895-0.406,2.866c-1.291,1.278-2.293,1.147-2.963-0.607C33.888,29.502,33.885,28.705,33.887,27.908z"/>
<path fill="#341E16" d="M24.638,59.289c-1.05,0.11-2.101,0.224-3.152,0.333c-1.236-1.272-1.752-2.786-1.547-4.553c0.857-2.741,2.504-4.242,5.559-3.544c1.524,1.002,2.33,2.411,2.423,4.23c-0.334,0.787-0.671,1.571-1.007,2.355C26.156,58.505,25.398,58.898,24.638,59.289z"/>
<path fill="#372419" d="M21.467,56.329c0.006,1.096,0.012,2.191,0.019,3.29c-1.094,1.007-2.188,2.011-3.284,3.019c0.011-2.148,0.021-4.3,0.032-6.448C19.372,54.889,20.453,54.874,21.467,56.329z"/>
<path fill="#352118" d="M24.67,65.68c-0.01-2.13-0.021-4.26-0.032-6.391l-0.163,0.168c1.292-1.135,2.787-1.556,4.483-1.263c1.468,0.863,2.424,2.111,2.87,3.757c0.177,1.678-0.179,3.234-1.068,4.672c-1.336,1.153-2.85,1.477-4.541,0.964C25.702,66.952,25.186,66.315,24.67,65.68z"/>
<path fill="#341E16" d="M24.173,71.354c-0.94,0.25-1.885,0.479-2.835,0.687c1.11-2.118,2.222-4.239,3.332-6.36l-0.145-0.052C26.655,67.676,26.779,69.599,24.173,71.354z"/>
<path fill="#9A664B" d="M64.799,25.055c0.108,1.05,0.217,2.1,0.327,3.149l0.172-0.238c-1.083,1.157-2.388,1.944-3.915,2.365c-1.587,0.36-3.025,0.07-4.292-0.974c-0.667-1.465-0.721-2.951-0.163-4.458c0.988-1.264,2.269-1.99,3.885-2.087C62.306,23.267,63.635,24.014,64.799,25.055z"/>
<path fill="#472D20" d="M62.191,18.802c-0.011,1.062-0.022,2.124-0.035,3.183c-0.526,0.335-1.055,0.668-1.581,1.004c-1.346,0.024-2.317-0.583-2.966-1.746c0.041-0.628,0.084-1.251,0.127-1.88c0.338-0.531,0.676-1.059,1.016-1.59c1.275-0.543,2.335-0.266,3.177,0.836L62.191,18.802z"/>
<path fill="#935F44" d="M64.799,25.055c-0.964-0.036-1.929-0.082-2.893-0.128c-1.038-0.793-1.324-1.483-0.863-2.072c0.418-0.537,0.836-0.806,1.256-0.806l-0.143-0.064C63.038,23.01,63.919,24.033,64.799,25.055z"/>
<path fill="#351F15" d="M36.999,78.238c-1.037-0.031-2.07-0.102-3.102-0.217c-0.389-0.58-0.778-1.16-1.167-1.743c0.438-1.416,1.347-2.341,2.806-2.691c1.46,0.415,2.292,1.395,2.583,2.862C37.746,77.048,37.372,77.643,36.999,78.238z"/>
<path fill="#3B2618" d="M31.161,81.399c-0.055-1.056-0.11-2.111-0.165-3.168c0.506-0.473,1.012-0.945,1.517-1.419c0.519,0.461,1.036,0.919,1.553,1.38l-0.168-0.168c-0.09,1.089-0.178,2.185-0.271,3.277C32.8,81.32,31.98,81.354,31.161,81.399z"/>
<path fill="#341E16" d="M39.784,78.293c0.174,1.031,0.348,2.066,0.523,3.101c-1.102-1.053-2.204-2.105-3.309-3.155l0.092-0.102c0.487-0.644,0.974-1.29,1.462-1.935C38.963,76.898,39.373,77.594,39.784,78.293z"/>
<path fill="#2D1E14" d="M59.042,65.481c2.06,0.037,4.12,0.073,6.18,0.106c1.025,0.666,1.377,1.347,1.06,2.045c-0.322,0.702-0.648,1.057-0.983,1.057c-1.074,0.021-2.146,0.042-3.22,0.063c-1.045,1.474-2.09,1.401-3.135,0c0,0-0.051,0.165-0.051,0.168C58.941,67.776,58.992,66.629,59.042,65.481z"/>
<path fill="#4B2D1F" d="M68.246,68.615c1.071,2.155,2.143,4.31,3.214,6.467l0.065-0.094c-1.088,1.452-2.132,1.422-3.133-0.092C68.344,72.803,68.295,70.709,68.246,68.615z"/>
<path fill="#4B3022" d="M65.298,68.69c-0.039-1.032-0.063-2.066-0.076-3.098c0-0.004-0.052,0.015-0.052,0.015c0.526-0.632,1.052-1.263,1.578-1.895c0.482,0.665,0.966,1.33,1.448,1.995c0.03,1.035,0.082,2.069,0.157,3.104C67.334,68.793,66.316,68.753,65.298,68.69z"/>
<path fill="#20150E" d="M58.943,68.753c1.045,0,2.09-0.003,3.135,0c0,1.041,0,2.081,0.004,3.106c-1.039-0.006-2.085,0.004-3.127,0.016C58.957,70.831,58.95,69.794,58.943,68.753z"/>
<path fill="#4E3326" d="M64.945,74.756c-0.923-0.854-1.848-1.712-2.771-2.566C63.1,73.047,64.022,73.901,64.945,74.756z"/>
<path fill="#2C1C13" d="M68.393,74.897c1.044,0.03,2.086,0.061,3.131,0.092c-0.044,1.056-0.09,2.108-0.139,3.164c-1.015-0.019-2.026-0.027-3.036-0.027C68.363,77.048,68.377,75.974,68.393,74.897z"/>
<path fill="#24150F" d="M77.792,68.823c1.009-0.019,2.018-0.009,3.024,0.03c0.011,1.011,0.021,2.021,0.032,3.027c0.001,0-0.021-0.006-0.021-0.006c-1.045,1.428-2.086,1.425-3.125-0.006l0.075,0.125c-0.968-0.708-1.288-1.413-0.962-2.118C77.141,69.174,77.466,68.823,77.792,68.823z"/>
<path fill="#422C1D" d="M77.702,71.869c1.042,0.003,2.084,0.003,3.125,0.006c0.001,1.044,0.001,2.084,0.005,3.122c-1.041,0-2.085,0-3.119,0.006C77.716,73.963,77.708,72.916,77.702,71.869z"/>
<path fill="#503321" d="M56.126,18.573c-0.058-1.014-0.005-2.021,0.16-3.021c0.67-0.046,1.339-0.101,2.002-0.162c-0.006,0,1.035,0.46,1.035,0.46c0.788,0.809,0.982,1.526,0.584,2.155c-0.368,0.58-0.716,0.873-1.042,0.873l0.214-0.207c-0.555,0.577-1.108,1.156-1.662,1.733c-0.489-0.632-0.981-1.267-1.471-1.898L56.126,18.573z"/>
<path fill="#945A3E" d="M58.865,18.878c0.104-1.016,0.253-2.026,0.453-3.027c0.977-0.106,1.951-0.198,2.928-0.271c-0.098,1.013-0.201,2.023-0.314,3.034C60.908,18.71,59.888,18.799,58.865,18.878z"/>
<path fill="#513623" d="M24.173,71.354c0.117-1.908,0.235-3.818,0.353-5.726c0.875-0.052,1.751-0.052,2.627-0.009c1.137-1.022,2.423-1.792,3.862-2.313c1.558,0.309,2.73,1.153,3.522,2.53c0.186,1.547-0.119,2.99-0.917,4.327c-1.682,1.828-3.734,2.423-6.14,1.843C26.377,71.789,25.274,71.57,24.173,71.354z"/>
<path fill="#351F15" d="M27.479,72.006c1.126-1.089,2.25-2.182,3.376-3.271c0.635,0.181,1.268,0.363,1.903,0.544c0.829,1.099,1.096,2.319,0.803,3.662c-0.65,1.144-1.463,2.16-2.436,3.052c-0.641,0.125-1.283,0.25-1.924,0.375c-0.47-0.455-0.94-0.909-1.41-1.364C27.67,74.008,27.566,73.007,27.479,72.006z"/>
<path fill="#3B2618" d="M27.393,78.012c-0.811,0.102-1.622,0.205-2.43,0.314c0.943-1.107,1.885-2.215,2.828-3.32c0.001-0.003-0.146-0.115-0.146-0.115c0.781,0.476,1.563,0.951,2.344,1.428c-0.593,0.695-1.186,1.395-1.779,2.091L27.393,78.012z"/>
<path fill="#4E3326" d="M74.525,65.588c-1.03-1.016-2.062-2.032-3.093-3.048c-0.53-0.382-1.058-0.767-1.587-1.151c0.091-1.333,0.557-2.511,1.451-3.516c1.392-0.137,2.472,0.397,3.283,1.518l0.026,0.015c1.451,1.419,1.583,3.195,1.373,5.063C75.496,64.841,75.011,65.216,74.525,65.588z"/>
<path fill="#4B2D1F" d="M77.792,68.823c-0.005,1.056-0.011,2.112-0.015,3.171c-1.084-2.137-2.167-4.27-3.252-6.406l-0.06,0.086c0.643-0.754,1.284-1.505,1.926-2.258c0.429,0.891,0.857,1.781,1.284,2.673C77.683,67.001,77.721,67.914,77.792,68.823z"/>
<path fill="#4B2D1F" d="M71.501,59.598c-0.019,0.979-0.041,1.959-0.068,2.942c-1.036-0.031-2.071-0.067-3.105-0.113c-0.525-0.464-1.052-0.928-1.579-1.392c0.395-0.577,0.793-1.153,1.191-1.733l0.643,0.198C69.598,58.298,70.57,58.331,71.501,59.598z"/>
<path fill="#3F271C" d="M68.196,65.707c-1.008-0.045-2.017-0.076-3.026-0.098c0.076-1.116,0.152-2.23,0.229-3.345c1.105-1.218,2.1-1.132,2.985,0.254c0,0-0.057-0.086-0.057-0.089C68.283,63.523,68.24,64.615,68.196,65.707z"/>
<path fill="#60402A" d="M28.208,78.409c-0.188-1.172-0.375-2.347-0.564-3.519c1.032,0.012,2.064,0.015,3.098,0.003c1.08,0.704,1.468,1.449,1.166,2.233c-0.308,0.8-0.631,1.202-0.973,1.202c0,0,0.059-0.098,0.061-0.098C30.067,78.28,29.138,78.339,28.208,78.409z"/>
<path fill="#351F15" d="M21.893,38.067c0.925-0.158,1.846-0.333,2.765-0.524c0.575,0.366,1.152,0.735,1.729,1.102c-0.063,1.367-0.217,2.725-0.449,4.074c-1.088,2.383-2.554,2.804-4.478,0.87c0,0,0.129,0.156,0.131,0.156c-0.128-1.029-0.282-2.054-0.464-3.073C21.415,39.814,21.67,38.946,21.893,38.067z"/>
<path fill="#352118" d="M18.562,46.851c0.789,0.088,1.58,0.168,2.37,0.241c0.688,1.205,1.384,2.484-0.226,3.451c-0.624,0.376-1.563-0.012-2.466-0.573l0.192,0.171C18.476,49.045,18.519,47.949,18.562,46.851z"/>
<path fill="#6E4430" d="M18.24,49.97c0.9-0.958,1.799-1.92,2.694-2.881c0.173-1.166,0.35-2.332,0.525-3.5c1.065-0.967,2.131-1.938,3.196-2.905c0.974-1.395,1.965-1.407,2.974-0.037c0.07,1.074,0.139,2.151,0.209,3.226c0.847,0.934,1.508,1.987,2.005,3.144c0.301,2.005-0.581,3.635-1.636,5.215c-0.567,0.269-1.135,0.537-1.701,0.806c-0.628,0-1.256,0-1.884,0.003c-1.052,1.096-2.103,2.194-3.156,3.29c-1.077-0.046-2.154-0.091-3.232-0.14c-0.001,0,0.205,0.201,0.205,0.201c-0.916-0.52-1.364-1.175-1.349-1.972c0.018-0.863,0.142-1.297,0.374-1.297C17.725,52.072,17.982,51.023,18.24,49.97z"/>
<path fill="#341E16" d="M17.465,53.122c0.325,1.089,0.648,2.179,0.974,3.269c-1.073-0.052-2.146-0.104-3.218-0.159c-0.017-1.028-0.038-2.06-0.065-3.091C15.925,53.134,16.696,53.128,17.465,53.122z"/>
<path fill="#754E3A" d="M33.893,30.298c0.99,0.208,1.98,0.412,2.966,0.613c-0.003-0.006,0.301,0.586,0.301,0.586c0.691,0.705,0.905,1.392,0.642,2.063c-0.259,0.663-0.511,0.995-0.754,0.995l0.081-0.235c-1.315,1.782-3.208,1.599-5.078,1.489c-0.418-0.47-0.836-0.94-1.254-1.407c-0.023-1.074-0.047-2.148-0.07-3.223C31.781,30.887,32.837,30.591,33.893,30.298z"/>
<path fill="#25211E" d="M24.658,37.543c-0.062-1.047-0.121-2.094-0.182-3.141c2.105,0,4.213,0,6.32,0l0.011,0.003c0.728,0.51,1.456,1.022,2.184,1.535c-0.725,0.516-1.45,1.032-2.173,1.55l0.014,0.003c-2.116,1.947-4.213,2.032-6.285-0.067L24.658,37.543z"/>
<path fill="#46291E" d="M62.286,28.198c1.004-0.052,2.008-0.131,3.011-0.229c-0.144,1.047-0.289,2.1-0.438,3.146c-0.952,0.046-1.899,0.08-2.849,0.104c-0.458-0.55-0.917-1.099-1.375-1.648C61.185,29.114,61.735,28.656,62.286,28.198z"/>
<path fill="#4C3124" d="M74.55,46.979c-0.041,2.051-0.083,4.099-0.125,6.149c-0.002,0,0.163-0.085,0.163-0.085c-0.923,1.013-2.057,1.479-3.432,1.306c-1.98-1.324-1.761-3.207-1.305-5.151c0.057-1.33,0.542-2.484,1.454-3.455C72.678,45.392,73.745,45.84,74.55,46.979z"/>
<path fill="#24150F" d="M74.55,46.979c-1.068,0.013-2.137,0.024-3.206,0.037c-0.818-0.766-1.063-1.493-0.732-2.188c0.32-0.677,0.629-1.016,0.925-1.016c1.02-0.04,2.04-0.031,3.06,0.027C74.58,44.888,74.564,45.935,74.55,46.979z"/>
<path fill="#4B2E20" d="M71.536,43.811c-0.063,1.065-0.127,2.133-0.19,3.201c-0.002,0.003,0.174-0.183,0.174-0.183c-0.528,0.751-1.058,1.502-1.587,2.252c-0.526-0.753-1.055-1.504-1.581-2.255c-0.163-0.885-0.334-1.767-0.513-2.646c0.233-1.068,0.472-2.139,0.711-3.208C69.546,41.922,70.541,42.865,71.536,43.811z"/>
<path fill="#3F291B" d="M62.078,34.549c-1.018-0.058-2.021-0.208-3.012-0.448c-0.947-0.705-1.383-1.514-1.309-2.43c0.079-0.97,0.242-1.456,0.494-1.458c1.595-0.54,2.906-0.146,3.938,1.181l-0.181-0.174C62.033,32.33,62.056,33.438,62.078,34.549z"/>
<path fill="#6E4632" d="M40.143,53.095c-0.015,2.051-0.032,4.102-0.049,6.152c0-0.003,0.03,0.015,0.03,0.015c-1.278,1.426-2.836,1.877-4.68,1.35c-1.483-1.114-2.276-2.595-2.386-4.443c0.171-1.853,1.018-3.312,2.541-4.377c1.863-0.448,3.436,0.037,4.721,1.459L40.143,53.095z"/>
<path fill="#341E16" d="M34.122,46.963c1.82,0.113,3.641,0.229,5.458,0.345c0.307,0.942,0.648,1.873,1.022,2.792c0.001,0-1.284-0.329-1.284-0.329c-0.717,1.184-1.741,1.9-3.126,2.084c-1.395,0.064-2.538-0.418-3.39-1.541c-0.047-0.665-0.095-1.328-0.141-1.993C33.148,47.87,33.635,47.415,34.122,46.963z"/>
<path fill="#432A1E" d="M39.784,78.293c-0.899-0.059-1.796-0.107-2.695-0.156c-0.943-1.067-1.888-2.139-2.832-3.207c-0.441-0.521-0.88-1.044-1.321-1.568c0.403-2.124,1.25-3.846,3.718-4.093c1.276,0.537,2.385,1.31,3.331,2.319c0,0,0.589,0.775,0.594,0.781c-0.133,0.913-0.255,1.822-0.366,2.737C40.069,76.169,39.926,77.231,39.784,78.293z"/>
<path fill="#341E16" d="M37.054,50.009c0.76-0.066,1.517-0.144,2.269-0.234c0.328,1.156,0.661,2.316,0.995,3.473c-1.065-0.104-2.131-0.211-3.198-0.317c-0.885-0.629-1.19-1.272-0.914-1.929C36.482,50.339,36.764,50.009,37.054,50.009z"/>
<path fill="#3D251B" d="M37.08,58.911c1.013,0.131,2.028,0.25,3.044,0.354c0.047,1.168,0.096,2.34,0.145,3.516c-0.014,0.928-0.076,1.849-0.19,2.768c-0.001,0,0.041-0.089,0.041-0.089c-1.333,1.66-2.864,2.97-5.167,2.899c-1.26-0.616-2.309-1.489-3.145-2.615l-1.199-0.165c-0.419-0.537-0.838-1.074-1.257-1.611c0.154-1.364,0.461-2.691,0.922-3.985c0.631-1.282,1.606-2.154,2.986-2.563C34.623,57.69,35.9,58.176,37.08,58.911z"/>
<path fill="#704834" d="M34.401,65.717c1.907-0.083,3.814-0.168,5.72-0.254c0.083,1.19,0.167,2.381,0.253,3.577c-0.102,0.86-0.23,1.709-0.386,2.554c-0.003-0.006-1.46,0.053-1.46,0.053l-1.458-0.053c-1.597-0.777-3.546-1.053-4.329-3.006C32.664,67.267,33.217,66.309,34.401,65.717z"/>
<path fill="#593525" d="M59.066,30.78c0,1.107,0,2.212,0,3.32c-2.187-0.791-4.373-1.578-6.559-2.365c-0.687-0.629-1.371-1.254-2.057-1.883c0.678-0.635,1.355-1.27,2.034-1.904l0.57-0.11c0.642-1.092,1.244-2.206,1.804-3.345c0.976-0.918,2.115-1.227,3.421-0.921c0.301,0.559,0.604,1.114,0.905,1.672c0.261,0.952,0.491,1.91,0.688,2.878C60.545,29.294,60.275,30.179,59.066,30.78z"/>
<path fill="#5B3828" d="M52.485,27.948c0.008,1.26,0.016,2.523,0.022,3.784c-1.991-0.492-3.98-0.983-5.972-1.48c0.021-0.738,0.026-1.474,0.017-2.209C48.53,28.012,50.508,27.979,52.485,27.948z"/>
<path fill="#3F291B" d="M43.226,37.634c0.961-0.91,1.922-1.822,2.884-2.731C45.149,35.815,44.187,36.725,43.226,37.634z"/>
<path fill="#543827" d="M24.546,37.427c2.095,0.021,4.19,0.046,6.285,0.067c0.012,1.037,0.037,2.075,0.073,3.109c-1.086,0.012-2.177,0.027-3.271,0.043c-0.003,0-1.494-0.003-1.494-0.003s-1.491,0.033-1.486,0.036C24.62,39.597,24.583,38.513,24.546,37.427z"/>
<path fill="#734C38" d="M30.906,43.753c1.071,1.071,2.143,2.14,3.214,3.21c0.001,0-0.459-0.238-0.459-0.238c-0.972,1.392-2.211,1.696-3.715,0.912C29.313,46.106,29.634,44.812,30.906,43.753z"/>
<path fill="#351F15" d="M30.906,43.753c-0.122,1.007-0.279,2.008-0.47,3.003c-0.434,0.354-0.865,0.708-1.299,1.063c-0.455-0.324-0.909-0.65-1.365-0.974c-0.016-0.992,0.004-1.987,0.064-2.976C28.86,43.79,29.883,43.75,30.906,43.753z"/>
<path fill="#342C29" d="M30.818,37.491c0.001-1.028-0.001-2.057-0.011-3.085c2.106-0.027,4.213-0.055,6.32-0.082c0.006,1.028,0.05,2.06,0.136,3.085C35.116,37.436,32.966,37.463,30.818,37.491z"/>
<path fill="#4E3326" d="M65.104,49.865c1.063,0.089,2.127,0.178,3.189,0.27c1.083,0.787,1.77,1.824,1.995,3.155c-0.079,0.644-0.158,1.288-0.237,1.932c-0.574,0.302-1.149,0.604-1.724,0.903C67.254,54.041,66.179,51.953,65.104,49.865z"/>
<path fill="#422C1D" d="M71.501,59.598c-0.974-0.058-1.95-0.092-2.922-0.101c-0.081-1.12-0.167-2.243-0.251-3.369c0-0.003-0.096,0.152-0.096,0.152c1.041-1.288,2.278-1.59,3.746-0.757c0.971,1.398,0.757,2.637-0.485,3.745L71.501,59.598z"/>
<path fill="#23150F" d="M68.384,62.519c-0.997-0.079-1.993-0.162-2.986-0.254c-0.144-0.945-0.288-1.889-0.437-2.832c0.995-0.033,1.991-0.076,2.983-0.128C68.088,60.376,68.235,61.447,68.384,62.519z"/>
<path fill="#281A11" d="M68.693,53.211c-0.148-1.025-0.281-2.058-0.398-3.083c0.019-1.096,0.037-2.197,0.057-3.302c1.055,0,2.11,0.003,3.166,0.006c0.01,2.048,0.017,4.099,0.024,6.149c-0.434,0.55-0.868,1.099-1.302,1.654C69.725,54.162,69.209,53.687,68.693,53.211z"/>
<path fill="#24150F" d="M71.493,59.269c-0.025-0.979-0.047-1.96-0.063-2.939c-1.01-0.638-1.356-1.291-1.044-1.965c0.317-0.678,0.64-1.02,0.969-1.02c0,0,0.182-0.357,0.184-0.36c1.017,0.064,2.032,0.086,3.049,0.062c-0.003,2.111-0.005,4.229-0.008,6.345C73.55,59.366,72.521,59.326,71.493,59.269z"/>
<path fill="#20150E" d="M77.676,66.089c-1.069-0.138-2.139-0.277-3.21-0.415c0.047-2.091,0.093-4.181,0.141-6.269c1.053,1.022,2.104,2.042,3.158,3.064C77.735,63.675,77.707,64.884,77.676,66.089z"/>
<path fill="#472D20" d="M37.048,34.555c0.11-1.02,0.146-2.042,0.112-3.064C37.104,32.514,37.068,33.533,37.048,34.555z"/>
<path fill="#935F44" d="M55.827,24.997c-0.925,0.949-1.85,1.898-2.772,2.844c-0.18-1.975-0.363-3.946-0.547-5.915c1.111-0.012,2.224-0.024,3.336-0.037c0.494,0.519,0.99,1.041,1.486,1.563C56.828,23.965,56.327,24.481,55.827,24.997z"/>
<path fill="#935F44" d="M55.946,18.506c1.044,0.055,2.089,0.11,3.133,0.165c0.087,1.11,0.175,2.218,0.262,3.329c-0.286,0.437-0.573,0.87-0.86,1.306c-1.061-0.167-1.942-0.668-2.67-1.45l0.032,0.034C55.877,20.761,55.912,19.635,55.946,18.506z"/>
<path fill="#623F2E" d="M24.769,56.299c-0.049-1.086-0.1-2.173-0.146-3.26l-0.116,0.126c0.99-1.27,2.248-1.646,3.773-1.126c0.916,1.26,1.102,2.605,0.447,4.043C27.458,57.037,26.138,57.11,24.769,56.299z"/>
<path fill="#6D4631" d="M24.769,56.299c0.961-0.037,1.922-0.067,2.885-0.095c0,0,1.303,0.812,1.303,0.809c0.001,0,0.033,1.538,0.033,1.538c0.002,0-1.271,0.861-1.271,0.861c-1.08,0.015-2.162,0.03-3.244,0.045C24.572,58.404,24.672,57.352,24.769,56.299z"/>
<path fill="#351F15" d="M27.726,62.57c-0.003-1.053-0.005-2.105-0.006-3.158l-0.061-0.067c1.05-1.096,2.219-1.239,3.505-0.434c0.67,1.327,0.485,2.555-0.43,3.698l0.177-0.25C29.942,63.837,28.885,63.977,27.726,62.57z"/>
<path fill="#734C38" d="M27.726,62.57c1.061-0.07,2.123-0.141,3.185-0.211c-0.099,1.074-0.198,2.146-0.299,3.22c-1.152,0.013-2.301,0.027-3.455,0.04C27.415,64.615,27.606,63.599,27.726,62.57z"/>
<path fill="#593525" d="M62.299,22.049c-0.146,0.955-0.275,1.917-0.391,2.878c-0.904,0.162-1.813,0.266-2.726,0.314c0.003,0.003-0.138-0.156-0.138-0.156c-0.993-0.604-1.427-1.318-1.302-2.146c0.136-0.882,0.339-1.324,0.61-1.324l0.987,0.384C60.327,21.994,61.314,22.012,62.299,22.049z"/>
<path fill="#9A664B" d="M59.066,30.78c0.198-0.907,0.466-1.792,0.805-2.658c0.807,0.024,1.609,0.049,2.413,0.076c-0.031,1.065-0.063,2.13-0.096,3.195C61.147,31.189,60.107,30.984,59.066,30.78z"/>
<path fill="#6F432E" d="M30.934,78.329c-0.063-1.144-0.127-2.288-0.191-3.433c-0.001-0.003-0.047,0.006-0.047,0.006c0.519-0.632,1.038-1.261,1.557-1.889c0.381,0.72,0.763,1.44,1.146,2.16c0,0,0.851-0.244,0.854-0.244c-0.06,1.087-0.124,2.173-0.188,3.26C33.023,78.238,31.979,78.283,30.934,78.329z"/>
<path fill="#2F1E14" d="M34.401,65.717c-0.225,0.982-0.423,1.971-0.597,2.966c-1.038,1.446-2.052,1.435-3.049-0.042l0.101,0.094c0.314-0.998,0.627-1.992,0.948-2.99C32.672,65.756,33.537,65.747,34.401,65.717z"/>
<path fill="#60402A" d="M30.755,68.641c1.016,0.027,2.033,0.042,3.049,0.042c1.089,0.971,2.179,1.944,3.268,2.915c-1.222,1.189-2.444,2.383-3.669,3.576c-0.905-0.088-1.805-0.18-2.706-0.271C30.716,72.815,30.735,70.728,30.755,68.641z"/>
<path fill="#3B2618" d="M25.123,50.131c0.883-1.096,1.767-2.19,2.65-3.286c-0.001,0-0.125-0.092-0.125-0.092c1.261,0.897,1.611,2.094,1.175,3.549C27.548,51.163,26.313,51.107,25.123,50.131z"/>
<path fill="#2F1E14" d="M25.123,50.131c0.669-0.012,1.339-0.015,2.009-0.012c0.896,0.473,1.242,1.016,1.042,1.627c-0.211,0.646-0.447,0.973-0.711,0.973c-0.981,0.171-1.967,0.32-2.956,0.446C24.683,52.148,24.888,51.135,25.123,50.131z"/>
<path fill="#60402A" d="M37.054,50.009c0.017,0.974,0.038,1.95,0.065,2.924c-0.007,1.126-0.015,2.259-0.023,3.391c-1.306,0.748-2.693,0.961-4.162,0.635c-1.131-1.022-1.692-2.304-1.767-3.814c0.238-0.696,0.478-1.386,0.715-2.081c0.648-0.342,1.297-0.684,1.946-1.025C34.904,50.027,35.978,50.019,37.054,50.009z"/>
<path fill="#6E4632" d="M33.831,56.161c1.088,0.052,2.176,0.104,3.264,0.159c-0.006,0.869-0.012,1.736-0.015,2.597c-1.027,0.174-2.055,0.354-3.082,0.534c-0.484-0.247-0.968-0.497-1.45-0.748c-0.023-0.54-0.044-1.083-0.067-1.626C32.931,56.772,33.381,56.467,33.831,56.161z"/>
<path fill="#6D4631" d="M27.464,52.719c-0.038-0.875-0.145-1.742-0.328-2.6c0.169-1.123,0.34-2.243,0.513-3.366c0.931-0.009,1.862-0.006,2.79,0.003c1.074-0.009,2.15-0.018,3.224-0.027c0.055,1.102,0.111,2.203,0.168,3.309c-0.001,0,0.162-0.192,0.162-0.192c-1.279,1.235-1.601,2.832-1.695,4.513c-0.244,1.111-0.766,2.069-1.568,2.875c-1.157,0.159-2.167-0.137-3.006-0.964c0,0-0.065-0.064-0.067-0.064C27.591,55.041,27.526,53.879,27.464,52.719z"/>
<path fill="#6F432E" d="M30.734,62.609c-0.063-1.107-0.124-2.215-0.186-3.323c0.58-0.464,1.16-0.925,1.739-1.385c0.556,0.491,1.111,0.979,1.667,1.471c0,0,0.042,0.076,0.042,0.079C32.91,60.504,31.822,61.557,30.734,62.609z"/>
<path fill="#86573A" d="M58.353,21.616c0.229,1.157,0.46,2.313,0.69,3.47c-1.071-0.031-2.145-0.058-3.217-0.088c-0.005-1.047-0.011-2.094-0.017-3.141C56.66,21.793,57.507,21.713,58.353,21.616z"/>
<path fill="#20150E" d="M71.355,53.345c0.034,0.995,0.059,1.986,0.077,2.981c-1.067-0.016-2.132-0.03-3.198-0.046c0.12-1.028,0.27-2.054,0.454-3.069C69.581,53.234,70.47,53.28,71.355,53.345z"/>
<path fill="#3B2618" d="M27.722,56.269c1.083,0.036,2.167,0.076,3.249,0.112c0.465,0.52,0.929,1.038,1.396,1.557c-0.5,0.485-1.002,0.971-1.503,1.453c0,0-0.307-0.102-0.312-0.104c-0.967,0.034-1.929,0.056-2.893,0.062C27.676,58.319,27.697,57.294,27.722,56.269z"/>
<path fill="#3B2618" d="M31.358,53.186c0.877-1.113,1.755-2.228,2.634-3.341c-0.133,1.113-0.266,2.228-0.398,3.345c-0.374,0.711-0.748,1.422-1.122,2.136C32.101,54.611,31.729,53.898,31.358,53.186z"/>
<path fill="#352118" d="M31.358,53.186c0.748-0.003,1.496-0.003,2.239,0.004c0.125,0.985,0.204,1.978,0.235,2.972l0.114,0.08c-1.042,1.449-2.084,1.449-3.124-0.003c0,0,0.145,0.137,0.146,0.14C31.1,55.316,31.228,54.251,31.358,53.186z"/>
<path fill="#60402A" d="M30.822,56.238c1.044,0.003,2.088,0.009,3.128,0.006c-0.001,1.04,0,2.087,0.003,3.131c-1.042,0-2.083,0-3.108,0.009C30.85,58.341,30.836,57.287,30.822,56.238z"/>
</svg>