<?xml version="1.0" encoding="utf-8"?>
<!DOCTYPE svg PUBLIC "-//W3C//DTD SVG 1.1//EN" "http://www.w3.org/Graphics/SVG/1.1/DTD/svg11.dtd">
<svg version="1.1" xmlns="http://www.w3.org/2000/svg" xmlns:xlink="http://www.w3.org/1999/xlink" x="0px" y="0px" width="100px" height="100px" viewBox="0 0 100 100" enable-background="new 0 0 100 100" xml:space="preserve">
<path fill="#A09D9A" d="M12.501,100c-0.987-4.874-1.973-9.747-2.191-10.824c0-11.875,0-20.193,0-28.513c0.563,0.006,1.126,0.012,1.689,0.015c0-14.022-0.05-28.045,0.021-42.071c0.033-6.201,0.313-12.405,0.48-18.606c2.083,0,4.167,0,6.25,0c3.566,3.506,4.632,7.871,4.654,12.726c0.108,24.838,0.179,49.674-0.072,74.509c-0.049,4.81-0.977,9.256-4.582,12.766C16.668,100,14.584,100,12.501,100z"/>
<path fill="#A09D9A" d="M87.5,0c0.385,13.562,0.716,27.127,1.179,40.689c0.226,6.644,0.692,13.282,1.013,19.232c0,8.569,0,16.4,0,24.231c0.379-0.052,0.756-0.104,1.134-0.156c-1.107,5.335-2.217,10.67-3.325,16.004c-2.082,0-4.167,0-6.25,0c-7.687-33.334-7.813-66.666,0-100C83.333,0,85.418,0,87.5,0z"/>
<path fill="#666562" d="M18.751,100c0-33.334,0-66.666,0-100c2.083,0,4.167,0,6.25,0c2.341,3.042,6.931,2.915,9,6.357c1.131,2.063,1.421,4.266,1.097,6.57c-0.749,2.863-2.722,5.286-3.101,8.652c0.008,3.305,3.633,5.603,3.578,9.253c0.217,2.133,0.197,4.27-0.148,6.387c-3.635,6.159-4.675,12.357-0.183,18.622c0.459,2.097,0.478,4.196,0.18,6.309c-0.801,3.408-3.011,6.362-3.179,9.981c-0.764,3.55-1.89,7.017-2.063,10.682c-0.461,3.803-0.356,7.657-1.169,11.42c-0.854,2.264-2.399,4.04-4.013,5.768C22.918,100,20.834,100,18.751,100z"/>
<path fill="#676562" d="M81.25,0c0,33.334,0,66.666,0,100c-2.082,0-4.167,0-6.25,0c-1.617-1.733-3.163-3.519-4.011-5.78c-0.818-3.771-0.693-7.642-1.161-11.44c-0.211-3.659-1.302-7.166-2.02-10.728c-0.259-3.589-2.455-6.564-3.254-9.982c-0.292-2.097-0.268-4.187,0.164-6.262c4.123-6.226,3.354-12.412-0.198-18.582c-0.343-2.106-0.348-4.215-0.217-6.333c0.761-6.052,5.695-11.963,0.555-18.204c-0.344-2.277-0.077-4.45,1.057-6.485C68.076,2.869,72.646,3.064,75,0C77.083,0,79.168,0,81.25,0z"/>
<path fill="#604B29" d="M68.442,81.772c2.016-0.253,4.031-0.503,6.044-0.754c0.068,4.166,0.138,8.332,0.204,12.494c-16.461,0-32.92,0.003-49.377,0.003c0.05-4.141,0.101-8.276,0.151-12.411c1.996,0.217,3.99,0.428,5.984,0.641c2.167,1.996,4.802,2.606,7.655,2.588c2.11,0.037,4.216,0.04,6.328,0.043C53.098,83.45,61.224,86.621,68.442,81.772z"/>
<path fill="#937443" d="M63.128,12.83c-10.958,7.706-21.675,8.264-32.07-1.074c-0.065-1.438-0.126-2.869-0.194-4.303c2.237-0.155,4.48-0.311,6.725-0.467C45.096,13.324,55.937,5.106,63.128,12.83z"/>
<path fill="#8B0001" d="M37.426,38.202c-2.153-0.266-4.306-0.534-6.459-0.8c-0.069-1.804-0.138-3.604-0.206-5.405c4.446,1.694,8.893,3.388,13.339,5.078C42.171,39.206,39.93,39.483,37.426,38.202z"/>
<path fill="#590000" d="M37.403,67.877c-3.627-0.046-7.252-0.088-10.869-0.146c1.559-1.831,3.111-3.652,4.663-5.475c1.974-1.627,4.018-1.554,6.111-0.25C38.891,63.938,39.269,65.891,37.403,67.877z"/>
<path fill="#870001" d="M37.168,62.674c-1.99-0.137-3.981-0.274-5.971-0.415c-0.164-1.788-0.327-3.573-0.49-5.355c2.199-0.181,4.398-0.363,6.597-0.547c0.458,0.446,0.917,0.889,1.376,1.334c0.375,1.251,0.376,2.496-0.057,3.735C38.138,61.841,37.653,62.259,37.168,62.674z"/>
<path fill="#3B0000" d="M55.954,31.851c4.569-0.094,9.138-0.186,13.707-0.281c-0.009,2.591-0.017,5.179-0.025,7.767c3.402,5.927,2.767,11.795-0.263,17.627c-0.127,1.865-0.253,3.732-0.38,5.597c-1.689,1.874-3.798,2.375-6.203,1.898c-1.408-0.613-2.58-1.538-3.513-2.759c-2.314-7.788-1.826-16.235-5.51-23.718C53.542,35.596,54.371,33.588,55.954,31.851z"/>
<path fill="#A07F4E" d="M63.128,12.83c-8.513-1.95-17.026-3.897-25.539-5.844C48.075,7.053,58.561,7.12,69.053,7.191c0.025,1.626,0.046,3.253,0.07,4.876C67.129,12.32,65.128,12.573,63.128,12.83z"/>
<path fill="#600000" d="M62.661,62.616c2.11-0.019,4.22-0.04,6.332-0.056c1.414,1.7,2.829,3.403,4.226,5.094c-3.528,0.079-7.041,0.165-10.552,0.25C60.714,66.144,61.018,64.38,62.661,62.616z"/>
<path fill="#C7B1B1" d="M37.426,38.202c2.223-0.375,4.448-0.751,6.673-1.126c1.913-0.024,3.825-0.052,5.737-0.076c0.807,0.32,1.615,0.638,2.425,0.961c3.752,2.505,7.287,5.151,6.951,10.403c-3.743,14.032-7.363,15.296-21.237,7.425l-0.671,0.567c-0.101-2.117-0.2-4.235-0.301-6.354c-0.001-0.524-0.003-1.053-0.004-1.581c-0.011-1.053-0.023-2.105-0.035-3.158c-0.001-0.528-0.003-1.053-0.004-1.581C37.114,41.858,37.27,40.03,37.426,38.202z"/>
<path fill="#520000" d="M55.954,31.851c0.084,1.608,0.168,3.22,0.252,4.831c-0.277,0.595-0.557,1.19-0.835,1.785c-1.9,1.025-3.736,0.894-5.51-0.314c0,0-0.018-1.157-0.021-1.157C51.876,35.281,53.916,33.566,55.954,31.851z"/>
<path fill="#520000" d="M62.661,62.616c0.001,1.764,0.003,3.53,0.006,5.292c-8.422-0.01-16.843-0.016-25.264-0.025c-0.078-1.739-0.154-3.476-0.233-5.209c-0.001,0,0.368-0.537,0.368-0.537c8.197-3.668,16.391-4.752,24.574,0.04L62.661,62.616z"/>
<path fill="#9D7E47" d="M68.442,81.772c-8.278,1.706-16.558,3.415-24.835,5.124c-1.659-1.696-1.652-3.366,0.078-5.011C51.937,81.845,60.19,81.809,68.442,81.772z"/>
<path fill="#866D45" d="M37.766,87.125c-2.106-1.795-4.211-3.589-6.317-5.381c2.063,0.006,4.126,0.013,6.189,0.021C39.315,83.512,39.315,85.3,37.766,87.125z"/>
<path fill="#AB8752" d="M37.766,87.125c-0.043-1.789-0.085-3.574-0.128-5.359c2.016,0.04,4.031,0.079,6.047,0.119c-0.026,1.672-0.052,3.345-0.078,5.014C41.66,86.972,39.713,87.049,37.766,87.125z"/>
<path fill="#520000" d="M37.003,50.003c-1.265-0.692-2.53-1.386-5.06-2.774c2.174-1.535,3.595-2.536,5.016-3.543c0-0.003,1.094-0.095,1.094-0.095c1.369,2.161,1.417,4.342,0.099,6.546L37.003,50.003z"/>
<path fill="#7D7171" d="M62.111,62.177c-8.19-0.013-16.382-0.024-24.573-0.04c0.145-2.115,0.29-4.229,0.437-6.348c4.947,0,9.894,0,16.126,0c0.594-4.62,1.076-8.361,1.559-12.103c-1.297-2.051-1.267-3.974,0.566-5.716l-0.021-1.288C58.175,45.181,60.143,53.678,62.111,62.177z"/>
<path fill="#C7BCBC" d="M56.227,37.97c-0.189,1.908-0.377,3.812-0.566,5.716c-1.934-1.843-3.867-3.69-5.799-5.533C51.982,38.092,54.104,38.031,56.227,37.97z"/>
<path fill="#C7BCBC" d="M38.152,50.138c-0.032-2.183-0.065-4.364-0.099-6.546c1.16,0.763,2.318,1.526,4.454,2.933C40.749,47.982,39.451,49.061,38.152,50.138z"/>
</svg>