<?xml version="1.0" encoding="utf-8"?>
<!DOCTYPE svg PUBLIC "-//W3C//DTD SVG 1.1//EN" "http://www.w3.org/Graphics/SVG/1.1/DTD/svg11.dtd">
<svg version="1.1" xmlns="http://www.w3.org/2000/svg" xmlns:xlink="http://www.w3.org/1999/xlink" x="0px" y="0px" width="100px" height="100px" viewBox="0 0 100 100" enable-background="new 0 0 100 100" xml:space="preserve">
<path fill="#CDCDCD" d="M0.001,43.751c2.125,0.168,4.251,0.336,6.376,0.503c1.622,1.379,1.74,3.058,0.981,4.917c-0.493,0.366-0.989,0.732-1.483,1.096C3.917,50.178,1.958,50.09,0,50.001C0.001,47.917,0.001,45.836,0.001,43.751z"/>
<path fill="#DCDCDC" d="M93.564,43.952c2.146-0.067,4.291-0.134,6.436-0.201c0,2.084,0,4.166,0,6.25c-1.6,1.761-3.501,1.926-5.598,1.071c-1.787-1.396-2.457-3.208-2.028-5.432C92.771,45.079,93.169,44.514,93.564,43.952z"/>
<path fill="#CDCDCD" d="M6.251,0.001c0.058,2.143,0.118,4.285,0.175,6.424C4.284,6.367,2.143,6.309,0.001,6.251C2.084,4.167,4.168,2.086,6.251,0.001z"/>
<path fill="#DCDCDC" d="M56.25,0.001c0.104,1.98,0.203,3.961,0.307,5.938c-0.476,0.498-0.947,0.992-1.423,1.489c-1.339,0.418-2.678,0.439-4.018,0.006c-0.474-0.498-0.948-0.995-1.421-1.496C49.798,3.96,49.898,1.98,50,0C52.083,0.001,54.168,0.001,56.25,0.001z"/>
<path fill="#CDCDCD" d="M100,6.251c-2.143,0.058-4.282,0.116-6.425,0.174c0.058-2.139,0.116-4.281,0.175-6.424C95.833,2.086,97.918,4.167,100,6.251z"/>
<path fill="#FEFEFE" d="M93.537,49.849c2.154,0.052,4.309,0.101,6.463,0.152c0,2.084,0,4.166,0,6.25c-1.666,1.81-3.613,1.923-5.743,0.955c-1.813-1.472-2.44-3.354-1.94-5.624C92.723,51.005,93.13,50.425,93.537,49.849z"/>
<path fill="#DCDCDC" d="M94.254,55.165c1.915,0.362,3.832,0.724,5.746,1.086c0,2.084,0,4.166,0,6.25c-2.158-0.03-4.316-0.063-6.477-0.095c-0.433-0.424-0.865-0.85-1.301-1.272c-0.469-1.139-0.613-2.319-0.437-3.54C92.249,56.419,93.07,55.609,94.254,55.165z"/>
<path fill="#CDCDCD" d="M6.426,93.577c-0.058,2.139-0.117,4.28-0.175,6.424c-2.083-2.084-4.167-4.166-6.25-6.25C2.143,93.693,4.284,93.635,6.426,93.577z"/>
<path fill="#CDCDCD" d="M37.501,100.001c0.168-2.124,0.335-4.251,0.503-6.375c1.379-1.624,3.06-1.742,4.917-0.981c0.366,0.494,0.731,0.987,1.096,1.481c-0.088,1.96-0.177,3.916-0.266,5.875C41.668,100.001,39.584,100.001,37.501,100.001z"/>
<path fill="#CDCDCD" d="M93.575,93.577c2.143,0.058,4.282,0.116,6.425,0.174c-2.082,2.084-4.167,4.166-6.25,6.25C93.691,97.857,93.633,95.716,93.575,93.577z"/>
<path fill="#CDCDCD" d="M18.711,68.534c-1.998-4.099-3.995-8.197-5.992-12.295c0.696-0.438,1.393-0.873,2.089-1.31c8.47,0.885,8.762,5.73,5.875,12.117C20.026,67.542,19.369,68.037,18.711,68.534z"/>
<path fill="#DCDCDC" d="M12.719,56.239c-2.281-1.99-4.563-3.983-6.844-5.973c0.479-0.226,0.934-0.491,1.367-0.797c2.252-1.251,4.23-0.814,5.986,0.977c1.104,2.207,1.106,4.24-0.937,5.949L12.719,56.239z"/>
<path fill="#DCDCDC" d="M19.27,75.044c-0.185-2.17-0.371-4.343-0.557-6.51c-0.001,0-0.118,0.418-0.118,0.418c4.244-3.527,6.644-1.593,8.22,2.774c-0.058,1.521-0.562,2.881-1.509,4.07C23.125,76.896,21.085,76.865,19.27,75.044z"/>
<path fill="#ECECEC" d="M19.27,75.044c1.71,0.158,3.421,0.32,5.131,0.481c2.09,1.531,2.438,3.25,0.555,5.207c-2.13,0.233-4.26,0.47-6.39,0.701C18.801,79.305,19.034,77.174,19.27,75.044z"/>
<path fill="#CDCDCD" d="M18.943,81.059c-2.207,2.207-4.415,4.414-6.621,6.623C14.528,85.473,16.736,83.266,18.943,81.059z"/>
<path fill="#CDCDCD" d="M12.679,87.32c-2.202,2.203-4.405,4.406-6.607,6.609C8.274,91.729,10.477,89.523,12.679,87.32z"/>
<path fill="#ECECEC" d="M18.81,31.388c-0.108-4.16-0.217-8.319-0.325-12.479c0.503-0.559,1.007-1.114,1.512-1.672c1.396-0.635,2.856-0.873,4.384-0.711c1.445,0.531,2.661,1.385,3.653,2.561c1.164,2.051,1.416,4.293,1.373,6.595c-0.128,2.341-0.745,4.492-2.396,6.247c-1.982,1.48-4.14,1.758-6.458,0.943C19.973,32.377,19.392,31.883,18.81,31.388z"/>
<path fill="#CDCDCD" d="M13.02,37.544c1.93-2.051,3.862-4.102,5.791-6.152c0-0.003-0.116-0.373-0.116-0.373c1.878,2.005,2.008,4.227,0.818,6.613C17.325,39.232,15.159,39.433,13.02,37.544z"/>
<path fill="#FEFEFE" d="M12.761,50.199c-1.841-0.244-3.683-0.485-5.522-0.729c-0.285-1.739-0.574-3.476-0.862-5.215c2.013-0.293,4.025-0.583,6.038-0.873c0.468,0.464,0.937,0.928,1.405,1.392c0.43,1.272,0.502,2.561,0.159,3.866C13.573,49.159,13.168,49.678,12.761,50.199z"/>
<path fill="#DCDCDC" d="M13.02,37.544c1.663,0.006,3.325,0.012,4.988,0.021c2.426,1.755,2.502,4.007,1.375,6.516c-2.176,1.678-4.476,1.984-6.924,0.628l-0.043-1.327C12.616,41.435,12.818,39.488,13.02,37.544z"/>
<path fill="#CDCDCD" d="M6.072,6.071c2.205,2.207,4.41,4.41,6.615,6.616C10.482,10.481,8.277,8.277,6.072,6.071z"/>
<path fill="#DCDCDC" d="M12.316,12.321c2.174,0.232,4.347,0.461,6.521,0.693c1.64,1.453,2.057,3.171,1.131,5.185c-0.465,0.296-0.961,0.534-1.483,0.711C16.428,16.712,14.373,14.518,12.316,12.321z"/>
<path fill="#DCDCDC" d="M87.25,74.784c0.145,4.3,0.285,8.6,0.43,12.899c-2.174-0.231-4.347-0.465-6.518-0.695c-1.861-1.449-3.969-2.454-6.128-3.375c-1.283-1.021-2.146-2.312-2.604-3.885c-0.348-2.553,0.338-4.776,2.053-6.692c3.718-2.757,7.49-2.872,11.318-0.235C86.284,73.463,86.768,74.122,87.25,74.784z"/>
<path fill="#CDCDCD" d="M62.311,87.333c-4.117,1.966-8.233,3.935-12.352,5.899c-1.891-2.155-1.908-4.472-0.601-6.903c3.533-3.425,7.349-3.613,11.41-1.001C61.283,85.996,61.796,86.665,62.311,87.333z"/>
<path fill="#CDCDCD" d="M68.792,86.982c-2.161,0.115-4.321,0.23-6.481,0.351l0.359,0.345c-3.079-5.96-0.55-7.889,5.324-7.414C70.348,82.252,70.566,84.498,68.792,86.982z"/>
<path fill="#DCDCDC" d="M68.792,86.982c0-1.736,0-3.478,0-5.213c1.712-2.101,3.671-2.43,5.899-0.828c0.367,0.386,0.73,0.772,1.094,1.16c1.123,1.822,0.977,3.465-0.699,4.887C72.988,86.984,70.891,86.984,68.792,86.982z"/>
<path fill="#FEFEFE" d="M75.086,86.988c0.232-1.631,0.464-3.26,0.697-4.889c1.795,1.633,3.586,3.258,5.379,4.889C79.137,86.988,77.109,86.988,75.086,86.988z"/>
<path fill="#DCDCDC" d="M49.959,88.02c0,1.736,0,3.478,0,5.213c-1.98,0.3-3.961,0.596-5.943,0.895c-0.23-0.473-0.496-0.928-0.795-1.359c-1.244-2.211-0.823-4.154,0.947-5.882C46.378,85.835,48.371,85.898,49.959,88.02z"/>
<path fill="#CDCDCD" d="M87.314,87.314c2.205,2.207,4.41,4.41,6.615,6.617C91.725,91.725,89.52,89.521,87.314,87.314z"/>
<path fill="#CDCDCD" d="M37.699,12.684c2.031-1.971,4.062-3.943,6.093-5.915c1.726,1.603,1.906,3.507,1.096,5.606c-1.507,1.739-3.395,2.151-5.56,1.587C38.784,13.536,38.242,13.111,37.699,12.684z"/>
<path fill="#DCDCDC" d="M43.802,11.872c-0.003-1.7-0.007-3.402-0.011-5.103c1.969-0.274,3.935-0.552,5.904-0.83c0.369,0.375,0.74,0.748,1.11,1.123c1.09,2.292,0.637,4.288-1.164,6.024C47.392,14.146,45.368,14.109,43.802,11.872z"/>
<path fill="#FEFEFE" d="M19.968,18.199c-0.377-1.728-0.754-3.458-1.131-5.185c2.025,0,4.05,0,6.075,0c1.698,2.249,1.857,4.172-1.157,5.417C22.494,18.355,21.23,18.275,19.968,18.199z"/>
<path fill="#DCDCDC" d="M23.755,18.431c0.386-1.804,0.771-3.61,1.157-5.417c2.098,0,4.196,0.003,6.294,0.006c1.947,1.996,1.813,4.129,0.406,6.342c-2.269,1.285-4.438,1.248-6.475-0.498L23.755,18.431z"/>
<path fill="#CDCDCD" d="M31.199,18.122c0.003-1.7,0.004-3.402,0.007-5.103c2.164-0.113,4.328-0.223,6.491-0.335c0.001,0-0.354-0.348-0.354-0.348c1.82,2.42,1.88,4.801-0.651,6.656C34.76,20.408,32.845,19.608,31.199,18.122z"/>
<path fill="#DCDCDC" d="M24.956,80.732c-0.182-1.736-0.364-3.478-0.551-5.211c-0.004,0.004,0.87-0.795,0.87-0.795c1.731-1.533,3.628-1.611,5.644-0.639c1.682,1.482,2.257,3.316,1.756,5.496c-0.408,0.549-0.815,1.102-1.224,1.654C29.287,81.066,27.122,80.9,24.956,80.732z"/>
<path fill="#CDCDCD" d="M37.124,87.593c-1.891-2.118-3.78-4.239-5.67-6.356c-0.001,0.004-0.408,0.174-0.408,0.174c1.642-1.932,3.625-2.087,5.824-1.123c1.869,1.529,2.451,3.455,1.784,5.77C38.145,86.566,37.633,87.08,37.124,87.593z"/>
<path fill="#FEFEFE" d="M43.947,87.241c-0.241,1.844-0.482,3.687-0.725,5.526c-1.741,0.283-3.479,0.57-5.219,0.857c-0.294-2.012-0.587-4.021-0.88-6.033c0.5,0.314,1.02,0.348,1.557,0.102c0.916-1.094,2.084-1.578,3.506-1.459C42.774,86.57,43.36,86.906,43.947,87.241z"/>
<path fill="#DCDCDC" d="M56.557,5.94c1.967,0.278,3.934,0.553,5.899,0.83c1.928,1.908,1.858,4.007,0.601,6.22c-2.094,1.443-4.246,1.495-6.449,0.269c-1.808-1.797-2.275-3.848-1.158-6.195C55.816,6.688,56.188,6.315,56.557,5.94z"/>
<path fill="#CDCDCD" d="M93.93,6.071c-2.205,2.207-4.41,4.41-6.615,6.616C89.52,10.481,91.725,8.277,93.93,6.071z"/>
<path fill="#DCDCDC" d="M68.546,12.516c2.072,2.075,4.146,4.15,6.218,6.226c-0.529,0.424-1.061,0.849-1.59,1.273c-4.455,0.558-6.328-1.456-5.818-5.841C67.753,13.621,68.148,13.068,68.546,12.516z"/>
<path fill="#DCDCDC" d="M87.684,12.318c-2.211,2.209-4.422,4.422-6.633,6.631C83.262,16.74,85.473,14.527,87.684,12.318z"/>
<path fill="#CDCDCD" d="M62.459,11.982c-0.001-1.737-0.001-3.476-0.003-5.213c2.028,1.917,4.06,3.836,6.09,5.75c0-0.003,0.406-0.174,0.406-0.174C66.666,14.381,64.512,14.115,62.459,11.982z"/>
<path fill="#ECECEC" d="M81.443,18.556c-0.063,2.219-0.127,4.438-0.189,6.656c-0.586,0.397-1.174,0.796-1.76,1.196c-2.305,0.452-4.166-0.244-5.572-2.133c-0.869-2.194-0.667-4.141,1.303-5.685c0,0-0.461,0.159-0.461,0.156C76.99,18.681,79.218,18.62,81.443,18.556z"/>
<path fill="#DCDCDC" d="M81.254,25.211c2.075,2.082,4.15,4.163,6.227,6.244c-0.705,0.369-1.41,0.738-2.113,1.108c-5.245-0.602-7.299-2.823-3.955-7.785L81.254,25.211z"/>
<path fill="#CDCDCD" d="M87.48,31.456c1.918,2.029,3.836,4.059,5.754,6.088c-2.144,1.889-4.311,1.685-6.494,0.076c-1.172-2.396-1.061-4.614,0.917-6.57L87.48,31.456z"/>
<path fill="#DCDCDC" d="M88.02,37.541c1.737,0,3.477,0,5.215,0.003c0.111,2.133,0.221,4.269,0.332,6.405c0,0.003,0.377-0.381,0.377-0.381c-2.375,1.837-4.739,1.947-6.631-0.531C85.871,41.154,86.611,39.229,88.02,37.541z"/>
<path fill="#CDCDCD" d="M93.523,62.406c-0.098,2.127-0.194,4.257-0.293,6.388c-2.478,1.774-4.723,1.554-6.719-0.791c-0.52-5.911,1.494-8.353,7.428-5.433L93.523,62.406z"/>
<path fill="#DCDCDC" d="M88.286,68.82c1.647-0.01,3.298-0.019,4.944-0.026c0,1.688,0,3.375,0,5.572c-2.504,0.177-4.242,0.296-5.98,0.418l0.396,0.368C85.633,72.816,85.893,70.71,88.286,68.82z"/>
<path fill="#FEFEFE" d="M55.447,7.063c0.336,1.898,0.671,3.793,1.006,5.692c-0.485,0.406-0.971,0.809-1.455,1.211c-1.238,0.366-2.473,0.333-3.702-0.04c-0.472-0.418-0.944-0.836-1.416-1.254c0.307-1.874,0.613-3.745,0.923-5.612C52.352,7.063,53.9,7.063,55.447,7.063z"/>
<path fill="#ECECEC" d="M81.555,49.876c4.034-0.01,8.068-0.019,12.104-0.027c0.197,1.775,0.396,3.551,0.596,5.322c0.001-0.006-0.536,1.126-0.536,1.126c-3.465,2.993-7.604,4.051-12.062,4.188c-2.686-0.168-5.066-1.025-6.941-3.039c-1.506-2.391-1.632-4.805-0.121-7.242C76.832,48.374,79.145,48.097,81.555,49.876z"/>
<path fill="#DCDCDC" d="M31.429,31.382c-2.168-0.287-4.335-0.574-6.502-0.861c0.038-1.874,0.078-3.75,0.116-5.627C27.172,27.058,29.3,29.219,31.429,31.382z"/>
<path fill="#ECECEC" d="M18.711,43.766c2.098,0,4.196,0.003,6.294,0.003c0.434,0.467,0.865,0.931,1.299,1.397c0.368,1.248,0.348,2.487-0.061,3.72c-0.458,0.442-0.916,0.886-1.372,1.328c-4.082-0.003-8.162-0.007-12.242-0.01c-0.055-1.837-0.112-3.674-0.168-5.502C14.542,44.395,16.627,44.081,18.711,43.766z"/>
<path fill="#ECECEC" d="M44.117,81.364c-0.053,2.005-0.108,4.007-0.163,6.009c-1.759,0.105-3.521,0.214-5.277,0.32c-0.458-2.234-0.918-4.465-1.379-6.698l-0.021,0.108C39.625,79.377,41.904,79.518,44.117,81.364z"/>
<path fill="#DCDCDC" d="M68.559,31.443c2.215-2.216,4.428-4.428,6.643-6.641C72.986,27.015,70.773,29.228,68.559,31.443z"/>
<path fill="#DCDCDC" d="M62.328,31.459c2.203-0.131,4.408-0.262,6.611-0.397c-0.133,2.204-0.267,4.407-0.396,6.613c-0.458,0.418-0.916,0.839-1.375,1.261c-1.9,0.659-3.639,0.36-5.217-0.885c-1.25-1.578-1.549-3.314-0.887-5.215C61.484,32.377,61.907,31.916,62.328,31.459z"/>
<path fill="#DCDCDC" d="M68.543,37.675c1.752,0.153,3.505,0.309,5.775,0.51c0.188,2.249,0.336,3.998,0.482,5.75c-0.693,0.366-1.388,0.735-2.082,1.102c-5.191-0.65-7.156-2.881-3.787-7.727L68.543,37.675z"/>
<path fill="#DCDCDC" d="M81.555,49.876c-1.972,0.244-3.941,0.488-5.912,0.735c-1.209-0.391-2.062-1.156-2.494-2.365c-0.293-1.983,0.465-3.509,2.045-4.678l-0.391,0.366C77.053,45.915,79.305,47.896,81.555,49.876z"/>
<path fill="#ECECEC" d="M56.452,12.629c-0.267,2.023-0.529,4.05-0.795,6.076c-1.962,1.917-3.917,1.63-5.867-0.018c0.036-2.042,0.074-4.083,0.111-6.125C52.085,12.584,54.27,12.605,56.452,12.629z"/>
<path fill="#DEDEDE" d="M75.643,50.611c-0.052,1.662-0.104,3.328-0.154,4.996c-0.188,0.703-0.375,1.408-0.563,2.113c-3.471,3.926-8.134,6.079-12.62,8.5c-5.908,1.732-9.572-2.365-13.701-5.253c-2.36-1.581-4.821-2.997-7.436-4.138c-3.284-1.482-6.825-2.335-10.005-4.094c-1.177-0.984-1.999-2.202-2.533-3.637c-0.194-1.532-0.18-3.049,0.076-4.574c0.625-1.456,1.566-2.649,2.831-3.595c2.123-1.099,4.387-1.624,6.758-1.743c3.911-0.152,7.822-0.128,11.728-0.067c2.311,0.058,4.608,0.235,6.811,1.022c5.668,3.748,12.219,5.859,17.904,9.586L75.643,50.611z"/>
<path fill="#DCDCDC" d="M81.227,56.242c-0.254,2.06-0.506,4.115-0.761,6.177c-1.913,1.956-3.973,1.804-6.116,0.421c-1.263-2.191-1.234-4.303,0.387-6.316c0,0,0.746-0.906,0.75-0.912C77.4,55.816,79.314,56.027,81.227,56.242z"/>
<path fill="#CDCDCD" d="M75.52,62.461c1.649-0.016,3.297-0.029,4.946-0.042c-1.827,2.065-3.655,4.136-5.483,6.204c-0.416-0.475-0.834-0.946-1.252-1.419C73.246,65.214,73.516,63.511,75.52,62.461z"/>
<path fill="#DCDCDC" d="M75.089,75.191c-2.127-0.238-4.253-0.475-6.38-0.709c-1.852-2.127-1.434-4.172,0.229-6.174c2.23-1.297,4.34-1.432,6.217,0.649c0,0-0.178-0.335-0.174-0.335C75.02,70.811,75.055,72.999,75.089,75.191z"/>
<path fill="#ECECEC" d="M31.763,62.415c-0.175-2.127-0.35-4.254-0.525-6.381c0.499-0.546,0.997-1.091,1.497-1.636c3.607-1.633,7.24-1.502,10.904-0.166c1.245,0.978,2.154,2.187,2.69,3.682c0.414,2.49-0.166,4.693-1.853,6.589c-1.996,1.581-4.278,2.097-6.77,1.834C35.248,65.751,33.425,64.204,31.763,62.415z"/>
<path fill="#CDCDCD" d="M31.763,62.415c1.799-0.021,3.597-0.039,5.394-0.062c3.488,2.967,4.738,6.428,2.367,10.69c-0.597,0.546-1.196,1.089-1.794,1.633c-2.22,0.169-4.44,0.339-6.659,0.507C31.301,70.927,31.533,66.67,31.763,62.415z"/>
<path fill="#DCDCDC" d="M31.238,56.034c-2.123-1.94-4.245-3.882-6.368-5.819l0.499-1.193c1.81-1.245,3.554-1.139,5.235,0.25l0.91,1.001c1.62,2.188,1.581,4.264-0.435,6.198L31.238,56.034z"/>
<path fill="#DEDEDE" d="M50.385,43.605c-4.405,0.006-8.809,0.015-13.214,0.021c-1.134-1.31-2.425-2.521-2.754-4.343c-0.01-1.169,0.221-2.292,0.664-3.375c0.651-0.956,1.335-1.886,2.046-2.799c0.142-0.559,0.284-1.12,0.426-1.682c4.079-4.245,8.158-8.493,12.238-12.741c1.954,0.006,3.911,0.012,5.867,0.018c0.13,2.161,0.259,4.321,0.388,6.482c-0.028,0.663-0.06,1.322-0.089,1.984C54.697,32.85,55.68,39.293,50.385,43.605z"/>
<path fill="#CDCDCD" d="M31.396,37.593c-0.087-2.167-0.172-4.337-0.259-6.503c2.141,0.113,4.283,0.226,6.419,0.338c-0.003,0-0.212-0.394-0.212-0.394c2.005,2.228,2.005,4.456,0,6.684l0.369-0.375c-1.242,1.782-2.923,2.146-4.913,1.523C32.331,38.441,31.862,38.017,31.396,37.593z"/>
<path fill="#CDCDCD" d="M25.005,43.77c2.13-2.06,4.26-4.117,6.389-6.174c0.001-0.003-0.319-0.269-0.319-0.269c2.017,1.907,2.058,3.952,0.426,6.112l-0.664,1.349c-1.831,1.141-3.72,1.248-5.668,0.324L25.005,43.77z"/>
<path fill="#ECECEC" d="M25.169,45.112c1.891-0.11,3.779-0.22,5.67-0.327c-0.076,1.501-0.151,2.997-0.229,4.492c-1.75-0.085-3.496-0.164-5.24-0.25C25.303,47.718,25.235,46.415,25.169,45.112z"/>
<path fill="#D7D7D7" d="M44.117,81.364c-2.28-0.087-4.561-0.175-6.84-0.261c0.151-2.143,0.302-4.285,0.453-6.427l-0.208,0.445c1.489-1.62,3.056-3.144,5.104-4.06c2.142-0.553,4.323-0.635,6.517-0.539c2.229,0.158,4.285,0.756,5.946,2.35c0.356,0.638,0.714,1.271,1.07,1.906C52.145,76.977,48.131,79.17,44.117,81.364z"/>
<path fill="#CDCDCD" d="M62.584,74.488c-2.145,0.098-4.286,0.195-6.427,0.293c0.002,0,0.252,0.421,0.252,0.421c-3.033-5.697-0.894-7.791,5.042-7.238C63.738,69.805,64.281,71.952,62.584,74.488z"/>
<path fill="#ECECEC" d="M62.584,74.488c-0.094-1.999-0.188-3.998-0.283-5.997c0.488-0.402,0.977-0.806,1.463-1.208c1.241-0.372,2.479-0.354,3.719,0.003c0.485,0.409,0.97,0.813,1.455,1.224c-0.076,1.993-0.152,3.982-0.229,5.973C66.668,74.484,64.626,74.484,62.584,74.488z"/>
<path fill="#DCDCDC" d="M56.045,25.187c1.754,0.153,3.508,0.302,5.768,0.498c0.201,2.265,0.358,4.019,0.517,5.774l0.362-0.391c-6.907,2.722-8.989,0.628-6.256-6.271L56.045,25.187z"/>
<path fill="#FEFEFE" d="M43.593,56.152c-0.09-2.01-0.18-4.021-0.27-6.032c2.304,2.139,4.609,4.278,6.914,6.421l0.02-0.122c-2.073,1.677-4.14,1.722-6.195-0.033L43.593,56.152z"/>
<path fill="#ECECEC" d="M44.062,56.386c2.065,0.009,4.131,0.021,6.195,0.033c-0.309,4.106-0.615,8.22-0.923,12.329c-2.225,1.854-4.389,1.639-6.503-0.191c-1.114-2.467-0.888-4.719,1.057-6.699C43.946,60.035,44.004,58.21,44.062,56.386z"/>
<path fill="#ECECEC" d="M44.062,75.066c0.271-2.109,0.542-4.219,0.812-6.33c1.488,0.007,2.974,0.01,4.46,0.013c0.318,2.058,0.638,4.11,0.956,6.167C48.215,74.964,46.139,75.018,44.062,75.066z"/>
<path fill="#DCDCDC" d="M62.322,62.314c2.229,2.092,4.457,4.18,6.687,6.27c-2.239,0.014-4.476,0.027-6.713,0.04C62.305,66.521,62.314,64.417,62.322,62.314z"/>
<path fill="#CDCDCD" d="M62.688,37.315c-2.209,2.207-4.414,4.416-6.623,6.622C58.273,41.731,60.479,39.522,62.688,37.315z"/>
</svg>