<?xml version="1.0" encoding="utf-8"?>
<!DOCTYPE svg PUBLIC "-//W3C//DTD SVG 1.1//EN" "http://www.w3.org/Graphics/SVG/1.1/DTD/svg11.dtd">
<svg version="1.1" xmlns="http://www.w3.org/2000/svg" xmlns:xlink="http://www.w3.org/1999/xlink" x="0px" y="0px" width="100px" height="100px" viewBox="0 0 100 100" enable-background="new 0 0 100 100" xml:space="preserve">
<path fill="#7C633B" d="M100,56.25c0,8.334,0,16.666,0,25c-1.87,1.81-4.002,1.901-6.292,0.968c-1.996-1.228-3.31-2.991-4.063-5.186c-0.496-2.078-0.976-4.178-1.866-6.14c-1.948-3.949-7.124-5.176-8.32-9.79c-0.471-2.518,0.063-4.761,1.783-6.702c2.037-1.696,4.438-2.341,7.018-2.505C92.849,51.535,96.769,52.967,100,56.25z"/>
<path fill="#795E36" d="M43.751,100c-10.417,0-20.833,0-31.25,0c-2.064-2.521-1.616-4.996,0.136-7.452c5.344-4.944,12.041-2.979,18.242-3.58c4.735-0.57,9.21-0.201,12.767,3.504C45.378,94.952,45.819,97.461,43.751,100z"/>
<path fill="#CCCCCC" d="M43.751,0c4.167,0,8.333,0,12.5,0c1.771,2.06,3.174,4.282,3.216,7.129c-0.49,5.212-3.409,8.148-8.482,9.073c-2.808,0.238-5.402-0.345-7.705-2.029c-2.081-1.95-3.009-4.395-3.021-7.214C40.435,4.15,41.99,2.023,43.751,0z"/>
<path fill="#694D34" d="M100,25c0,6.25,0,12.5,0,18.75c-1.748,1.602-3.598,3.027-6.045,3.384c-2.438,0.116-4.622-0.564-6.524-2.105c-1.659-1.767-2.389-3.885-2.326-6.296c0.289-3.885,3.515-6.491,4.432-10.123c0.897-2.124,2.328-3.766,4.373-4.855C96.178,22.98,98.25,23.212,100,25z"/>
<path fill="#71633A" d="M12.501,0c6.25,0,12.5,0,18.75,0c2.028,2.579,1.853,5.146-0.031,7.715c-6.109,4.733-12.213,4.709-18.309-0.019C10.982,5.234,10.399,2.686,12.501,0z"/>
<path fill="#78633A" d="M0.001,43.75c0-6.25,0-12.5,0-18.75c2.348-2.036,4.744-1.706,7.173-0.149c3.733,3.348,3.6,7.757,3.355,12.201c-0.292,2.704-1.247,5.09-3.353,6.918C4.74,45.499,2.335,45.776,0.001,43.75z"/>
<path fill="#71633A" d="M62.5,0C68.75,0,75,0,81.25,0c1.846,1.987,1.853,4.19,0.771,6.531c-1.44,2.048-3.422,3.284-5.832,3.864c-3.954,0.598-7.879,0.702-11.691-0.809c-1.412-0.753-2.527-1.828-3.355-3.198C60.356,4.001,60.712,1.85,62.5,0z"/>
<path fill="#6B5436" d="M31.333,5.78C31.306,3.854,31.278,1.926,31.25,0c4.167,0,8.333,0,12.5,0c-0.18,2.075-0.36,4.15-0.539,6.226c-1.695,1.736-3.665,2.917-6.155,3.052C34.575,9.048,32.531,8.106,31.333,5.78z"/>
<path fill="#CCCCCC" d="M43.751,100c-0.154-2.108-0.308-4.221-0.462-6.329c0.563-0.629,1.128-1.255,1.689-1.886c4.183-2.344,8.055-2.042,11.563,1.352c1.421,2.347,1.598,4.65-0.29,6.863C52.083,100,47.918,100,43.751,100z"/>
<path fill="#695134" d="M56.25,100c-0.104-2.127-0.21-4.251-0.313-6.378c0.488-0.61,0.977-1.221,1.462-1.837c2.009-1.416,4.249-1.975,6.69-1.786c2.42,0.425,4.436,1.523,5.87,3.571c0.873,2.377,0.589,4.547-1.209,6.43C64.583,100,60.418,100,56.25,100z"/>
<path fill="#7A5E33" d="M68.75,100c-0.03-1.947-0.063-3.895-0.093-5.841c3.595-4.44,7.807-4.304,12.354-1.663c2.063,2.435,2.256,4.935,0.239,7.504C77.083,100,72.918,100,68.75,100z"/>
<path fill="#CCCCCC" d="M0.001,43.75c2.141-0.205,4.282-0.409,6.422-0.616c0.6,0.494,1.199,0.985,1.805,1.474c1.385,2.014,1.912,4.242,1.698,6.662c-0.444,2.398-1.573,4.383-3.569,5.832C4.065,58.143,1.914,58.084,0,56.25C0.001,52.084,0.001,47.916,0.001,43.75z"/>
<path fill="#71633A" d="M0.001,75c0-4.166,0-8.334,0-12.5c2.504-2.066,4.914-1.587,7.278,0.266c3.217,4.104,3.243,8.233,0.108,12.39C4.891,76.893,2.424,77.002,0.001,75z"/>
<path fill="#EBEBEB" d="M100,56.25c-4.048-0.079-8.096-0.158-12.144-0.238c-2.232-1.889-2.001-4.067-0.745-6.365c1.76-1.884,4.004-2.503,6.488-2.488c2.505,0.11,4.591,1.163,6.4,2.841C100,52.084,100,54.166,100,56.25z"/>
<path fill="#694D34" d="M0.001,75c2.235-0.086,4.471-0.171,6.705-0.256c2.2-1.697,4.382-1.521,6.555,0.063c1.271,2.35,1.149,4.645-0.235,6.906c-1.771,1.926-3.995,2.805-6.578,2.856c-2.586-0.253-4.576-1.672-6.447-3.32C0.001,79.166,0.001,77.084,0.001,75z"/>
<path fill="#CCCCCC" d="M0.001,6.25C2.084,4.166,4.168,2.084,6.251,0c1.883,2.087,1.618,4.214,0.118,6.363C4.218,7.871,2.089,8.133,0.001,6.25z"/>
<path fill="#DBDBDB" d="M6.199,6.198C6.217,4.132,6.234,2.066,6.251,0c2.083,0,4.167,0,6.25,0c0.228,2.09,0.453,4.181,0.681,6.271c-0.511,0.437-1.022,0.876-1.532,1.315c-1.321,0.381-2.64,0.372-3.955-0.028C7.195,7.107,6.698,6.653,6.199,6.198z"/>
<path fill="#694D34" d="M62.5,0c0.035,1.968,0.069,3.934,0.104,5.902C60.675,7.751,58.722,8.135,56.728,6c-0.16-2.002-0.319-4.001-0.479-6C58.333,0,60.418,0,62.5,0z"/>
<path fill="#77603D" d="M81.331,5.768C81.304,3.846,81.278,1.923,81.25,0c2.083,0,4.168,0,6.25,0c1.822,1.654,1.868,3.586,0.886,5.679c-1.517,1.782-3.398,2.326-5.636,1.648C82.277,6.809,81.805,6.29,81.331,5.768z"/>
<path fill="#DBDBDB" d="M86.936,6.28C87.124,4.187,87.313,2.093,87.5,0c2.083,0,4.168,0,6.25,0c1.67,1.495,2.148,3.342,1.618,5.487c-0.675,1.236-1.662,2.121-2.957,2.661c-1.375,0.21-2.715,0.085-4.012-0.424C87.911,7.242,87.423,6.763,86.936,6.28z"/>
<path fill="#71633A" d="M100,12.5c0,2.084,0,4.166,0,6.25c-2.068,1.883-4.184,1.633-6.327,0.137c-1.538-2.164-1.541-4.331-0.021-6.5C95.795,10.874,97.918,10.617,100,12.5z"/>
<path fill="#69562F" d="M0.001,18.75c0-2.084,0-4.166,0-6.25c1.55-1.709,3.447-2.105,5.617-1.48c1.215,0.778,2.06,1.834,2.486,3.223c0.213,2.273-0.543,4.126-2.377,5.514C3.597,20.679,1.65,20.557,0.001,18.75z"/>
<path fill="#DBDBDB" d="M100,12.5c-2.087,0.21-4.173,0.421-6.26,0.632c-0.441-0.488-0.883-0.979-1.326-1.468c-0.664-2.03-0.39-3.842,1.256-5.332l0.105-0.107c2.081-1.822,4.157-1.822,6.225,0.024C100,8.335,100,10.416,100,12.5z"/>
<path fill="#ECECEC" d="M100,50c-2.089-0.016-4.178-0.027-6.265-0.043c-1.798-1.898-1.833-3.793,0.009-5.685c2.086-0.174,4.171-0.348,6.256-0.522C100,45.835,100,47.916,100,50z"/>
<path fill="#6E502E" d="M6.462,62.701C4.309,62.635,2.155,62.567,0,62.5c0-2.084,0-4.166,0-6.25c2.151-0.149,4.301-0.299,6.453-0.445c0.412,0.506,0.824,1.016,1.237,1.522c0.38,1.282,0.363,2.563,0.009,3.849C7.29,61.686,6.876,62.191,6.462,62.701z"/>
<path fill="#71633A" d="M0.001,81.25c2.173,0.049,4.346,0.098,6.519,0.144c1.645,2.173,1.338,4.275-0.226,6.335c-2.151,1.426-4.26,1.648-6.292-0.229C0.001,85.416,0.001,83.334,0.001,81.25z"/>
<path fill="#694D34" d="M93.633,18.668c2.123,0.028,4.245,0.055,6.367,0.083c0,2.084,0,4.166,0,6.25c-2.033-0.021-4.069-0.043-6.104-0.061c-0.443-0.424-0.888-0.845-1.335-1.27c-0.397-1.187-0.456-2.383-0.119-3.595C92.838,19.605,93.234,19.135,93.633,18.668z"/>
<path fill="#DBDBDB" d="M6.337,12.283C4.225,12.356,2.112,12.427,0,12.5c0-2.084,0-4.166,0-6.25c2.067-0.015,4.134-0.034,6.2-0.049C6.199,6.198,6.302,6.302,6.302,6.302C8.114,8.286,7.878,10.281,6.337,12.283z"/>
<path fill="#695134" d="M93.812,81.241c2.063,0.003,4.126,0.006,6.188,0.009c0,2.084,0,4.166,0,6.25c-1.629,1.815-3.552,1.896-5.646,0.946c-1.803-1.462-2.406-3.323-1.863-5.569C92.93,82.33,93.37,81.787,93.812,81.241z"/>
<path fill="#DBDBDB" d="M0.001,87.5c2.087-0.204,4.175-0.406,6.264-0.61c0.482,0.485,0.964,0.974,1.448,1.459c0.506,1.297,0.654,2.637,0.45,4.013c-0.527,1.31-1.409,2.305-2.642,2.991C3.37,95.899,1.51,95.429,0,93.75C0.001,91.666,0.001,89.584,0.001,87.5z"/>
<path fill="#DBDBDB" d="M93.771,86.847c2.076,0.217,4.153,0.437,6.229,0.653c0,2.084,0,4.166,0,6.25c-1.512,1.682-3.373,2.14-5.529,1.59c-1.236-0.692-2.115-1.693-2.643-3.009c-0.214-1.389-0.038-2.729,0.47-4.034C92.788,87.815,93.279,87.329,93.771,86.847z"/>
<path fill="#CCCCCC" d="M0.001,93.75c2.059,0.024,4.118,0.049,6.177,0.073c1.68,2.038,1.939,4.096,0.073,6.177C4.168,97.916,2.084,95.834,0.001,93.75z"/>
<path fill="#DBDBDB" d="M6.251,100c-0.023-2.06-0.047-4.12-0.072-6.18c-0.001,0.003,0.118-0.116,0.118-0.116c1.476-1.654,3.287-1.968,5.337-1.34c0.503,0.428,1.005,0.857,1.508,1.288c-0.214,2.115-0.428,4.232-0.641,6.348C10.418,100,8.334,100,6.251,100z"/>
<path fill="#CCCCCC" d="M100,6.25c-2.076-0.006-4.151-0.015-6.227-0.021C93.767,4.151,93.757,2.076,93.75,0C95.833,2.085,97.918,4.166,100,6.25z"/>
<path fill="#694D34" d="M0.001,18.75c2.132-0.037,4.263-0.073,6.395-0.11c0.407,0.476,0.816,0.949,1.225,1.425c0.366,1.224,0.374,2.45,0.026,3.68c-0.399,0.482-0.802,0.964-1.204,1.447C4.296,25.128,2.148,25.064,0.001,25C0.001,22.916,0.001,20.835,0.001,18.75z"/>
<path fill="#7A5E33" d="M81.25,100c0-1.896,0-3.79,0-5.686c1.87-2.188,3.987-2.094,6.252-0.687c1.581,2.124,1.888,4.248-0.002,6.372C85.418,100,83.333,100,81.25,100z"/>
<path fill="#DBDBDB" d="M87.5,100c-0.223-2.088-0.445-4.172-0.666-6.259c0.492-0.442,0.985-0.886,1.477-1.331c2.043-0.665,3.865-0.388,5.363,1.264l0.102,0.101c1.823,2.081,1.82,4.156-0.025,6.226C91.668,100,89.583,100,87.5,100z"/>
<path fill="#CCCCCC" d="M93.75,100c0.008-2.075,0.015-4.153,0.023-6.229c2.076-0.006,4.152-0.013,6.227-0.021C97.918,95.834,95.833,97.916,93.75,100z"/>
<path fill="#BB9762" d="M93.318,68.832c0.118,1.941,0.236,3.882,0.354,5.823c-6.499,7.229-15.183,4.367-23.112,4.999c-2.759-0.027-5.515-0.067-8.257-0.452c-2.869-0.521-5.275-1.779-6.911-4.284c-1.24-2.811-1.048-5.436,1.029-7.813c7.694-4.776,15.967-2.939,24.151-2.078C84.914,65.982,89.803,65.106,93.318,68.832z"/>
<path fill="#735E39" d="M81.232,56.302c-0.01,2.039-0.021,4.074-0.029,6.112c-0.566,0.611-1.132,1.218-1.698,1.828c-7.283,2.283-14.636,1.627-21.995,0.534c-2.291-1.199-3.423-3.177-3.768-5.673c-0.388-4.093,2.464-6.979,3.9-10.4c0.619-2.124,1.539-4.083,3.156-5.652c1.787-1.386,3.826-1.901,6.057-1.688c1.378,0.293,2.634,0.885,3.765,1.725c1.485,1.382,2.423,3.146,3.277,4.947C75.597,51.435,80.299,52.209,81.232,56.302z"/>
<path fill="#6B5634" d="M68.736,75.375c8.313-0.24,16.625-0.479,24.937-0.72c0.046,2.194,0.092,4.392,0.137,6.586c0.002,0-0.096,0.039-0.096,0.039c-7.574,6.067-15.477,8.154-24.063,1.987C67.558,80.851,66.715,78.277,68.736,75.375z"/>
<path fill="#9E834D" d="M81.232,56.302c-4.082-2.148-8.164-4.3-12.245-6.448c1.744-1.663,3.622-3.119,5.964-3.863c4.058-0.61,8.039-0.775,11.563,1.886c0.48,0.65,0.955,1.306,1.431,1.959c-0.028,2.061-0.058,4.12-0.087,6.177C85.648,56.109,83.44,56.204,81.232,56.302z"/>
<path fill="#B38F5A" d="M93.318,68.832c-4.062-0.055-8.123-0.112-12.184-0.171c-1.722-2.044-1.729-3.997,0.308-5.847l-0.239-0.4C85.24,64.554,89.279,66.693,93.318,68.832z"/>
<path fill="#B5935D" d="M43.288,93.671c-3.959-0.095-7.919-0.187-11.879-0.281c-3.816-3.073-10.1-4.409-8.156-11.565c0.676-1.413,1.651-2.567,2.908-3.498c3.552-1.98,7.469-1.577,11.305-1.712c2.321-0.003,4.64,0.034,6.954,0.25c2.379,0.287,4.494,1.151,6.235,2.832c1.481,1.917,1.964,4.09,1.596,6.464c-0.888,4.221-5.569,4.565-7.711,7.517L43.288,93.671z"/>
<path fill="#9E834D" d="M25.148,81.524c2.087,3.955,4.173,7.913,6.261,11.868c-6.088,0.086-12.178,0.171-18.268,0.26l-1.288,0.217c-1.234-1.795-1.914-3.729-1.492-5.948c0.505-1.352,1.295-2.509,2.363-3.479c2.293-1.663,3.682-4.502,6.723-5.206C21.755,78.982,23.745,79.523,25.148,81.524z"/>
<path fill="#735E39" d="M37.27,6.378c1.98-0.052,3.961-0.101,5.942-0.152c0.186,2.078,0.372,4.156,0.56,6.235c2.353,2.975,5.647,3.21,9.064,3.11c3.454-0.171,7.014-1.056,10.037,1.563c1.593,1.669,2.215,3.683,2.156,5.954c-0.353,3.995-3.301,6.29-5.801,8.887c-1.133,0.888-2.41,1.511-3.78,1.944c-2.103,0.458-4.186,0.33-6.241-0.293c-3.137-1.187-5.832-3.512-9.396-3.687c-3.601-0.342-7.202-0.229-10.814-0.314c-3.952-0.122-7.919-0.144-10.912-3.348c-1.431-2.084-1.75-4.357-1.123-6.784C20.903,10.757,32.876,14.441,37.27,6.378z"/>
<path fill="#BB9762" d="M62.532,18.958c-4.103-0.095-8.206-0.192-12.309-0.287c-2.01-1.52-2.172-3.351-0.921-5.42c2.474-2.417,4.949-4.837,7.424-7.254c1.959-0.03,3.918-0.061,5.878-0.094l-0.33,1.092c4.349,2.994,11.275,4.559,6.874,12.402C66.851,20.676,64.639,20.618,62.532,18.958z"/>
<path fill="#77603B" d="M49.303,13.251c0.306,1.807,0.612,3.613,0.919,5.42c-2.149-2.072-4.3-4.142-6.45-6.21C45.615,12.723,47.458,12.988,49.303,13.251z"/>
<path fill="#AE8B57" d="M93.897,24.939c-0.109,2.084-0.221,4.168-0.331,6.253c-5.754,3.931-12.742,5.475-18.429,9.57c-2.455,0.663-4.896,0.137-7.346-0.045c-4.104-0.415-8.563,1.007-12.082-2.372c-1.426-2.457-1.338-4.861,0.244-7.214l0.548,0.263c5.235-2.729,9.124-7.443,14.575-9.87c7.97-1.495,15.91-2.832,22.711,3.409L93.897,24.939z"/>
<path fill="#9E834D" d="M74.94,37.344c6.209-2.051,12.419-4.102,18.628-6.149c-1.985,2.173-3.968,4.346-5.951,6.521C83.292,40.924,79.039,41.754,74.94,37.344z"/>
<path fill="#78633A" d="M74.94,37.344c4.226,0.122,8.449,0.244,12.676,0.37c-0.024,2.017-0.051,4.034-0.076,6.048c-0.504,0.571-1.009,1.141-1.511,1.712c-3.553,1.898-7.384,1.267-11.151,1.227c-2.35-0.217-4.302-1.276-6.006-2.854l-0.271-0.177c-1.69-1.975-1.708-3.916,0.117-5.817C70.791,37.683,72.866,37.512,74.94,37.344z"/>
<path fill="#EEEEEE" d="M93.744,44.272c-0.003,1.895-0.006,3.793-0.009,5.688c-1.931-0.042-3.86-0.082-5.791-0.125l-0.972,0.376c-1.308-2.256-1.308-4.325,0.854-6.092c0,0-0.29-0.357-0.288-0.357C89.607,43.933,91.676,44.101,93.744,44.272z"/>
<path fill="#A88853" d="M37.27,6.378c-0.404,3.717-0.809,7.438-1.267,11.64c-6.572,0.336-11.931,0.607-17.291,0.882c-2.104,1.703-4.363,1.843-6.75,0.666c-1.866-1.831-2.356-4.15-2.368-6.641c0.038-2.497,0.883-4.73,2.252-6.787l1.335,0.134c6.05-0.162,12.1-0.324,18.15-0.488C33.312,5.979,35.291,6.18,37.27,6.378z"/>
<path fill="#9E834D" d="M18.694,24.795c4.254,0.183,8.51,0.37,12.766,0.552c1.682,2.06,1.781,4.288,0.702,6.644c-5.383,5.301-13.428,3.979-19.414,7.809c-2.525,0.211-4.672-0.619-6.465-2.393c0.052-4.074,0.105-8.148,0.159-12.219c0.001,0.003-0.176-0.162-0.176-0.162C10.344,21.548,14.49,21.609,18.694,24.795z"/>
<path fill="#71633A" d="M6.283,37.408c2.133-0.076,4.266-0.152,6.401-0.229c2.286-1.608,4.56-1.52,6.822,0.055c1.399,2.344,1.42,4.718,0.182,7.129c-1.814,1.98-4.096,2.905-6.748,2.997c-2.625-0.25-4.793-1.52-6.822-3.092c0,0,0.304-1.135,0.305-1.135C6.376,41.226,6.328,39.316,6.283,37.408z"/>
<path fill="#B38F5A" d="M68.684,18.262c-2.137-3.757-4.271-7.514-6.407-11.27c4.207-0.156,8.413-0.317,12.62-0.476c2.731,2.743,7.723,3.091,8.452,7.971c0.089,2.688-0.787,4.886-3.185,6.32C75.904,21.905,71.735,22.595,68.684,18.262z"/>
<path fill="#9E834D" d="M81.23,12.463c-2.11-1.984-4.221-3.967-6.331-5.951c2.144-0.244,4.287-0.492,6.432-0.739c0.001-0.006-0.08,0.916-0.08,0.916C83.148,8.621,82.841,10.544,81.23,12.463z"/>
<path fill="#EEEEEE" d="M44.54,93.677c1.843-2.188,3.686-4.379,5.53-6.567c2.249-1.52,4.5-1.483,6.755-0.012c1.362,2.313,1.296,4.577-0.233,6.79l-0.654-0.266C52.137,93.641,48.337,93.658,44.54,93.677z"/>
<path fill="#B4915B" d="M68.584,80.686c8.377,0.198,16.754,0.396,25.13,0.595c0.019,1.855,0.036,3.711,0.057,5.566l0.046,1.383c-2.18,1.56-4.084,3.394-5.606,5.612c0,0-1.378-0.101-1.376-0.101c-1.862,0.188-3.722,0.378-5.584,0.57c-4.197-0.049-8.395-0.104-12.593-0.152c-1.999-0.278-3.999-0.556-5.998-0.833c-1.868-1.529-2.391-3.522-2.018-5.835c0.922-3.037,3.303-4.722,5.821-6.278C67.17,81.033,67.876,80.859,68.584,80.686z"/>
<path fill="#9E834D" d="M62.616,87.44c0.014,1.962,0.027,3.927,0.043,5.89c-2.021,0.186-4.045,0.372-6.068,0.562c-0.142-2.054-0.285-4.107-0.429-6.162c-1.66-1.693-2.077-3.674-1.349-5.914c1.268-2.063,3.185-2.762,5.5-2.615c1.42,0.396,2.579,1.184,3.478,2.353C64.599,83.752,64.29,85.731,62.616,87.44z"/>
<path fill="#E0E0E0" d="M6.118,44.269c2.016-0.101,4.031-0.198,6.047-0.299c2.241,1.855,1.88,3.925,0.499,6.082c-2.078,1.535-4.166,1.847-6.268,0.046C6.302,48.153,6.211,46.213,6.118,44.269z"/>
<path fill="#EEEEEE" d="M6.396,50.098c1.903,0.016,3.807,0.03,5.71,0.046c0.519,0.497,1.039,0.998,1.558,1.495c0.722,2.252,0.371,4.224-1.521,5.789c-2.174,0.916-4.187,0.635-6.038-0.827l0.35-0.796C6.435,53.9,6.415,51.999,6.396,50.098z"/>
<path fill="#BB9762" d="M12.43,75.421c-1.909-0.226-3.818-0.451-5.727-0.677c-0.079-4.017-0.16-8.029-0.241-12.043l-0.021,0.043c1.697-1.972,3.855-2.493,6.341-2.021c3.766,1.755,6.605,4.41,8.123,8.356c0.438,2.502-0.031,4.772-1.755,6.707C16.84,77.021,14.599,76.88,12.43,75.421z"/>
<path fill="#6F5A37" d="M12.43,75.421c2.095-0.296,4.19-0.592,6.284-0.891c2.205-1.426,4.43-1.462,6.676-0.098c1.367,2.261,1.488,4.425-0.514,6.418c0,0,0.27,0.668,0.271,0.671c-2.179,0.01-4.361,0.019-6.543,0.024c-1.462,1.489-3.137,1.59-4.958,0.77c-0.34-0.507-0.679-1.014-1.02-1.523C12.562,79.001,12.496,77.213,12.43,75.421z"/>
<path fill="#BB9762" d="M6.264,86.89c0.083-1.831,0.167-3.665,0.252-5.496c2.039-0.198,4.074-0.396,6.111-0.599c0-0.003-0.335,0.952-0.335,0.952c2.051,1.682,2.071,3.616,0.715,5.726l-0.763,0.18c-1.878,1.706-3.911,1.792-6.067,0.58L6.264,86.89z"/>
<path fill="#EEEEEE" d="M11.846,6.137c0.165,2.011,0.328,4.019,0.493,6.027c-1.888,2.179-4.015,2.173-6.305,0.699c0,0,0.305-0.58,0.304-0.58c-0.012-1.996-0.026-3.988-0.037-5.984C8.15,6.247,9.998,6.192,11.846,6.137z"/>
<path fill="#B9955F" d="M81.23,12.463c0.006-1.929,0.014-3.857,0.021-5.78c1.896-0.131,3.791-0.266,5.686-0.403l1.312-0.088c1.531,2.182,3.359,4.071,5.564,5.582c0,0-0.073,1.358-0.071,1.358c-0.035,1.846-0.07,3.689-0.105,5.536c-0.002,0,0.106,0.064,0.106,0.064c-4.262,3.122-8.448,4.05-12.446-0.43C81.272,16.355,81.25,14.41,81.23,12.463z"/>
<path fill="#EEEEEE" d="M93.812,11.773c-1.855-1.861-3.711-3.723-5.564-5.582c1.808,0.046,3.616,0.092,5.424,0.137C93.717,8.145,93.765,9.961,93.812,11.773z"/>
<path fill="#BB9762" d="M6.034,12.863c2.103-0.232,4.204-0.464,6.305-0.696c0.011,2.057,0.02,4.114,0.03,6.17c-1.93,1.941-3.923,2.289-6.013,0.241c0,0,0.035,0.064,0.037,0.064C6.275,16.714,6.154,14.789,6.034,12.863z"/>
<path fill="#79613A" d="M12.233,62.955c-1.93-0.07-3.862-0.141-5.794-0.211c-0.111-2.048-0.224-4.096-0.335-6.144c2.031-0.229,4.062-0.457,6.094-0.687c2.132-1.617,4.332-3.076,7.153-3.137c2.829,0.155,5.199,1.187,6.854,3.586c1.03,2.756,0.761,5.276-1.343,7.471C20.449,66.501,16.285,65.546,12.233,62.955z"/>
<path fill="#6A5534" d="M81.295,18.301c4.148,0.144,8.298,0.287,12.446,0.43c0.016,2.066,0.03,4.135,0.046,6.201c-8.323,0.138-16.646,0.278-24.97,0.415c-2.261,1.547-4.344,1.303-6.258-0.628c-0.009-1.919-0.018-3.842-0.027-5.762c2.051-0.232,4.101-0.461,6.151-0.696C72.887,18.274,77.091,18.286,81.295,18.301z"/>
<path fill="#EEEEEE" d="M6.177,88.232c2.023-0.192,4.048-0.388,6.07-0.58c-0.133,2.072-0.262,4.145-0.394,6.217c-1.854-0.055-3.707-0.107-5.559-0.165C6.257,91.879,6.217,90.058,6.177,88.232z"/>
<path fill="#EEEEEE" d="M88.21,93.842c1.869-1.871,3.738-3.742,5.607-5.612c-0.047,1.815-0.093,3.632-0.142,5.447C91.854,93.729,90.032,93.787,88.21,93.842z"/>
<path fill="#695433" d="M6.356,18.579c2.005-0.076,4.011-0.152,6.015-0.235c2.114,0.18,4.229,0.363,6.343,0.552c-0.008,1.968-0.012,3.937-0.02,5.902c-4.143,0.073-8.285,0.152-12.428,0.229C6.296,22.879,6.325,20.731,6.356,18.579z"/>
<path fill="#9D804C" d="M81.442,62.815c-0.102,1.95-0.204,3.9-0.308,5.85c-8.284,0.053-16.566,0.104-24.851,0.156c-1.605,1.706-3.537,2.081-5.731,1.4c-1.221-0.796-2.086-1.864-2.55-3.253c-0.287-2.273,0.299-4.218,2.153-5.68c2.159-0.888,4.158-0.616,5.99,0.84C64.579,62.356,73.011,62.586,81.442,62.815z"/>
<path fill="#B38F5A" d="M50.344,68.664c1.979,0.053,3.96,0.104,5.94,0.156c-0.049,1.943-0.098,3.885-0.146,5.826c-0.516,0.512-1.031,1.021-1.548,1.531c-2.287,0.681-4.263,0.309-5.755-1.703C48.092,72.214,48.355,70.215,50.344,68.664z"/>
<path fill="#6E502E" d="M62.612,80.719c-2.112,0.214-4.223,0.425-6.334,0.638c-1.584-2.005-1.925-3.967,0.18-5.859c0,0-0.317-0.842-0.319-0.845c2.12,0.234,4.239,0.476,6.36,0.714C64.33,77.111,64.021,78.903,62.612,80.719z"/>
<path fill="#69562F" d="M62.612,80.719c-0.038-1.785-0.075-3.573-0.113-5.355c2.08,0.003,4.159,0.003,6.237,0.006c-0.05,1.779-0.099,3.549-0.15,5.319c-0.002-0.003,0.28,0.998,0.28,0.998c-2.124,1.452-4.26,1.468-6.411,0.061L62.612,80.719z"/>
<path fill="#987E4A" d="M62.26,49.845c-2.042,2.267-4.084,4.534-6.125,6.802c-1.925,1.523-4.093,2.484-6.535,2.835c-2.41,0.645-4.832,1.081-7.346,0.77c-2.655-0.534-4.773-1.844-6.208-4.185c-0.955-2.709-0.667-5.228,1.104-7.537c2.051-1.99,4.613-2.701,7.361-2.948C50.805,45.429,57.294,44.47,62.26,49.845z"/>
<path fill="#B38F5A" d="M62.26,49.845c-6.177,0.036-12.354,0.073-18.531,0.106c-1.962-2.307-1.944-4.739-0.462-7.27c3.564-3.583,7.81-3.448,12.248-2.237c2.606,0.43,5.158,0.974,6.783,3.378C62.285,45.831,62.272,47.836,62.26,49.845z"/>
<path fill="#71633A" d="M62.298,43.823c-2.015-0.152-4.028-0.305-6.043-0.458c-1.902-2.038-1.616-4.056,0.062-6.058c4.135,0.18,8.269,0.357,12.402,0.54c-0.038,1.944-0.076,3.885-0.116,5.823C66.498,43.723,64.398,43.774,62.298,43.823z"/>
<path fill="#BB9762" d="M68.871,43.848c2.021,0.034,4.04,0.067,6.061,0.098c1.909,1.996,1.901,3.998,0.017,6.003c-1.989-0.03-3.979-0.062-5.964-0.092C68.949,47.852,68.909,45.85,68.871,43.848z"/>
<path fill="#6E502E" d="M50.124,56.708c2.004-0.024,4.009-0.046,6.011-0.064c0.004,1.831,0.009,3.662,0.012,5.487c-2.049,0.122-4.097,0.244-6.146,0.366C48.42,60.531,48.106,58.594,50.124,56.708z"/>
<path fill="#AD8C56" d="M74.948,49.948c-0.004-2.002-0.009-4.004-0.015-6.006c4.298,0.061,8.597,0.119,12.895,0.177c-0.285,2.029-0.57,4.063-0.855,6.092C82.964,50.122,78.957,50.033,74.948,49.948z"/>
<path fill="#6E502E" d="M50.344,68.664c-0.07,2.018-0.139,4.038-0.209,6.055c1.845,2.438,1.69,4.789-0.313,7.053c-2.002-0.277-4.004-0.555-6.006-0.833c-1.564-1.367-2.991-2.835-3.569-4.925c-0.401-2.121-0.122-4.15,0.813-6.092c0.757-1.184,1.773-2.097,3.021-2.743c2.147-0.477,4.027-0.122,5.396,1.782L50.344,68.664z"/>
<path fill="#695433" d="M24.876,80.851c0.06-1.782,0.119-3.567,0.178-5.354c3.333-4.55,7.427-4.541,11.946-2.002c2.189,2.283,2.475,4.676,0.412,7.206C33.232,80.753,29.055,80.802,24.876,80.851z"/>
<path fill="#725D37" d="M49.822,81.772c0.104-2.35,0.207-4.699,0.313-7.049c2.107,0.256,4.215,0.513,6.321,0.771c-0.058,1.956-0.118,3.906-0.178,5.859c-0.038,2.127-0.077,4.251-0.116,6.375c-2.029-0.204-4.061-0.412-6.092-0.619C49.986,85.33,49.904,83.551,49.822,81.772z"/>
<path fill="#725D37" d="M37.412,80.701c0.004-1.719,0.009-3.434,0.012-5.152c1.792-2.154,3.845-2.45,6.163-0.869c0.076,2.087,0.152,4.175,0.229,6.259C41.682,80.859,39.547,80.78,37.412,80.701z"/>
<path fill="#B38F5A" d="M13.007,87.473c-0.238-1.91-0.476-3.821-0.714-5.729c2.104-0.066,4.208-0.134,6.313-0.201C16.739,83.521,14.873,85.495,13.007,87.473z"/>
<path fill="#745F3A" d="M56.316,37.308c-0.021,2.021-0.041,4.041-0.062,6.061c-4.188,0.241-8.378,0.485-12.567,0.732c-1.713,1.419-3.627,1.816-5.759,1.117c-1.198-0.793-2.043-1.864-2.551-3.21c-0.229-1.416-0.154-2.811,0.247-4.19c0.637-1.288,1.531-2.371,2.649-3.269c3.778-1.874,7.881-2.6,11.992-3.308c1.897-0.037,3.794-0.073,5.69-0.11C56.075,33.191,56.195,35.251,56.316,37.308z"/>
<path fill="#9E834D" d="M50.266,31.241c-4.322,1.95-8.646,3.896-12.968,5.847c-1.587-1.55-1.958-3.427-1.497-5.533c1.375-3.528,5.479-3.638,7.684-6.131C45.745,27.362,48.005,29.303,50.266,31.241z"/>
<path fill="#BB9762" d="M43.485,25.424c-1.967,1.965-3.932,3.927-5.899,5.89c-2.143,1.819-4.263,1.621-6.369-0.07c0.081-1.966,0.16-3.931,0.241-5.896C35.468,25.376,39.477,25.4,43.485,25.424z"/>
<path fill="#9E834D" d="M62.56,24.719c2.086,0.208,4.172,0.418,6.258,0.625c-4.105,2.018-8.214,4.031-12.318,6.049C58.522,29.169,60.541,26.944,62.56,24.719z"/>
<path fill="#B38F5A" d="M31.217,31.244c2.123,0.024,4.245,0.045,6.368,0.07c-0.095,1.926-0.189,3.854-0.286,5.777c-0.001-0.003,0.302,0.791,0.302,0.791c-6.239,5.17-12.491,5.341-18.757,0.049c-2.054-0.25-4.109-0.498-6.162-0.75C18.862,35.202,25.04,33.225,31.217,31.244z"/>
<path fill="#6E502E" d="M18.844,37.93c6.251-0.018,12.504-0.037,18.756-0.052c0.006,1.743,0.011,3.479,0.017,5.218c-1.007,3.629-3.249,6.399-6.085,8.768c-2.143,0.922-4.324,1.005-6.547,0.324c-3.719-1.722-5.504-4.816-6.133-8.719C18.848,41.623,18.847,39.776,18.844,37.93z"/>
<path fill="#987E4A" d="M18.851,43.469c2.161,2.17,4.321,4.339,6.482,6.506c1.561,2.167,1.34,4.208-0.421,6.146c-2.118-0.04-4.237-0.083-6.355-0.122c-1.985-1.959-3.938-3.943-5.586-6.207l-0.865,0.351c0.02-2.057,0.038-4.117,0.058-6.174C14.393,43.805,16.622,43.637,18.851,43.469z"/>
<path fill="#BB9762" d="M62.455,81.747c2.138-0.018,4.273-0.039,6.411-0.061c-2.084,1.919-4.169,3.836-6.251,5.753C62.564,85.541,62.51,83.646,62.455,81.747z"/>
<path fill="#B38F5A" d="M12.971,49.793c1.863,2.071,3.726,4.141,5.587,6.21c-2.123-0.03-4.242-0.058-6.361-0.086C12.456,53.876,12.712,51.834,12.971,49.793z"/>
<path fill="#9E834D" d="M12.233,62.955c4.289-0.238,8.577-0.477,12.865-0.715c5.847-5.371,12.089-3.616,18.377-1.016c2.199,2.383,2.288,4.978,0.778,7.736l-0.964-0.275c-8.148,4.858-16.344,4.435-24.574,0.229C16.555,66.928,14.394,64.941,12.233,62.955z"/>
<path fill="#B8945E" d="M18.715,68.915c8.192-0.076,16.385-0.153,24.576-0.229c0.098,1.999,0.199,3.998,0.298,5.994c-2.056,0.287-4.109,0.576-6.165,0.866c-4.123-0.015-8.248-0.033-12.371-0.052c-2.113-0.317-4.227-0.638-6.34-0.961C18.714,72.659,18.715,70.785,18.715,68.915z"/>
<path fill="#6F5231" d="M43.729,62.595c-6.21-0.116-12.422-0.232-18.632-0.354c-0.061-2.038-0.122-4.077-0.183-6.118c0.137-2.048,0.274-4.099,0.417-6.146c1.785,0,3.567,0.003,5.351,0.003c3.716,0.296,4.154,4.264,6.646,5.933c2.112,0.253,4.224,0.507,6.335,0.76C45.644,58.624,45.348,60.602,43.729,62.595z"/>
<path fill="#745A3B" d="M43.729,62.595c-0.021-1.978-0.044-3.952-0.065-5.927c2.151,0.013,4.306,0.021,6.459,0.033c-0.04,1.936-0.081,3.867-0.123,5.796c-0.172,2.154-0.345,4.309-0.52,6.464c-1.746,0-3.488-0.004-5.229-0.004C44.08,66.84,43.905,64.716,43.729,62.595z"/>
<path fill="#B38F5A" d="M37.327,55.911c-2.214-1.978-4.428-3.955-6.644-5.933c2.311-2.292,4.621-4.583,6.932-6.878c0.001-0.003-0.23,1.15-0.23,1.15c1.974,1.907,1.962,3.864,0.137,5.859C37.456,52.045,37.391,53.977,37.327,55.911z"/>
<path fill="#BB9762" d="M37.522,50.109c-0.046-1.956-0.09-3.912-0.137-5.862c2.101-0.049,4.202-0.101,6.303-0.15c0.014,1.953,0.027,3.903,0.041,5.856C41.66,50.006,39.591,50.058,37.522,50.109z"/>
</svg>