<?xml version="1.0" encoding="utf-8"?>
<!DOCTYPE svg PUBLIC "-//W3C//DTD SVG 1.1//EN" "http://www.w3.org/Graphics/SVG/1.1/DTD/svg11.dtd">
<svg version="1.1" xmlns="http://www.w3.org/2000/svg" xmlns:xlink="http://www.w3.org/1999/xlink" x="0px" y="0px" width="100px" height="100px" viewBox="0 0 100 100" enable-background="new 0 0 100 100" xml:space="preserve">
<path fill="#127100" d="M57.122,87.394c1.831,0.207,3.662,0.411,5.493,0.616l-0.298-0.296c0.228,4.095,0.453,8.19,0.679,12.286c-2.082,0-4.167,0-6.25,0c-1.582-2.157-4.217-2.854-6.194-4.462c-0.059-0.641-0.114-1.281-0.173-1.923c0.194-2.06,0.387-4.119,0.58-6.18C52.996,84.942,55.055,85.455,57.122,87.394z"/>
<path fill="#127200" d="M44.247,100c0.04-2.1,0.08-4.199,0.119-6.296l-0.273,0.257c2.097-0.113,4.195-0.227,6.29-0.342c-0.003-0.004,0.195,0.293,0.195,0.293c2.172,2.06,2.034,4.086-0.081,6.088C48.414,100,46.33,100,44.247,100z"/>
<path fill="#106300" d="M50.496,100c0.028-2.029,0.054-4.059,0.081-6.088c2.056,2.029,4.112,4.059,6.169,6.088C54.664,100,52.579,100,50.496,100z"/>
<path fill="#157E00" d="M57.122,87.394c-2.056,0.015-4.109,0.03-6.163,0.042c-2.229-8.551-4.457-17.102-6.687-25.649c-5.142-6.854-1.364-9.076,5.133-9.885c3.306,0.195,6.182,1.004,6.9,4.867C56.577,66.977,56.851,77.186,57.122,87.394z"/>
<path fill="#A20409" d="M49.789,37.137c4.347-8.664,8.774-10.052,13.323-0.144c2.018,2.484,3.163,5.14,1.638,8.322c-2.466,1.941-5.208,3.095-8.403,2.97c-3.096-0.037-6.146-0.205-8.437-2.729C46.27,42.242,47.945,39.673,49.789,37.137z"/>
<path fill="#900205" d="M56.406,43.933c2.214-0.07,4.428-0.144,6.643-0.217c1.849-1.996,3.749-2.35,5.727-0.174c-4.157,4.41-8.313,8.82-12.47,13.226c-2.382-0.342-4.764-0.684-7.146-1.025c-1.185-1.682-2.696-3.204-2.675-5.475c0.476-1.346,1.314-2.39,2.564-3.091C51.835,46.851,54.567,46.408,56.406,43.933z"/>
<path fill="#DF060D" d="M50.584,50.867c-0.471,1.623-0.938,3.25-1.416,4.876c-1.638,2.015-3.266,4.028-4.896,6.043c-4.05-3.913-8.099-7.825-12.149-11.734c3.566-3.497,7.996-4.501,12.79-4.336C47.654,46.545,50.34,47.333,50.584,50.867z"/>
<path fill="#C9060A" d="M44.535,49.862c-4.138,0.062-8.275,0.126-12.412,0.189c3.932-4.11,7.864-8.218,11.796-12.326C47.837,41.583,48.835,45.587,44.535,49.862z"/>
<path fill="#3A0102" d="M44.535,49.862c-0.206-4.046-0.411-8.093-0.615-12.137c1.956-0.195,3.913-0.394,5.869-0.589c0.27,2.13,0.538,4.26,0.809,6.391c1.968,2.054,2.17,3.988-0.391,5.737c-0.066,0.58,0.06,1.114,0.377,1.603C48.566,50.531,46.551,50.195,44.535,49.862z"/>
<path fill="#168600" d="M62.615,88.01c2.946-2.411,5.893-4.822,8.839-7.232c0.794,1.682,1.587,3.362,2.381,5.044c-3.831,0.626-7.665,1.251-11.507,1.883C62.317,87.714,62.615,88.01,62.615,88.01z"/>
<path fill="#D00609" d="M68.775,43.543c-1.909,0.058-3.818,0.116-5.727,0.174c0.021-2.24,0.042-4.483,0.063-6.723C65,39.175,66.888,41.357,68.775,43.543z"/>
<path fill="#127200" d="M37.844,87.69c-1.622-0.821-3.245-1.643-7.028-3.556c3.934-1.281,5.607-1.828,7.28-2.374C40.218,83.832,40.485,85.821,37.844,87.69z"/>
<path fill="#168600" d="M37.844,87.69c0.084-1.975,0.168-3.952,0.252-5.93c1.881,1.88,3.761,3.757,5.641,5.637c-1.884,2.347-3.873,2.228-5.937,0.247L37.844,87.69z"/>
<path fill="#127200" d="M37.8,87.644c1.979-0.083,3.958-0.165,5.937-0.247c0.119,2.185,0.237,4.373,0.355,6.561c0,0.004,0.273-0.259,0.273-0.256C42.176,91.684,39.988,89.664,37.8,87.644z"/>
<path fill="#480102" d="M50.207,49.265c0.131-1.914,0.261-3.824,0.391-5.737c1.936,0.134,3.872,0.271,5.809,0.406C54.34,45.709,52.274,47.488,50.207,49.265z"/>
</svg>