<?xml version="1.0" encoding="utf-8"?>
<!DOCTYPE svg PUBLIC "-//W3C//DTD SVG 1.1//EN" "http://www.w3.org/Graphics/SVG/1.1/DTD/svg11.dtd">
<svg version="1.1" xmlns="http://www.w3.org/2000/svg" xmlns:xlink="http://www.w3.org/1999/xlink" x="0px" y="0px" width="100px" height="100px" viewBox="0 0 100 100" enable-background="new 0 0 100 100" xml:space="preserve">
<path fill="#705746" d="M44.24,100c-2.124-4.334-4.247-8.67-6.371-13.004c-4.163-5.136-2.623-9.387,3.388-9.894c8.444-0.711,14.158-7.15,21.971-8.728c2.599,5.029,5.197,10.059,8.737,16.903c-7.259,1.236-11.09,1.886-14.922,2.539c-5.063,2.512-1.981,9.405-6.554,12.183C48.407,100,46.323,100,44.24,100z"/>
<path fill="#49403A" d="M50.489,100c2.186-4.062,4.371-8.124,6.556-12.186c-0.103,4.062-0.204,8.124-0.306,12.186C54.657,100,52.572,100,50.489,100z"/>
<path fill="#906D55" d="M63.227,68.375c-8.453,6.207-16.906,12.414-25.358,18.621c-1.886-4.07-3.772-8.145-5.656-12.216c7.153-5.886,15.434-9.454,24.305-11.807C58.756,64.773,60.991,66.574,63.227,68.375z"/>
<path fill="#CB9878" d="M56.518,62.973c-8.101,3.934-16.203,7.871-24.306,11.808c2.602-4.27,5.203-8.539,7.196-11.808C46.209,62.973,51.364,62.973,56.518,62.973z"/>
</svg>