<?xml version="1.0" encoding="utf-8"?>
<!DOCTYPE svg PUBLIC "-//W3C//DTD SVG 1.1//EN" "http://www.w3.org/Graphics/SVG/1.1/DTD/svg11.dtd">
<svg version="1.1" xmlns="http://www.w3.org/2000/svg" xmlns:xlink="http://www.w3.org/1999/xlink" x="0px" y="0px" width="100px" height="100px" viewBox="0 0 100 100" enable-background="new 0 0 100 100" xml:space="preserve">
<path fill="#A2A2A2" d="M12.992,21.698c5.312-2.838,10.623-5.68,15.935-8.521c1.195,0.458,2.133,0.119,2.849-0.916c1.126-0.757,2.253-1.514,3.38-2.271c1.164,0.519,2.128,0.269,2.896-0.748c1.123-0.772,2.246-1.544,3.369-2.313c0.99,0.04,2.716,2.63,2.708-0.781c4.283,0.003,8.567,0.009,12.851,0.015c0.217,1.361,0.687,2.634,1.375,3.827c1.104,0.797,2.22,1.578,3.343,2.341c1.067,0.854,1.888,1.901,2.46,3.141c0.188,1.333,0.111,2.655-0.228,3.955c-0.562,1.187-1.199,2.337-1.904,3.442c-0.717,1.071-1.44,2.145-2.152,3.216c-0.694,1.053-1.395,2.115-2.088,3.167c-0.8,0.956-1.718,1.792-2.743,2.503c-1.639,0.885-3.473,1.159-5.248,1.626c-1.771,0.445-3.592,0.625-5.384,0.967c-2.41,0.467-4.756,1.233-7.211,1.489c-1.881,0.095-3.76,0.092-5.641,0.095c-1.914-0.003-3.822-0.003-5.734-0.089c-1.295-0.128-2.542-0.433-3.75-0.921c-0.587-0.287-1.172-0.571-1.761-0.857c-1.186-0.577-2.367-1.151-3.553-1.728c-1.693-1.083-3.257-2.334-4.858-3.543c-0.769-1.147-1.176-2.408-1.222-3.784C11.254,23.77,12.033,22.671,12.992,21.698z"/>
<path fill="#585858" d="M93.73,24.637c-0.089,1.31-0.176,2.615-0.264,3.922c-0.9,4.166-2.031,8.279-2.802,12.472c-1.791,4.587-6.024,5.795-10.063,7.279c-1.449,0.237-2.893,0.476-4.341,0.726c-1.467,0.284-2.927,0.563-4.394,0.858c-1.485,0.339-2.963,0.668-4.446,1.01c-4.615,0.604-9.295,1.654-13.241-2.042c-0.984-1.272-1.582-2.707-1.799-4.296c-0.113-1.578-0.008-3.137,0.313-4.685c2.688-5.332,8.09-6.912,12.888-9.317c2.669-1.261,5.275-2.667,7.978-3.854c4.582-1.837,9.148-3.769,14.247-3.574C89.833,23.419,91.975,23.27,93.73,24.637z"/>
<path fill="#525252" d="M93.639,53.085c0,6.711,0,13.419,0,21.286c-4.045,2.365-7.922,4.63-11.8,6.895c-0.554,0.122-1.105,0.247-1.664,0.378c-0.491,0.302-0.979,0.599-1.479,0.9c-0.58,0.122-1.147,0.238-1.733,0.354c-1.22,0.183-2.427,0.219-3.664,0.104c-1.199-0.543-2.232-1.275-3.12-2.243c-0.453-1.304-0.409-2.569,0.18-3.809c0.864-3.141,2.487-5.938,3.912-8.813c1.18-2.002,2.721-3.714,4.427-5.252c0.713-0.696,1.529-1.307,2.387-1.813c-0.038-0.004,1.212-0.778,1.169-0.797c-0.043-0.016,1.097-0.863,1.053-0.895c-0.046-0.033,0.964-0.988,0.923-1.025c-0.042-0.039,0.806-1.138,0.771-1.172c-0.033-0.036,0.701-1.232,0.68-1.267c0.677-1.382,1.099-2.887,2.206-4.034c0.909-0.723,1.915-1.01,3.058-0.809C91.873,51.709,92.77,52.381,93.639,53.085z"/>
<path fill="#787878" d="M31.829,87.491c-4.195-1.987-8.389-3.974-12.584-5.96c-1.279-1.646-3.529-2.063-4.759-3.778c-0.789-1.172-1.336-2.441-1.645-3.824c0.402-1.397,1.088-2.624,2.067-3.705c1.56-1.718,3.456-2.731,5.797-2.874c2.357-0.083,4.625,0.183,6.677,1.465c3.824,2.981,7.285,6.237,8.746,11.074C36.281,83.319,35.852,86.423,31.829,87.491z"/>
<path fill="#7A7A7A" d="M25.577,71.878c-2.087,0-4.173,0.003-6.261,0.003c-0.949,1.126-2.103,2.042-3.106,3.113l-0.021,0.024c-0.716,0.872-1.222,1.853-1.546,2.933c-0.545,0.128-1.088,0.256-1.631,0.381c-1.906-1.195-3.812-2.393-5.718-3.588c1.294-1.963,0.992-4.297,1.512-6.445c0.921-2.076,1.872-4.136,2.557-6.312c0.504-2.359,1.723-4.261,3.63-5.729c1.369-0.845,2.852-1.275,4.46-1.294c1.622,0.064,3.104,0.547,4.454,1.443c1.222,1.054,2.2,2.295,2.939,3.727c0.859,2.243,1.77,4.465,2.479,6.76c0.238,1.69-0.235,3.146-1.42,4.373C27.129,71.473,26.352,71.674,25.577,71.878z"/>
<path fill="#7A7A7A" d="M44.222,93.842c-2.039-1.096-4.079-2.194-6.119-3.293c-0.938-0.797-1.771-1.69-2.486-2.704c-0.442-1.169-0.833-2.35-1.186-3.552c-0.523-1.176-0.862-2.393-0.99-3.675c-0.032-1.313-0.012-2.609,0.063-3.918c0.922-2.045,2.593-2.915,4.739-3.067c1.398,0.009,2.738,0.277,4.041,0.766c1.864,1.025,3.448,2.396,4.951,3.876c1.497,1.526,2.878,3.138,3.92,5.015c0.519,1.336,0.805,2.722,0.856,4.153c-0.023,2.157-0.167,4.272-1.966,5.831C48.183,94.269,46.343,95.492,44.222,93.842z"/>
<path fill="#A4A4A4" d="M69.489,12.408c1.016,0.104,1.995,0.348,2.941,0.732c0.878,0.812,1.582,1.752,2.115,2.82c1.34,1.333,3.329,1.102,4.845,2.011c0.812,0.876,1.531,1.822,2.162,2.838c0.712,0.995,1.018,2.105,0.92,3.323c-0.63,1.004-1.37,1.922-2.202,2.762c-0.897,0.745-1.866,1.392-2.905,1.917c-0.996,0.556-2.024,1.065-3.071,1.52c-1.552,0.72-3.208,0.891-4.896,0.851c-1.103-0.076-2.149-0.372-3.136-0.885c-0.903-0.638-1.772-1.318-2.619-2.036c-0.431-0.357-0.858-0.711-1.29-1.071c-1.392-1.053-2.501-2.311-2.981-4.041c0.268-1.163,0.659-2.267,1.202-3.329c0.553-1.086,1.116-2.155,1.7-3.223c0.38-1.193,0.96-2.265,1.747-3.235c1.145-0.525,2.339-0.833,3.597-0.891C68.242,12.451,68.866,12.43,69.489,12.408z"/>
<path fill="#505050" d="M88.071,37.509c1.799-2.985,3.6-5.969,5.396-8.951c0.065,7.171,0.135,14.34,0.202,21.509c-1.328,0.628-2.72,1.044-4.176,1.242c-3.123,0.144-5.839-0.455-7.006-3.86C80.782,42.129,91.135,43.585,88.071,37.509z"/>
<path fill="#979797" d="M7.386,46.768c0.022-7.227,0.044-14.453,0.065-21.683c1.861-1.929,3.757-2.133,5.693-0.107l-0.079-0.088c0.917,0.882,1.712,1.862,2.388,2.948c0.346,1.258,0.464,2.527,0.352,3.827c-0.254,1.993-0.508,3.974-0.761,5.966c-0.372,2.798-0.307,5.627-0.849,8.408c-0.645,1.382-1.677,2.328-3.106,2.847C9.586,48.645,8.339,47.961,7.386,46.768z"/>
<path fill="#646464" d="M47.38,87.658c-0.069-1.195-0.136-2.396-0.203-3.595c0.314-0.787,0.63-1.574,0.943-2.362c1.37-1.102,2.935-1.607,4.689-1.52c1.706,0.306,3.144,1.102,4.309,2.384c1.531,3.283,1.27,6.427-0.743,9.433c-1.309,2.252-3.33,3.567-5.752,4.349c-2.135-0.836-4.268-1.669-6.401-2.505c1.053-1.126,2.106-2.249,3.159-3.375c-0.809-0.626-1.077-1.249-0.809-1.871C46.84,87.97,47.109,87.658,47.38,87.658z"/>
<path fill="#AFAFAF" d="M53.703,9.375c1.093-1.071,2.186-2.143,3.276-3.21c4.171,2.082,8.341,4.163,12.51,6.244l-1.451,0.4c-0.956,0.809-2.015,1.44-3.181,1.898c-1.921,0.815-3.609,0-5.31-0.751C57.296,12.815,55.428,11.188,53.703,9.375z"/>
<path fill="#797979" d="M38.045,87.405c0.02,1.05,0.04,2.097,0.058,3.144c-2.09-1.02-4.183-2.039-6.274-3.058c-0.006-2.082-0.011-4.166-0.017-6.247c1.05-1.575,2.098-1.572,3.142,0.006l0.008,0.016c0.829,0.872,1.344,1.9,1.547,3.085C36.65,85.556,37.162,86.575,38.045,87.405z"/>
<path fill="#8D8D8D" d="M10.172,68.588c-0.96,2.051-1.918,4.105-2.878,6.156c0.02-4.09,0.04-8.18,0.06-12.269c0.918-1.208,2.127-1.599,3.59-1.285c1.106,1.011,1.463,2.256,1.178,3.705C11.646,66.22,10.996,67.45,10.172,68.588z"/>
<path fill="#959595" d="M78.713,21.768c-0.09-1.086-0.18-2.169-0.271-3.256c-0.67-0.415-1.342-0.833-2.013-1.251c0.719-0.327,1.438-0.653,2.159-0.977c3.196,1.828,6.392,3.659,9.588,5.49c-0.399,0.513-0.801,1.025-1.2,1.538c-1.632,1.26-3.434,1.715-5.45,1.147C80.517,23.636,79.578,22.739,78.713,21.768z"/>
<path fill="#939393" d="M9.925,62.488c-0.856-0.004-1.714-0.01-2.571-0.013c0.012-4.129,0.024-8.261,0.037-12.39c1.122-0.986,2.432-1.374,3.909-1.242c1.372,0.546,2.364,1.482,2.917,2.862c0.208,1.407,0.25,2.823,0.099,4.239c-0.355,1.37-0.786,2.719-1.289,4.04C12.421,61.35,11.365,62.158,9.925,62.488z"/>
<path fill="#AFAFAF" d="M44.129,6.149c-0.179,0.662-0.357,1.324-0.548,2.032c-0.774-0.448-1.466-0.852-2.161-1.251C42.273,6.5,43.177,6.238,44.129,6.149z"/>
<path fill="#AFAFAF" d="M78.588,16.284c-0.062,0.742-0.108,1.489-0.144,2.231c-1.991-0.946-3.981-1.889-5.971-2.832c1.063-1.288,2.191-1.41,3.395-0.189C76.817,15.613,77.724,15.875,78.588,16.284z"/>
<path fill="#888888" d="M13.144,24.979c-1.898,0.034-3.794,0.07-5.693,0.107c1.846-1.129,3.692-2.258,5.541-3.387C13.042,22.791,13.094,23.886,13.144,24.979z"/>
<path fill="#959595" d="M93.73,24.637c-1.902,0.083-3.804,0.165-5.707,0.247l-1.254-0.744l0.475-1.38l0.932-0.985C90.027,22.73,91.878,23.685,93.73,24.637z"/>
<path fill="#5F5F5F" d="M16.148,77.841c1.033,1.23,2.065,2.46,3.096,3.69c-2.078-1.065-4.155-2.131-6.233-3.199l0.773-1.3l1.424-0.305L16.148,77.841z"/>
<path fill="#515151" d="M75.583,81.244c1.09-0.027,2.181-0.052,3.271-0.076c0.698-1.142,1.55-1.273,2.557-0.391c0,0,0.429,0.484,0.429,0.488c-2.081,1.04-4.162,2.084-6.243,3.128c-0.359-0.525-0.719-1.047-1.077-1.572C74.874,82.297,75.227,81.769,75.583,81.244z"/>
<path fill="#515151" d="M75.596,84.394c-2.082,1.053-4.161,2.105-6.241,3.155c-0.394-0.699-0.789-1.397-1.183-2.1c1.665-4.465,4.191-4.077,7.148-1.27L75.596,84.394z"/>
<path fill="#515151" d="M69.354,87.549c-2.086,1.031-4.173,2.063-6.259,3.095c-0.69-0.449-1.38-0.895-2.069-1.343c-0.19-0.8-0.38-1.603-0.569-2.402c0.472-1.696,1.533-2.847,3.185-3.457c2.867-0.132,4.449,1.593,5.632,3.896L69.354,87.549z"/>
<path fill="#515151" d="M63.096,90.644c-2.096,1.025-4.188,2.048-6.284,3.069c-0.267-0.726-0.535-1.452-0.804-2.182c0.43-1.563,1.352-2.688,2.9-3.25c1.601,0.162,2.883,0.922,3.909,2.146L63.096,90.644z"/>
<path fill="#818181" d="M9.938,50c-0.85,0.037-1.698,0.064-2.548,0.086c-0.001-1.105-0.003-2.21-0.004-3.318c0.816,0.024,1.631,0.052,2.446,0.085c1.221-1.434,2.652-1.693,4.298-0.769c1.01,1.507,1.042,3.034,0.098,4.581C12.604,51.685,11.174,51.462,9.938,50z"/>
<path fill="#515151" d="M50.623,96.347c0.953-0.896,1.908-1.794,2.864-2.691c0.535-0.653,1.069-1.303,1.604-1.956c0.562,0.629,1.121,1.258,1.683,1.889l0.038,0.129C54.749,94.592,52.685,95.468,50.623,96.347z"/>
<path fill="#AFAFAF" d="M38.051,9.244c-1.03-0.003-1.996,0.248-2.896,0.748C36.08,9.585,37.045,9.338,38.051,9.244z"/>
<path fill="#AFAFAF" d="M31.775,12.262c-1.032,0.052-1.981,0.357-2.849,0.916C29.831,12.732,30.78,12.427,31.775,12.262z"/>
<path fill="#A0A0A0" d="M75.868,15.494c-1.132,0.064-2.264,0.125-3.396,0.189c-0.017-0.845-0.03-1.694-0.041-2.542C73.576,13.925,74.723,14.71,75.868,15.494z"/>
<path fill="#595959" d="M91.208,49.991c0.822,0.03,1.644,0.055,2.465,0.076c0.172,1.007,0.163,2.014-0.031,3.018c-0.85,0.043-1.695,0.089-2.542,0.141l-1.257-0.9l0.033-1.547L91.208,49.991z"/>
<path fill="#A7A7A7" d="M63.068,21.866c2.1,0.019,4.2,0.037,6.3,0.055c0.74,0.699,0.979,1.389,0.722,2.075c-0.258,0.681-0.511,1.022-0.763,1.022l0.009-0.024c-1.164,1.84-0.638,4.205-1.87,6.018c-1.161,0.861-2.477,1.236-3.911,1.196c-2.016-0.564-3.782-1.626-5.463-2.838c-0.994-0.931-1.736-2.036-2.214-3.314c-0.412-1.272-0.644-2.584-0.691-3.924c-0.073-1.407,0.464-2.524,1.607-3.351c1.062-0.012,2.124-0.027,3.186-0.042c0.536,0.091,1.069,0.18,1.604,0.271C61.894,20.056,62.389,21.011,63.068,21.866z"/>
<path fill="#979797" d="M25.594,28.101c-0.001,1.041-0.007,2.081-0.017,3.119c1.135,1.382,1.504,2.948,1.106,4.69c-1.611,2.322-3.905,2.896-6.554,2.545c-3.206-1.196-5.753-3.22-7.616-6.094c-0.972-1.621-0.769-3.076,0.61-4.367l-0.092,0.177c2.133-2.115,4.279-1.831,6.435-0.037c2.045-0.009,4.091-0.019,6.136-0.024L25.594,28.101z"/>
<path fill="#AFAFAF" d="M47.287,28.058c2.14,0.021,4.278,0.046,6.418,0.07c0.681,0.473,1.361,0.949,2.045,1.428c0.165,0.818,0.326,1.633,0.485,2.445c-0.554,1.681-1.656,2.844-3.317,3.439c-4.912,0.464-9.908,1.761-14.336-1.749c-0.171-0.803-0.33-1.624-0.49-2.444c2.117-1.056,4.231-2.112,6.348-3.168C45.38,26.947,46.329,26.941,47.287,28.058z"/>
<path fill="#A7A7A7" d="M59.961,12.497c2.146,0.021,4.293,0.04,6.438,0.061c0.808,0.717,1.049,1.397,0.727,2.044c-0.314,0.629-0.616,0.946-0.909,0.946c-1.062,1.056-2.124,2.112-3.185,3.167c-2-0.052-1.973-2.109-3.047-3.079c-1.047-0.003-2.096-0.006-3.142-0.006C55.66,12.375,56.539,11.169,59.961,12.497z"/>
<path fill="#9E9E9E" d="M59.961,12.497c-1.04,1.043-2.079,2.087-3.118,3.134c-1.047-2.087-2.093-4.171-3.14-6.256C55.789,10.416,57.875,11.456,59.961,12.497z"/>
<path fill="#AFAFAF" d="M56.794,18.78c0.014,1.032,0.024,2.066,0.034,3.098c-0.516,0.742-1.032,1.483-1.548,2.228c-0.523-0.739-1.046-1.477-1.569-2.216C54.739,20.856,55.767,19.818,56.794,18.78z"/>
<path fill="#A7A7A7" d="M31.769,31.265c2.107-0.006,4.216-0.012,6.323-0.018l-0.006-0.016c1.229,1.633,1.352,3.345,0.365,5.14c-2.494,2.148-4.978,2.197-7.454-0.024C30.084,34.476,30.342,32.782,31.769,31.265z"/>
<path fill="#808080" d="M19.467,28.134c-2.145,0.012-4.289,0.024-6.435,0.037c0.011-1.093,0.021-2.185,0.032-3.281C15.2,25.971,17.333,27.054,19.467,28.134z"/>
<path fill="#868686" d="M31.769,31.265c0.055,1.029,0.105,2.057,0.149,3.085c-0.525,1.517-1.573,2.447-3.142,2.789c-0.714-0.241-1.43-0.485-2.146-0.726c-0.348-0.671-0.696-1.34-1.043-2.011c-0.003-1.059-0.008-2.121-0.011-3.18C27.64,31.235,29.705,31.25,31.769,31.265z"/>
<path fill="#AFAFAF" d="M59.984,15.637c1.016,1.028,2.032,2.054,3.047,3.083c0-0.003,0.047,0.033,0.047,0.033c-1.049,1.272-2.095,1.208-3.132-0.015h0.033C59.976,17.703,59.978,16.672,59.984,15.637z"/>
<path fill="#9C9C9C" d="M53.711,21.89c1.039-0.009,2.078-0.012,3.117-0.012c0,1.041,0,2.084,0,3.125c-1.046,1.413-2.087,1.346-3.125-0.009C53.703,23.96,53.707,22.925,53.711,21.89z"/>
<path fill="#A7A7A7" d="M25.603,28.11l-0.009-0.009L25.603,28.11z"/>
<path fill="#9C9C9C" d="M47.287,28.058c-0.95,0.009-1.899,0.019-2.849,0.021C45.388,27.969,46.337,27.96,47.287,28.058z"/>
<path fill="#AFAFAF" d="M53.703,24.994c1.041,0.003,2.083,0.006,3.125,0.009h-0.052c1.287,3.327,0.23,4.337-3.08,3.119l0.009,0.006C53.705,27.081,53.703,26.038,53.703,24.994z"/>
<path fill="#4F4F4F" d="M75.575,43.747c1.052-0.003,2.104-0.009,3.157-0.016c1.231,0.895,2.238,1.993,3.02,3.296c1.017,2.075,1.472,4.218,0.759,6.494c-1.271,2.887-3.914,4.367-6.282,6.131c-2.371,1.752-4.723,3.534-7.054,5.344c-1.247,0.818-2.596,1.395-4.036,1.764c-1.508,0.049-2.932-0.259-4.254-0.988c-2.87-4.334-4.744-9.161-6.898-13.849c-0.306-1.511-0.062-2.927,0.736-4.245c0.696-0.274,1.392-0.549,2.086-0.821c4.172-1.031,8.342-2.066,12.514-3.097h1.042l1.043-0.006l1.042-0.003h1.042l1.042-0.003L75.575,43.747L75.575,43.747z"/>
<path fill="#646464" d="M56.769,43.662c0.014,1.065,0.027,2.13,0.039,3.195l0.011,0.013c-0.776,1.416-0.894,2.884-0.334,4.406c0.203,1.535,0.363,3.07,0.717,4.575c0.188,3.878,2.138,7.732,0.745,11.736c-0.493,1.551-1.442,2.851-2.664,3.949c-1.359,0.946-2.88,1.392-4.54,1.346c-2.502-0.543-4.231-2.142-5.638-4.172c-0.934-1.312-1.608-2.749-2.026-4.306c-0.373-3.183-0.253-6.385-0.29-9.582c0.012-2.433,0.075-4.853,0.952-7.172c1.271-2.124,2.534-4.245,4.382-5.945C51.684,39.371,54.389,40.805,56.769,43.662z"/>
<path fill="#ACACAC" d="M69.021,33.997c-4.043,2.234-8.085,4.465-12.127,6.699c-1.329,1.321-2.802,1.507-4.419,0.564c-1.485-0.906-2.387-2.216-2.706-3.925c0.362-2.643,2.191-4.336,3.934-6.085h0.004c1.373-1.654,3.303-2.081,5.282-2.396c1.964,0.421,3.604,1.651,5.512,2.209c1.326,0.122,2.586,0.479,3.766,1.102C68.518,32.776,68.77,33.386,69.021,33.997z"/>
<path fill="#A4A4A4" d="M87.244,22.76c0.266,0.705,0.524,1.416,0.781,2.124c-4.183,1.999-8.365,3.998-12.546,5.997c-0.961-0.58-1.283-1.163-0.969-1.755c0.313-0.589,0.628-0.885,0.949-0.885l0.262-0.263c1-0.998,1.996-1.993,2.992-2.991l-0.015,0.021c0.801-1.3,2.031-2.176,3.158-3.153C83.653,22.159,85.448,22.458,87.244,22.76z"/>
<path fill="#595959" d="M78.71,46.875c0.008-1.047,0.015-2.094,0.022-3.144c3.113-2.075,6.226-4.15,9.339-6.222c-1.039,3.122-2.078,6.244-3.118,9.366c-0.316,0.61-0.636,1.221-0.955,1.834C81.667,49.737,80.15,48.416,78.71,46.875z"/>
<path fill="#858585" d="M53.662,40.158c1.077,0.18,2.155,0.357,3.232,0.537c-0.008,0.992-0.048,1.98-0.124,2.966c-2.06,0.967-4.12,1.935-6.18,2.905c-0.626,0.503-1.25,1.007-1.875,1.513c-1.619,0.181-3.208,0.04-4.77-0.421c-1.366-0.928-2.391-2.139-3.078-3.638c-0.439-1.626-0.248-3.177,0.572-4.647c1.018-1.291,2.295-2.231,3.827-2.826c1.619-0.312,3.186-0.131,4.695,0.534C51.242,38.049,52.476,39.075,53.662,40.158z"/>
<path fill="#AFAFAF" d="M75.46,28.241c-0.005,0.879,0.003,1.761,0.02,2.64c-2.153,1.038-4.305,2.078-6.458,3.116l-0.107-0.202c-1.003-0.75-1.651-1.733-1.946-2.951c0.304-0.528,0.607-1.053,0.911-1.581c0.479-0.375,0.96-0.75,1.439-1.126C71.365,28.171,73.412,28.208,75.46,28.241z"/>
<path fill="#595959" d="M72.466,40.619c1.036,1.043,2.073,2.087,3.109,3.128v0.003c-0.446,0.354-0.894,0.711-1.343,1.068c-1.207,0.22-2.182-0.159-2.925-1.136C71.248,42.493,71.634,41.474,72.466,40.619z"/>
<path fill="#525252" d="M72.466,40.619c-0.003,1.043-0.008,2.087-0.011,3.131c-1.045,1.48-2.091,1.407-3.134,0l0.001,0.009C70.371,42.712,71.418,41.666,72.466,40.619z"/>
<path fill="#525252" d="M56.773,93.588c-1.094,0.021-2.188,0.046-3.283,0.067c0.039-3.095,0.082-6.186,0.125-9.277c-2.761-2.545-5.129-5.268-4.323-9.427c0.312-1.389,1.012-2.563,2.077-3.497c1.565-1.196,3.439-1.978,4.875-3.36c0.681-1.047,1.488-2.005,2.401-2.862c1.212-0.257,2.438-0.284,3.666-0.083c0.603-0.131,1.205-0.262,1.811-0.394c1.106-0.586,2.21-1.169,3.322-1.758c1.11-0.655,2.261-1.208,3.473-1.657c2.159-0.104,3.838,0.742,5.078,2.497c0.773,2.084,0.087,4.089-0.29,6.115c0.149,2.731-2.021,5.42-0.127,8.173c0.002,1.041,0.004,2.078,0.005,3.119c-0.085,0.977-0.172,1.956-0.261,2.936c-2.018,1.053-4.033,2.105-6.049,3.158c-2.075,0.049-4.15,0.098-6.226,0.146l0.016-0.015c-0.079,0.985-0.16,1.972-0.246,2.957C60.802,91.48,58.788,92.535,56.773,93.588z"/>
<path fill="#545454" d="M91.033,55.981c-0.007,2.228-0.013,4.456-0.021,6.684c-0.974,0.995-1.953,1.983-2.938,2.963l0.007-0.003c-1.044,1.443-2.089,1.443-3.135,0l0.01,0.006c-2.829-1.654-6.876,1.334-9.162-2.398c-0.741-1.63-0.676-3.229,0.194-4.794c2.472-2.354,5.569-3.702,8.515-5.295C87.356,52.536,89.226,54.188,91.033,55.981z"/>
<path fill="#595959" d="M75.578,78.125c-1.042-2.081-2.082-4.166-3.125-6.247c1.391-1.538,1.963-3.912,4.447-4.321c0.601,0.396,1.202,0.794,1.802,1.193C77.661,71.875,76.619,75,75.578,78.125z"/>
<path fill="#585858" d="M78.689,62.497c2.09,1.044,4.179,2.091,6.268,3.134c-2.085,1.041-4.171,2.078-6.255,3.119h0.001c-2.675-1.663-6.007-2.96-3.996-7.215C76.348,60.556,77.677,60.88,78.689,62.497z"/>
<path fill="#676767" d="M91.033,55.981c-2.028,0.085-4.058,0.168-6.086,0.253c-0.616-0.378-1.231-0.757-1.848-1.132c-0.151-0.705-0.302-1.41-0.455-2.115c0.585-1.388,1.584-2.304,3.063-2.667c2.371-0.098,4.03,1.188,5.498,2.842c0,0-0.103,0.061-0.104,0.061C91.078,54.145,91.056,55.063,91.033,55.981z"/>
<path fill="#595959" d="M88.075,65.628c0.981-0.988,1.963-1.978,2.94-2.963C90.033,63.653,89.055,64.643,88.075,65.628z"/>
<path fill="#595959" d="M84.947,65.625c1.046,0,2.091,0,3.135,0c-0.002,1.044-0.005,2.084-0.007,3.128l0.007-0.006C87.036,67.706,85.993,66.666,84.947,65.625z"/>
<path fill="#595959" d="M88.075,68.753l0.007-0.006L88.075,68.753z"/>
<path fill="#595959" d="M81.819,78.119l0.021,0.018L81.819,78.119z"/>
<path fill="#595959" d="M81.41,80.777c-0.852,0.149-1.704,0.28-2.559,0.391c0.99-1.017,1.979-2.033,2.968-3.049c0,0,0.02,0.018,0.021,0.018C81.708,79.02,81.564,79.898,81.41,80.777z"/>
<path fill="#7A7A7A" d="M34.954,81.25c-1.047-0.003-2.093-0.003-3.142-0.006c-2.079-3.122-4.157-6.244-6.235-9.366l0.001-0.003c1.122-1.068,1.929-2.341,2.464-3.79c0.125-2.438,1.027-4.446,3.174-5.771c1.476-0.586,2.98-0.644,4.509-0.244c2.135,0.974,4.001,2.313,5.536,4.093c0.78,1.349,1.187,2.808,1.271,4.361c0.156,3.494-2.082,5.588-4.456,7.602C37.037,79.166,35.996,80.209,34.954,81.25z"/>
<path fill="#747474" d="M16.21,74.994c1.036-1.038,2.072-2.075,3.106-3.113C18.282,72.919,17.246,73.956,16.21,74.994z"/>
<path fill="#7D7D7D" d="M16.148,77.841c-0.806-0.22-1.596-0.485-2.366-0.806c0.804-0.674,1.605-1.346,2.406-2.017C16.178,75.958,16.165,76.898,16.148,77.841z"/>
<path fill="#7A7A7A" d="M28.743,71.829c-1.056,0.016-2.11,0.03-3.165,0.046c-0.001-1.047-0.003-2.097-0.006-3.144c-1.277-1.123-2.073-2.521-2.388-4.196c0.389-1.626,1.079-3.112,2.074-4.458c1.614-0.754,3.185-0.675,4.713,0.234c1.193,1.331,1.546,2.856,1.061,4.575C30.222,67.185,30.519,69.849,28.743,71.829z"/>
<path fill="#818181" d="M25.579,65.628c-0.003,1.034-0.004,2.069-0.006,3.104c-1.016-2.087-2.034-4.175-3.052-6.259c0.528,0.113,1.056,0.229,1.585,0.345C24.324,63.898,24.804,64.841,25.579,65.628z"/>
<path fill="#818181" d="M16.239,59.293c-1.056,2.114-2.113,4.227-3.169,6.338c-0.47-0.405-0.94-0.812-1.41-1.218c-0.162-1.864-0.233-3.72,0.317-5.542c0.827-1.064,1.906-1.4,3.204-1.113C15.534,58.271,15.886,58.783,16.239,59.293z"/>
<path fill="#939393" d="M28.717,62.484c-1.05,0.062-2.1,0.122-3.149,0.181c-1.126,1.12-2.168,1.047-3.128-0.22c0,0,0.078,0.027,0.079,0.027c-0.017-1.035-0.032-2.072-0.044-3.106c0.178-0.784,0.358-1.569,0.537-2.356c2.039-1.923,4.222-1.901,6.506-0.482c1.137,1.288,1.483,2.762,1.038,4.419C29.942,61.459,29.33,61.972,28.717,62.484z"/>
<path fill="#979797" d="M19.307,59.305h-1.535c0,0-1.535-0.009-1.534-0.009c0-0.003-0.003,0.067-0.003,0.067c-0.516-0.563-1.03-1.12-1.546-1.686c-0.096-1.614,0.487-2.896,1.855-3.796c1.593-0.198,2.963,0.244,4.079,1.419C20.984,56.897,20.545,58.231,19.307,59.305z"/>
<path fill="#919191" d="M19.307,59.305c0-0.925-0.006-1.85-0.017-2.773c1.028-1.136,2.222-1.413,3.607-0.69c0.819,1.331,0.656,2.524-0.49,3.586c0,0,0.066-0.058,0.066-0.061C21.419,59.348,20.363,59.326,19.307,59.305z"/>
<path fill="#797979" d="M10.172,68.588c-0.064-0.982-0.122-1.965-0.171-2.951c0.51-0.735,1.019-1.471,1.53-2.206c0.516,0.732,1.032,1.462,1.547,2.194l-0.009,0.006C12.103,66.617,11.138,67.603,10.172,68.588z"/>
<path fill="#818181" d="M38.077,78.125c0.001-2.088,0.003-4.172,0.004-6.259c1.344-1.151,2.861-1.468,4.553-0.952c1.409,1.05,2.095,2.45,2.06,4.208c-0.392,0.72-0.784,1.44-1.176,2.164c-0.771,0.28-1.543,0.558-2.315,0.839C40.162,78.125,39.119,78.125,38.077,78.125z"/>
<path fill="#818181" d="M44.33,81.247c-1.042-1.041-2.084-2.081-3.126-3.122h-0.001c2.225-1.962,3.465-0.925,4.282,1.407C45.099,80.103,44.715,80.673,44.33,81.247z"/>
<path fill="#747474" d="M34.951,84.366c0.003-1.035,0.006-2.066,0.011-3.101c1.039,1.037,2.078,2.072,3.117,3.106C37.033,85.617,35.991,85.614,34.951,84.366z"/>
<path fill="#818181" d="M47.177,84.064c-0.949-0.937-1.898-1.877-2.847-2.816l-0.003,0.006c0.423-0.516,0.845-1.031,1.268-1.547c1.405-0.306,2.541,0.144,3.442,1.239c0.135,1.406-0.373,2.548-1.438,3.454L47.177,84.064z"/>
<path fill="#818181" d="M34.951,84.366c1.042,0,2.086,0.003,3.128,0.006c-0.008,1.013-0.018,2.023-0.032,3.036C37.014,86.393,35.982,85.379,34.951,84.366z"/>
<path fill="#818181" d="M47.38,87.658c0.015,0.938,0.015,1.874,0,2.809C47.286,89.529,47.286,88.596,47.38,87.658z"/>
<path fill="#AFAFAF" d="M66.216,15.549c0.052-0.998,0.111-1.996,0.182-2.991c0.554,0.076,1.104,0.162,1.646,0.25C67.431,13.721,66.823,14.633,66.216,15.549z"/>
<path fill="#9C9C9C" d="M59.946,18.738c1.043,0.006,2.089,0.009,3.132,0.015c-0.001,1.038-0.004,2.075-0.01,3.113C62.027,20.822,60.986,19.781,59.946,18.738z"/>
<path fill="#AFAFAF" d="M81.857,21.856c-1.053,1.053-2.105,2.103-3.158,3.153c0.004-1.081,0.009-2.158,0.014-3.241C79.761,21.796,80.809,21.826,81.857,21.856z"/>
<path fill="#AFAFAF" d="M66.214,28.116c1.041-1.041,2.082-2.081,3.122-3.122c-0.006,1.046-0.012,2.093-0.018,3.143l0.017-0.018C68.293,29.477,67.254,29.544,66.214,28.116z"/>
<path fill="#AFAFAF" d="M78.714,24.988c-0.997,0.998-1.997,1.996-2.993,2.991C76.72,26.981,77.718,25.986,78.714,24.988z"/>
<path fill="#AFAFAF" d="M69.327,25.019c0.012-1.035,0.024-2.066,0.04-3.098C69.484,22.955,69.471,23.987,69.327,25.019z"/>
<path fill="#595959" d="M84.953,46.875c2.086,1.037,4.171,2.075,6.255,3.116l0.006-0.003c-2.03,2.035-4.495,1.571-6.942,1.205c-1.002-1.633-0.775-3.07,0.679-4.315L84.953,46.875z"/>
<path fill="#7B7B7B" d="M13.16,31.18c2.083,1.041,4.167,2.084,6.251,3.128c0.346,0.492,0.694,0.983,1.043,1.474c0.603,0.049,1.203,0.098,1.805,0.146c1.211,0.006,2.422,0.012,3.633,0.012c1.222-0.012,2.412,0.162,3.57,0.556c1.122,0.506,2.06,1.248,2.838,2.197c0.273,1.208,0.139,2.374-0.401,3.491c-0.623,1.034-1.367,1.975-2.216,2.835c-0.88,0.818-1.762,1.639-2.64,2.463c-0.429,0.421-0.862,0.839-1.292,1.26c-1.524,1.847-2.431,4.294-5.005,5.115c-1.164,0.5-2.373,0.766-3.639,0.793c-1.315,0.132-2.472-0.24-3.502-1.053c-0.394-1.221-0.587-2.469-0.552-3.75c0.008-0.992,0.015-1.984,0.023-2.976c-1.119-0.873-2.113-1.868-2.968-3.006c0.015-3.241,0.029-6.485,0.044-9.726C10.743,32.733,11.745,31.748,13.16,31.18z"/>
<path fill="#747474" d="M13.16,31.18c-1.002,0.989-2.007,1.975-3.008,2.96c0.992-2.048,1.982-4.096,2.973-6.146C13.135,29.056,13.147,30.118,13.16,31.18z"/>
<path fill="#797979" d="M10.109,43.866c0.989,1.004,1.979,2.005,2.968,3.006c-1.081-0.006-2.161-0.012-3.243-0.019C9.921,45.859,10.015,44.864,10.109,43.866z"/>
<path fill="#646464" d="M53.725,71.866c-0.035,4.171-0.071,8.34-0.109,12.512c-1.012-0.003-2.023-0.003-3.035-0.003c-1.126-0.882-2.111-1.901-2.956-3.058l-0.47,0.036c-2.228-3.094-2.895-6.313-0.781-9.753c1.125-0.882,2.402-1.304,3.83-1.258C51.671,70.169,52.845,70.679,53.725,71.866z"/>
<path fill="#595959" d="M47.624,81.317c0.984,1.019,1.97,2.038,2.956,3.058c-0.995,0.006-1.991,0.016-2.984,0.024C47.579,83.371,47.588,82.343,47.624,81.317z"/>
<path fill="#7D7D7D" d="M13.079,65.625c-1.027,0-2.055,0.006-3.081,0.012c-0.021-1.049-0.046-2.1-0.072-3.148c0.027-1.041,0.053-2.082,0.076-3.122c1.033-1.41,2.059-1.34,3.079,0.012C13.081,61.459,13.08,63.544,13.079,65.625z"/>
<path fill="#646464" d="M13.054,49.848c1.038,1.135,2.075,2.271,3.113,3.405c-2.162,2.137-4.211,1.969-6.162-0.299C9.984,51.969,9.961,50.985,9.938,50C10.977,49.963,12.015,49.911,13.054,49.848z"/>
<path fill="#979797" d="M10.005,52.954c2.054,0.098,4.108,0.195,6.162,0.296c0,0.003-0.076-0.109-0.076-0.109c0.772,0.51,1.544,1.019,2.316,1.528c-0.75,0.54-1.499,1.084-2.248,1.624l0.073-0.07c-2.069,2.035-4.159,1.959-6.268,0.064C9.978,55.176,9.992,54.065,10.005,52.954z"/>
<path fill="#797979" d="M9.964,56.287c2.087-0.021,4.176-0.043,6.267-0.064c0.001,1.047,0.001,2.094,0.003,3.141c-1.05,0.006-2.102,0.009-3.153,0.015c-1.028-0.003-2.057-0.006-3.082-0.012C9.976,58.338,9.964,57.313,9.964,56.287z"/>
<path fill="#424242" d="M84.952,49.994c2.087-0.003,4.175-0.003,6.262-0.003c-0.003,1.053-0.006,2.111-0.009,3.167c-2.083,0.013-4.166,0.021-6.248,0.034c-0.716-0.711-0.955-1.423-0.719-2.134C84.474,50.347,84.713,49.994,84.952,49.994z"/>
<path fill="#A2A2A2" d="M59.958,31.241c-2.084,0.003-4.167,0.006-6.251,0.009c-0.004-1.044-0.008-2.087-0.011-3.128c1.026-1.041,2.055-2.078,3.082-3.119c2.1,1.041,4.199,2.082,6.3,3.122l0.367,1.401c-0.2,1.141-0.881,1.718-2.039,1.73L59.958,31.241z"/>
<path fill="#A2A2A2" d="M66.214,28.116c1.04,0.003,2.08,0.006,3.121,0.003c-0.021,1.172-0.04,2.344-0.062,3.512c-1.322,1.303-3.003,1.163-4.652,1.147c-1.162-0.128-2.054-0.699-2.718-1.651c-0.003-1.157,0.39-2.158,1.177-3.006l-0.002,0.003C64.124,28.122,65.169,28.119,66.214,28.116z"/>
<path fill="#818181" d="M25.581,37.497c-2.081,0.003-4.163,0.006-6.242,0.009c-0.734-0.607-0.998-1.232-0.792-1.88c0.21-0.659,0.43-0.988,0.664-0.988c0,0,0.195-0.327,0.197-0.327c2.061,0.027,4.12,0.058,6.18,0.091l-0.011-0.027c0.738,0.519,1.477,1.038,2.214,1.557C27.056,36.453,26.319,36.975,25.581,37.497z"/>
<path fill="#A3A3A3" d="M50.835,40.402c-1.175,0.018-2.35,0.037-3.525,0.058c-1.578-1.001-3.369-1.166-5.167-1.321c-1.883-0.235-3.506-0.836-4.118-2.884c0.007-0.607,0.017-1.218,0.026-1.828c0.012-1.065,0.023-2.13,0.035-3.195c5.206,0.006,10.411,0.013,15.617,0.019c0.002,2.097,0.002,4.193,0.004,6.293C52.845,38.589,51.888,39.545,50.835,40.402z"/>
<path fill="#8C8C8C" d="M28.702,34.375c1.071-0.006,2.141-0.015,3.213-0.024c2.048,0.024,4.092,0.049,6.136,0.076l0.007-0.052c1.16,1.428,1.482,3.024,0.968,4.791c-1.786,2.313-4.16,2.75-6.857,2.158c-1.488-0.916-2.645-2.146-3.47-3.689l0.004-0.137c-1.035-0.693-1.379-1.386-1.036-2.082C28.011,34.723,28.354,34.375,28.702,34.375z"/>
<path fill="#979797" d="M28.702,34.375c0.001,1.041,0.001,2.084,0.001,3.125c-1.042-0.003-2.083,0-3.124,0c-0.001-1.044-0.001-2.084-0.003-3.125C26.619,34.375,27.662,34.375,28.702,34.375z"/>
<path fill="#585858" d="M53.783,65.72c-0.008-4.227-0.016-8.453-0.023-12.684c0.748-0.757,1.256-1.653,1.526-2.683c0.511-0.115,1.022-0.231,1.535-0.345c2.07,4.142,4.141,8.283,6.212,12.424c-0.034,2.561-1.792,3.721-3.802,4.676C56.947,68.481,55.202,67.746,53.783,65.72z"/>
<path fill="#585858" d="M84.952,49.994c0.001,1.064,0.003,2.127,0.005,3.195c0,0.003,0.045-0.064,0.045-0.064c-1.466,1.514-2.949,2.981-5.337,1.855c-0.323-0.619-0.644-1.239-0.966-1.861c0.003-2.082,0.008-4.163,0.011-6.244c2.081,0,4.161,0.003,6.24,0.003C84.952,47.916,84.952,48.953,84.952,49.994z"/>
<path fill="#585858" d="M72.458,56.259c2.081-1.046,4.161-2.093,6.241-3.14l-0.005-0.003c0.49,0.476,0.981,0.948,1.471,1.425c0.366,1.459-0.134,2.566-1.376,3.369c-1.204,0.675-2.496,1.071-3.865,1.224c-0.61-0.308-1.219-0.616-1.829-0.928C72.883,57.56,72.67,56.909,72.458,56.259z"/>
<path fill="#414141" d="M59.988,65.644c1.016-1.068,2.031-2.14,3.046-3.211c1.058,0.021,2.115,0.046,3.173,0.07c0.497,0.528,0.996,1.053,1.493,1.581c-0.511,0.513-1.022,1.025-1.535,1.538l0.029-0.04c-1.093,2.313-3.144,1.438-4.918,1.48C60.848,66.59,60.418,66.116,59.988,65.644z"/>
<path fill="#595959" d="M66.208,59.421c2.083-1.056,4.167-2.108,6.25-3.162l-0.009-0.015c0.511,0.559,1.022,1.117,1.533,1.672c0.087,1.603-0.523,2.866-1.831,3.794C69.615,62.387,67.836,61.1,66.208,59.421z"/>
<path fill="#414141" d="M66.208,59.421c2.097-0.016,4.194-0.034,6.291-0.049c0.547,0.437,1.095,0.873,1.641,1.306c-0.266,1.426-0.999,2.527-2.269,3.25c-2.031,0.08-4.169,0.568-5.677-1.437l0.013,0.012C66.208,61.475,66.21,60.449,66.208,59.421z"/>
<path fill="#595959" d="M69.321,43.75c1.045,0,2.089,0,3.134,0l0.005,0.006c0.887,0.693,1.181,1.383,0.883,2.075c-0.296,0.69-0.592,1.035-0.89,1.035c-1.042,0-2.085,0.003-3.129,0.003l0.009,0.009C69.33,45.835,69.325,44.794,69.321,43.75z"/>
<path fill="#585858" d="M53.748,50.033c1.023-1.053,2.048-2.108,3.071-3.164c0,1.047,0,2.094,0.002,3.14l0.021-0.015C55.828,51.264,54.796,51.215,53.748,50.033z"/>
<path fill="#585858" d="M69.324,46.869l0.009,0.009L69.324,46.869z"/>
<path fill="#585858" d="M72.453,46.866c0.002-1.038,0.004-2.075,0.005-3.11c1.039-0.003,2.078-0.006,3.117-0.006C74.535,44.788,73.494,45.825,72.453,46.866z"/>
<path fill="#7C7C7C" d="M47.618,49.829c0.003,2.265,0.005,4.528,0.008,6.793c-0.54,0.662-1.082,1.321-1.621,1.983c-5.727,0.732-9.837-1.403-12.097-6.814c-0.238-1.653-0.085-3.28,0.457-4.864c0.81-1.474,2.002-2.527,3.563-3.155c1.66-0.269,3.19,0.073,4.581,1.022c1.466,0.656,2.969,1.227,4.506,1.709l0.571,0.61c0.841,0.592,1.126,1.193,0.855,1.801C48.171,49.521,47.896,49.829,47.618,49.829z"/>
<path fill="#7C7C7C" d="M47.568,62.274c-0.038,1.116-0.078,2.23-0.116,3.348c-0.263,0.757-0.523,1.511-0.786,2.268c-1.361,1.053-2.858,1.315-4.497,0.793c-1.405-0.817-2.629-1.846-3.673-3.095c-0.844-1.419-1.254-2.957-1.234-4.607c0.467-1.633,1.45-2.848,2.951-3.641c2.482-0.639,4.777,0.24,7.103,0.875C48.79,59.481,48.874,60.834,47.568,62.274z"/>
<path fill="#595959" d="M47.452,65.622c1.041,1.062,2.081,2.121,3.122,3.183c0.664,0.461,1.327,0.925,1.991,1.389c-0.647,0.485-1.294,0.974-1.939,1.459L50.562,71.9c-1.242,1.02-2.673,1.438-4.268,1.34c-1.247-1.047-1.839-2.381-1.776-4.007c0.849-1.307,1.833-2.5,2.951-3.58L47.452,65.622z"/>
<path fill="#444444" d="M53.783,65.72c2.067-0.024,4.135-0.052,6.204-0.076c0.001,0-0.043-0.03-0.043-0.03c0.729,0.527,1.457,1.056,2.187,1.583c-0.736,0.517-1.476,1.032-2.212,1.548l0.114-0.059c-1.427,1.429-3.189,1.7-5.095,1.475c-0.387-0.479-0.774-0.962-1.161-1.44C53.772,67.719,53.775,66.721,53.783,65.72z"/>
<path fill="#595959" d="M47.568,62.274c-0.185-0.965-0.352-1.929-0.503-2.899c-0.563-0.589-1.126-1.175-1.688-1.764c0.639-0.504,1.277-1.008,1.917-1.511c0,0,0.331,0.513,0.333,0.516C47.608,58.505,47.588,60.392,47.568,62.274z"/>
<path fill="#5F5F5F" d="M47.618,49.829c-0.027-0.906-0.04-1.815-0.035-2.719c1-0.195,2.001-0.375,3.005-0.54C49.599,47.653,48.608,48.739,47.618,49.829z"/>
<path fill="#555555" d="M50.626,71.652c-0.019-0.949-0.035-1.901-0.051-2.851c1.065-0.024,2.132-0.055,3.2-0.082c0.002,0-0.057-0.098-0.057-0.098c0.722,0.559,1.443,1.116,2.165,1.679c-0.735,0.54-1.469,1.083-2.203,1.623l0.044-0.058C52.69,71.82,51.657,71.75,50.626,71.652z"/>
<path fill="#4F4F4F" d="M53.748,50.033c1.031-0.018,2.063-0.03,3.095-0.039c-1.029,1.016-2.056,2.029-3.083,3.045C53.749,52.035,53.745,51.034,53.748,50.033z"/>
<path fill="#AFAFAF" d="M63.06,31.231c2.072,0.131,4.145,0.263,6.215,0.397c-0.107,0.729-0.226,1.453-0.358,2.17c-1.831,0.167-3.661,0.335-5.489,0.506c-1.051-0.567-1.455-1.211-1.216-1.932C62.465,31.613,62.747,31.231,63.06,31.231z"/>
<path fill="#A2A2A2" d="M63.06,31.231c0.101,1.029,0.22,2.051,0.363,3.073c-1.152-1.022-2.309-2.042-3.466-3.064l-0.022,0.019c1.053-1.227,2.104-1.291,3.155,0.003L63.06,31.231z"/>
<path fill="#AFAFAF" d="M50.835,40.402c0.957-0.955,1.915-1.907,2.872-2.859c-0.016,0.873-0.031,1.749-0.045,2.618C52.724,40.286,51.781,40.369,50.835,40.402z"/>
<path fill="#919191" d="M44.365,40.497c-0.019,1.086-0.037,2.176-0.055,3.262c-0.397,0.552-0.794,1.102-1.193,1.654c-1.332,0.336-2.68,0.437-4.048,0.269c-1.425,0.141-2.666-0.271-3.728-1.233c-0.53-1.339-0.499-2.649,0.185-3.931c1.103-0.86,2.295-1.565,3.566-2.142c1.395-0.427,2.71-0.235,3.963,0.488C43.491,39.407,43.929,39.951,44.365,40.497z"/>
<path fill="#919191" d="M47.014,46.503c-0.868,0.128-1.738,0.244-2.611,0.342c-0.525-0.504-1.048-1.007-1.572-1.511c0.499-0.528,0.998-1.056,1.497-1.584l-0.018,0.009C45.212,44.675,46.114,45.587,47.014,46.503z"/>
<path fill="#A7A7A7" d="M44.176,37.415c1.047,1.016,2.092,2.033,3.138,3.045c-0.984,0.037-1.967,0.049-2.948,0.037l-0.001,0.122c-0.511-0.507-1.022-1.014-1.535-1.517C43.279,38.538,43.727,37.976,44.176,37.415z"/>
<path fill="#515151" d="M75.571,62.516c1.043,2.078,2.087,4.156,3.132,6.234c-2.084,1.041-4.167,2.084-6.25,3.128c-0.003-2.094-0.006-4.184-0.01-6.277c-0.723-0.524-1.444-1.05-2.166-1.575c0.726-0.521,1.45-1.043,2.175-1.563L72.414,62.5C73.473,61.121,74.525,61.124,75.571,62.516z"/>
<path fill="#595959" d="M66.196,68.747c0.001,0,0.004-0.003,0.006-0.006L66.196,68.747z"/>
<path fill="#656565" d="M72.452,62.463c-0.003,1.047-0.005,2.094-0.008,3.141c-2.092,0.003-4.184,0.013-6.275,0.019c0.007-1.044,0.017-2.088,0.027-3.131C68.28,62.481,70.366,62.473,72.452,62.463z"/>
<path fill="#626262" d="M59.919,68.744c0.009-1.044,0.018-2.088,0.027-3.131c2.083-0.01,4.165-0.019,6.25-0.028c0,1.054,0,2.109,0,3.165c0-0.003,0.006-0.006,0.006-0.006C64.107,68.744,62.014,68.744,59.919,68.744z"/>
<path fill="#676767" d="M53.681,71.924c0.013-1.099,0.026-2.2,0.038-3.302c2.104,0.021,4.209,0.042,6.313,0.063C57.915,69.767,55.797,70.847,53.681,71.924z"/>
<path fill="#595959" d="M63.063,87.47l-0.014,0.015C63.048,87.484,63.063,87.47,63.063,87.47z"/>
<path fill="#666666" d="M75.571,62.516c-1.052-0.007-2.103-0.013-3.156-0.016c0.026-1.044,0.054-2.084,0.083-3.128c0.001,0-0.049,0.073-0.049,0.073c0.807-1.017,1.858-1.551,3.155-1.603c0.619,0.034,1.24,0.064,1.861,0.098c0.407,0.47,0.815,0.94,1.223,1.41c0.001,1.047,0.001,2.097,0.003,3.146C77.65,62.5,76.61,62.506,75.571,62.516z"/>
<path fill="#676767" d="M84.947,56.234c-2.086,1.038-4.173,2.075-6.259,3.116l0.015,0.024c-0.73-0.521-1.463-1.044-2.193-1.565c0.733-0.522,1.466-1.041,2.2-1.56l-0.005,0.055c2.075-2.054,4.163-2.023,6.264-0.039L84.947,56.234z"/>
<path fill="#414141" d="M84.969,56.266c-2.089,0.012-4.176,0.021-6.264,0.036c-0.003-1.059-0.006-2.124-0.011-3.186c2.102,0.003,4.202,0.006,6.307,0.009C84.992,54.172,84.979,55.219,84.969,56.266z"/>
<path fill="#747474" d="M28.743,71.829c-0.012-2.075-0.024-4.147-0.037-6.223c0.537-0.481,1.073-0.964,1.608-1.449c0.48,0.54,0.961,1.077,1.442,1.617C30.751,67.792,29.747,69.813,28.743,71.829z"/>
<path fill="#979797" d="M38.086,68.842c-1.033-1.084-2.065-2.167-3.098-3.254c0.333-0.604,0.664-1.208,0.997-1.81c2.362-0.985,3.834,0.366,5.209,1.978l-0.078-0.125c0.826,0.641,1.196,1.364,1.114,2.176c-0.085,0.854-0.239,1.282-0.462,1.282C40.485,69.83,39.261,69.708,38.086,68.842z"/>
<path fill="#979797" d="M34.989,65.588c-1.076,0.062-2.153,0.119-3.23,0.184c-0.001,0.003,0.087-0.18,0.087-0.18c-0.497-0.55-0.995-1.099-1.494-1.648c0.186-1.538,0.906-2.756,2.165-3.659c0.746,0.01,1.491,0.019,2.237,0.027c0.554,0.501,1.106,1.005,1.66,1.505c0.241,1.568-0.258,2.851-1.497,3.846L34.989,65.588z"/>
<path fill="#797979" d="M38.086,68.842c1.068-0.037,2.136-0.076,3.204-0.116c0,0,1.248,0.86,1.251,0.857c0.001,0-0.042,1.517-0.04,1.517c0.002,0.003-1.3,0.784-1.3,0.784c-1.041-0.003-2.082-0.009-3.121-0.018C38.081,70.858,38.083,69.849,38.086,68.842z"/>
<path fill="#797979" d="M22.44,62.445c1.043,0.073,2.086,0.144,3.128,0.22c0.004,0.988,0.008,1.975,0.011,2.963C24.532,64.566,23.487,63.507,22.44,62.445z"/>
<path fill="#939393" d="M31.969,62.921c-0.064,0.892-0.106,1.782-0.125,2.674c-1.043,0.003-2.09,0.009-3.137,0.015c-0.004-1.04-0.001-2.081,0.011-3.121c0-0.004-0.038,0.036-0.038,0.036C29.932,61.356,31.037,61.426,31.969,62.921z"/>
<path fill="#5F5F5F" d="M22.408,59.427c0.034-1.077,0.067-2.154,0.101-3.231c0.264-0.772,0.528-1.541,0.792-2.313c2.056-1.938,4.283-1.986,6.644-0.607c1.114,1.383,1.375,2.911,0.789,4.584c-0.659,0.491-1.321,0.979-1.982,1.468C26.638,59.359,24.522,59.394,22.408,59.427z"/>
<path fill="#5F5F5F" d="M31.969,62.921c-1.097-0.134-2.192-0.266-3.29-0.399c0.023-1.063,0.047-2.127,0.072-3.192c0-0.003-0.099,0.095-0.099,0.095c1.004-1.278,2.249-1.669,3.775-1.028c0.894,1.446,0.6,2.655-0.728,3.659L31.969,62.921z"/>
<path fill="#5F5F5F" d="M16.159,56.293c-0.021-1.05-0.042-2.1-0.065-3.152c1.059-0.08,2.12-0.159,3.182-0.238c1.196-1.23,2.546-1.367,4.03-0.574c0.717,1.548,0.421,2.866-0.887,3.955c0,0,0.087-0.085,0.088-0.088c-1.069,0.106-2.142,0.217-3.215,0.329C18.247,56.451,17.203,56.372,16.159,56.293z"/>
<path fill="#7D7D7D" d="M47.821,71.842c0.914-0.013,1.828,0.006,2.74,0.058c-1.132,3.149-2.266,6.302-3.402,9.454c-0.946-0.039-1.889-0.073-2.832-0.101c-1.042-1.044-2.083-2.084-3.125-3.128c0.004-1.047,0.009-2.097,0.012-3.144c1.486-1.349,1.568-3.628,3.224-4.861C45.803,70.231,46.942,70.779,47.821,71.842z"/>
<path fill="#787878" d="M44.295,72.046c-1.027,0.979-2.054,1.959-3.081,2.936c-0.004-1.031-0.008-2.065-0.012-3.098l0.003-0.012C42.314,70.52,43.344,70.578,44.295,72.046z"/>
<path fill="#797979" d="M22.431,53.128c-1.051-0.073-2.103-0.149-3.155-0.226c0.018-4.093,0.037-8.185,0.055-12.277c0.623,0.791,1.428,1.282,2.418,1.474c0.003,0,1.447,0.085,1.451,0.085c0.987-0.016,1.964,0.055,2.942,0.21c1.028-0.049,1.994-0.305,2.916-0.769c0.941-0.525,1.941-0.76,3.02-0.711c1.099,0.271,1.917,0.903,2.509,1.858c0.288,1.099,0.525,2.194,0.725,3.311c0.275,1.151,0.583,2.274,0.933,3.403c0.232,1.199,0.41,2.393,0.54,3.607c0.027,1.333-0.534,2.35-1.61,3.109c-1.28,0.152-2.536,0.076-3.781-0.259c-1.206-0.479-2.429-0.876-3.682-1.197C25.824,54.608,23.781,54.999,22.431,53.128z"/>
<path fill="#797979" d="M25.583,40.625c1.039,0,2.079,0,3.118-0.003c0.502,0.521,1.004,1.043,1.507,1.565c-0.503,0.522-1.005,1.044-1.507,1.563l0.021-0.006c-1.045,1.074-2.092,1.028-3.142,0.006l0,0c-0.728-0.522-1.454-1.044-2.181-1.563C24.127,41.666,24.855,41.147,25.583,40.625z"/>
<path fill="#7D7D7D" d="M25.583,40.625c-0.001,1.044-0.003,2.084-0.003,3.125c-1.041,0-2.081,0-3.124,0c-0.894-0.696-1.19-1.395-0.89-2.087c0.301-0.693,0.6-1.041,0.9-1.041C23.506,40.622,24.544,40.625,25.583,40.625z"/>
<path fill="#747474" d="M22.467,40.622c-0.003,1.043-0.006,2.087-0.011,3.128c-1.042-1.041-2.084-2.081-3.126-3.125C20.375,40.625,21.422,40.622,22.467,40.622z"/>
<path fill="#797979" d="M28.699,37.634c1.042-0.046,2.086-0.088,3.128-0.134c0.909,0.714,1.346,1.535,1.306,2.463c-0.04,0.982-0.179,1.474-0.414,1.477c-1.529,0.653-2.878,0.424-4.019-0.818l0,0C28.702,39.627,28.702,38.632,28.699,37.634z"/>
<path fill="#747474" d="M19.211,34.638c0.044,0.955,0.087,1.91,0.128,2.868C19.19,36.554,19.147,35.599,19.211,34.638z"/>
<path fill="#AFAFAF" d="M63.091,31.262c-1.052,0-2.103-0.003-3.155-0.003c1.048-1.044,2.097-2.09,3.145-3.137C63.083,29.169,63.086,30.215,63.091,31.262z"/>
<path fill="#AFAFAF" d="M38.205,37.433c-0.041-1.019-0.09-2.038-0.146-3.058c2.04,1.013,4.081,2.026,6.119,3.04c-0.002,0,0.14,0.104,0.14,0.104c-1.321,1.718-3.178,1.529-5.017,1.407C38.936,38.428,38.57,37.93,38.205,37.433z"/>
<path fill="#979797" d="M31.845,40.622c-0.006-1.041-0.012-2.082-0.018-3.122c2.124-0.021,4.248-0.043,6.375-0.067c0.003,0-0.116,0.006-0.116,0.006c0.725,0.537,1.448,1.074,2.171,1.614c-0.732,0.525-1.465,1.05-2.199,1.578l0.026-0.03C36.013,42.883,33.933,42.865,31.845,40.622z"/>
<path fill="#414141" d="M75.58,59.363c-1.044,0.023-2.087,0.052-3.131,0.079c0-1.065,0-2.13,0-3.198c1.044,0.003,2.086,0.006,3.129,0.009c1.033,0.689,1.377,1.38,1.033,2.072C76.269,59.015,75.928,59.363,75.58,59.363z"/>
<path fill="#3D3D3D" d="M75.58,59.363c-0.002-1.038-0.002-2.076-0.002-3.11c1.043-0.003,2.083-0.006,3.129-0.003c0.001,1.041-0.002,2.084-0.004,3.125C77.663,59.378,76.622,59.372,75.58,59.363z"/>
<path fill="#7D7D7D" d="M34.882,53.168c0.024-1.057,0.049-2.112,0.072-3.168c1.041-1.205,2.083-1.27,3.124-0.003c3.073,2.035,6.146,4.071,9.218,6.104c-0.076,1.089-0.149,2.182-0.228,3.274c-1.958,0-3.912,0.003-5.867,0.003l-1.355,0.299c-0.125,0.922-0.276,1.835-0.455,2.747c-0.451,0.925-1.19,1.428-2.215,1.511c-0.929-0.238-1.721-0.708-2.377-1.407l0.266,0.116c-1.117-0.965-2.334-1.825-3.182-3.07c-1.076-0.049-2.153-0.101-3.23-0.149c0.014-1.044,0.027-2.088,0.04-3.131c-0.728-0.528-1.456-1.057-2.185-1.587c0.731-0.525,1.462-1.05,2.193-1.578c1.041,0,2.081-0.003,3.123-0.003C32.827,54.227,33.846,54.297,34.882,53.168z"/>
<path fill="#747474" d="M38.08,43.726c1.041,0.012,2.08,0.021,3.121,0.03c0.517,0.522,1.035,1.041,1.555,1.563c-0.52,0.519-1.042,1.035-1.564,1.554c-1.038,0-2.075,0-3.111,0c-0.355-0.525-0.709-1.05-1.065-1.575C37.371,44.775,37.725,44.251,38.08,43.726z"/>
<path fill="#797979" d="M38.077,49.997c-1.041,0-2.082,0-3.124,0.003h0.002c-0.381-0.479-0.765-0.961-1.149-1.443c-0.102-1.282,0.276-2.387,1.207-3.29c1.297,0.006,2.319,0.543,3.064,1.608l0.003-0.003C38.079,47.912,38.079,48.956,38.077,49.997z"/>
<path fill="#818181" d="M44.403,46.845c-1.071,0.009-2.141,0.018-3.212,0.027l0.012,0.003c1.042-1.443,2.084-1.443,3.126,0L44.403,46.845z"/>
<path fill="#5F5F5F" d="M34.798,62.527c1.102-0.052,2.204-0.104,3.305-0.152c0.563-0.693,1.125-1.386,1.686-2.078c0.464,0.76,0.929,1.522,1.393,2.282c0.005,1.06,0.009,2.115,0.012,3.177c-2.092-0.03-4.184-0.063-6.276-0.094C34.877,64.618,34.838,63.571,34.798,62.527z"/>
<path fill="#5F5F5F" d="M41.29,68.726c-0.055-1.031-0.111-2.063-0.171-3.095c2.113,0.006,4.231,0.013,6.349,0.019c-0.017,1.062-0.032,2.124-0.049,3.183c-2.138,1.792-4.216,1.999-6.206-0.229L41.29,68.726z"/>
<path fill="#818181" d="M41.182,62.579c-1.027-0.058-2.054-0.125-3.079-0.201c-0.011-1.004-0.02-2.002-0.026-3c1.041-1.068,2.083-1.017,3.125-0.003l-0.001,0.003C41.194,60.446,41.188,61.512,41.182,62.579z"/>
<path fill="#979797" d="M41.214,68.604c2.069,0.076,4.138,0.149,6.206,0.229c0.128,1.004,0.258,2.009,0.394,3.013c-1.167,0.063-2.342,0.128-3.517,0.198c-1.03-0.07-2.06-0.128-3.091-0.168C41.208,70.782,41.211,69.693,41.214,68.604z"/>
<path fill="#808080" d="M38.077,46.875l-1.561-0.003h-1.561c-2.014-0.049-2.032-2.112-3.122-3.095c-1.043-0.009-2.089-0.018-3.132-0.027c0-1.041,0-2.084,0-3.128c1.048,0,2.096,0,3.145,0c2.08-0.006,4.16-0.016,6.238-0.021c0,1.041-0.001,2.084-0.003,3.125C38.079,44.775,38.079,45.825,38.077,46.875z"/>
<path fill="#808080" d="M38.059,40.631c0.009-1.062,0.019-2.124,0.028-3.189c2.078,0.021,4.155,0.049,6.233,0.073c0.008,1.038,0.021,2.072,0.043,3.104C42.263,40.622,40.16,40.625,38.059,40.631z"/>
<path fill="#7D7D7D" d="M44.33,46.875c-1.042,0-2.084,0-3.126,0c0-1.041,0-2.084-0.001-3.122c1.041,0,2.084,0,3.126-0.003C44.329,44.791,44.329,45.831,44.33,46.875z"/>
<path fill="#595959" d="M31.882,59.573c1.061,1.022,2.12,2.048,3.18,3.07c-1.12-0.195-2.242-0.388-3.363-0.586C31.762,61.228,31.822,60.4,31.882,59.573z"/>
<path fill="#818181" d="M28.699,53.128c-0.002,1.053-0.005,2.108-0.006,3.165c-2.09-0.003-4.181-0.006-6.273-0.01c0.003-1.05,0.008-2.103,0.012-3.155C24.519,53.128,26.61,53.128,28.699,53.128z"/>
<path fill="#797979" d="M31.833,43.777c1.041,1.032,2.082,2.063,3.122,3.095v0.003c-1.043,1.218-2.086,1.281-3.128-0.003C31.83,45.84,31.831,44.809,31.833,43.777z"/>
<path fill="#747474" d="M34.882,53.168l-1.53,0.073l-1.529-0.116C32.842,53.137,33.863,53.152,34.882,53.168z"/>
<path fill="#818181" d="M25.58,43.75c1.047-0.003,2.094-0.003,3.142-0.006C27.675,43.747,26.627,43.747,25.58,43.75z"/>
<path fill="#7D7D7D" d="M31.827,46.872c1.043,0,2.086,0,3.128,0.003c0,1.041,0,2.084,0,3.125C33.913,48.959,32.871,47.916,31.827,46.872z"/>
<path fill="#797979" d="M41.202,59.375c-1.042,0-2.083,0-3.125,0.003C39.119,59.375,40.16,59.375,41.202,59.375z"/>
</svg>