<?xml version="1.0" encoding="utf-8"?>
<!DOCTYPE svg PUBLIC "-//W3C//DTD SVG 1.1//EN" "http://www.w3.org/Graphics/SVG/1.1/DTD/svg11.dtd">
<svg version="1.1" xmlns="http://www.w3.org/2000/svg" xmlns:xlink="http://www.w3.org/1999/xlink" x="0px" y="0px" width="100px" height="100px" viewBox="0 0 100 100" enable-background="new 0 0 100 100" xml:space="preserve">
<path fill="#939393" d="M6.751,62.286c-0.004-6.171-0.009-12.338-0.014-18.509c0.917-0.739,1.962-1.169,3.134-1.3c1.79,0.088,3.319,0.894,4.846,1.73c0.544,0.208,1.073,0.446,1.625,0.656c1.169,0.333,2.318,0.68,3.509,0.986c1.25,0.412,2.361,1.025,3.407,1.818c1.032,0.9,1.81,1.975,2.411,3.195c0.418,1.313,0.668,2.649,0.761,4.02c0.125,3.5,0.191,6.991-0.194,10.488c-0.25,1.45-0.799,2.771-1.593,4.001c-1.007,1.087-2.208,1.883-3.58,2.424c-2.17,0.527-4.233,0.207-6.18-0.846c-1.205-0.626-2.351-1.377-3.413-2.23C9.79,66.665,8.279,64.468,6.751,62.286z"/>
<path fill="#686868" d="M93.045,40.704c-0.118,7.272-0.235,14.542-0.353,21.814c-1.597,2.447-2.387,5.459-5.007,7.201c-4.162,1.719-8.247,4.218-12.856,1.249c-1.154-0.974-1.971-2.2-2.508-3.604c-0.628-4.251,1.128-8.282,1.241-12.457c0.139-1.255,0.465-2.479,0.932-3.645c0.554-1.046,1.332-1.949,2.204-2.74c0.796-0.741,1.754-1.3,2.729-1.779c0.444-0.229,0.955-0.394,1.411-0.623c-0.055-0.061,1.448-0.449,1.407-0.507c-0.041-0.055,1.364-0.598,1.329-0.656c-0.034-0.058,1.234-0.842,1.21-0.897c-0.024-0.055,1.118-1.047,1.103-1.099c0.632-0.928,1.426-1.648,2.346-2.268C89.845,39.904,91.451,39.633,93.045,40.704z"/>
<path fill="#611E0C" d="M93.045,40.704c-0.838,0.961-1.676,1.919-2.515,2.881c-2.197,2.207-4.649,2.237-7.269,0.852c-4.374-4.328-3.524-9.619-2.746-14.896c0.901-2.625,2.647-4.438,5.244-5.423c2.553-0.479,5.099-0.83,7.486,0.647C93.179,30.078,93.111,35.391,93.045,40.704z"/>
<path fill="#5F1D0C" d="M87.423,64.67c1.758-0.721,3.518-1.44,5.272-2.158c-2.723,6.092-5.44,12.18-8.159,18.269C78.047,74.072,83.122,69.439,87.423,64.67z"/>
<path fill="#912D11" d="M9.292,22.473c0.969-0.333,1.95-0.619,2.942-0.866c0.684,0.058,1.367,0.116,2.056,0.177c2.116,0.113,4.214-0.104,6.329-0.284c1.488,0.14,2.867,0.567,4.157,1.331c1.807,1.446,3.284,3.125,4.021,5.365c0.27,1.517,0.304,3.037,0.084,4.563c-2.005,4.783-1.364,10.533-5.264,14.632c-1.271,0.72-2.65,1.022-4.109,0.9c-6.641-2.158-5.298-9.042-7.993-13.535c-0.709-1.837-1.672-3.552-2.664-5.249c-0.59-1.151-0.932-2.377-0.984-3.677C7.832,24.496,8.307,23.376,9.292,22.473z"/>
<path fill="#491709" d="M87.423,64.67c-0.963,5.368-1.926,10.739-2.887,16.11c-1.058,0.28-2.115,0.564-3.174,0.845c-2.951-0.646-4.471-2.984-6.115-5.179c-0.867-1.09-1.445-2.313-1.738-3.674c0.04-1.42,0.556-2.634,1.547-3.65C79.178,67.636,83.3,66.152,87.423,64.67z"/>
<path fill="#6D210D" d="M50.061,96.45c-1.094-0.024-2.188-0.052-3.282-0.076c-2.443-3.448-4.381-6.991-2.161-11.328c1.567-2.17,3.732-3.006,6.343-2.838c1.636,0.363,2.97,1.212,3.998,2.536C57.339,90.322,54.997,93.93,50.061,96.45z"/>
<path fill="#7E270F" d="M37.356,90.997c-2.164-1.05-4.327-2.1-6.489-3.149c-0.682-3.708-1.39-7.416,1.719-10.511c1.274-0.875,2.681-1.373,4.222-1.507c1.54,0.198,2.935,0.751,4.169,1.699c0.963,1.224,1.509,2.622,1.698,4.163C42.064,85.455,41.712,89.37,37.356,90.997z"/>
<path fill="#491709" d="M72.131,87.009c-1.093,0.283-2.185,0.567-3.277,0.852c-3.098-0.77-4.695-3.287-6.504-5.576c-0.914-1.211-1.52-2.561-1.872-4.034c-0.025-1.56,0.322-3.013,1.09-4.37c1.088-1.133,2.368-1.956,3.839-2.493c1.546-0.247,3.079-0.187,4.599,0.174c0.68,0.369,1.358,0.741,2.036,1.11c1.132,1.057,2.09,2.256,2.847,3.61C76.311,80.456,73.988,83.673,72.131,87.009z"/>
<path fill="#601D0C" d="M50.061,96.45c1.02-3.997,2.04-7.995,3.06-11.993c7.259,1.129,5.388,5.356,3.279,9.662C54.286,94.897,52.174,95.673,50.061,96.45z"/>
<path fill="#51190A" d="M56.399,94.119c-1.093-3.22-2.186-6.442-3.279-9.662l0.008-0.006c-1.123-1.456-1.039-2.835,0.259-4.142c1.43-0.817,2.957-1.138,4.597-0.961c1.626,0.442,2.881,1.376,3.77,2.805c1.917,4.349-0.041,7.854-2.435,11.267C58.345,93.649,57.371,93.884,56.399,94.119z"/>
<path fill="#551A0A" d="M65.591,78.237c1.088,3.208,2.175,6.412,3.263,9.623c-2.106,1.04-4.212,2.084-6.317,3.125c-1.072-0.998-1.413-2.223-1.121-3.642C62.571,84.201,62.409,80.453,65.591,78.237z"/>
<path fill="#5E1D0C" d="M74.762,71.826c1.118,0.046,2.235,0.088,3.353,0.134c2.334,3.992,2.364,7.969-0.08,11.93c-0.97,0.299-1.946,0.576-2.93,0.836c-3.163-2.48-0.285-6.896-3.044-9.503l-0.353-0.152c-0.72-0.687-1.021-1.426-0.901-2.216c0.122-0.814,0.286-1.221,0.492-1.221C72.502,70.85,73.658,70.868,74.762,71.826z"/>
<path fill="#8A2A10" d="M21.801,83.838c-2.036-1.011-4.071-2.021-6.106-3.03c-0.88-1.276-1.294-2.689-1.239-4.242c0.65-3.323,2.246-5.697,5.963-5.963c1.678,0.207,2.977,1.01,3.917,2.414C26.495,77.331,25.178,80.825,21.801,83.838z"/>
<path fill="#7D270F" d="M15.657,78.14c0.007,0.889,0.021,1.779,0.038,2.668c-2.148-1.047-4.297-2.091-6.445-3.138c-0.902-1.199-1.068-2.493-0.496-3.882c0.829-2.713,1.311-5.688,4.877-6.274c1.514,0.214,2.614,1.02,3.357,2.341C17.155,72.717,17.874,75.665,15.657,78.14z"/>
<path fill="#A13213" d="M9.353,25.07c0.021,1.05,0.043,2.097,0.066,3.146c3.188,3.452,4.544,7.19,1.791,11.56c-1.229,1.492-2.727,1.84-4.489,1.044c0.017-5.252,0.033-10.507,0.05-15.76C7.637,23.843,8.497,23.785,9.353,25.07z"/>
<path fill="#7D270F" d="M46.811,84.521c-0.011,3.952-0.021,7.903-0.032,11.855c-2.098-1.04-4.196-2.078-6.294-3.115c-0.702-0.613-1.05-1.31-1.047-2.085c0.004-0.82,0.095-1.229,0.271-1.232c0.856-2.332,1.149-4.983,3.635-6.391C44.656,83.312,45.813,83.636,46.811,84.521z"/>
<path fill="#6C210D" d="M28.259,87.124c-1.104-0.82-2.209-1.639-3.313-2.459c-2.538-2.808-1.364-6.01-0.977-9.128c1.21-1.264,2.656-1.651,4.335-1.157c2.902,2.322,2.892,5.454,2.421,8.713C30.185,84.606,29.362,85.952,28.259,87.124z"/>
<path fill="#6C210D" d="M72.061,75.223c1.015,3.165,2.029,6.332,3.044,9.5c-0.991,0.763-1.983,1.526-2.974,2.286C72.106,83.078,72.084,79.15,72.061,75.223z"/>
<path fill="#8A2A10" d="M28.259,87.124c-0.041-0.928-0.06-1.855-0.053-2.783c2.161-1.791,0.888-4.919,2.668-6.86c1.291-0.359,2.452-0.088,3.499,0.727c-1.169,3.214-2.338,6.427-3.506,9.641C29.979,87.674,29.109,87.433,28.259,87.124z"/>
<path fill="#9D3012" d="M40.686,90.737c-0.073,0.843-0.141,1.682-0.201,2.524c-1.044-0.754-2.086-1.511-3.128-2.265c1.111-3.266,2.223-6.531,3.335-9.793c0.481,0.513,0.96,1.025,1.44,1.538C42.082,85.485,42.851,88.379,40.686,90.737z"/>
<path fill="#CE4018" d="M78.247,16.455c3.118,1.709,6.239,3.415,9.357,5.121c-0.35,0.559-0.7,1.117-1.051,1.675c-1.627,1.261-3.479,1.828-5.523,1.831c-1.322-0.271-2.505-0.836-3.551-1.685c-0.794-1.102-1.218-2.328-1.277-3.684C76.485,18.377,77.147,17.282,78.247,16.455z"/>
<path fill="#491709" d="M62.522,87.533c0.005,1.15,0.009,2.301,0.014,3.452c-1.072,0.814-2.146,1.626-3.218,2.438c0.02-4.034,0.039-8.065,0.06-12.097c1.321-0.937,2.632-0.965,3.931,0.049C64.099,83.563,64.376,85.684,62.522,87.533z"/>
<path fill="#CE4018" d="M12.234,21.606c3.172-1.715,6.343-3.434,9.514-5.148c1.082,0.775,1.726,1.819,1.932,3.134c-0.134,1.307-0.613,2.46-1.497,3.439c-1.248,0.32-2.516,0.485-3.807,0.473c-1.843-0.101-3.886,0.366-5.001-1.779L12.234,21.606z"/>
<path fill="#992F12" d="M9.449,75.134c-0.06,0.849-0.126,1.694-0.2,2.536c-0.89-3.955-1.779-7.91-2.67-11.865c1.405-1.324,2.696-1.221,3.874,0.309C11.032,69.223,11.679,72.339,9.449,75.134z"/>
<path fill="#7D270F" d="M25.042,75.039c-0.032,3.208-0.064,6.415-0.096,9.626c-1.048-0.275-2.097-0.55-3.144-0.827c0.024-3.965,0.049-7.926,0.075-11.887c0.562-0.379,1.125-0.76,1.688-1.139c0.631,0.251,1.263,0.498,1.895,0.748C26.273,72.836,26.135,73.996,25.042,75.039z"/>
<path fill="#541A0A" d="M78.034,83.89c0.026-3.977,0.054-7.953,0.08-11.93c1.083,3.22,2.165,6.442,3.248,9.665C80.253,82.382,79.144,83.136,78.034,83.89z"/>
<path fill="#8D8D8D" d="M34.385,9.979c1.036-0.342,2.072-0.684,3.106-1.025c1.186-0.696,2.466-1.025,3.844-0.989c1.436,0.098,2.525,0.757,3.273,1.99c0.075,1.413-0.265,2.707-1.088,3.867c-1.624,1.52-3.551,2.121-5.748,1.926c-1.382-0.357-2.584-1.041-3.634-2.002C33.363,12.433,33.447,11.178,34.385,9.979z"/>
<path fill="#8D8D8D" d="M62.507,8.954c1.039,0.342,2.078,0.684,3.119,1.028c0.353,0.604,0.705,1.206,1.056,1.81c-0.267,0.646-0.535,1.294-0.801,1.944c-1.038,0.977-2.254,1.629-3.621,2.011c-2.192,0.213-4.123-0.385-5.752-1.883c-0.815-1.153-1.192-2.438-1.13-3.848c0.722-1.251,1.806-1.935,3.246-2.045C60.014,7.913,61.305,8.258,62.507,8.954z"/>
<path fill="#C23C17" d="M68.99,12.518c2.064,0.894,4.131,1.792,6.197,2.688c-0.753,1.386-1.858,2.377-3.316,2.979c-2.38,0.522-4.544,0.085-6.459-1.453c-0.929-1.361-0.963-2.768-0.218-4.214l0.776-0.931C67.142,11.361,68.148,11.67,68.99,12.518z"/>
<path fill="#DA441A" d="M24.984,15.21c2.092-0.873,4.184-1.746,6.274-2.619c0.407,0.442,0.814,0.888,1.222,1.333c-0.05,1.251-0.522,2.304-1.479,3.131c-1.125,0.513-2.3,0.699-3.526,0.555C26.283,17.187,25.453,16.385,24.984,15.21z"/>
<path fill="#8D8D8D" d="M46.875,3.732c2.083,0,4.167,0,6.25,0c0.348,0.614,0.695,1.224,1.042,1.84c-0.634,1.331-1.668,2.197-3.057,2.661c-1.44,0.113-2.8-0.168-4.082-0.836c-0.388-0.595-0.772-1.19-1.158-1.789C46.205,4.983,46.541,4.357,46.875,3.732z"/>
<path fill="#8D8D8D" d="M71.684,16.29c1.169-0.36,2.338-0.72,3.505-1.083c1.017,0.415,2.034,0.83,3.055,1.249c-0.099,0.659-0.174,1.318-0.221,1.983c-1.377,2.176-3.314,2.273-5.493,1.486c-0.844-0.656-1.25-1.413-1.22-2.271C71.342,16.745,71.467,16.29,71.684,16.29z"/>
<path fill="#902D11" d="M43.586,9.771c-1.002-0.226-1.992-0.498-2.966-0.824c-0.072-0.717-0.144-1.431-0.215-2.148c1.065-0.162,2.13-0.323,3.194-0.485c0.854-1.041,1.829-1.172,2.928-0.394l0.949,0.641c0.621,1.257,0.467,2.438-0.36,3.549C45.867,10.748,44.691,10.635,43.586,9.771z"/>
<path fill="#8D8D8D" d="M24.984,15.21c1.038,0.326,2.075,0.656,3.111,0.982c0.795,1.364,0.664,2.591-0.534,3.665c-2.202,0.846-4.167,0.772-5.589-1.428c-0.044-0.659-0.118-1.318-0.221-1.971C22.827,16.043,23.905,15.625,24.984,15.21z"/>
<path fill="#A73414" d="M93.246,24.765c-1.864,0.125-3.729,0.25-5.594,0.375c-0.461-0.464-0.922-0.931-1.383-1.395c0.173-0.632,0.345-1.264,0.518-1.895c0,0,0.82-0.266,0.819-0.272C89.484,22.638,91.364,23.703,93.246,24.765z"/>
<path fill="#902D11" d="M59.378,8.947c-0.979,0.327-1.971,0.604-2.975,0.839c-1.105,0.867-2.285,0.94-3.527,0.321c-0.844-1.111-0.962-2.292-0.353-3.546l0.949-0.641c1.097-0.778,2.073-0.646,2.928,0.394c1.063,0.162,2.129,0.323,3.192,0.485C59.521,7.516,59.449,8.23,59.378,8.947z"/>
<path fill="#77240E" d="M9.391,65.677c-0.941-0.024-1.88,0.019-2.812,0.128c0.057-1.175,0.113-2.35,0.171-3.521c1.982,1.104,3.961,2.203,5.942,3.302c-0.537,0.488-1.076,0.974-1.613,1.462C10.516,66.589,9.954,66.132,9.391,65.677z"/>
<path fill="#DA441A" d="M46.526,5.92c-0.973,0.156-1.948,0.284-2.928,0.394c1.092-0.861,2.185-1.721,3.276-2.582C46.873,4.479,46.757,5.209,46.526,5.92z"/>
<path fill="#DA441A" d="M56.4,6.314c-0.979-0.104-1.956-0.232-2.928-0.388c-0.23-0.717-0.347-1.447-0.349-2.194C54.216,4.593,55.308,5.453,56.4,6.314z"/>
<path fill="#DA441A" d="M40.405,6.799c0.105,0.714,0.177,1.432,0.215,2.152c-1.044,0-2.087,0.003-3.13,0.006C38.464,8.236,39.435,7.516,40.405,6.799z"/>
<path fill="#DA441A" d="M59.378,8.947c0.036-0.72,0.108-1.437,0.215-2.148c0.972,0.721,1.944,1.438,2.914,2.158C61.464,8.954,60.42,8.951,59.378,8.947z"/>
<path fill="#DA441A" d="M34.385,9.979c0.014,0.75,0.053,1.499,0.122,2.246c-0.966,1.27-2.055,1.385-3.266,0.345l0.017,0.019C32.301,11.719,33.343,10.849,34.385,9.979z"/>
<path fill="#DA441A" d="M68.99,12.518c-1.008-0.308-2.016-0.617-3.021-0.928c-0.238-0.513-0.353-1.047-0.344-1.608C66.747,10.827,67.869,11.673,68.99,12.518z"/>
<path fill="#A1A1A1" d="M6.721,40.82c0.84-0.028,1.672,0.049,2.495,0.231c0.304,0.452,0.606,0.903,0.909,1.355c-0.25,0.482-0.502,0.964-0.753,1.446c-0.877-0.015-1.756-0.04-2.634-0.076C6.283,42.794,6.277,41.809,6.721,40.82z"/>
<path fill="#A73414" d="M9.353,25.07c-0.862,0-1.723-0.003-2.583-0.009c0.842-0.863,1.681-1.727,2.522-2.591C9.33,23.336,9.35,24.203,9.353,25.07z"/>
<path fill="#2A2A2A" d="M21.91,65.634c-0.012-4.145-0.024-8.291-0.037-12.436c3.297-2.045,5.729-0.482,7.973,1.904c0.748,1.367,1.146,2.835,1.213,4.395c-0.521,3.207-2.154,5.648-5.046,7.199C24.462,67.056,23.084,66.735,21.91,65.634z"/>
<path fill="#A1A1A1" d="M28.277,56.28c-2.135-1.028-4.27-2.057-6.404-3.082c-0.026-1.022-0.041-2.045-0.046-3.067c0.438-0.482,0.876-0.964,1.315-1.446c1.094-0.757,2.304-1.175,3.631-1.264c1.322,0.171,2.524,0.641,3.617,1.397c0.917,0.956,1.576,2.069,1.986,3.327c0.151,1.314-0.079,2.566-0.689,3.744C30.647,56.839,29.51,56.97,28.277,56.28z"/>
<path fill="#9B3012" d="M15.657,78.14c-0.037-3.121-0.073-6.246-0.11-9.368c-2.102-1.179-1.985-2.063,0.348-2.661c1.051,0.888,2.104,1.775,3.156,2.661c1.233,0.564,1.657,1.159,1.278,1.785c-0.384,0.641-0.773,0.961-1.173,0.961C17.988,73.724,16.822,75.934,15.657,78.14z"/>
<path fill="#818181" d="M21.91,65.634c1.092,0.033,2.185,0.07,3.277,0.104c1.04-0.852,2.219-1.15,3.54-0.894c1.897,0.769,3.182,2.118,3.852,4.05c0.16,1.318-0.088,2.554-0.742,3.707c-1.061,0.821-2.258,1.145-3.587,0.968c-1.352-0.095-2.412-0.684-3.134-1.85l0.161,0.086c-1.337-0.943-3.442-1.117-3.424-3.418C21.853,67.468,21.873,66.553,21.91,65.634z"/>
<path fill="#A1A1A1" d="M12.893,49.957c-1.175-2.032-2.348-4.068-3.521-6.104l0.205-0.235c1.01-0.928,2.187-1.496,3.558-1.636c1.369,0.198,2.507,0.824,3.412,1.871c0.13,0.662,0.258,1.321,0.388,1.98c-0.236,0.632-0.473,1.261-0.709,1.893C15.231,48.644,14.126,49.395,12.893,49.957z"/>
<path fill="#A1A1A1" d="M18.748,46.438c0.951,0.348,1.921,0.632,2.91,0.848c0.827,0.464,1.161,1.004,1.006,1.621c-0.167,0.653-0.368,0.979-0.606,0.979l-0.23,0.241c-1.161,0.046-2.324,0.089-3.485,0.131c-1.111,0.837-2.086,0.702-2.927-0.408l0.445,0.408c-1.031-0.705-1.397-1.443-1.103-2.212c0.302-0.788,0.615-1.178,0.943-1.178l-0.163,0.183c0.411-0.754,0.821-1.504,1.231-2.258C17.428,45.34,18.089,45.889,18.748,46.438z"/>
<path fill="#67200C" d="M21.852,68.387c1.142,1.142,2.281,2.279,3.424,3.418c-1.134,0.049-2.266,0.098-3.398,0.146c-0.914-0.119-1.825-0.263-2.727-0.431c-0.049-0.918-0.085-1.837-0.104-2.749C20.018,68.887,20.951,68.759,21.852,68.387z"/>
<path fill="#67200C" d="M15.895,66.11c-0.102,0.891-0.217,1.775-0.346,2.661c-0.975-0.007-1.949-0.024-2.92-0.059c-1.104-0.546-1.503-1.145-1.204-1.804c0.31-0.684,0.635-1.028,0.977-1.028c0,0,0.288-0.296,0.29-0.296C13.758,65.762,14.827,65.936,15.895,66.11z"/>
<path d="M15.416,49.851c0.974,0.149,1.95,0.283,2.927,0.408c-0.488,0.739-0.977,1.48-1.486,2.229C16.361,51.611,15.889,50.732,15.416,49.851z"/>
<path d="M15.701,46.869c0.054,1.129,0.107,2.261,0.16,3.39c-0.981-0.183-1.971-0.283-2.969-0.302C13.829,48.929,14.764,47.897,15.701,46.869z"/>
<path d="M78.02,53.53c-0.919,3.943-1.838,7.886-2.756,11.829c-0.664,0.333-1.326,0.662-1.991,0.995c-1.641,1.525-3.07,3.329-5.381,3.955c-1.591-0.01-3.009-0.501-4.271-1.469c-2.317-2.581-2.471-5.688-2.187-8.907c0.252-1.618,0.844-3.098,1.758-4.453c2.871-3.359,6.941-3.613,10.884-4.192C75.712,51.462,77.029,52.209,78.02,53.53z"/>
<path fill="#585858" d="M65.919,68.756c0.836,0.036,1.671,0.049,2.506,0.033c2.052-1.596,3.08-5.282,6.857-3.359c0,0-0.021-0.067-0.021-0.07c-0.068,1.254-0.137,2.505-0.206,3.76c-0.055,0.909-0.152,1.813-0.293,2.71c-0.988,0.146-1.967,0.336-2.938,0.57c-1.045,0.974-2.18,1.825-3.395,2.573c-1.027-0.019-2.042-0.141-3.044-0.366c-1.183-0.467-2.321-1.025-3.418-1.676c-0.247-0.586-0.493-1.172-0.74-1.761c0.021-1.321,0.513-2.436,1.473-3.345C64.009,67.324,65.081,67.636,65.919,68.756z"/>
<path fill="#6F6F6F" d="M84.579,44.165c1.983-0.192,3.969-0.388,5.952-0.58c0.03,2.161,0.062,4.321,0.092,6.482c-0.86,0.937-1.758,0.973-2.691,0.109l-0.691-0.287c-1.195-0.457-2.187-1.193-2.974-2.203C83.779,46.46,83.855,45.285,84.579,44.165z"/>
<path fill="#686868" d="M84.24,52.851c-0.462,0.796-0.923,1.593-1.429,2.462c-0.505-0.869-0.966-1.666-1.428-2.462C82.336,51.794,83.288,51.846,84.24,52.851z"/>
<path fill="#6F6F6F" d="M81.487,50.269c-1.104-0.046-2.211-0.095-3.315-0.141c-0.328-0.504-0.654-1.007-0.981-1.511c0.08-1.285,0.699-2.206,1.861-2.762c0.606,0.015,1.209,0.03,1.814,0.046c0.475,0.375,0.948,0.754,1.421,1.132c0.105,0.599,0.209,1.196,0.313,1.795C82.23,49.307,81.858,49.789,81.487,50.269z"/>
<path d="M84.298,47.037c0.981,0.952,1.963,1.904,2.942,2.853l-1.5,0.104l-1.502-0.058c0,0-1.132-0.803-1.134-0.803c-0.003,0-0.004-1.392-0.006-1.392S84.298,47.037,84.298,47.037z"/>
<path fill="#6F6F6F" d="M78.02,53.53l-1.449-0.174l-1.443,0.205c-0.743-1.004-0.878-2.063-0.304-3.195c0.926-0.882,1.964-1.041,3.111-0.474c0,0,0.233,0.232,0.234,0.232C78.121,51.263,78.069,52.395,78.02,53.53z"/>
<path d="M84.24,52.851l-1.429,0.177l-1.428-0.177c-0.058-0.867-0.022-1.725,0.104-2.582l-0.081,0.043c0.963-2.316,1.999-2.348,3.105-0.095l-0.273-0.281C84.321,50.906,84.322,51.877,84.24,52.851z"/>
<path fill="#686868" d="M87.932,50.177c0.896-0.037,1.794-0.073,2.691-0.109l-1.329,0.695L87.932,50.177z"/>
<path fill="#4A1709" d="M84.579,44.165c-0.101,0.958-0.194,1.916-0.281,2.875c0-0.003,0.254-0.131,0.254-0.131c-0.995,1.3-2.146,1.522-3.477,0.504l0.339-0.919c-3.438-2.811-4.896-6.445-4.522-10.843c0.109-1.648,0.518-3.22,1.221-4.715c1.558-2.042,3.299-3.583,6.095-2.197C84.33,33.88,84.454,39.022,84.579,44.165z"/>
<path fill="#902D11" d="M84.207,28.738c-1.036,0.793-2.072,1.587-3.108,2.377c-1.502,2.042-3.404,2.03-5.493,1.081c-1.063-0.967-1.694-2.161-1.894-3.583c0.354-2.222,1.601-3.772,3.59-4.758c1.364-0.232,2.739-0.342,4.123-0.333c2.039,0.04,4.134-0.235,5.956,1.05l0.27,0.568C86.503,26.339,85.355,27.539,84.207,28.738z"/>
<path fill="#852910" d="M22.058,49.887c-0.118-0.866-0.25-1.733-0.398-2.6c1.23-5.362,2.461-10.721,3.691-16.08c1.698-1.685,3.613-1.694,5.658-0.735c1.071,0.931,1.812,2.078,2.231,3.43c0.25,2.127-0.453,4.068-1.183,6.002c-1.724,3.69-3.603,7.275-7.098,9.675l-1.428,0.354L22.058,49.887z"/>
<path fill="#8D2C11" d="M12.525,43.307l-1.454,0.345l-1.495-0.033c-0.11-0.858-0.23-1.712-0.36-2.567c0.067-4.278,0.134-8.557,0.201-12.835c2.092,0.012,4.183,0.021,6.273,0.031c1.022,1.074,1.267,2.325,0.846,3.723C15.159,35.733,16.357,40.411,12.525,43.307z"/>
<path fill="#A13213" d="M15.562,31.442c0.042-1.065,0.085-2.13,0.128-3.195c1.02,6.063,2.039,12.127,3.058,18.191c-1.07,0.204-2.141,0.409-3.21,0.613c0.038-1.001-0.004-1.999-0.126-2.991C13.4,39.828,13.327,35.623,15.562,31.442z"/>
<path fill="#8D8D8D" d="M31.196,31.091c-1.949,0.04-3.897,0.077-5.846,0.116c-0.29-1.02-0.58-2.039-0.87-3.058c-0.784-1.12-0.873-2.295-0.267-3.519c1.107-0.717,2.316-1.01,3.628-0.888c1.938,0.62,3.296,1.874,4.088,3.745c0.061,0.638,0.119,1.276,0.18,1.914C31.805,29.965,31.501,30.529,31.196,31.091z"/>
<path fill="#565656" d="M27.888,25.977c-0.951-0.363-1.934-0.522-2.948-0.473c-0.943,0.918-1.895,0.888-2.855,0.027c-1.152-0.305-2.306-0.613-3.458-0.918c0.087-0.696,0.175-1.392,0.262-2.084c1.012-0.345,2.022-0.688,3.034-1.028c1.789-1.401,3.778-1.086,5.778-0.684c1.027,0.964,1.532,2.139,1.432,3.558C28.718,24.908,28.303,25.442,27.888,25.977z"/>
<path fill="#8D8D8D" d="M18.89,22.528c-0.12,0.69-0.209,1.385-0.264,2.084c-1.752-0.961-3.505-1.923-5.255-2.884C15.212,21.994,17.051,22.259,18.89,22.528z"/>
<path fill="#DA441A" d="M22.085,25.531c0.948-0.247,1.898-0.259,2.854-0.031c0.001,0.91-0.152,1.792-0.458,2.646C23.683,27.276,22.885,26.403,22.085,25.531z"/>
<path fill="#5E1D0B" d="M46.811,84.521c-0.941-0.122-1.885-0.223-2.831-0.303c-0.476-0.497-0.954-0.991-1.43-1.489c0.216-1.406,0.864-2.569,1.942-3.497c1.933-1.034,3.932-1.175,5.999-0.464c1.256,0.696,2.116,1.73,2.637,3.058c-0.002,0.876,0,1.749,0,2.625C51.022,84.476,48.916,84.497,46.811,84.521z"/>
<path fill="#919191" d="M40.794,78.689c-1.038-0.198-2.077-0.399-3.114-0.602c-1.555-1.199-3.731-1.675-4.463-3.833c0.377-2.236,1.692-3.586,3.882-4.11c1.404,0.024,2.681,0.431,3.839,1.221c1.458,1.693,1.829,3.61,1.181,5.734C41.677,77.63,41.236,78.161,40.794,78.689z"/>
<path fill="#67200C" d="M34.464,74.414c1.073,1.227,2.144,2.453,3.215,3.677c-1.104,0.037-2.205,0.076-3.307,0.116c-0.893-0.128-1.782-0.277-2.667-0.442c-0.967-0.479-1.423-1.107-1.372-1.88c0.057-0.849,0.209-1.272,0.458-1.272C31.973,73.758,33.198,73.693,34.464,74.414z"/>
<path fill="#77240E" d="M40.691,81.204c0.021-0.84,0.057-1.676,0.103-2.515l-0.289-0.895c2.802-0.5,3.943,0.687,3.529,3.464l-0.337,0.25c-0.549,0.61-1.099,1.225-1.648,1.838c-0.476-0.672-0.952-1.343-1.428-2.015L40.691,81.204z"/>
<path fill="#585858" d="M53.128,81.826c-1.119-0.317-2.237-0.638-3.355-0.958c-0.739-1.367-1.134-2.826-1.19-4.382c0.975-5.463,4.009-8.197,9.739-7.353c1.427,0.614,2.723,1.435,3.864,2.497l0.853,1.077c0.859,1.077,0.648,1.962-0.48,2.683c-0.075,0.894-0.184,1.782-0.323,2.667c0,0-0.2,1.33-0.194,1.33s-1.295,0.275-1.295,0.275s-1.328-0.08-1.322-0.076c0.007,0.003-1.311,0.061-1.308,0.061c-0.826,0.333-1.514,0.857-2.057,1.572C55.067,81.353,54.091,81.558,53.128,81.826z"/>
<path fill="#611E0C" d="M62.522,87.533c-0.033-2.081-0.067-4.162-0.103-6.247c-0.654-0.543-1.309-1.086-1.964-1.629c0.65-0.55,1.301-1.1,1.95-1.648c0,0-0.169,0.046-0.171,0.049c1.119,0.058,2.237,0.119,3.357,0.18C64.568,81.338,63.545,84.435,62.522,87.533z"/>
<path fill="#686868" d="M62.558,75.391c0.134-0.9,0.293-1.798,0.478-2.686c0.922,0.464,1.704,1.096,2.352,1.901C64.462,74.93,63.518,75.192,62.558,75.391z"/>
<path fill="#3D1307" d="M68.431,74.973c1.131-0.861,2.263-1.719,3.395-2.576c-0.001,0.895-0.038,1.785-0.114,2.674C70.615,75.036,69.523,75.006,68.431,74.973z"/>
<path fill="#3D1307" d="M62.406,78.009c0.006,1.096,0.013,2.188,0.016,3.28c-1.015,0.021-2.029,0.034-3.044,0.037c-1.106-0.037-2.211-0.07-3.317-0.106c0.116-0.883,0.185-1.765,0.207-2.652c0.714-1.123,1.659-1.44,2.872-0.818C60.228,77.835,61.317,77.923,62.406,78.009z"/>
<path fill="#8E2C11" d="M12.4,65.881c0.06,0.946,0.134,1.893,0.226,2.832c-1.059,2.14-2.118,4.282-3.177,6.421c-0.02-3.152-0.04-6.305-0.058-9.457C10.394,65.741,11.398,65.81,12.4,65.881z"/>
<path fill="#8E2C11" d="M40.622,81.332c1.025,0.049,2.051,0.11,3.076,0.177c0.085,0.903,0.178,1.811,0.281,2.71c-1.097,2.173-2.196,4.346-3.293,6.519C40.664,87.603,40.643,84.466,40.622,81.332z"/>
<path fill="#9B3012" d="M31.53,74.93c0.072,0.946,0.126,1.892,0.171,2.838c-1.163,2.191-2.33,4.383-3.497,6.577c-0.062-3.107-0.122-6.208-0.185-9.312c-0.995-0.659-1.297-1.267-0.909-1.828c0.368-0.53,0.732-0.8,1.1-0.8c0.967-0.237,1.935-0.237,2.902-0.003c1.034,0.406,1.439,0.916,1.221,1.529C32.095,74.597,31.829,74.93,31.53,74.93z"/>
<path fill="#591B0A" d="M28.21,72.405c-0.003,0.883-0.064,1.758-0.188,2.628c-0.003,0-1.493,0.021-1.493,0.021s-1.491-0.013-1.489-0.016c0.024-1.104,0.049-2.209,0.073-3.317C26.147,71.948,27.179,72.177,28.21,72.405z"/>
<path fill="#902D11" d="M72.038,18.405c1.994,0.012,3.988,0.021,5.982,0.034c0.006,1.035,0.048,2.066,0.129,3.098c-1.322,1.975-3.229,3.079-5.471,3.689c-1.498,0.32-2.989,0.278-4.476-0.073c-1.39-0.653-2.542-1.593-3.421-2.856c-0.357-1.541-0.046-2.945,0.846-4.236C67.815,17.218,69.975,16.91,72.038,18.405z"/>
<path fill="#565656" d="M71.792,22.357c2.119-0.271,4.24-0.543,6.358-0.818c0.985,0.327,1.975,0.656,2.963,0.986c0.084,0.696,0.168,1.392,0.252,2.087c-1.148,0.302-2.298,0.607-3.446,0.912c-1.027,0.684-2.156,1.087-3.387,1.209c-1.268,0.061-2.363-0.357-3.313-1.188C70.63,24.341,70.82,23.278,71.792,22.357z"/>
<path fill="#8D8D8D" d="M81.365,24.612c-0.05-0.702-0.133-1.396-0.25-2.087c1.892-0.223,3.786-0.446,5.677-0.671c0.315,0.879,0.511,1.788,0.587,2.722C85.376,24.585,83.37,24.597,81.365,24.612z"/>
<path fill="#902D11" d="M28.206,22.372c-2.095-0.29-4.192-0.58-6.284-0.873c0.034-1.022,0.05-2.045,0.05-3.067c1.993-0.003,3.986-0.006,5.979-0.006c1.796-1.413,3.779-1.336,5.827-0.742c1.816,1.245,2.672,2.976,2.619,5.167c-0.322,1.336-1.045,2.426-2.107,3.292c-1.333,0.424-2.574,0.21-3.731-0.558C29.783,24.512,28.997,23.437,28.206,22.372z"/>
<path fill="#644C45" d="M37.187,13.116c2.117-0.274,4.231-0.546,6.348-0.821c0.511,0.406,1.022,0.815,1.535,1.221c0.559,1.214,0.76,2.484,0.604,3.812c-0.287,0.595-0.575,1.184-0.864,1.779c-0.542,0.378-1.085,0.757-1.628,1.135c-0.657,0.088-1.312,0.177-1.97,0.266c-0.636-0.189-1.271-0.385-1.907-0.577c-1.106-0.775-1.941-1.782-2.544-2.987C36.427,15.616,36.569,14.337,37.187,13.116z"/>
<path fill="#902D11" d="M37.187,13.116c0.115,0.849,0.238,1.697,0.373,2.542c-0.322,0.461-0.644,0.922-0.966,1.386c-1.056,0.473-2.146,0.567-3.269,0.293c-1.216-0.165-1.959-0.846-2.228-2.042c0.024-0.909,0.073-1.818,0.145-2.725c1.09-0.113,2.181-0.226,3.269-0.342C35.423,12.454,36.315,12.753,37.187,13.116z"/>
<path fill="#DA441A" d="M43.586,9.771c0.935-0.146,1.876-0.208,2.823-0.183c1.041,0.708,1.395,1.669,1.063,2.884c-0.984,0.897-1.926,0.812-2.833-0.119c0,0-1.105-0.046-1.105-0.052C43.661,11.456,43.679,10.614,43.586,9.771z"/>
<path fill="#565656" d="M56.649,12.31c2.067,0.201,4.137,0.4,6.206,0.601c0.313,0.574,0.628,1.151,0.941,1.724c-0.238,0.61-0.478,1.221-0.716,1.831c-1.093,0.763-2.3,1.185-3.637,1.218c-1.309-0.269-2.407-0.912-3.323-1.877c-0.185-0.622-0.369-1.248-0.554-1.871C55.928,13.394,56.289,12.853,56.649,12.31z"/>
<path fill="#DA441A" d="M53.59,9.588c0.946-0.018,1.885,0.046,2.816,0.192c-0.082,0.867,0,1.712,0.243,2.536c0-0.006-1.125,0.058-1.125,0.058c-0.932,0.922-1.913,1.025-2.951,0.177C52.226,11.328,52.529,10.33,53.59,9.588z"/>
<path d="M62.637,15.56c-0.067-0.894,0.006-1.776,0.219-2.649c0.764-0.238,1.547-0.369,2.344-0.394c0.499,0.879,0.796,1.825,0.888,2.835C65.008,16.586,63.86,16.714,62.637,15.56z"/>
<path fill="#565656" d="M62.637,15.56c1.147-0.064,2.297-0.131,3.447-0.201c1.872,0.302,3.739,0.613,5.604,0.928c0.155,0.702,0.274,1.41,0.351,2.121c-2.192,0.28-4.384,0.562-6.575,0.845c-1.118,0.506-2.157,0.378-3.117-0.391c-0.722-1.025-0.706-2.042,0.045-3.046L62.637,15.56z"/>
<path fill="#565656" d="M31.097,15.295c0.994,0.269,2.005,0.437,3.034,0.507c0.49,0.442,0.978,0.885,1.468,1.331c-0.349,0.559-0.699,1.12-1.048,1.678c-2.2-0.125-4.4-0.25-6.599-0.381c0.087-0.748,0.134-1.492,0.145-2.24C29.097,15.894,30.096,15.594,31.097,15.295z"/>
<path fill="#565656" d="M53.59,9.588c-0.296,0.943-0.5,1.907-0.613,2.887c-1.985,1.696-3.969,1.696-5.954,0c-0.111-0.98-0.316-1.941-0.612-2.884c0.353-1.016,0.707-2.026,1.062-3.037c1.687,0.003,3.371,0,5.052,0.003C52.879,7.571,53.234,8.578,53.59,9.588z"/>
<path fill="#989898" d="M28.166,65.777l-1.489-0.04h-1.489c1-2.087,1.999-4.178,3-6.265c1.076-1.224,2.254-1.392,3.548-0.342c0.879,2.316,0.117,4.189-1.57,5.813C29.5,65.222,28.833,65.5,28.166,65.777z"/>
<path fill="#A1A1A1" d="M30.73,59.417c-0.848,0.007-1.696,0.025-2.543,0.056c0.029-1.065,0.06-2.13,0.09-3.192c0.906-0.019,1.81-0.089,2.708-0.214c0,0,1.111,1.038,1.112,1.038C32.47,58.364,32.013,59.137,30.73,59.417z"/>
<path fill="#A13213" d="M28.021,37.769c1.106-1.126,2.214-2.25,3.32-3.373c0.63,0.312,1.261,0.623,1.891,0.934c1.604,1.532,2.295,3.467,2.5,5.621c0.118,3.488,0.467,7.001-1.088,10.315c-0.838,1.153-1.929,1.986-3.238,2.542c-1.19-1.196-2.38-2.39-3.572-3.583C25.97,46.045,25.831,41.888,28.021,37.769z"/>
<path fill="#6C210D" d="M28.021,37.769c-0.061,4.153-0.122,8.307-0.186,12.46c-0.987-0.092-1.945-0.308-2.875-0.649C25.979,45.642,27,41.705,28.021,37.769z"/>
<path fill="#A1A1A1" d="M30.985,56.066c0.16-0.747,0.299-1.501,0.42-2.258l-0.324-1.087c1.041-0.836,2.144-0.928,3.307-0.274c0.691,1.087,0.826,2.228,0.307,3.424c-0.923,0.955-2.009,1.147-3.235,0.675L30.985,56.066z"/>
<path fill="#989898" d="M31.53,74.93c-0.116-0.846-0.256-1.69-0.418-2.527c0.021-1.205,0.042-2.407,0.064-3.613c0.05-0.723,0.099-1.443,0.149-2.166c1.299-3.043-0.045-7.858,5.449-8.091c1.449,0.623,2.611,1.581,3.547,2.842c1.891,4.146,1.154,7.659-2.502,10.474c-1.118,0.854-2.237,1.712-3.355,2.566C33.54,74.887,32.562,75.06,31.53,74.93z"/>
<path fill="#989898" d="M31.176,68.789c-1.004-1.004-2.008-2.008-3.011-3.012l0.136-0.211c2.727-0.668,3.924,0.189,3.086,3.086L31.176,68.789z"/>
<path fill="#7D270F" d="M15.562,31.442c-0.05,4.206-0.099,8.414-0.151,12.619c-0.989-0.149-1.95-0.403-2.886-0.754C13.539,39.352,14.55,35.397,15.562,31.442z"/>
<path fill="#6B6B6B" d="M74.838,50.625c0.108,0.979,0.206,1.956,0.29,2.937c-0.563,1.821-1.126,3.644-1.885,6.1c-3.106-1.385-5.394-2.401-7.683-3.421c-0.369-0.534-0.738-1.071-1.108-1.604c-0.131-1.325,0.104-2.573,0.754-3.738c1.29-1.584,3.035-2.381,4.956-2.875c1.318-0.031,2.555,0.274,3.707,0.918C74.192,49.502,74.516,50.063,74.838,50.625z"/>
<path fill="#686868" d="M65.919,68.756l-1.454-0.027l-1.454,0.009c-3.154-2.011-3.187-4.758-1.839-7.827c1.049-1.188,2.359-1.685,3.934-1.486C65.377,62.536,65.649,65.646,65.919,68.756z"/>
<path fill="#686868" d="M75.282,65.43c-2.285,1.12-4.57,2.239-6.856,3.359c0.496-1.853,0.993-3.708,1.778-6.631C72.342,63.537,73.813,64.483,75.282,65.43z"/>
<path fill="#6F6F6F" d="M65.105,59.424c-0.95,0.052-1.897,0.125-2.844,0.223c-0.217-0.485-0.432-0.974-0.647-1.459c0.17-1.093,0.7-1.975,1.545-2.68c1.113-0.448,1.967-0.18,2.519,0.913l-0.117-0.181C65.409,57.303,65.257,58.364,65.105,59.424z"/>
<path d="M62.262,59.646c0.248,3.03,0.499,6.061,0.749,9.091c-0.339,0.946-0.615,1.91-0.825,2.894c-0.829,0.192-1.668,0.274-2.519,0.247c-2.052-1.874-4.596-3.326-5.366-6.296c-0.245-3.235,1.27-5.39,4.117-6.729c1.449-0.381,2.749-0.066,3.92,0.846L62.262,59.646z"/>
<path fill="#611E0C" d="M74.812,31.213c2.097-0.03,4.193-0.061,6.288-0.094c0.029,1.102,0.06,2.207,0.091,3.314c-3.415,3.727,0.419,9.113-2.94,12.851c-0.1,0.87-0.205,1.74-0.314,2.609c-1.033,0.244-2.064,0.488-3.098,0.732l0.35-1.062c-4.328-3.274-5.137-7.758-4.389-12.775c0.307-1.593,0.982-3.012,2.023-4.254C73.484,32.092,74.148,31.652,74.812,31.213z"/>
<path fill="#551A0A" d="M78.25,47.284c0.979-4.285,1.96-8.569,2.94-12.851c0.074,4.02,0.149,8.039,0.224,12.061C80.36,46.756,79.304,47.021,78.25,47.284z"/>
<path fill="#686868" d="M81.075,47.412c1.158-0.168,2.316-0.336,3.477-0.504c-0.014,1.102-0.027,2.206-0.04,3.309l-1.558-0.052c0,0-1.551,0.143-1.549,0.146C81.303,49.344,81.191,48.379,81.075,47.412z"/>
<path fill="#8D8D8D" d="M72.318,25.323c0.919-0.019,1.834,0.04,2.744,0.174c0.822,0.47,1.162,1.02,1.025,1.651c-0.148,0.674-0.338,1.01-0.569,1.01c-0.235,1.02-0.471,2.036-0.707,3.055L74.94,31.1c-1.445,1.978-3.309,2.036-5.375,1.166c-0.467-0.503-0.932-1.007-1.4-1.514c-0.429-1.371-0.244-2.67,0.47-3.903C69.674,25.885,70.902,25.378,72.318,25.323z"/>
<path fill="#DA441A" d="M75.519,28.158c-0.306-0.86-0.456-1.751-0.455-2.664c0.952-0.226,1.903-0.217,2.854,0.027C77.119,26.403,76.317,27.282,75.519,28.158z"/>
<path fill="#DA441A" d="M31.341,34.396c-0.049-1.099-0.098-2.2-0.146-3.302c0.002-0.003-0.151,0.208-0.151,0.208c1.166-0.784,2.292-0.732,3.38,0.162c0.655,1.196,0.693,2.39,0.021,3.592c-1.294,0.696-2.33,0.421-3.11-0.821L31.341,34.396z"/>
<path fill="#902D11" d="M34.629,31.558c-1.195-0.085-2.39-0.171-3.586-0.256c0.042-1.169,0.083-2.338,0.124-3.507c0.475-0.302,0.948-0.601,1.421-0.906c0.552,0.089,1.107,0.177,1.662,0.263c0.36,0.43,0.719,0.86,1.079,1.288c0.052,0.559,0.103,1.114,0.153,1.672C35.197,30.594,34.913,31.076,34.629,31.558z"/>
<path fill="#DA441A" d="M31.167,27.795c-1.092-0.607-2.185-1.214-3.279-1.822c0,0.003,0.964-1.059,0.964-1.059l1.242-0.949l1.085,1.126l-0.129,0.226c0.735,0.451,1.472,0.903,2.208,1.354c-0.67,0.543-1.341,1.09-2.011,1.633L31.167,27.795z"/>
<path d="M31.179,25.091c-0.78-0.024-1.556-0.083-2.329-0.177c-0.361-0.812-0.577-1.66-0.644-2.545C29.196,23.278,30.188,24.185,31.179,25.091z"/>
<path fill="#818181" d="M50.726,78c-0.332,0.952-0.651,1.907-0.953,2.868c-1.914,0.128-3.827,0.26-5.739,0.388c-1.175-1.15-2.353-2.304-3.529-3.461c-0.076-2.069-0.152-4.135-0.23-6.204c0.615-0.424,1.23-0.849,1.843-1.272c4.605-0.964,7.033,1.257,8.072,5.512C50.367,76.553,50.546,77.276,50.726,78z"/>
<path d="M37.82,71.848c-0.027-4.065-0.055-8.13-0.083-12.198c0.548-0.348,1.096-0.699,1.645-1.053c1.332-0.067,2.585,0.223,3.777,0.814c2.306,1.768,3.292,4.025,2.597,6.919c-1.106,2.554-3.532,3.763-5.536,5.401l0.053-0.141C39.471,71.813,38.651,71.899,37.82,71.848z"/>
<path fill="#686868" d="M56.591,65.601c1.025,2.094,2.051,4.184,3.076,6.277c-2.982,2.041-5.966,4.083-8.944,6.125c0.003-0.003-1.264-0.067-1.264-0.067c-1.156-4.199-3.254-8.383-0.193-12.649C51.78,63.699,54.228,63.644,56.591,65.601z"/>
<path fill="#686868" d="M59.14,77.749c-0.94,0.333-1.896,0.607-2.872,0.818C57.225,78.296,58.182,78.02,59.14,77.749z"/>
<path fill="#565656" d="M65.464,21.533c1.125,0.274,2.25,0.549,3.374,0.824c1.769,2.057,1.644,4.08-0.096,6.082l0.242-0.262c-0.825,1.041-1.885,1.706-3.182,1.999c-1.318-0.055-2.522-0.455-3.616-1.19c-0.865-0.992-1.427-2.13-1.642-3.433c0.092-1.318,0.564-2.49,1.361-3.534C63.003,21.203,64.189,21.041,65.464,21.533z"/>
<path d="M68.742,28.439c0.033-2.029,0.066-4.059,0.098-6.085c0.98-0.263,1.964-0.263,2.949,0c0.022,1.019,0.198,2.008,0.529,2.969C71.125,26.364,69.934,27.401,68.742,28.439z"/>
<path fill="#DA441A" d="M65.464,21.533c-1.069,0.128-2.141,0.256-3.21,0.384c0,0-0.746-1.025-0.748-1.025c-0.001,0,0.089-1.27,0.087-1.27l0.987-0.799c0.981,0.006,1.942,0.146,2.884,0.427C65.528,20.013,65.528,20.773,65.464,21.533z"/>
<path d="M33.87,25.076c0.227-2.087,0.455-4.175,0.68-6.266l-0.235,0.189c0.778-1.05,1.819-1.596,3.125-1.636c1.283,0.141,2.338,0.702,3.168,1.69l-0.157-0.296c0.966,0.888,2.096,1.23,3.392,1.022l0.406-0.791c1.706-1.904,3.834-2.582,6.335-2.182c3.979,1.307,7.281,3.244,7.56,8.026c-0.311,2.414-1.548,4.303-3.373,5.838c-3.106,2.273-6.73,2.133-10.305,2.136c-1.95-0.058-3.9-0.22-5.729-0.998c-0.516-0.342-1.043-0.693-1.563-1.035c-0.944-0.796-1.852-1.648-2.713-2.548l0.137-0.546c-1.083-0.32-1.552-0.815-1.408-1.48C33.352,25.451,33.578,25.076,33.87,25.076z"/>
<path fill="#565656" d="M33.87,25.076c0.305,0.854,0.549,1.727,0.731,2.612c-1.12,0.201-2.237,0.409-3.354,0.616c-0.019-0.998-0.083-1.996-0.197-2.987C31.988,25.228,32.928,25.149,33.87,25.076z"/>
<path fill="#C23C17" d="M47.022,12.476c1.985,0.003,3.969,0.003,5.954,0.003c0.847-0.092,1.696-0.125,2.548-0.104c0.208,1.053,0.417,2.109,0.626,3.162c-0.334,0.516-0.667,1.035-0.999,1.554c-1.635,1.102-3.398,1.221-5.246,0.689c-1.657-0.549-3.688-0.284-4.74-2.164c-0.177-1.086-0.353-2.176-0.528-3.262C45.437,12.344,46.23,12.387,47.022,12.476z"/>
<path fill="#8D8D8D" d="M45.166,15.616c1.646,0.229,3.292,0.455,4.939,0.684l0.903,1.227l-1.104,1.05c-1.889,0.137-3.778,0.278-5.661,0.415C44.554,17.865,44.859,16.742,45.166,15.616z"/>
<path fill="#902D11" d="M40.608,19.055c-1.065-0.244-2.129-0.491-3.194-0.735c-0.954-0.503-1.285-1.028-0.998-1.584c0.293-0.564,0.592-0.845,0.899-0.845c0,0,0.243-0.232,0.244-0.232C38.575,16.79,39.591,17.923,40.608,19.055z"/>
<path fill="#DA441A" d="M43.843,19.781c-0.705,0.476-1.409,0.955-2.152,1.459c-0.436-0.87-0.837-1.676-1.24-2.479C41.581,19.101,42.712,19.439,43.843,19.781z"/>
<path fill="#A73414" d="M37.315,15.89c0.078,0.809,0.111,1.618,0.099,2.429c-1.033,0.226-2.064,0.452-3.098,0.681c-0.061-1.068-0.122-2.133-0.185-3.201C35.192,15.829,36.254,15.86,37.315,15.89z"/>
<path fill="#A73414" d="M56.15,15.536c1.056,0.198,2.113,0.394,3.171,0.592c0.438,0.564,0.877,1.129,1.316,1.69c-0.351,0.623-0.701,1.245-1.051,1.868c-1.394,0.54-2.727,0.412-3.996-0.378c-0.681-1.407-0.403-2.637,0.706-3.705L56.15,15.536z"/>
<path fill="#902D11" d="M59.329,18.664c0.011-0.848,0.009-1.696-0.008-2.539c1.01-0.238,2.034-0.342,3.07-0.308c0.061,1.004,0.122,2.005,0.188,3.006c0.001,0,0.136,0.106,0.136,0.106C61.497,19.986,60.368,19.897,59.329,18.664z"/>
<path d="M31.388,68.652c-1.028-1.028-2.058-2.058-3.086-3.086c0.81-2.051,1.619-4.099,2.429-6.149c0.383-0.921,0.627-1.879,0.729-2.871c0.992-0.165,1.988-0.189,2.986-0.076c0.391,0.442,0.781,0.888,1.172,1.333c-0.241,0.54-0.482,1.081-0.723,1.621C33.726,62.5,32.557,65.576,31.388,68.652z"/>
<path fill="#8F2C11" d="M31.335,34.234c1.056-0.046,2.112-0.095,3.169-0.144c0.61-0.348,1.221-0.696,1.831-1.047c0.699,0.089,1.396,0.174,2.095,0.26c1.26,0.668,2.307,1.578,3.105,2.765c0.499,1.349,0.562,2.719,0.19,4.111c-0.722,1.23-1.727,2.17-2.974,2.856c-1.361,0.378-2.738,0.427-4.123,0.149c-1.256-0.625-2.357-1.461-3.327-2.478C31.314,38.55,31.324,36.392,31.335,34.234z"/>
<path fill="#8E2C11" d="M31.303,40.707c1.03,0,2.059,0.003,3.088,0.003c3.404,4.331,4.251,8.621-0.183,12.839c-1.042-0.274-2.084-0.552-3.126-0.827C31.156,48.718,31.23,44.714,31.303,40.707z"/>
<path fill="#7D270F" d="M34.208,53.549c0.06-4.278,0.121-8.56,0.182-12.839c1.058-0.003,2.115-0.003,3.171-0.006c4.667,3.269,4.834,7.828,3.664,12.769c-0.667,1.486-1.677,2.683-3.029,3.589c-1.599,0.946-2.958,0.678-4.08-0.803l0.333,0.211C34.368,55.496,34.289,54.522,34.208,53.549z"/>
<path fill="#A1A1A1" d="M34.115,56.259c1.176,0.18,2.354,0.363,3.532,0.543c0.696,0.642,0.931,1.288,0.707,1.938c-0.226,0.649-0.452,0.977-0.682,0.977l0.065-0.067c-0.944-0.122-1.892-0.198-2.842-0.226C34.634,58.368,34.375,57.314,34.115,56.259z"/>
<path fill="#4A1709" d="M72.158,50.399c-2.125,0.998-4.249,1.993-6.375,2.991c-7.159-6.891-4.717-12.995,1.53-18.784c1.732-0.845,3.478-0.86,5.227-0.045C73.704,39.868,74.345,45.169,72.158,50.399z"/>
<path fill="#641F0C" d="M68.809,35.983c-1.008,5.801-2.019,11.606-3.025,17.408c-0.098,1.007-0.133,2.017-0.105,3.03c-1.099,0.155-2.198,0.308-3.299,0.464c-0.638-0.33-1.277-0.659-1.916-0.986c-2.87-2.838-2.474-6.524-2.617-10.07c-0.006-1.422,0.005-2.844,0.033-4.267c0.049-1.425,0.181-2.841,0.401-4.251c0.406-1.389,1.084-2.627,2.029-3.726c1.158-0.888,2.452-1.462,3.89-1.733c1.47,0.07,2.866,0.409,4.194,1.059c1.151,0.546,1.591,1.181,1.332,1.91C69.451,35.596,69.147,35.983,68.809,35.983z"/>
<path fill="#6F220D" d="M72.158,50.399c-0.192-5.188-0.385-10.373-0.577-15.561c0.879-1.6,1.985-1.776,3.319-0.528c0.095,5.087,0.19,10.172,0.287,15.253C74.177,49.841,73.169,50.122,72.158,50.399z"/>
<path fill="#686868" d="M62.338,59.698c-0.981-0.155-1.966-0.274-2.954-0.354c-0.325-0.439-0.648-0.876-0.974-1.315c-0.024-1.147,0.401-2.094,1.275-2.839c1.101-0.396,2.089-0.207,2.965,0.571l-0.271,1.12C62.419,57.824,62.405,58.762,62.338,59.698z"/>
<path fill="#6F6F6F" d="M56.591,65.601c-2.047,0.058-4.097,0.119-6.145,0.177c-1.05-0.934-1.563-2.103-1.542-3.51c0.429-2.084,1.549-3.677,3.378-4.77c1.291-0.442,2.614-0.534,3.96-0.32c1.227,0.579,2.287,1.379,3.181,2.401c0,0-0.042-0.234-0.041-0.234C58.453,61.429,57.522,63.516,56.591,65.601z"/>
<path fill="#902D11" d="M74.9,34.31c-1.106,0.174-2.211,0.348-3.317,0.525c-0.992,0.22-1.915,0.598-2.772,1.145c-0.103-0.577-0.139-1.163-0.113-1.751c-0.362-0.595-0.725-1.19-1.086-1.786c0.325-0.616,0.649-1.233,0.975-1.849c2.118,0.168,4.236,0.339,6.354,0.506C74.927,32.171,74.912,33.239,74.9,34.31z"/>
<path d="M65.681,28.589c1.101-0.138,2.202-0.275,3.304-0.412c-0.092,0.814-0.225,1.62-0.398,2.42c0-0.003-0.012,0.638-0.012,0.638c-0.748,1.139-1.682,1.321-2.8,0.546C65.019,30.74,65.023,29.672,65.681,28.589z"/>
<path fill="#8D8D8D" d="M37.535,34.603c-1.022-0.085-2.031-0.253-3.029-0.51c-0.052-0.851-0.011-1.696,0.124-2.536l-0.177-0.107c0.891-1.313,2.01-1.624,3.388-0.766C38.438,32.043,38.336,33.35,37.535,34.603z"/>
<path fill="#A73414" d="M37.092,31.314c-0.88,0.045-1.761,0.088-2.64,0.134c0.002-1.071,0.002-2.146,0.006-3.22c1.036-0.027,2.069-0.073,3.101-0.144C38.43,29.312,38.328,30.395,37.092,31.314z"/>
<path fill="#989898" d="M49.78,63.049c0.177,0.922,0.397,1.828,0.665,2.729c-0.327,4.053-0.655,8.104-0.984,12.158c-3.081-2.069-6.162-4.135-9.241-6.204c1.054-2.039,2.109-4.077,3.165-6.116c0.752-0.931,1.389-1.938,1.911-3.018c0.981-0.751,2.078-1.074,3.311-0.903C48.997,62.145,49.39,62.598,49.78,63.049z"/>
<path fill="#A1A1A1" d="M47.039,62.207c-1.217,1.138-2.437,2.273-3.654,3.408c-0.909-2.081-1.819-4.165-2.728-6.25c0.363-0.451,0.725-0.903,1.088-1.354c1.053-0.528,2.164-0.775,3.341-0.696c1.129,0.349,2.074,0.968,2.802,1.904C48.278,60.406,48.031,61.413,47.039,62.207z"/>
<path fill="#989898" d="M37.672,59.717c-0.087-0.971-0.095-1.944-0.024-2.915l-0.354-1.028c1.32-0.76,2.608-0.744,3.856,0.168c0.787,1.376,0.546,2.594-0.575,3.675c0,0,0.088-0.248,0.085-0.251C39.656,59.43,38.661,59.546,37.672,59.717z"/>
<path fill="#902D11" d="M62.059,25.027c0.12,1.083,0.241,2.17,0.361,3.256c-0.5,0.217-1.001,0.434-1.503,0.65c-1.097-0.287-1.942-0.91-2.54-1.874c-0.17-1.147,0.172-2.127,0.958-2.966C60.487,23.693,61.395,24.005,62.059,25.027z"/>
<path d="M62.059,25.027l-1.134,0.012l-1.134-0.028c-0.943-0.641-1.368-1.392-1.28-2.249c0.097-0.912,0.269-1.37,0.523-1.37c1.389-0.9,2.604-0.711,3.646,0.574l-0.427-0.046C62.189,22.955,62.123,23.99,62.059,25.027z"/>
<path fill="#A73414" d="M65.681,28.589c0.031,0.888,0.149,1.764,0.359,2.627c-0.436,0.449-0.87,0.897-1.305,1.346c-1.328,0.149-2.387-0.335-3.213-1.364c-0.411-1.306-0.083-2.344,1.101-3.079c0,0-0.2,0.165-0.201,0.165C63.507,28.384,64.595,28.485,65.681,28.589z"/>
<path fill="#8D8D8D" d="M62.681,21.966c-1.1,0.031-2.198,0.064-3.299,0.095c-0.863-0.714-1.109-1.371-0.741-1.965c0.35-0.564,0.688-0.849,1.017-0.849c0,0-0.33-0.583-0.328-0.583c1.127,0.086,2.255,0.174,3.384,0.263C62.566,19.94,62.556,20.95,62.681,21.966z"/>
<path fill="#565656" d="M37.092,31.314c0.155-1.074,0.311-2.152,0.467-3.229l-0.255,0.122c1-1.016,2.115-1.169,3.348-0.455c4.071,0.195,8.142,0.388,12.213,0.583c0.418,0.498,0.835,0.992,1.253,1.489c0.115,1.318-0.165,2.539-0.899,3.65c-2.439,2.652-5.689,2.411-8.853,2.463c-1.236-0.04-2.477-0.098-3.713-0.171c-1.25-0.125-2.375-0.559-3.355-1.358l0.237,0.195C37.388,33.508,37.24,32.409,37.092,31.314z"/>
<path fill="#565656" d="M59.657,19.247c-0.057,0.943-0.148,1.88-0.275,2.814c0.01,1.001,0.144,1.983,0.406,2.951c-0.166,1.096-0.336,2.191-0.507,3.287c-0.434,0.314-0.866,0.625-1.302,0.94c-1.123,0.067-2.06-0.302-2.783-1.181c-0.261-1.096-0.068-2.09,0.648-2.973c-1.98-2.169-3.959-4.339-5.939-6.509c-0.002,0-0.14,0.263-0.14,0.263c2.031-2.039,4.199-1.724,6.428-0.373C57.349,18.728,58.503,18.988,59.657,19.247z"/>
<path fill="#DA441A" d="M55.845,25.085c0.232,0.965,0.387,1.938,0.461,2.927c-0.961,1.111-1.916,1.16-2.865-0.015l-0.574,0.339C53.858,27.252,54.852,26.168,55.845,25.085z"/>
<path fill="#902D11" d="M40.652,27.752c-1.115,0.149-2.232,0.302-3.348,0.455c0.487-0.687,0.975-1.37,1.499-2.103C39.442,26.672,40.046,27.212,40.652,27.752z"/>
<path d="M56.193,18.466c-2.143,0.125-4.285,0.247-6.428,0.373c0.113-0.849,0.228-1.697,0.341-2.542c2.062-0.229,4.126-0.46,6.19-0.692C56.229,16.556,56.194,17.511,56.193,18.466z"/>
<path fill="#A13213" d="M40.467,56.674c-1.057-0.299-2.116-0.601-3.174-0.9c0.088-5.022,0.177-10.046,0.267-15.069c1.02-0.015,2.039-0.027,3.058-0.043c0.682,0.431,1.366,0.864,2.049,1.294c1.071,1.258,1.766,2.695,2.084,4.315C45.102,50.47,44.977,54.477,40.467,56.674z"/>
<path fill="#982F12" d="M40.618,40.661c-0.042-1.141-0.083-2.279-0.126-3.421c-0.06-0.65-0.119-1.3-0.178-1.95l0.896-0.814c1.629-1.962,3.628-1.581,5.678-0.895c0.985,1.068,1.481,2.329,1.494,3.781c-0.54,2.204-1.894,3.702-3.969,4.572c-1.471,0.25-2.716-0.189-3.766-1.23L40.618,40.661z"/>
<path fill="#8D8D8D" d="M40.314,35.29c0.111,0.644,0.171,1.294,0.178,1.95c-1.065-0.943-2.128-1.886-3.194-2.832C38.302,34.701,39.308,34.994,40.314,35.29z"/>
<path fill="#551A0A" d="M59.423,59.579c-1.051-0.211-2.103-0.418-3.152-0.629c-4.666-3.845-4.925-8.896-3.917-14.294c0.552-1.688,1.491-3.125,2.814-4.309c2.431-1.529,4.854-1.682,7.263,0.049c0.017,1.16,0.034,2.316,0.049,3.473c-3.499,3.683,0.398,9.088-2.979,12.799C59.455,57.639,59.43,58.608,59.423,59.579z"/>
<path fill="#962F12" d="M62.431,40.396c-1.885,0.296-3.768,0.589-5.651,0.885c-0.666-0.073-1.331-0.146-1.995-0.22c-1.195-0.638-2.158-1.529-2.887-2.67c-0.38-1.3-0.38-2.597,0.059-3.885c1.433-1.477,3.18-2.292,5.229-2.463c1.321,0.208,2.482,0.76,3.482,1.651c0.684,1.12,1.28,2.289,1.788,3.5C62.447,38.263,62.439,39.331,62.431,40.396z"/>
<path fill="#491709" d="M59.5,56.668c0.993-4.267,1.986-8.533,2.979-12.799c0.059,3.964,0.114,7.928,0.171,11.893C61.601,56.063,60.551,56.366,59.5,56.668z"/>
<path fill="#8D8D8D" d="M62.455,37.194c-0.914-0.665-1.826-1.33-2.74-1.996c0.336-0.537,0.673-1.071,1.009-1.608c0.573,0.269,1.147,0.534,1.72,0.803C62.646,35.327,62.649,36.261,62.455,37.194z"/>
<path fill="#DA441A" d="M66.04,31.216c0.844,0.067,1.688,0.073,2.534,0.018c0.03,1.001,0.073,1.999,0.123,2.997c-1.213,0.088-2.426,0.18-3.639,0.271c-1.038-0.885-1.279-1.535-0.727-1.959c0.396-0.302,0.87-0.455,1.43-0.455L66.04,31.216z"/>
<path fill="#8D8D8D" d="M65.762,32.089c-0.212,0.809-0.445,1.611-0.7,2.411c-0.003,0.003-1.315,0.088-1.315,0.088s-1.302-0.192-1.302-0.195c-0.001,0,0.103,0.104,0.103,0.104c-0.803-0.785-1.027-1.52-0.676-2.204c0.335-0.659,0.656-0.989,0.958-0.989C63.844,31.43,64.82,31.689,65.762,32.089z"/>
<path fill="#70230D" d="M53.245,59.787c-1.155,1.089-2.311,2.176-3.465,3.262l0.313-0.741c-3.731-4.7-5.184-10.126-5.12-16.043c0.343-1.749,1.299-3.031,2.871-3.864c2.681-0.617,5.003-0.244,6.533,2.341C54.319,49.783,56.025,54.956,53.245,59.787z"/>
<path fill="#611E0C" d="M53.245,59.787c-0.019-5.271-0.035-10.541-0.054-15.814c0.906-1.117,1.898-1.261,2.992-0.266c0.029,5.081,0.059,10.162,0.087,15.243C55.263,59.228,54.254,59.509,53.245,59.787z"/>
<path fill="#6C210D" d="M46.911,46.973c1.061,5.111,2.121,10.224,3.182,15.335l-1.532,0.128l-1.521-0.229c-0.114-0.803-0.226-1.603-0.334-2.408c-2.786-3.412-3.483-7.12-1.563-11.19C45.731,48.065,46.322,47.519,46.911,46.973z"/>
<path fill="#8D2C11" d="M46.968,43.875c-0.026,1.034-0.044,2.066-0.057,3.098l-0.065-0.028c-3.424,3.378,0.349,8.603-3.07,11.988c-1.066,0.226-2.135,0.454-3.201,0.684c0.014-0.983-0.021-1.963-0.105-2.942c0.067-4.278,0.134-8.554,0.202-12.833C42.781,41.971,44.88,41.885,46.968,43.875z"/>
<path fill="#7D270F" d="M43.775,58.933c1.024-3.998,2.048-7.993,3.07-11.988c-0.047,4.285-0.093,8.57-0.141,12.857C45.71,59.573,44.734,59.283,43.775,58.933z"/>
<path fill="#565656" d="M62.829,31.305c-0.095,1.065-0.189,2.13-0.282,3.192c-0.979,0.085-1.921,0.314-2.829,0.695c-0.003,0.006-0.928-0.732-0.928-0.732c-0.76-0.998-1.178-2.13-1.3-3.372c0.34-1.211,0.987-2.219,1.991-2.984l-0.198,0.195c1.112-0.061,2.226-0.119,3.34-0.18C62.691,29.181,62.761,30.243,62.829,31.305z"/>
<path fill="#141414" d="M59.172,31.152c-0.127,1.102-0.254,2.203-0.382,3.308c-2.054,0.488-4.107,0.98-6.161,1.468c-1.754,1.132-3.51,1.138-5.268,0.015c-2.051-0.488-4.103-0.979-6.154-1.468c3.932-1.294,7.863-2.588,11.793-3.882C55.163,29.614,57.252,29.455,59.172,31.152z"/>
<path fill="#902D11" d="M59.172,31.152c-2.056-0.187-4.112-0.37-6.169-0.556c0.074-0.879,0.221-1.746,0.436-2.597c0.957,0.055,1.912,0.061,2.867,0.015c1.06,0.028,2.117,0.058,3.176,0.089C59.406,29.123,59.303,30.139,59.172,31.152z"/>
<path fill="#912D11" d="M46.968,43.875c-2.1-0.009-4.199-0.021-6.297-0.034c-0.008-1.043-0.017-2.09-0.024-3.137c1.077-0.015,2.153-0.03,3.23-0.046c0.893-0.897,1.962-1.458,3.209-1.685c1.785-0.717,3.586-0.845,5.404-0.128c1.211,0.296,2.337,0.784,3.363,1.498c0,0,0.919,0.928,0.922,0.931c-0.269,0.796-0.467,1.608-0.589,2.435c-1,0.085-1.997,0.174-2.995,0.263C51.116,43.942,49.043,43.908,46.968,43.875z"/>
<path fill="#8D8D8D" d="M53.065,40.262c-2.044,0-4.088,0-6.133,0c-0.145-0.681-0.292-1.358-0.438-2.036c0.539-0.668,0.829-1.428,0.868-2.283c1.753-0.006,3.508-0.009,5.264-0.015c0.043,0.854,0.334,1.614,0.874,2.276C53.356,38.892,53.21,39.575,53.065,40.262z"/>
<path fill="#DA441A" d="M46.495,38.226c0.262,0.653,0.409,1.333,0.439,2.036c-1.012,0.195-2.031,0.326-3.058,0.396C44.749,39.847,45.622,39.035,46.495,38.226z"/>
<path fill="#DA441A" d="M53.065,40.262c0.033-0.711,0.178-1.398,0.435-2.057c0.786,0.714,1.57,1.428,2.353,2.139l-1.396,0.031L53.065,40.262z"/>
</svg>