<?xml version="1.0" encoding="utf-8"?>
<!DOCTYPE svg PUBLIC "-//W3C//DTD SVG 1.1//EN" "http://www.w3.org/Graphics/SVG/1.1/DTD/svg11.dtd">
<svg version="1.1" xmlns="http://www.w3.org/2000/svg" xmlns:xlink="http://www.w3.org/1999/xlink" x="0px" y="0px" width="100px" height="100px" viewBox="0 0 100 100" enable-background="new 0 0 100 100" xml:space="preserve">
<path fill="#15273E" d="M93.723,75.778c-1.791,0.79-3.583,1.584-5.372,2.377c-8.154,1.053-7.259-5.117-7.982-9.988c-0.044-2.481-0.009-4.965,0.299-7.428c0.282-1.597,0.938-3.04,1.953-4.3c1.209-1.028,2.62-1.575,4.203-1.639c1.485,0.412,2.65,1.291,3.511,2.557c0.45,1.38,0.728,2.808,0.795,4.264c0.209,3.485-0.217,7.028,0.73,10.474C92.491,73.313,93.112,74.542,93.723,75.778z"/>
<path fill="#5F4D31" d="M93.807,24.695c-0.058,6.348-0.114,12.698-0.171,19.049c-0.937,1.059-2.095,1.736-3.479,2.035c-1.399-0.055-2.707-0.427-3.908-1.147c-1.017-0.943-1.787-2.054-2.278-3.351c-0.264-1.325-0.412-2.67-0.448-4.025c0.03-2.664,0.131-5.334,0.242-7.999c0.154-1.322,0.575-2.554,1.255-3.696c0.903-0.979,2.003-1.63,3.294-1.953C90.241,23.471,92.189,23.239,93.807,24.695z"/>
<path fill="#862018" d="M7.877,48.801l-0.149-1.014c0.308-1.94,0.706-3.872,0.665-5.868c-0.008-1.382,0.128-2.734,0.397-4.092c0.807-1.251,1.922-2.033,3.381-2.365c1.527,0,2.956,0.317,4.323,1.001c2.092,1.336,3.305,3.25,3.834,5.637c0.363,3.33,0.128,6.494-2.373,9.064c-2.13,1.547-4.461,1.91-6.976,1.196C9.398,51.651,8.364,50.464,7.877,48.801z"/>
<path fill="#493D24" d="M88.231,56.747c-1.076-0.095-2.153-0.192-3.229-0.286c-0.456-0.431-0.913-0.861-1.371-1.291c-0.442-1.196-0.525-2.42-0.249-3.665c0.775-1.786,2.283-2.875,3.783-3.965c1.04-0.644,2.134-1.187,3.283-1.605c1.236-0.452,2.306-0.171,3.23,0.745c0.003,6.385,0.005,12.769,0.008,19.152c-0.886,0.879-1.904,1.081-3.055,0.599c-0.615-0.995-0.938-2.078-0.968-3.247c-0.016-1.147-0.032-2.298-0.054-3.445C89.574,58.545,89.114,57.55,88.231,56.747z"/>
<path fill="#492F18" d="M56.743,93.674c-4.184,0.201-8.366,0.399-12.549,0.602c0.009-0.574,0.019-1.151,0.027-1.728c0.108-1.169,0.316-2.316,0.648-3.452c0.325-1.175,0.646-2.337,0.969-3.519c0.421-1.943,1.242-3.638,2.815-4.925c1.917-1.117,3.887-1.252,5.935-0.419c4.479,2.945,4.007,7.068,2.707,11.384C57.111,92.304,56.926,92.99,56.743,93.674z"/>
<path fill="#9E834D" d="M19.155,18.647c3.242-1.88,6.483-3.76,9.724-5.64c1.341,0.338,2.703,0.537,4.088,0.592c1.288,0.629,2.273,1.568,2.968,2.826c0.263,1.434,0.09,2.813-0.459,4.159c-1.771,2.475-4.321,3.836-7.047,4.959c-2.292,0.522-4.461,0.263-6.492-0.958C20.087,23.035,19.136,21.066,19.155,18.647z"/>
<path fill="#836A44" d="M7.86,37.552c1.626-5.237,3.253-10.477,4.881-15.716c0.579,0.192,1.158,0.384,1.737,0.574c0.955,0.778,1.692,1.721,2.174,2.856c0.251,1.19,0.229,2.38-0.063,3.562c-0.423,1.11-0.936,2.185-1.534,3.213c-0.571,1.035-1.279,1.974-2.101,2.823c-0.903,0.754-1.866,1.425-2.878,2.026l-0.144,0.757C9.243,37.616,8.551,37.585,7.86,37.552z"/>
<path fill="#AD8E57" d="M44.309,6.247c4.18,0,8.36,0,12.54-0.003c-0.038,2.38-1.174,4.132-3.093,5.441c-2.115,0.971-4.231,0.974-6.35,0.012C45.479,10.388,44.345,8.63,44.309,6.247z"/>
<path fill="#432617" d="M84.859,65.75c1.162,4.135,2.323,8.271,3.488,12.405c-2.104,1.087-4.207,2.176-6.313,3.266c-0.668-0.312-1.336-0.619-2.005-0.928c-1.729-1.578-2.452-3.607-2.643-5.875c-0.114-2.225-0.021-4.428,0.616-6.582c0.705-1.321,1.663-2.417,2.915-3.253C82.434,64.282,83.739,64.643,84.859,65.75z"/>
<path fill="#665D06" d="M37.364,90.18c-1.841-0.803-3.682-1.608-5.523-2.411c-1.071-1.083-1.675-2.384-1.813-3.903c0.288-1.492,0.996-2.759,2.064-3.833c2.051-1.239,4.17-1.354,6.356-0.391c2.718,2.066,3.241,4.755,2.22,7.877C39.914,88.83,38.811,89.719,37.364,90.18z"/>
<path fill="#AB8B55" d="M60.201,6.815c2.021,1.05,4.045,2.103,6.066,3.152c1,1.001,1.495,2.21,1.489,3.626c-0.329,1.364-0.996,2.523-2.056,3.454c-1.962,1.044-3.941,1.065-5.944,0.128c-1.122-0.857-1.964-1.938-2.53-3.232c-0.274-1.379-0.212-2.747,0.182-4.099C58.145,8.658,59.076,7.648,60.201,6.815z"/>
<path fill="#675532" d="M9.159,49.884c2.005,0.189,4.01,0.379,6.015,0.567c1.44,0.403,2.366,1.304,2.699,2.783c-0.034,1.444-0.464,2.753-1.29,3.938c-1.689,1.525-3.659,2.014-5.875,1.59c-1.297-0.589-2.452-1.389-3.483-2.368c-0.002-1.163-0.005-2.322-0.006-3.485C7.939,51.947,8.585,50.94,9.159,49.884z"/>
<path fill="#B6945E" d="M84.978,19.241c1.104,0.739,2.209,1.474,3.313,2.213c1.961,1.285,1.926,2.511-0.105,3.683l0.049-0.009c-2.282,2.124-4.803,3.153-7.859,1.712c-1.193-0.879-1.915-2.06-2.227-3.503C78.989,19.583,82.695,20.6,84.978,19.241z"/>
<path fill="#78623B" d="M44.309,6.247c1.093,0.977,2.184,1.956,3.276,2.933c-0.115,0.659-0.228,1.318-0.342,1.978c-0.755,1.142-1.77,1.965-3.041,2.472c-1.389,0.024-2.594-0.445-3.644-1.336c-1.157-1.919-1.021-3.757,0.366-5.508C42.052,6.607,43.181,6.427,44.309,6.247z"/>
<path fill="#46550A" d="M28.438,86.643c-0.954-0.662-1.906-1.324-2.859-1.986c-0.96-0.87-1.636-1.923-2.029-3.156c0.006-1.297,0.372-2.484,1.099-3.562c1.103-0.729,2.302-0.903,3.581-0.604c1.099,0.674,1.903,1.608,2.413,2.792c-0.073,1.258-0.192,2.509-0.36,3.754C30.364,85.266,29.717,86.166,28.438,86.643z"/>
<path fill="#B9955F" d="M19.155,18.647c1.125,1.028,2.25,2.057,3.375,3.085c-0.274,0.516-0.549,1.032-0.824,1.547c-0.957,0.699-2.026,1.117-3.205,1.251c-1.181-0.128-2.246-0.55-3.193-1.267c-0.347-0.467-0.693-0.937-1.04-1.407l-0.761-0.247l-0.766,0.226C14.879,20.773,17.017,19.708,19.155,18.647z"/>
<path fill="#BB9762" d="M40.924,6.784c0.04,1.929,0.08,3.857,0.119,5.786c-0.468,0.235-0.938,0.467-1.407,0.702c-1.062-0.205-1.935-0.717-2.59-1.587c-0.376-1.104-0.059-1.947,0.952-2.53C38.974,8.365,39.949,7.574,40.924,6.784z"/>
<path fill="#735E39" d="M60.201,6.815c-0.081,0.806-0.192,1.605-0.333,2.402c-1.186,1.764-2.821,2.109-4.756,1.504c-0.446-0.424-0.892-0.848-1.337-1.27c1.025-1.068,2.049-2.136,3.073-3.207C57.966,6.436,59.082,6.626,60.201,6.815z"/>
<path fill="#BB9762" d="M37.999,9.155c0.122,1.004,0.26,2.008,0.408,3.009c-0.233,0.504-0.465,1.004-0.697,1.508c-0.96,0.623-2.002,0.827-3.124,0.613c-0.529-0.149-1.061-0.299-1.592-0.448c-0.358-0.418-0.718-0.836-1.077-1.254C33.943,11.441,35.971,10.297,37.999,9.155z"/>
<path fill="#9E834D" d="M66.025,15.964c0.061-1.166,0.12-2.329,0.182-3.494c1.118-1.221,2.253-1.233,3.404-0.043c1.018,0.012,1.998,0.21,2.941,0.589c0.38,0.528,0.76,1.056,1.14,1.584c-0.354,1.318-1.162,2.258-2.365,2.875c-1.298,0.28-2.577,0.226-3.834-0.214C67.003,16.831,66.514,16.397,66.025,15.964z"/>
<path fill="#9E834D" d="M75.861,15.552c1.018,0.012,1.998,0.21,2.941,0.589c0.42,0.504,0.838,1.007,1.258,1.511c-0.444,1.282-1.269,2.234-2.474,2.856c-2.059,0.54-3.854,0.083-5.373-1.419c-0.705-1.227-0.654-2.399,0.274-3.498l-0.056,0.055C73.54,14.343,74.684,14.374,75.861,15.552z"/>
<path fill="#9E834D" d="M84.978,19.241c-2.193,0.937-4.386,1.874-6.578,2.811c-0.324-0.595-0.646-1.187-0.968-1.779c0.434-0.519,0.866-1.035,1.302-1.553l-0.045,0.042c1.109-1.285,2.25-1.312,3.422-0.085C83.1,18.695,84.055,18.884,84.978,19.241z"/>
<path fill="#9E834D" d="M88.186,25.137c0.035-1.23,0.07-2.457,0.105-3.683c1.837,1.08,3.676,2.16,5.515,3.241C91.933,24.841,90.06,24.988,88.186,25.137z"/>
<path fill="#8A7149" d="M7.86,37.552c0.691,0.049,1.382,0.08,2.075,0.092c-0.301,2.035-0.599,4.065-0.897,6.097l-1.506,0.006C7.642,41.684,7.75,39.618,7.86,37.552z"/>
<path fill="#8A7149" d="M7.226,56.394c1.077-0.019,2.154-0.04,3.231-0.058c1.32,1.705,1.409,3.494,0.378,5.364c-0.993,0.962-2.161,1.209-3.478,0.833C7.314,60.486,7.269,58.441,7.226,56.394z"/>
<path fill="#8A7149" d="M7.412,71.875c-0.019-2.094-0.037-4.184-0.055-6.277c1.215-0.961,2.413-0.94,3.598,0.058c1.17,1.947,1.196,3.916,0.095,5.899C9.92,72.583,8.707,72.69,7.412,71.875z"/>
<path fill="#5F4D31" d="M91.93,65.945c0.588-0.033,1.175-0.07,1.76-0.113c0.015,2.015,0.033,4.029,0.052,6.04c-1.352,0.955-2.571,0.857-3.638-0.461C89.781,69.281,89.045,67.008,91.93,65.945z"/>
<path fill="#55462A" d="M13.038,78.186c-1.921-1.146-3.842-2.291-5.763-3.438c1.063-0.9,2.292-1.315,3.685-1.242c1.291,0.543,2.181,1.483,2.726,2.765C13.469,76.907,13.252,77.548,13.038,78.186z"/>
<path fill="#55462A" d="M19.255,81.283c-2.072-1.031-4.144-2.065-6.218-3.098l0.064-0.104c0.856-1.037,1.933-1.69,3.267-1.907c1.338,0.113,2.495,0.638,3.498,1.522c0.139,0.639,0.278,1.279,0.418,1.917C19.94,80.17,19.599,80.729,19.255,81.283z"/>
<path fill="#3A2F1D" d="M82.034,81.421c-2.163,0.964-4.325,1.929-6.489,2.894c-0.252-0.514-0.502-1.022-0.754-1.535c0.212-1.147,0.746-2.112,1.654-2.859c1.683-0.761,3.267-0.702,4.695,0.586L82.034,81.421z"/>
<path fill="#3A2F1D" d="M75.545,84.315c-2.056,1.089-4.11,2.182-6.168,3.274c-0.358-0.471-0.717-0.938-1.075-1.407c-0.081-1.229,0.334-2.273,1.178-3.158c1.061-0.571,2.192-0.797,3.391-0.724c1.126,0.421,2.05,1.11,2.736,2.103L75.545,84.315z"/>
<path fill="#4E3E26" d="M44.194,94.275c-2.273-1.364-4.545-2.729-6.825-4.096c-0.005,0,0.632,0.204,0.632,0.204c0.989-0.9,2.136-1.483,3.445-1.752c1.335,0.122,2.524,0.599,3.54,1.483c0.643,1.297,0.427,2.43-0.646,3.396L44.194,94.275z"/>
<path fill="#492F18" d="M63.023,90.616c-2.094,1.019-4.187,2.038-6.28,3.058l0.085,0.092c-1.576-4.568,1.42-4.535,4.472-4.447C61.875,89.752,62.45,90.186,63.023,90.616z"/>
<path fill="#663715" d="M9.854,65.763c-0.833-0.059-1.668-0.11-2.5-0.159c-0.201-1.031-0.203-2.057,0.001-3.076c0.824-0.019,1.646-0.024,2.469-0.009c0.306,0.537,0.612,1.074,0.917,1.614C10.446,64.676,10.15,65.219,9.854,65.763z"/>
<path fill="#8A7149" d="M7.532,43.747c0,0,1.507-0.006,1.506-0.006c-0.439,1.346-0.877,2.689-1.314,4.041C7.662,46.441,7.598,45.096,7.532,43.747z"/>
<path fill="#8A7149" d="M9.159,49.884c-0.647,1.007-1.292,2.018-1.939,3.024c0.217-1.364,0.433-2.729,0.653-4.099C8.301,49.167,8.728,49.527,9.159,49.884z"/>
<path fill="#8A7149" d="M9.954,74.957c-0.897-0.03-1.792-0.101-2.681-0.21C6.954,73.77,7,72.814,7.412,71.875c0.673,0,1.344,0,2.016,0c0.92,0.549,1.303,1.188,1.153,1.916C10.422,74.569,10.213,74.957,9.954,74.957z"/>
<path fill="#BB9762" d="M82.111,18.677c-1.141,0.027-2.28,0.058-3.42,0.085c0.014-0.876,0.052-1.749,0.111-2.622C79.906,16.986,81.009,17.832,82.111,18.677z"/>
<path fill="#5F4D31" d="M91.904,71.878c0.613-0.003,1.225-0.003,1.837-0.006c-0.005,1.297-0.008,2.591-0.016,3.897c-0.958-0.303-1.899-0.645-2.829-1.022C89.769,73.275,90.105,72.32,91.904,71.878z"/>
<path fill="#5F4D31" d="M93.679,46.68c-0.635-0.019-1.269-0.027-1.903-0.027c-0.964-0.525-1.349-1.135-1.154-1.831c0.206-0.735,0.446-1.105,0.728-1.105c0.763,0.012,1.527,0.019,2.289,0.028C93.979,44.717,93.993,45.697,93.679,46.68z"/>
<path fill="#BB9762" d="M75.861,15.552c-1.142,0.03-2.285,0.061-3.428,0.095c0.017-0.879,0.059-1.755,0.119-2.631C73.656,13.861,74.759,14.707,75.861,15.552z"/>
<path fill="#4E3E26" d="M22.569,83.902c-1.103-0.873-2.208-1.746-3.313-2.619c-0.001,0,0.096-0.195,0.096-0.195c0.726-0.289,1.454-0.579,2.182-0.869c0.609,0.491,1.219,0.982,1.83,1.474C23.099,82.428,22.835,83.163,22.569,83.902z"/>
<path fill="#5C492E" d="M22.569,83.902c0.067-1.001,0.165-1.999,0.295-2.994l1.242-0.909L25.276,81c0.101,1.215,0.2,2.432,0.301,3.649C24.564,84.451,23.561,84.201,22.569,83.902z"/>
<path fill="#BB9762" d="M31.913,15.616c-1.012-0.87-2.022-1.739-3.034-2.609c0.974-0.421,1.985-0.565,3.037-0.424c0.001,0-0.148-0.15-0.148-0.15C33.629,13.413,33.678,14.475,31.913,15.616z"/>
<path fill="#BB9762" d="M69.611,12.427c-1.134,0.015-2.27,0.03-3.404,0.046c0.02-0.836,0.041-1.672,0.061-2.506C67.383,10.785,68.497,11.606,69.611,12.427z"/>
<path fill="#675B17" d="M28.438,86.643c0.121-0.613,0.186-1.23,0.199-1.853c0.478-1.85,1.465-2.182,2.963-0.995c0.08,1.324,0.16,2.649,0.241,3.974C30.707,87.394,29.573,87.018,28.438,86.643z"/>
<path fill="#352A1A" d="M66.313,90.194c-1.096,0.141-2.191,0.281-3.288,0.422c-0.002,0-0.07,0.128-0.07,0.128c-0.961-1.38-0.865-2.68,0.293-3.9c0.757-0.079,1.512-0.155,2.269-0.231c0.577,0.497,1.151,0.997,1.728,1.495C66.934,88.807,66.625,89.499,66.313,90.194z"/>
<path fill="#3F311F" d="M66.313,90.194c0.017-0.952,0.043-1.907,0.078-2.859c0.964-0.995,1.895-0.964,2.797,0.086l0.188,0.165C68.356,88.458,67.336,89.325,66.313,90.194z"/>
<path fill="#194834" d="M91.904,71.878c-0.319,0.965-0.655,1.923-1.008,2.872c-0.896-4.12-1.793-8.234-2.689-12.351c0.511-0.647,1.021-1.294,1.531-1.941c0.474,0.678,0.945,1.353,1.418,2.026c0.257,1.154,0.512,2.308,0.771,3.461C91.921,67.923,91.913,69.9,91.904,71.878z"/>
<path fill="#151009" d="M84.859,65.75c-0.966-0.073-1.932-0.158-2.895-0.26c-2.109-0.115-3.466-1.284-4.354-3.112c-0.276-1.282-0.078-2.499,0.523-3.656c1.023-0.8,2.187-1.229,3.484-1.284c1.27,0.299,2.294,0.973,3.073,2.023C84.748,61.557,84.804,63.653,84.859,65.75z"/>
<path fill="#362B1B" d="M84.692,59.461c-1.074-0.132-2.149-0.263-3.224-0.395c-1.123-0.564-2.246-1.135-3.369-1.709c-0.278-0.567-0.556-1.135-0.833-1.702c-0.086-1.304,0.282-2.473,1.037-3.531c1.082-0.708,2.27-1.065,3.563-1.071c1.263,0.314,2.304,0.968,3.086,2.015c0.018,1.132,0.032,2.261,0.049,3.394C84.93,57.465,84.825,58.463,84.692,59.461z"/>
<path fill="#16110A" d="M88.231,56.747c0.831,0.858,1.664,1.719,2.496,2.576c-0.772,1.52-1.568,1.456-2.385,0.04C88.278,58.49,88.242,57.62,88.231,56.747z"/>
<path fill="#1B150B" d="M88.343,59.363c0.798-0.007,1.596-0.019,2.39-0.037c0.139,1.053,0.282,2.105,0.424,3.158c-0.985-0.012-1.97-0.039-2.951-0.082C88.181,61.383,88.226,60.37,88.343,59.363z"/>
<path fill="#151009" d="M88.101,28.155c-0.073,3.437-0.148,6.876-0.222,10.315c-2.49,1.379-4.802,3.21-7.889,3.091c-2.345-0.235-4.229-1.276-5.659-3.153c-0.714-1.364-1.036-2.816-0.992-4.352c0.513-2.316,1.819-4.05,3.871-5.225C80.78,27.704,84.462,28.284,88.101,28.155z"/>
<path fill="#3B4809" d="M81.452,37.436c2.145,0.342,4.29,0.684,6.431,1.031c-0.003,0.003,0.081,1.55,0.081,1.55c-1.202,1.633-0.781,3.369-0.332,5.109c0.311,1.797,0.28,3.564-0.431,5.276c-0.638,1.02-1.414,1.923-2.309,2.726l0.061-0.058c-1.046-0.01-2.093-0.019-3.14-0.027c-1.799-1.838-3.291-3.854-3.852-6.434C77.504,42.935,79.16,40.064,81.452,37.436z"/>
<path fill="#9E834D" d="M88.101,28.155c-2.98,1.227-5.96,2.454-8.941,3.681c-1.241,0.671-2.527,0.769-3.857,0.296c-0.739-1.19-0.981-2.475-0.729-3.851c0.596-1.242,1.47-2.246,2.623-3.003c0.673-0.08,1.346-0.159,2.02-0.238c3.006,0.031,6.012,0.058,9.018,0.088C88.142,26.135,88.097,27.143,88.101,28.155z"/>
<path fill="#063628" d="M91.349,43.716c0,1.001,0.141,1.981,0.424,2.936c-0.22,1.037-0.44,2.078-0.663,3.119c-0.777,1.074-1.804,1.431-3.08,1.074c-1.542-1.361-1.484-3.192-1.474-5.008c0.009-1.294,0.588-2.243,1.735-2.847C89.309,43.231,90.329,43.476,91.349,43.716z"/>
<path fill="#5B5B5B" d="M85.312,43.677c0.885-1.218,1.769-2.436,2.651-3.656c0.097,0.989,0.202,1.981,0.32,2.97c0.007,0-0.126,1.025-0.126,1.025C86.968,45.938,86.018,45.825,85.312,43.677z"/>
<path fill="#1F3A5A" d="M16.384,53.006c-0.375-0.866-0.777-1.725-1.207-2.561c0.093-3.302,0.189-6.61,0.284-9.918c-0.562-1.37-0.934-2.789-1.083-4.272c0.415-1.501,1.29-2.643,2.634-3.439c1.52-0.363,3.023-0.335,4.53,0.083c2.273,0.979,3.925,2.557,4.828,4.889c0.586,2.398,0.67,4.828,0.624,7.278c-0.119,3.421-0.653,6.659-3.712,8.841C20.787,55.081,18.45,55.084,16.384,53.006z"/>
<path fill="#858585" d="M10.077,36.89c0.118-0.72,0.103-1.435-0.042-2.148c0.453-0.525,0.906-1.053,1.359-1.578c0.661,0.213,1.321,0.427,1.982,0.641c0.292,0.629,0.584,1.26,0.876,1.892c-0.406,0.562-0.812,1.126-1.219,1.691C12.024,37.359,11.038,37.192,10.077,36.89z"/>
<path fill="#666666" d="M15.909,37.158c-0.146,1.123-0.294,2.249-0.444,3.372c-0.813-1.05-1.622-2.097-2.432-3.143l-0.116,0.183C13.606,35.208,14.603,35.068,15.909,37.158z"/>
<path fill="#352A1A" d="M88.051,49.689c1.02,0.062,2.039,0.089,3.059,0.083c-2.072,1.119-4.145,2.236-6.217,3.356c0.089-1.102,0.177-2.2,0.266-3.302C86.045,48.129,87.009,48.084,88.051,49.689z"/>
<path fill="#321402" d="M63.112,87.519c-0.052,1.074-0.104,2.151-0.155,3.226c-2.044,1.007-4.085,2.014-6.129,3.021c-1.208-4.224-2.418-8.447-3.627-12.671c0.269-0.797,0.537-1.591,0.806-2.384c1.003-1.41,2.327-2.384,3.973-2.924c2.676-0.366,4.971,0.314,6.741,2.444C66.503,81.73,65.517,84.747,63.112,87.519z"/>
<path fill="#645231" d="M53.201,81.095c-0.945,1.169-1.892,2.341-2.838,3.513c-1.24,0.945-2.592,1.098-4.042,0.561c-1.199-0.885-2.124-1.995-2.775-3.341c-0.587-2.186-0.668-4.41-0.594-6.656c0.11-1.529,0.398-3.015,0.896-4.468c0.83-1.337,1.901-2.42,3.261-3.22c1.526-0.54,3.061-0.586,4.616-0.146c2.269,1.017,3.817,2.691,4.644,5.035c0.583,3.339-0.962,6.092-2.449,8.859L53.201,81.095z"/>
<path fill="#0D694F" d="M47.028,81.259c0.325,1.139,0.652,2.277,0.977,3.415c1.213,1.733,0.972,3.714,0.961,5.658c-0.106,1.349-0.662,2.475-1.665,3.385c-0.993,0.049-1.98-0.016-2.958-0.199c-0.081-0.921-0.206-1.83-0.378-2.737c-2.048-2.731-2.966-5.6-1.077-8.813C44.064,80.558,45.445,80.322,47.028,81.259z"/>
<path fill="#8A7149" d="M48.019,90.625c-0.006-1.986-0.011-3.971-0.017-5.954c0.789-0.015,1.575-0.036,2.36-0.063c0.07,2.008,0.143,4.013,0.214,6.018C49.725,91.8,48.873,91.742,48.019,90.625z"/>
<path fill="#8A7149" d="M48.019,90.625c0.854,0,1.705,0,2.558,0c-1.093,1.031-2.184,2.063-3.276,3.092C47.54,92.685,47.78,91.653,48.019,90.625z"/>
<path fill="#B38F5A" d="M22.53,21.731c2.031,0.012,4.062,0.027,6.094,0.043c0.637,0.235,1.274,0.47,1.914,0.708c1.154,0.778,2.071,1.767,2.759,2.984c0.548,1.315,0.739,2.677,0.629,4.096c-0.453,1.389-1.219,2.561-2.292,3.543c-1.958,1.199-4.033,1.44-6.219,0.793c-1.282-0.666-2.387-1.556-3.284-2.695c-1.091-1.84-2.012-3.738-1.815-5.972c0.459-1.346,1.188-2.524,2.229-3.503L22.53,21.731z"/>
<path fill="#B38F5A" d="M28.624,21.774c2.13-1.007,4.262-2.011,6.392-3.019c0.217,0.583,0.435,1.166,0.652,1.746c-0.385,1.221-1.101,2.182-2.199,2.85c-1.979,0.564-3.621,0.083-4.876-1.584L28.624,21.774z"/>
<path fill="#BB9762" d="M35.016,18.756c0.046-0.885,0.113-1.77,0.202-2.652c0.22-0.552,0.441-1.102,0.659-1.654c0.592,0.021,1.184,0.04,1.776,0.058c0.43,0.406,0.861,0.809,1.292,1.215c0.142,1.208-0.145,2.298-0.925,3.244c-1.096,0.702-2.116,0.574-3.073-0.278L35.016,18.756z"/>
<path fill="#735E39" d="M31.913,15.616c-0.049-1.059-0.098-2.121-0.145-3.183c1.083,0.159,2.167,0.317,3.25,0.473c0.666,0.455,1.332,0.91,1.998,1.361c-0.708,0.384-1.417,0.769-2.125,1.153c0,0,0.325,0.678,0.326,0.681C34.116,15.942,33.014,15.777,31.913,15.616z"/>
<path fill="#735E39" d="M12.825,28.628c0.13-1.358,0.258-2.716,0.388-4.074c1.088-0.833,2.319-1.166,3.677-1.065c0.655,0.107,1.309,0.211,1.964,0.317c0.496,0.442,0.99,0.885,1.486,1.331c0.156,0.647,0.311,1.294,0.467,1.941c-0.452,1.303-1.282,2.286-2.489,2.951c-1.326,0.323-2.637,0.281-3.937-0.131C13.863,29.474,13.344,29.05,12.825,28.628z"/>
<path fill="#8A1010" d="M13.081,34.68l-1.53-0.128c0,0-1.523,0.184-1.52,0.187c0.165-1.196,0.327-2.393,0.488-3.592c1.137-0.595,2.171-0.421,3.118,0.415C14.151,32.727,13.965,33.765,13.081,34.68z"/>
<path fill="#21190E" d="M13.13,31.256c-0.871-0.024-1.743-0.061-2.611-0.109c0.769-0.843,1.538-1.685,2.306-2.521c0,0.003-0.004-0.391-0.004-0.391c0.485,0.458,0.972,0.918,1.457,1.376C13.895,30.161,13.512,30.707,13.13,31.256z"/>
<path fill="#BB9762" d="M16.122,24.936c-0.981-0.04-1.952-0.165-2.91-0.381c0.308-0.919,0.661-1.816,1.056-2.698c0.879,0.116,1.758,0.229,2.639,0.333c0.6,0.668,1.201,1.333,1.802,2.002C17.847,24.439,16.985,24.689,16.122,24.936z"/>
<path fill="#735E39" d="M47.585,9.18c2.063,0.088,4.126,0.18,6.19,0.269c0,0.003-0.136-0.137-0.136-0.137c0.451,0.534,0.901,1.071,1.354,1.605c-0.236,1.447-0.971,2.561-2.207,3.348c-2.155,0.732-4.141,0.455-5.931-0.992c-0.752-1.349-0.646-2.588,0.462-3.702L47.585,9.18z"/>
<path fill="#554E05" d="M81.141,80.506c-1.777,0.191-3.556,0.387-5.333,0.579c-0.512-0.348-1.022-0.698-1.533-1.047c-0.602-1.113-0.841-2.301-0.764-3.558c0.393-1.209,1.109-2.18,2.151-2.908c1.918-0.577,3.621-0.391,4.885,1.37C80.745,76.795,80.942,78.65,81.141,80.506z"/>
<path fill="#59563E" d="M80.547,74.942c-1.605,0.055-3.211,0.109-4.815,0.167c-1.114-0.942-1.809-2.123-2.015-3.579c0.16-1.443,0.721-2.704,1.741-3.748c2.159-0.869,4.099-0.857,5.493,1.358C80.815,71.075,80.682,73.007,80.547,74.942z"/>
<path fill="#454004" d="M80.951,69.141c-1.747-0.155-3.494-0.314-5.241-0.47c-0.93-0.867-1.342-1.932-1.233-3.198c0.522-1.12,1.301-2.012,2.371-2.637c0.602-0.076,1.203-0.152,1.804-0.227c1.104,0.962,2.207,1.92,3.312,2.881C81.626,66.708,81.288,67.923,80.951,69.141z"/>
<path fill="#314A68" d="M40.744,90.289c-0.914,0.064-1.828,0.095-2.743,0.095c-0.391-3.32-0.783-6.644-1.174-9.964c-1.417-1.709-2.615-3.524-2.775-5.838c0.085-1.508,0.496-2.914,1.237-4.229c1.042-1.142,2.288-1.941,3.784-2.354c1.583,0.202,2.89,0.9,3.937,2.103c0.674,1.435,1.068,2.93,1.145,4.511C42.63,79.758,44.451,85.626,40.744,90.289z"/>
<path fill="#858585" d="M36.599,75.879c0.078,1.514,0.157,3.027,0.232,4.541c-1.58,0.201-3.156,0.406-4.732,0.61c-0.516-0.372-1.03-0.745-1.546-1.117c-0.421-1.208-0.622-2.453-0.605-3.735c0.51-1.202,1.329-2.121,2.505-2.707C34.43,73.248,36.252,73.294,36.599,75.879z"/>
<path fill="#302413" d="M31.6,83.795c-0.987,0.327-1.975,0.653-2.963,0.989c0.113-1.19,0.227-2.384,0.342-3.58c0.847-1.52,1.739-1.547,2.679-0.082l0.439-0.095C31.822,81.931,31.656,82.853,31.6,83.795z"/>
<path fill="#9E834D" d="M53.664,12.524c-0.008-1.071-0.016-2.143-0.023-3.213c2.077-0.031,4.154-0.058,6.229-0.092c-0.062,1.224-0.119,2.451-0.179,3.681C57.578,14.456,55.576,14.212,53.664,12.524z"/>
<path fill="#735E39" d="M53.664,12.524c2.011,0.122,4.022,0.244,6.03,0.369c0.074,0.946,0.122,1.889,0.141,2.832c-0.466,0.421-0.931,0.842-1.396,1.267c-1.234,0.354-2.461,0.348-3.681-0.067c-1.532-1.251-2.734-2.572-0.984-4.532L53.664,12.524z"/>
<path fill="#735E39" d="M59.835,15.726c2.064,0.076,4.127,0.153,6.19,0.232c0,0.006,0.021-0.299,0.021-0.299c0.657,1.507,0.317,2.786-0.879,3.873c-3.269,0.668-6.117,0.793-5.183-3.992L59.835,15.726z"/>
<path fill="#1D160D" d="M9.825,62.519c0.211-2.063,0.421-4.123,0.632-6.183c1.851,0.082,3.7,0.164,5.551,0.247c0.363,0.473,0.728,0.948,1.092,1.422c0.125,1.215-0.05,2.374-0.572,3.481c-0.739,0.974-1.671,1.697-2.792,2.174c-1.274,0.155-2.277-0.272-2.965-1.38L9.825,62.519z"/>
<path fill="#4E3E26" d="M16.384,53.006c1.983-0.146,3.969-0.293,5.952-0.439c0.345,0.482,0.69,0.961,1.035,1.443c-0.015,1.224-0.421,2.295-1.219,3.223c-1.015,0.669-2.128,1.004-3.342,1.02c-1.17-0.342-2.122-1.001-2.856-1.975c0,0,0.054,0.296,0.054,0.299C16.133,55.39,16.259,54.199,16.384,53.006z"/>
<path fill="#6C5735" d="M78.4,22.052c0.207,1.01,0.476,2.008,0.812,2.988c0.005,0-0.589,0.226-0.589,0.226c-1.185,0.787-2.455,1.395-3.813,1.822c-2.255,0.476-4.178-0.098-5.742-1.816c-0.642-1.343-0.677-2.701-0.102-4.074c1.169-0.909,2.488-1.297,3.962-1.163c2.001,0.403,4.37-0.201,5.671,2.094L78.4,22.052z"/>
<path fill="#B3925C" d="M53.773,12.393c0.906,1.206,1.813,2.411,2.72,3.617c1.219,4.235-1.551,5.688-4.764,6.827c-2.378,0.363-4.733,0.299-7.048-0.412c-2.225-1.114-3.636-2.872-4.169-5.313c-0.563-1.517-0.476-3,0.264-4.44c0,0,0.269-0.101,0.267-0.101c1.1-0.021,2.2-0.043,3.3-0.061c1.05-1.325,2.12-1.34,3.209-0.049C49.627,12.436,51.7,12.415,53.773,12.393z"/>
<path fill="#AE8D57" d="M47.553,12.46c-1.069,0.015-2.139,0.03-3.209,0.049c0.992-0.983,1.985-1.962,2.977-2.942C47.329,10.541,47.406,11.502,47.553,12.46z"/>
<path fill="#244369" d="M25.276,81l-1.211,0.021c0,0-1.207-0.107-1.204-0.11c0.003-0.003-0.368,0.204-0.368,0.204c-2.268-2.624-2.809-5.486-1.181-8.643c2.437-2.051,4.129-0.931,5.556,1.31c0.364,1.584,0.042,3.033-0.867,4.367C25.756,79.099,25.515,80.048,25.276,81z"/>
<path fill="#281F10" d="M26.001,78.149c0.045-1.053,0.09-2.105,0.136-3.158c1.061-0.861,2.176-0.943,3.349-0.244c0.159,0.606,0.316,1.214,0.473,1.821c-0.391,0.491-0.783,0.979-1.173,1.471C27.857,78.079,26.929,78.116,26.001,78.149z"/>
<path fill="#281F10" d="M31.658,81.122c-0.896,0.055-1.792,0.085-2.684,0.082c-0.061-1.056-0.125-2.108-0.189-3.165c0.001,0-0.035,0.034-0.035,0.034c0.48-0.659,0.963-1.315,1.443-1.975c0.33,0.745,0.659,1.492,0.989,2.237C31.615,79.218,31.773,80.146,31.658,81.122z"/>
<path fill="#735E39" d="M22.543,21.729c0.011,1.114,0.023,2.231,0.034,3.345c-1.18,1.108-2.296,1.047-3.351-0.177l0.116,0.119c-1.074-0.696-1.381-1.285-0.928-1.776c0.401-0.434,0.818-0.653,1.256-0.653C20.612,22.247,21.57,21.96,22.543,21.729z"/>
<path fill="#8C7147" d="M19.67,22.586c-0.076,0.815-0.186,1.624-0.328,2.429c-1.073-0.027-2.147-0.052-3.22-0.079c0.261-0.916,0.519-1.834,0.778-2.75C17.83,22.309,18.75,22.44,19.67,22.586z"/>
<path fill="#BB9762" d="M40.776,12.671c0.172,0.806,0.302,1.617,0.386,2.436c-0.91,1.321-1.976,1.461-3.197,0.421l0.217,0.205c-1.076-0.687-1.448-1.395-1.12-2.127c0.333-0.738,0.673-1.11,1.021-1.11c0,0,0.319-0.324,0.322-0.327C39.194,12.348,39.983,12.515,40.776,12.671z"/>
<path fill="#695433" d="M38.083,12.494c0.034,1.08,0.066,2.157,0.1,3.238c-1.097-0.101-2.194-0.202-3.292-0.308c0.042-0.846,0.084-1.688,0.125-2.524C36.023,12.649,37.045,12.512,38.083,12.494z"/>
<path fill="#BB9762" d="M66.235,18.814c-0.061-1.053-0.122-2.103-0.188-3.155c2.146-0.021,4.292-0.046,6.44-0.067c-0.036,1.029-0.069,2.057-0.102,3.085c-0.409,0.461-0.816,0.922-1.224,1.382c-1.218,0.223-2.443,0.25-3.673,0.113C67.072,19.721,66.653,19.269,66.235,18.814z"/>
<path fill="#B38F5A" d="M78.599,22.128c-1.985-0.107-3.971-0.21-5.956-0.317c-2.282-0.873-2.348-1.889-0.198-3.049c0,0-0.057-0.085-0.058-0.085c2.114,0.015,4.231,0.03,6.348,0.043C78.688,19.858,78.644,20.993,78.599,22.128z"/>
<path fill="#582405" d="M10.771,62.28c0.763,0.079,1.524,0.149,2.287,0.214c2.716,0.164,4.636,1.528,5.886,3.903c1.08,4.312,0.307,8.196-2.663,11.575c-1.059,0.036-2.119,0.073-3.18,0.109c-1.048-1.04-2.098-2.081-3.148-3.125c-0.175-1.028-0.35-2.054-0.525-3.082c0.141-2.035,0.284-4.074,0.426-6.112C10.16,64.603,10.466,63.443,10.771,62.28z"/>
<path fill="#6C0D0D" d="M22.866,72.059c-0.124,3.021-0.249,6.042-0.373,9.061c-1.047-0.01-2.093-0.019-3.14-0.031c-0.09-0.875-0.179-1.751-0.266-2.627c-2.629-4.6-0.784-9.604-1.295-14.396c0.684-1.739,1.949-2.463,3.795-2.173c1.512,0.781,2.582,1.963,3.21,3.543C25.331,67.987,24.99,70.282,22.866,72.059z"/>
<path fill="#811713" d="M19.223,62.812c-0.042,5.215-0.087,10.431-0.132,15.649c-0.943-0.141-1.878-0.303-2.81-0.485c-0.171-4.275-0.343-8.548-0.514-12.82c-0.88-1.157-0.783-2.265,0.154-3.336C17.258,61.368,18.358,61.697,19.223,62.812z"/>
<path fill="#21190D" d="M75.606,84.402c-1.036-0.019-2.072-0.033-3.108-0.049c-0.813-0.689-1.158-1.446-1.035-2.268c0.127-0.854,0.306-1.281,0.536-1.284c1.315-0.833,2.501-0.638,3.575,0.448c0,0,0.225-0.158,0.229-0.162C75.74,82.193,75.673,83.298,75.606,84.402z"/>
<path fill="#192E48" d="M69.188,87.421c-0.936,0.019-1.871-0.007-2.8-0.083c0.003-0.003-0.159,0.116-0.159,0.116c-2.563-2.789-1.535-5.944-0.925-9.061c1.335-1.15,2.81-1.367,4.422-0.653c1.57,2.249,1.369,4.453-0.164,6.626C69.446,85.385,69.322,86.401,69.188,87.421z"/>
<path fill="#31350D" d="M69.562,84.366c-0.129-2.036-0.257-4.068-0.385-6.104c0.616-0.36,1.232-0.721,1.851-1.081c0.692,0.181,1.384,0.357,2.077,0.537c0.857,1.374,0.643,2.552-0.645,3.531c0.01,1.034,0.021,2.069,0.037,3.106c0-0.003-1.468,0.016-1.468,0.016L69.562,84.366z"/>
<path fill="#1F3A5A" d="M40.744,90.289c0.206-6.25,0.411-12.5,0.617-18.753c1.241-0.763,2.49-0.781,3.75-0.049c0.525,1.272,0.78,2.597,0.768,3.974c-0.076,1.986,0.404,4.102-1.361,5.683c-0.183,3.213-0.368,6.427-0.552,9.637C42.89,90.619,41.817,90.454,40.744,90.289z"/>
<path fill="#490909" d="M66.427,78.296c-0.067,3.055-0.133,6.109-0.198,9.161c-1.04,0.024-2.079,0.046-3.118,0.059c-0.047-3.159-0.096-6.317-0.145-9.477c-1.703-1.724-1.896-3.683-0.922-5.831c1.087-1.014,2.357-1.44,3.838-1.188c1.15,0.892,1.892,2.042,2.157,3.482C67.925,75.946,67.368,77.203,66.427,78.296z"/>
<path fill="#403520" d="M78.777,59.806c0.027,0.937-0.016,1.87-0.126,2.801c0,0.003,0.175-0.158,0.175-0.158c-1.681,1.521-3.916,1.932-5.859,2.933c-2.251,0.656-4.361,0.357-6.333-0.919c-1.086-1.05-1.793-2.319-2.178-3.771c0.034-1.492,0.436-2.878,1.247-4.136c1.56-1.541,3.331-2.773,5.398-3.549c1.427-0.217,2.829-0.082,4.202,0.36c1.174,0.803,2.278,1.693,3.31,2.677l0.225,0.546c0.882,0.732,1.167,1.452,0.856,2.16C79.384,59.454,79.08,59.806,78.777,59.806z"/>
<path fill="#504327" d="M78.777,59.806c0.02-1.074,0.039-2.148,0.059-3.22c0.879,0.83,1.758,1.657,2.634,2.484C80.568,59.302,79.671,59.546,78.777,59.806z"/>
<path fill="#490909" d="M81.469,46.707c0.114,2.112,0.229,4.227,0.345,6.336c-0.962,0.085-1.923,0.171-2.884,0.25c-1.437-0.11-2.832-0.412-4.195-0.879c-1.196-0.833-2.133-1.893-2.814-3.18c-0.637-2.121-0.596-4.218,0.244-6.284c0.776-1.208,1.803-2.151,3.069-2.829C80.818,38.995,79.598,44.315,81.469,46.707z"/>
<path fill="#5F0B0B" d="M75.105,50.375c1.274,0.971,2.547,1.944,3.822,2.918c-0.119,0.915-0.223,1.834-0.313,2.753c-1.082,0.069-2.161,0.14-3.241,0.213C73.716,54.367,73.758,52.401,75.105,50.375z"/>
<path fill="#1C150B" d="M81.469,46.707c-1.934-1.999-3.868-4.001-5.802-6l-1.018-0.891l-0.078-1.349l0.83-1.065c2.018,0.012,4.036,0.021,6.054,0.034C81.458,40.527,81.463,43.616,81.469,46.707z"/>
<path fill="#675533" d="M75.357,30.783c1.267,0.351,2.534,0.699,3.803,1.05c-1.117,0.897-2.235,1.791-3.354,2.688c-1.791,1.712-3.73,1.718-5.775,0.494c-0.682-0.799-0.977-1.639-0.882-2.526c0.095-0.91,0.238-1.364,0.429-1.364C71.421,29.584,73.336,29.273,75.357,30.783z"/>
<path fill="#504327" d="M69.709,34.57c2.032-0.019,4.063-0.034,6.096-0.052c-0.13,0.964-0.265,1.926-0.401,2.884c-0.002,0,0.122,0,0.122,0c-0.74,1.004-1.711,1.651-2.942,1.883c-1.231-0.137-2.301-0.632-3.207-1.477c-0.209-0.564-0.418-1.132-0.627-1.7C69.069,35.596,69.39,35.083,69.709,34.57z"/>
<path fill="#094836" d="M88.051,49.689c-0.963,0.113-1.929,0.162-2.895,0.138c0.052-2.051,0.101-4.099,0.153-6.149c0.958,0.067,1.907,0.177,2.849,0.339C88.123,45.908,88.088,47.797,88.051,49.689z"/>
<path fill="#BB9762" d="M75.357,30.783c-2.046,0.122-4.091,0.241-6.137,0.363c-0.202-0.559-0.403-1.114-0.604-1.673c0.363-1.175,1.079-2.069,2.149-2.676c1.189-0.167,2.376-0.162,3.563,0.012c0.392,0.452,0.782,0.903,1.175,1.355C75.487,29.041,75.438,29.913,75.357,30.783z"/>
<path fill="#B38F5A" d="M75.751,25.473c0.95-0.18,1.909-0.25,2.873-0.21c-1.04,0.97-2.079,1.935-3.12,2.902l0.081,0.028c-0.688-0.498-1.375-0.995-2.063-1.489C74.265,26.291,75.008,25.882,75.751,25.473z"/>
<path fill="#57690D" d="M22.759,43.457c-0.253-2.005-0.507-4.007-0.76-6.012c-0.809-1.425-0.643-2.723,0.5-3.9c0.729-0.168,1.457-0.339,2.187-0.507c0.674,0.33,1.347,0.659,2.022,0.989c1.077,1.089,1.799,2.38,2.22,3.848c0.214,2.389-0.485,4.446-2.212,6.134C25.26,44.803,23.94,44.62,22.759,43.457z"/>
<path fill="#363636" d="M22.759,43.457c0.914,0.171,1.834,0.314,2.759,0.427c1.239,0.766,2.098,1.846,2.635,3.192c0.411,2.225-0.085,4.196-1.628,5.878c-1.225,0.833-2.551,1.053-3.979,0.659c0,0-0.209-1.041-0.209-1.044C22.476,49.53,22.617,46.494,22.759,43.457z"/>
<path fill="#1D160D" d="M13.081,34.68c0.015-1.141,0.032-2.283,0.047-3.424c0.001,0-0.063,0.021-0.063,0.021c1.201-1.568,2.916-1.563,4.645-1.522c1.212,0.122,2.115,0.726,2.753,1.745c0.03,0.577,0.061,1.151,0.09,1.728c-0.417,0.396-0.834,0.793-1.252,1.187c-1.058,0.028-2.117,0.052-3.174,0.077c-1.12,1.306-2.178,1.257-3.172-0.146L13.081,34.68z"/>
<path fill="#1D160D" d="M22.225,34.741c0.049,0.913-0.026,1.813-0.223,2.704c-0.902-1.01-1.802-2.021-2.701-3.031l0.026-0.04C20.442,33.313,21.408,33.435,22.225,34.741z"/>
<path fill="#6C0D0D" d="M12.955,34.345c1.058,0.045,2.116,0.091,3.172,0.143c-0.009,0.897-0.078,1.786-0.214,2.67c-0.995,0.195-1.993,0.333-2.998,0.412C12.929,36.496,12.943,35.419,12.955,34.345z"/>
<path fill="#140F09" d="M53.919,81.231c-0.019-3.058-0.038-6.118-0.057-9.18c0.378-0.491,0.757-0.979,1.134-1.471c1.145-0.531,2.341-0.711,3.589-0.534c1.17,0.504,2.018,1.328,2.488,2.521c-0.024,2.915-2.347,4.081-4.241,5.569C55.861,79.169,54.89,80.2,53.919,81.231z"/>
<path fill="#1B150B" d="M56.832,78.137c1.059-2.065,2.119-4.135,3.178-6.204c1.06-0.787,2.117-0.787,3.177-0.003c-0.071,2.036-0.145,4.074-0.218,6.113C60.921,78.073,58.876,78.106,56.832,78.137z"/>
<path fill="#6B5834" d="M44.463,72.477c-1.036-0.312-2.071-0.626-3.104-0.938c-0.142-1.004-0.273-2.008-0.397-3.015c0.482-0.415,0.963-0.833,1.444-1.251c1.245-0.363,2.488-0.376,3.732,0.012c0.478,0.421,0.956,0.842,1.431,1.264c-0.104,1.291-0.209,2.582-0.314,3.872C46.351,73.81,45.419,73.828,44.463,72.477z"/>
<path fill="#281F10" d="M44.518,81.144c0.081-2.058,0.162-4.114,0.243-6.168c0.663-0.016,1.323-0.03,1.984-0.046c0.096,2.109,0.194,4.221,0.287,6.329C46.19,81.231,45.354,81.192,44.518,81.144z"/>
<path fill="#8A7149" d="M50.362,68.619c-0.933-0.031-1.863-0.053-2.794-0.067c0.001-0.003-0.073,0.195-0.073,0.195c-0.633-0.699-0.848-1.404-0.645-2.112c0.204-0.708,0.41-1.062,0.619-1.062c1.109-0.662,2.256-0.767,3.444-0.229c0.171,0.59,0.343,1.179,0.516,1.771C51.073,67.615,50.718,68.115,50.362,68.619z"/>
<path fill="#3A2F1D" d="M53.862,72.052c-1.166-1.145-2.333-2.288-3.5-3.433l0.144,0.063c1.151-1.093,2.396-1.156,3.72-0.329c0.817,1.346,0.656,2.6-0.348,3.781L53.862,72.052z"/>
<path fill="#21190E" d="M46.744,74.93c-0.662,0.021-1.326,0.033-1.987,0.046c-0.183-0.824-0.282-1.66-0.294-2.503c0.928-0.188,1.858-0.21,2.792-0.055C47.147,73.27,46.976,74.106,46.744,74.93z"/>
<path fill="#9E834D" d="M31.549,31.644c0.11-1.147,0.22-2.298,0.33-3.448c0.305-0.577,0.61-1.15,0.918-1.728c1.045-0.827,2.22-1.358,3.534-1.596c1.355,0.03,2.612,0.391,3.801,1.037c1.036,0.925,1.702,2.063,2.057,3.4c-0.118,1.41-0.668,2.625-1.587,3.687c-2.521,1.804-5.097,1.935-7.733,0.266C32.428,32.724,31.989,32.184,31.549,31.644z"/>
<path fill="#695433" d="M28.592,21.768c2.071,0.134,4.141,0.272,6.212,0.406c0.365,0.412,0.731,0.821,1.097,1.233c-0.024,0.549-0.049,1.099-0.073,1.647c-0.401,0.375-0.804,0.748-1.206,1.123c-1.073,0.257-2.159,0.348-3.259,0.253c-1.045-0.387-1.912-1.022-2.599-1.901C28.789,23.606,28.731,22.684,28.592,21.768z"/>
<path fill="#B1905A" d="M19.226,24.897c1.117,0.058,2.234,0.119,3.351,0.177c0.955,1.132,1.911,2.265,2.866,3.394c-2.144,1.663-4.17,1.459-6.091-0.385C19.309,27.021,19.268,25.958,19.226,24.897z"/>
<path fill="#695433" d="M19.351,28.082c2.031,0.128,4.062,0.253,6.091,0.385c0.011,0.967,0.015,1.932,0.014,2.899c-0.449,0.412-0.896,0.827-1.344,1.239c-1.842,0.205-3.638,0.22-5.059-1.263l0.185,0.171c-0.638-0.595-1.274-1.19-1.912-1.786c0.691-0.531,1.384-1.062,2.075-1.593L19.351,28.082z"/>
<path fill="#695433" d="M25.456,31.366c2.031,0.088,4.062,0.18,6.093,0.274c0,0.003-0.003-0.256-0.003-0.256c0.859,0.815,1.172,1.654,0.94,2.518c-0.235,0.879-0.488,1.318-0.758,1.318c-2.243,1.151-4.34,0.983-6.265-0.702l0.105-0.083c-0.665-0.546-1.332-1.092-1.999-1.639c0.682-0.528,1.364-1.056,2.045-1.584L25.456,31.366z"/>
<path fill="#B1905A" d="M28.765,24.53c1.053,0.387,2.105,0.775,3.159,1.159c0.745,0.434,1.491,0.864,2.235,1.294c-0.778,0.37-1.557,0.739-2.333,1.108c0,0,0.053,0.101,0.053,0.104C30.841,26.975,29.802,25.751,28.765,24.53z"/>
<path fill="#9E834D" d="M34.947,18.689c1.136-0.034,2.269-0.07,3.404-0.104c0.215,0.495,0.429,0.992,0.644,1.486c-0.183,1.102-0.708,2.005-1.575,2.707c-1.12,0.449-2.003,0.162-2.652-0.854c0,0,0.035,0.241,0.035,0.247C34.851,21.011,34.9,19.852,34.947,18.689z"/>
<path fill="#695433" d="M37.966,15.527c1.066-0.141,2.131-0.278,3.197-0.418c1.112,1.193,2.223,2.39,3.335,3.586c-0.849,1.037-1.95,1.62-3.27,1.81c-1.343-0.18-2.367-0.846-3.073-2.002c0,0,0.189,0.082,0.192,0.082C38.178,17.572,38.05,16.553,37.966,15.527z"/>
<path fill="#8C7147" d="M19.402,28.134c-0.053,1.123-0.107,2.246-0.162,3.375c-2.059-0.076-4.117-0.156-6.174-0.232c0.023-1.025-0.057-2.039-0.243-3.045C15.014,28.201,17.207,28.168,19.402,28.134z"/>
<path fill="#2F3A07" d="M74.961,71.815c0.256,1.095,0.511,2.193,0.769,3.292c-0.081,1.011-0.137,2.021-0.169,3.034c-1.044,1.37-2.08,1.363-3.108-0.019l0.038,0.033c-0.972-0.823-1.658-1.837-2.018-3.066c0.013-1.282,0.412-2.436,1.149-3.479C72.785,70.883,73.897,70.953,74.961,71.815z"/>
<path fill="#1B150B" d="M72.452,78.122c1.042,0,2.084,0.003,3.117,0.009c0.008,1.047,0.014,2.082,0.006,3.119c-1.042,0-2.081,0-3.117,0C72.458,80.206,72.455,79.166,72.452,78.122z"/>
<path fill="#1B150B" d="M74.961,71.815c-0.829,0.042-1.659,0.082-2.49,0.115c-1.073-0.888-1.701-2.035-1.947-3.399c0.105-0.668,0.214-1.337,0.318-2.005c0.401-0.547,0.805-1.09,1.206-1.633c1.358-0.567,2.545-0.317,3.563,0.741c-0.065,1.017-0.033,2.033,0.098,3.04C75.461,69.718,75.211,70.764,74.961,71.815z"/>
<path fill="#16110A" d="M75.61,65.634c-1.129-0.061-2.26-0.122-3.391-0.183c-0.758-0.814-0.928-1.52-0.513-2.115c0.377-0.537,0.731-0.806,1.067-0.806c2.016-0.027,4.031-0.055,6.05-0.082C77.753,63.51,76.682,64.572,75.61,65.634z"/>
<path fill="#756B07" d="M36.599,75.879c-1.633-0.095-3.264-0.187-4.895-0.281c-0.91-0.951-1.588-2.041-2-3.295c0.009-1.322,0.35-2.549,1.076-3.662c1.096-0.781,2.307-1.06,3.635-0.827c1.945,0.896,2.717,2.634,3.241,4.547C37.302,73.532,36.951,74.704,36.599,75.879z"/>
<path fill="#8A7149" d="M40.962,68.524c-0.979,0.098-1.95,0.253-2.911,0.467c-0.397-0.418-0.793-0.833-1.19-1.251c0.023-1.203,0.488-2.186,1.46-2.912c1.186-0.149,2.25,0.122,3.18,0.889c0.727,1.077,0.575,2.054-0.331,2.947L40.962,68.524z"/>
<path fill="#1D160D" d="M37.654,72.36c-0.874-1.236-1.747-2.472-2.621-3.708c0.491-0.382,0.981-0.76,1.472-1.139c0.514,0.346,1.03,0.69,1.546,1.038c0,0-0.005,0.437-0.001,0.437C37.92,70.114,37.787,71.237,37.654,72.36z"/>
<path fill="#343010" d="M30.724,72.01c0.328,1.192,0.656,2.386,0.981,3.585c-0.072,0.935-0.246,1.847-0.523,2.741c-0.815-0.056-1.625-0.144-2.432-0.263c-0.223-1.022-0.444-2.045-0.667-3.07C27.259,72.504,28.69,71.991,30.724,72.01z"/>
<path fill="#A78852" d="M50.194,18.976c2.101-0.988,4.2-1.978,6.299-2.966c1.164-0.156,2.328-0.312,3.494-0.47c2.083,1.092,4.167,2.185,6.25,3.274c-0.002,0-0.079-0.205-0.079-0.205c1.245,0.934,1.588,2.155,1.148,3.629c-0.56,1.34-1.37,2.496-2.434,3.485c-2.446,1.599-4.896,3.168-8.045,2.521c-2.832-0.952-5.326-2.359-6.87-5.06C49.501,21.753,49.557,20.346,50.194,18.976z"/>
<path fill="#281F10" d="M16.242,62.655c-0.114,0.843-0.273,1.676-0.475,2.5c-0.903-0.889-1.805-1.773-2.707-2.661c1.14-1.114,2.281-2.231,3.422-3.345l1.043,1.102C17.887,61.475,17.458,62.274,16.242,62.655z"/>
<path fill="#766239" d="M15.953,56.277c1.18,0.095,2.359,0.192,3.54,0.29c0.816,1.205,0.824,2.414,0.023,3.632c-1.405,0.649-2.447,0.238-3.18-1.084c0,0,0.144,0.037,0.145,0.034C16.286,58.197,16.109,57.238,15.953,56.277z"/>
<path fill="#57690D" d="M22.545,53.613c1.04-0.241,2.079-0.482,3.118-0.727c0.319,0.442,0.638,0.885,0.957,1.328c0.054,1.145-0.348,2.093-1.204,2.85c-0.542,0.067-1.083,0.138-1.624,0.208c-0.457-0.299-0.913-0.599-1.369-0.897C22.454,55.453,22.495,54.535,22.545,53.613z"/>
<path fill="#8A7149" d="M19.443,58.881c-0.007-0.775,0.008-1.551,0.047-2.319c0.972-0.153,1.949-0.217,2.931-0.187c0.001,0-0.122-0.116-0.122-0.116c0.707,0.642,0.971,1.31,0.792,2.005c-0.183,0.712-0.383,1.065-0.601,1.065C21.341,60.08,20.327,59.931,19.443,58.881z"/>
<path fill="#695433" d="M66.443,21.75c-0.095-1.047-0.188-2.091-0.284-3.137c2.095,0.045,4.19,0.098,6.287,0.149c0,1.019,0.063,2.039,0.19,3.052c-1.177,0.052-2.357,0.104-3.54,0.156C68.134,22.83,67.25,22.754,66.443,21.75z"/>
<path fill="#B38F5A" d="M66.443,21.75c0.885,0.079,1.771,0.152,2.655,0.22c0.278,0.958,0.558,1.917,0.833,2.875c-0.463,0.507-0.925,1.013-1.389,1.523c-2.031,0.961-3.965,0.775-5.808-0.488c-0.819-1.224-0.912-2.481-0.171-3.775C63.856,21.985,65.15,21.866,66.443,21.75z"/>
<path fill="#9E834D" d="M75.751,25.473c-0.078,0.903-0.133,1.81-0.166,2.719c-2.169,0.04-4.335,0.079-6.504,0.119c-0.354-0.506-0.709-1.013-1.064-1.52c0.22-0.577,0.439-1.154,0.659-1.733c0,0,1.249-0.214,1.253-0.214C71.871,25.052,73.811,25.263,75.751,25.473z"/>
<path fill="#6C5735" d="M50.194,18.976c0.214,0.977,0.312,1.966,0.291,2.967c-0.367,0.586-0.735,1.175-1.103,1.761c-1.128,0.839-2.385,1.376-3.772,1.608c-2.189-0.062-4.004-0.885-5.351-2.646c-0.449-1.392-0.221-2.661,0.68-3.809c1.186-0.055,2.372-0.11,3.559-0.162C46.396,18.787,48.296,18.881,50.194,18.976z"/>
<path fill="#281F10" d="M30.724,72.01c-0.875,0.997-1.753,1.995-2.635,2.993c-0.655-0.003-1.305-0.009-1.953-0.012c-1.09-0.977-2.181-1.953-3.271-2.93c-0.005-2.164-0.011-4.325-0.017-6.485c1.54-1.837,3.493-2.191,5.713-1.6c2.023,1.029,3.302,2.585,3.502,4.914C31.617,69.931,31.171,70.969,30.724,72.01z"/>
<path fill="#1D160D" d="M19.443,58.881c0.978,0.326,1.973,0.586,2.988,0.775c0,0,0.92,0.82,0.922,0.82l-0.002,1.236l-0.941,0.799c-1.061,0.098-2.122,0.195-3.185,0.297c-0.001,0.003-1.486-0.192-1.486-0.192l-1.497,0.036c0.031-1.175,0.061-2.353,0.093-3.533C17.372,59.036,18.407,58.957,19.443,58.881z"/>
<path fill="#1F170D" d="M28.621,65.707c-1.927-0.045-3.856-0.088-5.778-0.131c-0.223-1.01-0.368-2.032-0.434-3.064l0.003,0.021c1.308-1.633,2.968-2.054,4.932-1.434c1.059,0.714,1.771,1.675,2.077,2.926C29.155,64.584,28.888,65.146,28.621,65.707z"/>
<path fill="#1B150B" d="M72.339,75.016c0.049,1.047,0.1,2.093,0.149,3.14c-1.102,0.034-2.203,0.067-3.308,0.104c-0.003,0.003-1.384-0.034-1.384-0.034s-1.38,0.067-1.375,0.067c-0.026-1.09-0.055-2.182-0.084-3.277C68.338,73.142,70.339,73.142,72.339,75.016z"/>
<path fill="#20170C" d="M72.339,75.016c-2.003,0-4.005,0-6.004,0c-0.081-1.022-0.133-2.045-0.152-3.073c-0.683-1.38-0.561-2.655,0.5-3.809c2.074-1.193,4.022-1.233,5.771,0.613c0.005,1.059,0.011,2.121,0.018,3.183C72.447,72.961,72.403,73.99,72.339,75.016z"/>
<path fill="#140F09" d="M66.228,68.793c-0.015,1.05-0.029,2.1-0.045,3.149c-0.001,0-1.501-0.03-1.501-0.03s-1.502,0.015-1.499,0.015c-1.057,0.003-2.116,0.003-3.174,0.003c0,0.003-0.058-0.058-0.058-0.058c-1.193-2.64,0.34-3.781,2.512-4.575c0.7,0.064,1.4,0.132,2.101,0.195C65.12,67.926,65.674,68.359,66.228,68.793z"/>
<path fill="#1B232D" d="M75.105,50.375c0.09,1.96,0.18,3.922,0.271,5.884c-0.903,0.031-1.806,0.073-2.706,0.119c-0.89,0.69-1.886,1.15-2.989,1.383c-1.147,0.098-2.098,0.592-2.881,1.428c-0.12,1.166-0.242,2.329-0.362,3.495c-0.71,0.308-1.421,0.619-2.129,0.928c-1.572-0.214-2.911-0.892-4.017-2.03c-2.271-3.464-1.737-7.376-1.789-11.19c0.093-2.301,0.384-4.556,1.579-6.586c0.963-1.172,2.148-2.06,3.526-2.679c2.187-0.574,4.245-0.253,6.128,1.007c1.089,0.802,2.075,1.739,2.938,2.792c1.153,1.618,1.509,3.671,2.754,5.262L75.105,50.375z"/>
<path fill="#5B492D" d="M72.774,62.53c-0.198,0.974-0.38,1.947-0.551,2.924c-0.004-0.003,0.126-0.024,0.126-0.024c-1.075,1.749-2.806,1.721-4.542,1.682c-1.182-0.205-2.127-0.787-2.839-1.749c-0.231-1.235,0.191-2.179,1.267-2.829c0,0,0.197,0.146,0.2,0.15C68.549,62.635,70.661,62.582,72.774,62.53z"/>
<path fill="#3B4809" d="M66.8,59.189c0.815-0.931,1.63-1.861,2.445-2.792c0.95,0.668,1.257,1.321,0.924,1.962c-0.327,0.635-0.654,0.952-0.982,0.952C68.391,59.28,67.596,59.24,66.8,59.189z"/>
<path fill="#2F3A07" d="M69.186,59.311c0.046-0.97,0.065-1.943,0.059-2.914c1.14-0.006,2.28-0.012,3.424-0.019C71.509,57.355,70.348,58.334,69.186,59.311z"/>
<path fill="#5F0B0B" d="M75.429,50.187c-1.137-1.041-2.271-2.082-3.408-3.119c-0.856-1.233-0.93-2.484-0.098-3.757c1.305-0.836,2.513-0.678,3.639,0.345C75.518,45.831,75.474,48.01,75.429,50.187z"/>
<path fill="#1B150B" d="M75.561,43.655c-0.977,0.076-1.954,0.144-2.933,0.211c-0.674-0.781-0.993-1.618-0.957-2.512c0.037-0.925,0.146-1.386,0.324-1.389c1.367-0.812,2.561-0.653,3.554,0.635c0,0,0.114,0.104,0.116,0.104C75.618,41.69,75.583,42.673,75.561,43.655z"/>
<path fill="#16110A" d="M75.55,40.601l-1.453,0.006l-1.452-0.012c-0.765-0.626-1.018-1.251-0.765-1.874c0.253-0.625,0.507-0.94,0.763-0.94c0.957-0.162,1.92-0.284,2.884-0.373C75.533,38.467,75.54,39.536,75.55,40.601z"/>
<path fill="#BB9762" d="M69.221,31.147c0.161,1.141,0.324,2.282,0.488,3.424l-0.59-0.378c-2.995,0.815-3.685-0.656-3.229-3.262c1.316-0.919,2.502-0.775,3.562,0.43L69.221,31.147z"/>
<path fill="#9E834D" d="M66.397,31.665c0.908,0.842,1.814,1.685,2.722,2.527c0.066,1.102,0.133,2.204,0.199,3.308c-0.415,0.559-0.83,1.117-1.245,1.675c-1.893,1.211-3.9,1.331-5.995,0.638c-1.947-1.063-3.156-2.683-3.655-4.834c-0.068-1.413,0.296-2.719,1.027-3.925c1.059-0.922,2.301-1.425,3.694-1.56C64.54,29.746,65.625,30.469,66.397,31.665z"/>
<path fill="#2F3A07" d="M72.643,37.781c-0.063,0.94-0.063,1.877-0.001,2.814c-0.005,1.089-0.011,2.179-0.016,3.268c-0.196,1.068-0.396,2.133-0.602,3.202c-0.854,0.049-1.702,0.104-2.551,0.167c-1.929-1.559-1.877-3.885-2.325-6.015c0.358-1.461,1.048-2.746,2.026-3.885l0.144,0.168C70.428,37.592,71.535,37.686,72.643,37.781z"/>
<path fill="#695433" d="M66.397,31.665c-1.061-0.146-2.122-0.29-3.183-0.434c-0.452-0.485-0.905-0.97-1.357-1.456c0.191-1.388,0.884-2.417,2.159-3.027c1.966-0.113,3.997-0.436,5.259,1.667c0,0-0.187-0.104-0.189-0.104c0.151,1.013,0.273,2.026,0.365,3.049C68.421,31.338,67.403,31.44,66.397,31.665z"/>
<path fill="#6E5B36" d="M25.463,34.519c2.119-0.046,4.237-0.095,6.356-0.141c4.015-3.165,7.107-0.754,10.196,1.682c0.725,1.407,0.947,2.899,0.743,4.458c-0.641,1.413-1.606,2.561-2.882,3.439c-2.101,0.934-4.303,1.083-6.55,0.754c-2.211-0.583-3.816-1.941-4.929-3.913c-0.823-1.169-1.73-2.271-2.724-3.302C25.601,36.505,25.531,35.513,25.463,34.519z"/>
<path fill="#46550A" d="M25.673,37.497c1.112,0.155,2.225,0.311,3.337,0.467c0.746,1.028,1.297,2.151,1.651,3.375c0.522,1.181,0.704,2.408,0.498,3.69c-0.468,1.217-1.244,2.191-2.322,2.92c-1.349,0.33-2.413-0.082-3.194-1.227c-0.037-0.946-0.078-1.896-0.125-2.841C25.569,41.754,25.621,39.627,25.673,37.497z"/>
<path fill="#8A7149" d="M25.614,31.213c-0.015,1.074-0.029,2.146-0.044,3.223c-1.115,0.101-2.23,0.198-3.345,0.302c-0.949-0.253-1.915-0.375-2.897-0.363c0.006-1.02-0.083-2.032-0.27-3.033C21.241,31.299,23.427,31.256,25.614,31.213z"/>
<path fill="#2F2F2F" d="M25.643,46.723c0.864,0.073,1.73,0.128,2.597,0.167c2.077,1.556,2.153,3.498,1.088,5.658c-1.12,1.057-2.394,1.355-3.845,0.778c0,0,0.179-0.434,0.18-0.437C25.656,50.833,25.649,48.779,25.643,46.723z"/>
<path fill="#463A22" d="M63.224,68.451c-1.091,1.141-2.181,2.282-3.271,3.421c-2.024,0.089-4.052,0.174-6.076,0.259c-0.058-1.138-0.117-2.276-0.176-3.418c-1.228-0.928-1.566-2.136-1.134-3.588c0.823-1.166,1.9-2.023,3.197-2.606c1.381-0.296,2.757-0.244,4.121,0.106c1.224,0.656,2.396,1.4,3.512,2.23C64.313,66.098,64.211,67.294,63.224,68.451z"/>
<path fill="#4E3E26" d="M41.17,68.664c-0.033-0.931-0.102-1.858-0.206-2.783c0.333-0.506,0.667-1.013,1-1.522c1.085-0.595,2.242-0.882,3.482-0.814c0.568,0.223,1.134,0.445,1.7,0.668c0.383,0.474,0.766,0.946,1.148,1.419c-0.267,1.041-0.534,2.078-0.801,3.116C45.386,68.72,43.279,68.692,41.17,68.664z"/>
<path fill="#7C6A4C" d="M49.881,65.704c-0.529-0.019-1.059-0.042-1.587-0.073l-1.439-0.092c-1.355-1.522-2.917-2.862-4.041-4.602c-0.458-1.361-0.495-2.726-0.168-4.123c0.74-1.291,1.81-2.188,3.18-2.756c1.497-0.22,2.941-0.082,4.356,0.464c1.272,0.879,2.235,2.009,2.908,3.396C53.887,61.288,53.027,63.968,49.881,65.704z"/>
<path fill="#5B4A2E" d="M49.881,65.704c-0.065-3.076-0.131-6.152-0.196-9.229c0.641-0.36,1.283-0.723,1.924-1.083c1.495,0.241,2.747,0.915,3.717,2.09c1.551,3.073,0.704,5.671-1.58,7.984c-0.016,1.083-0.029,2.166-0.045,3.246c-1.064-0.009-2.13-0.018-3.194-0.03C50.404,67.667,50.197,66.675,49.881,65.704z"/>
<path fill="#B2905A" d="M41.339,37.753c-3.174-1.126-6.346-2.252-9.52-3.375c-0.082-1.001-0.172-1.996-0.271-2.994c3.246-0.067,6.493-0.134,9.74-0.205c0.603,0.217,1.206,0.434,1.81,0.647c1.52,1.392,2.229,3.034,1.573,5.097C43.75,37.964,42.64,38.238,41.339,37.753z"/>
<path fill="#735E39" d="M41.288,31.18c-0.024-1.034-0.035-2.069-0.031-3.104c0.518-0.445,1.036-0.891,1.555-1.337c2.159-0.58,4.008-0.18,5.384,1.712c0.063,1.437-0.41,2.664-1.422,3.687c-2.073,0.992-3.946,0.839-5.53-0.967L41.288,31.18z"/>
<path fill="#735E39" d="M41.257,28.076c-1.089-0.107-2.179-0.214-3.267-0.32c-0.375-0.586-0.751-1.175-1.126-1.764c0.369-0.592,0.738-1.187,1.106-1.779c1.374-0.519,2.686-0.394,3.935,0.375c0.655,1.398,0.354,2.594-0.775,3.61L41.257,28.076z"/>
<path fill="#695433" d="M38.164,25.235c-0.049,0.842-0.107,1.685-0.174,2.524c-0.963,0.18-1.934,0.299-2.913,0.351c-1.1-0.711-1.469-1.425-1.109-2.146c0.36-0.72,0.722-1.083,1.09-1.083l-0.208,0.223C36.013,23.7,37.12,23.676,38.164,25.235z"/>
<path fill="#BB9762" d="M35.058,24.881c0.006,1.077,0.012,2.151,0.02,3.229c-1.083-0.006-2.168-0.012-3.251-0.019c0.038-0.802,0.072-1.608,0.098-2.405C32.968,25.421,34.012,25.152,35.058,24.881z"/>
<path fill="#BB9762" d="M38.164,25.235c-1.104-0.042-2.209-0.088-3.314-0.131c-0.024-1.062-0.05-2.121-0.078-3.18c1.114,0,2.232-0.003,3.351-0.006c0.418,0.467,0.837,0.931,1.259,1.395c-0.526,0.339-1.055,0.677-1.583,1.013L38.164,25.235z"/>
<path fill="#BB9762" d="M40.939,18.857c0.249,0.97,0.437,1.953,0.568,2.948c-1.122,1.465-2.268,1.483-3.438,0.061c0,0,0.05,0.052,0.052,0.052c0.011-1.136,0.021-2.274,0.032-3.412C39.08,18.643,40.009,18.762,40.939,18.857z"/>
<path fill="#151009" d="M66.102,65.533c2.083-0.033,4.166-0.063,6.247-0.101c0.034,1.102,0.069,2.21,0.104,3.314c-2.074,0.015-4.15,0.03-6.225,0.046l-0.165-0.189c-0.935-0.695-1.237-1.383-0.916-2.06C65.467,65.869,65.785,65.533,66.102,65.533z"/>
<path fill="#21190E" d="M32.062,68.891c-1.146-1.063-2.293-2.124-3.441-3.184l0.183-0.177c1.155-1.571,2.713-2.182,4.628-1.944c1.149,0.431,2.036,1.172,2.666,2.226c0.209,1.263-0.199,2.276-1.224,3.042l0.159-0.201C34.038,68.674,33.048,68.753,32.062,68.891z"/>
<path fill="#4E3E26" d="M40.964,65.881l-1.376-0.055l-1.378,0.055c-1.238,1.206-2.393,1.13-3.464-0.226l0.171,0.184c-0.647-0.751-0.906-1.532-0.778-2.347c0.131-0.827,0.293-1.242,0.485-1.245c0.975-0.959,2.124-1.584,3.476-1.835c1.37,0.086,2.607,0.528,3.694,1.374c0.679,1.294,0.548,2.496-0.394,3.613L40.964,65.881z"/>
<path fill="#766239" d="M34.746,65.655c1.153,0.07,2.306,0.144,3.462,0.22c-0.067,0.897-0.119,1.789-0.156,2.677c-1.061,0.101-2.12,0.201-3.179,0.302C34.831,67.789,34.789,66.721,34.746,65.655z"/>
<path fill="#6C5735" d="M62.564,22.104c0.333,0.989,0.665,1.978,0.996,2.966c0.631,0.668,1.261,1.333,1.891,1.999c-0.83,0.391-1.658,0.781-2.488,1.172l0.233-0.226c-0.856,1.041-1.947,1.663-3.276,1.874c-1.354,0.067-2.529-0.372-3.555-1.242c-0.161-0.632-0.322-1.264-0.482-1.895c0.325-0.568,0.649-1.132,0.975-1.7C58.759,24.069,60.662,23.086,62.564,22.104z"/>
<path fill="#735E39" d="M50.485,21.942c2.124,1.037,4.248,2.075,6.371,3.109c0.001,0,0.093-0.137,0.093-0.137c-0.938,1.056-2.1,1.727-3.485,2.011c-1.408-0.113-2.642-0.638-3.697-1.575c-0.551-1.398-0.258-2.588,0.879-3.574L50.485,21.942z"/>
<path fill="#4E3E26" d="M22.431,59.656c-0.042-1.133-0.085-2.265-0.13-3.397c1.088-0.03,2.179-0.063,3.269-0.095c1.143-1.221,2.347-1.224,3.603-0.174c0.353,1.496,0.037,2.836-0.952,4.014c-2.101,0.979-4.146,1.376-5.979-0.543L22.431,59.656z"/>
<path fill="#46550A" d="M28.563,56.19l-1.497,0.015c0,0-1.497-0.033-1.497-0.036c0.001-0.952-0.026-1.904-0.084-2.848c1.109-0.079,2.222-0.168,3.334-0.253c0.232,0.543,0.464,1.083,0.694,1.626C29.198,55.191,28.881,55.691,28.563,56.19z"/>
<path fill="#BB9762" d="M62.963,28.241c0.199-1.056,0.398-2.112,0.598-3.171c1.709-0.003,3.418-0.006,5.121-0.012c0.193,1.12,0.393,2.237,0.592,3.357C67.171,28.357,65.066,28.299,62.963,28.241z"/>
<path fill="#AC8C55" d="M38.069,21.866c1.145-0.021,2.288-0.04,3.435-0.058c2.019,0.153,4.036,0.309,6.051,0.464c0.884,1.364,0.802,2.625-0.407,3.763c-2.164,0.5-4.329,1.013-6.116-0.937c-1.077-0.253-2.153-0.51-3.232-0.766C37.905,23.508,37.995,22.687,38.069,21.866z"/>
<path fill="#BB9762" d="M47.496,24.96c-0.012-0.9,0.008-1.801,0.06-2.695c1.03-0.159,2.059-0.32,3.089-0.485c0.004,1.071,0.008,2.143,0.011,3.214C49.592,25.949,48.538,25.937,47.496,24.96z"/>
<path fill="#755E3B" d="M22.24,59.461c2.217-0.113,4.436-0.229,6.652-0.342l0.843,1.138c0,0-0.081,1.413-0.081,1.416c0.001,0-1.062,0.934-1.062,0.934c-2.06-0.024-4.12-0.049-6.18-0.073C22.327,61.512,22.27,60.486,22.24,59.461z"/>
<path fill="#766239" d="M34.984,62.408c-0.021,1.142-0.044,2.283-0.067,3.428c-2.039-0.102-4.077-0.202-6.114-0.306c-0.076-0.977-0.146-1.953-0.209-2.927c-0.001,0.003,0.079-0.058,0.079-0.058c1.307-1.66,2.977-2.045,4.939-1.416C34.07,61.557,34.528,61.984,34.984,62.408z"/>
<path fill="#5F4D31" d="M66.102,65.533c0.043,1.025,0.031,2.048-0.038,3.07c-0.001,0-1.427,0-1.427,0s-1.416-0.149-1.416-0.152c-0.073-0.928-0.108-1.858-0.102-2.789c1.048-1.456,2.086-1.447,3.109,0.027L66.102,65.533z"/>
<path fill="#094836" d="M62.967,49.686c0.026,4.261,0.051,8.518,0.077,12.777c-1.28,1.041-2.628,1.188-4.052,0.303c-2.313-2.423-2.184-5.518-2.336-8.529c0.367-1.48,1.066-2.79,2.092-3.919C60.053,49.433,61.464,49.252,62.967,49.686z"/>
<path fill="#3B4809" d="M69.165,40.387c0.103,2.28,0.205,4.56,0.309,6.842c-1.161-1.206-2.322-2.417-3.485-3.625c-0.841-1.175-0.964-2.398-0.261-3.684C67.002,39.124,68.149,39.279,69.165,40.387z"/>
<path fill="#151009" d="M62.967,49.686c-0.929,0.257-1.861,0.501-2.798,0.732c-0.645-0.201-1.288-0.402-1.934-0.604c-1.031-0.909-1.774-2.005-2.191-3.32c0.007-1.404,0.481-2.609,1.497-3.589c1.258-0.586,2.563-0.76,3.923-0.464c0.531,0.421,1.061,0.842,1.592,1.266C63.026,45.7,62.996,47.693,62.967,49.686z"/>
<path fill="#352A1A" d="M60.254,62.207c0.925,0.155,1.855,0.241,2.791,0.256c1.061,0.021,2.124,0.046,3.189,0.07c-0.002,1.05-0.003,2.1-0.005,3.152c0,0.004-1.557-0.036-1.557-0.036s-1.558,0.009-1.556,0.009c-1.095-0.036-2.191-0.073-3.289-0.109C58.904,64.298,59.046,63.187,60.254,62.207z"/>
<path fill="#140F09" d="M66.018,40.918c0.061,0.897,0.055,1.794-0.024,2.688c-0.981,0.04-1.959,0.073-2.938,0.101l-0.071-0.079C62.459,41.003,62.963,39.532,66.018,40.918z"/>
<path fill="#624F32" d="M66.018,40.918c-1.01,0.903-2.021,1.81-3.032,2.71c-1.891,0.229-3.779,0.458-5.669,0.687c-0.449-0.552-0.901-1.102-1.352-1.654c-0.133-2.334,0.89-4.074,2.777-5.365c1.354-0.537,2.727-0.58,4.112-0.125c2.107,0.055,4.213,0.11,6.32,0.162c0.063,1.02,0.063,2.042-0.007,3.058C68.117,40.564,67.067,40.741,66.018,40.918z"/>
<path fill="#B38F5A" d="M60.002,31.177c-0.007,1.059-0.014,2.121-0.02,3.183c-0.508,0.476-1.016,0.955-1.522,1.431c-1.395,0.269-2.737,0.119-4.018-0.513c-0.441-0.534-0.884-1.068-1.325-1.599c-0.318-1.447,0.112-2.646,1.192-3.631c1.347-0.339,2.707-0.409,4.08-0.162C58.927,30.316,59.464,30.747,60.002,31.177z"/>
<path fill="#BB9762" d="M60.373,28.32c0.943-0.088,1.883-0.189,2.823-0.305c0.005,1.071,0.011,2.146,0.017,3.216c-1.069-0.018-2.141-0.036-3.211-0.055l-0.034,0.079c-0.68-0.592-1.358-1.184-2.037-1.776C58.745,29.092,59.559,28.708,60.373,28.32z"/>
<path fill="#B38F5A" d="M62.854,37.17l-1.476,0.253l-1.497-0.043c-0.386-0.503-0.773-1.007-1.161-1.507c0.402-0.492,0.806-0.983,1.209-1.474l0.053-0.04C60.939,35.297,61.897,36.233,62.854,37.17z"/>
<path fill="#221A0E" d="M29.068,43.765c0.032-1.053,0.064-2.103,0.096-3.152c0.926-1.245,1.874-1.203,2.843-0.052c2.105,0.009,4.209,0.018,6.315,0.027c0.648,1.325,0.577,2.606-0.212,3.854c-1.605,1.547-3.522,2.063-5.698,1.703C31.131,45.587,30.023,44.781,29.068,43.765z"/>
<path fill="#8A7149" d="M38.379,43.46c-0.139-0.955-0.159-1.913-0.057-2.872c1.018-0.006,2.034-0.052,3.047-0.134c1.266-0.632,2.321-0.381,3.167,0.757c0.212,1.331-0.168,2.46-1.141,3.391c-1.207,0.516-2.441,0.625-3.709,0.266C39.25,44.397,38.815,43.927,38.379,43.46z"/>
<path fill="#4C3D26" d="M44.295,40.515l-1.466,0.015c0,0-1.465-0.07-1.462-0.073c-0.09-0.903-0.102-1.807-0.029-2.707c0.963-0.131,1.917-0.079,2.859,0.153l0.961,0.674l0.029,1.175L44.295,40.515z"/>
<path fill="#21190E" d="M32.007,40.561c-0.951,0.021-1.9,0.037-2.846,0.052c-0.155-0.879-0.207-1.761-0.151-2.649C30.008,38.831,31.008,39.697,32.007,40.561z"/>
<path fill="#8A1010" d="M29.068,43.765c0.832-0.006,1.662,0.024,2.49,0.095c1.123,0.873,2.006,1.941,2.612,3.235c0.445,2.21-0.026,4.166-1.583,5.829c-1.266,0.842-2.541,0.852-3.824,0.036l0.053,0.107c-0.19-2.061-0.381-4.117-0.575-6.177C28.516,45.847,28.792,44.806,29.068,43.765z"/>
<path fill="#490909" d="M60.254,62.207c-0.14,1.114-0.28,2.228-0.424,3.342c-1.056-0.019-2.112-0.033-3.168-0.052c-2.271-2.262-1.042-5.203-1.518-7.81c-0.176-1.392,0.072-2.695,0.815-3.891c1.116-0.971,2.349-1.108,3.686-0.522C59.849,56.253,60.051,59.229,60.254,62.207z"/>
<path fill="#5F0B0B" d="M56.658,55.936c0.003,3.189,0.007,6.378,0.009,9.564c-0.005-0.003-1.464,0.036-1.464,0.036s-1.46-0.063-1.458-0.066c0.007-3.067,0.017-6.135,0.025-9.201c0.446-0.357,0.893-0.714,1.339-1.071C55.625,55.444,56.142,55.689,56.658,55.936z"/>
<path fill="#0D694F" d="M41.4,65.399c-0.2-0.979-0.414-1.953-0.643-2.924c-0.787-1.251-0.817-2.493,0.028-3.732c1.244-0.763,2.513-0.849,3.812-0.146l0.105,1.288c1.229,1.846,1.588,3.632-0.375,5.249C43.363,65.344,42.388,65.433,41.4,65.399z"/>
<path fill="#094F3B" d="M44.327,65.134c0.122-1.749,0.244-3.497,0.371-5.249c0.723,1.886,1.44,3.771,2.158,5.654C46.002,65.467,45.16,65.332,44.327,65.134z"/>
<path fill="#6E5B35" d="M49.684,56.476c-0.741-0.085-1.479-0.204-2.209-0.348c-0.992-0.915-1.939-1.871-2.838-2.878c-0.687-1.19-1.053-2.475-1.141-3.845c0.224-1.361,0.68-2.634,1.367-3.83c0.74-1.178,1.642-2.204,2.737-3.064c0.691-0.082,1.377-0.167,2.069-0.25c1.384,0.396,2.482,1.19,3.345,2.332c1.02,2.679,1.72,5.375,0.396,8.167c-0.757,1.199-1.604,2.328-2.541,3.391L49.684,56.476z"/>
<path fill="#858585" d="M44.597,58.597c-0.946,0.394-1.93,0.629-2.953,0.708c-2.002-0.971-2.492-2.67-2.28-4.712c0.482-1.215,1.297-2.121,2.492-2.673c1.314-0.125,2.449,0.286,3.426,1.162c0.575,1.221,0.446,2.384-0.297,3.494C44.837,57.245,44.707,57.919,44.597,58.597z"/>
<path fill="#094F3B" d="M44.985,56.576c-0.225-1.129-0.447-2.258-0.671-3.384c0.975-1.056,1.93-1.093,2.864,0.052c0.263,0.946,0.36,1.907,0.296,2.884C46.642,56.266,45.813,56.415,44.985,56.576z"/>
<path fill="#352A1A" d="M50.868,56.149c-0.305-0.968-0.388-1.953-0.248-2.954c1.062-0.852,2.136-0.906,3.223-0.046c0.774,1.126,0.747,2.197-0.216,3.207l0.144-0.085C52.804,56.234,51.836,56.195,50.868,56.149z"/>
<path fill="#9E834D" d="M41.245,31.171c2.106,0.03,4.211,0.061,6.317,0.091c0.462,0.406,0.923,0.812,1.387,1.214c0.521,1.142,0.705,2.332,0.555,3.577c-0.451,1.181-1.222,2.096-2.307,2.743c-1.294,0.247-2.347-0.146-3.157-1.187c0,0,0.154,0.287,0.156,0.29C43.213,35.66,42.229,33.414,41.245,31.171z"/>
<path fill="#9E834D" d="M47.496,24.96c1.053,0.012,2.104,0.021,3.159,0.034c1.066,0.119,2.135,0.238,3.201,0.357c0.416,0.513,0.831,1.025,1.249,1.535c-0.448,1.288-1.295,2.213-2.539,2.777c-2.079,0.668-3.795,0.083-5.213-1.523c-2.074,0.019-4.147,0.04-6.223,0.058c0.015-1.035-0.015-2.069-0.096-3.101C43.187,25.052,45.342,25.006,47.496,24.96z"/>
<path fill="#B38F5A" d="M47.353,28.14c2.186,0.037,4.374,0.073,6.558,0.113c0.874,0.785,1.12,1.505,0.735,2.161c-0.364,0.625-0.714,0.937-1.05,0.937l0.197-0.189c-2.134,2.044-4.255,1.914-6.363-0.04c0,0,0.128,0.14,0.13,0.14C47.493,30.222,47.423,29.181,47.353,28.14z"/>
<path fill="#46550A" d="M41.667,53.186c-0.009,2.036-0.018,4.074-0.024,6.116c-0.292,1.059-0.584,2.118-0.88,3.174c-0.931-0.024-1.858-0.043-2.786-0.058c-1.549-1.667-3.047-3.369-3.552-5.688c-0.075-2.28,0.441-4.492,0.799-6.724c0.438-1.462,1.215-2.707,2.382-3.698c2.579-0.751,4.265,0.216,5.173,2.686C42.876,50.513,42.528,51.916,41.667,53.186z"/>
<path fill="#6C0D0D" d="M37.73,56.359c0.084,2.021,0.167,4.041,0.248,6.062c-0.001-0.003-1.497,0.019-1.497,0.019l-1.497-0.028c0-0.003-0.005,0.126-0.005,0.126c-1.004-0.889-1.666-1.984-1.987-3.29c0.081-1.346,0.519-2.552,1.375-3.602C35.674,55.014,36.805,55.206,37.73,56.359z"/>
<path fill="#735E39" d="M53.597,31.351c0.078-1.034,0.182-2.069,0.312-3.101c0.003,0.003-0.136,0.076-0.136,0.076c0.766-1.495,1.675-1.66,2.748-0.293c1.283,0.095,2.566,0.189,3.852,0.287c-0.227,0.967-0.362,1.944-0.404,2.936C57.845,31.29,55.721,31.32,53.597,31.351z"/>
<path fill="#B38F5A" d="M56.52,28.033c-0.919,0.083-1.836,0.18-2.75,0.29c0.003-0.992,0.03-1.986,0.084-2.976c1.024-0.192,2.054-0.335,3.093-0.433C56.806,25.955,56.662,26.993,56.52,28.033z"/>
<path fill="#2F2312" d="M28.765,52.96c0.981,0.125,1.962,0.254,2.943,0.385c0.508,0.418,1.018,0.836,1.527,1.254c0.197,1.99,0.25,3.946-1.242,5.558c-1.333,0.665-2.4,0.406-3.16-0.912c0,0,0.058-0.122,0.059-0.122c-0.085-0.983-0.193-1.96-0.326-2.933C28.63,55.111,28.697,54.034,28.765,52.96z"/>
<path fill="#55462A" d="M28.833,59.244c1.031,0.015,2.063-0.007,3.093-0.056c0.564-0.625,1.131-1.251,1.695-1.876c0.415,0.735,0.83,1.468,1.245,2.2c0.049,1.007,0.085,2.014,0.111,3.024c-2.101,0.003-4.204,0.006-6.305,0.009C28.726,61.444,28.78,60.346,28.833,59.244z"/>
<path fill="#454545" d="M59.645,53.274c-0.963-0.076-1.928-0.138-2.894-0.183c-0.256-0.488-0.511-0.98-0.769-1.469c0.201-0.516,0.402-1.031,0.604-1.544c0.866-0.839,1.854-0.977,2.946-0.513c0,0,0.627,0.843,0.632,0.846C59.999,51.37,59.824,52.322,59.645,53.274z"/>
<path fill="#5F4D31" d="M53.882,53.192c-1.088,0-2.176,0-3.264,0c0.035-3.208,0.07-6.418,0.104-9.625c1.792-1.547,3.673-1.767,5.66-0.378c0,0,0.934,1.126,0.935,1.126c-0.313,0.781-0.54,1.587-0.679,2.417c0,0-0.079,1.456-0.076,1.456c-0.345,0.909-0.71,1.81-1.094,2.703c0.003,0-0.441,1.393-0.439,1.393C55.028,52.286,53.882,53.192,53.882,53.192z"/>
<path fill="#490909" d="M59.534,49.566c-0.893,0.287-1.798,0.52-2.718,0.699l-1.323-0.806c0.257-1.014,0.693-1.941,1.31-2.786c0,0-0.163,0.058-0.165,0.058C57.603,47.678,58.568,48.621,59.534,49.566z"/>
<path fill="#BB9762" d="M56.382,43.189c-1.888,0.128-3.773,0.253-5.661,0.378c0.001,0,0.131,0.027,0.131,0.027c-0.502-0.418-1.006-0.836-1.509-1.254c-0.065-0.65-0.133-1.3-0.2-1.953c0.502-1.217,1.166-2.337,1.991-3.36c1.077-0.796,2.287-1.19,3.626-1.181c1.899,0.162,3.929-0.061,5.271,1.771l-0.148-0.232C58.716,39.319,57.549,41.254,56.382,43.189z"/>
<path fill="#735E39" d="M47.431,31.122c2.121,0.015,4.24,0.027,6.361,0.04c-0.044,1.099-0.089,2.194-0.134,3.292c-0.449,0.431-0.897,0.861-1.346,1.294c-1.981,0.687-3.604,0.217-4.839-1.495C47.46,33.209,47.444,32.166,47.431,31.122z"/>
<path fill="#695433" d="M60.03,37.616c-2.104-0.043-4.209-0.089-6.313-0.135c-0.845-0.738-1.108-1.456-0.791-2.151c0.312-0.684,0.615-1.025,0.911-1.025c0,0-0.177,0.146-0.179,0.146c2.091-0.015,4.181-0.033,6.271-0.052C59.963,35.474,59.996,36.545,60.03,37.616z"/>
<path fill="#281F10" d="M38.155,47.192c-0.116,0.925-0.258,1.847-0.422,2.765c-0.72,1.063-1.687,1.471-2.942,1.123c-1.392-1.196-1.735-3.036-2.73-4.477c-0.156-0.919-0.32-1.834-0.499-2.747c2.269-0.131,4.542-0.263,6.816-0.397c0.001,0-0.075-0.091-0.075-0.091C39.905,44.708,39.856,45.981,38.155,47.192z"/>
<path fill="#231A0F" d="M38.155,47.192c0.049-1.272,0.098-2.548,0.148-3.821c1.944,0.232,3.89,0.464,5.833,0.696c0.5,0.4,1.002,0.796,1.503,1.193c0.182,1.275,0.187,2.551,0.039,3.83c-0.35,0.543-0.698,1.08-1.047,1.62c-0.592,0.257-1.183,0.51-1.775,0.763c-0.407-0.497-0.814-0.994-1.222-1.495C40.474,49.051,39.314,48.12,38.155,47.192z"/>
<path fill="#695433" d="M50.586,40.616c0.013,1.001,0.1,1.993,0.265,2.979c-1.155,0.064-2.313,0.128-3.47,0.192c-1.085,2.121-2.202,2.139-3.351,0.049c0,0,0.107,0.226,0.107,0.229c0.054-1.181,0.105-2.365,0.159-3.549l-0.108,0.165C46.3,38.611,48.434,38.709,50.586,40.616z"/>
<path fill="#BB9762" d="M50.586,40.616c-2.131,0.021-4.263,0.043-6.397,0.064c0.087-1.031,0.04-2.054-0.146-3.07c1.107-0.058,2.217-0.116,3.326-0.174c1.045-1.279,2.238-1.435,3.581-0.473c0.919,1.333,0.847,2.566-0.38,3.677L50.586,40.616z"/>
<path fill="#6C0D0D" d="M32.06,46.604c1.099,1.117,2.199,2.236,3.299,3.356c0.737,0.837,0.978,1.67,0.724,2.497c-0.255,0.826-0.505,1.242-0.754,1.242c-1.375,0.851-2.606,0.68-3.699-0.514c0,0,0.078,0.153,0.078,0.156C31.826,51.099,31.943,48.85,32.06,46.604z"/>
<path fill="#5B5B5B" d="M53.627,56.356c0.084-1.056,0.168-2.108,0.254-3.164c0.001,0-0.184,0.052-0.184,0.052c0.539-0.705,1.077-1.407,1.616-2.109c0.515,0.721,1.026,1.444,1.54,2.167c0,0-0.103-0.207-0.102-0.207c0.013,0.946-0.018,1.895-0.094,2.841C55.653,56.115,54.643,56.256,53.627,56.356z"/>
<path fill="#302413" d="M47.177,53.244l-1.433-0.064c0,0-1.433,0.01-1.431,0.01c0,0.003-0.05,0.198-0.05,0.198c-0.945-0.665-1.28-1.354-1.009-2.075c0.276-0.732,0.564-1.099,0.865-1.099l0.345-0.488c0.916-1.694,1.718-1.563,2.42,0.149C46.982,50.998,47.08,52.121,47.177,53.244z"/>
<path fill="#8A7149" d="M44.029,43.835c1.119-0.015,2.236-0.034,3.353-0.049c-0.003,1.16-0.004,2.319-0.008,3.479c-1.294,1.047-2.271,0.806-2.928-0.723C44.374,45.63,44.237,44.73,44.029,43.835z"/>
<path fill="#21190E" d="M44.446,46.543c0.979,0.226,1.956,0.467,2.93,0.723c-0.075,0.888-0.237,1.758-0.488,2.612c-0.813,0.003-1.622-0.046-2.425-0.149C44.458,48.663,44.452,47.605,44.446,46.543z"/>
<path fill="#0D694F" d="M44.12,50.214c0.047,1.056,0.095,2.114,0.144,3.174c-0.865-0.086-1.732-0.149-2.599-0.202c-0.011-1.067-0.026-2.136-0.035-3.204C42.467,50.016,43.295,50.092,44.12,50.214z"/>
<path fill="#B38F5A" d="M50.629,37.506c-1.085-0.021-2.171-0.045-3.259-0.07c0.034-1.062,0.069-2.121,0.104-3.183c2.121,0.015,4.242,0.034,6.364,0.052c-0.04,1.059-0.081,2.118-0.12,3.177l0.001,0.077C52.669,38.754,51.639,38.736,50.629,37.506z"/>
<path fill="#2F2212" d="M34.605,53.277c0.25-1.104,0.499-2.212,0.751-3.317c0.795,0.007,1.588,0.007,2.379-0.003c-0.001,2.134,0,4.27-0.001,6.402c-0.859-0.125-1.715-0.25-2.57-0.375c-1.13-0.394-1.588-0.928-1.378-1.599C34.017,53.647,34.288,53.277,34.605,53.277z"/>
<path fill="#8A1010" d="M34.605,53.277c0.212,0.9,0.396,1.804,0.556,2.71c-0.096,1.172-0.194,2.347-0.293,3.525c-0.982-0.092-1.964-0.195-2.942-0.321c-0.096-2.005-0.194-4.004-0.293-6.006C32.623,53.19,33.615,53.22,34.605,53.277z"/>
<path fill="#5F0B0B" d="M56.853,53.302c-1.052-0.021-2.104-0.039-3.156-0.058c0.136-1.117,0.271-2.234,0.407-3.351c0.872-1.105,1.751-1.166,2.639-0.021c0,0,0.075,0.384,0.073,0.388C56.824,51.275,56.836,52.289,56.853,53.302z"/>
<path fill="#16110A" d="M56.743,49.872l-1.321,0.03c0,0-1.321-0.012-1.318-0.012c0.901-1.071,1.801-2.143,2.699-3.217C56.783,47.738,56.763,48.807,56.743,49.872z"/>
<path fill="#9E834D" d="M50.629,37.506c1.03,0.016,2.06,0.031,3.09,0.052c-1.05,1.025-2.1,2.054-3.149,3.082C50.589,39.597,50.609,38.553,50.629,37.506z"/>
</svg>