<?xml version="1.0" encoding="utf-8"?>
<!DOCTYPE svg PUBLIC "-//W3C//DTD SVG 1.1//EN" "http://www.w3.org/Graphics/SVG/1.1/DTD/svg11.dtd">
<svg version="1.1" xmlns="http://www.w3.org/2000/svg" xmlns:xlink="http://www.w3.org/1999/xlink" x="0px" y="0px" width="100px" height="100px" viewBox="0 0 100 100" enable-background="new 0 0 100 100" xml:space="preserve">
<path fill="#57472C" d="M93.488,53.488c0,7.172,0,14.344,0,22.616c-6.446,2.973-12.433,5.734-18.417,8.493c-0.58-0.213-1.158-0.427-1.739-0.641c-0.445-0.428-0.889-0.857-1.335-1.288c-0.278-0.549-0.555-1.104-0.834-1.657c-0.277-1.202-0.442-2.423-0.495-3.658c-0.002-1.228,0.076-2.454,0.247-3.669c0.323-1.178,0.807-2.285,1.465-3.317c1.099-1.416,2.391-2.664,3.632-3.951c0.76-0.895,1.534-1.783,2.285-2.692c0.686-0.97,1.377-1.929,2.036-2.917c1.278-2.103,2.355-4.3,3.285-6.592c0.709-1.123,1.628-2.015,2.759-2.704c1.276-0.445,2.577-0.553,3.907-0.339C91.517,51.719,92.583,52.493,93.488,53.488z"/>
<path fill="#745F39" d="M37.905,90.674c-6.19-3.052-12.381-6.104-18.57-9.158c-0.035-3.076,1.165-5.691,3.009-8.065c1.127-0.949,2.398-1.64,3.817-2.036c2.173-0.29,4.259,0.107,6.287,0.867c1.321,0.43,2.648,0.869,3.979,1.294c1.344,0.378,2.646,0.876,3.9,1.498c2.373,1.535,4.811,2.997,6.417,5.45c0.638,1.328,0.953,2.72,0.967,4.188c-0.25,1.459-0.839,2.768-1.704,3.961C43.715,90.982,40.838,90.942,37.905,90.674z"/>
<path fill="#B08F59" d="M12.677,47.8c0.918-0.4,1.88-0.595,2.882-0.583c0.979-0.879,2.06-1.608,3.256-2.164c3.186-1.507,6.372-3.018,9.558-4.526c0.531,0.064,1.062,0.128,1.598,0.195c1.019,0.415,1.887,1.038,2.617,1.871c0.651,0.915,1.298,1.825,1.982,2.734c0.771,0.912,1.521,1.813,2.312,2.703c1.855,1.868,3.608,3.778,4.056,6.522c0.012,1.44-0.275,2.808-0.832,4.129c-1.081,1.907-2.428,3.552-4.359,4.647c-2.021,0.824-4.137,0.974-6.281,0.867c-2.846-0.184-5.212-1.673-7.684-2.859c-1.794-0.852-3.542-1.813-5.292-2.753c-1.164-0.571-2.253-1.276-3.246-2.118c-1.312-1.498-1.999-3.238-1.986-5.243C11.335,49.921,11.826,48.785,12.677,47.8z"/>
<path fill="#55462A" d="M62.569,90.888c-6.201,1.093-12.402,2.188-18.604,3.28c0.16-0.638,0.319-1.272,0.479-1.91c1.105-1.651,2.547-3.058,3.498-4.822c0.749-1.889,1.338-3.845,2.624-5.472c1.479-1.489,3.185-2.637,5.092-3.497c2.79-1.175,5.443-0.22,8.109,0.504c1.976,0.524,3.958,1.043,5.941,1.544c1.915,0.775,3.465,2.06,4.884,3.528l0.479,0.555c-2.062,1.093-4.123,2.188-6.183,3.281c-0.612,0.857-1.44,1.357-2.482,1.501c-0.989,0.04-1.972,0.146-2.945,0.323C63.462,89.703,62.569,90.888,62.569,90.888z"/>
<path fill="#886F47" d="M25.473,75.159c-2.046,2.117-4.092,4.238-6.139,6.356c-3.955-2.039-7.909-4.077-11.862-6.115c1.187-1.551,2.426-3.062,3.771-4.483c1.459-1.41,3.116-2.46,5.125-2.902c1.361-0.146,2.715-0.165,4.079-0.064c2.164,0.333,3.868,1.38,5.094,3.195C26.097,72.494,26.073,73.831,25.473,75.159z"/>
<path fill="#59482C" d="M93.546,25.128c0,3.143,0,6.29,0,9.433c-1.451,1.745-3.04,3.305-5.272,4.025c-1.506,0.202-2.989,0.098-4.45-0.305c-2.12-0.982-3.539-2.658-4.619-4.66c-0.554-1.361-0.775-2.786-0.683-4.248c0.352-1.382,1.043-2.597,1.99-3.653c1.102-0.793,2.333-1.355,3.668-1.632c1.297-0.131,2.617-0.205,3.928-0.22C90.003,23.898,91.97,23.669,93.546,25.128z"/>
<path fill="#846C44" d="M6.84,62.659c0.875-4.077,1.751-8.151,2.626-12.226c0.519,0.396,1.036,0.793,1.555,1.193c0.923,0.942,1.892,1.831,2.913,2.673c2.4,1.624,4.141,3.546,3.128,6.757c-0.908,2.069-2.42,3.439-4.605,4.056C10.131,65.329,8.246,64.535,6.84,62.659z"/>
<path fill="#836B43" d="M29.372,25.458c0.65-4.181,1.301-8.362,1.951-12.546c0.664,0.18,1.329,0.36,1.995,0.543c2.579,1.044,5.336,1.822,6.781,4.563c0.5,1.361,0.684,2.756,0.522,4.199c-0.625,2.127-1.846,3.818-3.715,5.023c-1.326,0.528-2.701,0.732-4.123,0.567C31.441,27.326,30.314,26.529,29.372,25.458z"/>
<path fill="#AD8E57" d="M43.943,6.659c4.183,0,8.365-0.003,12.546-0.003c-0.044,2.374-1.181,4.123-3.101,5.429c-2.112,0.968-4.226,0.968-6.342,0.009C45.122,10.794,43.986,9.036,43.943,6.659z"/>
<path fill="#766239" d="M28.856,34.885c-0.004-1.142-0.007-2.286-0.012-3.427c0.774-1.917,1.789-3.619,3.879-4.376c2.064-0.259,4.109-0.842,6.209-0.21c2.098,0.973,3.482,2.548,4.124,4.776c0.113,1.514-0.137,2.954-0.795,4.321c-0.969,1.168-2.153,2.044-3.549,2.637c-1.476,0.29-2.96,0.314-4.448,0.107C32.065,37.997,30.401,36.526,28.856,34.885z"/>
<path fill="#AB8B55" d="M59.836,7.227c2.023,1.05,4.045,2.1,6.068,3.149c1,1.001,1.495,2.207,1.489,3.623c-0.331,1.361-0.998,2.518-2.056,3.449c-1.957,1.041-3.935,1.062-5.936,0.125c-1.12-0.854-1.961-1.932-2.526-3.226c-0.271-1.376-0.212-2.741,0.177-4.093C57.78,9.06,58.718,8.06,59.836,7.227z"/>
<path fill="#705D36" d="M19.193,72.031c-1.167,0.088-2.335,0.177-3.503,0.265c-0.913,1.001-2.048,1.508-3.403,1.523c-1.894-0.052-3.916,0.381-5.35-1.416c-0.003-1.147-0.006-2.295-0.008-3.445c0.862-1.499,1.428-3.217,3.067-4.145c0.584-0.086,1.166-0.168,1.752-0.25c1.19-0.024,2.375-0.007,3.564,0.046c1.202,0.161,2.318,0.561,3.351,1.195c0.89,0.849,1.511,1.859,1.866,3.031C20.563,70.102,20.095,71.158,19.193,72.031z"/>
<path fill="#57472C" d="M93.435,38.193c-0.119,4.095-0.236,8.188-0.355,12.28c-0.722,0.227-1.443,0.449-2.169,0.669c-1.406-0.641-2.526-1.617-3.397-2.89c-1.437-3.879-1.355-7.468,1.992-10.432C90.92,36.835,92.226,37.015,93.435,38.193z"/>
<path fill="#B6945E" d="M84.613,19.65c1.106,0.738,2.211,1.474,3.315,2.212c0.61,0.632,1.223,1.267,1.833,1.898c-0.631,0.613-1.261,1.23-1.891,1.843l0.029-0.016c-1.05,0.775-2.227,1.224-3.525,1.346c-1.885,0-3.83,0.406-5.543-0.791c-0.824-1.041-1.101-2.212-0.83-3.513C79.451,19.968,82.596,21.057,84.613,19.65z"/>
<path fill="#8A7149" d="M37.905,90.674c2.028-0.912,4.055-1.825,6.083-2.74c0.348,0.43,0.694,0.86,1.041,1.288c0.001,0.552,0.003,1.104,0.004,1.657c-0.375,0.405-0.75,0.809-1.126,1.214c-0.249,0.699-0.229,1.392,0.058,2.075C41.946,93.002,39.925,91.84,37.905,90.674z"/>
<path fill="#78623B" d="M43.943,6.659c1.096,0.974,2.191,1.947,3.287,2.92c-0.114,0.659-0.227,1.318-0.342,1.978c-0.753,1.147-1.767,1.971-3.041,2.478c-1.379,0.003-2.603-0.418-3.647-1.333c-1.159-1.919-1.027-3.754,0.363-5.505C41.689,7.016,42.817,6.839,43.943,6.659z"/>
<path fill="#9E834D" d="M75.501,15.964c1.016,0.012,1.995,0.208,2.938,0.586c0.42,0.473,0.838,0.943,1.258,1.413c-0.355,1.251-1.073,2.222-2.208,2.869c-1.896,0.735-3.648,0.467-5.265-0.748c-0.336-0.525-0.675-1.05-1.012-1.572c-0.221-1.276,0.067-2.411,0.946-3.381C73.435,14.758,74.539,15.066,75.501,15.964z"/>
<path fill="#9E834D" d="M84.613,19.65c-2.182,0.916-4.364,1.831-6.548,2.747c-0.332-0.577-0.667-1.154-0.999-1.727c0.43-0.507,0.859-1.017,1.289-1.523l-0.029,0.027c1.111-1.248,2.251-1.343,3.425-0.085C82.739,19.104,83.694,19.293,84.613,19.65z"/>
<path fill="#9E834D" d="M87.871,25.604c0.02-1.248,0.038-2.493,0.058-3.742c1.872,1.089,3.745,2.176,5.617,3.266C91.654,25.287,89.763,25.446,87.871,25.604z"/>
<path fill="#8A7149" d="M31.738,28.201c-0.964,1.083-1.929,2.17-2.895,3.256c0.177-2.002,0.353-4,0.528-6l0.532-0.122c0.819,0.146,1.637,0.296,2.457,0.445C32.154,26.587,31.946,27.395,31.738,28.201z"/>
<path fill="#8A7149" d="M28.856,34.885c1.935-0.03,3.87-0.058,5.805-0.088c0.418,0.5,0.834,1.001,1.252,1.504c-0.223,1.352-0.917,2.38-2.084,3.091c-2.062,0.525-3.83,0.202-5.042-1.736C28.478,36.722,28.501,35.8,28.856,34.885z"/>
<path fill="#3A2F1D" d="M93.435,38.193l-1.313-0.003l-1.311,0.03c-1.133,0.625-2.211,0.574-3.226-0.259c-0.788-1.102-0.656-2.124,0.266-3.079c1.899-0.107,3.798-0.211,5.695-0.317C93.508,35.773,93.471,36.984,93.435,38.193z"/>
<path fill="#55462A" d="M28.788,37.656c1.956,0.067,3.912,0.134,5.867,0.202c0.542,1.4,0.357,2.697-0.554,3.891c-1.895,1.346-3.847,1.614-5.884,0.32c-0.287-0.549-0.235-1.062,0.157-1.541C28.363,39.548,28.501,38.59,28.788,37.656z"/>
<path fill="#4E3E26" d="M12.792,66.092c-1.173,0.08-2.345,0.159-3.517,0.241c-0.799,0.982-1.595,0.979-2.386-0.009c-0.017-1.221-0.032-2.444-0.049-3.665c1.925,0.161,3.85,0.323,5.775,0.488c0.577,0.619,0.795,1.263,0.656,1.929C13.128,65.753,12.969,66.092,12.792,66.092z"/>
<path fill="#BB9762" d="M40.563,7.196c0.042,1.929,0.083,3.854,0.125,5.783c-0.47,0.235-0.938,0.47-1.408,0.702c-1.071-0.189-1.924-0.735-2.589-1.587c-0.371-1.102-0.088-1.956,0.944-2.53C38.611,8.774,39.586,7.986,40.563,7.196z"/>
<path fill="#8A7149" d="M6.937,72.403c2.003-0.034,4.005-0.07,6.007-0.107c0.49,1.657-0.139,2.723-1.736,3.269c-1.245-0.055-2.49-0.109-3.737-0.164C7.294,74.402,7.115,73.404,6.937,72.403z"/>
<path fill="#735E39" d="M59.836,7.227c-0.079,0.803-0.19,1.605-0.331,2.402c-1.185,1.764-2.818,2.106-4.752,1.501c-0.445-0.421-0.891-0.842-1.336-1.264c1.023-1.071,2.048-2.139,3.071-3.21C57.606,6.845,58.721,7.034,59.836,7.227z"/>
<path fill="#BB9762" d="M37.634,9.564c0.124,1.004,0.261,2.008,0.411,3.012c-0.267,0.492-0.534,0.983-0.8,1.474c-0.977,0.595-2.04,0.842-3.175,0.793c-1.048-0.439-1.883-1.135-2.504-2.09l-0.243,0.159C33.428,11.798,35.53,10.681,37.634,9.564z"/>
<path fill="#9E834D" d="M65.655,16.373c0.064-1.163,0.127-2.329,0.189-3.491c1.119-1.196,2.255-1.27,3.407-0.043c1.016,0.012,1.995,0.208,2.938,0.586c0.835,0.625,1.094,1.224,0.781,1.794c-0.305,0.559-0.605,0.839-0.901,0.839l0.06-0.061c-1.271,1.77-2.991,2.109-4.987,1.565C66.647,17.166,66.151,16.769,65.655,16.373z"/>
<path fill="#4D3F26" d="M62.6,87.961c2.095-0.027,4.191-0.055,6.288-0.082c-2.105,1.004-4.212,2.005-6.319,3.009l-0.595-0.931C62.183,89.291,62.391,88.626,62.6,87.961z"/>
<path fill="#BB9762" d="M81.751,19.089c-1.14,0.027-2.281,0.055-3.423,0.085c0.014-0.876,0.052-1.749,0.111-2.625C79.543,17.398,80.648,18.244,81.751,19.089z"/>
<path fill="#BB9762" d="M72.07,16.059c0.018-0.879,0.06-1.755,0.12-2.634c1.104,0.849,2.206,1.694,3.31,2.539C74.357,15.994,73.212,16.028,72.07,16.059z"/>
<path fill="#8A7149" d="M6.888,66.324c0.796-0.073,1.593-0.073,2.386,0.006c-0.783,0.879-1.564,1.752-2.345,2.628C6.611,68.085,6.597,67.206,6.888,66.324z"/>
<path fill="#BB9762" d="M18.816,45.053c-1.085,0.723-2.171,1.443-3.258,2.164C16.645,46.497,17.731,45.776,18.816,45.053z"/>
<path fill="#BB9762" d="M12.677,47.8c0.003,0.714-0.008,1.432-0.032,2.146c-0.836,1.33-1.792,1.422-2.864,0.274c0,0-0.313,0.214-0.314,0.214C10.536,49.555,11.606,48.676,12.677,47.8z"/>
<path fill="#BB9762" d="M69.251,12.839c-1.136,0.015-2.272,0.03-3.407,0.046c0.02-0.836,0.041-1.672,0.061-2.509C67.02,11.197,68.135,12.018,69.251,12.839z"/>
<path fill="#5F4D31" d="M90.915,50.4c0.724,0.042,1.445,0.066,2.167,0.072c0.472,0.962,0.608,1.966,0.407,3.016c-0.897,0.019-1.793,0.03-2.688,0.04c-0.771-0.724-1.01-1.429-0.721-2.115C90.367,50.735,90.645,50.4,90.915,50.4z"/>
<path fill="#5E4C30" d="M87.673,56.478c0.071,3.01,0.142,6.016,0.212,9.024c-1.593,2.265-4.718,1.831-6.534,3.708l0.216-0.116c-1.633,1.752-3.738,1.627-5.856,1.478c-1.32-0.647-2.289-1.639-2.97-2.936c-0.694-2.18-0.328-4.27,0.507-6.33c0.632-2.114,1.289-4.217,2.74-5.963c1.122-1.014,2.416-1.715,3.863-2.14C83.167,52.591,85.488,54.376,87.673,56.478z"/>
<path fill="#362B1B" d="M87.673,56.478c-3.133,0.028-6.266,0.056-9.399,0.08c-0.278-0.55-0.554-1.099-0.832-1.651c0.086-1.264,0.533-2.387,1.294-3.394c0.968-0.814,2.074-1.343,3.301-1.636c1.264-0.027,2.472,0.211,3.618,0.748c1.025,0.757,1.74,1.742,2.151,2.951C87.777,54.544,87.733,55.512,87.673,56.478z"/>
<path fill="#5A492D" d="M75.157,75.232c0.02,1.107,0.04,2.215,0.06,3.32c0.808,0.644,1.083,1.294,0.828,1.953c-0.256,0.662-0.517,0.994-0.782,0.994l-0.18,0.227c-0.924,1.178-2.077,1.486-3.466,0.924c-2.008-0.894-3.192-2.441-3.646-4.574c0.1-1.406,0.629-2.615,1.654-3.598C71.637,73.502,73.516,73.502,75.157,75.232z"/>
<path fill="#352A1A" d="M87.806,53.577c-1.126-0.031-2.251-0.064-3.376-0.095c0.129-5.143,2.808-5.164,6.464-3.22c0,0,0.016,0.138,0.019,0.138c-0.033,1.04-0.07,2.084-0.11,3.128C89.803,53.556,88.804,53.57,87.806,53.577z"/>
<path fill="#352A1A" d="M81.351,69.211c2.178-1.229,4.354-2.463,6.532-3.702C85.707,66.739,83.53,67.975,81.351,69.211z"/>
<path fill="#352A1A" d="M75.289,69.354c2.092-0.086,4.184-0.171,6.275-0.257c-2.116,1.044-4.234,2.091-6.353,3.138c-0.259-0.488-0.517-0.977-0.776-1.462C74.72,70.301,75.005,69.827,75.289,69.354z"/>
<path fill="#3A2F1D" d="M75.157,75.232c-2.076,0.045-4.153,0.091-6.23,0.137c-0.331-0.476-0.662-0.952-0.993-1.431c-0.024-1.215,0.407-2.234,1.294-3.064c1.063-0.537,2.188-0.727,3.369-0.619c1.065,0.5,1.977,1.202,2.734,2.105c0,0-0.117-0.125-0.119-0.125C75.181,73.233,75.162,74.234,75.157,75.232z"/>
<path fill="#5F4D31" d="M72.028,81.635c1.02,0.021,2.039,0.052,3.057,0.088c-0.122,0.785-0.283,1.563-0.488,2.323c-1.851,0.241-3.698,0.485-5.547,0.732c-0.674-0.656-0.929-1.343-0.768-2.054c0.164-0.727,0.35-1.09,0.556-1.09C69.901,80.799,70.964,80.799,72.028,81.635z"/>
<path fill="#5F4D31" d="M75.263,81.5c-0.019-0.982-0.033-1.965-0.046-2.947C75.852,79.525,75.867,80.509,75.263,81.5z"/>
<path fill="#4E3E26" d="M37.659,78.556c-0.996-0.089-1.993-0.184-2.987-0.287c-1.081-1.096-1.447-2.39-1.096-3.891c1.047-2.1,2.683-3.388,5.049-3.681c1.525,0.207,2.74,0.943,3.694,2.136c0.9,2.24,0.69,4.34-0.789,6.278C40.093,79.95,38.81,79.718,37.659,78.556z"/>
<path fill="#55462A" d="M25.473,75.159c-0.101-0.983-0.154-1.969-0.16-2.958c0.476-0.424,0.954-0.851,1.43-1.278c1.262-0.36,2.512-0.329,3.754,0.095c1.069,0.775,1.799,1.785,2.141,3.067c-0.235,0.601-0.47,1.202-0.705,1.804c-1.158,0.845-2.273,0.793-3.349-0.15C27.546,75.543,26.509,75.352,25.473,75.159z"/>
<path fill="#8A7149" d="M28.583,75.738c0.99-0.177,1.985-0.32,2.984-0.427c0.971,0.644,1.308,1.303,1.012,1.986c-0.299,0.69-0.605,1.035-0.921,1.035C30.633,77.466,29.609,76.602,28.583,75.738z"/>
<path fill="#4E3E26" d="M37.659,78.556c1.041-0.003,2.082-0.007,3.122-0.007c2.101-1.818,2.976-0.253,3.824,1.386c-0.216,0.559-0.433,1.12-0.65,1.679C41.857,80.594,39.757,79.574,37.659,78.556z"/>
<path fill="#55462A" d="M43.978,84.625c0.047-1.004,0.04-2.008-0.023-3.012l-0.078,0.089c0.896-1.09,2.04-1.755,3.435-1.996c0.679,0.116,1.356,0.231,2.035,0.345c0.559,0.406,1.114,0.812,1.671,1.218c0.228,0.649,0.453,1.3,0.68,1.95c-0.275,1.413-1.038,2.472-2.289,3.177C47.237,86.92,45.395,86.426,43.978,84.625z"/>
<path fill="#8A7149" d="M43.978,84.625c1.972,0.208,3.942,0.412,5.914,0.617c0.873,0.799,1.175,1.611,0.909,2.438c-0.268,0.83-0.543,1.246-0.828,1.246c-2.279,1.126-4.297,0.763-6.058-1.063l0.072,0.07C43.984,86.832,43.981,85.73,43.978,84.625z"/>
<path fill="#55462A" d="M31.658,78.333c-0.083-1.005-0.113-2.012-0.092-3.019c0.001-0.003-0.159,0.18-0.159,0.18c1.213-1.05,2.292-0.872,3.255,0.357c-0.006,0.809-0.005,1.617,0.008,2.42c0.001-0.003-1.505,0.076-1.505,0.076L31.658,78.333z"/>
<path fill="#77623A" d="M12.792,66.092c-0.049-0.982-0.108-1.965-0.177-2.947c1.082-1.114,2.165-2.231,3.247-3.349c0.519-0.14,1.038-0.283,1.556-0.424c1.598-0.485,3.188-0.296,4.774,0.052c1.068,0.162,2.143,0.223,3.221,0.198c1.073-0.109,2.136-0.28,3.191-0.51c1.945,0.306,3.889,0.607,5.835,0.913c1.227,0.641,2.154,1.577,2.785,2.808c0.34,1.312,0.482,2.646,0.455,4.001c-0.215,0.635-0.43,1.272-0.646,1.91c-0.813,1.083-1.831,1.916-3.078,2.46c-2.022,0.174-3.946-0.406-5.896-0.772c-1.917-0.714-3.847-0.732-5.786-0.095c-1.376,0.296-2.502-0.082-3.34-1.239l0.11,0.098c-1.764-1.861-4.704-1.382-6.463-3.253L12.792,66.092z"/>
<path fill="#B38F5A" d="M34.787,62.665c-0.148-0.876-0.264-1.758-0.346-2.64c1.074-1.111,2.148-2.222,3.224-3.333c0.677-0.112,1.356-0.226,2.036-0.342c2.179-0.101,4.041,0.616,5.587,2.158c1.262,1.772,1.654,3.726,1.178,5.847c-0.54,1.264-1.382,2.298-2.464,3.135c-1.23,0.537-2.521,0.747-3.857,0.576c-1.236-0.467-2.278-1.224-3.14-2.228c-0.42-0.488-0.845-0.982-1.268-1.474C35.422,63.8,35.105,63.232,34.787,62.665z"/>
<path fill="#766239" d="M15.862,59.796c-2.028-2.1-4.056-4.199-6.084-6.299c2.167-1.861,4.379-1.663,6.623-0.149c0.921,0.135,1.819,0.36,2.693,0.681c0.924,1.09,1.431,2.341,1.449,3.778c-0.921,2.176-2.223,3.448-4.685,1.983L15.862,59.796z"/>
<path fill="#7E653F" d="M28.605,59.112c-1.152,1.258-2.303,2.512-3.453,3.77c-0.913-0.818-1.937-1.459-3.058-1.947c-0.944-0.863-1.344-1.932-1.199-3.204c0.499-0.352,0.997-0.699,1.496-1.047C24.46,57.492,26.532,58.304,28.605,59.112z"/>
<path fill="#BB9762" d="M28.217,42.068c2.101-0.256,4.201-0.516,6.302-0.775c0.225,0.549,0.447,1.099,0.67,1.651c-0.396,1.16-1.108,2.06-2.179,2.67c-1.19,0.287-2.353,0.205-3.49-0.244c-0.38-0.464-0.757-0.928-1.135-1.392C28.363,43.341,28.307,42.703,28.217,42.068z"/>
<path fill="#735E39" d="M31.444,50.382c-1.922-1.563-3.845-3.128-5.768-4.694c1.178,0.055,2.356,0.083,3.537,0.08c1.219,0.061,2.243,0.552,3.099,1.416c0.054,0.586,0.108,1.175,0.162,1.761C32.131,49.424,31.787,49.902,31.444,50.382z"/>
<path fill="#735E39" d="M16.401,53.348c-2.209,0.052-4.417,0.101-6.624,0.149c0.003-1.092,0.003-2.185,0.005-3.277c0.964,0.021,1.919-0.067,2.864-0.274C13.897,51.08,15.148,52.216,16.401,53.348z"/>
<path fill="#695433" d="M37.767,53.467c-2.107-1.028-4.213-2.057-6.322-3.085c-0.001,0-0.049,0.161-0.049,0.161c0.83-1.047,1.894-1.73,3.191-2.047c1.335,0.058,2.511,0.53,3.552,1.357c0.177,0.629,0.354,1.254,0.531,1.88C38.37,52.313,38.068,52.891,37.767,53.467z"/>
<path fill="#735E39" d="M37.665,56.692c0.034-1.074,0.067-2.148,0.101-3.226c0.001,0-0.131,0.113-0.131,0.113c1.807-1.874,3.856-1.966,6.076-0.824c0.885,1.364,0.897,2.734,0.034,4.113c-2.086,1.407-4.1,1.725-5.956-0.387L37.665,56.692z"/>
<path fill="#B38F5A" d="M28.179,46.912c-0.981-0.104-1.817-0.506-2.507-1.214c0.907-0.577,1.81-1.145,2.711-1.715c0.002-0.003-0.049,0.11-0.049,0.11C30.521,45.154,30.471,46.094,28.179,46.912z"/>
<path fill="#695433" d="M18.97,56.622c0.042-0.866,0.083-1.733,0.124-2.597c1.095,0.888,2.191,1.77,3.291,2.655c0.005,0.003-0.378-0.198-0.378-0.198c-0.478,0.619-0.957,1.238-1.436,1.858C20.037,57.769,19.503,57.196,18.97,56.622z"/>
<path fill="#362B1B" d="M62.514,84.632c-2.019-1.014-4.039-2.023-6.058-3.037c-0.177-0.649-0.355-1.3-0.534-1.95c1.549-3.072,3.895-3.332,6.721-1.907c0.969,0.992,1.593,2.161,1.82,3.534C64.315,82.682,63.642,83.789,62.514,84.632z"/>
<path fill="#5C4A2E" d="M49.948,87.708c0.044-0.824,0.026-1.646-0.057-2.466l0.702-1.035c1.161-0.527,2.075-0.28,2.699,0.867c-0.995,1.975-1.991,3.952-2.987,5.926c-0.449-0.506-0.897-1.013-1.346-1.52C49.289,88.889,49.619,88.297,49.948,87.708z"/>
<path fill="#8A7149" d="M43.906,92.093l0.101,0.016c1.503-3.403,3.545-2.777,5.771-0.775l0.528-0.333C48.172,91.363,46.039,91.729,43.906,92.093z"/>
<path fill="#3A2F1D" d="M53.293,85.074c-0.908-0.266-1.81-0.55-2.702-0.864c-0.098-0.677-0.154-1.357-0.166-2.038c1.876-2.103,3.889-2.454,6.08-0.47c0,0-0.049-0.104-0.049-0.107C55.402,82.755,54.348,83.914,53.293,85.074z"/>
<path fill="#4D3F26" d="M62.514,84.632c0.124-1.008,0.225-2.018,0.303-3.03c1.278-1.706,2.947-2.006,4.881-1.35c0.41,0.464,0.821,0.931,1.231,1.395c0.038,1.044,0.076,2.088,0.117,3.132C66.87,84.729,64.692,84.681,62.514,84.632z"/>
<path fill="#5F4D31" d="M62.6,87.961c-0.182,0.678-0.39,1.349-0.624,2.002C61.835,89.187,62.042,88.522,62.6,87.961z"/>
<path fill="#55462A" d="M18.933,69.098c1.169-0.088,2.338-0.177,3.507-0.266c2.763-0.247,4.28,0.468,2.729,3.544l0.142-0.171c-2.04-0.059-4.082-0.113-6.122-0.171C19.091,71.055,19.004,70.074,18.933,69.098z"/>
<path fill="#55462A" d="M11.208,75.564c0.578-1.089,1.156-2.179,1.735-3.269c0.917,0.019,1.833,0.016,2.748,0C14.196,73.386,12.702,74.476,11.208,75.564z"/>
<path fill="#735E39" d="M78.238,25.525c1.994,0.067,3.99,0.137,5.984,0.205c1.021,0.336,1.459,0.821,1.315,1.459c-0.16,0.711-0.379,1.068-0.655,1.068c-1.214,0.104-2.427,0.205-3.642,0.305c-0.976,0.977-2.059,1.065-3.235,0.394c-0.198-0.586-0.396-1.175-0.595-1.764C77.688,26.636,77.962,26.081,78.238,25.525z"/>
<path fill="#9E834D" d="M78.426,28.525c0.939,0.003,1.88,0.015,2.816,0.037c0.034,0.949,0.043,1.898,0.026,2.847c-0.464,0.461-0.927,0.925-1.389,1.389c-1.3,0.317-2.563,0.223-3.779-0.351c-0.949-0.992-1.297-2.148-0.948-3.491C76.117,27.851,77.213,27.75,78.426,28.525z"/>
<path fill="#504327" d="M87.852,34.882c-0.07,1.038-0.121,2.075-0.151,3.116c-0.414,0.455-0.827,0.913-1.244,1.374c-1.826,0.806-3.578,0.687-5.252-0.424c-0.776-1.032-1.072-2.194-0.956-3.473c0.346-0.519,0.692-1.034,1.04-1.553c1.27-0.473,2.346-0.226,3.201,0.852C85.61,34.809,86.732,34.845,87.852,34.882z"/>
<path fill="#3A2F1D" d="M84.489,34.772c-0.99-0.012-1.979-0.024-2.969-0.04c-0.844-0.672-1.147-1.371-0.913-2.097c0.238-0.735,0.49-1.105,0.757-1.105l-0.096-0.122C82.343,32.529,83.415,33.652,84.489,34.772z"/>
<path fill="#9E834D" d="M84.883,28.256c-0.202-0.845-0.421-1.691-0.657-2.527c1.223-0.046,2.447-0.095,3.675-0.141C86.895,26.48,85.889,27.368,84.883,28.256z"/>
<path fill="#6D5835" d="M31.566,12.753c1.086,0.244,2.171,0.491,3.256,0.735c1.099,0.647,2.292,0.958,3.564,0.971c1.262,0.006,2.516,0.085,3.769,0.235c2.13,0.824,2.722,2.338,1.994,4.446c-0.886,0.958-1.96,1.578-3.253,1.807c-1.333-0.106-2.385-0.72-3.197-1.767C35.655,17.038,33.611,14.895,31.566,12.753z"/>
<path fill="#4E3E26" d="M31.738,28.201c-0.605-0.958-1.21-1.913-1.825-2.868c1.564-0.077,3.139-0.153,4.712-0.229c0.537-0.406,1.073-0.812,1.608-1.218c0.605,0.293,1.213,0.583,1.819,0.873c0.195,0.644,0.391,1.288,0.586,1.929c-0.319,0.592-0.638,1.185-0.956,1.779C35.701,28.378,33.719,28.29,31.738,28.201z"/>
<path fill="#78633B" d="M37.7,19.181c1.089,0.052,2.179,0.106,3.269,0.158c0.412,1.45-0.047,2.579-1.253,3.437c-0.664-0.162-1.329-0.323-1.994-0.485C37.717,21.252,37.709,20.215,37.7,19.181z"/>
<path fill="#78633B" d="M37.752,25.366c-1.044-0.085-2.086-0.171-3.126-0.259c1.033-0.94,2.064-1.877,3.096-2.817l0.02,0.016c0.694,0.677,0.928,1.358,0.699,2.038C38.212,25.024,37.983,25.366,37.752,25.366z"/>
<path fill="#735E39" d="M47.229,9.58c2.062,0.095,4.124,0.189,6.186,0.287c0.002,0-0.139-0.143-0.139-0.143c0.45,0.54,0.901,1.077,1.352,1.617c-0.247,1.444-0.988,2.561-2.226,3.348c-2.156,0.732-4.147,0.46-5.945-0.983c-0.763-1.364-0.554-2.6,0.499-3.723L47.229,9.58z"/>
<path fill="#8A7149" d="M40.831,34.766c0.049-0.916,0.103-1.831,0.16-2.747c1.25-1.083,2.695-1.523,4.337-1.328c2.422,0.589,4.213,1.981,5.361,4.196c0.968,3.095,0.995,6.144-0.454,9.116c-1.399,2.014-3.336,3.107-5.759,3.348c-1.501-0.091-2.913-0.531-4.208-1.291c-0.476-0.541-0.963-1.096-1.443-1.636c-0.232-0.672-0.468-1.361-0.705-2.033c-0.067-1.407,0.057-2.814,0.368-4.196C39.032,36.896,39.815,35.751,40.831,34.766z"/>
<path fill="#886F47" d="M40.831,34.766c0.003,1.047,0.006,2.091,0.009,3.137c0.781,0.641,1.054,1.297,0.819,1.968c-0.238,0.678-0.484,1.017-0.737,1.017l-0.202,0.256c-2.148,1.746-4.272,1.852-6.363-0.101c0,0,0.157,0.248,0.159,0.248c0.046-1.142,0.091-2.286,0.137-3.43c0-0.003-0.16,0.195-0.16,0.195c1.001-1.163,2.019-2.311,3.228-3.266C38.759,34.796,39.795,34.79,40.831,34.766z"/>
<path fill="#55462A" d="M44.004,31.589c-1.012,0.092-2.016,0.232-3.012,0.427c-1.102-1.181-2.205-2.365-3.308-3.549l-0.093,0.125c1.385-1.614,3.108-2.206,5.188-1.715c1.201,0.647,1.939,1.624,2.139,2.984C44.613,30.438,44.307,31.012,44.004,31.589z"/>
<path fill="#55462A" d="M37.722,34.79c-1.076,1.086-2.152,2.176-3.226,3.266c0.054-1.086,0.108-2.173,0.165-3.259C35.681,34.793,36.702,34.793,37.722,34.79z"/>
<path fill="#9E834D" d="M53.301,12.936c-0.008-1.071-0.016-2.139-0.023-3.213c2.077-0.031,4.154-0.058,6.229-0.092c-0.06,1.224-0.119,2.451-0.179,3.681C57.215,14.865,55.213,14.621,53.301,12.936z"/>
<path fill="#735E39" d="M53.301,12.936c2.011,0.122,4.022,0.244,6.03,0.369c0.074,0.946,0.123,1.889,0.141,2.832c-0.466,0.421-0.931,0.842-1.396,1.264c-1.233,0.351-2.458,0.348-3.678-0.07c-1.53-1.245-2.735-2.563-0.987-4.526L53.301,12.936z"/>
<path fill="#735E39" d="M59.472,16.138c2.062,0.076,4.122,0.149,6.184,0.229c-0.001,0.006,0.016-0.293,0.016-0.293c0.664,1.504,0.326,2.783-0.87,3.87c-3.265,0.665-6.112,0.791-5.177-3.992L59.472,16.138z"/>
<path fill="#4E3E26" d="M12.58,65.942c2.154,1.083,4.308,2.17,6.463,3.253C16.889,68.112,14.734,67.025,12.58,65.942z"/>
<path fill="#5B492D" d="M90.894,50.263c-2.153,1.074-4.308,2.148-6.462,3.22c-1.001-0.037-1.999-0.083-2.998-0.138c-1.049-0.817-1.984-1.745-2.788-2.802c-0.508-1.232-0.716-2.518-0.627-3.848c0.691-2.707,2.655-4.407,4.751-5.997c1.594-1.08,3.618-1.389,5.026-2.801c0,0-0.095,0.098-0.096,0.098c1.042,0.012,2.078,0.083,3.111,0.223C90.839,42.233,90.866,46.249,90.894,50.263z"/>
<path fill="#6C5735" d="M78.066,22.397c0.059,1.041,0.114,2.084,0.173,3.128l0.169-0.226c-0.952,1.117-2.157,1.813-3.583,2.148c-2.26,0.61-4.229,0.098-5.912-1.529c-0.754-1.307-0.897-2.677-0.436-4.114c1.138-0.988,2.465-1.416,3.959-1.358c2.04,0.394,4.426-0.22,5.835,2.008L78.066,22.397z"/>
<path fill="#766239" d="M49.778,91.333c-1.924,0.247-3.848,0.497-5.771,0.76c-0.029-1.4-0.059-2.813-0.09-4.229c2.011-0.052,4.024-0.104,6.034-0.155C49.892,88.916,49.834,90.125,49.778,91.333z"/>
<path fill="#B3925C" d="M53.41,12.805c0.906,1.206,1.813,2.411,2.72,3.617c1.312,4.037-1.359,5.411-4.381,6.549c-2.396,0.271-4.538-0.312-6.381-1.898c-0.386-0.662-0.771-1.324-1.157-1.986c-1.15-1.208-2.301-2.417-3.452-3.629c-1.266-0.354-1.736-0.821-1.422-1.41c0.345-0.641,0.7-0.964,1.074-0.964c0,0,0.278-0.104,0.276-0.104c1.097-0.019,2.194-0.04,3.293-0.058c1.05-1.288,2.12-1.371,3.209-0.049C49.264,12.848,51.337,12.827,53.41,12.805z"/>
<path fill="#AE8D57" d="M47.19,12.872c-1.069,0.015-2.139,0.03-3.209,0.049c0.994-0.983,1.985-1.962,2.977-2.942C46.966,10.95,47.043,11.914,47.19,12.872z"/>
<path fill="#B38F5A" d="M78.271,22.455c-1.998-0.076-3.995-0.156-5.991-0.232c-0.461-0.488-0.922-0.977-1.384-1.465c0.379-0.556,0.76-1.108,1.142-1.664c2.105,0.019,4.211,0.037,6.318,0.052C78.326,20.248,78.299,21.353,78.271,22.455z"/>
<path fill="#BB9762" d="M65.872,19.226c-0.063-1.05-0.13-2.103-0.198-3.152c2.15-0.024,4.302-0.049,6.455-0.073c-0.028,1.032-0.059,2.063-0.091,3.094c-0.001,0,0.043,0.08,0.043,0.08c-1.326,1.642-3.128,1.593-4.972,1.401C66.698,20.126,66.286,19.675,65.872,19.226z"/>
<path fill="#BB9762" d="M40.412,13.083c0.163,0.784,0.279,1.578,0.348,2.377c-0.877,0.269-1.773,0.445-2.687,0.531c-1.034-0.58-1.43-1.229-1.188-1.953c0.252-0.757,0.532-1.138,0.842-1.138c0,0,0.314-0.32,0.317-0.32C38.831,12.76,39.62,12.927,40.412,13.083z"/>
<path fill="#695433" d="M37.726,12.9c0.035,1.041,0.149,2.069,0.346,3.091c-1.083-0.836-2.167-1.669-3.25-2.502C35.77,13.196,36.739,13,37.726,12.9z"/>
<path fill="#504327" d="M72.265,72.049c-1.041,0.146-2.082,0.29-3.122,0.434c-3.266-2.097-3.85-5.084-2.866-8.597c0.734-1.52,1.849-2.677,3.334-3.476c2.448-0.837,4.782-0.611,6.992,0.763c0.573,0.573,1.147,1.15,1.723,1.724c-1.041,1.078-2.081,2.155-3.122,3.235C73.224,67.608,74.3,70.602,72.265,72.049z"/>
<path fill="#3A2F1D" d="M78.274,56.559c-0.029,1.056-0.059,2.108-0.087,3.161c-0.442,0.467-0.886,0.931-1.329,1.395c-1.28,0.162-2.563,0.184-3.849,0.04c-1.274-0.54-1.973-1.477-2.003-2.884c0.394-1.278,1.165-2.271,2.271-3.016c2.03-0.625,3.799-0.335,5.142,1.459L78.274,56.559z"/>
<path fill="#504128" d="M78.187,59.72c0.687,0.504,1.373,1.011,2.108,1.551c-0.686,0.564-1.327,1.096-1.97,1.626l0.022,0.021c-2.133-1.053-2.142-2.124-0.028-3.213L78.187,59.72z"/>
<path fill="#5F4D31" d="M72.265,72.049c0.979-1.971,1.959-3.945,2.938-5.92c0.027,1.077,0.057,2.148,0.086,3.226c-0.005,1.001,0.009,2.002,0.041,3.003C74.306,72.278,73.285,72.174,72.265,72.049z"/>
<path fill="#5F4D31" d="M78.418,56.714c-2.021,0.146-4.043,0.296-6.065,0.442c-0.35-0.534-0.698-1.068-1.047-1.602c0.182-1.315,0.823-2.365,1.86-3.181c1.233-0.46,2.481-0.491,3.744-0.144c0.474,0.431,0.948,0.864,1.421,1.298C78.361,54.59,78.389,55.652,78.418,56.714z"/>
<path fill="#5F4D31" d="M81.42,50.25c0.015,1.035,0.021,2.069,0.015,3.101c-1.033,0.101-2.065,0.162-3.104,0.178l-0.003-0.003c-0.789-0.684-1.128-1.435-1.014-2.246c0.118-0.849,0.287-1.27,0.51-1.273C79.085,49.18,80.283,49.262,81.42,50.25z"/>
<path fill="#3A2F1D" d="M68.927,75.369c-0.031,1.008-0.061,2.015-0.088,3.021c-0.428,0.458-0.856,0.919-1.286,1.379c-1.317-0.143-2.318-0.781-3.005-1.916c-0.065-1.324,0.404-2.436,1.338-3.363c1.317-0.491,2.372-0.155,3.163,1.001L68.927,75.369z"/>
<path fill="#504327" d="M72.028,81.635c-1.032,0.009-2.064,0.012-3.099,0.012l0.038,0.034c-2.132-1.053-2.144-2.134-0.04-3.235c0,0-0.085-0.052-0.087-0.055C69.903,79.471,70.966,80.551,72.028,81.635z"/>
<path fill="#5F4D31" d="M69.049,75.491c-1.092,0.079-2.185,0.162-3.277,0.241c-0.717,0.705-1.246,1.532-1.585,2.481l-1.459,0.259c-2.073,1.078-4.147,2.152-6.223,3.229c-2.026,0.155-4.054,0.308-6.082,0.467c0.002,0.003-0.329-0.818-0.329-0.818c-0.925-0.9-1.684-1.926-2.25-3.088c-0.546-2.64,0.534-5.085,0.919-7.614c0.271-1.285,0.763-2.475,1.448-3.592c0.865-0.992,1.866-1.813,3.006-2.469c1.714-0.971,3.383-2.023,5.228-2.741c1.285-0.317,2.571-0.619,3.863-0.906c2.755-0.546,5.319-0.567,6.776,2.457c0.019,3.027,0.037,6.055,0.057,9.082C69.083,73.483,69.053,74.487,69.049,75.491z"/>
<path fill="#7F6742" d="M47.052,81.57c-1.058,0.043-2.117,0.089-3.175,0.132c-1.032-1.05-2.063-2.103-3.095-3.153c-0.106-1.876-0.213-3.753-0.32-5.63c-0.685-0.711-1.02-1.489-1.001-2.335c0.02-0.879,0.118-1.321,0.297-1.324c0.969-1.034,2.136-1.666,3.552-1.844c1.425-0.293,2.771-0.085,4.07,0.553c1.116,0.946,1.917,2.097,2.418,3.464C50.336,75.211,49.542,78.619,47.052,81.57z"/>
<path fill="#8A7149" d="M28.339,69.156c2.093-0.01,4.186-0.016,6.279-0.024c1.919,0.274,3.063,1.354,3.397,3.274c-1.117,1.147-2.236,2.295-3.353,3.442c-1.085-0.116-2.17-0.235-3.255-0.354c-0.998-1.217-1.994-2.435-2.992-3.652c-0.955-0.571-1.285-1.16-0.99-1.764C27.724,69.464,28.028,69.156,28.339,69.156z"/>
<path fill="#766239" d="M38.015,72.406c-1.132-1.09-2.266-2.182-3.398-3.274c0.001,0-0.046,0.055-0.046,0.055c2.04-1.993,4.126-1.85,6.246-0.134c-0.116,1.287-0.233,2.572-0.353,3.863C39.654,72.715,38.837,72.543,38.015,72.406z"/>
<path fill="#846B43" d="M28.339,69.156c0.023,0.896,0.047,1.791,0.076,2.686c-1.082,0.177-2.164,0.356-3.246,0.534c-0.911-1.179-1.823-2.359-2.733-3.54C24.407,68.939,26.374,69.049,28.339,69.156z"/>
<path fill="#746039" d="M47.052,81.57c-0.055-4.175-0.11-8.35-0.165-12.524c0.347-0.43,0.693-0.857,1.038-1.288c1.015-0.484,2.081-0.658,3.198-0.527c1.065,0.409,1.848,1.117,2.3,2.176c-0.114,0.885-0.23,1.773-0.35,2.658c-0.176,2.42-1.178,4.486-2.699,6.332c-0.071,0.992-0.165,1.978-0.279,2.961C49.085,81.507,48.071,81.58,47.052,81.57z"/>
<path fill="#8A7149" d="M18.97,56.622c1.013-0.024,2.026-0.069,3.038-0.14c0.021,1.119,0.044,2.236,0.067,3.356c0.929,0.62,1.24,1.245,0.935,1.871c-0.303,0.628-0.61,0.942-0.92,0.942c-2.078-0.955-4.155-1.907-6.232-2.862C16.895,58.734,17.932,57.679,18.97,56.622z"/>
<path fill="#8A7149" d="M40.816,69.053c-2.082,0.045-4.163,0.088-6.246,0.134c0.017-1.053,0.032-2.108,0.049-3.161c0,0,0.795-1.273,0.793-1.276c0.981-0.247,1.975-0.299,2.976-0.152c0.963,0.302,1.84,0.766,2.634,1.392l-0.217-0.158c1.135,0.638,1.546,1.327,1.234,2.063c-0.322,0.763-0.658,1.145-1.012,1.145L40.816,69.053z"/>
<path fill="#8A7149" d="M22.091,62.652c-0.003-0.939-0.008-1.877-0.014-2.813c1.025,1.014,2.051,2.029,3.075,3.043C24.129,62.833,23.108,62.757,22.091,62.652z"/>
<path fill="#8A7149" d="M34.619,66.025c0.055-1.12,0.111-2.237,0.167-3.357c0.001-0.003-0.157,0.079-0.157,0.079c0.661,0.567,1.321,1.139,1.982,1.706c-0.685,0.54-1.37,1.08-2.055,1.621L34.619,66.025z"/>
<path fill="#9E834D" d="M44.086,65.704c-0.165-1.853-0.328-3.701-0.493-5.554c0.382-0.543,0.765-1.087,1.146-1.633c1.871-1.09,3.752-1.028,5.643-0.052c1.619,1.337,2.385,3.058,2.316,5.151c-0.298,1.288-0.96,2.368-1.931,3.259c-1.199,0.479-2.449,0.708-3.743,0.681c-0.632-0.082-1.267-0.164-1.898-0.247C44.78,66.775,44.434,66.238,44.086,65.704z"/>
<path fill="#9E834D" d="M37.789,56.482c2.082,0.082,4.164,0.164,6.247,0.247c0.358,0.433,0.717,0.869,1.077,1.303c-0.287,0.488-0.572,0.974-0.857,1.459c0,0-0.658,0.656-0.659,0.659C41.658,58.93,39.724,57.706,37.789,56.482z"/>
<path fill="#4C3D26" d="M41.028,69.037c-0.075-1.068-0.148-2.137-0.223-3.204c1.094-0.043,2.187-0.086,3.281-0.129l-0.438,0.919c0.778,0.379,1.556,0.757,2.333,1.135c-0.804,0.314-1.61,0.629-2.416,0.946C42.72,68.817,41.874,68.93,41.028,69.037z"/>
<path fill="#735E39" d="M34.555,66.074c0.024-1.108,0.049-2.216,0.073-3.324c1.062,0.229,2.125,0.461,3.188,0.693c0.83,0.54,1.104,1.077,0.824,1.611c-0.278,0.531-0.557,0.796-0.838,0.796C36.721,65.924,35.637,66,34.555,66.074z"/>
<path fill="#695433" d="M37.802,65.851c-0.012-0.802-0.007-1.608,0.014-2.41c1.07,0.851,2.138,1.699,3.206,2.548C39.949,65.942,38.875,65.896,37.802,65.851z"/>
<path fill="#4E3E26" d="M34.359,41.043c2.123,0.034,4.245,0.064,6.366,0.098c0.035,1.078,0.071,2.148,0.109,3.223c-1.387,1.444-3.012,1.651-4.818,0.934c-0.359-0.473-0.717-0.943-1.076-1.416C34.706,42.944,34.513,41.998,34.359,41.043z"/>
<path fill="#9E834D" d="M28.179,46.912c0.073-0.937,0.125-1.876,0.155-2.817c2.201-0.073,4.401-0.143,6.603-0.213c0.003,0-0.167-0.095-0.167-0.095c0.732,0.842,1.033,1.724,0.9,2.646c-0.134,0.943-0.308,1.413-0.521,1.413c-1.415,0.955-2.66,0.771-3.734-0.553C30.335,47.165,29.258,47.037,28.179,46.912z"/>
<path fill="#BB9762" d="M31.414,47.293c1.063,0.043,2.127,0.086,3.19,0.128l0.975,1.144l-1.068,1.063c-1.037,0.305-2.075,0.607-3.114,0.915C31.402,49.46,31.407,48.377,31.414,47.293z"/>
<path fill="#B4935D" d="M34.511,49.628c0.019-0.738,0.049-1.478,0.093-2.209c0.055-1.206,0.108-2.414,0.164-3.625c2.023,0.186,4.043,0.378,6.066,0.57l-0.207-0.21c1.107,0.879,1.834,1.996,2.113,3.394c-0.101,1.417-0.623,2.652-1.569,3.714c-1.385,0.659-2.551,0.424-3.464-0.846C36.643,50.152,35.578,49.891,34.511,49.628z"/>
<path fill="#AC8C55" d="M37.708,50.415c1.048,0,2.097-0.003,3.146-0.003c1.781-1.88,3.74-1.773,5.808-0.525c0.682,0.797,1.021,1.657,1.018,2.579c-0.002,0.958-0.089,1.435-0.26,1.438c-1.309,0.925-2.588,0.885-3.839-0.113c-1.981-0.069-3.961-0.14-5.943-0.21C37.659,52.527,37.683,51.471,37.708,50.415z"/>
<path fill="#9E834D" d="M43.581,53.79c1.186-0.101,2.373-0.201,3.56-0.299c1.498-1.837,3.339-1.877,5.35-1.01c1.049,0.928,1.63,2.09,1.743,3.485c-0.331,0.592-0.663,1.184-0.995,1.775c-1.183,0.77-2.469,0.986-3.846,0.727c-1.939-0.339-4.11-0.003-5.517-1.893c0,0,0.159,0.15,0.159,0.153C43.937,55.74,43.784,54.761,43.581,53.79z"/>
<path fill="#5B492D" d="M68.927,78.445c0.015,1.077,0.026,2.158,0.04,3.235c-2.053-0.024-4.104-0.049-6.154-0.076c-0.027-1.044-0.056-2.088-0.085-3.128c0-0.004-0.154,0.121-0.154,0.121c0.954-1.156,2.023-1.275,3.209-0.359C66.831,78.309,67.879,78.375,68.927,78.445z"/>
<path fill="#B38F5A" d="M75.388,25.885c0.996-0.248,2.002-0.439,3.019-0.586c0.006,1.074,0.011,2.151,0.017,3.226c-1.091,0-2.186,0.003-3.279,0.006c-0.336-0.477-0.673-0.952-1.01-1.429C74.55,26.697,74.97,26.291,75.388,25.885z"/>
<path fill="#BB9762" d="M75.144,28.531c-0.006,0.973-0.026,1.947-0.06,2.92c-0.553,0.452-1.106,0.903-1.66,1.352c-1.462,0.235-2.802-0.086-4.036-0.895c-0.779-1.333-0.729-2.634,0.151-3.906c2.028-1.053,3.999-1.581,5.683,0.602L75.144,28.531z"/>
<path fill="#504327" d="M81.364,31.531c0.051,1.068,0.101,2.136,0.154,3.202c0.002,0-0.21,0.213-0.21,0.213c-1.831,1.678-3.843,1.794-5.996,0.693c-0.746-0.846-0.983-1.682-0.718-2.512c0.264-0.824,0.522-1.239,0.777-1.239l-0.286-0.433C77.178,31.479,79.272,31.503,81.364,31.531z"/>
<path fill="#5C4B2F" d="M75.2,34.787c2.037,0.052,4.074,0.104,6.111,0.156c0.065,0.995,0.12,1.99,0.163,2.984c0.482,0.473,0.964,0.949,1.446,1.428c-0.209,1.383-0.729,2.619-1.625,3.699c-1.654,1.352-3.314,2.67-5.444,3.229c-1.512,0.058-2.919-0.275-4.25-0.995c-1.156-1.028-1.96-2.273-2.478-3.723C69.203,37.558,69.137,33.417,75.2,34.787z"/>
<path fill="#3A2F1D" d="M81.393,41.022c-0.021-1.035,0.007-2.066,0.08-3.095c2.107-0.009,4.215-0.018,6.323-0.03c-1.053,1.108-2.106,2.215-3.16,3.32C83.493,42.172,82.41,42.154,81.393,41.022z"/>
<path fill="#8A7149" d="M37.752,25.366c0.011-1.022,0.008-2.042-0.011-3.061c1.076-0.992,2.15-1.981,3.226-2.967c1.081-0.082,2.161-0.167,3.241-0.253c0.003,0-0.218-0.107-0.218-0.107c1.042,1.071,1.648,2.347,1.814,3.833c-0.23,1.489-0.946,2.704-2.082,3.68c-2.136,0.428-4.301,1.014-5.952-1.123L37.752,25.366z"/>
<path fill="#78633B" d="M37.771,25.369c2.066-0.073,4.13-0.143,6.196-0.216c1.439-1.276,2.902-2.515,4.662-3.36c1.191-0.577,2.439-0.919,3.761-1.025c2.865-0.141,5.425,0.329,6.754,3.323c0.572,2.097,0.705,4.196,0.209,6.329c-0.606,1.355-1.491,2.484-2.645,3.412c-1.321,0.668-2.721,1.019-4.202,1.019c-1.446-0.281-2.734-0.906-3.857-1.861c-1.63-1.425-3.188-2.933-4.743-4.443c-2.104,0.015-4.21,0.03-6.314,0.045C37.652,27.518,37.711,26.443,37.771,25.369z"/>
<path fill="#766239" d="M47.078,44.254c-0.052-3.061-0.105-6.119-0.157-9.18c0.484-0.498,0.966-0.995,1.449-1.493c0.69,0.067,1.38,0.134,2.071,0.202c1.265,0.604,2.363,1.425,3.296,2.472c1.251,2.497,2.209,5.087,2.627,7.858c-0.102,1.397-0.546,2.686-1.278,3.873c-1.558,1.525-3.416,2.093-5.561,1.724c-1.254-0.47-2.4-1.138-3.428-2.002C45.644,46.338,46.006,45.193,47.078,44.254z"/>
<path fill="#55462A" d="M50.318,34.766c-1.131,0.101-2.261,0.202-3.395,0.305c-0.973-1.157-1.947-2.319-2.919-3.482l-0.129,0.165c2.16-2.164,4.289-1.911,6.394,0.082l-0.144-0.149c0.863,0.632,1.18,1.3,0.949,2.002C50.838,34.406,50.586,34.766,50.318,34.766z"/>
<path fill="#4E3E26" d="M47.078,44.254c-0.02,1.074-0.038,2.148-0.057,3.223c-2.145,1.395-4.217,2.143-5.897-0.653c-0.151-0.891-0.317-1.782-0.497-2.67C42.777,44.186,44.927,44.22,47.078,44.254z"/>
<path fill="#846B43" d="M40.923,40.888c-0.026-0.995-0.055-1.99-0.083-2.985C40.868,38.898,40.896,39.893,40.923,40.888z"/>
<path fill="#846B43" d="M50.268,31.836c-2.131-0.027-4.262-0.055-6.394-0.082c0.01-1.071,0.021-2.14,0.032-3.208C46.027,29.642,48.147,30.74,50.268,31.836z"/>
<path fill="#A78852" d="M56.699,25.037c-2.129-0.928-4.258-1.855-6.387-2.78c-0.766-0.534-1.091-1.136-0.973-1.813c0.122-0.711,0.289-1.065,0.505-1.065c2.097-0.986,4.191-1.972,6.286-2.957c1.163-0.156,2.329-0.312,3.493-0.47c2.083,1.092,4.167,2.185,6.25,3.274c-0.002,0-0.079-0.205-0.079-0.205c1.216,0.934,1.598,2.13,1.146,3.595c-0.564,1.315-1.414,2.411-2.548,3.287c-1.969,0.977-3.996,1.288-6.119,0.549C57.749,25.979,57.224,25.507,56.699,25.037z"/>
<path fill="#514428" d="M81.393,41.022c1.081,0.064,2.162,0.128,3.243,0.195c-1.067,2.029-2.136,4.056-3.204,6.085c-0.813,1.249-1.787,2.337-3.088,3.104c-0.002,1.04-0.007,2.078-0.016,3.119c-2.043-0.019-4.085-0.037-6.128-0.056c-0.494-0.372-0.99-0.741-1.486-1.113c-0.584-1.12-0.809-2.313-0.722-3.567c0.404-1.19,1.063-2.213,2.013-3.043c1.146-0.473,2.244-1.038,3.302-1.688l-0.238,0.152c1.749-1.932,4.825-1.218,6.51-3.271L81.393,41.022z"/>
<path fill="#3A2F1D" d="M78.344,50.406c1.029-1.035,2.06-2.069,3.09-3.107c0.003,0.986,0,1.968-0.014,2.951C80.396,50.323,79.37,50.375,78.344,50.406z"/>
<path fill="#695433" d="M66.08,22.162c-0.095-1.047-0.188-2.091-0.284-3.137c2.095,0.049,4.19,0.098,6.287,0.149c0,1.019,0.063,2.039,0.19,3.052c-1.177,0.052-2.357,0.104-3.54,0.156C67.773,23.224,66.884,23.193,66.08,22.162z"/>
<path fill="#B38F5A" d="M66.08,22.162c0.885,0.079,1.771,0.152,2.655,0.22c0.278,0.958,0.558,1.917,0.833,2.875c-0.464,0.507-0.928,1.013-1.394,1.52c-2.035,0.958-3.97,0.766-5.812-0.5c-0.854-1.23-0.859-2.487-0.13-3.772C63.515,22.391,64.798,22.275,66.08,22.162z"/>
<path fill="#9E834D" d="M75.222,28.604c-2.165,0.036-4.331,0.073-6.496,0.109c-0.355-0.503-0.712-1.007-1.068-1.51c0.219-0.577,0.438-1.157,0.656-1.733c0,0,1.248-0.214,1.252-0.214c1.942,0.208,3.882,0.415,5.821,0.625C75.31,26.789,75.255,27.698,75.222,28.604z"/>
<path fill="#695433" d="M49.845,19.379c0.261,0.943,0.416,1.901,0.465,2.878c0.003,0-0.022-0.077-0.022-0.077c-2.092,1.88-4.188,2.139-6.29,0.019c-0.003-1.071-0.006-2.143-0.008-3.217C45.942,19.113,47.893,19.245,49.845,19.379z"/>
<path fill="#9E834D" d="M69.084,63.397c-2.051,0.836-4.103,1.672-6.155,2.505c-2.296-0.882-4.346-1.983-4.321-4.913c1.178-3.564,3.816-4.897,7.375-4.831c2.49,0.455,4.305,2.026,6.073,3.675l-0.1,0.076c2.306,1.099,2.244,2.042-0.185,2.829C70.863,62.903,69.967,63.123,69.084,63.397z"/>
<path fill="#5F4D31" d="M71.772,62.738c0.162-0.938,0.225-1.88,0.187-2.829c2.119-0.067,4.24-0.134,6.361-0.201c0.009,1.067,0.018,2.139,0.028,3.21C76.155,62.857,73.964,62.799,71.772,62.738z"/>
<path fill="#55462A" d="M72.056,59.833c-1.991-0.034-3.981-0.064-5.972-0.095c-0.896-1.232-0.813-2.433,0.11-3.61c1.896-1.235,3.776-1.33,5.635,0.083c0,0,0.518,0.937,0.521,0.939C72.236,58.048,72.136,58.938,72.056,59.833z"/>
<path fill="#8A7149" d="M71.829,56.211c-2.081,0.155-4.162,0.311-6.243,0.467c-0.181-0.583-0.36-1.163-0.541-1.746c0.363-1.202,1.074-2.139,2.134-2.811c1.927-0.559,3.554-0.195,4.724,1.551c0,0,0.296-0.199,0.298-0.202C72.095,54.386,71.972,55.301,71.829,56.211z"/>
<path fill="#352A1A" d="M65.782,78.238c-1.069,0.119-2.138,0.241-3.207,0.359c1.064-0.958,2.132-1.913,3.196-2.868C65.785,76.568,65.788,77.405,65.782,78.238z"/>
<path fill="#6C5735" d="M59.575,62.372c1.117,1.178,2.233,2.355,3.353,3.534c-1.203,0.066-2.408,0.137-3.612,0.204c-1.01,0.995-2.225,1.483-3.642,1.462c-1.978-0.073-4.126,0.351-5.376-1.847c-0.005-1.983-0.009-3.97-0.014-5.957c0.152-0.51,0.307-1.016,0.459-1.525c0.982-0.412,1.921-0.906,2.817-1.483l-0.089,0.201c0.695-1.26,1.755-1.669,3.131-1.34C59.399,57.077,58.645,60.096,59.575,62.372z"/>
<path fill="#55462A" d="M50.374,78.396c0.901-2.108,1.802-4.217,2.702-6.329C52.175,74.176,51.275,76.285,50.374,78.396z"/>
<path fill="#B38F5A" d="M50.298,65.726c2.08,0.26,4.158,0.516,6.237,0.775c-0.001,0.717-0.003,1.438-0.004,2.157c-1.036,0.248-2.074,0.492-3.108,0.742c-1.111-0.354-2.224-0.711-3.334-1.068l-0.021-1.278L50.298,65.726z"/>
<path fill="#BB9762" d="M56.531,68.658c-0.008-0.72-0.007-1.44,0.003-2.16c0.915-0.22,1.843-0.348,2.781-0.388C58.388,66.962,57.459,67.81,56.531,68.658z"/>
<path fill="#695433" d="M43.566,68.704c0.081-0.692,0.108-1.386,0.084-2.081c1.097-0.189,2.194-0.379,3.293-0.567c1.114,0.646,1.505,1.324,1.173,2.035c-0.338,0.724-0.685,1.087-1.043,1.087c0,0-0.182-0.129-0.184-0.129C45.78,68.934,44.674,68.817,43.566,68.704z"/>
<path fill="#BB9762" d="M47.072,69.178c-0.008-1.044-0.051-2.085-0.13-3.122c1.042,0.326,2.084,0.656,3.126,0.988c0,0.01,0.021,1.288,0.021,1.288C49.083,68.613,48.077,68.893,47.072,69.178z"/>
<path fill="#735E39" d="M43.876,56.576c2.07,0.034,4.139,0.07,6.21,0.104c0.959,0.705,1.287,1.422,0.985,2.148c-0.304,0.732-0.613,1.099-0.928,1.099c0,0,0.139-0.159,0.141-0.159c-2.013-0.091-4.024-0.18-6.032-0.274C44.091,58.523,43.964,57.553,43.876,56.576z"/>
<path fill="#9E834D" d="M41.124,46.823c1.965,0.217,3.931,0.434,5.896,0.65c0.001,0.003-0.129-0.137-0.129-0.137c0.47,0.543,0.938,1.086,1.406,1.63c-0.331,0.635-0.663,1.27-0.996,1.907c-2.15-0.156-4.298-0.309-6.448-0.461C40.945,49.216,41.034,48.019,41.124,46.823z"/>
<path fill="#BB9762" d="M53.231,53.434c-2.031,0.018-4.062,0.039-6.091,0.058c0-0.882,0.05-1.758,0.159-2.628c0.003,0.01-0.093-0.771-0.093-0.771c1.251-1.364,2.899-1.205,4.514-1.182c1.132,0.138,1.986,0.699,2.566,1.679c0.011,0.544,0.02,1.087,0.03,1.63C53.954,52.625,53.592,53.027,53.231,53.434z"/>
<path fill="#B38F5A" d="M55.982,56.814c-0.838,0.049-1.674,0.095-2.512,0.144c-0.079-1.172-0.158-2.347-0.239-3.524l0.16,0.061c0.943-1.034,2.115-1.577,3.516-1.626c1.352,0.345,2.428,1.095,3.266,2.206c0.401,1.386,0.125,2.621-0.832,3.702C57.946,58.417,56.838,58.051,55.982,56.814z"/>
<path fill="#B38F5A" d="M50.144,59.928c-0.019-1.08-0.036-2.164-0.057-3.247c1.155,0.027,2.312,0.052,3.472,0.079C52.42,57.815,51.282,58.871,50.144,59.928z"/>
<path fill="#746039" d="M75.2,34.787c-1.031,3.131-2.063,6.262-3.093,9.394c-0.599,0.326-1.195,0.653-1.795,0.977c-1.382-0.135-2.624-0.626-3.729-1.471c-0.882-1.071-1.503-2.271-1.818-3.625c-0.295-2.841-0.017-5.508,2.292-7.559c0.632-0.278,1.265-0.556,1.896-0.833c2.14,0.073,4.278,0.146,6.419,0.22C75.299,32.852,75.241,33.82,75.2,34.787z"/>
<path fill="#695433" d="M68.726,28.714c0.148,0.98,0.225,1.962,0.228,2.954l-0.043-0.094c-1.324,1.739-3.044,2.069-5.041,1.416c-1.098-0.742-1.799-1.767-2.158-3.034c0.138-1.376,0.878-2.301,2.134-2.835c1.91-0.085,3.861-0.302,5.067,1.706L68.726,28.714z"/>
<path fill="#352A1A" d="M81.578,40.939c-2.17,1.089-4.338,2.179-6.508,3.269C77.238,43.118,79.408,42.029,81.578,40.939z"/>
<path fill="#352A1A" d="M75.307,44.059c-1.051,1.062-2.104,2.121-3.155,3.183c-0.366-0.503-0.732-1.007-1.099-1.511c0.36-0.506,0.721-1.013,1.08-1.522l-0.025-0.027C73.174,44.141,74.24,44.101,75.307,44.059z"/>
<path fill="#8A7149" d="M43.998,22.199c2.095-0.006,4.192-0.012,6.288-0.019c-2.105,0.992-4.211,1.984-6.318,2.976C43.975,24.167,43.984,23.181,43.998,22.199z"/>
<path fill="#8A7149" d="M62.772,28.516c-0.012,1.038-0.018,2.072-0.021,3.11c-0.294,0.437-0.587,0.873-0.882,1.309c-0.939,0.525-1.95,0.729-3.02,0.662c-0.483-0.207-0.968-0.418-1.451-0.625c-0.305-0.43-0.608-0.86-0.914-1.291c-0.003-1.047-0.008-2.094-0.012-3.141c0.438-0.439,0.876-0.882,1.312-1.324C59.678,26.761,61.446,26.791,62.772,28.516z"/>
<path fill="#8A7149" d="M50.318,34.766c-0.063-1.025-0.126-2.054-0.192-3.079c2.118-0.003,4.237-0.006,6.358-0.006l-0.042-0.043c0.685,1.392,0.503,2.658-0.548,3.803c-2.096,1.141-4.036,1.205-5.682-0.809L50.318,34.766z"/>
<path fill="#8A7149" d="M56.472,28.54c0.074-1.166,0.149-2.332,0.226-3.5c0.002-0.003-0.211,0.167-0.211,0.167c0.55,0.577,1.101,1.154,1.649,1.73c-0.575,0.552-1.151,1.105-1.727,1.654L56.472,28.54z"/>
<path fill="#80683F" d="M53.285,47.382c0.013-1.105,0.024-2.207,0.037-3.312c0.485-0.46,0.969-0.921,1.454-1.382c2.041-0.729,3.911-0.467,5.578,0.967c0.629,1.236,0.806,2.536,0.594,3.9c-0.534,1.264-1.318,2.341-2.39,3.201c-0.625,0.263-1.251,0.519-1.877,0.778c-1.405,0.375-2.595,0.024-3.571-1.053l0.16,0.186c-0.669-0.552-1.336-1.102-2.004-1.653C51.94,48.471,52.613,47.925,53.285,47.382z"/>
<path fill="#55462A" d="M50.212,34.631c2.061,0.101,4.122,0.199,6.182,0.299c0.281,0.464,0.562,0.928,0.841,1.392c-0.135,1.107-0.583,2.063-1.392,2.841c-0.974,0.543-2.015,0.775-3.125,0.699c-0.999-0.47-1.84-1.139-2.498-2.029C50.217,36.765,50.215,35.7,50.212,34.631z"/>
<path fill="#8A7149" d="M50.22,37.833c0.992,0.109,1.979,0.241,2.965,0.391c2.069,1.935,1.979,3.906,0.105,5.911c0,0,0.032-0.061,0.032-0.064C52.289,41.989,51.255,39.911,50.22,37.833z"/>
<path fill="#55462A" d="M53.285,47.382c-0.004,1.096-0.009,2.188-0.015,3.283c-2.023-0.188-4.046-0.378-6.067-0.57c-0.093-0.925-0.197-1.843-0.31-2.759C49.023,47.351,51.154,47.366,53.285,47.382z"/>
<path fill="#6C5735" d="M56.409,28.592c0.025-1.126,0.052-2.255,0.077-3.384c1.917-0.903,3.833-1.803,5.748-2.704c0.319,0.992,0.642,1.986,0.963,2.979c0.585,0.625,1.171,1.251,1.755,1.877c-0.755,0.402-1.511,0.806-2.266,1.208l0.085-0.052C60.651,28.54,58.53,28.567,56.409,28.592z"/>
<path fill="#766239" d="M71.903,53.672c-2.072-0.01-4.144-0.021-6.218-0.034c-0.253-0.479-0.507-0.958-0.762-1.438c0.098-1.113,0.528-2.075,1.288-2.893c0.946-0.589,1.975-0.87,3.086-0.852c1.043,0.372,1.914,0.988,2.615,1.85C71.909,51.429,71.905,52.552,71.903,53.672z"/>
<path fill="#8A7149" d="M71.912,50.306c-0.971,0.036-1.942,0.052-2.916,0.049c-0.724-0.764-1.021-1.569-0.896-2.421c0.129-0.872,0.299-1.309,0.509-1.309c1.354-0.797,2.525-0.629,3.493,0.647l0.047-0.031C72.165,48.269,72.086,49.292,71.912,50.306z"/>
<path fill="#BB9762" d="M62.687,28.567c0.169-1.028,0.34-2.057,0.511-3.085c1.709-0.003,3.418-0.006,5.123-0.012c0.193,1.12,0.392,2.237,0.59,3.357C66.837,28.742,64.762,28.653,62.687,28.567z"/>
<path fill="#B99560" d="M55.982,56.814c1.334-0.109,2.667-0.22,4.001-0.326c2.078-1.706,4.039-1.67,5.865,0.391l-0.262-0.201c0.185,1.016,0.349,2.035,0.498,3.061c-2.169,0.879-4.339,1.758-6.509,2.634C58.377,60.519,57.18,58.667,55.982,56.814z"/>
<path fill="#4E3E26" d="M65.848,56.879c-1.956-0.131-3.912-0.26-5.867-0.391c-0.24-1.017-0.323-2.042-0.247-3.079c0.455-0.412,0.91-0.824,1.364-1.239c1.918-0.559,3.575-0.339,4.671,1.563c0,0-0.078-0.098-0.081-0.095C65.739,54.718,65.793,55.799,65.848,56.879z"/>
<path fill="#55462A" d="M53.111,50.482c1.067-0.079,2.134-0.159,3.201-0.238c0.754,0.567,1.032,1.169,0.841,1.804c-0.197,0.653-0.411,0.977-0.643,0.977c-1.041,0.159-2.081,0.317-3.121,0.473C53.358,52.484,53.264,51.483,53.111,50.482z"/>
<path fill="#4E3E26" d="M56.51,53.024c-0.04-0.928-0.104-1.853-0.195-2.78c-0.003,0,0.008,0.016,0.008,0.016c1.134-1.147,2.374-1.334,3.736-0.418c0.818,1.4,0.588,2.651-0.545,3.774c0,0,0.217-0.207,0.219-0.207C58.659,53.281,57.584,53.152,56.51,53.024z"/>
<path fill="#8A7149" d="M62.75,31.625c2.055-0.015,4.106-0.034,6.16-0.052c0.017,3.174,0.034,6.348,0.051,9.518c-0.889,1.044-1.988,1.761-3.299,2.152c-0.67-0.024-1.342-0.052-2.01-0.08c-0.605-0.284-1.213-0.567-1.819-0.852c-0.966-0.952-1.611-2.087-1.936-3.405c-0.126-2.814,1.053-5.124,2.798-7.218L62.75,31.625z"/>
<path fill="#55462A" d="M72.103,47.272c-1.033,0-2.062-0.055-3.087-0.165c-0.279-0.479-0.559-0.958-0.839-1.434c0.251-0.495,0.505-0.986,0.758-1.48c1.063,0.003,2.129,0.009,3.197,0.013C72.105,45.23,72.094,46.252,72.103,47.272z"/>
<path fill="#55462A" d="M65.834,41.067c1.042,0.006,2.085,0.016,3.127,0.024c-0.003,1.035-0.013,2.066-0.026,3.101l0.094-0.094c-1.032,1.163-2.221,1.355-3.566,0.577C64.635,43.372,64.714,42.166,65.834,41.067z"/>
<path fill="#846B43" d="M62.696,31.689c-0.079,2.097-0.157,4.196-0.236,6.293c-0.947,1.071-2.064,1.233-3.325,0.61c-0.812-1.053-1.17-2.243-1.077-3.567c-0.047-1.352,0.449-2.46,1.486-3.327C60.595,31.696,61.645,31.692,62.696,31.689z"/>
<path fill="#766239" d="M59.543,31.699c0.024,1.022,0.04,2.044,0.044,3.07c-0.535,0.577-1.072,1.154-1.609,1.733c-0.557-0.558-1.115-1.117-1.673-1.672c0,0,0.091,0.094,0.091,0.098c0.014-1.096,0.03-2.191,0.046-3.29C57.476,31.656,58.509,31.674,59.543,31.699z"/>
<path fill="#79643B" d="M53.29,44.135c-0.033-1.972-0.067-3.946-0.103-5.915c1.119-0.101,2.24-0.201,3.361-0.305c0.558,0.226,1.114,0.455,1.673,0.681c0.961,0.735,1.777,1.608,2.446,2.622c0.245,1.288-0.217,2.271-1.294,2.988C57.346,44.181,55.319,44.159,53.29,44.135z"/>
<path fill="#55462A" d="M59.374,44.205c0.03-1.017,0.014-2.03-0.051-3.043c0.567-0.562,1.134-1.12,1.7-1.682c0.636,0.479,1.272,0.961,1.908,1.44l-0.209,0.101c0.979,0.821,1.497,1.868,1.552,3.146c0.04,1.276-0.411,2.362-1.283,3.284c-0.567,0.229-1.137,0.461-1.706,0.689c-0.546-0.277-1.094-0.556-1.64-0.833C59.615,46.268,59.525,45.233,59.374,44.205z"/>
<path fill="#55462A" d="M59.252,50.47c-0.979-0.052-1.953-0.118-2.93-0.207c1.107-0.985,2.215-1.972,3.323-2.954l-0.135-0.107c0.749,0.791,0.96,1.539,0.634,2.243C59.828,50.128,59.531,50.47,59.252,50.47z"/>
<path fill="#8A7149" d="M56.305,34.83c1.095-0.021,2.188-0.04,3.282-0.062c-0.017,0.903-0.036,1.807-0.056,2.707c-0.914,1.633-1.966,1.807-3.171,0.296c0,0,0.188,0.141,0.188,0.144C56.488,36.884,56.406,35.855,56.305,34.83z"/>
<path fill="#886F47" d="M59.252,50.47c0.087-1.089,0.174-2.176,0.259-3.265c1.074,0.037,2.15,0.073,3.225,0.113l1.281,0.043c0.884,0.293,1.47,0.882,1.76,1.764l0.043,1.282c-0.018,1.107-0.032,2.215-0.049,3.326c-2.088-0.037-4.172-0.076-6.257-0.116C59.426,52.566,59.339,51.519,59.252,50.47z"/>
<path fill="#846B43" d="M62.736,47.317c-0.005-1.05-0.011-2.096-0.017-3.143c1.021-1.447,2.063-1.385,3.117-0.037c1.063-0.012,2.127-0.024,3.192-0.037c-0.029,1.001-0.035,2.005-0.015,3.009c-0.006,1.08-0.012,2.163-0.018,3.244c-1.058,0.018-2.116,0.033-3.177,0.052l0.053,0.046c-0.945-1.154-2.013-2.188-3.157-3.141L62.736,47.317z"/>
<path fill="#4E3E26" d="M56.361,37.771c1.058-0.098,2.114-0.192,3.171-0.293c0.967,0.223,1.945,0.391,2.93,0.504c0.158,0.979,0.313,1.959,0.47,2.938c-1.199,0.08-2.4,0.159-3.604,0.241C58.336,40.033,57.348,38.901,56.361,37.771z"/>
<path fill="#4E3E26" d="M65.836,44.138c-1.041,0.021-2.08,0.03-3.119,0.03c0-1.041,0-2.084,0.003-3.137c1.042,0.006,2.081,0.009,3.117,0.021C65.84,42.09,65.842,43.115,65.836,44.138z"/>
<path fill="#766239" d="M62.715,47.311c1.052,1.047,2.104,2.094,3.156,3.141C64.82,49.405,63.769,48.358,62.715,47.311z"/>
</svg>