<?xml version="1.0" encoding="utf-8"?>
<!DOCTYPE svg PUBLIC "-//W3C//DTD SVG 1.1//EN" "http://www.w3.org/Graphics/SVG/1.1/DTD/svg11.dtd">
<svg version="1.1" xmlns="http://www.w3.org/2000/svg" xmlns:xlink="http://www.w3.org/1999/xlink" x="0px" y="0px" width="100px" height="100px" viewBox="0 0 100 100" enable-background="new 0 0 100 100" xml:space="preserve">
<path fill="#80541C" d="M61.846,82.413C62.065,88.275,62.283,94.138,62.5,100c-6.25,0-12.5,0-18.75,0c0.358-8.24,0.717-16.482,1.076-24.723c2.261-3.635,5.46-5.242,9.735-4.504C59.731,72.931,63.376,76.05,61.846,82.413z"/>
<path fill="#006400" d="M100,75c-3.975-3.961-7.949-7.922-11.924-11.884c1.549-2.463,3.448-2.6,5.632-0.849c2.098,0.077,4.194,0.156,6.292,0.232C100,66.666,100,70.834,100,75z"/>
<path fill="#8E5F25" d="M43.931,62.833c-2.577,1.867-5.153,3.731-7.729,5.597c-7.869,1.352-7.869,1.352-8.179-9.519c-0.179-2.454-0.879-4.864-0.729-7.352c0.391-1.627,1.247-2.964,2.563-4.001c2.164-1.093,4.39-2.069,6.421-3.418c2.786-1.666,5.418-3.628,8.623-4.504c2.515-0.333,4.929-0.107,7.144,1.26c1.909,1.758,2.683,4.178,3.773,6.415c1.827,4.604,5.398,8.657,4.457,14.133c-0.484,1.653-1.395,3.027-2.729,4.12c-2.296,1.263-4.769,1.422-7.306,1.15C47.685,66.159,45.762,64.569,43.931,62.833z"/>
<path fill="#006400" d="M30.697,56.186c1.835,4.08,3.669,8.161,5.505,12.244c0.213,2.938,0.429,5.878,0.828,11.361c-8.807-1.831-16.465-3.424-24.124-5.017c1.95-2.106,3.975-4.142,5.884-6.287l-0.3,0.306c2.245-1.938,4.283-4.087,6.313-6.244c0.101-2.121,0.201-4.245,0.302-6.366c0.57-0.458,1.141-0.918,1.712-1.376C28.353,54.581,29.636,55.072,30.697,56.186z"/>
<path fill="#794E18" d="M80.964,18.619c0.334,2.066,0.668,4.132,1.002,6.198c1.478,2.194,2.289,4.602,2.308,7.26c0.022,2.615-0.065,5.203-1.67,7.452c-2.041,1.929-4.583,2.402-7.254,2.506c-2.643,0.052-5.274,0.021-7.808-0.879c-3.87-2.25-7.025-5.182-8.92-9.314c-0.623-2.563-0.594-5.072,0.679-7.461c1.63-2.029,4.018-2.866,6.267-3.909C70.553,18.683,75.108,13.26,80.964,18.619z"/>
<path fill="#006400" d="M37.065,18.585c2.375,2.115,4.747,4.23,7.122,6.342c0.699,0.381,1.399,0.763,2.098,1.145c2.687,3.562,2.209,7.455,1.202,11.404c-0.813,1.44-1.988,2.466-3.523,3.076c-2.261,0.894-4.579,1.373-7.019,0.974c-2.333-0.818-4.093-2.441-5.803-4.129l0.212,0.21c-1.81-1.892-3.551-3.827-4.154-6.494c-0.391-2.667,0.415-5.197,0.887-7.77C29.227,18.256,31.299,14.936,37.065,18.585z"/>
<path fill="#006400" d="M87.868,36.841c-0.017,6.394-0.035,12.787-0.052,19.184c-0.453,0.665-0.906,1.33-1.356,1.995c-2.252,1.209-4.55,1.23-6.882,0.263c-2.004-1.532-2.69-3.692-2.862-6.082c-0.107-2.228-0.104-4.468,0.147-6.689c0.307-1.419,0.935-2.688,1.922-3.766c1.767-1.126,3.779-1.871,5.38-3.281C85.215,37.512,86.46,36.987,87.868,36.841z"/>
<path fill="#006400" d="M62.912,25.653c-0.245,1.815-0.491,3.631-0.736,5.447c-0.39,8.673-4.723,11.407-12.796,8.505c-3.658-3.638-2.158-8.236-2.301-12.521c0.346-5.649,6.297-4.926,8.998-7.904c2.267-0.156,4.53-0.311,6.795-0.47c0.469,0.473,0.938,0.946,1.407,1.422C65.027,22.269,64.002,23.969,62.912,25.653z"/>
<path fill="#49CB25" d="M37.065,18.585c-2.11,2.143-4.22,4.282-6.331,6.421c-1.097,1.185-2.455,1.621-4.041,1.404c-0.583-0.488-1.167-0.977-1.752-1.465c0-3.476,0-6.949,0-15.931C30.919,13.733,33.993,16.159,37.065,18.585z"/>
<path fill="#006400" d="M80.964,18.619c-4.071,1.965-8.143,3.928-12.214,5.89c-1.788-1.648-2.884-3.62-2.882-6.11c0.079-2.469,1.221-4.44,2.895-6.162l-0.273,0.275c2.078-1.971,4.236-2.039,6.473-0.275C76.963,14.365,78.963,16.492,80.964,18.619z"/>
<path fill="#006400" d="M50.083,63.034c2.073-0.217,4.146-0.434,6.22-0.647c2.55,0.745,3.81,2.558,4.197,5.088c0.128,2.423-0.27,4.678-2.119,6.454c-0.734,0.278-1.468,0.556-2.203,0.833c-3.785,0.174-7.568,0.348-11.353,0.52c-0.221-2.256-0.446-4.505-0.668-6.757C45.989,66.541,47.91,64.651,50.083,63.034z"/>
<path fill="#49CB25" d="M56.076,19.18c-2.148,2.026-4.297,4.053-6.445,6.079c-2.111,1.764-4.04,1.691-5.754-0.567c0,0,0.312,0.235,0.31,0.235C48.149,23.013,52.114,21.097,56.076,19.18z"/>
<path fill="#49CB25" d="M19.181,49.823c1.851-1.896,3.702-3.791,5.554-5.686c2.232,1.855,2.291,3.977,0.768,6.293C23.223,52.011,21.099,51.993,19.181,49.823z"/>
<path fill="#006400" d="M24.572,49.552c0.052-1.807,0.105-3.61,0.16-5.414c2.208-0.095,4.413-0.189,6.618-0.284c0.487,0.424,0.974,0.846,1.462,1.267c0.76,2.094-0.035,3.702-1.575,5.081l0.22-0.223c-1.288,1.321-2.654,2.481-4.695,2.222C25.576,51.693,24.846,50.809,24.572,49.552z"/>
<path fill="#49CB25" d="M74.962,12.237c-2.157,0.092-4.314,0.184-6.473,0.275c0.708-2.06,1.418-4.123,3.269-9.509C73.6,8.31,74.282,10.273,74.962,12.237z"/>
<path fill="#49CB25" d="M68.763,12.237c-0.058,2.155-0.116,4.306-0.173,6.461c-2.092,2.042-4.11,2.023-6.051-0.214c0,0,0.335,0.226,0.334,0.226C64.835,16.553,66.799,14.395,68.763,12.237z"/>
<path fill="#006400" d="M19.181,49.823c1.798-0.092,3.594-0.181,5.391-0.271l0.952,0.97c1.674,2.148,1.349,4.08-0.63,5.835l0.211-0.174C23.13,54.062,21.155,51.944,19.181,49.823z"/>
<path fill="#49CB25" d="M19.186,31.079c1.919-2.045,3.837-4.089,5.757-6.134l0.127,0.122c1.596,1.504,2.699,3.219,2.389,5.548c-0.6,1.324-1.533,2.332-2.853,2.963C22.23,33.981,20.546,32.88,19.186,31.079z"/>
<path fill="#006400" d="M81.362,30.951c0.201-2.045,0.402-4.09,0.604-6.134c1.685,2.161,3.369,4.321,5.054,6.482C85.004,33.271,83.116,33.2,81.362,30.951z"/>
<path fill="#49CB25" d="M93.708,62.268c-1.88,0.281-3.76,0.563-5.636,0.846c0.004,0.003-0.929-0.903-0.929-0.903c-1.613-2.087-1.628-3.906,0.894-5.295c0,0-0.227-0.894-0.224-0.894C89.78,58.106,91.744,60.187,93.708,62.268z"/>
<path fill="#006400" d="M19.186,31.079c1.75,0.171,3.502,0.342,5.253,0.513c2.344,1.596,2.589,3.412,0.572,5.463C23.069,35.065,21.128,33.072,19.186,31.079z"/>
<path fill="#5B3406" d="M25.011,37.055c-0.189-1.822-0.378-3.644-0.571-5.463c-0.001,0,0.967-0.979,0.967-0.979c1.949-1.492,3.729-1.248,5.364,0.519c0.194,2.158,0.388,4.318,0.583,6.476C29.239,37.424,27.126,37.241,25.011,37.055z"/>
<path fill="#49CB25" d="M50.083,63.034c-1.977,1.828-3.952,3.656-5.928,5.487c-0.073-1.896-0.149-3.794-0.224-5.688C45.981,62.899,48.032,62.967,50.083,63.034z"/>
<path fill="#936428" d="M81.362,30.951c1.887,0.116,3.774,0.235,5.659,0.351c0.282,1.847,0.564,3.696,0.847,5.542c0-0.003-1.045,0.998-1.045,0.998c-1.226,1.065-2.628,1.419-4.21,1.059c-0.55-0.541-1.099-1.081-1.648-1.621C81.098,35.169,81.231,33.06,81.362,30.951z"/>
<path fill="#5B3406" d="M31.142,37.397c2.141,0.201,4.282,0.399,6.422,0.601c1.1,1.099,1.798,2.405,2.033,3.952c-0.273,1.566-1.091,2.78-2.373,3.696c-2.489,0.76-4.419-0.174-6.056-1.996c0,0,0.18,0.201,0.18,0.204C31.279,41.702,31.211,39.548,31.142,37.397z"/>
<path fill="#49CB25" d="M24.802,62.549c-2.104,2.081-4.208,4.162-6.313,6.244C20.594,66.711,22.698,64.63,24.802,62.549z"/>
<path fill="#49CB25" d="M18.79,68.487c-1.96,2.097-3.923,4.19-5.885,6.287C14.869,72.681,16.83,70.584,18.79,68.487z"/>
<path fill="#8A5B22" d="M88.037,56.915c-0.297,1.768-0.596,3.531-0.894,5.295c-1.941,0.296-3.881,0.589-5.819,0.885c-2.012,1.489-4.241,2.375-6.77,2.454c-2.475,0.085-4.949,0.104-7.409,0.455c-2.685,0.567-4.921-0.165-6.687-2.283c-2.851-6.61,0.497-11.288,4.864-15.646c1.944-1.7,4.234-2.414,6.787-2.337c1.639,0.14,3.108,0.729,4.394,1.761c1.854,2.545,1.93,6.112,4.664,8.16C83.457,56.079,85.747,56.497,88.037,56.915z"/>
<path fill="#32AA19" d="M61.846,82.413c-1.889-2.552-3.779-5.1-5.668-7.651l-0.133,0.26c1.815-1.693,3.679-3.302,6.292-3.598c2.645,0.244,4.476,1.876,6.218,3.655C66.318,77.523,64.083,79.969,61.846,82.413z"/>
<path fill="#5B3406" d="M68.555,75.079c-1.81-0.229-3.617-0.454-5.427-0.684c-2.653-1.248-4.491-3.437-6.386-5.56c-0.146-2.152-0.295-4.304-0.439-6.452c0,0.003-0.223,0.165-0.223,0.165c1.994-2.002,4.076-2.078,6.246-0.29c2.118,0.257,4.236,0.513,6.354,0.77c2.055,1.733,2.128,3.641,0.505,5.7C68.975,70.847,68.766,72.961,68.555,75.079z"/>
<path fill="#49CB25" d="M69.186,68.729c-0.168-1.901-0.336-3.806-0.505-5.703c2.155,0.009,4.312,0.018,6.468,0.023c1.863,1.881,1.804,3.642-0.326,5.271C72.942,68.457,71.064,68.592,69.186,68.729z"/>
<path fill="#006400" d="M74.822,68.319c0.108-1.755,0.218-3.513,0.326-5.271c2.059,0.016,4.117,0.031,6.176,0.046C79.157,64.838,76.988,66.577,74.822,68.319z"/>
<path fill="#8A5B22" d="M50.295,37.344c3.961-2.081,7.921-4.163,11.881-6.244c2.136,2.142,4.272,4.285,6.41,6.424c2.133,2.158,2.752,4.575,1.273,7.354c-2.019,2.002-4.525,2.912-7.284,3.263c-4.72,0.467-9.028-0.271-12.248-4.187c-1.939-0.046-3.877-0.092-5.817-0.134c-0.641-0.421-1.282-0.846-1.921-1.267c-0.521-1.538-0.267-2.957,0.65-4.275l0.327-0.891C45.797,35.504,48.041,35.51,50.295,37.344z"/>
<path fill="#006400" d="M62.326,62.259c-2.082,0.098-4.164,0.192-6.246,0.29c-1.85-4.153-3.699-8.307-5.549-12.463c3.469-3.922,8.11-3.07,12.538-3.083c2.794,0.253,5.382,0.797,5.992,4.178C66.815,54.874,64.571,58.566,62.326,62.259z"/>
<path fill="#49CB25" d="M62.451,49.814c-3.973,0.092-7.946,0.184-11.92,0.275c-0.066-2.048-0.136-4.093-0.204-6.138c4.01,0.058,8.02,0.113,12.031,0.171C64.493,45.984,64.468,47.882,62.451,49.814z"/>
<path fill="#5B3406" d="M37.186,49.579c-0.053-1.792-0.107-3.583-0.16-5.371l1.022-1.01c1.71-1.611,3.664-2.069,5.89-1.249c0.112,0.644,0.296,1.27,0.563,1.871C42.069,45.74,39.627,47.659,37.186,49.579z"/>
<path fill="#006400" d="M68.44,42.569c0.05-1.685,0.099-3.366,0.147-5.044c1.991,0.034,3.986,0.064,5.98,0.098c2.133,1.486,3.031,3.461,2.382,6.045c-0.838,1.435-2.063,2.334-3.681,2.704C70.665,46.362,68.648,45.611,68.44,42.569z"/>
<path fill="#936428" d="M30.772,31.131c-1.789-0.171-3.578-0.342-5.365-0.516c-0.111-1.853-0.224-3.699-0.337-5.548c1.889-0.019,3.778-0.04,5.666-0.058C30.747,27.048,30.759,29.089,30.772,31.131z"/>
<path fill="#936428" d="M43.938,41.949c-1.963,0.418-3.926,0.833-5.89,1.249c-0.16-1.733-0.32-3.467-0.482-5.2c1.894,0.094,3.788,0.189,5.678,0.281C43.471,39.502,43.705,40.726,43.938,41.949z"/>
<path fill="#49CB25" d="M80.988,43.793c0.161-1.996,0.321-3.989,0.482-5.981c1.783,0.009,3.567,0.021,5.353,0.03C84.878,39.825,82.934,41.809,80.988,43.793z"/>
<path fill="#49CB25" d="M75.083,44.077c2.06-0.195,4.118-0.394,6.178-0.589c-0.061,2.155-0.122,4.31-0.183,6.461c-2.127,2.051-4.181,2.021-6.155-0.22l0.345,0.309c-2.244-2.076-2.254-4.151,0-6.226L75.083,44.077z"/>
<path fill="#936428" d="M56.742,68.836c2.128,1.855,4.255,3.707,6.384,5.56c-2.358,0.211-4.721,0.418-7.081,0.626C56.276,72.958,56.51,70.898,56.742,68.836z"/>
</svg>