<?xml version="1.0" encoding="utf-8"?>
<!DOCTYPE svg PUBLIC "-//W3C//DTD SVG 1.1//EN" "http://www.w3.org/Graphics/SVG/1.1/DTD/svg11.dtd">
<svg version="1.1" xmlns="http://www.w3.org/2000/svg" xmlns:xlink="http://www.w3.org/1999/xlink" x="0px" y="0px" width="100px" height="100px" viewBox="0 0 100 100" enable-background="new 0 0 100 100" xml:space="preserve">
<path fill="#624D2C" d="M44.788,75.171c-5.38-2.426-11.078-4.343-16.06-7.419c-5.446-3.363-10.232-7.794-15.306-11.762c3.985-5.679,10.021-4.339,15.572-4.458c11.896-0.257,23.801,0.253,35.691-0.425c2.061-0.115,4.139-0.143,6.982-0.903c7.57-6.009,12.163-14.077,11.578-24.811c-0.258-4.709,0.029-9.381,4.489-12.466c2.148,2.832,6.005,5.582,6.149,8.514c0.667,13.449,0.293,26.947,0.293,43.049c-9.864,1.837-19.154,3.564-31.182,5.801c0,9.531,0,19.62,0,29.709c-6.25,0-12.5,0-18.75,0c0.27-2.16,0.54-4.324,0.81-6.488C48.311,87.351,48.635,81.229,44.788,75.171z"/>
<path fill="#9E834D" d="M87.735,12.927c0,13.269,0,26.541,0,43.063c-26.281,0-50.297,0-74.313,0c0-13.793,0-27.584,0-43.063C38.741,12.927,63.239,12.927,87.735,12.927z"/>
<path fill="#7C623E" d="M44.788,75.171c0.09,6.112,0.179,12.229,0.269,18.341C44.967,87.399,44.878,81.283,44.788,75.171z"/>
<path fill="#2C200C" d="M75.574,30.597c-5.554,0-11.109,0-17.844,0c-0.183-3.638-0.348-6.881-0.651-12.881c7.288,2.787,12.778,4.886,18.268,6.989c0.621,0.537,1.241,1.074,1.862,1.611C77.551,28.079,77.006,29.507,75.574,30.597z"/>
<path fill="#2A1F0C" d="M27.721,32.749c-3.148-3.034-6.295-6.064-9.445-9.097c1.163-1.242,2.325-2.484,3.488-3.727c3.233,2.615,6.468,5.228,9.702,7.84C30.218,29.428,28.97,31.088,27.721,32.749z"/>
<path fill="#2A1F0C" d="M32.888,42.853c-3.341,2.792-6.685,5.588-10.026,8.384c-1.568-1.703-3.137-3.406-4.704-5.109c3.392-2.46,6.784-4.919,10.176-7.379C29.852,40.115,31.37,41.482,32.888,42.853z"/>
<path fill="#2A1F0C" d="M56.75,44.351c3.43-1.754,6.861-3.509,11.193-5.728c0.417,3.589,0.748,6.448,1.25,10.775c-4.655,0-8.55,0-12.443,0C54.589,47.717,54.589,46.033,56.75,44.351z"/>
<path fill="#2A1F0C" d="M56.75,44.351c0,1.682,0,3.366,0,5.047c-6.103-1.867-12.206-3.738-18.308-5.605c4.06-4.184,8.188-3.598,12.354-0.174C52.781,43.863,54.766,44.107,56.75,44.351z"/>
<path fill="#3F2D0E" d="M50.797,43.619c-4.118,0.058-8.236,0.116-12.354,0.174c1.69-1.993,4.031-5.924,4.95-5.615C46.159,39.106,48.369,41.684,50.797,43.619z"/>
<path fill="#3F2D0E" d="M75.347,24.704c0.656-1.712,1.313-3.421,3.086-8.039c1.538,4.624,2.174,6.537,2.809,8.451c-1.481,1.837-3.195,2.67-5.427,1.254C75.602,25.83,75.446,25.274,75.347,24.704z"/>
<path fill="#21190B" d="M44.127,30.747c-1.891-0.488-3.779-0.977-10.147-2.622c6.368-1.645,8.256-2.133,10.147-2.622C46.399,27.252,46.399,28.998,44.127,30.747z"/>
<path fill="#3F2D0E" d="M44.127,30.747c0-1.749,0-3.495,0-5.243c1.778,0.354,3.555,0.705,9.409,1.865C47.916,29.385,46.022,30.066,44.127,30.747z"/>
<path fill="#21190B" d="M75.814,26.37c1.81-0.418,3.619-0.836,5.427-1.251c-1.889,1.825-3.777,3.653-5.667,5.478C75.655,29.187,75.734,27.777,75.814,26.37z"/>
<path fill="#3F2D0E" d="M76.002,43.866c0.353-1.779,0.705-3.563,1.864-9.406c2.018,5.618,2.696,7.51,3.375,9.406C79.494,45.95,77.747,45.95,76.002,43.866z"/>
<path fill="#21190B" d="M76.002,43.866c1.747,0,3.492,0,5.239,0c-0.486,1.892-0.975,3.781-2.62,10.156C76.977,47.648,76.488,45.755,76.002,43.866z"/>
</svg>