<?xml version="1.0" encoding="utf-8"?>
<!DOCTYPE svg PUBLIC "-//W3C//DTD SVG 1.1//EN" "http://www.w3.org/Graphics/SVG/1.1/DTD/svg11.dtd">
<svg version="1.1" xmlns="http://www.w3.org/2000/svg" xmlns:xlink="http://www.w3.org/1999/xlink" x="0px" y="0px" width="100px" height="100px" viewBox="0 0 100 100" enable-background="new 0 0 100 100" xml:space="preserve">
<path fill="#6B5636" d="M44.732,81.332c0.006-6.299,0.014-12.594,0.02-18.893c4.231-4.145,0.852-11.066,5.444-15.122c2.696-0.809,4.429,0.741,6.017,2.622c0.176,16.687,0.352,33.373,0.526,50.061c-2.082,0-4.167,0-6.25,0c-1.46-1.373-2.748-2.838-3.005-4.972C47.156,90.354,48.552,85.376,44.732,81.332z"/>
<path fill="#947546" d="M50.103,94.178c0.128,1.94,0.258,3.881,0.386,5.822c-2.082,0-4.167,0-6.25,0c0.169-2.048,0.34-4.096,0.51-6.141C46.678,91.556,48.465,91.623,50.103,94.178z"/>
<path fill="#717171" d="M56.213,49.94c-1.922,0.256-3.843,0.512-5.765,0.769c-0.67-0.274-1.341-0.55-2.011-0.824c-1.106-1.989-1.047-4.162-0.99-6.335c0.078-2.332,1.259-4.074,2.979-5.524C52.354,41.995,54.283,45.966,56.213,49.94z"/>
<path fill="#765D3A" d="M50.448,50.708c-1.897,3.909-3.798,7.818-5.696,11.731c-0.018-4.185-0.037-8.365-0.055-12.549c1.807-2.25,3.756-2.411,5.854-0.4L50.448,50.708z"/>
<path fill="#7C623E" d="M50.103,94.178c-1.785-0.104-3.569-0.211-5.354-0.318c-0.006-4.174-0.012-8.353-0.017-12.527C46.522,85.614,48.313,89.896,50.103,94.178z"/>
<path fill="#7D7D7D" d="M50.426,38.025c-0.008,1.917-0.016,3.833-0.021,5.75c-1.885,2.045-3.766,2.255-5.643-0.009C46.649,41.852,48.536,39.939,50.426,38.025z"/>
<path fill="#808080" d="M44.762,43.765c1.881,0.003,3.765,0.006,5.645,0.009c0.047,1.907,0.094,3.814,0.143,5.719c-1.949,0.128-3.901,0.263-5.852,0.397C44.719,47.849,44.74,45.807,44.762,43.765z"/>
</svg>