<?xml version="1.0" encoding="utf-8"?>
<!DOCTYPE svg PUBLIC "-//W3C//DTD SVG 1.1//EN" "http://www.w3.org/Graphics/SVG/1.1/DTD/svg11.dtd">
<svg version="1.1" xmlns="http://www.w3.org/2000/svg" xmlns:xlink="http://www.w3.org/1999/xlink" x="0px" y="0px" width="100px" height="100px" viewBox="0 0 100 100" enable-background="new 0 0 100 100" xml:space="preserve">
<path fill="#42341F" d="M44.417,87.686c0-2.207,0-4.413,0-6.62c3.155-2.242,2.533-5.685,2.941-8.841c-0.661-5.749,0.889-11.541,0.035-17.315c0.791-2.38-0.525-5.176,1.773-7.168c2.722-1.361,4.861-0.486,6.584,1.852c0.33,16.801,0.659,33.604,0.988,50.406c-2.082,0-4.167,0-6.25,0c-1.503-1.407-2.807-2.933-3.041-5.097C47.449,92.07,46.777,89.525,44.417,87.686z"/>
<path fill="#675231" d="M50.024,93.325c0.154,2.225,0.31,4.449,0.465,6.674c-2.082,0-4.167,0-6.25,0c0.156-2.157,0.311-4.313,0.467-6.47C46.405,91.567,48.174,91.381,50.024,93.325z"/>
<path fill="#480000" d="M55.751,49.593c-1.885,0.232-3.769,0.467-5.652,0.699c-1.872,2.182-3.674,1.965-5.421-0.155c0.02-2.191,0.038-4.383,0.058-6.574c1.709-2.005,3.582-3.848,5.577-5.566C52.126,41.86,53.938,45.727,55.751,49.593z"/>
<path fill="#9E7F50" d="M49.82,56.609c0.038,6.106,0.074,12.21,0.112,18.316c-1.71,2.23-3.436,2.222-5.174,0.03c0.035-6.17,0.068-12.344,0.104-18.515C46.595,54.076,48.25,54.079,49.82,56.609z"/>
<path fill="#560000" d="M50.312,37.997c-1.859,1.855-3.718,3.711-5.578,5.566C46.594,41.708,48.453,39.852,50.312,37.997z"/>
<path fill="#7D633C" d="M49.82,56.609c-1.653-0.059-3.306-0.113-4.958-0.168c-0.064-2.1-0.126-4.199-0.186-6.302c1.81,0.049,3.616,0.101,5.422,0.152C50.006,52.397,49.913,54.503,49.82,56.609z"/>
<path fill="#967748" d="M44.759,74.956c1.726-0.009,3.45-0.018,5.174-0.03c-1.839,2.048-3.677,4.093-5.516,6.14C44.531,79.03,44.645,76.995,44.759,74.956z"/>
<path fill="#977849" d="M50.024,93.325c-1.773,0.066-3.545,0.137-5.318,0.204c-0.096-1.947-0.194-3.894-0.29-5.844C46.286,89.565,48.155,91.445,50.024,93.325z"/>
</svg>