<?xml version="1.0" encoding="utf-8"?>
<!DOCTYPE svg PUBLIC "-//W3C//DTD SVG 1.1//EN" "http://www.w3.org/Graphics/SVG/1.1/DTD/svg11.dtd">
<svg version="1.1" xmlns="http://www.w3.org/2000/svg" xmlns:xlink="http://www.w3.org/1999/xlink" x="0px" y="0px" width="100px" height="100px" viewBox="0 0 100 100" enable-background="new 0 0 100 100" xml:space="preserve">
<path fill="#42341F" d="M55.819,55.811c0.307,14.73,0.613,29.459,0.92,44.189c-2.082,0-4.167,0-6.25,0c-0.152-2.222-0.307-4.443-0.459-6.665c-1.87-1.883-3.741-3.766-5.613-5.648c0-2.207,0-4.413,0-6.62c1.84-2.047,3.679-4.092,5.518-6.14c0.028-2.032,0.057-4.065,0.084-6.098c0.033-4.067,0.065-8.139,0.099-12.207C52.018,56.354,53.918,56.082,55.819,55.811z"/>
<path fill="#675231" d="M50.03,93.335c0.152,2.222,0.307,4.443,0.459,6.665c-2.082,0-4.167,0-6.25,0c0.156-2.154,0.313-4.309,0.468-6.461C46.483,93.469,48.256,93.402,50.03,93.335z"/>
<path fill="#FC0000" d="M43.998,37.241c2.09-1.981,4.092-5.383,6.3-5.524c2.007-0.128,4.239,3.293,6.372,5.148c-0.336,0.519-0.551,1.083-0.644,1.694c-3.843-0.266-7.685-0.531-11.527-0.796L43.998,37.241z"/>
<path fill="#FC0000" d="M43.971,50.241c-1.978-2.17-5.505-4.343-5.496-6.506c0.007-2.17,3.537-4.331,5.523-6.494l0.502,0.521c0.081,2.017,0.162,4.034,0.243,6.051c-0.084,1.978-0.168,3.956-0.251,5.933L43.971,50.241z"/>
<path fill="#FD2D00" d="M56.671,36.865c2.067,2.582,5.14,4.941,5.77,7.837c0.305,1.407-3.95,3.809-6.139,5.756c0.003,0,0.141-0.815,0.141-0.815c-0.354-2.111-0.707-4.22-1.06-6.332c0.216-1.584,0.429-3.168,0.645-4.751C56.12,37.949,56.335,37.384,56.671,36.865z"/>
<path fill="#FC0000" d="M55.819,55.811c-1.901,0.271-3.801,0.543-5.7,0.812c-1.782-0.122-3.566-0.244-5.35-0.366c-0.267-2.005-0.532-4.01-0.798-6.015l0.521-0.494c2.011-0.089,4.022-0.178,6.033-0.266c1.972,0.055,3.945,0.106,5.918,0.161c0,0-0.138,0.815-0.141,0.815C56.139,52.246,55.979,54.028,55.819,55.811z"/>
<path fill="#937445" d="M44.769,56.256c1.784,0.122,3.568,0.244,5.35,0.366c-0.035,4.068-0.067,8.14-0.098,12.207c-1.757-0.009-3.514-0.019-5.272-0.03C44.757,64.618,44.763,60.438,44.769,56.256z"/>
<path fill="#9E7F50" d="M44.749,68.799c1.758,0.012,3.515,0.021,5.272,0.03c-0.03,2.032-0.059,4.065-0.087,6.098c-1.725,0.013-3.45,0.021-5.174,0.033C44.757,72.906,44.754,70.853,44.749,68.799z"/>
<path fill="#967748" d="M44.76,74.96c1.724-0.012,3.45-0.021,5.174-0.033c-1.839,2.048-3.678,4.093-5.518,6.14C44.531,79.031,44.645,76.996,44.76,74.96z"/>
<path fill="#977849" d="M50.03,93.335c-1.774,0.067-3.547,0.134-5.322,0.204c-0.096-1.953-0.193-3.902-0.291-5.853C46.289,89.569,48.16,91.452,50.03,93.335z"/>
<path fill="#FED700" d="M56.027,38.559c-0.216,1.583-0.429,3.167-0.643,4.751c-1.614,0.327-3.23,0.653-4.848,0.977c-1.932-0.159-3.864-0.317-5.794-0.473c-0.081-2.017-0.162-4.034-0.243-6.051C48.343,38.028,52.184,38.294,56.027,38.559z"/>
<path fill="#FEFE96" d="M44.743,43.814c1.93,0.156,3.862,0.314,5.797,0.473c-0.003,1.73-0.009,3.464-0.016,5.194c-2.011,0.088-4.022,0.177-6.033,0.266C44.575,47.77,44.659,45.792,44.743,43.814z"/>
<path fill="#FEFEFE" d="M50.524,49.481c0.007-1.73,0.013-3.464,0.016-5.194c1.614-0.323,3.23-0.65,4.845-0.977c0.351,2.112,0.703,4.221,1.058,6.332C54.47,49.588,52.496,49.536,50.524,49.481z"/>
</svg>