<?xml version="1.0" encoding="utf-8"?>
<!DOCTYPE svg PUBLIC "-//W3C//DTD SVG 1.1//EN" "http://www.w3.org/Graphics/SVG/1.1/DTD/svg11.dtd">
<svg version="1.1" xmlns="http://www.w3.org/2000/svg" xmlns:xlink="http://www.w3.org/1999/xlink" x="0px" y="0px" width="100px" height="100px" viewBox="0 0 100 100" enable-background="new 0 0 100 100" xml:space="preserve">
<path fill="#4F5258" d="M69.521,87.647c-6.407,2.893-12.815,5.786-19.223,8.683c0.185-0.938,0.393-1.865,0.619-2.79c0.902-3.055,1.807-6.109,2.712-9.164c2.084-1.044,4.167-2.084,6.251-3.125l0,0c0.002,1.034,0,2.069-0.006,3.101c1.044,0.009,2.088,0.016,3.131,0.021c0-1.041,0-2.081,0-3.122s0-2.084,0-3.125c1.041-3.125,2.082-6.25,3.122-9.375c2.091-1.041,4.183-2.081,6.274-3.122c2.075,1.041,4.15,2.081,6.226,3.119c1.05-0.003,2.1-0.009,3.149-0.016c1.033,0.007,2.066,0.013,3.1,0.016h0.001c2.085,1.044,4.169,2.084,6.253,3.128h-0.001c0.844,0.988,1.688,1.98,2.53,2.973c-3.93,2.182-7.858,4.367-11.789,6.552c-0.002-0.003-0.129-0.165-0.121-0.155c0.006-1.035,0.006-2.078,0.006-3.119c-2.098-1.041-4.195-2.084-6.294-3.125c-2.067,1.041-4.137,2.081-6.206,3.125c0,1.041,0,2.081,0,3.125C69.344,83.383,69.433,85.514,69.521,87.647z"/>
<path fill="#4F5258" d="M93.714,56.098c-0.006,5.264-0.013,10.528-0.017,15.796c-0.856-0.007-1.712-0.013-2.568-0.019h0.001c-2.084-1.044-4.168-2.084-6.253-3.128h-0.001c-1.041-1.041-2.081-2.081-3.121-3.122c1.043-2.084,2.085-4.166,3.125-6.25l0,0c-1.054-0.006-2.108-0.016-3.163-0.021c-1.018-0.003-2.036-0.006-3.055-0.012l-0.101,0.094c-1.016-0.027-2.034-0.045-3.05-0.058c-1.816-0.418-3.632-0.839-6.827-1.574c2.918-3.336,4.871-5.569,6.825-7.804c2.083,1.041,4.164,2.081,6.247,3.122l1.561,0.003h1.562c1.045-1.044,2.091-2.084,3.136-3.125c1.037,0,2.075,0,3.114,0h0.001c0.002,1.044,0.004,2.088,0.004,3.131C91.994,54.12,92.854,55.108,93.714,56.098z"/>
<path fill="#4F5258" d="M91.129,50c-1.039,0-2.077,0-3.114,0c-1.045-1.041-2.091-2.081-3.136-3.125c0.005-1.047,0.008-2.097,0.012-3.146c0.002-1.025,0.002-2.054,0.002-3.079c-1.056-2.087-2.113-4.175-3.171-6.262c-1.02-0.003-2.038-0.003-3.058,0c-1.166-0.04-2.333-0.083-3.499-0.122c0.239-0.97,0.439-1.953,0.602-2.939c2.029-1.056,4.061-2.108,6.09-3.165c1.089-0.22,2.179-0.437,3.27-0.656c1.05-0.836,2.1-1.672,3.151-2.508l-0.146,0.223c0.996-0.189,1.979-0.427,2.949-0.717l1.371,0.287l1.396-0.116c-0.061,1.236-0.122,2.475-0.183,3.714c-0.003,1.916-0.008,3.836-0.013,5.752c0.021,4.3,0.038,8.6,0.059,12.9C92.85,48.028,91.989,49.015,91.129,50z"/>
<path fill="#73777F" d="M50.919,93.539c-0.229,0.925-0.437,1.853-0.621,2.79c-4.19-1.853-8.38-3.705-12.57-5.558c0.095-3.174,0.189-6.351,0.284-9.527c1.039-2.082,2.08-4.163,3.119-6.241c1.036-1.037,2.072-2.072,3.108-3.109c0.004-1.05,0.009-2.1,0.014-3.146c0.001-1.041,0.003-2.081,0.003-3.122c1.042,0,2.083,0,3.125,0c0,1.041,0,2.084,0,3.125s0,2.081,0,3.125c0.008,1.05,0.014,2.103,0.02,3.152c0.877,0.916,1.756,1.831,2.634,2.747c0.234,1.208,0.468,2.417,0.701,3.622c-0.109,0.977-0.087,1.95,0.067,2.921c-0.185,2.114-0.369,4.232-0.552,6.348c-0.96-0.019-1.918-0.031-2.878-0.04l0.006-0.006c0.868,1.02,1.738,2.041,2.606,3.061L50.919,93.539z"/>
<path fill="#737880" d="M7.321,37.604c-0.012-1.077-0.024-2.151-0.037-3.229c0.869,0,1.738,0,2.606-0.003c1.045,0.006,2.089,0.009,3.134,0.015l-0.052-0.027c1.038,0.012,2.077,0.024,3.116,0.037l0.143-0.122c0.9-0.897,1.799-1.794,2.698-2.692l0.401-0.412c1.978,0.049,3.957,0.094,5.934,0.143c2.171,1.013,4.343,2.026,6.513,3.04c-0.052,1.01-0.019,2.018,0.099,3.021l-0.557,0.546c-0.883,0.895-1.767,1.789-2.652,2.683c-1.056,1.05-2.112,2.103-3.167,3.152c-4.164-0.003-8.329-0.003-12.493-0.006c-1.88,1.013-3.76,2.023-5.64,3.037C7.35,44.69,7.335,42.594,7.318,40.5C7.32,39.532,7.32,38.568,7.321,37.604z"/>
<path fill="#A0A5B4" d="M16.068,19.29c7.272-3.418,14.544-6.839,21.817-10.26c0.044,1.169,0.09,2.337,0.134,3.506c0.006,1.007,0.014,2.011,0.023,3.018c-1.053,2.112-2.105,4.224-3.157,6.335l0.011-0.012c-2.086,0-4.172-0.003-6.257-0.003c-2.089,0-4.178,0-6.267,0c-1.036,0.003-2.07,0.006-3.106,0.012c-1.079-0.024-2.158-0.046-3.235-0.07C16.083,20.978,16.097,20.136,16.068,19.29z"/>
<path fill="#9DA3AE" d="M85.126,27.505c-1.091,0.22-2.181,0.437-3.27,0.656c-2.115-0.012-4.23-0.024-6.345-0.037c-1.056-1.047-2.11-2.094-3.166-3.14c-1.012-1.029-2.023-2.054-3.034-3.08c-1.059-1.053-2.117-2.108-3.177-3.161c2.085,0,4.169,0.003,6.252,0.003c2.041-0.864,4.083-1.725,6.125-2.588c3.198,1.807,6.395,3.613,9.593,5.42c0.009,1.214,0.019,2.426,0.027,3.641c0,0,0.146-0.223,0.144-0.22C87.226,25.836,86.176,26.669,85.126,27.505z"/>
<path fill="#737880" d="M25.396,84.665c-1.047-0.29-2.094-0.583-3.139-0.873c-1.14-0.817-2.28-1.636-3.419-2.453c0,0,0.427,0.198,0.424,0.198c-0.998-0.271-1.993-0.547-2.986-0.818c-1.119-0.744-2.235-1.492-3.354-2.236c-0.997-2.191-1.994-4.383-2.992-6.57c3.11-1.057,6.218-2.115,9.328-3.171c1.042-0.003,2.083-0.01,3.125-0.013c1.042,2.091,2.086,4.184,3.128,6.274c-0.004,1.041-0.006,2.081-0.004,3.122c-0.001,1.041,0,2.084,0.001,3.125C25.47,82.389,25.432,83.526,25.396,84.665z"/>
<path fill="#9EA5AF" d="M59.814,6.806c5.35,2.881,10.699,5.758,16.049,8.639c-1.139,0.073-2.276,0.146-3.419,0.217c-2.104-0.012-4.206-0.024-6.307-0.037c-2.086,0-4.172,0-6.257,0c-1.042,0-2.082,0-3.125,0c-1.048-1.038-2.096-2.075-3.145-3.116c-1.037-0.006-2.076-0.009-3.114-0.009c-1.037,0-2.073,0-3.111,0c-0.006-1.041-0.02-2.078-0.04-3.116c0,0,0.029-0.006,0.031-0.006c2.081-0.006,4.162-0.009,6.242-0.015C55.685,8.511,57.749,7.657,59.814,6.806z"/>
<path fill="#777B84" d="M19.257,68.741c-3.11,1.056-6.218,2.114-9.328,3.171l-0.067-0.049c-0.87-1.002-1.738-1.999-2.606-3c0.037-4.199,0.075-8.396,0.111-12.592c0.833-0.006,1.667-0.016,2.5-0.024c1.059,1.044,2.118,2.084,3.178,3.125c1.022,2.081,2.043,4.159,3.065,6.241c1.052,0.006,2.104,0.012,3.156,0.018C19.263,66.669,19.26,67.706,19.257,68.741z"/>
<path fill="#747881" d="M9.867,56.247c-0.833,0.009-1.667,0.019-2.5,0.024c0.001-3.162,0.001-6.323,0.001-9.485c1.88-1.013,3.76-2.023,5.64-3.037c2.082,2.084,4.164,4.169,6.247,6.25c-1.042,0-2.084,0-3.126,0c-1.074,2.121-2.147,4.239-3.221,6.359C11.895,56.326,10.88,56.29,9.867,56.247z"/>
<path fill="#737881" d="M9.891,34.372c-0.868,0.003-1.738,0.003-2.606,0.003c0.032-3.204,0.064-6.406,0.095-9.61c0.862-0.034,1.72-0.116,2.573-0.248c0.975,0.357,1.975,0.626,2.997,0.8c1.082,0.806,2.163,1.614,3.243,2.42c0.971,0.144,1.939,0.296,2.907,0.455c0.088,0.992,0.167,1.983,0.233,2.979c0,0-0.401,0.412-0.398,0.409c-0.899,0.897-1.799,1.797-2.701,2.695c0,0-0.143,0.122-0.142,0.122c-1.039-0.021-2.078-0.034-3.118-0.037l0.052,0.027C11.98,34.381,10.937,34.378,9.891,34.372z"/>
<path fill="#787B86" d="M38.012,81.244c-0.095,3.177-0.189,6.354-0.284,9.527c-0.979-0.155-1.936-0.399-2.87-0.732c0.011-0.836,0.012-1.676,0.008-2.515l0.03-0.058c0.192-0.317,0.569-0.647,0.542-0.943c-0.066-0.687-0.325-1.355-0.505-2.032c0,0-0.053-0.116-0.052-0.116c0-1.041,0-2.084,0-3.125C35.924,81.247,36.968,81.247,38.012,81.244z"/>
<path fill="#A1A5B5" d="M43.93,6.14c4.382-0.003,8.766-0.009,13.15-0.015c-1.155,0.046-2.312,0.091-3.467,0.137c-2.072-0.003-4.144-0.006-6.216-0.009C46.241,6.213,45.086,6.177,43.93,6.14z"/>
<path fill="#51545A" d="M69.521,87.647c-0.088-2.133-0.177-4.264-0.266-6.396c1.049,0.003,2.097,0.006,3.144,0.009c1.018,0.986,2.036,1.972,3.055,2.954l0.108,0.232C73.548,85.514,71.533,86.578,69.521,87.647z"/>
<path fill="#9BA1AC" d="M43.93,6.14c1.155,0.037,2.311,0.073,3.465,0.113c-0.007,1.041-0.014,2.082-0.021,3.125l-0.029,0.006c-1.068,1.016-2.138,2.036-3.208,3.055c-1.005,0.024-2.011,0.042-3.017,0.055c-0.004-1.908-0.009-3.812-0.014-5.719C42.009,6.387,42.949,6.177,43.93,6.14z"/>
<path fill="#777B84" d="M9.929,71.912c0.998,2.188,1.996,4.379,2.992,6.57c-1.877-2.222-3.752-4.443-5.629-6.665c0.856,0.018,1.712,0.033,2.57,0.046L9.929,71.912z"/>
<path fill="#575961" d="M93.653,34.14c0.005-1.917,0.01-3.836,0.013-5.752C93.662,30.304,93.657,32.224,93.653,34.14z"/>
<path fill="#AEB8CD" d="M72.446,15.665c1.14-0.073,2.277-0.146,3.416-0.22c0.922,0.098,1.806,0.336,2.649,0.714c-2.042,0.863-4.084,1.724-6.125,2.588C72.377,17.719,72.398,16.69,72.446,15.665z"/>
<path fill="#A1A8B2" d="M41.108,6.775c0.005,1.907,0.009,3.812,0.014,5.719l0.016-0.006c-1.04,0.009-2.079,0.027-3.118,0.049c-0.044-1.169-0.09-2.337-0.134-3.506C38.959,8.279,40.033,7.525,41.108,6.775z"/>
<path fill="#A4A7B8" d="M53.613,6.262c1.155-0.046,2.312-0.091,3.467-0.137c0.955,0.052,1.866,0.277,2.733,0.681c-2.064,0.851-4.129,1.706-6.193,2.56C53.629,8.331,53.627,7.297,53.613,6.262z"/>
<path fill="#7C7F8A" d="M25.396,84.665c0.037-1.139,0.075-2.276,0.111-3.415c1.039,0,2.08,0,3.121,0h0.004c-0.003,1.041-0.003,2.081-0.001,3.125c0,0.86-0.011,1.721-0.029,2.582C27.533,86.193,26.464,85.428,25.396,84.665z"/>
<path fill="#767B82" d="M28.602,86.957c0.018-0.861,0.029-1.722,0.029-2.582h1.563h1.563h1.563h1.561c0,0,0.053,0.116,0.053,0.113c-0.02,0.991-0.032,1.983-0.037,2.979l-0.03,0.058c-1.135,0.024-2.271,0.049-3.407,0.073C30.471,87.54,29.519,87.326,28.602,86.957z"/>
<path fill="#53555D" d="M91.129,50c0.86-0.985,1.721-1.972,2.582-2.96c0.262,0.974,0.274,1.95,0.036,2.93C92.878,49.988,92.003,49.997,91.129,50L91.129,50z"/>
<path fill="#4F5258" d="M91.13,50c0.873-0.003,1.748-0.012,2.617-0.03c-0.014,1.062-0.024,2.124-0.036,3.186c-0.859-0.009-1.719-0.019-2.577-0.024C91.134,52.088,91.132,51.044,91.13,50z"/>
<path fill="#AEB6C7" d="M16.068,19.29c0.029,0.846,0.015,1.688-0.038,2.53c-0.926,0.045-1.854,0.082-2.783,0.109l-0.473-0.192C13.872,20.923,14.969,20.108,16.068,19.29z"/>
<path fill="#9CA1AD" d="M9.952,24.518c-0.853,0.131-1.71,0.214-2.573,0.248c0.841-0.785,1.683-1.566,2.525-2.35C9.906,23.117,9.923,23.816,9.952,24.518z"/>
<path fill="#54575C" d="M91.134,53.131c0.858,0.006,1.718,0.016,2.577,0.024c0.264,0.979,0.266,1.963,0.003,2.942C92.854,55.108,91.994,54.12,91.134,53.131z"/>
<path fill="#A2A8B3" d="M9.952,24.518c-0.029-0.702-0.046-1.4-0.047-2.103c0.917-0.388,1.874-0.613,2.869-0.677l0.473,0.192c-0.099,1.132-0.199,2.262-0.298,3.391C11.927,25.144,10.927,24.875,9.952,24.518z"/>
<path fill="#A4ABB5" d="M88.132,25.22c-0.009-1.215-0.019-2.426-0.027-3.641c1.022,0.192,2.021,0.47,2.995,0.836c0.008,0.696,0.002,1.392-0.019,2.087C90.111,24.793,89.128,25.03,88.132,25.22z"/>
<path fill="#9DA3AE" d="M91.081,24.502c0.021-0.696,0.026-1.392,0.019-2.087c0.916,0.754,1.833,1.505,2.748,2.258l-1.396,0.116L91.081,24.502z"/>
<path fill="#818793" d="M9.862,71.863c-0.858-0.013-1.714-0.028-2.57-0.046c-0.417-0.979-0.429-1.966-0.037-2.954C8.124,69.864,8.992,70.861,9.862,71.863z"/>
<path fill="#51545C" d="M91.129,71.875c0.856,0.006,1.712,0.012,2.568,0.019c0.261,0.988,0.248,1.972-0.038,2.954C92.817,73.856,91.973,72.863,91.129,71.875z"/>
<path fill="#797E85" d="M7.321,37.604C7.32,38.569,7.32,39.533,7.32,40.5C6.908,39.532,6.908,38.568,7.321,37.604z"/>
<path fill="#818893" d="M16.276,80.719c0.993,0.271,1.988,0.547,2.986,0.818C18.244,81.354,17.247,81.082,16.276,80.719z"/>
<path fill="#777B82" d="M18.838,81.339c1.14,0.817,2.28,1.636,3.419,2.453C21.117,82.975,19.977,82.156,18.838,81.339z"/>
<path fill="#55575F" d="M78.574,83.832c-0.981,0.326-1.987,0.531-3.016,0.61c0.003,0.003-0.105-0.229-0.106-0.229c0.019-0.985,0.035-1.975,0.053-2.963c1.041,0,2.083,0,3.125,0l0,0C78.618,82.11,78.6,82.971,78.574,83.832z"/>
<path fill="#4E5157" d="M78.574,83.832c0.025-0.861,0.044-1.722,0.056-2.582c1.038,0.003,2.076,0,3.111-0.016c0,0,0.127,0.162,0.129,0.165C80.772,82.211,79.673,83.02,78.574,83.832z"/>
<path fill="#7D808B" d="M31.458,87.598c1.137-0.024,2.272-0.049,3.407-0.073c0.004,0.839,0.003,1.679-0.008,2.515C33.724,89.225,32.592,88.412,31.458,87.598z"/>
<path fill="#52555C" d="M84.88,59.375c-1.04,2.084-2.082,4.166-3.125,6.25c0.004,1.034,0.011,2.072,0.021,3.106c-1.05,0.007-2.1,0.013-3.149,0.016c-2.075-1.038-4.15-2.078-6.226-3.119c-2.092,1.041-4.184,2.081-6.274,3.122l0.005,0.003c-1.051-3.144-2.102-6.283-3.152-9.427c-1.012,0-2.025,0-3.036,0l-0.075,0.101c-2.971-2.127-5.941-4.254-8.913-6.381c0,0-1.1,0.149-1.095,0.149c0.302-2.179,0.6-4.358,0.896-6.537c0.86-0.793,1.723-1.587,2.585-2.38c3.147-1.416,6.294-2.829,9.441-4.242c4.241,3.323,8.482,6.644,12.723,9.967L75.511,50c-1.954,2.234-3.907,4.468-6.825,7.804c3.195,0.735,5.011,1.156,6.827,1.574c1.016,0.019,2.034,0.037,3.05,0.058l0.101-0.094c-0.001,0,1.527,0.015,1.527,0.015l1.527-0.003C82.772,59.359,83.826,59.369,84.88,59.375L84.88,59.375z"/>
<path fill="#53555D" d="M66.127,68.75c-1.04,3.125-2.081,6.25-3.122,9.375c-1.042,0-2.082,0-3.125,0l0.015,0.012c-1.06-1.056-2.117-2.114-3.174-3.174l0.069,0.056c-1.053-1.035-2.104-2.066-3.155-3.101c0-1.053,0.002-2.105,0.003-3.159c1.041-1.05,2.08-2.097,3.119-3.146c0,0.003,1.56,0.003,1.56,0.003l1.56-0.003c1.044,1.046,2.086,2.093,3.129,3.137l0,0c1.043,0,2.085,0.003,3.127,0.003L66.127,68.75z"/>
<path fill="#52555C" d="M50.737,81.397c-0.235-1.205-0.469-2.414-0.702-3.619c0.003,0.003,0.832,0.317,0.832,0.317c0.926-1.028,1.853-2.061,2.78-3.089l-0.019,0.003c1.055,0.003,2.108,0.007,3.161,0.01c0,0-0.069-0.056-0.069-0.052c1.059,1.056,2.116,2.114,3.174,3.17l-0.015-0.012c0,1.041,0,2.084,0,3.125c-2.084,1.041-4.167,2.081-6.251,3.125l-0.003-0.003C52.663,83.38,51.7,82.389,50.737,81.397z"/>
<path fill="#52555C" d="M50.251,90.665c0.183-2.115,0.367-4.233,0.549-6.348c0.941,0.024,1.883,0.042,2.826,0.055l0.003,0.003c-0.905,3.055-1.81,6.109-2.712,9.164c0.002,0-0.932,0.141-0.929,0.141C50.193,92.685,50.278,91.681,50.251,90.665z"/>
<path fill="#55575E" d="M72.402,65.628c2.075,1.041,4.15,2.081,6.226,3.119C76.552,67.709,74.477,66.669,72.402,65.628z"/>
<path fill="#53545D" d="M84.877,68.747c2.085,1.044,4.169,2.084,6.253,3.128C89.046,70.831,86.962,69.791,84.877,68.747z"/>
<path fill="#4B4E53" d="M69.255,78.125c2.069-1.044,4.139-2.084,6.208-3.125c0.014,1.041,0.027,2.084,0.042,3.125c-1.042,0-2.084,0-3.125,0C71.338,78.125,70.298,78.125,69.255,78.125z"/>
<path fill="#54565E" d="M75.505,78.125c-0.015-1.041-0.028-2.084-0.042-3.125c2.097,1.041,4.194,2.084,6.292,3.125c-1.04,0-2.082,0-3.125,0C77.588,78.125,76.546,78.125,75.505,78.125z"/>
<path fill="#585C61" d="M81.777,68.731c-0.011-1.034-0.018-2.072-0.021-3.106c1.04,1.041,2.08,2.081,3.121,3.122C83.843,68.744,82.81,68.738,81.777,68.731z"/>
<path fill="#4C4E56" d="M59.88,81.25c0-1.041,0-2.084,0-3.125c1.043,0,2.083,0,3.125,0c0,1.041,0,2.084,0,3.125C61.963,81.25,60.923,81.25,59.88,81.25L59.88,81.25z"/>
<path fill="#565860" d="M69.255,78.125c1.043,0,2.083,0,3.125,0c0,1.041,0,2.084,0,3.125l0.019,0.009c-1.047-0.003-2.095-0.006-3.144-0.009C69.255,80.206,69.255,79.166,69.255,78.125z"/>
<path fill="#494C52" d="M78.632,78.125c1.041,0,2.083,0,3.123,0c0,1.041,0,2.084-0.006,3.119c-1.043,0.006-2.081,0.009-3.119,0.006l0,0C78.63,80.209,78.63,79.166,78.632,78.125z"/>
<path fill="#55585E" d="M59.88,81.25c1.043,0,2.083,0,3.125,0c0,1.041,0,2.081,0,3.122c-1.043-0.006-2.087-0.013-3.131-0.021C59.88,83.319,59.882,82.284,59.88,81.25z"/>
<path fill="#474A50" d="M59.874,84.351c1.044,0.009,2.088,0.016,3.131,0.021C61.962,84.366,60.918,84.359,59.874,84.351z"/>
<path fill="#52555C" d="M84.879,46.875c1.045,1.044,2.091,2.084,3.136,3.125c-1.045,1.041-2.091,2.081-3.136,3.125C84.88,52.084,84.88,51.041,84.88,50S84.88,47.916,84.879,46.875L84.879,46.875z"/>
<path fill="#54565D" d="M81.757,53.122c-2.083-1.041-4.164-2.081-6.247-3.122l-0.005,0.003c2.093,0.013,4.185,0.021,6.276,0.034C81.759,51.065,81.751,52.094,81.757,53.122z"/>
<path fill="#585B64" d="M81.757,53.122c-0.006-1.028,0.002-2.057,0.024-3.085c-0.001,0-0.026-0.037-0.026-0.037c1.043,0,2.083,0,3.125,0c0,1.041,0,2.084-0.001,3.125h-1.562L81.757,53.122z"/>
<path fill="#4A4D53" d="M81.717,59.354l-1.527,0.003c0,0-1.528-0.015-1.527-0.015C79.681,59.348,80.699,59.351,81.717,59.354z"/>
<path fill="#52555C" d="M84.88,59.375L84.88,59.375L84.88,59.375z"/>
<path fill="#585D65" d="M78.562,59.436c-1.016-0.021-2.034-0.039-3.05-0.058C76.528,59.391,77.546,59.408,78.562,59.436z"/>
<path fill="#9CA2AE" d="M62.782,40.036c-3.147,1.413-6.294,2.826-9.441,4.242l0.419-0.897c-0.047-3.009-0.096-6.018-0.144-9.024c0.016-1.034,0.021-2.072,0.021-3.106c2.08,0,4.161-0.003,6.242-0.003l-0.004,0.003c-1.09-1.074-2.179-2.151-3.266-3.226c-0.988-0.998-1.978-1.996-2.968-2.994c-1.045-1.053-2.089-2.105-3.134-3.155c-0.004-1.041-0.004-2.084-0.004-3.125c2.083,0,4.168,0,6.25,0c1.043,0,2.085,0,3.125,0l-0.007-0.019c1.053,2.103,2.106,4.206,3.161,6.305l-0.063-0.058c1.015,0.019,2.03,0.037,3.045,0.055c1.081-0.012,2.159-0.021,3.239-0.034c2.086,1.041,4.171,2.084,6.257,3.125c2.114,0.012,4.229,0.024,6.345,0.037c-2.029,1.056-4.061,2.109-6.09,3.165c-2.086,1.129-4.172,2.255-6.258,3.385l0.046-0.321c-1.085,0.879-2.169,1.761-3.253,2.643C65.128,38.034,63.954,39.035,62.782,40.036z"/>
<path fill="#52555C" d="M75.165,34.265c1.166,0.04,2.333,0.083,3.497,0.122c1.021,0,2.04,0,3.06,0c1.058,2.087,2.115,4.175,3.171,6.262c-0.003,1.025-0.003,2.054-0.002,3.079c-0.004,1.05-0.007,2.1-0.012,3.146h0.001c-1.042,0-2.082,0-3.125,0c-2.085-2.084-4.173-4.166-6.259-6.25c-1.039-1.038-2.076-2.075-3.116-3.113c-0.01-0.867-0.021-1.733-0.031-2.6C73.259,34.576,74.199,34.36,75.165,34.265z"/>
<path fill="#A3A7B7" d="M75.165,34.265c-0.966,0.095-1.906,0.311-2.816,0.647c-0.931-0.296-1.877-0.363-2.84-0.201c2.086-1.129,4.172-2.255,6.258-3.385C75.605,32.312,75.404,33.295,75.165,34.265z"/>
<path fill="#ABAFC0" d="M85.126,27.505c1.05-0.836,2.1-1.669,3.149-2.505C87.226,25.833,86.176,26.669,85.126,27.505z"/>
<path fill="#585D68" d="M81.722,34.387c-1.02,0-2.038,0-3.06,0C79.684,34.384,80.702,34.384,81.722,34.387z"/>
<path fill="#4B4E53" d="M84.891,43.729c-0.001-1.025-0.001-2.054,0.002-3.079C84.893,41.675,84.893,42.703,84.891,43.729z"/>
<path fill="#757A82" d="M38.012,81.244c-1.044,0.003-2.088,0.003-3.131,0.006c-1.042,0-2.084,0-3.126,0c-1.041,0-2.082,0-3.122,0c0,0-0.004,0-0.003,0c0.001-1.041,0.001-2.081,0-3.125c1.021-1.025,2.04-2.051,3.06-3.076l0.076-0.073c1.028-2.066,2.058-4.132,3.088-6.198l0.067-0.088c0.008-0.989,0.016-1.979,0.023-2.97l-0.084-0.113c0.015-1.031,0.02-2.065,0.017-3.101l0,0c1.041-1.04,2.081-2.081,3.122-3.122l0.009-0.012c1.039,0.003,2.077,0.003,3.116,0.006c1.044,0,2.087-0.003,3.131-0.003h1.561h1.561c0.001,1.041,0.003,2.084,0.004,3.125c-1.042,0-2.083,0-3.125,0c-0.001,2.081-0.001,4.162-0.003,6.247c-0.005,1.047-0.009,2.097-0.014,3.146c-1.036,1.037-2.072,2.072-3.108,3.109C40.091,77.081,39.051,79.162,38.012,81.244z"/>
<path fill="#737881" d="M47.381,62.5c-0.001-1.041-0.003-2.084-0.003-3.125c0-2.084,0.001-4.166,0.003-6.25l0.041-0.046c0.814,0.016,1.624,0.055,2.434,0.116c0,0,1.1-0.149,1.097-0.149c-0.049,4.251-0.095,8.505-0.144,12.753c-0.03,1.041,0.067,2.072,0.289,3.092l-1.022-0.241c-0.896,0.098-1.795,0.131-2.695,0.101c0-1.041,0-2.084,0-3.125S47.381,63.541,47.381,62.5z"/>
<path fill="#777A86" d="M44.253,68.747c0.001-2.085,0.001-4.166,0.003-6.247c0,1.041,0,2.084,0,3.125S44.254,67.706,44.253,68.747z"/>
<path fill="#767B82" d="M44.256,65.625c0-1.041,0-2.084,0-3.125c1.042,0,2.083,0,3.125,0c0,1.041,0,2.084,0,3.125C46.339,65.625,45.298,65.625,44.256,65.625z"/>
<path fill="#7A7D87" d="M47.381,68.75c0.9,0.03,1.799-0.003,2.698-0.101c0.057,1.062,0.111,2.121,0.165,3.18c-0.954,0.043-1.907,0.058-2.863,0.046C47.381,70.831,47.381,69.791,47.381,68.75z"/>
<path fill="#777A86" d="M41.131,75.003c1.036-1.037,2.072-2.072,3.108-3.109C43.203,72.931,42.167,73.966,41.131,75.003z"/>
<path fill="#737881" d="M47.381,71.875c0.956,0.012,1.909-0.003,2.866-0.046c-0.037,1.108-0.073,2.213-0.111,3.32c-0.911-0.049-1.823-0.089-2.734-0.122C47.394,73.978,47.388,72.925,47.381,71.875z"/>
<path fill="#7B8087" d="M47.401,75.027c0.911,0.033,1.823,0.073,2.734,0.122l0.857-0.299c-0.041,1.083-0.082,2.163-0.125,3.244c0,0-0.829-0.314-0.832-0.317C49.156,76.858,48.278,75.943,47.401,75.027z"/>
<path fill="#4D5056" d="M53.626,84.372c-0.943-0.013-1.885-0.03-2.826-0.055c-0.151-0.971-0.174-1.944-0.064-2.921C51.7,82.389,52.663,83.38,53.626,84.372z"/>
<path fill="#7A7D87" d="M47.379,90.619l-0.006,0.006L47.379,90.619z"/>
<path fill="#777B86" d="M50.251,90.665c0.027,1.016-0.059,2.02-0.263,3.015c-0.871-1.02-1.741-2.041-2.609-3.061l-0.006,0.006C48.333,90.634,49.291,90.647,50.251,90.665z"/>
<path fill="#747981" d="M41.123,59.378c-1.039-0.003-2.077-0.003-3.116-0.006c-1.053-1.047-2.107-2.091-3.16-3.138c-1.027-1.031-2.055-2.065-3.082-3.101l-0.006-0.006c-0.003-2.091-0.004-4.178-0.007-6.268c-2.083-1.035-4.166-2.072-6.25-3.11v0.006c1.056-1.05,2.112-2.103,3.167-3.152c0.883-0.894,1.769-1.788,2.652-2.683c0,0,0.557-0.546,0.554-0.543c0.981,0.034,1.948-0.083,2.899-0.348c1.137,1.156,2.273,2.313,3.411,3.473l-0.5,0.439l0.447-0.494c2,0.109,4.002,0.223,6.004,0.333c0,0,0.023-0.088,0.024-0.088c0.073,0.992,0.111,1.989,0.118,2.987c-0.006,1.065-0.014,2.13-0.021,3.195c-0.719,0.342-1.438,0.681-0.027,0.015c-1.369,0.745-0.671,0.363,0.026-0.015c1.045,0.003,2.09,0.006,3.134,0.006c0.012,2.066,0.023,4.133,0.033,6.198l-0.041,0.046c-1.042,0-2.084,0-3.125,0C43.21,55.209,42.167,57.294,41.123,59.378z"/>
<path fill="#797C87" d="M31.751,46.86c0.003,2.09,0.004,4.177,0.007,6.268c-4.167,0-8.334-0.003-12.503-0.003c0-1.041,0-2.081,0-3.125c-2.083-2.081-4.166-4.166-6.247-6.25c4.164,0.003,8.329,0.003,12.493,0.006V43.75C27.585,44.788,29.668,45.825,31.751,46.86z"/>
<path fill="#A0A6B1" d="M19.332,31.171c-0.067-0.995-0.145-1.987-0.232-2.979c1.096-1.068,2.191-2.133,3.287-3.198c1.06,0.015,2.121,0.033,3.181,0.049c2.043,1.01,4.086,2.02,6.129,3.03l0.06,0.052c-0.001,1.041-0.001,2.081,0,3.122c-2.164,0.021-4.327,0.046-6.491,0.067C23.288,31.265,21.309,31.22,19.332,31.171z"/>
<path fill="#A6AABA" d="M25.266,31.314c2.164-0.021,4.328-0.045,6.491-0.067c-0.001,0.003-0.001,0.003-0.001,0.003c-0.001,1.044-0.003,2.09-0.004,3.134l0.029-0.031C29.609,33.34,27.437,32.327,25.266,31.314z"/>
<path fill="#7D808A" d="M9.891,34.372c1.045,0.006,2.089,0.009,3.134,0.015C11.98,34.381,10.937,34.378,9.891,34.372z"/>
<path fill="#6C707C" d="M16.233,34.274c0.902-0.897,1.802-1.798,2.701-2.695C18.032,32.48,17.133,33.377,16.233,34.274z"/>
<path fill="#80828E" d="M12.973,34.36c1.04,0.003,2.079,0.015,3.118,0.037C15.05,34.384,14.011,34.372,12.973,34.36z"/>
<path fill="#A8ACBC" d="M34.772,37.03c-0.949,0.265-1.917,0.381-2.897,0.348c-0.115-1.007-0.148-2.014-0.096-3.024c0.001,0-0.027,0.031-0.026,0.027c1.043-0.003,2.086-0.006,3.128-0.009C34.844,35.257,34.809,36.145,34.772,37.03z"/>
<path fill="#6D717A" d="M31.32,37.921c-0.883,0.895-1.769,1.789-2.652,2.683C29.554,39.71,30.437,38.815,31.32,37.921z"/>
<path fill="#9EA4AF" d="M41.121,12.494c1.006-0.013,2.011-0.031,3.017-0.055c0,0,0.121,0.064,0.119,0.061c-0.001,1.041-0.001,2.081,0,3.122c0,1.043,0,2.084,0,3.128l-0.017,0.009c-1.036,1.038-2.072,2.078-3.108,3.119c1.05,1.041,2.101,2.084,3.152,3.125c1.033,1.044,2.068,2.091,3.101,3.134l-0.017-0.015c0.009,1.047,0.02,2.093,0.029,3.14l-0.047-0.024c-2.122-0.021-4.246-0.046-6.367-0.067c-2.002-1.014-4.007-2.026-6.012-3.037c-1.071-0.003-2.142-0.006-3.213-0.009l-0.06-0.052c-1.031-1.035-2.063-2.069-3.096-3.104c0.02-1.032,0.032-2.063,0.038-3.095c2.084,0,4.17,0.003,6.256,0.003l-0.011,0.012c1.052-2.112,2.104-4.224,3.157-6.333c1.031-1.022,2.063-2.047,3.095-3.07L41.121,12.494z"/>
<path fill="#969DA8" d="M22.387,24.994c-1.096,1.065-2.191,2.13-3.287,3.198c-0.969-0.159-1.938-0.312-2.91-0.452c1.025-1.95,2.049-3.903,3.075-5.853c1.036-0.006,2.07-0.009,3.106-0.012C22.376,22.916,22.381,23.953,22.387,24.994z"/>
<path fill="#9DA2AF" d="M19.265,21.887c-1.025,1.95-2.049,3.903-3.075,5.853c-1.079-0.809-2.159-1.617-3.241-2.423c0.099-1.126,0.199-2.255,0.298-3.388c0.929-0.027,1.857-0.064,2.783-0.109C17.107,21.841,18.186,21.863,19.265,21.887z"/>
<path fill="#A7ADB9" d="M22.387,24.994c-0.006-1.041-0.011-2.079-0.016-3.119c2.089,0,4.178,0,6.267,0c-0.005,1.031-0.017,2.063-0.035,3.095c-1.012,0.024-2.023,0.049-3.035,0.073C24.507,25.027,23.447,25.009,22.387,24.994z"/>
<path fill="#979BAB" d="M41.137,12.488c-1.032,1.022-2.063,2.048-3.095,3.07c-0.009-1.01-0.017-2.014-0.023-3.021C39.058,12.515,40.097,12.497,41.137,12.488z"/>
<path fill="#9BA1AC" d="M69.255,25c-1.08,0.012-2.158,0.021-3.237,0.034c-1.015-0.037-2.031-0.055-3.047-0.055l0.063,0.058c-1.055-2.103-2.108-4.202-3.161-6.305l0.007,0.019c0-1.041,0-2.084-0.001-3.125c2.086,0,4.172,0,6.256,0c-0.003,1.041-0.003,2.081,0,3.119c1.06,1.053,2.118,2.108,3.176,3.161c-0.013,1.022-0.023,2.048-0.032,3.073L69.255,25z"/>
<path fill="#A1A8B3" d="M66.135,18.744c-0.003-1.038-0.003-2.079,0-3.119c2.103,0.012,4.204,0.024,6.309,0.037c-0.046,1.028-0.066,2.057-0.057,3.085C70.304,18.747,68.22,18.744,66.135,18.744z"/>
<path fill="#9BA1AC" d="M75.512,28.125c-2.086-1.041-4.171-2.084-6.257-3.125l0.023-0.021c1.022,0.003,2.045,0.006,3.067,0.006C73.402,26.031,74.456,27.078,75.512,28.125z"/>
<path fill="#A3A7B7" d="M72.346,24.985c-1.022,0-2.045-0.003-3.067-0.006c0.009-1.025,0.02-2.051,0.032-3.073C70.322,22.931,71.334,23.956,72.346,24.985z"/>
<path fill="#767A83" d="M25.51,75.003c-1.042-2.091-2.086-4.184-3.128-6.274c1.041-1.034,2.082-2.069,3.122-3.104c1.045,0,2.09-0.003,3.134-0.003c2.074-0.003,4.147-0.009,6.221-0.016l0.084,0.113c-0.021,0.988-0.029,1.98-0.023,2.97l-0.067,0.088c-1.03,2.066-2.059,4.132-3.088,6.198c0,0-0.076,0.073-0.075,0.073C29.63,75.033,27.57,75.019,25.51,75.003z"/>
<path fill="#7C7F8A" d="M25.504,65.625c-1.041,1.034-2.082,2.069-3.122,3.104c-1.042,0.003-2.083,0.01-3.125,0.013c0.003-1.035,0.006-2.072,0.009-3.11c2.093-3.101,4.187-6.204,6.28-9.305c-0.018,1.004-0.03,2.012-0.04,3.016c0.001,1.056,0.005,2.108,0.006,3.161C25.506,63.544,25.503,64.584,25.504,65.625z"/>
<path fill="#6D727A" d="M25.51,75.003c2.06,0.016,4.12,0.03,6.18,0.046c-1.021,1.025-2.041,2.051-3.06,3.076c-1.042,0-2.083,0-3.125,0C25.504,77.084,25.506,76.044,25.51,75.003z"/>
<path fill="#7E808D" d="M25.506,78.125c1.042,0,2.083,0,3.125,0c0,1.044,0,2.084-0.001,3.125c-1.042,0-2.083,0-3.122,0C25.506,80.209,25.504,79.166,25.506,78.125z"/>
<path fill="#A0A7B2" d="M44.257,18.75c0-1.044,0-2.084,0-3.128c-0.001,0.003,1.56,0.003,1.56,0.003h1.561c1.041,0,2.082,0,3.122,0c1.038-1.038,2.074-2.075,3.111-3.116c1.049,1.041,2.097,2.078,3.145,3.116c0,1.041,0,2.084,0,3.125c-2.082,0-4.167,0-6.25,0S46.34,18.75,44.257,18.75z"/>
<path fill="#ACB0C0" d="M53.613,6.262c0.014,1.035,0.016,2.069,0.007,3.104c-2.082,0.003-4.163,0.006-6.244,0.012c0.006-1.043,0.012-2.084,0.02-3.125C49.47,6.256,51.541,6.259,53.613,6.262z"/>
<path fill="#A1A7B3" d="M44.138,12.439c1.07-1.019,2.14-2.039,3.208-3.055c0.02,1.038,0.034,2.075,0.037,3.116c-0.001,0-0.003,0-0.003,0c-1.041-0.003-2.08-0.003-3.121,0.003L44.138,12.439z"/>
<path fill="#9AA1AB" d="M50.499,15.625c-1.04,0-2.081,0-3.12,0c0.001-1.041,0.001-2.084,0-3.125c0,0,0.001,0,0.003,0c1.041,0,2.077,0,3.114,0C50.498,13.541,50.499,14.585,50.499,15.625z"/>
<path fill="#A4A8B8" d="M50.499,15.625c0-1.041-0.001-2.084-0.003-3.125c1.038,0,2.077,0.003,3.114,0.009C52.573,13.55,51.537,14.587,50.499,15.625z"/>
<path fill="#A4A8B8" d="M56.755,18.75c0-1.041,0-2.084,0-3.125c1.043,0,2.083,0,3.125,0c0,1.041,0,2.084,0,3.125C58.84,18.75,57.798,18.75,56.755,18.75z"/>
<path fill="#757982" d="M25.547,56.326c-2.093,3.101-4.187,6.204-6.28,9.305c-1.051-0.006-2.104-0.012-3.156-0.018c0.003-2.061,0.006-4.12,0.009-6.181c0.004-2.103,0.008-4.205,0.012-6.308c1.041,0,2.083,0,3.124,0c4.168,0,8.336,0.003,12.503,0.003l0.006,0.006c1.027,1.035,2.055,2.069,3.082,3.101c1.053,1.047,2.107,2.091,3.16,3.138l-0.009,0.012c-1.041,1.038-2.081,2.082-3.122,3.122l0,0c-1.041,0-2.082-0.003-3.121-0.006c-1.054-1.047-2.109-2.091-3.162-3.134C27.578,58.353,26.563,57.34,25.547,56.326z"/>
<path fill="#656A72" d="M16.12,59.436c-0.003,2.058-0.006,4.117-0.009,6.178c-1.022-2.082-2.043-4.16-3.065-6.241c-0.001,0-0.068,0.046-0.068,0.046C14.025,59.424,15.071,59.43,16.12,59.436z"/>
<path fill="#686C74" d="M9.867,56.247c1.013,0.043,2.028,0.079,3.042,0.109c0.049,1.02,0.072,2.042,0.067,3.062c0,0,0.067-0.046,0.068-0.046C11.985,58.331,10.926,57.291,9.867,56.247z"/>
<path fill="#7B7E89" d="M12.977,59.418c0.004-1.02-0.019-2.042-0.067-3.062c1.073-2.117,2.146-4.235,3.22-6.356c0.001,1.041,0.001,2.081,0.003,3.125c-0.004,2.103-0.008,4.205-0.012,6.308C15.071,59.43,14.025,59.424,12.977,59.418z"/>
<path fill="#6C717A" d="M16.132,53.125c-0.001-1.044-0.001-2.084-0.003-3.125c1.042,0,2.084,0,3.126,0c0,1.044,0,2.084,0,3.125C18.215,53.125,17.173,53.125,16.132,53.125z"/>
<path fill="#7F818D" d="M31.754,81.25c1.042,0,2.084,0,3.126,0c0,1.041,0,2.084,0,3.125c-0.001,0-1.563,0-1.563,0h-1.563C31.756,83.334,31.756,82.291,31.754,81.25z"/>
<path fill="#6C7078" d="M34.896,87.467c0.005-0.995,0.017-1.987,0.037-2.979c0.18,0.68,0.439,1.349,0.505,2.035C35.465,86.819,35.088,87.149,34.896,87.467z"/>
<path fill="#474B50" d="M75.505,81.25c-0.018,0.988-0.034,1.978-0.053,2.963c-1.018-0.982-2.036-1.968-3.054-2.954l-0.019-0.009C73.423,81.25,74.463,81.25,75.505,81.25z"/>
<path fill="#696E75" d="M31.754,81.25c0.001,1.041,0.001,2.084,0.001,3.125h-1.563h-1.563c-0.001-1.044-0.001-2.084,0.001-3.125C29.673,81.25,30.714,81.25,31.754,81.25z"/>
<path fill="#51545B" d="M75.505,81.25c-1.042,0-2.082,0-3.125,0c0-1.041,0-2.084,0-3.125c1.041,0,2.083,0,3.125,0c1.041,0,2.083,0,3.125,0c0,1.041,0,2.084,0,3.125C77.588,81.25,76.546,81.25,75.505,81.25z"/>
<path fill="#4D5056" d="M69.509,34.711c0.963-0.162,1.909-0.095,2.84,0.201c0.011,0.867,0.021,1.733,0.031,2.6c0.002,1.035,0.002,2.073,0.004,3.107c1.042,0,2.084,0,3.126-0.003l-0.014,0.009c2.086,2.084,4.174,4.166,6.259,6.25c0,1.041,0,2.081,0,3.125c0,0,0.025,0.037,0.026,0.037c-2.092-0.013-4.184-0.021-6.276-0.034c-4.24-3.323-8.481-6.644-12.723-9.967c1.172-1.001,2.346-2.002,3.52-3.003c1.084-0.882,2.168-1.764,3.253-2.643L69.509,34.711z"/>
<path fill="#4E5157" d="M50.811,65.802c0.047-4.251,0.093-8.505,0.142-12.756c2.975,2.127,5.945,4.254,8.918,6.381c0.004,1.025,0.007,2.051,0.009,3.076c-1.041,1.038-2.081,2.075-3.122,3.11c-1.039,1.049-2.078,2.096-3.119,3.146l-0.031-0.024C52.675,67.758,51.743,66.778,50.811,65.802z"/>
<path fill="#4F5258" d="M59.879,62.503c-0.002-1.025-0.005-2.051-0.009-3.076c-0.002,0,0.073-0.101,0.071-0.101s1.519,0.009,1.519,0.009l1.52-0.009c1.051,3.144,2.102,6.283,3.152,9.427c-1.042,0-2.084-0.003-3.127-0.003l0,0c-1.043-1.044-2.085-2.091-3.129-3.137C59.877,64.578,59.879,63.541,59.879,62.503z"/>
<path fill="#80818E" d="M47.422,53.079c-0.01-2.065-0.021-4.132-0.033-6.198c-0.001,0,0.024,0.028,0.024,0.028c0.91,0.024,1.817,0.073,2.725,0.146l0.618-0.397c-0.296,2.179-0.594,4.358-0.896,6.537C49.045,53.134,48.236,53.095,47.422,53.079z"/>
<path fill="#42454A" d="M53.341,44.278c-0.862,0.793-1.725,1.587-2.585,2.38c0,0-0.618,0.397-0.616,0.394c0.262-0.955,0.489-1.919,0.685-2.893l-0.386-0.522c1.107-0.085,2.215-0.171,3.321-0.256L53.341,44.278z"/>
<path fill="#5E6168" d="M62.98,59.326l-1.52,0.009c0,0-1.521-0.009-1.519-0.009C60.954,59.326,61.968,59.326,62.98,59.326z"/>
<path fill="#4E5157" d="M50.135,75.149c0.038-1.107,0.074-2.212,0.111-3.32c-0.057-1.059-0.111-2.118-0.168-3.18c-0.003,0,1.02,0.241,1.018,0.241c0.835-0.067,1.673-0.119,2.511-0.156l0.031,0.024c-0.001,1.054-0.003,2.106-0.003,3.156c0.002,1.031,0,2.063-0.006,3.094l0.019-0.003c-0.886-0.036-1.771-0.088-2.655-0.155L50.135,75.149z"/>
<path fill="#4D5056" d="M59.879,62.503c0,1.038-0.002,2.075-0.003,3.11l-1.56,0.003c0,0-1.56,0-1.56-0.003C57.798,64.578,58.838,63.541,59.879,62.503z"/>
<path fill="#4F5258" d="M63.005,68.75L63.005,68.75L63.005,68.75z"/>
<path fill="#474A4F" d="M53.629,75.009c0.006-1.031,0.008-2.063,0.006-3.094c1.052,1.037,2.103,2.068,3.155,3.104C55.737,75.016,54.684,75.012,53.629,75.009z"/>
<path fill="#45484E" d="M59.895,78.137c-1.058-1.056-2.115-2.114-3.174-3.17C57.778,76.023,58.835,77.081,59.895,78.137z"/>
<path fill="#4A4E53" d="M50.992,74.851c0.884,0.067,1.77,0.119,2.655,0.155c-0.928,1.028-1.854,2.061-2.78,3.089C50.91,77.014,50.951,75.934,50.992,74.851z"/>
<path fill="#4B4E54" d="M81.755,50c0-1.044,0-2.084,0-3.125c1.043,0,2.083,0,3.125,0c0,1.041,0,2.084,0,3.125C83.838,50,82.798,50,81.755,50z"/>
<path fill="#A1A6B5" d="M53.76,43.381c-1.106,0.085-2.214,0.171-3.32,0.256c0.027-1.01,0.037-2.023,0.031-3.037c-1.025,0.009-2.051,0.015-3.077,0.024c-1.079,0.021-2.158,0.046-3.236,0.067l-0.023,0.088c1.099-2.146,2.197-4.288,3.296-6.43c2.062,0,4.125,0.003,6.186,0.006C53.664,37.363,53.713,40.372,53.76,43.381z"/>
<path fill="#A5ACB7" d="M47.397,31.262c-0.009-1.047-0.02-2.093-0.029-3.14c2.116-0.021,4.232-0.043,6.35-0.061c0.964,0.006,1.927-0.006,2.891-0.037c1.089,1.074,2.178,2.151,3.268,3.226l0.004-0.003c-2.081,0-4.162,0.003-6.243,0.003C51.557,31.253,49.477,31.259,47.397,31.262z"/>
<path fill="#A2A8B5" d="M44.257,18.75c2.083,0,4.166,0,6.248,0c0,1.041,0,2.084,0.004,3.125c-1.053,1.047-2.107,2.097-3.161,3.144h0.042c-1.048-1.053-2.098-2.103-3.146-3.156l0.019,0.027c-0.008-1.043-0.014-2.087-0.021-3.131L44.257,18.75z"/>
<path fill="#9FA6B0" d="M47.348,25.019c1.053-1.047,2.108-2.097,3.161-3.144c1.045,1.05,2.089,2.103,3.134,3.155c0.011,1.01,0.035,2.021,0.075,3.031c-2.117,0.018-4.233,0.04-6.35,0.061l0.017,0.015C47.378,27.097,47.365,26.059,47.348,25.019z"/>
<path fill="#A8AEBA" d="M59.873,18.731c1.053,2.103,2.106,4.203,3.161,6.305C61.98,22.937,60.926,20.835,59.873,18.731z"/>
<path fill="#AEB5C0" d="M47.397,31.262c2.08-0.003,4.16-0.009,6.24-0.012c0.001,1.035-0.005,2.072-0.021,3.106c-2.061-0.003-4.124-0.006-6.186-0.006c-0.032-1.038-0.06-2.075-0.081-3.113L47.397,31.262z"/>
<path fill="#9298A3" d="M53.718,28.061c-0.04-1.01-0.064-2.021-0.075-3.031c0.99,0.998,1.979,1.996,2.968,2.994C55.645,28.055,54.682,28.067,53.718,28.061z"/>
<path fill="#AEB4C5" d="M62.971,24.979c1.016,0,2.032,0.019,3.047,0.055C65.001,25.015,63.986,24.997,62.971,24.979z"/>
<path fill="#A0A5B5" d="M59.876,31.25l0.004-0.003L59.876,31.25z"/>
<path fill="#A5ABB6" d="M69.555,34.39c-1.085,0.879-2.169,1.761-3.253,2.643C67.386,36.151,68.47,35.269,69.555,34.39z"/>
<path fill="#4A4D53" d="M72.384,40.619c-0.002-1.034-0.002-2.072-0.004-3.107c1.04,1.038,2.077,2.075,3.116,3.113l0.014-0.009C74.468,40.619,73.426,40.619,72.384,40.619z"/>
<path fill="#7C8089" d="M31.765,74.976c1.03-2.066,2.058-4.132,3.088-6.198C33.823,70.844,32.793,72.909,31.765,74.976z"/>
<path fill="#6E727A" d="M41.123,59.378c1.044-2.084,2.087-4.169,3.133-6.253c0,2.084,0,4.166-0.001,6.25C43.21,59.375,42.167,59.378,41.123,59.378z"/>
<path fill="#767B82" d="M44.254,59.375c0.001-2.084,0.001-4.166,0.001-6.25c1.041,0,2.083,0,3.125,0c-0.001,2.084-0.003,4.166-0.003,6.25c-0.001,0-1.563,0-1.563,0H44.254z"/>
<path fill="#818793" d="M31.756,62.5c1.039,0.003,2.08,0.006,3.121,0.006c0.003,1.035-0.002,2.069-0.017,3.101c-2.074,0.007-4.147,0.013-6.222,0.016c-0.028-1.031,0.01-2.063,0.114-3.092C29.752,62.53,30.755,62.522,31.756,62.5z"/>
<path fill="#7A7D88" d="M34.876,62.506c1.041-1.04,2.081-2.084,3.122-3.122C36.957,60.425,35.917,61.466,34.876,62.506z"/>
<path fill="#6D717A" d="M34.92,68.69c-0.006-0.989,0.001-1.981,0.023-2.97C34.936,66.711,34.928,67.7,34.92,68.69z"/>
<path fill="#494D52" d="M53.607,68.734c-0.838,0.037-1.676,0.089-2.511,0.156c-0.22-1.02-0.317-2.051-0.287-3.092C51.743,66.778,52.675,67.758,53.607,68.734z"/>
<path fill="#9CA2AD" d="M47.35,31.238c0.021,1.038,0.049,2.075,0.081,3.113c-1.099,2.143-2.197,4.285-3.296,6.43c-2.002-0.11-4.004-0.223-6.004-0.333l0.055,0.052c-1.139-1.157-2.275-2.313-3.412-3.47c0.035-0.885,0.07-1.773,0.107-2.655c0,0-0.012-0.006-0.011-0.006c1.099-0.055,2.194-0.11,3.292-0.165c1-1.001,1.997-2.005,2.997-3.006l-0.177-0.031C43.104,31.192,45.228,31.216,47.35,31.238z"/>
<path fill="#6F747C" d="M44.254,46.875c-0.697,0.378-1.395,0.76-0.026,0.015C42.818,47.556,43.537,47.217,44.254,46.875L44.254,46.875z"/>
<path fill="#72777F" d="M31.751,46.86c-2.083-1.035-4.166-2.072-6.25-3.11C27.585,44.788,29.668,45.825,31.751,46.86z"/>
<path fill="#9CA2AD" d="M50.471,40.601c0.006,1.013-0.004,2.026-0.031,3.037c-0.001,0,0.385,0.522,0.384,0.522c-1.162-0.016-2.324-0.034-3.485-0.049c-1.006-0.244-2.026-0.388-3.061-0.431c-0.006-0.998-0.044-1.996-0.118-2.987c1.077-0.021,2.156-0.046,3.235-0.067C48.42,40.619,49.445,40.613,50.471,40.601z"/>
<path fill="#7D818A" d="M34.847,56.234c-1.027-1.031-2.055-2.065-3.082-3.101C32.792,54.169,33.82,55.203,34.847,56.234z"/>
<polygon fill="#818898" points="38.131,40.448 37.684,40.942 38.184,40.503 "/>
<path fill="#70757D" d="M44.277,43.68c1.035,0.043,2.055,0.187,3.061,0.424c0.026,0.934,0.052,1.871,0.075,2.805c0,0-0.026-0.028-0.024-0.028c-1.044,0-2.089-0.003-3.134-0.006h0.001C44.263,45.81,44.271,44.745,44.277,43.68z"/>
<path fill="#9AA1AB" d="M25.568,25.043c1.012-0.024,2.023-0.049,3.035-0.073c1.031,1.034,2.063,2.069,3.094,3.104C29.654,27.063,27.611,26.053,25.568,25.043z"/>
<path fill="#A9ADBE" d="M31.757,28.125c1.071,0.003,2.143,0.006,3.212,0.009c-0.018,1.059-0.035,2.118-0.053,3.177c-1.053-0.021-2.107-0.04-3.16-0.061c0,0,0,0,0.001-0.003C31.756,30.206,31.756,29.166,31.757,28.125z"/>
<path fill="#8C939D" d="M31.756,31.25c1.053,0.021,2.107,0.04,3.16,0.061l-0.044-0.064c0.011,1.041,0.009,2.081-0.003,3.122l0.012,0.006c-1.042,0-2.084,0.003-3.128,0.006C31.753,33.34,31.754,32.294,31.756,31.25z"/>
<path fill="#9197A1" d="M34.916,31.311c0.018-1.059,0.035-2.118,0.053-3.177c2.007,1.01,4.012,2.023,6.014,3.037c-0.001-0.003,0.175,0.027,0.175,0.027c-1.028,0.024-2.055,0.073-3.081,0.155c-1.07-0.036-2.138-0.07-3.206-0.106L34.916,31.311z"/>
<path fill="#AEB8D5" d="M47.379,12.5c0.001,1.041,0.001,2.084,0,3.125c-0.001,0-1.563,0-1.563,0s-1.561,0-1.56-0.003c-0.001-1.041-0.001-2.082,0-3.122C45.299,12.497,46.339,12.497,47.379,12.5z"/>
<path fill="#9AA1AB" d="M44.24,18.759c0.007,1.043,0.014,2.087,0.021,3.131c-1.044-0.006-2.088-0.009-3.13-0.012C42.168,20.837,43.204,19.797,44.24,18.759z"/>
<path fill="#A6AABA" d="M34.885,21.89l0.011-0.012L34.885,21.89z"/>
<path fill="#A4A7B7" d="M41.132,21.878c1.042,0.003,2.086,0.006,3.13,0.012l-0.019-0.027c0.003,1.053,0.006,2.103,0.009,3.156l0.032-0.016C43.233,23.962,42.182,22.919,41.132,21.878z"/>
<path fill="#A8ACBC" d="M47.348,25.019c0.017,1.041,0.029,2.078,0.037,3.119c-1.033-1.043-2.067-2.09-3.101-3.134l-0.032,0.016c1.045,0,2.092,0,3.137,0L47.348,25.019L47.348,25.019z"/>
<path fill="#737880" d="M28.751,62.53c-0.104,1.028-0.142,2.061-0.114,3.092c-1.042,0-2.088,0.003-3.133,0.003c-0.001-1.041,0.001-2.081,0.009-3.122C26.592,62.512,27.672,62.522,28.751,62.53z"/>
<path fill="#767A83" d="M28.751,62.53c-1.079-0.009-2.159-0.019-3.238-0.027c-0.001-1.053-0.005-2.105-0.006-3.161c1.028,0.015,2.059,0.024,3.087,0.024c1.053,1.043,2.107,2.087,3.162,3.134C30.755,62.522,29.752,62.53,28.751,62.53z"/>
<path fill="#80848D" d="M28.594,59.366c-1.028,0-2.059-0.01-3.087-0.024c0.009-1.004,0.021-2.012,0.04-3.016C26.563,57.34,27.578,58.353,28.594,59.366z"/>
<path fill="#52555C" d="M72.384,40.619c1.042,0,2.084,0,3.126-0.003C74.468,40.619,73.426,40.619,72.384,40.619z"/>
<path fill="#747981" d="M47.413,46.909c-0.023-0.934-0.049-1.871-0.075-2.805c1.161,0.021,2.323,0.04,3.485,0.055c-0.194,0.973-0.422,1.938-0.684,2.893C49.23,46.982,48.322,46.933,47.413,46.909z"/>
<path fill="#979BAB" d="M50.471,40.601c-1.025,0.012-2.051,0.019-3.077,0.024C48.42,40.616,49.445,40.61,50.471,40.601z"/>
<path fill="#9AA1AB" d="M47.39,25.019c-1.045,0-2.092,0-3.137,0c-0.003-1.053-0.006-2.103-0.009-3.156C45.292,22.916,46.341,23.965,47.39,25.019z"/>
<path fill="#A0A6B1" d="M34.871,31.247c1.068,0.037,2.136,0.07,3.205,0.104c-0.001,0.952,0.026,1.904,0.085,2.854c-1.097,0.055-2.193,0.11-3.292,0.165C34.881,33.328,34.882,32.288,34.871,31.247z"/>
<path fill="#AAAEBE" d="M38.161,34.204c-0.06-0.949-0.087-1.901-0.085-2.854c1.027-0.079,2.054-0.128,3.082-0.152C40.158,32.199,39.161,33.203,38.161,34.204z"/>
</svg>