<?xml version="1.0" encoding="utf-8"?>
<!DOCTYPE svg PUBLIC "-//W3C//DTD SVG 1.1//EN" "http://www.w3.org/Graphics/SVG/1.1/DTD/svg11.dtd">
<svg version="1.1" xmlns="http://www.w3.org/2000/svg" xmlns:xlink="http://www.w3.org/1999/xlink" x="0px" y="0px" width="100px" height="100px" viewBox="0 0 100 100" enable-background="new 0 0 100 100" xml:space="preserve">
<path fill="#1B1816" d="M88.072,21.738c9.055,18.838,9.586,37.622-0.351,56.344c-0.835-1.11-1.585-2.276-2.26-3.488c-0.374-2.072-0.09-4.141,0.02-6.207c0.078-1.37,0.156-2.743,0.229-4.113c0.129-2.692,0.213-5.384,0.193-8.072c-0.058-2.539-0.288-5.066-0.877-7.531c-0.42-1.111-0.824-2.237-1.308-3.314c-1.454-2.731-3.737-4.535-6.528-5.808c-1.937-0.745-3.551-1.904-4.916-3.452c-0.798-1.221-1.289-2.536-1.484-3.977c-0.067-1.465,0.018-2.908,0.253-4.352c1.115-3.262,3.828-4.132,6.822-4.572c1.413-0.259,2.843-0.437,4.277-0.534C84.215,22.983,86.35,23.685,88.072,21.738z"/>
<path fill="#24211E" d="M12.987,77.976c-8.985-12.503-9.212-42.469-0.421-56.275c2.271,0.131,4.546,0.159,6.807,0.305c1.511,0.269,2.711,1.035,3.592,2.286c0.424,1.373,0.653,2.795,0.679,4.229c-0.001,1.386-0.165,2.771-0.464,4.126c-1.527,2.963-3.982,5.338-5.39,8.383c-1.138,2.377-1.904,4.868-2.348,7.474c-0.159,1.36-0.334,2.704-0.476,4.062c-0.374,4.236-0.36,8.466-0.224,12.705C14.628,69.574,16.15,74.097,12.987,77.976z"/>
<path fill="#151211" d="M56.7,94.08c-2.378,0.677-4.756,1.354-7.135,2.035c-7.711-14.584-2.607-31.088-6.921-46.18c-0.05-1.889,0.157-3.75,0.62-5.581c2.562-5.14,7.029-5.481,11.919-4.743c1.745,0.641,3.19,1.703,4.324,3.18c1.918,3.412,0.518,6.896,0.214,10.354c-0.428,3.323-0.777,6.665-1.02,10.007c-0.521,7.196-0.561,14.413-0.612,21.628C58.28,87.977,57.384,91.013,56.7,94.08z"/>
<path fill="#85563D" d="M40.182,8.49c13.545-11.466,22.192,1.84,32.563,6.436c0.096,1.275-0.029,2.527-0.409,3.748c-1.407,1.468-3.35,1.59-5.154,2.051c-1.214,0.287-2.428,0.577-3.638,0.87c-1.198,0.302-2.4,0.604-3.599,0.91c-2.972,0.921-6.023,0.992-9.097,0.827c-1.218-0.137-2.362-0.503-3.429-1.104c-0.458-0.397-0.917-0.796-1.375-1.193c-0.786-0.921-1.572-1.843-2.359-2.765c-0.396-0.46-0.789-0.921-1.183-1.382c-1.165-1.416-2.185-2.905-2.516-4.761C40.124,10.916,40.189,9.705,40.182,8.49z"/>
<path fill="#382A23" d="M47.602,49.67c0.656,15.482,1.311,30.967,1.966,46.445c-1.771-0.922-3.539-1.84-5.307-2.762c0.583-4.56-2.568-8.621-1.761-13.221C44.767,70.071,37.172,58.361,47.602,49.67z"/>
<path fill="#935F44" d="M84.531,24.768c-0.832,0.366-1.685,0.671-2.561,0.918c-0.615-0.082-1.229-0.168-1.85-0.247c-1.666,1.041-3.621,1.065-5.439,1.59c-2.324,1.272-4.519,2.887-7.395,2.609c-2.119,0.049-4.224,0.015-6.328-0.263c-2.203-0.644-3.85-1.929-4.778-4.062c-0.313-1.496,0.024-2.844,0.91-4.068c1.524-1.688,3.479-2.499,5.69-2.774c1.369-0.403,2.74-0.809,4.109-1.217c1.431-0.003,2.829-0.241,4.191-0.681c0.597-0.507,1.15-1.056,1.662-1.648c4.11,1.978,8.22,3.955,12.33,5.933c0.36,0.714,0.721,1.428,1.082,2.142C85.614,23.59,85.073,24.179,84.531,24.768z"/>
<path fill="#654331" d="M12.987,77.976c-0.944-4.11-1.891-8.222-2.837-12.332c1.181-0.895,2.469-1.593,3.85-2.121c2.928,0.336,5.914,0.491,8.176,2.786c0.799,1.27,1.288,2.646,1.416,4.147c0.088,2.233,0.059,4.452-0.88,6.549c-1.139,1.041-2.479,1.517-4.018,1.429C16.791,78.28,14.89,78.128,12.987,77.976z"/>
<path fill="#31231B" d="M56.7,94.08c-1.085-2.201-2.169-4.401-3.254-6.602c1.602-1.623,3.223-3.226,5.337-4.199c1.508-0.229,3.021-0.271,4.538-0.101c2.321,0.662,3.792,2.411,5.281,4.135C64.635,89.569,60.668,91.824,56.7,94.08z"/>
<path fill="#905840" d="M16.381,19.617c0.822-0.555,1.729-0.83,2.721-0.83c0.78-1.077,1.823-1.733,3.131-1.975c1.97-0.708,3.941-1.416,5.911-2.124c1.753,0.461,3.087,1.474,4.004,3.034c0.398,1.742,0.194,3.412-0.61,5.005c-2.046,3.015-4.966,4.611-8.494,5.209c-1.631-0.57-3.078-1.449-4.34-2.63l0.114,0.091C18.002,23.471,13.863,22.946,16.381,19.617z"/>
<path fill="#654434" d="M46.247,84.394c-0.663,2.987-1.325,5.976-1.987,8.96c-2.362-1.691-4.724-3.385-7.086-5.075c-0.014-0.681-0.026-1.361-0.04-2.042c0.35-1.354,1.077-2.45,2.24-3.244c1.136-0.803,2.391-1.232,3.788-1.229C44.341,82.462,45.37,83.338,46.247,84.394z"/>
<path fill="#563B2A" d="M31.664,86.676c-3.937-1.855-7.874-3.711-11.809-5.563c1.381-1.755,2.839-3.411,5.075-4.104c1.488-0.106,2.931,0.095,4.32,0.647c1.962,1.172,3.403,2.759,4.01,5.014C33.112,84.158,32.58,85.492,31.664,86.676z"/>
<path fill="#764E38" d="M28.454,18.588c-0.105-1.297-0.209-2.594-0.312-3.897c0.001-0.003-0.007,0.958-0.007,0.958c1.417-0.702,2.173-2.148,3.425-3.037c1.073-0.729,2.147-1.461,3.221-2.191c2.434,1.636,4.183,3.65,3.771,6.854c-0.557,1.85-1.648,3.296-3.274,4.34C32.076,22.696,29.891,21.484,28.454,18.588z"/>
<path fill="#472F23" d="M76.085,82.01c-2.07,0.9-4.141,1.801-6.212,2.701c-1.461,1.15-3.028,1.321-4.699,0.516c-2.404-1.343-3.554-3.351-3.234-6.122c0.535-1.557,1.447-2.862,2.72-3.906c2.207-1.303,4.426-1.145,6.632,0.006c1.274,0.797,2.531,1.646,3.751,2.53C75.799,79.056,76.149,80.481,76.085,82.01z"/>
<path fill="#724D3B" d="M16.381,19.617c0.813,1.926,1.626,3.848,2.438,5.777c-2.086-1.229-4.17-2.459-6.255-3.689C13.837,21.008,15.108,20.313,16.381,19.617z"/>
<path fill="#875C46" d="M34.664,15.598c0.04-1.725,0.079-3.452,0.119-5.176c1.007-0.229,2.016-0.458,3.024-0.687c1.07,0.982,2.037,2.054,2.884,3.234c0.124,0.717,0.248,1.432,0.37,2.152c-0.541,1.431-1.537,2.38-2.991,2.85C36.566,17.706,35.432,16.916,34.664,15.598z"/>
<path fill="#432D22" d="M87.725,75.052c0.01,1.011,0.008,2.021-0.001,3.03c-1.845,0.232-3.688,0.464-5.533,0.699c-0.719-0.507-1.438-1.014-2.156-1.52c-0.432-1.862,0.044-3.452,1.429-4.771c1.713-0.817,3.389-0.744,5.027,0.214C86.902,73.486,87.315,74.271,87.725,75.052z"/>
<path fill="#654434" d="M23.7,81.296c-1.283-0.062-2.565-0.122-3.847-0.187c-0.722-0.747-1.104-1.645-1.155-2.68c-0.005,0.004,0.27-0.223,0.27-0.223c1.059-1.214,2.35-2.087,3.873-2.615c1.705,0.181,2.902,1.057,3.589,2.628C26.444,80.063,25.533,81.092,23.7,81.296z"/>
<path fill="#452E23" d="M82.191,78.781c-2.035,1.074-4.071,2.151-6.105,3.226c0,0.003-1.1-0.992-1.1-0.992c-1.271-1.227-1.666-2.691-1.185-4.392c1.053-1.388,2.449-2.032,4.188-1.938c1.547,0.672,2.676,1.773,3.385,3.305L82.191,78.781z"/>
<path fill="#654434" d="M31.664,86.676c-0.008-0.754-0.078-1.504-0.21-2.249c0.254-0.784,0.509-1.571,0.763-2.358c1.358-1.133,2.892-1.465,4.598-1.005c2.393,1.722,2.798,3.791,1.08,6.226c0,0-0.719,0.986-0.719,0.989C35.337,87.744,33.5,87.21,31.664,86.676z"/>
<path fill="#452E23" d="M65.722,84.308c1.379,0.135,2.761,0.269,4.146,0.403c-0.301,0.925-0.723,1.794-1.262,2.603c-1.782,0.046-3.56,0.089-5.339,0.135c-1.535-0.8-1.961-2.032-1.424-3.641C63.274,82.898,64.574,83.014,65.722,84.308z"/>
<path fill="#85563D" d="M37.844,12.753c-0.021-1.004-0.035-2.011-0.038-3.018c0.668-0.653,1.46-1.068,2.377-1.245c0.432,0.555,0.864,1.114,1.295,1.672c0.766,1.251,0.714,2.466-0.157,3.65C39.913,14.276,38.755,13.922,37.844,12.753z"/>
<path fill="#875C46" d="M31.56,12.613c-1.143,1.01-2.284,2.023-3.425,3.037C29.276,14.636,30.418,13.626,31.56,12.613z"/>
<path fill="#724D3B" d="M22.233,16.812c-1.043,0.659-2.087,1.315-3.131,1.975C20.145,18.13,21.189,17.471,22.233,16.812z"/>
<path fill="#795543" d="M84.531,24.768c0.182-1.303,0.364-2.603,0.545-3.906c0.998,0.29,1.997,0.583,2.996,0.876C86.892,22.748,85.712,23.758,84.531,24.768z"/>
<path fill="#3E271B" d="M90.483,55.945c0.013,3.268,0.026,6.539,0.04,9.808c-1.036,0.989-2.134,1.901-3.293,2.744c-2.989,0.356-5.708-0.895-8.559-1.426c-1.475-0.409-2.765-1.135-3.912-2.139c-1.458-1.807-2.739-3.711-3.607-5.878c-0.452-2.368-0.36-4.669,0.798-6.846c1.959-2.979,4.896-3.683,8.194-3.53c1.552-0.009,3.102,0.089,4.642,0.29C87.971,50.241,88.956,53.315,90.483,55.945z"/>
<path fill="#37251B" d="M75.233,34.405c2.005-0.091,4.012-0.18,6.017-0.271c5.425,0.693,7.034,5.24,9.253,9.167c0.044,1.251,0.089,2.505,0.133,3.757c-0.759,0.785-1.506,1.581-2.248,2.383c-0.807,0.76-1.713,1.37-2.724,1.831c-1.066,0.333-2.107,0.727-3.129,1.185c-0.566-0.034-1.127-0.073-1.692-0.113c-0.959-0.644-1.82-1.386-2.588-2.249c-1.163-1.337-2.658-2.338-3.694-3.8c-0.523-1.11-0.992-2.23-1.416-3.381c-0.679-1.761-1.366-3.507-1.693-5.375c0.153-1.328,0.75-2.383,1.859-3.137C73.952,34.402,74.592,34.405,75.233,34.405z"/>
<path fill="#492D21" d="M90.502,43.301c-3.082-3.055-6.166-6.109-9.252-9.167c2.253-0.555,4.505-1.107,7.682-1.892C89.555,36.627,90.029,39.966,90.502,43.301z"/>
<path fill="#875C46" d="M76.151,28.391c-0.281,0.909-0.599,1.804-0.954,2.683c-1.514,1.608-2.786,3.378-3.61,5.45c-0.971,1.153-2.179,1.907-3.668,2.2c-1.498,0.064-2.933-0.21-4.316-0.772c-1.869-1.276-3.414-2.847-4.462-4.874c-0.374-1.492-0.205-2.921,0.508-4.282c1.153-0.964,2.447-1.669,3.882-2.118c2.227-0.144,4.457-0.113,6.687-0.116C72.352,26.663,74.704,26.059,76.151,28.391z"/>
<path fill="#452E23" d="M87.272,47.317c1.122-0.088,2.245-0.174,3.364-0.259c-0.05,2.963-0.099,5.926-0.15,8.89c-1.969-0.986-3.934-1.972-5.9-2.958c-0.959-0.662-1.263-1.306-0.917-1.928c0.338-0.611,0.674-0.916,1.01-0.916l0.119-0.238C85.622,49.045,86.447,48.182,87.272,47.317z"/>
<path fill="#7F523C" d="M76.151,28.391c-2.362-0.085-4.725-0.174-7.087-0.263c-2.319-1.038-2.319-2.078-0.001-3.119c3.209-0.052,6.416-0.101,9.625-0.153l0.882-0.955l1.242,0.388c0.432,0.427,0.818,0.894,1.158,1.395C80.031,26.587,78.091,27.49,76.151,28.391z"/>
<path fill="#4A2C1F" d="M87.86,65.609c0.89,0.043,1.778,0.089,2.664,0.144c0.016,0.94-0.006,1.883-0.068,2.82c-1.071,1.349-2.408,2.334-4.015,2.954c-2.561,0.253-5.07,0.354-6.813-2.078c-0.53-1.779-0.132-3.32,1.191-4.621C83.298,63.913,85.725,63.461,87.86,65.609z"/>
<path fill="#342C29" d="M68.903,34.287c2.098-1.071,4.196-2.143,6.294-3.213c0.013,1.11,0.024,2.222,0.037,3.332c-0.002,0,0.084-0.07,0.084-0.07C73.152,37.656,71.02,37.033,68.903,34.287z"/>
<path fill="#3C291F" d="M87.6,68.891c0.954-0.107,1.907-0.211,2.858-0.314c-0.913,2.157-1.822,4.318-2.733,6.476l0.105,0.024c-0.972-0.849-1.729-1.858-2.272-3.033C85.937,70.798,86.631,69.754,87.6,68.891z"/>
<path fill="#60402A" d="M10.23,46.93c0.044-3.158,0.09-6.314,0.134-9.473c1.208-0.952,2.585-1.495,4.107-1.688c3.133,0.205,6.012,0.934,7.866,3.793c0.712,1.376,1.091,2.838,1.138,4.385c-0.125,1.55-0.603,2.981-1.433,4.294c-1.048,1.15-2.315,1.972-3.766,2.515c-1.558,0.043-3.012-0.323-4.362-1.099C12.737,48.679,11.509,47.773,10.23,46.93z"/>
<path fill="#623D2C" d="M12.496,65.524c-0.783,0.04-1.564,0.079-2.346,0.119c-0.02-5.234-0.041-10.468-0.063-15.701c1.28-0.687,2.637-0.91,4.07-0.672c1.187,0.772,2.267,1.676,3.239,2.704c0.911,1.074,1.695,2.233,2.356,3.479c0.42,1.343,0.594,2.72,0.48,4.123c-0.539,2.151-1.894,3.65-3.786,4.715C15.188,64.881,13.869,65.292,12.496,65.524z"/>
<path fill="#614031" d="M12.149,37.351c-0.597,0.033-1.191,0.067-1.787,0.106c2.885-2.044,5.768-4.089,8.652-6.134c1.359,0.623,2.093,1.682,2.203,3.171c-0.799,2.365-2.683,2.938-4.898,2.963C14.93,37.454,13.54,37.418,12.149,37.351z"/>
<path fill="#272320" d="M19.202,34.372c-0.072-1.017-0.134-2.033-0.188-3.049c-0.006-1.031-0.008-2.06-0.006-3.091c1.744-1.883,4.132-2.212,6.468-2.676c1.701,0.244,2.956,1.123,3.768,2.643c0.413,1.599,0.493,3.208,0.241,4.84c-0.554,1.584-1.451,2.936-2.696,4.059c-1.456,0.934-3.032,1.257-4.735,0.977c-0.708-0.439-1.412-0.879-2.118-1.318C19.691,35.959,19.446,35.166,19.202,34.372z"/>
<path fill="#724D3B" d="M24.907,28.638c-1.965-0.134-3.932-0.271-5.899-0.406c-0.139-0.974-0.24-1.95-0.302-2.93c1.165-0.119,2.33-0.238,3.496-0.357C25.928,24.109,26.742,25.403,24.907,28.638z"/>
<path fill="#654434" d="M12.638,49.918c-0.852,0.009-1.703,0.015-2.551,0.024c-0.083-1.011-0.038-2.015,0.139-3.013c0.898-0.024,1.793-0.058,2.687-0.091c0.458,0.287,0.916,0.574,1.375,0.861c-0.049,0.537-0.096,1.077-0.145,1.614C13.64,49.515,13.138,49.716,12.638,49.918z"/>
<path fill="#654434" d="M46.247,84.394h-1.529c-1.405-0.107-2.65-0.62-3.757-1.48c-1.275-1.724-1.522-3.729-1.57-5.786c-0.02-1.337-0.032-2.68-0.035-4.02c-0.003-1.327-0.008-2.66-0.011-3.991c-0.001-1.334-0.003-2.667-0.004-4.004c0.001-1.346,0.003-2.691,0.004-4.044c0.001-1.376,0.004-2.74,0.008-4.116c0-2.118,0.011-4.229,0.052-6.348c0.049-1.468,0.284-2.891,0.708-4.291c0.893-1.27,2.123-1.932,3.648-2.078c1.397,0.592,2.461,1.563,3.243,2.85c0.224,0.858,0.424,1.718,0.598,2.588C47.15,61.246,46.698,72.818,46.247,84.394z"/>
<path fill="#452E23" d="M60.148,87.503c-2.233-0.009-4.468-0.015-6.701-0.024c0.118-8.304,0.237-16.61,0.356-24.914c0.979-1.12,2.167-1.914,3.592-2.341c2.443,0.391,3.477,2.146,4.095,4.27c0.673,1.846,1.36,3.708,2.052,5.542c0.365,1.162,0.556,2.374,0.57,3.589c-0.175,1.147-0.568,2.243-1.135,3.256c-0.6,0.922-1.115,1.913-1.535,2.938c-0.067,0.528-0.139,1.071-0.209,1.603c-0.03,1.056-0.058,2.124-0.078,3.183C61.137,85.675,60.817,86.651,60.148,87.503z"/>
<path fill="#272320" d="M47.004,47.085c-0.987-0.049-1.973-0.122-2.958-0.216c-2.573,0.735-5.134,1.3-7.563-0.434c-2.083-2.029-2.788-4.333-1.402-7.053c1.723-2.103,3.966-3.174,6.664-3.326c2.521-0.11,5.05-0.116,7.574-0.107c1.655,0,3.317,0.052,4.973,0.153c0.806,0.162,1.617,0.32,2.425,0.482c1.582,0.754,2.528,1.996,2.834,3.723c-0.258,0.775-0.513,1.557-0.768,2.332c-0.71,0.409-1.419,0.815-2.129,1.224C53.437,44.937,50.221,46.011,47.004,47.085z"/>
<path fill="#412B1E" d="M57.316,62.82c-1.173-0.085-2.345-0.171-3.516-0.256c-0.03-3.156-0.063-6.312-0.098-9.467c1.158-1.291,2.531-2.289,4.118-2.997c1.809-0.116,3.353,0.467,4.635,1.749c1.607,2.222,1.796,4.764,1.661,7.382c-0.146,1.795-0.869,3.314-2.168,4.563C60.169,64.581,58.625,64.255,57.316,62.82z"/>
<path fill="#4B2D1F" d="M56.623,46.838c0.003-0.992,0.012-1.984,0.028-2.976c0.002,0-0.088,0.064-0.088,0.064c2.438-2.105,2.739-6.488,7.036-6.616c1.707,0.156,3.316,0.638,4.83,1.44c1.182,1.282,1.839,2.796,1.975,4.532c0.13,2.527,0.067,5.026-1.112,7.352c-0.971,1.407-2.265,2.393-3.877,2.954c-1.697,0.113-3.263-0.293-4.69-1.215c-1.506-0.726-2.764-1.758-3.771-3.091C56.844,48.468,56.733,47.653,56.623,46.838z"/>
<path fill="#452E23" d="M56.686,53.085c-0.995,0.003-1.991,0.01-2.984,0.013c0.975-2.084,1.948-4.172,2.922-6.259l-0.119-0.073C58.196,48.825,58.774,50.916,56.686,53.085z"/>
<path fill="#392A21" d="M50.039,18.64c3.338-1.309,6.677-2.619,10.014-3.928c0.786-0.498,1.572-0.498,2.359,0c1.354,0.278,2.71,0.559,4.064,0.836c0.574,0.583,1.147,1.163,1.722,1.746c-0.629,0.522-1.258,1.043-1.886,1.565l-0.388-0.076c-1.567,1.834-4.582,1.053-5.929,3.287l-0.018,0.214c-2.107,1.574-2.354,4.346-4.003,6.222c-1.033,0.754-2.087,1.465-3.177,2.143c-1.661,1.089-3.394,2.029-5.226,2.804c-1.918,0.843-3.778,1.792-5.849,2.24c-1.466,0.131-2.919,0.183-4.392,0.149c-1.527-0.076-2.972-0.424-4.365-1.047c-1.193-1.034-2.021-2.286-2.446-3.805c-0.18-3.54,1.95-5.795,4.364-7.895C39.51,20.154,43.817,16.144,50.039,18.64z"/>
<path fill="#92583F" d="M50.039,18.64c-4.116,2.023-8.231,4.046-12.348,6.067c-0.536-0.088-1.071-0.18-1.607-0.271c-0.758-0.842-1.077-1.819-0.89-2.945c0.586-0.924,1.012-1.916,1.279-2.975c0.166-1.093,0.605-2.063,1.317-2.909l-0.044,0.04c0.902-1.145,1.942-2.148,3.119-3.009c0.19-0.83,0.394-1.66,0.61-2.481c3.975,0.8,7.946,1.596,11.919,2.393c-1.192,0.876-2.027,2.115-3.121,3.091l0.035-0.045l-1.348,0.79l0.137,1.557L50.039,18.64z"/>
<path fill="#9A664B" d="M49.098,17.941c-0.36-1.114,0.042-1.896,1.211-2.347C49.918,16.385,49.516,17.166,49.098,17.941z"/>
<path fill="#9A664B" d="M66.313,18.86c0.055-1.105,0.109-2.207,0.164-3.311c1.537,0.339,3.075,0.681,4.608,1.022C69.492,17.334,67.902,18.097,66.313,18.86z"/>
<path fill="#9A664B" d="M50.274,15.64c1.041-1.031,2.081-2.063,3.121-3.094C52.354,13.577,51.315,14.609,50.274,15.64z"/>
<path fill="#935F44" d="M62.412,14.712l-1.18,0.162l-1.18-0.162C60.84,14.814,61.626,14.814,62.412,14.712z"/>
<path fill="#8A563D" d="M53.865,25.205c2.037-0.974,4.076-1.947,6.113-2.92c0.937,0.906,1.873,1.813,2.809,2.719c0.734,0.525,1.467,1.05,2.199,1.575c-0.735,0.519-1.471,1.041-2.205,1.563l0.03-0.03c-1.082,1.236-2.328,2.271-3.743,3.104C54.827,31.381,53.129,29.349,53.865,25.205z"/>
<path fill="#7F523C" d="M59.996,22.07c1.977-1.096,3.952-2.191,5.929-3.287C63.948,19.879,61.973,20.975,59.996,22.07z"/>
<path fill="#9A664B" d="M62.781,28.14c0.002-1.046,0.005-2.09,0.008-3.137c2.09,0,4.183,0.003,6.274,0.006c-0.002,1.041-0.002,2.078,0,3.119C66.97,28.134,64.875,28.137,62.781,28.14z"/>
<path fill="#9A664B" d="M80.813,24.289c-0.702,0.22-1.411,0.409-2.127,0.567C79.391,24.643,80.099,24.454,80.813,24.289z"/>
<path fill="#66422F" d="M19.365,72.586c-0.226-1.517-0.45-3.033-0.676-4.55c-1.234-1.071-2.006-2.411-2.315-4.02c0.23-0.76,0.461-1.52,0.693-2.282c0.948-1.294,1.769-2.661,2.466-4.108c1.025-1.354,2.383-2.093,4.077-2.218c1.625,0.289,3.047,0.988,4.27,2.096c1.591,1.99,1.975,4.304,1.797,6.76c-0.43,2.381-1.613,4.435-2.823,6.473c-0.625,1.505-1.686,2.592-3.179,3.25C22.075,74.029,20.637,73.563,19.365,72.586z"/>
<path fill="#341E15" d="M18.476,66.019c0.096,0.672,0.168,1.343,0.214,2.018c-2.064-0.837-4.127-1.676-6.193-2.512l0.564,0.36C14.927,63.507,16.735,63.416,18.476,66.019z"/>
<path fill="#392518" d="M19.365,72.586c0.958-0.283,1.926-0.531,2.902-0.738c2.545,2.225,2.826,4.315-0.363,6.204c-0.978,0.062-1.956,0.113-2.936,0.155C19.102,76.334,19.233,74.46,19.365,72.586z"/>
<path fill="#251811" d="M60.148,87.503c0.044-1.065,0.089-2.13,0.133-3.195c0.92-0.891,1.802-0.812,2.649,0.104c0.069,1.016,0.18,2.029,0.332,3.036C62.226,87.454,61.187,87.473,60.148,87.503z"/>
<path fill="#935F44" d="M24.907,28.638c-0.901-1.229-1.803-2.46-2.705-3.692c2.067-1.029,4.133-2.057,6.201-3.085c0.758,0.299,1.515,0.601,2.273,0.9c1.015,1.422,1.222,2.954,0.621,4.596c-1.74,2.386-3.845,2.594-6.244,1.043L24.907,28.638z"/>
<path fill="#935F44" d="M28.454,18.588c2.072,0.055,4.144,0.107,6.216,0.159c0.526,0.415,1.053,0.83,1.579,1.245c-0.024,0.671-0.049,1.34-0.073,2.014c-0.656,1.208-1.591,2.139-2.771,2.835c-2.361,0.21-3.516-1.608-4.959-2.939c0,0-0.041-0.042-0.042-0.042C28.42,20.771,28.437,19.681,28.454,18.588z"/>
<path fill="#69442F" d="M37.894,87.289c-1.097-0.979-2.196-1.959-3.292-2.936c-1.139-1.11-2.097-2.359-2.872-3.741c-0.357-1.608-0.078-3.098,0.836-4.465c1.222-1.007,2.617-1.603,4.202-1.712c1.512,0.458,2.686,1.373,3.554,2.686c0.668,1.364,1.292,2.756,1.868,4.162c0.32,2.268,0.534,4.511-1.405,6.274C39.821,87.47,38.857,87.381,37.894,87.289z"/>
<path fill="#382A23" d="M40.784,87.558c0.032-2.108,0.064-4.22,0.096-6.332c1.096-1.392,2.146-1.294,3.154,0.098c0.225,1.022,0.449,2.045,0.678,3.07C43.407,85.449,42.095,86.505,40.784,87.558z"/>
<path fill="#2F1E14" d="M23.7,81.296c0.423-1.108,0.847-2.219,1.27-3.329c0.434-0.471,0.867-0.94,1.3-1.41c1.349-0.104,2.437,0.378,3.265,1.449c0.014,0.638,0.026,1.279,0.04,1.917c-0.531,0.354-1.062,0.711-1.593,1.064C26.554,81.092,25.127,81.195,23.7,81.296z"/>
<path fill="#654434" d="M31.454,84.427c-1.155-1.145-2.311-2.292-3.468-3.437c-0.003-0.003,0.444,0.263,0.444,0.263c0.394-0.507,0.787-1.017,1.181-1.522c1.381-0.26,2.415,0.223,3.106,1.443c0.249,1.352-0.137,2.457-1.26,3.28L31.454,84.427z"/>
<path fill="#9A664B" d="M37.791,15.606c-0.003,1.05-0.006,2.1-0.009,3.149c-0.521,0.495-1.041,0.992-1.561,1.493c-0.517-0.498-1.035-1.001-1.552-1.501h0.001c-0.001-1.047-0.004-2.097-0.006-3.146C35.706,15.601,36.748,15.604,37.791,15.606z"/>
<path fill="#23150F" d="M69.045,78.125c-1.059-0.043-2.116-0.082-3.176-0.125c-0.666-0.095-1.335-0.192-2.003-0.29c-0.9-1.05-1.527-2.23-1.844-3.586c-0.313-0.619-0.624-1.229-0.939-1.85c-0.632-1.275-0.946-2.618-0.944-4.043c0.526-1.377,1.438-2.417,2.689-3.177c1.358-0.553,2.766-0.813,4.228-0.824c0.728,0.079,1.449,0.162,2.177,0.244c1.391,0.543,2.556,1.383,3.472,2.566c0.925,2.094,0.96,4.275,0.648,6.494c-0.551,1.379-1.289,2.646-2.246,3.781C70.42,77.588,69.732,77.856,69.045,78.125z"/>
<path fill="#291B13" d="M62.93,84.412c-0.887-0.028-1.775-0.062-2.655-0.104c0.006,0-0.849-0.003-0.849-0.003c-0.355-0.543-0.711-1.086-1.066-1.627c0.085-1.314,0.473-2.529,1.164-3.649c1.917-2.026,3.92-3.439,6.472-0.9c0,0-0.124-0.125-0.126-0.128c-0.049,2.103-0.096,4.205-0.146,6.308C64.791,84.356,63.861,84.394,62.93,84.412z"/>
<path fill="#4E3326" d="M75.246,78.244c-0.07,0.928-0.155,1.853-0.258,2.773c-0.928,0.092-1.853,0.175-2.778,0.248c-1.033-1.108-1.581-2.411-1.565-3.938c0.09-0.732,0.18-1.465,0.27-2.197c0.675-1.434,1.781-2.176,3.389-2.121C76.618,74.396,77.229,76.086,75.246,78.244z"/>
<path fill="#20150E" d="M72.089,78.158c0.04,1.035,0.079,2.072,0.121,3.107c-1.055-1.047-2.11-2.094-3.165-3.141h0.021c0.511-0.741,1.023-1.483,1.535-2.225C71.098,76.654,71.593,77.404,72.089,78.158z"/>
<path fill="#9A664B" d="M40.865,12.637c-1.039,1.004-2.079,2.005-3.119,3.009c0.024-0.968,0.058-1.932,0.098-2.896C38.851,12.717,39.858,12.68,40.865,12.637z"/>
<path fill="#20150E" d="M87.502,72.019c0.108,1.02,0.219,2.038,0.328,3.058c-2.081-0.043-4.162-0.085-6.245-0.131c-0.442-0.488-0.887-0.977-1.329-1.468c0.088-1.404,0.757-2.433,2.006-3.086C84.168,70.429,86.266,69.836,87.502,72.019z"/>
<path fill="#4B3022" d="M81.373,77.99c-0.887,0.07-1.776,0.135-2.665,0.187c-1.599-1.022-1.978-2.38-1.134-4.083c1.625-1.044,2.985-0.77,4.081,0.817c0,0-0.072,0.037-0.07,0.037C81.528,75.961,81.456,76.975,81.373,77.99z"/>
<path fill="#714935" d="M21.904,78.052c0.121-2.069,0.241-4.135,0.363-6.204L22.05,72.04c1.172-1.233,2.49-2.283,3.954-3.152c1.708-0.596,3.311-0.388,4.814,0.613c1.099,1.422,1.431,3.009,0.998,4.751c-1.289,2.49-3.955,2.915-6.134,4.071l-0.712-0.356C23.948,77.994,22.927,78.024,21.904,78.052z"/>
<path fill="#2C1C13" d="M78.771,75.128c-0.031,1.017-0.055,2.032-0.065,3.049c-1.15,0.021-2.304,0.043-3.457,0.067c-1.024-1.056-2.047-2.109-3.069-3.165c-2.427-1.479-1.053-4.855-3.218-6.467l0.108,0.202c-1.143-1.096-2.165-2.292-3.063-3.592c-0.43-1.594-0.188-3.083,0.715-4.456c1.186-1.022,2.555-1.647,4.117-1.807c1.407,0.57,2.646,1.407,3.702,2.496c0.945,1.126,1.883,2.276,2.8,3.431c1.044,1.919,1.59,4.037,2.285,6.094C79.664,72.428,79.397,73.813,78.771,75.128z"/>
<path fill="#352118" d="M31.457,84.454c0.215-1.107,0.43-2.212,0.647-3.317c0.825-1.099,1.567-0.991,2.235,0.156c0.118,1.02,0.206,2.038,0.266,3.061C33.553,84.387,32.505,84.421,31.457,84.454z"/>
<path fill="#281911" d="M82.087,56c-2.291-0.962-4.581-1.923-6.871-2.884c-0.783-0.138-1.564-0.275-2.349-0.412c-1.959-1.792-2.107-4.104-1.878-6.528c0.378-1.596,1.24-2.869,2.583-3.812c1.6-0.363,3.113-0.134,4.538,0.684l0.676,1.142c1.514,1.69,1.063,4.313,2.786,5.905L81.543,50C83.643,51.825,83.164,53.885,82.087,56z"/>
<path fill="#4B3022" d="M87.86,65.609c-1.973-0.012-3.945-0.027-5.919-0.042c-0.584-0.571-1.167-1.142-1.751-1.712c0.709-0.403,1.419-0.807,2.128-1.212C84.165,63.632,86.013,64.621,87.86,65.609z"/>
<path fill="#4E3326" d="M82.087,56c-0.181-1.999-0.362-4.001-0.544-6c1.046,0.046,2.09,0.095,3.135,0.144c-0.026,0.952-0.057,1.901-0.093,2.851C83.751,53.995,82.92,54.996,82.087,56z"/>
<path fill="#24150F" d="M75.216,53.116c0.036,2.09,0.071,4.181,0.108,6.271c-0.525,0.568-1.052,1.136-1.578,1.703c-0.755-0.177-1.511-0.354-2.266-0.531c-0.693-0.354-1.386-0.704-2.078-1.059c-0.966-1.281-1.398-2.722-1.296-4.327c0.487-1.568,1.465-2.716,2.936-3.448c1.64-0.119,3.07,0.369,4.293,1.468L75.216,53.116z"/>
<path fill="#20150E" d="M75.324,59.387c1.059,1.022,2.117,2.048,3.177,3.07c0.857,0.784,1.25,1.651,1.173,2.601c-0.079,0.988-0.233,1.479-0.464,1.479c-1.566,0.645-2.9,0.363-3.961-0.998l0.013,0.049c-1.674-2.136-2.207-4.244,0.134-6.292L75.324,59.387z"/>
<path fill="#342117" d="M78.382,66.251c0.04-1.264,0.078-2.53,0.117-3.794c1.269,0.062,2.535,0.122,3.811,0.187c-0.171,0.968-0.299,1.944-0.371,2.924c-0.088,0.903-0.171,1.807-0.242,2.71c-0.209,0.598-0.418,1.199-0.627,1.797c-1.29,0.452-2.422,0.174-3.418-0.735C76.977,68.094,77.172,67.05,78.382,66.251z"/>
<path fill="#4E3326" d="M78.11,43.048c-0.911,0.229-1.828,0.434-2.753,0.607c-0.678-0.314-1.354-0.632-2.034-0.946c-0.725-1.398-0.717-2.811-0.077-4.233c0.663-0.348,1.327-0.693,1.991-1.038C76.193,39.31,77.152,41.177,78.11,43.048z"/>
<path fill="#4B3022" d="M81.572,50.095c-0.931-1.972-1.863-3.946-2.791-5.911C79.716,46.158,80.644,48.126,81.572,50.095z"/>
<path fill="#191614" d="M68.903,34.287c2.136,0.015,4.273,0.034,6.413,0.052c-0.027,1.035-0.054,2.069-0.078,3.104c-0.001-0.003,0.013,0.012,0.013,0.012c-1.88,1.962-3.951,3.073-6.626,1.477c-0.348-0.775-0.694-1.547-1.039-2.319c0.513-0.674,1.025-1.349,1.538-2.023L68.903,34.287z"/>
<path fill="#4E3326" d="M87.272,47.317c-0.825,0.864-1.652,1.728-2.477,2.591C85.622,49.045,86.446,48.182,87.272,47.317z"/>
<path fill="#1B1816" d="M69.124,34.589c-0.038,0.781-0.084,1.563-0.137,2.344c0.833,0.769,1.227,1.623,1.183,2.56c-0.048,0.983-0.179,1.474-0.397,1.474c-1.329,0.998-2.686,1.038-4.07,0.119c-1.076-0.159-2.151-0.314-3.228-0.473c-1.355,1.667-2.826,1.862-4.43,0.345c-0.488-0.205-0.993-0.351-1.516-0.436c-1.292-1.193-1.856-2.667-1.693-4.419c3.029-4.569,7.146-2.576,11.057-1.831C66.97,34.378,68.047,34.482,69.124,34.589z"/>
<path fill="#714D3A" d="M65.893,34.272c-2.957,1.373-5.914,2.746-8.871,4.12c-4.778-2.948-3.094-5.234,0.747-7.297c1.69-0.61,3.366-0.567,5.023,0.128C63.826,32.239,64.859,33.255,65.893,34.272z"/>
<path fill="#9A664B" d="M62.792,31.223c-1.001,0.186-2.008,0.339-3.02,0.461c-0.515-0.278-1.028-0.556-1.543-0.833c-0.22-1.282,0.304-2.154,1.467-2.679c1.037-0.027,2.076-0.049,3.115-0.061C62.809,29.148,62.803,30.185,62.792,31.223z"/>
<path fill="#2B1A11" d="M87.502,72.019c-2.032-0.034-4.066-0.064-6.099-0.098c-0.458-0.55-0.914-1.096-1.372-1.646c0.504-0.506,1.007-1.013,1.511-1.52c0,0,0.151-0.47,0.152-0.473c1.97,0.198,3.94,0.399,5.907,0.604C87.567,69.934,87.534,70.975,87.502,72.019z"/>
<path fill="#341E15" d="M18.957,40.512c-2.268-1.056-4.535-2.109-6.806-3.162c-0.001,0,0.861,0.29,0.861,0.29c1.484-1.889,3.534-1.697,5.582-1.511c1.413,0.528,2.055,1.541,1.926,3.042C19.999,39.618,19.479,40.064,18.957,40.512z"/>
<path fill="#6F432E" d="M19.054,43.823c-0.032-1.102-0.063-2.207-0.096-3.311c-0.001,0,0.004,0.045,0.004,0.045c1.157-1.221,2.501-1.556,4.067-0.863c0.894,1.416,0.901,2.859,0.142,4.327C21.741,45.139,20.368,45.071,19.054,43.823z"/>
<path fill="#6F432E" d="M12.913,46.838c1.008-0.037,2.017-0.021,3.024,0.046c-0.526,0.5-1.053,0.998-1.579,1.496c-0.522-0.504-1.043-1.004-1.565-1.508L12.913,46.838z"/>
<path fill="#462C21" d="M19.054,43.823c1.085-0.024,2.17-0.052,3.254-0.076c0.511,0.497,1.021,0.992,1.534,1.489c0.096,1.511-0.447,2.713-1.724,3.559c-0.716-0.027-1.43-0.056-2.146-0.083c-0.472-0.537-0.944-1.074-1.416-1.611C18.722,46.008,18.888,44.916,19.054,43.823z"/>
<path fill="#6E4632" d="M15.937,46.884c0.877,0.058,1.755,0.128,2.625,0.213c-0.005,0.003,0.798-0.266,0.798-0.266c0.51,0.559,1.019,1.117,1.529,1.676c0.069,1.602-0.563,2.854-1.895,3.747c-1.581,0.202-2.892-0.302-3.932-1.507c-0.709-1.511-0.378-2.793,0.857-3.873L15.937,46.884z"/>
<path fill="#4A3022" d="M18.476,66.019c-1.805-0.046-3.611-0.092-5.417-0.134c0.981-2.204,1.962-4.41,2.942-6.613c2.339-0.214,3.099,1.074,3.015,3.168C18.836,63.632,18.656,64.825,18.476,66.019z"/>
<path fill="#734C38" d="M19.016,62.44c-1.006-1.057-2.011-2.112-3.017-3.168c-0.035-1.004-0.069-2.008-0.103-3.01c0.363-0.619,0.727-1.238,1.089-1.858c0.699-0.158,1.399-0.313,2.098-0.473c1.393,0.564,2.277,1.578,2.649,3.033c-0.969,1.877-1.208,4.114-2.816,5.674L19.016,62.44z"/>
<path fill="#341E16" d="M15.926,49.994c1.068-0.013,2.136-0.024,3.204-0.037c1.203,0.952,1.535,2.173,1.12,3.623c-1.189,0.793-2.493,1.175-3.928,1.074c-1.439-0.129-2.637-0.718-3.554-1.85c-0.014-0.961-0.057-1.923-0.13-2.884c-0.001-0.003,0.174,0.095,0.174,0.095C13.843,48.563,14.879,48.557,15.926,49.994z"/>
<path fill="#734C38" d="M12.769,52.805c1.028,0.149,2.063,0.263,3.101,0.339c0.781,0.497,1.564,0.995,2.347,1.492c-0.76,0.534-1.52,1.065-2.28,1.596l-0.04,0.03C14.855,55.108,13.811,53.955,12.769,52.805z"/>
<path fill="#3B2618" d="M18.744,37.564c-1.912,0.024-3.824,0.049-5.734,0.077c2.064-1.09,4.127-2.179,6.19-3.269c0.001,0-0.197-0.131-0.197-0.131c1.03,0.821,1.333,1.59,0.914,2.301C19.517,37.222,19.128,37.564,18.744,37.564z"/>
<path fill="#865A41" d="M25.054,28.399c1.169-1.107,2.338-2.215,3.507-3.323c1.214-1.886,3.165-1.575,4.98-1.669c1.243-0.266,2.458-0.165,3.642,0.305c0,0,0.508,0.998,0.508,0.995c-1.102,2.207-2.204,4.416-3.305,6.622c-0.33,1.819-1.364,3.043-3.104,3.668c-2.974,0.183-4.626-1.605-5.902-3.958C25.191,30.17,25.083,29.291,25.054,28.399z"/>
<path fill="#332D2A" d="M25.38,31.04c2,0.088,4.002,0.174,6.003,0.262c1.206,1.276,1.575,2.759,1.108,4.453c-1.79,2.261-3.891,2.609-6.307,1.022c-0.312-0.757-0.623-1.511-0.932-2.268C25.295,33.353,25.338,32.196,25.38,31.04z"/>
<path fill="#614031" d="M18.744,37.564c0.087-1.108,0.174-2.215,0.26-3.323c1.028,0.146,2.055,0.305,3.081,0.476c1.145,0.836,1.941,1.926,2.39,3.269c-0.305,1.458-1.186,2.356-2.64,2.686c-0.957-0.027-1.914-0.067-2.871-0.113C18.952,39.557,18.879,38.559,18.744,37.564z"/>
<path fill="#543827" d="M22.619,38.08c-0.177-1.123-0.355-2.246-0.533-3.366c1.055-0.067,2.11-0.138,3.167-0.208c0,0.003-0.043-0.11-0.043-0.11c1.085,0.918,1.425,2.035,0.906,3.384C25.021,38.699,23.855,38.797,22.619,38.08z"/>
<path fill="#462C21" d="M15.926,49.994c-1.044,0.003-2.089,0.003-3.122,0.012c0.003-1.037-0.004-2.084-0.011-3.131c1.041-0.003,2.083,0,3.125,0C15.917,47.916,15.92,48.956,15.926,49.994z"/>
<path fill="#734C38" d="M41.228,44.446c0.938,0.806,1.878,1.614,2.818,2.423c-0.026,1.028-0.038,2.06-0.038,3.091c-1.12,1.022-2.418,1.438-3.923,1.142c-1.208-0.925-1.825-2.146-1.853-3.668C38.895,46.103,39.911,45.123,41.228,44.446z"/>
<path fill="#382A23" d="M43.999,53.296c-0.06,2.038-0.119,4.074-0.178,6.112c-1.512,1.199-3.125,1.358-4.843,0.477c-2.124-2.313-2.168-4.611,0.041-6.895C40.73,52.246,42.39,52.35,43.999,53.296z"/>
<path fill="#6D4330" d="M44.034,81.323c-1.05-0.033-2.101-0.064-3.152-0.098c-0.001,0,0.144,0.174,0.144,0.174c-1.009-1.12-1.744-2.393-2.208-3.83c-0.308-1.568,0.168-2.874,1.324-3.955c1.583-0.32,2.869,0.184,3.902,1.395C44.041,77.115,44.037,79.218,44.034,81.323z"/>
<path fill="#2F1E14" d="M40.815,59.256c1.004,0.055,2.01,0.107,3.011,0.152c0.182,1.025,0.256,2.061,0.22,3.101c-0.87,1.133-2.003,1.676-3.441,1.548c-1.147-0.9-1.568-2.078-1.361-3.504C39.767,60.119,40.29,59.69,40.815,59.256z"/>
<path fill="#734C38" d="M40.985,62.787c1.015-0.138,2.036-0.229,3.06-0.278c-0.011,1.017-0.021,2.033-0.034,3.049c-0.92,1.133-2.029,1.364-3.329,0.696C39.943,65.023,40.002,63.864,40.985,62.787z"/>
<path fill="#6C412F" d="M40.79,65.546c1.074,0.006,2.148,0.012,3.223,0.012c0.005,1.084,0.011,2.167,0.016,3.247c-0.872,1.123-2.016,1.627-3.435,1.514c-1.12-0.896-1.571-2.057-1.358-3.476C39.753,66.409,40.272,65.979,40.79,65.546z"/>
<path fill="#6C412F" d="M43.999,53.296c-1.046-0.067-2.093-0.134-3.14-0.201c-0.407-0.327-0.813-0.653-1.222-0.979c0.061-0.521,0.124-1.038,0.185-1.557c0.499-0.152,0.998-0.306,1.497-0.458c0.897-0.043,1.796-0.089,2.691-0.141C44.005,51.071,44.003,52.182,43.999,53.296z"/>
<path fill="#462C21" d="M41.091,69.043c0.978-0.098,1.958-0.177,2.938-0.238c-0.035,1.057-0.07,2.112-0.105,3.168c-0.453,0.428-0.908,0.857-1.362,1.288c-1.323,0.174-2.397-0.244-3.188-1.337C39.251,70.548,39.858,69.607,41.091,69.043z"/>
<path fill="#2F1E14" d="M41.298,72.375c0.873-0.158,1.75-0.296,2.627-0.405c0.136,1.01,0.176,2.023,0.118,3.039c-1.041,0.01-2.078,0.04-3.116,0.098c-0.664-0.708-0.83-1.349-0.499-1.922C40.74,72.645,41.028,72.375,41.298,72.375z"/>
<path fill="#492E20" d="M65.995,78.128c-2.134,1.044-4.267,2.088-6.399,3.131c-1.038-0.674-1.553-1.617-1.462-2.865c0.044-1.205,0.488-2.228,1.395-3.036c0.001-1.209,0.004-2.417,0.006-3.626c0.511-0.519,1.022-1.037,1.532-1.557c0.625,0.373,1.251,0.745,1.878,1.117l-0.052,0.9c0.975,0.8,1.896,1.657,2.768,2.563C65.772,75.879,65.884,77.005,65.995,78.128z"/>
<path fill="#23150F" d="M57.316,62.82c0.679,0.067,1.361,0.092,2.043,0.073c1.459,0.274,2.373,1.132,2.739,2.569c-0.42,1.325-1.065,2.527-1.969,3.586c-1.301,0.803-2.494,0.626-3.595-0.399C56.795,66.705,57.055,64.762,57.316,62.82z"/>
<path fill="#4E3326" d="M56.534,68.649c1.017,0.073,2.032,0.149,3.049,0.223c0.557,0.455,1.112,0.909,1.669,1.367c-0.494,0.521-0.988,1.044-1.482,1.565c0,0-0.232-0.067-0.233-0.07C58.535,70.703,57.535,69.678,56.534,68.649z"/>
<path fill="#271D18" d="M59.528,75.357c-0.057,0.939-0.113,1.883-0.171,2.825c-0.444,0.718-0.889,1.435-1.332,2.155c-0.434-0.727-0.867-1.45-1.301-2.176C57.659,77.228,58.593,76.291,59.528,75.357z"/>
<path fill="#24150F" d="M56.725,78.162c0.883-0.004,1.763,0.003,2.639,0.018c0.113,1.025,0.193,2.051,0.233,3.079c-0.001,0,0.139-0.131,0.139-0.131c-1.016,1.361-2.081,1.4-3.193,0.116C56.571,80.213,56.632,79.188,56.725,78.162z"/>
<path fill="#4E3326" d="M56.542,81.244c1.065-0.04,2.129-0.076,3.193-0.116c-0.101,1.059-0.203,2.118-0.307,3.177C58.465,83.282,57.503,82.264,56.542,81.244z"/>
<path fill="#825742" d="M50.263,40.481c-2.021,0.024-4.039,0.049-6.059,0.07c-2.209-2.194-4.958-1.153-7.52-1.248c-1.163-0.766-1.846-1.822-1.978-3.217c0.457-1.306,1.315-2.261,2.524-2.911c1.286-0.375,2.51-0.891,3.674-1.554l-0.043-0.442c1.95-1.742,4.337-1.471,6.67-1.446c4.171,0.418,4.383,3.769,5.031,6.796C52.184,38.071,51.399,39.38,50.263,40.481z"/>
<path fill="#503426" d="M41.228,44.446c-0.27,0.97-0.583,1.926-0.94,2.866c-1.552,1.709-3.162,3.317-5.727,3.229c-2.229-0.57-4.277-1.596-6.349-2.558c-1.222-0.952-2.089-2.154-2.545-3.637c-0.168-1.523,0.027-2.997,0.639-4.407c1.009-1.157,2.254-1.938,3.732-2.347c2.284-0.513,4.438-0.424,6.226,1.354c0.488,0.565,0.977,1.132,1.465,1.7C38.895,41.913,40.061,43.179,41.228,44.446z"/>
<path fill="#935F44" d="M59.773,31.684c-0.917,2.237-1.834,4.474-2.751,6.708c-0.184,0.705-0.349,1.416-0.492,2.13c-0.994,0.045-1.981-0.024-2.96-0.217c-1.161-1.267-1.992-2.722-2.495-4.367c-0.665-2.551-0.844-4.993,1.572-6.836c2.713-0.531,4.962,0.519,7.062,2.072L59.773,31.684z"/>
<path fill="#191614" d="M58.045,40.958c1.479-0.116,2.957-0.232,4.433-0.345c-1.973,1.105-3.942,2.209-5.914,3.314C57.058,42.939,57.551,41.946,58.045,40.958z"/>
<path fill="#312C29" d="M37.998,37.097c2.067,1.154,4.137,2.304,6.204,3.455c-2.156,0.03-4.313,0.064-6.473,0.095l0.044,0.037c-0.479-0.632-0.958-1.26-1.437-1.889C36.89,38.227,37.444,37.662,37.998,37.097z"/>
<path fill="#714D3A" d="M53.429,37.466c0.048,0.949,0.094,1.895,0.14,2.841c-1.101,0.058-2.204,0.116-3.306,0.177c0.073-0.842,0.148-1.681,0.222-2.521C51.225,36.362,52.205,36.197,53.429,37.466z"/>
<path fill="#2A1B13" d="M62.94,50.055c1.021-0.003,2.041-0.021,3.062-0.055c0.685,0.058,1.372,0.116,2.059,0.174c1.054,0.958,1.644,2.146,1.767,3.567c0.326,1.346,0.557,2.71,0.707,4.09c-0.153,0.681-0.304,1.357-0.458,2.035c-0.531,0.452-1.061,0.903-1.593,1.354c-1.171,0.781-2.432,1.36-3.786,1.739c-2.224-0.431-3.532-2.133-5.023-3.583c0.003-2.108,0.005-4.218,0.008-6.326c0.117-0.534,0.235-1.068,0.353-1.603C61.123,51.236,62.098,50.784,62.94,50.055z"/>
<path fill="#4E3326" d="M59.673,59.378c1.999,0.019,3.996,0.037,5.994,0.058c1.225,0.645,1.899,1.673,2.1,3.031c-0.103,0.646-0.205,1.294-0.307,1.94c-0.442,1.3-1.302,2.197-2.579,2.698c-1.921,0.134-3.934,0.564-5.141-1.594c-0.116-0.879-0.239-1.754-0.377-2.621C59.464,61.722,59.569,60.55,59.673,59.378z"/>
<path fill="#23150F" d="M56.686,53.085c-0.06-2.105-0.121-4.214-0.182-6.32c1.191,1.078,2.385,2.158,3.576,3.235c0.862,1.232,0.696,2.307-0.499,3.22l0.098-0.165C58.683,53.07,57.685,53.082,56.686,53.085z"/>
<path fill="#24150F" d="M66.001,50c0.067-1.959,0.133-3.918,0.2-5.878c1.059-1.452,2.442-1.898,4.153-1.336c1.155,1.227,1.696,2.679,1.623,4.364c-0.052,1.69-0.702,3.104-1.951,4.245c-1.736,0.409-3.139-0.101-4.207-1.529L66.001,50z"/>
<path fill="#39261C" d="M68.538,44.192c-0.781-0.015-1.563-0.04-2.341-0.073c-0.172-1.01-0.338-2.023-0.494-3.036c0.986-0.29,1.979-0.565,2.978-0.815c0.552,0.348,1.104,0.699,1.657,1.046C70.525,42.768,69.886,43.701,68.538,44.192z"/>
<path fill="#4B2D1F" d="M59.581,53.22c0.164-1.071,0.327-2.146,0.495-3.22c0.956,0.016,1.908,0.033,2.862,0.055C61.821,51.111,60.701,52.164,59.581,53.22z"/>
<path fill="#935F44" d="M53.429,37.466c-0.985,0.146-1.967,0.308-2.944,0.492c-1.158-2.268-2.316-4.541-3.475-6.815c-0.687-0.543-1.372-1.089-2.059-1.632c0.775-0.409,1.55-0.815,2.327-1.224c1.159-0.574,2.319-1.15,3.479-1.724c2.557,0.613,4.464,1.596,2.668,4.688C53.426,33.322,53.428,35.395,53.429,37.466z"/>
<path fill="#935F44" d="M53.426,31.25c-0.89-1.563-1.78-3.125-2.668-4.688c1.035-0.452,2.07-0.903,3.106-1.355c1.943,0.986,3.888,1.975,5.832,2.963c0.001,1.001,0.006,2.005,0.012,3.006C57.614,31.198,55.52,31.226,53.426,31.25z"/>
<path fill="#714D3A" d="M47.278,28.287c-0.085,0.956-0.172,1.908-0.266,2.86c-2.052,0.009-4.102,0.021-6.151,0.033C43.002,30.215,45.139,29.251,47.278,28.287z"/>
<path fill="#875C46" d="M31.727,34.247c-0.116-0.983-0.229-1.962-0.34-2.945c1,0.006,2.002,0.016,3.001,0.027c1.163,0.244,2.325,0.488,3.488,0.736l0.259,1.346l-0.633,1.333c-1.443,1.401-2.96,2.533-5.092,1.346C32.181,35.477,31.954,34.86,31.727,34.247z"/>
<path fill="#935F44" d="M38.135,33.411l-0.259-1.346c1-0.223,2.009-0.37,3.029-0.443C39.982,32.217,39.059,32.815,38.135,33.411z"/>
<path fill="#9A664B" d="M37.183,23.712c-0.667,0.306-1.344,0.583-2.033,0.836c-0.882-0.314-1.762-0.628-2.644-0.943c0.752-0.556,1.504-1.114,2.257-1.669l-0.095-0.061c0.525-0.519,1.048-1.041,1.573-1.563c0.523,0.522,1.045,1.047,1.568,1.568C37.594,22.488,37.383,23.099,37.183,23.712z"/>
<path fill="#9A664B" d="M37.781,18.756c0.009,1.041,0.02,2.084,0.029,3.125l-0.012-0.003c-1.045-0.692-1.392-1.389-1.046-2.084c0.346-0.696,0.692-1.044,1.043-1.044L37.781,18.756z"/>
<path fill="#341E16" d="M25.355,59.289c-1.051,0.11-2.103,0.221-3.154,0.333c-1.244-1.337-1.753-2.908-1.528-4.721c0.925-2.802,2.635-4.318,5.762-3.525c1.497,1.093,2.293,2.563,2.393,4.413c-0.364,0.797-0.729,1.59-1.095,2.387C26.94,58.548,26.147,58.917,25.355,59.289z"/>
<path fill="#372419" d="M22.182,56.326c0.006,1.096,0.012,2.191,0.019,3.29c-1.094,1.01-2.188,2.014-3.284,3.021c0.012-2.148,0.022-4.297,0.035-6.445C20.087,54.856,21.165,54.898,22.182,56.326z"/>
<path fill="#352118" d="M25.387,65.68c-0.011-2.13-0.021-4.26-0.032-6.391l-0.167,0.168c1.311-1.145,2.826-1.577,4.546-1.3c1.48,0.888,2.431,2.17,2.85,3.846c0.167,1.702-0.201,3.277-1.103,4.729c-1.355,1.185-2.885,1.496-4.593,0.938C26.386,67.008,25.887,66.342,25.387,65.68z"/>
<path fill="#341E16" d="M24.889,71.356c-0.94,0.247-1.886,0.476-2.836,0.684c1.11-2.118,2.222-4.239,3.334-6.36l-0.148-0.052C27.385,67.676,27.515,69.602,24.889,71.356z"/>
<path fill="#905840" d="M34.763,21.936c0.105,0.876,0.232,1.749,0.384,2.615c-2.194,0.174-4.393,0.348-6.589,0.525c-0.036-1.059-0.075-2.118-0.113-3.174C30.552,21.915,32.657,21.924,34.763,21.936z"/>
<path fill="#815739" d="M37.795,18.75c0,1.041-0.001,2.084,0,3.128c-1.041,0-2.083-0.003-3.126-0.003c0-1.041,0-2.084,0-3.128C35.711,18.747,36.753,18.747,37.795,18.75z"/>
<path fill="#351F15" d="M37.711,78.244c-1.034-0.033-2.067-0.107-3.096-0.22c-0.362-0.599-0.724-1.196-1.085-1.798c0.389-1.452,1.34-2.322,2.782-2.688c1.415,0.485,2.289,1.435,2.538,2.927C38.471,77.06,38.091,77.652,37.711,78.244z"/>
<path fill="#3B2618" d="M34.339,81.293c-0.749-0.043-1.499-0.095-2.242-0.156c0.006,0-1.073,0.205-1.073,0.205c-0.631-1.353-0.56-2.668,0.217-3.94c1.407-0.738,2.576-0.424,3.543,0.794c0,0-0.167-0.168-0.169-0.168C34.524,79.113,34.431,80.203,34.339,81.293z"/>
<path fill="#341E16" d="M40.497,78.293c0.176,1.034,0.351,2.066,0.527,3.104c-1.104-1.053-2.207-2.105-3.312-3.155c-0.001,0.003,0.093-0.104,0.093-0.104c0.487-0.652,0.975-1.306,1.462-1.959C39.678,76.883,40.088,77.588,40.497,78.293z"/>
<path fill="#3B2618" d="M25.683,78.323c0.951-1.08,1.903-2.16,2.854-3.241c0.445,0.303,0.891,0.607,1.338,0.913c-0.063,0.537-0.124,1.074-0.185,1.611c-0.522,0.137-1.045,0.271-1.567,0.409C27.308,78.113,26.494,78.217,25.683,78.323z"/>
<path fill="#734C38" d="M31.565,78.134c-0.177,1.068-0.354,2.137-0.536,3.208c-0.87-0.046-1.735-0.073-2.602-0.089c-0.101-1.077-0.202-2.157-0.304-3.237c-0.001,0,0.784,0.381,0.784,0.381c0.396-0.534,0.789-1.068,1.183-1.602C30.582,77.24,31.073,77.686,31.565,78.134z"/>
<path fill="#2D1E14" d="M59.74,65.512c2.066,0.024,4.132,0.049,6.198,0.076c1.021,0.663,1.372,1.344,1.056,2.042c-0.318,0.705-0.646,1.056-0.979,1.056c-1.08,0.053-2.16,0.102-3.239,0.15c-1.106,1.391-2.2,1.312-3.285-0.025c0,0,0.097,0.056,0.095,0.059C59.635,67.752,59.689,66.632,59.74,65.512z"/>
<path fill="#4B2D1F" d="M68.961,68.612c1.073,2.155,2.146,4.313,3.218,6.467l0.064-0.091c-1.091,1.455-2.135,1.419-3.128-0.104C69.064,72.794,69.013,70.703,68.961,68.612z"/>
<path fill="#4B3022" d="M66.016,68.686c-0.039-1.031-0.065-2.063-0.079-3.098c0.002,0-0.052,0.019-0.052,0.019c1.077-2.041,2.086-2.008,3.029,0.101c0.028,1.035,0.079,2.069,0.154,3.107C68.05,68.793,67.032,68.75,66.016,68.686z"/>
<path fill="#20150E" d="M59.491,68.811c1.096,0.007,2.189,0.013,3.285,0.021c0.046,0.824,0.101,1.648,0.167,2.463c-1.06,0.168-2.118,0.339-3.176,0.51C59.683,70.804,59.591,69.806,59.491,68.811z"/>
<path fill="#4E3326" d="M65.66,74.756c-0.924-0.857-1.848-1.712-2.77-2.566C63.816,73.047,64.737,73.901,65.66,74.756z"/>
<path fill="#2C1C13" d="M69.115,74.884c1.042,0.037,2.084,0.07,3.128,0.104c-0.049,1.056-0.099,2.111-0.151,3.167c-1.012-0.019-2.02-0.03-3.027-0.03C69.082,77.045,69.099,75.965,69.115,74.884z"/>
<path fill="#422C1D" d="M78.771,75.128c-0.104-1.123-0.209-2.246-0.313-3.369c0.533-0.476,1.067-0.952,1.601-1.431c0.494,0.519,0.988,1.037,1.481,1.556c0,0-0.132,0.037-0.135,0.037c0.086,0.998,0.168,1.996,0.249,2.99C80.693,74.981,79.733,75.055,78.771,75.128z"/>
<path fill="#513623" d="M24.889,71.356c0.118-1.911,0.233-3.818,0.349-5.729c0.876-0.052,1.753-0.052,2.631-0.009c1.155-1.02,2.446-1.822,3.873-2.411c1.583,0.277,2.771,1.114,3.568,2.509c0.2,1.56-0.101,3.015-0.9,4.37c-1.688,1.87-3.801,2.365-6.206,1.916C27.099,71.786,25.994,71.573,24.889,71.356z"/>
<path fill="#351F15" d="M28.203,72.003c1.123-1.089,2.246-2.179,3.371-3.269c0.646,0.178,1.295,0.354,1.944,0.531c0.837,1.123,1.085,2.368,0.746,3.727c-0.671,1.166-1.508,2.194-2.538,3.063c-1.397,0.409-2.521,0.021-3.366-1.165c0,0,0.172,0.188,0.174,0.188C28.4,74.057,28.289,73.031,28.203,72.003z"/>
<path fill="#4E3326" d="M75.396,59.296c-0.044,2.1-0.088,4.196-0.134,6.292c-1.041-1.013-2.08-2.022-3.121-3.036c-0.991-0.729-1.314-1.449-0.972-2.16c0.341-0.705,0.678-1.06,1.017-1.06C73.257,59.32,74.326,59.308,75.396,59.296z"/>
<path fill="#4B2D1F" d="M78.382,66.251c-0.014,0.833-0.002,1.669,0.04,2.502c1.04,0.699,1.385,1.392,1.036,2.088c-0.347,0.689-0.694,1.037-1.046,1.037c0,0,0.043-0.116,0.045-0.119c-1.07-2.072-2.139-4.144-3.208-6.216C76.293,65.777,77.338,66.013,78.382,66.251z"/>
<path fill="#4B2D1F" d="M72.186,59.332c-0.014,1.074-0.029,2.146-0.045,3.22c-1.032-0.033-2.065-0.076-3.099-0.122c-0.529-0.464-1.059-0.925-1.589-1.389c0.397-0.58,0.794-1.159,1.19-1.739l0.412,0.079c0.518-0.741,1.034-1.479,1.552-2.219c0.523,0.732,1.049,1.469,1.573,2.204L72.186,59.332z"/>
<path fill="#3F271C" d="M68.914,65.707c-1.009-0.045-2.02-0.079-3.027-0.098c0.076-1.116,0.154-2.233,0.231-3.351c1.104-1.184,2.104-1.159,2.981,0.26c0,0-0.058-0.086-0.058-0.089C68.999,63.523,68.956,64.615,68.914,65.707z"/>
<path fill="#4C3124" d="M75.335,53.192c-1.044-0.04-2.088-0.079-3.132-0.119c-0.572-0.257-1.146-0.516-1.721-0.772c-0.135-1.254-0.098-2.505,0.134-3.75c0.118-1.294,0.642-2.393,1.569-3.299c1.326,0.034,2.353,0.607,3.08,1.718C75.289,49.045,75.312,51.117,75.335,53.192z"/>
<path fill="#24150F" d="M75.268,46.97c-1.065,0.012-2.129,0.024-3.193,0.037c-0.774-0.839-1.114-1.733-1.02-2.689c0.098-0.982,0.252-1.474,0.469-1.477c1.443-0.849,2.833-0.815,4.167,0.235c0,0-0.338,0.586-0.334,0.583C75.327,44.76,75.297,45.865,75.268,46.97z"/>
<path fill="#20150E" d="M72.203,53.073c-0.012,1.062-0.024,2.121-0.036,3.18c-1.048,1.392-2.089,1.459-3.124-0.015l0.092,0.177c-0.873-0.745-1.257-1.565-1.155-2.472c0.107-0.943,0.281-1.413,0.521-1.413c1.408-0.922,2.674-0.757,3.797,0.5L72.203,53.073z"/>
<path fill="#422C1D" d="M69.043,56.238c1.043,0.009,2.083,0.015,3.125,0.015c0,1.041,0,2.081,0.007,3.116c-1.039,0-2.086,0.003-3.125,0.009C69.053,58.334,69.048,57.287,69.043,56.238z"/>
<path fill="#24150F" d="M78.412,71.878c0.002-1.044,0.005-2.084,0.008-3.125c1.042-0.006,2.083-0.006,3.123,0c0,1.044,0,2.081-0.001,3.125C80.497,71.881,79.454,71.881,78.412,71.878z"/>
<path fill="#3C271C" d="M75.691,43.076c-1.146,0.244-2.292,0.488-3.438,0.732c-1.398-0.51-2.393-1.45-2.979-2.82c0,0-0.589-0.717-0.59-0.72c0.099-1.108,0.203-2.216,0.304-3.33c2.089,0.168,4.176,0.342,6.264,0.516C75.398,39.328,75.544,41.202,75.691,43.076z"/>
<path fill="#351F15" d="M22.619,38.08c0.92-0.162,1.835-0.345,2.748-0.543c0.586,0.363,1.17,0.726,1.755,1.086c-0.073,1.376-0.23,2.744-0.461,4.102c-1.077,2.447-2.557,2.802-4.48,0.867l0.126,0.156c-0.129-1.028-0.287-2.054-0.47-3.076C22.13,39.816,22.391,38.953,22.619,38.08z"/>
<path fill="#6E4430" d="M22.181,43.591c1.063-0.97,2.128-1.938,3.194-2.905c0.97-1.462,1.96-1.401,2.968-0.04c0.078,1.083,0.156,2.164,0.233,3.247c0.822,0.949,1.495,1.996,1.996,3.149c0.309,2.008-0.587,3.638-1.632,5.222c-0.571,0.263-1.142,0.524-1.714,0.787c-0.628-0.006-1.257-0.009-1.886-0.016c-1.051,1.096-2.104,2.194-3.157,3.29c-1.076-0.043-2.153-0.088-3.229-0.134c-0.001,0,0.203,0.198,0.203,0.198c-0.912-0.516-1.362-1.175-1.352-1.972c0.014-0.863,0.134-1.297,0.364-1.297c0.321-1.056,0.64-2.108,0.96-3.165c0.001,0-0.167,0.187-0.167,0.187c0.841-1.05,1.721-2.063,2.651-3.037C21.802,45.935,21.991,44.763,22.181,43.591z"/>
<path fill="#352118" d="M21.613,47.107c-0.884,1.01-1.767,2.02-2.651,3.034c0.131-1.102,0.261-2.203,0.396-3.305C20.11,46.924,20.861,47.016,21.613,47.107z"/>
<path fill="#341E16" d="M18.169,53.122c0.328,1.089,0.658,2.179,0.986,3.269c-1.073-0.052-2.146-0.104-3.218-0.159c-0.018-1.028-0.04-2.06-0.067-3.091C16.636,53.134,17.403,53.128,18.169,53.122z"/>
<path fill="#25211E" d="M25.367,37.537c-0.05-1.047-0.101-2.093-0.156-3.14c2.17-0.049,4.34-0.098,6.514-0.149c0.001,0-0.16,0.094-0.16,0.094c0.498,0.641,0.996,1.285,1.494,1.926c-0.366,0.726-0.731,1.453-1.096,2.179c-2.385,0.646-4.747,1.144-6.703-1.022L25.367,37.537z"/>
<path fill="#341E16" d="M34.837,46.963c1.82,0.113,3.641,0.229,5.457,0.345c0.307,0.942,0.648,1.873,1.025,2.792l-1.285-0.329c-0.801,1.227-1.846,2.176-3.177,2.805c-1.511-0.092-2.701-0.758-3.572-1.993c-0.021-0.724-0.042-1.446-0.061-2.17C33.761,47.931,34.298,47.445,34.837,46.963z"/>
<path fill="#6E4632" d="M40.859,53.095c-0.014,2.054-0.027,4.11-0.042,6.164c-0.002-0.003,0.02,0,0.02,0c-1.211,1.41-2.728,1.923-4.547,1.541c-1.512-1.013-2.319-2.429-2.42-4.245c0.31-1.761,1.224-3.121,2.739-4.076c1.692-0.992,3.167-0.732,4.425,0.769L40.859,53.095z"/>
<path fill="#432A1E" d="M40.497,78.293c-0.897-0.055-1.794-0.107-2.691-0.156c-0.943-1.067-1.886-2.139-2.828-3.21c-0.444-0.524-0.886-1.053-1.331-1.581c0.417-2.121,1.208-3.906,3.722-4.147c1.277,0.568,2.379,1.377,3.333,2.393c0,0,0.589,0.772,0.592,0.778c-0.131,0.913-0.255,1.825-0.366,2.737C40.784,76.169,40.641,77.231,40.497,78.293z"/>
<path fill="#3D251B" d="M37.795,58.898c1.013,0.138,2.028,0.257,3.042,0.363c0.049,1.172,0.098,2.348,0.146,3.522c-0.014,0.928-0.078,1.846-0.192,2.765c-0.002-0.003,0.042-0.086,0.042-0.086c-1.335,1.657-2.858,2.985-5.168,2.912c-1.256-0.626-2.313-1.492-3.14-2.631l-1.203-0.165c-0.419-0.54-0.839-1.083-1.257-1.623c0.162-1.37,0.461-2.707,0.923-4.011c0.609-1.303,1.578-2.188,2.972-2.591C35.323,57.666,36.604,58.173,37.795,58.898z"/>
<path fill="#704834" d="M35.117,65.717c1.906-0.083,3.813-0.165,5.719-0.25c0.083,1.184,0.165,2.374,0.252,3.57c-0.101,0.86-0.228,1.715-0.381,2.557c-0.005-0.003-1.463,0.053-1.463,0.053l-1.459-0.062c-1.596-0.778-3.557-1.028-4.333-2.993C33.39,67.276,33.915,66.3,35.117,65.717z"/>
<path fill="#341E16" d="M41.033,53.247c-1.068-0.092-2.138-0.183-3.207-0.274c-0.899-0.645-1.206-1.301-0.92-1.963c0.286-0.668,0.575-1.004,0.872-1.004c0.757-0.063,1.512-0.141,2.261-0.231C40.366,50.931,40.7,52.091,41.033,53.247z"/>
<path fill="#272320" d="M31.545,37.481c0.008-1.046,0.014-2.093,0.02-3.14c1.98,0.134,3.959,0.266,5.938,0.403c0.174,0.784,0.339,1.569,0.493,2.356c-0.073,1.19-0.146,2.387-0.223,3.58c-2.049-0.024-4.098-0.052-6.146-0.079c-0.751-0.5-1.501-1.001-2.252-1.501C30.099,38.559,30.822,38.022,31.545,37.481z"/>
<path fill="#543827" d="M31.545,37.481c0.015,1.041,0.04,2.082,0.078,3.119c-1.088,0.015-2.181,0.03-3.278,0.046c-0.003,0-1.491,0-1.491,0s-1.488,0.033-1.485,0.037c-0.034-1.083-0.07-2.17-0.108-3.256C27.355,37.442,29.45,37.463,31.545,37.481z"/>
<path fill="#351F15" d="M28.49,46.845c-0.008-0.986,0.02-1.972,0.084-2.954c1.021-0.077,2.04-0.116,3.063-0.119c0.901,0.946,1.248,2.066,1.041,3.357c-0.768,1.111-1.813,1.532-3.134,1.263C29.192,47.876,28.841,47.36,28.49,46.845z"/>
<path fill="#734C38" d="M31.142,46.753c0.198-0.986,0.363-1.98,0.495-2.981c1.066,1.065,2.131,2.127,3.198,3.192c0.001,0-0.466-0.241-0.466-0.241C33.306,48.02,32.229,47.965,31.142,46.753z"/>
<path fill="#4E3326" d="M69.406,53.201c-0.09,1.071-0.18,2.143-0.271,3.214c-1.104-2.183-2.209-4.364-3.314-6.55c1.055,0.113,2.11,0.227,3.167,0.339c1.054,0.531,1.466,1.151,1.24,1.862C69.988,52.823,69.715,53.201,69.406,53.201z"/>
<path fill="#23150F" d="M69.1,62.519c-0.994-0.083-1.991-0.168-2.982-0.257c-0.146-0.945-0.297-1.886-0.447-2.829c0.993-0.033,1.988-0.076,2.979-0.131C68.796,60.373,68.947,61.447,69.1,62.519z"/>
<path fill="#4B2E20" d="M69.274,40.988c0.992,0.94,1.985,1.88,2.979,2.82c-0.058,1.068-0.117,2.133-0.177,3.198c-0.001,0,0.187-0.192,0.187-0.192c-0.534,0.75-1.068,1.501-1.603,2.252c-0.526-0.757-1.053-1.514-1.579-2.271c-0.174-0.87-0.353-1.74-0.539-2.606C68.782,43.125,69.028,42.056,69.274,40.988z"/>
<path fill="#281A11" d="M69.08,46.796c1.061,0.006,2.119,0.012,3.18,0.018c0.013,2.072,0.023,4.144,0.035,6.216c-0.964,0.058-1.93,0.113-2.893,0.168c-0.164-0.995-0.303-1.996-0.414-2.997C69.02,49.069,69.05,47.931,69.08,46.796z"/>
<path fill="#623F2E" d="M25.49,56.299c-0.052-1.086-0.102-2.173-0.152-3.263c0.001,0-0.119,0.132-0.119,0.132c1.015-1.261,2.283-1.694,3.842-1.172c0.957,1.275,1.112,2.643,0.467,4.102C28.228,57.047,26.88,57.117,25.49,56.299z"/>
<path fill="#6D4631" d="M25.49,56.299c0.958-0.033,1.918-0.067,2.876-0.098c0,0,1.336,0.8,1.338,0.8c0,0,0.034,1.556,0.035,1.556l-1.305,0.855c-1.082,0.015-2.164,0.03-3.246,0.045C25.289,58.404,25.39,57.352,25.49,56.299z"/>
<path fill="#351F15" d="M28.441,62.57c-0.003-1.053-0.005-2.105-0.006-3.158l-0.063-0.067c1.05-1.114,2.225-1.27,3.526-0.464c0.63,1.336,0.481,2.582-0.45,3.729l0.177-0.25C30.66,63.876,29.598,63.946,28.441,62.57z"/>
<path fill="#734C38" d="M28.441,62.57c1.061-0.07,2.123-0.141,3.185-0.211c-0.099,1.074-0.198,2.146-0.299,3.22c-1.152,0.013-2.299,0.027-3.453,0.04C28.13,64.615,28.321,63.599,28.441,62.57z"/>
<path fill="#6F432E" d="M34.784,78.195c-1.074-0.021-2.146-0.04-3.219-0.062l-0.098,0.052c-0.983-0.732-1.313-1.468-0.987-2.203c0.323-0.735,0.648-1.104,0.978-1.104l-0.05,0.021c0.52-0.635,1.039-1.267,1.558-1.901c0.38,0.727,0.758,1.453,1.137,2.179c0,0,0.868-0.247,0.871-0.247C34.914,76.017,34.849,77.106,34.784,78.195z"/>
<path fill="#60402A" d="M31.458,74.878c0.003,1.102,0.008,2.203,0.009,3.305c-0.858,0.052-1.712,0.122-2.562,0.211c-0.179-1.166-0.362-2.335-0.545-3.503C29.392,74.908,30.425,74.902,31.458,74.878z"/>
<path fill="#2F1E14" d="M35.117,65.717c-0.225,0.982-0.424,1.971-0.6,2.963c-1.036,1.459-2.053,1.446-3.047-0.039l0.104,0.094c0.314-0.998,0.628-1.992,0.947-2.99C33.39,65.756,34.253,65.747,35.117,65.717z"/>
<path fill="#60402A" d="M31.47,68.641c1.016,0.027,2.031,0.039,3.047,0.042c1.089,0.968,2.179,1.938,3.267,2.905c-1.224,1.193-2.449,2.39-3.677,3.589c-0.902-0.088-1.799-0.183-2.698-0.277C31.429,72.812,31.449,70.725,31.47,68.641z"/>
<path fill="#3B2618" d="M25.846,50.135c0.882-1.096,1.764-2.191,2.645-3.29l-0.127-0.092c1.249,0.9,1.65,2.091,1.207,3.564C28.284,51.15,27.041,51.135,25.846,50.135z"/>
<path fill="#2F1E14" d="M25.846,50.135c0.664-0.013,1.328-0.019,1.991-0.016c0.91,0.467,1.261,1.007,1.059,1.617c-0.215,0.647-0.455,0.971-0.723,0.971c-0.979,0.177-1.964,0.329-2.953,0.461C25.4,52.151,25.609,51.139,25.846,50.135z"/>
<path fill="#6D4631" d="M28.173,52.707c-0.041-0.87-0.151-1.733-0.333-2.588c0.172-1.123,0.348-2.243,0.523-3.366c0.928-0.012,1.855-0.009,2.78,0.003c1.074-0.012,2.151-0.021,3.228-0.03c0.067,1.096,0.134,2.194,0.201,3.293c0.019,0.589,0.037,1.178,0.055,1.767c0.018,1.185-0.09,2.356-0.345,3.516c-0.574,1.087-1.443,1.822-2.607,2.21c-1.221-0.046-2.292-0.479-3.238-1.242l-0.068-0.067C28.303,55.035,28.237,53.873,28.173,52.707z"/>
<path fill="#60402A" d="M37.777,50.006c0.01,0.992,0.026,1.984,0.049,2.97c-0.005,1.114-0.009,2.23-0.014,3.351c-1.102,0.814-2.302,1.053-3.618,0.623c-0.807-1.074-1.155-2.286-1.045-3.626c0.157-1.321,0.678-2.481,1.558-3.479c0,0-0.129,0.174-0.131,0.174C35.641,50.016,36.709,50.009,37.777,50.006z"/>
<path fill="#6E4632" d="M34.546,56.161c1.088,0.052,2.176,0.107,3.265,0.162c-0.007,0.863-0.014,1.728-0.017,2.582c-1.027,0.177-2.055,0.363-3.082,0.546c-0.502-0.241-1.004-0.485-1.506-0.727c-0.024-0.559-0.05-1.113-0.075-1.672C33.604,56.757,34.075,56.457,34.546,56.161z"/>
<path fill="#6F432E" d="M31.449,62.609c-0.064-1.107-0.128-2.218-0.192-3.326c0.581-0.467,1.163-0.931,1.744-1.396c0.556,0.494,1.113,0.989,1.668,1.483c0,0,0.042,0.076,0.042,0.079C33.625,60.504,32.537,61.557,31.449,62.609z"/>
<path fill="#3B2618" d="M28.437,56.269c1.083,0.036,2.167,0.076,3.249,0.112c0.465,0.52,0.932,1.038,1.399,1.557c-0.502,0.485-1.002,0.971-1.504,1.453c0,0-0.314-0.104-0.319-0.107c-0.966,0.034-1.926,0.055-2.889,0.062C28.391,58.319,28.412,57.294,28.437,56.269z"/>
<path fill="#3B2618" d="M34.707,49.845c-0.133,1.113-0.266,2.228-0.4,3.345c-0.372,0.714-0.746,1.431-1.12,2.148c-0.371-0.718-0.743-1.435-1.114-2.152C32.95,52.072,33.829,50.958,34.707,49.845z"/>
<path fill="#352118" d="M32.073,53.186c0.748-0.003,1.496-0.003,2.239,0.004c0.124,0.985,0.204,1.978,0.235,2.972l0.114,0.08c-1.042,1.409-2.084,1.477-3.124-0.003c0,0,0.145,0.137,0.146,0.14C31.815,55.316,31.943,54.251,32.073,53.186z"/>
<path fill="#60402A" d="M31.537,56.238c1.044,0.003,2.088,0.009,3.128,0.006c-0.001,1.04,0,2.087,0.003,3.131c-1.042,0-2.083,0-3.107,0.009C31.565,58.341,31.551,57.287,31.537,56.238z"/>
</svg>