<?xml version="1.0" encoding="utf-8"?>
<!DOCTYPE svg PUBLIC "-//W3C//DTD SVG 1.1//EN" "http://www.w3.org/Graphics/SVG/1.1/DTD/svg11.dtd">
<svg version="1.1" xmlns="http://www.w3.org/2000/svg" xmlns:xlink="http://www.w3.org/1999/xlink" x="0px" y="0px" width="100px" height="100px" viewBox="0 0 100 100" enable-background="new 0 0 100 100" xml:space="preserve">
<path fill="#6B430D" d="M78.303,84.217c-1.022,0.207-2.045,0.415-3.065,0.622c-10.446-3.106-8.258-11.752-7.469-18.908c0.662-6.003,2.586-11.893,2.238-18.058c-0.317-3.311,0.712-6.524,0.697-9.808c0.105-1.59,0.451-3.134,1.022-4.618c0.82-1.333,1.942-2.368,3.288-3.131c1.443-0.323,2.887-0.241,4.252,0.278c1.347,0.775,2.145,2.103,2.94,3.433c-0.774-2.447-0.736-4.819,0.599-7.107c2.921-3.25,6.378-3.705,10.251-2.036c0,16.461,0,32.919,0,50.882c-3.661,1.9-7.558,3.924-11.456,5.947C80.6,82.679,79.499,83.512,78.303,84.217z"/>
<path fill="#80490A" d="M49.869,96.698c-2.052-0.781-4.104-1.563-6.155-2.344c-1.251-2.311-2.91-4.422-3.442-7.077c-1.216-6.052-3.485-11.282-10.179-13.07c-2.464-1.096-4.888-2.276-7.413-3.247c-1.326-0.458-2.577-1.05-3.787-1.752c-3.598-2.325-7.494-4.352-8.765-8.944c-0.186-1.435-0.095-2.854,0.256-4.248c0.627-1.267,1.514-2.338,2.626-3.208c2.831-1.636,6.355-2.472,7.372-6.271c0.392-2.002,0.784-3.995,1.111-6.012c0.556-5.893,3.152-9.473,9.697-8.578c2.098,0.732,3.6,2.124,4.505,4.135c0.233,1.279,0.343,2.6,0.317,3.903c-0.424,1.962-1.279,3.852-1.369,5.85c0-0.064-0.021,1.001-0.021,1.001s0.026-1.059,0.029-1.114c0.043-0.946,0.206-1.816,0.519-2.74c0.434-1.114,0.763-2.17,1.025-3.324c0.191-1.392,0.75-2.524,1.729-3.509c1.311-0.763,2.667-1.19,4.161-1.285c7.192-0.165,15.16-2.203,17.989,7.728c0.158,1.709-0.016,3.387-0.484,5.035c-4.426,12.359-0.834,25.678-4.596,38.187C53.793,89.81,53.316,93.869,49.869,96.698z"/>
<path fill="#70470E" d="M56.286,44.611c0.108-0.967,0.203-1.935,0.283-2.905c0.512-1.279,1.389-1.621,2.626-1.038c1.787,1.666,1.996,3.87,2.028,6.079c-0.009-0.052,0.906,0.934,0.906,0.934s-0.934-1.083-0.936-1.135c0.781-3.385-2.539-5.377-2.721-8.429c0.582-1.392,1.475-2.484,2.72-3.348c1.486-0.625,2.992-0.952,4.601-0.967c2.682,0.213,4.879,1.294,6.581,3.381C76.333,54.511,72,71.299,69.152,88.178c-4.184,2.057-8.367,4.117-12.55,6.174c-6.916-7.498-3.781-16.889-4.807-25.494c0.545-3.629,1.193-7.261,0.028-10.896C52.196,53.14,49.974,47.452,56.286,44.611z"/>
<path fill="#995C0F" d="M12.844,56.843c0.018,1.098,0.035,2.193,0.052,3.289c1.788,2.769,3.583,5.533,6.3,7.535c2.872,1.983,5.914,3.842,5.443,8.075c-0.639,3.14-2.672,4.925-5.64,5.795c-2.117-0.982-4.233-1.969-6.349-2.951l0.012,0.019c-1.881-13.862-4.391-27.683-5.305-41.609c-0.322-4.895,3.262-10.046,5.063-15.082c2.556,0.442,4.965,1.172,6.608,3.381c0.638,1.074,1.047,2.243,1.239,3.473c0.108,1.19,0.142,2.399,0.124,3.598c-0.035,1.169-0.11,2.347-0.185,3.519c-0.047,2.338,0.18,4.669,0.261,7.013c-0.02,2.374,0.29,4.779-0.673,7.062c-0.545,1.056-1.286,1.965-2.197,2.719c-0.997,0.513-2.039,0.977-3.087,1.395C13.644,54.801,13.084,55.725,12.844,56.843z"/>
<path fill="#E08E1C" d="M59.537,7.535c8.295,4.031,16.59,8.065,24.886,12.097c1.055,2.28,0.046,3.958-1.587,5.447c-2.847,2.066-6.46,1.599-9.547,2.854c-1.116,0.62-2.272,1.178-3.453,1.66c-0.618,0.104-1.245,0.208-1.865,0.311c-0.621,0.034-1.249,0.067-1.872,0.104c-1.236,0.015-2.478-0.003-3.716-0.052c-1.227-0.088-2.431-0.326-3.608-0.684c-1.661-0.76-3.221-1.718-4.823-2.597c-1.121-0.491-2.235-0.986-3.383-1.428c-1.847-0.562-3.705-1.013-5.618-1.331c-1.387-0.162-2.727-0.431-4.071-0.806c-1.336-0.617-2.454-1.48-3.402-2.597c-1.288-1.935-1.761-4.025-1.287-6.311c1.55-3.583,5.663-4.685,7.634-7.871c1.086-0.726,2.174-1.453,3.262-2.179C50.8,6.885,55.077,7.55,59.537,7.535z"/>
<path fill="#D27F16" d="M43.824,6.332c-1.975,3.186-3.948,6.372-5.921,9.555c-0.033,0.525-0.065,1.047-0.098,1.575c-0.047,1.062-0.108,2.121-0.181,3.186c-0.157,1.089-0.385,2.151-0.687,3.217c-0.279,1.11-0.555,2.206-0.825,3.32c-0.365,1.794-0.938,3.473-2.263,4.813c-0.544,0.323-1.08,0.635-1.629,0.952c-1.274,0.192-2.542,0.287-3.827,0.299c-3.172,0.095-6.27,2.566-9.501,0.26c-1.629-1.328-1.599-3.647-3.045-5.078c-1.142-2.173-2.283-4.346-3.426-6.516C22.887,16.721,33.357,11.527,43.824,6.332z"/>
<path fill="#512D06" d="M56.286,44.611c-0.87,5.185-1.74,10.367-2.608,15.552c1.419,1.897,1.485,3.769-0.112,5.605c1.013,9.527,2.024,19.056,3.038,28.583c-2.245,0.781-4.489,1.563-6.734,2.347c0.08-12.497-0.407-25.03,0.518-37.463C50.758,54.242,54.226,49.478,56.286,44.611z"/>
<path fill="#512D06" d="M69.154,88.178c-0.218-16.784-0.435-33.569-0.651-50.354c-0.312-0.568-0.621-1.138-0.933-1.706c0.324-1.312,1.095-2.283,2.251-2.963c2.028-0.555,3.801-0.094,5.331,1.337c0.075,1.218,0.148,2.438,0.222,3.659c1.682,1.922,1.682,3.845,0,5.768c-0.046,13.642-0.092,27.283-0.136,40.921C73.209,85.953,71.182,87.063,69.154,88.178z"/>
<path fill="#C57513" d="M80.92,22.656c1.167-1.007,2.336-2.017,3.503-3.024c2.878,1.751,5.756,3.503,8.634,5.252c-2.881,1.401-5.764,2.801-8.646,4.202c-1.673,1.843-2.896,4.837-6.226,2.429l-1.519-0.168l-1.52,0.156c-0.951-0.961-1.502-2.105-1.594-3.46C74.052,23.569,78.483,24.475,80.92,22.656z"/>
<path fill="#E0A043" d="M59.537,7.535c-4.15-1.126-8.301-2.255-12.451-3.381C51.237,5.28,55.387,6.409,59.537,7.535z"/>
<path fill="#774308" d="M30.943,88.354c-1.922-1.147-3.844-2.295-5.766-3.439c-1.724-1.932-2.273-4.135-1.558-6.641c3.826-5.038,7.576-5.56,11.225,0.181c0.5,1.525,0.653,3.091,0.459,4.688c-0.396,1.56-1.16,2.917-2.287,4.071C32.323,87.592,31.633,87.974,30.943,88.354z"/>
<path fill="#9B6011" d="M25.082,78.851c0.032,2.023,0.064,4.044,0.096,6.063c-2.06-1.126-4.118-2.252-6.178-3.378c0.789-2.032,1.576-4.062,2.364-6.095C23.654,75.433,24.804,76.667,25.082,78.851z"/>
<path fill="#7D4709" d="M37.735,91.05c-2.265-0.897-4.529-1.798-6.792-2.695l1.042-0.806c0.875-1.053,1.652-2.176,2.332-3.369c0.847-2.038,2.243-3.405,4.515-3.72c2.39,0.363,3.556,2.005,4.3,4.096c0.032,1.44-0.168,2.841-0.638,4.205C41.541,90.845,40.415,92.569,37.735,91.05z"/>
<path fill="#A06312" d="M37.735,91.05c1.117-1.099,2.234-2.197,3.351-3.296c0.511-0.363,1.022-0.729,1.532-1.093c0.575,0.25,1.15,0.504,1.724,0.754c-0.209,2.313-0.418,4.626-0.627,6.939C41.72,93.253,39.727,92.151,37.735,91.05z"/>
<path fill="#512D06" d="M78.303,84.217c1.099-0.833,2.197-1.667,3.298-2.503C80.502,82.55,79.402,83.384,78.303,84.217z"/>
<path fill="#D27F15" d="M75.173,29.208c-0.061,0.766-0.07,1.529-0.025,2.295c0.003,0.995,0.006,1.993,0.004,2.988c-2.008,0.208-4.014,0.415-6.022,0.623l0.162-0.162c-0.264,0.955-0.526,1.913-0.789,2.872c-2.052-0.049-4.103-0.098-6.155-0.146c-1.087-0.668-2.235-1.206-3.439-1.629c-0.841-0.992-1.354-2.133-1.546-3.418c-0.027-3.803,3.03-5.335,5.416-7.361l-0.249,0.171c1.166-1.095,2.331-1.043,3.497,0l-0.343-0.128c1.146,1.102,2.291,1.153,3.438-0.003l-0.331,0.067C72.759,23.584,73.942,26.437,75.173,29.208z"/>
<path fill="#512D06" d="M78.186,31.515c2.075-0.812,4.15-1.62,6.226-2.429c0,6.995,0,13.989,0,20.984c-0.472,0.016-0.943,0.034-1.416,0.049C81.393,43.918,79.789,37.717,78.186,31.515z"/>
<polygon fill="#725426" points="86.658,70.309 86.245,71.494 85.572,70.545 "/>
<path fill="#725426" d="M75.373,43.918c0-1.922-0.002-3.848,0-5.771C75.373,40.073,75.373,41.995,75.373,43.918z"/>
<path fill="#300D00" d="M40.876,84.863c-1.142-0.906-2.283-1.813-3.424-2.719c-2.152,1.419-4.157,1.34-5.98-0.586c-0.594-1.264-1.186-2.527-1.819-3.879c-1.744,0.448-3.159,0.812-4.572,1.172c-1.239-1.136-2.479-2.271-3.718-3.409c-1.955-1.849-3.911-3.698-5.866-5.548c-1.175-7.074,3.601-4.498,6.929-4.272c0.984,0.217,1.953,0.485,2.908,0.806c1.814,1.722,3.882,2.731,6.46,2.316c7.613,3.919,17.422,6.36,12.546,18.671l-0.409,0.461C42.811,86.975,41.798,85.965,40.876,84.863z"/>
<path fill="#3B1501" d="M14.935,50.488c0.034-3.29,0.067-6.576,0.101-9.866c0.459-0.537,0.918-1.071,1.376-1.608c1.915-1.15,3.938-1.376,6.064-0.702c1.864,1.081,3.376,2.475,4.063,4.596c0.18,1.419-0.064,2.755-0.795,3.998c-3.348,3.256-6.695,6.509-10.044,9.765C14.024,54.785,13.761,52.725,14.935,50.488z"/>
<path fill="#9F6110" d="M25.779,44.193c-1.063-1.086-2.127-2.176-3.19-3.266c-2.196-1.242-4.395-2.584-6.48,0.177l-1.073-0.482c-0.786-3.018-1.572-6.036-2.357-9.055l-0.055,0.055c1.129-0.018,2.256-0.037,3.384-0.052c1.104-1.196,2.179-1.169,3.223,0.079c4.098-0.015,8.198-0.03,12.297-0.045c0.691,1.153,0.647,2.255-0.255,3.287c-1.082,3.155-2.164,6.311-3.246,9.466C27.194,45.45,26.445,45.395,25.779,44.193z"/>
<path fill="#DC881A" d="M60.31,38.333c-0.206,0.894-0.451,1.776-0.735,2.646l-0.058,0.027c-1.051-0.052-2.033,0.18-2.947,0.699c-5.256-1.251-10.512-2.505-15.768-3.757c0.129-0.738,0.258-1.477,0.388-2.215c1.199-2.795,2.579-5.457,5.322-7.102c2.125-1.056,4.352-1.245,6.656-0.787c3.269,0.955,4.641,3.771,6.244,6.356l0.408,1.12c0.771,0.562,1.101,1.196,0.989,1.901C60.692,37.964,60.525,38.333,60.31,38.333z"/>
<path fill="#300D00" d="M37.028,50.55c2.064,4.892,4.13,9.783,6.195,14.676c-1.036,0.625-2.072,1.251-3.108,1.874c-1.874-2.305-3.748-4.611-5.622-6.916C33.347,56.448,30.291,52.21,37.028,50.55z"/>
<path fill="#210002" d="M22.427,65.622c-2.311,1.426-4.621,2.848-6.929,4.272c-0.868-3.253-1.735-6.509-2.602-9.763C16.073,61.963,19.25,63.791,22.427,65.622z"/>
<path fill="#210002" d="M37.028,50.55c-0.844,3.21-1.689,6.421-2.535,9.634c-0.979-4.324-1.959-8.648-2.939-12.973c1.63-1.471,2.271-4.886,5.669-2.887C37.159,46.399,37.093,48.474,37.028,50.55z"/>
<path fill="#D18017" d="M31.272,34.891c0.085-1.096,0.169-2.191,0.255-3.287l-0.136,0.131c1.662-1.886,3.748-2.716,6.25-2.508c1.572,0.381,2.879,1.193,3.921,2.426c1.15,2.31,1.106,4.474-0.795,6.405l0.035-0.113c-1.079,0.189-2.158,0.375-3.236,0.562c-0.946-0.235-1.904-0.314-2.876-0.235C33.55,37.146,32.412,36.017,31.272,34.891z"/>
<path fill="#210002" d="M31.796,68.744c-2.153-0.772-4.308-1.544-6.46-2.316C27.488,67.2,29.643,67.972,31.796,68.744z"/>
<path fill="#A36613" d="M14.935,50.488c0.255,2.061,0.51,4.123,0.765,6.183c-0.954,0.019-1.906,0.077-2.855,0.172c-0.895-2.268-1.79-4.538-2.686-6.809c0.99-1.728,1.741-1.716,2.214,0.305C13.226,50.406,14.08,50.455,14.935,50.488z"/>
<path fill="#A77B38" d="M37.223,44.324c-1.891,0.961-3.78,1.922-5.67,2.887c1.063-2.176,2.125-4.352,3.188-6.528c1.09-1.572,2.016-1.563,2.751,0.287C37.402,42.087,37.313,43.204,37.223,44.324z"/>
<path fill="#774308" d="M37.492,40.97H36.1c0,0-1.363-0.284-1.361-0.284c-0.011-0.806-0.027-1.611-0.049-2.414c0.958,0.079,1.918,0.155,2.876,0.235C37.544,39.328,37.519,40.149,37.492,40.97z"/>
<path fill="#A77B38" d="M25.779,44.193c0.754,0.027,1.504,0.083,2.251,0.165c-0.765,0.849-1.526,1.697-2.286,2.545C25.497,45.996,25.508,45.093,25.779,44.193z"/>
<path fill="#725426" d="M62.732,50.446c0.903,2.057,1.808,4.11,2.713,6.167c-0.693,0.159-1.386,0.317-2.078,0.477c-0.209-2.216-0.417-4.432-0.626-6.647L62.732,50.446z"/>
<path fill="#512D06" d="M59.574,40.979c1.053,3.155,2.104,6.311,3.157,9.467c0,0,0.009-0.007,0.009-0.004c-1.074-3.146-2.148-6.289-3.224-9.436L59.574,40.979z"/>
<path fill="#725426" d="M53.566,65.768c0.036-1.871,0.073-3.741,0.109-5.609C53.64,62.03,53.604,63.901,53.566,65.768z"/>
<path fill="#E2A54B" d="M60.31,38.333c-0.226-0.995-0.389-1.999-0.49-3.012c0.844,0.784,1.688,1.568,2.529,2.356C61.726,38.077,61.047,38.297,60.31,38.333z"/>
<path fill="#A77B38" d="M12.373,50.339c-0.746-0.058-1.486-0.158-2.217-0.302c0.389-0.645,0.774-1.288,1.201-2.005C11.721,48.862,12.046,49.6,12.373,50.339z"/>
<path fill="#A77B38" d="M12.678,31.567c0,0-0.052,0.055-0.053,0.055S12.678,31.567,12.678,31.567z"/>
<path fill="#774308" d="M19.23,31.65c-1.076-0.024-2.152-0.052-3.226-0.079c-0.05-1.047-0.105-2.094-0.158-3.14C16.975,29.505,18.102,30.576,19.23,31.65z"/>
<path fill="#A06312" d="M12.663,78.604l-0.012-0.018L12.663,78.604z"/>
<path fill="#9F5A0B" d="M59.411,34.201c-2.134-0.9-4.269-1.804-6.401-2.704c-0.691-1.044-1.18-2.176-1.463-3.397c0.041-1.251,0.297-2.457,0.738-3.628c0.651-1.077,1.508-1.953,2.569-2.63c0.607-0.138,1.213-0.275,1.82-0.409c2.034,1.279,4.068,2.558,6.103,3.836C61.655,28.247,60.534,31.225,59.411,34.201z"/>
<path fill="#B68500" d="M55.958,18.399c0.332,0.989,0.57,1.999,0.717,3.033l-0.467,1.376c-0.716,1.019-1.4,2.057-2.057,3.119c-0.965,0.83-2.028,1.483-3.203,1.972c-1.939,0.449-3.822,0.351-5.646-0.507c-1.718-1.175-2.764-2.777-3.085-4.84c0.131-1.364,0.681-2.53,1.649-3.5l0.648-0.256C48.269,16.922,52.104,17.365,55.958,18.399z"/>
<path fill="#9F5A0B" d="M75.173,29.208c-2.127-1.275-4.256-2.554-6.384-3.833c4.045-0.906,8.09-1.816,12.132-2.722C79.005,24.838,77.09,27.023,75.173,29.208z"/>
<path fill="#050300" d="M55.958,18.399c-3.814,0.134-7.628,0.266-11.443,0.396C48.33,18.665,52.144,18.534,55.958,18.399z"/>
<path fill="#9F5A0B" d="M43.867,19.052c0.061,1.138,0.122,2.274,0.183,3.409c0.979,1.074,1.501,2.338,1.568,3.788c-0.577,2.255-2.002,3.61-4.295,4.038c-0.696-0.08-1.395-0.162-2.091-0.241c-0.656-0.244-1.312-0.488-1.968-0.732c-0.394-0.577-0.791-1.154-1.187-1.728c-0.099-0.689-0.198-1.382-0.299-2.069c0.261-1.386,0.836-2.631,1.721-3.729c1.033-0.955,2.231-1.611,3.595-1.968C41.999,19.495,42.924,19.242,43.867,19.052z"/>
<path fill="#D27F16" d="M41.094,19.818c-0.088,0.894-0.246,1.773-0.473,2.64c-1.088,0.94-2.357,1.355-3.783,1.325c-2.144-0.836-3.48-2.075-2.278-4.578l0.085-0.104c0.875-0.848,1.738-1.712,2.584-2.591c0,0,0.668-0.62,0.671-0.62C38.967,17.197,40.031,18.509,41.094,19.818z"/>
<path fill="#9F5A0B" d="M69.12,25.308c-1.146,0-2.29,0-3.437,0C66.828,25.308,67.974,25.308,69.12,25.308z"/>
<path fill="#9F5A0B" d="M66.026,25.439c-1.166,0-2.331,0-3.497,0C63.695,25.439,64.86,25.439,66.026,25.439z"/>
<path fill="#9F5A0B" d="M34.561,19.205c0.897,1.074,1.794,2.148,2.691,3.22c1.181,0.564,1.628,1.211,1.348,1.95c-0.298,0.781-0.621,1.172-0.974,1.172l0.152-0.201c-1.32,1.675-3,2.121-5.003,1.461c-0.427-0.467-0.854-0.937-1.282-1.403C32.516,23.337,33.538,21.271,34.561,19.205z"/>
<path fill="#9F5A0B" d="M37.306,31.546c-1.972,0.061-3.941,0.125-5.915,0.189c0.046-1.074,0.091-2.148,0.137-3.223c0.432-0.437,0.864-0.87,1.295-1.306c1.837-0.195,3.666-0.357,4.955,1.392l-0.154-0.167c0.57,0.583,1.143,1.166,1.713,1.749C38.66,30.637,37.983,31.092,37.306,31.546z"/>
<path fill="#9F5A0B" d="M31.529,28.513c-0.011-1.038-0.023-2.072-0.035-3.109l-0.098-0.064c0.691,0.537,1.384,1.074,2.075,1.608c-0.685,0.546-1.37,1.089-2.055,1.636L31.529,28.513z"/>
<path fill="#9F5A0B" d="M22.181,25.51l0.011-0.006L22.181,25.51z"/>
<path fill="#E2A54B" d="M22.192,25.504l-0.011,0.006L22.192,25.504z"/>
<path fill="#9F5A0B" d="M37.231,16.51c-0.862,0.864-1.724,1.727-2.586,2.591C35.507,18.237,36.369,17.374,37.231,16.51z"/>
<path fill="#A76B15" d="M31.472,81.558c1.993,0.195,3.985,0.391,5.98,0.586c-1.02,1.877-2.037,3.754-3.057,5.634c-0.977-0.785-1.82-1.688-2.536-2.717C31.732,83.896,31.602,82.727,31.472,81.558z"/>
<path fill="#A77B38" d="M31.86,85.061c0.847,0.906,1.692,1.811,2.538,2.717c-0.001,0-1.219,0.012-1.219,0.012l-1.194-0.241C31.813,86.728,31.771,85.898,31.86,85.061z"/>
<path fill="#A77B38" d="M40.876,84.863c1.018,1.007,2.037,2.012,3.055,3.013c-0.954,0.012-1.904-0.024-2.849-0.119C40.977,86.792,40.906,85.831,40.876,84.863z"/>
<polygon fill="#9F5A0B" points="69.291,34.952 68.738,34.564 69.129,35.111 "/>
<path fill="#210002" d="M16.108,41.104c0.244-1.459,0.488-2.921,1.735-10.373c2.699,5.801,3.723,7.999,4.746,10.196C20.428,40.988,18.269,41.046,16.108,41.104z"/>
<path fill="#9F5A0B" d="M40.768,38.058c0.054-2.115,0.105-4.227,0.159-6.341c0.417-0.455,0.833-0.91,1.25-1.364c1.203-0.357,2.414-0.363,3.632-0.067c0.421,0.448,0.844,0.897,1.265,1.349C44.972,33.777,42.87,35.916,40.768,38.058z"/>
<path fill="#E2A54B" d="M53.246,28.564c0.026,0.986-0.052,1.962-0.233,2.933c-1.982,0.045-3.96,0.091-5.938,0.137l-0.02,0.113c-0.807-0.604-1.199-1.312-1.175-2.121c0.027-0.858,0.144-1.288,0.349-1.288c1.614-1.568,3.599-1.343,5.577-1.142C52.285,27.652,52.766,28.11,53.246,28.564z"/>
<path fill="#E2A54B" d="M37.306,31.546c0.106-1.038,0.213-2.075,0.32-3.116c1.01,0.131,2.009,0.329,2.995,0.595c1.256,0.491,1.71,1.059,1.37,1.703c-0.358,0.677-0.728,1.019-1.115,1.019c0,0,0.047-0.03,0.049-0.03C39.719,31.659,38.512,31.604,37.306,31.546z"/>
<path fill="#3D2C00" d="M53.306,25.433c0.968-0.873,1.937-1.749,2.904-2.625c0.055,0.852,0.134,1.697,0.236,2.545C55.432,26.618,54.386,26.703,53.306,25.433z"/>
<path fill="#E28F1D" d="M53.306,25.433c1.047-0.024,2.094-0.052,3.141-0.079c-1.068,1.068-2.135,2.139-3.201,3.21c0.001,0,0.129,0.122,0.129,0.122c-0.682-0.549-1.365-1.099-2.049-1.647c0.713-0.51,1.425-1.02,2.138-1.529L53.306,25.433z"/>
<path fill="#9F5A0B" d="M53.463,25.51c-0.029,1.059-0.06,2.115-0.089,3.174c-2.06-0.095-4.119-0.192-6.181-0.287c-0.432-0.47-0.864-0.94-1.299-1.407c0.198-0.607,0.398-1.215,0.6-1.822C48.817,25.284,51.141,25.397,53.463,25.51z"/>
<path fill="#3D2C00" d="M44.009,25.165c-0.008-0.9,0.006-1.804,0.041-2.704c0.818,0.903,1.637,1.807,2.449,2.707c-0.005,0,0.511-0.033,0.511-0.033c-0.493,0.635-0.987,1.27-1.48,1.904C45.024,26.416,44.515,25.79,44.009,25.165z"/>
<path fill="#D58217" d="M44.009,25.165c1.001,0.07,2.002,0.058,3.001-0.03c0.06,1.086,0.121,2.176,0.182,3.262c-0.044,1.117-0.091,2.234-0.137,3.351c-2.06,0-4.118,0-6.178,0c-0.11-0.906-0.195-1.816-0.256-2.725C41.751,27.738,42.88,26.453,44.009,25.165z"/>
<path fill="#E28F1D" d="M31.416,28.583c-0.004-1.08-0.011-2.161-0.018-3.241c2.125,0,4.252,0.003,6.379,0.003c0.001,1.083,0,2.167,0,3.253C35.657,28.592,33.537,28.589,31.416,28.583z"/>
<path fill="#E2A54B" d="M37.626,25.546c-0.124-1.041-0.247-2.084-0.373-3.122c1.123,0.012,2.246,0.021,3.369,0.033C39.623,23.49,38.624,24.518,37.626,25.546z"/>
</svg>