<?xml version="1.0" encoding="utf-8"?>
<!DOCTYPE svg PUBLIC "-//W3C//DTD SVG 1.1//EN" "http://www.w3.org/Graphics/SVG/1.1/DTD/svg11.dtd">
<svg version="1.1" xmlns="http://www.w3.org/2000/svg" xmlns:xlink="http://www.w3.org/1999/xlink" x="0px" y="0px" width="100px" height="100px" viewBox="0 0 100 100" enable-background="new 0 0 100 100" xml:space="preserve">
<path fill="#411F1E" d="M84.577,18.226c2.928,1.523,5.857,3.042,8.813,4.581c0,5.75,0,11.258,0,16.767c-0.566,1.092-1.147,2.179-1.741,3.259c-0.536,0.308-1.076,0.607-1.613,0.912c-1.268,0.085-2.425-0.238-3.476-0.949c-1.739-1.733-2.916-3.852-4.045-5.991c-0.822-1.504-1.516-3.079-2.135-4.672c-0.406-0.995-0.693-2.042-0.893-3.091c-0.201-1.01-0.157-2.036,0.092-3.03c0.207-0.934,0.614-1.807,1.157-2.594c-0.039,0.006,0.724-1.175,0.681-1.178c0.333-0.815,0.734-1.615,1.142-2.405C83.025,19.051,83.703,18.516,84.577,18.226z"/>
<path fill="#542C2A" d="M6.934,64.369c-0.006-6.26-0.012-12.519-0.019-18.781c0.589-1.102,1.111-2.234,1.56-3.406c0.304-0.552,0.613-1.099,0.918-1.654c0.852-0.955,1.857-1.7,3.03-2.219c1.267-0.241,2.501-0.113,3.702,0.36c2.023,1.583,3.175,3.763,4.114,6.073c0.415,1.096,0.647,2.246,0.755,3.402c-0.004,1.102-0.249,2.176-0.661,3.189c-0.471,0.961-1.248,1.605-2.26,1.916c-0.833,0.333-1.677,0.729-2.435,1.239c-0.571,0.705-1.033,1.471-1.297,2.371c-0.186,0.971-0.505,1.874-0.906,2.769c-0.369,0.974-0.857,1.855-1.436,2.71c-0.588,0.896-1.318,1.642-2.161,2.292C8.814,65.15,7.846,65.058,6.934,64.369z"/>
<path fill="#5F3636" d="M43.489,4.93c6.347,1.297,12.697,2.594,19.045,3.891c0,0-1.137,1.028-1.13,1.038c-0.879,0.546-1.825,0.934-2.823,1.205c-0.957,0.388-1.937,0.705-2.921,1.022c-0.975,0.409-1.973,0.723-2.99,1.01c-1.052,0.259-2.112,0.354-3.19,0.305c-1.085-0.174-2.082-0.568-3.006-1.154c-0.786-0.76-1.404-1.645-1.904-2.615C43.912,8.137,43.768,6.52,43.489,4.93z"/>
<path fill="#653737" d="M46.931,11.329c1.094,0.021,2.188,0.046,3.284,0.067c0.685,1.138,0.685,2.273,0.003,3.415c-1.281,1.422-2.916,2.283-4.675,2.948c-1.721,0.687-3.491,1.224-5.312,1.602c-1.868,0.281-3.644,0.043-5.26-0.992c-0.856-0.867-1.333-1.926-1.488-3.122c-0.603-1.239,2.863-2.066,0.347-3.528c-0.188-0.528-0.36-1.05-0.534-1.578c0.369-0.421,0.739-0.833,1.109-1.245c1.863-0.394,3.728-0.784,5.591-1.175c1.145-0.443,2.329-0.635,3.554-0.574C45.195,8.122,45.752,9.977,46.931,11.329z"/>
<path fill="#1F1010" d="M93.254,55.135c-1.816,7.339-3.632,14.682-5.449,22.024c-0.45-0.376-0.9-0.751-1.354-1.123c-0.493-1.078-0.748-2.21-0.759-3.397c0.08-1.159,0.3-2.304,0.585-3.43c0.369-1.688,0.738-3.381,0.979-5.103c0.071-1.184,0.249-2.344,0.45-3.51c0.339-1.807,0.99-3.47,2.194-4.886C90.916,54.932,92.03,54.713,93.254,55.135z"/>
<path fill="#AC6666" d="M12.592,20.61c2.013-1.007,4.025-2.011,6.038-3.015c2.052-1.819,4.678-1.449,7.097-1.868c1.26,0.183,2.339,0.732,3.236,1.63c0.455,1.178,0.484,2.371,0.098,3.574c-1.529,2.005-3.696,3.006-6.004,3.781c-1.122,0.336-2.275,0.525-3.445,0.61c-1.741,0.131-3.487,0.125-5.234-0.07c-0.557-0.167-1.111-0.357-1.667-0.537c-0.4-0.424-0.795-0.854-1.193-1.285C11.11,22.203,11.469,21.26,12.592,20.61z"/>
<path fill="#251212" d="M81.729,80.211c-3.238,1.831-6.475,3.662-9.712,5.493c-1.551-1.188-2.438-2.766-2.777-4.676c-0.147-1.242-0.105-2.481,0.087-3.717c0.295-1.206,0.822-2.311,1.548-3.317c0.976-0.803,2.105-1.087,3.351-0.937c1.106,0.448,2.117,1.074,3.025,1.852c0.913,0.732,1.766,1.545,2.598,2.378C80.693,78.117,81.313,79.099,81.729,80.211z"/>
<path fill="#2B1414" d="M47.031,95.179c-3.165-1.865-6.328-3.732-9.493-5.598c0.382-0.519,0.765-1.034,1.142-1.559c1.056-0.764,2.197-1.358,3.426-1.804c1.887-0.623,3.821-0.928,5.815-0.813c2.156,0.501,3.37,1.89,3.784,4.032C51.716,92.628,49.616,94.102,47.031,95.179z"/>
<path fill="#7B4444" d="M6.998,30.268c0.014-2.157,0.027-4.312,0.042-6.466c1.891-1.697,3.806-1.776,5.747-0.083l-0.209-0.052c1.568,0.938,3.113,1.901,3.76,3.766c0.101,1.276-0.249,2.408-1.041,3.412c-1.002,0.763-2.125,1.254-3.363,1.489C9.97,32.411,8.306,31.764,6.998,30.268z"/>
<path fill="#421717" d="M18.66,80.186c-1.025,0.036-2.002-0.162-2.931-0.602c-0.563-1.065-0.687-2.179-0.384-3.354c0.699-1.688,1.771-3.11,3.067-4.389c1.397-1.291,2.968-2.222,4.913-2.393c1.309,0.207,2.344,0.849,3.124,1.923c0.773,1.895,0.709,3.784-0.003,5.679c-0.606,1.188-1.425,2.207-2.411,3.098c-0.589,0.293-1.186,0.577-1.781,0.867C20.911,81.376,19.705,81.129,18.66,80.186z"/>
<path fill="#2C0D0D" d="M31.452,86.201c-3.154-1.16-6.308-2.319-9.462-3.479c-0.717-0.579-0.952-1.159-0.708-1.733c0.244-0.57,0.487-0.857,0.729-0.857l0.056-0.119c0.913-0.763,1.929-1.339,3.07-1.702c1.149-0.403,2.322-0.485,3.523-0.309c1.167,0.36,2.205,0.943,3.111,1.764c0.714,0.995,1.149,2.1,1.274,3.323c-0.125,0.59-0.256,1.179-0.385,1.768C32.26,85.303,31.856,85.753,31.452,86.201z"/>
<path fill="#820D0D" d="M71.998,11.94c3.128,1.889,6.256,3.781,9.386,5.67c-2.293,2.658-5.132,2.798-8.223,1.791c-1.36-0.772-2.229-1.935-2.682-3.421C70.413,14.421,70.919,13.072,71.998,11.94z"/>
<path fill="#5A0606" d="M72.443,17.64c2.981-0.012,5.961-0.021,8.941-0.03c1.063,0.204,2.127,0.412,3.192,0.616c-0.098,0.894-0.192,1.788-0.284,2.683c-1.093,0.924-2.327,1.583-3.705,1.986c-2.925,0.922-5.622,0.583-8.021-1.431C71.675,20.219,71.594,18.944,72.443,17.64z"/>
<path fill="#742323" d="M28.195,17.439c-3.188,0.052-6.376,0.104-9.565,0.155c3.23-1.861,6.46-3.723,9.69-5.584c0.98,0.638,1.496,1.541,1.554,2.707C29.679,15.849,29.118,16.756,28.195,17.439z"/>
<path fill="#371C1C" d="M47.031,95.179c1.039-1.901,2.08-3.806,3.119-5.707c2.284-1.288,4.01-0.266,5.592,1.349c0.26,0.662,0.516,1.328,0.773,1.99C53.354,93.601,50.192,94.391,47.031,95.179z"/>
<path fill="#2D0707" d="M71.983,80.092c0.011,1.87,0.021,3.741,0.034,5.612c-0.85,0.555-1.781,0.814-2.796,0.777c-1.189,1.011-2.496,1.142-3.901,0.513c-1.396-1.907-1.525-3.939-0.595-6.075c0.903-1.154,2.058-1.938,3.46-2.362C69.668,78.526,70.935,79.035,71.983,80.092z"/>
<path fill="#432525" d="M6.998,30.268c1.942,0.077,3.885,0.153,5.827,0.232c0.549,1.227,0.591,2.469,0.131,3.735c-0.641,1.154-1.506,2.103-2.588,2.86c-1.356,0.479-2.438,0.085-3.277-1.053C7.059,34.117,7.028,32.191,6.998,30.268z"/>
<path fill="#4E2828" d="M12.276,77.165c-1.765-2.085-3.532-4.169-5.298-6.253c0.766-1.093,1.773-1.471,3.061-1.041c1.66,0.961,2.785,2.368,3.444,4.159c0.04,0.61,0.07,1.228,0.105,1.841C13.153,76.301,12.714,76.731,12.276,77.165z"/>
<path fill="#8F5555" d="M7.091,36.042c0.905-0.149,1.813-0.284,2.724-0.406c1.079-0.406,2.055-0.21,2.945,0.5c0.651,0.934,0.795,1.926,0.353,2.985c-1.146,1.166-2.291,2.334-3.435,3.5c-1.341-0.525-2.275-1.446-2.732-2.823C6.993,38.545,7.042,37.294,7.091,36.042z"/>
<path fill="#6A3636" d="M12.787,23.719c-1.917,0.027-3.832,0.055-5.748,0.083c1.853-1.065,3.704-2.13,5.553-3.192C12.691,21.644,12.755,22.679,12.787,23.719z"/>
<path fill="#4D2A2A" d="M44.112,8.403c-1.374-0.226-2.745-0.452-4.115-0.677c1.164-0.934,2.329-1.865,3.493-2.795c1.178,0.998,2.356,1.996,3.536,2.994C46.242,9.23,45.271,9.388,44.112,8.403z"/>
<path fill="#490909" d="M93.352,45.698c-0.097,2.103-0.192,4.202-0.289,6.305c-1.511,0.024-2.67-0.601-3.479-1.877c-0.365-1.409-0.325-2.798,0.182-4.168c0.567-0.428,1.138-0.854,1.709-1.282C92.1,45.018,92.726,45.356,93.352,45.698z"/>
<path fill="#804C4C" d="M9.514,70.86c-0.845,0.046-1.69,0.061-2.536,0.052c-0.015-2.183-0.029-4.364-0.044-6.543c0.932,0.019,1.86-0.03,2.783-0.149c0.391,0.5,0.783,1.001,1.175,1.501C11.42,67.698,11.118,69.453,9.514,70.86z"/>
<path fill="#583A2D" d="M81.729,80.211c-1.337-0.056-2.675-0.107-4.013-0.162c-0.244-0.57-0.488-1.142-0.735-1.712c0.172-0.596,0.349-1.193,0.524-1.788c0.981-0.8,2.095-1.294,3.357-1.44c1.256,0.082,2.407,0.481,3.452,1.181c0.802,1.056,0.869,2.182,0.297,3.363C83.706,80.131,82.746,80.317,81.729,80.211z"/>
<path fill="#522828" d="M62.535,8.821c2.178,0.775,4.355,1.547,6.533,2.319c-0.441,0.452-0.884,0.903-1.326,1.358c-1.242,0.372-2.479,0.354-3.71-0.052c-1.069-0.785-1.642-1.837-1.713-3.162L62.535,8.821z"/>
<path fill="#361B1B" d="M37.538,89.582c-2.029-1.129-4.057-2.255-6.086-3.381l0.371-0.735c0.987-0.678,2.079-0.971,3.273-0.889c1.149,0.312,2.121,0.919,2.945,1.773c0.616,1.099,0.552,2.137-0.293,3.101L37.538,89.582z"/>
<path fill="#0D0404" d="M65.411,86.082c1.27,0.131,2.54,0.266,3.81,0.399c-2.166,1.041-4.335,2.082-6.503,3.122c-0.185-0.641-0.371-1.281-0.559-1.926C62.881,86.412,63.983,85.917,65.411,86.082z"/>
<path fill="#3B0505" d="M6.945,39.799c0.909,0.94,1.82,1.88,2.731,2.823c0.001,0-0.837-0.088-0.837-0.088c-0.638,0.024-1.276,0.049-1.914,0.076C6.354,41.667,6.36,40.73,6.945,39.799z"/>
<path fill="#160909" d="M90.661,42.506c0.909-0.979,1.818-1.956,2.729-2.933c-0.014,1.013-0.026,2.029-0.04,3.042C92.401,43.867,91.502,43.891,90.661,42.506z"/>
<path fill="#430404" d="M6.925,42.61c0.643,0.003,1.283-0.021,1.918-0.076c-0.646,1.02-1.286,2.039-1.927,3.055C6.357,44.594,6.36,43.602,6.925,42.61z"/>
<path fill="#1C0404" d="M90.661,42.506c0.896,0.076,1.791,0.113,2.688,0.11c0,1.028,0.002,2.054,0.002,3.082l-1.307,0.021l-1.305-0.012c-0.781-0.699-1.051-1.407-0.811-2.124c0.243-0.723,0.492-1.086,0.747-1.086L90.661,42.506z"/>
<path fill="#5A0606" d="M34.406,8.897c-0.067,0.906-0.084,1.81-0.054,2.719c-0.52,0.253-1.042,0.506-1.562,0.763c-0.481-0.323-0.961-0.65-1.44-0.977C32.367,10.567,33.386,9.733,34.406,8.897z"/>
<path fill="#140A0A" d="M28.278,13.887c0.088-0.623,0.104-1.251,0.044-1.877c1.008-0.205,2.019-0.406,3.027-0.607l-0.058,0.003c0.449,1.249,0.882,2.558-0.728,3.266C29.921,14.955,29.074,14.503,28.278,13.887z"/>
<path fill="#48211D" d="M71.998,11.94c-0.008,0.967-0.073,1.929-0.198,2.887c-1.031,0.842-2.113,0.87-3.238,0.198c-0.755-1.099-0.687-2.176,0.089-3.235l0.417-0.653C70.072,11.308,71.048,11.576,71.998,11.94z"/>
<path fill="#2D0303" d="M90.91,51.761c0.706,0.189,1.423,0.272,2.152,0.241c0.063,1.041,0.127,2.085,0.191,3.128c-0.768,0.019-1.531,0.073-2.292,0.175c0,0-1.053-1.017-1.057-1.017c-0.003,0-0.012-1.468-0.015-1.468C89.888,52.818,90.91,51.761,90.91,51.761z"/>
<path fill="#3B0505" d="M15.817,76.981c-0.023,0.87-0.052,1.736-0.088,2.604c-1.15-0.806-2.303-1.614-3.453-2.42c0.552,0.128,1.062,0.03,1.526-0.296c0,0,1.05-0.693,1.05-0.696C14.853,76.17,15.817,76.981,15.817,76.981z"/>
<path fill="#1E0E0E" d="M84.612,79.652c-0.144-0.867-0.187-1.743-0.13-2.619c0.488-0.381,0.977-0.763,1.466-1.147c0.523,0.33,1.047,0.663,1.57,0.998l0.287,0.275C86.742,77.989,85.676,78.822,84.612,79.652z"/>
<path fill="#120707" d="M22.011,80.131c0.011,0.864,0.003,1.728-0.023,2.591c-1.108-0.845-2.217-1.69-3.327-2.535C19.777,80.168,20.894,80.149,22.011,80.131z"/>
<path fill="#280303" d="M59.495,92.076c-0.954,0.405-1.947,0.649-2.98,0.735l-0.142-0.382c-0.786-0.876-1.004-1.706-0.656-2.487c0.339-0.763,0.655-1.142,0.946-1.142c0.738-0.058,1.478-0.109,2.216-0.167c0.552,0.494,1.104,0.988,1.657,1.479C60.19,90.766,59.842,91.423,59.495,92.076z"/>
<path fill="#200F0F" d="M59.495,92.076c0.016-0.889,0.035-1.776,0.063-2.665c1.007-0.888,2.037-0.915,3.087-0.076l0.073,0.269C61.644,90.428,60.57,91.252,59.495,92.076z"/>
<path fill="#452725" d="M84.559,36.384c1.027,2.084,2.056,4.166,3.083,6.247c0.999,0.769,1.462,1.794,1.466,3.042c-0.134,2.438-1.196,4.623-1.875,6.922c-0.589,1.083-1.355,2.017-2.304,2.808c-1.104,0.613-2.288,0.836-3.543,0.741c-1.809-0.613-3.282-1.728-4.618-3.061c-1.319-1.361-2.374-2.905-3.117-4.66c-0.391-1.209-0.51-2.454-0.426-3.72c0.271-1.245,0.832-2.356,1.611-3.36c1.335-1.322,2.873-2.377,4.491-3.327C80.939,37.059,82.64,36.363,84.559,36.384z"/>
<path fill="#310C0C" d="M81.205,27.229c0.046,0.971,0.13,1.941,0.247,2.909c-0.049,0.567-0.098,1.135-0.142,1.706c-0.133,1.163-0.452,2.268-0.969,3.324c-0.643,1.028-1.514,1.794-2.611,2.316c-1.243,0.153-2.377-0.14-3.433-0.812c-0.778-0.992-1.291-2.103-1.604-3.323c-0.188-1.267-0.146-2.521,0.06-3.781c0.209-0.607,0.436-1.203,0.651-1.807c0.695-1.123,1.672-1.911,2.879-2.423C78.297,24.989,80.069,25.288,81.205,27.229z"/>
<path fill="#1D0F0F" d="M84.559,36.384c-1.077,1.029-2.155,2.054-3.232,3.083c-0.434-0.388-0.867-0.778-1.302-1.163c-0.328-1.733-0.149-3.473-0.097-5.212c0.255-1.151,0.76-2.173,1.554-3.049c0,0-0.029,0.091-0.029,0.095C82.489,32.219,83.524,34.303,84.559,36.384z"/>
<path fill="#7E0D0D" d="M81.205,27.229c-2.027-0.073-4.054-0.143-6.08-0.216c-1.154-4.413,1.764-4.477,4.762-4.456c0.583,0.399,1.164,0.802,1.746,1.205C81.491,24.919,81.347,26.073,81.205,27.229z"/>
<path fill="#0A0505" d="M87.8,45.695c-0.183-1.016-0.234-2.036-0.158-3.064c1.01-0.076,2.023-0.119,3.035-0.131c0.021,1.068,0.042,2.14,0.063,3.208l0.013,0.021C89.75,47.263,88.766,47.181,87.8,45.695z"/>
<path fill="#3C0808" d="M81.538,20.851c0.922-0.024,1.84-0.006,2.757,0.058c0.073,0.888,0.132,1.779,0.168,2.667l-0.229,0.238c-0.868-0.04-1.736-0.055-2.604-0.052c0.002,0-0.138,0.049-0.138,0.049c-1.144-0.674-1.518-1.336-1.126-1.993C80.757,21.175,81.145,20.851,81.538,20.851z"/>
<path fill="#7E0D0D" d="M84.463,23.576c0.417,0.284,0.832,0.568,1.248,0.852c-0.491-0.205-0.982-0.409-1.476-0.613C84.235,23.814,84.463,23.576,84.463,23.576z"/>
<path fill="#804C4C" d="M12.479,58.387c0.073-1.063,0.148-2.124,0.221-3.184c0.421-0.436,0.842-0.872,1.265-1.309c0.605,0.07,1.208,0.141,1.817,0.21c0.454,0.412,0.902,0.827,1.363,1.236c0.606,1.087,1.013,2.243,1.256,3.464c0.186,1.236,0.195,2.472,0.101,3.717c-0.168,1.242-0.525,2.433-1.057,3.567c-1.109,1.646-2.573,2.604-4.644,2.354c-0.986-0.806-1.532-1.847-1.637-3.116c-0.04-1.221-0.046-2.441-0.023-3.665C11.192,60.411,11.619,59.312,12.479,58.387z"/>
<path fill="#6D3F39" d="M15.845,52.037c1.132-0.116,2.264-0.229,3.396-0.345c1.211-0.439,2.309-0.217,3.313,0.567c0.731,0.995,1.129,2.111,1.248,3.332c-0.114,0.593-0.236,1.185-0.351,1.776c-0.342,0.494-0.691,0.989-1.033,1.48c-1.099,0.552-2.254,0.689-3.455,0.424c-1.485-1.068-2.003-2.905-3.276-4.147l0.073-0.009c-0.435-0.525-0.872-1.05-1.306-1.578C14.917,53.038,15.381,52.537,15.845,52.037z"/>
<path fill="#8A4F4F" d="M19.017,45.893c-1.217-2.252-2.435-4.501-3.653-6.75c-0.267-1.361,0.119-2.475,1.262-3.302c1.361-0.287,2.539,0.03,3.521,1.038c0.678,1.166,1.099,2.411,1.245,3.753c-0.03,1.355-0.362,2.637-0.936,3.861C19.98,44.96,19.499,45.427,19.017,45.893z"/>
<path fill="#110707" d="M15.634,36.314c0.185,0.97,0.095,1.913-0.269,2.829c-0.001,0-1.129,0.061-1.129,0.061s-1.128-0.079-1.126-0.082c-0.324-0.922-0.417-1.865-0.281-2.829c0,0,0.761-0.979,0.761-0.983c-0.001-0.003,1.239,0.061,1.239,0.058C14.832,35.365,15.634,36.314,15.634,36.314z"/>
<path fill="#490505" d="M18.95,48.869c-0.031-0.992-0.008-1.986,0.065-2.979c0.001,0.003-0.159-0.186-0.159-0.186c2.965-0.894,3.769,0.634,3.621,3.235C21.279,50.084,20.102,50.059,18.95,48.869z"/>
<path fill="#1E0E0E" d="M12.688,52.1c0.506-0.598,1.015-1.199,1.552-1.837c0.554,0.613,1.079,1.193,1.605,1.773l-0.081-0.046c-0.498,0.448-0.995,0.897-1.491,1.352C13.743,52.933,13.216,52.515,12.688,52.1z"/>
<path fill="#150707" d="M18.95,48.869c0.913,0.012,1.825,0.046,2.736,0.106c0.355,0.452,0.711,0.903,1.066,1.353c-0.239,0.521-0.479,1.043-0.719,1.565c-0.931-0.107-1.864-0.171-2.797-0.198C18.921,50.773,18.824,49.833,18.95,48.869z"/>
<path fill="#0F0707" d="M12.7,55.204c-0.612-0.503-1.225-1.007-1.875-1.541c0.646-0.543,1.253-1.053,1.862-1.563c0.001,0-0.054-0.115-0.054-0.115c0.836,0.695,1.117,1.388,0.841,2.084c-0.274,0.699-0.552,1.047-0.832,1.047L12.7,55.204z"/>
<path fill="#5B0909" d="M12.479,58.387c0.091,1.034,0.03,2.06-0.185,3.076c-1.056,1.315-1.987,1.303-2.771-0.26C10.509,60.264,11.493,59.327,12.479,58.387z"/>
<path fill="#2C0606" d="M9.523,61.204c0.923,0.107,1.848,0.192,2.772,0.26c0.239,0.888,0.288,1.785,0.145,2.691c-0.806,1.693-1.766,1.877-2.907,0.302l0.181-0.234C9.557,63.221,9.493,62.215,9.523,61.204z"/>
<path fill="#8C503E" d="M44.112,8.403c0.982-0.085,1.953-0.244,2.913-0.476c-0.031,1.132-0.062,2.268-0.092,3.403C45.992,10.353,45.052,9.379,44.112,8.403z"/>
<path fill="#4D2525" d="M53.275,11.348c1.012-0.931,2.024-1.862,3.036-2.792c0.778,0.952,0.732,1.898-0.027,2.835c-0.505,0.217-1.009,0.43-1.514,0.647C54.271,11.805,53.774,11.576,53.275,11.348z"/>
<path fill="#820D0D" d="M56.378,11.061c0.009-0.839-0.013-1.675-0.065-2.512c1.121,0.116,2.244,0.226,3.367,0.336c0.711,1.102,0.518,2.011-0.578,2.731l-1.503,0.412C57.6,12.028,56.378,11.061,56.378,11.061z"/>
<path fill="#4E2727" d="M59.651,10.71c-0.065-0.613-0.056-1.224,0.027-1.831c0.919-0.125,1.798,0.003,2.639,0.4c0.264,0.516,0.499,1.041,0.705,1.578c-0.32,0.437-0.641,0.873-0.961,1.31c-0.541-0.012-1.081-0.024-1.622-0.04C60.176,11.656,59.913,11.183,59.651,10.71z"/>
<path fill="#8E5454" d="M49.847,14.76c0.121-1.12,0.243-2.243,0.366-3.363c1.021-0.021,2.04-0.037,3.062-0.049l-0.063,0.07c0.801,0.671,1.132,1.401,0.994,2.191c-0.142,0.818-0.328,1.23-0.555,1.23c-0.638,0.213-1.277,0.43-1.917,0.644C51.106,15.242,50.476,15.001,49.847,14.76z"/>
<path fill="#320D0D" d="M35.202,17.76c1.686,0.049,3.374,0.098,5.06,0.144c0.458,0.409,0.914,0.814,1.373,1.227c0.121,1.264-0.144,2.432-0.841,3.503c-0.827,0.952-1.788,1.736-2.892,2.356c-1.181,0.479-2.409,0.684-3.683,0.641c-1.249-0.296-2.342-0.882-3.263-1.782c-0.688-1.126-0.812-2.313-0.378-3.561c0.659-1.102,1.56-1.941,2.736-2.472C33.942,17.793,34.572,17.778,35.202,17.76z"/>
<path fill="#A55151" d="M28.278,13.887c1.004-0.827,2.01-1.654,3.014-2.481c1.022,0.046,2.043,0.113,3.063,0.208c-0.002,0.003,0.022-0.296,0.022-0.296c0.671,0.531,0.971,1.129,0.897,1.792c-0.076,0.699-0.205,1.047-0.388,1.047c0.103,1.202,0.206,2.405,0.312,3.607c0.004-0.003-0.559,0.32-0.559,0.32c-2.232,1.129-4.413,1.477-6.445-0.418c0,0,0.003-0.22,0.003-0.223C28.222,16.255,28.25,15.071,28.278,13.887z"/>
<path fill="#1C0909" d="M43.865,14.494c1.996,0.089,3.99,0.177,5.982,0.266l0.276-0.262c0.791,0.65,1.152,1.385,1.084,2.2c-0.072,0.854-0.214,1.282-0.426,1.288c-1.07,0.888-2.294,1.413-3.673,1.587c-1.395-0.104-2.647-0.58-3.766-1.419C42.681,16.813,42.854,15.593,43.865,14.494z"/>
<path fill="#291313" d="M34.886,14.156c-0.392-0.907-0.562-1.85-0.51-2.835c0.534,0.659,1.068,1.322,1.603,1.981C35.614,13.585,35.251,13.871,34.886,14.156z"/>
<path fill="#9E5555" d="M43.865,14.494c-0.07,1.081-0.141,2.164-0.212,3.247c-0.977,1.02-1.886,0.961-2.725-0.174c0,0-0.662,0.336-0.664,0.336C41.463,16.768,42.663,15.629,43.865,14.494z"/>
<path fill="#310A08" d="M84.482,77.033c-1.047-0.012-2.092-0.024-3.138-0.033c-0.896-0.806-1.596-1.755-2.104-2.851c-0.243-1.193-0.252-2.386-0.051-3.585c0.368-1.172,0.984-2.197,1.83-3.086c1.048-0.674,2.2-0.928,3.438-0.827c1.133,0.498,2.045,1.267,2.774,2.262c0.145,0.589,0.285,1.181,0.424,1.772c-0.042,1.127-0.085,2.253-0.128,3.379c-0.968,1.04-1.985,2.029-3.046,2.976L84.482,77.033z"/>
<path fill="#2D0303" d="M90.962,55.305c-0.075,2.026-0.151,4.053-0.227,6.082c-1.059,1.083-2.253,1.26-3.584,0.53c-0.86-1.119-1.384-2.371-1.521-3.777c0.136-0.681,0.276-1.358,0.414-2.039c0.367-0.589,0.738-1.175,1.107-1.761c1.397-0.598,2.599-0.29,3.63,0.794L90.962,55.305z"/>
<path fill="#47281F" d="M90.762,64.475c-1.036,2.069-2.07,4.142-3.105,6.21l0.059-0.023c-1.789-1.904-1.9-4.025-0.829-6.309C88.214,63.264,89.508,63.249,90.762,64.475z"/>
<path fill="#1E0404" d="M90.762,64.475c-1.042,0.01-2.081,0.059-3.119,0.144c-0.729-1.09-0.722-2.173,0.021-3.253c1.024,0.003,2.05,0.009,3.071,0.019C90.759,62.416,90.768,63.444,90.762,64.475z"/>
<path fill="#452424" d="M84.483,77.04c1.017-0.992,2.033-1.987,3.048-2.979c0.041,0.942,0.038,1.883-0.013,2.822C86.506,76.935,85.494,76.988,84.483,77.04z"/>
<path fill="#422121" d="M31.597,21.321c-0.058,0.897-0.113,1.794-0.165,2.688c0,0-0.841,1.056-0.837,1.062c-0.765,0.525-1.61,0.827-2.528,0.931c0.003,0.021-1.349,0.168-1.349,0.168s-1.359-0.037-1.361-0.012c-0.922,0.018-1.816-0.138-2.689-0.427c-0.941-0.248-1.634-0.809-2.081-1.672c2.507-1.178,5.012-2.353,7.52-3.531c0.705-0.409,1.41-0.814,2.115-1.224C30.678,19.975,31.137,20.649,31.597,21.321z"/>
<path fill="#7A4545" d="M31.597,21.321c-1.165-0.263-2.327-0.528-3.491-0.794c0.154-0.952,0.183-1.907,0.088-2.865c2.148,0.14,4.297,0.278,6.445,0.418C33.624,19.163,32.61,20.243,31.597,21.321z"/>
<path fill="#260909" d="M15.3,23.643c1.555,0.149,3.108,0.299,4.663,0.448c-0.523,0.339-1.047,0.678-1.57,1.02c-0.623-0.019-1.247-0.034-1.869-0.052C16.117,24.589,15.709,24.116,15.3,23.643z"/>
<path fill="#4F0707" d="M15.943,27.318c-1.122-1.218-2.242-2.433-3.363-3.65c0.908-0.07,1.816-0.077,2.724-0.021c-0.003-0.003,0.484,0.21,0.484,0.21c0.398,0.562,0.796,1.12,1.195,1.682C16.635,26.13,16.289,26.725,15.943,27.318z"/>
<path fill="#AE6767" d="M19.963,24.092c0,0,0.627-0.033,0.625-0.033c-0.003,0,1.515-0.226,1.515-0.226c0.473,1.517,0.116,2.765-1.204,3.702c-0.74,0.003-1.476,0-2.219,0c-0.801-0.863-1.035-1.697-0.709-2.499c0.319-0.785,0.621-1.178,0.908-1.178L19.963,24.092z"/>
<path fill="#2D0707" d="M72.098,73.722c-0.04,1.104-0.078,2.206-0.118,3.311c-1.243,1.127-2.557,1.273-3.953,0.284c-1.952-2.716-2.054-5.606-0.805-8.618c0.879-1.288,2.088-2.008,3.664-2.063c1.419,0.613,2.339,1.669,2.751,3.161C73.704,71.33,73.162,72.63,72.098,73.722z"/>
<path fill="#502F2F" d="M72.098,73.722c-0.031-0.974-0.018-1.947,0.039-2.921c0.906-1.129,1.979-1.318,3.215-0.567c0.219,0.604,0.437,1.209,0.655,1.813c-0.3,0.567-0.599,1.139-0.897,1.706l-1.506,0.037L72.098,73.722z"/>
<path fill="#4E0A0A" d="M75.186,77.027c-0.024-1.093-0.05-2.182-0.076-3.274l0.026,0.11c0.551-0.425,1.102-0.852,1.655-1.276c0.659,0.238,1.315,0.477,1.975,0.715c0.845,1.306,0.711,2.545-0.261,3.72l-0.556-0.049C77.049,77.989,76.126,77.961,75.186,77.027z"/>
<path fill="#0E0404" d="M68.909,76.984c1.025-0.003,2.049,0.013,3.071,0.049c0,1.02,0.002,2.039,0.003,3.059c-1.127-0.003-2.255-0.003-3.383-0.007C67.862,78.969,67.965,77.933,68.909,76.984z"/>
<path fill="#1E0404" d="M75.186,77.027c0.923-0.027,1.847-0.043,2.767-0.055c0.196,1.047,0.123,2.072-0.23,3.079C76.873,79.042,76.03,78.034,75.186,77.027z"/>
<path fill="#4E2D2D" d="M56.482,89.472c-0.065,0.985-0.103,1.972-0.108,2.957c-2.075-0.985-4.148-1.972-6.224-2.957c-1.035-1.034-2.071-2.069-3.105-3.104c-0.236-0.559-0.475-1.117-0.712-1.682c0.355-1.212,1.042-2.182,2.06-2.933c1.737-0.864,3.565-1.08,5.472-0.803c1.246,0.317,2.344,0.922,3.321,1.749c0.69,1.089,1.061,2.279,1.12,3.564C58.05,87.531,57.442,88.602,56.482,89.472z"/>
<path fill="#653535" d="M47.044,86.369c-2.115,0.958-4.229,1.913-6.345,2.871c-0.684-1.059-0.712-2.117,0.017-3.174c0.917-0.777,1.964-1.27,3.159-1.431c1.225,0.119,2.202,0.665,2.893,1.696L47.044,86.369z"/>
<path fill="#6F4141" d="M40.9,86.207c-0.069,1.014-0.134,2.026-0.2,3.037c-0.978,0.161-1.96,0.231-2.952,0.207c-0.085-0.977-0.138-1.956-0.161-2.936c0,0,0.884-1.011,0.882-1.014c0-0.003,1.341-0.082,1.343-0.085C39.812,85.414,40.9,86.207,40.9,86.207z"/>
<path fill="#8F634E" d="M15.964,29.579c-0.053-0.754-0.061-1.508-0.023-2.261c0.002,0-0.195-0.363-0.195-0.363c1.082-1.129,2.148-1.114,3.197,0.046l-0.117-0.159c0.647,0.638,0.888,1.3,0.723,1.986c-0.167,0.696-0.351,1.044-0.551,1.044c-0.534,0.25-1.07,0.5-1.604,0.75C16.917,30.275,16.44,29.927,15.964,29.579z"/>
<path fill="#330505" d="M12.72,33.125c0.001-0.879,0.037-1.754,0.105-2.627c1.047-0.305,2.092-0.61,3.139-0.918l-0.3,0.903c0.375,0.528,0.752,1.056,1.127,1.587c-0.241,0.604-0.484,1.208-0.726,1.813c-0.626,0.18-1.251,0.357-1.878,0.541C13.697,33.991,13.208,33.558,12.72,33.125z"/>
<path fill="#321313" d="M18.938,58.018c1.018,0.21,2.044,0.28,3.082,0.213c3.72,3.946,3.542,7.993,0.309,12.116c-1.135,1.175-2.269,2.353-3.404,3.527c-0.562-0.04-1.122-0.076-1.685-0.109c-1.129-0.153-2.205-0.477-3.235-0.962c-1.01-0.567-1.814-1.343-2.425-2.325c-0.287-1.196,0.064-2.164,1.051-2.902c1.094-0.955,2.188-1.913,3.282-2.871c0.75-0.775,0.974-1.523,0.674-2.246c-0.294-0.708-0.575-1.063-0.844-1.063c0.005-1.022,0.101-2.032,0.287-3.036C16.867,57.115,17.842,57.056,18.938,58.018z"/>
<path fill="#6D3F39" d="M22.328,70.347c-0.104-4.041-0.206-8.078-0.31-12.116c0.001,0-0.037,0.034-0.037,0.034c1.018-1.142,2.22-1.328,3.589-0.696c0.992,1.011,1.689,2.197,2.153,3.534c0.33,1.373,0.422,2.768,0.348,4.178c-0.31,2.154-1.114,4.041-2.979,5.332l-1.396,0.006L22.328,70.347z"/>
<path fill="#500707" d="M25.093,70.613c0.151-2.082,0.302-4.16,0.452-6.241c1.143-0.553,2.223-0.424,3.262,0.287c0.819,0.896,1.412,1.926,1.81,3.076c0.315,1.184,0.453,2.386,0.483,3.613c-0.021,1.238-0.235,2.444-0.575,3.634c-0.269,0.556-0.554,1.103-0.83,1.657c-0.458,0.412-0.925,0.818-1.389,1.224c-0.605,0.116-1.213,0.229-1.82,0.346c-0.442-0.431-0.886-0.861-1.331-1.288C25.134,74.818,25.113,72.716,25.093,70.613z"/>
<path fill="#460404" d="M18.924,73.875c-1.036,1.038-2.072,2.072-3.107,3.106l-0.099-0.018c-0.456-0.522-0.914-1.041-1.373-1.563c0.284-0.635,0.569-1.27,0.854-1.904c1.301-0.837,2.505-0.712,3.608,0.369L18.924,73.875z"/>
<path fill="#420404" d="M25.097,80.113c-1.011-0.019-2.021-0.053-3.032-0.102c1.032-1.031,2.06-2.06,3.09-3.091l-0.011,0.088c1.068,0.705,1.416,1.401,1.048,2.085C25.827,79.774,25.464,80.113,25.097,80.113z"/>
<path fill="#150707" d="M25.097,80.113c0.029-1.035,0.044-2.069,0.047-3.104c1.041-0.049,2.082-0.066,3.122-0.058c0.687,0.714,0.908,1.419,0.666,2.118c-0.243,0.695-0.481,1.044-0.714,1.044l-1.561,0.003L25.097,80.113z"/>
<path fill="#4C2B2B" d="M28.218,80.113c0.017-1.054,0.032-2.109,0.049-3.162l-0.001,0.037c0.505-0.419,1.012-0.834,1.517-1.255c0.606,0.25,1.211,0.504,1.817,0.754c0.232,0.61,0.462,1.227,0.694,1.84c-0.261,0.599-0.523,1.2-0.786,1.804C30.412,80.125,29.315,80.119,28.218,80.113z"/>
<path fill="#720E0E" d="M31.517,83.961c-0.004-1.278-0.007-2.554-0.009-3.83l-0.098,0.024c1.099-0.833,2.177-0.806,3.238,0.083c0.261,0.573,0.517,1.145,0.776,1.721c-0.129,0.62-0.262,1.236-0.395,1.855C33.885,84.532,32.715,84.581,31.517,83.961z"/>
<path fill="#2C0606" d="M31.517,83.961c0.772-0.458,1.607-0.714,2.504-0.766c0.615,0.717,1.229,1.435,1.843,2.154c-0.871,0.366-1.742,0.732-2.614,1.099c-0.47-0.333-0.947-0.656-1.43-0.977C31.822,85.466,31.517,83.961,31.517,83.961z"/>
<path fill="#291111" d="M68.634,14.229c1.056,0.195,2.111,0.394,3.167,0.595c0.194,0.943,0.406,1.88,0.639,2.814c-0.292,0.842-0.49,1.706-0.593,2.591c-0.3,0.51-0.601,1.021-0.904,1.535c-1.104,0.531-2.268,0.72-3.49,0.631c-1.197-0.308-2.285-0.836-3.286-1.565c-1.422-1.285-2.367-2.838-2.663-4.754c0.083-1.331,0.753-2.271,1.928-2.872C65.269,13.005,67.14,12.66,68.634,14.229z"/>
<path fill="#532B2B" d="M81.538,20.851c-0.038,0.986-0.054,1.975-0.045,2.96c-2.122,1.068-4.246,2.133-6.368,3.202l0.114,0.091c-0.944,1.056-2.072,1.251-3.358,0.717c-0.927-0.946-1.456-2.087-1.651-3.388c0.146-1.315,0.675-2.444,1.651-3.351c0,0-0.031-0.845-0.032-0.852C75.077,20.436,78.308,20.643,81.538,20.851z"/>
<path fill="#4D2B29" d="M68.909,76.984c-0.149,1.029-0.252,2.063-0.305,3.101c-0.004,0-1.434,0-1.434,0l-1.43,0.007c-0.551-0.516-1.1-1.032-1.66-1.541c-2.013-3.455-2.156-7.199-1.737-11.042c0.354-2.291,1.184-4.376,2.755-6.121c1.947-1.489,4.027-1.755,6.244-0.629c0.442,0.589,0.89,1.184,1.335,1.773c-0.03,0.738-0.063,1.479-0.09,2.218c-0.996,1.103-2.136,2.033-3.413,2.796C69.085,70.692,68.997,73.839,68.909,76.984z"/>
<path fill="#4D2B29" d="M62.645,89.335l-1.543,0.113l-1.545-0.037c0.001,0-0.064,0.089-0.064,0.089c-1.028-0.971-1.514-2.164-1.46-3.576c0.049-0.678,0.099-1.355,0.147-2.036c0.239-0.638,0.482-1.272,0.719-1.916c0.87-1.071,1.929-1.911,3.165-2.524c1.378-0.396,2.634-0.152,3.764,0.735l-0.087-0.091c-0.108,1.999-0.217,3.997-0.326,5.99C64.488,87.165,63.567,88.249,62.645,89.335z"/>
<path fill="#341C1C" d="M12.83,36.293c-1.065,0.055-2.071-0.162-3.017-0.653c0.969-0.839,1.938-1.675,2.907-2.511c0-0.003-0.084,0.106-0.084,0.106c1.069,0.696,1.425,1.395,1.071,2.094c-0.352,0.699-0.708,1.047-1.066,1.047L12.83,36.293z"/>
<path fill="#6D4040" d="M12.631,67.576c0.017,1.047,0.032,2.091,0.049,3.135c0.449,0.53,0.897,1.062,1.348,1.596c-0.464,0.516-0.929,1.034-1.395,1.553c-1.039-1.001-2.08-2.002-3.119-2.999c0.006-2.134,0.014-4.27,0.02-6.403c0.975-0.049,1.944-0.146,2.907-0.299C12.505,65.297,12.567,66.438,12.631,67.576z"/>
<path fill="#1C0707" d="M15.662,73.927c0.044,1.014,0.064,2.023,0.058,3.037c-0.642-0.019-1.283-0.049-1.921-0.095c-0.386-1.001-0.775-2.005-1.166-3.01l0.04,0.04C13.681,72.624,14.678,72.572,15.662,73.927z"/>
<path fill="#200303" d="M87.8,45.695c0.984,0.009,1.969,0.021,2.953,0.034c0.052,2.014,0.104,4.025,0.157,6.037c0-0.004-0.066,0.112-0.066,0.112c-0.822,0.916-1.843,1.453-3.063,1.611c-1.272,0.104-2.254-0.381-2.943-1.459C85.825,49.919,86.813,47.806,87.8,45.695z"/>
<path fill="#5A3535" d="M78.505,77.021c0.042-1.083,0.087-2.167,0.129-3.25c0.811-0.922,1.608-0.958,2.389,0.036c0.108,1.065,0.215,2.127,0.321,3.192l-1.42-0.003L78.505,77.021z"/>
<path fill="#820D0D" d="M68.634,14.229c-1.886,0.049-3.772,0.098-5.658,0.146c-0.96-0.632-1.308-1.303-1.048-2.011c0.267-0.729,0.551-1.096,0.85-1.096c0,0,0.239-0.406,0.241-0.409c1.88,0.308,3.757,0.616,5.634,0.928C68.782,12.605,68.778,13.417,68.634,14.229z"/>
<path fill="#815542" d="M33.25,86.448c0.258-1.086,0.516-2.17,0.772-3.253c-0.002,0,0.926,0.106,0.926,0.106c1.002-0.656,1.973-0.58,2.913,0.135c0.728,0.998,0.606,1.922-0.246,2.783c0,0-0.027,0.293-0.027,0.296C36.142,86.494,34.697,86.469,33.25,86.448z"/>
<path fill="#6D4242" d="M87.872,52.046c0.991-0.043,1.981-0.101,2.972-0.168c-0.021,1.084-0.041,2.17-0.063,3.257c-1.102,0.033-2.204,0.069-3.308,0.106c-0.893-0.833-1.129-1.584-0.716-2.252C87.147,52.36,87.518,52.046,87.872,52.046z"/>
<path fill="#130404" d="M58.812,86.488c0.396,0.967,0.622,1.968,0.681,3.012c-1.006-0.009-2.01-0.019-3.012-0.027c-0.098-1.031,0.007-2.042,0.317-3.027C57.469,86.457,58.141,86.472,58.812,86.488z"/>
<path fill="#261313" d="M81.389,55.113c1.105-0.019,2.212-0.037,3.32-0.056c0.351,0.485,0.701,0.971,1.056,1.456c-0.13,1.248-0.708,2.246-1.669,3.04c-1.13,0.479-2.311,0.649-3.531,0.573c-0.569-0.198-1.137-0.406-1.708-0.607c-0.425-0.421-0.851-0.852-1.276-1.275c-0.222-1.221,0.011-2.344,0.761-3.345C79.415,54.109,80.432,54.178,81.389,55.113z"/>
<path fill="#120707" d="M75.101,42.509c-0.057,1.01-0.086,2.021-0.086,3.034c-0.969,0.903-2.016,0.964-3.134,0.29c-0.821-0.918-1.3-1.99-1.448-3.213c0.154-1.227,0.65-2.295,1.48-3.208c1.108-0.641,2.229-0.656,3.358-0.055C76.018,40.449,75.961,41.502,75.101,42.509z"/>
<path fill="#150909" d="M75.101,42.509c0.018-1.004,0.031-2.008,0.039-3.012c0,0,0.821-1.272,0.818-1.275c0.991-0.223,1.995-0.314,3.012-0.278c1.114,0.08,1.924,0.62,2.43,1.618l-0.073-0.095C79.251,40.48,77.176,41.496,75.101,42.509z"/>
<path fill="#3A1F1F" d="M71.825,45.674c1.063-0.042,2.129-0.085,3.192-0.128c0.024,1.074,0.052,2.154,0.077,3.231c0,0-1.203,0.995-1.203,0.998c-1.096,0.04-1.99-0.363-2.686-1.212c-0.067-0.516-0.132-1.034-0.199-1.553C71.279,46.565,71.551,46.119,71.825,45.674z"/>
<path fill="#6D4242" d="M75.094,48.777c1.036,1.041,2.074,2.081,3.11,3.122l-1.192,0.943c-1.116-0.003-1.974-0.477-2.57-1.419c-0.002,0-0.398-1.472-0.398-1.472l1.159-0.985L75.094,48.777z"/>
<path fill="#190D0D" d="M81.389,55.113l-1.56-0.003H78.27c-0.332-0.485-0.665-0.974-0.996-1.462c0.366-0.464,0.732-0.925,1.099-1.389l-0.169-0.36C79.265,52.97,80.327,54.042,81.389,55.113z"/>
<path fill="#050505" d="M87.872,52.046c-0.133,1.065-0.266,2.127-0.398,3.192c0,0.003,0.185-0.181,0.185-0.181c-1.038,1.557-2.089,1.496-3.154,0.028c0,0,0.201-0.028,0.203-0.028c-0.087-1.013-0.046-2.022,0.127-3.027C85.849,52.012,86.861,52.015,87.872,52.046z"/>
<path fill="#271414" d="M75.14,39.497c-1.018,0-2.035,0.006-3.055,0.019c-0.601-0.229-1.202-0.458-1.807-0.687c-0.952-0.9-1.631-1.972-2-3.235c0.063-1.346,0.632-2.445,1.628-3.333c1.923-0.849,3.689-0.778,5.184,0.888c0.015,1.071,0.031,2.143,0.047,3.214c1.142,0.692,1.52,1.388,1.142,2.084c-0.377,0.693-0.756,1.041-1.14,1.041L75.14,39.497z"/>
<path fill="#590606" d="M71.896,26.86c1.114,0.083,2.229,0.162,3.344,0.244c-0.072,1.044-0.144,2.087-0.217,3.131c-1.52,1.66-3.343,1.41-5.219,0.83c-0.912-0.958-1.306-2.084-1.103-3.403C69.557,26.57,70.622,26.301,71.896,26.86z"/>
<path fill="#402121" d="M81.4,39.561c-1.047-0.024-2.093-0.049-3.139-0.073c-0.918-0.693-1.225-1.386-0.919-2.082c0.304-0.693,0.608-1.041,0.915-1.041c0.045-1.077,0.091-2.155,0.135-3.235c0.947-0.894,1.902-0.903,2.865-0.024C81.305,35.258,81.352,37.409,81.4,39.561z"/>
<path fill="#901111" d="M68.971,29.432c2.019,0.266,4.036,0.531,6.053,0.799c0.144,0.971,0.167,1.944,0.066,2.921c-2.048,0.253-4.096,0.509-6.144,0.766c-0.354-0.46-0.706-0.921-1.062-1.379c0.001-0.58,0.003-1.16,0.004-1.742C68.247,30.342,68.61,29.887,68.971,29.432z"/>
<path fill="#0C0505" d="M78.257,36.366c0.005,1.041,0.007,2.081,0.005,3.122c-0.001,0-1.563,0-1.563,0h-1.563c0-1.041,0-2.084,0-3.125C76.178,36.36,77.217,36.363,78.257,36.366z"/>
<path fill="#623A3A" d="M81.257,33.107l-1.434,0.095c0,0-1.435-0.067-1.434-0.07c1.032-1.028,2.061-2.06,3.09-3.088C81.422,31.065,81.347,32.087,81.257,33.107z"/>
<path fill="#542C2A" d="M12.642,55.116c-0.001-1.041-0.003-2.085-0.007-3.128c1.041,0,2.084,0,3.129,0c-0.001,1.043-0.001,2.084-0.001,3.125c-0.001,0.003-1.561,0-1.561,0L12.642,55.116z"/>
<path fill="#542C2A" d="M18.938,58.018c-0.974,0.088-1.944,0.201-2.908,0.342c-0.113-1.081-0.228-2.158-0.342-3.235C16.771,56.09,17.854,57.053,18.938,58.018z"/>
<path fill="#6F4338" d="M15.744,61.396c0.408,0.757,0.91,1.483,1.16,2.292c0.067,0.214-0.641,0.668-0.992,1.017C15.857,63.602,15.801,62.498,15.744,61.396z"/>
<path fill="#321818" d="M25.18,58.393c-1.065-0.043-2.131-0.085-3.198-0.128c0.24-1.09,0.479-2.176,0.72-3.266c0.818-0.964,1.848-1.459,3.125-1.41c1.192,0.349,2.178,0.998,2.93,1.993c0.383,1.208,0.246,2.347-0.49,3.396C27.078,59.636,26.056,59.4,25.18,58.393z"/>
<path fill="#251212" d="M25.096,55.103c-0.802-0.006-1.604-0.039-2.398-0.104c-0.218-1.034-0.441-2.072-0.664-3.106l-0.131,0.125c1-0.961,2.049-0.974,3.143-0.168C25.877,52.922,25.853,54.008,25.096,55.103z"/>
<path fill="#673C3C" d="M25.093,51.866c-1.063,0.052-2.127,0.101-3.19,0.152c0.064-1.022-0.008-2.039-0.214-3.043c-0.946-1.089-1.889-2.182-2.832-3.271c0.017-2.087,0.035-4.175,0.052-6.262c0.896-1.001,2.011-1.557,3.354-1.672c1.32,0.223,2.49,0.766,3.525,1.617c0.845,1.041,1.469,2.197,1.874,3.479c0.296,1.31,0.385,2.637,0.307,3.977c-0.206,1.33-0.647,2.585-1.328,3.751C26.129,51.02,25.61,51.444,25.093,51.866z"/>
<path fill="#391C1C" d="M18.626,36.525c-1.004,0.034-2-0.034-2.992-0.208c0-0.003,0.127,0.058,0.127,0.058c-0.833-0.696-1.111-1.392-0.835-2.084c0.276-0.696,0.554-1.044,0.833-1.044l0.052-0.36c1.016-0.818,2.17-1.272,3.482-1.309c1.283,0.296,2.334,0.961,3.155,1.993c0.466,1.272,0.321,2.475-0.432,3.604C20.737,37.742,19.598,37.565,18.626,36.525z"/>
<path fill="#610A0A" d="M18.626,36.525c0.979-0.113,1.958-0.168,2.942-0.168c0.87,0.568,1.23,1.218,1.081,1.941c-0.157,0.766-0.359,1.147-0.607,1.147c-1.043,0-2.089,0-3.132-0.003C18.848,38.466,18.753,37.495,18.626,36.525z"/>
<path fill="#653B3B" d="M15.76,33.247c0.003,1.038,0.004,2.079,0.001,3.122c-1.041-0.006-2.083-0.009-3.122,0c0-1.038,0-2.084-0.001-3.131C13.678,33.235,14.719,33.238,15.76,33.247z"/>
<path fill="#6B3D3D" d="M53.305,14.479c-0.02-1.022-0.052-2.042-0.093-3.061c1.056-0.116,2.11-0.232,3.166-0.351c0-0.006,0.236,0.503,0.236,0.503c0.563,1.043,0.494,2.02-0.301,2.92C55.31,15.098,54.306,15.095,53.305,14.479z"/>
<path fill="#9F5E5E" d="M56.511,14.387c-0.052-0.943-0.021-1.883,0.102-2.817c1.014-0.284,2.026-0.571,3.038-0.861l-0.169,1.096c0.835,0.586,1.199,1.254,1.093,2.011c-0.113,0.799-0.284,1.199-0.51,1.199c-0.632,0.134-1.269,0.269-1.903,0.403C57.613,15.074,57.062,14.732,56.511,14.387z"/>
<path fill="#C17373" d="M59.365,14.744c0.106-0.977,0.145-1.959,0.117-2.942c1.099-0.177,2.197-0.354,3.296-0.534c0.065,1.038,0.131,2.075,0.198,3.11c0.086,1.056,0.169,2.115,0.255,3.174c0,0-1.21,0.964-1.212,0.964c-1.126,0.177-2.062-0.168-2.808-1.032C58.288,16.517,58.34,15.605,59.365,14.744z"/>
<path fill="#874F4F" d="M53.305,14.479c1.068-0.03,2.136-0.061,3.204-0.091c0.002,0-0.125,0.094-0.125,0.094c0.717,1.328,0.556,2.539-0.483,3.638c-2.004,1.09-3.905,1.05-5.669-0.509c-0.06-1.038-0.095-2.075-0.108-3.113C51.184,14.491,52.244,14.485,53.305,14.479z"/>
<path fill="#A55959" d="M37.764,23.927c0.87-1.105,1.741-2.207,2.612-3.311c0.867-0.87,1.896-1.23,3.119-0.995c0.412,0.415,0.823,0.83,1.236,1.245c0.143,1.196-0.104,2.301-0.795,3.296c-0.923,0.76-1.982,1.203-3.169,1.337c-0.571-0.125-1.143-0.253-1.715-0.382C38.623,24.723,38.193,24.323,37.764,23.927z"/>
<path fill="#AE7259" d="M43.199,20.811c-0.938-0.07-1.877-0.134-2.82-0.192c0.183-1.019,0.365-2.036,0.546-3.052c0.913,0.031,1.822,0.088,2.728,0.174c-0.001,0,0.531-0.326,0.531-0.326C45.021,18.886,44.635,19.999,43.199,20.811z"/>
<path fill="#673A3A" d="M31.431,24.01c1.105,0.116,2.209,0.232,3.314,0.351c0.369,1.105,0.148,2.054-0.758,2.82c-1.109,0.302-2.11,0.092-3.008-0.625c-0.684-1.035-0.534-1.932,0.446-2.691L31.431,24.01z"/>
<path fill="#874F4F" d="M34.607,26.768c-0.033-0.809,0.011-1.615,0.138-2.414c0.99-0.256,1.996-0.403,3.02-0.43c0,0.003-0.139-0.183-0.139-0.183c0.687,0.628,0.943,1.285,0.771,1.968c-0.177,0.696-0.37,1.043-0.58,1.043c-0.532,0.269-1.066,0.534-1.601,0.803C35.68,27.293,35.144,27.031,34.607,26.768z"/>
<path fill="#532A2A" d="M43.199,20.811c0.33-1.132,0.658-2.265,0.986-3.396c2.016,0.067,4.031,0.131,6.047,0.195c2.112-0.021,4.224-0.043,6.334-0.064c0.282,0.485,0.564,0.974,0.852,1.456c-0.062,1.138-0.368,2.203-0.941,3.189c-0.684,0.894-1.502,1.645-2.451,2.249c-1.013,0.47-2.087,0.689-3.204,0.689c-1.63-0.293-3.087-0.998-4.443-1.932c-0.783-0.723-1.427-1.568-1.958-2.502L43.199,20.811z"/>
<path fill="#2F1919" d="M81.207,58.329c1.12-0.036,2.238-0.069,3.358-0.106c0.994-1.254,2.005-1.267,3.031-0.043c0.023,1.063,0.045,2.124,0.067,3.187c-0.006,1.083-0.014,2.167-0.021,3.253c0.024,2.015,0.048,4.028,0.07,6.043c-1.094-1.065-2.189-2.131-3.285-3.195c-1.438-1.193-2.963-2.305-3.863-4.02c-0.211-0.592-0.406-1.188-0.61-1.782C79.83,60.352,80.278,59.248,81.207,58.329z"/>
<path fill="#0E0404" d="M81.775,61.549c0.885,1.975,1.77,3.946,2.653,5.918c-1.009,0.049-2.019,0.088-3.028,0.115c-0.408-0.451-0.816-0.903-1.226-1.354C79.681,64.317,79.924,62.657,81.775,61.549z"/>
<path fill="#150909" d="M81.4,67.582c-0.037,1.123-0.073,2.243-0.11,3.366c-1.294,0.656-2.411,0.467-3.323-0.695c0.095-2.252,0.772-3.748,3.444-2.637L81.4,67.582z"/>
<path fill="#623A3A" d="M78.212,70.955c1.026-0.104,2.052-0.107,3.079-0.01c0.012,0.965-0.075,1.92-0.266,2.865c-0.003-0.003-1.201,0.01-1.201,0.01s-1.196-0.046-1.193-0.049c0.003,0-0.378,0.092-0.378,0.092c-0.447-0.479-0.895-0.959-1.346-1.435C77.337,71.937,77.776,71.446,78.212,70.955z"/>
<path fill="#6A3F3F" d="M87.597,58.179c-1.013,0.043-2.026,0.059-3.036,0.043c-0.016-1.044-0.035-2.087-0.055-3.134c1.05-0.01,2.1-0.016,3.15-0.027C87.65,56.098,87.629,57.139,87.597,58.179z"/>
<path fill="#300808" d="M18.915,30.113c-0.03-1.09-0.061-2.182-0.09-3.271c1.092-1.004,2.187-2.005,3.279-3.009c1.12,0.031,2.24,0.058,3.358,0.088c0.87,0.961,1.398,2.082,1.59,3.366c-0.122,1.294-0.551,2.469-1.323,3.519c-1.071,0.754-2.264,1.105-3.572,1.056c-0.621-0.141-1.242-0.284-1.863-0.424C19.835,30.998,19.374,30.555,18.915,30.113z"/>
<path fill="#A95C5C" d="M25.212,26.826c-0.217-0.995-0.133-1.962,0.25-2.905c0.911,0.085,1.82,0.07,2.727-0.045c0.906,0.647,1.298,1.385,1.181,2.215c-0.125,0.873-0.311,1.309-0.558,1.309C27.458,28.184,26.251,28.041,25.212,26.826z"/>
<path fill="#1C0909" d="M28.137,26.936c0.101-1.019,0.119-2.039,0.054-3.064c1.076-0.003,2.154-0.006,3.233-0.009c-0.012,1.043-0.024,2.084-0.038,3.125c-0.546,0.259-1.091,0.519-1.638,0.781C29.211,27.494,28.674,27.217,28.137,26.936z"/>
<path fill="#3F1E1E" d="M18.942,27c-1.063-0.012-2.127-0.024-3.193-0.04c0.007-1.038,0.02-2.069,0.033-3.104c1.036,0.006,2.068,0.006,3.099,0.003C18.901,24.907,18.923,25.953,18.942,27z"/>
<path fill="#3E2121" d="M81.41,67.616c-1.065,1.11-2.131,2.222-3.197,3.335c-0.001,0.004,0.057-0.213,0.057-0.213c-1.042,1.303-2.084,1.238-3.128,0c-1.003-0.01-2.005,0.009-3.005,0.063c-0.115-1.086-0.231-2.17-0.348-3.253c-0.697-0.546-0.934-1.096-0.711-1.654c0.223-0.558,0.448-0.839,0.679-0.839l0.411-0.912c0.714-0.959,1.053-2.036,1.005-3.235c0.312-1.163,0.889-2.164,1.764-2.99c1.087-0.659,2.178-0.639,3.271-0.024l0.257,0.714c1.01,0.692,1.867,1.541,2.594,2.523c0,0,0.71,0.415,0.713,0.418C81.655,63.572,81.533,65.593,81.41,67.616z"/>
<path fill="#230303" d="M71.757,65.055c0.119,0.83,0.132,1.66,0.035,2.493c-0.003,0-1.313,0.021-1.313,0.021s-1.311-0.024-1.308-0.024C70.035,66.716,70.897,65.886,71.757,65.055z"/>
<path fill="#0E0404" d="M75.142,70.738c1.04,0,2.079,0,3.125,0c-0.005,1.04-0.008,2.084-0.01,3.125c-1.043,0-2.081,0-3.121,0C75.137,72.822,75.14,71.781,75.142,70.738z"/>
<path fill="#251212" d="M53.421,82.75c-2.181,0.253-4.362,0.509-6.543,0.763c-0.272-0.537-0.543-1.071-0.818-1.611c0.05-1.23,0.403-2.368,1.045-3.421c0.795-0.943,1.748-1.688,2.847-2.253c1.206-0.351,2.398-0.302,3.575,0.138c0.838,0.925,1.356,2.002,1.513,3.247C54.904,80.866,54.364,81.91,53.421,82.75z"/>
<path fill="#150909" d="M53.421,82.75c-0.069-0.834-0.11-1.67-0.124-2.506c0.699-1.05,1.673-1.666,2.919-1.858c1.229,0.141,2.315,0.61,3.264,1.4c0.727,1.093,0.707,2.173-0.06,3.238l-0.152,0.109c-0.897,1.392-1.837,1.358-2.815,0.086C55.423,83.192,54.411,83.036,53.421,82.75z"/>
<path fill="#693B2E" d="M46.768,86.332l-1.481,0.01l-1.481-0.013c-0.765-1.053-0.745-2.094,0.061-3.119c1.042-0.763,2.1-0.781,3.17-0.058c0,0-0.155,0.354-0.157,0.357C46.952,84.455,46.914,85.395,46.768,86.332z"/>
<path fill="#190D0D" d="M56.452,83.219c0.941-0.003,1.882-0.03,2.817-0.083c-0.149,1.114-0.299,2.231-0.452,3.352c-0.006,0-1.016-0.046-1.016-0.046s-1.012,0-1.008,0C56.683,85.371,56.569,84.294,56.452,83.219z"/>
<path fill="#430404" d="M43.845,83.182c-0.012,1.05-0.024,2.1-0.038,3.146c-0.974,0.027-1.944-0.012-2.908-0.122c0.001,0-0.092,0.135-0.092,0.135c-0.639-0.626-0.873-1.272-0.7-1.938c0.175-0.674,0.363-1.013,0.562-1.013c0.513-0.266,1.028-0.528,1.544-0.791C42.755,82.792,43.3,82.987,43.845,83.182z"/>
<path fill="#754545" d="M40.916,83.238c-0.091,1.031-0.128,2.065-0.11,3.104c-1.063-0.04-2.127-0.08-3.19-0.122c0.006-0.998-0.003-1.993-0.029-2.991c0,0,0.995-0.897,0.995-0.9c-0.001-0.003,1.343,0.007,1.343,0.003C39.925,82.328,40.916,83.238,40.916,83.238z"/>
<path fill="#150707" d="M18.857,33.235c-1.028-0.003-2.043-0.119-3.047-0.345c-0.043-0.806-0.092-1.608-0.146-2.411c1.083-0.119,2.167-0.244,3.25-0.366c0.001,0-0.104,0-0.104,0c1.117,0.677,1.496,1.364,1.139,2.066C19.589,32.884,19.226,33.235,18.857,33.235z"/>
<path fill="#492525" d="M15.662,73.927l-1.496-0.033L12.672,73.9c0.003-1.062,0.004-2.127,0.007-3.188c1.036,0.098,2.074,0.18,3.113,0.24c0.711,0.623,0.946,1.242,0.708,1.862c-0.236,0.616-0.473,0.928-0.711,0.928L15.662,73.927z"/>
<path fill="#5C0909" d="M15.79,73.741c-0.017-0.932-0.015-1.862,0.003-2.79c1.006,0.974,2.011,1.944,3.017,2.915C17.801,73.859,16.794,73.817,15.79,73.741z"/>
<path fill="#7B4242" d="M25.18,58.393c1.022-0.104,2.048-0.128,3.075-0.076c0.623,1.031,0.58,2.057-0.029,3.079c-0.914,0.809-1.908,0.919-2.977,0.33C25.226,60.615,25.203,59.505,25.18,58.393z"/>
<path fill="#340505" d="M25.249,61.726c0.979-0.232,1.968-0.293,2.968-0.181c0,0,0.893,0.885,0.894,0.885s-0.064,1.258-0.063,1.258l-1.07,0.668l-1.219,0.049c0,0-1.221-0.03-1.218-0.033C25.333,63.502,25.234,62.62,25.249,61.726z"/>
<path fill="#592F2F" d="M28.45,70.918c0.006-1.196,0.014-2.39,0.02-3.583c1.3-1.165,1.382-2.746,1.48-4.327c0.148-0.513,0.299-1.022,0.449-1.538c0.41-0.348,0.819-0.689,1.231-1.037c1.099-0.122,2.127,0.076,3.082,0.641c0.803,0.738,1.431,1.608,1.912,2.588c0.438,0.985,0.786,2.008,1.104,3.042c0.563,1.551,1.085,3.11,1.376,4.749c0.042,1.147-0.186,2.24-0.655,3.29c-0.996,1.465-2.325,2.502-3.981,3.131c-1.184,0.195-2.22-0.116-3.106-0.928l0.026,0.039c-0.905-0.799-1.409-1.8-1.517-3.003C29.759,72.795,29.303,71.763,28.45,70.918z"/>
<path fill="#A97E63" d="M31.11,64.714c-0.88,0.873-1.761,1.745-2.64,2.621c-0.116-1.001-0.279-1.995-0.492-2.979l0.667,0.349C29.472,62.983,30.293,63.072,31.11,64.714z"/>
<path fill="#754545" d="M28.45,70.918c0.979,0.979,1.958,1.959,2.938,2.941c-1.044,1.13-2.083,1.179-3.118-0.012C28.313,72.868,28.372,71.891,28.45,70.918z"/>
<path fill="#421717" d="M28.27,73.847c1.039,0.012,2.079,0.019,3.118,0.012c0,1.041,0,2.085,0.001,3.129c-1.042,0-2.084,0-3.125,0C28.267,75.941,28.268,74.894,28.27,73.847z"/>
<path fill="#140707" d="M31.363,76.945c1.043,0.021,2.087,0.043,3.132,0.063c0,0,0.868,0.983,0.872,0.983c0.003,0-0.098,1.309-0.095,1.309c0.001,0-1.175,0.589-1.175,0.589c-0.893,0.132-1.789,0.22-2.689,0.266C31.393,79.084,31.378,78.013,31.363,76.945z"/>
<path fill="#834E4E" d="M37.587,83.228c-0.883,0.003-1.765,0.027-2.643,0.073c-0.278-1.138-0.559-2.273-0.844-3.412c-0.003,0,0.589,0.235,0.589,0.235c1.038-0.769,2.059-0.711,3.065,0.064c0.769,1.034,0.742,2.051-0.081,3.042L37.587,83.228z"/>
<path fill="#965151" d="M63.231,17.552c0.881,1.025,1.761,2.048,2.643,3.073c0,0-1.17,0.91-1.172,0.91c-1.078,0.125-1.97-0.229-2.675-1.053c-0.758-0.836-0.906-1.77-0.445-2.798C62.118,17.494,62.669,17.451,63.231,17.552z"/>
<path fill="#915656" d="M65.873,20.625c1.038,0.199,2.077,0.4,3.114,0.602c0.411,0.467,0.819,0.934,1.231,1.397c-0.272,0.556-0.549,1.114-0.822,1.669c-1.181,0.555-2.328,0.485-3.437-0.205c-0.607-0.687-0.848-1.401-0.722-2.146c0.128-0.76,0.284-1.138,0.466-1.138L65.873,20.625z"/>
<path fill="#A76363" d="M68.973,23.747c-0.023-0.839-0.018-1.682,0.015-2.523c0.951-0.351,1.915-0.4,2.895-0.141c0.024,0.897-0.009,1.794-0.099,2.686C70.835,25.129,69.899,25.123,68.973,23.747z"/>
<path fill="#945744" d="M68.973,23.747c0.938,0.092,1.878,0.098,2.813,0.024c0.22,1.022,0.258,2.054,0.111,3.091c-1.015,0.095-2.029,0.18-3.046,0.253c-0.326-0.522-0.653-1.041-0.982-1.56c0.312-0.528,0.624-1.056,0.938-1.583L68.973,23.747z"/>
<path fill="#221010" d="M71.879,61.25c-2.1,0.149-4.197,0.299-6.297,0.448c-0.292-0.506-0.583-1.016-0.882-1.525c-0.108-1.19-0.008-2.362,0.304-3.521c0.355-1.157,0.854-2.249,1.452-3.303c0.681-1.031,1.544-1.873,2.604-2.515c0.607-0.085,1.214-0.161,1.824-0.24c1.182,0.451,2.1,1.221,2.763,2.298c0.871,1.764,0.853,3.567,0.24,5.396c-0.193,0.589-0.391,1.178-0.587,1.764C72.827,60.45,72.354,60.85,71.879,61.25z"/>
<path fill="#110606" d="M65.827,80.182c-1.069-0.052-2.138-0.101-3.207-0.149c-0.507-0.476-1.012-0.952-1.521-1.428c-1.56-2.558-1.649-5.298-1.037-8.133c0.446-1.349,1.17-2.536,2.18-3.54c1.42-0.599,2.588-0.312,3.464,0.998C65.745,72.013,65.786,76.096,65.827,80.182z"/>
<path fill="#623A3A" d="M65.705,67.93c-0.988-0.202-1.988-0.33-2.995-0.385c-0.96-0.812-1.519-1.84-1.68-3.085c0.133-1.242,0.63-2.323,1.436-3.269c1.087-0.721,2.211-0.745,3.363-0.165c0,0-0.244,0.668-0.246,0.668C65.623,63.777,65.664,65.852,65.705,67.93z"/>
<path fill="#745644" d="M74.936,61.531c-0.923,0.872-1.847,1.745-2.77,2.615c-0.116-0.965-0.211-1.929-0.287-2.894c0-0.003,0.143,0.122,0.143,0.122C73.077,59.867,74.049,59.92,74.936,61.531z"/>
<path fill="#190D0D" d="M59.42,83.024c0.075-0.9,0.133-1.804,0.171-2.71c0.496-0.455,0.994-0.909,1.489-1.364c0.544,0.399,1.085,0.8,1.629,1.196c0,0-0.089-0.11-0.089-0.113C61.554,81.031,60.488,82.029,59.42,83.024z"/>
<path fill="#170404" d="M78.208,57.893c-1.046,0.143-2.095,0.286-3.143,0.433c-0.391-0.421-0.783-0.842-1.175-1.263c0.03-1.2,0.486-2.204,1.368-3.019c1.221-0.26,2.214,0.104,2.984,1.08l0.027-0.015C78.261,56.038,78.241,56.966,78.208,57.893z"/>
<path fill="#604233" d="M81.059,61.131c-0.865-0.842-1.731-1.688-2.596-2.526c0.902-0.241,1.817-0.333,2.745-0.275C81.316,59.272,81.267,60.206,81.059,61.131z"/>
<path fill="#5E3A36" d="M71.858,42.817c0.076,0.956,0.066,1.908-0.031,2.856c-0.002,0,0.149-0.091,0.149-0.091c-0.841,1.089-1.939,1.749-3.299,1.98c-1.366-0.112-2.585-0.592-3.664-1.437c-0.686-1.187-1.003-2.466-0.965-3.836c0.347-1.328,1.044-2.438,2.082-3.333c0.641-0.189,1.284-0.375,1.926-0.564c0.573,0.339,1.151,0.677,1.727,1.013C70.43,40.568,71.122,41.706,71.858,42.817z"/>
<path fill="#2F0303" d="M71.858,42.817c-1.008-1.102-2.016-2.203-3.024-3.305c1.011-1.358,2.048-1.313,3.11-0.061c0,0,0.141,0.064,0.142,0.064C72.011,40.617,71.934,41.719,71.858,42.817z"/>
<path fill="#140707" d="M69.148,45.933c0.936-0.174,1.879-0.29,2.828-0.351c0.111,1.168,0.224,2.337,0.337,3.506c0.746,0.708,0.958,1.373,0.636,1.989c-0.311,0.593-0.605,0.889-0.886,0.889l-1.527,0.003l-1.527-0.03C67.325,49.897,66.996,47.886,69.148,45.933z"/>
<path fill="#5D3737" d="M72.063,51.967c-0.023-0.971,0.058-1.932,0.247-2.881c0.961-0.132,1.924-0.171,2.892-0.122c-0.049,0.934-0.09,1.864-0.121,2.798c-0.475,0.51-0.949,1.017-1.424,1.529c-0.526-0.451-1.054-0.909-1.582-1.364L72.063,51.967z"/>
<path fill="#340404" d="M78.243,55.125l-1.542-0.006l-1.545,0.003c-0.937-0.681-1.243-1.354-0.924-2.023c0.317-0.665,0.635-0.998,0.952-0.998c0,0-0.103-0.335-0.103-0.339c1.096,0.165,2.194,0.33,3.291,0.498C78.306,53.215,78.262,54.17,78.243,55.125z"/>
<path fill="#5A0606" d="M68.947,33.918c-0.049,0.809-0.089,1.618-0.119,2.426c0,0-1.176,0.931-1.178,0.931c-1.131-0.064-1.91-0.619-2.342-1.666c-0.332-1.089-0.078-2.017,0.755-2.79c0.898-0.906,1.802-0.912,2.712-0.015L68.947,33.918z"/>
<path fill="#420707" d="M71.944,39.451c-1.036,0.024-2.072,0.045-3.11,0.061L68.807,39.6c-0.894-0.754-1.179-1.492-0.858-2.216c0.317-0.714,0.628-1.074,0.938-1.074l-0.059,0.034C69.866,37.379,70.905,38.417,71.944,39.451z"/>
<path fill="#321919" d="M68.852,27.116c0.016,0.775,0.054,1.55,0.118,2.319c0.001-0.003-0.281,0.998-0.281,0.998c-1.047,0.913-2.14,1.01-3.28,0.18c-0.502-1.23-0.385-2.417,0.266-3.562c1.046-0.894,2.152-0.971,3.316-0.235L68.852,27.116z"/>
<path fill="#D88181" d="M65.96,30.378c0.916-0.241,1.827-0.226,2.73,0.052c0.15,0.79,0.178,1.583,0.082,2.377c0.002-0.003-1.418,0.296-1.418,0.296l-1.434-0.202c0,0-0.846-1.275-0.849-1.275C65.071,31.627,65.96,30.378,65.96,30.378z"/>
<path fill="#492929" d="M28.217,61.546c0.012-1.077,0.026-2.154,0.038-3.229c-0.095-1.05-0.189-2.097-0.284-3.144c0.43-0.302,0.862-0.604,1.295-0.909c1.089,0.064,2.036,0.461,2.847,1.193c0.601,0.906,0.96,1.892,1.048,2.979c-0.136,1.104-0.667,1.972-1.588,2.6l-0.464,0.8c-1.14,0.665-2.144,0.501-3.011-0.494L28.217,61.546z"/>
<path fill="#371D1D" d="M25.096,55.103c0-1.077-0.001-2.154-0.003-3.234c0-0.003,0.003,0.112,0.003,0.112c0.977-0.899,1.999-0.912,3.06-0.155c0.567,0.665,0.801,1.361,0.7,2.088c-0.102,0.744-0.236,1.116-0.401,1.116c0,0-0.476,0.141-0.48,0.141C27.013,55.135,26.055,55.11,25.096,55.103z"/>
<path fill="#180707" d="M28.145,51.912c-1.018-0.016-2.032,0.006-3.049,0.069c0.026-2.02,0.052-4.043,0.078-6.066c1.303-0.775,2.505-0.641,3.612,0.394c0.668,1.251,0.879,2.576,0.635,3.974C28.996,50.825,28.571,51.368,28.145,51.912z"/>
<path fill="#8F5555" d="M22.041,39.445c-0.156-1.028-0.313-2.06-0.471-3.088c0.294-0.992,0.512-2.002,0.651-3.027c0.368-0.437,0.735-0.87,1.104-1.309c1.203,0.003,2.174,0.491,2.954,1.395c0.502,1.056,0.694,2.17,0.632,3.333c-0.197,0.537-0.401,1.074-0.603,1.614c-0.453,0.351-0.908,0.702-1.363,1.053l-1.453,0.067L22.041,39.445z"/>
<path fill="#460404" d="M25.179,42.402c0.052-1.004-0.026-2.002-0.232-2.987l0.502,0.208c0.542-0.406,1.083-0.809,1.628-1.212c0.592,0.333,1.182,0.663,1.776,0.998c0.472,1.355,0.348,2.649-0.369,3.891C27.103,44.02,25.989,43.766,25.179,42.402z"/>
<path fill="#815542" d="M25.179,42.402c0.969,0.156,1.939,0.29,2.915,0.406c0.294,0.455,0.589,0.912,0.888,1.367c-0.258,0.479-0.518,0.955-0.778,1.434c-1.013,0.07-2.023,0.168-3.029,0.302C25.176,44.743,25.177,43.574,25.179,42.402z"/>
<path fill="#552C2C" d="M18.857,33.235c-0.017-1.041-0.032-2.081-0.047-3.122c1.029,0.055,2.056,0.101,3.085,0.137c1.134,0.635,1.537,1.309,1.208,2.026c-0.334,0.732-0.681,1.102-1.041,1.102c0,0,0.154-0.049,0.157-0.049C21.1,33.299,19.978,33.268,18.857,33.235z"/>
<path fill="#210909" d="M56.566,17.546c-0.125-1.016-0.188-2.039-0.182-3.064c1.003-0.012,1.996,0.077,2.981,0.263c0.232,0.931,0.257,1.865,0.068,2.805c-0.524,0.36-1.051,0.72-1.577,1.08c-0.504-0.388-1.006-0.781-1.509-1.175L56.566,17.546z"/>
<path fill="#D88181" d="M61.581,17.683c0.38,1.038,0.76,2.072,1.139,3.109l-1.326,0.751c-1.123,0.006-1.99-0.461-2.604-1.401c-0.707-1.099-0.499-1.987,0.622-2.661l0.022,0.067C60.144,17.683,60.86,17.726,61.581,17.683z"/>
<path fill="#5B0606" d="M37.608,26.957c0.006-1.071,0.011-2.146,0.017-3.216c1.031,0.189,2.061,0.381,3.091,0.57c0.604,0.98,0.526,1.901-0.23,2.765c-0.488,0.195-0.977,0.388-1.466,0.583C38.55,27.424,38.078,27.192,37.608,26.957z"/>
<path fill="#6C0909" d="M40.797,26.866c-0.018-0.854-0.044-1.706-0.081-2.558c1.111-0.091,2.222-0.186,3.333-0.281c0,0,0.799,1.3,0.801,1.3c0.156,1.181-0.311,2.017-1.395,2.511c0.001,0-1.529,0.058-1.529,0.058L40.797,26.866z"/>
<path fill="#460707" d="M44.42,20.695c0.943,0.067,1.888,0.11,2.832,0.125c0.351,0.589,0.702,1.175,1.057,1.764c-0.304,0.61-0.61,1.224-0.914,1.837c-1.317,0.729-2.489,0.537-3.511-0.57c0,0,0.164,0.171,0.164,0.174C44.173,22.917,44.296,21.806,44.42,20.695z"/>
<path fill="#1C0909" d="M31.386,26.988c1.074-0.07,2.146-0.144,3.221-0.217c0-0.003-0.189,0.421-0.189,0.421c0.734,1.142,0.628,2.197-0.32,3.171c-0.589,0.18-1.177,0.357-1.767,0.537c-0.552-0.274-1.103-0.552-1.654-0.83c-0.653-1.233-0.371-2.249,0.711-3.082H31.386z"/>
<path fill="#5A0606" d="M34.502,30.153c0.004-0.989-0.023-1.978-0.084-2.963c1.063-0.076,2.127-0.152,3.19-0.232l-0.02-0.018c0.662,0.638,0.905,1.294,0.73,1.971c-0.178,0.69-0.371,1.035-0.575,1.038c-0.523,0.269-1.051,0.537-1.576,0.806C35.613,30.555,35.057,30.354,34.502,30.153z"/>
<path fill="#824545" d="M50.362,23.847c0.999-0.055,1.999-0.076,3-0.064c0.287,0.595,0.572,1.187,0.858,1.785c-0.25,1.374-0.975,2.39-2.249,3c-2.084,0.519-3.99,0.18-5.687-1.181c-0.646-1.361-0.403-2.539,0.719-3.54l-0.154-0.042C48.034,22.734,49.203,22.746,50.362,23.847z"/>
<path fill="#B76D6D" d="M59.411,17.482c0.122,0.91,0.276,1.81,0.458,2.707c0,0-0.763,1.306-0.762,1.309c0,0-1.514,0.079-1.514,0.083c-0.001,0.003-1.074-1.071-1.074-1.071c-0.039-1.016-0.096-2.036-0.171-3.052C57.368,17.592,58.389,17.601,59.411,17.482z"/>
<path fill="#A55959" d="M50.362,23.847c-1.171-0.015-2.339-0.027-3.511-0.04c0.105-1.001,0.24-1.996,0.4-2.988C48.289,21.83,49.326,22.838,50.362,23.847z"/>
<path fill="#2D0808" d="M53.362,23.783c1.053-1.089,2.105-2.182,3.158-3.271c0-0.003-0.025,0.165-0.025,0.165c0.792,1.083,0.781,2.157-0.029,3.226c-1.077,0.791-2.144,0.815-3.198-0.049L53.362,23.783z"/>
<path fill="#3C0F0F" d="M22.063,33.378c-0.055-1.043-0.111-2.087-0.168-3.131c1.093-0.049,2.185-0.098,3.279-0.146c2.075-1.892,4.152-1.816,6.227,0l0.049,0.003c0.572,1.431,0.328,2.704-0.735,3.821c-2.075,1.145-4.041,1.157-5.833-0.574l-1.41-0.095L22.063,33.378z"/>
<path fill="#590606" d="M31.401,30.101c-2.077,0-4.153,0-6.229,0c0.012-1.09,0.024-2.176,0.038-3.269c0.975,0.14,1.953,0.177,2.93,0.107c1.08,0.015,2.164,0.03,3.247,0.049C31.384,28.026,31.389,29.063,31.401,30.101z"/>
<path fill="#5C3636" d="M74.936,61.531c-0.969-0.098-1.941-0.15-2.914-0.156c-0.005-1.037-0.002-2.072,0.009-3.106c1.018-1.532,2.057-1.478,3.115-0.043c0,0-0.079,0.098-0.08,0.098C75.023,59.394,74.98,60.463,74.936,61.531z"/>
<path fill="#300C0C" d="M56.607,80.003c-1.103,0.079-2.206,0.159-3.31,0.238c-0.03-1.074-0.061-2.154-0.09-3.232c-1.053-0.879-1.645-2.002-1.774-3.372c0.193-1.349,0.747-2.518,1.718-3.488c1.37-0.283,2.625-0.021,3.771,0.781c0.882,1.054,1.464,2.25,1.758,3.589C58.82,76.658,58.049,78.459,56.607,80.003z"/>
<path fill="#402121" d="M53.241,73.869c-0.011,1.047-0.021,2.094-0.033,3.14l-1.561-0.003l-1.56,0.003c0,0-0.731-1.324-0.732-1.324c0.009-1.113,0.485-1.965,1.427-2.561c-0.002-0.003,1.466-0.405,1.466-0.405L53.241,73.869z"/>
<path fill="#592F2F" d="M50.087,77.009c-1.015,1.044-2.028,2.088-3.043,3.132c-0.328-0.452-0.658-0.903-0.987-1.355c-0.007-1.181,0.455-2.127,1.389-2.847c1.201-0.395,2.073,0.009,2.663,1.099L50.087,77.009z"/>
<path fill="#2C0606" d="M47.036,83.152c-1.063,0.009-2.127,0.021-3.19,0.033c-0.001-0.003,0.11,0.077,0.11,0.077c-0.644-0.675-0.877-1.364-0.697-2.069c0.182-0.714,0.374-1.071,0.577-1.074c1.038-0.852,2.115-0.864,3.228-0.146l-0.02,0.167C47.021,81.144,47.018,82.148,47.036,83.152z"/>
<path fill="#573333" d="M56.607,80.003c0.019-2.069,0.035-4.135,0.052-6.204c1.32-0.846,2.574-0.757,3.767,0.263c0.593,2.103,1.083,4.184-1.03,5.804c0,0,0.195,0.446,0.196,0.449C58.6,80.186,57.605,80.082,56.607,80.003z"/>
<path fill="#552C2C" d="M43.926,80.07c0.011,1.064,0.02,2.127,0.03,3.192c-1.015-0.016-2.029-0.024-3.042-0.024c0.003,0-0.375,0.076-0.375,0.076c-0.717-1.071-0.664-2.106,0.157-3.098c0.526-0.257,1.056-0.51,1.584-0.763C42.827,79.658,43.376,79.862,43.926,80.07z"/>
<path fill="#653B3B" d="M41.064,79.942c-0.174,1.123-0.346,2.246-0.523,3.369c-0.957-0.053-1.912-0.08-2.867-0.08c-0.017-1.022-0.009-2.044,0.022-3.066c0,0,0.943-0.955,0.942-0.959c0-0.003,1.343-0.055,1.343-0.058C39.981,79.145,41.064,79.942,41.064,79.942z"/>
<path fill="#864F4F" d="M28.099,61.342c1.027,0.027,2.033,0.189,3.012,0.491c0.16,0.961,0.162,1.92,0,2.878c-0.001,0.003-1.234-0.083-1.234-0.083l-1.233,0.077C28.464,63.585,28.282,62.462,28.099,61.342z"/>
<path fill="#2C1515" d="M34.494,67.439c0.141-0.992,0.226-1.987,0.256-2.988c0.737-0.998,1.672-1.736,2.84-2.176c1.214-0.244,2.434-0.271,3.659-0.082c1.198,0.354,2.25,0.961,3.139,1.843c0.442,1.199,0.357,2.378-0.173,3.537c-0.828,0.931-1.828,1.611-3.01,2.021c-1.226,0.186-2.423,0.063-3.577-0.403C36.435,68.88,35.388,68.297,34.494,67.439z"/>
<path fill="#442525" d="M37.303,67.826c1.07-0.069,2.139-0.14,3.209-0.21c1.188,0.885,2.025,2.029,2.519,3.43c0.212,1.465,0.134,2.911-0.258,4.34c-0.664,1.37-1.695,2.331-3.148,2.819c-0.712-0.191-1.423-0.384-2.138-0.573c-0.412-0.613-0.822-1.227-1.236-1.84c0.452-0.583,0.906-1.166,1.361-1.749c-0.058-1.218-0.115-2.433-0.171-3.65c-0.67-0.536-0.913-1.095-0.731-1.675C36.897,68.123,37.094,67.826,37.303,67.826z"/>
<path fill="#210606" d="M31.574,61.036c-0.118-0.918-0.141-1.837-0.069-2.759c0.963-0.76,1.932-0.769,2.91-0.03c0.246,0.497,0.491,0.998,0.737,1.498c-0.206,0.517-0.412,1.035-0.62,1.551C33.531,61.372,32.546,61.283,31.574,61.036z"/>
<path fill="#251212" d="M37.666,64.469c-0.975,0.003-1.949-0.003-2.919-0.019c-0.069-1.053-0.142-2.103-0.215-3.155l-0.087,0.116c1.03-0.821,2.08-0.849,3.152-0.086c0.603,0.684,0.813,1.38,0.632,2.081C38.048,64.115,37.86,64.469,37.666,64.469z"/>
<path fill="#8D604C" d="M37.303,67.826c0.133,0.852,0.18,1.709,0.141,2.57c-0.984-0.986-1.967-1.972-2.95-2.954C35.446,67.454,36.383,67.582,37.303,67.826z"/>
<path fill="#1E0D0D" d="M37.613,74.043c0.001,0.806,0.04,1.611,0.113,2.414c-0.472,0.653-0.943,1.306-1.416,1.956c-0.632-0.497-1.264-0.998-1.895-1.495l0.081,0.095C35.535,76.02,36.574,75.031,37.613,74.043z"/>
<path fill="#8F5555" d="M34.415,76.918c1.103-0.153,2.206-0.306,3.311-0.458c0-0.003-0.096,0.556-0.096,0.556c1.073,0.687,1.431,1.373,1.077,2.063s-0.709,1.035-1.069,1.035c0,0,0.058,0.049,0.058,0.052c-1.001-0.027-2.003-0.04-3.006-0.04C34.598,79.056,34.506,77.985,34.415,76.918z"/>
<path fill="#804A4A" d="M65.704,20.805c0.036,1.028,0.06,2.06,0.068,3.091l-1.302,0.852c-1.137-0.046-2.008-0.546-2.62-1.504c-0.795-1.114-0.59-1.996,0.614-2.649c0,0,0.255,0.195,0.255,0.198C63.714,20.765,64.709,20.768,65.704,20.805z"/>
<path fill="#653434" d="M68.991,26.817c-1.088,0.223-2.176,0.445-3.264,0.668c-0.321-0.607-0.644-1.214-0.969-1.822c0.364-0.583,0.732-1.166,1.101-1.746c0,0-0.086-0.024-0.086-0.021c1.015-0.037,2.028-0.012,3.036,0.073C68.86,24.922,68.921,25.871,68.991,26.817z"/>
<path fill="#462929" d="M69.148,45.933c-0.047,2.002-0.096,4.004-0.142,6.006c-0.104,1.019-0.148,2.041-0.13,3.066c-0.961,1.011-2.132,1.605-3.514,1.792c-1.402-0.059-2.637-0.54-3.714-1.438c-1.203-1.776-1.598-3.745-1.389-5.856c0.308-1.349,0.918-2.552,1.808-3.607c1.186-0.854,2.414-0.912,3.68-0.171C66.88,45.796,68.014,45.866,69.148,45.933z"/>
<path fill="#2F1919" d="M75.146,58.225c-1.039,0-2.079,0.013-3.117,0.043c0.014-2.112,0.027-4.224,0.043-6.339c1.039,0.037,2.073,0.092,3.111,0.165c-0.041,1.014-0.052,2.021-0.026,3.027C75.142,56.156,75.137,57.191,75.146,58.225z"/>
<path fill="#190D0D" d="M65.762,55.119c1.039-0.013,2.077-0.046,3.114-0.11c-1.044,1.081-2.087,2.161-3.131,3.244c-0.393-0.524-0.784-1.05-1.178-1.574C64.966,56.16,65.364,55.637,65.762,55.119z"/>
<path fill="#0E0404" d="M65.829,61.027c-1.065,0.119-2.129,0.238-3.193,0.357c-0.325-0.437-0.65-0.873-0.976-1.31c-0.033-1.145,0.372-2.097,1.221-2.865c1.153-0.199,2.113,0.146,2.881,1.028l-0.017,0.015C65.748,59.178,65.776,60.102,65.829,61.027z"/>
<path fill="#482B28" d="M59.395,79.865c0.012-2.02,0.022-4.037,0.033-6.058c-0.601-0.665-0.807-1.333-0.614-2.005c0.191-0.674,0.387-1.013,0.582-1.016c1.025-0.778,2.047-0.77,3.063,0.021c0.083,3.112,0.165,6.225,0.249,9.338C61.604,80.054,60.499,79.96,59.395,79.865z"/>
<path fill="#450808" d="M62.458,70.808h-1.52l-1.52,0.045c-0.42-0.345-0.838-0.687-1.261-1.031c-0.407-1.034-0.502-2.1-0.335-3.195c0.362-1.05,0.988-1.922,1.824-2.646c1.068-0.564,1.996-0.354,2.8,0.519c0.136,1.014,0.224,2.026,0.263,3.046C62.626,68.632,62.542,69.721,62.458,70.808z"/>
<path fill="#2A1717" d="M62.448,64.5c-0.993,0.003-1.986,0.013-2.979,0.034c-0.312-0.471-0.623-0.938-0.934-1.407c0.022-1.175,0.471-2.143,1.411-2.872c1.177-0.375,2.127-0.088,2.813,0.965l-0.122,0.165C62.632,62.428,62.57,63.466,62.448,64.5z"/>
<path fill="#291414" d="M68.886,36.311c-0.026,1.096-0.053,2.191-0.078,3.287c-1.017-0.089-2.032-0.128-3.051-0.116c0,0-0.885-0.943-0.886-0.943c-0.003,0-0.014-1.297-0.018-1.297c-0.003,0,0.854-0.977,0.854-0.977C66.766,36.281,67.827,36.296,68.886,36.311z"/>
<path fill="#271414" d="M65.757,39.482c-0.077,1.044-0.155,2.084-0.233,3.125c-0.977,0.8-1.919,0.763-2.833-0.11c-0.526-1.083-0.432-2.13,0.192-3.146c0.994-0.787,1.951-0.745,2.868,0.134L65.757,39.482z"/>
<path fill="#420707" d="M62.707,42.646c0.941-0.015,1.882-0.03,2.82-0.04c0.069,1.041,0.145,2.078,0.22,3.119c-1.044-0.003-2.09-0.009-3.133-0.012c0,0-0.854-0.934-0.856-0.934s0.024-1.267,0.023-1.267C61.778,43.513,62.707,42.646,62.707,42.646z"/>
<path fill="#783F3F" d="M65.921,32.902c-0.07,1.123-0.143,2.243-0.214,3.363l-0.008,0.067c-1.026,0.842-2.021,0.849-2.984-0.11c-0.528-1.166-0.391-2.264,0.322-3.311c1.08-0.788,2.087-0.742,3.01,0.262L65.921,32.902z"/>
<path fill="#5A0606" d="M66.047,33.174c-1.127-0.009-2.253-0.015-3.381-0.021c-0.396-0.348-0.794-0.696-1.193-1.041c-0.418-0.992-0.543-2.026-0.423-3.091c0.337-1.022,0.917-1.886,1.726-2.594c1.009-0.476,1.979-0.421,2.899,0.238c0,0,0.052,0.812,0.052,0.815c0.064,0.97,0.143,1.938,0.232,2.899C65.821,31.315,65.849,32.246,66.047,33.174z"/>
<path fill="#875151" d="M28.454,55.03c-0.102-1.04-0.204-2.078-0.31-3.115c0-0.003,0.014-0.073,0.014-0.073c1.16-0.729,2.252-0.638,3.281,0.266c0.247,0.57,0.494,1.141,0.742,1.712c-0.195,0.592-0.394,1.181-0.592,1.772C30.544,55.406,29.5,55.217,28.454,55.03z"/>
<path fill="#4C0606" d="M34.285,58.149c-0.928,0.046-1.855,0.089-2.782,0.125c-0.081-0.9-0.053-1.797,0.084-2.686c0.001,0.003-0.244-0.735-0.244-0.735c1.122-0.817,2.273-0.866,3.459-0.144c0.185,0.613,0.368,1.227,0.553,1.841C34.997,57.084,34.64,57.615,34.285,58.149z"/>
<path fill="#371D1D" d="M31.357,51.945c-1.065-0.033-2.131-0.067-3.198-0.104c0.015-2.075,0.029-4.153,0.044-6.232l-0.11,0.083c0.812-0.937,1.819-1.532,3.055-1.733c1.236,0.137,2.341,0.589,3.322,1.355c0.734,1.025,1.082,2.161,0.993,3.427c-0.505,1.15-1.272,2.087-2.296,2.813C32.565,51.688,31.961,51.817,31.357,51.945z"/>
<path fill="#3A1D1D" d="M24.881,33.351c2.044-0.07,4.089-0.141,6.134-0.21c0.47,0.284,0.94,0.567,1.412,0.848c0.485,1.01,0.699,2.072,0.607,3.192c-0.322,1.074-0.887,1.999-1.725,2.755c-1.061,0.583-2.026,0.452-2.893-0.396l-0.297-0.128c-1.013-0.848-1.86-1.843-2.562-2.963C25.333,35.417,25.107,34.382,24.881,33.351z"/>
<path fill="#610A0A" d="M25.557,36.448c0.856,0.989,1.71,1.978,2.565,2.963c-0.894,0.058-1.785,0.128-2.675,0.211C25.485,38.563,25.522,37.507,25.557,36.448z"/>
<path fill="#1B0A0A" d="M28.416,39.54c0.972-0.034,1.946-0.052,2.919-0.055c0,0,1.198,0.907,1.201,0.907c0.574,0.882,0.792,1.843,0.662,2.887c-0.113,1.12-0.7,1.874-1.759,2.258c-1.114,0.052-2.229,0.104-3.345,0.156c0.183-0.961,0.183-1.923-0.001-2.887C28.2,41.719,28.308,40.629,28.416,39.54z"/>
<path fill="#AF6767" d="M62.465,20.594c0.056,1.089,0.114,2.179,0.172,3.269c-0.483,0.265-0.967,0.531-1.451,0.796c-0.513-0.205-1.023-0.409-1.538-0.613c-0.598-0.571-0.862-1.196-0.793-1.868c0.071-0.699,0.19-1.047,0.354-1.047c0,0,0.658-0.934,0.659-0.94C60.703,20.518,61.569,20.653,62.465,20.594z"/>
<path fill="#633434" d="M37.689,30.11c-0.034-1.056-0.066-2.112-0.101-3.167c1.069-0.024,2.138-0.049,3.208-0.073c0-0.003,0.043,0.702,0.043,0.702c0.766,1.02,0.638,1.914-0.381,2.68c0.003,0.003-1.416,0.534-1.416,0.537C39.044,30.787,37.689,30.11,37.689,30.11z"/>
<path fill="#7A4040" d="M40.605,30.201c0.11-0.879,0.188-1.758,0.235-2.637c0.986-0.342,2.002-0.534,3.045-0.577c1.042-1.306,2.084-1.371,3.125,0c2.036-0.016,4.071-0.034,6.107-0.049c0.638,0.763,0.925,1.575,0.86,2.432c-0.067,0.879-0.188,1.318-0.36,1.324c-1.571,1.489-3.491,2.155-5.602,2.384c-2.125,0.106-4.138-0.296-6.002-1.349C41.54,31.224,41.074,30.711,40.605,30.201z"/>
<path fill="#874F4F" d="M47.011,26.988c-1.041,0-2.083,0-3.123,0c0-1.041,0-2.084-0.002-3.131c1.041,0,2.084,0.003,3.122,0C47.006,24.894,47.009,25.941,47.011,26.988z"/>
<path fill="#4E2727" d="M31.015,33.14c0.267-0.995,0.411-2.008,0.434-3.037c1.018,0.006,2.035,0.021,3.053,0.049V30.1c0.662,0.589,0.924,1.214,0.79,1.883c-0.139,0.687-0.307,1.031-0.5,1.031c-0.937,0.797-1.967,0.937-3.086,0.427L31.015,33.14z"/>
<path fill="#3C0808" d="M34.409,33.366c0.031-1.086,0.063-2.176,0.093-3.265c1.062,0.003,2.124,0.006,3.188,0.009l0.259-0.073c0.644,1.111,0.552,2.158-0.273,3.141c-0.531,0.253-1.063,0.506-1.595,0.76C35.524,33.747,34.966,33.558,34.409,33.366z"/>
<path fill="#5B3232" d="M53.232,30.293c-0.037-1.117-0.073-2.234-0.113-3.351c0.051-1.032,0.101-2.06,0.148-3.088c1.051,0.021,2.101,0.04,3.152,0.061c0.539,0.183,1.077,0.363,1.62,0.543c0.946,0.659,1.793,1.428,2.55,2.304c0.154,0.562,0.303,1.12,0.452,1.682c-0.005,1.181-0.051,2.353-0.133,3.534c-0.163,0.58-0.33,1.151-0.493,1.733c-0.313,0.522-0.629,1.035-0.941,1.563c-0.896,0.867-1.921,1.523-3.076,1.993c-1.254,0.262-2.458,0.116-3.614-0.431c-0.795-1.001-1.244-2.139-1.356-3.412C51.618,32.145,52.24,31.114,53.232,30.293z"/>
<path fill="#670808" d="M59.208,21.132c0.246,0.921,0.521,1.834,0.826,2.74c0,0-0.924,1.233-0.922,1.236c-1.031-0.177-1.97-0.577-2.815-1.2l0.12,0.006c0.026-1.081,0.051-2.158,0.077-3.238C57.422,20.689,58.327,20.839,59.208,21.132z"/>
<path fill="#331A1A" d="M53.241,73.869c-1.04,0.019-2.079,0.055-3.118,0.112c-0.4-0.418-0.802-0.839-1.204-1.257c-0.35-1.126-0.391-2.265-0.086-3.409c0.979-1.626,2.26-2.511,4.221-1.685c0.621,0.604,0.878,1.252,0.77,1.941c-0.113,0.705-0.26,1.059-0.439,1.059C53.335,71.711,53.288,72.792,53.241,73.869z"/>
<path fill="#0A0505" d="M53.383,70.631c-0.038-1.004-0.051-2.008-0.04-3.012c0.445-0.326,0.892-0.656,1.337-0.982c0.552,0.042,1.104,0.085,1.657,0.128c0.377,0.409,0.75,0.817,1.127,1.227c0.052,0.553,0.101,1.104,0.151,1.66c-0.412,0.369-0.825,0.741-1.239,1.114C55.377,70.76,54.379,70.714,53.383,70.631z"/>
<path fill="#623A3A" d="M59.419,70.853c0.047,0.986,0.05,1.972,0.011,2.954c-0.002,0-1.389,0.019-1.389,0.019s-1.387-0.027-1.384-0.027c-0.181-1.004-0.274-2.015-0.281-3.033l0.014-0.024c1.039-1.483,2.08-1.483,3.124-0.003L59.419,70.853z"/>
<path fill="#430404" d="M50.109,77.037l-1.531-0.007l-1.527,0.059c-0.646-1.028-0.661-2.066-0.044-3.113c0.939-0.839,1.942-0.882,2.997-0.231c0,0,0.12,0.234,0.119,0.237C50.134,75.001,50.129,76.017,50.109,77.037z"/>
<path fill="#550707" d="M47.232,73.591c-0.061,1.163-0.122,2.329-0.181,3.495c-0.021,0.964-0.017,1.925,0.01,2.887c-1.045,0.03-2.09,0.063-3.135,0.098l-0.113,0.122c-1.614-1.153-1.52-2.829-1.382-4.52c0.174-1.154,0.728-2.082,1.657-2.786c0.56-0.049,1.122-0.095,1.683-0.144C46.257,73.026,46.743,73.307,47.232,73.591z"/>
<path fill="#3A1D1D" d="M43.677,73.597c0.046,2.197,0.092,4.395,0.136,6.595c-0.921-0.052-1.838-0.132-2.751-0.247c0.003-0.003-0.304,0.168-0.304,0.168c-0.916-0.693-1.221-1.383-0.916-2.075c0.304-0.693,0.607-1.041,0.916-1.041c0.015-1.093,0.031-2.188,0.046-3.284C41.722,72.684,42.681,72.648,43.677,73.597z"/>
<path fill="#8A5252" d="M40.758,76.997c0.005,1.041,0.006,2.078,0.003,3.116c-0.003,0-1.563,0-1.563,0h-1.561c0-1.041,0-2.085-0.003-3.113C38.672,77.009,39.714,77.003,40.758,76.997z"/>
<path fill="#390606" d="M53.343,67.619c-1.055,1.028-2.11,2.06-3.165,3.092c-0.442,0.405-0.885,0.812-1.325,1.22c-0.597-0.069-1.193-0.14-1.792-0.21c-1.115-0.494-2.054-1.221-2.819-2.173c-0.176-0.574-0.348-1.153-0.519-1.73c0.026-1.159,0.053-2.319,0.08-3.479c-0.621-1.273-0.504-2.47,0.355-3.604c1.062-0.852,2.255-1.422,3.584-1.728c1.37-0.131,2.709,0.021,4.031,0.388c1.27,0.592,2.245,1.502,2.936,2.716c0.585,2.118,0.255,3.998-1.457,5.512L53.343,67.619z"/>
<path fill="#430404" d="M37.666,64.469c-0.014-1.028-0.017-2.057-0.008-3.085c0.431-0.33,0.861-0.663,1.292-0.992c1.137-0.033,2.112,0.329,2.908,1.156c0.296,1.154-0.052,2.097-0.949,2.856C39.828,64.427,38.748,64.448,37.666,64.469z"/>
<path fill="#653B3B" d="M40.91,64.405c-0.116-1.007-0.171-2.02-0.167-3.033c0.539-0.271,1.079-0.546,1.619-0.824c0.554,0.241,1.109,0.485,1.665,0.727c-0.075,1.022-0.148,2.048-0.224,3.067c-0.001-0.003-1.445,0.088-1.445,0.088L40.91,64.405z"/>
<path fill="#070707" d="M40.776,70.881c-0.087-1.089-0.172-2.176-0.261-3.265c1.068,0.067,2.138,0.131,3.208,0.198c0,0.003,0.412-0.055,0.412-0.055c0.346,0.573,0.691,1.145,1.042,1.718c-0.304,0.599-0.613,1.193-0.921,1.791C42.994,72.044,41.829,71.962,40.776,70.881z"/>
<path fill="#9B5D5D" d="M40.776,70.881c1.063-0.072,2.127-0.146,3.192-0.219c0.856,0.763,1.109,1.479,0.757,2.154c-0.34,0.649-0.667,0.977-0.981,0.977c0,0-0.064-0.189-0.066-0.192c-0.001-0.003-1.434,0.161-1.434,0.161s-1.442-0.049-1.44-0.049C40.744,72.77,40.735,71.824,40.776,70.881z"/>
<path fill="#814C4C" d="M37.659,61.385c-1.071,0.009-2.141,0.018-3.212,0.027c-0.053-1.087-0.106-2.176-0.16-3.263c-0.001,0,0.728,0.314,0.728,0.314c0.935-1.102,1.996-1.242,3.189-0.421c0.699,1.27,0.455,2.322-0.728,3.158L37.659,61.385z"/>
<path fill="#874F4F" d="M65.675,26.664c-1.066,0.287-2.133,0.571-3.199,0.854c-0.384-0.354-0.768-0.711-1.152-1.065c-0.076-1.114,0.355-1.996,1.221-2.683l0.093,0.092c1.073,0.018,2.147,0.037,3.222,0.055C65.802,24.833,65.741,25.749,65.675,26.664z"/>
<path fill="#301B1B" d="M62.758,61.219c-1.078,0.052-2.156,0.101-3.235,0.152c-1.08-0.812-1.883-1.831-2.38-3.095c-0.556-1.962-0.583-3.939-0.151-5.93c0.406-1.284,1.077-2.417,1.986-3.405c1.174-0.818,2.382-0.824,3.615-0.128c0.015,2.1,0.029,4.199,0.044,6.299c0.971,0.695,1.294,1.389,0.972,2.084c-0.321,0.692-0.644,1.041-0.97,1.041C62.647,59.232,62.686,60.227,62.758,61.219z"/>
<path fill="#140A0A" d="M62.593,48.814c-1.042,0.015-2.085,0.03-3.127,0.046c0,0-0.723-1.34-0.725-1.34c0.024-1.12,0.513-1.972,1.467-2.561c0-0.003,1.482-0.394,1.482-0.394l0.965,1.193c0,0-0.04-0.045-0.041-0.045C62.697,46.748,62.689,47.782,62.593,48.814z"/>
<path fill="#320303" d="M62.639,58.238c0-1.041-0.002-2.085-0.002-3.125c1.042,0,2.083,0,3.125,0.003c0,1.04,0,2.081,0,3.122h-1.561H62.639z"/>
<path fill="#150A0A" d="M59.468,64.534c0.024,1.025,0.04,2.051,0.043,3.079c-1.043,1.147-2.085,1.147-3.127,0l0.016,0.024c-0.832-0.699-1.192-1.468-1.082-2.313c0.116-0.879,0.288-1.321,0.518-1.318c1.344-0.772,2.566-0.607,3.658,0.5L59.468,64.534z"/>
<path fill="#301B1B" d="M56.384,67.613c1.044,0,2.086,0,3.127,0c0,1.04,0.001,2.084,0.001,3.125c-1.04,0-2.083,0-3.123,0.003C56.389,69.697,56.387,68.656,56.384,67.613z"/>
<path fill="#391D1D" d="M59.493,64.506c-1.021,0.004-2.043,0.016-3.063,0.04c-1.023-0.906-1.582-2.032-1.601-3.412c-0.078-1.37,0.337-2.566,1.243-3.595c1.307-0.635,2.446-0.412,3.417,0.672c0.011,1.053,0.022,2.105,0.033,3.161C59.514,62.416,59.503,63.463,59.493,64.506z"/>
<path fill="#3A1E1E" d="M62.651,36.088c1.012,0.149,2.028,0.232,3.049,0.244c0.017,1.05,0.035,2.103,0.052,3.152c-1.045,0.003-2.092,0.003-3.137,0.006c0,0-0.896-1.032-0.899-1.032s0.004-1.37,0-1.37C61.712,37.089,62.651,36.088,62.651,36.088z"/>
<path fill="#4E2A2A" d="M62.615,39.491c0.03,1.053,0.061,2.103,0.093,3.155l-0.133-0.061c-0.941,0.879-1.898,0.895-2.87,0.052c-0.594-1.062-0.586-2.118,0.016-3.174c0.987-0.836,1.95-0.809,2.888,0.082L62.615,39.491z"/>
<path fill="#452828" d="M59.517,42.494c1.02,0.061,2.038,0.091,3.058,0.091c0.026,1.059,0.054,2.115,0.081,3.174c-1.066-0.021-2.135-0.045-3.203-0.067c0,0-0.842-0.977-0.845-0.974c-0.002,0,0.018-1.291,0.015-1.294C58.619,43.425,59.517,42.494,59.517,42.494z"/>
<path fill="#720A0A" d="M62.666,33.153c-0.026,0.979-0.03,1.959-0.016,2.938c0-0.003-0.09,0.431-0.09,0.431l-1.262,0.903c0,0-1.438-0.583-1.439-0.583c-0.977-0.757-1.189-1.691-0.641-2.802l0.51-1.099c1.118-1.214,2.084-1.046,2.918,0.321L62.666,33.153z"/>
<path fill="#2F1515" d="M59.526,30.198c0.021-1.135,0.043-2.274,0.064-3.409c0.975-1.08,2.021-1.153,3.134-0.216c0,0-0.247,0.943-0.247,0.946c0.038,0.955,0.051,1.907,0.035,2.863C61.457,31.303,60.463,31.242,59.526,30.198z"/>
<path fill="#D27D7D" d="M59.526,30.198c1.007-0.11,2.004-0.052,2.989,0.18c0.084,0.961,0.128,1.92,0.132,2.884c-0.987,0.021-1.964-0.083-2.921-0.314C59.523,32.038,59.455,31.123,59.526,30.198z"/>
<path fill="#A06060" d="M34.482,55.052c-1.045-0.063-2.092-0.128-3.139-0.195c0.038-0.971,0.044-1.94,0.015-2.911c-0.001,0-0.14-0.379-0.14-0.379C34.335,50.828,35.127,52.268,34.482,55.052z"/>
<path fill="#6B3B38" d="M34.482,55.052c-1.088-1.159-2.176-2.319-3.264-3.485c1.118-0.97,2.238-1.94,3.357-2.911c4.913-1.089,6.029,2.622,7.49,5.908c0.185,1.478-0.075,2.878-0.761,4.199c-1.375,0.86-2.611,0.738-3.684-0.521c-0.873,0.036-1.744,0.109-2.607,0.223C34.837,57.328,34.66,56.19,34.482,55.052z"/>
<path fill="#2A1414" d="M40.575,54.881c-2-2.075-4.001-4.147-6-6.226c-0.064-0.998-0.099-1.999-0.105-3c0.458-0.418,0.916-0.833,1.374-1.257c1.202-0.406,2.426-0.516,3.683-0.296c1.204,0.473,2.153,1.254,2.864,2.334c0.506,1.179,0.772,2.408,0.824,3.687C43.03,52.094,42.362,53.801,40.575,54.881z"/>
<path fill="#110707" d="M31.439,45.536c-0.027-0.977-0.043-1.95-0.044-2.927c1.035-0.824,2.079-0.836,3.133-0.037c0.807,1.044,0.815,2.097,0.021,3.152l-0.08-0.067c0-0.003-1.518,0.015-1.518,0.015L31.439,45.536z"/>
<path fill="#610A0A" d="M31.335,39.485c0.07-1.123,0.141-2.246,0.211-3.369c0.523-0.372,1.045-0.745,1.565-1.123c0.6,0.22,1.202,0.446,1.802,0.666c0.513,1.236,0.417,2.441-0.201,3.616c-1.038,0.958-2.141,0.992-3.297,0.217L31.335,39.485z"/>
<path fill="#AE7259" d="M34.605,36.479c-1.028-0.058-2.049-0.177-3.061-0.36c-0.145-0.907-0.095-1.801,0.157-2.68c0.902-0.144,1.804-0.171,2.708-0.073c-0.001,0-0.012-0.049-0.012-0.049c0.739,0.659,1.015,1.346,0.83,2.063C35.04,36.113,34.833,36.479,34.605,36.479z"/>
<path fill="#430404" d="M31.415,39.491c0.951,0.003,1.901,0.037,2.849,0.098c0,0,1.041,0.916,1.045,0.913c0.003,0-0.038,1.388-0.037,1.392c0.003,0-1.201,0.696-1.201,0.696c-0.893,0.012-1.786,0.018-2.677,0.021C31.388,41.569,31.395,40.529,31.415,39.491z"/>
<path fill="#915656" d="M62.724,26.573c-1.045,0.073-2.089,0.146-3.134,0.216l0.128,0.214c-0.99-0.894-1.275-1.978-0.857-3.247c0,0,1.172,0.116,1.174,0.116c0.837-0.012,1.675-0.045,2.51-0.098C62.612,24.705,62.671,25.639,62.724,26.573z"/>
<path fill="#991313" d="M37.184,33.009c0.266-0.986,0.518-1.978,0.759-2.973c0.891,0.08,1.779,0.134,2.666,0.162c-0.003,0.003,0.449,0.375,0.449,0.375c0.313,1.166,0.061,2.17-0.841,2.994c-0.548,0.143-1.097,0.284-1.646,0.427C38.107,33.665,37.646,33.339,37.184,33.009z"/>
<path fill="#C17373" d="M40.834,33.253c-0.021-0.903,0.054-1.797,0.223-2.683c1.968-0.149,3.937-0.305,5.905-0.458c0.446,0.479,0.891,0.955,1.336,1.434c-0.18,0.632-0.359,1.26-0.538,1.892c-1.004,0.9-2.185,1.395-3.519,1.541c-0.643-0.14-1.285-0.281-1.927-0.421C41.82,34.126,41.327,33.69,40.834,33.253z"/>
<path fill="#320808" d="M46.777,33.232c0.063-1.041,0.124-2.078,0.186-3.119c2.089,0.058,4.18,0.119,6.271,0.18c-0.013,0.971-0.005,1.941,0.021,2.912C51.103,35.094,48.944,34.867,46.777,33.232z"/>
<path fill="#492424" d="M34.605,36.479c-0.068-1.053-0.137-2.109-0.206-3.162c0.934-0.058,1.865-0.159,2.788-0.305c-0.003-0.003,0.867,0.363,0.867,0.363c0.705,1.254,0.665,2.459-0.226,3.616c-1.318,0.678-2.457,0.449-3.412-0.684L34.605,36.479z"/>
<path fill="#854A4A" d="M46.777,33.232c2.16-0.009,4.318-0.018,6.477-0.027c-0.001,1.071-0.003,2.142-0.004,3.213c0.985,1.242,0.978,2.512,0.119,3.812c-1.991,1.242-4.046,1.31-6.157,0.336c-1.081-1.016-1.74-2.258-1.979-3.72c0.126-1.48,0.732-2.744,1.753-3.814L46.777,33.232z"/>
<path fill="#3C0808" d="M59.219,34.04c0.176,0.739,0.261,1.483,0.254,2.24c0,0-0.772,1.163-0.771,1.163c0,0.003-1.396-0.021-1.396-0.021l-0.955-1.016C57.307,35.618,58.263,34.828,59.219,34.04z"/>
<path fill="#8C503E" d="M53.279,38.966c-0.006-0.852-0.015-1.7-0.028-2.548c1.034,0.009,2.067,0.003,3.102-0.012l0.032-0.04c0.429,0.546,0.859,1.092,1.291,1.639c-0.257,0.644-0.518,1.288-0.775,1.935C55.486,40.397,54.266,40.111,53.279,38.966z"/>
<path fill="#321919" d="M58.861,23.756c0.285,1.083,0.57,2.164,0.856,3.247c-1.139-1.032-2.278-2.063-3.42-3.095C57.152,23.863,58.006,23.811,58.861,23.756z"/>
<path fill="#A4785E" d="M46.898,70.658c1.093,0.016,2.187,0.034,3.28,0.053c-0.004,1.013-0.063,2.025-0.175,3.033l-1.392,0.024L47.23,73.59c0.001,0,0.06,0.119,0.06,0.119c-1.025-0.559-1.423-1.196-1.199-1.913C46.327,71.037,46.596,70.658,46.898,70.658z"/>
<path fill="#462828" d="M56.256,58.131c0.057,2.14,0.114,4.275,0.172,6.415c-0.038,1.031-0.047,2.06-0.028,3.092c-1.049-0.007-2.099-0.01-3.148-0.016c-0.006-2.094-0.012-4.187-0.018-6.28C52.431,58.567,53.734,57.777,56.256,58.131z"/>
<path fill="#430404" d="M46.898,70.658c0.065,1.025,0.195,2.045,0.391,3.052c-1.181,0.027-2.362,0.056-3.544,0.083c0.075-1.044,0.149-2.088,0.224-3.131l-0.235,0.14c1.131-1.059,2.258-1.056,3.381,0.013L46.898,70.658z"/>
<path fill="#3C2121" d="M50.391,61.214c-1.141,0.049-2.278,0.098-3.418,0.146c-0.985-0.962-1.709-2.088-2.179-3.382c-0.294-2.105,0.142-4.044,1.359-5.792c0.975-0.962,2.144-1.587,3.46-1.935c1.342-0.056,2.608,0.25,3.78,0.906c0.813,1.062,1.138,2.279,1.045,3.606C53.069,56.895,51.91,59.166,50.391,61.214z"/>
<path fill="#6C4A3E" d="M50.391,61.214c0.959-2.039,1.918-4.074,2.876-6.11c1.086-1.086,2.295-1.303,3.648-0.51c0.842,1.377,0.575,2.546-0.643,3.544c0,0-0.014-0.004-0.016-0.004c-1.008,1.068-2.017,2.14-3.023,3.208C52.285,61.344,51.336,61.302,50.391,61.214z"/>
<path fill="#0F0707" d="M46.861,58.415c0.044,0.982,0.083,1.962,0.111,2.945c-0.982-0.019-1.965-0.046-2.946-0.086c0.001,0-0.253,0.159-0.253,0.159c-0.414-0.568-0.825-1.133-1.24-1.697c0.262-0.65,0.526-1.3,0.789-1.947C44.67,57.039,45.859,57.2,46.861,58.415z"/>
<path fill="#A06060" d="M47.115,70.814c-1.127-0.003-2.254-0.01-3.381-0.013c0.079-1.022,0.21-2.035,0.398-3.042C45.128,68.778,46.121,69.795,47.115,70.814z"/>
<path fill="#482727" d="M43.701,58.119c0.026,1.104,0.05,2.206,0.073,3.311c-1.01-0.042-2.02-0.061-3.03-0.058c-1.088-0.055-2.176-0.109-3.265-0.168c0.12-0.985,0.169-1.975,0.142-2.963c1.126-0.101,2.251-0.201,3.377-0.303C41.955,57.136,42.857,57.194,43.701,58.119z"/>
<path fill="#47281F" d="M56.273,58.137c0.013-1.008,0.051-2.012,0.113-3.019c-0.471-0.531-0.94-1.065-1.415-1.6c0.271-0.652,0.548-1.312,0.821-1.968c1.335-0.806,2.574-0.675,3.714,0.396c-0.006,2.088-0.011,4.175-0.017,6.263C58.416,58.186,57.345,58.162,56.273,58.137z"/>
<path fill="#0C0404" d="M59.506,51.948l-1.557,0.024l-1.557-0.006c-0.698-0.742-0.977-1.517-0.836-2.329c0.146-0.83,0.32-1.245,0.526-1.248c1.294-0.781,2.446-0.61,3.455,0.516l-0.072-0.045C59.497,49.888,59.511,50.917,59.506,51.948z"/>
<path fill="#4A2828" d="M59.538,48.905c-0.976-0.003-1.945,0.067-2.91,0.214c-1.164,1.056-2.437,1.157-3.806,0.437c-1.455-1.825-1.695-3.848-0.991-6.027c0.785-1.27,1.942-1.957,3.41-2.136c0.625,0.323,1.256,0.65,1.884,0.97c0.713,1.218,1.523,2.371,2.432,3.455l-0.103-0.125C59.482,46.763,59.509,47.835,59.538,48.905z"/>
<path fill="#321919" d="M59.473,36.281c1.031,0.055,2.061,0.134,3.088,0.238c0.047,1.01,0.063,2.018,0.047,3.024c-1.004-0.052-2.009-0.098-3.015-0.14c-0.482-0.495-0.966-0.989-1.454-1.48c0.453-0.519,0.914-1.038,1.375-1.556L59.473,36.281z"/>
<path fill="#542D2D" d="M59.593,39.403c-0.049,1.031-0.075,2.063-0.076,3.094c0-0.003-0.06,0.217-0.06,0.217c-1.058,0.885-2.084,0.894-3.076-0.107l0.061,0.009c-1.099-0.666-1.471-1.343-1.123-2.036c0.352-0.696,0.707-1.043,1.07-1.043l-0.01-0.058c1.049-1.138,2.093-1.135,3.133,0.009L59.593,39.403z"/>
<path fill="#230303" d="M56.381,42.607c1.027,0.006,2.054,0.04,3.078,0.107c0.038,1.035,0.069,2.069,0.098,3.104C58.497,44.746,57.44,43.675,56.381,42.607z"/>
<path fill="#875151" d="M43.701,58.119c-0.905-0.016-1.808-0.073-2.705-0.177c-0.122-1.022-0.263-2.042-0.42-3.059c0.125-1.926,0.252-3.845,0.378-5.768c0.978-1.232,2.152-1.459,3.519-0.675c0.883,1.154,1.254,2.463,1.186,3.906c-0.325,2.015,0.106,4.272-1.842,5.771h-0.116V58.119z"/>
<path fill="#4A2522" d="M43.82,48.872c-0.961,0.013-1.918,0.092-2.867,0.241c-0.07-1.129-0.142-2.262-0.213-3.394c-0.804-1.138-0.751-2.234,0.163-3.293c1.142-0.692,2.364-0.873,3.668-0.625c1.167,0.623,2.141,1.465,2.945,2.515c0.253,0.604,0.494,1.214,0.744,1.822c-0.021,0.656-0.052,1.313-0.079,1.969c-0.358,0.549-0.722,1.096-1.083,1.645C45.764,50.364,44.682,50.032,43.82,48.872z"/>
<path fill="#5D3131" d="M34.549,45.725c-0.156-1.046-0.313-2.09-0.473-3.137c-0.004,0,0.894,0.033,0.894,0.033c1.022-0.623,1.985-0.513,2.897,0.235c0.667,1.025,0.572,1.935-0.407,2.71C36.49,45.613,35.519,45.665,34.549,45.725z"/>
<path fill="#4D0606" d="M37.46,45.567c0.13-0.974,0.195-1.953,0.2-2.939c0,0,0.896-0.894,0.896-0.897c-0.001-0.003,1.268-0.006,1.268-0.006c0-0.003,0.924,0.867,0.924,0.867c-0.003,1.043-0.004,2.084-0.009,3.128C39.647,45.668,38.555,45.619,37.46,45.567z"/>
<path fill="#8F5555" d="M34.416,36.308c1.053,0.015,2.105,0.034,3.158,0.049c0.49-0.455,0.981-0.909,1.47-1.37c0.638,0.198,1.277,0.396,1.917,0.595c0.771,1.153,1.002,2.411,0.699,3.766c-0.948,1.007-2.112,1.541-3.496,1.602c-1.419,0.089-2.535-0.452-3.348-1.617l-0.551,0.256C34.314,38.493,34.366,37.401,34.416,36.308z"/>
<path fill="#6C4040" d="M34.816,39.332c0.942,0.088,1.885,0.144,2.829,0.165c1.063,0.693,1.417,1.386,1.063,2.082c-0.354,0.693-0.708,1.038-1.066,1.038l0.018,0.012l-1.347-0.012c0,0-1.349,0.006-1.346,0.006C34.918,41.523,34.868,40.428,34.816,39.332z"/>
<path fill="#AE7259" d="M40.164,36.408l-1.294-0.055l-1.294,0.003c-0.002-1.019,0.155-2.014,0.473-2.981c0.929-0.107,1.855-0.149,2.785-0.122l-0.148-0.156c0.804,0.882,0.994,1.667,0.572,2.353C40.866,36.088,40.501,36.408,40.164,36.408z"/>
<path fill="#680808" d="M40.164,36.408c0.174-1.102,0.348-2.206,0.521-3.311c1.074,0.21,2.15,0.421,3.224,0.629l0.931,1.248c0,0-0.664,1.41-0.663,1.41c0.003,0-1.404,0.663-1.404,0.663l-1.377-0.72L40.164,36.408z"/>
<path fill="#5A0606" d="M43.764,36.314c0.063-0.864,0.112-1.728,0.146-2.588c1.025-0.232,2.051-0.464,3.076-0.696c-0.03,1.025-0.041,2.047-0.032,3.073c-0.505,0.461-1.009,0.922-1.512,1.386C44.882,37.101,44.324,36.708,43.764,36.314z"/>
<path fill="#321919" d="M41.397,36.326c0.79,0.03,1.579,0.027,2.366-0.012l0.176,0.247c1.048,0.809,2.043,1.675,2.986,2.606c2.118-0.067,4.236-0.131,6.354-0.201c1.036,0.189,2.074,0.378,3.11,0.571c0.001,1.025,0.02,2.051,0.053,3.079c-1.08,0.021-2.158,0.04-3.239,0.061c-1.509,1.614-3.326,2.225-5.494,1.688c-1.367-0.223-2.593-0.763-3.655-1.66c-1.102-0.037-2.203-0.076-3.305-0.113l0.016,0.021c-0.92-0.696-1.227-1.392-0.923-2.087c0.304-0.699,0.609-1.047,0.916-1.047C40.97,38.426,41.183,37.376,41.397,36.326z"/>
<path fill="#945858" d="M46.925,39.167c-0.996-0.873-1.991-1.742-2.986-2.609c1.007-0.131,2.013-0.281,3.015-0.452C46.976,37.126,46.967,38.145,46.925,39.167z"/>
<path fill="#5F3636" d="M59.512,39.488c-1.042,0-2.083,0-3.128-0.003c0.003-1.043,0.005-2.084,0.002-3.119c1.04,0,2.084-0.003,3.126-0.003C59.512,37.407,59.512,38.447,59.512,39.488z"/>
<path fill="#2E1919" d="M53.243,48.842c1.128,0.092,2.255,0.183,3.385,0.274c-0.115,0.949-0.192,1.898-0.234,2.851l-0.004,0.021c-1.042,1.238-2.085,1.297-3.125,0c-1.047,0-2.094-0.003-3.141-0.003c-0.708-0.669-0.979-1.367-0.814-2.1c0.169-0.751,0.36-1.127,0.575-1.127C51.022,47.99,52.142,48.017,53.243,48.842z"/>
<path fill="#5D0A0A" d="M43.817,58.119c0.125-2.078,0.25-4.156,0.374-6.235c0.482-0.427,0.963-0.854,1.445-1.284c0.493,0.412,0.985,0.827,1.479,1.245c-0.084,2.191-0.168,4.379-0.252,6.57C45.848,58.302,44.833,58.204,43.817,58.119z"/>
<path fill="#693D3D" d="M50.452,49.052c-0.162,0.974-0.27,1.95-0.328,2.934c-1.007,0.03-2.011-0.016-3.01-0.138c0.001-0.003-0.162,0.168-0.162,0.168c-0.759-0.641-1.045-1.313-0.861-2.021c0.191-0.724,0.401-1.086,0.633-1.086l0.798-0.064c0.515-0.323,1.028-0.65,1.541-0.974C49.526,48.264,49.988,48.658,50.452,49.052z"/>
<path fill="#231313" d="M53.264,51.988c1.04,0,2.083,0,3.125,0c-0.002,1.043-0.002,2.084-0.002,3.128c-1.042,0.003-2.084,0-3.122-0.01C53.262,54.066,53.261,53.025,53.264,51.988z"/>
<path fill="#613737" d="M53.243,48.842c-0.936,0.024-1.868,0.095-2.794,0.21c0.003,0-0.595-0.32-0.595-0.32c-1.017-0.961-1.988-1.968-2.924-3.012l0.067,0.113c-0.668-0.644-0.906-1.3-0.712-1.971c0.195-0.678,0.4-1.016,0.613-1.016c2.102-0.058,4.204-0.113,6.307-0.168C53.216,44.731,53.229,46.788,53.243,48.842z"/>
<path fill="#2C0606" d="M46.724,48.909c0.228,1.021,0.304,2.06,0.229,3.106c-0.925-0.03-1.848-0.073-2.767-0.132c-0.223-0.991-0.346-1.995-0.366-3.012C44.787,48.872,45.757,48.885,46.724,48.909z"/>
<path fill="#7D4444" d="M46.898,42.845c0.06,0.995,0.093,1.99,0.099,2.987c-0.982-1.043-1.964-2.087-2.943-3.128C45.009,42.616,45.956,42.665,46.898,42.845z"/>
<path fill="#7D4949" d="M46.93,45.719c0.977,1.007,1.953,2.011,2.927,3.015c-0.781,0.07-1.562,0.107-2.338,0.11C47.325,47.803,47.128,46.761,46.93,45.719z"/>
<path fill="#4B2724" d="M40.756,39.479c0.001,1.043,0.004,2.09,0.006,3.134c-1.041,0-2.083,0-3.122,0.003c0-1.044-0.001-2.084,0-3.125C38.682,39.491,39.719,39.485,40.756,39.479z"/>
</svg>