<?xml version="1.0" encoding="utf-8"?>
<!DOCTYPE svg PUBLIC "-//W3C//DTD SVG 1.1//EN" "http://www.w3.org/Graphics/SVG/1.1/DTD/svg11.dtd">
<svg version="1.1" xmlns="http://www.w3.org/2000/svg" xmlns:xlink="http://www.w3.org/1999/xlink" x="0px" y="0px" width="100px" height="100px" viewBox="0 0 100 100" enable-background="new 0 0 100 100" xml:space="preserve">
<path fill="#8BA6F6" d="M53.217-1c2.102,1.983,4.204,3.964,6.305,5.948c0.997,1.392,2.18,2.566,3.775,3.266c10.026,5.258,20.055,10.513,30.081,15.771c-1.21,1.462-2.384,2.96-3.83,4.215c-0.526,0.363-1.066,0.702-1.59,1.074c-1.097,0.665-2.251,1.217-3.429,1.727c-2.962,1.272-6.03,2.176-9.229,2.612c-3.18,0.397-6.326,1.007-9.468,1.688c-2.002,0.33-3.947,0.187-5.808-0.668c-1.063-0.839-1.712-1.932-1.958-3.253c0.045-0.632,0.102-1.282,0.133-1.914c0.284-1.187,0.719-2.344,1.256-3.421c0.493-0.949,1.106-1.871,1.732-2.695c1.262-1.935-0.819-2.173-1.684-3.039c-1.389-0.882-2.689-1.834-4.043-2.71c-2.026-1.117-4.262-1.322-6.521-1.514c-1.248-0.223-2.302-0.788-3.229-1.639c-0.716-1.077-1.207-2.234-1.519-3.482c-0.34-1.965-0.236-3.891,0.388-5.786c0.627-1.163,1.417-2.2,2.365-3.119c0.21-1.02,0.217-2.039,0.02-3.061C49.05-1,51.134-1,53.217-1z"/>
<path fill="#7F8BAF" d="M75.181,30.29c3.133-0.964,6.267-1.929,9.4-2.893c1.133,0.894,2.123,0.757,2.97-0.412l-0.078,0.067c1.955-1.52,3.9-1.819,5.827,0.049c0.002,5.258,0.003,10.513,0.003,15.771c-0.442,0.924-1.04,1.736-1.788,2.432c-1.169,0.9-2.197,1.962-3.23,3c-0.579,0.742-1.303,1.331-2.148,1.743c0.011-0.013,0.941,0.994,0.941,0.994s-0.605-1.229-0.593-1.242c0.837-0.481,1.549-1.089,2.151-1.84c0.725-0.665,1.417-1.346,2.092-2.057c0.008-0.009,1.277-0.788,1.277-0.788L93.3,45.85c0.002,8.35,0.002,16.699,0.003,25.046c-0.717,0.931-1.582,1.693-2.608,2.27c-1.076,0.446-2.191,0.767-3.322,1.025c-2.254,0.55-4.438,1.307-6.551,2.295c-2.209,1.035-4.455,1.944-6.866,2.393c-3.711,0.272-7.511,1.27-10.905-1.221c-2.173-1.602-2.228-4.336-3.355-6.338c-0.648-0.464-0.992-1.218-0.923-2.039c0.035,0.102-0.745-0.625-0.713-0.644c0.604,1.068,1.212,2.13,1.85,3.238c0.405,1.534,0.505,3.134,1.696,4.33c0.838,0.806,1.575,1.669,2.221,2.634c-0.205,1.215-0.739,2.233-1.644,3.073c-1.471,1.165-3.087,2.063-4.807,2.811c-1.219,0.47-2.475,0.711-3.779,0.771c-2.08-0.164-3.84-0.937-5.121-2.646c-1.033-1.801-1.56-3.754-1.819-5.789c-0.182-1.337-0.224-2.686-0.203-4.031c0.07-2.655,0.439-5.271,1.3-7.785c0.61-1.605,1.481-3.073,2.637-4.257c-0.072,0.058,0.96-0.935,0.877-0.873c-0.793-0.437-1.487-0.961-2.198-1.529c-0.68-0.784-1.114-1.647-1.377-2.648c-0.462-1.67-0.593-3.339-0.503-5.06c0.174-1.953,0.723-3.764,1.654-5.478c1.133-1.761,2.604-3.116,4.534-3.94c1.342-0.302,2.692-0.293,4.038-0.046c3.606,0.934,6.826,2.832,10.167,4.218c0.722,0.167,1.53,0.329,2.23,0.387c-0.116-0.058,0.122-1.019,0.02-1.065c-0.705-0.601-1.242-1.221-1.759-1.956c-0.54-0.995-0.634-1.968-0.328-3.021c0.467-1.05,1.134-1.898,2-2.615c1.704-1.257,3.592-2.026,5.582-2.273c2.252-0.937,0.259-0.739-0.339-1.025c-0.339-0.162-0.556-0.583-0.862-0.958C73.789,31.855,74.186,30.952,75.181,30.29z"/>
<path fill="#8394CA" d="M53.328,96.024C43.411,92.618,33.37,89.53,23.63,85.678c-5.125-2.029-9.725-5.393-16.76-9.408c0-2.964,0-7.31,0-11.655c2.469-3.155,5.325-5.551,9.669-5.011c1.593,0.29,2.554,1.788,4.062,2.228c0.502-0.928,1.239-1.556,2.192-1.95c0.94-0.415,1.917-0.567,2.925-0.484c0.974,0.036,1.906,0.28,2.782,0.68c0.865,0.397,1.769,0.479,2.716,0.178c0.012-0.031,1.425-0.141,1.439-0.156c0.014-0.015,1.435,0.269,1.45,0.263c0.015-0.009,1.272,0.766,1.29,0.757c0.764,0.675,1.436,1.422,2.07,2.216c1.146,1.12,2.361,2.148,3.56,3.231c0.801,0.873,1.384,1.853,1.779,2.97c0.274,1.187,0.352,2.374,0.244,3.573c-0.235,1.175-0.688,2.262-1.361,3.25c-1.042,0.974-2.153,1.755-3.551,1.193c0.137,0.11-0.03-0.064-0.03-0.064s0.9,0.647,1.022,0.729c5.057,2.243,8.532,6.187,12.169,9.931C52.973,90.51,53.638,93.144,53.328,96.024z"/>
<path fill="#8BA5F4" d="M56.141,42.478c-1.01,0.113-2.011,0.269-3.008,0.47c-1.103,0.83-2.32,1.425-3.651,1.794c-6.637,1.285-11.627-2.756-17.091-5.255c-1.646-0.928-3.179-2.047-4.694-3.183c-1.57-1.02-3.194-1.957-4.866-2.802c-1.692-0.809-3.227-1.831-4.425-3.25c-0.664-0.94-1.604-1.346-2.805-1.221c-3.253-0.348-5.682-1.858-7.045-4.904c-0.38-1.3-0.087-2.42,0.873-3.366c6.196-3.104,12.395-6.207,18.593-9.311c0.987-0.888,2.043-1.691,3.166-2.405c1.915-0.314,3.829-0.632,5.743-0.946c2.734-1.361,5.377-1.999,7.553,0.946c0.507,2.359-0.714,3.589-2.777,4.233c-1.062,0.982-2.414-2.484-3.369,0.195c0.209,0.509,0.369,1.016,0.549,1.535c0.093,1.123-0.103,2.176-0.603,3.174c-0.755,0.791-1.648,1.389-2.629,1.84c-1.389,0.62-2.908,0.772-4.359,1.056c-0.816,0.229-1.591,0.61-2.232,1.129c1.369,1.27,2.481-0.693,3.799-0.241c3.218,0.491,6.053,1.853,8.896,3.229c4.95,2.523,9.555,5.508,13.261,9.729c0.895,1.107,1.581,2.334,2.103,3.656c0.067,0.705,0.121,1.413,0.177,2.118C56.917,41.294,56.529,41.886,56.141,42.478z"/>
<path fill="#8394C9" d="M28.214,33.302c1.05,1.046,2.1,2.093,3.149,3.14c1.088,0.687,1.421,1.639,1.01,2.841c0.042,1.053-3.564,1.498-0.5,3.106c0.554,1.111,0.635,2.237,0.314,3.427c-0.407,0.479-0.81,0.93-1.227,1.401c-0.572,0.283-1.133,0.546-1.706,0.827c-2.608,0.665-5.095,0.354-7.488-0.818c-2.174-1.27-3.798-3.104-5.208-5.121c-1.356-1.794-3.095-2.994-5.418-3.247c-1.724-0.253-3.241-0.873-4.266-2.359c-0.017-4.15-0.034-8.301-0.051-12.451c0.829-1.193,1.718-1.239,2.667-0.141c3.101,1.089,6.203,2.176,9.303,3.262l0,0c2.075,1.038,4.15,2.072,6.226,3.107C25.991,31.385,27.217,32.221,28.214,33.302z"/>
<path fill="#7B87A9" d="M87.59,70.881c1.043,0,2.085,0,3.129,0c1.069,0.82,1.918,1.828,2.546,3.024c-8.19,4.978-16.382,9.954-24.572,14.932c-1.522-0.601-3.078-1.129-4.53-1.913c-1.383-1.02-2.391-2.313-2.938-3.952c-0.133-1.199,0.353-2.094,1.369-2.719l0.003-0.003c3.636-3.153,8.595-1.017,12.494-3.119c2.085-1.044,4.171-2.088,6.257-3.131C82.98,72.065,85.989,72.877,87.59,70.881z"/>
<path fill="#8496CC" d="M28.218,61.5c-2.083,0-4.167,0-6.25,0c-5.524-2.277-13.197-1.041-15.089-9.244c0.001-3.171,0.001-6.345,0.003-9.518c1.611-1.737,3.546-1.834,5.641-1.114c3.618,2.795,5.234,7.898,10.372,8.963c2.606,1.147,5.116,2.414,6.624,5.005C30.23,57.811,29.969,59.821,28.218,61.5z"/>
<path fill="#7B86A9" d="M62.591,83.371c1.043,1.044,2.087,2.085,3.129,3.129c0.803,0.606,1.07,1.211,0.802,1.815c-0.268,0.604-0.536,0.903-0.805,0.903c-4.129,2.271-8.258,4.538-12.387,6.806c-1.093-2.137-2.183-4.275-3.273-6.415c-0.785-0.61-1.164-1.315-1.134-2.112c0.032-0.848,0.148-1.27,0.349-1.27c2.009-1.81,5.225-0.628,7.07-2.85l0.003-0.003C58.425,81.681,60.508,81.373,62.591,83.371z"/>
<path fill="#8294CC" d="M6.878,52.256c5.029,3.082,10.06,6.161,15.089,9.244l0,0c-1.041,1.507-2.083,1.507-3.124,0c-3.992,1.037-7.983,2.078-11.974,3.115C6.873,60.496,6.877,56.376,6.878,52.256z"/>
<path fill="#8DA6F6" d="M43.843,11.5c-2.301-1.132-4.604-2.265-6.908-3.396c1.176-0.98,2.357-1.957,3.539-2.933c2.185-1.629,4.353-1.846,6.494,0.08c0,2.081,0,4.166,0,6.25C45.927,12.602,44.885,12.602,43.843,11.5z"/>
<path fill="#8394C9" d="M12.593,42.75c-1.904-0.003-3.809-0.006-5.713-0.012c-0.001-2.079-0.003-4.157-0.004-6.238c1.906,0,3.812,0,5.716,0c0.935,0.836,1.474,1.876,1.62,3.125C14.067,40.87,13.526,41.911,12.593,42.75z"/>
<path fill="#86A1F6" d="M46.967,5.25c-2.164-0.027-4.327-0.052-6.492-0.08c2.156-1.038,4.315-2.072,6.473-3.109C46.953,3.123,46.961,4.188,46.967,5.25z"/>
<path fill="#7B86A9" d="M93.3,27.101c-1.942-0.016-3.885-0.034-5.827-0.049c1.969-1.022,3.937-2.042,5.905-3.064C93.352,25.022,93.326,26.063,93.3,27.101z"/>
<path fill="#86A1F6" d="M63.297,8.213c-1.259-1.086-2.517-2.176-3.775-3.266C60.781,6.034,62.038,7.124,63.297,8.213z"/>
<path fill="#8DA6F6" d="M31.188,9.046c-1.054,0.803-2.11,1.605-3.166,2.405C29.078,10.651,30.133,9.849,31.188,9.046z"/>
<path fill="#7B86A9" d="M93.3,45.851c-0.86,0.012-1.723,0.021-2.585,0.024h0.004c0.861-1.001,1.724-2.002,2.586-3.003C93.679,43.867,93.677,44.858,93.3,45.851z"/>
<path fill="#87A0EE" d="M9.492,23.908c-0.89,0.055-1.781,0.101-2.669,0.141c0.87-1.096,1.738-2.191,2.606-3.287C9.45,21.812,9.47,22.858,9.492,23.908z"/>
<path fill="#7B87AA" d="M93.265,73.905c-0.85-1.011-1.698-2.018-2.546-3.024c0.861,0,1.723,0.006,2.584,0.016C93.682,71.903,93.669,72.907,93.265,73.905z"/>
<path fill="#7B86A9" d="M65.717,89.219c0-0.906,0.002-1.813,0.003-2.719c0.99,0.781,1.982,1.559,2.973,2.337l-1.448,0.507L65.717,89.219z"/>
<path fill="#86A1F6" d="M53.217,36.5c-4.167-3.125-8.333-6.25-12.498-9.375c0.378-0.525,0.758-1.047,1.126-1.581c1.98-1.703,4.291-2.908,6.491-4.297c2.522-1.458,4.98-1.489,7.343,0.345c0.956,0.897,1.631,1.984,2.038,3.226c0.326,1.88-0.322,3.72-0.304,5.587c0.456,1.145,1.14,2.136,2.056,2.97c2.084,0,4.168,0,6.253-0.003c0.343,0.586,0.685,1.172,1.03,1.758c-0.023,1.401-0.481,2.643-1.36,3.735c-2.811,2.326-5.692,3.931-8.996,0.812l-0.176-0.174C55.235,38.486,54.235,37.485,53.217,36.5z"/>
<path fill="#87A2F6" d="M59.466,17.75c3.25,0.534,6.5,1.068,12.188,2.002c-3.977,1.868-6.521,3.058-9.063,4.251c-2.084,1.822-4.169,1.941-6.25-0.003l0,0c-1.146-2.167-0.325-3.897,1.21-5.469C58.189,18.269,58.828,18.009,59.466,17.75z"/>
<path fill="#8CA6F5" d="M56.342,24c2.083,0,4.166,0.003,6.25,0.003c0,1.041,0,2.081,0,3.125c-1.226,0.857-2.043,2.124-3.126,3.122h0.001c-0.822,1.26-2.119,2.047-3.128,3.125C56.341,30.25,56.341,27.125,56.342,24z"/>
<path fill="#86A0F0" d="M75.181,30.29c-0.138,0.992-0.241,1.987-0.31,2.988c-0.683,1.022-1.603,1.754-2.728,2.246c-1.192,0.25-2.389,0.25-3.584,0.015c-1.093-0.528-2.046-1.242-2.843-2.164l0.005-0.003C68.874,32.346,72.029,31.318,75.181,30.29z"/>
<path fill="#87A2F6" d="M43.843,11.5c1.042,0,2.084,0,3.125,0c0,1.041,0,2.081,0,3.125c-0.967,1.108-2.164,1.843-3.587,2.212c-2.291,0.21-4.215-0.543-5.788-2.212h0.001c-0.626-0.696-0.833-1.389-0.626-2.084c0.209-0.693,0.417-1.041,0.626-1.041C39.677,11.5,41.76,11.5,43.843,11.5z"/>
<path fill="#86A1F6" d="M50.092,14.625c2.083,0.003,4.166,0.003,6.249,0.003c0.841,0.754,1.164,1.544,0.97,2.377c-0.199,0.854-0.427,1.282-0.679,1.282c-2.353,0.986-4.142,0.009-5.732-1.654C50.629,15.965,50.361,15.296,50.092,14.625z"/>
<path fill="#86A1F6" d="M43.843,14.625c1.042,0,2.084,0,3.125,0c1.042,0,2.085,0,3.125,0l0,0c0.854,5.295-2.42,4.703-5.749,4.034C42.907,17.472,42.74,16.127,43.843,14.625z"/>
<path fill="#86A1F6" d="M56.339,33.375c1.044-1.044,2.086-2.084,3.128-3.125c0.002,1.041,0.002,2.081,0.002,3.125C58.427,33.375,57.383,33.375,56.339,33.375z"/>
<path fill="#7B86A9" d="M87.551,26.984c-0.99,0.137-1.982,0.271-2.971,0.412C85.564,27.207,86.553,27.07,87.551,26.984z"/>
<path fill="#86A1F6" d="M59.466,30.25c1.042-1.041,2.084-2.082,3.126-3.122C61.55,28.169,60.508,29.209,59.466,30.25z"/>
<path fill="#86A1F6" d="M56.342,17.747c0-1.041,0-2.079-0.001-3.119c1.042,1.041,2.084,2.082,3.125,3.122h0.003C58.425,18.986,57.383,19.044,56.342,17.747z"/>
<path fill="#8294CC" d="M28.218,61.5c0-2.085,0-4.166,0-6.25c-0.169-3.528,1.17-6.553,3.125-9.375l0,0c1.286-1.438,1.831-3.586,3.993-4.187c4.481,0.745,8.668,2.877,13.319,2.887c0.499,0.415,0.997,0.833,1.496,1.254c-0.038,2.1-0.077,4.202-0.115,6.305c-2.26,2.069-2.201,4.156-0.038,6.253l0.157-0.024c1.872,2.075,1.694,4.15-0.008,6.223c-0.034,3.134-0.071,6.269-0.106,9.402c-4.262,2.42-6.689-0.656-9.321-3.112c0-1.041,0-2.085-0.001-3.125h0.001c-2.084-1.044-4.167-2.085-6.251-3.125c0.812-0.696,1.08-1.389,0.812-2.085c-0.27-0.692-0.54-1.04-0.812-1.04l0,0c-1.042-1.057-2.083-1.057-3.125,0l0,0C30.3,62.382,29.26,62.339,28.218,61.5L28.218,61.5z"/>
<path fill="#7C88AB" d="M56.396,39.677c3.106-1.062,6.215-2.124,9.321-3.186c1.045-1.211,2.249-1.401,3.613-0.568c0.791,1.358,0.629,2.591-0.488,3.699c0,1.044,0,2.084,0,3.128l0,0c2.083,1.041,4.166,2.084,6.25,3.125c0,0-0.214,1.196-0.209,1.199c-0.473,0.671-1.045,1.245-1.712,1.728C73.174,48.805,71.969,49,71.969,49c-5.275-2.173-10.55-4.346-15.826-6.519C56.237,41.544,56.323,40.61,56.396,39.677z"/>
<path fill="#8293CC" d="M50.208,86.496c-0.038,1.038-0.089,2.075-0.151,3.113c-4.155-4.163-8.31-8.322-12.464-12.484l0,0c1.042-1.041,2.084-2.082,3.125-3.125c4.034-1.733,6.43,1.428,9.315,3.118c0.043,2.094,0.086,4.185,0.13,6.277c1.131,0.672,1.514,1.355,1.152,2.051C50.949,86.146,50.583,86.496,50.208,86.496z"/>
<path fill="#7B87AA" d="M78.87,66.538c-2.165,2.322-4.329,4.645-6.494,6.967c-1.758-1.758-3.518-3.519-5.275-5.276c1.937-2.551,3.871-5.103,5.808-7.653C74.896,62.562,76.882,64.552,78.87,66.538z"/>
<path fill="#7B86A9" d="M72.06,33.708c0.933-0.177,1.871-0.317,2.813-0.43c3.038,0,6.078,0,9.117,0c0.063,0.729,0.124,1.458,0.187,2.188c-3.03,0.345-6.062,0.687-9.09,1.031C71.953,37.87,71.281,36.576,72.06,33.708z"/>
<path fill="#7B86A9" d="M75.091,77.131c-4.164,1.04-8.33,2.081-12.494,3.119c-0.002-1.041-0.002-2.085-0.003-3.125h-0.003C66.758,77.128,70.925,77.131,75.091,77.131z"/>
<path fill="#7B87AA" d="M52.734,58.137c1.183-2.417,2.365-4.834,3.546-7.248c0.957,0.589,1.914,1.181,2.87,1.773c-1.558,2.2-3.115,4.4-4.672,6.601C53.897,58.888,53.315,58.512,52.734,58.137z"/>
<path fill="#8496CC" d="M50.032,77.118c-3.105-1.037-6.21-2.078-9.315-3.118c0-1.041,0-2.082,0.001-3.125c3.106,1.037,6.215,2.075,9.321,3.112C50.037,75.031,50.035,76.075,50.032,77.118z"/>
<path fill="#8496CC" d="M49.997,58.387c-1.647-0.598-3.295-1.196-7.217-2.621c3.699-1.853,5.478-2.744,7.255-3.632C50.024,54.218,50.01,56.303,49.997,58.387z"/>
<path fill="#7B86A9" d="M72.06,33.708c1.009,0.928,2.018,1.858,3.026,2.789c-2.081,1.041-4.163,2.084-6.244,3.125c0-1.043-0.001-2.084-0.001-3.125c-0.917-0.696-1.22-1.392-0.911-2.084c0.307-0.69,0.614-1.035,0.923-1.035C69.922,33.488,70.99,33.598,72.06,33.708z"/>
<path fill="#7B87AA" d="M85.866,60.541c-0.919,0.708-1.837,1.416-2.756,2.124c-0.32-0.439-0.641-0.875-0.961-1.312c0.942-0.681,1.884-1.361,2.827-2.042C85.273,59.721,85.571,60.133,85.866,60.541z"/>
<path fill="#7B86AA" d="M62.594,77.125c-1.308-0.293-2.615-0.586-4.575-1.022c0.533-1.923,0.99-3.577,1.45-5.228h-0.003c1.042,2.084,2.082,4.168,3.125,6.25H62.594z"/>
<path fill="#7B87AA" d="M50.147,64.585c0.002-2.075,0.005-4.15,0.008-6.223c1.021,0.006,2.042,0.01,3.063,0.013C52.194,60.443,51.171,62.513,50.147,64.585z"/>
<path fill="#7B86A9" d="M59.466,64.625c0,2.084,0,4.165,0,6.25h0.003c0-2.085,0-4.166,0-6.25H59.466z"/>
<path fill="#7B87AA" d="M87.59,70.881c-2.081,1.037-4.162,2.078-6.242,3.119C83.428,72.959,85.509,71.918,87.59,70.881z"/>
<path fill="#7B86A9" d="M62.591,83.371c-2.082,0-4.164,0.004-6.246,0.004c2.083-1.041,4.166-2.082,6.249-3.122C62.592,81.293,62.592,82.331,62.591,83.371z"/>
<path fill="#7B86A9" d="M50.208,86.496c-0.071-1.034-0.087-2.068-0.047-3.104c2.061-0.003,4.121-0.009,6.181-0.015C54.297,84.418,52.253,85.456,50.208,86.496z"/>
<path fill="#7B86A9" d="M75.091,49c-1.041,0-2.082,0-3.122,0l-0.002,0.003c0.521-0.406,1.041-0.812,1.562-1.224C74.048,48.182,74.571,48.591,75.091,49z"/>
<path fill="#7B86A9" d="M84.469,52.125c1.042-1.041,2.082-2.082,3.125-3.122L87.59,49c-1.042,1.04-2.082,2.081-3.125,3.125H84.469z"/>
<path fill="#7B86A9" d="M84.465,52.125c-0.227,0.408-0.453,0.817-0.68,1.229c0.227-0.409,0.456-0.817,0.684-1.229H84.465z"/>
<path fill="#7B86A9" d="M50.23,42.948c0.969-0.088,1.938-0.092,2.905,0c-0.996,0.961-1.991,1.919-2.986,2.881c0.002,0-0.119,0.07-0.119,0.07c-1.047-0.729-1.364-1.41-0.958-2.042C49.46,43.253,49.847,42.948,50.23,42.948z"/>
<path fill="#7B86A9" d="M59.469,64.625c0.228-0.409,0.453-0.818,0.681-1.23c-0.228,0.409-0.457,0.818-0.684,1.23H59.469z"/>
<path fill="#7B86A9" d="M75.092,45.875c0.396,0.744,0.867,1.462,1.125,2.249c0.05,0.152-0.729,0.576-1.126,0.876h0.003c-0.724-0.693-0.965-1.389-0.726-2.085C74.61,46.223,74.851,45.875,75.092,45.875L75.092,45.875z"/>
<path fill="#7B86A9" d="M90.715,45.875c-1.04,1.04-2.082,2.081-3.125,3.125l0.004,0.003c1.04-1.044,2.082-2.085,3.125-3.128H90.715z"/>
<path fill="#8193CC" d="M37.593,77.125c-3.348-1.261-6.696-2.521-10.043-3.781c0.742-1.105,1.483-2.213,2.225-3.32C32.38,72.392,34.986,74.757,37.593,77.125L37.593,77.125z"/>
<path fill="#8496CC" d="M18.844,61.5c1.041,0,2.081,0,3.124,0c0.429,1.565,0.857,3.134,1.288,4.699c-0.699,0.247-1.397,0.494-2.096,0.745C20.386,65.128,19.615,63.315,18.844,61.5z"/>
<path fill="#8496CC" d="M31.343,61.5c1.042,0,2.083,0,3.125,0C33.425,61.5,32.385,61.5,31.343,61.5z"/>
<path fill="#8496CC" d="M28.218,61.5c1.042,0,2.083,0,3.125,0C30.3,61.5,29.26,61.5,28.218,61.5z"/>
<path fill="#8496CC" d="M34.468,61.5c0.395,0.741,0.865,1.462,1.123,2.249c0.05,0.152-0.728,0.576-1.123,0.876C34.468,63.584,34.468,62.54,34.468,61.5z"/>
<path fill="#8395CA" d="M50.23,42.948c-0.092,0.982-0.157,1.965-0.2,2.951c-5.188-1.05-10.376-2.1-15.563-3.149c-1.041,1.099-2.083,1.156-3.124,0l0,0c-1.132-0.693-1.509-1.389-1.132-2.084c0.374-0.693,0.75-1.041,1.132-1.041c0.007-1.059,0.014-2.121,0.021-3.18C37.654,38.612,43.942,40.781,50.23,42.948z"/>
<path fill="#88A3F6" d="M34.468,17.75c1.042,0,2.084,0,3.125,0c0.821-1.12,1.864-1.401,3.134-0.849c0.868,0.919,1.444,1.99,1.698,3.235c0.096,2.487,0.031,4.944-1.707,6.989h0.001c-4.167-1.041-8.334-2.084-12.501-3.125c-0.624-0.693-0.832-1.389-0.624-2.084c0.208-0.693,0.415-1.041,0.624-1.041l0,0C29.904,19.038,32.844,19.712,34.468,17.75z"/>
<path fill="#8DA6F6" d="M40.716,17.75c-1.041,0-2.081,0-3.123,0c0-1.044,0-2.084,0-3.125c2.084,0,4.167,0,6.25,0c0,1.041,0,2.084,0,3.125C42.8,18.812,41.758,18.812,40.716,17.75z"/>
<path fill="#8DA6F6" d="M34.468,17.75c-2.083,1.041-4.167,2.084-6.25,3.125C30.3,19.835,32.385,18.791,34.468,17.75z"/>
<path fill="#87A0EE" d="M28.214,33.302c-1.063-1.01-2.128-2.018-3.193-3.024C26.084,31.284,27.149,32.292,28.214,33.302z"/>
<path fill="#8DA6F5" d="M18.795,27.17c0.233-0.415,0.467-0.833,0.7-1.248C19.262,26.337,19.028,26.755,18.795,27.17C18.795,27.17,18.795,27.17,18.795,27.17z"/>
<path fill="#8DA6F6" d="M37.594,11.5c0,1.041,0,2.084,0,3.125c-0.396-0.742-0.867-1.462-1.125-2.249C36.421,12.223,37.198,11.799,37.594,11.5z"/>
<path fill="#8DA6F5" d="M28.218,20.875c0,1.041,0,2.084,0,3.125c-0.396-0.742-0.865-1.462-1.123-2.249C27.044,21.598,27.821,21.174,28.218,20.875z"/>
<path fill="#86A1F6" d="M53.217,36.5c1.001,1.001,2.004,2.005,3.003,3.006C55.219,38.502,54.218,37.501,53.217,36.5z"/>
<path fill="#8294CB" d="M12.593,42.75c0-1.044,0-2.084,0-3.125c2.083-1.847,4.166-1.847,6.249,0c1.042,2.084,2.086,4.166,3.128,6.25c0,0-0.394,1.116-0.386,1.12c0.009,0.003-1,0.598-1,0.598s1.101,0.399,1.128,0.403c0.961,0.299,1.431,0.939,1.443,1.935c0.006,0.012-0.232,1.284-0.23,1.294c0.001,0.006-0.955,0.9-0.955,0.9C18.843,49,15.718,45.875,12.593,42.75z"/>
<path fill="#8293CA" d="M31.343,45.875c0.598,1.818,1.198,3.638,1.925,5.853c-1.898,1.325-3.474,2.424-5.05,3.522c-2.083-1.041-4.166-2.085-6.249-3.125h-0.001c1.408-1.685,3.38-1.48,5.263-1.569c-1.886-0.076-3.854,0.132-5.263-1.556l0,0c-1.063-0.696-1.417-1.389-1.065-2.085c0.354-0.692,0.706-1.04,1.065-1.04h0.001C25.093,45.875,28.218,45.875,31.343,45.875z"/>
<path fill="#8496CC" d="M18.841,39.625c-2.083,0-4.166,0-6.249,0c0-1.041,0-2.084-0.001-3.125c1.146-0.769,2.292-1.535,4.257-2.854C17.664,36.094,18.254,37.858,18.841,39.625z"/>
<path fill="#8496CC" d="M31.343,39.625c0,1.041,0,2.084,0,3.125c-1.355-0.385-2.71-0.772-5.486-1.563C28.633,40.397,29.988,40.009,31.343,39.625z"/>
<path fill="#8496CC" d="M31.343,42.75c1.041,0,2.083,0,3.124,0c-1.041,1.041-2.083,2.084-3.124,3.125C31.343,44.834,31.343,43.791,31.343,42.75z"/>
<path fill="#8BA6F6" d="M40.716,17.75c1.042,0,2.084,0,3.127,0c2.083-1.041,4.167-2.084,6.25-3.125c2.083,1.041,4.167,2.081,6.25,3.122c1.042,0,2.085,0,3.127,0.003c-1.042,2.081-2.085,4.166-3.127,6.25c-2.083,0-4.167,0-6.25,0c-3.985,1.541-6.813-0.394-9.373-3.125C40.719,19.835,40.718,18.794,40.716,17.75z"/>
<path fill="#8DA6F5" d="M40.719,20.875c3.124,1.041,6.248,2.084,9.373,3.125c-3.125,1.041-6.25,2.084-9.375,3.125C40.718,25.041,40.718,22.959,40.719,20.875z"/>
<path fill="#8BA6F6" d="M68.853,33.378c-0.009,1.041-0.012,2.081-0.011,3.119c-0.001,0-1.563,0.003-1.563,0.003s-1.563,0-1.563-0.003c0-1.043,0-2.084,0-3.122C66.762,33.375,67.808,33.378,68.853,33.378z"/>
<path fill="#8496CC" d="M40.719,67.75C41.685,66.886,42.652,66.025,40.719,67.75C43.223,67.029,41.97,67.39,40.719,67.75L40.719,67.75z"/>
<path fill="#7F8BAF" d="M68.842,42.75c-0.228,0.409-0.454,0.818-0.682,1.229C68.388,43.571,68.615,43.159,68.842,42.75L68.842,42.75z"/>
<path fill="#7F8AAF" d="M75.092,45.875c0.002,1.04,0.002,2.084,0.002,3.125c-1.043,0.003-2.085,0.003-3.127,0.003C73.009,47.959,74.051,46.915,75.092,45.875z"/>
<path fill="#8395CC" d="M21.968,49c1.355,0.384,2.71,0.771,5.485,1.563c-2.775,0.79-4.13,1.178-5.485,1.563C21.968,51.084,21.968,50.04,21.968,49z"/>
<path fill="#8395CC" d="M21.968,45.875c0,1.04,0,2.084,0,3.125c-1.355-0.385-2.708-0.772-5.487-1.563C19.258,46.647,20.613,46.259,21.968,45.875z"/>
</svg>