<?xml version="1.0" encoding="utf-8"?>
<!DOCTYPE svg PUBLIC "-//W3C//DTD SVG 1.1//EN" "http://www.w3.org/Graphics/SVG/1.1/DTD/svg11.dtd">
<svg version="1.1" xmlns="http://www.w3.org/2000/svg" xmlns:xlink="http://www.w3.org/1999/xlink" x="0px" y="0px" width="100px" height="100px" viewBox="0 0 100 100" enable-background="new 0 0 100 100" xml:space="preserve">
<path fill="#818181" d="M6.337,0c14.583,0,29.167,0,43.75,0c2.037,2.768,1.839,5.429-0.376,7.996c-14.325,4.563-28.653,4.55-42.983,0.009C4.499,5.439,4.299,2.774,6.337,0z"/>
<path fill="#848484" d="M56.336,0c12.5,0,25,0,37.5,0c1.806,2.036,2.161,4.331,1.221,6.86c-0.97,1.413-2.235,2.463-3.801,3.155c-5.863,1.48-11.841,0.702-17.774,0.916c-6.009-0.525-12.503,1.452-17.648-3.464C54.314,4.864,54.368,2.365,56.336,0z"/>
<path fill="#848384" d="M68.836,100c-12.5,0-25,0-37.5,0c-2.029-2.417-1.767-4.889-0.172-7.392c3.412-3.753,8.014-3.302,12.428-3.509c6.177,0.006,12.358-0.189,18.532,0.244c2.721,0.293,5.168,1.159,6.996,3.329C70.652,95.178,70.854,97.632,68.836,100z"/>
<path fill="#868686" d="M6.337,0c0.02,2.154,0.04,4.309,0.06,6.464c1.744,1.785,3.246,3.729,4.011,6.155c0.47,2.478,0.546,4.978,0.548,7.489c-0.124,4.251,0.164,8.627-3.732,11.667c-2.489,1.315-4.883,1.343-7.137-0.525c0-8.853-0.325-17.73,0.282-26.544C0.486,3.009,4.254,1.563,6.337,0z"/>
<path fill="#868686" d="M0.087,68.75c0-8.334,0-16.666,0-25c2.074-1.834,4.366-1.956,6.814-0.876c2.148,1.48,3.319,3.562,3.749,6.095c0.287,2.447,0.333,4.907,0.339,7.367c-0.004,2.469-0.047,4.935-0.317,7.391c-0.406,2.555-1.527,4.682-3.684,6.195C4.458,70.883,2.147,70.557,0.087,68.75z"/>
<path fill="#808080" d="M25.087,100c-7.292,0-14.606,0.281-21.854-0.281c-1.196-0.091-2.104-3.885-3.146-5.969c1.874-1.746,3.885-3.274,6.374-4.056c4.236-0.76,8.493-0.638,12.758-0.33c2.654,0.333,4.97,1.318,6.715,3.428C27.136,95.37,26.927,97.781,25.087,100z"/>
<path fill="#868686" d="M100.086,87.5c0,4.166,0,8.334,0,12.5c-4.167,0-8.332,0-12.5,0c-1.709-1.818-2.513-3.946-2.19-6.457c1.449-3.995,4.384-6.482,8.192-8.085C96.093,85.053,98.248,85.775,100.086,87.5z"/>
<path fill="#808080" d="M87.534,93.982c0.018,2.005,0.035,4.013,0.052,6.018c-6.25,0-12.5,0-18.75,0c0.048-1.996,0.095-3.988,0.143-5.984c0.523-0.748,1.047-1.495,1.57-2.243C76.729,88.525,82.608,87.582,87.534,93.982z"/>
<path fill="#868686" d="M6.558,93.631C4.4,93.671,2.245,93.71,0.087,93.75c0-6.25,0-12.5,0-18.75c2.074-1.81,4.392-2.121,6.921-1.129c2.144,1.531,3.251,3.674,3.632,6.231c0.238,2.463,0.206,4.919-0.229,7.36C9.688,89.868,8.233,91.818,6.558,93.631z"/>
<path fill="#787878" d="M100.086,25c0,4.166,0,8.334,0,12.5c-2.207,1.874-4.548,1.801-6.978,0.47c-2.062-1.754-3.061-4.016-3.192-6.692c0.113-2.683,1.103-4.953,3.149-6.726C95.5,23.199,97.856,23.123,100.086,25z"/>
<path fill="#868686" d="M100.086,43.75c0,4.166,0,8.334,0,12.5c-2.445,1.999-4.943,1.923-7.484,0.187c-3.286-4.163-3.289-8.316,0.04-12.455C95.067,42.129,97.538,41.684,100.086,43.75z"/>
<path fill="#868686" d="M100.086,25c-1.971-0.034-3.944-0.07-5.915-0.104c-0.696-0.391-1.391-0.781-2.088-1.172c-1.675-1.893-2.327-4.129-2.223-6.62c0.351-2.5,1.493-4.513,3.628-5.917c2.452-0.848,4.666-0.473,6.598,1.313C100.086,16.666,100.086,20.835,100.086,25z"/>
<path fill="#868686" d="M94.5,56.25c1.861,0,3.725,0,5.586,0c0,4.166,0,8.334,0,12.5c-2.246,1.858-4.648,1.969-7.184,0.644c-2.049-1.913-2.903-4.29-2.757-7.059C90.594,59.589,91.763,57.357,94.5,56.25z"/>
<path fill="#919191" d="M5.889,43.744c-1.935,0.003-3.868,0.003-5.803,0.006c0-2.084,0-4.166,0-6.25c1.445-1.633,3.236-2.173,5.353-1.694c1.229,0.629,2.108,1.578,2.641,2.851c0.198,1.358-0.011,2.652-0.569,3.897C6.971,42.95,6.43,43.347,5.889,43.744z"/>
<path fill="#787878" d="M100.086,43.75c-1.938-0.07-3.877-0.144-5.816-0.214c-0.497-0.299-0.996-0.598-1.493-0.897c-0.534-1.056-0.724-2.173-0.574-3.345c0.453-1.169,1.288-1.755,2.561-1.667c1.774-0.042,3.549-0.085,5.323-0.128C100.086,39.585,100.086,41.666,100.086,43.75z"/>
<path fill="#787878" d="M6.004,74.848C4.031,74.9,2.06,74.949,0.087,75c0-2.084,0-4.166,0-6.25c1.955,0.058,3.909,0.113,5.864,0.171C7.885,70.88,7.879,72.855,6.004,74.848z"/>
<path fill="#787878" d="M94.285,68.93c1.934-0.061,3.868-0.119,5.801-0.18c0,2.084,0,4.166,0,6.25c-2.103,1.85-4.335,1.831-6.661,0.464C92.113,73.077,92.175,70.868,94.285,68.93z"/>
<path fill="#787878" d="M56.336,0c-0.063,1.883-0.128,3.763-0.191,5.646c-2.012,2.14-3.984,2.173-5.913-0.109c-0.049-1.847-0.097-3.69-0.146-5.536C52.169,0,54.254,0,56.336,0z"/>
<path fill="#868686" d="M94.234,74.835c1.951,0.056,3.901,0.11,5.853,0.165c0,2.084,0,4.166,0,6.25c-2.139,1.889-4.275,1.587-6.411-0.012C92.24,78.964,92.202,76.81,94.234,74.835z"/>
<path fill="#868686" d="M93.862,6.259C93.853,4.175,93.845,2.087,93.836,0c2.083,2.084,4.168,4.166,6.25,6.25C98.015,8.118,95.94,7.895,93.862,6.259z"/>
<path fill="#808080" d="M93.862,6.259c2.075-0.003,4.149-0.006,6.224-0.009c0,2.084,0,4.166,0,6.25c-1.97-0.024-3.939-0.052-5.909-0.076c-1.923-1.868-2.225-3.876-0.513-6.052L93.862,6.259z"/>
<path fill="#919191" d="M94.193,81.283c1.964-0.012,3.93-0.021,5.893-0.033c0,2.084,0,4.166,0,6.25c-1.956-0.003-3.912-0.006-5.866-0.009c-0.487-0.412-0.974-0.824-1.462-1.233c-0.423-1.242-0.406-2.48-0.013-3.723C93.227,82.117,93.71,81.698,94.193,81.283z"/>
<path fill="#808080" d="M5.894,37.476c-1.937,0.009-3.871,0.015-5.808,0.024c0-2.084,0-4.166,0-6.25c1.998,0.043,3.996,0.085,5.994,0.128c0.458,0.428,0.917,0.854,1.376,1.282C8.029,34.619,7.809,36.322,5.894,37.476z"/>
<path fill="#787878" d="M25.087,100c0.029-1.962,0.058-3.925,0.087-5.887c1.262-1.84,2.971-2.015,4.915-1.318c0.33,0.537,0.661,1.074,0.992,1.608c0.085,1.867,0.171,3.732,0.256,5.597C29.254,100,27.17,100,25.087,100z"/>
<path fill="#A8A8A8" d="M50.232,5.536c1.972,0.04,3.942,0.076,5.914,0.113C62.458,6.015,68.77,6.387,75.081,6.76c2.083,2.374,1.865,4.807,0.182,7.275c-5.284,4.461-11.727,2.719-17.732,3.305c-2.6-0.045-5.203-0.076-7.803-0.088c-6.03,0.031-12.067-0.021-18.097,0.354c-2.622,0.232-5.226,0.556-7.822,0.998c-6.448,0.122-12.356-1.251-16.995-6.131c-0.141-2.002-0.279-4.007-0.418-6.009C21.008,6.155,35.62,5.844,50.232,5.536z"/>
<path fill="#A7A7A7" d="M75.086,12.5c-0.001-1.917-0.004-3.833-0.006-5.743C81.277,6.629,87.472,6.5,93.666,6.372c0.167,2.017,0.337,4.034,0.509,6.052c-0.202,2.09-0.407,4.178-0.611,6.268c-1.407,1.636-3.149,2.603-5.341,2.686c-3.664-0.229-5.982-3.186-9.129-4.48C77.232,15.912,75.736,14.587,75.086,12.5z"/>
<path fill="#C4C4C4" d="M62.651,93.268c-6.21,0.086-12.422,0.171-18.632,0.257c-2.034-2.012-2.023-4.294-0.899-6.727c1.54-2.118,3.665-3.229,6.212-3.619c2.466-0.253,4.935-0.26,7.405-0.043c2.54,0.323,4.73,1.318,6.378,3.342C64.381,88.837,64.525,91.122,62.651,93.268z"/>
<path fill="#A6A6A6" d="M43.979,87.356c0.012,2.054,0.026,4.11,0.038,6.168c-4.311,0.29-8.623,0.583-12.935,0.876c-0.001,0.003,0.214-0.58,0.214-0.58c-1.769-1.932-1.984-4.114-1.045-6.485c1.34-2.124,3.277-3.342,5.721-3.799c2.446-0.187,4.695,0.332,6.656,1.873C43.078,86.057,43.528,86.707,43.979,87.356z"/>
<path fill="#CCCCCC" d="M62.651,93.268c0.027-1.804,0.057-3.61,0.084-5.414c0.482-0.494,0.965-0.985,1.448-1.479c2.197-0.613,4.042-0.064,5.532,1.666c0.9,2.072,0.89,3.968-1.069,5.481c0,0,0.331,0.491,0.333,0.494C66.869,93.766,64.761,93.518,62.651,93.268z"/>
<path fill="#A6A6A6" d="M6.813,12.473c6.134,0.033,12.27,0.07,18.405,0.104c2.002,2.304,5.124,2.939,7.35,4.938c0.875,1.312,1.384,2.744,1.553,4.312c-0.139,2.533-1.187,4.578-3.206,6.119c-3.778,2.06-7.886,1.599-11.94,1.572c-7.513,0.464-9.1-5.884-12.14-10.562C6.828,16.794,6.82,14.633,6.813,12.473z"/>
<path fill="#AFAFAF" d="M6.836,18.955c4.002,2.014,8.005,4.031,12.007,6.045c1.994,2.451,1.878,4.917,0.042,7.392c-4.445,3.101-8.459,2.271-12.167-1.337c0,0-0.635,0.323-0.636,0.323C6.332,27.237,6.584,23.096,6.836,18.955z"/>
<path fill="#A6A6A6" d="M6.718,31.055c4.042,0.064,8.084,0.131,12.125,0.195c3.938-2.979,8.075-3.641,12.442-1.19c4.19,3.284,4.558,7.557,3.61,12.22c-3.274,6.32-7.658,11.252-15.28,12.075c-4.912,0.345-9.494-0.329-13.007-4.269c-0.238-2.112-0.475-4.227-0.715-6.342c-0.003,0,0.825-0.016,0.825-0.016c1.86-2.005,1.877-4.062,0.182-6.17c0,0-1.001-0.083-1.002-0.083C6.169,35.336,6.443,33.194,6.718,31.055z"/>
<path fill="#A6A6A6" d="M6.004,74.848c-0.017-1.975-0.034-3.952-0.052-5.927c0.207-2.127,0.415-4.257,0.624-6.384c1.968-1.855,4.219-2.134,6.688-1.206c2.107,1.45,3.237,3.494,3.646,5.979c0.342,3.961,0.556,7.919-0.603,11.808c-0.704,1.443-1.735,2.597-3.087,3.463c-2.391,0.843-4.57,0.52-6.49-1.205C6.487,79.199,6.247,77.023,6.004,74.848z"/>
<path fill="#A2A2A2" d="M12.596,62.506c-2.008,0.01-4.016,0.019-6.023,0.031c0.011-2.14,0.02-4.276,0.029-6.412c3.105-3.033,6.831-3.214,10.788-2.341c1.418,0.729,2.498,1.794,3.243,3.204c0.607,2.433,0.185,4.608-1.617,6.437C16.68,64.486,14.52,64.318,12.596,62.506z"/>
<path fill="#AFAFAF" d="M18.705,56.247c-4.036-0.04-8.073-0.079-12.106-0.122c0.003-2.015,0.003-4.025,0.006-6.039c4.126-0.025,8.25-0.053,12.374-0.077C20.715,52.167,20.487,54.242,18.705,56.247z"/>
<path fill="#A6A6A6" d="M6.558,93.631c0.029-2.09,0.058-4.181,0.087-6.271c1.891-2.011,3.81-3.991,5.757-5.947l0.247-0.223c2.12-1.807,4.378-1.765,6.731-0.504c1.982,1.696,2.896,3.876,2.919,6.457c-0.317,2.566-1.763,4.508-3.5,6.287C14.718,93.497,10.638,93.564,6.558,93.631z"/>
<path fill="#A2A2A2" d="M18.798,93.43c0.015-1.983,0.029-3.968,0.042-5.951c1.534-1.535,3.108-3.009,5.295-3.583c2.269-0.28,4.292,0.287,6.056,1.749c0.381,0.616,0.763,1.236,1.143,1.853c-0.014,2.108-0.026,4.214-0.04,6.323c-2.042,0.098-4.082,0.192-6.122,0.29C23.048,93.885,20.924,93.658,18.798,93.43z"/>
<path fill="#A7A7A7" d="M68.646,93.522c0.076-2.026,0.154-4.053,0.232-6.082c0.241-0.642,0.483-1.282,0.72-1.926c2.87-3.083,6.972-4.331,10.211-6.879c1.988-0.938,4.047-1.156,6.184-0.659c1.335,0.479,2.496,1.245,3.488,2.255c1.344,2.378,1.913,5.176,3.869,7.236c0,0,0.863,0.024,0.867,0.024c-2.226,2.16-4.454,4.324-6.683,6.487C81.237,93.826,74.942,93.674,68.646,93.522z"/>
<path fill="#AFAFAF" d="M12.402,81.412c-1.919,1.983-3.841,3.967-5.76,5.95c0.029-1.999,0.057-3.994,0.087-5.987C8.621,81.388,10.511,81.399,12.402,81.412z"/>
<path fill="#AFAFAF" d="M94.171,24.897c-0.178,2.078-0.355,4.156-0.533,6.234c-1.815,1.807-3.776,3.391-6.272,4.172c-5.948,0.946-11.922,0.632-17.901,0.396c-2.699-0.244-5.167-1.016-7.142-2.994c-1.813-2.304-2.201-4.84-1.27-7.599c0.938-1.599,2.243-2.802,3.906-3.617c9.83-1.556,19.632-2.893,28.371,3.772L94.171,24.897z"/>
<path fill="#9B9B9B" d="M87.646,31.299c1.999-0.055,3.997-0.11,5.992-0.165c0.371,2.164,0.743,4.328,1.119,6.494c0.006,0-1.111-0.149-1.111-0.149c-2.084,1.886-4.294,1.831-6.592,0.427C85.735,35.568,85.745,33.35,87.646,31.299z"/>
<path fill="#AAAAAA" d="M94.5,56.25c-0.307,2.078-0.615,4.153-0.922,6.231c-1.523,1.648-3.352,2.661-5.65,2.71c-3.805-0.369-6.463-3.271-9.913-4.458c-2.184-0.938-3.828-2.433-4.875-4.581c-0.802-2.332-0.655-4.605,0.407-6.824c3.643-4.336,8.852-6.036,13.811-8.16c2.482-0.101,4.479,0.919,6.142,2.695c0,0,0.768-0.327,0.77-0.327C94.346,47.775,94.424,52.011,94.5,56.25z"/>
<path fill="#A2A2A2" d="M93.33,25.263c-10.234-0.07-20.469-0.138-30.702-0.205C61.427,9.119,73.776,18.127,79.9,15.677c2.884,0.168,5.444,1.154,7.645,3.043c2.008-0.009,4.016-0.019,6.022-0.028C93.485,20.883,93.407,23.071,93.33,25.263z"/>
<path fill="#A8A8A8" d="M87.556,62.494c2.009-0.006,4.018-0.01,6.024-0.013c0.232,2.148,0.467,4.297,0.703,6.448c-0.017,1.969-0.035,3.938-0.052,5.905c-0.014,2.148-0.028,4.297-0.041,6.448c0.003,0-0.897-0.079-0.897-0.079c-1.886,1.91-3.793,1.871-5.717,0.058l-0.013-0.038c-1.488-1.483-2.972-2.97-4.293-4.611c-1.815-3.085-4.715-5.606-4.919-9.53c0.119-2.384,1.004-4.374,2.974-5.805C83.649,60.416,85.748,60.712,87.556,62.494z"/>
<path fill="#AFAFAF" d="M6.9,37.558c1.154,0.732,2.306,1.465,4.492,2.856c-1.961,1.388-3.32,2.353-4.677,3.314C6.779,41.672,6.84,39.615,6.9,37.558z"/>
<path fill="#AFAFAF" d="M93.499,43.863c-1.973-0.037-3.945-0.073-5.919-0.11c-4.37,3.201-8.688,3.94-12.899-0.281c-0.212-11.771,6.218-9.241,12.965-6.021c2.002,0.009,4.003,0.019,6.002,0.027C93.597,39.606,93.548,41.733,93.499,43.863z"/>
<path fill="#AFAFAF" d="M87.576,81.262c1.908-0.018,3.817-0.036,5.722-0.058c0.017,2.088,0.038,4.175,0.057,6.263C91.426,85.398,89.501,83.331,87.576,81.262z"/>
<path fill="#A7A7A7" d="M81.375,18.72c-6.25,2.111-12.499,4.224-18.747,6.338l-0.003-0.061c-3.162,3.067-6.658,4.898-11.159,3.036c-2.282-1.251-3.601-3.18-3.974-5.749c-0.018-1.611,0.4-3.119,1.241-4.501c2.18-2.234,5.461-2.909,7.569-5.271c6.261-0.003,12.521-0.009,18.783-0.012c2.099,0.03,4.196,0.061,6.295,0.092C83.196,14.636,83.18,16.678,81.375,18.72z"/>
<path fill="#A3A3A3" d="M31.231,12.613c6.285-0.04,12.569-0.076,18.852-0.113c1.85,2.09,1.849,4.175-0.017,6.256l0.023-0.027c-2.338,1.892-2.932,4.886-4.56,7.227c-1.703,1.554-3.714,2.155-5.986,1.95c-1.417-0.345-2.661-1.035-3.749-1.999c-1.549-2.347-2.097-5.325-4.474-7.162l0.018,0.021C29.495,16.745,29.48,14.694,31.231,12.613z"/>
<path fill="#AFAFAF" d="M50.067,18.756c0.006-2.084,0.013-4.171,0.017-6.256c2.074,0.003,4.147,0.009,6.22,0.012C54.223,14.594,52.145,16.675,50.067,18.756z"/>
<path fill="#9C9C9C" d="M31.231,12.613c0.037,2.051,0.073,4.102,0.108,6.152c-2.042-2.063-4.083-4.126-6.123-6.189C27.223,12.588,29.226,12.601,31.231,12.613z"/>
<path fill="#AFAFAF" d="M81.375,18.72c0.001-2.045,0.003-4.086,0.006-6.131c2.055,2.045,4.109,4.089,6.164,6.131C85.486,18.72,83.43,18.72,81.375,18.72z"/>
<path fill="#510300" d="M50.08,86.996c-2.034,0.119-4.068,0.238-6.102,0.36l0.276-0.144c-10.856-15.21-5.211-31.692-3.705-47.848c1.404-2.725,3.654-4.227,6.687-4.575c5.18-0.122,7.991,3.668,11.201,6.802c1.44,2.243,1.967,4.721,1.774,7.361c-0.687,4.004-3.413,7.267-4.173,11.261c-1.785,6.9-0.707,14.063-1.898,21.018C53.348,83.551,51.84,85.36,50.08,86.996z"/>
<path fill="#AFAFAF" d="M55.825,49.908c-0.001-2.06-0.001-4.123-0.001-6.183c-1.38-1.987-1.641-4.083-0.642-6.317c1.621-1.898,3.711-2.518,6.128-2.289c1.511,0.442,2.824,1.208,3.927,2.334c1.392,1.972,1.778,4.236,1.913,6.57c0.096,2.311,0.111,4.624,0.119,6.94c0.006,2.322,0.015,4.647,0.027,6.973c0.081,5.484,0.054,10.965-0.051,16.449c-0.038,2.387-0.131,4.767-0.635,7.11c-0.825,2.319-2.374,4.136-4.048,5.865c0,0,0.168,0.485,0.169,0.488c-2.258-0.177-4.518-0.354-6.777-0.534c-1.619-2.09-2.509-4.449-2.623-7.095c-0.184-7.715-0.182-15.427-0.002-23.139C53.445,54.44,54.325,52.069,55.825,49.908z"/>
<path fill="#260003" d="M55.815,81.253c0.048,2.021,0.095,4.044,0.141,6.063c-1.956-0.106-3.914-0.213-5.873-0.32c0.02-1.913,0.041-3.826,0.063-5.74C52.033,79.432,53.924,79.398,55.815,81.253z"/>
<path fill="#A2A2A2" d="M43.896,37.567c0.119,16.546,0.24,33.096,0.358,49.646c-2.223,0.086-4.445,0.174-6.668,0.263c-3.049-2.819-5.603-6.098-8.47-9.091c-0.856-1.133-1.512-2.365-1.95-3.711c-0.395-2.085-0.462-4.193-0.488-6.306c-0.011-3.476-0.071-6.954,0.151-10.418c0.133-1.337,0.437-2.646,0.891-3.909c1.428-2.872,3.131-5.649,3.486-8.954c0.02-0.632,0.043-1.267,0.067-1.901c-0.632-3.25-1.264-6.503-1.98-10.199c-3.876-0.644-7.163-1.19-10.451-1.736c0-2.084,0-4.166,0-6.25c4.17,0,8.34,0,12.509-0.003c2.083-1.855,4.166-1.84,6.247,0.006l-0.019-0.012c1.463,1.462,2.922,2.927,4.055,4.675C42.604,32.239,43.838,34.735,43.896,37.567z"/>
<path fill="#A2A2A2" d="M31.344,74.997c2.08,4.159,4.161,8.319,6.242,12.479c-2.084,0.006-4.167,0.016-6.251,0.021l-0.021-0.019C27.955,83.31,27.087,79.148,31.344,74.997z"/>
<path fill="#A79FA5" d="M62.564,87.362c0.019-2.044,0.037-4.089,0.054-6.131c2.119-1.87,4.252-1.587,6.395-0.042c1.47,2.193,1.703,4.336-0.274,6.381c0,0,0.139-0.128,0.141-0.128C66.774,87.414,64.669,87.387,62.564,87.362z"/>
<path fill="#9C9C9C" d="M37.599,25.003C35.516,25,33.435,25,31.352,24.997c-0.009-2.084-0.02-4.169-0.03-6.253C33.413,20.831,35.507,22.916,37.599,25.003z"/>
<path fill="#959595" d="M18.705,56.247c0.09-2.078,0.18-4.159,0.271-6.238c4.1-2.271,8.199-4.541,12.297-6.817c0-0.006,0.064,0.568,0.064,0.568c3.401,4.208,3.327,8.419,0,12.631l0.093-0.141c-1.764,1.62-3.673,2.948-6.171,3.104c-2.496-0.155-4.423-1.44-6.163-3.101L18.705,56.247z"/>
<path fill="#919191" d="M18.956,81.546c-2.103-0.119-4.206-0.235-6.308-0.356c-0.017-4.13-0.035-8.262-0.053-12.391c1.625-1.767,3.618-2.365,5.961-1.867c1.389,0.635,2.519,1.574,3.412,2.811c1.639,3.738,1.602,7.309-1.082,10.607C20.243,80.75,19.6,81.149,18.956,81.546z"/>
<path fill="#AFAFAF" d="M18.588,68.509c-1.998,0.095-3.997,0.189-5.995,0.287c0.001-2.097,0.001-4.193,0.003-6.29c2.032,0.031,4.065,0.064,6.097,0.095C20.39,64.6,20.395,66.571,18.588,68.509z"/>
<path fill="#919191" d="M18.588,68.509c0.037-1.972,0.073-3.939,0.106-5.908c0.131-2.114,0.263-4.232,0.398-6.348c2.029,0.016,4.054,0.03,6.079,0.043c2.983,2.887,3.204,6.467,2.573,10.26c-0.53,1.413-1.396,2.576-2.599,3.485c-2.266,0.83-4.321,0.51-6.139-1.12L18.588,68.509z"/>
<path fill="#AFAFAF" d="M25.07,87.497c-2.077-0.006-4.154-0.013-6.229-0.019c0.037-1.98,0.073-3.961,0.113-5.936c0.001,0.003-0.131-0.442-0.131-0.442c2.177-1.715,4.431-1.718,6.752-0.306C26.938,83.146,26.933,85.392,25.07,87.497z"/>
<path fill="#9C9C9C" d="M25.07,87.497c0.004-2.1,0.009-4.199,0.012-6.302c-1.859-2.112-1.828-4.349-0.443-6.678c2.341-1.367,4.585-1.367,6.699,0.477c0,0,0.005,0.003,0.006,0.003c-0.011,4.159-0.02,8.322-0.029,12.481C29.233,87.484,27.151,87.491,25.07,87.497z"/>
<path fill="#CCCCCC" d="M68.737,87.57c0.055-2.091,0.111-4.181,0.166-6.271c0.382-0.623,0.763-1.248,1.144-1.877c3.332-2.634,6.682-2.634,10.043-0.055c0.393,0.619,0.784,1.239,1.175,1.861C77.088,83.344,72.914,85.455,68.737,87.57z"/>
<path fill="#C4C4C4" d="M87.321,74.914c0.08,2.104,0.161,4.206,0.241,6.309c-2.099,0-4.198,0.003-6.298,0.006l0.108,0.11c-1.869-2.045-1.916-4.27-0.657-6.629C82.965,73.218,85.173,73.107,87.321,74.914z"/>
<path fill="#A7A7A7" d="M87.646,37.451c-4.178,2.109-8.354,4.218-12.531,6.326c-0.506,0.485-1.011,0.968-1.516,1.453c-1.337,0.485-2.704,0.623-4.106,0.354c-1.295-0.607-2.31-1.526-3.049-2.75c-0.633-2.033-0.684-4.126-0.648-6.229c0.195-2.225,1.476-3.848,2.98-5.347c6.29,0.012,12.579,0.027,18.87,0.04C87.646,33.35,87.646,35.4,87.646,37.451z"/>
<path fill="#999999" d="M37.556,31.192c0.008-2.066,0.017-4.132,0.024-6.201c2.153-0.064,4.306-0.131,6.458-0.195c1.947-1.666,3.917-1.666,5.908-0.083c4.225,0.095,8.45,0.189,12.677,0.284c0.158,2.182,0.317,4.367,0.477,6.549c-0.696,0.58-1.393,1.163-2.085,1.743C52.988,34.912,44.995,36.167,37.556,31.192z"/>
<path fill="#C4C4C4" d="M68.776,31.259c-0.081,2.112-0.162,4.22-0.242,6.333c-1.743,1.681-3.466,1.73-5.166-0.064L62.04,37.29c-1.372-2.1-1.302-4.123,0.332-6.058c0,0,0.718,0.309,0.724,0.312C64.991,31.451,66.883,31.357,68.776,31.259z"/>
<path fill="#CCCCCC" d="M81.693,62.436c-0.145,2.124-0.29,4.252-0.435,6.375c-0.543,0.458-1.087,0.919-1.632,1.38c-2.214,0.724-4.233,0.323-6.106-1.02c-1.66-1.584-2.516-3.53-2.638-5.811c0.02-2.265,0.674-4.29,2.24-5.976c0.633-0.359,1.268-0.717,1.902-1.074c2.115-0.021,4.229-0.042,6.343-0.063C83.18,58.219,83.221,60.287,81.693,62.436z"/>
<path fill="#A4A4A4" d="M75.114,43.777c4.154-0.009,8.312-0.015,12.466-0.024c-4.063,2.036-8.128,4.071-12.193,6.106c-0.481-0.391-0.966-0.778-1.449-1.169c-0.746-1.907-0.518-3.585,1.142-4.935L75.114,43.777z"/>
<path fill="#A2A2A2" d="M81.693,62.436c-0.108-2.063-0.217-4.126-0.325-6.188c2.063,2.081,4.126,4.162,6.188,6.247C85.602,62.473,83.649,62.454,81.693,62.436z"/>
<path fill="#CCCCCC" d="M75.387,49.859c-0.119,2.148-0.239,4.3-0.359,6.451c-0.002,0,0.15-0.149,0.15-0.149c-1.452,1.679-3.274,2.295-5.455,1.893c-1.286-0.586-2.271-1.492-2.965-2.723c-0.391-1.354-0.426-2.716-0.114-4.086c0.613-1.282,1.565-2.24,2.808-2.917c2.184-0.51,4.056-0.01,5.544,1.721L75.387,49.859z"/>
<path fill="#CCCCCC" d="M87.321,74.914c-1.915,0.007-3.83,0.016-5.745,0.021c-1.854-2.035-2.118-4.116-0.168-6.259l-0.149,0.134C83.279,70.847,85.299,72.879,87.321,74.914z"/>
<path fill="#AFAFAF" d="M49.946,24.713c-1.972,0.028-3.941,0.058-5.91,0.083c2.019-2.023,4.036-4.043,6.054-6.064C50.042,20.725,49.993,22.72,49.946,24.713z"/>
<path fill="#7C7C7C" d="M62.371,31.231c-0.111,2.021-0.221,4.041-0.332,6.058c-1.947,0.101-3.893,0.201-5.84,0.302c-1.926,1.77-3.966,1.797-6.101,0.402c-2.067-0.143-4.135-0.287-6.203-0.427c-2.113-2.124-4.227-4.248-6.34-6.375C45.828,31.204,54.1,31.216,62.371,31.231z"/>
<path fill="#2A0101" d="M55.815,81.253c-1.891,0-3.781,0.003-5.672,0.003c0.07-8.34,0.139-16.681,0.208-25.021c1.823-1.813,3.644-1.84,5.458,0.013C55.812,64.581,55.814,72.919,55.815,81.253z"/>
<path fill="#570000" d="M50.099,37.994c2.032-0.134,4.066-0.271,6.101-0.406c-0.125,2.048-0.25,4.092-0.375,6.137C53.915,41.815,52.006,39.905,50.099,37.994z"/>
<path fill="#280000" d="M55.809,56.247c-1.82-0.003-3.641-0.009-5.46-0.013c1.827-2.108,3.651-4.214,5.477-6.323C55.819,52.021,55.815,54.135,55.809,56.247z"/>
<path fill="#A2A2A2" d="M74.667,62.391c0.2,2.063,0.399,4.122,0.6,6.186c-0.097,0.681-0.194,1.361-0.29,2.041c-0.699,1.981-1.764,3.745-3.133,5.335c-1.121,0.863-2.379,1.413-3.769,1.663c-2.227-0.006-3.982-1.004-5.455-2.597c0.001-6.263,0.001-12.524,0.003-18.787c2.097-1.834,4.205-1.828,6.325-0.039l-0.034-0.156C70.785,58.197,72.774,60.251,74.667,62.391z"/>
<path fill="#CCCCCC" d="M63.367,37.527c1.724,0.021,3.447,0.043,5.169,0.064c0.109,2.069,0.221,4.141,0.334,6.21c-2.119,1.621-4.216,1.816-6.276-0.104C62.852,41.641,63.109,39.585,63.367,37.527z"/>
<path fill="#9C9C9C" d="M68.948,56.192c-2.109,0.015-4.218,0.027-6.327,0.039c0-2.072,0-4.144-0.001-6.213c1.986-1.89,4.001-1.657,6.03-0.079C68.749,52.023,68.849,54.107,68.948,56.192z"/>
<path fill="#9C9C9C" d="M62.62,75.019c2.073-0.01,4.146-0.016,6.218-0.021c1.663,2.097,1.866,4.208,0.055,6.335c0,0,0.008-0.036,0.01-0.033c-2.096-0.021-4.19-0.046-6.285-0.067C62.618,79.159,62.62,77.088,62.62,75.019z"/>
<path fill="#A2A2A2" d="M68.651,49.94c-2.012,0.027-4.021,0.052-6.03,0.076c-0.009-2.104-0.019-4.209-0.026-6.317c2.091,0.033,4.183,0.067,6.274,0.104c0.002,0-0.09-0.079-0.09-0.079c1.899,2.048,1.91,4.175,0.276,6.375L68.651,49.94z"/>
<path fill="#808080" d="M25.099,68.808c0.023-4.171,0.046-8.343,0.072-12.512c2.087-0.016,4.172-0.03,6.259-0.046c-0.031,4.169-0.061,8.334-0.092,12.503C29.274,70.617,27.192,70.426,25.099,68.808z"/>
<path fill="#808080" d="M31.338,56.391c0-4.212,0-8.423,0-12.635C40.386,47.968,39.695,52.179,31.338,56.391z"/>
<path fill="#A2A2A2" d="M25.099,68.808c2.08-0.018,4.16-0.036,6.239-0.055c0,2.081,0,4.163,0,6.244c-2.019-0.016-4.039-0.027-6.058-0.043c-1.782-2.035-2.069-4.096-0.098-6.192L25.099,68.808z"/>
<path fill="#808080" d="M25.183,68.762c0.03,2.063,0.061,4.13,0.095,6.192c-0.063,2.081-0.128,4.163-0.195,6.241c-2.086-0.031-4.173-0.059-6.259-0.092c0.06-4.064,0.119-8.127,0.182-12.186C21.066,68.866,23.124,68.815,25.183,68.762z"/>
<path fill="#A4A1A3" d="M68.893,81.332c-0.018-2.111-0.036-4.224-0.055-6.335l-0.006,0.006c2.016-2.005,4.029-4.016,6.028-6.039c0,0,0.4-0.382,0.403-0.385c2.049,0.03,4.097,0.067,6.145,0.101c0.054,2.084,0.106,4.172,0.165,6.26c-0.064,2.13-0.133,4.263-0.2,6.396C77.214,81.336,73.053,81.332,68.893,81.332z"/>
<path fill="#C4C4C4" d="M69.055,50.098c-0.092-2.124-0.182-4.248-0.274-6.375c2.1,0.012,4.199,0.021,6.3,0.033c-0.027,2.097-0.053,4.193-0.082,6.293C73.015,50.065,71.033,50.082,69.055,50.098z"/>
<path fill="#9C9C9C" d="M74.667,62.391c-1.917-2.118-3.835-4.236-5.753-6.354c2.088,0.04,4.175,0.083,6.264,0.125C75.007,58.236,74.838,60.315,74.667,62.391z"/>
<path fill="#9C9C9C" d="M74.86,68.964c-2.01,2.014-4.019,4.028-6.028,6.039C70.842,72.992,72.851,70.978,74.86,68.964z"/>
</svg>