<?xml version="1.0" encoding="utf-8"?>
<!DOCTYPE svg PUBLIC "-//W3C//DTD SVG 1.1//EN" "http://www.w3.org/Graphics/SVG/1.1/DTD/svg11.dtd">
<svg version="1.1" xmlns="http://www.w3.org/2000/svg" xmlns:xlink="http://www.w3.org/1999/xlink" x="0px" y="0px" width="100px" height="100px" viewBox="0 0 100 100" enable-background="new 0 0 100 100" xml:space="preserve">
<path fill="#828282" d="M31.714,100c-10.375,0-20.75,0-31.188,0c0-33.157,0-66.314,0-99.737c32.959,0,65.984,0,99.474,0c0,33.065,0,66.399,0,99.737c-18.438,0-37.111,0-55.787,0c-2.014-2.401-1.792-4.871-0.226-7.379c6.696-5.908,14.89-2.619,22.37-3.632c6.511-0.494,13.236,0.491,19.778-2.612c4.715-7.287,2.358-15.652,3.055-23.572c0.161-3.866,0.272-7.732,0.29-11.603c0.012-2.307,0.021-4.617,0.021-6.924c-0.007-2.289-0.023-4.581-0.06-6.866c-0.057-2.255-0.156-4.514-0.313-6.76c-0.22-2.188-0.543-4.364-1.018-6.506c-2.125-7.437-6.898-11.136-14.768-10.626c-8.264,0.54-16.116-3.198-24.417-2.405C39.625,11.552,30,9.22,21.387,14.533c-2.557,2.802-5.882,4.843-7.672,8.356c-1.404,3.327-1.335,6.772-1.07,10.254c0.979,5.478,0.522,10.919-0.2,16.354c-0.191,2.365-0.357,4.733-0.49,7.102c-0.093,6.912-0.96,13.898,1.899,20.521c0.841,1.929,1.592,3.915,2.536,5.786c2.999,7.98,14.478,3.183,17.311,11.423C34.062,96.579,33.382,98.462,31.714,100z"/>
<path fill="#929292" d="M31.714,100c-0.003-2.008-0.004-4.013-0.008-6.021c0.357-0.665,0.716-1.33,1.073-1.995c3.385-2.851,6.803-2.872,10.252-0.126c0.386,0.65,0.772,1.304,1.157,1.953c0.009,2.063,0.017,4.127,0.026,6.189C40.047,100,35.881,100,31.714,100z"/>
<path fill="#A6A6A6" d="M7.007,50.089c0.064-6.324,0.126-12.647,0.191-18.97c4.1-4.046,3.241-8.102,0.018-12.161c1.988-4.081,3.976-8.161,5.964-12.241c11.169,5.6,23.178,1.157,34.675,2.899c1.625,0.201,3.058,0.83,4.313,1.877c1.071,1.217,1.767,2.624,2.104,4.199c0.11,1.559-0.131,3.079-0.658,4.547c-1.438,2.615-3.628,4.675-5.365,7.065c-2.332,2.551-4.958,4.846-7.047,7.632c-2.623,3.174-4.123,7.001-6.07,10.577c-2.977,4.025-4.415,8.979-7.759,12.784c-1.852,1.397-3.927,2.114-6.245,2.118c-1.508-0.144-2.94-0.544-4.288-1.236C13.322,56.412,10.154,53.26,7.007,50.089z"/>
<path fill="#A6A6A6" d="M7.095,81.412c0.003-8.426,0.008-16.85,0.011-25.271c3.879-3.3,7.803-3.281,11.769-0.159l0.345,0.274c1.251,1.248,2.519,2.481,3.48,3.928c0.605,1.209,0.88,2.509,0.651,3.781c0.052-0.116-0.267,0.79-0.206,0.687c0.063-0.104-0.259,0.55-0.205,0.439c0.055-0.106,0.348-0.356,0.42-0.464c0.072-0.109,0.502-0.58,0.577-0.689c0.529-0.714,0.981-1.321,1.477-2.015c1.953-2.368,2.688-5.456,5.116-7.446c1.398-0.771,2.854-1.162,4.439-1.232c2.644,0.299,4.678,1.547,6.142,3.747c2.592,9.434,1.7,18.945,0.719,28.455c-1.465,4.989-6.676,5.017-10.001,7.547l-0.124,0.985c-8.235-2.2-16.469-4.403-24.704-6.606C8.958,85.416,8.972,83.429,7.095,81.412z"/>
<path fill="#A6A6A6" d="M50.348,6.68c13.635,0,27.271,0,42.359,0c0.376,7.651,0.642,13.062,0.908,18.472c-8.987,7.968-19.893,3.202-29.883,4.505c-4.66-0.208-9.503,0.348-13.37-3.189c-1.831-2.603-1.908-5.182,0.11-7.73l-0.019,0.024c2.271-2.082,2.273-4.166,0.016-6.256l-0.013-0.012C48.634,10.59,48.591,8.652,50.348,6.68z"/>
<path fill="#A6A6A6" d="M93.925,62.375c0,9.085,0,18.17,0,29.739c-9.201,0.524-17.046,0.974-24.89,1.422c-1.516-1.593-2.248-3.454-1.982-5.667c1.54-4.352,5.922-7.187,6.407-12.118c1.443-3.195,2.574-6.479,3.204-9.949c0.626-3.806,0.339-7.919,3.766-10.735C88.444,51.028,90.483,57.992,93.925,62.375z"/>
<path fill="#AFAFAF" d="M50.348,6.68c0.036,1.938,0.073,3.876,0.109,5.814C38.03,10.568,25.603,8.64,13.179,6.714C25.569,6.705,37.959,6.692,50.348,6.68z"/>
<path fill="#AFAFAF" d="M62.949,25.003c10.224,0.049,20.447,0.098,30.668,0.149c-0.04,1.969-0.077,3.937-0.113,5.905c-6.584,7.438-15.303,4.157-23.271,4.63c-2.791-0.266-5.374-1.017-7.342-3.18C61.22,29.993,60.917,27.487,62.949,25.003z"/>
<path fill="#A6A6A6" d="M69.014,31.29c8.165-0.079,16.33-0.156,24.493-0.232c-0.008,2.207-0.012,4.413-0.017,6.619c-4.229,5.054-10.774,6.101-16.092,9.311c-1.604,0.552-3.23,0.733-4.918,0.568c-2.661-0.568-4.69-2.011-6.128-4.306C64.308,38.608,65.813,34.76,69.014,31.29z"/>
<path fill="#C8C8C8" d="M69.142,87.402c-0.036,2.045-0.071,4.09-0.106,6.134c-8.283,0.092-16.565,0.184-24.848,0.274l0.453-0.76c-1.27-0.879-2.021-2.096-2.319-3.601c0.081-1.508,0.564-2.875,1.445-4.102c1.68-1.584,3.757-2.183,5.99-2.365c2.152-0.131,4.314-0.152,6.471-0.152c2.126,0.003,4.254,0.024,6.377,0.174c2.151,0.21,4.094,0.891,5.623,2.505C68.531,86.142,68.837,86.771,69.142,87.402z"/>
<path fill="#AFAFAF" d="M93.925,62.375c-4.155-2.023-8.31-4.05-12.465-6.073c-2.718,1.935-4.991,1.278-6.956-1.196c-1.076-2.854-0.676-5.347,1.762-7.357c6.458-3.189,12.479-2.994,17.846,2.285C94.049,54.148,93.986,58.261,93.925,62.375z"/>
<path fill="#A6A6A6" d="M94.111,50.033C87.948,50,81.787,49.97,75.624,49.935c-1.782-1.975-2.04-4.003-0.232-6.115l0.071-0.07c6.052-4.117,12.133-4.3,18.245-0.134C93.843,45.755,93.977,47.895,94.111,50.033z"/>
<path fill="#AFAFAF" d="M7.215,18.958c3.137,2.298,6.276,4.596,11.815,8.655c-5.792,1.715-8.815,2.612-11.836,3.506C7.203,27.063,7.21,23.01,7.215,18.958z"/>
<path fill="#AFAFAF" d="M93.708,43.616c-6.082,0.046-12.162,0.088-18.245,0.134c6.011-2.023,12.021-4.05,18.03-6.073C93.564,39.658,93.635,41.638,93.708,43.616z"/>
<path fill="#AFAFAF" d="M18.875,55.981c-3.924,0.055-7.849,0.106-11.772,0.159c-0.031-2.018-0.064-4.035-0.096-6.055C10.963,52.054,14.918,54.016,18.875,55.981z"/>
<path fill="#AFAFAF" d="M7.095,81.412c1.05,0.9,2.1,1.8,3.513,3.012c-1.456,1.19-2.531,2.072-3.607,2.951C7.032,85.385,7.065,83.398,7.095,81.412z"/>
<path fill="#AFAFAF" d="M44.421,88.523c0.073,1.511,0.145,3.021,0.22,4.532c-4.271-0.019-8.542-0.037-12.813-0.059c2.123-1.892,4.244-3.778,6.365-5.664C40.661,85.678,42.779,85.852,44.421,88.523z"/>
<path fill="#929292" d="M44.421,88.523c-2.077-0.396-4.155-0.794-6.23-1.19c-0.08-10.278-0.161-20.557-0.243-30.835c-3.183-3-5.261-6.638-6.277-10.889c-0.075-0.705-0.151-1.41-0.226-2.118c2.069-4.188,4.138-8.374,6.206-12.561c0.801,0.14,1.601,0.284,2.402,0.424c3.891,1.517,7.578,3.26,8.653,7.88c2.199,5.789-0.02,11.67,0.387,17.499c-0.125,4.343-0.159,8.682-0.189,13.027c-0.198,6.156,0.822,12.589-4.072,17.658L44.421,88.523z"/>
<path fill="#929292" d="M62.949,25.003c0.225,2.213,0.449,4.425,0.675,6.641c-0.616,0.684-1.232,1.37-1.85,2.057c-8.305,3.726-16.113,2.313-23.613-2.286c0,0-0.505-0.479-0.508-0.482c2.237-2.06,4.477-4.117,6.717-6.177c1.991-1.63,3.984-1.626,5.978-0.003C54.55,24.835,58.749,24.918,62.949,25.003z"/>
<path fill="#929292" d="M18.888,62.701c0.11-2.148,0.22-4.297,0.332-6.445c1.93-0.141,3.862-0.283,5.792-0.424c0.655,0.519,1.309,1.037,1.965,1.557c2.184,4.184,1.507,8.011-1.453,11.548l0.126-0.126c-2.145,1.783-4.274,1.795-6.382-0.063l-1.102-0.226C17.067,66.415,17.381,64.483,18.888,62.701z"/>
<path fill="#929292" d="M25.012,55.832c2.147-4.111,4.292-8.225,6.436-12.338c-0.003-0.003,0.452,0.485,0.452,0.485c3.302,4.19,3.067,8.346-0.122,12.475l0.139-0.14c-2.115,1.779-4.236,1.8-6.365,0.024L25.012,55.832z"/>
<path fill="#AFAFAF" d="M50.349,24.753c-1.994,0.003-3.987,0.006-5.979,0.006c2.035-2.008,4.069-4.013,6.104-6.021C50.432,20.743,50.391,22.748,50.349,24.753z"/>
<path fill="#AFAFAF" d="M50.47,12.506c-0.007,2.084-0.011,4.172-0.016,6.256C50.459,16.678,50.463,14.59,50.47,12.506z"/>
<path fill="#828282" d="M25.552,56.339c2.121-0.01,4.242-0.019,6.363-0.024c-2.129,4.208-4.261,8.413-6.391,12.622C25.534,64.737,25.543,60.538,25.552,56.339z"/>
<path fill="#828282" d="M31.778,56.454c0.04-4.159,0.08-8.321,0.121-12.479c2.017,4.175,4.035,8.347,6.05,12.519C35.891,56.482,33.835,56.47,31.778,56.454z"/>
<path fill="#828282" d="M19.269,68.747c2.127,0.021,4.254,0.043,6.382,0.063c-0.053,4.261-0.108,8.524-0.162,12.787c-2.092,1.532-4.194,1.538-6.308,0.046C19.211,77.344,19.239,73.044,19.269,68.747z"/>
<path fill="#AFAFAF" d="M18.888,62.701c-0.236,1.941-0.473,3.882-0.715,5.82c-0.877-0.974-1.749-1.947-2.875-3.205C16.73,64.273,17.808,63.488,18.888,62.701z"/>
<path fill="#AFAFAF" d="M19.181,81.644c2.103-0.019,4.206-0.033,6.308-0.049c-0.952,1.065-1.903,2.124-3.143,3.507C21.101,83.74,20.141,82.69,19.181,81.644z"/>
<polygon fill="#AFAFAF" points="85.565,15.439 84.764,16.336 84.384,15.247 "/>
<path fill="#CCCCCC" d="M75.453,56.308c2.003-0.003,4.007-0.006,6.009-0.006c0.049,4.163,0.099,8.325,0.149,12.488c-0.707,0.427-1.413,0.854-2.119,1.284c-8.436-0.928-8.824-5.789-5.992-12.234C74.152,57.33,74.803,56.817,75.453,56.308z"/>
<path fill="#C8C8C8" d="M81.611,68.79c0.012,4.135,0.022,8.27,0.035,12.405c-0.61-0.534-1.221-1.065-1.833-1.6c-2.4-4.199-1.175-7.742,1.974-10.94L81.611,68.79z"/>
<path fill="#CCCCCC" d="M81.647,81.195c-4.169,2.068-8.336,4.141-12.505,6.21c0-0.003,0.159,0.168,0.159,0.168c0.161-9.903,1.417-10.528,12.479-6.214L81.647,81.195z"/>
<path fill="#C8C8C8" d="M69.014,31.29c0.047,4.172,0.095,8.344,0.142,12.515c-0.611,0.485-1.224,0.971-1.836,1.459c-2.434,0.727-4.61,0.302-6.497-1.44c-1.511-1.978-1.984-4.221-1.695-6.659c0.637-2.35,2.088-4.196,3.678-5.96c0,0,0.814,0.437,0.816,0.437C65.42,31.524,67.218,31.406,69.014,31.29z"/>
<path fill="#C8C8C8" d="M75.392,43.82c0.075,2.042,0.151,4.08,0.229,6.115c-0.053,2.124-0.109,4.248-0.166,6.372c-0.001,0,0.119-0.104,0.119-0.104c-12.999,1.27-9.587-5.661-6.271-12.546l-0.145,0.146C71.234,43.811,73.314,43.817,75.392,43.82z"/>
<path fill="#A6A6A6" d="M69.302,43.658c2.091,4.182,4.181,8.365,6.271,12.546c2.07,4.15,4.142,8.301,6.214,12.451c-0.004,4.233-0.005,8.469-0.008,12.704c-4.16,2.069-8.319,4.142-12.479,6.211c-2.075-0.113-4.15-0.229-6.228-0.348C55.72,72.707,55.419,58.178,62.98,43.63C65.089,43.64,67.194,43.649,69.302,43.658z"/>
<path fill="#AFAFAF" d="M62.982,43.631c0.03,14.532,0.062,29.065,0.092,43.595c-2.229,0.027-4.457,0.058-6.687,0.088c-3.044-2.936-4.387-6.549-4.284-10.735c-0.062-2.368-0.075-4.736-0.104-7.107c-0.039-2.369-0.108-4.733-0.217-7.105c-0.15-2.398-0.27-4.791-0.491-7.189c-0.274-2.457-0.605-4.898-0.926-7.352c0.134-4.45,1.731-8.234,5.065-11.24c2.539-1.227,4.96-1.041,7.264,0.592C62.789,39.328,62.886,41.48,62.982,43.631z"/>
<path fill="#F40002" d="M56.166,69.309c-0.002,1.715-0.002,3.43-0.004,5.146c-3.589,3.436-0.924,10.098-6.459,12.53c-1.628,0.144-3.254,0.283-4.876,0.43c-0.035-6.225-0.073-12.451-0.111-18.676c1.634-1.676,3.525-2.829,5.937-2.921C53.067,66.07,54.893,67.252,56.166,69.309z"/>
<path fill="#B00101" d="M49.703,86.984c2.153-4.175,4.307-8.35,6.459-12.527c0.075,4.284,0.15,8.569,0.224,12.856C54.159,87.204,51.932,87.094,49.703,86.984z"/>
<path fill="#F40002" d="M56.717,37.94c-0.176,3.769-0.352,7.541-0.528,11.313c-2.038,2.78-2.368,6.705-5.749,8.588c-2.218,0.583-4.157,0.165-5.73-1.581c-0.11-6.186-0.22-12.375-0.33-18.561C48.569,33.801,52.686,33.71,56.717,37.94z"/>
<path fill="#828282" d="M56.717,37.94c-4.111-0.083-8.224-0.162-12.335-0.244c-2.075-2.094-4.15-4.19-6.223-6.284c8.217-0.067,16.431-0.137,24.646-0.208c-0.038,1.99-0.075,3.982-0.111,5.973C60.7,37.43,58.709,37.683,56.717,37.94z"/>
<path fill="#D50003" d="M44.71,56.259c1.978-0.006,3.957-0.015,5.934-0.021c1.851-1.832,3.698-1.844,5.54,0.015c0.002,2.081,0.003,4.163,0.005,6.247c-1.756,2.146-3.633,4.184-5.597,6.141c-1.958,0.033-3.917,0.066-5.876,0.098C44.714,64.578,44.711,60.419,44.71,56.259z"/>
<path fill="#AA0301" d="M56.184,56.253c-1.848-0.006-3.693-0.009-5.542-0.015c1.85-2.326,3.699-4.651,5.547-6.982C56.187,51.584,56.186,53.918,56.184,56.253z"/>
<path fill="#B00101" d="M50.592,68.641c1.866-2.048,3.732-4.093,5.597-6.141c-0.008,2.268-0.016,4.532-0.022,6.803C54.307,69.086,52.45,68.863,50.592,68.641z"/>
</svg>