<?xml version="1.0" encoding="utf-8"?>
<!DOCTYPE svg PUBLIC "-//W3C//DTD SVG 1.1//EN" "http://www.w3.org/Graphics/SVG/1.1/DTD/svg11.dtd">
<svg version="1.1" xmlns="http://www.w3.org/2000/svg" xmlns:xlink="http://www.w3.org/1999/xlink" x="0px" y="0px" width="100px" height="100px" viewBox="0 0 100 100" enable-background="new 0 0 100 100" xml:space="preserve">
<path d="M33.203,21.07v48.516h9.703v3.832H18.367v-3.832h10.371V25.957c-3.047,2.086-6.574,3.891-10.582,5.414l-0.809-4.184c3.984-1.336,8.039-3.375,12.164-6.117H33.203z"/>
<path d="M55.211,34.535c0.961-4.734,2.941-8.273,5.941-10.617c2.531-1.992,5.648-2.988,9.352-2.988c4.406,0,7.898,1.324,10.477,3.973c2.32,2.368,3.48,5.461,3.48,9.281c0,3.071-0.832,5.895-2.496,8.473c-1.57,2.391-4.359,5.391-8.367,9c-6.773,5.93-11.531,11.859-14.273,17.789h25.207v3.973H54.789v-3.551c2.977-7.125,8.168-14.074,15.574-20.848c3.938-3.679,6.527-6.597,7.77-8.754c1.055-1.828,1.582-3.855,1.582-6.082c0-3.07-0.973-5.449-2.918-7.137c-1.664-1.429-3.785-2.145-6.363-2.145c-5.906,0-9.469,3.598-10.688,10.793L55.211,34.535z"/>
</svg>