<?xml version="1.0" encoding="utf-8"?>
<!DOCTYPE svg PUBLIC "-//W3C//DTD SVG 1.1//EN" "http://www.w3.org/Graphics/SVG/1.1/DTD/svg11.dtd">
<svg version="1.1" xmlns="http://www.w3.org/2000/svg" xmlns:xlink="http://www.w3.org/1999/xlink" x="0px" y="0px" width="100px" height="100px" viewBox="0 0 100 100" enable-background="new 0 0 100 100" xml:space="preserve">
<path d="M33.203,21.07v48.516h9.703v3.832H18.367v-3.832h10.371V25.957c-3.047,2.086-6.574,3.891-10.582,5.414l-0.809-4.184c3.984-1.336,8.039-3.375,12.164-6.117H33.203z"/>
<path d="M55.246,30.879c1.336-3.422,3.398-5.988,6.188-7.699c2.391-1.5,5.18-2.25,8.367-2.25c4.313,0,7.805,1.313,10.477,3.938c2.367,2.297,3.551,5.156,3.551,8.578c0,3.398-0.996,6.188-2.988,8.367c-1.711,1.852-4.008,3.117-6.891,3.797v0.457c3.75,0.844,6.598,2.555,8.543,5.133c1.711,2.273,2.566,5.004,2.566,8.191c0,4.781-1.594,8.566-4.781,11.355c-2.742,2.414-6.188,3.621-10.336,3.621c-7.57,0-12.809-3.27-15.715-9.809l4.324-1.863c1.242,2.953,2.871,5.027,4.887,6.223c1.711,1.031,3.879,1.547,6.504,1.547c3.352,0,5.977-1.125,7.875-3.375c1.664-1.969,2.496-4.488,2.496-7.559c0-3.844-1.207-6.738-3.621-8.684c-2.18-1.758-5.203-2.637-9.07-2.637h-4.043v-4.113h3.621c4.102,0,7.195-1.042,9.281-3.129c1.781-1.781,2.672-4.16,2.672-7.137c0-3-1.008-5.32-3.023-6.961c-1.688-1.359-3.832-2.039-6.434-2.039c-2.531,0-4.699,0.727-6.504,2.18c-1.664,1.336-2.871,3.199-3.621,5.59L55.246,30.879z"/>
</svg>