<?xml version="1.0" encoding="utf-8"?>
<!DOCTYPE svg PUBLIC "-//W3C//DTD SVG 1.1//EN" "http://www.w3.org/Graphics/SVG/1.1/DTD/svg11.dtd">
<svg version="1.1" xmlns="http://www.w3.org/2000/svg" xmlns:xlink="http://www.w3.org/1999/xlink" x="0px" y="0px" width="430px" height="100px" viewBox="0 0 430 100" enable-background="new 0 0 430 100" xml:space="preserve">
<g>
<path fill="#FFFFFF" d="M160.109,20.93c10.218,0,15.328,8.813,15.328,26.438c0,18-5.168,27-15.504,27c-10.219,0-15.328-8.953-15.328-26.859C144.605,29.789,149.773,20.93,160.109,20.93z M160.109,24.902c-3.891,0-6.668,1.934-8.332,5.801c-1.57,3.609-2.355,9.164-2.355,16.664c0,8.648,0.984,14.789,2.953,18.422c1.664,3.07,4.184,4.605,7.559,4.605c3.89,0,6.68-2.027,8.367-6.082c1.547-3.703,2.32-9.328,2.32-16.875c0-8.555-0.997-14.59-2.988-18.105C165.968,26.379,163.461,24.902,160.109,24.902z"/>
<path fill="#FFFFFF" d="M205.602,51.234v4.043h-19.793v-4.043H205.602z"/>
<path fill="#FFFFFF" d="M234.57,21.07v48.516h9.703v3.832h-24.539v-3.832h10.371V25.957c-3.047,2.086-6.574,3.891-10.582,5.414l-0.809-4.184c3.984-1.336,8.039-3.375,12.164-6.117H234.57z"/>
<path fill="#FFFFFF" d="M284.105,21.809v3.973h-21.27l-0.633,13.676c-0.047,1.032-0.188,3.047-0.422,6.047c1.078-1.758,2.59-3.129,4.535-4.113c1.734-0.867,3.586-1.301,5.555-1.301c4.336,0,7.84,1.688,10.512,5.063c2.391,3.047,3.586,6.902,3.586,11.566c0,5.813-1.688,10.348-5.063,13.605c-2.766,2.695-6.164,4.043-10.195,4.043c-7.078,0-11.883-3.199-14.414-9.598l4.395-1.863c1.758,5.039,5.098,7.559,10.02,7.559c3.422,0,6.082-1.359,7.98-4.078c1.688-2.414,2.531-5.566,2.531-9.457c0-4.359-1.008-7.687-3.023-9.984c-1.758-1.969-4.09-2.953-6.996-2.953c-2.344,0-4.406,0.715-6.188,2.145c-1.547,1.266-2.695,2.953-3.445,5.063l-3.762-0.598l1.23-28.793H284.105z"/>
</g>
</svg>