<?xml version="1.0" encoding="utf-8"?>
<!DOCTYPE svg PUBLIC "-//W3C//DTD SVG 1.1//EN" "http://www.w3.org/Graphics/SVG/1.1/DTD/svg11.dtd">
<svg version="1.1" xmlns="http://www.w3.org/2000/svg" xmlns:xlink="http://www.w3.org/1999/xlink" x="0px" y="0px" width="100px" height="100px" viewBox="0 0 100 100" enable-background="new 0 0 100 100" xml:space="preserve">
<path d="M29.617,21.563c4.711,0,8.508,2.449,11.391,7.348c2.766,4.664,4.148,10.898,4.148,18.703c0,8.953-1.699,15.797-5.098,20.531c-2.766,3.844-6.246,5.766-10.441,5.766c-5.156,0-9.129-2.461-11.918-7.383c-2.531-4.5-3.797-10.652-3.797-18.457c0-9.164,1.734-16.113,5.203-20.848C21.894,23.449,25.398,21.563,29.617,21.563z M29.617,23.777c-6.211,0-9.316,8.016-9.316,24.047c0,9.047,0.938,15.469,2.813,19.266c1.5,3.047,3.668,4.57,6.504,4.57c3.164,0,5.484-2.004,6.961-6.012c1.453-3.914,2.18-9.855,2.18-17.824C38.757,31.793,35.71,23.777,29.617,23.777z"/>
<path d="M68.641,21.563c4.711,0,8.508,2.449,11.391,7.348c2.766,4.664,4.148,10.898,4.148,18.703c0,8.953-1.699,15.797-5.098,20.531c-2.766,3.844-6.246,5.766-10.441,5.766c-5.156,0-9.129-2.461-11.918-7.383c-2.531-4.5-3.797-10.652-3.797-18.457c0-9.164,1.734-16.113,5.203-20.848C60.918,23.449,64.422,21.563,68.641,21.563z M68.641,23.777c-6.211,0-9.316,8.016-9.316,24.047c0,9.047,0.938,15.469,2.813,19.266c1.5,3.047,3.668,4.57,6.504,4.57c3.164,0,5.484-2.004,6.961-6.012c1.453-3.914,2.18-9.855,2.18-17.824C77.781,31.793,74.734,23.777,68.641,23.777z"/>
</svg>