<?xml version="1.0" encoding="utf-8"?>
<!DOCTYPE svg PUBLIC "-//W3C//DTD SVG 1.1//EN" "http://www.w3.org/Graphics/SVG/1.1/DTD/svg11.dtd">
<svg version="1.1" xmlns="http://www.w3.org/2000/svg" xmlns:xlink="http://www.w3.org/1999/xlink" x="0px" y="0px" width="100px" height="100px" viewBox="0 0 100 100" enable-background="new 0 0 100 100" xml:space="preserve">
<path d="M52.5,21.211c0.773,0,1.16,0.305,1.16,0.914c-0.234,6.305-0.352,11.449-0.352,15.434v21.867c0,3.609,0.059,5.965,0.176,7.066c0.117,0.938,0.352,1.699,0.703,2.285c0.516,0.938,2.695,1.547,6.539,1.828c0.422,0.047,0.633,0.398,0.633,1.055c0,0.68-0.164,1.02-0.492,1.02c-4.266-0.188-7.652-0.281-10.161-0.281c-2.18,0-5.637,0.094-10.371,0.281c-0.328,0-0.492-0.34-0.492-1.02c0-0.656,0.234-1.008,0.703-1.055c2.297-0.164,3.891-0.398,4.781-0.703c0.68-0.234,1.172-0.609,1.477-1.125c0.586-0.914,0.879-4.031,0.879-9.352V34.148c0-2.789-0.258-4.535-0.773-5.238c-0.469-0.633-1.148-0.949-2.039-0.949c-0.633,0-1.5,0.176-2.602,0.527l-3.164,0.984c-0.609,0-0.914-0.48-0.914-1.441c0-0.281,0.27-0.515,0.809-0.703C43.687,25.641,48.187,23.602,52.5,21.211z"/>
</svg>