<?xml version="1.0" encoding="utf-8"?>
<!DOCTYPE svg PUBLIC "-//W3C//DTD SVG 1.1//EN" "http://www.w3.org/Graphics/SVG/1.1/DTD/svg11.dtd">
<svg version="1.1" xmlns="http://www.w3.org/2000/svg" xmlns:xlink="http://www.w3.org/1999/xlink" x="0px" y="0px" width="100px" height="100px" viewBox="0 0 100 100" enable-background="new 0 0 100 100" xml:space="preserve">
<path d="M61.816,72.68c-4.57-0.141-9.152-0.211-13.747-0.211c-4.523,0-9.035,0.07-13.535,0.211c-0.586,0-0.879-0.457-0.879-1.371c0-0.68,0.164-1.277,0.492-1.793c4.828-7.102,9.34-13.172,13.535-18.211l1.371-1.582c3.493-4.101,5.801-7.406,6.926-9.914c0.867-1.898,1.301-3.949,1.301-6.152c0-3.375-0.832-5.941-2.496-7.699c-1.359-1.429-3.117-2.145-5.274-2.145c-3.281,0-5.59,1.324-6.926,3.973c-0.469,1.008-0.703,2.707-0.703,5.098c0,0.961-0.551,1.758-1.652,2.391c-0.914,0.563-2.004,0.844-3.27,0.844c-1.477,0-2.215-0.844-2.215-2.531c0-3.046,1.652-5.883,4.957-8.508c2.977-2.343,6.246-3.516,9.809-3.516c4.36,0,7.875,1.243,10.547,3.727c2.414,2.25,3.621,5.133,3.621,8.648c0,3.094-0.68,5.743-2.039,7.945c-1.266,2.086-3.586,4.653-6.961,7.699l-2.215,2.004c-6.305,5.672-10.969,10.957-13.993,15.855h11.953c3.165,0,5.356-0.129,6.575-0.387c0.984-0.188,1.84-0.563,2.566-1.125c1.43-1.055,2.73-2.93,3.902-5.625c0.141-0.328,0.328-0.492,0.563-0.492c0.328,0,0.645,0.082,0.949,0.246c0.281,0.141,0.422,0.293,0.422,0.457l-0.07,0.387C64.16,65.355,62.988,69.281,61.816,72.68z"/>
</svg>