<?xml version="1.0" encoding="utf-8"?>
<!DOCTYPE svg PUBLIC "-//W3C//DTD SVG 1.1//EN" "http://www.w3.org/Graphics/SVG/1.1/DTD/svg11.dtd">
<svg version="1.1" xmlns="http://www.w3.org/2000/svg" xmlns:xlink="http://www.w3.org/1999/xlink" x="0px" y="0px" width="100px" height="100px" viewBox="0 0 100 100" enable-background="new 0 0 100 100" xml:space="preserve">
<path d="M58.371,58.969v4.465c0,2.789,0.211,4.652,0.633,5.59c0.516,0.914,2.297,1.488,5.344,1.723c0.375,0.047,0.563,0.375,0.563,0.984c0,0.633-0.188,0.949-0.563,0.949c-3.305-0.188-6.188-0.281-8.648-0.281s-5.391,0.094-8.79,0.281c-0.469,0-0.703-0.316-0.703-0.949c0-0.586,0.234-0.914,0.703-0.984c2.859-0.281,4.524-0.762,4.993-1.441c0.609-1.008,0.914-3.375,0.914-7.102v-3.164H40.16l-6.258,0.07c-0.633,0-0.949-0.621-0.949-1.863c0-0.938,0.27-1.898,0.809-2.883c5.883-9.68,12.691-20.378,20.426-32.098l4.113-1.055c0.328,0,0.492,0.211,0.492,0.633l-0.281,18.035l-0.141,16.418c2.391,0,4.934-0.117,7.629-0.352c0.328,0,0.492,0.141,0.492,0.422l-0.633,2.32c-0.07,0.281-0.281,0.422-0.633,0.422C63.82,59.016,61.535,58.969,58.371,58.969z M52.816,56.367l0.141-15.188c0.07-3.96,0.176-8.262,0.316-12.902c-7.313,11.109-12.985,20.109-17.016,27c-0.188,0.398-0.281,0.645-0.281,0.738c0,0.234,0.316,0.352,0.949,0.352H52.816z"/>
</svg>