<?xml version="1.0" encoding="utf-8"?>
<!DOCTYPE svg PUBLIC "-//W3C//DTD SVG 1.1//EN" "http://www.w3.org/Graphics/SVG/1.1/DTD/svg11.dtd">
<svg version="1.1" xmlns="http://www.w3.org/2000/svg" xmlns:xlink="http://www.w3.org/1999/xlink" x="0px" y="0px" width="100px" height="100px" viewBox="0 0 100 100" enable-background="new 0 0 100 100" xml:space="preserve">
<path d="M41.039,47.754c1.102-1.851,2.684-3.305,4.746-4.359c1.758-0.914,3.574-1.371,5.45-1.371c4.617,0,8.191,1.547,10.723,4.641c2.227,2.719,3.34,6.281,3.34,10.688c0,5.25-1.652,9.445-4.957,12.586c-2.789,2.648-6.176,3.973-10.161,3.973c-4.898,0-8.859-2.004-11.883-6.012c-2.695-3.586-4.043-8.133-4.043-13.641c0-10.828,4.699-19.688,14.098-26.578c3.868-2.835,7.641-4.969,11.321-6.398c0.75,0,1.453,0.434,2.109,1.301c0.328,0.469,0.492,0.926,0.492,1.371c0,0.469-0.211,0.703-0.633,0.703c-3.867,0.234-7.254,1.383-10.16,3.445c-2.813,2.016-5.192,4.805-7.137,8.367c-1.805,3.328-3.082,7.066-3.832,11.215L41.039,47.754z M49.968,44.766c-3.633,0-6.492,1.922-8.578,5.766c-0.68,1.148-1.02,2.602-1.02,4.359c0,5.836,1.043,10.219,3.129,13.148c1.688,2.414,3.914,3.621,6.68,3.621c2.766,0,4.958-1.395,6.575-4.184c1.477-2.531,2.215-5.813,2.215-9.844c0-4.406-0.949-7.746-2.848-10.02C54.551,45.715,52.5,44.766,49.968,44.766z"/>
</svg>