<?xml version="1.0" encoding="utf-8"?>
<!DOCTYPE svg PUBLIC "-//W3C//DTD SVG 1.1//EN" "http://www.w3.org/Graphics/SVG/1.1/DTD/svg11.dtd">
<svg version="1.1" xmlns="http://www.w3.org/2000/svg" xmlns:xlink="http://www.w3.org/1999/xlink" x="0px" y="0px" width="100px" height="100px" viewBox="0 0 100 100" enable-background="new 0 0 100 100" xml:space="preserve">
<path d="M36.328,22.512c5.859,0.094,10.512,0.141,13.957,0.141c3.235,0,7.782-0.047,13.641-0.141c0.375,0,0.563,0.48,0.563,1.441c0,0.703-0.094,1.289-0.281,1.758c-6.563,12.797-10.91,22.957-13.043,30.48c-0.961,3.492-1.442,6.586-1.442,9.281l0.07,5.203c0,0.938-0.48,1.734-1.441,2.391c-0.82,0.563-1.781,0.844-2.883,0.844c-2.109,0-3.164-0.938-3.164-2.813c0-2.648,0.387-5.297,1.16-7.945c0.703-2.367,1.992-5.719,3.867-10.055c1.688-3.867,6.083-12.281,13.184-25.242H45.539c-3.211,0-5.367,0.48-6.469,1.441c-1.102,0.961-1.945,2.543-2.531,4.746c-0.117,0.422-0.375,0.633-0.773,0.633c-0.773,0-1.16-0.188-1.16-0.563v-0.141C35.332,29.379,35.906,25.559,36.328,22.512z"/>
</svg>