<?xml version="1.0" encoding="utf-8"?>
<!DOCTYPE svg PUBLIC "-//W3C//DTD SVG 1.1//EN" "http://www.w3.org/Graphics/SVG/1.1/DTD/svg11.dtd">
<svg version="1.1" xmlns="http://www.w3.org/2000/svg" xmlns:xlink="http://www.w3.org/1999/xlink" x="0px" y="0px" width="100px" height="100px" viewBox="0 0 100 100" enable-background="new 0 0 100 100" xml:space="preserve">
<path d="M54.047,44.59c4.266,2.086,7.266,4.395,9,6.926c1.523,2.227,2.285,4.934,2.285,8.121c0,4.453-1.641,8.039-4.922,10.758c-2.883,2.344-6.469,3.516-10.758,3.516c-4.945,0-8.953-1.465-12.023-4.395c-2.648-2.555-3.973-5.672-3.973-9.352c0-5.672,3.844-10.23,11.531-13.676c-3.914-1.898-6.609-3.925-8.086-6.082c-1.289-1.851-1.934-4.125-1.934-6.82c0-3.398,1.57-6.316,4.711-8.754c2.789-2.18,6.047-3.27,9.773-3.27c4.29,0,7.817,1.23,10.583,3.691c2.391,2.133,3.586,4.676,3.586,7.629c0,2.836-0.844,5.203-2.531,7.102C59.742,41.695,57.328,43.231,54.047,44.59z M47.542,47.613c-5.367,2.742-8.051,6.938-8.051,12.586c0,3.563,1.137,6.457,3.41,8.684c1.922,1.852,4.195,2.777,6.82,2.777c3.118,0,5.649-1.148,7.594-3.445c1.734-2.016,2.602-4.559,2.602-7.629c0-2.859-1.031-5.297-3.094-7.313C54.949,51.492,51.855,49.605,47.542,47.613z M51.516,43.289c2.367-0.914,4.16-2.355,5.379-4.324c1.102-1.758,1.652-3.773,1.652-6.047c0-2.789-0.961-5.074-2.883-6.855c-1.664-1.523-3.668-2.285-6.012-2.285c-2.813,0-5.121,0.984-6.926,2.953c-1.523,1.641-2.285,3.586-2.285,5.836c0,2.461,0.82,4.453,2.461,5.977C44.519,40.067,47.39,41.649,51.516,43.289z"/>
</svg>