<?xml version="1.0" encoding="utf-8"?>
<!DOCTYPE svg PUBLIC "-//W3C//DTD SVG 1.1//EN" "http://www.w3.org/Graphics/SVG/1.1/DTD/svg11.dtd">
<svg version="1.1" xmlns="http://www.w3.org/2000/svg" xmlns:xlink="http://www.w3.org/1999/xlink" x="0px" y="0px" width="100px" height="100px" viewBox="0 0 100 100" enable-background="new 0 0 100 100" xml:space="preserve">
<path d="M58.301,47.613c-2.508,3.609-5.918,5.414-10.231,5.414c-4.453,0-8.016-1.605-10.688-4.816c-2.32-2.765-3.48-6.199-3.48-10.301c0-5.109,1.676-9.223,5.027-12.34c2.836-2.672,6.27-4.008,10.301-4.008c4.829,0,8.708,1.946,11.637,5.836c2.672,3.539,4.008,8.145,4.008,13.816c0,12.563-4.582,21.832-13.746,27.809c-3.422,2.18-7.102,3.809-11.04,4.887c-0.68,0-1.324-0.434-1.934-1.301c-0.281-0.422-0.422-0.832-0.422-1.23c0-0.469,0.293-0.703,0.879-0.703c3.797-0.234,6.891-1.078,9.281-2.531c3.305-2.016,5.836-4.758,7.594-8.227c1.641-3.211,2.73-7.266,3.27-12.164L58.301,47.613z M49.23,23.777c-2.766,0-5.004,1.348-6.715,4.043c-1.57,2.484-2.355,5.695-2.355,9.633c0,4.219,0.973,7.5,2.918,9.844c1.641,1.946,3.691,2.918,6.152,2.918c3.61,0,6.493-2.016,8.649-6.047c0.586-1.102,0.879-2.637,0.879-4.605c0-5.531-1.066-9.703-3.199-12.516C53.895,24.867,51.785,23.777,49.23,23.777z"/>
</svg>