<?xml version="1.0" encoding="utf-8"?>
<!DOCTYPE svg PUBLIC "-//W3C//DTD SVG 1.1//EN" "http://www.w3.org/Graphics/SVG/1.1/DTD/svg11.dtd">
<svg version="1.1" xmlns="http://www.w3.org/2000/svg" xmlns:xlink="http://www.w3.org/1999/xlink" x="0px" y="0px" width="100px" height="100px" viewBox="0 0 100 100" enable-background="new 0 0 100 100" xml:space="preserve">
<path fill="#1B1464" d="M45.704,35.93v52.488h-6.118L20.637,54.422c-1.946-3.609-4.442-8.402-7.488-14.379h-0.703c0.093,7.477,0.141,12.727,0.141,15.75v32.625H8.121V35.93h7.348l18.07,32.414c2.156,4.008,4.652,8.918,7.489,14.73h0.703c-0.329-6.211-0.492-11.66-0.492-16.348V35.93H45.704z"/>
<path fill="#1B1464" d="M90,48H71V14.236l8.105,16.211c0.176,0.351,0.528,0.553,0.896,0.553c0.15,0,0.303-0.034,0.446-0.105c0.494-0.247,0.694-0.848,0.447-1.342L70,7.765L59.105,29.553c-0.247,0.494-0.047,1.095,0.447,1.342c0.495,0.247,1.094,0.047,1.342-0.447L69,14.236V48H50c-1.104,0-2,0.896-2,2s0.896,2,2,2h18v38c0,1.104,0.896,2,2,2s2-0.896,2-2V52h18c1.104,0,2-0.896,2-2S91.104,48,90,48z"/>
</svg>