<?xml version="1.0" encoding="utf-8"?>
<!DOCTYPE svg PUBLIC "-//W3C//DTD SVG 1.1//EN" "http://www.w3.org/Graphics/SVG/1.1/DTD/svg11.dtd">
<svg version="1.1" xmlns="http://www.w3.org/2000/svg" xmlns:xlink="http://www.w3.org/1999/xlink" x="0px" y="0px" width="100px" height="100px" viewBox="0 0 100 100" enable-background="new 0 0 100 100" xml:space="preserve">
<path fill="#1B1464" d="M49.234,47.145l-4.746,1.512c-1.992-6.421-6.024-9.633-12.094-9.633c-3.774,0-6.692,0.961-8.754,2.883c-1.805,1.665-2.707,3.82-2.707,6.469c0,3.141,0.984,5.52,2.953,7.137c1.71,1.359,4.57,2.531,8.578,3.516l2.109,0.598c6.492,1.641,10.875,3.809,13.148,6.504c1.781,2.086,2.672,4.98,2.672,8.684c0,4.734-1.758,8.426-5.273,11.074c-3.141,2.367-7.29,3.551-12.445,3.551c-4.969,0-9.094-1.254-12.375-3.762c-2.883-2.227-4.945-5.297-6.188-9.211l4.746-1.793c1.898,7.195,6.48,10.793,13.746,10.793c4.547,0,7.933-1.078,10.16-3.234c1.781-1.758,2.672-4.09,2.672-6.996c0-3.234-0.949-5.66-2.848-7.277c-1.828-1.547-5.051-2.906-9.668-4.078l-1.828-0.527c-5.93-1.523-10.008-3.574-12.234-6.152c-1.828-2.133-2.742-5.004-2.742-8.613c0-4.055,1.559-7.371,4.676-9.949c2.953-2.438,6.797-3.656,11.531-3.656C40.738,34.98,46.375,39.036,49.234,47.145z"/>
<path fill="#1B1464" d="M80.447,69.105c-0.495-0.246-1.094-0.047-1.342,0.447L71,85.764V51.91C77.242,51.005,82,41.716,82,30c0-12.336-5.271-22-12-22s-12,9.664-12,22c0,11.716,4.758,21.005,11,21.91v33.854l-8.105-16.211c-0.248-0.494-0.847-0.693-1.342-0.447c-0.494,0.247-0.694,0.848-0.447,1.342L70,92.236l10.895-21.789C81.142,69.953,80.941,69.353,80.447,69.105z M62,30c0-10.608,4.216-18,8-18s8,7.392,8,18s-4.216,18-8,18S62,40.608,62,30z"/>
</svg>