<?xml version="1.0" encoding="utf-8"?>
<!DOCTYPE svg PUBLIC "-//W3C//DTD SVG 1.1//EN" "http://www.w3.org/Graphics/SVG/1.1/DTD/svg11.dtd">
<svg version="1.1" xmlns="http://www.w3.org/2000/svg" xmlns:xlink="http://www.w3.org/1999/xlink" x="0px" y="0px" width="100px" height="100px" viewBox="0 0 100 100" enable-background="new 0 0 100 100" xml:space="preserve">
<path fill="#1B1464" d="M53.535,11.464L50,7.929L26.464,31.465c-1.952,1.951-1.952,5.119,0,7.07c1.953,1.953,5.119,1.953,7.071,0L45,27.071V85c0,2.762,2.239,5,5,5c2.762,0,5-2.238,5-5V27.071l11.465,11.464c1.952,1.953,5.118,1.953,7.07,0C74.512,37.56,75,36.279,75,35s-0.488-2.56-1.465-3.535L53.535,11.464L53.535,11.464z"/>
</svg>