<?xml version="1.0" encoding="utf-8"?>
<!DOCTYPE svg PUBLIC "-//W3C//DTD SVG 1.1//EN" "http://www.w3.org/Graphics/SVG/1.1/DTD/svg11.dtd">
<svg version="1.1" xmlns="http://www.w3.org/2000/svg" xmlns:xlink="http://www.w3.org/1999/xlink" x="0px" y="0px" width="100px" height="100px" viewBox="0 0 100 100" enable-background="new 0 0 100 100" xml:space="preserve">
<path fill="#1B1464" d="M63.703,45.93L50.977,98.418h-6.258L37.09,66.004c-1.102-4.711-2.215-10.008-3.34-15.891h-0.773c-0.867,5.016-1.969,10.266-3.305,15.75l-7.875,32.555h-6.328L3.234,45.93h5.027l6.996,32.027c0.726,3.352,1.781,8.707,3.164,16.066h0.809c1.969-9.797,3.046-15.047,3.234-15.75l7.77-32.344h6.539l7.559,32.555c0.141,0.539,1.23,5.719,3.27,15.539h0.773c0.188-0.867,0.738-3.668,1.652-8.402c0.539-2.742,1.042-5.145,1.511-7.207l7.348-32.484H63.703z"/>
<path fill="#1B1464" d="M90,29h-2.089c2.5-2.201,4.089-5.415,4.089-9c0-6.617-5.383-12-12-12H70c-1.104,0-2,0.896-2,2v19H14.235l16.211-8.105c0.494-0.247,0.694-0.848,0.447-1.342s-0.847-0.695-1.342-0.447L7.764,30l21.789,10.895C29.696,40.966,29.849,41,29.999,41c0.367,0,0.72-0.202,0.896-0.553c0.247-0.494,0.047-1.095-0.447-1.342L14.235,31H68v19c0,1.105,0.896,2,2,2s2-0.895,2-2V32h8c1.699,0,3.315-0.36,4.781-1H90c0.553,0,1-0.448,1-1S90.553,29,90,29z M72,12h8c4.411,0,8,3.589,8,8s-3.589,8-8,8h-8V12z"/>
</svg>