<?xml version="1.0" encoding="utf-8"?>
<!DOCTYPE svg PUBLIC "-//W3C//DTD SVG 1.1//EN" "http://www.w3.org/Graphics/SVG/1.1/DTD/svg11.dtd">
<svg version="1.1" xmlns="http://www.w3.org/2000/svg" xmlns:xlink="http://www.w3.org/1999/xlink" x="0px" y="0px" width="100px" height="100px" viewBox="0 0 100 100" enable-background="new 0 0 100 100" xml:space="preserve">
<path fill="#006837" d="M56.579,49.455c-1.104,0-2-0.896-2-2v-1c0-1.104,0.896-2,2-2s2,0.896,2,2v1C58.579,48.56,57.684,49.455,56.579,49.455z M56.579,42.455c-1.104,0-2-0.896-2-2v-1c0-1.104,0.896-2,2-2s2,0.896,2,2v1C58.579,41.56,57.684,42.455,56.579,42.455z M56.579,35.455c-1.104,0-2-0.896-2-2v-1c0-1.104,0.896-2,2-2s2,0.896,2,2v1C58.579,34.56,57.684,35.455,56.579,35.455z M56.579,28.455c-1.104,0-2-0.896-2-2v-1c0-1.104,0.896-2,2-2s2,0.896,2,2v1C58.579,27.56,57.684,28.455,56.579,28.455z"/>
<path fill="#1B1464" d="M34.942,61.986c-0.691,0-1.364-0.358-1.734-1c-0.552-0.957-0.225-2.18,0.732-2.732l21.651-12.5c0.955-0.554,2.18-0.225,2.732,0.732c0.552,0.957,0.225,2.18-0.732,2.732l-21.651,12.5C35.625,61.9,35.281,61.986,34.942,61.986z"/>
<path fill="#1B1464" d="M34.942,36.991c-0.691,0-1.364-0.359-1.734-1c-0.552-0.957-0.225-2.18,0.732-2.732l0.866-0.5c0.957-0.554,2.18-0.225,2.732,0.732c0.552,0.957,0.225,2.18-0.732,2.732l-0.866,0.5C35.625,36.904,35.281,36.991,34.942,36.991z M41.004,33.491c-0.691,0-1.364-0.359-1.734-1c-0.552-0.957-0.225-2.18,0.732-2.732l0.866-0.5c0.958-0.554,2.181-0.225,2.732,0.732c0.552,0.957,0.225,2.18-0.732,2.732l-0.866,0.5C41.687,33.404,41.343,33.491,41.004,33.491z M47.066,29.991c-0.691,0-1.363-0.359-1.734-1c-0.552-0.957-0.225-2.18,0.731-2.732l0.866-0.5c0.959-0.553,2.18-0.224,2.732,0.731c0.552,0.957,0.225,2.18-0.731,2.732l-0.866,0.5C47.75,29.904,47.406,29.991,47.066,29.991z M53.129,26.491c-0.691,0-1.363-0.358-1.733-1c-0.553-0.956-0.226-2.18,0.73-2.732l0.865-0.5c0.957-0.554,2.18-0.226,2.732,0.731c0.553,0.956,0.226,2.18-0.73,2.732l-0.865,0.5C53.813,26.404,53.469,26.491,53.129,26.491z"/>
<path fill="#C1272D" d="M78.259,61.945c-0.339,0-0.683-0.086-0.998-0.268l-0.866-0.5c-0.956-0.553-1.284-1.775-0.732-2.732c0.553-0.956,1.772-1.285,2.732-0.732l0.866,0.5c0.956,0.553,1.284,1.775,0.732,2.732C79.622,61.587,78.95,61.945,78.259,61.945z M72.196,58.445c-0.34,0-0.684-0.086-0.999-0.269l-0.865-0.5c-0.956-0.553-1.283-1.775-0.73-2.732c0.552-0.956,1.773-1.285,2.732-0.73l0.865,0.5c0.956,0.553,1.283,1.775,0.73,2.732C73.56,58.087,72.888,58.445,72.196,58.445z M66.135,54.945c-0.339,0-0.683-0.086-0.998-0.268l-0.866-0.5c-0.956-0.553-1.284-1.775-0.732-2.732s1.772-1.286,2.732-0.732l0.866,0.5c0.956,0.553,1.284,1.775,0.732,2.732C67.498,54.587,66.826,54.945,66.135,54.945z M60.072,51.445c-0.339,0-0.683-0.086-0.998-0.268l-0.866-0.5c-0.956-0.552-1.284-1.775-0.732-2.732c0.553-0.957,1.773-1.287,2.732-0.732l0.866,0.5c0.956,0.552,1.284,1.775,0.732,2.732C61.436,51.087,60.764,51.445,60.072,51.445z"/>
<path fill="#C1272D" d="M78.259,36.951c-0.34,0-0.684-0.087-0.999-0.269l-0.433-0.25c-0.956-0.552-1.283-1.776-0.73-2.732c0.552-0.957,1.774-1.284,2.732-0.731l0.433,0.25c0.956,0.552,1.283,1.776,0.73,2.732C79.622,36.592,78.95,36.951,78.259,36.951z"/>
<path fill="#C1272D" d="M73.207,34.034c-0.339,0-0.683-0.086-0.998-0.269l-0.77-0.444c-0.957-0.552-1.284-1.775-0.732-2.732c0.553-0.957,1.772-1.287,2.732-0.732l0.77,0.444c0.957,0.552,1.284,1.775,0.732,2.732C74.57,33.675,73.898,34.034,73.207,34.034z M67.818,30.923c-0.34,0-0.684-0.087-0.999-0.269l-0.77-0.445c-0.956-0.553-1.283-1.776-0.73-2.732c0.552-0.957,1.775-1.282,2.732-0.73l0.77,0.445c0.956,0.553,1.283,1.776,0.73,2.732C69.182,30.565,68.509,30.923,67.818,30.923z M62.43,27.812c-0.339,0-0.683-0.086-0.998-0.269l-0.77-0.444c-0.957-0.552-1.284-1.775-0.732-2.732c0.553-0.957,1.773-1.286,2.732-0.732l0.77,0.444c0.957,0.552,1.284,1.775,0.732,2.732C63.793,27.453,63.121,27.812,62.43,27.812z"/>
<path fill="#C1272D" d="M57.041,24.701c-0.34,0-0.684-0.087-0.999-0.269l-0.433-0.25c-0.956-0.552-1.283-1.776-0.73-2.732c0.551-0.957,1.774-1.284,2.732-0.731l0.433,0.25c0.956,0.552,1.283,1.776,0.73,2.732C58.404,24.342,57.732,24.701,57.041,24.701z"/>
<path fill="#1B1464" d="M56.61,74.465c-0.691,0-1.363-0.358-1.734-1c-0.552-0.957-0.224-2.18,0.732-2.732l0.866-0.5c0.959-0.553,2.179-0.224,2.732,0.732c0.552,0.957,0.224,2.18-0.732,2.732l-0.866,0.5C57.293,74.379,56.949,74.465,56.61,74.465z M62.673,70.965c-0.691,0-1.363-0.358-1.733-0.999c-0.553-0.957-0.226-2.18,0.73-2.732l0.865-0.5c0.956-0.555,2.18-0.226,2.732,0.73c0.553,0.957,0.226,2.18-0.73,2.732l-0.865,0.5C63.356,70.879,63.013,70.965,62.673,70.965z M68.734,67.465c-0.691,0-1.363-0.358-1.734-1c-0.552-0.957-0.224-2.18,0.732-2.732l0.866-0.5c0.959-0.553,2.18-0.224,2.732,0.732c0.552,0.957,0.224,2.18-0.732,2.732l-0.866,0.5C69.417,67.379,69.073,67.465,68.734,67.465z M74.797,63.965c-0.691,0-1.363-0.358-1.734-1c-0.552-0.957-0.224-2.18,0.732-2.732l0.866-0.5c0.958-0.554,2.18-0.224,2.732,0.732c0.552,0.957,0.224,2.18-0.732,2.732l-0.866,0.5C75.479,63.879,75.136,63.965,74.797,63.965z"/>
<path fill="#006837" d="M78.261,58.97c-1.104,0-2-0.896-2-2v-1c0-1.104,0.896-2,2-2s2,0.896,2,2v1C80.261,58.074,79.365,58.97,78.261,58.97z M78.26,51.971c-1.104,0-2-0.896-2-2v-1c0-1.104,0.896-2,2-2s2,0.896,2,2v1C80.26,51.075,79.364,51.971,78.26,51.971z M78.26,44.97c-1.104,0-2-0.896-2-2v-1c0-1.104,0.896-2,2-2s2,0.896,2,2v1C80.26,44.075,79.364,44.97,78.26,44.97z M78.259,37.97c-1.104,0-2-0.896-2-2v-1c0-1.104,0.896-2,2-2s2,0.896,2,2v1C80.259,37.075,79.363,37.97,78.259,37.97z"/>
<path fill="#1B1464" d="M56.61,49.471c-0.691,0-1.363-0.359-1.734-1c-0.552-0.957-0.224-2.18,0.732-2.732l0.866-0.5c0.959-0.555,2.179-0.225,2.732,0.732c0.552,0.957,0.224,2.18-0.732,2.732l-0.866,0.5C57.293,49.385,56.949,49.471,56.61,49.471z M62.673,45.971c-0.691,0-1.363-0.358-1.733-1c-0.553-0.956-0.226-2.18,0.73-2.732l0.865-0.5c0.956-0.553,2.18-0.227,2.732,0.731c0.553,0.956,0.226,2.18-0.73,2.732l-0.865,0.5C63.356,45.884,63.013,45.971,62.673,45.971z M68.734,42.471c-0.691,0-1.363-0.359-1.734-1c-0.552-0.957-0.224-2.18,0.732-2.732l0.866-0.5c0.959-0.554,2.18-0.225,2.732,0.732c0.552,0.957,0.224,2.18-0.732,2.732l-0.866,0.5C69.417,42.384,69.073,42.471,68.734,42.471z M74.797,38.971c-0.691,0-1.363-0.359-1.734-1c-0.552-0.957-0.224-2.18,0.732-2.732l0.866-0.5c0.958-0.555,2.18-0.225,2.732,0.732c0.552,0.957,0.224,2.18-0.732,2.732l-0.866,0.5C75.479,38.884,75.136,38.971,74.797,38.971z"/>
<path fill="#006837" d="M34.968,61.984c-1.104,0-2-0.896-2-2v-25c0-1.104,0.896-2,2-2s2,0.896,2,2v25C36.968,61.089,36.073,61.984,34.968,61.984z"/>
<path fill="#1B1464" d="M13.331,74.516c-0.691,0-1.364-0.358-1.734-1c-0.552-0.957-0.225-2.18,0.732-2.732l21.651-12.5c0.957-0.552,2.18-0.225,2.732,0.732c0.552,0.957,0.225,2.18-0.732,2.732l-21.651,12.5C14.014,74.43,13.67,74.516,13.331,74.516z"/>
<path fill="#1B1464" d="M13.331,49.521c-0.691,0-1.364-0.359-1.734-1c-0.552-0.957-0.225-2.18,0.732-2.732l21.651-12.5c0.957-0.553,2.18-0.225,2.732,0.732c0.552,0.957,0.225,2.18-0.732,2.732l-21.651,12.5C14.014,49.434,13.67,49.521,13.331,49.521z"/>
<path fill="#C1272D" d="M56.648,74.475c-0.339,0-0.683-0.086-0.998-0.268L34,61.707c-0.957-0.553-1.284-1.775-0.732-2.732c0.552-0.957,1.775-1.284,2.732-0.732l21.65,12.5c0.957,0.553,1.284,1.775,0.732,2.732C58.012,74.116,57.34,74.475,56.648,74.475z"/>
<path fill="#C1272D" d="M56.648,49.48c-0.339,0-0.683-0.086-0.998-0.269L34,36.712c-0.957-0.552-1.284-1.775-0.732-2.732c0.552-0.957,1.775-1.285,2.732-0.732l21.65,12.5c0.957,0.552,1.284,1.775,0.732,2.732C58.012,49.122,57.34,49.48,56.648,49.48z"/>
<path fill="#C1272D" d="M34.99,86.994c-0.339,0-0.683-0.086-0.998-0.268l-21.65-12.5c-0.957-0.553-1.284-1.775-0.732-2.732c0.552-0.957,1.775-1.283,2.732-0.732l21.65,12.5c0.957,0.553,1.284,1.775,0.732,2.732C36.354,86.636,35.682,86.994,34.99,86.994z"/>
<path fill="#006837" d="M13.359,74.461c-1.104,0-2-0.896-2-2l-0.003-24.99c0-1.104,0.895-2,2-2c1.104,0,2,0.895,2,2l0.003,24.99C15.359,73.565,14.464,74.461,13.359,74.461z"/>
<path fill="#1B1464" d="M34.999,86.995c-0.691,0-1.364-0.358-1.734-1c-0.552-0.957-0.225-2.18,0.732-2.732l21.651-12.5c0.956-0.554,2.18-0.224,2.732,0.732c0.552,0.957,0.225,2.18-0.732,2.732l-21.651,12.5C35.682,86.909,35.338,86.995,34.999,86.995z"/>
<path fill="#006837" d="M56.65,74.49c-1.104,0-2-0.896-2-2L54.647,47.5c0-1.104,0.896-2,2-2s2,0.895,2,2l0.003,24.99C58.65,73.595,57.755,74.49,56.65,74.49z"/>
<path fill="#006837" d="M34.992,86.995c-1.104,0-2-0.896-2-2v-25c0-1.104,0.896-2,2-2s2,0.896,2,2v25C36.992,86.1,36.097,86.995,34.992,86.995z"/>
<path fill="#C1272D" d="M34.99,61.999c-0.339,0-0.683-0.086-0.998-0.268l-21.65-12.5c-0.957-0.552-1.284-1.775-0.732-2.732c0.552-0.957,1.775-1.285,2.732-0.732l21.65,12.5c0.957,0.553,1.284,1.775,0.732,2.732C36.354,61.641,35.682,61.999,34.99,61.999z"/>
<path fill="#1B1464" d="M34.999,62c-0.691,0-1.364-0.358-1.734-1c-0.552-0.957-0.225-2.18,0.732-2.732l21.651-12.5c0.956-0.554,2.18-0.224,2.732,0.732c0.552,0.957,0.225,2.18-0.732,2.732l-21.651,12.5C35.682,61.914,35.338,62,34.999,62z"/>
<path fill="#FFFFFF" d="M79.724,76.5c-0.554-0.956-1.774-1.285-2.732-0.732l-21.8,12.586l2.41-8.996c0.286-1.066-0.347-2.163-1.414-2.449c-1.071-0.287-2.163,0.348-2.449,1.414L49.56,93.914l15.592,4.178c0.174,0.047,0.348,0.069,0.519,0.069c0.883,0,1.691-0.59,1.931-1.483c0.286-1.066-0.347-2.163-1.414-2.449l-8.996-2.41l21.8-12.586C79.948,78.68,80.275,77.457,79.724,76.5z"/>
</svg>