<?xml version="1.0" encoding="utf-8"?>
<!DOCTYPE svg PUBLIC "-//W3C//DTD SVG 1.1//EN" "http://www.w3.org/Graphics/SVG/1.1/DTD/svg11.dtd">
<svg version="1.1" xmlns="http://www.w3.org/2000/svg" xmlns:xlink="http://www.w3.org/1999/xlink" x="0px" y="0px" width="100px" height="100px" viewBox="0 0 100 100" enable-background="new 0 0 100 100" xml:space="preserve">
<polygon fill="#FFFFFF" points="42,24 42,22 44,22 55,22 55,20 40,5 5,5 5,75 42,75 "/>
<path fill="#0071BC" d="M35,16.5H10c-0.829,0-1.5-0.671-1.5-1.5s0.671-1.5,1.5-1.5h25c0.829,0,1.5,0.671,1.5,1.5S35.829,16.5,35,16.5z"/>
<path fill="#666666" d="M40.414,4H4v72h38v-2H6V6h33v15h15v1h2v-2.414L40.414,4z M41,7.414L52.586,19H41V7.414z"/>
<path fill="#0071BC" d="M42,63.5H10c-0.829,0-1.5,0.672-1.5,1.5s0.671,1.5,1.5,1.5h32V63.5z"/>
<path fill="#0071BC" d="M42,24v-0.5H10c-0.829,0-1.5,0.671-1.5,1.5s0.671,1.5,1.5,1.5h32V24z"/>
<path fill="#0071BC" d="M42,33.5H10c-0.829,0-1.5,0.671-1.5,1.5s0.671,1.5,1.5,1.5h32V33.5z"/>
<path fill="#0071BC" d="M42,43.5H10c-0.829,0-1.5,0.671-1.5,1.5s0.671,1.5,1.5,1.5h32V43.5z"/>
<path fill="#0071BC" d="M42,53.5H10c-0.829,0-1.5,0.672-1.5,1.5s0.671,1.5,1.5,1.5h32V53.5z"/>
<polygon fill="#FFFFFF" points="45,95 95,95 95,40 80,25 45,25 "/>
<path fill="#666666" d="M80.414,24H44v72h52V39.586L80.414,24z M81,27.414L92.586,39H81V27.414z M46,94V26h33v15h15v53H46z"/>
<path fill="#0071BC" d="M75,36.5H50c-0.829,0-1.5-0.671-1.5-1.5s0.671-1.5,1.5-1.5h25c0.828,0,1.5,0.671,1.5,1.5S75.828,36.5,75,36.5z"/>
<path fill="#0071BC" d="M90,46.5H50c-0.829,0-1.5-0.671-1.5-1.5s0.671-1.5,1.5-1.5h40c0.828,0,1.5,0.671,1.5,1.5S90.828,46.5,90,46.5z"/>
<path fill="#0071BC" d="M90,56.5H50c-0.829,0-1.5-0.672-1.5-1.5s0.671-1.5,1.5-1.5h40c0.828,0,1.5,0.672,1.5,1.5S90.828,56.5,90,56.5z"/>
<path fill="#0071BC" d="M90,66.5H50c-0.829,0-1.5-0.672-1.5-1.5s0.671-1.5,1.5-1.5h40c0.828,0,1.5,0.672,1.5,1.5S90.828,66.5,90,66.5z"/>
<path fill="#0071BC" d="M90,76.5H50c-0.829,0-1.5-0.672-1.5-1.5s0.671-1.5,1.5-1.5h40c0.828,0,1.5,0.672,1.5,1.5S90.828,76.5,90,76.5z"/>
<path fill="#0071BC" d="M90,86.5H50c-0.829,0-1.5-0.672-1.5-1.5s0.671-1.5,1.5-1.5h40c0.828,0,1.5,0.672,1.5,1.5S90.828,86.5,90,86.5z"/>
</svg>