<?xml version="1.0" encoding="utf-8"?>
<!DOCTYPE svg PUBLIC "-//W3C//DTD SVG 1.1//EN" "http://www.w3.org/Graphics/SVG/1.1/DTD/svg11.dtd">
<svg version="1.1" xmlns="http://www.w3.org/2000/svg" xmlns:xlink="http://www.w3.org/1999/xlink" x="0px" y="0px" width="100px" height="100px" viewBox="0 0 100 100" enable-background="new 0 0 100 100" xml:space="preserve">
<path fill="#EDC87E" d="M67.5,85.588c0,2.438-1.918,4.412-4.285,4.412H11.786C9.419,90,7.5,88.025,7.5,85.588V19.412C7.5,16.975,9.419,15,11.786,15h51.429c2.367,0,4.285,1.975,4.285,4.412V85.588z"/>
<path fill="#FFFFFF" d="M58,20.5H17V15c0-1.654,1.346-3,3-3h9.5V7.5c0-1.654,1.346-3,3-3h10c1.654,0,3,1.346,3,3l0,4.5H55c1.654,0,3,1.346,3,3V20.5z"/>
<path fill="#666666" d="M32.5,5h10C43.882,5,45,6.118,45,7.5l0,5h10c1.382,0,2.5,1.118,2.5,2.5v5h-40v-5c0-1.382,1.118-2.5,2.5-2.5h10v-5C30,6.118,31.118,5,32.5,5z"/>
<path fill="#FFFFFF" d="M34,9v7h7V9H34z"/>
<polygon fill="#FFFFFF" points="50,95 92.5,95 92.5,47.857 79.75,35 50,35 "/>
<path fill="#666666" d="M80.167,34H49v62h44.5V47.445L80.167,34z M80.75,37.429l9.351,9.429H80.75V37.429z M51,94V36h27.75v12.857H91.5V94H51z"/>
<path d="M67.779,78.117v2.021h-9.896v-2.021H67.779z"/>
<path d="M73.756,75.393c1.078-3.082,3.439-4.623,7.084-4.623c4.254,0,6.381,1.992,6.381,5.977v6.346c0,2.402,0.146,4.441,0.439,6.117h-2.092c-0.152-0.691-0.287-1.746-0.404-3.164c-1.582,2.402-3.75,3.604-6.504,3.604c-1.91,0-3.369-0.551-4.377-1.652C73.428,87.07,73,85.881,73,84.428c0-3.258,2.027-5.227,6.082-5.906c1.582-0.27,3.574-0.463,5.977-0.58v-0.967c0-1.711-0.375-2.9-1.125-3.568c-0.656-0.586-1.699-0.879-3.129-0.879c-2.578,0-4.23,1.207-4.957,3.621L73.756,75.393z M85.059,79.594c-1.805,0.035-3.639,0.229-5.502,0.58c-2.883,0.586-4.324,1.969-4.324,4.148c0,1.172,0.375,2.074,1.125,2.707c0.668,0.574,1.564,0.861,2.689,0.861c2.414,0,4.418-1.301,6.012-3.902V79.594z"/>
</svg>