<?xml version="1.0" encoding="utf-8"?>
<!DOCTYPE svg PUBLIC "-//W3C//DTD SVG 1.1//EN" "http://www.w3.org/Graphics/SVG/1.1/DTD/svg11.dtd">
<svg version="1.1" xmlns="http://www.w3.org/2000/svg" xmlns:xlink="http://www.w3.org/1999/xlink" x="0px" y="0px" width="100px" height="100px" viewBox="0 0 100 100" enable-background="new 0 0 100 100" xml:space="preserve">
<path fill="#C1272D" d="M34.99,86.994c-0.339,0-0.683-0.086-0.998-0.268l-21.65-12.5c-0.957-0.553-1.284-1.775-0.732-2.732c0.552-0.957,1.775-1.283,2.732-0.732l21.65,12.5c0.957,0.553,1.284,1.775,0.732,2.732C36.354,86.636,35.682,86.994,34.99,86.994z"/>
<path fill="#1B1464" d="M34.999,86.995c-0.691,0-1.364-0.358-1.734-1c-0.552-0.957-0.225-2.18,0.732-2.732l21.651-12.5c0.956-0.554,2.18-0.224,2.732,0.732c0.552,0.957,0.225,2.18-0.732,2.732l-21.651,12.5C35.682,86.909,35.338,86.995,34.999,86.995z"/>
<path fill="#006837" d="M34.992,86.995c-1.104,0-2-0.896-2-2v-25c0-1.104,0.896-2,2-2s2,0.896,2,2v25C36.992,86.1,36.097,86.995,34.992,86.995z"/>
<path d="M78.203,11.07v48.516h9.703v3.832H63.367v-3.832h10.371V15.957c-3.047,2.086-6.574,3.891-10.582,5.414l-0.809-4.184c3.984-1.336,8.039-3.375,12.164-6.117H78.203z"/>
</svg>