<?xml version="1.0" encoding="utf-8"?>
<!DOCTYPE svg PUBLIC "-//W3C//DTD SVG 1.1//EN" "http://www.w3.org/Graphics/SVG/1.1/DTD/svg11.dtd">
<svg version="1.1" xmlns="http://www.w3.org/2000/svg" xmlns:xlink="http://www.w3.org/1999/xlink" x="0px" y="0px" width="100px" height="100px" viewBox="0 0 100 100" enable-background="new 0 0 100 100" xml:space="preserve">
<path fill="#C1272D" d="M34.99,86.994c-0.339,0-0.683-0.086-0.998-0.268l-21.65-12.5c-0.957-0.553-1.284-1.775-0.732-2.732c0.552-0.957,1.775-1.283,2.732-0.732l21.65,12.5c0.957,0.553,1.284,1.775,0.732,2.732C36.354,86.636,35.682,86.994,34.99,86.994z"/>
<path fill="#1B1464" d="M34.999,86.995c-0.691,0-1.364-0.358-1.734-1c-0.552-0.957-0.225-2.18,0.732-2.732l21.651-12.5c0.956-0.554,2.18-0.224,2.732,0.732c0.552,0.957,0.225,2.18-0.732,2.732l-21.651,12.5C35.682,86.909,35.338,86.995,34.999,86.995z"/>
<path fill="#006837" d="M34.992,86.995c-1.104,0-2-0.896-2-2v-25c0-1.104,0.896-2,2-2s2,0.896,2,2v25C36.992,86.1,36.097,86.995,34.992,86.995z"/>
<path fill="#FFFFFF" d="M60.168,24.535c0.961-4.734,2.941-8.273,5.941-10.617c2.531-1.992,5.648-2.988,9.352-2.988c4.406,0,7.898,1.324,10.477,3.973c2.32,2.368,3.48,5.461,3.48,9.281c0,3.071-0.832,5.895-2.496,8.473c-1.57,2.391-4.359,5.391-8.367,9c-6.773,5.93-11.531,11.86-14.273,17.79h25.207v3.973H59.746v-3.551c2.977-7.125,8.168-14.075,15.574-20.848c3.938-3.679,6.527-6.597,7.77-8.754c1.055-1.828,1.582-3.855,1.582-6.082c0-3.07-0.973-5.449-2.918-7.137c-1.664-1.429-3.785-2.145-6.363-2.145c-5.906,0-9.469,3.598-10.688,10.793L60.168,24.535z"/>
</svg>