<?xml version="1.0" encoding="utf-8"?>
<!DOCTYPE svg PUBLIC "-//W3C//DTD SVG 1.1//EN" "http://www.w3.org/Graphics/SVG/1.1/DTD/svg11.dtd">
<svg version="1.1" xmlns="http://www.w3.org/2000/svg" xmlns:xlink="http://www.w3.org/1999/xlink" x="0px" y="0px" width="100px" height="100px" viewBox="0 0 100 100" enable-background="new 0 0 100 100" xml:space="preserve">
<path d="M68.535,21.464c-1.951-1.952-5.119-1.952-7.07,0c-1.953,1.953-1.953,5.119,0,7.071L72.929,40H30c-11.028,0-20,8.972-20,20c0,11.028,8.972,20,20,20h10c2.761,0,5-2.238,5-5s-2.239-5-5-5H30c-5.514,0-10-4.486-10-10s4.486-10,10-10h42.929L61.465,61.465c-1.953,1.952-1.953,5.118,0,7.07C62.44,69.512,63.721,70,65,70s2.56-0.488,3.535-1.465L92.071,45L68.535,21.464z"/>
</svg>