<?xml version="1.0" encoding="utf-8"?>
<!DOCTYPE svg PUBLIC "-//W3C//DTD SVG 1.1//EN" "http://www.w3.org/Graphics/SVG/1.1/DTD/svg11.dtd">
<svg version="1.1" xmlns="http://www.w3.org/2000/svg" xmlns:xlink="http://www.w3.org/1999/xlink" x="0px" y="0px" width="100px" height="100px" viewBox="0 0 100 100" enable-background="new 0 0 100 100" xml:space="preserve">
<path fill="#006837" d="M34.968,61.984c-1.104,0-2-0.896-2-2v-25c0-1.104,0.896-2,2-2s2,0.896,2,2v25C36.968,61.089,36.073,61.984,34.968,61.984z"/>
<path fill="#1B1464" d="M13.331,74.516c-0.691,0-1.364-0.358-1.734-1c-0.552-0.957-0.225-2.18,0.732-2.732l21.651-12.5c0.957-0.552,2.18-0.225,2.732,0.732c0.552,0.957,0.225,2.18-0.732,2.732l-21.651,12.5C14.014,74.43,13.67,74.516,13.331,74.516z"/>
<path fill="#1B1464" d="M13.331,49.521c-0.691,0-1.364-0.359-1.734-1c-0.552-0.957-0.225-2.18,0.732-2.732l21.651-12.5c0.957-0.553,2.18-0.225,2.732,0.732c0.552,0.957,0.225,2.18-0.732,2.732l-21.651,12.5C14.014,49.434,13.67,49.521,13.331,49.521z"/>
<path fill="#C1272D" d="M56.648,74.475c-0.339,0-0.683-0.086-0.998-0.268L34,61.707c-0.957-0.553-1.284-1.775-0.732-2.732c0.552-0.957,1.775-1.284,2.732-0.732l21.65,12.5c0.957,0.553,1.284,1.775,0.732,2.732C58.012,74.116,57.34,74.475,56.648,74.475z"/>
<path fill="#C1272D" d="M56.648,49.48c-0.339,0-0.683-0.086-0.998-0.269L34,36.712c-0.957-0.552-1.284-1.775-0.732-2.732c0.552-0.957,1.775-1.285,2.732-0.732l21.65,12.5c0.957,0.552,1.284,1.775,0.732,2.732C58.012,49.122,57.34,49.48,56.648,49.48z"/>
<path fill="#C1272D" d="M34.99,86.994c-0.339,0-0.683-0.086-0.998-0.268l-21.65-12.5c-0.957-0.553-1.284-1.775-0.732-2.732c0.552-0.957,1.775-1.283,2.732-0.732l21.65,12.5c0.957,0.553,1.284,1.775,0.732,2.732C36.354,86.636,35.682,86.994,34.99,86.994z"/>
<path fill="#006837" d="M13.359,74.461c-1.104,0-2-0.896-2-2l-0.003-24.99c0-1.104,0.895-2,2-2c1.104,0,2,0.895,2,2l0.003,24.99C15.359,73.565,14.464,74.461,13.359,74.461z"/>
<path fill="#1B1464" d="M34.999,86.995c-0.691,0-1.364-0.358-1.734-1c-0.552-0.957-0.225-2.18,0.732-2.732l21.651-12.5c0.956-0.554,2.18-0.224,2.732,0.732c0.552,0.957,0.225,2.18-0.732,2.732l-21.651,12.5C35.682,86.909,35.338,86.995,34.999,86.995z"/>
<path fill="#006837" d="M56.65,74.49c-1.104,0-2-0.896-2-2L54.647,47.5c0-1.104,0.896-2,2-2s2,0.895,2,2l0.003,24.99C58.65,73.595,57.755,74.49,56.65,74.49z"/>
<path fill="#006837" d="M34.992,86.995c-1.104,0-2-0.896-2-2v-25c0-1.104,0.896-2,2-2s2,0.896,2,2v25C36.992,86.1,36.097,86.995,34.992,86.995z"/>
<path fill="#C1272D" d="M34.99,61.999c-0.339,0-0.683-0.086-0.998-0.268l-21.65-12.5c-0.957-0.552-1.284-1.775-0.732-2.732c0.552-0.957,1.775-1.285,2.732-0.732l21.65,12.5c0.957,0.553,1.284,1.775,0.732,2.732C36.354,61.641,35.682,61.999,34.99,61.999z"/>
<path fill="#1B1464" d="M34.999,62c-0.691,0-1.364-0.358-1.734-1c-0.552-0.957-0.225-2.18,0.732-2.732l21.651-12.5c0.956-0.554,2.18-0.224,2.732,0.732c0.552,0.957,0.225,2.18-0.732,2.732l-21.651,12.5C35.682,61.914,35.338,62,34.999,62z"/>
</svg>