<?xml version="1.0" encoding="utf-8"?>
<!DOCTYPE svg PUBLIC "-//W3C//DTD SVG 1.1//EN" "http://www.w3.org/Graphics/SVG/1.1/DTD/svg11.dtd">
<svg version="1.1" xmlns="http://www.w3.org/2000/svg" xmlns:xlink="http://www.w3.org/1999/xlink" x="0px" y="0px" width="100px" height="100px" viewBox="0 0 100 100" enable-background="new 0 0 100 100" xml:space="preserve">
<path fill="#FFFFFF" d="M48.472,85.478H19.081c-0.814,0-1.547-0.493-1.853-1.247L8.147,61.869c-0.375-0.924-0.013-1.981,0.848-2.482l23.776-13.819c0.621-0.361,1.389-0.361,2.01,0l23.776,13.819c0.861,0.501,1.223,1.559,0.848,2.482L50.325,84.23C50.019,84.984,49.286,85.478,48.472,85.478z M20.427,81.478h26.698l7.92-19.505L33.776,49.61l-21.27,12.362L20.427,81.478z"/>
<line fill="#006837" x1="9.98" y1="45.17" x2="9.94" y2="61.06"/>
<path fill="#006837" d="M9.94,63.06c-0.001,0-0.003,0-0.005,0c-1.104-0.003-1.998-0.9-1.995-2.005l0.04-15.889c0.003-1.103,0.898-1.995,2-1.995c0.001,0,0.003,0,0.005,0c1.104,0.003,1.998,0.9,1.995,2.005l-0.04,15.889C11.937,62.167,11.042,63.06,9.94,63.06z"/>
<line fill="#006837" x1="19.1" y1="67.581" x2="19.06" y2="83.47"/>
<path fill="#006837" d="M19.06,85.47c-0.001,0-0.003,0-0.005,0c-1.104-0.003-1.998-0.9-1.995-2.005l0.04-15.889c0.003-1.103,0.898-1.995,2-1.995c0.001,0,0.003,0,0.005,0c1.104,0.003,1.998,0.9,1.995,2.005l-0.04,15.889C21.057,84.577,20.162,85.47,19.06,85.47z"/>
<line fill="#006837" x1="48.55" y1="67.58" x2="48.51" y2="83.47"/>
<path fill="#006837" d="M48.51,85.47c-0.001,0-0.003,0-0.005,0c-1.104-0.003-1.998-0.9-1.995-2.005l0.04-15.89c0.003-1.103,0.898-1.995,2-1.995c0.001,0,0.003,0,0.005,0c1.104,0.003,1.998,0.9,1.995,2.005l-0.04,15.89C50.507,84.577,49.612,85.47,48.51,85.47z"/>
<line fill="#006837" x1="57.56" y1="45.23" x2="57.519" y2="61.119"/>
<path fill="#006837" d="M57.519,63.119c-0.002,0-0.003,0-0.005,0c-1.104-0.003-1.998-0.9-1.995-2.005l0.041-15.89c0.003-1.103,0.897-1.995,2-1.995c0.002,0,0.003,0,0.005,0c1.104,0.003,1.998,0.9,1.995,2.005l-0.041,15.889C59.516,62.227,58.621,63.119,57.519,63.119z"/>
<line fill="#006837" x1="33.83" y1="31.401" x2="33.79" y2="47.29"/>
<path fill="#006837" d="M33.79,49.29c-0.001,0-0.003,0-0.005,0c-1.104-0.003-1.998-0.9-1.995-2.005l0.04-15.889c0.003-1.104,0.858-2.018,2.005-1.995c1.104,0.003,1.998,0.9,1.995,2.005l-0.04,15.889C35.787,48.398,34.892,49.29,33.79,49.29z"/>
<path fill="#FFFFFF" d="M48.471,69.478h-29.39c-0.814,0-1.547-0.493-1.853-1.247L8.147,45.869c-0.375-0.923-0.013-1.981,0.848-2.481l23.776-13.819c0.621-0.361,1.389-0.361,2.01,0l23.776,13.819c0.861,0.5,1.223,1.559,0.848,2.481L50.324,68.23C50.018,68.984,49.285,69.478,48.471,69.478z M20.428,65.478h26.697l7.921-19.505L33.776,33.61l-21.27,12.362L20.428,65.478z"/>
</svg>