<?xml version="1.0" encoding="utf-8"?>
<!DOCTYPE svg PUBLIC "-//W3C//DTD SVG 1.1//EN" "http://www.w3.org/Graphics/SVG/1.1/DTD/svg11.dtd">
<svg version="1.1" xmlns="http://www.w3.org/2000/svg" xmlns:xlink="http://www.w3.org/1999/xlink" x="0px" y="0px" width="100px" height="100px" viewBox="0 0 100 100" enable-background="new 0 0 100 100" xml:space="preserve">
<path fill="#006837" d="M66.639,41.989c-1.104,0-2-0.896-2-2v-25c0-1.104,0.896-2,2-2s2,0.896,2,2v25C68.639,41.094,67.743,41.989,66.639,41.989z"/>
<path fill="#1B1464" d="M45.002,54.521c-0.691,0-1.364-0.358-1.734-1c-0.552-0.957-0.225-2.18,0.732-2.732l21.65-12.5c0.956-0.555,2.18-0.225,2.732,0.732c0.552,0.957,0.225,2.18-0.732,2.732L46,54.253C45.685,54.435,45.341,54.521,45.002,54.521z"/>
<path fill="#1B1464" d="M45.002,29.525c-0.691,0-1.364-0.359-1.734-1c-0.552-0.957-0.225-2.18,0.732-2.732l21.65-12.5c0.956-0.555,2.18-0.225,2.732,0.732c0.552,0.957,0.225,2.18-0.732,2.732L46,29.257C45.685,29.439,45.341,29.525,45.002,29.525z"/>
<path fill="#C1272D" d="M88.319,54.479c-0.339,0-0.683-0.086-0.998-0.268l-21.65-12.5c-0.957-0.552-1.284-1.775-0.732-2.732c0.553-0.956,1.773-1.286,2.732-0.732l21.65,12.5c0.957,0.552,1.284,1.775,0.732,2.732C89.683,54.121,89.011,54.479,88.319,54.479z"/>
<path fill="#C1272D" d="M88.319,29.485c-0.339,0-0.683-0.086-0.998-0.269l-21.65-12.5c-0.957-0.552-1.284-1.775-0.732-2.732c0.553-0.957,1.773-1.287,2.732-0.732l21.65,12.5c0.957,0.552,1.284,1.775,0.732,2.732C89.683,29.126,89.011,29.485,88.319,29.485z"/>
<path fill="#C1272D" d="M66.661,66.999c-0.339,0-0.683-0.086-0.998-0.268l-21.65-12.5c-0.957-0.553-1.284-1.775-0.732-2.732c0.552-0.957,1.775-1.285,2.732-0.732l21.65,12.5c0.957,0.553,1.284,1.775,0.732,2.732C68.024,66.641,67.353,66.999,66.661,66.999z"/>
<path fill="#006837" d="M45.03,54.466c-1.104,0-2-0.896-2-2l-0.003-24.99c0-1.104,0.895-2,2-2c1.104,0,2,0.895,2,2l0.003,24.99C47.03,53.57,46.135,54.466,45.03,54.466z"/>
<path fill="#1B1464" d="M66.67,67c-0.691,0-1.363-0.358-1.734-1c-0.552-0.957-0.225-2.18,0.732-2.732l21.65-12.5c0.955-0.554,2.18-0.224,2.732,0.732c0.552,0.957,0.225,2.18-0.732,2.732l-21.65,12.5C67.354,66.914,67.009,67,66.67,67z"/>
<path fill="#006837" d="M88.321,54.495c-1.104,0-2-0.896-2-2l-0.003-24.99c0-1.104,0.896-2,2-2s2,0.895,2,2l0.003,24.99C90.321,53.6,89.426,54.495,88.321,54.495z"/>
<path fill="#006837" d="M66.663,67c-1.104,0-2-0.896-2-2V40c0-1.104,0.896-2,2-2s2,0.896,2,2v25C68.663,66.104,67.768,67,66.663,67z"/>
<path fill="#C1272D" d="M66.661,42.004c-0.339,0-0.683-0.086-0.998-0.269l-21.65-12.5c-0.957-0.552-1.284-1.775-0.732-2.732c0.552-0.956,1.775-1.285,2.732-0.732l21.65,12.5c0.957,0.552,1.284,1.775,0.732,2.732C68.024,41.646,67.353,42.004,66.661,42.004z"/>
<path fill="#1B1464" d="M66.67,42.005c-0.691,0-1.363-0.359-1.734-1c-0.552-0.957-0.225-2.18,0.732-2.732l21.65-12.5c0.955-0.554,2.18-0.225,2.732,0.732c0.552,0.957,0.225,2.18-0.732,2.732l-21.65,12.5C67.354,41.919,67.009,42.005,66.67,42.005z"/>
<path fill="#006837" d="M34.968,61.984c-1.104,0-2-0.896-2-2v-0.5c0-1.104,0.896-2,2-2s2,0.896,2,2v0.5C36.968,61.089,36.073,61.984,34.968,61.984z"/>
<path fill="#006837" d="M34.968,56.151c-1.104,0-2-0.896-2-2v-0.889c0-1.104,0.896-2,2-2s2,0.896,2,2v0.889C36.968,55.256,36.073,56.151,34.968,56.151z M34.968,49.929c-1.104,0-2-0.896-2-2v-0.889c0-1.104,0.896-2,2-2s2,0.896,2,2v0.889C36.968,49.034,36.073,49.929,34.968,49.929z M34.968,43.707c-1.104,0-2-0.896-2-2v-0.889c0-1.104,0.896-2,2-2s2,0.896,2,2v0.889C36.968,42.812,36.073,43.707,34.968,43.707z"/>
<path fill="#006837" d="M34.968,37.485c-1.104,0-2-0.896-2-2v-0.5c0-1.104,0.896-2,2-2s2,0.896,2,2v0.5C36.968,36.589,36.073,37.485,34.968,37.485z"/>
<path fill="#1B1464" d="M13.331,74.516c-0.691,0-1.364-0.358-1.734-1c-0.552-0.957-0.225-2.18,0.732-2.732l0.433-0.25c0.957-0.553,2.18-0.225,2.732,0.732c0.552,0.957,0.225,2.18-0.732,2.732l-0.433,0.25C14.014,74.43,13.67,74.516,13.331,74.516z"/>
<path fill="#1B1464" d="M18.383,71.599c-0.691,0-1.364-0.358-1.734-1c-0.552-0.957-0.224-2.181,0.733-2.732l0.77-0.444c0.957-0.553,2.18-0.225,2.732,0.732c0.552,0.957,0.224,2.181-0.733,2.732l-0.77,0.444C19.065,71.513,18.722,71.599,18.383,71.599z M23.771,68.487c-0.691,0-1.364-0.358-1.734-1c-0.552-0.957-0.224-2.181,0.733-2.732l0.77-0.444c0.957-0.553,2.18-0.224,2.732,0.732c0.552,0.957,0.224,2.181-0.733,2.732l-0.77,0.444C24.454,68.401,24.11,68.487,23.771,68.487z M29.16,65.376c-0.691,0-1.363-0.358-1.734-1c-0.552-0.956-0.225-2.18,0.732-2.732l0.77-0.444c0.957-0.552,2.18-0.225,2.732,0.732c0.552,0.956,0.225,2.18-0.732,2.732l-0.77,0.444C29.843,65.29,29.5,65.376,29.16,65.376z"/>
<path fill="#1B1464" d="M34.549,62.266c-0.691,0-1.364-0.358-1.734-1c-0.552-0.957-0.225-2.18,0.732-2.732l0.433-0.25c0.957-0.552,2.18-0.225,2.732,0.732c0.552,0.957,0.225,2.18-0.732,2.732l-0.433,0.25C35.232,62.18,34.888,62.266,34.549,62.266z"/>
<path fill="#1B1464" d="M13.331,49.521c-0.691,0-1.364-0.359-1.734-1c-0.552-0.957-0.225-2.18,0.732-2.732l0.433-0.25c0.957-0.554,2.18-0.225,2.732,0.732c0.552,0.957,0.225,2.18-0.732,2.732l-0.433,0.25C14.014,49.434,13.67,49.521,13.331,49.521z"/>
<path fill="#1B1464" d="M18.383,46.604c-0.691,0-1.364-0.359-1.734-1.001c-0.552-0.957-0.224-2.18,0.733-2.732l0.77-0.444c0.957-0.553,2.18-0.224,2.732,0.733c0.552,0.957,0.224,2.18-0.733,2.732l-0.77,0.444C19.065,46.518,18.722,46.604,18.383,46.604z M23.771,43.493c-0.691,0-1.364-0.359-1.734-1.001c-0.552-0.957-0.224-2.18,0.733-2.732l0.77-0.444c0.957-0.553,2.18-0.224,2.732,0.733c0.552,0.957,0.224,2.18-0.733,2.732l-0.77,0.444C24.454,43.406,24.11,43.493,23.771,43.493z M29.16,40.382c-0.691,0-1.363-0.359-1.734-1c-0.552-0.957-0.225-2.18,0.732-2.732l0.77-0.444c0.957-0.554,2.18-0.225,2.732,0.732s0.225,2.18-0.732,2.732l-0.77,0.444C29.843,40.295,29.5,40.382,29.16,40.382z"/>
<path fill="#1B1464" d="M34.549,37.271c-0.691,0-1.364-0.359-1.734-1c-0.552-0.957-0.225-2.18,0.732-2.732l0.433-0.25c0.957-0.553,2.18-0.225,2.732,0.732c0.552,0.957,0.225,2.18-0.732,2.732l-0.433,0.25C35.232,37.184,34.888,37.271,34.549,37.271z"/>
<path fill="#C1272D" d="M56.648,74.475c-0.34,0-0.684-0.086-0.999-0.269l-0.433-0.25c-0.956-0.553-1.283-1.775-0.73-2.732c0.552-0.955,1.774-1.285,2.732-0.73l0.433,0.25c0.956,0.553,1.283,1.775,0.73,2.732C58.012,74.116,57.34,74.475,56.648,74.475z"/>
<path fill="#C1272D" d="M51.597,71.558c-0.339,0-0.683-0.086-0.998-0.268l-0.77-0.444c-0.957-0.552-1.285-1.775-0.733-2.732c0.552-0.957,1.776-1.284,2.732-0.732l0.771,0.444c0.956,0.552,1.284,1.775,0.732,2.732C52.961,71.199,52.288,71.558,51.597,71.558z M46.208,68.446c-0.339,0-0.683-0.086-0.998-0.268l-0.77-0.444c-0.957-0.553-1.284-1.776-0.732-2.732c0.552-0.957,1.776-1.284,2.732-0.732l0.77,0.444c0.957,0.553,1.284,1.776,0.732,2.732C47.572,68.088,46.899,68.446,46.208,68.446z M40.819,65.336c-0.34,0-0.684-0.086-1-0.269l-0.77-0.445c-0.956-0.554-1.282-1.777-0.729-2.733s1.775-1.283,2.733-0.729l0.77,0.445c0.956,0.554,1.282,1.777,0.729,2.733C42.182,64.979,41.51,65.336,40.819,65.336z"/>
<path fill="#C1272D" d="M35.431,62.225c-0.339,0-0.683-0.086-0.998-0.268L34,61.707c-0.957-0.553-1.284-1.775-0.732-2.732c0.552-0.957,1.775-1.284,2.732-0.732l0.433,0.25c0.957,0.553,1.284,1.775,0.732,2.732C36.795,61.866,36.123,62.225,35.431,62.225z"/>
<path fill="#C1272D" d="M56.648,49.48c-0.34,0-0.684-0.087-0.999-0.269l-0.433-0.25c-0.956-0.552-1.283-1.776-0.73-2.732c0.552-0.958,1.774-1.284,2.732-0.731l0.433,0.25c0.956,0.552,1.283,1.776,0.73,2.732C58.012,49.122,57.34,49.48,56.648,49.48z"/>
<path fill="#C1272D" d="M51.597,46.564c-0.339,0-0.683-0.086-0.998-0.268l-0.77-0.444c-0.957-0.552-1.285-1.775-0.733-2.732c0.552-0.958,1.776-1.285,2.732-0.733l0.771,0.444c0.956,0.552,1.284,1.775,0.732,2.732C52.961,46.205,52.288,46.564,51.597,46.564z M46.208,43.453c-0.34,0-0.684-0.087-0.999-0.269l-0.77-0.445c-0.956-0.553-1.283-1.776-0.73-2.732s1.775-1.283,2.732-0.73l0.77,0.445c0.956,0.553,1.283,1.776,0.73,2.732C47.571,43.095,46.899,43.453,46.208,43.453z M40.819,40.342c-0.339,0-0.683-0.086-0.998-0.269l-0.77-0.444c-0.957-0.552-1.284-1.775-0.732-2.732c0.552-0.957,1.775-1.286,2.732-0.732l0.77,0.444c0.957,0.552,1.284,1.775,0.732,2.732C42.183,39.983,41.511,40.342,40.819,40.342z"/>
<path fill="#C1272D" d="M35.431,37.23c-0.339,0-0.683-0.086-0.998-0.269L34,36.712c-0.957-0.552-1.284-1.775-0.732-2.732c0.552-0.957,1.775-1.285,2.732-0.732l0.433,0.25c0.957,0.552,1.284,1.775,0.732,2.732C36.795,36.872,36.123,37.23,35.431,37.23z"/>
<path fill="#C1272D" d="M34.99,86.994c-0.339,0-0.683-0.086-0.998-0.268l-0.433-0.25c-0.957-0.553-1.284-1.775-0.732-2.732c0.552-0.956,1.775-1.284,2.732-0.732l0.433,0.25c0.957,0.553,1.284,1.775,0.732,2.732C36.354,86.636,35.682,86.994,34.99,86.994z"/>
<path fill="#C1272D" d="M29.938,84.077c-0.339,0-0.683-0.086-0.998-0.268l-0.77-0.444c-0.957-0.552-1.285-1.775-0.733-2.732c0.553-0.956,1.775-1.284,2.732-0.732l0.77,0.444c0.957,0.552,1.285,1.775,0.733,2.732C31.302,83.719,30.63,84.077,29.938,84.077z M24.55,80.966c-0.339,0-0.683-0.086-0.998-0.268l-0.77-0.444c-0.957-0.553-1.284-1.776-0.732-2.732c0.552-0.957,1.775-1.285,2.732-0.732l0.77,0.444c0.957,0.553,1.284,1.776,0.732,2.732C25.914,80.607,25.241,80.966,24.55,80.966z M19.161,77.855c-0.34,0-0.684-0.086-1-0.269l-0.77-0.445c-0.956-0.554-1.282-1.777-0.729-2.733c0.553-0.956,1.776-1.282,2.733-0.729l0.77,0.445c0.956,0.554,1.282,1.777,0.729,2.733C20.523,77.498,19.852,77.855,19.161,77.855z"/>
<path fill="#C1272D" d="M13.773,74.744c-0.339,0-0.683-0.086-0.998-0.268l-0.433-0.25c-0.957-0.553-1.284-1.775-0.732-2.732c0.552-0.957,1.775-1.283,2.732-0.732l0.433,0.25c0.957,0.553,1.284,1.775,0.732,2.732C15.137,74.386,14.464,74.744,13.773,74.744z"/>
<path fill="#006837" d="M13.356,49.971c-1.104,0-2-0.896-2-2v-0.5c0-1.104,0.896-2,2-2s2,0.896,2,2v0.5C15.356,49.075,14.461,49.971,13.356,49.971z"/>
<path fill="#006837" d="M13.358,68.63c-1.104,0-2-0.896-2-2v-0.889c0-1.104,0.896-2,2-2s2,0.896,2,2v0.889C15.358,67.734,14.463,68.63,13.358,68.63z M13.358,62.41c-1.104,0-2-0.896-2-2v-0.889c0-1.104,0.896-2,2-2s2,0.896,2,2v0.889C15.358,61.515,14.462,62.41,13.358,62.41z M13.357,56.19c-1.104,0-2-0.896-2-2v-0.889c0-1.104,0.896-2,2-2s2,0.896,2,2v0.889C15.357,55.295,14.461,56.19,13.357,56.19z"/>
<path fill="#006837" d="M13.359,74.461c-1.104,0-2-0.896-2-2v-0.5c0-1.104,0.896-2,2-2s2,0.896,2,2v0.5C15.359,73.565,14.464,74.461,13.359,74.461z"/>
<path fill="#1B1464" d="M34.999,86.995c-0.691,0-1.364-0.358-1.734-1c-0.552-0.957-0.225-2.18,0.732-2.732l0.433-0.25c0.956-0.552,2.18-0.225,2.732,0.732s0.225,2.18-0.732,2.732l-0.433,0.25C35.682,86.909,35.338,86.995,34.999,86.995z"/>
<path fill="#1B1464" d="M40.05,84.078c-0.691,0-1.364-0.358-1.734-1c-0.552-0.957-0.224-2.181,0.733-2.732l0.77-0.444c0.957-0.554,2.179-0.224,2.732,0.732c0.552,0.957,0.224,2.181-0.733,2.732l-0.77,0.444C40.733,83.992,40.389,84.078,40.05,84.078z M45.439,80.967c-0.691,0-1.364-0.358-1.734-1c-0.552-0.957-0.224-2.181,0.733-2.732l0.77-0.444c0.957-0.554,2.179-0.224,2.732,0.732c0.552,0.957,0.224,2.181-0.733,2.732l-0.77,0.444C46.122,80.881,45.778,80.967,45.439,80.967z M50.828,77.856c-0.691,0-1.363-0.357-1.733-0.999c-0.553-0.956-0.226-2.18,0.73-2.732l0.77-0.445c0.957-0.554,2.179-0.227,2.733,0.73c0.553,0.956,0.226,2.18-0.73,2.732l-0.77,0.445C51.512,77.771,51.167,77.856,50.828,77.856z"/>
<path fill="#1B1464" d="M56.217,74.745c-0.691,0-1.363-0.358-1.733-0.999c-0.553-0.957-0.226-2.18,0.73-2.732l0.433-0.25c0.956-0.555,2.18-0.226,2.732,0.73c0.553,0.957,0.226,2.18-0.73,2.732l-0.433,0.25C56.9,74.659,56.557,74.745,56.217,74.745z"/>
<path fill="#006837" d="M56.647,50c-1.104,0-2-0.896-2-2v-0.5c0-1.104,0.896-2,2-2s2,0.896,2,2V48C58.647,49.104,57.752,50,56.647,50z"/>
<path fill="#006837" d="M56.65,68.659c-1.104,0-2-0.896-2-2v-0.889c0-1.104,0.896-2,2-2s2,0.896,2,2v0.889C58.65,67.764,57.755,68.659,56.65,68.659z M56.649,62.439c-1.104,0-2-0.896-2-2v-0.889c0-1.104,0.896-2,2-2s2,0.896,2,2v0.889C58.649,61.544,57.754,62.439,56.649,62.439z M56.648,56.22c-1.104,0-2-0.896-2-2v-0.889c0-1.104,0.896-2,2-2s2,0.896,2,2v0.889C58.648,55.324,57.753,56.22,56.648,56.22z"/>
<path fill="#006837" d="M56.65,74.49c-1.104,0-2-0.896-2-2v-0.5c0-1.104,0.896-2,2-2s2,0.896,2,2v0.5C58.65,73.595,57.755,74.49,56.65,74.49z"/>
<path fill="#006837" d="M34.992,86.995c-1.104,0-2-0.896-2-2v-0.5c0-1.104,0.896-2,2-2s2,0.896,2,2v0.5C36.992,86.1,36.097,86.995,34.992,86.995z"/>
<path fill="#006837" d="M34.992,81.162c-1.104,0-2-0.896-2-2v-0.889c0-1.104,0.896-2,2-2s2,0.896,2,2v0.889C36.992,80.267,36.097,81.162,34.992,81.162z M34.992,74.939c-1.104,0-2-0.896-2-2v-0.889c0-1.104,0.896-2,2-2s2,0.896,2,2v0.889C36.992,74.044,36.097,74.939,34.992,74.939z M34.992,68.718c-1.104,0-2-0.896-2-2v-0.889c0-1.104,0.896-2,2-2s2,0.896,2,2v0.889C36.992,67.822,36.097,68.718,34.992,68.718z"/>
<path fill="#006837" d="M34.992,62.495c-1.104,0-2-0.896-2-2v-0.5c0-1.104,0.896-2,2-2s2,0.896,2,2v0.5C36.992,61.6,36.097,62.495,34.992,62.495z"/>
<path fill="#C1272D" d="M34.99,61.999c-0.339,0-0.683-0.086-0.998-0.268l-0.433-0.25c-0.957-0.553-1.284-1.775-0.732-2.732c0.552-0.957,1.775-1.284,2.732-0.732l0.433,0.25c0.957,0.553,1.284,1.775,0.732,2.732C36.354,61.641,35.682,61.999,34.99,61.999z"/>
<path fill="#C1272D" d="M29.938,59.082c-0.339,0-0.683-0.086-0.998-0.268l-0.77-0.444c-0.957-0.552-1.285-1.775-0.733-2.732c0.553-0.956,1.775-1.284,2.732-0.732l0.77,0.444c0.957,0.552,1.285,1.775,0.733,2.732C31.302,58.724,30.63,59.082,29.938,59.082z M24.55,55.971c-0.339,0-0.683-0.086-0.998-0.268l-0.77-0.444c-0.957-0.553-1.284-1.776-0.732-2.732s1.775-1.284,2.732-0.732l0.77,0.444c0.957,0.553,1.284,1.776,0.732,2.732C25.914,55.612,25.241,55.971,24.55,55.971z M19.161,52.86c-0.34,0-0.684-0.086-0.999-0.269l-0.77-0.444c-0.956-0.553-1.283-1.776-0.73-2.733c0.552-0.957,1.775-1.284,2.732-0.73l0.77,0.445c0.956,0.553,1.283,1.776,0.73,2.732C20.524,52.502,19.852,52.86,19.161,52.86z"/>
<path fill="#C1272D" d="M13.773,49.75c-0.339,0-0.683-0.086-0.998-0.269l-0.433-0.25c-0.957-0.552-1.284-1.775-0.732-2.732c0.552-0.957,1.775-1.285,2.732-0.732l0.433,0.25c0.957,0.552,1.284,1.775,0.732,2.732C15.137,49.391,14.464,49.75,13.773,49.75z"/>
<path fill="#1B1464" d="M34.999,62c-0.691,0-1.364-0.358-1.734-1c-0.552-0.957-0.225-2.18,0.732-2.732l0.433-0.25c0.956-0.551,2.18-0.224,2.732,0.732c0.552,0.957,0.225,2.18-0.732,2.732l-0.433,0.25C35.682,61.914,35.338,62,34.999,62z"/>
<path fill="#1B1464" d="M40.05,59.083c-0.691,0-1.364-0.358-1.734-1c-0.552-0.957-0.224-2.181,0.733-2.732l0.77-0.444c0.957-0.554,2.179-0.224,2.732,0.732c0.552,0.957,0.224,2.181-0.733,2.732l-0.77,0.444C40.733,58.997,40.389,59.083,40.05,59.083z M45.439,55.972c-0.691,0-1.364-0.358-1.734-1c-0.552-0.957-0.224-2.181,0.733-2.732l0.77-0.444c0.957-0.554,2.179-0.224,2.732,0.732c0.552,0.957,0.224,2.181-0.733,2.732l-0.77,0.444C46.122,55.886,45.778,55.972,45.439,55.972z M50.828,52.861c-0.691,0-1.364-0.358-1.734-1c-0.552-0.957-0.224-2.18,0.733-2.732l0.77-0.444c0.957-0.553,2.18-0.225,2.732,0.733c0.552,0.957,0.224,2.18-0.732,2.732l-0.771,0.444C51.511,52.775,51.167,52.861,50.828,52.861z"/>
<path fill="#1B1464" d="M56.217,49.75c-0.691,0-1.363-0.358-1.733-1c-0.553-0.956-0.226-2.18,0.73-2.732l0.433-0.25c0.956-0.554,2.18-0.226,2.732,0.731c0.553,0.956,0.226,2.18-0.73,2.732l-0.433,0.25C56.9,49.664,56.557,49.75,56.217,49.75z"/>
<path fill="#FFFFFF" d="M86.933,74.174l0.517-1.928l-1.928-0.517c-0.002-0.001-0.005-0.001-0.008-0.002l-13.656-3.659c-1.071-0.289-2.163,0.348-2.449,1.414s0.347,2.163,1.414,2.449l8.996,2.41l-21.8,12.586c-0.957,0.553-1.284,1.775-0.732,2.732c0.371,0.642,1.043,1,1.734,1c0.339,0,0.683-0.086,0.998-0.268l21.8-12.586l-2.41,8.996c-0.286,1.066,0.347,2.163,1.414,2.449c0.174,0.047,0.348,0.069,0.519,0.069c0.883-0.001,1.691-0.59,1.931-1.483l3.659-13.656C86.932,74.18,86.932,74.177,86.933,74.174z"/>
</svg>