<?xml version="1.0" encoding="utf-8"?>
<!DOCTYPE svg PUBLIC "-//W3C//DTD SVG 1.1//EN" "http://www.w3.org/Graphics/SVG/1.1/DTD/svg11.dtd">
<svg version="1.1" xmlns="http://www.w3.org/2000/svg" xmlns:xlink="http://www.w3.org/1999/xlink" x="0px" y="0px" width="100px" height="100px" viewBox="0 0 100 100" enable-background="new 0 0 100 100" xml:space="preserve">
<path fill="#FFFFFF" d="M70,20H60c-2.762,0-5,2.239-5,5s2.238,5,5,5h10c5.514,0,10,4.486,10,10s-4.486,10-10,10H27.071l11.464-11.464c1.953-1.953,1.953-5.119,0-7.071c-1.953-1.952-5.118-1.952-7.071,0L7.929,55l23.536,23.535C32.441,79.512,33.72,80,35,80s2.559-0.488,3.536-1.465c1.953-1.952,1.953-5.118,0-7.07L27.071,60H70c11.028,0,20-8.972,20-20C90,28.972,81.028,20,70,20z"/>
</svg>