<?xml version="1.0" encoding="utf-8"?>
<!DOCTYPE svg PUBLIC "-//W3C//DTD SVG 1.1//EN" "http://www.w3.org/Graphics/SVG/1.1/DTD/svg11.dtd">
<svg version="1.1" xmlns="http://www.w3.org/2000/svg" xmlns:xlink="http://www.w3.org/1999/xlink" x="0px" y="0px" width="100px" height="100px" viewBox="0 0 100 100" enable-background="new 0 0 100 100" xml:space="preserve">
<path fill="#C15435" d="M53.217-2.831c-0.071,0.934,0.005,1.855,0.229,2.765c-0.46,0.492-0.919,0.98-1.378,1.474c-1.314,0.403-2.628,0.424-3.943,0.009c-0.462-0.491-0.924-0.979-1.385-1.471c0.223-0.916,0.299-1.84,0.227-2.777C49.05-2.831,51.134-2.831,53.217-2.831z"/>
<path fill="#5A2D07" d="M93.367,28.468c-0.02,10.394-0.038,20.785-0.057,31.18l-0.838,1.205c0,0-1.461-0.152-1.461-0.146c-2.309-1.623-1.682,1.69-2.996,1.801c-1.855,1.062-3.419,0.559-4.852-0.821c-0.759-0.998-1.386-2.06-1.949-3.125c-0.654-0.896-1.363-1.779-2.185-2.515c-1.488-0.714-3.089-0.882-4.728-0.942c-1.158-0.073-2.266-0.312-3.366-0.662c-2.29-0.886-4.295-2.137-5.671-4.233c-0.446-1.19-0.455-2.374,0.024-3.559c2.219-2.264,5.188-2.963,8.065-3.875c1.178-0.333,2.379-0.47,3.597-0.492c0.604,0.034,1.208,0.098,1.788,0.119c1.085,0.003,2.194-0.006,3.25-0.134c1.297-1.074,1.777-2.569,2.124-4.163c0.154-1.208,0.429-2.353,0.756-3.521C86.537,30.906,88.202,27.235,93.367,28.468z"/>
<path fill="#721201" d="M46.841,94.126c-3.227-1.822-6.455-3.644-9.682-5.466c-1.471-3.366-5.324-3.485-7.696-5.631c-2.748-1.922-5.741-3.625-6.526-7.3c-0.378-2.832,0.095-5.347,2.678-7.052c1.984-0.534,3.826-0.037,5.609,0.809c1.659,0.806,3.232,1.782,4.759,2.816c0.992,0.653,1.895,1.429,2.722,2.276c0.766,0.861,1.458,1.795,2.138,2.726c0.791,0.83,1.585,1.657,2.464,2.404c0.516,0.297,0.985,0.632,1.497,0.932c2.232,1.165,4.518,2.23,6.238,4.168c0.757,1.163,1.234,2.42,1.473,3.784c0.12,2.222-0.725,4.111-1.961,5.875C49.224,95.325,47.987,95.209,46.841,94.126z"/>
<path fill="#592A07" d="M93.367,28.468c-1.954,3.134-3.911,6.268-5.865,9.402c-2.631,2.762-5.526,5.124-9.293,6.177c-1.015-0.003-2.029-0.003-3.045-0.006c-3.284-1.746-4.233-4.751-4.435-8.175c0.157-1.965,0.732-3.821,1.581-5.597c0.595-1.15,1.367-2.179,2.268-3.11c1.968-1.639,4.23-2.804,6.501-3.967c2.248-1.175,4.513-2.325,7.012-2.902c1.972-0.11,3.771,0.348,5.31,1.645C93.391,24.113,93.378,26.289,93.367,28.468z"/>
<path fill="#7D2705" d="M25.089,75.297c2.126,2.017,4.251,4.031,6.377,6.048c-3.177,2.78-6.459,2.137-9.776,0.3c-5.429-4.609-18.546-1.899-14.646-15.387c1.058-1.987,2.785-2.177,4.732-1.768c1.434-0.814,0.757,3.729,2.904,1.126c0.549-0.29,1.096-0.562,1.649-0.845c1.282-0.125,2.455,0.18,3.549,0.833c0.905,0.882,1.616,1.898,2.157,3.036C22.663,71.033,23.301,73.429,25.089,75.297z"/>
<path fill="#D07214" d="M62.722,6.233c5.209,2.14,10.42,4.279,15.63,6.415c-0.307,0.574-0.614,1.147-0.907,1.727c-1.316,1.432-2.888,2.53-4.571,3.473c-1.59,0.949-3.23,1.828-4.826,2.777c-1.519,1.032-3.09,1.98-4.793,2.698c-1.197,0.339-2.412,0.385-3.641,0.171c-1.779-0.623-3.262-1.703-4.604-3.006c-1.322-1.343-2.365-2.866-2.964-4.675c-0.146-1.26,0.005-2.49,0.418-3.692c0.803-1.746,1.96-3.226,3.38-4.511C57.912,6.049,60.056,4.814,62.722,6.233z"/>
<path fill="#4E1201" d="M93.322,65.968c3.521,13.339-8.964,11.456-14.967,15.737c-0.621-0.234-1.241-0.47-1.865-0.702c-0.967-0.945-1.661-2.06-2.051-3.362c0.263-4.44,3.401-7.099,6.18-9.991c2.104-1.847,4.823-2.332,7.321-3.317C90.067,63.779,91.892,64.228,93.322,65.968z"/>
<path fill="#7D2704" d="M6.89,31.562c0.001-1.059,0.004-2.115,0.006-3.174c1.688-1.99,3.238-4.144,5.928-4.935c1.959-0.485,3.873-0.36,5.724,0.47c1.066,0.742,1.896,1.706,2.542,2.829c1.076,2.268,1.794,4.66,2.33,7.111c0.185,1.211,0.099,2.414-0.209,3.595c-1.964,1.508-1.483,3.22-0.377,5.005c-0.401,1.233-1.157,2.17-2.228,2.884c-1.245,0.434-2.504,0.55-3.805,0.366c-1.267-0.434-2.362-1.126-3.319-2.054C10.23,40.202,9.077,35.6,6.89,31.562z"/>
<path fill="#BF4307" d="M62.722,6.233c-2.175,1.114-4.349,2.228-6.523,3.342c-0.611,0.08-1.224,0.159-1.84,0.244c-1.815,0.556-3.535,1.447-5.499,1.496c-1.337-0.073-2.623-0.345-3.882-0.8c-2.62-1.776-6.743-2.661-4.45-7.385c2.071-1.063,4.141-2.125,6.212-3.184l0.732,1.276c1.757,0.723,3.513,0.729,5.268-0.003l0.707-1.285C56.537,2.033,59.629,4.133,62.722,6.233z"/>
<path fill="#9A872B" d="M6.884,47.413c-0.021-3.214-0.041-6.424-0.061-9.638c5.413-1.163,5.771,4.333,8.623,6.546l0.134-0.21c1.079,1.019,1.98,2.172,2.691,3.482c1.035,2.884,0.971,5.777,0.101,8.676c-0.824,2.079-2.135,3.669-4.414,4.233c-3.317-0.442-4.117-3.146-5.077-5.691C7.675,52.497,8.41,49.65,6.884,47.413z"/>
<path fill="#562306" d="M68.964,86.897c-3.126,1.449-6.255,2.899-9.383,4.346c-1.661-1.236-2.06-2.988-2.041-4.926c0.093-1.877,0.348-3.738,0.719-5.591c0.342-1.254,1.005-2.311,1.965-3.186c1.152-0.617,2.385-0.9,3.689-0.928c3.337,0.479,6.169,1.886,8.311,4.553c0.689,1.229,0.56,2.401-0.263,3.521l-0.263,0.007C70.982,85.67,70.062,86.393,68.964,86.897z"/>
<path fill="#936C1D" d="M9.599,53.349c1.034,2.228,2.069,4.455,3.104,6.687c2.548,1.181,4.921,2.453,3.047,5.914l-0.004-0.006c-1.103,0.97-2.309,1.074-3.604,0.43c-1.698-0.039-3.396-0.079-5.095-0.115c-0.032-3.312-0.064-6.62-0.096-9.931C7.38,54.93,8.239,53.916,9.599,53.349z"/>
<path fill="#AC1F01" d="M93.401,21.934c-1.94,0.122-3.882,0.244-5.824,0.366c-3.834,1.398-6.883-0.03-9.608-2.658c-1.176-2.008-1.482-3.964,0.371-5.783c0,0,0.011-1.211,0.013-1.211C83.368,15.745,88.386,18.839,93.401,21.934z"/>
<path fill="#EBDE4E" d="M34.244,6.941c0.816-0.58,1.725-0.888,2.724-0.918c2.46,0.711,4.692,1.98,7.08,2.878c0.896,1.016,1.192,2.185,0.897,3.509c-0.687,1.117-1.591,2.008-2.731,2.658c-2.334,1.132-4.796,1.886-7.346,2.396c-1.311,0.15-2.595,0.016-3.862-0.357c-1.81-0.913-3.16-2.273-3.995-4.132c-0.263-1.352,0.126-2.494,1.161-3.409l-0.121-0.128c0.967-0.604,2.008-1.022,3.125-1.257C32.326,8.082,33.349,7.667,34.244,6.941z"/>
<path fill="#823A0B" d="M15.446,44.321c-2.875-2.182-5.75-4.364-8.623-6.546c0.021-2.072,0.044-4.141,0.067-6.213C9.742,35.817,12.594,40.067,15.446,44.321z"/>
<path fill="#5E3C0D" d="M93.322,65.968c-1.889,0.046-3.776,0.088-5.664,0.131c-2.265,1.657-4.556,1.486-6.868,0.106c-1.141-3.481-1.674-6.631,3.61-6.604c1.065,0.016,2.129,0.03,3.194,0.046c1.032-1.004,2.067-0.958,3.104-0.003c0.871,0.009,1.742,0.009,2.613,0.003C93.314,61.753,93.318,63.861,93.322,65.968z"/>
<path fill="#884714" d="M21.69,81.645c3.258-0.098,6.516-0.198,9.775-0.3c1.899,2.438,3.798,4.877,5.694,7.315C32.003,86.322,26.845,83.982,21.69,81.645z"/>
<path fill="#511501" d="M59.463,84.665c0.039,2.191,0.079,4.386,0.118,6.577c-2.058,0.964-4.118,1.929-6.177,2.893c-1.186,1.206-2.258,1.111-3.218-0.28c-0.025-2.005-0.052-4.01-0.078-6.016c1.234-1.458,2.34-3.052,4.112-3.955c0.613-0.201,1.23-0.391,1.845-0.589c0.645,0.024,1.29,0.064,1.937,0.095C58.49,83.815,58.976,84.238,59.463,84.665z"/>
<path fill="#B52E03" d="M6.875,22.123c2.958-1.99,5.918-3.979,8.877-5.969c2.096,0.772,3.883,1.819,3.957,4.407c-1.192,3.635-4.389,2.948-7.107,3.296C10.345,24.433,8.411,23.93,6.875,22.123z"/>
<path fill="#EADC4D" d="M18.74,19.254c-0.996-1.035-1.994-2.066-2.989-3.101c2.049-1.163,4.097-2.325,6.145-3.488c0.673,0.092,1.346,0.183,2.02,0.278c2.018,0.586,3.783,1.587,5.229,3.137c0.392,1.422,0.149,2.722-0.724,3.916c-1.187,0.824-2.484,1.361-3.914,1.587C22.245,21.65,20.31,20.9,18.74,19.254z"/>
<path fill="#CF7416" d="M43.876,9.696c-2.302-1.224-4.605-2.451-6.908-3.674c1.188-0.964,2.373-1.929,3.56-2.893c2.162,2.194,4.324,4.389,6.486,6.583c-0.525,0.385-1.05,0.769-1.575,1.154C44.918,10.478,44.396,10.087,43.876,9.696z"/>
<path fill="#741601" d="M6.875,22.123c1.808,0.04,3.616,0.076,5.426,0.113c1.247,0.503,1.715,1.105,1.41,1.804c-0.326,0.745-0.673,1.12-1.046,1.12c-1.923,1.077-3.845,2.151-5.768,3.229C6.889,26.301,6.881,24.213,6.875,22.123z"/>
<path fill="#88420A" d="M9.599,53.349c-0.884,0.991-1.766,1.986-2.649,2.979c-0.021-2.973-0.044-5.942-0.066-8.914C7.789,49.391,8.694,51.371,9.599,53.349z"/>
<path fill="#CB630F" d="M28.173,9.565c0.004,1.074,0.008,2.148,0.011,3.226c-2.054,1.739-4.059,1.819-6.004-0.174c0,0-0.284,0.052-0.284,0.049C23.989,11.631,26.081,10.597,28.173,9.565z"/>
<path fill="#655519" d="M71.961,84.687c-0.04-1.074-0.078-2.148-0.116-3.223c0,0,0.857-1.159,0.854-1.165c0.857-0.602,1.782-0.729,2.771-0.385c0.932,0.247,1.811,0.629,2.632,1.138l0.25,0.656C76.223,82.7,74.091,83.692,71.961,84.687z"/>
<path fill="#642107" d="M50.187,93.855c1.073,0.095,2.146,0.186,3.218,0.28c-2.188-0.003-4.376-0.006-6.564-0.009C47.956,94.034,49.072,93.942,50.187,93.855z"/>
<path fill="#DA9925" d="M34.244,6.941c-0.929,0.891-1.858,1.786-2.788,2.677c-0.818-0.559-1.092-1.12-0.826-1.685c0.269-0.568,0.537-0.852,0.811-0.852C32.359,6.688,33.292,6.642,34.244,6.941z"/>
<path fill="#E8CE4E" d="M31.442,7.081c-0.07,0.845-0.066,1.69,0.014,2.536c-1.132-0.058-2.268-0.119-3.403-0.177C29.183,8.653,30.312,7.868,31.442,7.081z"/>
<path fill="#642107" d="M68.964,86.897c0.913-0.735,1.825-1.471,2.736-2.203C70.787,85.429,69.877,86.164,68.964,86.897z"/>
<path fill="#B12402" d="M52.74,1.219c-1.756,0-3.513,0-5.269,0C49.229,1.222,50.985,1.222,52.74,1.219z"/>
<path fill="#65571C" d="M84.4,59.602c-1.034,2.091-2.07,4.181-3.104,6.271c-8.147,3.158-8.634-2.231-8.854-7.929c0.453-1.749,1.332-3.25,2.626-4.514c2.126-0.012,4.25-0.027,6.375-0.039c1.042,1.028,1.896,2.228,2.927,3.268C84.38,57.64,84.391,58.622,84.4,59.602z"/>
<path fill="#541C03" d="M65.824,46.998c-0.031,1.092-0.06,2.185-0.089,3.277c-0.438,0.47-0.876,0.939-1.313,1.416c-1.187,0.577-2.441,0.857-3.761,0.912c-1.339-0.125-2.593-0.513-3.787-1.141c-1.089-0.846-1.941-1.877-2.596-3.089c-1.057-2.691-1.198-5.423-0.418-8.215c0.513-1.37,1.336-2.521,2.417-3.503c2.065-1.043,4.191-1.129,6.376-0.424c2.083,1.001,3.609,2.548,4.576,4.647C67.84,43.162,67.507,45.237,65.824,46.998z"/>
<path fill="#675F20" d="M65.824,46.998c-0.156-2.021-0.312-4.044-0.468-6.064c-1.39-3.256,0.354-5.133,2.919-6.653c0.675-0.131,1.351-0.253,2.025-0.381c0.604,0.326,1.208,0.653,1.813,0.979c1.017,3.055,2.032,6.106,3.051,9.161C72.051,45.026,68.937,46.012,65.824,46.998z"/>
<path fill="#562003" d="M78.209,44.047c3.1-2.06,6.197-4.12,9.293-6.177c0.003,0.998-0.01,1.996-0.038,2.991c-1.212,1.507-1.861,3.485-3.732,4.44c-1.991,0.278-3.92,0.29-5.49-1.26L78.209,44.047z"/>
<path fill="#592A07" d="M84.461,44.047c1.002-1.062,2.003-2.124,3.004-3.186c-0.998,2.105-1.994,4.208-2.99,6.311c-1.145-0.689-1.527-1.383-1.15-2.078C83.699,44.398,84.076,44.047,84.461,44.047z"/>
<path fill="#541C02" d="M84.461,44.047c0.004,1.04,0.009,2.084,0.014,3.125c-2.078-1.044-4.156-2.088-6.233-3.131C80.316,44.044,82.387,44.044,84.461,44.047z"/>
<path fill="#531C04" d="M65.736,50.275c2.08,1.047,4.158,2.091,6.237,3.137c-0.557,0.409-1.113,0.821-1.671,1.233c-2.993,0.116-5.719-0.055-4.607-4.321L65.736,50.275z"/>
<path fill="#592705" d="M90.698,59.645l-1.552,0.006l-1.552-0.003C88.628,59.648,89.662,59.645,90.698,59.645z"/>
<path fill="#541C03" d="M75.068,53.431c0.008,1.028-0.054,2.051-0.182,3.07c-1.021,1.086-2.157,1.175-3.397,0.394c-0.751-1.254-0.653-2.401,0.43-3.427l0.055-0.056C73.005,53.416,74.036,53.422,75.068,53.431z"/>
<path fill="#5E3C0D" d="M84.369,56.659c-0.977-1.089-1.951-2.179-2.928-3.268C82.418,54.481,83.395,55.57,84.369,56.659z"/>
<path fill="#8B4B0E" d="M50.032,85.05c-3.088-1.19-6.176-2.383-9.265-3.573c-0.001-2.512-1.241-4.443-2.895-6.18l-0.757,0.128c-0.818-1.139-1.261-2.405-1.331-3.809c0.285-1.392,0.931-2.579,1.979-3.546c4.051-1.703,8.126-2.075,12.245-0.205c1.104,0.925,1.958,2.042,2.553,3.357c0.482,1.352,0.766,2.746,0.908,4.178c0.134,2.911-0.222,5.725-1.8,8.268C51.131,84.132,50.582,84.592,50.032,85.05z"/>
<path fill="#771B01" d="M25.089,75.297c-2.081-2.075-4.162-4.15-6.244-6.226c2.859-4.022-2.039-9.61,2.675-13.267c2.324-1.29,4.66-1.29,7.016-0.076c3.186,3.54,3.342,7.44,1.372,11.591c-0.593,0.586-1.193,1.166-1.793,1.749C27.107,71.147,26.098,73.222,25.089,75.297z"/>
<path fill="#96721F" d="M37.873,75.297c1.405,0.391,2.811,0.778,5.423,1.504c-1,1.85-1.764,3.263-2.528,4.676l-0.032,0.033c-1.045-0.988-1.978-2.075-2.779-3.271C37.829,77.262,37.802,76.282,37.873,75.297z"/>
<path fill="#761B02" d="M37.594,72.446c-0.083,1.004-0.238,1.996-0.473,2.976c-1.978-0.974-3.952-1.95-5.926-2.93c0.436-0.491,0.871-0.986,1.306-1.483C34.53,70.31,36.318,70.472,37.594,72.446z"/>
<path fill="#642107" d="M56.328,84.684c-2.073,1.053-4.146,2.103-6.22,3.155c-0.027-0.931-0.053-1.864-0.076-2.792c0,0.003,0.049-0.546,0.049-0.546C52.216,82.792,54.294,82.99,56.328,84.684z"/>
<path fill="#7D2705" d="M31.195,72.492c-1.025-1.142-2.053-2.283-3.08-3.424l0.098-0.024c0.941-1.084,2.043-1.343,3.328-0.642c0.842,1.154,0.845,2.313,0.009,3.474L31.195,72.492z"/>
<path fill="#884714" d="M37.957,78.238c0.926,1.09,1.853,2.183,2.779,3.271C39.809,80.421,38.883,79.328,37.957,78.238z"/>
<path fill="#EEEE59" d="M81.613,25.282c-2.009,1.138-4.017,2.276-6.024,3.415c-0.979,0.69-1.95,1.392-2.916,2.112c-1.042,0.647-2.11,1.23-3.215,1.776c-0.602,0.177-1.195,0.342-1.801,0.516c-1.286-0.238-2.338-0.864-3.174-1.871c-0.537-1.193-0.766-2.438-0.705-3.745c0.295-1.291,0.885-2.423,1.798-3.387c1.654-1.12,3.508-1.672,5.47-1.914c1.937-0.21,3.868-0.144,5.796,0.165c1.271,0.263,2.455,0.748,3.564,1.425C80.81,24.272,81.211,24.775,81.613,25.282z"/>
<path fill="#C4510A" d="M78.243,18.974c3.111,1.108,6.222,2.215,9.333,3.326c-1.988,0.995-3.975,1.987-5.963,2.982c-0.001,0-1.062,0.342-1.062,0.342c-0.52-1.746-2.495-2.152-3.314-3.623c-0.013-0.564-0.021-1.126-0.03-1.691C77.552,19.865,77.897,19.419,78.243,18.974z"/>
<path fill="#6A6A27" d="M74.9,31.291c-0.931,1.196-1.859,2.39-2.787,3.586c0.001,0.003-0.126-0.232-0.126-0.232c-0.733-0.61-1.034-1.276-0.901-1.99c0.139-0.742,0.313-1.114,0.526-1.114C72.651,30.711,73.743,30.592,74.9,31.291z"/>
<path fill="#CDCD4D" d="M74.9,31.291c-1.023,0.244-2.048,0.488-3.071,0.732c-0.377-0.592-0.754-1.181-1.137-1.773c0.406-0.568,0.817-1.139,1.229-1.706c1.222,0.049,2.444,0.101,3.668,0.152C75.379,29.567,75.15,30.433,74.9,31.291z"/>
<path fill="#8F5B14" d="M15.749,65.949c-1.016-1.975-2.032-3.949-3.048-5.921c1.063-1.196,2.125-2.398,3.188-3.601c0.589-0.354,1.178-0.708,1.767-1.063c1.426,0.388,2.266,1.331,2.598,2.75c-0.101,2.643,0.925,5.496-1.434,7.721C17.796,65.846,16.772,65.885,15.749,65.949z"/>
<path fill="#812F06" d="M18.82,65.836c0.014-3.104,0.027-6.207,0.041-9.308c1.033-0.748,2.056-0.695,3.069,0.037c-1.027,4.168-2.056,8.337-3.084,12.506C18.836,67.994,18.829,66.913,18.82,65.836z"/>
<path fill="#8F5B14" d="M12.141,66.373c1.201-0.144,2.402-0.286,3.604-0.43C14.544,66.087,13.342,66.23,12.141,66.373z"/>
<path fill="#DFAF34" d="M55.953,18.598c1.284,1.224,2.571,2.451,3.857,3.674c1.263,1.248,1.766,2.753,1.518,4.499c-0.315,1.013-0.88,1.886-1.688,2.566c-2.057,0.049-0.389-1.728-1.368,0.076c-0.612,1.126,0.339,1.883,1.724,1.679c0.585,1.007,0.748,2.051,0.564,3.186c-0.631,1.089-1.562,1.693-2.784,1.91c-1.893,0.153-3.678,1.038-5.626,0.644c-2.745-0.708-4.918-2.222-6.537-4.544c-0.666-1.227-1.108-2.533-1.34-3.913c-0.168-2.115,0.201-4.129,1.173-6.027c1.626-2.365,3.939-3.708,6.665-4.425c0.665-0.052,1.337-0.098,2.005-0.144C54.727,18.055,55.34,18.327,55.953,18.598z"/>
<path fill="#CA5F0E" d="M59.309,28.355c0.166-2.029,0.331-4.056,0.499-6.082c0.915-0.061,1.831-0.095,2.746-0.101c1.54-1.544,3.65-1.636,5.58-2.197c1.381,0.098,2.658,0.506,3.816,1.272c0.876,1.199,0.923,2.399,0.006,3.601c-2.049,0.418-4.1,0.836-6.15,1.254c-1.564,0.799-2.063,2.695-3.61,3.513C60.978,29.78,60.017,29.359,59.309,28.355z"/>
<path fill="#BF4207" d="M78.339,13.859c-0.032,1.706-0.064,3.409-0.096,5.115l-0.129,0.351c-1.135,0.918-2.423,1.373-3.888,1.294c-2.122-0.928-3.622-2.158-2.312-4.755C74.058,15.196,76.198,14.527,78.339,13.859z"/>
<path fill="#C4510A" d="M71.915,15.864c1.072,1.083,2.146,2.164,3.218,3.247c0.857,2.979,0.014,4.227-3.158,3.107c-1.044-0.019-2.088-0.034-3.133-0.049c-1.022-1.129-2.925-1.379-3.228-3.229C67.714,17.915,69.816,16.889,71.915,15.864z"/>
<path fill="#B93705" d="M53.471,12.867c-0.054,0.949-0.091,1.898-0.111,2.847c0.73,0.784,0.969,1.56,0.715,2.332c-0.253,0.772-0.503,1.157-0.75,1.157l0.021-0.058c-1.154,0.934-2.402,1.129-3.756,0.464c-1.405-1.767-1.657-3.735-1.017-5.859c0.719-1.27,1.807-1.987,3.256-2.151C52.375,12.019,52.923,12.443,53.471,12.867z"/>
<path fill="#BD3E06" d="M65.615,18.94c1.076,1.074,2.152,2.151,3.228,3.229c-2.095,0-4.191,0.003-6.288,0.003C63.574,21.095,64.594,20.018,65.615,18.94z"/>
<path fill="#BF4307" d="M53.324,19.203c0.011-1.163,0.021-2.322,0.033-3.485c0.866,0.961,1.733,1.923,2.597,2.884C55.096,18.882,54.22,19.084,53.324,19.203z"/>
<path fill="#BF4307" d="M56.198,9.574c-0.91,1.099-1.823,2.194-2.731,3.293c0.004,0-0.367-0.107-0.367-0.107c-1.22-2.923,0.117-3.687,2.8-3.308L56.198,9.574z"/>
<path fill="#4C0E00" d="M71.918,53.468c0.026,1.028,0.046,2.057,0.062,3.085c1.026,0.778,1.381,1.791,1.066,3.04c-0.944,2.508-0.344,4.69,1.422,6.628c1.982,1.715,5.063,0.727,6.874,2.819c-2.098,3.089-4.197,6.174-6.296,9.263c-0.144,0.507-0.287,1.013-0.427,1.52c-0.969,0.415-1.874,0.943-2.699,1.603c0,0-0.073,0.039-0.075,0.039c-3.095-1.016-6.188-2.032-9.283-3.049c-1.003-0.747-1.495-1.748-1.497-2.996c0.222-2.319,0.729-4.617,0.595-6.974c-0.289-2.423-1.072-4.724-1.704-7.077c-0.482-1.946-0.613-3.906-0.381-5.896c0.383-2.094,1.534-3.735,3.021-5.179c1.033,0,2.066,0.009,3.1,0.03C67.768,51.374,69.843,52.421,71.918,53.468z"/>
<path fill="#582505" d="M71.961,59.662c0.006-1.037,0.012-2.071,0.019-3.109c0.97-0.006,1.94-0.024,2.908-0.052c2.135,3.125,4.271,6.247,6.408,9.372c2.12,0.073,4.24,0.149,6.36,0.226c-2.104,0.979-4.209,1.962-6.314,2.941c-3.136-1.031-6.271-2.065-9.408-3.097C70.162,63.844,70.147,61.75,71.961,59.662z"/>
<path fill="#634C15" d="M78.103,81.052c-1.076,0.119-2.153,0.235-3.229,0.354c-0.771-1.063-0.734-2.054,0.242-2.973c0,0-0.07-0.128-0.07-0.131C76.064,79.218,77.083,80.137,78.103,81.052z"/>
<path fill="#741701" d="M21.929,56.566c-1.022-0.019-2.045-0.031-3.069-0.037l-0.068,0.058c-2.852-2.581-0.208-6.793-2.805-9.451c-0.188-1.001-0.324-2.011-0.406-3.027c2.176-0.061,4.353-0.125,6.531-0.186c0.557,0.238,1.115,0.476,1.683,0.701c2.036,1.416,3.745,3.156,5.147,5.207c0.59,1.113,0.92,2.298,0.978,3.555c-0.189,1.272-0.803,2.308-1.771,3.141C26.075,56.537,24.003,56.553,21.929,56.566z"/>
<path fill="#9E9937" d="M21.578,37.791c-0.069-1.059-0.139-2.121-0.208-3.18c-0.717-2.359,0.398-3.827,2.37-4.886c1.315-0.431,2.664-0.559,4.041-0.449c1.346,0.327,2.541,0.952,3.59,1.855c0.793,1.147,1.204,2.42,1.257,3.814c-0.404,3.415-1.286,6.665-3.447,9.451c-1.1,0.827-2.336,1.315-3.712,1.432c-1.386-0.205-2.48-0.885-3.279-2.039l-0.08,0.131c0.055-1.01-0.029-2.008-0.25-2.997c-0.687-0.641-0.958-1.318-0.812-2.032C21.197,38.157,21.374,37.791,21.578,37.791z"/>
<path fill="#BE4508" d="M12.664,25.16c-0.084-0.98-0.203-1.953-0.362-2.924c2.146-0.995,4.291-1.99,6.438-2.981c2.102,0.131,4.201,0.262,6.302,0.394c1.082,0.971,1.631,2.185,1.651,3.641c-0.31,1.419-1.094,2.518-2.284,3.339c-2.166,0.726-4.097,0.427-5.695-1.313C16.697,25.263,14.681,25.212,12.664,25.16z"/>
<path fill="#863E09" d="M24.894,31.434c-1.173,1.059-2.345,2.118-3.521,3.177c-0.818-2.112-1.633-4.224-2.447-6.335c1.762-1.752,3.715-1.398,5.716-0.522c0.694,0.772,0.963,1.575,0.807,2.408C25.289,31.01,25.105,31.434,24.894,31.434z"/>
<path fill="#CF6C13" d="M25.152,28.452c-2.077-0.058-4.154-0.116-6.229-0.174c-0.068-0.992-0.137-1.978-0.208-2.963c2.102,0.031,4.206,0.061,6.308,0.089c0.281,0.497,0.563,0.995,0.847,1.492C25.633,27.415,25.391,27.934,25.152,28.452z"/>
<path fill="#863E09" d="M21.578,37.791c0.095,1.047,0.189,2.091,0.282,3.134c-0.424-0.711-0.929-1.389-1.21-2.154C20.582,38.584,21.25,38.127,21.578,37.791z"/>
<path fill="#A91B01" d="M50.067,12.775c0,2.084,0.001,4.169,0.001,6.253c-0.863,1.017-1.964,1.544-3.296,1.581c-1.313,0.085-2.488-0.269-3.501-1.117c-0.229-0.589-0.459-1.181-0.691-1.77c0.073-0.62,0.151-1.249,0.223-1.874c1.967-1.581,2.335-4.331,4.298-5.923c0,0-0.087-0.214-0.085-0.214c1.015,0.052,2.031,0.092,3.047,0.125c1.025,0.65,1.367,1.303,1.028,1.956C50.751,12.446,50.411,12.775,50.067,12.775z"/>
<path fill="#B32D04" d="M50.067,12.775c0.006-0.982,0.004-1.962-0.005-2.942c1.948-0.125,3.897-0.25,5.843-0.378c-0.938,1.102-1.869,2.204-2.804,3.305C52.088,12.77,51.078,12.773,50.067,12.775z"/>
<path fill="#823A0B" d="M15.988,47.135c0.936,3.149,1.871,6.299,2.805,9.451c-0.971-0.024-1.939-0.076-2.905-0.158C15.922,53.33,15.954,50.233,15.988,47.135z"/>
<path fill="#614712" d="M62.684,75.318c-0.029,1.031-0.07,2.065-0.122,3.097c-0.938,0.019-1.877,0.034-2.816,0.053c0,0-1.543,0.055-1.545,0.063c-1.056-0.003-2.063-0.22-3.033-0.629c-1.017-0.317-1.886-0.875-2.62-1.642c-0.904-1.248-1.121-2.896-2.312-3.982c-0.065-1.017-0.113-2.032-0.145-3.049c-2.915-2.844-3.658-6.262-2.701-10.138c1.137-3.698,3.699-6.188,6.918-8.121c0.686-0.216,1.378-0.424,2.071-0.628c0.978,0.024,1.954,0.03,2.933,0.018c2.252,1.508,1.291,4.63,3.171,6.323c0.063,2.039,0.129,4.074,0.193,6.11c1.662,1.815,1.408,4.067,1.44,6.259C64.086,71.244,64.328,73.496,62.684,75.318z"/>
<path fill="#686122" d="M53.251,75.318c1.069,0.055,2.139,0.109,3.209,0.164c0.972,0.919,1.9,1.877,2.787,2.878c0,0,0.493,0.107,0.496,0.107c-0.159,1.01-0.264,2.022-0.31,3.042c0,0-0.485,1.478-0.482,1.478c-1.007,0.332-1.871,0.888-2.591,1.669l-0.032,0.027c-2.083-0.058-4.164-0.119-6.247-0.18c0.035-2.981,0.072-5.96,0.107-8.938C51.107,74.213,52.128,74.131,53.251,75.318z"/>
<path fill="#511501" d="M59.434,81.51c0.404,0.748,0.883,1.475,1.15,2.268c0.052,0.152-0.727,0.586-1.121,0.888l-0.007-0.006c-0.716-0.689-0.961-1.386-0.735-2.087c0.228-0.705,0.458-1.057,0.693-1.057L59.434,81.51z"/>
<path fill="#D37B17" d="M28.024,18.913c0.246-0.964,0.388-1.941,0.426-2.933c0.814-1.248,1.761-1.422,2.856-0.345c1.076-0.067,2.15-0.131,3.224-0.199c1.347-0.891,2.611-0.741,3.805,0.302c0.113,0.717,0.225,1.435,0.337,2.155c-0.493,1.434-1.451,2.45-2.8,3.122C32.853,21.824,30.099,21.629,28.024,18.913z"/>
<path fill="#E8CE4E" d="M31.306,15.635c-0.941,0.208-1.896,0.32-2.858,0.345c-2.087-1.12-4.178-2.243-6.269-3.363c2.002,0.058,4.002,0.116,6.004,0.174C29.224,13.74,30.265,14.686,31.306,15.635z"/>
<path fill="#B32D04" d="M47.1,9.925c-1.066,2.011-2.133,4.019-3.2,6.03c-0.894-0.748-1.229-1.538-1.008-2.365c0.224-0.848,0.473-1.272,0.748-1.272c-0.067-0.888,0.011-1.761,0.236-2.622C44.95,9.773,46.026,9.849,47.1,9.925z"/>
<path fill="#E7CE44" d="M37.65,15.989c-1.041-0.18-2.081-0.363-3.12-0.549c2.092-0.873,4.182-1.743,6.273-2.612c0.424,0.555,0.85,1.111,1.28,1.663c-0.264,0.644-0.532,1.288-0.796,1.935C39.964,17.219,38.757,17.033,37.65,15.989z"/>
<path fill="#B93705" d="M40.406,15.693c0.134-0.955,0.266-1.91,0.395-2.865c0.963-0.085,1.909-0.253,2.84-0.507c0.084,1.208,0.171,2.42,0.258,3.635c0.001,0,0.005,0.061,0.005,0.061C42.638,16.978,41.472,16.871,40.406,15.693z"/>
<path fill="#642107" d="M59.414,81.516c0.014,1.047,0.028,2.094,0.042,3.144c-1.031-0.003-2.064-0.003-3.096-0.003C57.378,83.609,58.396,82.563,59.414,81.516z"/>
<path fill="#C4530B" d="M28.024,18.913c3.134,0,6.268,0.003,9.404,0.003c0.911,1.364,0.94,2.747,0.087,4.15c-2.597,2.103-5.531,2.42-8.673,1.648c-1.39-0.653-2.632-1.532-3.745-2.591c-0.004-0.827-0.023-1.651-0.055-2.475C26.019,19.337,27.013,19.09,28.024,18.913z"/>
<path fill="#562306" d="M75.116,78.434c-0.014,0.998-0.095,1.987-0.241,2.973c-0.001,0-1.479,0.027-1.479,0.027s-1.477-0.006-1.477-0.009C72.985,80.427,74.051,79.432,75.116,78.434z"/>
<path fill="#B23506" d="M47.422,30.9c1.927,1.254,3.855,2.508,5.784,3.763c1.014,1.117,2.872,1.37,3.229,3.156c-0.148,0.836-0.24,1.675-0.273,2.523c-1.535,2.152-3.661,3.214-6.269,3.4c-3.612-0.205-6.45-1.517-7.563-5.292C42.142,34.666,43.733,32.075,47.422,30.9z"/>
<path fill="#4E1101" d="M50.22,41.071c1.981-0.241,3.963-0.482,5.943-0.726c0.072,3.329,0.144,6.662,0.216,9.998l0.032,0.049c-3.621,1.626-5.585-0.586-7.386-3.184C48.191,44.926,48.287,42.82,50.22,41.071z"/>
<path fill="#D17D18" d="M56.436,37.818c-1.076-1.053-2.153-2.103-3.229-3.156c2.082,0,4.164,0.003,6.246,0.003c0.708-0.317,1.417-0.638,2.125-0.958c0.566,0.531,1.132,1.065,1.698,1.596c-0.269,0.729-0.537,1.458-0.806,2.188C60.459,37.602,58.447,37.712,56.436,37.818z"/>
<path fill="#5B2E08" d="M62.47,37.492c0.097-0.903,0.16-1.81,0.192-2.719c1.224-1.975,3.093-1.639,4.942-1.382c0.385,0.494,0.768,0.992,1.15,1.486c-1.131,2.02-2.262,4.037-3.395,6.058C64.394,39.787,63.433,38.639,62.47,37.492z"/>
<path fill="#531C04" d="M62.483,56.684c-1.057-2.108-2.112-4.217-3.17-6.326c1.093-0.018,2.188-0.042,3.282-0.063C62.557,52.424,62.521,54.554,62.483,56.684z"/>
<path fill="#675D1F" d="M71.828,32.023c0.071,0.873,0.125,1.746,0.158,2.622c-1.075,0.076-2.152,0.152-3.229,0.229c-0.002,0.003-0.098-0.253-0.098-0.253c-0.976-0.772-1.248-1.462-0.821-2.066c0.396-0.562,0.784-0.842,1.17-0.842l-0.278-0.372c1.074-0.772,2.2-0.861,3.381-0.263L71.828,32.023z"/>
<path fill="#875E1A" d="M50.474,56.281c-0.127,4.315-0.255,8.63-0.383,12.945c-4.027-0.021-8.054-0.043-12.082-0.067c-1.108-1.037-1.605-2.313-1.508-3.833c0.446-2.179,1.299-4.202,2.322-6.161c2.429-5.06,2.849-12.753,11.916-9.223C52.099,52.115,51.978,54.228,50.474,56.281z"/>
<path fill="#9D9434" d="M37.927,65.721c0.026,1.144,0.05,2.291,0.079,3.438c-0.134,1.096-0.273,2.191-0.412,3.287c-2.016-0.189-4.031-0.379-6.045-0.57c-0.131-0.962-0.371-1.893-0.716-2.799c-1.823-3.302-0.74-6.872-0.957-10.324c0.204-1.486,1.013-2.521,2.348-3.171c1.438-0.033,2.791,0.287,4.065,0.949c1.15,0.849,2.064,1.904,2.716,3.18C39.419,61.848,39.228,63.883,37.927,65.721z"/>
<path fill="#562306" d="M53.251,75.318c-1.022,0.063-2.045,0.143-3.064,0.244c0.017-1.093,0.03-2.188,0.048-3.284C51.24,73.292,52.245,74.305,53.251,75.318z"/>
<path fill="#7F2D05" d="M31.679,56.861c-0.279,4.07-0.557,8.142-0.841,12.216c-0.879-0.019-1.753-0.03-2.626-0.033c-0.021-4.175-0.041-8.347-0.064-12.519c0.024-1.034,0.049-2.072,0.07-3.109C31.179,52.75,32.303,53.929,31.679,56.861z"/>
<path fill="#C96110" d="M71.975,22.218c1.053-1.038,2.105-2.072,3.158-3.107c1.001-0.018,1.994,0.049,2.981,0.21c0.066,1.038,0.118,2.072,0.156,3.107c0.83,0.684,1.047,1.263,0.651,1.743c-0.35,0.424-0.7,0.638-1.055,0.638c-1.97,0.015-3.939,0.027-5.911,0.042C71.964,23.972,71.97,23.093,71.975,22.218z"/>
<path fill="#D4861C" d="M59.309,28.355c1.335-0.027,2.67-0.055,4.004-0.079c0.853-0.961,1.661-0.971,2.417,0.113c0.073,0.961,0.23,1.907,0.468,2.841c-0.744,1.206-1.824,1.797-3.24,1.785c-1.401,0.067-2.555-0.452-3.498-1.471l-0.06,0.174c-1.029-0.778-1.37-1.547-1.019-2.316c0.348-0.763,0.695-1.145,1.043-1.145L59.309,28.355z"/>
<path fill="#CD6813" d="M62.592,31.544c1.201-0.104,2.402-0.208,3.604-0.314c0.946,0.116,1.881,0.278,2.811,0.482c-0.124,0.968-0.238,1.938-0.345,2.909c-2.002,0.052-4.001,0.101-6,0.152l-0.078-0.104c-0.833-0.696-1.109-1.392-0.83-2.084C62.033,31.893,62.312,31.544,62.592,31.544z"/>
<path fill="#E1B739" d="M72.111,31.077c-1.128,0.085-2.255,0.174-3.381,0.263c1.063-0.934,2.128-1.868,3.191-2.798C71.967,29.389,72.032,30.232,72.111,31.077z"/>
<path fill="#EBE252" d="M65.73,28.388l-1.207-0.131c0,0-1.217,0.019-1.213,0.019c0.834-0.727,1.664-1.45,2.496-2.176C65.793,26.865,65.768,27.626,65.73,28.388z"/>
<path fill="#DDA931" d="M77.867,24.809c0.16-0.791,0.295-1.584,0.403-2.383c0.761,1.068,1.522,2.133,2.281,3.198C79.609,25.507,78.714,25.236,77.867,24.809z"/>
<path fill="#AF2202" d="M47.422,30.9c-1.183,2.292-2.364,4.583-3.546,6.875c-0.981,1.575-2.458,2.042-4.204,1.892c-1.038-0.271-1.952-0.781-2.71-1.538c-0.505-0.879-0.789-1.846-0.882-2.85c-0.276-0.913-0.653-1.798-1.198-2.609c-0.926-1.239-2.274-1.962-3.458-2.905c-0.868-0.714-1.35-1.618-1.472-2.729c0.133-1.138,0.644-2.057,1.529-2.774c2.043-0.687,4.479-0.284,6.067-2.209c-0.04-1.047-0.08-2.09-0.119-3.134c-0.001-0.003,0.177,0.134,0.177,0.134c0.804-1.016,1.82-1.318,3.044-0.909c0.871,0.787,1.575,1.712,2.109,2.756c0.505,1.028,0.897,2.105,1.179,3.216c0.502,1.648,1.5,3.021,2.492,4.397C47.036,29.194,47.365,29.99,47.422,30.9z"/>
<path fill="#B93705" d="M46.43,28.513c-1.898-1.068-3.798-2.139-5.696-3.207c1.214-1.062,1.621-2.454,1.617-4.01c-0.19-1.218,0.31-1.983,1.499-2.301c1.053,0.049,2.106,0.095,3.16,0.14c1.11,0.714,1.495,1.447,1.155,2.2c-0.344,0.766-0.694,1.151-1.056,1.151C46.884,24.494,46.656,26.503,46.43,28.513z"/>
<path fill="#BF4307" d="M47.109,22.486c-0.034-1.117-0.067-2.234-0.101-3.351c1.021-0.045,2.04-0.083,3.059-0.107c1.093,0.037,2.186,0.077,3.277,0.116C51.267,20.258,49.188,21.372,47.109,22.486z"/>
<path fill="#CB630F" d="M59.424,28.257c-0.007,1.154-0.015,2.304-0.022,3.461c-1.277-0.33-2.555-0.659-5.938-1.529C56.684,29.145,58.054,28.7,59.424,28.257z"/>
<path fill="#C7560B" d="M62.592,31.544c0,1.041,0,2.084-0.003,3.125c-1.044,0-2.083,0-3.13,0c0.002-1.044,0.007-2.084,0.004-3.125C60.503,31.544,61.547,31.544,62.592,31.544z"/>
<path fill="#541C03" d="M71.961,59.662c-0.008,2.094-0.017,4.188-0.026,6.281C71.943,63.85,71.951,61.756,71.961,59.662z"/>
<path fill="#541C03" d="M62.7,69.02c-0.009-2.075-0.017-4.15-0.024-6.226c1.012,2.084,2.021,4.172,3.032,6.256C64.691,70.493,63.686,70.558,62.7,69.02z"/>
<path fill="#562306" d="M62.7,69.02c1.003,0.015,2.005,0.027,3.008,0.03c-1.009,2.09-2.018,4.178-3.026,6.269C62.69,73.219,62.695,71.119,62.7,69.02z"/>
<path fill="#8E5713" d="M31.679,56.861c-1.153-1.147-2.307-2.298-3.46-3.445c-0.119-1.008-0.273-2.009-0.464-3.007c0.226-0.649,0.452-1.303,0.676-1.959c0.905-1.083,2.021-1.855,3.375-2.276c2.339,0.171,3.776,1.517,4.666,3.583c0.574,2.114,0.383,4.147-0.682,6.082c-0.552,0.427-1.108,0.852-1.665,1.275C33.319,56.949,32.504,56.864,31.679,56.861z"/>
<path fill="#823A0B" d="M22.19,43.791c0.926,0.162,1.86,0.271,2.8,0.333c1.929,1.547,4.923,2.447,3.609,5.96c0,0-0.836,0.326-0.841,0.326C25.9,48.203,24.044,45.997,22.19,43.791z"/>
<path fill="#94701F" d="M28.03,43.998c1.198-3.232,2.397-6.467,3.595-9.699c1.277-0.348,2.388-0.058,3.338,0.87c0.513,1.178,0.648,2.401,0.476,3.671c-0.673,2.527-1.79,4.752-4.121,6.165C29.996,45.417,28.91,45.042,28.03,43.998z"/>
<path fill="#977C25" d="M28.03,43.998c1.074,0.024,2.147,0.046,3.221,0.067c0.729,0.631,1.002,1.294,0.818,1.984c-0.189,0.705-0.395,1.059-0.621,1.059c-0.952,0.992-1.903,1.987-2.852,2.979c-1.2-1.989-2.402-3.977-3.606-5.963C26,44.023,27.015,43.983,28.03,43.998z"/>
<path fill="#E4C33F" d="M31.325,31.516c-1.002,0.016-2.002-0.015-3.001-0.091c-0.882-0.65-1.27-1.389-1.163-2.216c0.111-0.873,0.289-1.306,0.526-1.306c1.356-0.745,2.556-0.543,3.598,0.604l-0.21,0.174c0.462,0.434,0.925,0.87,1.389,1.306C32.084,30.497,31.705,31.007,31.325,31.516z"/>
<path fill="#CA9528" d="M28.396,28.788c-0.11,0.879-0.136,1.758-0.073,2.64c-1.14,0.003-2.281,0.006-3.425,0.006c0.082-0.995,0.167-1.99,0.253-2.982c0.002,0-0.064,0.034-0.064,0.034C26.296,27.412,27.401,27.512,28.396,28.788z"/>
<path fill="#E3BE39" d="M34.379,34.721c-0.921-0.119-1.84-0.259-2.755-0.418c-0.187-0.922-0.286-1.85-0.298-2.783c0-0.003-0.011,0.045-0.011,0.045c1.036-1.208,2.225-1.327,3.543-0.497c0.253,0.653,0.508,1.306,0.763,1.959C35.207,33.588,34.794,34.156,34.379,34.721z"/>
<path fill="#BA3905" d="M28.396,28.788c-1.103-0.101-2.206-0.202-3.31-0.302c0.024-1.028,0.005-2.057-0.061-3.082c0.023-1.093,0.047-2.188,0.072-3.281c1.062,0.042,2.125,0.085,3.188,0.131c1.272,0.76,2.295,1.773,3.067,3.04c-0.021,1.071-0.044,2.142-0.065,3.213C30.305,28.425,29.342,28.517,28.396,28.788z"/>
<path fill="#B32D04" d="M43.85,18.995c-0.042,1.059-0.085,2.121-0.128,3.18c-1.001,1.001-1.999,1.001-2.996-0.006c-0.006-1.038-0.009-2.075-0.009-3.116c-0.908-0.702-1.224-1.422-0.951-2.157c0.276-0.748,0.56-1.12,0.853-1.12c0,0-0.211-0.083-0.212-0.083c1.165,0.107,2.33,0.214,3.496,0.321C43.879,17.008,43.861,18.004,43.85,18.995z"/>
<path fill="#696725" d="M56.094,69.999c-0.736-2.731-1.47-5.463-2.205-8.194c1.124-0.28,2.249-0.559,3.373-0.839c0.579,2.771,1.157,5.545,1.737,8.318C58.03,69.523,57.061,69.761,56.094,69.999z"/>
<path fill="#562306" d="M50.474,56.281c-0.184-1.938-0.366-3.879-0.55-5.816c-0.346-0.599-0.69-1.193-1.037-1.792c0.45-0.521,0.9-1.047,1.352-1.568c2.057,1.096,4.114,2.188,6.173,3.284C54.432,52.354,52.452,54.316,50.474,56.281z"/>
<path fill="#6A6A27" d="M59.247,78.36c-0.929-0.961-1.859-1.923-2.789-2.881C57.389,76.442,58.319,77.4,59.247,78.36z"/>
<path fill="#B93705" d="M40.62,15.775c0.032,1.093,0.064,2.185,0.098,3.277l-1.557-0.003c0,0-1.556,0.003-1.555,0.003c-0.024-1.022-0.011-2.044,0.042-3.063C38.636,15.855,39.625,15.782,40.62,15.775z"/>
<path fill="#B42E04" d="M31.351,25.294c-1.023-1.013-2.046-2.026-3.068-3.04c3.09-0.067,6.178-0.134,9.265-0.202C35.482,23.133,33.418,24.213,31.351,25.294z"/>
<path fill="#721201" d="M37.611,37.733c2.087,0.015,4.176,0.027,6.265,0.042c2.115,1.099,4.228,2.197,6.343,3.296c0.006,2.011,0.011,4.022,0.019,6.033c0.001,0-0.246,0.086-0.246,0.086C42.02,49.07,35.301,49.311,37.611,37.733z"/>
<path fill="#833607" d="M37.611,37.733c4.127,3.152,8.255,6.305,12.383,9.458c-0.023,1.092-0.045,2.182-0.067,3.274c-3.061,4.01-6.122,8.017-9.181,12.026c-1.333-0.632-2.469-1.514-3.374-2.686l-0.165,0.062c-0.539-1.011-0.893-2.081-1.089-3.208c-0.165-2.206,0.304-4.577-1.619-6.338c-1.016-1.071-2.034-2.143-3.05-3.214c-0.044-1.016-0.11-2.029-0.197-3.042c1.045-2.096,2.092-4.193,3.139-6.29c1.082-1.489,2.168-1.492,3.259-0.009L37.611,37.733z"/>
<path fill="#8B4B0E" d="M37.371,59.806c1.125,0.897,2.25,1.795,3.374,2.688c-0.941,1.074-1.881,2.152-2.821,3.229C37.74,63.749,37.556,61.777,37.371,59.806z"/>
<path fill="#875E1A" d="M37.537,56.751c-0.108,1.038-0.217,2.075-0.328,3.113c-1.028-0.919-2.054-1.838-3.082-2.753c-0.001,0.003,0.491-0.738,0.491-0.738C35.782,55.027,36.747,55.223,37.537,56.751z"/>
<path fill="#C85C0D" d="M34.229,31.687c-0.972-0.015-1.944-0.055-2.915-0.122c-0.061-0.964-0.14-1.925-0.239-2.887c2.312,1.016,4.625,2.032,6.937,3.049c-0.358,0.399-0.717,0.799-1.076,1.199C35.789,33.048,34.898,32.609,34.229,31.687z"/>
<path fill="#7D2603" d="M37.649,37.766c-1.086,0.003-2.173,0.006-3.259,0.009c-0.032-1.019-0.034-2.036-0.009-3.055c-0.001,0-0.001-0.195-0.001-0.195c0.595-0.427,1.189-0.852,1.784-1.285c0.461,0.567,0.919,1.141,1.378,1.712C37.577,35.893,37.614,36.83,37.649,37.766z"/>
<path fill="#B32C04" d="M40.726,22.169c1,0,1.999,0.003,2.997,0.006c-0.997,1.044-1.993,2.087-2.989,3.131C40.731,24.259,40.73,23.215,40.726,22.169z"/>
<path fill="#B32C04" d="M38.012,31.727c0.236,0.778,0.589,1.55,0.644,2.34c0.018,0.266-0.722,0.586-1.114,0.885c-0.001,0,0.023-0.275,0.023-0.275c-0.812-0.68-1.091-1.373-0.842-2.078c0.25-0.711,0.507-1.068,0.771-1.068L38.012,31.727z"/>
<path fill="#7F2A04" d="M37.537,56.751c-0.981-0.07-1.955-0.195-2.92-0.375c-0.038-2.021-0.08-4.038-0.119-6.055C35.511,52.467,36.524,54.609,37.537,56.751z"/>
<path fill="#CC6F18" d="M37.493,31.532c0.024,1.05,0.049,2.096,0.072,3.146c-1.062-0.049-2.123-0.098-3.185-0.149c0.092-0.958,0.044-1.907-0.146-2.844C35.317,31.635,36.405,31.584,37.493,31.532z"/>
</svg>