<?xml version="1.0" encoding="utf-8"?>
<!DOCTYPE svg PUBLIC "-//W3C//DTD SVG 1.1//EN" "http://www.w3.org/Graphics/SVG/1.1/DTD/svg11.dtd">
<svg version="1.1" xmlns="http://www.w3.org/2000/svg" xmlns:xlink="http://www.w3.org/1999/xlink" x="0px" y="0px" width="100px" height="100px" viewBox="0 0 100 100" enable-background="new 0 0 100 100" xml:space="preserve">
<path fill="#170D0F" d="M7.335,69.187c-0.064-7.523-0.13-15.048-0.195-22.571l1.001-0.861c0.502-0.824,0.542-1.672,0.122-2.542c-0.114-0.925-0.54-1.672-1.275-2.246c1.045-6.314,2.09-12.631,3.136-18.945c1.693,1.025,3.684,0.681,5.481,1.19c1.039,0.695,1.805,1.629,2.299,2.774c0.894,1.529,1.896,2.994,3.052,4.342c1.27,1.206,2.635,2.283,4.16,3.174c1.119,0.507,2.208,1.032,3.337,1.523c1.21,0.449,2.393,0.903,3.604,1.355c1.174,0.675,2.236,1.465,3.243,2.362c3.815,4.214,8.148,7.797,12.889,10.922c1.791,1.422,3.674,2.72,5.148,4.502c1.924,2.828,1.926,5.898,1.205,9.061c-0.697,1.452-1.774,2.536-3.218,3.244c-3.103,0.921-5.836-0.349-8.571-1.472c-1.846-0.726-3.737-1.4-5.556-2.163c-0.553-0.211-1.134-0.442-1.685-0.65c-1.051-0.372-2.135-0.757-3.189-1.107c-0.975-0.25-1.982-0.525-2.961-0.754c-0.908-0.089-1.85-0.184-2.768-0.184c-0.854,0.174-1.726,0.336-2.562,0.62c0.023,0.07-1.199,0.57-1.178,0.644c0.02,0.076-1.122,0.794-1.104,0.867c-0.682,0.766-1.349,1.486-1.97,2.291c-1.381,1.914-2.176,4.16-3.758,5.939c-1.036,0.922-2.188,1.565-3.514,1.94C10.205,72.254,8.767,70.725,7.335,69.187z"/>
<path fill="#2B151A" d="M16.38,19.602c7.149-3.439,14.299-6.879,21.448-10.315c0.739,0.067,1.477,0.137,2.213,0.205c1.449,0.348,2.77,0.973,3.958,1.871c2.09,2.759,0.967,5.499-0.049,8.233c-0.249,0.659-0.5,1.328-0.748,1.987c-0.461,1.318-1.03,2.597-1.7,3.821c-0.766,1.132-1.538,2.273-2.305,3.406c-0.858,1.038-1.833,1.962-2.933,2.744c-1.173,0.631-2.435,1.004-3.758,1.144c-1.298,0.055-2.604,0.052-3.903-0.012c-1.947-0.202-3.678-1.014-5.35-1.962c-1.102-0.595-2.208-1.19-3.311-1.782c-1.489-1.166-2.459-2.756-3.473-4.309C15.516,22.971,15.003,21.304,16.38,19.602z"/>
<path fill="#2F161A" d="M93.503,53.427c-2.054,8.173-4.107,16.346-6.161,24.519c-1.203,1.995-3.299,1.672-5.129,1.983c-1.219,0.106-2.412-0.089-3.546-0.528c-0.812-0.82-1.313-1.828-1.481-2.969c-0.086-1.06-0.163-2.143-0.249-3.211c-0.065-0.516-0.117-1.047-0.192-1.565c-0.098-0.51-0.172-1.031-0.277-1.554c-0.135-0.516-0.238-1.034-0.376-1.563c-0.34-1.062-0.66-2.111-1.018-3.18c-0.692-1.721-1.001-3.488-0.931-5.353c0.2-1.364,0.703-2.566,1.527-3.659c2.196-1.907,4.791-3.092,7.375-4.318C86.737,50.998,90.43,49.902,93.503,53.427z"/>
<path fill="#1A0D10" d="M31.563,87.692c-2.017-1.199-4.036-2.396-6.055-3.592c-0.29-0.665-0.58-1.331-0.87-1.999c-1.628-1.489-3.117-3.067-3.532-5.359c-0.07-1.477,0.07-2.933,0.455-4.36c1.579-3.309,2.324-7.065,5.243-9.641c1.247-0.833,2.615-1.34,4.104-1.522c3.891-0.031,7.015,2.276,10.515,3.451c2.005,1.227,3.391,2.957,4.204,5.157c0.964,3.689,2.495,7.221,3.03,11.021c-0.008,1.525-0.312,2.993-0.955,4.382c-1.309,1.959-3.102,3.128-5.484,3.308c-1.415-0.329-2.836-0.665-4.25-1.007c-0.708-0.134-1.421-0.269-2.13-0.402C34.393,87.143,32.968,87.338,31.563,87.692z"/>
<path fill="#2A1317" d="M25.368,75.046c0.038,1.04,0.078,2.084,0.116,3.125c1.718,1.73,1.881,3.479,0.061,5.252c0,0-0.037,0.681-0.037,0.678c-5.813-3.257-11.628-6.513-17.442-9.769c0.392-2.243,1.819-3.379,3.992-3.708c2.658-0.296,5.325-0.327,7.996-0.238c1.349,0.073,2.634,0.388,3.85,0.979C24.666,72.482,25.168,73.703,25.368,75.046z"/>
<path fill="#31181C" d="M84.317,19.269c2.168,1.01,4.337,2.021,6.503,3.031c1.535,4.086,0.064,7.184-3.195,9.695c-2.2,0.69-4.471,0.699-6.745,0.726c-1.549-0.027-3.067-0.244-4.567-0.644c-1.424-0.675-2.823-1.379-4.216-2.121c-1.437-0.732-2.838-1.504-4.227-2.325c-1.454-0.781-2.828-1.667-4.142-2.661c-1.137-1.313-1.739-2.823-1.82-4.554c0.138-1.764,0.85-3.241,2.138-4.449c2.501-1.102,5.038-0.333,7.563-0.165c2.536,0.58,4.939,1.499,7.198,2.787l-0.341,0.073C80.252,20.459,82.216,20.535,84.317,19.269z"/>
<path fill="#2F161A" d="M84.817,28.079c2.002-1.929,4.004-3.857,6.005-5.783c0.998,3.989,1.996,7.978,2.995,11.963c-1.854,3.037-2.286,6.894-5.282,9.253c-3.551,1.627-5.912-0.406-8.234-2.53c-1.086-1.202-1.862-2.597-2.322-4.153c-0.033-1.618,0.471-3.067,1.502-4.321c1.189-0.974,2.348-2.002,3.456-3.083C83.56,28.977,84.189,28.528,84.817,28.079z"/>
<path fill="#2D1519" d="M93.503,53.427c-2.816,0.946-5.634,1.89-8.452,2.835c-2.759,1.444-4.757,0.156-6.563-1.824c-1.104-3.613,1.143-6.451,2.2-9.564c2.029-3.476,5.862-2.566,8.878-3.647c1.717,0.272,3.095,1.108,4.132,2.502C93.633,46.96,93.567,50.195,93.503,53.427z"/>
<path fill="#2A1418" d="M69.249,87.512c-4.143,2.161-8.285,4.318-12.427,6.479c-1.682-0.339-2.968-1.239-3.863-2.698c-0.391-1.633-0.242-3.216,0.442-4.751c1.224-2.14,3.046-3.772,4.71-5.539c1.074-1.218,2.272-2.298,3.594-3.244c1.488-0.684,3.051-1.047,4.688-1.083c1.622-0.043,3.233,0.061,4.836,0.314c1.62,0.53,2.78,1.571,3.478,3.128C74.79,83.987,71.929,85.685,69.249,87.512z"/>
<path fill="#1B0E11" d="M91.164,43.759c-2.1,1.013-4.199,2.023-6.301,3.033c-1.922,3.085-3.993,5.887-8.329,4.319c-2.215-1.957-2.424-4.499-2.118-7.196c0.695-2.704,2.578-4.471,4.744-6.015c0.86-0.137,1.721-0.272,2.581-0.406c4.027-1.078,8.054-2.155,12.078-3.235c0.03,2.268,0.063,4.535,0.098,6.803C93.072,42.038,92.155,42.939,91.164,43.759z"/>
<path fill="#190E10" d="M69.249,87.512c1.018-2.096,2.037-4.192,3.055-6.289c-1.889-1.41-4.27-2.072-5.915-3.854c-1.122-3.543,0.899-5.96,2.998-8.341c1.278-0.896,2.689-1.471,4.243-1.666c2.289-0.131,4.573-0.125,6.8,0.547c1.245,0.872,2.284,1.946,3.114,3.219c-0.007,1.578-0.647,2.854-1.839,3.867l-0.023-0.125c-0.909,0.924-1.699,1.943-2.366,3.058c-0.564,2.6-1.809,4.81-3.817,6.573C73.415,85.504,71.332,86.508,69.249,87.512z"/>
<path fill="#1F1013" d="M53.792,96.533c-5.301-1.953-10.604-3.906-15.904-5.859c0.475-2.716,2.655-3.027,4.792-3.406c2.055-0.823,3.624-2.407,5.502-3.509c1.473-0.327,2.873-0.135,4.203,0.576c1.738,1.608,1.972,3.849,2.512,5.964C55.203,92.496,55.46,94.684,53.792,96.533z"/>
<path fill="#351B20" d="M72.384,18.738c-1.995-0.027-3.99-0.055-5.985-0.083c-4.301,1.416-8.12,1.364-10.388-3.412c-0.41-1.624-0.325-3.226,0.26-4.8c0.98-1.31,2.108-2.481,3.381-3.516c2.353,1.095,4.706,2.188,7.059,3.283c0.905,0.559,1.621,1.297,2.146,2.219l0.399,0.403c1.482,1.004,3.398,1.355,4.461,2.988C73.999,17.124,73.556,18.097,72.384,18.738z"/>
<path fill="#2F161A" d="M75.498,84.5c1.096-3.119,2.189-6.234,3.283-9.354c1.077,0.803,2.025,1.733,2.846,2.799c1.906,0,3.813,0,5.718,0C83.394,80.13,79.445,82.315,75.498,84.5z"/>
<path fill="#30181C" d="M37.828,9.287c3.381-1.874,6.761-3.748,10.142-5.622c1.81,1.123,4.179,0.979,5.789,2.555l-0.046-0.241c1.066,1.114,1.81,2.414,2.228,3.894c-0.284,1.559-1.104,2.752-2.464,3.555c-3.798,0.824-7.512,1.022-10.921-1.34c-1.311-0.76-2.586-1.571-3.818-2.45L37.828,9.287z"/>
<path fill="#241215" d="M44.356,90.53c-2.154,0.046-4.309,0.095-6.467,0.141c-1.036-0.152-2.072-0.306-3.106-0.461c-1.787-1.929-1.626-4.05-0.606-6.25c1.407-0.961,2.695-0.778,3.882,0.396l-0.136-0.033c1.355,1.337,3.017,1.688,4.849,1.505c1.279-0.144,2.223,0.326,2.788,1.504C45.607,88.568,45.183,89.624,44.356,90.53z"/>
<path fill="#361A1F" d="M16.38,19.602c1.027,0.916,2.056,1.831,3.084,2.75c0.916,1.645,0.804,3.216-0.335,4.718c-2.724,1.419-4.824,0.671-6.412-1.847c-0.865-1.068-1.73-2.136-2.594-3.204C12.209,21.213,14.295,20.407,16.38,19.602z"/>
<path fill="#2E161B" d="M12.987,71.894c-1.645,0.814-3.29,1.63-4.928,2.441c-0.238-1.719-0.484-3.437-0.727-5.151c1.863-0.095,3.725-0.192,5.585-0.29l1.313,0.724l0.037,1.498L12.987,71.894z"/>
<path fill="#2A1317" d="M34.87,84.375c-0.029,1.947-0.058,3.895-0.087,5.838c-1.073-0.842-2.146-1.685-3.218-2.523c1.12-2.094,2.242-4.19,3.363-6.287c0.914,0.681,1.21,1.346,0.89,1.999C35.5,84.052,35.184,84.375,34.87,84.375z"/>
<path fill="#2A1317" d="M6.987,40.967c0.957,0.946,1.915,1.889,2.872,2.832c0.824,0.665,1.102,1.333,0.834,2.008c-0.267,0.675-0.535,1.014-0.809,1.014c-0.917-0.062-1.834-0.128-2.747-0.205C7.089,44.732,7.038,42.85,6.987,40.967z"/>
<path fill="#3E1E24" d="M53.759,6.22c-1.931-0.852-3.86-1.703-5.789-2.555C49.899,4.517,51.828,5.368,53.759,6.22z"/>
<path fill="#46262C" d="M53.798,9.229c-0.028-1.08-0.058-2.164-0.087-3.247c1.982,0.312,3.963,0.625,5.942,0.943c0.036,0.748,0.088,1.493,0.155,2.234C57.831,11.358,55.832,11.841,53.798,9.229z"/>
<path fill="#2F171B" d="M72.512,15.839c-1.087-1.004-2.172-2.005-3.258-3.006c2.09,0.928,4.178,1.853,6.267,2.78C74.62,17.053,73.618,17.129,72.512,15.839z"/>
<path fill="#3E1E24" d="M72.512,15.839c1.004-0.064,2.006-0.141,3.009-0.226c1.096,0.992,2.191,1.984,3.287,2.979c-2.143,0.049-4.283,0.098-6.424,0.146C72.409,17.771,72.452,16.803,72.512,15.839z"/>
<path fill="#46262C" d="M84.317,19.269c-1.948-0.204-3.898-0.406-5.849-0.607C80.417,18.866,82.367,19.067,84.317,19.269z"/>
<path fill="#2F161A" d="M53.792,96.533c-0.057-1.972-0.113-3.939-0.169-5.908c1.028-1.232,2.063-1.239,3.104-0.019c0.031,1.126,0.063,2.253,0.094,3.382C55.812,94.836,54.802,95.685,53.792,96.533z"/>
<path fill="#2F171B" d="M68.855,12.43c-0.758-0.705-1.479-1.449-2.151-2.225C67.48,10.898,68.196,11.64,68.855,12.43z"/>
<path fill="#2F161A" d="M91.164,43.759c0.918-0.9,1.837-1.804,2.754-2.701c-0.012,0.897-0.082,1.785-0.218,2.67C92.853,43.738,92.009,43.75,91.164,43.759z"/>
<path fill="#2A1317" d="M22.225,43.652c-4.104-4.141-8.209-8.279-12.315-12.417c1.256-0.638,2.581-1.062,3.975-1.27c2.113-0.244,4.234-0.263,6.361-0.244c1.443,0.027,2.872,0.165,4.291,0.433c1.328,0.61,2.616,1.285,3.868,2.033c1.901,1.272,3.414,2.777,3.273,5.304c-0.748,1.306-1.75,2.365-3.046,3.137c-1.001,1.01-2,2.021-3,3.03C24.498,42.557,23.363,42.554,22.225,43.652z"/>
<path fill="#1B0E10" d="M50.464,62.365c-1.091-2.111-2.184-4.227-3.274-6.341c-0.307-3.675-2.473-5.954-5.627-7.495c-0.969-1.48-1.233-3.073-0.792-4.782c0.705-1.584,1.802-2.82,3.301-3.687c4.112-1.435,8.259-1.147,12.407-0.25c1.506,0.772,2.716,1.862,3.613,3.29c1.069,2.371,0.719,4.767,0.119,7.163c-0.497,2.35-0.993,4.706-1.484,7.059c-0.295,1.56-0.666,3.104-1.112,4.626c-0.792,1.45-1.977,2.424-3.553,2.918C52.318,64.816,51.12,63.983,50.464,62.365z"/>
<path fill="#231215" d="M16.126,56.308c0.073-2.169,0.148-4.343,0.221-6.512c2.113-1.648,4.167-1.563,6.166,0.207l-0.263-0.092c1.714,1.901,4.665,1.35,6.394,3.22l-0.087-0.07c1.639,1.896,4.564,1.267,6.204,3.159l0.169,0.012c0.897,1.202,1.524,2.527,1.839,3.998c-0.954,3.968-4.311,3.277-7.108,3.668c-2.188,0.128-4.372,0.138-6.493-0.543c-1.297-0.638-2.572-1.324-3.824-2.051c-1.335-0.622-2.379-1.565-3.132-2.832C16.184,57.752,16.155,57.031,16.126,56.308z"/>
<path fill="#2A1317" d="M44.27,52.878c-4.166-4.08-8.333-8.157-12.5-12.238c0.188-0.702,0.374-1.401,0.562-2.103c1.062-1.071,2.349-1.56,3.854-1.456c1.321,0.604,2.461,1.453,3.381,2.585c1.964,2.127,2.831,4.968,4.64,7.199l0.105-0.045C46.257,48.853,46.837,50.876,44.27,52.878z"/>
<path fill="#2B161A" d="M12.717,25.223c2.185-0.085,4.372-0.171,6.557-0.256c0.902-1.263,1.828-1.339,2.782-0.058c1.303,0.153,2.608,0.306,3.913,0.458c0.812,0.891,1.633,1.773,2.459,2.646c1.146,0.064,2.292,0.125,3.438,0.186c1.061,1.074,1.511,2.359,1.354,3.854c-2.069,3.28-4.792,2.044-7.466,1.074c-1.364-0.226-2.745-0.336-4.129-0.324c-1.375-0.052-2.698-0.354-3.946-0.943c-1.267-0.503-2.436-1.184-3.5-2.039c-0.386-0.559-0.774-1.114-1.161-1.672C12.924,27.173,12.824,26.196,12.717,25.223z"/>
<path fill="#281316" d="M12.984,65.704c1.047-3.131,2.094-6.265,3.142-9.396l-0.032-0.066c1.384,1.3,2.55,2.773,3.496,4.419C19.719,65.397,18.326,68.137,12.984,65.704z"/>
<path fill="#2A1317" d="M44.27,52.878c0.014-2.021,0.027-4.038,0.041-6.058c0.961,3.07,1.921,6.14,2.879,9.207C46.216,54.975,45.244,53.928,44.27,52.878z"/>
<path fill="#1B0F11" d="M12.984,65.704c1.054-2.114,2.109-4.229,3.163-6.348c1.901-1.181,3.643-0.982,5.226,0.604c2.327,3.641,3.078,7.224-0.374,10.663c-3.139,1.352-5.733,0.354-8.044-1.862c0,0-0.037,0.129-0.038,0.132C12.939,67.831,12.961,66.767,12.984,65.704z"/>
<path fill="#341C21" d="M22.513,50.003c-2.057-0.07-4.112-0.138-6.167-0.207C18.402,49.862,20.457,49.933,22.513,50.003z"/>
<path fill="#351D22" d="M28.644,53.131c-2.13-1.071-4.26-2.146-6.392-3.22C24.382,50.985,26.512,52.06,28.644,53.131z"/>
<path fill="#2E161B" d="M34.761,56.22c-2.067-1.053-4.135-2.103-6.204-3.155C30.624,54.113,32.694,55.167,34.761,56.22z"/>
<path fill="#2A1317" d="M41.071,59.391c2.097,1.056,4.193,2.108,6.288,3.164c-0.208,0.751-0.415,1.502-0.623,2.256c-2.077,1.837-4.252,1.324-6.448,0.266c-1.093-1.233-1.412-2.658-1.061-4.252C39.842,60.349,40.457,59.869,41.071,59.391z"/>
<path fill="#2F161A" d="M50.464,62.365c1.055,0.046,2.107,0.095,3.16,0.141c0.621,0.613,1.242,1.227,1.861,1.844c-0.012,0.876-0.022,1.748-0.036,2.624c-0.998,1.565-2.419,2.463-4.264,2.692c-4.375-0.742-6.41-2.704-3.73-7.129l-0.096,0.018C48.394,62.512,49.431,62.448,50.464,62.365z"/>
<path fill="#2A1317" d="M9.885,46.82c-0.011-1.007-0.018-2.015-0.026-3.021C10.05,44.806,10.059,45.81,9.885,46.82z"/>
<path fill="#1B0E10" d="M22.225,43.652c1.135,0.003,2.269,0.006,3.406,0.006C24.495,43.655,23.36,43.655,22.225,43.652z"/>
<path fill="#1B0E10" d="M28.632,40.628c-0.027-1.022-0.057-2.048-0.088-3.07c1.102-1.074,2.333-1.203,3.679-0.503c0.783,1.321,0.676,2.53-0.464,3.604c0,0,0.009-0.021,0.011-0.019C30.724,40.637,29.677,40.631,28.632,40.628z"/>
<path fill="#1B0E10" d="M34.863,59.399c0.021-1.056,0.043-2.112,0.066-3.168c1.076,0.049,2.15,0.098,3.224,0.146c0.372,0.498,0.745,0.992,1.115,1.489c0.011,1.301-0.482,2.368-1.479,3.208c-0.621-0.043-1.242-0.089-1.864-0.135C35.571,60.428,35.218,59.915,34.863,59.399z"/>
<path fill="#2E161B" d="M37.985,59.384c0.043-1.004,0.098-2.008,0.167-3.009c0.975,1.007,1.949,2.012,2.92,3.016c-0.001,0,0.049-0.053,0.049-0.053C40.096,60.748,39.051,60.764,37.985,59.384z"/>
<path fill="#2E161B" d="M13.163,31.311c-1.085-0.024-2.17-0.052-3.253-0.076c1.036-1.029,2.071-2.057,3.107-3.085l-0.084-0.088c1.091,0.445,1.598,1.26,1.52,2.435L13.163,31.311z"/>
<path fill="#37191F" d="M38.188,18.857c0.977-2.124,1.952-4.248,2.928-6.372c0.707-0.296,1.413-0.589,2.121-0.882c2.24,0.556,4.527,0.861,6.8,1.258c1.492,0.485,2.762,1.315,3.842,2.447c0.694,1.395,1.066,2.872,1.117,4.428c-0.037,1.547-0.41,3.009-1.166,4.364c-1.093,1.086-2.391,1.813-3.882,2.185c-1.487,0.141-2.983,0.162-4.475,0.067c-2.375-0.348-4.044-1.572-4.81-3.906C40.018,21.13,39.202,19.925,38.188,18.857z"/>
<path fill="#2E171B" d="M34.824,28.165c0.012-1.046,0.026-2.09,0.038-3.137c0.043-2.063,2.185-2.042,3.16-3.18l-0.027,0.027c1.433-0.864,2.855-0.849,4.272,0.049c1.825,1.486,4.061,2.469,5.435,4.501c0.354,1.663,0.011,3.165-1.033,4.507c-1.315,1.025-2.8,1.587-4.463,1.682c-2.482,0.064-4.889-0.104-6.735-2.082C35.254,29.742,35.039,28.952,34.824,28.165z"/>
<path fill="#381A1F" d="M38.022,21.848c-1.053,1.059-2.107,2.121-3.16,3.18C35.915,23.969,36.968,22.906,38.022,21.848z"/>
<path fill="#381A1F" d="M28.427,28.012c-0.822-0.882-1.646-1.767-2.464-2.649C26.787,26.248,27.608,27.13,28.427,28.012z"/>
<path fill="#3E1E24" d="M22.055,24.908c-0.928,0.034-1.854,0.052-2.782,0.058c0.055-0.875,0.118-1.751,0.189-2.622C20.328,23.203,21.191,24.057,22.055,24.908z"/>
<path fill="#3E1E24" d="M41.13,21.854c-1.045,0.006-2.09,0.016-3.136,0.021c0.049-1.01,0.111-2.017,0.189-3.021c0.981-0.045,1.958-0.079,2.936-0.104c0.464,0.516,0.928,1.031,1.392,1.547C42.052,20.816,41.591,21.335,41.13,21.854z"/>
<path fill="#381A1F" d="M38.738,9.638c0.784-0.092,1.568-0.177,2.353-0.266c0.668,0.525,1.335,1.05,2.002,1.575c-0.668,0.522-1.337,1.043-2.005,1.565l0.029-0.027C40.323,11.536,39.531,10.586,38.738,9.638z"/>
<path fill="#381A1F" d="M31.616,31.375c0.081-1.059,0.162-2.118,0.246-3.177c0.99-0.019,1.978-0.03,2.961-0.037c0,0.003,0.038-0.037,0.038-0.037c0.971,0.867,1.398,1.932,1.193,3.235c-0.812,1.035-1.872,1.499-3.181,1.392C32.454,32.294,32.036,31.836,31.616,31.375z"/>
<path fill="#221115" d="M81.714,53.18c1.111,1.028,2.222,2.057,3.336,3.082c-2.11,1.041-4.223,2.082-6.333,3.122c-1.411,2.53-3.323,4.202-6.451,3.8c-1.758-0.595-3.044-1.728-3.852-3.394c-0.421-1.706-0.561-3.439-0.421-5.188c0.26-1.758,1.044-3.246,2.346-4.458c2.464-1.38,4.846-0.965,7.178,0.363C79.122,51.068,80.522,51.962,81.714,53.18z"/>
<path fill="#2A1418" d="M81.765,71.908c-2.083-0.015-4.166-0.03-6.25-0.042c-1.087-1.06-2.013-2.243-2.755-3.567c0.01-2.564,1.444-4.142,3.607-5.216c0.725-0.208,1.451-0.418,2.176-0.626c2.097,1.139,4.193,2.28,6.288,3.421C83.01,67.481,85.519,71.286,81.765,71.908z"/>
<path fill="#1A0D10" d="M81.765,71.908c1.022-2.011,2.045-4.025,3.066-6.033c1.149,1.02,2.297,2.036,3.444,3.052c0.757,1.111,0.684,2.127-0.344,3.037l0.103-0.175c-0.888,0.883-1.951,1.413-3.188,1.6c-1.278-0.012-2.316-0.519-3.109-1.522L81.765,71.908z"/>
<path fill="#190E10" d="M72.428,59.427c2.095-0.012,4.189-0.027,6.286-0.043c-0.056,1.025-0.112,2.051-0.169,3.073c-0.002,0,0.079-0.021,0.079-0.021c-1.079,1.145-2.323,2.063-3.738,2.753c-1.69,0.174-3.038-0.421-4.05-1.785C70.402,61.691,70.934,60.367,72.428,59.427z"/>
<path fill="#3A1F24" d="M87.932,71.964c0.098-1.017,0.213-2.03,0.342-3.04C88.178,69.94,88.063,70.953,87.932,71.964z"/>
<path fill="#3A1F24" d="M81.737,71.866c1.04,0.122,2.083,0.244,3.123,0.366c0.881,0.582,1.174,1.165,0.884,1.751c-0.29,0.583-0.582,0.876-0.878,0.876c-1.053,0.046-2.105,0.092-3.16,0.135C81.716,73.953,81.726,72.909,81.737,71.866z"/>
<path fill="#3A1F24" d="M84.866,74.859c-0.001-0.876-0.003-1.755-0.006-2.631c1.058-0.143,2.115-0.289,3.174-0.436C86.978,72.815,85.923,73.837,84.866,74.859z"/>
<path fill="#35191F" d="M81.627,77.945c-0.95-0.935-1.901-1.868-2.849-2.799c0.971-0.098,1.938-0.189,2.905-0.274C81.672,75.895,81.651,76.92,81.627,77.945z"/>
<path fill="#1B0F11" d="M41.216,72.067c-1.172-1.099-2.342-2.2-3.514-3.299c-2.441,1.571-3.509,0.116-4.3-1.956c-0.325-1.35-0.327-2.698-0.005-4.053c0.957-1.087,2.143-1.673,3.607-1.673c1.338,0.525,2.524,1.272,3.575,2.252c4.727,3.056,11.563,2.769,14.241,9.049c0.062,1.55-0.267,3.015-0.929,4.416c-1.063,1.178-2.362,1.938-3.908,2.292c-1.585-0.132-3.022-0.662-4.338-1.545C44.089,75.784,42.933,73.7,41.216,72.067z"/>
<path fill="#231114" d="M25.368,75.046c-1.003-0.016-2.004-0.03-3.006-0.049c-1.117-1.031-2.002-2.234-2.656-3.604c0.795-2.124,1.027-4.397,1.773-6.533c1.587-2.319,3.584-2.271,5.794-1.011c0.478,0.583,0.955,1.169,1.431,1.752C27.591,68.75,26.48,71.897,25.368,75.046z"/>
<path fill="#2E161B" d="M34.862,65.662c0.948,1.037,1.897,2.071,2.843,3.106c-0.954,1.01-1.904,2.023-3.862,4.107c-0.859-3.043-1.45-5.133-2.04-7.221C32.827,64.212,33.846,64.282,34.862,65.662z"/>
<path fill="#241215" d="M44.199,84.524c0.017-1.102,0.035-2.203,0.054-3.308c-2.187-3.705-2.779-6.61,3.135-6.254l-0.026,0.016c1.958,1.492,4.775,1.178,6.523,3.104c1.079,2.398,1.044,4.703-0.576,6.873c-2.251,1.218-4.701,0.967-7.12,0.958C45.526,85.452,44.863,84.988,44.199,84.524z"/>
<path fill="#2A1317" d="M47.388,74.963c-1.045,2.085-2.09,4.169-3.135,6.257c-1.013-3.052-2.025-6.104-3.037-9.155C43.274,73.031,45.331,73.999,47.388,74.963z"/>
<path fill="#160C0E" d="M34.862,65.662l-1.53-0.01c0,0-1.532,0-1.53,0.003c-1.033-0.019-2.068-0.036-3.101-0.055c0.003,0-0.099,0.024-0.099,0.024c-0.498-0.519-0.995-1.041-1.493-1.56c0.5-0.516,1.001-1.031,1.501-1.55c2.084-1.038,4.169-2.078,6.253-3.116l0.005-0.024c2.336,1.041,2.336,2.081,0.001,3.125C34.867,63.553,34.865,64.608,34.862,65.662z"/>
<path fill="#2A1317" d="M25.545,83.423c-0.02-1.752-0.041-3.503-0.061-5.252C25.504,79.923,25.523,81.671,25.545,83.423z"/>
<path fill="#331B20" d="M44.281,87.503c-2.12-1.062-4.237-2.121-6.358-3.18c2.092,0.067,4.184,0.134,6.276,0.201l-0.012-0.128c1.044,0.659,1.404,1.34,1.086,2.038C44.95,87.147,44.62,87.503,44.281,87.503z"/>
<path fill="#2E161B" d="M34.87,84.375c0.015-0.992,0.034-1.983,0.057-2.976c1.043,0.989,2.087,1.972,3.131,2.957C36.995,84.363,35.933,84.369,34.87,84.375z"/>
<path fill="#2E161B" d="M19.249,75c-2.087-1.034-4.175-2.072-6.262-3.106l0.021-0.03c1.79-2.076,3.908-1.569,6.063-0.77c0.764,0.833,1.045,1.69,0.844,2.569C19.71,74.555,19.489,75,19.249,75z"/>
<path fill="#130A0B" d="M19.249,75c0.009-1.053,0.017-2.103,0.024-3.155c0.505-0.498,1.01-0.992,1.516-1.492c0.528,0.47,1.056,0.945,1.583,1.419c-0.003,1.074-0.006,2.151-0.011,3.226C21.324,74.997,20.287,75,19.249,75z"/>
<path fill="#231215" d="M59.807,12.668c2.196,1.996,4.392,3.992,6.589,5.987c-0.061,1.096-0.125,2.191-0.188,3.29c1.097,1.364,1.425,2.893,0.982,4.583c-0.986,1.413-2.341,2.204-4.055,2.368c-1.628-0.293-3.05-1.007-4.257-2.136c-1.079-1.175-2.141-2.374-3.177-3.589c-0.905-1.315-1.532-2.759-1.877-4.321c-0.214-1.563-0.206-3.128,0.022-4.69C55.466,12.201,57.299,11.09,59.807,12.668z"/>
<path fill="#381A1F" d="M78.42,28.022c1.064,0.07,2.129,0.14,3.192,0.21c0.486,0.567,0.972,1.138,1.457,1.712c-0.226,0.723-0.452,1.44-0.684,2.164c-1.192,0.974-2.43,1.865-3.741,2.677c-2.227,1.077-4.578,1.077-6.966,0.894c-3.7-0.781-5.891-2.768-5.511-6.83c0.815-1.535,1.979-2.713,3.501-3.543c0.838-0.137,1.671-0.271,2.505-0.409c1.136,0.045,2.271,0.091,3.404,0.137C76.535,26.023,77.481,27.017,78.42,28.022z"/>
<path fill="#180D0F" d="M78.42,28.022c-0.947-0.995-1.896-1.993-2.842-2.991C76.526,26.028,77.474,27.026,78.42,28.022z"/>
<path fill="#1F0F13" d="M69.244,21.875c0.979,1.007,1.957,2.017,2.934,3.021c-0.004,0,0.188,0.119,0.188,0.119c-0.485,0.375-0.969,0.751-1.454,1.126c-1.291,0.269-2.338-0.144-3.174-1.142C67.734,23.715,68.236,22.671,69.244,21.875z"/>
<path fill="#3E1E24" d="M69.244,21.875c0.037,1.044,0.074,2.087,0.11,3.134c-0.467,1.059-1.296,1.51-2.434,1.446c-0.254-0.464-0.507-0.928-0.76-1.392c0.012-1.043,0.025-2.084,0.042-3.122C67.219,21.912,68.231,21.887,69.244,21.875z"/>
<path fill="#2F171B" d="M81.612,28.232c1.069-0.052,2.139-0.104,3.207-0.153c-0.002,0-0.177,0.281-0.177,0.281c-0.352,0.714-0.702,1.431-1.053,2.146c-0.428-0.671-0.856-1.343-1.283-2.014L81.612,28.232z"/>
<path fill="#3A1F24" d="M84.238,30.792c-0.813,1.181-1.624,2.362-2.436,3.546c-0.518-0.525-1.033-1.047-1.549-1.569c0.519-0.519,1.039-1.037,1.558-1.556l0.007-0.055C82.463,29.965,83.262,29.788,84.238,30.792z"/>
<path fill="#35191F" d="M81.803,34.338c-0.021,1.05-0.041,2.103-0.062,3.156l-0.004-0.006c-3.42,1.541-4.384-0.18-4.331-3.259c1.496-1.318,2.942-1.267,4.343,0.146L81.803,34.338z"/>
<path fill="#010101" d="M84.238,30.792c-0.818,0.058-1.625,0.184-2.422,0.366c0.217-0.882,0.377-1.771,0.486-2.67c0.785-0.021,1.564-0.067,2.341-0.128C84.513,29.172,84.378,29.983,84.238,30.792z"/>
<path fill="#31181D" d="M81.714,53.18c-1.047-0.079-2.092-0.155-3.139-0.234c-0.488-0.537-0.978-1.074-1.466-1.608c0.445-0.574,0.893-1.145,1.34-1.719c2.139-0.939,4.276-1.883,6.414-2.826C83.813,48.923,82.764,51.05,81.714,53.18z"/>
<path fill="#271317" d="M72.484,71.905c-1.082,2.097-2.162,4.193-3.244,6.29c0.934,0.668,1.248,1.343,0.947,2.023c-0.302,0.684-0.605,1.025-0.915,1.025c-1.061-0.003-2.12-0.003-3.181-0.006c-1.587-0.834-2.876-1.996-3.869-3.492c-0.808-2.6-0.728-5.221-0.219-7.861c0.68-1.69,1.765-3.058,3.258-4.104c2.776-1.449,5.167-0.305,7.519,1.111C73.686,68.622,73.587,70.294,72.484,71.905z"/>
<path fill="#180C0F" d="M62.987,81.234c0,1.05,0,2.1,0,3.149c-1.877,1.801-4.269,1.569-6.583,1.67c-1.588-0.678-2.463-1.874-2.617-3.595c-0.152-2.43-0.175-4.825,1.302-6.946c3.912-2.108,6.095-0.208,7.599,3.269C62.789,79.599,62.888,80.417,62.987,81.234z"/>
<path fill="#3B2025" d="M56.76,84.397c2.077-0.006,4.152-0.01,6.228-0.013c-2.064,1.017-4.131,2.03-6.197,3.046c-0.358-0.504-0.719-1.004-1.078-1.508C56.06,85.412,56.41,84.903,56.76,84.397z"/>
<path fill="#35191F" d="M56.727,90.606c-1.034,0.007-2.068,0.013-3.104,0.019c-1.021-1.031-2.042-2.06-3.064-3.092c2.069-2.282,4.147-2.212,6.233-0.021L56.79,87.43C56.77,88.488,56.749,89.548,56.727,90.606z"/>
<path fill="#150A0D" d="M66.116,78.137c0.014,1.035,0.007,2.069-0.022,3.102c-0.002,0-1.554-0.004-1.554-0.004s-1.552,0.004-1.553,0l0.035,0.053C61.666,77.887,62.854,76.993,66.116,78.137z"/>
<path fill="#2F161A" d="M69.272,81.244c-0.007-1.017-0.018-2.036-0.032-3.052c1.022,1.013,2.045,2.021,3.065,3.03C71.294,81.231,70.284,81.238,69.272,81.244z"/>
<path fill="#150A0D" d="M78.594,43.936c-0.047,1.898-0.095,3.793-0.144,5.685c-0.001-0.003,0.253,0.65,0.253,0.65c-1.774,1.804-4.723,0.938-6.455,2.835l0.156-0.125c-1.768,1.709-2.981,3.827-4.292,5.872c-1.324,1.067-2.829,1.474-4.507,1.217c-1.539-0.579-2.805-1.528-3.794-2.838c-1.284-2.157-1.405-4.482-0.981-6.882c0.566-1.458,1.328-2.816,2.281-4.059c1.025-1.141,2.055-2.292,3.078-3.436c0.968-1.181,2.095-2.188,3.401-2.982c1.443-0.433,2.925-0.665,4.436-0.659c1.5,0.083,2.941,0.428,4.316,1.038C77.533,41.211,78.306,42.426,78.594,43.936z"/>
<path fill="#2F161A" d="M78.594,43.936c-1.009-0.091-2.019-0.183-3.029-0.269c-1.66-1.184-2.987-2.676-4.077-4.391c-0.258-1.349-0.053-2.634,0.55-3.864c0.958-0.943,2.052-1.688,3.28-2.237c1.41-0.32,2.521,0.116,3.336,1.312c1.028,0.998,2.056,1.999,3.084,3C80.69,39.636,79.642,41.788,78.594,43.936z"/>
<path fill="#1C0F12" d="M72.484,71.905c-0.064-1.074-0.127-2.151-0.189-3.226c-2.197-2.374-7.302-0.326-7.87-5.179c2.041-4.837,4.832-3.849,7.861-1.013c1.124,0.027,2.247,0.058,3.372,0.088c1.783,2.069,1.658,4.099-0.129,6.092c-0.004,1.064-0.009,2.13-0.015,3.198C74.504,71.878,73.494,71.894,72.484,71.905z"/>
<path fill="#1A0E10" d="M56.792,87.512c-2.08,0.007-4.158,0.013-6.234,0.021c-1.055-0.012-2.11-0.027-3.167-0.039c-1.079,1.281-2.129,1.26-3.151-0.07c0,0,0.038,0.079,0.04,0.079c-0.026-1.037-0.057-2.072-0.092-3.106c2.098-0.01,4.198-0.019,6.299-0.027c0.852-1.025,1.904-1.768,3.155-2.222c1.239,0.488,2.281,1.251,3.149,2.255c0,0-0.033-0.009-0.032-0.009C56.789,85.434,56.8,86.472,56.792,87.512z"/>
<path fill="#321B1F" d="M44.24,87.424c1.05,0.024,2.1,0.046,3.151,0.07c-1.013,1.013-2.026,2.026-3.038,3.039C44.309,89.496,44.27,88.461,44.24,87.424z"/>
<path fill="#32181D" d="M59.807,12.668c-1.095,1.068-2.19,2.136-3.286,3.207c-0.976,1.239-2.183,1.615-3.661,0.98c-0.845-1.184-1.451-2.484-1.852-3.882c0.558-1.352,1.396-2.505,2.472-3.491c0,0,0.313-0.248,0.315-0.25c2.007-0.021,4.012-0.042,6.016-0.067C59.809,10.33,59.807,11.499,59.807,12.668z"/>
<path fill="#241417" d="M53.479,9.482c0.033,1.028,0.053,2.057,0.061,3.088c-0.648,0.852-1.458,1.495-2.432,1.938c-1.614-0.058-3.13,0.309-4.555,1.059c-1.822-1.016-3.644-2.036-5.466-3.055c0.001-1.047,0.003-2.093,0.005-3.14C45.221,9.409,49.35,9.445,53.479,9.482z"/>
<path fill="#130A0B" d="M19.273,71.845c-2.089,0.006-4.178,0.012-6.265,0.019c-0.014-1.035-0.029-2.069-0.052-3.102c2.084,0,4.168,0.004,6.254,0.004c1.058,0.701,1.409,1.4,1.056,2.1c-0.351,0.698-0.704,1.047-1.059,1.047L19.273,71.845z"/>
<path fill="#130A0B" d="M22.376,31.259c3.082,0.04,6.164,0.076,9.244,0.116c-0.003,0-0.096,0.073-0.096,0.073c0.834,0.8,1.16,1.642,0.972,2.521c-0.192,0.903-0.413,1.352-0.667,1.352c-2.231,0.674-4.399,0.949-6.224-0.974c-1.076,0.006-2.153,0.012-3.23,0.018C20.026,33.331,20.026,32.297,22.376,31.259z"/>
<path fill="#341C21" d="M19.247,34.375c-2.029-1.022-4.059-2.042-6.086-3.064c0.001,0-0.156-0.076-0.156-0.076c2.062-2.033,4.127-1.761,6.197-0.012l0.04,0.027c1.043,0.693,1.39,1.386,1.045,2.081C19.943,34.027,19.597,34.375,19.247,34.375z"/>
<path fill="#130A0B" d="M25.604,34.348c1.831,0.049,3.661,0.101,5.492,0.152c0.559,0.083,1.117,0.162,1.675,0.244c0.084,0.559,0.168,1.117,0.252,1.676c-0.435,0.36-0.87,0.72-1.306,1.08c-1.056,0.019-2.113,0.037-3.172,0.058C27.563,36.487,26.584,35.416,25.604,34.348z"/>
<path fill="#1B0E10" d="M19.247,34.375c-0.003-1.041-0.003-2.084-0.004-3.125c1.041,0,2.084,0,3.129,0.006c-0.001,1.044-0.004,2.082,0,3.116C21.332,34.369,20.29,34.372,19.247,34.375z"/>
<path fill="#1A0E11" d="M63.058,50.135c-0.049,1.965-0.098,3.927-0.146,5.893c0.132,0.619,0.264,1.239,0.395,1.858c0.998,2.515-0.317,5.026-0.004,7.544c0.111,1.294,0.001,2.569-0.333,3.827c-0.424,1.242-0.99,2.407-1.685,3.521c-0.999,0.882-2.144,1.498-3.415,1.892c-1.323,0.257-2.626,0.189-3.915-0.195c-0.843-1.049-1.461-2.215-1.858-3.497c-0.395-2.035-0.411-3.955,1.574-5.276l-0.016-0.064c0.816-0.899,1.323-1.94,1.473-3.152c-0.123-1.217-0.625-2.249-1.506-3.101c0-1.046,0-2.097,0-3.143c1.541-1.557,1.76-3.815,2.959-5.555C58.577,48.603,60.543,46.155,63.058,50.135z"/>
<path fill="#271518" d="M56.914,43.823c-4.262-0.015-8.523-0.034-12.784-0.049c-0.711-0.027-1.422-0.052-2.132-0.076c-1.41-0.241-2.722-0.742-3.931-1.501c-1.016-0.986-1.794-2.139-2.33-3.449c-0.328-1.395-0.114-2.716,0.566-3.967c1.589-1.486,3.564-1.858,5.643-1.922c1.352-0.024,2.705-0.04,4.063-0.043c1.369,0,2.734,0,4.111,0c1.405,0,2.8,0.009,4.211,0.019c1.456,0.018,2.891,0.128,4.337,0.32c1.436,0.503,2.704,1.251,3.809,2.304c1.46,2.054,1.808,4.224,0.787,6.567c-1.02,1.333-2.353,2.109-4.01,2.337C58.472,44.184,57.693,44.003,56.914,43.823z"/>
<path fill="#331B20" d="M44.208,46.866c-2.06-1.007-4.118-2.014-6.178-3.021c0.369-0.507,0.74-1.013,1.109-1.52c1.93-0.205,3.729,0.049,5.188,1.486c0,0-0.195-0.04-0.197-0.037C44.163,44.803,44.189,45.835,44.208,46.866z"/>
<path fill="#3B2025" d="M56.79,46.854c0.028-1.01,0.067-2.02,0.122-3.03c0.002,0-0.22,0.043-0.22,0.043c1.727-1.645,3.925-2.127,6.166-2.506c1.448,0.675,2.313,1.801,2.599,3.372c-1.238,3.564-4.273,3.814-7.352,3.982C57.668,48.093,57.228,47.473,56.79,46.854z"/>
<path fill="#2F161A" d="M56.793,53.19c-1.057,1.016-2.114,2.035-3.172,3.052c0.023-2.091,0.046-4.185,0.068-6.274c1.137-1.133,2.406-1.361,3.824-0.553C58.23,50.855,58.037,52.124,56.793,53.19z"/>
<path fill="#2F161A" d="M53.621,59.384c1.033,1.025,2.064,2.051,3.098,3.073c-1.027,1.279-2.064,1.288-3.114,0.027c0,0,0.02,0.019,0.02,0.021C53.616,61.466,53.615,60.425,53.621,59.384z"/>
<path fill="#35191F" d="M56.705,49.96c-1.006,0.007-2.012,0.007-3.017,0.007c1.034-1.038,2.067-2.075,3.102-3.113l-0.011-0.085c0.997,0.733,1.317,1.45,0.963,2.152C57.394,49.612,57.05,49.96,56.705,49.96z"/>
<path fill="#140B0C" d="M19.322,59.427c-1.059-0.021-2.118-0.046-3.177-0.067c-0.017-1.04-0.034-2.078-0.052-3.118c2.064,0.003,4.129,0.003,6.193,0.003c0.392,0.479,0.783,0.961,1.175,1.44c0.292,1.288-0.03,2.377-1.059,3.231C21.091,61.014,20.064,60.517,19.322,59.427z"/>
<path fill="#160C0E" d="M25.426,59.315c1.062,1.067,2.123,2.136,3.185,3.201l0.011-0.016c-1.982,2.045-4.282,1.63-6.627,0.852c-1.248-1.478-1.114-2.813,0.401-4.01l-0.076,0.061C23.317,58.06,24.355,58.09,25.426,59.315z"/>
<path fill="#291216" d="M25.426,59.315c-1.034,0.033-2.07,0.061-3.105,0.088c-0.011-1.053-0.021-2.105-0.032-3.158C23.334,57.27,24.381,58.292,25.426,59.315z"/>
<path fill="#160C0D" d="M38.02,37.476c-0.006,1.074-0.012,2.148-0.018,3.22c-0.929,1.297-1.914,1.275-2.945,0.125c-1.1-0.055-2.2-0.11-3.299-0.162c-0.014-1.053-0.026-2.106-0.04-3.159c-0.001,0,0.057-0.024,0.057-0.024c0.918-1.044,2.014-1.843,3.29-2.402C36.536,35.278,37.496,36.108,38.02,37.476z"/>
<path fill="#2E161B" d="M35.057,40.82c0.981-0.052,1.962-0.095,2.945-0.125l-0.099-0.119c0.761,0.516,1.521,1.035,2.282,1.55c-0.735,0.552-1.471,1.105-2.205,1.657c0,0,0.047,0.058,0.049,0.058C37.039,42.835,36.048,41.827,35.057,40.82z"/>
<path fill="#130A0B" d="M19.202,31.223c-2.065,0.003-4.131,0.009-6.197,0.012c-0.023-1.059-0.047-2.115-0.072-3.174C15.022,29.114,17.113,30.167,19.202,31.223z"/>
<path fill="#2E161B" d="M22.395,59.342c-0.006,1.047-0.014,2.093-0.02,3.143c0.723,0.522,1.448,1.047,2.173,1.569c-0.728,0.519-1.456,1.037-2.182,1.556c0.001,2.058,0.003,4.114,0.006,6.165c-1.054,0.043-2.109,0.089-3.163,0.138c0-1.047,0.001-2.097,0.003-3.146c0.034-3.113,0.07-6.226,0.107-9.339C20.346,59.394,21.37,59.363,22.395,59.342z"/>
<path fill="#231215" d="M53.67,65.701c-0.014,2.054-0.025,4.107-0.04,6.162c-1.04,1.36-2.084,1.431-3.129,0.006c-4.17-3.125-8.341-6.25-12.511-9.375c1.042-1.426,2.083-1.422,3.122,0.006c2.114,0.012,4.229,0.024,6.343,0.037C49.527,63.593,51.598,64.646,53.67,65.701z"/>
<path fill="#1B0F11" d="M41.112,62.5c-1.041,0-2.081-0.003-3.122-0.006l0.004,0.006c-1.028-0.695-1.37-1.389-1.028-2.084c0.34-0.693,0.684-1.041,1.028-1.041l-0.009,0.006c1.045-0.012,2.091-0.027,3.136-0.043C41.118,60.392,41.115,61.447,41.112,62.5z"/>
<path fill="#231215" d="M53.604,62.484c1.037-0.003,2.076-0.012,3.114-0.027c-1.022,1.06-2.043,2.118-3.064,3.18C53.638,64.584,53.621,63.534,53.604,62.484z"/>
<path fill="#241417" d="M37.995,59.375c0,1.041,0,2.084,0,3.125c-1.042,0-2.083,0-3.125,0c-0.001-1.041-0.001-2.084-0.001-3.125C35.91,59.375,36.953,59.375,37.995,59.375z"/>
<path fill="#2C171A" d="M62.847,21.698c0.079,1.022,0.151,2.047,0.212,3.073c0.455,2.469,0.048,4.672-1.975,6.375c-2.095,1.41-4.433,1.568-6.845,1.352c-1.603-0.32-2.976-1.065-4.12-2.23c-0.953-1.294-1.571-2.738-1.855-4.321c0.284-1.605,1.028-2.963,2.23-4.068c0.005-1.059,0.011-2.118,0.016-3.177c2.11-2.176,4.196-1.794,6.269,0.061l-0.121-0.08C58.3,20.554,61.142,19.959,62.847,21.698z"/>
<path fill="#4A2A30" d="M56.778,18.762c-2.089-0.018-4.18-0.04-6.269-0.058c0.016-1.025,0.032-2.048,0.051-3.073c0.432-0.528,0.865-1.059,1.297-1.587c0.521,0.439,1.044,0.882,1.565,1.325c1.036,0.165,2.07,0.33,3.103,0.5C56.604,16.836,56.689,17.801,56.778,18.762z"/>
<path fill="#3E1E24" d="M44.306,25.11c-1.058-1.086-2.116-2.17-3.175-3.256L41.096,21.9c0.932-1.318,1.912-1.355,2.94-0.11c1.115,0.027,2.231,0.058,3.346,0.088c0.65,0.763,0.943,1.572,0.882,2.433c-0.063,0.888-0.182,1.33-0.357,1.33C46.575,26.352,45.375,26.175,44.306,25.11z"/>
<path fill="#1E1013" d="M47.435,25.019c-0.018-1.047-0.037-2.094-0.053-3.141c1.038-0.003,2.075-0.006,3.112,0c-0.014,0.983-0.039,1.965-0.079,2.951c-0.473,0.391-0.947,0.781-1.42,1.175C48.475,25.674,47.955,25.348,47.435,25.019z"/>
<path fill="#1F0F13" d="M44.036,21.79c-0.979,0.04-1.959,0.076-2.939,0.11c0.008-1.05,0.015-2.1,0.023-3.149C42.092,19.763,43.063,20.776,44.036,21.79z"/>
<path fill="#46262C" d="M46.553,15.567c1.271-1.013,2.542-2.029,3.813-3.045c1.114,0.662,1.5,1.346,1.161,2.057c-0.343,0.724-0.694,1.083-1.054,1.083l0.087-0.031C49.225,15.61,47.89,15.588,46.553,15.567z"/>
<path fill="#381A1F" d="M41.075,28.131c1.071-0.021,2.144-0.04,3.215-0.061c0.926-1.102,2.107-1.603,3.543-1.499c2.03,0.015,4.106-0.144,5.676,1.55l0.104,0.018c1.033,1.157,1.377,2.502,1.134,4.028c-1.486,1.932-3.53,2.408-5.819,2.191c-2.173,0.253-4.348-0.192-6.516-0.141c-1.479-0.29-2.561-1.077-3.23-2.429C39.309,30.307,39.938,29.086,41.075,28.131z"/>
<path fill="#1C0E11" d="M41.075,28.131c0.026,1.05,0.052,2.103,0.077,3.156c-1.002,2.64-2.866,2.957-5.225,1.938c-0.319-0.666-0.638-1.331-0.958-1.996c-0.03-1.034-0.067-2.069-0.107-3.104C36.933,28.125,39.005,28.128,41.075,28.131z"/>
<path fill="#241417" d="M47.423,28.131c-1.045-0.018-2.09-0.04-3.132-0.061c-0.005-0.989-0.001-1.978,0.014-2.963c1.043-0.028,2.086-0.058,3.129-0.088c0.001,0-0.099-0.11-0.099-0.11c0.744,0.519,1.485,1.035,2.228,1.554C48.85,27.017,48.136,27.576,47.423,28.131z"/>
<path fill="#2B161A" d="M31.096,34.5c0.163-1.013,0.307-2.032,0.429-3.052c1.146-0.073,2.295-0.146,3.444-0.22l-0.091-0.021c0.917,0.699,1.35,1.508,1.298,2.423c-0.055,0.97-0.201,1.456-0.441,1.456c-1.482,0.757-2.788,0.571-3.89-0.72L31.096,34.5z"/>
<path fill="#2A1419" d="M72.286,62.488c-2.051,1.095-4.104,2.188-6.154,3.283c-0.424,0.507-0.85,1.014-1.274,1.52c-1.42,0.184-2.472-0.329-3.093-1.647c-0.396-1.956-0.374-3.922-0.098-5.89c1.011-1.828,3.157-2.246,4.517-3.642l-0.229,0.138c2.041-1.742,4.134-1.938,6.289-0.207c0.062,1.126,0.121,2.255,0.184,3.384C72.38,60.446,72.333,61.469,72.286,62.488z"/>
<path fill="#35191F" d="M72.248,53.106c2.151-0.946,4.303-1.892,6.454-2.838c-0.044,0.897-0.087,1.788-0.125,2.68C76.467,53,74.356,53.052,72.248,53.106z"/>
<path fill="#3F2429" d="M72.244,56.043c-2.096,0.066-4.191,0.137-6.288,0.207c2.148-1.09,4.299-2.176,6.448-3.266C72.357,54.001,72.304,55.023,72.244,56.043z"/>
<path fill="#35191F" d="M75.529,68.668c0.043-2.033,0.084-4.063,0.127-6.095c0.99-0.046,1.979-0.092,2.968-0.134C77.593,64.514,76.561,66.59,75.529,68.668z"/>
<path fill="#1E1013" d="M50.501,71.869c1.044-0.003,2.086-0.003,3.129-0.006l-0.018-0.007c4.346,4.129,1.622,8.308,0.084,12.476c-1.07,0.013-2.14,0.024-3.209,0.037c-0.003-2.091-0.007-4.182-0.01-6.271c-0.941-0.689-1.253-1.373-0.935-2.054c0.313-0.681,0.63-1.022,0.947-1.022C50.493,73.972,50.496,72.919,50.501,71.869z"/>
<path fill="#2A1317" d="M50.49,75.022c-0.003,1.025-0.006,2.051-0.013,3.076c-1.039-1.041-2.076-2.078-3.114-3.119C48.405,74.994,49.448,75.009,50.49,75.022z"/>
<path fill="#2E161B" d="M22.367,65.609c0.001-1.04,0.004-2.081,0.009-3.125c2.081,0.004,4.162,0.01,6.244,0.016c-0.004,1.041-0.011,2.084-0.017,3.125C26.523,65.619,24.445,65.616,22.367,65.609z"/>
<path fill="#402026" d="M59.928,28.067c1.044-1.099,2.087-2.194,3.131-3.292c1.033,0.104,2.066,0.201,3.101,0.287c0.002,0.003-0.117-0.11-0.117-0.11c1.468,1.135,1.767,2.521,0.897,4.16c-0.897,1.492-2.215,2.252-3.954,2.28c-0.725-0.357-1.448-0.714-2.171-1.071C60.518,29.568,60.222,28.818,59.928,28.067z"/>
<path fill="#3E1E24" d="M62.847,21.698c-2.062-1.004-4.124-2.011-6.188-3.016C58.721,19.687,60.783,20.694,62.847,21.698z"/>
<path fill="#271518" d="M65.967,28.009c0.024-1.019,0.051-2.038,0.075-3.058c1.103,0.019,2.206,0.04,3.311,0.058c0.002,0-0.137-0.122-0.137-0.122c0.929,0.564,1.281,1.187,1.061,1.868c-0.232,0.708-0.487,1.062-0.768,1.062c2.007,1.153,4.015,2.31,6.021,3.463c0.723,0.534,1.445,1.065,2.167,1.6c-0.737,0.513-1.476,1.022-2.212,1.535l0.044-0.049c-1.69,1.703-3.399,3.381-5.734,4.211c-1.619,0.214-3.189,0.024-4.712-0.57c-1.324-0.998-2.202-2.298-2.635-3.9C62.641,31.506,64.287,29.749,65.967,28.009z"/>
<path fill="#150A0D" d="M75.484,34.415c0.014-1.046,0.028-2.09,0.044-3.134c2.094-0.021,4.187-0.042,6.28-0.067c-0.019,1.053-0.039,2.109-0.06,3.162c-1.034,0.015-2.065,0.049-3.098,0.107C77.596,34.463,76.54,34.439,75.484,34.415z"/>
<path fill="#3E1E24" d="M69.509,27.817c-0.105-0.977-0.203-1.95-0.293-2.93c1.05,0.042,2.1,0.085,3.149,0.128C71.413,25.949,70.461,26.883,69.509,27.817z"/>
<path fill="#2B1519" d="M66.116,78.137c-1.031,1.051-2.064,2.097-3.096,3.146c-2.08-1.01-4.159-2.023-6.239-3.033c-2.504-2.719,0.277-4.346,1.307-6.335c0.392-1.188,0.993-2.256,1.838-3.181l-0.055,0.019c0.667-1.232,1.697-1.639,3.04-1.333c1.907,0.882,2.127,2.981,3.21,4.458C66.119,73.966,66.118,76.053,66.116,78.137z"/>
<path fill="#35191F" d="M66.132,65.772c2.056,0.971,4.109,1.938,6.163,2.908c-2.066,0.016-4.132,0.03-6.196,0.049c-0.502-0.521-1.005-1.044-1.507-1.565c0.51-0.513,1.021-1.025,1.531-1.538L66.132,65.772z"/>
<path fill="#35191F" d="M66.121,71.878c-1.041-1.04-2.083-2.081-3.123-3.122c1.037-1.434,2.076-1.438,3.12-0.006l-0.02-0.021C66.105,69.778,66.113,70.828,66.121,71.878z"/>
<path fill="#2F161A" d="M59.828,71.731c-1.016,2.17-2.032,4.343-3.047,6.516c0.003,2.054,0.006,4.104,0.011,6.155c-1.033-0.021-2.066-0.046-3.098-0.07c-0.027-4.159-0.055-8.315-0.082-12.473c1.115-0.063,2.229-0.125,3.345-0.186C57.937,70.548,58.894,70.565,59.828,71.731z"/>
<path fill="#291418" d="M56.705,49.96c0.024-1.064,0.049-2.127,0.074-3.192c2.033-0.986,4.063-1.971,6.097-2.954c2.176-2.801,4.343-2.801,6.501,0.019c-0.041,1.013-0.087,2.026-0.133,3.04c-1.157,0.931-2.105,2.075-3.152,3.119c-1.013,0.039-2.024,0.085-3.036,0.144c-2.087,1.019-4.175,2.035-6.263,3.055C56.765,52.111,56.735,51.037,56.705,49.96z"/>
<path fill="#30171C" d="M69.377,43.833c-2.165-0.006-4.332-0.015-6.5-0.021c-0.001,0.003,0.101-0.107,0.101-0.107c-0.489-0.403-0.979-0.803-1.469-1.205c0.004-1.282,0.274-2.503,0.851-3.653c1.269-1.782,3.335-1.507,5.112-1.983c1.19-0.5,2.429-0.772,3.72-0.818c1.293,0.396,2.175,1.23,2.65,2.493c-0.028,1.837,0.591,3.891-1.678,4.971C71.234,43.601,70.305,43.71,69.377,43.833z"/>
<path fill="#1B0E11" d="M72.164,43.509c0.053-1.993,0.104-3.985,0.156-5.979c1.008-1.468,2.042-1.486,3.103-0.058c0.046,2.066,0.093,4.132,0.141,6.195C74.431,43.616,73.297,43.561,72.164,43.509z"/>
<path fill="#1B0E11" d="M66.092,49.991c1.05-1.041,2.102-2.082,3.152-3.119C68.193,47.909,67.142,48.95,66.092,49.991z"/>
<path fill="#3B2025" d="M66.184,56.112c-1.062,1.093-2.124,2.186-3.188,3.281c-0.938-0.705-1.229-1.374-0.87-2.009c0.349-0.619,0.688-0.928,1.025-0.928c0,0-0.237-0.427-0.239-0.427C64.002,56.055,65.093,56.082,66.184,56.112z"/>
<path fill="#150A0D" d="M75.423,37.473c-1.033,0.015-2.064,0.033-3.099,0.055c-1.044-0.003-2.083-0.009-3.124-0.009c-0.981-0.696-1.309-1.395-0.984-2.094c0.325-0.699,0.652-1.05,0.979-1.05c2.11-0.003,4.22-0.006,6.33-0.009C75.501,35.4,75.466,36.438,75.423,37.473z"/>
<path fill="#180D0F" d="M50.474,15.662c-0.035-1.047-0.069-2.093-0.105-3.14c1.058,0.015,2.116,0.03,3.174,0.046c-0.01,0.939-0.046,1.874-0.116,2.804C52.443,15.491,51.459,15.588,50.474,15.662z"/>
<path fill="#381A1F" d="M31.845,34.366c1.012,0.024,2.023,0.046,3.035,0.058c0.923,0.613,1.228,1.224,0.918,1.834c-0.308,0.607-0.618,0.91-0.929,0.91c-1.032,0.119-2.064,0.22-3.096,0.308C31.773,36.438,31.796,35.4,31.845,34.366z"/>
<path fill="#31171C" d="M63.151,56.457c-0.061,0.977-0.112,1.957-0.155,2.937c-0.002,2.075-0.003,4.15-0.005,6.226c-1.039,1.434-2.079,1.434-3.12,0C60.965,62.565,62.058,59.51,63.151,56.457z"/>
<path fill="#150A0D" d="M59.871,65.619c1.041,0.003,2.083,0.006,3.122,0.003c1.042-0.003,2.084,0,3.128,0.003c0,1.041,0,2.084-0.002,3.125c-0.001,0-1.563-0.003-1.563-0.003s-1.563,0.003-1.561,0.006c-1.042,0-2.084,0-3.127-0.003C59.871,67.706,59.871,66.662,59.871,65.619z"/>
<path fill="#150A0D" d="M59.828,71.731c-0.959,0.003-1.918-0.015-2.874-0.055c0.993-0.982,1.981-1.962,2.972-2.942C59.888,69.732,59.855,70.731,59.828,71.731z"/>
<path fill="#381A1F" d="M34.87,37.168c0.001-0.916,0.006-1.831,0.011-2.747c-0.001-1.068-0.001-2.14-0.003-3.214c2.092,0.024,4.182,0.052,6.274,0.077c0,0.003-0.116-0.077-0.116-0.077c1.347,1.413,3.419,1.642,4.831,2.954c0.052,1.34-0.427,2.43-1.518,3.232c-2.11,0.028-4.219,0.058-6.33,0.085C36.971,37.375,35.919,37.271,34.87,37.168z"/>
<path fill="#2C161A" d="M59.892,40.473c-1.055-0.995-2.11-1.99-3.166-2.985c-1.366-1.154-1.771-2.579-1.217-4.275c1.198-1.175,2.637-1.773,4.317-1.792c2.58-0.037,4.587,1.163,6.315,2.951l-0.026-0.012c1.06,0.769,1.426,1.81,1.195,3.082c-1.03,1.608-3.017,1.917-4.307,3.174l-0.015,0.012C61.882,42.099,60.85,42.047,59.892,40.473z"/>
<path fill="#271518" d="M47.354,31.274c2.095-0.067,4.19-0.134,6.285-0.205c0.565,0.119,1.132,0.235,1.698,0.351c0.581,1.077,0.557,2.146-0.07,3.198c-0.198,1.166-0.751,2.127-1.657,2.89l-0.054,0.012c-0.886,1.107-1.791,1.071-2.713,0.042c-1.158-0.021-2.317-0.042-3.476-0.064c-0.971-0.842-1.535-1.892-1.634-3.18C45.712,33.005,46.222,31.977,47.354,31.274z"/>
<path fill="#160B0E" d="M37.981,43.784c-0.026-1.068-0.052-2.136-0.078-3.208c2.141,1.077,4.281,2.158,6.422,3.235C42.21,43.802,40.096,43.793,37.981,43.784z"/>
<path fill="#150A0D" d="M59.892,40.473c1.031,0.073,2.064,0.125,3.098,0.155c-0.014,1.025-0.017,2.051-0.011,3.076c-2.095,0.052-4.19,0.104-6.285,0.159C57.76,42.734,58.826,41.605,59.892,40.473z"/>
<path fill="#46262C" d="M47.286,34.714c0.015,0.928,0.043,1.858,0.083,2.786c-1.01,0.003-2.019-0.03-3.023-0.104c0.023-0.864,0.047-1.728,0.075-2.588c0.457-0.666,0.913-1.334,1.367-1.999C46.288,33.444,46.787,34.079,47.286,34.714z"/>
<path fill="#44242A" d="M50.844,37.564c0.905,0,1.81-0.015,2.713-0.042l-1.354,0.101L50.844,37.564z"/>
<path fill="#381A1F" d="M53.61,37.509c0.014-1.025,0.019-2.051,0.017-3.076c1.021-1.389,2.051-1.468,3.095-0.028c0.013,1.029,0.014,2.057,0.006,3.083C55.687,37.491,54.649,37.497,53.61,37.509z"/>
<path fill="#381A1F" d="M53.64,31.07c-0.011-0.977-0.019-1.953-0.026-2.93c2.104-0.024,4.209-0.049,6.313-0.073c0.002,0-0.052-0.042-0.052-0.042c1.003,0.763,1.587,1.767,1.75,3.015c-0.773,0.998-1.772,1.596-3.036,1.736c-1.815,0.012-3.676,0.177-4.97-1.514L53.64,31.07z"/>
<path fill="#3E1E24" d="M47.423,28.131c-0.029-1.074-0.058-2.145-0.088-3.223c1.029-0.003,2.055-0.027,3.083-0.076c1.031,1.096,2.064,2.191,3.095,3.29C51.48,28.125,49.452,28.128,47.423,28.131z"/>
<path fill="#211014" d="M47.286,34.714l-1.434-0.003c0,0-1.433,0.088-1.433,0.094c-1.126-1.196-2.253-2.396-3.383-3.598c2.106,0.021,4.213,0.046,6.319,0.067C47.331,32.422,47.309,33.566,47.286,34.714z"/>
<path fill="#35191E" d="M66.142,34.372c-2.11,0-4.221-0.003-6.331-0.006c-0.709-0.537-1.417-1.074-2.127-1.611c0.73-0.506,1.463-1.01,2.194-1.517l-0.043,0.058c0.829-1.288,2.066-2.167,3.173-3.177c0.988-0.028,1.978-0.062,2.963-0.107C66.025,30.13,66.085,32.251,66.142,34.372z"/>
<path fill="#241417" d="M63.009,28.119c-1.058,1.056-2.115,2.115-3.173,3.174c0.013-1.087,0.026-2.176,0.038-3.269C60.92,28.055,61.963,28.085,63.009,28.119z"/>
<path fill="#381A1F" d="M66.153,37.378c-0.016-1.004-0.027-2.011-0.037-3.018c1.028,0.012,2.056,0.015,3.081,0.015c0.002,1.047,0.003,2.094,0.005,3.144c-0.002,0,0.183-0.092,0.183-0.092C68.288,38.764,67.211,38.748,66.153,37.378z"/>
<path fill="#150A0D" d="M66.153,37.378c1.075,0.019,2.153,0.034,3.23,0.049c-2.126,1.062-4.253,2.127-6.379,3.189C64.054,39.539,65.103,38.458,66.153,37.378z"/>
<path fill="#1E1013" d="M59.879,31.238c-0.02,1.043-0.041,2.087-0.064,3.128c-1.031,0.003-2.062,0.015-3.091,0.04c-0.002,0-1.549-0.003-1.549-0.003s-1.549,0.024-1.548,0.027c-0.003-1.056-0.006-2.111-0.009-3.17C55.705,31.253,57.791,31.244,59.879,31.238z"/>
</svg>