<?xml version="1.0" encoding="utf-8"?>
<!DOCTYPE svg PUBLIC "-//W3C//DTD SVG 1.1//EN" "http://www.w3.org/Graphics/SVG/1.1/DTD/svg11.dtd">
<svg version="1.1" xmlns="http://www.w3.org/2000/svg" xmlns:xlink="http://www.w3.org/1999/xlink" x="0px" y="0px" width="100px" height="100px" viewBox="0 0 100 100" enable-background="new 0 0 100 100" xml:space="preserve">
<path fill="#4B2E13" d="M65.944,88.865c-1.034,0.256-2.067,0.513-3.102,0.769c-1.027-0.787-1.725-1.8-2.097-3.021c-0.299-1.435,0.291-2.835,0.229-4.178c-1.292-0.388-0.427,0.921-0.942,1.235c-1.022,0.797-2.089,1.188-3.354,1.294c-2.383-0.146-4.203-1.107-5.437-3.144c-2.954-7.217-2.677-14.483-0.518-21.798c1.401-3.138,3.924-4.996,7.049-6.125c1.449-0.372,2.933-0.372,4.394-0.027c3.826,3.845,7.093,8.298,11.681,11.426c1.507,2.667,1.873,5.551,1.714,8.554C75.566,80.912,69.109,83.833,65.944,88.865z"/>
<path fill="#814817" d="M68.236,14.884c1.349,4.172,2.698,8.343,4.047,12.515c3.041,3.372,3.361,7.163,1.741,11.255c-2.086,3.738-5.001,6.058-9.551,5.508c-1.459-0.485-2.548-1.428-3.25-2.786c-0.345-1.376-0.347-2.783-0.024-4.163c1.904-2.737,2.678-5.716,1.588-9.039c-0.24-1.328-0.335-2.652-0.377-3.992c-0.055-1.364,0.034-2.716,0.203-4.065c0.32-2.054,0.924-3.995,2.238-5.652C66.104,13.569,67.235,13.712,68.236,14.884z"/>
<path fill="#2B1305" d="M65.944,88.865c2.083-4.986,4.167-9.974,6.25-14.963c2.915-2.097,4.747-0.095,6.629,1.739c0.646,1.169,0.769,2.411,0.448,3.702c-0.931,1.733-2.693,2.688-3.925,4.147C72.213,85.282,69.079,87.074,65.944,88.865z"/>
<path fill="#200C03" d="M78.324,80.008c0.035-0.982,0.068-1.965,0.098-2.948c-0.23-3.448-0.992-6.866-0.593-10.357c0.182-2.893,0.67-5.694,2.422-8.114c1.166-1.08,2.44-1.221,3.817-0.437c-0.78,7.318-1.562,14.636-2.343,21.957c-0.58,0.406-1.16,0.813-1.738,1.224C79.431,80.893,78.878,80.451,78.324,80.008z"/>
<path fill="#4E1708" d="M72.075,39.173c0.069-3.925,0.138-7.849,0.206-11.774c1.091,0.275,2.179,0.546,3.269,0.821c1.053-0.094,1.689,0.373,1.909,1.407c1.473,0.812,2.943,1.624,4.416,2.438c0.478,1.279,0.698,2.597,0.621,3.967c-1.95,3.351-5.023,4.401-8.688,4.242C73.23,39.912,72.654,39.542,72.075,39.173z"/>
<path fill="#2B0904" d="M50.235,95.121c-3.076-1.099-6.152-2.197-9.228-3.296c-0.841-2.087,0.021-3.833,1.086-5.554c1.975-2.688,3.151-6.269,7.263-6.619c3.235,2.426,3.632,5.999,3.92,9.631C53.002,91.615,51.886,93.509,50.235,95.121z"/>
<path fill="#251A0B" d="M68.236,14.884c-0.66-0.232-1.341-0.327-2.042-0.278c-1.646,1.123-1.938,2.854-2.081,4.657c-0.326,1.242-1.094,2.072-2.303,2.502c-1.278,0.009-2.337-0.482-3.208-1.404c-0.503-1.27-0.156-2.283,0.926-3.073c1.257-3.037,2.515-6.073,3.771-9.109c1.879-1.712,3.9-2.066,6.111-0.644c0.865,1.428,0.716,2.777-0.313,4.059C68.811,12.69,68.524,13.789,68.236,14.884z"/>
<path fill="#2E200C" d="M59.528,17.289c0.061,1.138,0.122,2.277,0.185,3.415c1.567,1.596,2.419,3.485,2.352,5.752c-0.233,1.44-0.763,2.756-1.616,3.943c-1.199,0.848-2.537,1.297-4.007,1.358c-1.438-0.269-2.716-0.876-3.811-1.861c-1.884-2.518-2.07-5.265-1.094-8.17c1.025-2.096,3.055-2.819,5.021-3.631C57.529,17.756,58.518,17.487,59.528,17.289z"/>
<path fill="#773E11" d="M28.353,27.39c5.036-2.649,10.071-5.301,15.106-7.953c1.195,0.696,1.803,1.751,1.91,3.116c-0.273,2.045-1.352,3.635-2.803,5.023c-1.003,0.845-2.095,1.563-3.252,2.182c-1.743,0.943-3.56,1.706-5.495,2.182c-2.042,0.308-3.964,0.015-5.707-1.163C27.222,29.582,27.303,28.452,28.353,27.39z"/>
<path fill="#4B2308" d="M16.385,73.804c-0.001-6.271-0.003-12.543-0.003-18.813c1.709-0.824,3.114-0.461,4.224,1.08c2.885,5.545,2.89,11.096,0.026,16.653C19.52,74.262,18.101,74.619,16.385,73.804z"/>
<path fill="#5C300F" d="M44.117,23.237c-0.22-1.267-0.438-2.533-0.658-3.799c4.366-0.445,8.731-0.894,13.098-1.343c-1.321,0.934-2.645,1.871-3.966,2.805c-1.541,1.81-3.133,3.549-5.643,3.992C45.687,24.891,44.742,24.335,44.117,23.237z"/>
<path fill="#4A2108" d="M28.353,85.685c-2.034-1.065-4.068-2.127-6.102-3.192c-1.199-2.475-0.503-4.794,0.574-7.093c0.673-1.099,1.57-1.962,2.678-2.618c1.298-0.22,2.516-0.012,3.651,0.681c0.818,1.02,1.41,2.157,1.766,3.418c0.394,1.95,0.34,3.885-0.18,5.805C30.217,83.9,29.418,84.897,28.353,85.685z"/>
<path fill="#2E1605" d="M62.731,86.268c0.036,1.123,0.074,2.242,0.111,3.365c-3.168,1.825-6.336,3.65-9.505,5.473c-1.027-0.815-1.537-1.865-1.449-3.187c0.065-1.267,0.418-2.444,1.092-3.524c1.865-1.819,4.396-2.271,6.675-3.247C60.973,84.717,61.985,85.129,62.731,86.268z"/>
<path fill="#4B2709" d="M28.353,85.685c0.019-0.903,0.046-1.804,0.087-2.707c1.651-1.603,3.609-1.95,5.791-1.426c2.054,0.834,3.534,2.271,4.5,4.255c0.334,1.455-0.023,2.725-1.065,3.796C34.562,88.297,31.458,86.991,28.353,85.685z"/>
<path fill="#31240E" d="M68.976,8.137c-1.893,0.016-3.784,0.028-5.677,0.043c2.764-1.022,5.528-2.042,8.292-3.064C71.132,6.48,70.261,7.487,68.976,8.137z"/>
<path fill="#240D04" d="M84.068,58.152c-0.788,0.003-1.577,0.006-2.366,0.013c-1.913-1.273-2.561-3.162-2.628-5.341c0.153-1.397,0.615-2.688,1.372-3.876c1.174-0.939,2.392-1.044,3.654-0.174C84.089,51.899,84.079,55.027,84.068,58.152z"/>
<path fill="#311205" d="M84.1,48.774c-0.85,0.003-1.698,0.009-2.548,0.021c-2.591-2.026-2.796-4.718-2.14-7.654c0.561-1.346,1.497-2.326,2.858-2.878c0.598,0.373,1.197,0.745,1.797,1.117C84.079,42.512,84.089,45.643,84.1,48.774z"/>
<path fill="#501A08" d="M18.599,32.029c2.092-1.01,4.183-2.023,6.274-3.033c1.177,0.961,1.763,2.188,1.674,3.723c-0.745,2.188-2.215,3.699-4.323,4.605c-1.486,0.198-2.823-0.171-4.004-1.096C17.873,34.788,18.023,33.39,18.599,32.029z"/>
<path fill="#391106" d="M16.367,48.765c0.01-3.128,0.021-6.256,0.032-9.384c0.564-0.385,1.129-0.766,1.695-1.151c0.612,0.305,1.224,0.61,1.839,0.916c1.234,1.755,1.666,3.723,1.555,5.835c-0.226,1.361-0.74,2.613-1.523,3.75C18.779,49.644,17.577,49.613,16.367,48.765z"/>
<path fill="#5A2E12" d="M25.167,76.816c-0.972,1.893-1.944,3.784-2.916,5.677c-1.112-0.757-2.225-1.511-3.337-2.265c-0.829-0.869-1.118-1.752-0.87-2.646c0.25-0.9,0.508-1.353,0.773-1.349C21.064,74.995,23.197,75.028,25.167,76.816z"/>
<path fill="#3D1A0E" d="M37.665,89.603c0.037-1.099,0.075-2.197,0.111-3.296c1.089-0.974,2.356-1.486,3.829-1.468c2.191,0.772,3.828,1.834,2.383,4.522c-0.993,0.821-1.988,1.643-2.981,2.463C39.893,91.083,38.779,90.345,37.665,89.603z"/>
<path fill="#793A0E" d="M25.165,33.161c-0.098-1.389-0.194-2.78-0.292-4.168c1.16-0.531,2.319-1.065,3.479-1.603c0.005,0.876,0.008,1.752,0.011,2.628c0.793,0.656,1.128,1.373,1.002,2.154c-0.131,0.815-0.308,1.221-0.531,1.221C27.57,34.006,26.343,33.964,25.165,33.161z"/>
<path fill="#1B1107" d="M68.976,8.137c0.871-1.007,1.744-2.014,2.615-3.021c-0.832,2.161-1.662,4.318-2.493,6.479C69.057,10.441,69.017,9.291,68.976,8.137z"/>
<path fill="#290C05" d="M84.068,39.381c-0.839-0.003-1.678-0.009-2.518-0.021c-0.81-0.668-1.097-1.358-0.863-2.066c0.238-0.717,0.485-1.078,0.745-1.078c0.146-1.385,0.293-2.768,0.44-4.153C82.605,34.504,83.337,36.942,84.068,39.381z"/>
<path fill="#340A06" d="M18.831,39.326c-0.81,0.031-1.62,0.049-2.432,0.055c0.734-2.451,1.468-4.901,2.2-7.352c0.144,1.401,0.287,2.805,0.429,4.206c0.753,0.735,0.977,1.44,0.667,2.112C19.395,38.996,19.106,39.326,18.831,39.326z"/>
<path fill="#3A1306" d="M16.367,48.765c0.767,0,1.535-0.004,2.301-0.01c1.855,2.045,1.855,4.096,0.019,6.149c-0.768,0.055-1.535,0.086-2.304,0.086C16.376,52.916,16.372,50.84,16.367,48.765z"/>
<path fill="#380D06" d="M19.335,76.666c-0.141,1.188-0.281,2.375-0.421,3.562c-0.844-2.143-1.686-4.284-2.528-6.424c0.83-0.006,1.662,0,2.492,0.016c0.74,0.53,1.053,1.129,0.943,1.797C19.704,76.316,19.543,76.666,19.335,76.666z"/>
<path fill="#250904" d="M53.305,89.448c0.011,1.886,0.021,3.771,0.032,5.658c-1.033,0.006-2.067,0.012-3.103,0.015c0-1.91-0.001-3.823-0.001-5.734C51.279,88.333,52.303,88.355,53.305,89.448z"/>
<path fill="#BC6C26" d="M77.459,29.627c-0.64-0.473-1.28-0.946-1.915-1.413C76.648,28.031,77.285,28.501,77.459,29.627z"/>
<path fill="#200803" d="M75.346,83.491c0.993-1.163,1.985-2.322,2.978-3.482l0.052,0.034c0.732,0.546,0.971,1.086,0.717,1.62c-0.252,0.528-0.502,0.793-0.752,0.793C77.342,82.801,76.344,83.146,75.346,83.491z"/>
<path fill="#220C08" d="M78.34,82.456c0.001-0.806,0.012-1.611,0.033-2.417c1.117,0.024,2.234,0.046,3.352,0.07C80.597,80.89,79.468,81.671,78.34,82.456z"/>
<path fill="#321106" d="M53.305,89.448c-1.023-0.037-2.048-0.059-3.071-0.062c-0.902-3.149-1.804-6.299-2.704-9.445c-0.604-0.454-1.208-0.912-1.82-1.363c-2.637-4.19-2.273-8.661-1.268-13.202c1.045-3.595,2.171-7.166,4.596-10.141c1.231-0.943,2.61-1.233,4.121-0.879c0.818,0.771,1.147,1.599,0.984,2.469c-0.168,0.896-0.374,1.346-0.615,1.346c-0.046,8.319-0.092,16.641-0.137,24.96c1.824,2.072,1.813,4.145,0.012,6.223L53.305,89.448z"/>
<path fill="#5B4329" d="M72.071,64.334c-2.229,0.824-4.459,1.646-7.947,2.933c-0.616-4.895-1.089-8.654-1.563-12.414c-0.792-1.44-0.615-2.747,0.532-3.928c4.201-1.847,7.339-0.152,10.052,2.997c0.784,1.337,1.268,2.78,1.484,4.315C74.659,60.636,74.003,62.754,72.071,64.334z"/>
<path fill="#2D1205" d="M62.836,51.975c-0.079,0.961-0.169,1.92-0.272,2.878c-0.974,0.079-1.945,0.109-2.921,0.092c-2.617,0.052-4.821-1.081-6.955-2.43c-0.572-1.159-0.736-2.383-0.562-3.659c0.672-1.843,1.874-3.277,3.417-4.452c2.182-1.404,4.548-2.09,7.16-1.779c3.125-1.15,6.249-2.298,9.374-3.448c-0.002-0.003,0.011,0.464,0.011,0.464c1.103,0.955,1.634,2.164,1.601,3.623c-0.467,2.172-1.747,3.759-3.562,4.961C67.72,49.515,64.783,49.775,62.836,51.975z"/>
<path fill="#40250C" d="M72.071,64.334c0.035-2.06,0.071-4.123,0.106-6.183c0.971-1.071,2.111-1.303,3.427-0.708c3.257,2.552,2.281,7.522,5.71,9.979c-0.964,3.213-1.929,6.424-2.893,9.634c-2.075-1.05-4.152-2.103-6.228-3.155C72.153,70.713,72.112,67.524,72.071,64.334z"/>
<path fill="#4A290D" d="M53.452,52.018c2.063,0.977,4.128,1.953,6.19,2.93c-2.038,1.074-4.078,2.148-6.117,3.223c-0.071-1.063-0.145-2.124-0.218-3.187c-0.765-0.698-0.997-1.37-0.701-2.014C52.898,52.335,53.178,52.018,53.452,52.018z"/>
<path fill="#4A290D" d="M53.403,89.353c-0.005-2.075-0.008-4.147-0.012-6.223c2.068,0.003,4.138,0.006,6.207,0.009c0.971,0.693,1.295,1.386,0.977,2.082c-0.32,0.698-0.641,1.047-0.966,1.047C57.542,87.296,55.472,88.325,53.403,89.353z"/>
<path fill="#4A290D" d="M59.612,80.027c0.217-2.265,0.434-4.529,0.649-6.793c0.604,0,1.211,0,1.816,0c0.214,2.268,0.427,4.534,0.641,6.802C61.677,81.443,60.642,81.507,59.612,80.027z"/>
<path fill="#341D07" d="M59.612,80.027c1.036-0.016,2.072-0.013,3.108,0.009c0.003,2.078,0.006,4.157,0.011,6.232h-1.562h-1.56c-0.003-1.044-0.006-2.085-0.011-3.129C59.607,82.102,59.61,81.064,59.612,80.027z"/>
<path fill="#BC6C26" d="M65.838,26.978c-0.994,3.109-1.989,6.222-2.984,9.332c-0.817,1.083-1.845,1.41-3.112,0.857c-0.89-0.928-1.313-2.035-1.276-3.317c0.612-1.749,2.27-2.896,2.731-4.736c0.13-0.602,0.261-1.2,0.391-1.801c0.393-0.476,0.784-0.949,1.179-1.425C64.052,25.514,65.089,25.84,65.838,26.978z"/>
<path fill="#542409" d="M62.703,42.624c-2.063,1.068-4.125,2.14-6.19,3.208c-0.964,0.894-2.071,1.086-3.303,0.671c-0.732-1.02-1.053-2.151-0.908-3.406c0.526-1.117,1.302-2.026,2.304-2.75c1.521-0.995,3.157-1.743,4.963-2.069c1.245-0.22,2.298,0.144,3.155,1.074C62.717,40.443,62.711,41.535,62.703,42.624z"/>
<path fill="#1E1308" d="M62.72,20.627c1.156-2.008,2.314-4.016,3.473-6.024c-0.211,2.023-0.421,4.047-0.634,6.067C64.597,21.638,63.651,21.668,62.72,20.627z"/>
<path fill="#BD7732" d="M62.723,39.353c-0.987,0.146-1.978,0.275-2.971,0.382c-1.228,0.873-2.49,0.928-3.791,0.171c-0.57-1.337-0.519-2.665,0.069-3.979c1.277-0.907,2.453-0.742,3.544,0.338c1.093,0.012,2.184,0.028,3.278,0.046C62.775,37.324,62.731,38.337,62.723,39.353z"/>
<path fill="#251A0B" d="M65.838,26.978c-1.091-0.199-2.182-0.397-3.272-0.595c-0.645-0.693-0.876-1.401-0.694-2.124c0.185-0.729,0.378-1.096,0.584-1.099c1.201-0.723,2.248-0.546,3.143,0.531C65.677,24.787,65.758,25.883,65.838,26.978z"/>
<path fill="#160D06" d="M65.598,23.691c-0.954,0.052-1.909,0.085-2.864,0.101c-0.913-0.699-1.22-1.398-0.922-2.103c0.298-0.708,0.597-1.059,0.9-1.059l0.008-0.003c0.947,0.009,1.894,0.024,2.841,0.043C65.845,21.674,65.857,22.682,65.598,23.691z"/>
<path fill="#503014" d="M81.314,67.423c-2.035-3.086-4.071-6.174-6.107-9.263c-2.547-6.585-0.501-8.646,6.113-6.207c0.126,2.069,0.252,4.139,0.381,6.211C81.574,61.249,81.444,64.337,81.314,67.423z"/>
<path fill="#361706" d="M72.113,42.509c-0.003-0.958-0.011-1.917-0.025-2.872c3.115-1.139,6.229-2.28,9.345-3.421c0.039,1.05,0.077,2.097,0.117,3.146c0.001-0.003-0.098,0.058-0.098,0.058c-1.704,1.959-2.852,4.605-5.956,4.849C74.109,44.184,72.994,43.571,72.113,42.509z"/>
<path fill="#733810" d="M43.988,89.362c-1.027-1.053-2.054-2.103-3.081-3.155c-1.686-1.501-2.52-3.369-2.454-5.634c0.229-1.431,0.813-2.71,1.693-3.857c3.603-1.733,5.17,0.58,6.537,3.29c0,0,0.839-0.064,0.842-0.064C46.349,83.082,45.168,86.222,43.988,89.362z"/>
<path fill="#1F1307" d="M62.713,20.631c0.008,1.053,0.014,2.105,0.021,3.162c-0.024,0.867-0.08,1.73-0.168,2.591l0.318,0.989c-1.175,1.028-2.257,0.992-3.226-0.287c0.017-2.127,0.034-4.257,0.052-6.381C60.712,20.661,61.712,20.637,62.713,20.631z"/>
<path fill="#BE864F" d="M59.575,36.265c-1.032,0.009-2.065,0.024-3.099,0.037c-3.906,3.546-8.355,4.193-13.24,2.497c-1.4-0.671-2.478-1.712-3.271-3.037c-0.154-1.535,0.324-2.856,1.413-3.949c1.201-0.788,2.509-1.383,3.896-1.779c2.029-0.531,4.106-0.766,6.215-0.613c0.683,0.033,1.369,0.079,2.056,0.122c0.928,0.384,1.878,0.692,2.852,0.928c1.478,0.442,2.539,1.349,3.124,2.792C59.558,34.263,59.577,35.261,59.575,36.265z"/>
<path fill="#AD6A2F" d="M47.031,23.698c1.857-0.937,3.713-1.871,5.563-2.802c0.314,2.884,0.632,5.765,0.949,8.649c0-0.003-0.623,1.157-0.623,1.157c-1.677,0.879-3.443,0.863-5.238,0.525c-1.062-0.632-1.68-1.563-1.858-2.78C45.726,26.743,47.498,25.507,47.031,23.698z"/>
<path fill="#A36228" d="M59.519,33.262c-1.041-0.931-2.082-1.861-3.124-2.792c0.887-0.437,1.822-0.62,2.808-0.549c1.215-1.169,2.39-1.188,3.523,0.116C61.657,31.11,60.588,32.185,59.519,33.262z"/>
<path fill="#BE742B" d="M62.726,30.036c-1.172-0.037-2.343-0.076-3.519-0.113c0.157-0.946,0.31-1.892,0.45-2.841c1.075,0.098,2.151,0.192,3.227,0.287C62.776,28.257,62.723,29.145,62.726,30.036z"/>
<path fill="#BE762F" d="M47.031,23.698c0.556,0.519,1.111,1.038,1.76,1.648c-0.58,0.531-1.133,1.041-1.685,1.547c-0.86,1.031-1.958,1.608-3.294,1.739c-1.322-0.21-2.402-0.839-3.241-1.88c1.181-1.169,2.364-2.341,3.544-3.513C45.069,23.508,46.041,23.664,47.031,23.698z"/>
<path fill="#864614" d="M28.289,33.241c0.026-1.074,0.05-2.148,0.075-3.223c1.946-0.031,3.891-0.061,5.838-0.092c1.051,0.949,1.506,2.115,1.274,3.531c-0.928,1.917-2.376,3.21-4.465,3.742C28.834,36.756,27.331,35.844,28.289,33.241z"/>
<path fill="#C17E3D" d="M40.57,26.752c1.138,0.046,2.277,0.095,3.415,0.144c0.879,0.784,1.202,1.599,0.974,2.447c-0.234,0.864-0.487,1.294-0.757,1.294c-2.117,0.98-4.272,1.257-6.496,0.354c-0.801-0.854-1.054-1.697-0.763-2.53c0.289-0.824,0.571-1.239,0.847-1.239C38.712,27.04,39.64,26.881,40.57,26.752z"/>
<path fill="#BD752E" d="M37.79,27.223c-0.032,0.934-0.049,1.864-0.05,2.798c0.857,0.647,1.236,1.379,1.138,2.197c-0.104,0.864-0.271,1.294-0.505,1.294c-1.351,0.58-2.635,0.458-3.853-0.369c-0.104-1.071-0.209-2.146-0.315-3.217C35.398,29.023,36.594,28.123,37.79,27.223z"/>
<path fill="#794516" d="M19.335,76.666c-0.212-0.939-0.363-1.889-0.457-2.847c-0.064-6.302-0.125-12.607-0.19-18.915c-0.006-2.051-0.011-4.099-0.017-6.149c0.226-1.022,0.453-2.045,0.681-3.067c2.164-1.956,4.433-1.779,6.771-0.333c1.104,1.294,1.887,2.762,2.383,4.389c1.155,4.959,0.951,9.985,0.754,15.021c-0.146,3.54-1.721,6.454-3.995,9.058c-0.03,0.998-0.063,1.996-0.096,2.993C23.223,76.767,21.279,76.715,19.335,76.666z"/>
<path fill="#74451D" d="M34.647,83.512c-2.071-0.178-4.14-0.354-6.209-0.531c-0.003-2.048-0.007-4.093-0.012-6.137c2.171-3.938,5.011-6.146,9.645-3.754c1.712,2.026,1.165,4.434,1.126,6.753C38.752,82.392,37.746,84.25,34.647,83.512z"/>
<path fill="#815425" d="M37.651,73.707c-3.075,1.047-6.151,2.094-9.226,3.138c-0.114-0.968-0.189-1.941-0.224-2.918c-1.793-2.087-1.398-4.357-0.559-6.671c2.62-2.499,5.634-2.688,8.882-1.529c1.494,0.791,2.408,2.018,2.748,3.672C39.347,71.061,38.807,72.499,37.651,73.707z"/>
<path fill="#6B3F17" d="M28.442,67.481c-0.08,2.148-0.157,4.294-0.237,6.442c-0.979-0.095-1.959-0.131-2.94-0.104c0-3.135,0-6.271-0.001-9.409c1.038-1.077,2.193-1.278,3.485-0.467C29.577,65.202,29.473,66.382,28.442,67.481z"/>
<path fill="#512D0C" d="M34.647,83.512c1.054-1.145,2.109-2.292,3.163-3.439c0.989-1.468,1.996-1.551,3.024-0.04c0.024,2.061,0.047,4.117,0.072,6.174c-1.042,0.033-2.087,0.067-3.13,0.101C36.733,85.376,35.689,84.446,34.647,83.512z"/>
<path fill="#4B260B" d="M75.267,42.53c2.062-1.038,4.123-2.075,6.185-3.11c0.032,3.125,0.065,6.25,0.099,9.375c-0.074,1.053-0.15,2.105-0.229,3.158c-2.038,2.069-4.077,4.139-6.114,6.207c-0.001,0-1.517-0.009-1.517-0.009s-1.516,0-1.514,0c-0.073-1.022-0.117-2.048-0.128-3.076c-1.578-1.645-1.876-3.622-1.497-5.773C72.098,47.028,73.487,44.642,75.267,42.53z"/>
<path fill="#401607" d="M25.385,48.462c-0.038-0.939-0.126-1.874-0.266-2.804c-2.298-1.73-4.492-3.564-5.974-6.094c0,0-0.311-0.238-0.313-0.238c0.096-1.028,0.162-2.06,0.195-3.091c1.041,0.012,2.08,0.015,3.119,0.006c4.736-1.413,7.667,1.526,10.628,4.41c0.398,1.382,0.467,2.777,0.178,4.193c-0.754,2.081-2.064,3.705-3.989,4.818C27.497,50.092,26.287,49.732,25.385,48.462z"/>
<path fill="#592A0A" d="M31.498,42.487c-3.117-2.081-6.235-4.163-9.351-6.247c1.007-1.025,2.013-2.054,3.018-3.079c1.041,0.024,2.083,0.052,3.125,0.076c1.146,0.931,2.292,1.862,3.438,2.792c1.338-0.955,2.623-0.888,3.857,0.195c1.063,2.136,1.028,4.242-0.191,6.311C34.086,43.467,32.785,43.452,31.498,42.487z"/>
<path fill="#743F16" d="M19.146,39.564c1.991,2.032,3.984,4.062,5.976,6.094c-1.926,0.009-3.852,0.021-5.772,0.03C19.283,43.647,19.214,41.605,19.146,39.564z"/>
<path fill="#7E4013" d="M46.685,80.005c-1.932-1.044-3.864-2.091-5.795-3.134c-1.853-1.865-1.506-4.255-1.567-6.549c-0.027-3.076-1.529-6.257,0.661-9.177c2.055-1.679,4.32-1.901,6.75-0.965c1.506,1.157,1.743,2.536,0.714,4.129C47.193,69.544,46.94,74.775,46.685,80.005z"/>
<path fill="#3F1307" d="M47.447,64.31c-0.241-0.994-0.441-1.995-0.601-3.009c-1.935-2.179-3.076-4.675-3.065-7.642c-0.057-2.148,0.276-4.235,1.047-6.247c0.633-1.291,1.568-2.319,2.778-3.097c2.158-0.702,4.109-0.473,5.708,1.3c1.067,0.073,2.134,0.144,3.198,0.217c-1.069,1.01-2.139,2.017-3.208,3.027c-2.01,1.529-0.935,4.578-2.991,6.086C49.358,58.067,48.403,61.188,47.447,64.31z"/>
<path fill="#220704" d="M50.313,54.945c0.996-2.029,1.994-4.06,2.992-6.089c0.048,1.057,0.097,2.109,0.146,3.162c-0.053,0.988-0.1,1.978-0.144,2.966l-1.499,0.01L50.313,54.945z"/>
<path fill="#503014" d="M72.085,48.887c-0.011,2.063-0.023,4.126-0.035,6.188c-3.072-1.034-6.144-2.069-9.215-3.104c2.017-2.084,4.031-4.169,6.047-6.253C70.173,46.546,71.914,46.924,72.085,48.887z"/>
<path fill="#2F1A06" d="M72.085,48.887c-1.066-1.057-2.134-2.112-3.201-3.168c1.075-1.071,2.152-2.139,3.229-3.21c1.052,0.006,2.103,0.015,3.154,0.021C74.207,44.648,73.146,46.769,72.085,48.887z"/>
<path fill="#BD752E" d="M40.87,36.256c5.203,0.015,10.404,0.03,15.606,0.045c-0.011,0.885-0.038,1.77-0.079,2.655c0.966,0.833,1.225,1.572,0.781,2.215c-0.411,0.595-0.809,0.895-1.198,0.895c-0.871,0.152-1.75,0.256-2.634,0.308c-2.798-0.006-5.403,1.013-8.113,1.532c-4.26-1.034-8.769-1.825-7.983-7.928C38.541,34.968,39.748,35.06,40.87,36.256z"/>
<path fill="#814817" d="M47.075,42.374c2.09,0,4.181,0.003,6.271,0.003c-0.011,1.077-0.021,2.161-0.032,3.241c-2.064,0.003-4.127,0.009-6.191,0.015c-0.732-0.714-0.984-1.435-0.754-2.161C46.599,42.741,46.834,42.374,47.075,42.374z"/>
<path fill="#814817" d="M55.98,42.066c0.141-1.035,0.279-2.069,0.418-3.104c1.117,0.253,2.235,0.51,3.354,0.769C58.495,40.513,57.238,41.288,55.98,42.066z"/>
<path fill="#613712" d="M40.805,70.655c0.028,2.072,0.055,4.145,0.084,6.217c-0.018,1.053-0.037,2.108-0.055,3.161L39.32,80.03l-1.511,0.043c-0.05-2.121-0.104-4.242-0.156-6.366c0.069-1.017,0.128-2.032,0.179-3.046C38.82,69.184,39.812,69.181,40.805,70.655z"/>
<path fill="#A96525" d="M40.87,36.256c-1.12,0.018-2.24,0.037-3.362,0.055c-0.874,1.483-1.917,1.611-3.125,0.381c-0.894-0.189-1.781-0.409-2.656-0.662c0.934-0.961,1.864-1.922,2.795-2.887c1.062-0.006,2.125-0.016,3.19-0.021c1.077-1.325,2.142-1.313,3.194,0.03C40.879,34.187,40.866,35.221,40.87,36.256z"/>
<path fill="#D2A574" d="M47.109,30.012c1.938,0.229,3.877,0.458,5.813,0.687c-1.938,0.815-3.876,1.63-5.812,2.441c-0.911-0.692-1.215-1.388-0.911-2.084C46.5,30.36,46.804,30.012,47.109,30.012z"/>
<path fill="#AC6C32" d="M40.906,33.152c-1.065-0.009-2.129-0.018-3.194-0.03c0.012-1.035,0.023-2.066,0.027-3.101c2.08,0,4.16,0,6.238,0c0.914,0.693,1.219,1.385,0.916,2.081c-0.302,0.693-0.605,1.041-0.911,1.041C42.957,33.146,41.932,33.149,40.906,33.152z"/>
<path fill="#C59261" d="M43.983,33.143c0-1.041,0-2.084-0.002-3.125c-0.001-1.041,0-2.082,0.003-3.125c1.042,0,2.083,0,3.122,0c0.003,1.041,0.003,2.084,0.001,3.122c0,1.041,0,2.084,0.002,3.128C46.067,33.14,45.025,33.143,43.983,33.143z"/>
<path fill="#6F441A" d="M25.385,48.462c0.92,0.086,1.843,0.095,2.767,0.027c3.9,3.195,4.041,7.361,3.065,11.823c-0.575,1.685-1.588,3.055-3.023,4.11c-0.977-0.013-1.955-0.016-2.931-0.013C25.304,59.095,25.344,53.779,25.385,48.462z"/>
<path fill="#855B30" d="M28.194,64.423c0.047-1.05,0.095-2.097,0.141-3.146c2.489-3.909,5.371-6.57,10.158-3.21c1.091,3.259,1.495,6.463-0.849,9.417c-3.068,0-6.137-0.003-9.204-0.003C28.382,66.458,28.299,65.44,28.194,64.423z"/>
<path fill="#643C15" d="M37.644,67.484c-0.067-3.109-0.134-6.216-0.201-9.326c-0.816-1.349-0.687-2.603,0.389-3.76c1.486-0.388,2.783-0.024,3.923,0.983c0.972,2.151,0.928,4.156-0.873,5.898c-0.024,3.125-0.051,6.25-0.077,9.375l-1.488-0.003c0,0-1.489,0.006-1.487,0.006C37.769,69.602,37.706,68.543,37.644,67.484z"/>
<path fill="#825B32" d="M37.692,55.04c-0.081,1.037-0.163,2.078-0.247,3.118c-3.04,1.041-6.074,2.078-9.111,3.119c-0.06-4.26-0.121-8.523-0.183-12.787c1.071-0.9,2.142-1.8,3.213-2.7c0.604,0.226,1.208,0.451,1.817,0.668c2.344,1.242,4.277,2.924,5.604,5.252C39.167,53.058,38.799,54.172,37.692,55.04z"/>
<path fill="#482709" d="M31.498,42.487c1.088-0.027,2.177-0.058,3.267-0.085c2.719-1.043,3.811,0.58,4.557,2.774c-0.032,0.711-0.067,1.422-0.099,2.13c-0.339,0.622-0.682,1.248-1.022,1.87c-3.592,1.469-4.926-1.65-6.926-3.415c0,0,0.094,0.024,0.093,0.024C31.409,44.687,31.453,43.589,31.498,42.487z"/>
<path fill="#793E10" d="M37.874,45.408c-1.038-1.001-2.075-2.002-3.111-3.006c-0.125-1.904-0.25-3.812-0.378-5.713c1.042-0.125,2.084-0.253,3.126-0.378c3.186,2.021,6.375,4.043,9.564,6.064c0.015,1.086,0.03,2.173,0.047,3.262c0-0.003,0.169,0.412,0.169,0.412C43.995,48.158,40.833,48.273,37.874,45.408z"/>
<path fill="#763F14" d="M40.882,61.28c-0.014-2.087-0.026-4.175-0.04-6.265c-0.874-0.837-1.186-1.691-0.932-2.563c0.255-0.886,0.523-1.325,0.799-1.328c2.291-1.074,4.413-1.059,6.221,0.974c-0.026,3.067-0.053,6.137-0.083,9.204C44.858,61.295,42.87,61.286,40.882,61.28z"/>
<path fill="#542409" d="M46.93,52.097c-1.979-0.009-3.958-0.016-5.937-0.024c-1.712-0.485-2.741-1.645-3.252-3.312c0.044-1.116,0.087-2.23,0.131-3.351c3.14,0.211,6.277,0.421,9.418,0.635C47.172,48.066,47.051,50.08,46.93,52.097z"/>
<path fill="#482709" d="M37.741,48.761c1.083,1.103,2.166,2.207,3.25,3.312c-0.063,0.982-0.113,1.962-0.15,2.942c-1.05,0.009-2.098,0.015-3.148,0.024c-0.113-0.897-0.171-1.795-0.172-2.698c-1.602-1.288-1.533-2.478,0.208-3.57L37.741,48.761z"/>
<path fill="#4E2A0A" d="M37.729,48.771c-0.068,1.187-0.136,2.374-0.206,3.567c-2.083-2.191-4.166-4.383-6.248-6.577C33.425,46.766,35.576,47.767,37.729,48.771z"/>
</svg>