<?xml version="1.0" encoding="utf-8"?>
<!DOCTYPE svg PUBLIC "-//W3C//DTD SVG 1.1//EN" "http://www.w3.org/Graphics/SVG/1.1/DTD/svg11.dtd">
<svg version="1.1" xmlns="http://www.w3.org/2000/svg" xmlns:xlink="http://www.w3.org/1999/xlink" x="0px" y="0px" width="100px" height="100px" viewBox="0 0 100 100" enable-background="new 0 0 100 100" xml:space="preserve">
<path fill="#727272" d="M40.415,5.174C42.599,3.117,44.784,1.057,46.967-1c2.083,0,4.167,0,6.25,0c2.186,1.978,4.369,3.955,6.554,5.933c-0.331,0.632-0.66,1.263-0.984,1.901c-3.331,3.244-7.265,4.434-11.837,3.467C44.157,9.382,41.711,8.009,40.415,5.174z"/>
<path fill="#494949" d="M53.296,96.14c-11.558-5.047-23.115-10.098-34.673-15.146c-0.92-1.773-2.87-2.441-4.129-3.852c-0.495-1.202-0.664-2.45-0.521-3.738c0.647-1.943,1.91-3.21,3.975-3.586c3.218,0.342,5.613,2.441,8.32,3.882c1.083,0.513,2.133,1.096,3.188,1.663c2.117,1.047,4.25,2.069,6.421,3.003c2.159,0.858,4.309,1.746,6.447,2.641c2.188,0.896,4.524,1.019,6.861,1.272c1.222,0.454,2.174,1.218,2.866,2.322c1.462,3.046,2.007,6.223,1.486,9.564C53.461,94.825,53.379,95.481,53.296,96.14z"/>
<path fill="#6E6E6E" d="M71.864,11.543c3.348,1.862,6.697,3.723,10.045,5.585c-0.076,0.616-0.152,1.233-0.22,1.846c-0.849,1.654-2.109,2.923-3.662,3.9c-1.402,0.891-2.864,1.721-4.231,2.667c-0.595,0.882-1.227,1.736-1.82,2.618c-0.516,0.931-1.132,1.794-1.784,2.628C69.48,31.522,68.7,32.2,67.963,32.92c-0.11,0.107,0.523,0.4,1.444,0.421c0.011,0.024,0.355,1.547,0.355,1.568c-0.32,1.105-0.949,1.969-1.855,2.658c-1.686,0.745-3.342,0.65-4.989-0.11c-0.996-0.65-1.86-1.438-2.631-2.337c-1.138-1.352-2.189-2.774-3.247-4.193c-1.091-1.395-1.989-2.902-2.487-4.608c-0.3-1.682-0.125-3.308,0.672-4.822c0.514-0.903,1.3-1.501,2.296-1.761c-0.038,0.012,1.271,0.338,1.271,0.338s0.295-1.315,0.246-1.331c-0.437-1.443-0.537-2.847,0.237-4.205c0.591-0.867,1.374-1.477,2.338-1.862c0.922-0.427,1.893-0.674,2.896-0.787c0.974-0.186,1.962-0.256,2.952-0.256c0.976-0.049,1.956-0.067,2.936-0.07C70.396,11.561,71.864,11.543,71.864,11.543z"/>
<path fill="#333333" d="M81.655,81.076c-6.164,3.037-12.329,6.07-18.491,9.106c-0.591-0.375-1.18-0.753-1.773-1.126c-1.62-2.585-1.593-5.246-0.372-7.962c1.553-2.401,4.148-3.442,6.419-4.922c1.172-0.708,2.42-1.239,3.73-1.643c1.342-0.335,2.704-0.497,4.09-0.513c1.399,0.052,2.759,0.314,4.091,0.748c1.303,0.577,2.353,1.468,3.198,2.609C83.026,78.794,82.763,80.036,81.655,81.076z"/>
<path fill="#323232" d="M81.655,81.076c-0.12-1.352-0.242-2.703-0.362-4.056c-3.919-8.13,1.843-10.607,7.629-13.082c1.535-0.235,3.003-0.004,4.4,0.677c0,3.995,0,7.989,0,12.891C89.201,78.767,85.428,79.923,81.655,81.076z"/>
<path fill="#545454" d="M6.863,39.723c-0.972-18.195-0.972-18.195,8.934-19.702c0.034,0.564,0.066,1.129,0.104,1.688c-0.247,1.086-0.615,2.133-1.065,3.14c-0.519,1.59-0.598,3.195-0.121,4.834c0.908,2.912,2.168,5.731,1.932,8.881c-0.569,2.002-1.79,3.479-3.58,4.51C9.742,44.282,8.062,42.445,6.863,39.723z"/>
<path fill="#494949" d="M6.863,39.723c1.901,1.01,3.804,2.017,5.707,3.027c0.542,0.338,1.082,0.677,1.631,1.01c1.318,1.468,2.153,3.187,2.621,5.097c0.208,1.294,0.172,2.582-0.056,3.869c-0.458,1.914-1.226,3.702-2.222,5.398c-1.055,1.679-2.394,3.076-4.12,4.084c-1.305,0.473-2.477,0.237-3.511-0.687C6.896,54.255,6.88,46.988,6.863,39.723z"/>
<path fill="#777777" d="M21.904,14.372c5.076-2.268,10.154-4.538,15.231-6.805c0.534,0.333,1.066,0.668,1.605,0.998c0.592,1.132,0.918,2.332,0.95,3.61c-0.136,1.264-0.542,2.444-1.147,3.562c-1.12,1.532-2.549,2.704-4.248,3.549c-2.242,1.025-4.387,2.273-6.702,3.192c-1.984,0.452-3.836,0.162-5.547-0.967c-0.957-0.979-1.46-2.151-1.521-3.519C20.573,16.627,21.032,15.421,21.904,14.372z"/>
<path fill="#6F6F6F" d="M81.908,17.127c0.978,0.076,1.854,0.418,2.627,1.022c0.896,0.802,1.874,0.921,2.937,0.354c1.959,1.901,3.918,3.805,5.877,5.707c-1.695,1.813-3.245,3.806-5.749,4.624c-1.909,0.485-3.762,0.345-5.548-0.513c-1.046-0.76-1.849-1.728-2.424-2.881c-0.351-1.239-0.372-2.49-0.077-3.742c0.234-1.251,0.711-2.411,1.422-3.473L81.908,17.127z"/>
<path fill="#393939" d="M93.314,45.829c-0.004,3.149-0.009,6.302-0.014,9.451c-0.925,0.974-2.027,1.264-3.32,0.888c-1.774-0.812-3.244-2.017-4.533-3.473c-1.26-1.581-2.121-3.305-1.93-5.404c0.532-1.254,1.356-2.265,2.511-3.003C88.785,43.241,91.271,43.495,93.314,45.829z"/>
<path fill="#2A2A2A" d="M93.314,45.829c-2.95,0.027-5.9,0.058-8.85,0.088c-0.35-0.421-0.699-0.845-1.052-1.267c-0.191-1.107-0.122-2.194,0.224-3.268c0.392-1.053,0.899-2.048,1.482-3.012c0.616-0.961,1.373-1.794,2.24-2.536c0.977-0.613,2.049-0.949,3.193-1.059c1.166,0.171,2.083,0.736,2.713,1.746c0,1.053-0.001,2.103-0.003,3.156c-0.687,1.013-0.687,2.026,0.002,3.04C93.281,43.754,93.297,44.792,93.314,45.829z"/>
<path fill="#808080" d="M40.415,5.174c2.219,1.095,4.437,2.191,6.657,3.287c0.738,0.699,1.053,1.456,0.941,2.264c-0.114,0.839-0.276,1.257-0.482,1.261c-1.079,0.851-2.302,1.358-3.663,1.532c-0.667-0.085-1.335-0.18-2.003-0.269c-0.589-0.32-1.178-0.65-1.767-0.974c-0.688-1.147-1.445-2.255-2.268-3.317l-0.696-1.392C38.229,6.77,39.321,5.97,40.415,5.174z"/>
<path fill="#303030" d="M90.717,36.503c-0.982,0.021-1.965,0.052-2.946,0.095c-0.494-0.385-0.989-0.769-1.488-1.151c-0.99-1.693-1.252-3.506-0.893-5.423c0.515-1.147,1.238-2.148,2.166-3.003c1.932-0.937,3.861-1.874,5.793-2.811c0.455,1.016,0.429,2.023-0.076,3.015C91.155,29.969,93.589,33.967,90.717,36.503z"/>
<path fill="#2E2E2E" d="M90.705,55.223c0.864,0.018,1.729,0.036,2.595,0.058c0.007,3.112,0.014,6.226,0.021,9.335c-0.839,0.019-1.68,0.031-2.519,0.043c-0.501-0.284-1.001-0.57-1.513-0.852c-0.795-0.857-1.451-1.813-1.982-2.859c-0.486-1.077-0.788-2.206-0.942-3.378c0.027-1.212,0.448-2.273,1.243-3.187C88.821,53.998,89.852,54.279,90.705,55.223z"/>
<path fill="#474747" d="M9.361,77.24c-0.806-4.208-1.613-8.419-2.42-12.631c0.562-0.363,1.125-0.724,1.689-1.086c0.592,0.32,1.183,0.638,1.779,0.955c0.83,1.089,1.413,2.298,1.779,3.619c0.264,1.346,0.296,2.701,0.159,4.062c-0.209,1.361-0.664,2.634-1.381,3.812C10.435,76.398,9.898,76.819,9.361,77.24z"/>
<path fill="#252826" d="M59.621,93.109c-2.108,1.011-4.218,2.021-6.325,3.03l-0.047-1.419c-2.579-2.768-1.109-4.709,1.32-6.457c1.322-0.376,2.65-0.412,3.986-0.07c0.551,0.394,1.099,0.797,1.648,1.193C60.717,90.738,60.522,91.981,59.621,93.109z"/>
<path fill="#303030" d="M90.717,36.503c0.852-3.095,1.703-6.186,2.556-9.277c-0.003,3.098-0.004,6.198-0.008,9.295C92.415,36.518,91.567,36.512,90.717,36.503z"/>
<path fill="#434343" d="M15.659,77.112c0.989,1.294,1.976,2.588,2.963,3.882c-3.087-1.251-6.174-2.502-9.262-3.754l0.8-0.646c0.822-0.767,1.785-1.215,2.911-1.297C14.166,75.571,15.04,76.16,15.659,77.112z"/>
<path fill="#5D5D5D" d="M65.758,8.576c2.036,0.989,4.071,1.978,6.105,2.966l-1.068,0.263c-1.062,0.824-2.263,1.178-3.603,1.065c-0.607-0.235-1.213-0.473-1.82-0.708c-0.187-0.623-0.371-1.248-0.556-1.874C65.13,9.718,65.444,9.147,65.758,8.576z"/>
<path fill="#C8EBD8" d="M65.758,8.576c-0.027,0.9-0.021,1.801,0.019,2.698c-0.445,0.476-0.89,0.952-1.337,1.428c-0.639-0.128-1.276-0.256-1.918-0.384c-0.952-0.937-1.546-2.057-1.733-3.388c0.138-1.324,0.646-2.484,1.581-3.445C63.498,6.517,64.629,7.548,65.758,8.576z"/>
<path fill="#303030" d="M93.264,42.716c-0.333-0.714-0.752-1.407-0.938-2.158c-0.05-0.205,0.604-0.583,0.936-0.882C93.264,40.69,93.264,41.703,93.264,42.716z"/>
<path fill="#727272" d="M62.369,5.485c0.364,1.025,0.31,2.029-0.163,3.012c-0.911,0.921-1.928,1.059-3.052,0.415c-0.727-1.041-0.763-2.106-0.113-3.195l0.729-0.784C60.63,5.149,61.496,5.333,62.369,5.485z"/>
<path fill="#616161" d="M21.904,14.372c-0.002,1.135-0.003,2.268-0.005,3.4c-1.043,1.239-2.075,1.229-3.099-0.024C19.834,16.621,20.869,15.498,21.904,14.372z"/>
<path fill="#5B5B5B" d="M18.8,17.747c1.035,0.003,2.068,0.009,3.101,0.024c0.055,1.007,0.103,2.014,0.139,3.021c-0.453,0.33-0.905,0.656-1.358,0.986c-0.554-0.067-1.109-0.141-1.665-0.208c-0.136-0.543-0.269-1.086-0.403-1.633C18.051,19.154,18.112,18.424,18.8,17.747z"/>
<path fill="#007316" d="M15.797,20.021c0.943,0.098,1.883,0.07,2.818-0.083c-0.001,0,0.014,1.211,0.014,1.211c0.78,1.086,0.758,2.124-0.189,3.11c-1.173,0.559-2.316,0.482-3.439-0.146c-0.592-1.27-0.253-2.261,0.882-3.021L15.797,20.021z"/>
<path fill="#434343" d="M9.48,64.622c-0.847,0-1.692-0.004-2.539-0.013c-0.009-1.028-0.019-2.06-0.027-3.088c0.836-0.01,1.674-0.01,2.51,0.003C10.165,62.543,10.183,63.575,9.48,64.622z"/>
<path fill="#6D6D6D" d="M87.472,18.504c-0.98-0.119-1.958-0.235-2.937-0.354C85.569,17.811,86.548,17.93,87.472,18.504z"/>
<path fill="#333333" d="M59.621,93.109c-0.012-1.135-0.026-2.268-0.038-3.402l1.096-1.102l1.443,0.576l1.041,1.001C61.982,91.156,60.802,92.133,59.621,93.109z"/>
<path fill="#656565" d="M59.041,5.717C59.33,6.538,59.496,7.38,59.54,8.25c-0.421,2.515-1.817,4.257-4.153,5.261c-3.258,0.814-6.242,0.656-8.375-2.423c0.008-0.876,0.027-1.755,0.06-2.627C51.063,7.545,55.051,6.629,59.041,5.717z"/>
<path fill="#2B2B2B" d="M56.51,89.408c-1.088,1.772-2.176,3.549-3.263,5.315c-1.053-3.784-2.106-7.562-3.161-11.343c-0.729-0.61-1.056-1.288-0.984-2.042c0.075-0.787,0.212-1.181,0.409-1.181c1.92-1.139,3.545-0.498,5.069,0.82c1.284,1.423,2.173,3.07,2.699,4.911C57.489,87.162,57.251,88.34,56.51,89.408z"/>
<path fill="#414141" d="M18.89,70.911c-1.065,1.041-2.129,2.078-3.194,3.116c-0.934,1.096-2.039,1.309-3.316,0.644c-0.853-1.031-1.257-2.228-1.277-3.564c0.029-0.653,0.06-1.306,0.088-1.962c0.331-1.334,1.096-2.354,2.231-3.113c1.907-0.83,3.879-0.998,5.914-0.616c1.315,0.421,2.434,1.147,3.366,2.167c0.424,1.352,0.266,2.648-0.391,3.896C21.008,72.281,19.866,72.089,18.89,70.911z"/>
<path fill="#3D3D3D" d="M34.453,80.268c-2.13-1.031-4.26-2.063-6.39-3.094c0.328-0.528,0.658-1.054,0.979-1.591c0.949-0.836,1.999-1.517,3.154-2.047c1.21-0.464,2.461-0.696,3.758-0.727c1.34,0.259,2.342,0.982,3.023,2.163c0.35,1.291,0.371,2.585,0.027,3.882C37.881,80.592,36.675,82.074,34.453,80.268z"/>
<path fill="#414141" d="M34.453,80.268c1.048-1.053,2.095-2.103,3.144-3.155c0.948-0.87,2.037-1.114,3.271-0.741c1.712,0.823,2.946,2.108,3.726,3.836c0.085,0.604,0.162,1.208,0.243,1.813c-0.334,0.51-0.671,1.02-1.009,1.529C40.703,82.456,37.578,81.36,34.453,80.268z"/>
<path fill="#525252" d="M18.89,70.911c1.016-0.024,2.032-0.043,3.05-0.052c0.946-1.126,2.091-1.327,3.408-0.729c0.891,1.022,1.431,2.2,1.575,3.556c-0.188,1.352-0.788,2.49-1.796,3.415C23.048,75.037,20.968,72.975,18.89,70.911z"/>
<path fill="#383B39" d="M50.119,80.302c-0.018,1.025-0.03,2.051-0.033,3.079c-1.056,0.073-2.113,0.149-3.169,0.226c-0.421-0.434-0.84-0.866-1.263-1.303c-0.32-1.179-0.456-2.381-0.441-3.604c0.45-1.181,1.245-2.048,2.378-2.606c1.266-0.115,2.371,0.254,3.317,1.105C51.42,78.428,51.194,79.472,50.119,80.302z"/>
<path fill="#333333" d="M12.756,73.987c0.981,0,1.961,0.013,2.94,0.04c0.02,1.028,0.008,2.057-0.035,3.085c-1.104-0.119-2.208-0.238-3.311-0.357c-0.812-0.747-1.021-1.406-0.632-1.978C12.078,74.25,12.423,73.987,12.756,73.987z"/>
<path fill="#3C6C4E" d="M25.126,77.101c0.021-1.09,0.043-2.18,0.064-3.269c1.036-0.687,2.046-0.65,3.032,0.109c0.745,0.986,0.812,1.993,0.093,3.024c0,0-0.248,0.204-0.25,0.204C27.084,77.14,26.106,77.115,25.126,77.101z"/>
<path fill="#484848" d="M46.917,83.606c-1.03-0.021-2.058-0.043-3.088-0.061c0,0.003,0.072-0.244,0.072-0.244c0.98-1.389,1.981-1.472,3.006-0.049L46.917,83.606z"/>
<path fill="#242424" d="M62.369,36.439c2.148,0.024,4.297,0.049,6.445,0.073c0.313,0.464,0.626,0.928,0.946,1.392c0.146,1.138,0.079,2.261-0.139,3.39c-0.222,1.147-0.548,2.258-0.925,3.369c-0.39,1.154-0.951,2.206-1.633,3.214c-0.878,0.937-1.958,1.462-3.225,1.645c-1.235-0.442-2.22-1.196-2.979-2.265c-1.521-3.164-1.555-6.311,0.081-9.445C61.412,37.351,61.89,36.897,62.369,36.439z"/>
<path fill="#19CA5C" d="M56.361,26.719c0.982,1.102,1.967,2.207,2.949,3.308c-0.363,0.507-0.726,1.01-1.085,1.523c-1.069,0.674-2.228,1.12-3.468,1.367c-2.584,0.263-5.01-0.128-7.128-1.764c-0.845-1.004-1.146-2.17-0.984-3.464c0.662-1.105,1.59-1.923,2.738-2.5c1.219-0.369,2.464-0.461,3.729-0.323C54.302,25.291,55.379,25.919,56.361,26.719z"/>
<path fill="#2C2C2C" d="M68.815,36.512c0.093-0.846,0.19-1.691,0.293-2.536c1.395-2.356,3.502-2.53,5.87-1.914c3.978,3.571,7.49,7.086-1.199,8.969c-2.368-0.589-3.908-2.124-4.878-4.303L68.815,36.512z"/>
<path fill="#44845D" d="M81.152,20.963c-0.01,1.001-0.013,2.005-0.011,3.006c-0.651,0.971-1.492,1.728-2.549,2.246c-1.112,0.354-2.252,0.549-3.421,0.595c-1.17-0.009-2.312-0.214-3.429-0.556c-1.018-0.567-1.897-1.309-2.646-2.206c3.152-1.16,6.304-2.319,9.456-3.479C79.569,19.715,80.442,19.798,81.152,20.963z"/>
<path fill="#7C7C7C" d="M74.857,32.853c-1.916,0.372-3.834,0.748-5.751,1.123c0.002,0-0.361-1.016-0.361-1.016c-0.668-0.647-0.877-1.279-0.63-1.898c0.245-0.61,0.483-0.916,0.717-0.916c0.03-1.138,0.062-2.28,0.092-3.418c0.979-0.772,2.091-1.135,3.337-1.096c0.605,0.043,1.21,0.085,1.817,0.128c0.559,0.244,1.114,0.488,1.673,0.735c0.688,1.038,1.054,2.176,1.062,3.424C76.557,31.162,75.904,32.139,74.857,32.853z"/>
<path fill="#5B5B5B" d="M59.574,14.472c0.993,2.127,1.984,4.257,2.977,6.387l0.026-0.027c-2.063,0.034-4.125,0.067-6.187,0.098c-0.43-0.388-0.862-0.775-1.295-1.16c-0.463-1.086-0.658-2.215-0.558-3.394c0.202-0.546,0.411-1.089,0.615-1.636c0.441-0.378,0.888-0.753,1.332-1.129c0.575-0.08,1.153-0.156,1.73-0.235C58.667,13.743,59.121,14.106,59.574,14.472z"/>
<path fill="#5D5D5D" d="M56.361,26.719c-1.044-0.018-2.088-0.037-3.133-0.055c-1.013-0.687-1.576-1.639-1.689-2.856c0.182-1.184,0.677-2.219,1.476-3.106c1.063-0.684,2.124-0.678,3.184,0.009c0,0,0.192,0.22,0.193,0.22C56.38,22.858,56.371,24.787,56.361,26.719z"/>
<path fill="#5B5B5B" d="M59.31,30.027c1.052,1.203,2.104,2.405,3.155,3.604c-1.165,0.562-2.266,0.482-3.288-0.342c-0.769-1.059-0.845-2.143-0.126-3.256L59.31,30.027z"/>
<path fill="#858585" d="M68.831,30.146c0.005,0.94-0.022,1.88-0.087,2.817c-0.363-0.659-0.801-1.291-1.023-1.99C67.675,30.83,68.441,30.43,68.831,30.146z"/>
<path fill="#16CE5C" d="M59.051,33.024c1.14,0.201,2.277,0.403,3.416,0.607c0.084,0.94,0.054,1.876-0.096,2.808c-0.002,0,0.22,0.418,0.22,0.418c-1.171,0.543-2.251,0.433-3.229-0.439c-0.248-0.546-0.495-1.096-0.744-1.642C58.761,34.193,58.906,33.607,59.051,33.024z"/>
<path fill="#2DA95B" d="M62.809,14.225c-1.079,0.083-2.157,0.165-3.234,0.247l-0.049,0.04c-0.914-3.256,0.408-4.272,3.511-3.51l-0.418,0.36c0.979,0.574,1.332,1.19,1.063,1.846C63.406,13.886,63.115,14.225,62.809,14.225z"/>
<path fill="#007316" d="M62.809,14.225c-0.036-0.955-0.101-1.91-0.189-2.862c1.052-0.028,2.104-0.058,3.157-0.089l-0.229,0.495c1.199,0.628,1.574,1.208,1.134,1.746c-0.417,0.506-0.841,0.763-1.282,0.763l-1.299,0.101L62.809,14.225z"/>
<path fill="#39955C" d="M65.4,14.277c0.168-0.83,0.217-1.666,0.148-2.511c1.092-0.046,2.185-0.095,3.277-0.141c0.74,0.678,0.971,1.34,0.694,1.98c-0.274,0.635-0.54,0.952-0.8,0.952C67.614,14.463,66.506,14.369,65.4,14.277z"/>
<path fill="#5B5B5B" d="M68.72,14.558c0.073-0.977,0.108-1.956,0.105-2.936c0.67-0.034,1.332,0.027,1.978,0.183C70.103,12.724,69.411,13.639,68.72,14.558z"/>
<path fill="#616161" d="M81.152,20.963c-0.879-0.055-1.749-0.186-2.602-0.391c0.812-0.787,1.619-1.568,2.426-2.35C81.179,19.129,81.24,20.042,81.152,20.963z"/>
<path fill="#616161" d="M62.551,20.859c0.412,0.223,0.825,0.446,1.237,0.668c-0.404-0.232-0.807-0.464-1.211-0.693C62.577,20.832,62.551,20.859,62.551,20.859z"/>
<path fill="#5B5B5B" d="M72.21,26.701c-1.096,0.012-2.193,0.024-3.289,0.03c0.032-0.897,0.089-1.791,0.175-2.686c1.005,0.101,2.002,0.25,2.988,0.458c0.981,0.433,1.325,0.903,1.036,1.41C72.824,26.438,72.523,26.701,72.21,26.701z"/>
<path fill="#363636" d="M50.119,80.302c-0.022-1.087-0.046-2.173-0.068-3.257c-0.891-0.744-1.628-1.617-2.197-2.634c-0.377-1.092-0.577-2.225-0.658-3.375c-0.041-1.138,0.066-2.271,0.27-3.391c0.25-1.095,0.693-2.124,1.258-3.094c0.674-0.867,1.468-1.63,2.326-2.313c1.226-1.096,2.407-2.246,3.562-3.442c0.844-0.83,1.845-1.334,3.005-1.554c1.197,0.107,2.304,0.464,3.329,1.093c1.988,1.636,3.101,3.656,2.764,6.299c-0.563,1.645-1.562,3.019-2.767,4.193c-0.613,0.653-1.288,1.321-1.877,1.965c-0.48,0.574-0.663,1.272-0.407,2.026c0.518,0.531,1.106,0.889,1.871,0.977c0.831-0.036,1.614-0.101,2.424-0.287c0.89-0.308,1.763-0.503,2.682-0.652c0.03-0.024,1.441,0.021,1.471,0.018c1.076,0.211,1.882,0.775,2.454,1.694c0.01,0.009,0.418,1.504,0.418,1.504l-1.134,1.06c-0.303,1.303-0.606,2.606-1.055,4.535c-1.921-0.507-3.584-0.943-5.247-1.383c-1.689,1.752-3.339,3.562-5.889,4.071c-1.242,0.036-2.388-0.284-3.435-0.955C52.186,82.364,51.153,81.333,50.119,80.302z"/>
<path fill="#272727" d="M90.803,64.658c-3.171,4.123-6.341,8.243-9.511,12.365c-1.008,0.034-2.017,0.056-3.023,0.067c-0.849-0.769-1.81-1.349-2.89-1.745c-0.414-0.397-0.824-0.794-1.239-1.193c-0.287-1.145-0.28-2.28,0.041-3.415c0.664-1.647,1.663-3.073,2.826-4.4c1.153-1.353,2.426-2.579,3.789-3.721c1.413-1.153,2.976-2.011,4.772-2.401c0.597,0.055,1.196,0.122,1.793,0.187c0.456,0.388,0.912,0.778,1.369,1.169c0.471,1.104,1.121,2.103,1.926,2.999L90.803,64.658z"/>
<path fill="#282828" d="M56.299,83.332c2.082-1.017,4.163-2.032,6.244-3.049c-0.139,2.97-0.276,5.936-0.418,8.902c-0.83,0.269-1.679,0.442-2.544,0.521c0.002,0-0.158-0.119-0.158-0.119c-0.765-0.613-1.277-1.395-1.541-2.338c-0.403-0.854-0.83-1.699-1.288-2.529C56.591,84.724,56.299,83.332,56.299,83.332z"/>
<path fill="#343936" d="M68.844,77.131c-0.037-1.05-0.073-2.1-0.11-3.146c0.466-0.333,0.93-0.662,1.396-0.995c0.572,0.043,1.143,0.086,1.717,0.125c0.408,0.406,0.814,0.813,1.224,1.221c0.296,1.233-0.104,2.17-1.196,2.814C70.864,77.14,69.854,77.134,68.844,77.131z"/>
<path fill="#00330A" d="M71.874,77.149c0.108-0.983,0.282-1.957,0.521-2.918c0.78-1.093,1.627-1.147,2.541-0.162l0.27-0.066c0.67,0.72,0.875,1.422,0.613,2.105c-0.256,0.675-0.503,1.01-0.739,1.01C74.01,77.128,72.943,77.14,71.874,77.149z"/>
<path fill="#323232" d="M75.08,77.118c0.024-1.04,0.065-2.078,0.126-3.115c1.021,1.031,2.04,2.06,3.062,3.088C77.205,77.101,76.142,77.109,75.08,77.118z"/>
<path fill="#434343" d="M15.69,39.677c-1.025-4.187-2.053-8.377-3.078-12.567c0.466-0.445,0.931-0.891,1.395-1.339c1.289-0.165,2.569-0.095,3.84,0.174c1.051,0.793,1.814,1.81,2.312,3.027c0.671,3.165,1.242,6.338,0.223,9.546c-0.658,1.172-1.642,1.88-2.986,2.054C16.828,40.275,16.259,39.976,15.69,39.677z"/>
<path fill="#3D3D3D" d="M12.57,42.75c1.041-1.025,2.081-2.048,3.121-3.073l0.056-0.031c0.838,1.044,0.804,2.094,0.021,3.149c-1.063,0.818-2.106,0.757-3.131-0.073L12.57,42.75z"/>
<path fill="#15CA59" d="M15.882,21.092c-0.102,0.863-0.2,1.727-0.294,2.591c-0.449,0.485-0.896,0.967-1.344,1.449c-0.508-0.418-1.015-0.836-1.523-1.257C13.774,22.947,14.828,22.019,15.882,21.092z"/>
<path fill="#434343" d="M12.612,27.109c-0.369-0.766-0.83-1.507-1.038-2.313c-0.05-0.195,0.74-0.607,1.146-0.922l0.04-0.058c0.981,0.775,1.286,1.52,0.917,2.237c-0.362,0.699-0.716,1.05-1.063,1.05L12.612,27.109z"/>
<path fill="#3E3E3E" d="M15.736,52.094c0.005-1.013-0.015-2.022-0.06-3.033c0.366-0.415,0.732-0.83,1.099-1.245c1.048-0.427,2.135-0.543,3.256-0.396c1.073,0.375,1.984,0.995,2.741,1.843c0.552,0.995,0.842,2.063,0.847,3.205c-0.236,1.123-0.765,2.09-1.575,2.905c-1.03,0.537-2.113,0.671-3.247,0.421c-1.038-0.479-1.912-1.172-2.626-2.063C16.023,53.187,15.879,52.641,15.736,52.094z"/>
<path fill="#454545" d="M12.636,42.722c0.872,0.04,1.743,0.08,2.614,0.122c0.479,0.205,0.959,0.412,1.44,0.617c0.554,0.909,0.833,1.895,0.847,2.96c-0.292,1.025-0.865,1.861-1.715,2.512l-0.146,0.125C14.663,46.946,13.65,44.834,12.636,42.722z"/>
<path fill="#444444" d="M12.591,58.378c1.048-2.094,2.096-4.19,3.145-6.284l-0.018,0.004c0.873,0.955,1.443,2.057,1.671,3.335c0.004,1.313-0.424,2.46-1.287,3.448c-0.616,0.146-1.236,0.29-1.854,0.437C13.696,59.007,13.143,58.692,12.591,58.378z"/>
<path fill="#515151" d="M9.48,64.622c-0.006-1.035-0.024-2.066-0.057-3.098c1.056-1.05,2.112-2.097,3.168-3.146l0.007-0.006c1.83,1.767,1.798,3.753,0.69,5.865c-1.172,1.083-2.451,1.175-3.819,0.402L9.48,64.622z"/>
<path fill="#767676" d="M28.233,20.814c0.284-1.285,0.569-2.573,0.998-4.52c1.886,0.534,3.503,0.992,5.121,1.449c0.995,0.211,1.583,0.818,1.779,1.81c0.015-0.009,0.269,1.291,0.269,1.291s1.321,0.098,1.354,0.122c0.888,0.635,1.37,1.462,1.489,2.548c0.021,1.145-0.221,2.191-0.725,3.216c-0.757,0.977-1.669,1.709-2.77,2.258c-1.242,0.385-2.485,0.522-3.773,0.443c-2.865-0.583-4.861-2.075-5.414-5.097C26.635,22.932,27.169,21.748,28.233,20.814z"/>
<path fill="#747474" d="M37.571,14.704c0.024-1.083,0.047-2.169,0.072-3.256c1.045-0.977,2.086-0.925,3.125,0.012l-0.066-0.012c0.945,0.83,1.981,1.522,3.13,2.057c0.441,0.455,0.877,0.91,1.32,1.367c0.452,1.218,0.549,2.469,0.357,3.75c-0.478,1.23-1.285,2.188-2.37,2.927c-0.638,0.104-1.276,0.202-1.915,0.302c-0.574-0.299-1.146-0.598-1.723-0.895c-0.984-0.854-1.858-1.806-2.632-2.856C36.266,16.798,36.543,15.672,37.571,14.704z"/>
<path fill="#626262" d="M28.233,20.814c-0.032,1.053-0.064,2.103-0.096,3.155c-1.645,1.965-3.56,1.74-5.577,0.69c-0.755-0.705-1.115-1.493-1.077-2.353c0.038-0.903,0.157-1.352,0.353-1.352c0,0,0.203-0.159,0.203-0.162C24.104,20.799,26.168,20.808,28.233,20.814z"/>
<path fill="#616161" d="M37.571,14.704c0.003,1.02,0.009,2.039,0.02,3.058c0.45,0.552,0.9,1.108,1.354,1.66c-0.493,0.516-0.989,1.028-1.486,1.544c-0.995-0.012-1.988-0.04-2.983-0.085l-0.015-0.015c-0.032-1.041-0.067-2.081-0.107-3.122C35.424,16.731,36.498,15.717,37.571,14.704z"/>
<path fill="#6D6D6D" d="M40.768,11.46c-1.042-0.006-2.084-0.009-3.125-0.012c0.004-0.836,0.065-1.669,0.186-2.494C38.808,9.791,39.788,10.624,40.768,11.46z"/>
<path fill="#303030" d="M87.556,27.021c0.009,1.081,0.02,2.161,0.028,3.241c-0.831,0.982-1.891,1.575-3.147,1.831c-0.62-0.092-1.24-0.183-1.861-0.275c-0.525-0.342-1.049-0.687-1.573-1.031c-0.178-0.598-0.353-1.203-0.528-1.804c0.325-0.537,0.65-1.071,0.975-1.608C83.485,27.256,85.52,27.137,87.556,27.021z"/>
<path fill="#5E5E5E" d="M78.22,24.421c0.968-0.201,1.942-0.354,2.924-0.452c0.1,1.132,0.201,2.268,0.304,3.403c0.001,0.003-0.02-0.22-0.02-0.22c-1.008,1.059-2.173,1.34-3.525,0.72C77.036,26.633,77.143,25.483,78.22,24.421z"/>
<path fill="#2C2E2C" d="M87.594,55.247c0.018,1.074,0.036,2.151,0.055,3.226c0,0-0.927,1.189-0.925,1.193c-0.979,0.244-1.94,0.549-2.883,0.931c-0.948,0.43-1.811,0.985-2.588,1.693c-0.688,0.846-1.368,1.676-2.055,2.53c-0.475,0.32-0.938,0.619-1.418,0.928c-0.58-0.049-1.142-0.107-1.72-0.165c-3.056-1.693-3.603-4.495-3.426-7.63c0.199-1.211,0.597-2.358,1.151-3.451c0.651-1.034,1.443-1.959,2.331-2.799c0.923-0.793,1.948-1.437,3.044-1.974c1.698-0.724,3.478-0.9,5.304-0.702c1.052,1.037,2.102,2.072,3.153,3.109c0.871,0.696,1.156,1.389,0.86,2.078C88.183,54.901,87.888,55.247,87.594,55.247z"/>
<path fill="#353535" d="M84.465,49.027c-2.084,1.034-4.168,2.069-6.253,3.104c-0.839-0.971-1.124-2.091-0.937-3.351c0.804-1.746,2.132-2.948,3.871-3.727c1.242-0.317,2.362-0.085,3.331,0.784c0,0-0.014,0.077-0.014,0.08C84.465,46.955,84.467,47.992,84.465,49.027z"/>
<path fill="#3B3B3B" d="M87.594,55.247c-0.01-1.038-0.002-2.075,0.022-3.11c1.03,1.028,2.059,2.057,3.089,3.089C89.667,55.24,88.631,55.25,87.594,55.247z"/>
<path fill="#343534" d="M74.857,32.853c0.035-0.845,0.126-1.682,0.275-2.512c2.016-2.014,4.075-1.91,6.169-0.125l0.179,0.079c1.246,1.23,3.036,1.743,4.151,3.146c0.45,1.086,1.082,2.057,1.898,2.905c0,0,0.236,0.247,0.238,0.25c-0.034,1.01-0.097,2.021-0.187,3.027c-0.835,0.671-1.759,1.181-2.775,1.535c-1.5,0.772-2.482,2.112-3.63,3.29c-0.826,0.821-1.69,1.575-2.618,2.283c-1.084,0.567-2.216,0.909-3.436,1.01c-1.973-0.32-3.44-1.346-4.431-3.073c-0.377-1.251-0.406-2.502-0.043-3.757c0.482-0.421,0.968-0.842,1.451-1.26c1.311-0.381,2.621-0.76,4.477-1.297C75.941,36.317,75.399,34.584,74.857,32.853z"/>
<path fill="#262E29" d="M81.284,42.802c1.045-0.998,2.09-1.996,3.136-2.994c0.847,0.607,1.14,1.227,0.882,1.861c-0.261,0.644-0.528,0.964-0.803,0.964c-0.008,1.068-0.016,2.136-0.023,3.204c-1.045,0.006-2.092,0.016-3.139,0.024c-0.44-0.5-0.88-1.004-1.324-1.507C80.434,43.836,80.859,43.32,81.284,42.802z"/>
<path fill="#0A5C29" d="M84.499,42.634c-0.02-0.943-0.046-1.886-0.078-2.826c1.053-0.061,2.107-0.122,3.162-0.183C86.555,40.629,85.526,41.633,84.499,42.634z"/>
<path fill="#22BA5B" d="M47.011,11.088c3.024,0.29,6.05,0.58,9.075,0.87c1.082,0.406,1.486,0.895,1.218,1.471c-0.287,0.62-0.59,0.931-0.913,0.931l-0.513,0.08c-0.801,1.077-1.802,1.917-3.004,2.527c-1.291,0.384-2.608,0.531-3.952,0.464c-2.074-0.317-3.702-1.355-4.912-3.064l0.075,0.18c-0.914-0.684-1.188-1.318-0.825-1.91c0.349-0.564,0.691-0.849,1.028-0.849C45.236,11.708,46.143,11.476,47.011,11.088z"/>
<path fill="#646464" d="M44.288,11.787c-0.144,0.916-0.212,1.834-0.203,2.759c-1.127-1.031-2.255-2.066-3.383-3.097C41.897,11.561,43.093,11.674,44.288,11.787z"/>
<path fill="#2C2D2C" d="M87.53,36.347c-1.03-0.998-2.062-1.999-3.092-2.997c-0.804-0.693-1.069-1.379-0.798-2.069c0.271-0.684,0.54-1.028,0.811-1.028c1.045,0.003,2.09,0.006,3.134,0.009C87.566,32.289,87.548,34.318,87.53,36.347z"/>
<path fill="#1A5F34" d="M87.649,58.473c0.985,0.97,1.97,1.938,2.954,2.908c-0.94,1.083-1.904,1.159-2.897,0.07l-0.141,0.042c-1.068-0.711-1.415-1.406-1.039-2.087c0.369-0.672,0.737-1.007,1.106-1.007L87.649,58.473z"/>
<path fill="#023B10" d="M87.705,61.451c0.967,0.027,1.935,0.003,2.898-0.07c0.018,1.062,0.035,2.127,0.053,3.188C89.672,63.529,88.689,62.488,87.705,61.451z"/>
<path fill="#0B7E34" d="M12.756,73.987c-0.208,0.912-0.342,1.84-0.403,2.771c-0.003-0.004-1.106,0-1.106,0s-1.093-0.159-1.09-0.162c-0.224-1.913-0.452-3.824-0.679-5.734c1.039-1.438,2.074-1.511,3.105,0.006C12.594,71.912,12.651,72.95,12.756,73.987z"/>
<path fill="#3D3D3D" d="M9.469,64.64c1.036-0.003,2.074,0.007,3.11,0.031c0.396,0.503,0.793,1.004,1.19,1.507c-0.392,0.507-0.783,1.014-1.175,1.521v0.052c-1.038,1.129-2.078,1.187-3.124,0.009C9.484,66.722,9.483,65.681,9.469,64.64z"/>
<path fill="#709B81" d="M9.47,67.759c1.041-0.009,2.082-0.012,3.122-0.009c0,1.04,0,2.084-0.005,3.121c-1.043,0.004-2.081,0.007-3.116-0.003C9.469,69.828,9.468,68.793,9.47,67.759z"/>
<path fill="#01380E" d="M59.34,86.506c0.057,1.028,0.084,2.054,0.083,3.082c-0.979,0.03-1.95-0.027-2.914-0.177c0.02-0.903-0.04-1.801-0.179-2.691c0.468-0.501,0.937-1.005,1.403-1.514C58.27,85.636,58.805,86.072,59.34,86.506z"/>
<path fill="#555555" d="M56.391,14.359c-0.136-0.799-0.234-1.599-0.304-2.405c1.15-1.233,2.302-2.466,3.453-3.702c0.89,0.067,1.779,0.149,2.666,0.244c0.239,0.848,0.516,1.685,0.83,2.505c-1.171,1.169-2.341,2.341-3.511,3.51C58.48,14.46,57.437,14.408,56.391,14.359z"/>
<path fill="#2BAC5C" d="M21.835,20.954c0.072,0.989,0.069,1.975-0.012,2.963c0,0-0.867,1.05-0.867,1.053c0,0-1.364,0.021-1.366,0.024s-0.625-1.214-0.625-1.214c-0.076-0.882-0.188-1.758-0.334-2.631C19.698,21.085,20.766,21.019,21.835,20.954z"/>
<path fill="#6D6D6D" d="M12.614,27.104c0.047-1.093,0.094-2.188,0.143-3.284c0.956,0.156,1.898,0.113,2.832-0.131c1.123,0.031,2.248,0.064,3.374,0.095c0.001-0.003-0.127,0.229-0.127,0.229c0.403,0.497,0.804,0.995,1.21,1.492c-0.355,0.534-0.712,1.065-1.071,1.596C16.854,27.104,14.735,27.104,12.614,27.104z"/>
<path fill="#282828" d="M53.219,83.399c1.026-0.024,2.054-0.046,3.082-0.067c-0.002,0,0.084,0.098,0.084,0.098c0.688,0.674,0.938,1.364,0.749,2.075c-0.19,0.723-0.394,1.083-0.611,1.083c0,0-0.192,0.128-0.192,0.132C55.292,85.611,54.255,84.507,53.219,83.399z"/>
<path fill="#474747" d="M12.579,64.671c0.007-2.1,0.014-4.199,0.02-6.299c1.039,0,2.08,0.003,3.119,0.003c1.242-0.003,2.469,0.134,3.692,0.375c1.192,0.412,2.3,0.985,3.333,1.712c1.509,1.215,2.634,2.71,3.27,4.557c0.205,1.3-0.095,2.49-0.819,3.583c-1.291,0.564-2.359,0.28-3.203-0.849c-1.07-0.013-2.14-0.021-3.208-0.034c-1.573-2.047-4.655-1.053-6.233-3.094L12.579,64.671z"/>
<path fill="#545454" d="M12.55,64.625c2.079,1.031,4.157,2.063,6.233,3.094c-2.063-0.006-4.126-0.015-6.189-0.021C12.588,66.673,12.573,65.65,12.55,64.625z"/>
<path fill="#4E504F" d="M21.99,67.753c1.06-0.016,2.122-0.027,3.184-0.04c0.926-0.979,1.985-1.107,3.16-0.494c0.61,1.126,0.63,2.265,0.063,3.412c-0.95,0.939-1.983,1.092-3.113,0.323c-1.115-0.03-2.229-0.064-3.345-0.095C21.96,69.825,21.977,68.787,21.99,67.753z"/>
<path fill="#2B4833" d="M40.655,77.177c-1.019-0.013-2.039-0.034-3.058-0.064c-0.021-1.077-0.043-2.151-0.064-3.229c-1.053-0.821-1.593-1.898-1.625-3.238c0.287-1.278,0.894-2.374,1.868-3.265c1.219-0.562,2.466-0.639,3.746-0.235c2.35,1.56,3.69,3.646,3.435,6.567c-0.484,1.251-1.299,2.243-2.388,3.015C41.933,76.881,41.294,77.03,40.655,77.177z"/>
<path fill="#0E893D" d="M37.38,70.609c0.05,1.092,0.103,2.185,0.153,3.274l-1.479,0.043l-1.477-0.053c0,0-1.027-1.162-1.029-1.162c-0.256-1.163,0.11-2.075,1.1-2.737C35.767,69.291,36.678,69.501,37.38,70.609z"/>
<path fill="#004D0F" d="M28.315,76.966c-0.066-1.017-0.142-2.029-0.232-3.046c0.595-0.345,1.19-0.692,1.787-1.037c0.659,0.204,1.317,0.409,1.978,0.613c0.247,0.646,0.491,1.291,0.74,1.938c-0.42,0.55-0.841,1.099-1.264,1.646C30.319,77.115,29.315,77.076,28.315,76.966z"/>
<path fill="#5A5A5A" d="M31.324,77.079c0.066-1.041,0.133-2.085,0.198-3.125c1.024-1.163,2.046-1.105,3.067,0.003l-0.014-0.079C33.492,74.942,32.409,76.011,31.324,77.079z"/>
<path fill="#0E893D" d="M43.812,80.448c-1.051-1.093-2.104-2.183-3.155-3.271c-0.002,0,0.458-0.059,0.458-0.059c0.536-0.421,1.07-0.842,1.604-1.267c0.589,0.342,1.177,0.684,1.766,1.025c0.192,0.65,0.385,1.304,0.577,1.957C44.645,79.371,44.228,79.908,43.812,80.448z"/>
<path fill="#074B15" d="M46.907,83.253l-1.501,0.118c0,0-1.506-0.066-1.505-0.069c-0.05-0.952-0.079-1.904-0.087-2.856c-0.001,0.003,0.029-0.202,0.029-0.202c1.041-1.443,2.08-1.511,3.117,0.003C46.966,81.251,46.949,82.252,46.907,83.253z"/>
<path fill="#7F998A" d="M25.284,70.954c0.91-0.049,1.819-0.073,2.73-0.067c0.437,0.491,0.871,0.982,1.311,1.478c-0.366,0.543-0.735,1.089-1.104,1.636c0,0-0.134-0.08-0.136-0.08c-0.002,0-1.451,0.027-1.451,0.027s-1.447-0.112-1.445-0.112C25.103,72.867,25.135,71.909,25.284,70.954z"/>
<path fill="#545454" d="M43.784,74.354c-1.055-2.191-2.107-4.385-3.162-6.579c0.227-1.904,1.283-3.235,2.89-4.188c1.153-0.354,2.31-0.326,3.462,0.019c1.578,0.985,1.874,2.896,3.005,4.211c-0.035,1.06-0.07,2.118-0.105,3.178c-0.729,0.641-0.973,1.284-0.729,1.925c0.242,0.645,0.485,0.965,0.729,0.965c0.06,1.053,0.119,2.108,0.177,3.161c-1.027,0.067-2.056,0.095-3.084,0.083c-1.036,1.263-2.077,1.267-3.122,0.012l-0.049-0.747C43.794,75.712,43.789,75.034,43.784,74.354z"/>
<path fill="#0B7E34" d="M43.845,77.14c1.041-0.021,2.081-0.027,3.122-0.015c0,1.043,0,2.084-0.004,3.125c-1.042,0-2.081,0-3.12-0.004C43.841,79.209,43.843,78.175,43.845,77.14z"/>
<path fill="#2C2E2C" d="M71.967,42.75c2.089,1.059,4.177,2.118,6.266,3.177c0.871,0.687,1.158,1.37,0.865,2.054c-0.295,0.681-0.586,1.02-0.881,1.02c-0.001,1.043-0.003,2.087-0.005,3.131l0.011-0.013c-1.137,0.938-2.063,2.085-3.111,3.113l-0.035,0.033c-0.825,0.84-1.807,1.172-2.974,0.928c-1.631-0.555-3.009-1.504-4.237-2.694c-0.787-0.821-1.419-1.752-1.923-2.774c-0.091-0.555-0.171-1.116-0.251-1.675c0.027-1.108,0.055-2.216,0.084-3.32c0.817-0.87,1.466-1.853,1.945-2.951c0.442-0.4,0.885-0.8,1.327-1.199C70.313,41.245,71.302,41.599,71.967,42.75z"/>
<path fill="#2E2E2E" d="M59.661,36.494c0.966,0.205,1.942,0.324,2.93,0.36c0.011,4.062,0.022,8.124,0.035,12.182c-0.562,0.226-1.123,0.452-1.687,0.678c-1.21-0.29-2.238-0.9-3.125-1.771c-1.193-1.434-2.034-3.061-2.574-4.846c-0.261-1.224-0.226-2.444,0.076-3.656c0.612-1.093,1.457-1.969,2.52-2.634C58.442,36.698,59.051,36.598,59.661,36.494z"/>
<path fill="#0A5C29" d="M68.901,36.729c1.064,0.974,2.131,1.947,3.197,2.924c0.002,0-0.134-0.031-0.134-0.031c-0.508,0.446-1.015,0.888-1.522,1.337c-0.586-0.33-1.172-0.666-1.76-1.004C68.755,38.88,68.827,37.803,68.901,36.729z"/>
<path fill="#5A6A62" d="M65.914,42.649c0.923-0.9,1.846-1.8,2.77-2.698c-0.002,0.003,0.157-0.326,0.157-0.326c0.841,0.696,1.119,1.388,0.839,2.084c-0.281,0.693-0.562,1.041-0.844,1.041l-0.105-0.244C67.852,43.723,66.91,43.711,65.914,42.649z"/>
<path fill="#0A5C29" d="M65.914,42.649c0.942,0.043,1.883-0.006,2.816-0.14c-0.985,1.071-1.972,2.146-2.957,3.22C65.744,44.697,65.792,43.671,65.914,42.649z"/>
<path fill="#0E5328" d="M62.626,49.036c1.021-0.027,2.043-0.024,3.065,0.01c0,0.003-0.037-0.028-0.037-0.028c0.658,0.599,0.902,1.221,0.731,1.868c-0.176,0.656-0.365,0.985-0.566,0.985c-1.027,0.632-2.077,0.669-3.145,0.11c-0.586-0.641-0.788-1.291-0.604-1.944c0.184-0.653,0.373-0.982,0.563-0.982L62.626,49.036z"/>
<path fill="#5D5D5D" d="M47.04,30.012c3.133,0.208,6.266,0.418,9.398,0.625c0.408,0.519,0.817,1.035,1.229,1.55c-0.246,0.614-0.494,1.224-0.74,1.837c-1.02,0.87-2.182,1.458-3.48,1.792c-2.002,0.284-3.923,0.018-5.738-0.895c-1.085-0.818-1.656-1.91-1.715-3.271C46.342,31.107,46.691,30.561,47.04,30.012z"/>
<path fill="#A9C2B5" d="M56.155,32.951c0.125-0.769,0.222-1.541,0.285-2.313c0.854-0.269,1.728-0.47,2.614-0.604c0.267,0.998,0.269,1.996-0.002,2.991c-0.001,0,0.48,0.384,0.48,0.384C58.245,34.452,57.126,34.245,56.155,32.951z"/>
<path fill="#575757" d="M50.075,26.661c-1.036,0.265-2.07,0.531-3.106,0.796c-0.232-0.592-0.465-1.181-0.697-1.77c0.451-1.26,1.326-2.094,2.571-2.563c0.63,0.131,1.255,0.266,1.886,0.4c0.247,0.595,0.489,1.193,0.733,1.788C51.001,25.764,50.537,26.212,50.075,26.661z"/>
<path fill="#6B6B6B" d="M50.075,26.661c0.021-0.873,0.041-1.746,0.06-2.619c1.012-1.013,2.04-0.986,3.084-0.052c-0.003,0.894,0,1.785,0.009,2.676C52.177,26.661,51.127,26.661,50.075,26.661z"/>
<path fill="#858585" d="M46.969,27.458c-0.019,0.854,0.006,1.706,0.071,2.557c0-0.003-0.209,0.391-0.209,0.391c-0.911,0.992-1.947,1.147-3.105,0.464c-0.63-1.111-0.668-2.243-0.116-3.394c0.952-0.897,2.023-1.068,3.212-0.519L46.969,27.458z"/>
<path fill="#2E6739" d="M72.21,26.701c-0.13-0.729-0.173-1.465-0.126-2.2c0.932,0.012,1.857,0.085,2.777,0.229c0.105,0.65,0.209,1.303,0.314,1.953l-1.483,0.125L72.21,26.701z"/>
<path fill="#3D7147" d="M75.176,26.682c-0.073-0.659-0.177-1.312-0.313-1.959c1.118-0.101,2.238-0.205,3.356-0.305c-0.017,0.888-0.03,1.773-0.039,2.658c-0.983,1.318-2.025,1.367-3.129,0.149L75.176,26.682z"/>
<path fill="#767676" d="M75.052,27.226c1.044-0.049,2.088-0.095,3.13-0.146c1.079,0.021,2.159,0.046,3.242,0.073c-0.065,1.022-0.104,2.044-0.12,3.067c-2.06,0.037-4.118,0.076-6.174,0.119C75.111,29.304,75.084,28.266,75.052,27.226z"/>
<path fill="#92A49B" d="M53.038,15.092c0.927-0.32,1.876-0.537,2.845-0.653c0.13,1.08,0.266,2.164,0.401,3.247c-0.821,0.909-1.744,1.08-2.791,0.394c-0.549-0.595-0.801-1.236-0.752-1.923C52.791,15.449,52.891,15.092,53.038,15.092z"/>
<path fill="#326B3D" d="M52.983,17.17c1.102,0.171,2.201,0.345,3.302,0.516c0.02,1.01-0.008,2.02-0.086,3.027c-1.007,0.162-2.009,0.339-3.01,0.525c0,0-0.994-1.2-0.997-1.2c-0.001,0-0.06-1.559-0.061-1.559C52.128,18.476,52.983,17.17,52.983,17.17z"/>
<path fill="#575757" d="M53.219,23.991c-1.028,0.006-2.057,0.021-3.086,0.052c0.002,0-0.104-0.104-0.104-0.104c-0.352-0.565-0.702-1.129-1.054-1.694c0.257-0.613,0.515-1.227,0.771-1.843c1.251-0.76,2.406-0.677,3.451,0.384c0,0-0.008,0.443-0.009,0.449C53.205,22.157,53.216,23.075,53.219,23.991z"/>
<path fill="#0A9B36" d="M56.155,32.951c1.126,0.152,2.252,0.305,3.378,0.458c-0.036,1.032,0.005,2.06,0.126,3.085c0.003,0,0.003,0.235,0.003,0.235c-0.753,0.351-1.503,0.702-2.256,1.059c-0.581-0.589-1.164-1.181-1.745-1.773c0.267-0.784,0.532-1.569,0.8-2.356L56.155,32.951z"/>
<path fill="#303030" d="M62.619,77.104c-1.05,0.006-2.1,0.015-3.149,0.021c-1.042-1.145-2.084-1.145-3.126,0c-1.042-2.088-2.083-4.172-3.125-6.26c1.495-1.468,3.412-1.501,5.322-1.571c1.264-0.253,2.536-0.418,3.823-0.507c1.285,0.284,2.422,0.852,3.398,1.736c0.773,1.169,0.757,2.332-0.044,3.485l0.009-0.013C64.62,74.961,63.592,76.002,62.619,77.104z"/>
<path fill="#292929" d="M62.578,64.625c-1.044-2.085-2.089-4.166-3.133-6.25c0.349-0.434,0.696-0.87,1.041-1.313c0.972-0.58,2.016-0.977,3.123-1.218c1.117-0.198,2.245-0.26,3.38-0.238c1.144,0.043,2.251,0.271,3.333,0.632c1.028,0.504,1.892,1.218,2.596,2.121c0.367,1.099,0.356,2.203,0.022,3.309c-0.661,0.937-1.484,1.693-2.481,2.264c-1.501,0.809-3.093,1.377-4.778,1.676C64.524,65.681,63.482,65.369,62.578,64.625z"/>
<path fill="#454545" d="M49.98,67.816c-1.021-1.074-2.042-2.145-3.063-3.216c-1.388-1.386-3.178-1.361-4.958-1.404c-1.134-0.592-1.851-1.504-2.165-2.746c0.218-1.27,0.775-2.347,1.723-3.232c1.109-0.681,2.303-1.102,3.589-1.294c2.023-0.073,3.873,0.422,5.501,1.657c0.804,1.074,1.242,2.289,1.373,3.619c-0.206,1.334-0.798,2.463-1.774,3.394C50.129,65.668,50.054,66.742,49.98,67.816z"/>
<path fill="#3B3B3B" d="M59.446,58.375c-1.039,0.003-2.076,0.006-3.114,0.009c-1.129,1.077-2.369,1.282-3.743,0.488c-1.161-1.944-1.538-3.979-0.712-6.155c0.841-1.215,1.97-2.042,3.378-2.484c1.451-0.158,2.832,0.079,4.125,0.77c1.034,1.019,1.686,2.246,1.953,3.674c-0.184,1.443-0.791,2.68-1.819,3.711L59.446,58.375z"/>
<path fill="#2D2D2D" d="M62.578,64.625c0.965,0.015,1.931,0.042,2.894,0.082c0.329,0.442,0.657,0.885,0.988,1.327c-0.033,1.13-0.388,2.146-1.053,3.059c-0.917,0.61-1.851,1.199-2.794,1.772c-1.056,0-2.11,0.003-3.166,0.006c-1.128-0.684-1.505-1.37-1.136-2.06c0.37-0.692,0.74-1.04,1.119-1.04C60.481,66.722,61.529,65.675,62.578,64.625z"/>
<path fill="#3B3B3B" d="M59.431,67.772c0.021,1.034,0.027,2.065,0.017,3.1c-2.075-0.003-4.152-0.003-6.229-0.006C55.289,69.834,57.36,68.803,59.431,67.772z"/>
<path fill="#303030" d="M53.217,58.372c1.038,0.003,2.077,0.006,3.114,0.012c0.008,1.041,0.011,2.081,0.01,3.122c-0.55,0.406-1.101,0.809-1.648,1.218c-0.625-0.269-1.253-0.54-1.88-0.812C52.006,60.627,52.186,59.452,53.217,58.372z"/>
<path fill="#323232" d="M50.205,64.594c-0.026-1.025-0.035-2.051-0.026-3.076c1.004-1.489,2.019-1.495,3.041-0.021L53.217,61.5c0.729,0.698,0.971,1.395,0.724,2.087c-0.246,0.693-0.491,1.038-0.735,1.038C52.204,64.622,51.204,64.609,50.205,64.594z"/>
<path fill="#3B3B3B" d="M53.205,64.625c0.003-1.041,0.008-2.082,0.012-3.125c1.042,0,2.083,0.003,3.124,0.006C55.295,62.547,54.25,63.587,53.205,64.625z"/>
<path fill="#5A5A5A" d="M49.874,73.884c-0.355-0.687-0.783-1.353-1.007-2.078c-0.048-0.153,0.654-0.537,1.008-0.815C49.996,71.958,49.996,72.919,49.874,73.884z"/>
<path fill="#2B2B2B" d="M65.719,74.009c-0.005-1.041-0.014-2.078-0.029-3.116c0.57-0.345,1.14-0.687,1.711-1.031c0.625,0.229,1.251,0.458,1.878,0.687c0.276,0.607,0.55,1.215,0.824,1.825c-0.401,0.531-0.803,1.065-1.206,1.596c0,0-0.16,0.016-0.161,0.016C67.729,73.996,66.724,74.006,65.719,74.009z"/>
<path fill="#3B3B3B" d="M56.344,77.125c1.042,0,2.084,0,3.126,0C58.428,77.125,57.386,77.125,56.344,77.125z"/>
<path fill="#2A2A2A" d="M62.619,77.104c1.036-1.035,2.072-2.072,3.108-3.107C64.692,75.031,63.656,76.065,62.619,77.104z"/>
<path fill="#262626" d="M87.632,58.399c-0.027,1.031-0.049,2.063-0.067,3.094c-1.007,0.007-2.015,0.013-3.022,0.021c-0.403-0.516-0.806-1.028-1.214-1.541c0.376-0.531,0.756-1.064,1.136-1.599C85.52,58.384,86.575,58.39,87.632,58.399z"/>
<path fill="#04320D" d="M84.542,61.515c-0.995,1.008-1.99,2.018-2.986,3.027c-0.464-0.521-0.928-1.047-1.392-1.568c0.271-0.646,0.545-1.291,0.817-1.938c0.632-0.312,1.264-0.617,1.897-0.928c0.529,0.461,1.057,0.928,1.585,1.392L84.542,61.515z"/>
<path fill="#0A5C29" d="M81.556,64.542c-1.094,1.044-2.188,2.091-3.282,3.138c-0.377-0.504-0.752-1.007-1.129-1.511c0.31-0.546,0.621-1.093,0.931-1.639l0.147,0.098c1.038-1.48,2.077-1.48,3.116-0.003L81.556,64.542z"/>
<path fill="#3B3B3B" d="M78.274,67.68c-1.066,1.059-2.132,2.118-3.198,3.177c-0.114-0.711-0.228-1.422-0.342-2.133c0.901-1.325,2.089-1.67,3.56-1.038L78.274,67.68z"/>
<path fill="#095725" d="M74.937,74.069c-0.854-0.036-1.703,0.019-2.544,0.159c0.003,0.003-0.766-0.333-0.766-0.333c-0.678-0.771-0.914-1.553-0.713-2.347c0.204-0.796,0.415-1.196,0.63-1.196c1.315-0.689,2.492-0.464,3.547,0.55l-0.016-0.046C75.03,71.928,74.983,72.999,74.937,74.069z"/>
<path fill="#0C5929" d="M56.523,86.588c-0.046-1.053-0.094-2.105-0.14-3.158c0.987,1.025,1.974,2.051,2.957,3.076C58.401,86.509,57.461,86.536,56.523,86.588z"/>
<path fill="#5A6A62" d="M71.805,71.036c0.133,0.965,0.078,1.92-0.172,2.862c-0.006-0.003-1.372,0.077-1.372,0.077s-1.367-0.007-1.365-0.007c-0.035-1.001-0.032-1.999,0.012-3C69.891,70.194,70.857,70.216,71.805,71.036z"/>
<path fill="#373737" d="M18.726,39.838c0.105-3.229,0.211-6.458,0.317-9.686c1.059-1.035,2.237-1.142,3.526-0.449c0.925,1.035,1.581,2.212,2.005,3.537c0.317,1.367,0.431,2.747,0.386,4.15c-0.139,1.419-0.511,2.774-1.077,4.083c-0.774,1.26-1.883,2.063-3.317,2.42c-0.697-0.149-1.395-0.302-2.092-0.455c-0.343-0.625-0.684-1.254-1.027-1.88C17.873,40.986,18.299,40.412,18.726,39.838z"/>
<path fill="#848484" d="M21.9,30.601c-0.947-0.183-1.901-0.333-2.858-0.448c-0.166-1.013-0.189-2.03-0.068-3.052c0.001,0-0.13,0.03-0.13,0.03c1.028-1.086,2.287-1.55,3.775-1.389c2.324,0.659,3.641,1.984,3.02,4.584C24.461,31.333,23.214,31.425,21.9,30.601z"/>
<path fill="#75867D" d="M18.726,39.838c0.07,0.992,0.003,1.972-0.203,2.942l-1.186,1.004l-1.058-1.138c0,0-1.022,0.195-1.027,0.195c0.162-1.065,0.327-2.13,0.491-3.195C16.744,39.628,17.738,39.692,18.726,39.838z"/>
<path fill="#13823E" d="M15.823,48.933c0.063-1.071,0.125-2.143,0.187-3.217c0.99-0.748,1.991-0.76,3.003-0.04c0.627,1.056,0.543,2.082-0.156,3.073C17.849,48.881,16.839,48.941,15.823,48.933z"/>
<path fill="#004D0F" d="M18.856,48.749c0.011-0.997-0.009-1.995-0.057-2.993c0.408-0.375,0.816-0.748,1.226-1.123c1.175-0.034,2.09,0.452,2.781,1.389c0.061,0.549,0.122,1.099,0.183,1.647c-0.296,0.467-0.592,0.938-0.889,1.404C21.018,48.966,19.938,48.856,18.856,48.749z"/>
<path fill="#879F92" d="M22.263,51.96c-0.157-0.955-0.212-1.92-0.163-2.887l-0.07,0.073c0.693-1.188,1.665-1.496,2.915-0.922c0.558,0.678,0.814,1.4,0.764,2.167c-0.052,0.784-0.152,1.178-0.304,1.175C24.459,52.494,23.415,52.662,22.263,51.96z"/>
<path fill="#4F4F4F" d="M15.722,55.213c0.003-1.037,0.003-2.075-0.004-3.115c1.033,1.05,2.066,2.1,3.099,3.149c-0.521,0.399-1.041,0.799-1.561,1.196C16.744,56.034,16.233,55.625,15.722,55.213z"/>
<path fill="#0E893D" d="M22.263,51.96c0.838,0.092,1.666,0.033,2.482-0.177c0.408,0.366,0.815,0.732,1.226,1.099c0.163,1.141-0.142,2.136-0.916,2.99c-0.541,0.089-1.083,0.177-1.627,0.269c-0.439-0.329-0.88-0.659-1.321-0.988C22.159,54.09,22.212,53.025,22.263,51.96z"/>
<path fill="#484848" d="M18.817,55.247c1.097-0.031,2.192-0.062,3.29-0.092c0.001-0.003-0.063-0.046-0.063-0.046c0.833,1.178,0.731,2.313-0.177,3.405c-1.201,0.724-2.406,0.739-3.627,0.049c-0.735-1.284-0.534-2.396,0.602-3.338L18.817,55.247z"/>
<path fill="#809589" d="M18.8,45.756l-1.397,0.024c0,0-1.398-0.064-1.395-0.064c-0.146-1.043-0.057-2.066,0.27-3.07c0.749,0.083,1.498,0.125,2.248,0.134c-0.001,0,0.557-0.107,0.557-0.107c0.942,0.803,1.208,1.538,0.804,2.209c-0.384,0.635-0.755,0.955-1.114,0.955L18.8,45.756z"/>
<path fill="#3E3E3E" d="M18.841,55.226c0,1.053,0,2.105,0,3.158c0.931,0.681,1.242,1.361,0.938,2.048c-0.304,0.689-0.609,1.034-0.919,1.034c-1.048-1.031-2.095-2.06-3.143-3.091c0.001-1.053,0.003-2.106,0.004-3.162C16.761,55.234,17.802,55.24,18.841,55.226z"/>
<path fill="#737674" d="M34.411,27.146c1.202-0.189,2.406-0.381,3.609-0.574c0.386,0.437,0.772,0.873,1.167,1.31c0.498,1.086,0.762,2.228,0.852,3.421c-0.027,1.218-0.263,2.39-0.674,3.54c-0.583,1.104-1.399,2.002-2.411,2.74c-1.164,0.519-2.379,0.745-3.654,0.702c-1.265-0.25-2.434-0.729-3.525-1.413c-1.558-1.239-2.658-2.752-2.846-4.803C27.782,27.94,32.42,29.557,34.411,27.146z"/>
<path fill="#686868" d="M34.411,27.146c-2.048,2.03-4.097,4.056-6.145,6.083c-0.589,0.354-1.178,0.711-1.769,1.065c-0.67-0.168-1.338-0.336-2.01-0.503c-0.83-1.337-0.581-2.484,0.6-3.47c-1.042-1.068-2.084-2.136-3.128-3.204c-0.834-0.696-1.111-1.389-0.833-2.082c0.279-0.692,0.557-1.041,0.836-1.041c0,0-0.137-0.076-0.139-0.076c2.104,0.018,4.21,0.034,6.314,0.052C30.228,25.028,32.319,26.087,34.411,27.146z"/>
<path fill="#5F5F5F" d="M34.475,20.881c-0.235,0.421-0.471,0.839-0.707,1.26c0.23-0.424,0.461-0.851,0.691-1.275L34.475,20.881z"/>
<path fill="#5D5D5D" d="M37.667,24.32c-0.069-1.12-0.138-2.237-0.208-3.357c-0.001,0.003,0.183-0.113,0.183-0.113c0.94-0.977,1.918-1.02,2.936-0.122l0.412,0.208c0.587,1.092,0.519,2.142-0.209,3.149C39.797,24.867,38.757,24.912,37.667,24.32z"/>
<path fill="#CAEEDB" d="M37.667,24.32c1.019-0.238,2.044-0.266,3.076-0.083c0.351,0.562,0.7,1.123,1.051,1.685c-0.228,0.62-0.458,1.242-0.685,1.862c-0.63,0.198-1.262,0.396-1.894,0.595c-0.487-0.445-0.977-0.891-1.465-1.336c0,0,0.265-0.467,0.267-0.47C37.74,25.846,37.623,25.095,37.667,24.32z"/>
<path fill="#5C5C5C" d="M44.01,14.366c2.014,0.281,4.028,0.562,6.041,0.842c1.055,0.61,1.554,1.526,1.5,2.743c-0.079,1.175-0.564,2.151-1.454,2.927l-0.043-0.019c-0.847,0.821-1.84,1.074-2.98,0.76c-1.593-0.778-2.276-2.35-3.209-3.702C43.914,16.734,43.961,15.55,44.01,14.366z"/>
<path fill="#565656" d="M40.578,20.729c-0.977,0.082-1.956,0.125-2.936,0.125c-0.032-1.031-0.049-2.06-0.052-3.091C38.587,18.751,39.584,19.74,40.578,20.729z"/>
<path fill="#92A49B" d="M43.865,17.918c0.89,0.818,1.779,1.639,2.669,2.459c0,0-0.335,1.404-0.334,1.404c0,0-1.445-0.043-1.444-0.043l-0.59-1.318C44.067,19.584,43.966,18.751,43.865,17.918z"/>
<path fill="#12BF51" d="M40.743,24.238c0.081-1.102,0.16-2.2,0.244-3.302c1.061-0.171,2.116-0.345,3.177-0.516c0.001,0-0.34,0.498-0.34,0.498c0.437,0.556,0.875,1.111,1.311,1.669c-0.299,0.644-0.598,1.285-0.897,1.929c-1.352,0.812-2.571,0.644-3.656-0.5L40.743,24.238z"/>
<path fill="#393939" d="M84.45,30.253c0.006,1.031,0.003,2.066-0.013,3.098c-0.987-1.02-1.974-2.039-2.96-3.055C82.47,30.268,83.46,30.256,84.45,30.253z"/>
<path fill="#252725" d="M71.805,71.036l-1.447-0.104l-1.451,0.036c0.001,0-0.065-0.101-0.065-0.101c-0.457-0.427-0.911-0.857-1.367-1.284c0.05-0.626,0.104-1.248,0.15-1.874c0.51-1.139,1.095-2.243,1.746-3.312c0.768-0.985,1.615-1.897,2.532-2.746c0.021-1.093,0.043-2.188,0.063-3.28c-0.391-0.534-0.783-1.065-1.176-1.6c0.415-0.516,0.83-1.028,1.247-1.544c1.013,0.012,2.026,0.024,3.039,0.036c1,3.089,2.001,6.177,3,9.266c0.07,1.053,0.144,2.103,0.217,3.155c-1.068,1.071-2.135,2.146-3.201,3.217C73.996,70.948,72.901,70.99,71.805,71.036z"/>
<path fill="#353535" d="M75.112,55.231c1.038-1.038,2.074-2.075,3.111-3.113C77.186,53.156,76.15,54.193,75.112,55.231z"/>
<path fill="#54625B" d="M78.222,61.497c1.037-1.038,2.076-2.079,3.114-3.116c0.842,0.689,1.123,1.383,0.845,2.078c-0.277,0.692-0.557,1.041-0.839,1.041l-0.003-0.003C80.3,62.69,79.261,62.629,78.222,61.497z"/>
<path fill="#0D5729" d="M81.342,61.5c0-1.041,0-2.085-0.003-3.122c1.041,0,2.084,0,3.126-0.003c0.002,1.043,0.004,2.084,0,3.125c-0.001,0-1.562,0-1.562,0H81.342z"/>
<path fill="#1A5F34" d="M78.222,61.497c1.04,0.003,2.079,0.003,3.119,0c-0.002,1.04,0,2.084,0,3.128c-1.043,0-2.083,0-3.121,0C78.222,63.584,78.222,62.54,78.222,61.497z"/>
<path fill="#2A2A2A" d="M78.217,49c0.002-1.025,0.006-2.051,0.016-3.076c0,0.003-0.014-0.058-0.014-0.058c1.05-1.004,2.095-0.998,3.132,0.018l-0.014-0.021C80.297,46.909,79.258,47.956,78.217,49z"/>
<path fill="#00330A" d="M68.836,42.75c0.006-1.041,0.008-2.084,0.005-3.125c1.042,0,2.084,0,3.125,0c0,1.041,0,2.081,0.001,3.125C70.923,42.75,69.88,42.75,68.836,42.75z"/>
<path fill="#3B3B3B" d="M81.351,45.884c-1.043-0.006-2.087-0.012-3.132-0.018c1.022-1.022,2.044-2.045,3.065-3.064C81.321,43.827,81.344,44.856,81.351,45.884z"/>
<path fill="#CAEEDB" d="M50.162,17.597c0.073-0.802,0.037-1.599-0.109-2.393c0.979-0.409,1.974-0.448,2.985-0.113c0.035,0.696,0.018,1.389-0.056,2.078l0.286,0.806C52.097,18.964,51.063,18.839,50.162,17.597z"/>
<path fill="#515151" d="M21.963,23.994c0.001,1.044,0.003,2.087,0.001,3.125c-0.004-0.003-1.562,0.006-1.562,0.006s-1.56,0-1.56,0.003c0-1.041,0-2.084-0.003-3.122C19.879,24.006,20.921,24,21.963,23.994z"/>
<path fill="#393939" d="M18.861,61.466c-0.011-1.028-0.017-2.054-0.02-3.082c1.018-0.006,2.034-0.009,3.05-0.006c0,0,0.943,0.922,0.946,0.922c0.003-0.004,0.008,1.318,0.011,1.321c0.001,0-0.925,0.942-0.925,0.942C20.903,61.53,19.882,61.5,18.861,61.466z"/>
<path fill="#0E893D" d="M24.842,64.647c-0.972-1.029-1.945-2.058-2.919-3.083l0.381-0.021c0.998-0.695,1.952-0.644,2.864,0.162c0.189,0.516,0.378,1.034,0.569,1.551C25.439,63.719,25.141,64.183,24.842,64.647z"/>
<path fill="#12481D" d="M28.188,67.747c-1.005,0.012-2.011,0-3.015-0.034c-0.081-1.025-0.189-2.048-0.326-3.07c-0.005,0.004,0.254-0.195,0.254-0.195c1.094-0.842,2.234-0.948,3.424-0.21C29.099,65.473,28.988,66.642,28.188,67.747z"/>
<path fill="#373737" d="M28.188,67.747c-0.053-1.071-0.106-2.143-0.16-3.217c-0.959-0.94-1.462-2.094-1.572-3.431c0.119-0.644,0.241-1.287,0.362-1.932c0.439-0.491,0.88-0.977,1.323-1.468c1.355-0.226,2.604,0.021,3.742,0.806c0.911,1.014,1.567,2.167,1.998,3.458c0.48,2.014,0.465,4.025-0.061,6.03c-0.602,1.218-1.317,2.371-2.138,3.457c-1.311,0.748-2.473,0.602-3.467-0.57c0,0-0.197,0.006-0.198,0.006C28.073,69.84,28.131,68.793,28.188,67.747z"/>
<path fill="#4A4A4A" d="M31.407,67.707c-0.014-2.066-0.027-4.132-0.041-6.198c0.822-1.395,1.491-2.917,3.062-3.695c1.073-0.32,2.147-0.336,3.223-0.01c1.583,0.771,2.289,2.271,3.078,3.702l-0.009-0.003c0.992,1.089,2.957,1.208,3.116,3.128c-1.07,1.047-2.141,2.097-3.21,3.144c-1.085,0.039-2.167,0.079-3.25,0.119c0,0-1.18-0.263-1.177-0.254c0.001,0.013-1.183-0.024-1.183-0.024s-0.47,1.087-0.485,1.102c-0.015,0.016-1.163,0.439-1.175,0.446C32.415,69.053,31.77,68.567,31.407,67.707z"/>
<path fill="#879F92" d="M37.38,70.609c-0.86,0.149-1.726,0.198-2.597,0.152c-1.134-0.619-1.516-1.248-1.149-1.886C34,68.234,34.371,67.91,34.75,67.91l-0.225,0.098c0.989-1.077,1.987-1.138,2.997-0.03c0,0-0.145-0.085-0.146-0.085C37.589,68.797,37.591,69.703,37.38,70.609z"/>
<path fill="#879F92" d="M43.784,74.354c-0.06,0.684-0.055,1.364,0.012,2.042c-0.841,0.437-1.736,0.681-2.684,0.72C42.005,76.197,42.895,75.275,43.784,74.354z"/>
<path fill="#424242" d="M34.75,67.911c-0.183,0.952-0.172,1.901,0.032,2.851c-0.063,1.065-0.128,2.13-0.193,3.195c0.001,0-1.534,0.015-1.534,0.015s-1.535-0.018-1.534-0.018c0.001,0-0.192,0.052-0.192,0.052c-0.914-0.696-1.216-1.392-0.91-2.085c0.307-0.692,0.612-1.037,0.92-1.037c0.021-1.059,0.044-2.118,0.067-3.177C32.52,67.774,33.636,67.845,34.75,67.911z"/>
<path fill="#0E893D" d="M31.339,70.884c0.003,1.037,0.005,2.078-0.003,3.119C30.293,74,29.255,73.996,28.219,74c0-1.041,0-2.085-0.003-3.122C29.257,70.871,30.297,70.871,31.339,70.884z"/>
<path fill="#5A5A5A" d="M43.835,64.631c-1.039-1.044-2.077-2.084-3.116-3.128c2.066,1.031,4.132,2.065,6.198,3.098C45.888,64.612,44.862,64.622,43.835,64.631z"/>
<path fill="#282828" d="M65.516,52.198c0.047-1.06,0.093-2.121,0.139-3.181c1.079,0.998,2.156,1.999,3.235,2.997l-0.932,1.025c0.002,0-1.381,0.046-1.381,0.046C66.576,53.086,65.516,52.198,65.516,52.198z"/>
<path fill="#085524" d="M68.89,52.015c1.048,1.071,2.096,2.143,3.146,3.214c0.002,0-0.073,0.021-0.073,0.021c-0.548,0.448-1.095,0.9-1.642,1.354c-0.654-0.263-1.313-0.531-1.968-0.796c-0.799-1.353-0.59-2.573,0.486-3.681L68.89,52.015z"/>
<path fill="#313131" d="M59.467,52.125c-1.05-0.016-2.101-0.031-3.152-0.046c-0.971-0.806-1.557-1.819-1.698-3.082c0.187-1.233,0.679-2.323,1.519-3.25c1.12-0.714,2.222-0.65,3.305,0.091c1.065,1.071,2.13,2.143,3.195,3.217c0.046,1.059,0.092,2.118,0.138,3.174c-0.563,0.369-1.127,0.741-1.689,1.11C60.544,52.934,60.006,52.53,59.467,52.125z"/>
<path fill="#656565" d="M56.372,39.79c-0.02,0.949-0.074,1.895-0.166,2.838c-0.44,0.394-0.882,0.79-1.324,1.187c-0.588-0.104-1.172-0.208-1.761-0.312c-0.409-0.439-0.813-0.875-1.226-1.315c-0.482-1.126-0.664-2.301-0.6-3.522c0.187-0.577,0.382-1.147,0.57-1.727c0.42-0.437,0.844-0.873,1.267-1.31c1.201-0.47,2.326-0.323,3.372,0.427l-0.285,0.83c0.884,0.598,1.201,1.23,0.952,1.889C56.919,39.451,56.654,39.79,56.372,39.79z"/>
<path fill="#777777" d="M56.372,39.79c-0.001-0.97-0.052-1.941-0.15-2.905c1.145-0.052,2.292-0.104,3.438-0.156C58.566,37.748,57.468,38.771,56.372,39.79z"/>
<path fill="#3B3B3B" d="M59.44,45.838c-1.031,0.019-2.063,0.028-3.095,0.028c-0.415-0.537-0.83-1.071-1.245-1.605c0.391-0.555,0.783-1.107,1.174-1.66c0,0-0.064,0.028-0.065,0.028C57.283,43.696,58.361,44.767,59.44,45.838z"/>
<path fill="#033D12" d="M62.773,52.229c0.915-0.062,1.831-0.073,2.744-0.03c-0.001,0,0.205-0.073,0.205-0.073c0.451,0.546,0.903,1.089,1.359,1.633c-0.302,0.641-0.608,1.278-0.915,1.919c-0.653,0.271-1.309,0.547-1.963,0.821c-0.66-0.266-1.319-0.531-1.98-0.797c-0.952-1.303-0.83-2.496,0.366-3.576L62.773,52.229z"/>
<path fill="#696969" d="M46.96,33.293c2.177,0.064,4.355,0.128,6.534,0.192c0.664,0.659,0.873,1.3,0.626,1.929c-0.246,0.623-0.482,0.931-0.715,0.931l-0.346,0.369c-1.199,1.279-1.729,3.104-3.323,4.071c-1.22,0.241-2.4,0.146-3.56-0.321c-1.615-1.074-2.692-2.545-3.294-4.382c-0.185-1.3,0.116-2.484,0.827-3.577C44.991,31.943,46.074,32.209,46.96,33.293z"/>
<path fill="#5C5C5C" d="M46.96,33.293c-1.106,0.076-2.212,0.156-3.317,0.235c-1.199,0.842-2.417,0.876-3.659,0.092c-0.172-0.659-0.342-1.318-0.513-1.978c0.284-0.623,0.571-1.239,0.856-1.859c1.247-0.863,2.424-0.775,3.529,0.26c0.995,0.11,1.986,0.229,2.977,0.363C46.914,31.367,46.957,32.328,46.96,33.293z"/>
<path fill="#16CE5C" d="M53.405,36.344c-0.145-0.958-0.117-1.911,0.086-2.859c0.999-0.083,1.988-0.024,2.968,0.174c-0.076,0.806-0.063,1.605,0.046,2.402C55.471,36.155,54.438,36.25,53.405,36.344z"/>
<path fill="#349057" d="M46.534,20.377c1.173,0.159,2.347,0.32,3.52,0.482c0.021,1.029,0.013,2.054-0.025,3.08c-1.001,0.091-1.999,0.204-2.996,0.338c-0.485-0.555-0.972-1.114-1.465-1.669c0.462-0.574,0.932-1.15,1.401-1.725L46.534,20.377z"/>
<path fill="#515151" d="M46.823,26.957c-1.025,0.146-2.051,0.29-3.076,0.437c-0.423-0.562-0.847-1.123-1.277-1.688c0.45-0.537,0.906-1.077,1.363-1.617l-0.001-0.125c1.051-1.154,2.095-1.093,3.134,0.015c0,0,0.067,0.296,0.069,0.296C46.978,25.172,46.908,26.066,46.823,26.957z"/>
<path fill="#74907F" d="M43.856,30.043c-1.142,0.033-2.283,0.067-3.426,0.101c-0.705-0.76-0.92-1.501-0.644-2.222c0.272-0.708,0.531-1.065,0.781-1.065l-0.065,0.131c1.141-1.013,2.269-1.05,3.378,0.049l-0.133,0.354C43.806,28.275,43.843,29.16,43.856,30.043z"/>
<path fill="#007316" d="M50.162,17.597c1.039,0.089,2.074,0.208,3.105,0.37c-0.045,0.949-0.065,1.892-0.069,2.826c-1.032,0.073-2.067,0.104-3.102,0.083C50.118,19.782,50.141,18.69,50.162,17.597z"/>
<path fill="#242424" d="M62.614,70.865c1.02-1.043,2.039-2.084,3.058-3.128c0.474,0.516,0.944,1.031,1.424,1.548c-0.455,0.53-0.915,1.059-1.378,1.59c0,0-0.025,0.018-0.027,0.018C64.664,70.881,63.639,70.871,62.614,70.865z"/>
<path fill="#1E3F2B" d="M59.513,58.387c-0.016-1.047-0.03-2.09-0.046-3.137c1.039-1.15,2.078-1.154,3.119,0l0.204-0.013c0.955,0.727,1.255,1.426,0.9,2.097c-0.348,0.656-0.688,0.985-1.025,0.985C61.615,58.344,60.565,58.365,59.513,58.387z"/>
<path fill="#00330A" d="M62.665,58.319c-0.057-1.028-0.017-2.057,0.122-3.079c0.838,0.019,1.673,0.046,2.507,0.076c1.067,0.498,1.489,1.096,1.271,1.795c-0.233,0.751-0.502,1.126-0.811,1.126C64.727,58.311,63.697,58.341,62.665,58.319z"/>
<path fill="#0A5C29" d="M65.755,58.237c-0.049-0.988-0.199-1.962-0.458-2.921c-0.003,0,0.433-0.073,0.433-0.073c1.032-1.156,2.067-1.156,3.102-0.003l0.021,0.019c0.833,0.692,1.109,1.386,0.829,2.078c-0.281,0.689-0.561,1.035-0.841,1.035C67.811,58.368,66.782,58.323,65.755,58.237z"/>
<path fill="#00330A" d="M68.841,58.372c0.001-1.041,0.001-2.082,0.006-3.119c1.044-0.003,2.083-0.006,3.119-0.003c-0.002,1.04,0,2.084,0.001,3.125C70.925,58.372,69.883,58.372,68.841,58.372z"/>
<path fill="#5A6A62" d="M65.472,64.707c1.069-0.998,2.139-1.996,3.209-2.994c0.764,0.59,1.074,1.233,0.931,1.933c-0.151,0.729-0.338,1.092-0.558,1.092c-1.096,0.824-2.11,0.775-3.033-0.28L65.472,64.707z"/>
<path fill="#0A5C29" d="M68.296,64.598c0.267-0.946,0.395-1.908,0.386-2.888c1.073-0.018,2.148-0.039,3.223-0.058c0.008,0.964-0.011,1.929-0.054,2.893c-0.586,0.458-1.172,0.919-1.758,1.383C69.493,65.488,68.896,65.043,68.296,64.598z"/>
<path fill="#4F4F4F" d="M49.999,58.319c-2.056,0.01-4.111,0.019-6.166,0.028c-0.85-0.739-1.343-1.664-1.508-2.783c-0.235-1.7-0.396-3.4-0.525-5.131c-0.058-1.26,0.093-2.475,0.408-3.698c0.49-1.245,1.19-2.332,2.069-3.338c1.656-1.511,3.557-2.033,5.745-1.514c1.027,1.062,1.806,2.267,2.359,3.631C52.69,49.994,52.317,54.34,49.999,58.319z"/>
<path fill="#353535" d="M49.999,58.319c0.105-5.068,0.211-10.135,0.315-15.203c0.675-1.483,1.682-1.682,2.975-0.769l-0.06,0.937c1.208,0.663,2.249,1.526,3.122,2.591l-0.007-0.009c-0.001,1.049-0.003,2.099-0.004,3.149c-1.032,1.041-1.914,2.234-3.121,3.098c-0.001,2.088-0.001,4.175-0.003,6.26c0.002,1.043,0.002,2.084,0.003,3.125c-1.015,0.003-2.029,0.009-3.042,0.021C50.119,60.45,50.059,59.385,49.999,58.319z"/>
<path fill="#004D0F" d="M44.369,54.99c-0.179,1.12-0.357,2.237-0.536,3.357l-1.544,0.033l-1.544-0.058c-0.287-0.439-0.572-0.879-0.859-1.322c0.229-1.059,0.759-1.925,1.634-2.572c0.516-0.116,1.032-0.226,1.547-0.339C43.501,54.389,43.935,54.691,44.369,54.99z"/>
<path fill="#565656" d="M40.728,61.506c-1.045-1.044-2.09-2.088-3.135-3.131c0.526-0.354,1.053-0.711,1.579-1.065c0.531,0.348,1.063,0.692,1.595,1.041l-0.021-0.024C40.739,59.385,40.734,60.443,40.728,61.506z"/>
<path fill="#2B2B2B" d="M53.22,52.112c1.039-1.031,2.08-2.065,3.121-3.098c-0.005,1.022-0.013,2.045-0.026,3.064C55.283,52.106,54.252,52.118,53.22,52.112z"/>
<path fill="#3C423F" d="M62.586,55.25c-1.039,0-2.08,0-3.119,0c0-1.041,0-2.085,0-3.125c1.042,0,2.083,0,3.124,0C62.587,53.165,62.587,54.206,62.586,55.25z"/>
<path fill="#3A644B" d="M66.021,64.457c0.757,0.088,1.519,0.134,2.278,0.141c-0.003,0,1.102,0.027,1.102,0.027c0.488,1.162,0.345,2.219-0.523,3.155l-0.04-0.037c-1.037,1.157-2.076,1.16-3.117,0.007c0,0-0.049-0.01-0.049-0.013C65.787,66.645,65.904,65.553,66.021,64.457z"/>
<path fill="#134D29" d="M65.72,67.75c1.041,0,2.082,0,3.119-0.003c0,1.04,0.002,2.084,0.002,3.124c-1.041,0.004-2.083,0.004-3.124,0.004C65.719,69.831,65.719,68.79,65.72,67.75z"/>
<path fill="#3E413F" d="M24.929,49.302c-0.961-0.146-1.927-0.198-2.899-0.155c-0.061-1.096-0.121-2.194-0.18-3.293c-0.905-0.699-1.191-1.382-0.865-2.048c0.321-0.656,0.638-0.986,0.952-0.986c0.032-1.123,0.066-2.249,0.098-3.372c1.05-0.961,2.223-1.202,3.545-0.604c1.048,0.863,1.892,1.889,2.563,3.067c0.906,1.849,1.381,3.79,1.214,5.862c-0.289,0.604-0.586,1.209-0.877,1.816C27.23,50.352,26.045,50.257,24.929,49.302z"/>
<path fill="#108A3E" d="M25.067,39.936c-1.015-0.137-2.026-0.299-3.032-0.488c-0.001-1.01,0.083-2.014,0.249-3.012c0.885-1.043,1.997-1.55,3.378-1.434c1.344,0.095,2.513,0.583,3.485,1.526c0.11,0.65,0.22,1.297,0.33,1.947c-0.304,0.583-0.609,1.166-0.914,1.749C27.328,40.983,26.165,40.846,25.067,39.936z"/>
<path fill="#869E91" d="M25.103,36.198c-0.934,0.162-1.875,0.241-2.822,0.238c-0.204-0.903-0.258-1.819-0.155-2.743c0.909-1.435,1.889-1.486,2.94-0.15l-0.187-0.146c1.154,0.537,1.57,1.129,1.253,1.782C25.803,35.856,25.462,36.198,25.103,36.198z"/>
<path fill="#0E893D" d="M21.937,42.82c0.04,1.013,0.012,2.026-0.084,3.037c-0.003-0.003-1.541,0.015-1.541,0.015s-1.537-0.034-1.538-0.034c0.096-1.056,0.195-2.108,0.301-3.161C20.032,42.731,20.985,42.78,21.937,42.82z"/>
<path fill="#434343" d="M25.067,33.543l-1.477-0.04c0,0-1.466,0.186-1.465,0.189c-0.099-1.032-0.174-2.063-0.225-3.098c1.063-0.088,2.125-0.183,3.188-0.275C25.082,31.394,25.074,32.468,25.067,33.543z"/>
<path fill="#0E893D" d="M24.929,49.302c1.048-0.064,2.097-0.125,3.146-0.189c0.612,0.65,0.9,1.353,0.862,2.112c-0.038,0.787-0.138,1.181-0.298,1.184c-1.079,0.809-2.162,0.775-3.249,0.016c0,0-0.644-0.641-0.646-0.641C24.981,50.968,25.042,50.141,24.929,49.302z"/>
<path fill="#3D3D3D" d="M21.891,58.378c0.051-1.09,0.101-2.179,0.151-3.269c1.008,0.064,2.014,0.061,3.021-0.009c1.051-1.087,2.223-1.294,3.533-0.485c0.707,1.291,0.651,2.523-0.282,3.692l-0.13,0.109c-0.737,1.014-1.732,1.548-2.986,1.605c-1.248-0.058-2.266-0.583-3.082-1.517L21.891,58.378z"/>
<path fill="#004D0F" d="M28.127,55.055l-1.53,0.115c0,0-1.534-0.063-1.534-0.066c-0.011-0.913,0.096-1.807,0.324-2.686c0.834-0.217,1.678-0.312,2.536-0.278c0.657,0.604,0.906,1.239,0.748,1.901C28.509,54.716,28.327,55.055,28.127,55.055z"/>
<path fill="#5A5A5A" d="M31.6,36.479c1.001,0.061,2.002,0.131,3.003,0.213c1.845,0.8,3.146,2.075,3.587,4.105c-0.373,2.185-1.799,3.265-3.859,3.692c-1.335-0.027-2.557-0.415-3.672-1.147c-0.798-1.108-1.067-2.341-0.887-3.684c0.096-0.647,0.195-1.297,0.293-1.947C30.575,37.302,31.088,36.891,31.6,36.479z"/>
<path fill="#858585" d="M40.736,33.347c0.971,0.058,1.941,0.116,2.908,0.177c0.075,0.977,0.118,1.953,0.128,2.933c-0.439,0.434-0.879,0.867-1.318,1.303c-1.193,0.412-2.399,0.449-3.616,0.113c-0.417-0.455-0.835-0.909-1.253-1.364c0.003-1.046,0.004-2.09,0.008-3.137C38.627,31.764,39.677,31.831,40.736,33.347z"/>
<path fill="#414141" d="M25.103,36.198c0.058-0.943-0.016-1.877-0.222-2.802c1.128-0.055,2.255-0.11,3.385-0.165c1.109,1.08,2.218,2.164,3.331,3.247c0.003,0-0.266,0.021-0.266,0.021c-1.039,1.547-2.078,1.626-3.121,0.003C27.175,36.402,26.139,36.298,25.103,36.198z"/>
<path fill="#505050" d="M37.614,39.634c-1.004-0.982-2.009-1.962-3.012-2.942c0.993-0.106,1.986-0.167,2.983-0.183l-0.015,0.016c0.404,0.513,0.81,1.025,1.214,1.538C38.393,38.584,38.004,39.109,37.614,39.634z"/>
<path fill="#007316" d="M40.568,26.856c-0.044,1.095-0.088,2.191-0.136,3.287c-0.001,0,0.233,0.009,0.233,0.009c-1.016,1.221-2.023,1.272-3.022-0.019c-0.063-1.035-0.029-2.063,0.105-3.091C38.701,27.155,39.64,27.091,40.568,26.856z"/>
<path fill="#6D6D6D" d="M37.643,30.134c1.008,0.122,2.017,0.131,3.024,0.024c0.021,1.062,0.044,2.127,0.067,3.192c-1.047,0.006-2.094,0.015-3.142,0.021C37.609,32.294,37.626,31.214,37.643,30.134z"/>
<path fill="#5A5A5A" d="M43.881,27.036c-1.123-0.015-2.248-0.03-3.375-0.045c0.203-0.989,0.232-1.979,0.081-2.976c1.08,0.021,2.164,0.042,3.246,0.07C43.833,25.071,43.85,26.054,43.881,27.036z"/>
<path fill="#007316" d="M46.964,23.979c-1.042,0.003-2.086,0.003-3.131-0.006c0.012-1.031,0.012-2.054-0.005-3.067c1.042,0,2.091-0.012,3.139-0.024C46.969,21.916,46.967,22.947,46.964,23.979z"/>
<path fill="#00330A" d="M68.877,67.78c0.173-1.05,0.345-2.103,0.521-3.155c0.821-0.007,1.639-0.034,2.455-0.08C70.86,65.623,69.869,66.703,68.877,67.78z"/>
<path fill="#879F92" d="M22.115,58.506c0.952-0.079,1.903-0.067,2.854,0.037c0.493,0.457,0.985,0.915,1.484,1.373c-0.465,0.482-0.935,0.967-1.407,1.449c-0.916,0.04-1.831,0.098-2.744,0.177C22.08,60.541,22.018,59.528,22.115,58.506z"/>
<path fill="#004D0F" d="M28.108,61.487c0.047,1.017,0.023,2.032-0.077,3.046c-0.003-0.003-1.468,0.012-1.468,0.012s-1.462-0.094-1.462-0.098c0.006-1.028-0.012-2.054-0.055-3.082l-0.041,0.086C26.052,60.307,27.087,60.37,28.108,61.487z"/>
<path fill="#434343" d="M28.127,55.055c0.049-0.979-0.017-1.95-0.201-2.915c0.182-1.001,0.233-2.011,0.149-3.027l0.21-0.188c0.963-0.815,2.068-1.123,3.317-0.943c2.391,0.57,4.476,1.688,6.151,3.513c0.285,0.507,0.564,1.031,0.847,1.541c0.037,0.577,0.067,1.163,0.104,1.739c-0.63,0.989-1.519,1.651-2.649,1.978c-1.076,0.317-2.125,0.729-3.134,1.239c-0.542,0.146-1.086,0.29-1.631,0.437c-0.993-0.019-1.986-0.059-2.979-0.119C28.251,57.225,28.188,56.138,28.127,55.055z"/>
<path fill="#0E893D" d="M28.108,61.487l-1.549,0.006c0,0-1.55-0.039-1.552-0.039c0.082-0.977,0.07-1.947-0.037-2.915c1.071-0.039,2.142-0.082,3.213-0.125C28.236,59.442,28.211,60.465,28.108,61.487z"/>
<path fill="#434343" d="M34.47,58.359c-1.035,1.05-2.071,2.1-3.105,3.149c-0.023-1.028-0.047-2.057-0.073-3.082c-0.002,0,0.091-0.083,0.091-0.083c0.517-0.402,1.035-0.802,1.55-1.208C33.447,57.542,33.958,57.95,34.47,58.359z"/>
<path fill="#404040" d="M34.458,55.253c1.03,0.009,2.06,0.024,3.09,0.039c0.986,0.669,1.317,1.343,0.997,2.023c-0.322,0.681-0.646,1.022-0.974,1.022l0.021,0.037c-1.041-0.01-2.082-0.016-3.122-0.016l0.012,0.021c-0.737-0.689-0.987-1.383-0.749-2.078C33.973,55.604,34.214,55.253,34.458,55.253z"/>
<path fill="#3E3E3E" d="M37.522,67.979l-1.499-0.109c0,0-1.497,0.14-1.499,0.14c0.485-0.579,0.971-1.159,1.486-1.779C36.535,66.837,37.029,67.408,37.522,67.979z"/>
<path fill="#5A6A62" d="M68.831,55.24c-1.037,0.01-2.075,0.013-3.108,0.007c-0.006-1.041-0.009-2.082-0.003-3.122c1.042,0,2.082,0,3.121,0.003C68.845,53.165,68.842,54.203,68.831,55.24z"/>
<path fill="#737373" d="M53.289,42.347c-0.984,0.281-1.977,0.537-2.976,0.766c-1.146-0.055-2.292-0.11-3.439-0.165c-1.094,0.738-2.109,0.644-3.044-0.293c-0.533-1.145-0.461-2.261,0.134-3.363c1.104-0.799,2.104-0.644,3.013,0.33c1.007-0.009,2.015-0.006,3.021,0.009c1.025-1.092,2.073-1.172,3.15-0.076C53.195,40.485,53.24,41.416,53.289,42.347z"/>
<path fill="#848484" d="M53.15,39.555c-1.05,0.024-2.1,0.052-3.15,0.076c1.021-0.974,2.04-1.947,3.061-2.92C53.144,37.66,53.174,38.606,53.15,39.555z"/>
<path fill="#303030" d="M56.352,45.875c-1.041-0.864-2.082-1.73-3.122-2.594c0.993-0.32,2.01-0.549,3.045-0.681C56.299,43.693,56.325,44.782,56.352,45.875z"/>
<path fill="#757575" d="M46.978,39.622c-1.031-0.006-2.063-0.012-3.096-0.018c-0.409-0.513-0.818-1.028-1.229-1.541c0.392-0.528,0.786-1.056,1.178-1.584c0,0-0.058-0.021-0.06-0.021C44.84,37.513,45.91,38.566,46.978,39.622z"/>
<path fill="#4C4C4C" d="M43.882,39.604c0.053,1.004,0.076,2.008,0.07,3.012c0,0-0.192,1.282-0.187,1.282c0.006,0-1.27,0.055-1.27,0.055s1.099,0.65,1.105,0.65c0.006,0,0.243,1.27,0.243,1.27c-0.026,1.111-0.052,2.222-0.078,3.333c-0.567,0.797-1.245,1.486-2.029,2.075c-0.824,0.567-1.738,0.885-2.733,0.968c0.001,0.006-1.454,0.122-1.454,0.122c-2.075-1.117-4.149-2.234-6.223-3.354c0,0,0.054-1.455,0.049-1.455c0.055-1.008,0.394-1.908,1.004-2.704c0.633-0.738,1.324-1.416,2.072-2.039c1.055-1.062,2.107-2.124,3.162-3.183l-0.02-0.012c2.083-1.88,4.166-1.886,6.244,0.009L43.882,39.604z"/>
<path fill="#494949" d="M43.952,42.616c0.982,0.045,1.956,0.155,2.922,0.33c-1.01,0.977-2.021,1.95-3.03,2.926l0.001,0.003c-0.63-0.687-0.841-1.374-0.632-2.063c0.208-0.687,0.417-1.032,0.627-1.032L43.952,42.616z"/>
<path fill="#13833E" d="M40.719,49.164c1.016-0.073,2.032-0.061,3.047,0.037c0.098,0.979,0.22,1.956,0.363,2.93c-0.574,0.396-1.149,0.797-1.724,1.196c-0.67-0.204-1.34-0.412-2.011-0.619c-0.322-0.626-0.643-1.249-0.964-1.874C39.857,50.275,40.287,49.72,40.719,49.164z"/>
<path fill="#454545" d="M44.129,52.131c0.398,0.665,0.861,1.306,1.14,2.018c0.057,0.143-0.586,0.558-0.903,0.845c0.003-0.003-0.814,0.363-0.814,0.363c-0.905-0.735-1.203-1.465-0.896-2.194c0.305-0.727,0.609-1.089,0.914-1.089L44.129,52.131z"/>
<path fill="#025716" d="M43.569,52.073c-0.003,1.095-0.007,2.188-0.015,3.283c-0.902-0.073-1.802-0.109-2.702-0.113c-0.417-0.513-0.832-1.025-1.249-1.538c0.5-0.433,1.001-0.863,1.503-1.294C41.924,52.269,42.744,52.155,43.569,52.073z"/>
<path fill="#454545" d="M37.571,58.338c0.011-1.016,0.004-2.032-0.023-3.046l0.091-0.088c1.025-1.429,1.969-1.443,2.817,0.165c0,0,0.392-0.126,0.394-0.126c-0.082,1.035-0.111,2.069-0.083,3.107C39.701,58.348,38.636,58.341,37.571,58.338z"/>
<path fill="#4C4C4C" d="M31.327,49.015c-1.015-0.006-2.029-0.036-3.042-0.091c-1.05-2.124-2.1-4.249-3.149-6.373c0.994-0.998,1.956-2.023,2.89-3.076l0.198,0.153c1.038-1.132,2.077-1.193,3.118-0.006c0.004,1.035,0.007,2.069,0.007,3.104c0.977,0.79,1.483,1.8,1.448,3.067c-0.133,1.223-0.633,2.283-1.448,3.198L31.327,49.015z"/>
<path fill="#004D0F" d="M28.025,39.475c-0.963,1.025-1.927,2.051-2.89,3.076c-0.026-0.873-0.049-1.746-0.068-2.615C26.045,39.738,27.032,39.582,28.025,39.475z"/>
<path fill="#3D3D3D" d="M31.341,39.622l-1.563,0.003c0,0-1.561,0-1.558,0c0.001-1.041-0.001-2.082-0.006-3.125c1.041,0.003,2.084,0,3.124,0C31.343,37.541,31.345,38.581,31.341,39.622z"/>
<path fill="#494949" d="M31.343,45.869c0.001-1.047,0.004-2.097,0.006-3.143c1.035,0.018,2.069,0.045,3.104,0.091c0.008,1.016,0.014,2.036,0.016,3.052C33.425,46.876,32.385,46.876,31.343,45.869z"/>
<path fill="#6D6D6D" d="M43.838,39.631c-2.081-0.003-4.163-0.006-6.244-0.009c0.003-1.031-0.003-2.066-0.023-3.101c2.086-0.012,4.175-0.024,6.261-0.04C43.833,37.531,43.836,38.581,43.838,39.631z"/>
<path fill="#216C3D" d="M40.456,55.369c-0.938-0.08-1.878-0.135-2.818-0.165c-0.027-0.949-0.056-1.896-0.088-2.838c0,0.003,0.107-0.199,0.107-0.199c0.812-0.918,1.739-1.01,2.768-0.387c0,0,0.676,0.628,0.679,0.631C40.848,53.388,40.63,54.374,40.456,55.369z"/>
<path fill="#505050" d="M34.458,55.253c0.008,1.044,0.017,2.084,0.024,3.128c-1.033-0.009-2.066-0.021-3.099-0.037C32.409,57.313,33.434,56.284,34.458,55.253z"/>
<path fill="#505050" d="M43.841,42.78c0.002,1.032,0.003,2.063,0.005,3.095c-0.394-0.736-0.859-1.45-1.119-2.231C42.678,43.495,43.448,43.073,43.841,42.78z"/>
<path fill="#505050" d="M31.343,45.869c1.042,0,2.084,0,3.125,0c-1.039,1.041-2.08,2.082-3.119,3.122C31.344,47.95,31.343,46.909,31.343,45.869z"/>
<path fill="#6A7871" d="M40.425,51.78c-0.911,0.22-1.834,0.351-2.77,0.387c1.022-1.001,2.043-2.005,3.064-3.006C40.713,50.047,40.614,50.916,40.425,51.78z"/>
</svg>