<?xml version="1.0" encoding="utf-8"?>
<!DOCTYPE svg PUBLIC "-//W3C//DTD SVG 1.1//EN" "http://www.w3.org/Graphics/SVG/1.1/DTD/svg11.dtd">
<svg version="1.1" xmlns="http://www.w3.org/2000/svg" xmlns:xlink="http://www.w3.org/1999/xlink" x="0px" y="0px" width="100px" height="100px" viewBox="0 0 100 100" enable-background="new 0 0 100 100" xml:space="preserve">
<path d="M46.967-1c2.083,0,4.167,0,6.25,0c12.657,5.987,27.922,4.849,41.16,15.933c5.531,20.624,1.564,43.201,2.128,64.117c-27.381,25.3-65.445,25.3-91.131,1.566C1.681,64.054,2.432,26.814,6.748,14.454C17.816,3.416,33.974,5.296,46.967-1z"/>
<path fill="#FFFFFF" d="M22.839,43.849c1.451,0,2.904,0,9.122,0c-5.797,2.203-7.156,2.722-8.516,3.237C23.243,46.009,23.04,44.929,22.839,43.849z"/>
</svg>