<?xml version="1.0" encoding="utf-8"?>
<!DOCTYPE svg PUBLIC "-//W3C//DTD SVG 1.1//EN" "http://www.w3.org/Graphics/SVG/1.1/DTD/svg11.dtd">
<svg version="1.1" xmlns="http://www.w3.org/2000/svg" xmlns:xlink="http://www.w3.org/1999/xlink" x="0px" y="0px" width="100px" height="100px" viewBox="0 0 100 100" enable-background="new 0 0 100 100" xml:space="preserve">
<path fill="#6C5835" d="M43.827,8.281c18.092-13.607,29.62,2.89,43.317,9.442c-4.232,4.342-9.626,6.363-15.368,7.718c-9.395-0.186-16.089-6.625-23.979-10.333C45.392,13.463,42.354,12.172,43.827,8.281z"/>
<path fill="#423720" d="M87.097,26.957c0.006,8.38,0.012,16.76,0.02,25.14c-1.671,4.163-4.579,5.743-8.949,4.31c-3.302-1.953-5.961-4.551-7.865-7.904c-1.168-2.957-1.005-5.884,0.224-8.786c2.482-3.76,3.898-8.093,6.284-11.926C79.998,24.55,83.395,23.82,87.097,26.957z"/>
<path fill="#755E3D" d="M50.18,85.932c-3.134-1.395-6.27-2.792-8.91-3.968c0-9.582,0-18.273,0-26.965c5.576-3.006,8.533,0.445,11.246,4.541C54.982,68.62,56.628,77.637,50.18,85.932z"/>
<path fill="#635230" d="M50.18,85.932c-0.006-9.149-0.013-18.302-0.019-27.453c0.688-0.342,1.377-0.688,2.063-1.038c9.074,1.12,14.068,5.478,12.164,15.308c-4.578,4.452-3.32,11.828-8.052,16.227C54.285,87.962,52.233,86.945,50.18,85.932z"/>
<path fill="#77613F" d="M56.337,88.975c2.068-5.015,4.138-10.028,6.207-15.043c1.134,0.718,2.037,1.657,2.735,2.799c1.308,4.718,5.853,6.988,8.286,10.873c1.04,2.863,0.81,5.481-1.464,7.706C66.847,93.199,61.592,91.087,56.337,88.975z"/>
<path fill="#8A8A8A" d="M18.744,23.747c7.205-2.048,14.41-4.092,21.616-6.14c0.419,0.327,0.837,0.65,1.26,0.974c0.09,0.522,0.175,1.047,0.276,1.565c-0.063,0.519-0.143,1.041-0.183,1.569c-0.117,1.632,0.073,3.241,0.412,4.861c0.078,0.592,0.121,1.163,0.182,1.758c-0.113,1.251-0.496,2.386-1.126,3.464c-1.222,1.581-2.756,2.686-4.686,3.229c-2.052,0.299-3.961-0.113-5.754-1.123c-3.629-2.869-7.655-5.222-11.069-8.383C19.356,24.934,19.049,24.342,18.744,23.747z"/>
<path fill="#463822" d="M43.827,8.281c2.073,1.31,4.148,2.622,6.223,3.934c2.006,1.703,2.54,3.897,2.144,6.387c-1.265,1.88-1.701,3.836-0.368,5.933c0.237,1.208,0.216,2.389-0.031,3.583c-1.063,2.6-3.032,3.806-5.791,3.821c-1.271-0.232-2.364-0.812-3.308-1.685c-0.452-1.184-1.088-2.261-1.912-3.229l0.328-0.507c-2.2-1.807-2.199-3.745-0.345-5.792l-0.015,0.018c1.023-0.909,1.343-1.999,0.84-3.299l-0.682-0.418c0,0-0.549,0.583-0.549,0.58C41.514,14.497,42.671,11.39,43.827,8.281z"/>
<path fill="#4E3F29" d="M87.113,61.35c0,3.159,0,6.317,0,9.476c-1.483,3.504-3.811,6.18-7.439,7.593c-2.12,0.787-4.278,0.913-6.463,0.284c-1.342-0.641-2.365-1.627-3.079-2.93c-1.055-2.854-0.834-5.621,0.584-8.307c1.729-2.295,4.147-3.672,6.644-4.947C80.494,61.231,83.603,59.559,87.113,61.35z"/>
<path fill="#342A1A" d="M87.095,26.957c-2.943,1.062-5.888,2.124-8.833,3.186c-2.17,1.862-4.33,1.557-6.488-0.024c-1.498-2.194-1.74-4.388,0.01-6.58c5.119-1.938,10.24-3.875,15.36-5.816C87.127,20.802,87.113,23.878,87.095,26.957z"/>
<path fill="#4E3F29" d="M72.102,95.31c-0.126-2.994-0.253-5.987-0.38-8.981c0.355-0.537,0.71-1.077,1.056-1.626c1.936-1.811,4.21-3.076,6.612-4.166c2.533-0.937,5.073-1.855,7.721-0.375C89.881,92.915,80.229,93.357,72.102,95.31z"/>
<path fill="#8A8A8A" d="M12.407,35.96c2.112-4.071,4.224-8.142,6.337-12.213l0.902,0.739c2.666,1.565,4.62,3.631,4.892,6.906c0.114,4.013-1.323,7.446-3.896,10.465c-1.817,1.718-3.928,2.45-6.417,1.904C10.794,41.82,10.234,39.207,12.407,35.96z"/>
<path fill="#9D9D9D" d="M12.407,35.96c1.126,2.215,2.25,4.431,3.377,6.646c1.807,1.028,3.789,1.895,4.033,4.367c-0.735,2.183-1.669,3.934-4.301,1.966c-2.933-1.242-5.866-2.484-10.138-4.291C8.376,40.941,10.391,38.45,12.407,35.96z"/>
<path fill="#302718" d="M87.113,61.35c-2.939,1.077-5.877,2.151-8.815,3.229c-1.85-1.507-2.408-3.512-2.232-5.801c0.361-1.44,1.109-2.646,2.237-3.613c2.938-1.022,5.876-2.045,8.814-3.067C87.116,55.183,87.114,58.265,87.113,61.35z"/>
<path fill="#433620" d="M50.161,58.479c-2.963-1.16-5.928-2.319-8.891-3.479c-0.247-3.061-0.494-6.119-0.742-9.177c0.528-0.476,1.056-0.952,1.585-1.434c1.384-0.461,2.792-0.567,4.236-0.339c0.666,0.293,1.321,0.595,1.99,0.885c0.557,0.47,1.102,0.949,1.663,1.419c0.95,1.129,1.675,2.393,2.209,3.769c0.702,3.021,0.494,5.811-2.135,7.941L50.161,58.479z"/>
<path fill="#9A9A9A" d="M27.901,55.375c-1.985-1.064-3.97-2.13-5.956-3.194c-2.075-3.439,0.154-6.195,1.438-9.11c0.937-0.979,2.067-1.605,3.409-1.849c2.037,0.012,3.888,0.677,5.66,1.624c0.546,0.363,1.083,0.748,1.628,1.117c0.43,0.495,0.85,1.004,1.274,1.508c0.336,1.34,0.034,2.545-0.812,3.625l0.21-0.21C32.475,51.057,31.281,54.368,27.901,55.375z"/>
<path fill="#4B3C25" d="M87.111,80.162c-2.945,1.028-5.89,2.054-8.835,3.082c-1.672-2.081-1.898-4.163-0.014-6.253c2.949-2.054,5.899-4.111,8.851-6.165C87.111,73.936,87.111,77.049,87.111,80.162z"/>
<path fill="#878787" d="M24.731,43.58c-0.929,2.866-1.858,5.731-2.786,8.6c-2.144-1.081-4.286-2.161-6.43-3.241c1.103-1.053,2.206-2.109,3.308-3.162c0.557-1.855,1.746-3.183,3.415-4.114C23.59,41.624,24.446,42.228,24.731,43.58z"/>
<path fill="#4C4C4C" d="M27.901,55.375c2.284-2.163,4.567-4.327,6.851-6.49c-1.028,2.105-2.058,4.208-3.087,6.311c-1.084,0.974-2.098,0.903-3.041-0.207L27.901,55.375z"/>
<path fill="#434343" d="M40.529,45.823l-1.311-0.122l-1.309,0.122c-1.088,1.056-2.113,0.998-3.076-0.174l-0.853,0.32c-0.789-1.168-0.906-2.383-0.241-3.653c1.03-0.891,2.219-1.437,3.564-1.645c1.363,0.042,2.609,0.46,3.754,1.193c0.801,1.169,0.928,2.393,0.279,3.674L40.529,45.823z"/>
<path fill="#353535" d="M34.833,45.649c1.024,0.089,2.048,0.146,3.075,0.174c-1.122,1.09-2.243,2.183-3.366,3.271C34.639,47.947,34.737,46.8,34.833,45.649z"/>
<path fill="#3C3C3C" d="M28.624,54.988c1.007,0.158,2.021,0.229,3.041,0.207c-0.441,0.77-0.882,1.538-1.814,3.165C29.291,56.819,28.958,55.903,28.624,54.988z"/>
<path fill="#4A3D25" d="M71.784,23.539c0.098,2.161,0.193,4.321,0.291,6.485c-0.451,0.5-0.903,1.001-1.352,1.508c-2.521,1.395-5.15,1.346-7.834,0.607c-3.716-1.428-7.194-3.241-9.833-6.351c-1.019-1.629-2.171-3.195-2.913-4.996c-0.03-2.862-0.063-5.725-0.094-8.584C57.293,15.99,64.538,19.764,71.784,23.539z"/>
<path fill="#645330" d="M72.2,39.482c-0.03,3.116-0.06,6.235-0.09,9.35c2.481,3.446,2.626,6.794-0.404,10.02c-17.117,2.902-12.567-8.258-11.261-17.331c2.233-3.656,5.455-4.754,9.519-3.644C70.707,38.41,71.453,38.945,72.2,39.482z"/>
<path fill="#4E3F29" d="M72.075,30.024c2.063,0.04,4.125,0.08,6.188,0.119c-2.021,3.113-4.045,6.226-6.065,9.338c0.003,0-0.263,0.009-0.263,0.009c-2.435-3.049-2.476-6.113-0.065-9.195L72.075,30.024z"/>
<path fill="#4B3C25" d="M71.903,58.113c0.068-3.092,0.137-6.187,0.207-9.281c2.064,2.112,4.128,4.221,6.19,6.33c-0.024,1.01-0.041,2.02-0.05,3.03c-1.348,1.709-3.069,1.947-5.021,1.275C72.787,59.019,72.345,58.564,71.903,58.113z"/>
<path fill="#493B24" d="M62.689,39.457c2.022,6.738-5.974,18.423,9.215,18.659c-0.001-0.003,0.265,0.293,0.265,0.293c2.391,3.088,2.392,6.143-0.144,9.155c-0.032,3.18-0.064,6.359-0.098,9.539c-3.151,2.576-6.208,2.399-9.176-0.317c-0.021-0.955-0.09-1.907-0.207-2.854c-4.155-5.288-8.312-10.577-12.467-15.868c0.017-3.076,0.034-6.149,0.052-9.226c0.433-0.33,0.865-0.659,1.296-0.992c1.128-0.125,2.103,0.22,2.952,0.955c1.871,0.629,0.426-0.766,0.411-0.849c-0.4-2.041,0.32,0.81-0.038-1.257c0.514-2.356,1.625-4.397,3.142-6.244c0.884-0.854,1.921-1.428,3.125-1.694C61.574,38.99,62.132,39.222,62.689,39.457z"/>
<path fill="#705938" d="M62.751,76.786c3.06,0.104,6.119,0.211,9.177,0.314c-0.001,0.003-0.011-0.073-0.011-0.073c2.69,3.03,2.599,6.155,0.316,9.356c0,0-0.505-0.055-0.509-0.055c-2.35-0.283-4.696-0.57-7.767-0.942C63.526,82.303,63.138,79.545,62.751,76.786z"/>
<path fill="#828282" d="M37.452,42.573c-0.935,0.021-1.863,0.11-2.785,0.272c-2.167-0.342-2.083,2.002-3.315,2.777c-0.963-0.937-1.926-1.877-2.89-2.817c-3.567-3.451-1.817-6.335,0.974-9.109c0.665-0.266,1.335-0.525,2.003-0.787c2.057,0.104,4.112,0.208,6.169,0.311c1.129,0.967,1.85,2.188,2.22,3.623C40.016,39.158,39.288,41.096,37.452,42.573z"/>
<path fill="#787878" d="M22.038,29.405c-0.801-1.642-1.602-3.284-2.399-4.923c3.938,2.814,7.871,5.622,11.801,8.429c-0.001-0.003-0.042,0.247-0.042,0.247C27.03,35.023,24.289,32.826,22.038,29.405z"/>
<path fill="#787878" d="M38.112,37.157c-0.167-1.313-0.335-2.625-0.503-3.937c1.038-1.059,2.075-2.115,3.114-3.174c0.925-1.145,1.752-1.077,2.479,0.205l1.27-0.324c0.614,1.053,0.748,2.161,0.414,3.336c-0.728,1.669-1.854,3-3.386,3.992C40.358,37.727,39.227,37.694,38.112,37.157z"/>
<path fill="#735E3B" d="M40.765,20.726c0.113,1.932,0.227,3.863,0.343,5.792c-1.63-0.885-3.261-1.773-6.961-3.781C37.717,21.65,39.241,21.19,40.765,20.726z"/>
<path fill="#828282" d="M43.202,30.25c-0.824-0.11-1.649-0.177-2.479-0.202c0.029-1.01,0.049-2.017,0.06-3.024C41.589,28.099,42.395,29.176,43.202,30.25z"/>
<path fill="#735E3B" d="M41.591,17.445c0.146,0.861,0.396,1.724,0.373,2.582c-0.008,0.25-0.788,0.479-1.213,0.717C41.031,19.645,41.312,18.544,41.591,17.445z"/>
<path fill="#765F3D" d="M53.254,23.866c3.149,2.042,6.299,4.086,9.448,6.131c0.772,0.574,1.142,1.242,1.109,2.005c-0.033,0.812-0.149,1.218-0.348,1.221c-0.984,0.854-2.121,1.325-3.432,1.367c-2.565-0.363-4.831-1.443-6.931-2.92c-1.55-1.196-1.756-3.25-2.966-4.672c0.014-1.046,0.027-2.093,0.041-3.14C51.207,22.66,52.233,22.663,53.254,23.866z"/>
<path fill="#403724" d="M50.136,26.997c1.057,0.968,2.114,1.938,3.172,2.909c1.788,1.907,1.931,4.046,0.898,6.356c-1.794,1.84-3.98,2.246-6.414,1.761c-1.505-0.577-2.7-1.542-3.591-2.884c-0.221-0.75-0.439-1.501-0.658-2.255c0.162-1.029,0.47-2.014,0.925-2.954C46.359,28.95,48.248,27.973,50.136,26.997z"/>
<path fill="#735E3B" d="M53.254,23.866c-1.026,0-2.052-0.003-3.079-0.009c-0.415-0.723-0.896-1.422-1.181-2.191c-0.049-0.131,0.744-0.574,1.148-0.873C51.181,21.818,52.217,22.841,53.254,23.866z"/>
<path fill="#2C2315" d="M72.025,67.564c0.047-3.055,0.093-6.106,0.142-9.158c2.029-0.07,4.058-0.141,6.084-0.214c0.017,2.13,0.031,4.257,0.047,6.387C76.206,65.574,74.117,66.569,72.025,67.564z"/>
<path fill="#423720" d="M72.234,86.384c-0.104-3.118-0.209-6.237-0.314-9.359c2.113-0.009,4.228-0.021,6.343-0.033c0.003,2.084,0.008,4.168,0.013,6.253C76.262,84.291,74.247,85.338,72.234,86.384z"/>
<path fill="#ABABAB" d="M22.038,29.405c3.12,1.251,6.241,2.502,9.36,3.753c-0.98,3.213-1.959,6.43-2.938,9.646c-1.241,0.256-2.484,0.513-3.729,0.769c-0.979-0.171-1.965-0.305-2.956-0.403c-1.613-0.442-1.719-2.377-3.067-3.085C19.82,36.528,20.929,32.966,22.038,29.405z"/>
<path fill="#828282" d="M18.709,40.086c1.024,1.028,2.048,2.054,3.07,3.082c-0.986,0.873-1.97,1.74-2.954,2.609c-1.015-1.056-2.028-2.115-3.041-3.171C16.759,41.767,17.734,40.928,18.709,40.086z"/>
<path fill="#4C3D27" d="M46.976,36.339c2.064,0.024,4.129,0.052,6.193,0.076c1.155,1.007,1.918,2.252,2.298,3.738c0.195,3.339-0.969,5.82-4.357,6.896c-1.551,0.165-2.898-0.299-4.075-1.306l-0.139-0.03c-0.975-1.078-1.947-1.129-2.913,0.012c-0.889,0-1.774-0.061-2.65-0.186c-0.22-1.016-0.441-2.032-0.664-3.048c-0.754-0.543-1.122-1.184-1.099-1.923c0.023-0.787,0.13-1.178,0.319-1.178c1.132-1.447,2.421-2.734,3.882-3.854C45.015,35.099,46.083,35.368,46.976,36.339z"/>
<path fill="#3D321F" d="M43.983,45.725c0.972-0.003,1.944-0.006,2.915-0.009C45.924,45.725,44.954,45.729,43.983,45.725z"/>
<path fill="#5E4C2F" d="M47.035,45.744c1.04-0.009,2.077-0.012,3.115-0.009c1.069,0.705,1.419,1.401,1.054,2.09c-0.361,0.687-0.723,1.028-1.088,1.028l0.014-0.015C49.098,47.806,48.067,46.775,47.035,45.744z"/>
<path fill="#888888" d="M31.352,45.622c0.267-1.318,0.534-2.64,0.832-4.107c0.987,0.528,1.735,0.928,2.482,1.327c-0.227,1.044-0.456,2.087-0.687,3.128C33.107,45.829,32.233,45.714,31.352,45.622z"/>
<path fill="#353535" d="M40.794,39.43c-0.02,1.022-0.061,2.042-0.124,3.061c-1.073,0.027-2.144,0.055-3.216,0.082c0.216-1.81,0.433-3.616,0.654-5.42c0.896-0.232,1.799-0.418,2.711-0.555c0.829,0.638,1.1,1.27,0.816,1.895C41.356,39.118,41.075,39.43,40.794,39.43z"/>
<path fill="#6F5837" d="M62.608,33.357c0.031-1.12,0.062-2.24,0.094-3.36c3.058,0.098,6.115,0.192,9.17,0.293c0.021,3.07,0.043,6.137,0.064,9.201c-3.084-0.009-6.166-0.021-9.248-0.034c0.001,0-0.116,0.085-0.116,0.085C60.735,37.47,60.822,35.407,62.608,33.357z"/>
<path fill="#423720" d="M50.116,48.853c0.014-1.037,0.024-2.078,0.034-3.119c1.042-2.087,2.083-4.175,3.125-6.259c0.766-1.071,1.796-1.401,3.058-1.096c1.75,0.894,2.08,2.854,3.179,4.239c-1.043,2.084-2.085,4.169-3.127,6.253c-1.03,0.982-2.063,0.985-3.096,0.003C52.231,48.869,51.173,48.863,50.116,48.853z"/>
<path fill="#4F4029" d="M59.511,42.619c-1.047-1.05-2.094-2.097-3.141-3.146c-1.749-3.528,0.369-5.09,3.198-6.29c1.015,0.04,2.028,0.098,3.039,0.171c-0.012,2.063-0.024,4.126-0.036,6.189C61.551,40.568,60.532,41.594,59.511,42.619z"/>
<path fill="#5D4B2E" d="M53.288,48.875c1.031-0.006,2.064-0.009,3.096-0.003C55.353,48.872,54.32,48.875,53.288,48.875z"/>
<path fill="#353534" d="M40.794,39.43c-0.015-0.946-0.006-1.889,0.026-2.832c0.91-1.236,1.817-2.472,2.726-3.711c-0.002-0.003,0.653,0.665,0.653,0.665c0.648,0.684,0.824,1.322,0.528,1.911c-0.284,0.567-0.551,0.852-0.799,0.852C42.883,37.352,41.84,38.392,40.794,39.43z"/>
<path fill="#352B1B" d="M59.569,33.183c-1.065,2.097-2.132,4.193-3.198,6.29l-1.549,0.012l-1.547-0.009c-0.029-1.022-0.063-2.042-0.104-3.061c0.046-2.167,0.092-4.336,0.138-6.506C55.396,30.998,57.483,32.091,59.569,33.183z"/>
<path fill="#31291B" d="M43.927,36.314c0.003-0.931,0.091-1.853,0.269-2.765c0.929,0.931,1.855,1.862,2.78,2.79l-1.524,0.006L43.927,36.314z"/>
</svg>