<?xml version="1.0" encoding="utf-8"?>
<!DOCTYPE svg PUBLIC "-//W3C//DTD SVG 1.1//EN" "http://www.w3.org/Graphics/SVG/1.1/DTD/svg11.dtd">
<svg version="1.1" xmlns="http://www.w3.org/2000/svg" xmlns:xlink="http://www.w3.org/1999/xlink" x="0px" y="0px" width="100px" height="100px" viewBox="0 0 100 100" enable-background="new 0 0 100 100" xml:space="preserve">
<path fill="#3E221B" d="M80.768,49.885c-0.877,7.178-1.755,14.353-2.632,21.53c-4.345-1.246-4.536-5.851-7.004-8.619c-3.252-5.264-8.669-8.99-10.731-15.103c-1.188-2.997-2.647-5.924-2.181-9.305c0.351-1.669,1.166-3.058,2.45-4.169c2.242-1.288,4.72-1.233,7.186-1.3c1.622,0.021,3.214,0.247,4.809,0.592C78.299,37.494,76.71,45.078,80.768,49.885z"/>
<path fill="#542E24" d="M28.27,74.372c-2.15-1.044-4.298-2.085-6.449-3.129c-2.666-3.274-1.038-7.11-1.395-10.699c0.439-1.468,1.096-2.826,1.975-4.083c1.918-2.601,4.146-4.682,7.645-4.709c2.438-0.061,4.816,0.101,6.879,1.614c1.118,1.233,1.777,2.674,1.982,4.321c0.189,2.393,0.18,4.795,0.183,7.188c-0.02,2.341-0.015,4.693-0.606,6.985C36.09,76.792,31.52,72.9,28.27,74.372z"/>
<path fill="#3B2019" d="M80.768,49.885c-2.983-4.221-5.968-8.438-8.951-12.659c-2.079-3.299-2.114-5.994,2.191-7.4c2.393-0.083,4.817-0.357,6.938,1.172C80.887,37.293,80.827,43.589,80.768,49.885z"/>
<path fill="#40231B" d="M78.149,59.378c-0.005,4.014-0.009,8.023-0.014,12.037c-2.097,0.988-4.194,1.974-6.291,2.963c-3.437-1.264-8.542,2.35-10.445-3.549c-0.361-3.354-0.709-6.721,0.802-9.928c2.339-2.842,5.57-3.912,8.99-4.627C73.975,56.274,76.242,57.425,78.149,59.378z"/>
<path fill="#562F24" d="M19.325,59.461c-0.008-5.188-0.017-10.379-0.024-15.567c3.529-2.618,7.156-4.98,11.849-4.657c2.739,0.058,5.301,0.534,7.094,2.902c1.697,6.515-0.668,10.416-7.401,11.505c-3.331,1.397-6.485,3.069-8.954,5.798l0.046-0.03c-0.421,0.787-0.841,1.574-1.261,2.362C20.224,61.002,19.774,60.233,19.325,59.461z"/>
<path fill="#3E221B" d="M56.497,81.623c-2.23,0.774-4.462,1.55-6.692,2.325c-2.113-1.901-3.11-4.428-3.964-7.044c-0.353-2.874,0.316-5.459,2.169-7.715c2.771-2.703,5.62-5.105,9.793-2.686c2.277,2.075,3.06,4.676,2.709,7.676C59.889,77.048,58.369,79.432,56.497,81.623z"/>
<path fill="#5D3328" d="M28.27,74.372c2.103-0.806,4.205-1.615,6.309-2.42c2.479-2.601,5.44-3.52,7.933-0.58c2.919,3.436,1.444,6.652-1.796,9.226C36.567,78.522,32.419,76.447,28.27,74.372z"/>
<path fill="#3E221B" d="M65.703,71.909c2.047,0.824,4.095,1.647,6.142,2.472c-4.098,2.157-8.192,4.318-12.288,6.479c-2.193-1.846-1.729-4.153-1.137-6.484C59.951,70.901,62.109,69.287,65.703,71.909z"/>
<path fill="#5D3328" d="M28.207,43.75c-2.968,0.049-5.937,0.094-8.906,0.143c-0.008-4.257-0.015-8.514-0.023-12.771c1.385-0.903,2.792-0.979,4.222-0.104c3.067,2.386,5.974,4.901,7.144,8.822C30.116,41.321,29.303,42.624,28.207,43.75z"/>
<path fill="#7A4334" d="M37.355,21.534c5.267-1.767,10.535-3.537,15.8-5.304c0.977,1.245,1.402,2.67,1.354,4.245c-1.411,3.006-4.115,4.517-6.886,5.96c-2.659,1.914-5.417,3.482-8.896,2.765c-1.672-0.537-2.798-1.63-3.389-3.284C35.467,24.204,36.14,22.745,37.355,21.534z"/>
<path fill="#64372B" d="M40.716,80.598c-2.047-2.884-4.094-5.765-6.14-8.646c-0.042-2.085-0.087-4.166-0.133-6.25c2.846-2.467,5.956-2.148,9.167-0.867c1.45,0.83,2.521,1.999,3.337,3.476c0.801,3.274-0.347,6.553-0.264,9.806c-0.391,1.712-1.295,2.887-2.957,3.476C42.723,81.26,41.719,80.93,40.716,80.598z"/>
<path fill="#6A3B2E" d="M37.355,21.534c0.061,1.187,0.122,2.374,0.183,3.561c1.718,2.341,1.694,4.535-0.537,6.546c-1.532,0.708-3.142,1.068-4.83,1.071c-1.669,0.031-3.303-0.204-4.898-0.708c-1.389-1.019-2.261-2.371-2.618-4.059C28.888,25.809,33.122,23.67,37.355,21.534z"/>
<path fill="#723F32" d="M62.672,21.546c4.253,2.148,8.506,4.297,12.758,6.445c-1.244,1.367-2.676,2.496-4.3,3.384c-2.607,1.325-5.305,1.374-8.065,0.577c-2.765-1.376-4.147-3.607-4.162-6.689C59.473,23.325,60.729,22.089,62.672,21.546z"/>
<path fill="#7A4435" d="M62.672,21.546c-0.044,1.153-0.088,2.307-0.133,3.46c-2.746,2.835-5.744,2.258-8.82,0.653c-2.191-1.895-2.343-4.01-0.676-6.317c0.038-1.038,0.076-2.075,0.112-3.113C56.328,18,59.5,19.772,62.672,21.546z"/>
<path fill="#5E3428" d="M43.727,81.592c0.018-1.141,0.038-2.282,0.056-3.424c2.023-2.148,4.035-2.249,6.032,0.034c-0.003,1.916-0.006,3.832-0.011,5.746C47.778,83.164,45.753,82.376,43.727,81.592z"/>
<path fill="#5D3328" d="M19.325,59.461c0.87-0.016,1.738-0.03,2.607-0.049c-0.036,3.942-0.073,7.889-0.111,11.835C20.99,67.316,20.157,63.389,19.325,59.461z"/>
<path fill="#7C4536" d="M71.797,28.177c1.21-0.061,2.422-0.125,3.633-0.186c1.839,1.001,3.678,2.005,5.517,3.006c-1.901,0.22-3.804,0.442-5.707,0.665C71.851,32.718,70.758,31.5,71.797,28.177z"/>
<path fill="#824939" d="M24.655,27.945c1.19,0.076,2.38,0.149,3.572,0.226c1.173,1.123,1.674,2.494,1.506,4.114c-0.956,1.318-2.248,2.017-3.873,2.096c-1.404-0.684-2.663-1.572-3.776-2.667c-0.933-0.21-1.868-0.409-2.806-0.592C21.071,30.063,22.862,29.004,24.655,27.945z"/>
<path fill="#2F1A14" d="M59.364,75.062c0.064,1.935,0.127,3.869,0.19,5.801c-1.02,0.248-2.04,0.501-3.06,0.758c-0.052-2.167-0.104-4.334-0.157-6.501C57.321,73.682,58.33,73.661,59.364,75.062z"/>
<path fill="#391F18" d="M78.149,59.378c-2.075,0.004-4.15,0.01-6.226,0.013c-10.359-0.269-19.412-2.265-20.176-15.229c0.04-1.739,0.477-3.375,1.318-4.898c1.193-1.358,2.696-1.962,4.5-1.81c3.878,2.115,4.582,6.955,8.066,9.417C69.805,51.041,73.978,55.21,78.149,59.378z"/>
<path fill="#63372A" d="M71.797,28.177c1.147,1.16,2.295,2.319,3.442,3.482c-1.14,1.858-2.279,3.717-3.421,5.569c-1.143-0.036-2.282-0.073-3.424-0.106c-1.945-1.028-4.071-1.779-5.53-3.564c-0.66-2.606,0.74-4.147,2.767-5.365C67.687,28.187,69.742,28.184,71.797,28.177z"/>
<path fill="#331C16" d="M65.633,46.872c-2.05-1.837-4.098-3.671-6.145-5.505c0.484-1.56,1.387-1.855,2.702-0.888C63.338,42.609,64.485,44.739,65.633,46.872z"/>
<path fill="#723F31" d="M62.19,40.479c-0.917,0.244-1.819,0.54-2.702,0.885c0,0.003-1.455-0.049-1.455-0.049l-1.455,0.024c-1.83-0.827-2.75-2.246-2.758-4.251c1.692-3.595,3.864-6.216,8.356-4.092c1.338,1.517,1.511,3.152,0.519,4.913C62.543,38.77,62.373,39.625,62.19,40.479z"/>
<path fill="#6E3D2F" d="M62.695,37.909c-0.026-0.992-0.044-1.986-0.057-2.979c0.34-0.577,0.681-1.156,1.021-1.733c0.582,0.333,1.163,0.668,1.746,1.004c0.998,0.974,1.997,1.95,2.992,2.924C66.494,37.384,64.595,37.647,62.695,37.909z"/>
<path fill="#603529" d="M28.172,53.205c2.075-3.144,4.15-6.287,6.226-9.43c-1.92-1.926-3.293-4.102-3.164-6.961c0.968-2.67,2.977-4.263,5.495-5.334c1.663-0.632,3.384-0.892,5.159-0.778c3.053,0.534,3.839,3.269,5.24,5.401c1.177,2.408,1.261,4.983,1.128,7.587c-1.186,4.037-2.021,8.218-4.546,11.768c-2.841,2.811-6.086,1.663-9.312,0.787c-2.071,0.04-4.142,0.076-6.212,0.116c-1.015-0.696-1.354-1.395-1.021-2.1C27.498,53.559,27.833,53.205,28.172,53.205z"/>
<path fill="#5D3328" d="M40.735,68.717c-2.098-1.004-4.195-2.011-6.292-3.015c-0.012-2.121-0.026-4.245-0.038-6.369c2.429-2.503,5.255-4.37,8.609-5.405c4.498,0.721,5.168,3.86,4.829,7.636C46.677,65.144,43.753,66.978,40.735,68.717z"/>
<path fill="#62362A" d="M28.172,53.205c0.004,1.053,0.009,2.103,0.014,3.155c-2.1,1.028-4.198,2.057-6.297,3.082C23.982,57.364,26.077,55.286,28.172,53.205z"/>
<path fill="#512D23" d="M40.723,56.394c-2.106,0.979-4.211,1.963-6.317,2.939c0-1.029-0.003-2.058-0.007-3.089c2.09-1.074,4.181-2.148,6.271-3.223c0.919,0.735,1.231,1.48,0.941,2.234C41.321,56.016,41.024,56.394,40.723,56.394z"/>
<path fill="#3E221B" d="M56.239,43.674c5.228,5.24,10.455,10.479,15.685,15.717c-2.088,1.05-4.174,2.1-6.261,3.149c-3.838,0.793-7.077,3.277-10.995,3.9c-3.219,1.357-6.4,2.64-8.016-2.191c1.188-5.969-2.346-12.14,0.262-18.155C49.138,42.042,52.322,41.397,56.239,43.674z"/>
<path fill="#3A2019" d="M56.288,62.549c3.125-0.003,6.25-0.006,9.375-0.009c0.014,3.122,0.026,6.247,0.04,9.369c-2.112,1.05-4.226,2.103-6.338,3.152c-1.01,0.016-2.019,0.033-3.027,0.058c-0.017-2.111-0.033-4.227-0.05-6.338l-0.138-1.554c-0.07-1.044-0.047-2.081,0.069-3.119L56.288,62.549z"/>
<path fill="#4D2A21" d="M34.279,37.909c0.04,1.956,0.079,3.913,0.119,5.866c-2.065-0.006-4.127-0.015-6.191-0.024c-0.033-1.01-0.064-2.021-0.093-3.031c-1.351-1.217-1.738-2.691-1.161-4.419c1.204-1.245,2.668-1.892,4.399-1.944C33.104,34.903,34.077,36.09,34.279,37.909z"/>
<path fill="#5A3227" d="M49.815,78.202c-2.01-0.01-4.021-0.021-6.03-0.034c0.003-3.128,0.006-6.259,0.011-9.39c0.404-0.563,0.81-1.123,1.214-1.686c2.42-0.631,3.823,0.724,4.982,2.552c0.11,0.681,0.22,1.358,0.331,2.038C50.154,73.856,49.984,76.028,49.815,78.202z"/>
<path fill="#371E18" d="M50.415,65.849c1.958-1.1,3.915-2.201,5.873-3.3l-0.002-0.015c1.858,2.09,1.857,4.178-0.001,6.265l0.003-0.018c-1.991,0.97-3.982,1.938-5.97,2.905c0.005-0.004-0.581,0.22-0.581,0.22c-0.991-1.459-1.724-3.03-2.087-4.768C48.247,66.013,49.151,65.546,50.415,65.849z"/>
<path fill="#522D24" d="M28.213,37.186c-0.032,1.178-0.065,2.356-0.099,3.534c-2.011-3.003-4.022-6.006-6.032-9.005c0.906-0.119,1.816-0.192,2.729-0.22C26.43,33.103,31.566,32.608,28.213,37.186z"/>
<path fill="#583026" d="M62.639,34.931c-2.048,0.8-4.096,1.603-6.144,2.402c-0.764,0.198-1.528,0.397-2.295,0.595c-1.501,0.607-3.039,0.726-4.634,0.369c-1.337-0.83-2.39-1.926-3.258-3.256c-1.127-4.538-0.924-9.076,0.4-13.571c2.112-0.711,4.224-1.425,6.335-2.13c1.181,1.059,2.363,2.112,3.546,3.167c1.112,4.272,8.238,5.561,5.764,11.612L62.639,34.931z"/>
<path fill="#3B2019" d="M46.708,21.47c0.991,4.245,1.982,8.49,2.972,12.735c0.135,1.263-0.207,2.383-1.026,3.354c-1.16,0.531-2.316,0.546-3.467-0.031c-0.602-0.11-1.203-0.22-1.805-0.33c-0.922-0.891-1.843-1.779-2.765-2.67c-3.998-3.238-2.095-6.531-0.088-9.824C42.589,23.627,44.648,22.547,46.708,21.47z"/>
<path fill="#3E221B" d="M40.529,24.704c0.03,3.275,0.06,6.546,0.088,9.821c-1.14,0.052-2.28,0.104-3.418,0.153c-1.14,0.943-2.377,1.144-3.726,0.488c-1.181-0.858-1.749-2.015-1.7-3.473c0.667-1.221,1.527-2.286,2.554-3.223c1.07-1.126,2.141-2.249,3.21-3.375C38.539,24.994,39.535,24.866,40.529,24.704z"/>
<path fill="#583026" d="M40.735,68.717c1.018-2.06,2.037-4.117,3.055-6.177c0.633,0.314,1.268,0.629,1.901,0.943c1.147,2.404-0.087,3.951-1.912,5.285l0.017,0.01C42.775,68.76,41.755,68.738,40.735,68.717z"/>
<path fill="#331C16" d="M34.328,28.47c0.018,1.001,0.035,1.999,0.049,3c-1.085,1.202-2.376,1.431-3.848,0.818c-0.646-1.499-0.282-2.744,0.955-3.766C32.431,28.439,33.378,28.424,34.328,28.47z"/>
<path fill="#46271E" d="M31.483,28.522c-0.015,0.763-0.02,1.526-0.012,2.286c-0.839,1.413-1.865,1.493-3.047,0.424c-0.099-1.019-0.166-2.039-0.198-3.061C29.312,28.287,30.398,28.403,31.483,28.522z"/>
<path fill="#4E2B21" d="M62.354,34.119c-1.923-3.873-3.844-7.746-5.765-11.615c1.985,0.836,3.967,1.669,5.95,2.502c1.03,1.062,2.062,2.124,3.092,3.186c-0.073,2.005-0.147,4.007-0.225,6.009C64.388,34.208,63.369,34.18,62.354,34.119z"/>
<path fill="#744131" d="M28.424,31.232c1.021-0.098,2.036-0.235,3.046-0.421c0.964,0.241,1.933,0.46,2.908,0.659c0.111,0.888,0.233,1.776,0.368,2.661c0.08,2.13-2.034,1.953-3.067,2.911c-1.155,0.052-2.31,0.104-3.465,0.15c-1.132-1.904-2.264-3.803-3.4-5.698C26.016,31.409,27.22,31.32,28.424,31.232z"/>
<path fill="#724332" d="M56.239,43.674c-1.955,1.227-3.908,2.451-5.862,3.678c-4.485,2.71-7.077,2.206-6.433-3.791c-0.185-2.118-0.37-4.239-0.559-6.363c-0.003,0,0.476,0.342,0.476,0.342c0.938-0.986,2.067-1.392,3.418-1.123c1.866,0.821,3.729,0.793,5.592-0.015c1.342-0.208,2.495,0.183,3.485,1.092c0,0,0.133-0.155,0.136-0.159c0.029,1.331,0.057,2.661,0.084,3.998C56.486,42.121,56.373,42.899,56.239,43.674z"/>
<path fill="#5A3126" d="M43.944,43.561c2.144,1.264,4.288,2.524,6.431,3.788c0.013,6.167,0.024,12.332,0.038,18.5c0.002,0-0.714-0.452-0.714-0.452c-3.827,2.887-4.125-1.526-5.911-2.856h0.001c-1.022-2.048-2.044-4.099-3.067-6.146c-0.017-1.123-0.035-2.246-0.054-3.372C41.76,49.866,42.853,46.714,43.944,43.561z"/>
<path fill="#7C4536" d="M31.679,37.042c1.022-0.97,2.044-1.941,3.067-2.911c0.818,0.183,1.637,0.363,2.454,0.546c-0.974,1.077-1.947,2.151-2.92,3.231C33.407,37.635,32.541,37.345,31.679,37.042z"/>
<path fill="#41241C" d="M56.285,68.799c0.001-2.087,0.001-4.178,0.001-6.265C56.286,64.621,56.286,66.709,56.285,68.799z"/>
<path fill="#5D3328" d="M43.788,62.54c1.971,0.952,3.944,1.907,5.913,2.859c0.012,2.167,0.027,4.337,0.039,6.507c-1.988-1.044-3.975-2.091-5.961-3.138C43.782,66.69,43.785,64.615,43.788,62.54z"/>
<path fill="#583C28" d="M53.206,37.51c-2.146-0.016-4.291-0.031-6.437-0.049c-0.841-0.556-1.14-1.142-0.902-1.755c0.244-0.626,0.499-0.937,0.765-0.937c1.016-0.198,2.033-0.384,3.05-0.562c1.172,0.083,2.345,0.165,3.519,0.25c0.908,0.677,1.212,1.354,0.911,2.032C53.812,37.171,53.511,37.51,53.206,37.51z"/>
<path fill="#785439" d="M53.206,37.51c-0.01-1.017-0.011-2.036-0.005-3.052c1.052,1.013,2.103,2.026,3.155,3.039C55.307,37.5,54.257,37.506,53.206,37.51z"/>
<path fill="#785439" d="M46.632,34.769c0.081,0.897,0.128,1.794,0.14,2.695c-0.973,0.021-1.942,0.049-2.913,0.076C44.786,36.615,45.709,35.694,46.632,34.769z"/>
</svg>