<?xml version="1.0" encoding="utf-8"?>
<!DOCTYPE svg PUBLIC "-//W3C//DTD SVG 1.1//EN" "http://www.w3.org/Graphics/SVG/1.1/DTD/svg11.dtd">
<svg version="1.1" xmlns="http://www.w3.org/2000/svg" xmlns:xlink="http://www.w3.org/1999/xlink" x="0px" y="0px" width="100px" height="100px" viewBox="0 0 100 100" enable-background="new 0 0 100 100" xml:space="preserve">
<path fill="#8D8D8D" d="M49.64,77.6C36.249,70.618,22.858,63.635,9.467,56.653c-1.265-1.254-1.448-2.648-0.554-4.187c1.277-2.143,3.208-3.263,5.635-3.593c2.26-0.21,4.533-0.234,6.798-0.231c2.194,0.013,4.396,0.052,6.569,0.424c2.742,0.788,5.31,2.036,7.948,3.107c1.225,0.692,2.39,1.479,3.493,2.364c1.73,1.264,3.49,2.479,5.299,3.635c2.504,1.621,5.268,2.805,7.626,4.676c1.002,1.242,1.686,2.621,2.022,4.178C54.458,71.311,52.727,74.756,49.64,77.6z"/>
<path fill="#636363" d="M90.887,56.592c-12.519,6.295-25.039,12.594-37.56,18.89c-1.894-1.577-1.548-3.704-1.418-5.776c0.908-2.691,2.633-4.825,4.628-6.772c1.448-1.431,2.979-2.776,4.479-4.156c0.979-0.937,2.012-1.813,3.084-2.637c2.297-1.514,4.717-2.808,7.134-4.12c2.613-1.187,5.139-2.554,7.856-3.516c2.841-1.019,5.591-2.493,8.777-1.556C91.844,49.241,93.71,52.182,90.887,56.592z"/>
<path fill="#E5E5E5" d="M21.834,37.585c2.037-1.047,4.072-2.093,6.108-3.14c1.099-0.867,2.251-1.657,3.456-2.365c0.897-0.46,1.848-0.705,2.855-0.738c1.065-0.894,2.197-1.691,3.396-2.393c0.913-0.458,1.881-0.699,2.904-0.717c1.022-0.909,2.136-1.69,3.339-2.347c0.916-0.498,1.895-0.763,2.937-0.793c2.239-1.752,4.48-1.743,6.723-0.009c1.017,0.037,1.962,0.314,2.838,0.833c0.368,0.516,0.737,1.032,1.105,1.55c0.084,1.279-0.089,2.524-0.52,3.735c-0.784,1.016-1.661,1.941-2.627,2.787c-0.998,0.827-2.068,1.541-3.214,2.151c-1.14,0.65-2.275,1.297-3.416,1.95c-1.186,0.619-2.39,1.181-3.63,1.685c-1.895,0.814-3.771,1.651-5.67,2.453c-2.687,1.001-5.26,2.298-8.105,2.854c-2.283,0.195-4.474-0.03-6.471-1.275C22.043,42.093,21.469,39.99,21.834,37.585z"/>
<path fill="#E5E5E5" d="M65.88,31.167c1.007,0.317,2.014,0.635,3.021,0.952c0.96,0.98,1.723,2.094,2.26,3.36c0.487,1.3,0.563,2.627,0.229,3.977c-0.971,1.858-2.688,2.997-4.204,4.327c-1.031,0.867-2.095,1.697-3.185,2.496c-1.094,0.806-2.26,1.486-3.499,2.048c-1.297,0.439-2.589,0.882-3.886,1.331c-1.984,0.705-3.949,1.438-5.935,2.142c-2.765,0.946-5.401,2.265-8.348,2.64c-2.375,0.089-4.509-0.579-6.419-1.98c-1.016-1.199-1.637-2.578-1.886-4.119c0.081-2.375,1.156-4.251,2.931-5.753c1.654-1.233,3.366-2.411,5.255-3.266c1.177-0.519,2.349-1.095,3.479-1.721c1.608-0.937,3.357-1.63,5.011-2.484c1.064-0.546,2.134-1.102,3.195-1.654c1.096-0.439,2.196-0.885,3.29-1.333c1.115-0.372,2.265-0.592,3.44-0.659C62.381,31.409,64.132,31.329,65.88,31.167z"/>
<path fill="#DEDEDE" d="M84.846,40.68c0.951,0.024,1.844,0.266,2.679,0.72c1.025,1.669,0.921,3.375,0.147,5.099c-0.853,0.852-1.785,1.6-2.813,2.231c-1.602,0.869-3.308,1.514-4.913,2.383c-1.072,0.623-2.16,1.206-3.282,1.743c-1.176,0.476-2.316,1.01-3.435,1.617c-1.156,0.598-2.342,1.102-3.575,1.52c-2.011,0.342-3.974,0.274-5.882-0.513c-1.785-1.117-3.116-2.624-3.974-4.544c-0.075-0.678-0.146-1.354-0.223-2.029c0.283-1.343,0.939-2.481,1.954-3.4c1.511-1.257,3.317-1.987,5.107-2.716c1.764-0.449,3.586-0.769,5.191-1.703c1.022-0.571,2.13-0.906,3.3-1.007c1.12,0.177,2.26,0.278,3.397,0.299c1.095-0.229,2.183-0.513,3.256-0.842C82.919,39.606,83.942,39.984,84.846,40.68z"/>
<path fill="#E5E5E5" d="M43.929,34.561c1.041-1.043,2.08-2.087,3.12-3.131c1.054,1.104,2.107,1.16,3.156-0.009l-0.044,0.021c1.672-1.868,4.583-1.263,6.256-3.131l0.038-0.033c1.08-1.279,2.179-1.233,3.296-0.049c0.966,0.015,1.882,0.235,2.748,0.659c1.909,3.378-1.399,4.056-2.927,5.655h0.006c-1.682,1.871-4.594,1.27-6.275,3.14l0.011-0.006c-1.676,1.868-4.586,1.263-6.261,3.131l0.009-0.003c-1.625,1.682-3.63,1.557-5.684,1.193c-1.096-0.895-1.702-2.057-1.881-3.449C40.305,36.481,42.404,35.84,43.929,34.561z"/>
<path fill="#EBEBEB" d="M69.008,47.046c-2.11,0-4.221-0.003-6.331-0.003c-1.15-0.677-1.639-1.694-1.552-3.009c0.185-1.251,0.712-2.331,1.582-3.25L62.65,40.83c1.697-1.877,4.62-1.303,6.326-3.165l-0.025,0.037c3.155-2.405,6.337-2.148,9.536-0.095c1.008,0.043,1.957,0.302,2.846,0.781c0.945,0.507,1.269,1.028,0.974,1.568c-0.299,0.55-0.603,0.821-0.912,0.821l0.033-0.019c-1.653,1.917-4.583,1.313-6.265,3.174l0.028-0.015C73.567,45.822,70.599,45.075,69.008,47.046z"/>
<path fill="#ECECEC" d="M21.834,37.585c1.117,1.074,2.232,2.148,3.349,3.223c0.913,1.349,1.096,2.805,0.65,4.358c-1.713,3.037-4.693,3.833-7.797,4.419c-1.593-0.043-3.021-0.55-4.285-1.521c-1.598-2.017-1.645-4.245-0.897-6.582c0.836-0.458,1.729-0.717,2.681-0.772c1.059-0.909,2.197-1.703,3.417-2.383C19.856,37.863,20.818,37.619,21.834,37.585z"/>
<path fill="#8A8A8A" d="M9.766,53.18c-0.101,1.156-0.2,2.316-0.299,3.473C9.459,52.372,9.45,48.09,9.443,43.808c2.375,0.473,4.358,1.843,6.496,2.856l0.175,0.088c0.404,0.531,0.81,1.062,1.215,1.593c-0.057,1.428-0.752,2.447-1.996,3.115C13.41,51.813,11.314,51.615,9.766,53.18z"/>
<path fill="#5E5E5E" d="M90.887,56.592c-2.188-2.18-4.376-4.361-6.564-6.543c-0.384-0.522-0.769-1.044-1.153-1.566c0.412-0.503,0.822-1.003,1.233-1.504l0.102-0.098c2.02-1.306,4.055-2.576,6.466-3.058C90.943,48.08,90.914,52.337,90.887,56.592z"/>
<path fill="#DEDEDE" d="M78.488,37.607c-3.18,0.03-6.357,0.064-9.536,0.095c-0.017-1.862-0.034-3.723-0.051-5.582C72.096,33.948,75.291,35.779,78.488,37.607z"/>
<path fill="#505050" d="M53.354,68.906c-0.009,2.191-0.019,4.382-0.026,6.576c-1.229,0.708-2.458,1.413-3.687,2.118c0.232-3.879,0.466-7.758,0.697-11.64c1.063-0.744,2.147-0.817,3.255-0.104C54.426,66.947,54.301,67.959,53.354,68.906z"/>
<path fill="#D2D2D2" d="M90.97,43.823c-2.155,1.02-4.31,2.042-6.464,3.061c1.006-1.831,2.011-3.659,3.019-5.484C88.672,42.206,89.821,43.015,90.97,43.823z"/>
<path fill="#D3D3D3" d="M15.938,46.664c-2.166-0.952-4.331-1.904-6.496-2.856c1.137-0.775,2.275-1.55,3.412-2.325C13.882,43.21,14.911,44.937,15.938,46.664z"/>
<path fill="#CFCFCF" d="M59.572,34.543c0.976-1.886,1.952-3.769,2.927-5.655c1.128,0.76,2.254,1.52,3.382,2.279C63.777,32.294,61.674,33.417,59.572,34.543z"/>
<path fill="#DBDBDB" d="M53.552,25.082c-2.241,0.003-4.483,0.006-6.723,0.009C49.069,25.088,51.311,25.085,53.552,25.082z"/>
<path fill="#DBDBDB" d="M43.892,25.885c-1.112,0.781-2.227,1.565-3.339,2.347C41.665,27.451,42.78,26.666,43.892,25.885z"/>
<path fill="#DBDBDB" d="M59.75,28.229c-1.099,0.018-2.199,0.033-3.296,0.052c-0.041-0.791-0.063-1.578-0.064-2.365C57.51,26.688,58.63,27.456,59.75,28.229z"/>
<path fill="#DBDBDB" d="M37.649,28.949c-1.132,0.796-2.264,1.596-3.396,2.393C35.385,30.545,36.517,29.745,37.649,28.949z"/>
<path fill="#D3D3D3" d="M18.952,38.327c-1.139,0.793-2.278,1.587-3.417,2.383C16.673,39.914,17.813,39.12,18.952,38.327z"/>
<path fill="#D2D2D2" d="M81.395,40.778c-0.046-0.797-0.065-1.593-0.062-2.39c1.171,0.763,2.341,1.529,3.513,2.292C83.696,40.713,82.545,40.747,81.395,40.778z"/>
<path fill="#DBDBDB" d="M31.398,32.08c-1.152,0.788-2.304,1.578-3.456,2.365C29.094,33.658,30.246,32.868,31.398,32.08z"/>
<path fill="#DEDEDE" d="M34.599,56.403c-2.043-1.102-4.086-2.203-6.128-3.305c0.373-0.59,0.747-1.179,1.12-1.768c1.857-1.297,3.821-1.477,5.887-0.556c1.2,0.705,2.321,1.517,3.354,2.451c0.324,1.403,0.084,2.704-0.717,3.899C36.749,57.83,35.578,57.59,34.599,56.403z"/>
<path fill="#898989" d="M47.62,65.591c-2.258-0.988-4.515-1.975-6.772-2.963c0.534-0.479,1.068-0.958,1.603-1.435c1.439-0.336,2.813-0.162,4.125,0.516C47.589,62.824,47.969,64.112,47.62,65.591z"/>
<path fill="#BEBEBE" d="M47.62,65.591c-0.27-0.836-0.483-1.688-0.638-2.551c0.224-0.556,0.45-1.111,0.675-1.667c1.587-1.156,3.256-1.266,5-0.384c0.893,0.845,1.392,1.88,1.494,3.106c-0.336,0.491-0.673,0.982-1.009,1.474c-0.933,0.144-1.868,0.272-2.804,0.391C49.443,65.765,48.536,65.643,47.62,65.591z"/>
<path fill="#979797" d="M9.766,53.18c2.036-1.022,4.073-2.045,6.108-3.067c0.824,0.724,1.091,1.438,0.803,2.143c-0.287,0.702-0.57,1.053-0.853,1.053C13.805,53.265,11.785,53.223,9.766,53.18z"/>
<path fill="#8A8A8A" d="M15.823,53.308c0.016-1.065,0.031-2.127,0.049-3.192c0.001-0.003,0.513-0.516,0.513-0.516c1.782-1.064,3.604-1.623,5.565-0.439c0.92,1.035,1.366,2.231,1.262,3.619C20.749,52.954,18.286,53.131,15.823,53.308z"/>
<path fill="#E2E2E2" d="M23.212,52.78c-0.275-0.902-0.572-1.797-0.891-2.686c0.478-0.463,0.955-0.928,1.433-1.388c1.323-0.36,2.604-0.247,3.845,0.332c1.007,0.977,1.39,2.173,1.23,3.556c0,0-0.359,0.504-0.357,0.504C26.718,52.991,24.965,52.887,23.212,52.78z"/>
<path fill="#C5C5C5" d="M34.599,56.403c1.042-0.013,2.084-0.024,3.127-0.033c1.027-1.133,2.208-1.331,3.546-0.593c0.304,0.62,0.606,1.242,0.91,1.862c-0.034,1.477-0.745,2.529-2.033,3.216c-2.075,0.263-4.094,0.309-5.606-1.517C34.549,58.362,34.567,57.382,34.599,56.403z"/>
<path fill="#898989" d="M34.543,59.338c2.032,0.089,4.065,0.174,6.097,0.26l1.238,0.955l-0.465,1.492c0,0-0.566,0.586-0.566,0.583C38.745,61.533,36.644,60.434,34.543,59.338z"/>
<path fill="#676767" d="M65.806,62.68c-2.084,1.041-4.168,2.081-6.253,3.125c-0.282-0.58-0.565-1.16-0.848-1.736c0.293-1.297,0.966-2.338,2.081-3.079C62.851,60.391,64.531,60.931,65.806,62.68z"/>
<path fill="#686868" d="M53.354,68.906c-0.07-1.11-0.142-2.222-0.212-3.336l-0.078,0.089c2.208-1.896,4.375-1.904,6.492,0.146h-0.003C57.488,66.839,55.42,67.871,53.354,68.906z"/>
<path fill="#5E5E5E" d="M84.323,50.049c-2.041,1.059-4.083,2.114-6.124,3.174c-0.408-0.522-0.815-1.044-1.221-1.563c0.435-0.498,0.871-0.995,1.306-1.492l0.02-0.016c1.778-1.719,3.704-1.715,5.736-0.494L84.323,50.049z"/>
<path fill="#616161" d="M78.199,53.223c-2.1,1.053-4.199,2.105-6.299,3.155c-0.398-0.531-0.797-1.063-1.196-1.593c0.43-0.507,0.858-1.011,1.289-1.518l0.054-0.049c1.854-1.66,3.801-1.696,5.825-0.326L78.199,53.223z"/>
<path fill="#616161" d="M71.9,56.378c-2.001,1.099-4.001,2.194-6.002,3.29c-0.332-0.498-0.667-0.995-1.001-1.492c0.121-1.236,0.655-2.253,1.604-3.049c1.778-0.238,3.559-0.495,5.085,0.826L71.9,56.378z"/>
<path fill="#5F5F5F" d="M65.806,62.68c-2.058,0.021-4.118,0.043-6.176,0.064c-0.314-0.553-0.628-1.105-0.942-1.66c0.225-1.304,0.868-2.348,1.931-3.135c2.021-0.681,3.72-0.25,5.049,1.459c0,0,0.228,0.256,0.229,0.256C65.854,60.672,65.824,61.676,65.806,62.68z"/>
<path fill="#D5D5D5" d="M56.416,28.311c-2.086,1.044-4.17,2.088-6.256,3.131C52.245,30.399,54.33,29.355,56.416,28.311z"/>
<path fill="#DBDBDB" d="M43.929,34.561c-1.042,1.041-2.083,2.082-3.125,3.122c-0.519,0.375-1.038,0.754-1.557,1.129c-0.52-0.375-1.041-0.751-1.559-1.126C39.767,36.645,41.847,35.605,43.929,34.561z"/>
<path fill="#DBDBDB" d="M31.436,40.808c2.083-1.041,4.167-2.081,6.252-3.122l-0.014-0.015c1.218,1.001,1.534,2.261,1.076,3.745c-1.072,1.028-2.36,1.568-3.836,1.685c-0.689-0.217-1.378-0.434-2.066-0.65C32.376,41.904,31.906,41.357,31.436,40.808z"/>
<path fill="#DBDBDB" d="M25.188,43.988c-0.002-1.059-0.003-2.121-0.005-3.18c2.084,0,4.169,0,6.253,0l-0.006-0.006c0.812,0.659,1.214,1.416,1.207,2.273c-0.008,0.906-0.113,1.361-0.317,1.364c-1.035,1.007-2.26,1.599-3.704,1.721c-0.676-0.195-1.35-0.397-2.025-0.595C26.123,45.041,25.655,44.516,25.188,43.988z"/>
<path fill="#D8D8D8" d="M50.204,31.421c-1.052,0.003-2.104,0.006-3.156,0.009C48.1,31.427,49.153,31.424,50.204,31.421z"/>
<path fill="#ECECEC" d="M28.829,52.594c-0.189-0.76-0.365-1.52-0.525-2.286c0.14-0.57,0.281-1.145,0.421-1.718c0.811-0.879,1.779-1.526,2.886-1.969c1.01-0.622,2.085-1.083,3.241-1.364c1.218,0.18,2.158,0.787,2.818,1.828c0.004,1.032,0.009,2.063,0.012,3.095c0.854,0.692,1.14,1.389,0.856,2.084c-0.284,0.696-0.567,1.044-0.853,1.044C34.732,53.07,31.78,52.832,28.829,52.594z"/>
<path fill="#DFDFDF" d="M47.052,40.808c2.087-1.043,4.173-2.087,6.259-3.131C51.225,38.721,49.139,39.765,47.052,40.808z"/>
<path fill="#D8D8D8" d="M53.302,37.683c2.092-1.047,4.184-2.093,6.275-3.14C57.486,35.59,55.394,36.636,53.302,37.683z"/>
<path fill="#D5D5D5" d="M68.977,37.665c-2.108,1.056-4.217,2.112-6.326,3.165C64.76,39.777,66.869,38.721,68.977,37.665z"/>
<path fill="#DFDFDF" d="M40.807,40.805c2.084,0,4.168,0,6.254,0c-2.089,1.041-4.178,2.084-6.265,3.125l-1.204-0.845l-0.017-1.474L40.807,40.805z"/>
<path fill="#DBDBDB" d="M37.669,47.085c-1.038-0.009-2.075-0.015-3.113-0.018c-0.439-0.498-0.879-0.998-1.318-1.496c0.253-1.37,0.97-2.396,2.228-3.021c1.947-0.183,3.961-0.625,5.339,1.385l-0.009-0.006C39.754,44.983,38.711,46.033,37.669,47.085z"/>
<path fill="#DCDCDC" d="M50.196,47.046c2.084-1.041,4.167-2.078,6.251-3.116c0.45,0.54,0.898,1.08,1.349,1.621c-0.174,1.465-0.914,2.573-2.142,3.366c-1.394,0.352-2.759,0.281-4.093-0.266C51.106,48.118,50.65,47.58,50.196,47.046z"/>
<path fill="#EBEBEB" d="M56.417,47.049c0.008-1.041,0.018-2.079,0.029-3.119c1.041,0,2.083,0,3.124-0.006c1.037-1.221,2.075-1.279,3.109,0.003c0,1.038-0.002,2.078-0.003,3.116l0.006,0.012C60.592,49.118,58.503,48.932,56.417,47.049z"/>
<path fill="#DFDFDF" d="M43.932,50.183c2.087-1.047,4.176-2.091,6.264-3.137l-0.015,0.009c0.754,1.397,0.617,2.707-0.41,3.918c-1.313,0.745-2.707,0.965-4.186,0.656C45.035,51.148,44.484,50.665,43.932,50.183z"/>
<path fill="#DEDEDE" d="M37.684,53.308c-0.001-1.044-0.003-2.084-0.003-3.128c2.083,0,4.167,0.003,6.25,0.003h0.004c0.453,0.504,0.907,1.007,1.361,1.511c-0.151,1.422-0.835,2.506-2.052,3.253C41.206,55.03,39.163,55.123,37.684,53.308L37.684,53.308z"/>
<path fill="#D8D8D8" d="M62.68,43.927c-1.036,0-2.073,0-3.109-0.003c1.045-1.047,2.092-2.091,3.137-3.138C62.699,41.833,62.689,42.88,62.68,43.927z"/>
<path fill="#D2D2D2" d="M75.163,43.933c2.089-1.059,4.176-2.115,6.265-3.174C79.339,41.818,77.252,42.874,75.163,43.933z"/>
<path fill="#D2D2D2" d="M69.008,47.046c2.062-1.043,4.122-2.087,6.184-3.128C73.13,44.958,71.07,46.002,69.008,47.046z"/>
<path fill="#E5E5E5" d="M56.417,47.049c2.09,0.003,4.177,0.006,6.266,0.006c0,1.05,0.002,2.097,0.002,3.146c-0.559,0.476-1.119,0.952-1.676,1.428c-1.481,0.309-2.879,0.083-4.188-0.671c-0.731-0.803-1.033-1.651-0.905-2.542c0.132-0.913,0.304-1.367,0.516-1.367H56.417z"/>
<path fill="#D2D2D2" d="M84.039,49.659c-1.912,0.164-3.824,0.329-5.736,0.494c2.033-1.059,4.066-2.118,6.1-3.174C84.284,47.87,84.162,48.764,84.039,49.659z"/>
<path fill="#D2D2D2" d="M77.871,52.893c-1.942,0.11-3.883,0.22-5.825,0.326c2.079-1.016,4.159-2.032,6.237-3.051C78.151,51.078,78.013,51.984,77.871,52.893z"/>
<path fill="#D2D2D2" d="M71.585,55.953c-1.894,0.266-3.786,0.531-5.68,0.797l-1.145-0.939l-0.053-1.478l0.997-1.093c2.096,0.01,4.192,0.019,6.287,0.027C71.863,54.162,71.727,55.06,71.585,55.953z"/>
<path fill="#F0F0F0" d="M62.685,50.202c1.008,1.013,2.016,2.026,3.022,3.039c-0.002,0-0.067-0.033-0.067-0.033c-1.018,1.196-2.197,1.389-3.54,0.57c-0.766-1.357-0.567-2.554,0.597-3.592L62.685,50.202z"/>
<path fill="#EEEEEE" d="M37.68,40.805c-0.001-1.044-0.005-2.087-0.006-3.131c1.044,0.003,2.086,0.006,3.13,0.009c0.001,1.041,0.003,2.082,0.003,3.122l-0.001-0.003C39.765,42.184,38.722,42.251,37.68,40.805z"/>
<path fill="#D3D3D3" d="M22.321,50.094c-1.981-0.161-3.961-0.323-5.939-0.491c-0.104-0.948-0.195-1.897-0.269-2.847c3.024-0.925,6.05-1.847,9.075-2.768L25.18,43.93c0.974,0.647,1.517,1.541,1.564,2.719c-0.653,1.712-2.51,2.078-3.639,3.256L22.321,50.094z"/>
<path fill="#F2F2F2" d="M37.684,53.308c2.101-0.006,4.203-0.015,6.305-0.021c0.691,2.896-0.32,4.172-3.354,3.516c-0.964-0.186-1.937-0.329-2.912-0.43C37.698,55.347,37.684,54.328,37.684,53.308z"/>
<path fill="#D7D7D7" d="M41.412,62.045c-0.214-0.83-0.47-1.645-0.771-2.447c-0.002,0,0.903-0.162,0.903-0.162c1.515-1.474,3.201-2.17,5.266-1.169c0.688,0.708,0.975,1.459,0.859,2.253c-0.121,0.817-0.28,1.227-0.477,1.227c0,0-0.212,1.291-0.212,1.294C45.125,62.707,43.269,62.378,41.412,62.045z"/>
<path fill="#606060" d="M59.556,65.805c-2.16-0.046-4.322-0.095-6.487-0.144c0.152-0.968,0.263-1.935,0.323-2.911c0.389-0.488,0.778-0.979,1.167-1.471c1.947-0.767,3.607-0.437,4.896,1.297c0,0,0.172,0.168,0.174,0.168C59.591,63.766,59.569,64.786,59.556,65.805z"/>
<path fill="#E5E5E5" d="M47.194,61.746c0.003-0.718-0.001-1.435-0.015-2.151c0.76-1.154,1.837-1.825,3.184-2.082c1.354,0.162,2.508,0.727,3.461,1.7c0.635,1.281,0.493,2.475-0.423,3.576l-0.009-0.039C51.326,62.417,49.26,62.082,47.194,61.746z"/>
<path fill="#E5E5E5" d="M23.105,49.906c0.691-0.949,1.382-1.901,2.074-2.851c0.539-0.503,1.076-1.007,1.614-1.511c0.685,0.271,1.37,0.543,2.055,0.815c0.797,1.407,0.633,2.689-0.493,3.848c0,0-0.052,0.098-0.052,0.101C26.57,50.174,24.838,50.039,23.105,49.906z"/>
<path fill="#DBDBDB" d="M50.18,59.555c-1.003,0.009-2.004,0.021-3.003,0.04c-1.881-0.052-3.763-0.104-5.638-0.159c-0.343-0.863-0.646-1.742-0.902-2.637c1.115-1.169,2.234-2.341,3.351-3.513c0.001,0-0.069,0.046-0.069,0.046c1.361-1.853,3.503-1.489,5.374-1.898c1.92-0.619,3.85-1.028,5.845-0.335c1.243,0.562,2.244,1.406,3.006,2.539c0.274,1.354,0.052,2.637-0.597,3.848c-1.065,0.892-2.298,1.285-3.678,1.248C52.502,58.389,51.273,58.661,50.18,59.555z"/>
<path fill="#B8B8B8" d="M65.667,59.409c-1.915,0.168-3.83,0.339-5.743,0.507c-0.483-0.415-0.966-0.83-1.449-1.245c0.106-1.301,0.578-2.444,1.472-3.406c1.863-0.812,3.737-0.366,5.611-0.039c0.15,0.497,0.267,1.007,0.348,1.522C65.831,57.635,65.751,58.524,65.667,59.409z"/>
<path fill="#B9B9B9" d="M53.401,62.789c0.002-1.053,0.002-2.105,0.003-3.158c0.531-0.476,1.064-0.949,1.594-1.428c1.452-0.254,2.794,0.045,4.037,0.823c0,0,0.881,0.882,0.885,0.886c-0.218,0.882-0.372,1.77-0.462,2.667C57.436,62.647,55.418,62.717,53.401,62.789z"/>
<path fill="#E5E5E5" d="M37.68,40.805c1.042,0,2.083,0,3.125,0c0,1.044,0,2.087,0,3.131c-2.083-0.003-4.166-0.003-6.249-0.006c-1.019-0.687-1.361-1.379-1.024-2.072c0.336-0.692,0.673-1.041,1.015-1.041C35.591,40.811,36.636,40.808,37.68,40.805z"/>
<path fill="#EFEFEF" d="M34.547,40.817c0.006,1.038,0.009,2.075,0.009,3.113l0.001,0.003c-1.042,1.169-2.084,1.169-3.126-0.003c0-1.044-0.001-2.084-0.001-3.128C32.469,40.805,33.508,40.808,34.547,40.817z"/>
<path fill="#E5E5E5" d="M31.432,43.93c1.042,0,2.084,0,3.126,0c0,1.047-0.001,2.094-0.001,3.137l0.026-0.012c-2.074,1.782-4.156,1.996-6.247,0.027l-0.029-0.027c-1.01-0.696-1.346-1.389-1.01-2.081c0.334-0.696,0.67-1.044,1.009-1.044C29.347,43.93,30.39,43.93,31.432,43.93z"/>
<path fill="#EEEEEE" d="M28.305,43.93c0.001,1.044,0.001,2.084,0.001,3.125c-1.042,0-2.083,0-3.126,0c-0.001-1.041,0-2.084,0-3.125C26.222,43.93,27.265,43.93,28.305,43.93z"/>
<path fill="#DBDBDB" d="M28.335,47.082c2.082-0.009,4.164-0.018,6.247-0.027c-2.075,1.05-4.152,2.103-6.227,3.152C28.348,49.166,28.342,48.126,28.335,47.082z"/>
<path fill="#F1F1F1" d="M56.431,47.049c-0.001,1.04-0.003,2.084-0.004,3.128c-0.421,0.451-0.843,0.903-1.264,1.358c-1.229,0.146-2.463,0.149-3.694-0.007c-0.427-0.445-0.854-0.894-1.28-1.343c-0.003-1.043-0.006-2.087-0.008-3.131C52.264,47.052,54.349,47.049,56.431,47.049z"/>
<path fill="#F1F1F1" d="M50.18,53.305c-2.086,0.009-4.173,0.016-6.261,0.024c0.006-1.047,0.011-2.097,0.017-3.146c2.084,0.003,4.169,0.003,6.253,0.003l-0.011-0.009c0.68,0.521,1.36,1.04,2.039,1.563C51.538,52.261,50.859,52.784,50.18,53.305z"/>
<path fill="#E0E0E0" d="M62.697,50.186c-0.003,1.038-0.003,2.078-0.001,3.116c-0.802,1.031-1.853,1.605-3.154,1.721c-1.315-0.069-2.352-0.641-3.11-1.718l-0.003,0.006c-0.677-0.524-1.354-1.047-2.032-1.568c0.678-0.521,1.355-1.044,2.034-1.565h-0.003C58.516,50.18,60.607,50.183,62.697,50.186z"/>
<path fill="#E5E5E5" d="M59.555,53.305c1.047,0,2.094,0,3.141-0.003c0.983-0.021,1.967-0.055,2.946-0.095c-0.023,0.675-0.051,1.352-0.084,2.021c-1.956,0.445-3.911,0.894-5.865,1.343c-0.572-0.52-1.144-1.041-1.714-1.563C58.503,54.44,59.03,53.872,59.555,53.305z"/>
<path fill="#EEEEEE" d="M50.18,59.555c1.033-1.031,2.067-2.063,3.101-3.095c0.7,0.513,1.399,1.022,2.1,1.535c-0.672,0.546-1.342,1.096-2.011,1.646c0,0,0.033-0.01,0.034-0.01C52.329,59.607,51.254,59.579,50.18,59.555z"/>
<path fill="#E5E5E5" d="M56.43,50.177c0,1.044-0.002,2.087-0.002,3.131c-2.082,0-4.165-0.003-6.247-0.003c-0.001-1.044-0.001-2.084-0.003-3.128C52.263,50.177,54.346,50.177,56.43,50.177z"/>
<path fill="#E5E5E5" d="M53.37,59.641c-0.029-1.06-0.059-2.121-0.087-3.181c1.049-0.009,2.1-0.021,3.148-0.03c1.038-1.428,2.077-1.428,3.119-0.006c0,0,0.138,0.144,0.139,0.146c-0.167,0.833-0.384,1.654-0.651,2.459C57.146,59.232,55.258,59.436,53.37,59.641z"/>
<path fill="#F1F1F1" d="M59.55,56.424c-1.039,0.006-2.079,0.006-3.119,0.006c0-1.041,0-2.084,0-3.125c1.043,0,2.083,0,3.125,0C59.558,54.346,59.556,55.386,59.55,56.424z"/>
</svg>