<?xml version="1.0" encoding="utf-8"?>
<!DOCTYPE svg PUBLIC "-//W3C//DTD SVG 1.1//EN" "http://www.w3.org/Graphics/SVG/1.1/DTD/svg11.dtd">
<svg version="1.1" xmlns="http://www.w3.org/2000/svg" xmlns:xlink="http://www.w3.org/1999/xlink" x="0px" y="0px" width="100px" height="100px" viewBox="0 0 100 100" enable-background="new 0 0 100 100" xml:space="preserve">
<path fill="#474745" d="M100,56.339C87.386,62.076,74.929,68.204,62.075,73.34c-4.592,1.835-10.142,1.264-15.253,1.795c-0.333-2.161-0.153-4.233,1.029-6.134c2.427-2.521,4.287-5.698,7.904-6.827c1.258-0.559,2.555-1.038,3.871-1.443c5.196-1.575,9.613-4.749,14.42-7.114c1.125-0.646,2.269-1.27,3.412-1.879c1.121-0.604,2.249-1.215,3.366-1.828c1.118-0.574,2.295-1.017,3.514-1.331c1.216-0.21,2.433-0.454,3.636-0.732c1.186-0.308,2.396-0.433,3.621-0.375c1.766,0.396,3.487,0.964,5.216,1.501c1.522,1.065,1.909,2.991,3.188,4.242C100,54.255,100,55.298,100,56.339z"/>
<path fill="#2F1F18" d="M100,53.214c-1.153-1.166-2.307-2.335-3.46-3.5c-0.944-0.547-1.261-1.099-0.954-1.657c0.309-0.559,0.618-0.839,0.933-0.839c1.161-0.085,2.32-0.168,3.481-0.253C100,49.048,100,51.13,100,53.214z"/>
<path fill="#625952" d="M50.083,71.302c-1.088,1.278-2.175,2.555-3.261,3.833C34.7,69.358,22.376,63.953,10.625,57.505c-2.408-1.324-2.666-6.562-3.914-9.998c6.366-0.25,12.381,1.279,18.239,3.596c1.329,0.342,2.661,0.687,3.995,1.016c1.923,0.714,3.685,1.768,5.531,2.652c1.709,1.083,3.195,2.472,4.869,3.613c2.191,1.574,4.593,2.829,6.775,4.422C48.833,64.99,51.64,67.13,50.083,71.302z"/>
<path fill="#989898" d="M25.216,55.921c-6.169-2.805-12.337-5.609-18.504-8.414c9.127-4.416,18.257-8.832,27.385-13.248c0.684,0.055,1.367,0.11,2.052,0.165c1.387,0.128,2.726,0.439,4.022,0.964c0.529,0.464,1.051,0.925,1.584,1.389c0.297,0.641,0.587,1.281,0.886,1.925c0.206,1.431,0.032,2.817-0.442,4.172c-0.699,1.227-1.614,2.273-2.737,3.119c-0.606,0.302-1.231,0.599-1.831,0.903c-0.646,0.107-1.317,0.211-1.959,0.324c-1.262-0.113-2.493-0.452-3.644-0.995c-2.141-1.185-4.453-1.071-6.763-0.751c0.021,0.006-1.12,1.059-1.12,1.059s1.077-1.053,1.104-1.053c1.689-0.21,3.35-0.363,5.029,0.058c1.689,0.9,3.176,2,4.271,3.598c0.946,1.883,1.17,3.845,0.781,5.899c-0.464,1.324-1.178,2.49-2.165,3.484c-0.621,0.306-1.247,0.607-1.871,0.906c-1.058-1.004-2.115-2.005-3.172-3.009C27.312,55.332,26.334,55.21,25.216,55.921z"/>
<path fill="#A19F9F" d="M40.618,31.336c2.118-1.157,4.236-2.313,6.354-3.47c0.569,0.085,1.139,0.171,1.706,0.253c1.636,0.681,2.727,2.008,3.869,3.269c0.815,0.772,1.635,1.544,2.487,2.28c0.922,0.677,1.837,1.355,2.788,2.002c0.508,0.299,0.993,0.613,1.5,0.918c0.51,0.323,0.998,0.65,1.509,0.974c1.063,0.647,2.108,1.288,3.185,1.926c1.09,0.732,2.092,1.538,3.058,2.423c2.948,2.411,4.505,5.261,3.003,9.128c-2.627,4.145-7.481,4.01-11.297,5.887c-1.41,0.415-2.85,0.653-4.317,0.729C49.902,57.89,45.67,56.983,42,54.102c-1.84-1.318-3.121-3.036-3.731-5.225c-0.038-0.711-0.069-1.434-0.107-2.145c0.368-1.37,0.977-2.64,1.781-3.809c1.207-1.614,2.92-3.162,0.74-5.261l-0.185-0.03C38.555,35.495,39.554,33.414,40.618,31.336z"/>
<path fill="#180000" d="M65.35,31.849c2.268-2.204,4.533-4.407,6.801-6.61c0.907,1.001,1.842,1.975,2.798,2.927c1.095,3.192,2.187,6.381,3.281,9.573c-0.428,0.644-0.854,1.291-1.282,1.938c-3.508,2.637-7.098,2.683-10.765,0.342c-1.099-1.114-1.854-2.429-2.268-3.937C63.899,34.507,64.379,33.094,65.35,31.849z"/>
<path fill="#A6A3A3" d="M81.06,55.354c-1.009,0.201-2.002,0.464-2.979,0.784c-0.586-0.22-1.174-0.442-1.76-0.659c-1.532-1.23-2.366-2.845-2.624-4.773c-0.098-1.229-0.14-2.469-0.124-3.702c0.079-1.852,0.353-3.653,1.47-5.212c0.857-0.873,1.845-1.571,2.955-2.09c1.267-0.269,2.333,0.08,3.203,1.041l0.033,0.021c0.91,0.928,1.991,1.215,3.243,0.857c1.059,0.629,2.117,1.254,3.175,1.883c1.438,1.99,4.975,3.034,2.968,6.58l-0.003,0.003c-1.663,1.874-4.568,1.264-6.242,3.116l-0.008,0.009C83.489,54.273,82.388,54.987,81.06,55.354z"/>
<path fill="#250000" d="M46.972,27.866c2.167-3.977,4.333-7.953,6.502-11.93c0.841,0.919,1.679,1.843,2.513,2.771c1.104,1.078,2.211,2.155,3.317,3.229c-2.122,2.362-2.528,5.979-5.597,7.647c-1.172,0.564-2.408,0.836-3.708,0.815c-1.227-0.4-2.379-0.952-3.442-1.685L46.972,27.866z"/>
<path fill="#878483" d="M90.619,50.083c-0.988-2.194-1.979-4.389-2.968-6.58c2.956,1.236,5.911,2.475,8.867,3.714c0.221,0.83,0.229,1.663,0.021,2.497C94.566,49.836,92.593,49.958,90.619,50.083z"/>
<path fill="#160000" d="M50.113,26.85c3.064-1.636,6.128-3.274,9.192-4.913c0.056,2.139,0.114,4.278,0.172,6.418c-0.61,0.521-1.221,1.041-1.831,1.563C54.401,30.701,51.201,31.369,50.113,26.85z"/>
<path fill="#A6A3A3" d="M40.618,31.336c-0.04,2.1-0.079,4.196-0.121,6.296c-1.181-0.146-2.36-0.296-3.542-0.443c-0.558-0.598-1.053-1.245-1.484-1.938c-0.409-0.399-0.867-0.732-1.375-0.992C36.271,33.286,38.445,32.31,40.618,31.336z"/>
<path fill="#A6A3A3" d="M65.35,31.849c0.084,0.961-0.038,1.895-0.368,2.805c-0.371,1.373-1.135,2.484-2.238,3.369c-1.332,0.543-2.663,0.543-3.993,0c-0.887-1.108-1.364-2.381-1.494-3.788c0.195-1.404,0.78-2.625,1.749-3.662c1.381-0.613,2.609-0.354,3.703,0.656C63.563,31.544,64.443,31.748,65.35,31.849z"/>
<path fill="#685A51" d="M55.986,18.708c-0.838-0.924-1.675-1.849-2.513-2.774C54.312,16.859,55.148,17.783,55.986,18.708z"/>
<path fill="#878483" d="M84.477,41.62c-1.081-0.287-2.162-0.57-3.244-0.857C82.315,41.05,83.396,41.337,84.477,41.62z"/>
<path fill="#878686" d="M62.708,31.229c-0.922,0.146-1.848,0.259-2.778,0.342c-0.976-0.613-1.329-1.27-1.065-1.965c0.271-0.717,0.559-1.074,0.863-1.074l-0.25-0.177C60.555,29.313,61.631,30.271,62.708,31.229z"/>
<path fill="#49211A" d="M74.948,28.165c-0.934-0.974-1.867-1.95-2.8-2.927C73.082,26.215,74.017,27.192,74.948,28.165z"/>
<path fill="#878686" d="M81.2,40.741c-0.829,0.08-1.659,0.153-2.487,0.214c-0.979-0.589-1.338-1.23-1.085-1.92c0.264-0.714,0.545-1.071,0.847-1.071c0,0-0.245-0.229-0.245-0.226C79.22,38.739,80.21,39.74,81.2,40.741z"/>
<path fill="#979797" d="M50.083,71.302c-2.104-1.874-4.208-3.748-6.314-5.621c-0.155-0.699-0.311-1.395-0.468-2.094c-0.34-1.404-0.398-2.82-0.175-4.248c2.279-6.226,8.076-4.749,12.717-5.805l0.824-0.302c3.232-0.77,6.479-1.389,9.831-0.903c3.858,0.656,8.176-0.528,11.356,2.835l0.227,0.974c-6.266,3.14-12.531,6.28-18.796,9.418l-0.045,0.045C56.188,67.502,53.135,69.401,50.083,71.302z"/>
<path fill="#878483" d="M84.374,53.202c2.081-1.038,4.161-2.079,6.242-3.116C88.535,51.123,86.455,52.164,84.374,53.202z"/>
<path fill="#878483" d="M81.06,55.354c1.102-0.715,2.205-1.429,3.307-2.143C83.265,53.925,82.161,54.639,81.06,55.354z"/>
<path fill="#9B9B9B" d="M43.769,65.681c-2.124-0.986-4.25-1.975-6.374-2.961c-0.22-0.51-0.438-1.019-0.676-1.528c-0.61-1.007-0.871-2.088-0.765-3.269c0.378-1.147,1.009-2.118,1.921-2.918c2.385-1.343,4.643-1.229,6.76,0.58c0.918,1.771,0.638,3.681,0.656,5.561c0.005,1.303-0.365,2.487-1.106,3.555L43.769,65.681z"/>
<path fill="#9B9B9B" d="M37.395,62.72c-2.034-1.099-4.068-2.193-6.1-3.293l0.715-0.506c0.679-0.897,1.584-1.34,2.71-1.328c1.154,0.037,1.996,0.564,2.532,1.587l0.773,1.114c-0.021,0.525-0.043,1.053-0.065,1.578L37.395,62.72z"/>
<path fill="#A6A3A3" d="M25.216,55.921c0.969,0.165,1.938,0.332,2.907,0.497C27.137,56.355,26.168,56.187,25.216,55.921z"/>
<path fill="#341C1A" d="M37.252,59.18c-0.896,0.205-1.801,0.278-2.718,0.224c-1.283-0.815-2.359-1.853-3.29-3.046c-0.216-2.134-0.432-4.267-0.648-6.396c-0.682-1.196-0.749-2.438-0.282-3.72c1.344-1.669,3.026-2.344,5.143-1.743l0.798-0.009c0.574-0.265,1.147-0.534,1.721-0.799c1.125,0.653,1.944,1.584,2.501,2.75c1.25,1.208,2.498,2.417,3.748,3.625c1.216,2.032,1.506,3.946-0.705,5.542C41.43,56.8,39.341,57.99,37.252,59.18z"/>
<path fill="#A6A3A3" d="M35.456,44.498c-1.396,0.824-2.792,1.648-4.19,2.472c-1.047,1.279-2.089,1.337-3.128-0.009c-2.087,0.006-4.175,0.009-6.262,0.015l-0.015-0.018c3.192-1.957,6.386-3.916,9.578-5.872c0.87,0.705,1.646,1.499,2.332,2.381C34.278,43.9,34.839,44.242,35.456,44.498z"/>
<path fill="#C9C1B8" d="M40.682,37.662c-0.037,2.09-0.073,4.178-0.11,6.269c-0.92-0.635-1.274-1.328-1.062-2.072c0.221-0.775,0.468-1.163,0.746-1.163C40.395,39.683,40.537,38.673,40.682,37.662z"/>
<path fill="#A3A1A1" d="M21.876,46.976c-0.662,0.36-1.325,0.717,0.432-0.235c-1.8,0.869-1.123,0.543-0.447,0.217L21.876,46.976z"/>
<path fill="#A6A3A3" d="M33.77,43.467c-0.779-0.794-1.558-1.59-2.334-2.384C32.215,41.88,32.992,42.673,33.77,43.467z"/>
<path fill="#A6A3A3" d="M28.138,46.961c1.042,0.003,2.086,0.006,3.128,0.009c-0.14,1.014-0.363,2.012-0.67,2.991C29.776,48.96,28.957,47.959,28.138,46.961z"/>
<path fill="#C9C1B8" d="M35.471,35.251c0.685,0.498,1.183,1.145,1.488,1.938C36.12,36.778,35.625,36.133,35.471,35.251z"/>
<path fill="#A6A3A3" d="M31.244,56.358c1.097,1.013,2.194,2.029,3.29,3.046c-0.845-0.159-1.689-0.318-2.53-0.479C31.734,58.072,31.48,57.218,31.244,56.358z"/>
<path fill="#A6A3A3" d="M40.256,40.695c0.105,1.078,0.21,2.155,0.316,3.235l0.113-0.128c-1.147,1.242-2.41,1.315-3.773,0.373l-0.656,0.314C37.587,43.226,38.921,41.959,40.256,40.695z"/>
<path fill="#331F17" d="M78.475,37.965c-0.195,1.019-0.115,2.017,0.238,2.991l-0.931-0.296c-1.285,1.663-1.198,3.619-1.177,5.554c0.076,1.3-0.106,2.566-0.543,3.794c-0.857,1.019-1.962,1.577-3.279,1.727c-1.322-0.183-2.358-0.842-3.144-1.913c-2.235-2.057-4.469-4.114-6.703-6.171c-0.267-1.257-0.163-2.487,0.262-3.695c0.404-0.485,0.807-0.968,1.211-1.453c0.566-0.275,1.134-0.552,1.7-0.827C70.231,37.772,74.354,37.867,78.475,37.965z"/>
<path fill="#878686" d="M43.519,55.607c0.235-1.847,0.47-3.695,0.704-5.542c3.877,1.153,7.754,2.308,11.625,3.467c-2.984,2.948-5.963,5.896-8.943,8.841c-0.845,1.196-1.896,1.416-3.151,0.659C43.676,60.557,43.598,58.081,43.519,55.607z"/>
<path fill="#281D15" d="M59.728,28.531c-0.242,1.031-0.175,2.048,0.202,3.04l-0.938-0.29c-1.26,1.721-1.156,3.714-1.143,5.688c0.079,1.389-0.391,2.533-1.494,3.4c-0.869,0.085-1.74,0.134-2.615,0.152c-1.306-0.708-2.406-1.804-3.932-2.1l0.274-0.903c-0.808-0.653-1.253-1.498-1.335-2.533c0.188-1.465,0.106-2.924-0.092-4.379c0.09-1.038,0.548-1.874,1.373-2.509c0,0,0.087-1.232,0.086-1.239C53.317,27.411,56.523,27.97,59.728,28.531z"/>
<path fill="#878686" d="M69.64,49.82c0.846-0.204,1.608-0.033,2.291,0.507c0.109,5.41-2.685,4.861-6.125,2.984c-3.051-0.024-6.099-0.052-9.145-0.079C60.99,52.094,65.315,50.959,69.64,49.82z"/>
<path fill="#250000" d="M56.356,40.369c0.032-0.919,0.059-1.837,0.078-2.759c0.513-0.699,1.025-1.398,1.538-2.097c0.604,0.623,1.208,1.242,1.813,1.865c0.871,0.152,1.747,0.262,2.629,0.323c0.528,0.131,1.057,0.263,1.586,0.394c0.369,1.034,0.929,1.956,1.652,2.783c-0.905,0.921-1.81,1.846-2.716,2.771c0.001,0-1.21-0.122-1.21-0.122l-1.215,0.031c-1.7-0.339-2.894-1.648-4.427-2.304L56.356,40.369z"/>
<path fill="#604C43" d="M50.029,28.098c0.228,1.181,0.453,2.362,0.681,3.54c0.757,0.843,0.759,1.685,0,2.527c-0.209,1.117-0.418,2.237-0.627,3.354c-1.177-2.936-2.352-5.868-3.528-8.804C47.715,28.51,48.871,28.306,50.029,28.098z"/>
<path fill="#9F948D" d="M56.084,41.254c1.473,0.766,2.943,1.535,4.421,2.304C59.035,42.792,57.56,42.023,56.084,41.254z"/>
<path fill="#9F948D" d="M49.809,38.422c1.309,0.699,2.619,1.401,3.931,2.1C52.43,39.823,51.119,39.124,49.809,38.422z"/>
<path fill="#C9C1B8" d="M36.912,44.175c1.257-0.122,2.513-0.248,3.772-0.373c-0.08,0.879-0.148,1.758-0.208,2.637C39.289,45.685,38.1,44.928,36.912,44.175z"/>
<path fill="#C9C1B8" d="M62.413,37.702c0.856-1.016,1.713-2.032,2.568-3.048c0.376,1.007,0.752,2.014,1.128,3.021l-0.986-0.333c-0.739,1.462-1.686,1.535-2.812,0.421L62.413,37.702z"/>
<path fill="#A6A3A3" d="M65.806,53.312c2.042-0.995,4.082-1.99,6.123-2.984c0.759-0.382,1.562-0.604,2.408-0.662c0.786-0.309,1.571-0.613,2.355-0.922c0.49,0.687,0.979,1.373,1.467,2.063c-0.101,1.459-0.203,2.915-0.306,4.364C73.838,54.548,69.821,53.931,65.806,53.312z"/>
<path fill="#15120A" d="M75.005,46.808c0.927-2.051,1.851-4.098,2.777-6.149c0.043,2.081,0.085,4.166,0.127,6.247C76.891,48.353,75.921,48.392,75.005,46.808z"/>
<path fill="#878483" d="M75.005,46.808c0.966,0.107,1.934,0.137,2.904,0.098c0.283,0.851,0.666,1.685,0.804,2.557c0.063,0.406-0.355,0.886-0.554,1.337c-1.274-0.375-2.548-0.757-3.821-1.135C74.489,48.697,74.712,47.745,75.005,46.808z"/>
<path fill="#15120A" d="M59.784,37.379c-1.116,0.076-2.235,0.156-3.353,0.232c0.854-2.109,1.708-4.218,2.561-6.33C59.257,33.314,59.521,35.346,59.784,37.379z"/>
<path fill="#A6A3A3" d="M59.239,65.601c-0.348-0.652-0.695-1.309,1.119,2.1c-1.732-3.457-1.402-2.801-1.074-2.145L59.239,65.601z"/>
<path fill="#A6A3A3" d="M43.753,63.031c1.05-0.217,2.1-0.437,3.151-0.656c-0.906,0.778-1.814,1.56-2.721,2.332C44.036,64.146,43.893,63.59,43.753,63.031z"/>
<path fill="#A6A3A3" d="M37.96,61.872c-0.049-0.531-0.028-1.063,0.064-1.584c0.001,0.006,0.427,0.812,0.427,0.812L37.96,61.872z"/>
<path fill="#9F948D" d="M62.312,37.763c0.936-0.155,1.872-0.296,2.812-0.421c0.176,1.178,0.353,2.356,0.528,3.534C64.539,39.838,63.425,38.8,62.312,37.763z"/>
<path fill="#251C14" d="M50.71,34.165c-0.162-0.843-0.162-1.685-0.001-2.527C51.25,32.481,51.25,33.322,50.71,34.165z"/>
</svg>