<?xml version="1.0" encoding="utf-8"?>
<!DOCTYPE svg PUBLIC "-//W3C//DTD SVG 1.1//EN" "http://www.w3.org/Graphics/SVG/1.1/DTD/svg11.dtd">
<svg version="1.1" xmlns="http://www.w3.org/2000/svg" xmlns:xlink="http://www.w3.org/1999/xlink" x="0px" y="0px" width="100px" height="100px" viewBox="0 0 100 100" enable-background="new 0 0 100 100" xml:space="preserve">
<path fill="#5C5C5C" d="M37.33,75.458C31.233,65.24,25.236,54.959,18.972,44.846c-1.754-2.832-4.298-5.179-6.479-7.749c-2.06-1.807-3.082-3.989-2.458-6.769c0.769-1.608,2.002-2.688,3.693-3.25c5.854-0.656,11.717-0.635,17.578-0.076c4.176,1.251,6.229,4.971,9.041,7.815c1.492,1.889,2.585,4.031,3.827,6.085c2.171,3.522,4.565,6.885,6.953,10.27c6.978,12.842,4.904,25.689,0.07,38.522c-2.995,1.107-5.454,0.063-7.727-1.788c-1.82-2.231-3.641-4.462-5.461-6.696C39.652,79.071,41.589,76.898,37.33,75.458z"/>
<path fill="#606060" d="M18.647,18.506c7.94-1.98,15.799-5.069,23.842-5.667c10.743-0.797,21.631,0.335,32.455,0.641c2.55,1.914,3.371,4.346,2.214,7.364c-16.926,5.899-35.355,0.778-52.223,7.126c-2.876,0.144-5.767,0.378-8.167-1.727C14.994,23.077,16.639,20.745,18.647,18.506z"/>
<path fill="#3E3E3E" d="M75.091,50.256c-2.041,4.147-4.083,8.295-6.125,12.442c-1.764,1.703-3.565,3.333-6.275,3.168c-8.043-3.86-5.475-10.831-5.026-17.188c0.193-2.591,0.358-5.176,1.756-7.486c3.208-3.079,5.521-7.327,10.585-7.953c2.973-0.049,5.761,0.32,7.448,3.079C78.003,41.238,79.083,46.145,75.091,50.256z"/>
<path fill="#555555" d="M75.136,37.912c-2.134-0.113-4.269-0.226-6.403-0.339c-2.548,2.377-5.336,3.18-8.529,1.297c-2.059-2.802-2.127-5.762-0.713-8.844c2.129-2.747,5.176-3.192,8.347-3.305c7.047,0.546,14.407-1.895,21.075,2.222c1.714,3.192,1.038,5.865-1.715,8.099c-1.872,0.271-3.744,0.543-5.616,0.815C79.449,39.841,77.304,40.207,75.136,37.912z"/>
<path fill="#5C5C5C" d="M75.047,18.109c-0.033-1.544-0.067-3.085-0.103-4.629c4.08,1.938,8.159,3.879,12.239,5.816c2.621,2.295,3.562,4.825,1.044,7.721c-5.021,1.621-9.944,1.74-14.752-0.628C71.355,23.071,73.002,20.554,75.047,18.109z"/>
<path fill="#656565" d="M18.647,18.506c0.009,2.048,0.018,4.099,0.027,6.149c0.33,4.33-4.753,3.738-6.022,6.613l-0.228,0.031c-1.903,2.103-3.801,2.271-5.69-0.019c0.357-3.394,0.712-6.787,1.12-10.681C11.876,19.818,15.261,19.162,18.647,18.506z"/>
<path fill="#393939" d="M87.325,24.817c-0.047-1.84-0.094-3.681-0.142-5.521c8.379,5.908,7.886,11.826,0.014,17.749c0.035-1.828,0.072-3.656,0.106-5.484C84.991,29.306,85.038,27.057,87.325,24.817z"/>
<path fill="#656565" d="M37.33,75.458c0.674-2.17,1.348-4.337,2.022-6.504c1.117,0.339,2.234,0.678,3.351,1.017c-1.564,3.747-3.129,7.492-4.693,11.239C37.783,79.294,37.556,77.374,37.33,75.458z"/>
<path fill="#343434" d="M75.136,37.912c2.148-0.019,4.297-0.037,6.445-0.055c-2.162,4.132-4.326,8.264-6.49,12.399C75.106,46.142,75.122,42.025,75.136,37.912z"/>
<path fill="#303030" d="M62.573,62.652c2.13,0.016,4.262,0.03,6.393,0.046c-2.024,4.227-4.049,8.453-6.074,12.68c-0.857-0.118-1.715-0.237-2.572-0.356c-3.282-3.846-3.122-7.773-0.271-11.759C60.888,63.058,61.73,62.853,62.573,62.652z"/>
<path fill="#333333" d="M62.892,75.378c-2.089,4.199-4.176,8.396-6.266,12.595c-0.831-0.412-1.664-0.82-2.389-1.272c-1.486-4.525-1.253-8.972,0.498-13.336c2.95-1.944,5.25-0.922,7.315,1.379L62.892,75.378z"/>
<path fill="#333333" d="M43.47,87.906c2.094-0.238,4.189-0.479,6.282-0.721c1.981-1.825,3.979-2.426,6.02-0.089l0.854,0.873C52.241,87.951,47.855,87.93,43.47,87.906z"/>
<path fill="#5E5E5E" d="M6.735,31.28c1.898,0.006,3.795,0.012,5.691,0.019c0.021,1.935,0.044,3.866,0.067,5.798C10.574,35.159,8.654,33.218,6.735,31.28z"/>
<path fill="#4C4C4C" d="M55.772,87.097c-2.005,0.031-4.01,0.062-6.017,0.092c-2.068-12.316-4.135-24.628-6.202-36.941c6.236-7.718,12.584-5.813,18.975-0.217c0.014,4.205,0.028,8.414,0.044,12.619c0.002,0.003-0.044-0.062-0.044-0.062c-4.548,2.979-1.831,9.531-6.192,12.602C56.147,79.156,55.96,83.127,55.772,87.097z"/>
<path fill="#434343" d="M62.527,50.03c-6.323,0.07-12.646,0.144-18.973,0.217c-2.002-2.203-4.002-4.407-6.003-6.61c3.339-4.245,7.985-4.721,12.881-4.471c4.535,0.439,9.88-1.102,12.123,4.953C62.547,46.091,62.536,48.058,62.527,50.03z"/>
<path fill="#434343" d="M12.652,31.268c2.008-2.2,4.016-4.404,6.022-6.61c2.006,0.091,4.012,0.186,6.018,0.281c2.498-2.06,5.134-3.168,8.217-1.19c2.005,3.07,1.634,5.625-1.642,7.544C25.062,31.283,18.858,31.277,12.652,31.268z"/>
<path fill="#393939" d="M31.268,31.292c0.006-2.066,0.014-4.132,0.02-6.198c3.728-4.877,8.66-2.665,13.353-2.472c3.027,1.633,3.772,4.526,3.86,7.761c-1.32,3.906-5.06,4.925-8.085,6.793c-0.951,0.186-1.9,0.37-2.851,0.556C35.467,35.586,33.367,33.438,31.268,31.292z"/>
<path fill="#626262" d="M49.985,43.603c-4.146,0.012-8.29,0.024-12.434,0.037c0.005-1.972,0.009-3.94,0.014-5.908l-0.07-0.946c4.631-2.576,9.265-5.121,14.517-1.401C53.836,38.696,52.566,41.314,49.985,43.603z"/>
<path fill="#444444" d="M43.76,25.137c-4.158-0.012-8.316-0.027-12.473-0.042c-2.197-0.052-4.393-0.104-6.592-0.156c16.782-2.271,33.565-4.544,50.349-6.824c0.094,2.264,0.185,4.535,0.278,6.805c-0.989,3.625-4.164,2.497-6.564,3.247c-4.72-0.503-9.052,1.132-13.441,2.563C49.369,33.172,47.399,27.453,43.76,25.137z"/>
<path fill="#616161" d="M49.985,43.603c0-1.886,0-3.775,0-5.661c3.843-7.953,8.115-4.12,12.38-0.452c2.122,0.027,4.245,0.055,6.367,0.083c-2.058,2.182-4.118,4.361-6.177,6.543C58.366,43.948,54.176,43.774,49.985,43.603z"/>
<path fill="#343434" d="M62.365,37.491c-4.126,0.149-8.254,0.299-12.38,0.449c-4.164-0.382-8.326-0.763-12.49-1.15c2.089-3.885,4.178-7.77,6.265-11.652c4.161,0.003,8.322,0.003,12.483,0.006c1.399,2.923,6.407,2.115,6.554,6.335C62.653,33.484,62.509,35.489,62.365,37.491z"/>
<path fill="#434343" d="M68.711,25.095c2.202-0.058,4.404-0.116,6.609-0.174c4.004-0.034,8.006-0.067,12.007-0.101c-0.008,2.243-0.014,4.489-0.021,6.738c-6.21-0.116-12.421-0.238-18.629-0.357C66.418,29.15,66.548,27.118,68.711,25.095z"/>
<path fill="#393939" d="M68.711,25.095c-0.012,2.035-0.022,4.071-0.034,6.106c-1.963,0.091-3.924,0.183-5.881,0.274c-2.184-2.108-4.369-4.221-6.553-6.332C60.398,25.128,64.555,25.11,68.711,25.095z"/>
<path fill="#434343" d="M56.335,75.189c2.064-4.199,4.128-8.402,6.192-12.602c-0.157,4.053-0.313,8.105-0.474,12.158C60.146,74.89,58.239,75.039,56.335,75.189z"/>
</svg>