<?xml version="1.0" encoding="utf-8"?>
<!DOCTYPE svg PUBLIC "-//W3C//DTD SVG 1.1//EN" "http://www.w3.org/Graphics/SVG/1.1/DTD/svg11.dtd">
<svg version="1.1" xmlns="http://www.w3.org/2000/svg" xmlns:xlink="http://www.w3.org/1999/xlink" x="0px" y="0px" width="100px" height="100px" viewBox="0 0 100 100" enable-background="new 0 0 100 100" xml:space="preserve">
<path fill="#686765" d="M93.578,24.844c-0.057,7.355-0.113,14.71-0.168,22.064c-4.397,3.211-3.137,6.43-0.012,9.652c-1.831,7.294-3.662,14.588-5.495,21.882c-5.446-0.382-10.238,0.537-12.601,6.311l0.041,0.037c-11.801-2.958-6.307-12.796-7.889-19.807c-0.021-1.721-0.024-3.451-0.026-5.173c-0.234-7.534-1.272-15.115,0.983-22.546c0.738-2.334,1.948-4.407,3.606-6.207c1.592-1.66,3.464-2.982,5.481-4.077c1.227-0.785,2.544-1.425,3.893-1.987c2.656-1.145,5.488-1.26,8.33-1.294C91.133,23.645,92.425,24.008,93.578,24.844z"/>
<path fill="#979692" d="M6.993,75.042c0.702-8.304,1.404-16.604,2.106-24.905c0.718,0.037,1.436,0.073,2.156,0.107c4.831,0.231,8.064,2.862,10.39,6.878c1.938,3.3,1.576,7.929,6.282,10.193c3.671,2.002,5.443-2.704,8.627-3.448c6.659-0.678,11.046,2.212,13.359,8.413c0.666,13.501-7.38,16.498-18.717,15.516c-4.12-2.039-8.238-4.074-12.356-6.113c-4.073-4.113-7.283-8.643-6.913-16.082c0.128-0.77-2.832,2.511-0.807,2.017C11.714,71.188,13,75.14,6.993,75.042z"/>
<path fill="#6B6966" d="M69.066,87.9c-6.366,2.854-12.73,5.71-19.097,8.563c-7.582-6.87-0.685-14.588-1.287-21.863c1.481-9.091,8.608-11.438,16.022-13.439c1.592-0.138,3.116,0.177,4.541,0.896C72.269,70.679,69.093,79.279,69.066,87.9z"/>
<path fill="#999793" d="M27.934,40.485c1.056-9.384,2.114-18.771,3.171-28.156c1.926,0.256,3.87,0.391,5.791,0.745c1.291,0.305,2.533,0.735,3.748,1.261c3.687,1.608,7.307,3.345,10.826,5.31c2.945,1.962,5.762,4.032,5.87,8.054c-0.503,1.321-1.308,2.438-2.339,3.396c-3.417,2.277-6.61,4.889-10.072,7.132c-3.647,2.112-6.955,4.999-11.484,5.154C31.172,43.246,29.205,42.523,27.934,40.485z"/>
<path fill="#EEECE6" d="M27.934,40.485c2.124,0.152,4.25,0.302,6.374,0.452c2.661,1.621,7.196,0.635,7.579,5.432c-0.286,2.634-2.239,4.147-4.649,6.464c2.916-2.322,5.282-2.036,7.716-1.206c1.313,0.55,2.524,1.258,3.664,2.097c4.015,2.829,12.671,0.925,10.419,10.159c-5.446,3.51-11.197,2.866-17.008,1.255c-3.218-0.916-6.369-2.188-9.775-2.201c-1.164-0.223-2.301-0.613-3.364-1.123c-1.569-0.72-3.278-0.704-4.993-0.732c-1.21-0.198-2.166-0.809-2.916-1.761c-0.304-1.144-0.521-2.301-0.644-3.479c-0.54-2.362-0.2-4.676,0.339-6.979c0.31-1.69,0.836-3.345,1.036-5.066C23.786,42.691,25.859,41.589,27.934,40.485z"/>
<path fill="#EDEBE4" d="M37.325,9.418c11.741-11.786,21.718-4.16,31.747,2.887c0.759,0.76,1.093,1.578,1.004,2.46c-0.091,0.913-0.24,1.367-0.448,1.373c-1.093,0.995-2.347,1.7-3.747,2.161c-8.848,2.011-17.342,1.343-25.281-3.418C38.843,13.455,37.538,11.765,37.325,9.418z"/>
<path fill="#93918B" d="M50.337,72.394c-0.122,8.022-0.244,16.046-0.368,24.069c-6.257-2.891-12.515-5.777-18.772-8.667c5.321-5.405,10.642-10.81,15.962-16.214C48.439,70.987,49.499,71.258,50.337,72.394z"/>
<path fill="#656461" d="M75.302,84.753c0-4.431,0-8.862,0-18.249c6.408,6.072,9.505,9.006,12.601,11.938C83.703,80.548,79.503,82.651,75.302,84.753z"/>
<path fill="#96948F" d="M6.993,75.042c1.231-3.823,2.463-7.645,4.431-13.748c2.835,7.794,5.125,14.093,7.416,20.389C14.891,79.471,10.942,77.255,6.993,75.042z"/>
<path fill="#62605C" d="M69.066,87.9c-0.03-8.243-0.061-16.485-0.092-24.729c0.721-1.272,1.698-1.593,2.979-0.806c1.129,7.474,2.26,14.947,3.391,22.425C73.251,85.828,71.158,86.862,69.066,87.9z"/>
<path fill="#666460" d="M93.398,56.561c-3.347-2.337-6.693-4.678-10.039-7.016c0.8-1.352,1.599-2.704,2.398-4.056c2.55,0.473,5.102,0.946,7.652,1.419C93.405,50.125,93.402,53.342,93.398,56.561z"/>
<path fill="#EBE8E2" d="M90.832,24.606c-3.116,1.279-6.231,2.554-9.348,3.833c-2.257-2.508-3.934-5.334-4.756-8.636c0.012-1.395,0.545-2.558,1.588-3.485c4.168,2.104,8.336,4.205,12.504,6.308C90.825,23.288,90.828,23.947,90.832,24.606z"/>
<path fill="#E8E4DC" d="M78.317,16.318c-0.006,0.87-0.011,1.739-0.012,2.609c-3.546,3.54-7.483,3.799-11.737,1.397c-1.479-1.297-1.733-2.805-0.76-4.517c1.041,0,2.081-0.003,3.123-0.006c2.166-1.978,4.372-1.691,6.603-0.122C76.51,15.677,77.438,15.89,78.317,16.318z"/>
<path fill="#EBE8E1" d="M37.325,9.418c1.161,1.086,2.321,2.176,3.482,3.262c0,0-0.142,1.352-0.134,1.352c-0.372,0.885-1.002,1.514-1.881,1.892c0.001,0.003-1.349,0.159-1.349,0.159c-0.989-0.195-1.96-0.446-2.92-0.754c-1.741-1.761-1.77-3.513,0.023-5.255C35.42,9.64,36.348,9.421,37.325,9.418z"/>
<path fill="#EDEAE4" d="M21.712,43.796c1.155,1.086,2.31,2.176,3.467,3.265c-2.377,2.335-5.06,2.924-8.109,1.419c-0.497-0.552-0.992-1.107-1.487-1.663C17.625,45.81,19.668,44.803,21.712,43.796z"/>
<path fill="#F0EDE8" d="M34.544,10.074c-0.008,1.752-0.015,3.507-0.023,5.255c-1.138-1.001-2.278-1.999-3.417-3C32.251,11.578,33.398,10.825,34.544,10.074z"/>
<path fill="#EDEAE3" d="M75.534,15.68c-2.201,0.04-4.401,0.082-6.603,0.122c0.048-1.166,0.094-2.332,0.141-3.498C71.226,13.431,73.379,14.557,75.534,15.68z"/>
<path fill="#EEEBE5" d="M9.099,50.137c2.162-1.104,4.323-2.212,6.483-3.32l0.319,0.431c0.04,4.357-1.642,5.393-5.245,2.713l-0.847-0.516L9.099,50.137z"/>
<path fill="#F0EDE8" d="M90.832,24.606c-0.011-0.659-0.016-1.318-0.012-1.98c0.918,0.742,1.838,1.48,2.757,2.218l-1.4,0.202L90.832,24.606z"/>
<path fill="#979591" d="M43.933,34.555c3.124-2.084,6.248-4.169,9.372-6.25c3.347,4.672,7.316,0.791,11.014,0.775c3.922,0.192,6.984,1.556,7.889,5.826c-0.166,8.34-0.334,16.681-0.502,25.021c-0.957,0.821-2.064,1.209-3.326,1.166c-1.229,0.082-2.454,0.049-3.679-0.095c-1.812-0.543-3.222-1.77-4.758-2.783c-2.104-1.419-4.631-1.742-6.941-2.652c-1.729-0.885-3.234-2.065-4.631-3.408c-0.949-0.897-1.769-1.901-2.522-2.967c-0.737-1.086-1.288-2.264-1.7-3.503C43.297,41.992,40.994,38.321,43.933,34.555z"/>
<path fill="#EEECE5" d="M72.207,34.906c-3.134-1.251-6.27-2.5-9.405-3.75c-2.604,0.198-4.818-0.397-6.049-2.982c-2.243-1.962-4.486-3.921-6.729-5.88c3.689-8.502,9.997-4.709,15.783-3.363c4.166,0,8.331-0.003,12.497-0.003c1.061,3.171,2.121,6.341,3.18,9.512l0.046-0.046c-2.034,1.19-4.918,0.714-6.285,3.21C74.234,32.705,73.221,33.804,72.207,34.906z"/>
<path fill="#EBE8E2" d="M75.246,31.604c0.298-1.303,0.596-2.606,1.044-4.571c1.924,0.5,3.583,0.931,5.241,1.361C79.436,29.465,77.34,30.536,75.246,31.604z"/>
<path fill="#E1DCD2" d="M66.079,59.244c1.876,0.229,3.753,0.455,5.629,0.681c0.271,0.797,0.354,1.608,0.245,2.441c-1.012,0.201-2.005,0.47-2.979,0.806l-1.43-0.372l-1.474,0.092c0,0-1.133-1.05-1.134-1.05C64.552,60.638,64.934,59.775,66.079,59.244z"/>
<path fill="#E5E1D9" d="M50.337,72.394c-1.061-0.269-2.119-0.537-3.179-0.809c-4.148-2.069-8.296-4.136-12.443-6.198c-0.624-0.705-0.89-1.449-0.795-2.234c0.095-0.806,0.232-1.208,0.409-1.208c1.273-0.583,2.385-0.363,3.34,0.659c7.289,0.019,14.578,0.039,21.867,0.058c1.813-1.923,3.74-1.861,5.754-0.339l0.78,0.568C60.826,66.058,55.581,69.226,50.337,72.394z"/>
<path fill="#96948F" d="M34.441,62.729c0.079,0.888,0.171,1.773,0.274,2.658c0.528,3.326,1.058,6.656,1.729,10.886c-5.452-2.384-9.969-4.358-15.959-6.977c-0.464-3.751-1.008-8.133-1.552-12.516c0.931-1.15,1.956-1.306,3.095-0.296c0.11,0.824,0.182,1.651,0.218,2.484c1.462,3.162,4.181,2.542,6.791,2.252C30.983,61.203,33.008,60.904,34.441,62.729z"/>
<path fill="#E8E5DD" d="M22.028,56.485l-1.563-0.009l-1.532,0.305c-2.759-2.273-5.518-4.547-8.276-6.82c1.749-0.903,3.498-1.81,5.245-2.713c3.091-0.064,6.184-0.125,9.277-0.187C24.127,50.202,23.078,53.342,22.028,56.485z"/>
<path fill="#EBE8E2" d="M65.808,18.93c-5.261,1.12-10.522,2.24-15.782,3.36c-4.194-2.069-8.389-4.138-12.584-6.207l0.531-0.574c0.961-0.925,1.907-1.871,2.835-2.832l-0.001,0.003c8.334,1.044,16.667,2.084,25.001,3.128C65.806,16.849,65.806,17.89,65.808,18.93z"/>
<path fill="#94928D" d="M43.933,34.555c0.963,4.26,1.924,8.521,2.887,12.781c-2.026,1.358-3.958,1.325-5.777-0.391c-2.245-2.002-4.489-4.007-6.733-6.009C37.517,38.809,40.725,36.682,43.933,34.555z"/>
<path fill="#95938E" d="M56.753,28.174c2.016,0.995,4.031,1.99,6.049,2.982c-1.533,1.736-3.065,3.473-5.702,6.457c-1.676-4.11-2.734-6.71-3.795-9.308C54.454,28.259,55.603,28.217,56.753,28.174z"/>
<path fill="#969590" d="M33.644,28.268c0,2.121,0,4.245,0,6.366c-0.426-0.003-0.852-0.006-1.278-0.009c0-2.121,0-4.242,0-6.366C32.792,28.262,33.218,28.265,33.644,28.268z"/>
<path fill="#ECE9E2" d="M65.29,62.323c-1.918,0.113-3.834,0.227-5.752,0.339c-5.202-2.078-10.403-4.156-15.604-6.231c2.448-3.165,6-3.271,9.529-3.442c3.119,1.297,6.238,2.597,9.358,3.894c1.047,0.873,2.091,1.749,3.131,2.628c0,0,0.123-0.263,0.124-0.263C65.816,60.272,65.553,61.297,65.29,62.323z"/>
<path fill="#EAE7E0" d="M41.043,46.945c1.926,0.131,3.853,0.259,5.777,0.391l-0.05-0.18c1.186,0.977,1.739,2.246,1.745,3.769c-0.763,2.28-1.841,3.955-4.606,2.402c-2.283-0.208-4.565-0.412-8.977-0.812C37.932,49.781,39.488,48.362,41.043,46.945z"/>
<path fill="#EAE8E1" d="M43.909,53.327c1.079-1.136,2.158-2.268,3.236-3.402c0.898-0.897,1.861-1.02,2.9-0.244c1.139,1.104,2.278,2.206,3.417,3.308c-3.176,1.147-6.353,2.295-9.528,3.442C43.93,55.396,43.921,54.361,43.909,53.327z"/>
<path fill="#93918C" d="M28.548,62.116c-1.351,0.9-2.701,1.801-4.837,3.223c-0.668-2.899-1.066-4.636-1.465-6.369c1.041-0.089,2.08-0.174,3.121-0.26c1.142-0.256,2.124,0.013,2.927,0.883l-0.02-0.019c1.093,0.454,1.496,0.979,1.215,1.584C29.192,61.795,28.879,62.116,28.548,62.116z"/>
<path fill="#ECE9E2" d="M28.548,62.116c-0.085-0.849-0.177-1.693-0.275-2.542c3.133,1.01,6.264,2.021,9.396,3.03c-1.077,0.039-2.153,0.082-3.229,0.125C32.475,62.525,30.512,62.32,28.548,62.116z"/>
<path fill="#ECE9E2" d="M28.293,59.592c-1.016-0.159-1.993-0.452-2.927-0.879C26.343,59.002,27.318,59.295,28.293,59.592z"/>
<path fill="#EFEDE7" d="M40.808,12.677c-0.946,0.946-1.894,1.892-2.838,2.835C38.917,14.566,39.864,13.623,40.808,12.677z"/>
<path fill="#93918C" d="M50.045,49.68l-1.436,0.299l-1.465-0.052c-0.116-0.925-0.241-1.85-0.375-2.771C47.861,47.998,48.954,48.837,50.045,49.68z"/>
<path fill="#EFEDE7" d="M65.953,59.509c-1.043-0.876-2.089-1.752-3.132-2.628C63.866,57.757,64.91,58.633,65.953,59.509z"/>
</svg>