<?xml version="1.0" encoding="utf-8"?>
<!DOCTYPE svg PUBLIC "-//W3C//DTD SVG 1.1//EN" "http://www.w3.org/Graphics/SVG/1.1/DTD/svg11.dtd">
<svg version="1.1" xmlns="http://www.w3.org/2000/svg" xmlns:xlink="http://www.w3.org/1999/xlink" x="0px" y="0px" width="100px" height="100px" viewBox="0 0 100 100" enable-background="new 0 0 100 100" xml:space="preserve">
<path fill="#464242" d="M53.333,95.191c-3.166-0.836-6.334-1.676-9.5-2.515c-0.12-0.763-0.241-1.529-0.371-2.295c-0.322-7.718-2.113-15.662,3.38-22.516c5.526-1.597,6.787,2.856,8.846,6.207c1.815,5.621,2.278,11.261,0.139,16.916C55.163,92.487,54.33,93.888,53.333,95.191z"/>
<path fill="#383433" d="M93.404,45.689c0.171,8.478,0.745,16.98,0.229,25.418c-0.13,2.108-3.771,4.007-5.797,5.999c-0.421-0.519-0.841-1.037-1.267-1.547c-0.116-0.65-0.228-1.31-0.358-1.956c0.027-0.653,0.076-1.315,0.09-1.969c0.711-4.389,1.102-8.804,0.741-13.257c-0.247-1.846-0.53-3.689-0.831-5.532c-0.181-1.264-0.111-2.512,0.157-3.754c0.735-1.828,1.985-3.208,3.68-4.196C91.332,44.45,92.452,44.715,93.404,45.689z"/>
<path fill="#2F2C2B" d="M93.404,45.689c-0.947,0.018-1.894,0.042-2.839,0.073c-7.077-1.666-2.685-7.156-3.675-10.864c-0.019-2.634-0.291-5.264-0.323-7.904c0.093-1.371,0.607-2.57,1.457-3.635c1.874-1.032,3.688-1.395,5.282,0.51C93.338,31.141,93.371,38.416,93.404,45.689z"/>
<path fill="#565454" d="M9.597,76.457c-0.88-8.186-1.762-16.37-2.643-24.555c1.541-0.198,2.867,0.223,3.958,1.354c0.83,1.258,1.422,2.619,1.816,4.071c0.822,5.213,1.041,10.416-0.452,15.57C11.626,74.265,10.728,75.449,9.597,76.457z"/>
<path fill="#8C8C8D" d="M75.388,14.411c1.041,0.168,2.081,0.336,3.122,0.503c0.807,0.931,1.267,2.011,1.381,3.241c0.027,1.239-0.322,2.365-1.034,3.381c-1.801,1.681-3.952,2.75-6.26,3.549c-1.187,0.284-2.386,0.296-3.592,0.116c-1.763-0.479-3.392-1.26-4.948-2.216c-1.018-0.689-1.81-1.583-2.396-2.664c-0.22-1.227,0.009-2.377,0.608-3.46c0.902-0.806,1.921-1.431,3.052-1.871c2.242-0.748,4.682-0.666,6.893-1.593C73.432,13.23,74.483,13.593,75.388,14.411z"/>
<path fill="#818081" d="M15.627,18.092c1.038-0.187,2.075-0.375,3.113-0.562c0.534-0.391,1.068-0.778,1.602-1.172c0.643,0.159,1.285,0.32,1.93,0.485c0.777,1.135,1.067,2.387,0.882,3.754c-0.8,1.938-2.201,3.32-3.99,4.352c-1.244,0.54-2.551,0.772-3.903,0.763c-1.335-0.256-2.486-0.873-3.45-1.834c-0.575-1.333-0.287-2.49,0.743-3.488l-0.255,0.262C13.45,19.853,14.558,18.998,15.627,18.092z"/>
<path fill="#7F7E7F" d="M65.691,17.582c-0.929-0.04-1.859-0.085-2.789-0.131c-1.771-1.071-2.38-2.762-2.52-4.709c0.091-1.266,0.458-2.447,1.087-3.549c0.519-0.351,1.041-0.699,1.563-1.047c1.041-0.024,2.043,0.162,3.006,0.559c1.018,0.836,2.011,1.7,2.976,2.597l0.573-0.43C70.953,14.655,67.716,15.766,65.691,17.582z"/>
<path fill="#A5A6A6" d="M28.084,11.665c0.856-0.513,1.76-0.62,2.712-0.32c0.596,0.018,1.194,0.037,1.797,0.052c1.221,0.128,2.363,0.491,3.447,1.077c1.025,0.727,1.796,1.669,2.364,2.79c0.203,1.303-0.136,2.444-1.006,3.439c-1.095,0.696-2.279,1.141-3.56,1.358c-1.999,0.125-3.867-0.287-5.573-1.364c-0.937-0.964-1.449-2.121-1.547-3.46C26.806,13.905,27.262,12.715,28.084,11.665z"/>
<path fill="#99999A" d="M40.656,5.385c0.857-0.537,1.773-0.666,2.745-0.378c1.102-0.763,2.322-1.218,3.647-1.407c1.985-0.045,3.978-0.131,5.816,0.849c0.65,0.729,0.951,1.514,0.905,2.35c-0.048,0.867-0.157,1.3-0.327,1.306c-1.349,1.672-3.167,2.466-5.23,2.826c-2.078,0.223-4.097-0.021-6.05-0.788c-0.571-0.378-1.135-0.769-1.705-1.156C39.603,7.737,39.672,6.535,40.656,5.385z"/>
<path fill="#454141" d="M9.542,51.908c-0.862,0.003-1.726,0-2.588-0.006c0.003-3.116,0.004-6.229,0.007-9.341c1.231-0.815,2.425-0.803,3.582,0.159c1.686,2.496,1.723,5.093,0.479,7.767C10.533,50.962,10.037,51.435,9.542,51.908z"/>
<path fill="#ABACAC" d="M65.691,17.582c1.299-2.237,2.598-4.474,3.896-6.711c0.962,0.049,1.86,0.308,2.699,0.781c0.684,0.62,0.896,1.218,0.635,1.797c-0.256,0.571-0.505,0.854-0.747,0.854C70.012,15.397,67.852,16.489,65.691,17.582z"/>
<path fill="#494645" d="M6.939,30.082c0.009-2.069,0.02-4.135,0.029-6.205c1.886-1.858,3.792-1.947,5.719-0.061l-0.065,0.11c0.616,0.696,0.905,1.44,0.868,2.24c-0.04,0.827-0.139,1.242-0.296,1.245c-0.655,1.12-1.538,2.023-2.609,2.747C9.359,30.689,8.143,30.662,6.939,30.082z"/>
<path fill="#636262" d="M78.554,20.549c-0.133-1.016-0.168-2.036-0.105-3.058c1.105-1.025,2.218-1.031,3.336-0.024c0.999-0.045,1.945,0.153,2.84,0.602c0.925,0.842,1.481,1.883,1.675,3.122c-0.042,1.254-0.439,2.383-1.187,3.394c-1.167,0.485-2.365,0.61-3.604,0.33C79.761,23.975,78.679,22.584,78.554,20.549z"/>
<path fill="#878787" d="M37.479,14.579c-1.047-0.168-2.094-0.339-3.14-0.51c-0.877-0.696-1.283-1.605-1.222-2.725c-0.084-1.142,0.355-2.029,1.312-2.658c0.957-0.424,1.958-0.604,3.003-0.54c1.129-1.096,2.245-1.032,3.348,0.04l0.638,0.076c0.753,1.056,0.885,2.201,0.483,3.424c-0.656,1.065-1.537,1.907-2.6,2.563C38.697,14.363,38.088,14.472,37.479,14.579z"/>
<path fill="#8C8C8C" d="M53.324,8.207c-0.02-0.9-0.052-1.801-0.096-2.701c0.13-0.541,0.258-1.081,0.386-1.621c1.14,0.034,2.146,0.418,3.02,1.15c1.044,0.171,2.088,0.339,3.132,0.51c0.82,0.885,1.238,1.932,1.259,3.14c-0.017,1.199-0.344,2.307-0.979,3.33c-1.143,0.412-2.298,0.476-3.471,0.144c-1.079-0.541-1.987-1.291-2.731-2.24C53.667,9.352,53.495,8.781,53.324,8.207z"/>
<path fill="#444040" d="M6.939,30.082c0.861,0,1.721,0,2.582,0.006c0.461,0.406,0.923,0.812,1.392,1.215c0.913,1.7,1.147,3.509,0.902,5.408c-0.301,1.233-0.85,2.344-1.664,3.323c-1.216,0.687-2.275,0.491-3.172-0.58C6.965,36.329,6.953,33.204,6.939,30.082z"/>
<path fill="#7B7A7B" d="M53.228,5.507c-2.064-0.153-4.128-0.302-6.19-0.455c-0.694-0.549-0.941-1.12-0.746-1.709c0.2-0.601,0.409-0.9,0.628-0.9c2.167,0.003,4.335,0.006,6.501,0.006c0.655,0.571,0.864,1.129,0.626,1.675c-0.233,0.541-0.464,0.813-0.691,0.813L53.228,5.507z"/>
<path fill="#33302F" d="M69.102,86.484c-2.085,1.047-4.171,2.094-6.257,3.141c-0.279-0.55-0.56-1.102-0.841-1.657c0.35-1.229,1.047-2.2,2.146-2.875c1.223-0.348,2.438-0.326,3.648,0.056C68.234,85.593,68.668,86.039,69.102,86.484z"/>
<path fill="#444040" d="M43.833,92.676c-2.083-1.044-4.167-2.088-6.25-3.131c0.466-0.458,0.933-0.913,1.398-1.374c1.98-0.714,3.834-0.516,5.538,0.772c0.621,1.294,0.439,2.463-0.541,3.51L43.833,92.676z"/>
<path fill="#353130" d="M62.845,89.625c-2.09,1.034-4.181,2.069-6.271,3.104c-0.304-0.656-0.607-1.313-0.911-1.969c1.769-3.18,4.056-3.769,6.939-1.395L62.845,89.625z"/>
<path fill="#818081" d="M28.204,14.344c0.066,1.068,0.133,2.139,0.198,3.207c-2.006,1.682-4.059,1.908-6.172,0.192l-0.206-0.208c-0.682-0.559-0.923-1.132-0.723-1.724c0.201-0.598,0.41-0.897,0.628-0.897c0.936-0.442,1.917-0.619,2.948-0.531C25.973,13.322,27.082,13.362,28.204,14.344z"/>
<path fill="#5C5A5A" d="M12.687,23.817c-1.906,0.021-3.813,0.04-5.719,0.061c1.863-1.16,3.725-2.319,5.586-3.485C12.599,21.534,12.643,22.676,12.687,23.817z"/>
<path fill="#464242" d="M93.306,23.869c-1.695,0.045-3.39,0.094-5.085,0.14c-0.547-0.144-1.093-0.287-1.641-0.427c-0.041-0.564-0.078-1.129-0.119-1.694c0.403-0.394,0.809-0.79,1.213-1.184C89.551,21.76,91.43,22.813,93.306,23.869z"/>
<path fill="#454241" d="M18.816,80.204c-2.083-1.05-4.166-2.097-6.249-3.146c0.559-0.424,1.116-0.849,1.674-1.272c2.296-0.409,4.097,0.25,5.2,2.414C19.233,78.867,19.025,79.536,18.816,80.204z"/>
<path fill="#33302F" d="M87.836,77.106c-2.078,1.05-4.155,2.103-6.231,3.152c-0.365-0.53-0.729-1.062-1.096-1.596c0.111-0.635,0.221-1.272,0.331-1.91c0.51-0.4,1.02-0.797,1.527-1.199c2.003-0.599,3.785-0.317,5.226,1.318L87.836,77.106z"/>
<path fill="#444040" d="M25.088,83.304c-2.09-1.031-4.181-2.066-6.271-3.101l0.108-0.092c2.779-2.643,4.927-1.639,6.761,1.172C25.486,81.959,25.286,82.63,25.088,83.304z"/>
<path fill="#33302F" d="M81.605,80.259c-2.093,1.035-4.185,2.069-6.276,3.104c-0.231-0.655-0.462-1.314-0.694-1.971c1.72-2.973,3.896-3.742,6.717-1.395L81.605,80.259z"/>
<path fill="#444040" d="M31.327,86.445c-2.08-1.047-4.16-2.094-6.239-3.141l0.076-0.082c2.792-2.615,4.95-1.636,6.778,1.199C31.736,85.095,31.532,85.77,31.327,86.445z"/>
<path fill="#373433" d="M75.329,83.362c-2.075,1.041-4.151,2.082-6.227,3.122l-0.257-0.237c-0.551-1.389-0.312-2.619,0.717-3.702c1.984-1.053,3.882-1.245,5.58,0.556L75.329,83.362z"/>
<path fill="#44403F" d="M37.583,89.546c-2.085-1.035-4.171-2.069-6.256-3.101l0.092-0.086c1.637-1.968,3.552-1.758,5.574-0.714c0.745,0.708,1.106,1.495,1.083,2.362c-0.024,0.906-0.131,1.36-0.324,1.36L37.583,89.546z"/>
<path fill="#4E4B4A" d="M46.92,2.443c0.103,0.867,0.142,1.739,0.118,2.612c-1.211-0.019-2.421-0.034-3.635-0.049C44.573,4.152,45.747,3.297,46.92,2.443z"/>
<path fill="#575555" d="M53.356,4.936c-0.046-0.833-0.024-1.66,0.065-2.487c1.07,0.864,2.14,1.728,3.211,2.588C55.541,5.003,54.449,4.969,53.356,4.936z"/>
<path fill="#5C5A5A" d="M40.78,8.186c-1.115-0.012-2.229-0.027-3.346-0.04c1.074-0.922,2.148-1.843,3.223-2.762C40.928,6.309,40.969,7.243,40.78,8.186z"/>
<path fill="#4A4747" d="M59.918,8.046c-0.175-0.827-0.227-1.66-0.153-2.5c1.089,0.867,2.179,1.733,3.267,2.6l-0.681-0.589l-0.804,0.406C61.003,7.99,60.46,8.018,59.918,8.046z"/>
<path fill="#5C5A5A" d="M15.627,18.092c-1.109,0.851-2.217,1.706-3.326,2.56C13.409,19.798,14.518,18.943,15.627,18.092z"/>
<path fill="#4A4747" d="M81.785,17.466c-1.115,0.012-2.229,0.021-3.34,0.028c-0.138-0.864-0.118-1.725,0.065-2.579C79.601,15.766,80.694,16.618,81.785,17.466z"/>
<path fill="#575555" d="M21.929,14.915c0.119,0.873,0.151,1.746,0.096,2.625c-1.094-0.003-2.188-0.006-3.284-0.009C19.804,16.657,20.866,15.788,21.929,14.915z"/>
<path fill="#575555" d="M72.173,14.304c-0.249-0.897-0.212-1.782,0.111-2.655c1.034,0.921,2.069,1.843,3.104,2.762C74.317,14.378,73.246,14.341,72.173,14.304z"/>
<path fill="#545251" d="M28.204,14.344c-1.108,0.012-2.217,0.024-3.326,0.04c1.069-0.906,2.139-1.813,3.209-2.719C28.39,12.547,28.43,13.438,28.204,14.344z"/>
<path fill="#494646" d="M69.013,11.301c-0.992-0.863-1.983-1.73-2.976-2.597C67.03,9.572,68.021,10.438,69.013,11.301z"/>
<path fill="#464342" d="M9.597,76.457C9.576,75.529,9.57,74.598,9.58,73.67c1.146-0.964,2.34-1.028,3.587-0.198c0.771,1.301,0.603,2.473-0.498,3.51l-0.103,0.076C11.538,77.057,10.546,76.856,9.597,76.457z"/>
<path fill="#626060" d="M34.429,8.686c0.043,0.842,0.037,1.685-0.02,2.527c-0.667-0.058-1.334-0.113-1.999-0.171L31.492,10.6l-0.696,0.745C32.006,10.459,33.218,9.572,34.429,8.686z"/>
<path fill="#413D3C" d="M6.979,39.454c0.753-0.003,1.509,0,2.263,0.016c0.667,0.647,0.917,1.321,0.752,2.02c-0.169,0.711-0.356,1.065-0.56,1.065l-1.236,0.009l-1.236-0.003C6.968,41.523,6.973,40.489,6.979,39.454z"/>
<path fill="#494646" d="M84.557,20.686c0.016-0.873,0.037-1.746,0.067-2.618c1.018,0.879,2.034,1.757,3.05,2.636l-0.052,0.077C86.557,22.151,85.536,22.12,84.557,20.686z"/>
<path fill="#373433" d="M53.333,95.191c0.001-0.955,0.011-1.91,0.028-2.865c1.074-1.276,2.083-1.228,3.026,0.146l0.187,0.256C55.494,93.55,54.413,94.37,53.333,95.191z"/>
<path fill="#666565" d="M56.388,92.472c-1.01-0.01-2.021-0.059-3.026-0.144c-0.045-6.189-0.09-12.378-0.134-18.564c-1.367-2.878,0.406-3.549,2.705-3.851c5.548,3.277,5.029,9.28,6.473,14.407c0.1,0.665,0.189,1.333,0.278,2.002c-0.087,1.013-0.113,2.026-0.081,3.042C60.533,90.4,58.46,91.437,56.388,92.472z"/>
<path fill="#3D3938" d="M56.161,70.395c-0.977,1.123-1.954,2.246-2.933,3.369c-2.028-2.084-4.056-4.165-6.083-6.25c-0.475-0.391-0.948-0.781-1.43-1.165c-0.972-1.63-1.364-3.415-1.43-5.292c-0.006-1.233,0.18-2.441,0.492-3.632c0.422-1.15,1.115-2.13,2.012-2.957c1.169-0.342,2.311-0.235,3.403,0.306c1.354,1.126,2.152,2.621,2.741,4.241c0.623,1.483,1.282,2.967,2.162,4.337c0.979,1.313,1.859,2.677,2.348,4.257C57.505,68.763,57.097,69.7,56.161,70.395z"/>
<path fill="#757474" d="M43.978,92.454c-0.038-0.958-0.068-1.92-0.088-2.881c-0.911-0.867-1.659-1.858-2.28-2.951c-0.41-1.199-0.658-2.433-0.793-3.689c-0.146-1.264-0.177-2.53-0.177-3.8c-0.046-1.932,0.047-3.854,0.281-5.776c0.182-1.31,0.574-2.552,1.106-3.757c1.181-1.654,2.461-3.064,4.744-1.779c0,0,0.373-0.306,0.374-0.306C46.09,75.828,45.034,84.14,43.978,92.454z"/>
<path fill="#717171" d="M87.815,48.801c0.348,1.19,0.695,2.38,1.044,3.57c0.25,1.6,0.363,3.204,0.34,4.822c-0.716,5.486,1.639,11.272-1.592,16.516l-0.065,0.03c-1.49,2.161-4.43,1.258-6.158,2.912l-0.209,0.152c-1.383,1.959-3.405,1.602-5.358,1.486c-1.146-0.687-1.944-1.673-2.443-2.899c-0.271-1.239-0.271-2.499-0.063-3.741c0.35-1.147,0.874-2.234,1.538-3.229c0.329-0.461,0.699-0.922,1.023-1.389c0.962-1.291,2.036-2.524,3.1-3.738c0.581-0.788,1.183-1.587,1.766-2.372c-0.018,0.016,1.387,0.224,1.387,0.224s-1.136-0.852-1.149-0.834c-0.901,0.471-1.628,1.108-2.209,1.947c-0.014,0.021-1.46,0.458-1.479,0.47c-1.088,0.019-2.105-0.201-3.084-0.671c-1.408-0.937-2.477-2.157-3.166-3.705c-0.23-1.113-0.179-2.212,0.125-3.308c0.621-1.575,1.529-2.988,2.493-4.37c0.895-1.447,1.81-2.878,2.811-4.258c0.732-0.912,1.666-1.532,2.769-1.882c1.124-0.021,2.151,0.296,3.036,0.97c0.733,0.766,1.065,1.709,0.987,2.746c0.006-0.049-0.438,1.196-0.438,1.196s1.142-0.665,1.154-0.698C85.281,47.861,86.568,47.413,87.815,48.801z"/>
<path fill="#5F5D5D" d="M87.815,48.801c-1.087,1.031-2.171,2.063-3.256,3.095c-1.043,0.9-2.086,0.9-3.128,0c0.003-2.066,0.004-4.133,0.007-6.198c-0.164-1.697-0.59-3.363-0.701-5.078c-0.278-1.767-0.534-3.531-0.477-5.337c0.319-1.242,0.949-2.289,1.88-3.168c1.111-0.668,2.301-1.083,3.587-1.236c2.05,0.027,3.713,0.827,4.944,2.481c-0.033,4.132-0.068,8.267-0.105,12.402C89.648,46.775,88.73,47.788,87.815,48.801z"/>
<path fill="#686767" d="M87.607,73.71c0.206-6.46,0.414-12.921,0.621-19.382c0.932-0.363,1.795-0.241,2.59,0.363C89.748,61.03,88.677,67.372,87.607,73.71z"/>
<path fill="#686767" d="M81.383,76.652c2.054-0.971,4.107-1.938,6.16-2.912c0.017,1.044,0.033,2.088,0.05,3.132C85.523,76.799,83.454,76.725,81.383,76.652z"/>
<path fill="#2F2C2B" d="M90.818,54.691c-0.885,0.019-1.752-0.098-2.596-0.356c0.002-0.727,0.205-1.383,0.627-1.969C89.735,52.952,90.387,53.724,90.818,54.691z"/>
<path fill="#464242" d="M90.671,33.36c-2.034-0.058-4.069-0.116-6.104-0.174c-1.072-0.781-1.456-1.819-1.152-3.113c0.569-1.12,1.391-2.014,2.42-2.725c0.602-0.141,1.204-0.272,1.809-0.406C88.653,29.081,89.663,31.22,90.671,33.36z"/>
<path fill="#535151" d="M81.692,23.884c0.961-0.009,1.922-0.034,2.882-0.08c1.035-1.27,2.064-1.208,3.093,0.009c0,0,0.544,0.192,0.548,0.192c-0.335,0.952-0.527,1.929-0.57,2.936l0.047-0.03c-1.71,1.563-3.578,1.767-5.6,0.653c-0.689-0.753-0.979-1.547-0.868-2.386C81.337,24.314,81.495,23.884,81.692,23.884z"/>
<path fill="#767575" d="M12.622,73.911c-1.016-0.052-2.029-0.131-3.041-0.237c-0.009-6.208-0.019-12.415-0.027-18.619c1.257-0.732,2.476-0.675,3.664,0.171c0.926,1.017,1.59,2.182,2.055,3.473c0.734,2.655,0.833,5.362,0.691,8.1c-0.092,1.367-0.362,2.701-0.783,4.007C14.625,72.083,13.766,73.115,12.622,73.911z"/>
<path fill="#524F4F" d="M12.664,55.051l-1.555-0.024l-1.556,0.027c-0.003-1.05-0.006-2.097-0.011-3.146l0.154-0.019c0.997-1.043,2.1-1.116,3.294-0.359c0.195,0.607,0.389,1.221,0.584,1.831C13.271,53.923,12.968,54.487,12.664,55.051z"/>
<path fill="#999A9A" d="M81.692,23.884c-0.496,0.854-0.683,1.77-0.556,2.75c-0.467,0.485-0.933,0.967-1.399,1.456c-1.313,0.409-2.635,0.437-3.97,0.098c-1.92-0.918-3.279-2.313-3.754-4.452c2.179-1.062,4.359-2.121,6.54-3.186C79.6,21.662,80.646,22.773,81.692,23.884z"/>
<path fill="#A3A3A4" d="M56.428,11.323c1.151-0.091,2.304-0.183,3.454-0.274c0.987-0.961,1.921-0.964,2.795,0.149c0.073,2.084,0.146,4.168,0.222,6.253c-0.058,1.081-0.119,2.161-0.179,3.238c-1.106,0.644-2.235,0.687-3.394,0.141c-2.027-1.553-3.147-3.665-3.766-6.091c-0.022-0.607-0.03-1.218-0.044-1.828C55.818,12.382,56.122,11.854,56.428,11.323z"/>
<path fill="#9B9B9C" d="M59.568,20.686c1.05,0,2.102,0.003,3.152,0.003c1.049,0.006,2.099,0.012,3.146,0.015c1.446,1.685,1.633,3.617,1.111,5.688c-0.9,1.108-2.062,1.694-3.488,1.773c-0.656-0.205-1.31-0.418-1.967-0.623c-1.144-0.8-2.053-1.813-2.741-3.024c-0.087-0.681-0.169-1.367-0.253-2.051C58.873,21.876,59.22,21.281,59.568,20.686z"/>
<path fill="#7D7D7D" d="M65.874,26.954c-0.003-2.084-0.006-4.166-0.008-6.25c1.091,1.132,2.182,2.262,3.273,3.391c0.636,0.693,0.871,1.407,0.703,2.136c-0.169,0.742-0.353,1.114-0.553,1.114C68.077,27.882,66.941,27.72,65.874,26.954z"/>
<path fill="#AEAEAF" d="M68.937,26.945c0.008-0.956,0.074-1.908,0.201-2.854c0.957-0.144,1.913-0.263,2.875-0.354c1.004,0.982,2.006,1.965,3.011,2.951c-0.398,0.455-0.797,0.909-1.195,1.367C71.969,28.699,70.302,28.483,68.937,26.945z"/>
<path fill="#8A8A8B" d="M22.23,17.744c2.057-0.064,4.114-0.128,6.17-0.192c1.99,0.049,3.977,0.098,5.965,0.146c1.697,1.914,0.368,3.256-0.862,4.629c-1.451,1.193-3.073,2.094-4.823,2.777c-1.191,0.4-2.421,0.543-3.676,0.5c-1.233-0.269-2.309-0.845-3.23-1.709c-0.728-1.15-0.594-2.234,0.287-3.25C22.065,19.676,22.122,18.708,22.23,17.744z"/>
<path fill="#524F4F" d="M12.64,27.046c0.017-1.041,0.012-2.078-0.017-3.119c2.141-0.073,4.283-0.146,6.424-0.223c0.339,0.552,0.676,1.105,1.015,1.657c-0.206,1.352-0.909,2.353-2.105,3.012c-1.282,0.323-2.558,0.317-3.829-0.064C13.632,27.888,13.136,27.467,12.64,27.046z"/>
<path fill="#99999A" d="M22.06,20.646c-0.006,1.062-0.012,2.124-0.018,3.189c-0.519,0.394-1.04,0.787-1.56,1.181c-0.514-0.403-1.027-0.803-1.541-1.206c0,0,0.105-0.104,0.105-0.107C20.053,22.685,21.057,21.665,22.06,20.646z"/>
<path fill="#5F5D5D" d="M62.677,11.198c-0.937,0.046-1.87-0.003-2.797-0.149c-0.193-1.004-0.183-2.005,0.035-3.003c0.551,0.04,1.096,0.015,1.635-0.08C61.924,9.043,62.301,10.121,62.677,11.198z"/>
<path fill="#9C9C9D" d="M31.318,20.829c1.017-1.044,2.034-2.09,3.049-3.134c1.119-0.042,2.24-0.088,3.36-0.131c0.981-1.153,2.11-1.263,3.371-0.47c0.609,1.267,0.707,2.566,0.307,3.916c-0.958,1.928-2.431,3.314-4.372,4.227c-2.118,0.653-4.129,0.473-5.998-0.785C30.129,23.167,30.271,21.965,31.318,20.829z"/>
<path fill="#838383" d="M40.808,17.57l-1.542,0.009c0,0-1.541-0.016-1.54-0.016c-0.024-1.001-0.105-1.996-0.244-2.984c-0.003,0,0.438-0.259,0.438-0.259c0.868-0.793,1.88-1.264,3.056-1.367c1.188,0.079,2.182,0.562,2.986,1.437c0.473,1.105,0.434,2.179-0.194,3.22C42.773,18.388,41.786,18.376,40.808,17.57z"/>
<path fill="#727171" d="M32.411,11.042c0.661,0.131,1.328,0.189,1.999,0.171c0.079,0.955,0.056,1.911-0.069,2.859C33.697,13.059,33.053,12.052,32.411,11.042z"/>
<path fill="#9C9C9D" d="M44.08,14.497c-1.056-0.021-2.112-0.042-3.169-0.064c-0.852-0.605-1.167-1.245-0.952-1.929c0.221-0.705,0.462-1.056,0.723-1.056c0.241-1.062,0.482-2.124,0.729-3.186c1.827-0.024,3.648-0.049,5.469-0.073c0.498,0.37,0.993,0.736,1.491,1.108c-0.035,0.623-0.069,1.242-0.098,1.865c-0.548,1.15-1.36,2.075-2.39,2.813C45.284,14.152,44.683,14.326,44.08,14.497z"/>
<path fill="#8C8C8C" d="M47.111,11.472c-0.076-1.095-0.151-2.188-0.229-3.284c2.145,0.006,4.293,0.012,6.441,0.019c0.001,0-0.032-0.037-0.032-0.037c0.388,0.522,0.775,1.043,1.166,1.565c-0.139,0.632-0.281,1.267-0.42,1.904c-1.017,0.854-2.188,1.343-3.511,1.471C49.205,12.953,48.064,12.404,47.111,11.472z"/>
<path fill="#6F6E6E" d="M12.936,51.902c-1.082-0.003-2.163-0.006-3.243-0.013c-0.084-3.109-0.171-6.222-0.259-9.335c0.076-1.038,0.014-2.066-0.189-3.085c0.195-1.004,0.354-2.018,0.47-3.034c0.967-0.876,2.06-1.135,3.303-0.687c1.682,0.864,2.917,2.17,3.783,3.839c0.459,1.117,0.783,2.28,1.032,3.458c0.616,2.365,1.899,4.522,2.283,6.982c-0.157,1.349-0.818,2.384-1.914,3.162C16.18,53.834,14.366,53.644,12.936,51.902z"/>
<path fill="#6A6969" d="M9.521,30.088c1.039-1.016,2.08-2.029,3.119-3.042l-0.033-0.073c0.822,0.653,1.181,1.385,1.074,2.194c-0.112,0.845-0.281,1.266-0.508,1.266c-1.285,0.821-2.438,0.668-3.462-0.46L9.521,30.088z"/>
<path fill="#7B7A7B" d="M87.666,23.814h-1.547c0,0-1.549-0.006-1.547-0.006c-0.021-1.041-0.027-2.082-0.016-3.122c1.025-0.012,2.048,0.015,3.068,0.088C87.723,21.79,87.739,22.801,87.666,23.814z"/>
<path fill="#767676" d="M40.682,11.448c0.164,0.986,0.24,1.984,0.228,2.985c-1,0.003-1.998-0.034-2.992-0.113C38.84,13.362,39.761,12.404,40.682,11.448z"/>
<path fill="#A5A6A6" d="M53.269,11.308c0.006-1.047,0.014-2.09,0.021-3.134c1.045,1.05,2.092,2.1,3.138,3.149l-0.007-0.012C55.369,12.278,54.319,12.275,53.269,11.308z"/>
<path fill="#5D5B5B" d="M9.71,29.972c1.013,0.055,2.03,0.085,3.046,0.091c1.397-1.822,3.375-1.443,5.266-1.392c2.003,0.345,3.439,1.523,4.584,3.116c0.564,1.111,0.763,2.307,0.656,3.543c-0.673,1.782-2.085,2.643-3.85,3.021c-1.038,0.098-2.054-0.098-2.988-0.555c-0.488-0.9-1.266-1.447-2.301-1.605c0.004,0.015-1.44,0.104-1.44,0.104c-0.99,0.024-1.982,0.07-2.969,0.14C9.713,34.281,9.711,32.127,9.71,29.972z"/>
<path fill="#666565" d="M68.945,83.207c-0.086,1.01-0.119,2.023-0.1,3.04c-2.054,0.024-4.107,0.049-6.161,0.076l-0.33-0.495c0.181-2.898,1.961-3.851,4.589-3.78C67.609,82.431,68.276,82.819,68.945,83.207z"/>
<path fill="#757575" d="M43.884,86.21c0.003,1.12,0.004,2.24,0.006,3.36c-2.046-0.067-4.091-0.135-6.137-0.202c-0.052-0.977-0.079-1.953-0.084-2.93c0.427-0.439,0.854-0.879,1.28-1.321C40.823,84.446,42.507,84.632,43.884,86.21z"/>
<path fill="#89898A" d="M12.805,67.668c-0.032-3.168-0.066-6.333-0.098-9.497c0.419-0.425,0.839-0.846,1.26-1.27c0.597-0.021,1.193-0.04,1.792-0.073c2.316,0.546,4.399,1.653,6.506,2.697c2.04,0.986,4.065,2.015,6.123,2.97c1.527,0.653,3.02,1.389,4.494,2.151c0.989,0.467,1.938,1.013,2.872,1.574c1.44,0.77,2.879,1.545,4.295,2.365c0.946,0.593,1.659,1.395,2.155,2.39c0.335,1.05,0.899,1.966,1.662,2.762c-0.03,2.137-0.063,4.27-0.093,6.406c-0.441,0.812-1.103,1.354-1.963,1.626c0.022,0-1.175,0.076-1.175,0.076s-1.149-0.342-1.106-0.293c0.139,0.83,0.09,1.605-0.104,2.396c-0.269,0.886-0.832,1.453-1.689,1.728c0,0-0.066,0.76-0.066,0.763c-2.084-0.027-4.167-0.055-6.25-0.079c-2.086-1.047-4.17-2.09-6.255-3.137c-2.08-1.038-4.159-2.072-6.239-3.11c-2.084-1.043-4.17-2.087-6.254-3.131c0.215-1.028,0.2-2.051-0.047-3.073c0.06-1.102,0.121-2.206,0.182-3.311c0.78-0.65,1.039-1.304,0.78-1.953C13.325,67.991,13.065,67.668,12.805,67.668z"/>
<path fill="#666565" d="M75.115,76.862c2.022-0.019,4.042-0.039,6.062-0.058c0.056,1.062,0.115,2.127,0.175,3.188c-2.068,1.038-4.14,2.072-6.209,3.107c-2.065,0.033-4.132,0.07-6.199,0.106c0.002,0-0.482-0.476-0.482-0.476c-1.447-2.191-1.056-4.221,0.54-6.144C71.1,75.263,73.153,75.061,75.115,76.862z"/>
<path fill="#7B7A7B" d="M68.913,76.921c-0.148,1.94-0.296,3.878-0.447,5.813c-2.038,1.031-4.072,2.065-6.108,3.098c-2.065-5.148-4.129-10.291-6.193-15.437c0.079-0.909,0.075-1.815-0.019-2.725c-1.436-2.054-0.307-3.18,1.464-4.068c1.204-0.088,2.279,0.244,3.192,1.041c1.116,1.221,2.016,2.618,2.896,4.004c0.867,1.205,1.681,2.466,2.389,3.766c0.491,0.769,0.692,1.639,0.603,2.545c-0.008-0.03-1.076,0.678-1.076,0.678s1.277-0.119,1.282-0.135c0.004-0.015,1.235,0.388,1.24,0.382C68.141,75.877,68.913,76.921,68.913,76.921z"/>
<path fill="#595757" d="M59.57,64.481c-1.14,1.065-2.28,2.127-3.423,3.189c-0.947-1.074-1.892-2.148-2.838-3.226c-0.984-1.087-1.506-2.354-1.497-3.833c-0.027-2.188-0.006-4.364,0.912-6.424c1.315-1.987,3.016-3.333,5.521-3.373c1.531,0.498,2.669,1.453,3.439,2.866C63.038,57.685,63.002,61.418,59.57,64.481z"/>
<path fill="#646363" d="M46.77,67.82c-0.949,0.977-1.898,1.953-2.847,2.933c-1.112,0.961-2.148,0.839-3.119-0.22l0.153,0.128c-1.769-1.8-4.736-1.267-6.392-3.286l0.215,0.119c-0.712-0.583-1.028-1.236-0.946-1.953c0.085-0.754,0.226-1.133,0.415-1.136c0.786-0.925,1.73-1.654,2.811-2.206c2.191-0.938,4.461-1.636,6.822-2.026c1.226-0.076,2.272,0.345,3.164,1.181C46.954,63.508,46.862,65.663,46.77,67.82z"/>
<path fill="#6E6D6D" d="M47.259,55.076c-0.114,1.013-0.189,2.029-0.228,3.049c-1.306,0.723-2.53,0.644-3.657-0.379c-1.196-1.919-1.242-3.869-0.154-5.85c1.213-0.806,2.512-0.977,3.894-0.52C48.038,52.577,48.087,53.809,47.259,55.076z"/>
<path fill="#3E3A39" d="M53.453,55.039c-0.048,2.094-0.094,4.188-0.14,6.278c-1.043,0.982-2.087,0.985-3.131,0.003c0-2.085,0-4.166,0-6.25l0.957-0.935c0-0.003,1.338-0.012,1.338-0.012L53.453,55.039z"/>
<path fill="#3E3A39" d="M47.259,55.076c-0.072-1.044-0.144-2.084-0.215-3.128c1.163-0.772,2.368-0.889,3.626-0.235c0.768,1.251,0.604,2.371-0.485,3.357h-0.002C49.207,55.07,48.234,55.073,47.259,55.076z"/>
<path fill="#3E3A39" d="M44.099,58.381c0.979-0.055,1.958-0.14,2.933-0.256c0.005,1.074,0.009,2.151,0.014,3.229c-0.968-0.076-1.937-0.134-2.907-0.168c0,0-0.99-0.757-0.993-0.757s-0.006-1.248-0.009-1.251C43.133,59.177,44.099,58.381,44.099,58.381z"/>
<path fill="#322F2E" d="M50.182,61.32c1.044,0,2.088,0,3.131-0.003c-0.001,1.043-0.003,2.087-0.004,3.128C52.267,63.404,51.224,62.36,50.182,61.32z"/>
<path fill="#929293" d="M37.739,83.118c-0.032-1.016-0.05-2.032-0.055-3.048l-0.003,0.003c2.031,0.021,4.063,0.046,6.093,0.066c0.055,0.998,0.056,1.996,0.003,2.994C41.76,85.062,39.747,85.102,37.739,83.118z"/>
<path fill="#8A8A8B" d="M37.739,83.118c2.014,0.004,4.028,0.01,6.04,0.016c0.099,1.022,0.134,2.051,0.107,3.079c-2.051-0.177-4.102-0.351-6.151-0.531C37.711,84.821,37.713,83.969,37.739,83.118z"/>
<path fill="#9E9E9E" d="M40.804,70.533c1.041,0.073,2.08,0.146,3.119,0.22c0.076,0.998,0.058,1.993-0.057,2.984C42.846,72.669,41.825,71.601,40.804,70.533z"/>
<path fill="#050505" d="M75.168,60.914c1.074,0.098,2.15,0.192,3.225,0.29c1.623,2.213,1.782,4.337-0.376,6.323l0.206-0.226c-0.877,1.071-1.752,2.142-2.626,3.216c-0.266,0.992-0.429,2.002-0.485,3.03c-0.904,1.304-2.069,1.603-3.492,0.9c-2.165-2.182-2.568-4.932-2.527-7.83c0.121-1.413,0.456-2.774,0.998-4.087c0.407-0.573,0.827-1.141,1.24-1.712C72.627,60.013,73.908,60.084,75.168,60.914z"/>
<path fill="#7B7A7B" d="M84.339,39.433c-0.968,2.09-1.934,4.178-2.901,6.265c-1.013-0.012-2.024-0.031-3.038-0.055c-0.978-0.778-1.53-1.8-1.724-3.027c0.101-1.227,0.492-2.347,1.215-3.351c0.941-0.806,2.026-1.264,3.271-1.318C82.401,38.053,83.461,38.548,84.339,39.433z"/>
<path fill="#605E5E" d="M78.124,42.549c0.087,1.031,0.178,2.063,0.274,3.094c-0.029,1.046-0.06,2.093-0.09,3.143c-1.043,1.028-2.294,1.551-3.759,1.569c-2.261-0.761-3.484-2.25-3.307-4.725C72.802,42.964,74.729,41.117,78.124,42.549z"/>
<path fill="#7B7A7B" d="M72.051,55.057c0.011,1.056,0.02,2.112,0.029,3.168c0.785,0.695,1.056,1.4,0.813,2.118c-0.244,0.72-0.494,1.08-0.75,1.08l0.02-0.019c-0.917,1.047-2.018,1.3-3.302,0.763c-0.916-0.937-1.465-2.054-1.654-3.351c0.095-1.297,0.542-2.466,1.332-3.497c0.566-0.29,1.136-0.58,1.701-0.87C70.842,54.655,71.447,54.856,72.051,55.057z"/>
<path fill="#7C7B7C" d="M78.017,67.527c0.125-2.105,0.25-4.215,0.376-6.323l-0.176,0.235c0.917-1.047,1.935-1.16,3.058-0.339C80.189,63.242,79.102,65.385,78.017,67.527z"/>
<path fill="#7C7B7C" d="M72.059,73.167c0.99,0.348,2.008,0.473,3.053,0.381c0.002,1.105,0.003,2.21,0.005,3.314c-2.069,0.019-4.137,0.04-6.204,0.059l0.036,0.039c-0.841-0.646-1.221-1.379-1.14-2.2c0.086-0.866,0.241-1.297,0.464-1.3C69.475,72.611,70.738,72.513,72.059,73.167z"/>
<path fill="#7B7A7B" d="M75.209,51.967c-1.053,1.028-2.105,2.06-3.158,3.091l-0.072-0.092c-0.404-1.452-0.042-2.646,1.204-3.536C73.859,51.609,74.534,51.786,75.209,51.967z"/>
<path fill="#7B7A7B" d="M81.431,51.896c1.042,0,2.085,0,3.128,0c-0.512,0.552-1.024,1.104-1.564,1.69C82.455,53.001,81.942,52.448,81.431,51.896z"/>
<path fill="#666565" d="M72.143,61.424c-0.021-1.065-0.042-2.133-0.063-3.198c1.029,0.897,2.06,1.794,3.088,2.691C74.181,61.21,73.172,61.378,72.143,61.424z"/>
<path fill="#252322" d="M81.275,61.1c-1.013,0.161-2.032,0.274-3.057,0.339c1.001-1.074,2.004-2.148,3.005-3.22c0.759,0.681,1.009,1.36,0.752,2.038c-0.255,0.675-0.51,1.014-0.764,1.014L81.275,61.1z"/>
<path fill="#7C7B7C" d="M81.211,61.271c0.145-1.017,0.149-2.033,0.014-3.052c0.582,0.5,1.167,1.001,1.788,1.535C82.387,60.282,81.798,60.776,81.211,61.271z"/>
<path fill="#7C7B7C" d="M75.597,70.517c0.876-1.07,1.75-2.142,2.626-3.213C77.349,68.376,76.473,69.447,75.597,70.517z"/>
<path fill="#7B7A7B" d="M75.285,48.844c1.009-0.013,2.016-0.034,3.024-0.059c-1.033,1.06-2.066,2.118-3.1,3.181l-0.035-0.028c-0.929-0.72-1.221-1.419-0.88-2.096C74.629,49.176,74.959,48.844,75.285,48.844z"/>
<path fill="#565454" d="M81.27,39.387c-0.955-0.006-1.908,0.042-2.857,0.152c-0.644-0.189-1.289-0.378-1.937-0.562c-1.091-0.842-1.815-1.938-2.23-3.247c0.157-1.376,0.763-2.518,1.814-3.424c1.263-0.519,2.563-0.647,3.899-0.327c0.51,0.434,1.02,0.867,1.53,1.3c0,1.053-0.001,2.105-0.001,3.158c0.797,0.717,1.028,1.395,0.699,2.03C81.871,39.082,81.565,39.387,81.27,39.387z"/>
<path fill="#535151" d="M84.506,30.149c0.019,1.013,0.039,2.023,0.06,3.037c-1.025,0.009-2.052,0.042-3.077,0.095c0.001,0-0.068-0.104-0.068-0.104c-0.42-0.543-0.838-1.086-1.258-1.629c0.246-0.644,0.493-1.285,0.738-1.929C82.232,28.923,83.44,29.06,84.506,30.149z"/>
<path fill="#7C7B7C" d="M81.27,39.387c0.048-0.986,0.119-1.968,0.219-2.948c0.952,0.998,1.902,1.996,2.852,2.994C83.315,39.436,82.292,39.421,81.27,39.387z"/>
<path fill="#2D2A29" d="M84.506,30.149c-1.019-0.07-2.038-0.101-3.061-0.095c-0.841-0.692-1.162-1.428-0.967-2.209c0.199-0.799,0.427-1.202,0.682-1.202c0,0-0.022-0.006-0.024-0.006c2.185,0.092,4.37,0.183,6.555,0.275C86.629,27.991,85.569,29.069,84.506,30.149z"/>
<path fill="#9E9E9E" d="M15.943,58.097c-1.079,0.024-2.159,0.049-3.238,0.073c-0.064-1.038-0.078-2.078-0.042-3.116c0-0.003-0.027-0.049-0.027-0.049C15.8,53.834,16.337,55.467,15.943,58.097z"/>
<path fill="#929293" d="M12.805,67.668c0.384,0.698,0.83,1.379,1.091,2.121c0.044,0.128-0.709,0.533-1.092,0.809C12.756,69.621,12.756,68.644,12.805,67.668z"/>
<path fill="#737272" d="M15.943,58.097c-1.102-1.032-2.204-2.063-3.307-3.092c0.04-1.041,0.137-2.075,0.296-3.104c2.045-0.019,4.085-0.04,6.126-0.058c1.421-0.883,2.716-0.684,3.903,0.457c0.955,2.295,0.659,4.386-1.013,6.257c-2.161,1.199-4.242,1.434-6.145-0.504L15.943,58.097z"/>
<path fill="#535151" d="M81.161,26.643c0.095,1.138,0.19,2.276,0.285,3.412l-0.005,0.006c-1.698,1.889-3.651,1.581-5.674,0.659c-0.724-0.739-1.044-1.538-0.96-2.393c0.087-0.885,0.229-1.331,0.429-1.331c0,0-0.211-0.308-0.212-0.308C77.068,26.673,79.115,26.658,81.161,26.643z"/>
<path fill="#9B9B9C" d="M56.432,14.448c1.046,2.078,2.091,4.157,3.136,6.238l-0.011,0.009c-1.029,0.845-2.104,0.949-3.233,0.198c-0.845-0.934-1.329-2.032-1.504-3.274c0.122-0.601,0.247-1.203,0.37-1.807C55.604,15.358,56.017,14.903,56.432,14.448z"/>
<path fill="#9C9C9D" d="M53.269,11.308c1.05,0,2.102,0.003,3.152,0.003c0.003,1.047,0.008,2.09,0.011,3.137l-0.021,0.019c-1.086,1.074-2.269,1.196-3.554,0.366c-0.806-1.291-0.679-2.487,0.377-3.583L53.269,11.308z"/>
<path fill="#858585" d="M75.236,26.997c0.044,1.016,0.012,2.029-0.098,3.04c-0.39,0.519-0.777,1.038-1.163,1.563c-1.379,1.41-2.911,2.606-4.756,3.366c-1.875,0.665-3.806,0.882-5.785,0.647c-1.281-0.272-2.441-0.824-3.5-1.596c-0.866-1.004-1.288-2.185-1.335-3.51c0.703-1.953,2.023-3.195,4.126-3.519c1.048-0.009,2.098-0.021,3.147-0.034c1.022-0.024,2.044-0.027,3.064-0.009C71.037,26.963,73.136,26.982,75.236,26.997z"/>
<path fill="#9C9D9D" d="M62.725,26.988c-1.071,1.089-2.143,2.176-3.214,3.262c-1.545,1.712-3.389,1.694-5.366,0.931c-1.104-0.788-1.916-1.81-2.453-3.055c-0.275-1.327-0.216-2.646,0.117-3.955c0.603-1.214,1.446-2.228,2.551-3.018c0.635-0.205,1.274-0.4,1.914-0.598c1.094,0.046,2.189,0.095,3.283,0.141c0.002,1.041,0,2.081,0,3.122c1.001,1.032,2.015,2.051,3.043,3.055L62.725,26.988z"/>
<path fill="#A1A1A2" d="M62.6,26.872c-1.015-1.017-2.029-2.036-3.043-3.055C60.571,24.836,61.585,25.855,62.6,26.872z"/>
<path fill="#9E9F9F" d="M25.19,23.835c1.048-0.003,2.098-0.009,3.148-0.015c0.392,0.452,0.784,0.903,1.178,1.355c-0.165,1.257-0.812,2.179-1.937,2.762c-0.601-0.009-1.202-0.021-1.805-0.031c-0.483-0.36-0.966-0.72-1.45-1.08C23.798,25.596,24.087,24.598,25.19,23.835z"/>
<path fill="#99999A" d="M25.19,23.835c-0.026,1.068-0.05,2.133-0.075,3.198c-1.193,0.757-2.424,0.787-3.691,0.186c-0.7-1.309-0.487-2.444,0.641-3.409l-0.022,0.024C23.092,23.835,24.14,23.835,25.19,23.835z"/>
<path fill="#ADADAE" d="M31.318,20.829c0.052,0.97,0.055,1.941,0.012,2.908c-1,1.16-1.999,1.16-3.003,0.006l0.011,0.077C29.331,22.822,30.325,21.827,31.318,20.829z"/>
<path fill="#464342" d="M22.157,26.795c0.981,0.144,1.967,0.223,2.958,0.238l-0.25,0.253c0.658,1.291,0.534,2.475-0.49,3.534c-1.992,0.958-3.836,0.824-5.489-0.738c-2.043-0.006-4.088-0.012-6.132-0.019c-0.037-1.031-0.085-2.063-0.148-3.091c2.125-0.021,4.252-0.04,6.379-0.058C19.996,25.633,21.052,25.593,22.157,26.795z"/>
<path fill="#797979" d="M22.157,26.795c-1.059,0.04-2.116,0.083-3.172,0.122c-0.04-1.038-0.055-2.072-0.042-3.106c1.041,0,2.081,0,3.123,0.003C22.063,24.809,22.094,25.803,22.157,26.795z"/>
<path fill="#939393" d="M28.327,23.743c1.001,0.04,2.003,0.037,3.003-0.006c2.173-0.012,4.347-0.024,6.521-0.037c0.255,0.662,0.51,1.324,0.765,1.99c-0.377,1.45-1.267,2.475-2.592,3.146c-2.963,0.824-5.676,0.647-7.77-1.969C28.277,25.828,28.301,24.787,28.327,23.743z"/>
<path fill="#7D7C7D" d="M40.808,17.57c1.013,0.018,2.026,0.034,3.04,0.049c0,0,0.985,1.202,0.987,1.202c0.241,1.188-0.169,2.072-1.225,2.661c0.001,0.003-1.552,0.149-1.552,0.153l-1.245-0.937C40.81,19.655,40.809,18.614,40.808,17.57z"/>
<path fill="#7E7D7D" d="M37.851,23.701c0.986-1.001,1.973-2.002,2.96-3.003l0.001-0.006c0.788,0.708,1.112,1.471,0.975,2.292c-0.141,0.845-0.325,1.267-0.551,1.267c-1.323,0.796-2.484,0.607-3.485-0.568L37.851,23.701z"/>
<path fill="#B2B2B3" d="M53.306,14.365c1.034,0.061,2.068,0.095,3.104,0.098c-0.004,0.983,0.003,1.962,0.023,2.945c-1.684,1.767-3.694,2.856-6.173,2.981c-2.475-0.101-4.504-1.181-6.243-2.881l-0.171,0.11c0.076-1.041,0.154-2.082,0.233-3.122l-0.187,0.101c1.19-0.998,2.153-2.218,3.25-3.308c0,0-0.032,0.18-0.032,0.183c0.998-0.082,1.996-0.106,2.997-0.07C51.266,12.29,52.332,13.279,53.306,14.365z"/>
<path fill="#7E7D7D" d="M47.143,11.289c-1.082,1.102-2.166,2.204-3.249,3.305C44.976,13.496,46.059,12.391,47.143,11.289z"/>
<path fill="#9C9C9D" d="M53.306,14.365c-1.065-0.989-2.132-1.974-3.198-2.963c1.043-0.049,2.086-0.101,3.128-0.153C53.28,12.287,53.303,13.325,53.306,14.365z"/>
<path fill="#787777" d="M18.954,48.835c-1.444-0.372-2.887-0.744-5.561-1.438c0.926-1.901,1.646-3.381,2.368-4.861c1.115-0.146,1.98-0.678,2.554-1.685c1.114-1.376,2.628-2.2,4.094-3.113c0.906-0.821,1.805-1.626,2.717-2.444c0.629-0.077,1.241-0.146,1.871-0.217c1.284,0.36,2.278,1.08,2.977,2.219c1.128,2.566,1.007,5.139,0.083,7.724c-0.844,1.88-2.089,3.439-3.745,4.669c-1.213,0.645-2.505,0.886-3.871,0.739C21.049,50.41,19.885,49.879,18.954,48.835z"/>
<path fill="#7F7F7F" d="M18.961,42.518c-0.52,0.553-1.039,1.102-1.578,1.642c-0.554-0.546-1.088-1.083-1.622-1.624c-0.038-1.081-0.078-2.161-0.116-3.241c0.427-0.369,0.856-0.738,1.283-1.111c1.179,0.016,2.167,0.458,2.966,1.325C20.158,40.69,19.847,41.694,18.961,42.518z"/>
<path fill="#5F5D5D" d="M18.954,48.835c1.021-0.018,2.04-0.012,3.059,0.021c0.801,0.656,1.068,1.318,0.807,1.98c-0.262,0.666-0.526,0.998-0.793,0.998l-1.486,0.024c0,0-1.486-0.012-1.483-0.015C18.968,50.843,18.933,49.843,18.954,48.835z"/>
<path fill="#615F5F" d="M15.646,39.295c-0.987-1.001-1.975-1.999-2.963-3l-0.023,0.033c1.058-0.879,2.118-0.842,3.183-0.015l-0.077-0.055c1.065,0.684,1.433,1.385,1.105,2.105c-0.333,0.732-0.67,1.096-1.018,1.096L15.646,39.295z"/>
<path fill="#848484" d="M15.853,39.46c-0.029-1.065-0.058-2.133-0.087-3.198c2.098,0.018,4.196,0.04,6.294,0.061c1.058-1.059,2.02-1.032,2.873,0.25c-0.979,0.974-1.958,1.944-2.937,2.915c-1.007,1.142-2.008,1.196-3.004-0.012C17.945,39.469,16.9,39.466,15.853,39.46z"/>
<path fill="#44403F" d="M18.887,30.082c2.067,0.012,4.135,0.024,6.203,0.033c0.343,0.571,0.687,1.139,1.03,1.712c-0.143,0.65-0.288,1.3-0.433,1.95c-0.604,0.284-1.21,0.568-1.816,0.852c-0.536-0.4-1.069-0.799-1.605-1.202C21.139,32.313,20.013,31.199,18.887,30.082z"/>
<path fill="#787777" d="M22.265,33.427c0.964-0.089,1.927-0.162,2.893-0.217c0.768,0.644,1.041,1.303,0.819,1.983c-0.223,0.69-0.458,1.035-0.704,1.035c0,0-0.334,0.339-0.337,0.342c-0.956-0.144-1.914-0.229-2.876-0.247C22.082,35.352,22.15,34.388,22.265,33.427z"/>
<path fill="#727171" d="M15.843,36.314c-1.061,0.003-2.121,0.009-3.182,0.015c0.521-0.562,1.041-1.12,1.591-1.712C14.802,35.203,15.322,35.759,15.843,36.314z"/>
<path fill="#9E9F9F" d="M15.805,58.054c2.035,0.104,4.069,0.211,6.103,0.314l0.995,0.763l0.061,1.254l-0.857,0.913C20.005,60.218,17.906,59.135,15.805,58.054z"/>
<path fill="#A2A2A3" d="M28.329,64.408c-2.075-1.034-4.148-2.072-6.224-3.109c0.001,0-0.049,0.024-0.049,0.024c0.856-0.992,1.93-1.6,3.219-1.825c1.3,0.101,2.457,0.564,3.472,1.383c0.165,0.613,0.33,1.229,0.493,1.846C28.936,63.288,28.632,63.849,28.329,64.408z"/>
<path fill="#A2A2A3" d="M34.742,64.347c0.012,1.05,0.024,2.1,0.038,3.146c-2.15-1.029-4.301-2.055-6.452-3.086l-0.064,0.079c1.341-1.69,3.067-1.992,5.042-1.388C33.785,63.514,34.265,63.929,34.742,64.347z"/>
<path fill="#9E9F9F" d="M34.565,67.375c2.13,1.096,4.26,2.19,6.392,3.286C38.827,69.565,36.695,68.47,34.565,67.375z"/>
<path fill="#929293" d="M37.684,80.07c-0.421-0.232-0.842-0.464-1.264-0.696c0.42,0.232,0.841,0.464,1.26,0.699L37.684,80.07z"/>
<path fill="#7B7A7B" d="M68.94,58.225c-0.003,0.979-0.008,1.962-0.011,2.945c-0.089,1.153-0.398,2.239-0.949,3.262c-0.345,0.461-0.703,0.913-1.044,1.38c-0.784,0.86-1.671,1.602-2.632,2.258c-0.528,0.241-1.063,0.464-1.598,0.696c-1.207,0.082-2.241-0.324-3.123-1.142c-0.005-1.047-0.01-2.094-0.014-3.144c0.015-4.169,0.028-8.337,0.044-12.506c0.842-0.818,1.85-1.172,3.021-1.068c1.65,0.547,2.971,1.568,4.094,2.872C67.71,55.134,67.825,56.926,68.94,58.225z"/>
<path fill="#666565" d="M59.583,67.625c1.135,0.085,2.271,0.168,3.405,0.25c0.17,0.562,0.341,1.126,0.51,1.688c-0.355,0.467-0.709,0.938-1.063,1.404C61.485,69.852,60.534,68.739,59.583,67.625z"/>
<path fill="#666565" d="M65.6,74.033c-1.055-1.025-2.107-2.048-3.163-3.069c-0.002,0.003,0.79-0.718,0.79-0.718c1.446,0.034,2.525,0.681,3.236,1.941C66.175,72.801,65.888,73.417,65.6,74.033z"/>
<path fill="#666565" d="M69.027,74.07c-0.068,0.961-0.095,1.926-0.079,2.887c-1.052-0.009-2.103-0.021-3.154-0.03l0.032,0.033c-0.009-0.982-0.082-1.962-0.223-2.93c-0.003,0.003,0.625-0.705,0.625-0.705C67.365,72.809,68.297,73.059,69.027,74.07z"/>
<path fill="#666565" d="M65.793,76.926c-0.228,0.424-0.453,0.845-0.679,1.27c0.236-0.412,0.475-0.824,0.711-1.236L65.793,76.926z"/>
<path fill="#4E4C4B" d="M62.704,51.984l-1.546-0.024c0,0-1.546,0.016-1.544,0.016c-1.061-0.009-2.121-0.021-3.183-0.033c-0.781-0.879-1.098-1.89-0.876-3.049c0.418-0.846,1.054-1.429,1.98-1.773c-0.594-0.757-1.806-0.866-2.016-1.974c-0.026-1.203,0.304-2.286,0.977-3.281c1.718-1.81,3.844-2.893,6.22-3.559c1.246-0.216,2.47-0.128,3.683,0.229c1.716,0.913,3.005,2.234,3.824,4.001c0.257,1.254,0.127,2.472-0.372,3.65c-0.688,1.05-1.508,1.986-2.449,2.816C66.012,50.269,64.472,51.31,62.704,51.984z"/>
<path fill="#4E4B4B" d="M56.432,48.82c0,1.04,0,2.081-0.001,3.122c-0.994,1.034-1.988,2.065-2.98,3.101c0.002-0.004-0.198,0.03-0.198,0.03c-0.941-0.949-1.465-2.081-1.502-3.424c-0.055-1.347,0.373-2.515,1.274-3.513C54.321,47.568,55.455,47.798,56.432,48.82z"/>
<path fill="#7A7979" d="M44.138,61.185c-2.192,1.09-4.387,2.183-6.58,3.274c-0.928-0.866-1.492-1.932-1.744-3.171c0.073-1.257,0.45-2.413,1.175-3.448c1.074-0.684,2.249-0.897,3.502-0.705c1.646,0.977,2.138,2.933,3.503,4.153L44.138,61.185z"/>
<path fill="#5F5D5D" d="M37.665,61.39c0.009,1.025-0.026,2.047-0.104,3.069c-0.943-0.021-1.883-0.061-2.821-0.112c0.001,0-0.507,0.32-0.507,0.32c-0.685-1.15-0.654-2.259,0.197-3.317C35.518,60.517,36.598,60.529,37.665,61.39z"/>
<path fill="#747474" d="M40.797,58.195c-1.045,0.009-2.091,0.015-3.136,0.024c-0.873,1.034-1.985,1.604-3.333,1.712c-1.326-0.027-2.484-0.504-3.491-1.346c-0.514-1.182-0.551-2.399-0.185-3.626c1.109-1.438,2.627-2.387,4.138-3.323c1.405-1.001,2.405-2.374,3.325-3.83c0.606-1.044,1.359-1.947,2.265-2.743c1.175-0.488,2.356-0.5,3.558-0.116c0.932,0.876,1.504,1.941,1.732,3.195c-0.067,1.288-0.545,2.396-1.427,3.332c-0.05,2.302-0.099,4.603-0.146,6.906c0.001,0,0.014-0.049,0.014-0.049C42.963,59.333,41.857,59.287,40.797,58.195z"/>
<path fill="#494545" d="M43.864,46.04c-1.005-0.229-2.023-0.369-3.052-0.424c-0.804-1.313-0.751-2.619,0.046-3.919c1.19-0.857,2.511-1.382,3.952-1.639c2.262-0.11,4.314,0.442,6.085,1.898c1.341,1.883,1.728,3.937,1.068,6.167c-0.159,1.471-0.781,2.729-1.8,3.8c-1.039,0.006-2.079,0.015-3.12,0.024c-0.95-0.067-1.886-0.223-2.803-0.47c-0.009-0.813-0.064-1.618-0.164-2.421c0.759-0.729,0.979-1.419,0.664-2.068C44.434,46.354,44.143,46.04,43.864,46.04z"/>
<path fill="#322F2E" d="M50.163,51.924c0.005-1.035,0.011-2.066,0.023-3.101c1.006-1.099,2.016-1.05,3.03-0.013c0.013,2.088,0.024,4.175,0.037,6.263c-1.024-0.003-2.048-0.003-3.07-0.003C50.178,54.02,50.171,52.973,50.163,51.924z"/>
<path fill="#6E6D6D" d="M40.797,58.195c1.103,0.046,2.208,0.091,3.313,0.137c-0.072,0.986-0.111,1.972-0.116,2.957C42.928,60.258,41.862,59.226,40.797,58.195z"/>
<path fill="#050505" d="M69.027,74.07c-0.923-0.29-1.857-0.537-2.802-0.742c-0.999-1.028-2.002-2.054-3.001-3.082c-0.157-0.784-0.238-1.574-0.236-2.371c0.001,0-0.11-0.063-0.11-0.063c0.885-1.225,1.841-2.378,3.093-3.251l-0.046,0.073c1.926-1.978,3.955-2.029,6.083-0.332c0.017,2.957,0.034,5.911,0.052,8.868C71.048,73.468,70.038,73.771,69.027,74.07z"/>
<path fill="#666565" d="M72.007,64.301c-2.028,0.109-4.055,0.22-6.083,0.332c1.003-1.153,2.004-2.307,3.005-3.463c1.079,0.076,2.156,0.155,3.233,0.234C72.133,62.373,72.081,63.337,72.007,64.301z"/>
<path fill="#565454" d="M68.958,45.679c-0.017-1.031-0.032-2.06-0.045-3.091c0.307-2.173,1.546-3.631,3.472-4.575c2.042-0.293,3.988-0.128,5.67,1.242c0,0,0.355,0.281,0.355,0.284c-0.077,1.004-0.172,2.008-0.285,3.009c-2.017,1.05-4.034,2.1-6.05,3.146C71.032,46.677,69.993,46.675,68.958,45.679z"/>
<path fill="#4E4B4A" d="M68.958,45.679c1.039,0.006,2.078,0.012,3.117,0.016c1.069,1.05,2.138,2.1,3.209,3.149c-0.04,1.031-0.076,2.063-0.11,3.094c-1.064,1.011-2.128,2.021-3.195,3.031c-0.994-0.019-1.989-0.034-2.984-0.043c-0.654-0.379-1.311-0.757-1.968-1.133c-2.268-2.337-3.688-4.83-1.437-7.983C66.713,45.768,67.836,45.725,68.958,45.679z"/>
<path fill="#666565" d="M68.94,58.225c-1.053-1.056-2.105-2.112-3.158-3.168c1.089-1.218,2.185-1.224,3.286-0.019l-0.073-0.112C68.976,56.025,68.958,57.124,68.94,58.225z"/>
<path fill="#3F3B3A" d="M75.138,30.036c2.101,0.009,4.2,0.015,6.302,0.024c0.003,1.041-0.003,2.078-0.02,3.116c-2.079,0.006-4.158,0.012-6.236,0.019c-0.377-0.516-0.754-1.035-1.136-1.55c0.383-0.51,0.771-1.022,1.16-1.532L75.138,30.036z"/>
<path fill="#484544" d="M78.055,39.256c-1.995,0.058-3.99,0.116-5.984,0.171c-0.301-0.598-0.601-1.196-0.903-1.794c0.226-0.632,0.453-1.26,0.679-1.892c1.293-0.745,2.427-0.552,3.4,0.58C76.182,37.3,77.119,38.279,78.055,39.256z"/>
<path fill="#2F2C2C" d="M75.247,36.32c-1.066-0.034-2.134-0.07-3.2-0.107c-0.74-0.723-1.033-1.486-0.877-2.289c0.157-0.824,0.346-1.236,0.569-1.239c1.303-0.806,2.45-0.623,3.44,0.543l0.005-0.033C75.205,34.239,75.225,35.279,75.247,36.32z"/>
<path fill="#6F6E6E" d="M31.399,55.143c0.011,1.019,0.021,2.035,0.034,3.052c0.845,0.698,1.193,1.458,1.046,2.282c-0.152,0.854-0.349,1.282-0.595,1.285c-1.313,0.894-2.55,0.76-3.725-0.26l0.165-0.283c-1.723-1.904-4.68-1.074-6.436-2.905c0,0,0.023,0.052,0.021,0.055c0.04-2.176,0.079-4.355,0.119-6.531c0.008-0.994,0.003-1.989-0.015-2.984c1.03-0.033,2.06-0.061,3.088-0.082c1.01,0.305,1.837,0.876,2.502,1.688c0.768,0.665,1.479,1.392,2.174,2.133C30.601,53.263,31.133,54.121,31.399,55.143z"/>
<path fill="#7F7F7F" d="M50.203,17.588c2.078-0.058,4.154-0.119,6.231-0.18c-0.052,1.05-0.105,2.1-0.159,3.146c-0.001,0,0.156,0.153,0.156,0.153c-1.56,1.453-3.447,1.62-5.438,1.385c-0.521-0.391-1.042-0.784-1.563-1.175C48.821,19.609,49.119,18.507,50.203,17.588z"/>
<path fill="#353130" d="M72.063,33.238c-0.003,0.992-0.009,1.987-0.015,2.979c-0.002-0.003-0.016,0.25-0.016,0.25c-1.794,1.522-2.586,5.023-6.123,3.101c-1.093-0.064-2.186-0.128-3.277-0.192c0,0-1.131-1.062-1.134-1.062c-0.507-0.974-0.6-1.987-0.289-3.037c0.42-1.129,1.234-1.66,2.438-1.599c1.794-0.144,3.589-0.287,5.383-0.43C70.037,31.995,71.048,31.992,72.063,33.238z"/>
<path fill="#7F7F7F" d="M53.271,30.091c2.081,0.052,4.161,0.104,6.24,0.156c0.029,0.977,0.054,1.947,0.075,2.92c-0.345,0.394-0.689,0.791-1.033,1.188c-0.988,0.406-2.014,0.54-3.076,0.415c-1.012-0.348-1.863-0.928-2.533-1.764c-0.136-0.506-0.269-1.013-0.402-1.52C52.784,31.022,53.028,30.555,53.271,30.091z"/>
<path fill="#4A4747" d="M72.063,33.238l-1.517-0.015l-1.517,0.024c2.061-1.044,4.118-2.09,6.177-3.134c-0.012,1.038-0.021,2.075-0.027,3.116l-1.558-0.018L72.063,33.238z"/>
<path fill="#7F7F7F" d="M63.647,33.677c-0.461,0.791-0.927,1.578-1.394,2.368c-2.554,0.659-3.548-0.195-2.727-2.811l0.06-0.067C60.94,33.335,62.293,33.506,63.647,33.677z"/>
<path fill="#B0B1B1" d="M50.185,20.701c2.082,0,4.164,0.003,6.246,0.006c-1.003,1.059-2.005,2.115-3.01,3.174c-1.004,1.092-2.145,1.26-3.421,0.503C49.348,23.121,49.372,21.891,50.185,20.701z"/>
<path fill="#AEAEAF" d="M50.021,23.783c1.132,0.03,2.266,0.064,3.4,0.098c-0.042,1.068-0.087,2.133-0.131,3.201c-1.354,1.499-3.029,1.886-4.95,1.425c-1.152-0.562-1.889-1.453-2.144-2.719C46.809,23.86,47.753,22.563,50.021,23.783z"/>
<path fill="#7B7A7B" d="M47.051,26.905c2.08,0.058,4.159,0.116,6.239,0.174c0.021,1.007,0.016,2.008-0.019,3.012c-0.001,0,0.06-0.076,0.06-0.076c-1.744,1.968-3.788,1.883-5.967,0.87c-0.707-0.833-0.989-1.7-0.846-2.6C46.663,27.366,46.842,26.905,47.051,26.905z"/>
<path fill="#828282" d="M28.254,26.868c3.026,0.119,6.053,0.238,9.079,0.357c1.947,1.571,2.083,3.519,1.183,5.685c-2.539,2.265-5.284,1.499-8.04,0.559c-2.039-0.705-3.804-1.837-5.281-3.418l-0.104,0.064c-0.044-0.946-0.117-1.889-0.224-2.832C25.996,27.146,27.125,27.009,28.254,26.868z"/>
<path fill="#9E9E9F" d="M37.762,33.113c-0.14-1.962-0.282-3.928-0.426-5.89c0.136-1.178,0.276-2.359,0.417-3.54c0.974-0.067,1.942-0.174,2.909-0.32c3.646-1.456,4.973,1.267,6.508,3.613c0,0-0.116-0.07-0.118-0.07c0.027,1.013,0.057,2.03,0.087,3.043c0.87,0.909,1.164,1.962,0.797,3.189c-0.775,1.69-1.999,2.957-3.624,3.854c-1.149,0.439-2.332,0.516-3.54,0.299C39.072,36.402,37.978,35.072,37.762,33.113z"/>
<path fill="#878788" d="M47.169,26.975c-2.168-1.202-4.337-2.402-6.506-3.607c0.082-0.895,0.133-1.786,0.151-2.676c1.045,0,2.089,0,3.134,0c2.087-1.92,4.175-1.853,6.261,0.006l-0.023,0.003c0.002,1.028-0.052,2.057-0.163,3.083C49.07,24.848,48.12,25.91,47.169,26.975z"/>
<path fill="#9C9C9D" d="M50.208,20.698c-2.088-0.003-4.175-0.003-6.262-0.006c0.023-1.059,0.042-2.118,0.068-3.18c2.064,0.024,4.126,0.049,6.188,0.076C50.16,18.626,50.161,19.66,50.208,20.698z"/>
<path fill="#5D5B5B" d="M37.762,33.113c1.001,1.114,2.002,2.231,3.004,3.345c1.381,1.767,0.788,3.29-0.571,4.718c-0.381,0.455-0.769,0.913-1.15,1.371c-0.7,0.979-1.572,1.773-2.614,2.377c-1.55,0.87-3.181,1.554-4.925,1.947c-0.583-0.027-1.17-0.067-1.758-0.104c-0.469-0.349-0.938-0.702-1.409-1.06c-0.091-2.984-0.185-5.972-0.276-8.959c0.094-1.499,0.325-2.958,1.202-4.233c0.568-0.824,1.257-1.532,2.063-2.124C33.473,31.297,35.616,32.206,37.762,33.113z"/>
<path fill="#3C3837" d="M31.367,33.262c-1.1,1.16-2.2,2.319-3.302,3.482c-0.917-0.247-1.848-0.418-2.791-0.513c-0.098-1.007-0.137-2.011-0.116-3.021h0.064C27.287,31.327,29.336,31.287,31.367,33.262z"/>
<path fill="#605E5E" d="M25.183,51.951c-0.026-1.063-0.052-2.121-0.08-3.18c1.079-1.022,2.158-2.042,3.236-3.064l-0.017-0.024c0.99,0.897,1.619,1.996,1.834,3.33c-0.11,1.339-0.59,2.529-1.44,3.573C27.403,53.123,26.219,52.946,25.183,51.951z"/>
<path fill="#686666" d="M18.992,39.475c1.002-0.042,2.003-0.037,3.004,0.012c-1.012,1.01-2.023,2.023-3.035,3.034C18.945,41.505,18.955,40.489,18.992,39.475z"/>
<path fill="#504D4D" d="M31.367,33.262c-2.049-0.018-4.098-0.037-6.146-0.055c-0.008-1.05-0.017-2.103-0.026-3.156c2.046,0.11,4.091,0.217,6.135,0.333C31.385,31.348,31.399,32.304,31.367,33.262z"/>
<path fill="#737272" d="M21.888,58.314c2.146,0.967,4.291,1.938,6.436,2.905c-2.09,0.033-4.179,0.066-6.268,0.104C22.048,60.316,21.992,59.311,21.888,58.314z"/>
<path fill="#89898A" d="M28.16,61.503c1.091-0.061,2.182-0.122,3.271-0.183c0.494-0.477,0.987-0.952,1.481-1.432c0.505,0.461,1.01,0.928,1.515,1.395c-0.063,1.126-0.126,2.256-0.192,3.382c-1.991-0.059-3.981-0.119-5.971-0.178C28.245,63.493,28.21,62.498,28.16,61.503z"/>
<path fill="#7B7A7B" d="M69.068,55.039c-1.096,0.007-2.191,0.013-3.285,0.019c-1.026-1.025-2.054-2.048-3.079-3.073c0.963-2.057,1.927-4.116,2.889-6.173C66.75,48.886,67.909,51.963,69.068,55.039z"/>
<path fill="#666565" d="M65.97,64.56c-1.031,1.084-2.063,2.164-3.093,3.251C63.909,66.727,64.941,65.644,65.97,64.56z"/>
<path fill="#3E3938" d="M53.217,48.81c-1.01,0.007-2.021,0.01-3.03,0.013c0.006-2.069,0.011-4.138,0.017-6.208c1.317-1.581,2.984-1.843,4.867-1.294c0.449,0.406,0.897,0.815,1.347,1.224c0.001,1.034-0.005,2.072-0.021,3.106c-0.708,1.278-1.668,2.325-2.881,3.144L53.217,48.81z"/>
<path fill="#595757" d="M65.91,39.567c2.041-1.035,4.083-2.069,6.123-3.101c0.011,0.989,0.023,1.974,0.038,2.96c-1.053,1.053-2.104,2.106-3.157,3.162C67.913,41.581,66.912,40.574,65.91,39.567z"/>
<path fill="#3B3736" d="M62.632,39.375c-2.072,1.056-4.144,2.115-6.215,3.171h-0.013c-0.685-1.318-0.507-2.536,0.414-3.674c1.932-1.331,3.776-1.09,5.559,0.305L62.632,39.375z"/>
<path fill="#5B5959" d="M53.515,48.796c0.961-1.047,1.921-2.097,2.881-3.144c0.552,0.516,1.104,1.031,1.645,1.563c-0.545,0.543-1.075,1.074-1.608,1.605C55.46,48.804,54.489,48.796,53.515,48.796z"/>
<path fill="#7F7F7F" d="M34.554,58.195c1.036,0,2.072,0.009,3.108,0.024c0,1.056,0.003,2.111,0.004,3.167c-1.079-0.033-2.157-0.066-3.238-0.104c-0.001,0,0.128,0.043,0.128,0.043c-0.821-0.696-1.094-1.392-0.823-2.088C34.008,58.543,34.28,58.195,34.554,58.195z"/>
<path fill="#808080" d="M31.399,55.143c-1-0.059-2-0.098-3.001-0.122c-0.768-0.659-1.028-1.325-0.784-1.996c0.246-0.675,0.493-1.014,0.746-1.014l-0.065-0.082c1.762-2.249,3.358-4.721,6.656-4.88c1.477,0.195,2.694,0.873,3.691,1.969c0.617,2.163,0.725,4.248-0.951,6.052C35.593,55.094,33.496,55.119,31.399,55.143z"/>
<path fill="#626160" d="M37.548,48.942c-0.986-0.08-1.97-0.159-2.954-0.247c-0.444-0.534-0.89-1.071-1.335-1.608c0.286-0.635,0.574-1.27,0.858-1.904c1.107-0.846,2.24-1.657,3.396-2.436l0.319-0.339c1.048-1.172,2.011-1.166,2.875,0.208c0.066,1.001,0.101,2.002,0.105,3.003c-0.014,1.05-0.027,2.103-0.041,3.156C39.777,50.38,38.699,50.364,37.548,48.942z"/>
<path fill="#6E6D6D" d="M37.548,48.942c1.074-0.059,2.148-0.113,3.223-0.168c-1.027,2.097-2.054,4.196-3.081,6.296C37.642,53.025,37.595,50.983,37.548,48.942z"/>
<path fill="#615F5F" d="M34.554,58.195c0.003,1.04,0.005,2.084,0.003,3.128c-1.041,0-2.083,0-3.125-0.003c0-1.041,0-2.085,0-3.125C32.473,58.195,33.514,58.195,34.554,58.195z"/>
<path fill="#6E6D6D" d="M43.864,46.04c0.429,0.671,0.94,1.313,1.222,2.041c0.065,0.168-0.653,0.639-1.01,0.974C43.969,48.053,43.899,47.047,43.864,46.04z"/>
<path fill="#646262" d="M56.501,39.607c-0.078,0.977-0.11,1.959-0.095,2.939c-2.068,0.021-4.136,0.045-6.203,0.07c-2.06-0.024-4.118-0.052-6.177-0.076c-0.86-0.65-1.248-1.392-1.166-2.225c0.087-0.876,0.246-1.315,0.476-1.318c1.665-1.386,3.542-2.277,5.724-2.463c2.167-0.101,4.213,0.32,6.091,1.443C55.604,38.514,56.052,39.06,56.501,39.607z"/>
<path fill="#474342" d="M44.274,39.128c-0.084,1.138-0.167,2.273-0.249,3.412c-1.104,0.024-2.211,0.052-3.317,0.076c-0.966,0-1.927-0.067-2.879-0.204c0.981-1.987,1.959-3.971,2.937-5.954c1.079-0.073,2.158-0.146,3.236-0.22c0.354,0.452,0.707,0.906,1.062,1.358C44.801,38.105,44.538,38.618,44.274,39.128z"/>
<path fill="#737272" d="M28.359,52.011c-0.029,1.005-0.017,2.009,0.037,3.01c-1.07-1.022-2.143-2.048-3.213-3.07C26.241,51.969,27.3,51.991,28.359,52.011z"/>
<path fill="#6F6E6E" d="M62.377,39.176c-1.96,0.143-3.919,0.287-5.876,0.43l-0.313-0.717c-0.896-0.754-1.395-1.721-1.555-2.872c0.166-1.157,0.716-2.09,1.649-2.795c1.082,0.003,2.164,0.006,3.244,0.012c0.911,0.937,1.822,1.877,2.729,2.811C62.294,37.089,62.335,38.133,62.377,39.176z"/>
<path fill="#959595" d="M46.868,33.329c0.088-1.126,0.179-2.252,0.27-3.381c2.064,0.021,4.129,0.045,6.193,0.067c0.005,1.086,0.01,2.176,0.016,3.266c-0.469,0.409-0.938,0.814-1.404,1.227c-1.214,0.363-2.432,0.373-3.651,0.024C47.817,34.132,47.343,33.729,46.868,33.329z"/>
<path fill="#AAABAC" d="M56.283,33.222c0.093,0.891,0.055,1.776-0.117,2.658c-3.257,1.51-3.478-0.07-2.709-2.661c0,0-0.111,0.058-0.111,0.061C54.325,33.222,55.303,33.204,56.283,33.222z"/>
<path fill="#A7A8A8" d="M44.002,36.238c0.957-0.971,1.912-1.941,2.867-2.912c-0.001,0.003,0.232-0.128,0.232-0.128c0.769,0.742,1.088,1.535,0.957,2.377c-0.136,0.87-0.314,1.306-0.537,1.309c-1.344,0.742-2.612,0.665-3.792-0.351L44.002,36.238z"/>
<path fill="#6A6969" d="M34.533,45.655c0.012,1.014,0.032,2.029,0.061,3.043c-2.1,1.077-4.199,2.154-6.299,3.231c0.007-2.081,0.017-4.166,0.027-6.247c1.05-0.021,2.1-0.04,3.149-0.058C32.503,44.502,33.524,44.456,34.533,45.655z"/>
<path fill="#5A5858" d="M34.533,45.655l-1.531,0.003c0,0-1.532-0.033-1.53-0.033c1.004-1.025,2.008-2.048,3.012-3.073c0.758,0.687,1.021,1.379,0.787,2.084c-0.235,0.711-0.476,1.065-0.723,1.065L34.533,45.655z"/>
<path fill="#797979" d="M34.548,45.701c-0.021-1.05-0.041-2.1-0.063-3.149c1.015-0.024,2.026,0.04,3.029,0.192C36.524,43.733,35.536,44.715,34.548,45.701z"/>
<path fill="#807F80" d="M46.799,36.207c0.119-1.001,0.22-2.005,0.302-3.009c2.118,0.006,4.236,0.015,6.354,0.021c0.904,0.888,1.808,1.776,2.711,2.661c0.115,1.004,0.124,2.011,0.023,3.012c-2.051,0.092-4.101,0.183-6.149,0.278C49.053,38.081,47.021,38.133,46.799,36.207z"/>
<path fill="#858585" d="M46.799,36.207c1.082,0.989,2.164,1.978,3.244,2.966c-1.926-0.015-3.85-0.027-5.771-0.042c-0.264-0.852-0.444-1.715-0.542-2.597C44.744,36.347,45.768,36.238,46.799,36.207z"/>
</svg>