<?xml version="1.0" encoding="utf-8"?>
<!DOCTYPE svg PUBLIC "-//W3C//DTD SVG 1.1//EN" "http://www.w3.org/Graphics/SVG/1.1/DTD/svg11.dtd">
<svg version="1.1" xmlns="http://www.w3.org/2000/svg" xmlns:xlink="http://www.w3.org/1999/xlink" x="0px" y="0px" width="100px" height="100px" viewBox="0 0 100 100" enable-background="new 0 0 100 100" xml:space="preserve">
<path fill="#281A0C" d="M19.224,81.223C15.11,76.056,10.995,70.89,6.88,65.726c1.393-1.603,2.798-3.192,4.436-4.55c1.178-0.852,2.487-1.16,3.916-0.931c1.192,0.668,2.388,1.349,3.574,2.026c1.184,0.622,2.38,1.248,3.572,1.858c1.697,0.995,3.377,2.035,5.075,3.036c2.246,1.297,4.523,2.555,6.789,3.842c1.735,1.022,3.496,1.984,5.293,2.918c1.28,0.623,2.541,1.245,3.829,1.864c2.085,0.956,3.955,2.229,5.879,3.452c3.066,1.721,5.189,4.092,5.521,7.751c-0.637,6.846-3.827,9.729-10.689,6.943l0.014-0.238c-1.642-1.819-4.537-1.16-6.122-3.092l-0.078-0.109c-1.465-2.313-4.449-1.443-6.274-2.997l-0.001-0.003C28.178,84.033,23.238,83.542,19.224,81.223z"/>
<path fill="#1C1208" d="M93.872,65.723C92.58,80.911,79.958,83.197,69.093,87.488c-4.516,2.215-8.696,3.308-10.616-3.15c-0.15-1.736-0.083-3.481,0.199-5.203c1.116-3.296,3.703-5.423,6.148-7.672c1.877-2.518,5.034-3.03,7.41-4.804c2.618-0.977,5.045-2.386,7.727-3.186c1.922-0.629,3.748-1.502,5.686-2.081c1.328-0.26,2.647-0.214,3.955,0.134C91.248,62.698,92.604,64.166,93.872,65.723z"/>
<path fill="#2B1C0D" d="M6.975,62.405c0.813-4.153,1.628-8.307,2.441-12.457c3.627-2.792,7.86-0.525,11.719-1.407c1.366,0.062,2.69,0.317,3.982,0.77c0.615,0.311,1.224,0.616,1.839,0.931c1.242,0.629,2.479,1.257,3.725,1.889c1.152,0.849,2.182,1.813,3.125,2.888c1.494,1.607,3.071,3.131,4.341,4.938c0.646,1.395,0.896,2.856,0.803,4.382c-0.447,1.502-1.19,2.829-2.226,3.955c-4.122,3.574-8.914,0.837-13.342,1.407c-1.631,0.592-3.061,0.269-4.285-0.958l0.041,0.018c-1.692-1.864-4.611-1.275-6.299-3.149l0.049,0.021C11.407,63.653,8.227,64.795,6.975,62.405z"/>
<path fill="#281A0C" d="M28.81,34.405c-0.002-2.24-0.005-4.479-0.006-6.723l0.96-1.007l-0.836-1.114c0.765-4.431,1.527-8.859,2.291-13.287c4.779-0.345,9.762-2.799,14.106,1.364c2.933,3.232,6.52,5.655,10.076,8.136c2.705,2.752,5.621,5.38,5.24,9.774c-0.544,1.532-1.505,2.723-2.878,3.577c-1.476,0.47-2.992,0.775-4.532,0.918c-2.246,0.284-4.498,0.577-6.74,0.885c-2.176,0.284-4.349,0.644-6.49,1.138c-2.101,0.47-4.214,0.849-6.381,0.477C31.673,37.567,30.287,35.935,28.81,34.405z"/>
<path fill="#1A1108" d="M62.852,81.238c2.081,2.084,4.161,4.165,6.241,6.25c-8.341,2.148-16.682,4.297-25.02,6.445c2.081-3.184,4.163-6.366,6.244-9.55c0.067-0.774,0.133-1.547,0.2-2.322c1.842-2.475,3.526-5.166,7.165-5.133C60.253,77.35,61.595,79.242,62.852,81.238z"/>
<path fill="#422B14" d="M28.166,56.473c-0.937-0.046-1.871-0.119-2.802-0.217c-1.305-0.824-2.768-1.477-3.313-3.109c-4.211-1.065-8.424-2.133-12.636-3.198c2.081-1.06,4.164-2.118,6.245-3.177c1.013-0.781,2.161-1.245,3.424-1.432c1.939,0.037,3.784-0.399,5.591-1.074c1.315-0.11,2.6,0.006,3.877,0.354c1.314,0.305,2.622,0.583,3.951,0.845c1.344,0.403,2.617,0.931,3.841,1.624c1.942,1.044,3.962,1.926,5.586,3.488c1.058,1.165,2.098,2.319,3.156,3.487c1.187,1.16,2.121,2.47,2.829,3.968c0.402,1.709,0.256,3.348-0.439,4.953c-1.473,2.438-3.636,3.674-6.461,3.793c-3.036-0.009-4.96-1.682-6.325-4.196l0.156-0.308c-0.8-0.577-1.541-1.224-2.223-1.935c-0.712-0.681-1.438-1.347-2.177-1.996C29.735,57.66,28.975,57.037,28.166,56.473z"/>
<path fill="#1C1208" d="M93.986,37.543c-0.053,8.304-0.104,16.604-0.158,24.905c-1.323,2.316-4.48,1.184-5.973,3.18l0.016-0.006c-1.188,1.142-2.563,1.386-4.101,0.849c-3.115-1.838-7.418-1.716-9.309-5.594c-0.335-1.444-0.335-2.921-0.049-4.392c2.209-4.722,6.658-7.837,8.978-12.491c2.221-2.905,2.39-7.388,6.676-8.701C91.611,35.629,92.906,36.401,93.986,37.543z"/>
<path fill="#402913" d="M40.834,16.144c-3.206-1.291-6.41-2.579-9.614-3.869c2.11-0.998,4.221-1.999,6.333-2.997c1.14-0.918,2.429-1.318,3.897-1.114c2.245,0.205,4.16-1.12,6.323-1.337c1.52,0.354,2.732,1.163,3.705,2.377c0.692,1.41,1.36,2.808,2.019,4.229c1.324,3.342,1.596,6.345-2.465,8.023C45.976,22.855,43.215,19.861,40.834,16.144z"/>
<path fill="#3F2913" d="M63.052,9.058c1.099,0.259,2.197,0.519,3.296,0.778c1.023,0.928,2.078,1.819,3.171,2.667c3.012,1.184,6.023,2.365,9.037,3.546c0.854,1.355,1.163,2.82,0.93,4.404c-1.262,2.365-3.488,2.786-5.864,2.908c-2.319,0.067-4.637,0.067-6.955-0.064c-1.55-0.192-3.021-0.641-4.415-1.346c-1.354-0.775-2.706-1.547-4.06-2.319c-1.234-1.025-2.097-2.301-2.589-3.827c-0.011-0.788-0.021-1.572-0.031-2.356c0.431-1.599,1.375-2.79,2.834-3.567C59.927,9.445,61.474,9.174,63.052,9.058z"/>
<path fill="#1D1208" d="M93.784,24.707c0.066,3.208,0.132,6.415,0.199,9.619c-1.924,1.617-4.312,2.42-6.438,3.681c-1.63,0.494-3.23,0.406-4.794-0.266c-2.083-1.383-3.472-3.36-4.654-5.5c-0.613-1.499-0.778-3.055-0.497-4.648c0.979-2.331,2.762-3.613,5.236-3.973c1.502-0.125,3.016-0.18,4.524-0.177C89.577,23.468,91.856,23.19,93.784,24.707z"/>
<path fill="#3E2813" d="M87.947,25.168c-2.197,0.918-4.393,1.834-6.589,2.752c-1.926,1.908-4.026,2.326-6.364,0.751c-2.818-2.777-6.478-5.316-2.774-9.916c2.083,0,4.167,0,6.25,0c1.131-1.288,2.3-1.321,3.509-0.106c0.972,0.128,1.933,0.308,2.884,0.546C86.268,20.993,87.418,22.919,87.947,25.168z"/>
<path fill="#382510" d="M53.149,3.501c2.235,1.095,4.473,2.188,6.708,3.284c1.766,1.926,1.628,3.824-0.092,5.694l-0.139,0.04c-1.419,1.416-2.602,3.167-4.837,3.436c-1.313-0.427-2.452-1.129-3.423-2.112c-1.322-1.553-2.688-3.067-4.175-4.471l0.019,0.064c-1.29-0.726-1.728-1.764-1.18-3.167C47.832,3.879,51.144,5.374,53.149,3.501z"/>
<path fill="#402A13" d="M22.012,43.649c2.128-1.172,4.257-2.344,6.387-3.516c0.745-0.128,1.491-0.256,2.237-0.385c2.349-0.528,4.504-0.067,6.493,1.264c2.42,2.017,4.492,4.232,4.415,7.685c-0.673,1.486-1.804,2.417-3.391,2.789c-2.31,0.058-4.671,0.342-6.551-1.489l0.04,0.021c-1.7-1.874-4.625-1.297-6.328-3.165l0.072,0.04C24.348,45.722,22.196,45.709,22.012,43.649z"/>
<path fill="#271A0C" d="M19.224,81.223c4.129,2.09,8.258,4.184,12.387,6.274C27.483,85.406,23.353,83.313,19.224,81.223z"/>
<path fill="#452D15" d="M53.149,3.501c-1.98,0.946-3.961,1.889-5.941,2.832c-1.119,1.343-2.196,1.309-3.229-0.101C47.035,5.322,50.092,4.413,53.149,3.501z"/>
<path fill="#342210" d="M43.979,6.231c1.076,0.034,2.153,0.064,3.229,0.098c0.003,1.038,0.004,2.072,0.003,3.107c-2.092-0.027-4.183-0.055-6.274-0.083c-0.913-0.555-1.23-1.135-0.957-1.736c0.278-0.61,0.563-0.916,0.858-0.916C41.884,6.543,42.93,6.387,43.979,6.231z"/>
<path fill="#271A0C" d="M31.613,87.5c2.092,0.998,4.183,1.999,6.274,2.997C35.796,89.496,33.703,88.498,31.613,87.5z"/>
<path fill="#342110" d="M22.012,43.649c1.125,1.08,2.249,2.164,3.374,3.244c-2.072-0.009-4.146-0.021-6.218-0.031c-0.94-0.525-1.285-1.096-1.038-1.718c0.256-0.644,0.529-0.967,0.819-0.967C19.966,43.973,20.987,43.799,22.012,43.649z"/>
<path fill="#432B13" d="M59.765,12.479c0.03-1.898,0.062-3.799,0.092-5.697c1.065,0.76,2.129,1.52,3.193,2.276C61.957,10.199,60.861,11.34,59.765,12.479z"/>
<path fill="#462D15" d="M87.947,25.168c-1.028-1.99-2.057-3.982-3.085-5.973c1.051,0.775,2.101,1.547,3.152,2.323c0.689,0.613,1.379,1.227,2.07,1.84c-0.728,0.567-1.457,1.135-2.185,1.706L87.947,25.168z"/>
<path fill="#412B13" d="M87.9,25.064c0.038-1.181,0.074-2.362,0.112-3.546c1.926,1.065,3.85,2.13,5.772,3.192C91.823,24.826,89.862,24.945,87.9,25.064z"/>
<path fill="#1F1309" d="M6.975,62.405c1.97,1.074,3.941,2.148,5.913,3.226c-2.003,0.031-4.007,0.062-6.009,0.092C6.912,64.618,6.943,63.51,6.975,62.405z"/>
<path fill="#140D06" d="M87.855,65.628c1.993-1.059,3.984-2.118,5.974-3.18c0.015,1.093,0.031,2.182,0.045,3.274C91.865,65.692,89.86,65.658,87.855,65.628z"/>
<path fill="#2B1C0D" d="M28.81,34.405c1.963-0.006,3.929-0.015,5.893-0.021c1.195,1.373,1.288,2.82,0.279,4.333c-2.518,1.66-4.461,0.628-6.21-1.321C28.735,36.398,28.747,35.4,28.81,34.405z"/>
<path fill="#160E06" d="M87.868,34.381c2.041-0.018,4.081-0.033,6.118-0.052c0,1.068,0.004,2.14,0.004,3.214c-1.005-0.013-2.006-0.019-3.008-0.021c-1.082,1.092-2.284,1.303-3.627,0.494C86.607,36.676,86.734,35.455,87.868,34.381z"/>
<path fill="#201509" d="M28.772,37.397c1.993,0.036,3.984,0.076,5.977,0.116c0.455,0.458,0.908,0.916,1.363,1.374c-0.001,1.358-0.539,2.429-1.692,3.174c-1.926,0.122-3.85,0.226-5.62-0.781c0,0-0.4-1.139-0.4-1.142C28.502,39.218,28.625,38.306,28.772,37.397z"/>
<path fill="#27190C" d="M37.966,90.606c2.04,1.032,4.082,2.061,6.123,3.092C42.047,92.667,40.006,91.639,37.966,90.606z"/>
<path fill="#452D15" d="M69.519,12.503c-1.06-0.888-2.117-1.779-3.173-2.667C67.404,10.724,68.462,11.615,69.519,12.503z"/>
<path fill="#442C15" d="M40.837,6.702c0.044,0.882,0.078,1.767,0.101,2.652c-1.127-0.024-2.255-0.052-3.384-0.076C38.647,8.417,39.741,7.559,40.837,6.702z"/>
<path fill="#472E16" d="M18.95,44.177c0.076,0.894,0.148,1.792,0.217,2.686c-1.166-0.031-2.333-0.061-3.504-0.091C16.757,45.904,17.854,45.041,18.95,44.177z"/>
<path fill="#2C1D0E" d="M28.927,25.562c-0.015,0.711-0.058,1.422-0.124,2.127C28.801,26.975,28.842,26.267,28.927,25.562z"/>
<path fill="#472E16" d="M81.978,18.649c-1.169,0.033-2.34,0.07-3.509,0.106c0.024-0.903,0.054-1.807,0.087-2.707C79.697,16.916,80.837,17.783,81.978,18.649z"/>
<path fill="#201409" d="M34.701,81.229c-1.028-2.078-2.055-4.156-3.083-6.237c0.361-0.806,0.723-1.611,1.083-2.417c2.654-1.841,4.939-1.127,7.022,1.007c0.758,1.739,0.593,3.388-0.498,4.943C37.726,79.438,36.217,80.341,34.701,81.229z"/>
<path fill="#1F1309" d="M12.839,65.609c2.098,1.05,4.198,2.1,6.299,3.149C17.038,67.709,14.938,66.659,12.839,65.609z"/>
<path fill="#1D1308" d="M19.096,68.741c1.071-0.031,2.142-0.063,3.213-0.092c2.128-1.355,3.609-0.985,4.254,1.599c-0.403,0.537-0.804,1.074-1.206,1.611C23.271,70.819,21.184,69.781,19.096,68.741z"/>
<path fill="#1E1409" d="M31.618,74.991c-2.086-1.044-4.173-2.088-6.259-3.132l-0.012,0.021c3.998-2.792,6.733-3.052,6.261,3.122L31.618,74.991z"/>
<path fill="#1E1309" d="M44.112,81.234c-2.063-0.006-4.126-0.009-6.19-0.015c-0.937-0.675-1.256-1.361-0.958-2.058c0.299-0.698,0.602-1.049,0.91-1.049l-0.006,0.025c2.903-4.04,5.331-3.57,7.349,0.775C44.848,79.688,44.481,80.46,44.112,81.234z"/>
<path fill="#1E1309" d="M50.317,84.384c-2.067-1.05-4.137-2.1-6.206-3.149L44.1,81.262c1.477-3.066,3.688-3.372,6.422-1.702c1.177,1.599,1.171,3.192-0.02,4.778L50.317,84.384z"/>
<path fill="#271A0C" d="M37.872,78.113c0.011,1.037,0.026,2.071,0.047,3.106c-1.071,0.003-2.144,0.006-3.218,0.009C35.759,80.191,36.816,79.15,37.872,78.113z"/>
<path fill="#150D06" d="M84.729,65.604c1.047,0.006,2.093,0.013,3.142,0.019c-2.088,1.04-4.175,2.081-6.263,3.122c-0.38-0.574-0.76-1.145-1.141-1.715C81.296,64.776,82.48,63.596,84.729,65.604z"/>
<path fill="#150D06" d="M81.608,68.744c-2.082,1.04-4.165,2.081-6.248,3.125c-0.351-0.784-0.7-1.568-1.052-2.354c2.048-3.985,4.383-5.218,7.308-0.76L81.608,68.744z"/>
<path fill="#150E06" d="M75.36,71.869c-2.088,1.04-4.173,2.084-6.261,3.128c-0.354-0.787-0.71-1.571-1.065-2.356c2.056-3.985,4.395-5.233,7.331-0.763L75.36,71.869z"/>
<path fill="#140D06" d="M69.099,74.997c-2.08,1.04-4.159,2.078-6.239,3.119c-0.379-0.781-0.757-1.565-1.136-2.351c2.036-4.385,4.461-4.986,7.381-0.757L69.099,74.997z"/>
<path fill="#160E06" d="M62.852,81.238c-2.081,0.003-4.162,0.006-6.244,0.009c-0.359-0.77-0.72-1.535-1.08-2.308c2.015-4.187,4.418-4.87,7.349-0.817l-0.017-0.006C62.857,79.156,62.854,80.197,62.852,81.238z"/>
<path fill="#281A0C" d="M50.287,81.186c-2.063,0.027-4.125,0.053-6.186,0.076c-2.078-1.04-4.155-2.084-6.233-3.125c-2.086-1.046-4.173-2.09-6.261-3.134c-2.087-1.04-4.173-2.081-6.261-3.122c-1.013-1.077-2.026-2.154-3.038-3.231c4.137-1.004,8.273-2.008,12.41-3.013c0.776,0.016,1.553,0.031,2.333,0.049c1.558,0.205,3.076,0.565,4.559,1.087c4.379,1.087,9.859-1.11,12.856,4.294c1.663,3.524-0.778,6.183-1.964,9.098C51.724,80.487,51.006,80.838,50.287,81.186z"/>
<path fill="#2E1E0E" d="M50.624,72.073c-4.254-1.107-8.508-2.216-12.762-3.323c-1.183-0.897-1.901-2.262-3.125-3.119l-0.019,0.006c-0.008-1.019-0.017-2.035-0.026-3.055c2.075,0.013,4.15,0.021,6.228,0.031c5.5,0.945,12.384-1.438,15.082,6.265C55.36,71.884,53.798,73.334,50.624,72.073z"/>
<path fill="#3E2913" d="M34.727,59.359c0.038,0.974,0.076,1.947,0.118,2.918c-2.223-1.938-4.45-3.873-6.677-5.805c1.146-0.073,2.293-0.146,3.441-0.223C32.588,57.349,33.63,58.383,34.727,59.359z"/>
<path fill="#412B14" d="M22.052,53.147c1.103,1.034,2.208,2.072,3.313,3.109c-1.065,0.013-2.131,0.024-3.197,0.04l0.024,0.024C22.145,55.262,22.098,54.205,22.052,53.147z"/>
<path fill="#21150A" d="M22.168,56.296l0.024,0.024L22.168,56.296z"/>
<path fill="#2F1E0E" d="M56.634,31.247c-2.089-2.084-4.18-4.169-6.27-6.253c-1.516-1.322-1.641-2.762-0.377-4.328c3.598-3.229,7.688-2.762,11.873-1.575c5.248,4.104,11.645,6.65,16.116,11.826c0.807,1.581,0.958,3.219,0.456,4.922c-0.954,1.486-2.251,2.545-3.896,3.18C65.302,43.945,60.063,39.682,56.634,31.247z"/>
<path fill="#291B0C" d="M56.634,31.247c5.271,1.111,10.542,2.225,15.813,3.338c2.221,2.014,3.972,4.193,2.681,7.468c-1.222,1.565-2.809,2.536-4.757,2.917c-5.786,0.467-11.433,0.131-16.584-2.963c-1.933-3.528-2.825-7.083-0.334-10.748C54.513,31.256,55.574,31.25,56.634,31.247z"/>
<path fill="#2C1C0D" d="M50.396,21.805c-0.01,1.065-0.021,2.127-0.031,3.192c-3.177-2.957-6.354-5.911-9.531-8.859c3.168,0.906,6.334,1.807,9.502,2.707c1.007,0.638,1.351,1.288,1.034,1.953C51.05,21.469,50.726,21.805,50.396,21.805z"/>
<path fill="#1F1409" d="M53.453,31.259c1.047,2.087,2.094,4.171,3.141,6.259c-0.138,0.817-0.273,1.636-0.429,2.401c-3.882,3.482-7.435,1.288-10.999-0.684c-2.22-1.211-3.756-2.902-4.121-5.475c0.274-1.657,1.175-2.863,2.688-3.607c2.336-0.516,4.637-0.793,6.592,1.068C51.367,31.235,52.411,31.247,53.453,31.259z"/>
<path fill="#1F1409" d="M37.869,31.25c2.074-1.041,4.147-2.081,6.221-3.122c2.334,1.047,2.334,2.097,0.001,3.144l0.031-0.04c-1.23,2.094-2.882,3.04-5.286,1.944C38.513,32.532,38.191,31.891,37.869,31.25z"/>
<path fill="#291B0C" d="M44.092,31.272c0-1.047,0-2.097-0.001-3.144c2.079,1.032,4.157,2.063,6.235,3.098C48.247,31.241,46.169,31.256,44.092,31.272z"/>
<path fill="#201509" d="M34.749,37.512c-0.015-1.043-0.029-2.084-0.046-3.128c1.056-1.044,2.11-2.09,3.167-3.134l-0.009-0.006c2.5,3.863,3.14,6.79-3.136,6.25L34.749,37.512z"/>
<path fill="#150E06" d="M50.504,84.338c-0.072-1.049-0.144-2.1-0.217-3.148c0-0.004,0.032,0.021,0.032,0.021c2.11-2.011,4.218-3.28,6.292,0.04l-0.003-0.004C54.573,82.278,52.539,83.31,50.504,84.338z"/>
<path fill="#3E2913" d="M53.551,69.23c-4.21-2.207-8.42-4.413-12.631-6.616c1.051-1.053,2.101-2.106,3.152-3.159c0.921-3.359,3.212-4.138,6.329-3.356c1.701,0.796,3.041,2.002,4.018,3.607c0.957,2.529,2.469,4.971,1.3,7.852C54.996,68.115,54.272,68.674,53.551,69.23z"/>
<path fill="#36230F" d="M50.376,59.369c-2.102,0.027-4.201,0.055-6.302,0.085c-1.018-0.036-2.034-0.067-3.052-0.095c-1.303-1.403-1.5-2.947-0.59-4.635c0.6-2.644,1.753-4.828,4.605-5.631c1.813-0.138,3.456,0.314,4.945,1.354c1.822,2.048,3.255,4.218,2.397,7.16C51.712,58.197,51.044,58.783,50.376,59.369z"/>
<path fill="#34220F" d="M44.092,53.272c-1.046,1.001-2.093,1.999-3.14,2.997c-1.043,1.303-2.072,1.224-3.083-0.037c-0.016-1.01-0.026-2.021-0.031-3.027c-0.726-0.521-1.454-1.044-2.181-1.565c0.743-0.497,1.486-0.998,2.228-1.495l-0.098-0.278C41.786,47.488,43.989,48.435,44.092,53.272z"/>
<path fill="#35220F" d="M25.314,46.854c2.109,1.056,4.218,2.109,6.328,3.165C29.533,48.963,27.423,47.909,25.314,46.854z"/>
<path fill="#32200F" d="M37.884,50.144c-0.017,1.02-0.032,2.038-0.047,3.058c-2.078-1.064-4.157-2.136-6.235-3.204C33.696,50.046,35.791,50.095,37.884,50.144z"/>
<path fill="#412B14" d="M34.727,59.359c-1.039-1.037-2.08-2.072-3.119-3.109C32.648,57.287,33.688,58.322,34.727,59.359z"/>
<path fill="#3E2913" d="M37.868,56.231c1.028,0.013,2.057,0.024,3.085,0.037c0.024,1.031,0.047,2.06,0.069,3.091C39.97,58.316,38.919,57.275,37.868,56.231z"/>
<path fill="#1C1208" d="M56.611,81.25c-2.096-0.012-4.194-0.024-6.292-0.04c0.099-3.045,0.199-6.094,0.302-9.137c0.979-0.949,1.953-1.901,2.93-2.847c0,0.003-0.024-0.431-0.024-0.431c0.854-0.946,1.53-2.011,2.026-3.192c0.208-0.607,0.415-1.211,0.624-1.822c0.694-1.119,1.595-2.022,2.742-2.686c1.188-0.604,2.365-1.205,3.549-1.807c3.737-1.596,7.212-3.912,11.461-4.031c2.115,0.699,3.298,2.424,4.521,4.102c2.094,2.082,4.186,4.163,6.279,6.244c-1.038,1.053-2.075,2.103-3.113,3.152c-2.084,1.041-4.167,2.082-6.251,3.122c-2.086,1.044-4.174,2.088-6.26,3.131c-2.076,1.038-4.153,2.075-6.229,3.113C60.788,79.166,58.701,80.209,56.611,81.25z"/>
<path fill="#1D1309" d="M87.861,37.506c1.041,0.003,2.082,0.009,3.121,0.016c0.006,4.15,0.011,8.301,0.017,12.448c-4.006,3.003-8.194,5.496-13.506,4.837c-1.606-0.647-2.634-1.813-3.08-3.482c-0.171-2.566,0.982-4.635,2.47-6.579c1.32-1.972,2.826-3.806,4.283-5.677c1.28-0.982,2.729-1.495,4.345-1.535C86.293,37.524,87.077,37.515,87.861,37.506z"/>
<path fill="#150D06" d="M78.491,53.144c4.169-1.056,8.338-2.115,12.508-3.174c-4.173,2.09-8.345,4.181-12.517,6.269c-0.352-0.517-0.7-1.035-1.052-1.551C77.785,54.175,78.138,53.659,78.491,53.144z"/>
<path fill="#160E06" d="M78.45,59.359c-2.087,0.01-4.175,0.021-6.263,0.034c-0.646-0.418-1.293-0.837-1.942-1.255c-0.171-0.75-0.34-1.501-0.511-2.252c0.539-1.514,1.565-2.545,3.079-3.088c2.536,0.094,4.065,1.852,5.686,3.454l-0.017-0.015C78.472,57.278,78.463,58.319,78.45,59.359z"/>
<path fill="#422B14" d="M50.396,21.805c-0.018-0.989-0.038-1.978-0.059-2.963c-1.03-2.127-2.061-4.257-3.09-6.385c2.107-1.98,4.19-1.739,6.257,0.064l-0.05-0.012c1.628,1.987,4.777,0.943,6.294,3.155l-0.058-0.058c1.712,1.868,4.645,1.297,6.348,3.18l-0.081-0.04c0.933,0.729,1.359,1.56,1.284,2.493c-0.079,0.982-0.242,1.474-0.489,1.474c-1.526,0.723-2.881,0.525-4.039-0.748C58.607,21.915,54.502,21.86,50.396,21.805z"/>
<path fill="#32210E" d="M53.505,12.522c-2.086-0.021-4.172-0.043-6.257-0.064c-0.02-1.028-0.038-2.057-0.055-3.085C49.297,10.422,51.401,11.472,53.505,12.522z"/>
<path fill="#342110" d="M66.046,21.869c-0.028-1.041-0.058-2.082-0.088-3.122c2.087,0.003,4.175,0.006,6.262,0.009c2.091,2.084,4.182,4.169,6.273,6.25C72.837,29.944,68.893,28.079,66.046,21.869z"/>
<path fill="#33210E" d="M59.749,15.665c-2.098-1.053-4.196-2.105-6.294-3.155c2.059,0.003,4.116,0.003,6.174,0.006C59.668,13.565,59.708,14.615,59.749,15.665z"/>
<path fill="#33210F" d="M66.039,18.787c-2.115-1.059-4.231-2.118-6.348-3.18C61.807,16.666,63.922,17.728,66.039,18.787z"/>
<path fill="#3F2913" d="M66.046,21.869c4.149,1.046,8.298,2.093,12.447,3.137c0.956,0.974,1.912,1.944,2.867,2.915c0.046,1.05,0.093,2.103,0.142,3.156c-0.233,0.635-0.466,1.272-0.697,1.907c-2.197,1.16-3.79,0.183-5.194-1.468c-4.298-3.183-8.597-6.366-12.896-9.549C63.824,21.936,64.935,21.902,66.046,21.869z"/>
<path fill="#1B1107" d="M87.868,34.381c-0.002,1.041-0.005,2.082-0.007,3.125l0.008-0.006c-1.932,1.587-4.054,2.219-6.486,1.291c-1.094-1.251-1.348-2.677-0.869-4.251c1.373-0.956,2.781-1.01,4.227-0.165C85.783,34.378,86.826,34.378,87.868,34.381z"/>
<path fill="#160E06" d="M84.74,34.375c-1.047,0.006-2.094,0.009-3.141,0.015c-0.504-0.531-1.007-1.062-1.511-1.593c0.485-0.549,0.972-1.096,1.457-1.645c0,0-0.042-0.07-0.044-0.073C82.581,32.178,83.661,33.276,84.74,34.375z"/>
<path fill="#442C14" d="M44.092,53.272c-2.101-1.132-4.202-2.268-6.303-3.402c-1.036-2.042-2.071-4.081-3.104-6.119c0.46-0.604,0.921-1.211,1.385-1.819c1.262-0.879,2.596-1.624,4.01-2.24c1.5-0.583,2.992-0.614,4.497-0.006c1.466,0.635,2.927,1.257,4.414,1.843c1.564,0.488,3.101,1.02,4.592,1.654c1.251,1.144,2.29,2.404,3.076,3.894c0.792,1.565,1.099,3.198,0.925,4.935c-0.494,1.765-1.562,3.034-3.208,3.821c-2.817,0.244-4.979-1.254-7.168-2.683C46.169,53.19,45.129,53.229,44.092,53.272z"/>
<path fill="#452D15" d="M28.8,41.278c1.942-0.156,3.883-0.312,5.826-0.467c0.51,0.421,1.021,0.842,1.532,1.264c-0.421,0.509-0.844,1.019-1.266,1.532l-0.206,0.144C32.722,42.926,30.761,42.102,28.8,41.278z"/>
<path fill="#2B1C0D" d="M34.724,37.494c1.045-2.082,2.09-4.166,3.136-6.25c2.087-0.003,4.175-0.009,6.262-0.013c1.033,1.063,2.064,2.124,3.096,3.189c2.68,3.909,4.259,7.62-1.816,9.93c-1.657,0.943-3.177,0.757-4.558-0.562l0.244,0.085c-1.68-2.09-4.852-1.172-6.54-3.25c0,0,0.078,0.183,0.076,0.186C34.657,39.707,34.691,38.602,34.724,37.494z"/>
<path fill="#2B1C0D" d="M34.737,65.631c1.042,1.041,2.083,2.078,3.125,3.119C36.82,67.709,35.779,66.672,34.737,65.631z"/>
<path fill="#1E140A" d="M81.599,34.39c0,1.032,0.002,2.063,0.003,3.098c-0.012,0.711-0.024,1.425-0.036,2.142c-0.165,1.45-0.681,2.762-1.549,3.94c-0.983,1.078-2.025,2.084-3.13,3.04c-1.305,0.751-2.696,1.114-4.204,1.038c-1.425-0.656-2.307-1.758-2.727-3.253c0.394-1.471,1.126-2.738,2.245-3.775c0.08-2.015,0.16-4.025,0.242-6.037c0.99-0.064,1.979-0.134,2.968-0.198c2.063-1.993,4.128-1.978,6.192-0.003L81.599,34.39z"/>
<path fill="#1B1107" d="M81.604,34.381c-2.064,0-4.131,0.003-6.194,0.003c0.053-0.958,0.116-1.919,0.195-2.872c1.984-0.116,3.963-0.235,5.942-0.357C81.566,32.23,81.584,33.304,81.604,34.381z"/>
<path fill="#1E1409" d="M56.593,37.519c4.164,1.041,8.329,2.078,12.494,3.119c1.049,1.968,1.021,3.921-0.115,5.789c-7.861,2.155-15.083,3.528-12.352-8.938L56.593,37.519z"/>
<path fill="#271A0C" d="M69.151,43.82c-0.02-1.062-0.041-2.124-0.063-3.183c1.039-0.006,2.076-0.012,3.114-0.018c0.009,1.041,0.018,2.078,0.024,3.119c0.508,0.574,1.018,1.147,1.525,1.724c-0.209,1.639-1.065,2.734-2.68,3.198C68.565,47.784,67,46.539,69.151,43.82z"/>
<path fill="#2A1B0C" d="M69.151,43.82c0.963,1.013,1.926,2.026,2.889,3.04c4.905,3.018,2.737,6.213,0.242,9.42l-0.049-0.033c-1.504,1.69-3.267,2.896-5.626,2.954c-2.226,0.027-4.279-0.693-6.321-1.465c-1.389-0.482-2.523-1.324-3.434-2.475c-0.57-2.143-1.576-3.989-3.555-5.167l0.282,0.015c-1.733-1.943-4.693-1.431-6.494-3.244l0.198,0.153c-0.955-1.215-3.163-1.242-3.177-3.348c1.038-3.085,2.073-6.168,3.111-9.253c3.134,1.025,6.268,2.047,9.402,3.07C60.799,39.6,64.975,41.709,69.151,43.82z"/>
<path fill="#452D15" d="M59.822,65.649c-0.047,0.995-0.104,1.986-0.169,2.979l-0.04,0.04c-2.029,0.042-4.059,0.085-6.088,0.128c-1.054-2.103-2.107-4.208-3.162-6.314c1.628-1.639,3.239-3.305,5.642-3.796c1.558,0.342,2.83,1.138,3.822,2.387C60.231,62.601,60.228,64.127,59.822,65.649z"/>
<path fill="#34210F" d="M56.599,62.57c-2.078-0.03-4.156-0.059-6.236-0.089c0.003-1.037,0.006-2.075,0.013-3.112l-0.016,0.012c1.668-2.898,3.267-5.917,7.515-4.193c1.401,1.068,2.121,2.479,2.159,4.239C59.523,61.17,58.379,62.216,56.599,62.57z"/>
<path fill="#402A13" d="M56.564,56.256c-2.067,1.041-4.135,2.082-6.204,3.125c-1.05-2.078-2.1-4.156-3.151-6.231c2.196-0.04,4.391-0.079,6.588-0.122c2.066-1.749,4.073-2.115,5.954,0.269l-0.189-0.168c0.984,0.669,1.458,1.468,1.42,2.396c-0.04,0.992-0.187,1.489-0.441,1.489C59.022,57.775,57.687,57.574,56.564,56.256z"/>
<path fill="#3E2913" d="M56.599,62.57c0.02-1.077,0.038-2.151,0.057-3.226c2.675-1.975,5.55-3.144,8.943-2.231c2.189,0.803,4.837,0.29,6.608,2.299l-0.019-0.019c-3.123,2.002-6.247,4.004-9.37,6.006c-1.76-1.688-4.584-1.09-6.279-2.921L56.599,62.57z"/>
<path fill="#33200E" d="M56.54,62.479c2.094,0.977,4.188,1.95,6.28,2.924c-0.999,0.095-1.999,0.177-2.998,0.247C58.728,64.594,57.634,63.537,56.54,62.479z"/>
<path fill="#160E06" d="M59.653,68.628l-0.04,0.04L59.653,68.628z"/>
<path fill="#1C1208" d="M72.282,56.28c-0.079-3.14-0.158-6.28-0.239-9.42c-0.003,0,0.253-0.019,0.253-0.019c0.935-1.126,1.807-2.313,3.076-3.104l-0.036,0.021c1.929-1.504,4.305-2.292,6.186-3.87c1.244-0.482,2.311-0.195,3.22,0.75c-1.04,2.079-2.083,4.157-3.123,6.232c-1.047,1.04-2.018,2.157-3.132,3.128c0.002,1.047,0.004,2.097,0.005,3.144c0.003,1.037,0.006,2.075,0.008,3.109C76.426,56.262,74.354,56.272,72.282,56.28z"/>
<path fill="#150E06" d="M84.741,40.64c-1.044-0.003-2.087-0.009-3.131-0.015c-0.467-0.522-0.934-1.041-1.399-1.56c0.463-0.521,0.927-1.047,1.389-1.568l0.003-0.009c2.088,0.003,4.177,0.006,6.266,0.012C86.826,38.547,85.783,39.594,84.741,40.64z"/>
<path fill="#160E06" d="M78.486,50c1.044-1.044,2.088-2.084,3.132-3.128C80.574,47.916,79.53,48.956,78.486,50z"/>
<path fill="#201509" d="M72.208,59.412c-2.034-0.021-4.069-0.043-6.104-0.062c-0.532-0.494-1.063-0.989-1.597-1.483c0.475-0.549,0.949-1.099,1.424-1.647c2.102,0.009,4.202,0.019,6.302,0.027C72.226,57.303,72.217,58.356,72.208,59.412z"/>
<path fill="#1E1309" d="M59.752,53.296c-1.985-0.089-3.972-0.177-5.955-0.269c-0.164-0.977-0.33-1.953-0.498-2.933C55.449,51.163,57.6,52.228,59.752,53.296z"/>
<path fill="#1E1309" d="M34.549,40.625c2.179,1.083,4.359,2.167,6.538,3.247c-2.064-0.085-4.132-0.177-6.196-0.266C34.776,42.612,34.662,41.62,34.549,40.625z"/>
<path fill="#1F1409" d="M47.086,46.866c2.163,1.081,4.329,2.164,6.494,3.244C51.416,49.029,49.251,47.946,47.086,46.866z"/>
<path fill="#1E1309" d="M44.107,43.671c1.057,1.114,2.116,2.23,3.175,3.348c-2.144-1.077-4.29-2.151-6.436-3.229C41.932,43.75,43.019,43.71,44.107,43.671z"/>
<path fill="#140D06" d="M81.61,40.625c-2.091,1.044-4.183,2.09-6.272,3.134c1.048-1.053,2.096-2.106,3.146-3.162c1.057-1.272,2.099-1.264,3.13,0.03L81.61,40.625z"/>
<path fill="#1B1107" d="M81.613,40.628c-1.044-0.009-2.086-0.018-3.13-0.03c1.039-1.032,2.079-2.066,3.116-3.101C81.604,38.541,81.608,39.585,81.613,40.628z"/>
<path fill="#150D06" d="M75.372,43.738c-1.026,1.035-2.052,2.069-3.077,3.104c-0.041-1.035-0.064-2.069-0.068-3.104C73.274,43.738,74.324,43.738,75.372,43.738z"/>
<path fill="#1D1208" d="M59.918,56.152c-0.115-1.007-0.233-2.018-0.355-3.024c2.123,1.031,4.247,2.06,6.369,3.092l0.054,0.033C63.929,58.246,61.908,58.2,59.918,56.152z"/>
<path fill="#472E16" d="M59.918,56.152c2.022,0.033,4.046,0.067,6.067,0.101c0.021,1.031,0.06,2.066,0.116,3.098c-3.148-0.003-6.298-0.003-9.447-0.006c-0.033-1.028-0.063-2.061-0.088-3.089C57.682,56.223,58.8,56.19,59.918,56.152z"/>
</svg>