<?xml version="1.0" encoding="utf-8"?>
<!DOCTYPE svg PUBLIC "-//W3C//DTD SVG 1.1//EN" "http://www.w3.org/Graphics/SVG/1.1/DTD/svg11.dtd">
<svg version="1.1" xmlns="http://www.w3.org/2000/svg" xmlns:xlink="http://www.w3.org/1999/xlink" x="0px" y="0px" width="100px" height="100px" viewBox="0 0 100 100" enable-background="new 0 0 100 100" xml:space="preserve">
<path fill="#705F0B" d="M6.974,55.143C6.962,49.949,6.951,44.755,6.94,39.56c5.755-2.444,9.865,1.496,14.429,3.689c1.062,0.714,2.023,1.557,2.923,2.463c1.367,1.318,2.676,2.704,3.957,4.12c0.857,0.977,1.471,2.091,1.918,3.306c0.424,1.94,0.24,3.823-0.578,5.64c-1.016,1.656-2.397,2.908-4.188,3.674c-1.204,0.244-2.387,0.119-3.516-0.348c-0.666-0.635-1.097-1.407-1.303-2.451c-0.681,0.761-0.801,1.819-1.645,2.344c-1.962,0.443-3.363-0.359-4.408-1.959c-0.172-0.866-0.251-1.742-0.241-2.621c0.012-0.892-0.182-0.638-0.588,0.771c-0.947,0.824-2.042,1.108-3.271,0.935C8.708,58.286,7.728,56.812,6.974,55.143z"/>
<path fill="#4F4007" d="M93.432,39.494c-0.027,5.209-0.056,10.422-0.083,15.634c-1.766,1.978-3.169,4.31-5.54,5.713c-2.515,1.318-5.043,2.39-7.652,0.198c-2.68-3.467-3.839-7.431-3.859-11.768c0.276-2.087,1.188-3.86,2.728-5.294c2-1.553,4.224-2.579,6.791-2.634c1.183-0.327,2.807,1.993,3.667-0.62C90.534,39.426,91.694,38.511,93.432,39.494z"/>
<path fill="#413507" d="M93.395,26.914c0.003,3.128,0.005,6.256,0.008,9.384c-1.128,1.563-2.921,1.95-4.567,2.6c-1.729,0.458-3.505,0.763-5.142,1.547c-1.091,0.57-2.24,0.943-3.45,1.153c-1.898,0.153-3.659-0.22-5.22-1.361c-0.694-1.065-0.962-2.228-0.821-3.491c0.466-1.807,1.346-3.415,2.387-4.944c0.985-1.535,2.103-2.97,3.388-4.27c1.422-1.215,3.006-1.855,4.89-1.294c0.829,0.799,0.919,1.563,0.266,2.289c1.12-0.36,0.973-1.306,0.992-2.188c0.298-1.178,0.912-2.133,1.898-2.85C91.051,22.697,92.309,24.675,93.395,26.914z"/>
<path fill="#64540D" d="M43.771,92.932c-4.152-2.133-8.304-4.269-12.455-6.402c-0.75-0.876-1.034-1.772-0.851-2.697c0.186-0.938,0.395-1.407,0.625-1.413c1.878-1.565,4.077-2.197,6.482-2.259c2.423,0.107,4.622,0.833,6.521,2.378c1.085,1.187,1.781,2.572,2.103,4.147C46.38,89.148,45.786,91.318,43.771,92.932z"/>
<path fill="#AC8F11" d="M31.145,11.064c2.084-1.001,4.169-1.999,6.253-2.997c0.999-0.848,2.133-1.104,3.402-0.769c2.291,1.34,3.385,3.559,4.347,5.875c0.42,1.163,0.637,2.371,0.693,3.604c-0.116,1.224-0.522,2.353-1.188,3.381c-0.917,0.814-1.999,1.227-3.229,1.245c-1.749-0.351-3.271-1.19-4.67-2.271c-0.903-0.684-1.74-1.456-2.533-2.268c-0.386-0.409-0.75-0.842-1.138-1.254c-0.725-0.867-1.303-1.831-1.764-2.869C31.255,12.187,31.201,11.625,31.145,11.064z"/>
<path fill="#614F0D" d="M6.936,33.192c0.016-2.105,0.029-4.214,0.044-6.323c0.804-1.468,1.297-3.17,2.957-4.013c1.897-0.312,3.279,0.623,4.555,1.846c1.256,1.214,2.454,2.484,3.613,3.809c0.777,0.964,1.216,2.066,1.395,3.29c-0.374,1.224-1.071,2.213-2.091,2.988c-1.735,0.934-3.589,1.276-5.543,1.178C9.853,35.697,8.228,34.739,6.936,33.192z"/>
<path fill="#391906" d="M21.851,46.107c-4.97-2.182-9.941-4.367-14.911-6.549c0.006-1.047,0.014-2.097,0.02-3.146c0.678-1.062,1.631-1.611,2.905-1.572c1.2,0.006,2.364,0.214,3.496,0.617c2.264,0.836,4.585,1.553,6.557,3.037c1.501,1.144,2.679,2.533,3.265,4.364C23.264,44.154,22.794,45.228,21.851,46.107z"/>
<path fill="#BD9F0F" d="M78.208,14.982c2.125,1.043,4.251,2.087,6.375,3.128c0.603,1.096,0.534,2.17-0.103,3.235c-0.775,0.916-1.668,1.688-2.666,2.359c-1.563,0.986-3.202,1.782-5.038,2.139c-1.958,0.195-3.76-0.201-5.354-1.4c-0.758-1.062-1.229-2.237-1.392-3.537c0.069-0.641,0.149-1.282,0.22-1.926c0.479-1.227,1.259-2.215,2.364-2.942C74.409,15.333,76.438,15.849,78.208,14.982z"/>
<path fill="#997C14" d="M40.805,8.198c-1.135-0.042-2.271-0.088-3.406-0.131c5.308-1.858,10.617-3.72,15.926-5.579c0.355,0.589,0.712,1.175,1.067,1.764c-0.29,0.625-0.579,1.251-0.862,1.886c-1.962,2.087-4.384,3.36-7.151,4.02C44.21,10.398,42.303,9.877,40.805,8.198z"/>
<path fill="#3E3609" d="M75.298,83.503c-2.088,1.05-4.175,2.1-6.262,3.146c-1.152-0.915-1.906-2.097-2.319-3.507c-0.161-1.455-0.032-2.884,0.405-4.284c0.711-1.303,1.698-2.335,2.994-3.067c2.313-0.616,4.292-0.088,5.888,1.733C77.075,79.67,77.01,81.684,75.298,83.503z"/>
<path fill="#5F510D" d="M31.44,83.152c-0.042,1.126-0.083,2.252-0.124,3.378c-2.103-1.004-4.207-2.005-6.309-3.006c-1.664-1.855-1.726-3.879-0.635-6.027c1.625-1.818,3.611-2.313,5.925-1.614c1.263,0.818,2.116,1.956,2.615,3.366C33.016,80.771,32.496,82.062,31.44,83.152z"/>
<path fill="#5C500C" d="M12.458,77.092c-1.012-0.095-1.988-0.336-2.93-0.718c-2.251-2.151-1.305-4.895-1.384-7.452c0.385-1.37,1.27-2.216,2.657-2.545c2.075-0.043,3.959,0.586,5.734,1.614c1.12,0.772,2.029,1.745,2.75,2.899c0.368,1.33,0.249,2.63-0.278,3.902C17.264,76.799,15.586,79.016,12.458,77.092z"/>
<path fill="#3D3206" d="M87.695,58.234c1.884-1.037,3.771-2.072,5.654-3.106c0.013,3.109,0.026,6.223,0.04,9.332c-0.972,1.063-2.189,1.578-3.619,1.624c-1.407-0.287-2.515-1.038-3.371-2.179C85.781,61.774,86.005,59.837,87.695,58.234z"/>
<path fill="#2D1305" d="M87.744,36.301c1.886,0,3.771,0,5.659,0c0.009,1.062,0.02,2.127,0.029,3.189c-0.897,0.998-1.795,1.996-2.692,2.991c-0.938,1.664-1.983,1.651-3.118,0.199c-2.064,0.989-4.131,1.978-6.195,2.963c-1.048-0.763-1.624-1.803-1.791-3.079c0.21-1.267,0.813-2.304,1.803-3.119l-0.02,0.04C83.113,37.602,86.086,38.261,87.744,36.301z"/>
<path fill="#3F3508" d="M68.907,80.009c0.004,1.074,0.008,2.146,0.012,3.22c-1.924,1.416-1.137,4.313-3.114,5.7c-0.972,0.366-1.968,0.647-2.99,0.843c-1.706-0.247-3.428-0.431-5.015-1.205c-1.008-0.65-1.751-1.526-2.282-2.601c-0.089-1.218,0.215-2.335,0.844-3.375c0.789-0.919,1.709-1.682,2.721-2.344c1.563-0.955,3.229-1.66,5.024-2.051C66.005,77.998,67.698,78.373,68.907,80.009z"/>
<path fill="#3F3507" d="M90.793,76.389c-0.955,0.415-1.947,0.711-2.976,0.888c-2.683-0.369-5.168-1.093-6.614-3.692c-0.312-1.358-0.125-2.637,0.618-3.83c1.365-1.605,3.066-2.691,5.087-3.283c0.686-0.067,1.37-0.125,2.057-0.187c0.661,0.195,1.32,0.396,1.98,0.595c0.39,0.568,0.777,1.139,1.166,1.709C92.16,71.271,93.119,74.106,90.793,76.389z"/>
<path fill="#B29111" d="M12.658,27.207c-1.073-1.013-2.147-2.029-3.22-3.042c-0.975,0.882-1.803,0.763-2.484-0.363c2.942-1.892,5.884-3.784,8.826-5.676c0.993,0.739,1.72,1.685,2.187,2.838c0.249,1.217,0.262,2.438,0.064,3.668c-0.217,0.58-0.449,1.154-0.67,1.73c-0.415,0.461-0.837,0.916-1.259,1.373C14.863,28.162,13.714,27.986,12.658,27.207z"/>
<path fill="#BA9C0F" d="M15.864,20.936c-0.029-0.938-0.057-1.874-0.084-2.811c0.928-0.378,1.891-0.601,2.89-0.668c0.56-0.373,1.118-0.745,1.68-1.12c0.653,0.159,1.308,0.317,1.964,0.473c1,0.946,1.672,2.09,2.084,3.396c0.238,1.333,0.25,2.673,0.035,4.01c-0.378,1.294-1.025,2.438-1.952,3.418c-0.613,0.22-1.239,0.437-1.855,0.659c-0.62-0.183-1.25-0.366-1.874-0.546c-0.833-1.016-1.278-2.188-1.332-3.506C17.373,22.923,16.854,21.818,15.864,20.936z"/>
<path fill="#403B0A" d="M75.298,83.503c-0.062-2.212-0.122-4.425-0.184-6.638c0.523-0.439,1.047-0.882,1.569-1.324c1.335-0.418,2.673-0.431,4.018-0.046c0.557,0.4,1.112,0.8,1.671,1.196c0.499,1.386,0.228,2.601-0.816,3.641C79.47,81.388,77.384,82.447,75.298,83.503z"/>
<path fill="#BF9D0E" d="M22.029,14.973c0.914-0.372,1.863-0.592,2.849-0.659c1.708-1.373,3.735-1.392,5.775-1.367c1.386,0.034,2.646,0.437,3.763,1.27l0.142,0.4c1.074,1.672,0.829,3.125-0.737,4.358c-4.267,2.417-8.158,1.706-11.76-1.41l-0.011,0.003c-0.722-0.571-0.964-1.145-0.73-1.725C21.553,15.263,21.789,14.973,22.029,14.973z"/>
<path fill="#57470A" d="M43.771,92.932c0.076-2.239,0.154-4.482,0.23-6.723c1.581-1.761,3.49-1.847,5.567-1.096c1.12,0.885,1.782,2.026,1.932,3.458c-0.163,3.098-2.357,4.821-4.476,6.595C45.939,94.422,44.854,93.677,43.771,92.932z"/>
<path fill="#C7A60F" d="M69.285,11.21c0.958,0.046,1.879,0.262,2.759,0.647c1.725,1.904,1.932,3.806,0.002,5.71l0.009-0.003c-1.988,2.298-4.443,2.707-7.225,1.792c-1.188-0.656-2.054-1.611-2.604-2.854c0.111-1.346,0.618-2.518,1.565-3.491c1.06-0.793,2.245-1.318,3.543-1.587C67.982,11.35,68.633,11.28,69.285,11.21z"/>
<path fill="#36370B" d="M50.083,89.579c0.041-1.044,0.032-2.084-0.027-3.125c2.09-1.773,4.208-2.084,6.373-0.128l0.041,0.036c0.827,0.913,1.108,1.953,0.757,3.149c-1.614,1.67-2.285,4.001-3.941,5.646c-1.018,0.003-2.036,0.006-3.055,0.009C48.274,93.354,48.456,91.486,50.083,89.579z"/>
<path fill="#8D740F" d="M56.792,4.924c2.018,1.028,4.034,2.057,6.052,3.085c-0.342,0.47-0.686,0.943-1.025,1.419c-1.025,0.604-2.127,0.979-3.305,1.157c-1.195,0.064-2.365-0.077-3.522-0.385c-0.53-0.266-1.057-0.543-1.588-0.815c-0.387-0.448-0.768-0.906-1.152-1.361c-0.361-1.236-0.049-2.237,1.047-2.96l0.005,0.003C54.421,3.956,55.585,3.907,56.792,4.924z"/>
<path fill="#B79910" d="M72.045,17.567c0-1.904,0-3.806,0-5.71c2.054,1.041,4.107,2.084,6.163,3.125C76.153,15.846,74.099,16.706,72.045,17.567z"/>
<path fill="#553E0A" d="M93.395,26.914c-1.498-1.062-2.998-2.127-4.497-3.192c-0.635,0.128-1.271,0.259-1.905,0.391c-0.087-0.641-0.174-1.282-0.261-1.926c0.527-0.373,1.058-0.745,1.585-1.12C90.009,23.017,91.702,24.964,93.395,26.914z"/>
<path fill="#4D4E10" d="M9.596,67.734c-0.023,2.881-0.044,5.759-0.067,8.64c-0.87-2.948-1.738-5.893-2.608-8.841C7.885,66.635,8.776,66.703,9.596,67.734z"/>
<path fill="#5F4F0B" d="M6.974,55.143c1.91,1.04,3.822,2.081,5.734,3.122c0.714,0.826,0.96,1.66,0.735,2.499c-0.223,0.842-0.452,1.264-0.685,1.264c-2.098,1.077-4.075,1.145-5.816-0.711C6.953,59.26,6.964,57.2,6.974,55.143z"/>
<path fill="#4C4D10" d="M12.458,77.092c2.188-1.105,4.375-2.207,6.563-3.309c0.388,0.36,0.774,0.724,1.166,1.083c0.421,0.995,0.597,2.03,0.499,3.107c-0.296,1.064-0.923,1.873-1.875,2.435C16.694,79.301,14.576,78.196,12.458,77.092z"/>
<path fill="#423607" d="M90.793,76.389c-0.009-2.896-0.02-5.789-0.029-8.683c0.788-1.349,1.667-1.413,2.636-0.186C92.532,70.475,91.661,73.432,90.793,76.389z"/>
<path fill="#453B08" d="M56.428,89.445c-0.003-1.029,0.011-2.058,0.042-3.083c2.115,1.136,4.23,2.273,6.344,3.409c-1.111,0.754-2.222,1.511-3.333,2.268c-0.842-0.494-1.728-0.892-2.658-1.19C56.82,90.851,56.428,89.445,56.428,89.445z"/>
<path fill="#403B0A" d="M81.402,73.801c2.14,1.159,4.278,2.319,6.416,3.476c-1.11,0.754-2.22,1.508-3.331,2.259c-1.194-0.647-2.209-1.508-3.047-2.576l-0.012-0.015c-0.398-0.522-0.799-1.041-1.198-1.563C80.62,74.857,81.011,74.329,81.402,73.801z"/>
<path fill="#554907" d="M65.804,88.928c1.039-1.9,2.077-3.802,3.114-5.7c0.04,1.142,0.078,2.282,0.118,3.421C67.958,87.409,66.881,88.169,65.804,88.928z"/>
<path fill="#A2840F" d="M62.844,8.009c2.146,1.065,4.292,2.133,6.439,3.198c0.001,0.003-0.89,0.287-0.89,0.287c-1.108,0.906-2.376,1.328-3.806,1.267c-0.672-0.18-1.342-0.363-2.012-0.543c-0.34-0.607-0.677-1.214-1.016-1.819c0.221-0.659,0.444-1.315,0.665-1.974L62.844,8.009z"/>
<path fill="#B29111" d="M31.576,14.357c-2.234-0.016-4.466-0.028-6.699-0.043c2.089-1.083,4.179-2.167,6.268-3.25l0.728,0.796L32.5,13.2L31.576,14.357z"/>
<path fill="#77600A" d="M50.083,89.579c0.049,1.861,0.099,3.727,0.147,5.588c-1.069,0-2.139,0-3.207,0C48.043,93.305,49.064,91.44,50.083,89.579z"/>
<path fill="#453B08" d="M53.285,95.158c1.047-1.904,2.094-3.809,3.143-5.713h0.001c0.824,0.735,1.115,1.485,0.878,2.255c-0.241,0.781-0.493,1.169-0.757,1.169C55.462,93.632,54.374,94.394,53.285,95.158z"/>
<path fill="#7F310E" d="M12.655,36.421c-1.898-0.003-3.796-0.006-5.695-0.009c-0.007-1.071-0.015-2.146-0.024-3.22c1.897,0.012,3.792,0.021,5.687,0.031c0.792,0.702,1.061,1.41,0.806,2.124C13.174,36.06,12.917,36.421,12.655,36.421z"/>
<path fill="#80320E" d="M6.942,61.317c1.903,0.027,3.804,0.052,5.707,0.079c0.584,1.297,0.47,2.502-0.459,3.607c-1.889,0.948-3.717,1.36-5.278-0.593C6.922,63.38,6.933,62.348,6.942,61.317z"/>
<path fill="#54200A" d="M6.911,64.411c1.937-0.003,3.873-0.006,5.809-0.009c0,0,0.856,0.971,0.859,0.971s-0.008,1.297-0.005,1.297c0.003,0.003-0.89,0.946-0.89,0.946c-1.031-0.004-2.063,0.033-3.091,0.115c-0.888-0.098-1.779-0.164-2.673-0.198C6.918,66.493,6.915,65.452,6.911,64.411z"/>
<path fill="#574C0D" d="M18.81,80.408c0.04-1.153,0.08-2.31,0.119-3.463c1.21-1.071,2.487-1.157,3.834-0.266c0.893,2.142,1.153,4.205-0.743,6.003C20.951,81.926,19.882,81.165,18.81,80.408z"/>
<path fill="#7C6A0B" d="M22.021,82.682c0.02-1.911,0.04-3.821,0.058-5.731c0.514-0.254,1.028-0.507,1.542-0.767c0.507,0.266,1.013,0.537,1.521,0.81c-0.044,2.176-0.09,4.354-0.134,6.533C23.985,83.344,22.988,83.063,22.021,82.682z"/>
<path fill="#90770F" d="M56.792,4.924c-1.163,0.049-2.327,0.098-3.489,0.144c0-0.861,0.006-1.721,0.021-2.579C54.481,3.3,55.637,4.112,56.792,4.924z"/>
<path fill="#59490D" d="M6.954,23.801c0.848-0.018,1.677,0.104,2.484,0.36c-0.819,0.906-1.639,1.807-2.458,2.707C6.971,25.846,6.964,24.824,6.954,23.801z"/>
<path fill="#221004" d="M93.4,67.521c-0.881,0.03-1.758,0.091-2.636,0.183c0,0.003,0.042-0.137,0.042-0.137c-1.068-0.693-1.423-1.386-1.068-2.079c0.354-0.692,0.709-1.04,1.068-1.04c0.86,0.003,1.721,0.006,2.583,0.012C93.392,65.479,93.397,66.502,93.4,67.521z"/>
<path fill="#AA8B11" d="M84.476,20.869c0.038-0.918,0.073-1.837,0.107-2.759c1.24,0.986,2.482,1.968,3.728,2.954c0.006,0.003-0.531-0.165-0.531-0.165c-0.554,0.357-1.107,0.714-1.661,1.071C85.571,21.604,85.024,21.235,84.476,20.869z"/>
<path fill="#37380B" d="M81.44,76.96c1.017,0.857,2.031,1.719,3.047,2.576c-0.944,0.384-1.922,0.649-2.931,0.796C81.518,79.206,81.478,78.083,81.44,76.96z"/>
<path fill="#A78912" d="M22.029,14.973c0.018,0.864,0.026,1.73,0.021,2.594c-1.126-0.037-2.252-0.073-3.378-0.11C19.79,16.627,20.909,15.8,22.029,14.973z"/>
<path fill="#38340A" d="M56.55,92.869c-0.04-1.142-0.08-2.283-0.121-3.424c1.018,0.863,2.034,1.727,3.052,2.594C58.532,92.414,57.555,92.692,56.55,92.869z"/>
<path fill="#311706" d="M21.851,46.107c0.081-1.053,0.16-2.108,0.24-3.162c0.882-0.906,1.944-1.343,3.216-1.26c2.449,0.378,4.686,1.355,6.891,2.444c2.25,1.129,4.388,2.42,6.065,4.358c0.696,1.096,1.117,2.286,1.254,3.583c-0.11,1.309-0.566,2.487-1.356,3.54c-1.155,0.646-2.397,0.885-3.714,0.787c-2.669-0.626-4.315-2.664-6.137-4.462l0.043-0.03c-1.717-1.813-4.547-1.306-6.31-3.024C21.948,47.959,21.884,47.035,21.851,46.107z"/>
<path fill="#6B5B0D" d="M28.31,51.935c2.084,1.035,4.169,2.072,6.254,3.11c0.997,0.827,1.585,1.87,1.732,3.167c0.066,2.573,0.09,5.146-0.251,7.725c-0.417,1.349-1.234,2.362-2.449,3.076c-2.136,0.674-4.123,0.415-5.96-0.897c-0.844-1.193-1.338-2.512-1.5-3.958c0.398-2.108,0.604-4.291,2.173-5.973C28.309,56.101,28.31,54.017,28.31,51.935z"/>
<path fill="#78660A" d="M18.874,61.39c0.417-1.371,0.832-2.741,1.656-5.46c0.806,2.75,1.211,4.142,1.617,5.529c1.654,1.465,1.926,3.275,1.326,5.308c-0.711,1.181-1.741,1.907-3.09,2.191c-0.63-0.205-1.26-0.412-1.892-0.617c-0.847-1.056-1.332-2.258-1.462-3.606C17.19,63.371,17.829,62.269,18.874,61.39z"/>
<path fill="#5B4B0A" d="M18.874,61.39c0.032,1.021,0.043,2.047,0.031,3.069c-2.082,1.831-4.158,1.828-6.227-0.021l0.042-0.036c-0.027-1.004-0.052-2.005-0.072-3.006c0.019-1.044,0.038-2.088,0.058-3.135c0.001,0.004,0.034-0.039,0.034-0.039c1.01-0.889,2.028-0.897,3.05-0.021C16.819,59.262,17.848,60.325,18.874,61.39z"/>
<path fill="#665509" d="M22.044,48.881c2.103,1.007,4.205,2.018,6.31,3.024C26.25,50.898,24.146,49.887,22.044,48.881z"/>
<path fill="#83740B" d="M28.309,58.185c-0.001,2.094-0.001,4.188-0.001,6.281c-1.073,1.107-2.293,1.254-3.647,0.564c-0.847-1.301-0.769-2.497,0.383-3.58C26.132,60.361,27.22,59.272,28.309,58.185z"/>
<path fill="#58470A" d="M25.044,61.451c0.068,0.968,0.132,1.938,0.189,2.908c0.83,0.653,1.196,1.389,1.097,2.203c-0.105,0.852-0.27,1.279-0.496,1.279c-1.315,0.619-2.579,0.519-3.786-0.296c0.032-2.029,0.066-4.06,0.099-6.089C23.113,61.386,24.077,61.384,25.044,61.451z"/>
<path fill="#5F4F0B" d="M15.791,58.201c-1.017-0.003-2.034,0.003-3.052,0.021C13.757,58.217,14.774,58.207,15.791,58.201z"/>
<path fill="#483B08" d="M78.318,48.853c1.033,4.159,2.066,8.316,3.101,12.476c-0.629,0.895-1.477,1.227-2.526,1.01c-2.295-1.309-1.676,1.331-2.581,1.96c-0.788,0.803-1.715,1.248-2.827,1.333c-1.696-0.229-3.366-0.125-5.048,0.244c-1.241,0.101-2.424-0.082-3.59-0.506c-1.728-0.916-3.141-2.177-4.33-3.721c-1.151-1.718-1.804-3.573-1.595-5.679c1.443-3.471,4.449-5.231,7.523-6.94C70.375,47.523,74.308,44.932,78.318,48.853z"/>
<path fill="#403507" d="M72.151,64.472c1.026-0.019,2.054-0.043,3.079-0.07c0.76-1.3,1.793-2.325,3.099-3.073c1.03-0.003,2.06-0.003,3.09,0c2.092-1.031,4.184-2.066,6.276-3.098c-0.005,2.072-0.01,4.142-0.014,6.214c0.917,0.695,1.221,1.389,0.915,2.084c-0.305,0.692-0.61,1.041-0.919,1.041l0.037-0.024c-1.492,1.482-3.486,1.498-5.368,1.84c-2.509,0.778-4.633,2.447-7.194,3.116c-2.015,0.43-3.966,0.286-5.824-0.659c-1.01-0.949-1.503-2.124-1.484-3.513C68.688,66.388,70.203,65.189,72.151,64.472z"/>
<path fill="#221004" d="M78.318,48.853c-4.162,1.068-8.325,2.133-12.486,3.201c-0.725-1.028-0.944-2.154-0.665-3.381c0.692-1.725,1.844-3.095,3.282-4.239c1.436-1.092,2.998-1.974,4.654-2.691c1.13-0.363,2.298-0.571,3.484-0.647c1.763-0.019,3.55-0.107,4.839,1.456c0,1.032,0.002,2.063,0,3.095C80.39,46.714,79.354,47.782,78.318,48.853z"/>
<path fill="#403308" d="M87.621,42.68c1.04-0.064,2.079-0.131,3.118-0.195c-0.34,1.373-0.682,2.747-1.373,5.542C88.485,45.325,88.053,44.004,87.621,42.68z"/>
<path fill="#B39811" d="M71.97,23.686c2.137,0.027,4.271,0.052,6.407,0.076c0.808-0.806,1.777-1.279,2.913-1.416c1.114-0.037,2.228-0.04,3.343-0.009c1.182,0.046,2.085,0.58,2.751,1.541c0,0,1.51-0.155,1.513-0.155c-0.48,0.924-0.963,1.849-1.445,2.774c-0.573,1.703-1.538,2.063-2.958,0.864c-1.057,0.753-2.112,1.507-3.17,2.261c-0.812,1.043-1.828,1.81-3.08,2.264c-1.233,0.498-2.506,0.803-3.837,0.9c-2.068-0.101-3.935-0.745-5.554-2.06c-0.896-1.053-1.442-2.271-1.703-3.622c0.073-0.671,0.153-1.346,0.228-2.021c0.342-0.586,0.689-1.169,1.033-1.755C69.685,22.559,70.871,22.678,71.97,23.686z"/>
<path fill="#553E0A" d="M84.494,27.36c0.97-0.348,1.956-0.635,2.958-0.861c-0.193,1.438-0.388,2.878-0.812,6.037C85.501,29.789,84.998,28.574,84.494,27.36z"/>
<path fill="#3C3007" d="M75.203,36.28c-0.008,1.059-0.014,2.115-0.021,3.174c1.133,0.696,1.508,1.392,1.131,2.084c-0.375,0.693-0.754,1.041-1.135,1.041l0.059,0.003c-1.06,0.982-2.261,1.199-3.601,0.659c-1.394-1.657-1.703-3.543-1.196-5.606c0.621-1.242,1.601-2.017,2.986-2.249C74.016,35.685,74.61,35.981,75.203,36.28z"/>
<path fill="#551F0A" d="M87.744,36.301c-2.109,1.062-4.216,2.124-6.325,3.183C83.528,38.426,85.634,37.364,87.744,36.301z"/>
<path fill="#57210A" d="M75.178,42.579c0.001-1.041,0.003-2.084,0.004-3.125c2.085-0.003,4.171-0.006,6.255-0.009c-0.006,1.038-0.011,2.072-0.011,3.109C79.343,42.561,77.26,42.57,75.178,42.579z"/>
<path fill="#57490A" d="M78.33,33.171c-1.043,1.038-2.085,2.075-3.127,3.109l-0.024,0.04c-0.424-0.553-0.847-1.102-1.27-1.654c0.244-0.65,0.488-1.303,0.731-1.953c0.654-0.241,1.308-0.479,1.962-0.717C77.18,32.386,77.755,32.777,78.33,33.171z"/>
<path fill="#38350A" d="M78.326,30.158c0.995-0.205,1.994-0.385,2.998-0.537c-0.998,1.181-1.995,2.365-2.993,3.549l-0.032,0.027c-1.065-0.684-1.416-1.361-1.055-2.036C77.604,30.494,77.962,30.158,78.326,30.158z"/>
<path fill="#3A1F07" d="M56.429,86.326c-2.124,0.043-4.248,0.082-6.372,0.128c-2.021-0.079-4.039-0.162-6.058-0.244c-0.064-1.007-0.087-2.018-0.067-3.024c0.381-0.458,0.761-0.912,1.14-1.373c1.576-0.949,3.303-1.331,5.125-1.386c1.826,0.021,3.556,0.421,5.135,1.377c0.375,0.464,0.747,0.934,1.118,1.403C56.461,84.248,56.453,85.285,56.429,86.326z"/>
<path fill="#5A4A0B" d="M31.44,83.152c-0.006-1.038-0.005-2.072,0.001-3.11c0.752-1.019,1.758-1.593,3.02-1.727c1.23,0.168,2.327,0.638,3.274,1.446c0.727,1.08,0.804,2.188,0.128,3.326C35.722,83.109,33.581,83.131,31.44,83.152z"/>
<path fill="#371806" d="M37.864,83.088c-0.11-1.01-0.165-2.026-0.162-3.042c0.38-0.395,0.759-0.785,1.135-1.185c1.044-0.391,2.117-0.494,3.217-0.323c1.045,0.396,1.895,1.056,2.576,1.935c0.464,1.107,0.212,2.023-0.754,2.74l0.057-0.027C41.909,83.152,39.887,83.118,37.864,83.088z"/>
<path fill="#B7960F" d="M40.805,8.198c2.13-0.067,4.26-0.134,6.389-0.201c2.092-1.535,4.132-1.758,6.086,0.238l-0.021-0.009c1.099,0.638,1.445,1.584,1.149,2.795c-0.609,0.986-1.446,1.728-2.461,2.271c-1.032,0.443-2.11,0.754-3.211,0.983c-1.086,0.229-2.192,0.296-3.305,0.241c-0.549-0.034-1.102-0.077-1.654-0.119C42.786,12.33,41.795,10.264,40.805,8.198z"/>
<path fill="#9D8111" d="M46.827,11.537c1.098-0.07,2.197-0.141,3.297-0.211c1.904,2.106,1.858,4.355,0.496,6.702c-2.34,1.358-4.59,1.486-6.688-0.482c-0.05-1.05-0.103-2.1-0.154-3.149c-0.001,0,0.197,0.034,0.197,0.034C44.967,13.508,45.919,12.544,46.827,11.537z"/>
<path fill="#B89710" d="M43.932,17.546c2.044-0.037,4.09-0.073,6.135-0.11c0.659,1.346,0.505,2.588-0.459,3.735c-1.239,0.708-2.568,0.931-3.977,0.735c-0.569-0.397-1.137-0.796-1.706-1.193C43.928,19.657,43.93,18.601,43.932,17.546z"/>
<path fill="#867313" d="M31.576,14.357c-0.046-0.852,0.053-1.685,0.296-2.5c0.85,0.791,1.698,1.575,2.545,2.359c-0.001,0-1.417,0.146-1.417,0.146L31.576,14.357z"/>
<path fill="#C09C0F" d="M40.833,20.71c1.03-0.009,2.062-0.009,3.093,0c0,0.003,0.014-0.009,0.014-0.009c0.75,0.788,1.003,1.578,0.76,2.371s-0.488,1.193-0.734,1.193c-1.479,0.208-2.66-0.29-3.539-1.499C40.562,22.083,40.698,21.397,40.833,20.71z"/>
<path fill="#836C0E" d="M37.757,17.631c1.025,1.028,2.051,2.054,3.076,3.079h-0.011c-1.073,0.995-2.245,1.129-3.514,0.4c-0.246-0.62-0.49-1.242-0.735-1.862C36.968,18.708,37.362,18.171,37.757,17.631z"/>
<path fill="#C4A00F" d="M34.559,17.561c-0.001-0.982-0.001-1.965-0.001-2.948c1.066,1.007,2.131,2.014,3.2,3.018l-0.096-0.07C36.628,18.69,35.595,18.635,34.559,17.561z"/>
<path fill="#57470A" d="M12.655,36.421c-0.011-1.068-0.02-2.133-0.031-3.198c2.106-0.009,4.213-0.021,6.32-0.031c0.223,0.546,0.447,1.093,0.67,1.642c-0.35,1.169-1.044,2.078-2.077,2.731c-1.842,0.333-3.508-0.034-4.968-1.236L12.655,36.421z"/>
<path fill="#55500F" d="M12.658,27.207c1.068-0.052,2.138-0.104,3.206-0.159c0.856,0.687,1.132,1.364,0.83,2.026c-0.301,0.656-0.597,0.986-0.891,0.986C14.755,29.109,13.706,28.159,12.658,27.207z"/>
<path fill="#54420D" d="M18.945,33.192c-0.009-1.028-0.012-2.054-0.009-3.079c0.435-0.418,0.87-0.839,1.305-1.257c1.287,0.083,2.22,0.699,2.808,1.846c0.141,1.257-0.24,2.347-1.068,3.29c-1.233,0.546-2.243,0.238-3.055-0.809L18.945,33.192z"/>
<path fill="#58490A" d="M15.803,30.061c0.006-1.004,0.026-2.008,0.061-3.012l-0.258-0.372c1.217-1.288,2.33-1.142,3.351,0.244L19,26.881c1.025,0.72,1.359,1.432,1.002,2.13c-0.354,0.693-0.705,1.041-1.058,1.041l-0.009,0.061C17.892,30.094,16.848,30.079,15.803,30.061z"/>
<path fill="#7F310E" d="M12.57,36.329c2.116,0.012,4.231,0.024,6.346,0.034l0.929,0.916c0.001,0,0.004,1.303,0.004,1.303L18.924,39.5C16.807,38.444,14.689,37.385,12.57,36.329z"/>
<path fill="#7A290E" d="M25.132,42.658c-1.025-0.034-2.039,0.058-3.041,0.284c-1.056-1.147-2.112-2.295-3.167-3.442l0.005-0.058c0.787-0.982,1.805-1.55,3.056-1.706c1.237,0.174,2.299,0.708,3.217,1.547c0.223,0.568,0.444,1.135,0.667,1.703C25.623,41.541,25.378,42.1,25.132,42.658z"/>
<path fill="#B5960F" d="M62.814,17.424c3.08,0.049,6.159,0.095,9.24,0.14c0,1.047,0,2.097,0,3.144c-0.903,1.034-1.864,2.014-2.886,2.933l-0.313,0.256c-1.008,0.821-2.131,1.035-3.376,0.653c-1.737-0.809-3.049-2.042-3.806-3.827c-0.004-0.613-0.003-1.233-0.004-1.849C62.049,18.391,62.432,17.909,62.814,17.424z"/>
<path fill="#89730F" d="M84.597,23.82c-1.021,0-2.042-0.006-3.064-0.019c-0.801-0.738-1.037-1.438-0.709-2.103c0.317-0.644,0.622-0.964,0.915-0.964c0.913,0.055,1.825,0.098,2.737,0.131c0,0.003,0.014-0.168,0.014-0.168c0.862,0.665,1.165,1.349,0.91,2.051C85.142,23.463,84.874,23.82,84.597,23.82z"/>
<path fill="#CAA90F" d="M81.739,20.735c-0.128,1.016-0.198,2.042-0.206,3.067c-1.053-0.012-2.104-0.024-3.156-0.04C79.497,22.752,80.618,21.741,81.739,20.735z"/>
<path fill="#C7A60E" d="M69.168,23.64c0.962-0.979,1.923-1.956,2.886-2.933c-0.005,0.995-0.032,1.986-0.082,2.981c-0.002-0.003-1.402,0.024-1.402,0.024L69.168,23.64z"/>
<path fill="#90770F" d="M53.28,8.235C51.25,8.159,49.219,8.079,47.192,8c2.037-0.979,4.071-1.959,6.106-2.936C53.292,6.12,53.285,7.179,53.28,8.235z"/>
<path fill="#211004" d="M75.115,76.865c-2.063,0.016-4.124,0.031-6.187,0.046c-0.312-0.537-0.624-1.074-0.938-1.611c0.139-0.604,0.278-1.211,0.417-1.818c0.521-0.336,1.047-0.672,1.57-1.011c1.872-0.164,3.723-0.217,5.267,1.142c0.775,1.123,0.734,2.222-0.122,3.287L75.115,76.865z"/>
<path fill="#291105" d="M68.907,80.009c-2.086,0.021-4.174,0.043-6.26,0.062c-0.215-0.562-0.429-1.127-0.644-1.688c0.38-1.187,1.101-2.105,2.157-2.765c1.879-0.583,3.523-0.317,4.779,1.334l-0.012-0.04C68.934,77.942,68.928,78.977,68.907,80.009z"/>
<path fill="#311706" d="M31.405,76.914c-2.087,0.024-4.175,0.052-6.262,0.076c0,0.004,0.029-0.039,0.029-0.039c-0.429-0.507-0.856-1.017-1.285-1.523c0.276-1.36,0.99-2.404,2.207-3.097c1.3-0.379,2.612-0.437,3.937-0.141c0.566,0.348,1.132,0.702,1.697,1.056c0.202,0.632,0.404,1.267,0.606,1.901C32.023,75.733,31.713,76.325,31.405,76.914z"/>
<path fill="#431B08" d="M34.58,79.938c-1.047,0.037-2.092,0.07-3.139,0.107c-0.012-1.044-0.024-2.088-0.037-3.132l0.006,0.031c1.015-1.099,2.167-1.267,3.458-0.504C35.705,77.683,35.607,78.849,34.58,79.938z"/>
<path fill="#3C1907" d="M19.021,73.783c-0.029-1.053-0.058-2.103-0.087-3.152c0.5-0.421,1.001-0.842,1.5-1.264c1.306-0.14,2.609-0.137,3.914,0.024c0.542,0.369,1.08,0.742,1.622,1.111c0.569,1.324,0.298,2.444-0.814,3.359l0.037-0.042c-2.091,1.88-4.175,1.892-6.253-0.021L19.021,73.783z"/>
<path fill="#421B08" d="M15.853,70.511c-1.056-0.967-2.112-1.932-3.168-2.896v-0.056c1.024-1.15,2.185-1.312,3.484-0.494C17.092,68.308,16.987,69.456,15.853,70.511z"/>
<path fill="#311706" d="M15.853,70.511c-0.024-0.964-0.035-1.929-0.031-2.89c1.021-1.282,2.052-1.358,3.093-0.024l0.003-0.03c1.073,0.698,1.43,1.395,1.073,2.09c-0.357,0.696-0.714,1.044-1.076,1.044l0.018-0.07C17.904,70.668,16.877,70.628,15.853,70.511z"/>
<path fill="#2D1305" d="M87.677,67.57c0.002-1.041,0.002-2.085,0.002-3.125c1.042,0,2.084,0,3.127,0c-0.002,1.043-0.002,2.084-0.002,3.125C89.763,67.57,88.721,67.57,87.677,67.57z"/>
<path fill="#2D1305" d="M59.581,83.109c-1.043,0.033-2.087,0.064-3.131,0.098l-0.047-0.03c-0.784-1.16-0.662-2.252,0.239-3.29c1.17-0.629,2.363-0.681,3.586-0.155C60.774,81.004,60.557,82.13,59.581,83.109z"/>
<path fill="#211004" d="M59.581,83.109c-0.011-0.988-0.012-1.98-0.001-2.97c1.018-0.988,2.051-1.059,3.104-0.055l-0.038-0.015C61.624,81.083,60.604,82.096,59.581,83.109z"/>
<path fill="#251004" d="M81.55,67.57c2.055-0.007,4.108-0.016,6.162-0.024c-2.1,1.047-4.199,2.09-6.299,3.134c-0.395-0.537-0.791-1.071-1.187-1.608C80.667,68.571,81.109,68.07,81.55,67.57z"/>
<path fill="#251004" d="M81.413,70.679c0.015,1.041,0.01,2.081-0.012,3.122l0.017,0.003c-1.075,1.169-2.268,1.367-3.595,0.434c-0.781-1.315-0.743-2.634,0.003-3.955c1.331-0.909,2.536-0.767,3.618,0.427L81.413,70.679z"/>
<path fill="#846B11" d="M18.957,26.921c-1.117-0.08-2.232-0.162-3.349-0.244c0.167-0.91,0.308-1.825,0.419-2.744c0.911-1.096,1.845-1.117,2.802-0.061C18.914,24.888,18.957,25.904,18.957,26.921z"/>
<path fill="#937A10" d="M18.829,23.872l-1.404-0.003c0,0-1.402,0.064-1.399,0.064c-0.093-0.998-0.148-1.999-0.163-3C16.851,21.916,17.84,22.895,18.829,23.872z"/>
<path fill="#B9960E" d="M34.559,17.561c1.035,0.012,2.069,0.012,3.104,0c0.05,1.004,0.08,2.011,0.084,3.018c1.596,1.379,1.713,3.11,1.186,4.99c-0.722,1.025-1.712,1.657-2.92,1.953c-1.181-0.189-2.291-0.601-3.326-1.193c-1.514-0.836-3.099-1.538-4.749-2.1c-2.319-0.574-4.295-1.727-5.879-3.525c0.001-1.046,0.003-2.093,0.003-3.14C26.228,17.564,30.393,17.564,34.559,17.561z"/>
<path fill="#C3A20F" d="M22.057,20.704c3.117-0.003,6.235-0.009,9.352-0.012c0.419,0.598,0.839,1.199,1.264,1.8c-0.266,0.681-0.534,1.364-0.798,2.048c-1.184,0.9-2.512,1.471-3.977,1.721c-2.316,0.079-4.245-0.785-5.842-2.438C22.06,22.785,22.06,21.745,22.057,20.704z"/>
<path fill="#866D0F" d="M22.056,23.823c1.993,0.061,3.985,0.119,5.979,0.18c1.324,2.679-0.397,3.653-2.475,4.428c-1.448,0.028-2.67-0.485-3.665-1.541C21.942,25.867,21.995,24.845,22.056,23.823z"/>
<path fill="#8B7114" d="M21.894,26.89c1.125,0.034,2.25,0.064,3.375,0.095c0.687,1.074,0.65,2.124-0.108,3.152c-1.002,0.788-2.044,0.882-3.131,0.174c-1.025-0.134-2.054-0.22-3.085-0.259c0.019-1.056,0.035-2.115,0.053-3.171C19.964,26.899,20.929,26.902,21.894,26.89z"/>
<path fill="#3E3609" d="M78.304,73.816c1.039,0.013,2.077,0.007,3.114-0.012c0.003,1.047,0.006,2.094,0.01,3.141c-2.102-0.016-4.203-0.031-6.304-0.043c0.05-1.041,0.081-2.078,0.092-3.119c0.519-0.421,1.039-0.842,1.558-1.27C77.285,72.944,77.794,73.381,78.304,73.816z"/>
<path fill="#B6970F" d="M62.664,14.53c0.015,0.967,0.065,1.932,0.147,2.896c0.002-0.003-0.239,0.29-0.239,0.29c-0.832,1.043-1.532,2.167-2.123,3.366c-0.622,0.253-1.243,0.5-1.867,0.75c-1.411-0.07-2.545-0.666-3.413-1.779c-0.826-2.011-0.716-3.961,0.342-5.862c1.686-1.45,3.587-1.782,5.684-1.083C61.683,13.581,62.172,14.057,62.664,14.53z"/>
<path fill="#A38018" d="M65.752,11.357c0.885,0.003,1.767,0.049,2.645,0.137c-0.885,0.937-1.766,1.877-2.647,2.814c-1.03-0.656-1.372-1.313-1.028-1.969C65.063,11.683,65.406,11.357,65.752,11.357z"/>
<path fill="#907711" d="M65.752,11.357c0.041,0.986,0.04,1.968-0.002,2.954c-1.028,0.101-2.057,0.174-3.086,0.217c0,0.003,0.085-0.421,0.085-0.421c-0.751-0.583-1.012-1.178-0.786-1.788c0.229-0.62,0.466-0.928,0.708-0.928C63.699,11.375,64.725,11.363,65.752,11.357z"/>
<path fill="#92780F" d="M62.671,11.39c0.008,0.909,0.032,1.815,0.078,2.722c-2.115,0.125-4.229,0.253-6.346,0.384c-2.786,0.662-4.323,0.095-3.111-3.167c0.041-1.035,0.028-2.069-0.034-3.104c1.109,0.012,2.221,0.024,3.331,0.04c0.794,0.906,1.801,1.404,2.994,1.541c1.208,0.098,2.214,0.601,3.017,1.504L62.671,11.39z"/>
<path fill="#B6970F" d="M59.597,11.326c-1.004-1.019-2.008-2.042-3.009-3.064c0.979-0.006,1.959-0.024,2.937-0.058c0.845,0.674,1.136,1.361,0.876,2.063C60.139,10.975,59.871,11.326,59.597,11.326z"/>
<path fill="#8A7013" d="M59.597,11.326c-0.029-1.041-0.054-2.081-0.072-3.122c0.91-0.009,1.814,0.064,2.706,0.216c0.277,0.946,0.404,1.908,0.37,2.89C61.599,11.308,60.598,11.311,59.597,11.326z"/>
<path fill="#D1AE0E" d="M84.597,23.82c-0.068-1.041-0.104-2.082-0.105-3.122c1.094,0.067,2.191,0.134,3.287,0.201c0.216,1.038,0.09,2.03-0.387,2.979c-0.008,0-1.4-0.064-1.4-0.064L84.597,23.82z"/>
<path fill="#5C500C" d="M18.939,73.799c2.084,0.006,4.168,0.015,6.253,0.021c-0.006,1.043-0.012,2.087-0.02,3.131h-1.549c0,0-1.547,0-1.545,0c-1.048,0-2.098-0.003-3.148-0.006C18.932,75.895,18.935,74.848,18.939,73.799z"/>
<path fill="#78290E" d="M18.916,67.597l-1.547-0.021c0,0-1.549,0.04-1.547,0.043c-1.045-0.019-2.09-0.037-3.136-0.059c0.008-1.04,0.005-2.081-0.007-3.118c2.077,0.006,4.153,0.012,6.229,0.018C18.908,65.507,18.912,66.551,18.916,67.597z"/>
<path fill="#67560B" d="M34.539,58.231c0.008-1.062,0.017-2.124,0.026-3.186c1.036,0.049,2.068,0.009,3.098-0.122c2.95-0.76,4.425,1.004,5.62,3.271c1.442,4.062,1.295,8.011-0.867,11.81c-1.05,1.337-2.429,2.075-4.122,2.222c-2.577-0.448-4.556-1.395-3.745-4.607c0.001-1.057,0.005-2.112,0.006-3.168C32.748,62.385,32.731,60.309,34.539,58.231z"/>
<path fill="#421B08" d="M40.806,58.217c-1.048-1.096-2.095-2.194-3.144-3.29c0.042-1.056,0.084-2.109,0.125-3.162c1.589-1.702,3.569-1.938,5.727-1.56c2.754,0.745,5.157,2.075,7.019,4.285c1.158,1.853,1.403,3.793,0.51,5.829c-2.237,2.563-4.749,1.87-7.306,0.607C42.733,60.059,41.757,59.15,40.806,58.217z"/>
<path fill="#77270E" d="M31.336,45.731c-2.067-1.025-4.135-2.05-6.203-3.073c-0.001,0,0.06-0.119,0.06-0.119c0.752-1.019,1.758-1.584,3.02-1.7c1.229,0.183,2.298,0.699,3.21,1.544c0.225,0.562,0.449,1.129,0.673,1.694C31.843,44.627,31.59,45.179,31.336,45.731z"/>
<path fill="#80310E" d="M37.68,48.823c-2.114-1.031-4.227-2.061-6.342-3.092c-0.001,0,0.162-0.024,0.162-0.024c1.31-1.773,3.078-2.017,5.071-1.522c1.193,0.632,1.874,1.62,2.046,2.96C38.304,47.703,37.992,48.261,37.68,48.823z"/>
<path fill="#7F300F" d="M43.94,51.926c-2.051-0.052-4.103-0.106-6.154-0.162c-0.075-0.979-0.111-1.959-0.106-2.941l0.027-0.04c2.708-2.42,4.883-1.679,6.708,1.133C44.256,50.587,44.098,51.255,43.94,51.926z"/>
<path fill="#5D4D0C" d="M34.55,67.619c1.045,1.028,2.092,2.06,3.137,3.088c0.975,1.337,0.998,2.649-0.087,3.943c-2.243,0.964-4.365,0.991-6.253-0.806l0.111,0.058c-1.268-1.229-3.087-1.767-4.132-3.277c-0.375-1.242-0.017-2.246,0.978-3.049C30.386,67.592,32.467,67.603,34.55,67.619z"/>
<path fill="#826C12" d="M34.539,58.231c0.006,2.075,0.012,4.147,0.017,6.22C34.551,62.379,34.545,60.306,34.539,58.231z"/>
<path fill="#63530A" d="M28.305,67.576c0,0.998,0,1.999,0,2.997c-1.017,1.379-2.086,1.422-3.208,0.125l0.079,0.019c-1.13-0.696-1.507-1.389-1.133-2.088c0.374-0.695,0.749-1.044,1.129-1.044c0.02-1.074,0.04-2.148,0.06-3.226c1.025,0.055,2.051,0.089,3.076,0.107C28.301,65.504,28.3,66.538,28.305,67.576z"/>
<path fill="#7F310E" d="M25.172,67.585c0.001,1.041,0.003,2.085,0.004,3.132c-2.085-0.007-4.173-0.01-6.26-0.016c0.001-1.044,0.003-2.091,0.003-3.134c1.043-0.007,2.086-0.013,3.129-0.019C23.089,67.563,24.131,67.576,25.172,67.585z"/>
<path fill="#554A07" d="M62.706,61.271c1.05,1.071,2.1,2.139,3.149,3.207c2.36,2.43,1.35,5.396,1.308,8.206c-0.717,1.346-1.805,2.179-3.326,2.423c-2.362-0.234-4.021-1.556-5.336-3.421c-1.028-2.044-1.175-4.165-0.508-6.351C58.953,63.279,60.422,61.801,62.706,61.271z"/>
<path fill="#251004" d="M65.755,49.057c0.026,0.998,0.052,1.996,0.076,2.997c-2.11,2.026-4.222,4.053-6.332,6.079c-0.54,0.327-1.08,0.65-1.624,0.977c-1.333-0.161-2.319-0.833-2.969-2.011c-0.383-1.255-0.442-2.524-0.241-3.814c0.445-1.249,1.156-2.313,2.151-3.189c1.614-1.169,3.407-1.913,5.376-2.243c0.649,0.021,1.303,0.058,1.956,0.089C64.684,48.31,65.22,48.685,65.755,49.057z"/>
<path fill="#3D3206" d="M65.779,73.786c0.025-3.101,0.052-6.204,0.077-9.308c0.986-0.003,1.972,0,2.957,0.013c0.959,0.635,1.298,1.297,1.019,1.983c-0.286,0.702-0.58,1.053-0.886,1.053c0,1.068,0,2.14,0,3.207c1.12,0.705,1.491,1.404,1.117,2.103c-0.374,0.696-0.749,1.044-1.128,1.044l0.024-0.058C67.884,75.065,66.824,75.114,65.779,73.786z"/>
<path fill="#5A4A0C" d="M78.328,61.329c-1.033,1.025-2.066,2.051-3.099,3.073c0.15-2.194,0.302-4.392,0.662-9.622C77.43,58.915,77.878,60.124,78.328,61.329z"/>
<path fill="#574906" d="M62.706,61.271c-1.048,1.059-2.095,2.114-3.143,3.174c-0.429-0.449-0.859-0.897-1.29-1.343c-0.651-1.92-0.378-3.607,1.239-4.959c0,0-0.012-0.01-0.014-0.01C60.569,59.18,61.637,60.224,62.706,61.271z"/>
<path fill="#5A4F08" d="M68.946,67.527c-0.021-1.014-0.063-2.026-0.131-3.036c0.529-0.565,1.061-1.13,1.717-1.828c0.586,0.652,1.1,1.232,1.617,1.81C71.082,65.492,70.014,66.508,68.946,67.527z"/>
<path fill="#531C0A" d="M81.445,70.71c-1.047-0.003-2.094-0.009-3.139-0.012c-0.526,0.479-1.053,0.961-1.578,1.446c-0.526-0.479-1.052-0.965-1.576-1.449c2.132-1.041,4.264-2.082,6.398-3.125C81.515,68.617,81.48,69.663,81.445,70.71z"/>
<path fill="#57210A" d="M68.935,73.881c0.004-1.05,0.007-2.097,0.011-3.146c2.069-0.012,4.137-0.024,6.206-0.039h0.027c0.833,0.695,1.111,1.388,0.833,2.084c-0.277,0.692-0.556,1.041-0.834,1.041c0,0,0.036-0.034,0.038-0.034C73.122,73.816,71.029,73.85,68.935,73.881z"/>
<path fill="#521C0A" d="M72.04,42.493c1.065,0.028,2.13,0.058,3.196,0.089c-2.1,1.041-4.198,2.084-6.298,3.125c-0.324-0.451-0.649-0.906-0.974-1.361c-0.021-1.178,0.454-2.118,1.354-2.862C70.494,41.093,71.403,41.428,72.04,42.493z"/>
<path fill="#531C0A" d="M68.939,45.707c-1.061,1.117-2.121,2.231-3.182,3.351c-0.002,0,0.073-0.326,0.073-0.326c-0.708-0.727-0.995-1.492-0.861-2.301c0.137-0.827,0.309-1.242,0.517-1.242c1.281-0.772,2.428-0.604,3.436,0.5L68.939,45.707z"/>
<path fill="#8A7117" d="M68.934,30.115c2.104,0.006,4.208,0.009,6.313,0.016c0.798,0.705,1.047,1.388,0.747,2.054c-0.296,0.653-0.582,0.979-0.863,0.979l0.049,0.027c-0.884,0.971-1.979,1.489-3.29,1.557c-1.313,0.119-2.455-0.284-3.446-1.142c-0.149-0.613-0.3-1.229-0.449-1.843C68.307,31.214,68.621,30.665,68.934,30.115z"/>
<path fill="#836C0E" d="M65.864,23.921c0.998-0.043,1.996-0.052,2.992-0.024c0.098,0.998,0.101,1.996,0.01,2.994c-0.932,0.873-1.9,0.918-2.905,0.131c-0.255-0.51-0.509-1.02-0.762-1.529C65.419,24.97,65.643,24.446,65.864,23.921z"/>
<path fill="#4E4208" d="M75.13,33.164c0.029-1.013,0.065-2.026,0.111-3.037c1.03-0.128,2.056-0.122,3.082,0.024c-0.017,1.02-0.024,2.033-0.025,3.046C77.243,33.186,76.186,33.176,75.13,33.164z"/>
<path fill="#9C800F" d="M65.921,26.957c0.981-0.006,1.964-0.028,2.945-0.067c0.021,1.074,0.044,2.148,0.067,3.226l0.073-0.015c-0.996,0.882-2.008,0.857-3.037,0.058c-0.258-0.528-0.517-1.059-0.774-1.587C65.437,28.034,65.679,27.497,65.921,26.957z"/>
<path fill="#3D3709" d="M69.238,33.607c0.941-0.125,1.881-0.253,2.819-0.391c0.916,0.69,1.221,1.379,0.916,2.069c-0.304,0.689-0.609,1.035-0.917,1.035c-0.005,2.057-0.01,4.117-0.016,6.173c-1.028,0.046-2.057,0.077-3.085,0.092c-0.861,1.077-1.928,1.422-3.238,0.918c-0.934-0.906-1.512-2.008-1.793-3.274c-0.047-1.294,0.211-2.527,0.713-3.717C65.726,34.846,67.125,33.659,69.238,33.607z"/>
<path fill="#382D06" d="M72.056,36.32c-0.002-1.044-0.002-2.084,0-3.113c1.042-0.012,2.082-0.019,3.123-0.016c0,1.044,0,2.084,0,3.128C74.138,36.32,73.096,36.32,72.056,36.32z"/>
<path fill="#78290E" d="M43.876,83.213c0.015-1.043,0.031-2.09,0.047-3.134c0.484-0.439,0.967-0.876,1.45-1.318c1.27-0.403,2.551-0.445,3.846-0.135c0.537,0.373,1.073,0.748,1.61,1.12c0.618,1.31,0.38,2.393-0.843,3.223C47.95,83.049,45.913,83.131,43.876,83.213z"/>
<path fill="#58220A" d="M49.987,82.968c0.115-0.942,0.181-1.889,0.198-2.838c1.329-1.599,3.013-1.861,4.912-1.3c0.45,0.412,0.9,0.83,1.349,1.245c-0.007,1.034-0.022,2.065-0.042,3.101C54.264,83.106,52.126,83.036,49.987,82.968z"/>
<path fill="#371806" d="M34.58,79.938c-0.012-0.955-0.011-1.907,0.006-2.862c1.024-0.906,2.101-0.934,3.228-0.198c0.79,1.12,0.694,2.194-0.169,3.229c0,0,0.058-0.058,0.058-0.061C36.661,80.011,35.621,79.975,34.58,79.938z"/>
<path fill="#7F310F" d="M37.644,80.106c0.009-1.056,0.018-2.108,0.027-3.165c0,0,1.167-0.988,1.167-0.991c1.117,0.021,1.98,0.5,2.592,1.435c0.001,0,0.442,1.465,0.442,1.465l-1.083,1.08C39.743,79.987,38.693,80.049,37.644,80.106z"/>
<path fill="#7B2B0E" d="M40.79,79.929c0.012-0.971,0.026-1.941,0.04-2.915c0.67-0.143,1.341-0.283,2.013-0.43c1.228,0.863,1.637,1.992,1.107,3.424l-0.027,0.07C42.88,80.03,41.834,79.978,40.79,79.929z"/>
<path fill="#C4A611" d="M53.292,11.329c1.037,1.053,2.075,2.108,3.111,3.167c0.009,2.066,0.018,4.132,0.025,6.198c0.802,0.562,1.178,1.221,1.134,1.98c-0.046,0.812-0.174,1.214-0.383,1.221c-1.045,0.83-2.237,1.15-3.56,1.038c-1.22-0.507-2.19-1.318-2.953-2.387c-0.158-0.625-0.313-1.254-0.467-1.883c-0.043-1.074-0.087-2.148-0.131-3.226c0.018-2.039,0.036-4.074,0.055-6.113C51.18,11.326,52.236,11.326,53.292,11.329z"/>
<path fill="#836C0E" d="M46.827,11.537c-0.951,0.964-1.903,1.929-2.852,2.893C44.926,13.466,45.876,12.501,46.827,11.537z"/>
<path fill="#998410" d="M44.001,23.829c-0.02-1.043-0.041-2.087-0.061-3.128c2.086-0.012,4.174-0.024,6.261-0.037l-0.177,0.5c1.134,2.551-0.493,3.427-2.477,4.096C46.181,25.239,44.999,24.763,44.001,23.829z"/>
<path fill="#A89111" d="M44.001,23.829c1.052-0.006,2.102-0.009,3.151-0.015c0.729,1.081,0.763,2.179,0.103,3.305c-1.318,1.407-2.98,2.044-4.871,2.182c-1.236-0.055-2.409-0.366-3.52-0.913c-0.414-0.449-0.824-0.906-1.236-1.361c0.04-2.148,0.08-4.297,0.118-6.445c1.024,0.107,2.049,0.153,3.078,0.128C41.882,21.748,42.942,22.788,44.001,23.829z"/>
<path fill="#6C5A0B" d="M18.925,33.183c1.041,0.006,2.083,0.009,3.125,0.015c0.839,1.181,0.936,2.438,0.391,3.769c-1.346,0.726-2.507,0.464-3.512-0.647l-0.012,0.042C18.919,35.303,18.922,34.245,18.925,33.183z"/>
<path fill="#515010" d="M22.055,36.32c0.011-1.041,0.009-2.082-0.005-3.122c0.001-0.964-0.004-1.929-0.02-2.887c0.952-0.11,1.906-0.11,2.859,0.003c0.498,0.345,0.997,0.692,1.5,1.038c0.613,1.071,0.987,2.218,1.1,3.451c-0.057,1.236-0.378,2.402-0.949,3.5c-0.468,0.391-0.941,0.778-1.415,1.169l-1.535-0.043l-1.534,0.013c-0.918-0.692-1.224-1.385-0.92-2.081C21.441,36.668,21.746,36.32,22.055,36.32z"/>
<path fill="#654B0C" d="M22.055,36.32c0,1.041,0,2.084,0.001,3.122c-1.042,0-2.084,0.003-3.126,0.003c0-1.044,0-2.084,0-3.125C19.97,36.32,21.012,36.32,22.055,36.32z"/>
<path fill="#66490B" d="M28.358,42.503c-1.054,0.012-2.11,0.024-3.165,0.037c-0.021-1.022-0.044-2.044-0.067-3.067l0.058-0.088c1.036-1.032,2.176-1.215,3.437-0.421C29.356,40.202,29.31,41.386,28.358,42.503z"/>
<path fill="#977E11" d="M62.703,20.692c1.053,1.074,2.105,2.151,3.16,3.229l0.029-0.11c-0.909,1.004-2.032,1.624-3.374,1.861c-0.659-0.106-1.315-0.213-1.978-0.32c-0.564-0.366-1.123-0.732-1.688-1.099c-0.671-1.324-0.435-2.502,0.583-3.546l0.473-0.006C60.837,19.502,61.768,19.557,62.703,20.692z"/>
<path fill="#8A7311" d="M62.703,20.692c-0.934,0.003-1.867,0.006-2.797,0.009c0.892-0.998,1.779-1.993,2.667-2.984C62.644,18.708,62.689,19.7,62.703,20.692z"/>
<path fill="#56210A" d="M65.779,73.786c1.059,0.013,2.119,0.024,3.18,0.037c-0.006,1.043-0.013,2.084-0.019,3.128c-2.084,0.003-4.169,0.009-6.253,0.012c-0.258-0.527-0.518-1.053-0.779-1.58c0.265-0.525,0.535-1.047,0.806-1.572C63.734,73.816,64.756,73.807,65.779,73.786z"/>
<path fill="#521C0A" d="M62.685,80.085c-1.036-0.015-2.071,0-3.106,0.052c-1.044-0.018-2.089-0.039-3.133-0.061h-0.047c-0.022-5.259,2.672-5.118,6.28-3.162l0.008,0.049C62.682,78.004,62.681,79.045,62.685,80.085z"/>
<path fill="#7F310E" d="M25.097,70.698c1.07-0.04,2.138-0.083,3.208-0.125c1.051,1.107,2.103,2.218,3.154,3.329c-2.101-0.013-4.202-0.027-6.303-0.04C25.135,72.806,25.115,71.754,25.097,70.698z"/>
<path fill="#7A290E" d="M37.672,76.941c-1.032-0.009-2.06,0.034-3.085,0.132c-1.057-0.04-2.116-0.083-3.175-0.128c0.02-1.035,0-2.066-0.063-3.101c2.103,0.006,4.208,0.012,6.313,0.018c0.778,0.681,1.042,1.364,0.795,2.054c-0.247,0.696-0.499,1.044-0.755,1.044L37.672,76.941z"/>
<path fill="#2E1305" d="M75.178,73.82c0-1.041,0.001-2.085,0.001-3.125c1.042,0,2.083,0,3.125,0c0,1.043,0,2.084,0,3.125C77.262,73.82,76.22,73.82,75.178,73.82z"/>
<path fill="#D1AE0E" d="M34.545,23.756c-0.003,1.053-0.008,2.109-0.011,3.165c-0.697,0.128-1.393,0.259-2.09,0.387c-0.934-0.577-1.386-1.288-1.355-2.127c0.034-0.906,0.168-1.358,0.407-1.358l-0.078,0.04C32.427,22.856,33.468,22.77,34.545,23.756z"/>
<path fill="#A1830E" d="M34.545,23.756c-1.042,0.034-2.084,0.07-3.126,0.104c-0.003-1.056-0.006-2.112-0.009-3.167C32.455,21.711,33.5,22.734,34.545,23.756z"/>
<path fill="#907711" d="M34.535,26.921c1.031,0.042,2.063,0.079,3.094,0.106c-0.001,0-0.027-0.064-0.027-0.064c0.816,0.522,1.199,1.154,1.152,1.889c-0.051,0.791-0.182,1.184-0.394,1.184c-1.109,0.699-2.258,0.806-3.45,0.22c-0.664-0.662-0.933-1.364-0.803-2.103c0.133-0.76,0.297-1.139,0.493-1.139L34.535,26.921z"/>
<path fill="#AA9012" d="M34.6,27.015c-0.014,0.995,0.016,1.987,0.085,2.979c-0.394,0.473-0.789,0.946-1.181,1.422c-1.099,0.592-2.268,0.946-3.514,1.05c-1.953-0.073-3.513-0.934-4.75-2.42c0,0-0.348,0.262-0.35,0.265c0.125-1.107,0.25-2.218,0.378-3.326c0.923-0.995,1.848-1.99,2.768-2.981c1.15-0.061,2.304-0.122,3.459-0.18C32.531,24.888,33.566,25.95,34.6,27.015z"/>
<path fill="#D1AE0E" d="M59.437,20.707c0.084,0.985,0.068,1.968-0.044,2.951c-1.001,0.836-1.96,0.751-2.883-0.128c-0.044-0.946-0.071-1.892-0.081-2.835C57.432,20.683,58.434,20.686,59.437,20.707z"/>
<path fill="#7F6D0B" d="M40.806,58.217c0.959,0.076,1.913,0.18,2.865,0.317c2.275,2.225,3.209,5.022,3.48,8.114c-0.045,1.55-0.348,3.046-0.871,4.504c-1.155,2.164-2.696,3.711-5.415,3.342c-0.937-0.8-1.27-1.62-0.998-2.466c0.274-0.854,0.562-1.281,0.862-1.281C40.756,66.569,40.78,62.394,40.806,58.217z"/>
<path fill="#57460C" d="M40.729,70.747c0.054,0.994,0.092,1.989,0.115,2.987c0.886,0.711,1.169,1.404,0.85,2.081c-0.315,0.669-0.625,1.001-0.932,1.001c0,0,0.067,0.198,0.069,0.198c-1.044-0.018-2.087-0.036-3.131-0.058c-0.012-1.031-0.024-2.063-0.038-3.095c0.008-1.053,0.017-2.103,0.026-3.155C38.702,70.691,39.716,70.704,40.729,70.747z"/>
<path fill="#614E0D" d="M43.98,67.478c-0.103-2.984-0.203-5.966-0.307-8.944c2.165,0.928,4.33,1.855,6.497,2.779c0.35,0.528,0.698,1.057,1.051,1.587c-0.028,0.635-0.061,1.27-0.085,1.908c-0.296,0.564-0.6,1.126-0.893,1.696c-0.843,0.979-1.858,1.73-3.034,2.265C45.869,69.008,44.79,68.574,43.98,67.478z"/>
<path fill="#2E1305" d="M56.39,54.987c0.015,1.057,0.028,2.109,0.044,3.165c-0.148,1.27-0.626,2.39-1.478,3.348c-0.523,0.342-1.053,0.675-1.579,1.014c-1.295,0.311-2.394-0.053-3.315-0.998l0.108-0.202c0.011-2.068,0.02-4.141,0.03-6.21c0.434-0.431,0.867-0.86,1.3-1.291C53.382,53.153,55.048,53.394,56.39,54.987z"/>
<path fill="#78280E" d="M50.201,55.103c-2.087-1.059-4.173-2.118-6.261-3.177l-0.037-0.052c0.89-1.035,2.013-1.633,3.368-1.801c1.351,0.128,2.534,0.65,3.578,1.505c0.679,1.297,0.442,2.441-0.578,3.454L50.201,55.103z"/>
<path fill="#604E0D" d="M37.577,45.744c-2.026-0.013-4.053-0.024-6.078-0.037c-0.075-1.041-0.148-2.084-0.223-3.125c0.197-0.663,0.396-1.325,0.591-1.99c0.863-1.135,1.976-1.923,3.305-2.429c0.704-0.006,1.404,0,2.109-0.006c0.651,0.275,1.295,0.559,1.95,0.833c1.127,0.888,2.006,1.981,2.65,3.266c0.271,1.438,0.055,2.801-0.638,4.092C39.857,47.147,38.642,46.894,37.577,45.744z"/>
<path fill="#524208" d="M28.358,42.503c-0.032-1.022-0.053-2.044-0.065-3.067c-1.973-1.709-1.497-3.818-0.963-5.939c1.137-1.068,2.423-1.294,3.857-0.671c1.115,0.977,1.822,2.197,2.18,3.629c-0.132,2.179-0.396,4.318-1.898,6.067c0,0-0.189,0.061-0.191,0.061C30.303,42.567,29.33,42.542,28.358,42.503z"/>
<path fill="#61480C" d="M37.577,45.744c1.109-0.031,2.219-0.062,3.327-0.092c1.227-1.062,2.643-1.477,4.248-1.245c3.297,1.791,4.427,4.145,1.927,7.438c-1.057,0.012-2.116,0.021-3.173,0.03c-2.068-1.031-4.134-2.061-6.198-3.092C37.673,47.77,37.631,46.757,37.577,45.744z"/>
<path fill="#51440C" d="M59.564,64.445c0.001,2.063,0.004,4.129,0.006,6.194c-0.675,0.83-1.505,1.443-2.487,1.862c-0.755,0.796-1.373,1.66-1.839,2.67c-0.955,1.633-2.342,2.582-4.219,2.819c-1.256-0.381-2.175-1.144-2.793-2.295c-1.036-2.532-0.834-5.028,0.176-7.507c0.271-1.278,0.775-2.463,1.508-3.546l0.396-0.257c0.879-1.126,1.884-2.124,3.017-2.996l0.035-0.01c3.625-2.148,4.406,1.446,6.17,3.055L59.564,64.445z"/>
<path fill="#413607" d="M56.466,70.719c1.034-0.019,2.068-0.046,3.104-0.08c1.048,1.057,2.095,2.115,3.142,3.171c-0.02,1.035-0.03,2.069-0.032,3.104c-2.094,1.053-4.187,2.109-6.28,3.162c-2.07,0.019-4.143,0.033-6.214,0.052c0,0.003-0.069-0.098-0.069-0.098c-0.739-0.738-0.946-1.432-0.624-2.078c0.31-0.626,0.603-0.94,0.879-0.94c0.978-1.059,1.957-2.114,2.936-3.174C54.406,72.846,54.63,70.967,56.466,70.719z"/>
<path fill="#3D3209" d="M50.271,55.033c-0.049-1.064-0.1-2.13-0.148-3.195c-2.154-2.414-1.664-5.206-1.146-8.001c0.893-1.178,2.087-1.843,3.542-2.072c3.031,1.089,4.244,3.595,5.025,6.438c0.143,1.45-0.201,2.771-1.1,3.935c-0.006,0.952-0.024,1.9-0.055,2.85C54.351,55.003,52.311,55.018,50.271,55.033z"/>
<path fill="#483C08" d="M59.533,64.435c-2.057-1.019-4.113-2.038-6.17-3.055c1.023-1.077,2.047-2.151,3.069-3.229c1.028,0.067,2.054,0.064,3.081-0.009C59.519,60.239,59.527,62.339,59.533,64.435z"/>
<path fill="#57210A" d="M56.445,52.137c-0.003-1.12-0.008-2.237-0.013-3.357c0,0,0.981-1.15,0.979-1.153c0.919-0.537,1.9-0.705,2.947-0.519c0-0.007,1.419,0.546,1.42,0.543c0.002-0.006,0.931,1.199,0.931,1.199C60.622,49.946,58.534,51.042,56.445,52.137z"/>
<path fill="#57220A" d="M65.804,45.735c-0.001,1,0.008,1.999,0.026,2.997c-1.039,0.082-2.08,0.122-3.121,0.119l-0.044-0.046c-0.776-0.687-1.097-1.432-0.961-2.228c0.139-0.827,0.32-1.239,0.541-1.242C63.528,44.614,64.719,44.703,65.804,45.735z"/>
<path fill="#3D3107" d="M65.804,45.735l-1.552-0.015l-1.554,0.018c-0.799-1.16-0.889-2.374-0.27-3.644c1.254-0.8,2.376-0.641,3.363,0.47c1.054,0.006,2.108,0.012,3.163,0.021c-0.019,1.035-0.029,2.069-0.034,3.104C67.882,45.692,66.843,45.707,65.804,45.735z"/>
<path fill="#A69313" d="M69.238,33.607c-1.195,1.056-2.39,2.115-3.586,3.171c-0.38-0.375-0.762-0.748-1.146-1.12c-0.427-1.004-0.57-2.047-0.481-3.131c0.193-0.5,0.394-0.998,0.59-1.499c0.42-0.33,0.844-0.659,1.267-0.989c1.042,0.019,2.083,0.04,3.125,0.061C69.083,31.269,69.161,32.438,69.238,33.607z"/>
<path fill="#BF9F0E" d="M62.658,23.82c1.077-0.003,2.155-0.006,3.235-0.009c0.009,1.05,0.017,2.097,0.025,3.146c0.003,0-0.269-0.077-0.269-0.077c-1.031,1.102-2.179,1.239-3.445,0.418C61.422,26.02,61.573,24.858,62.658,23.82z"/>
<path fill="#B5930E" d="M62.89,26.89c0.922,0.031,1.843,0.027,2.763-0.006c0.073,1.05,0.15,2.103,0.227,3.155c0.001,0-0.078,0.031-0.078,0.031c-0.523,0.415-1.045,0.83-1.568,1.248c-0.609-0.271-1.218-0.546-1.827-0.821C61.827,29.197,61.952,27.989,62.89,26.89z"/>
<path fill="#493D06" d="M65.792,42.564c-1.035,0.006-2.069,0.015-3.104,0.019c-0.878,1.12-1.938,1.336-3.184,0.647c-0.692-1.16-0.771-2.356-0.238-3.595c0.887-0.967,1.974-1.584,3.258-1.849c1.328,0.094,2.42,0.653,3.274,1.672C65.801,40.491,65.798,41.526,65.792,42.564z"/>
<path fill="#392D09" d="M65.799,39.457c-1.21-0.046-2.42-0.095-3.631-0.141c-0.615-1.251-0.536-2.454,0.237-3.613c1.198-0.723,2.389-0.748,3.568,0.043c0,0-0.321,1.028-0.322,1.031C65.746,37.669,65.795,38.563,65.799,39.457z"/>
<path fill="#5F4E0A" d="M50.37,77.011c-0.124,1.004-0.21,2.012-0.255,3.019c-2.056-0.006-4.111-0.013-6.165-0.021c-1.063-1.062-2.125-2.124-3.189-3.189c0.026-1.028,0.053-2.057,0.083-3.085c1.039-0.985,2.077-1.975,3.116-2.96c6.29-2.262,3.335,4.751,6.075,6.055L50.37,77.011z"/>
<path fill="#977E11" d="M62.703,36.399c-0.168,0.974-0.343,1.947-0.532,2.917c-0.94,0.04-1.854,0.208-2.745,0.5c-0.462-0.271-0.925-0.54-1.399-0.799c-0.822-0.708-1.588-1.471-2.336-2.268c-0.836-0.748-1.604-1.55-2.37-2.371c-1.191-1.337-1.983-2.866-2.371-4.611c-0.158-1.208-0.088-2.399,0.179-3.583c0.512-1.123,1.283-2.017,2.346-2.649c1.012,0.058,2.023,0.058,3.034-0.006c0.954,0.226,1.917,0.269,2.886,0.131c-0.001-0.003,0.41,0.399,0.41,0.399c1.8,1.56,0.905,4.321,2.637,5.908l0.248,0.101c0.95,0.845,1.436,1.901,1.457,3.174C64.16,34.522,63.68,35.572,62.703,36.399z"/>
<path fill="#887210" d="M53.474,23.536c-0.059,1.142-0.115,2.286-0.173,3.427c-1.313,1.63-2.974,1.883-4.866,1.233c-0.432-0.433-0.863-0.867-1.295-1.3c-0.032-1.025-0.029-2.054,0.012-3.083c0.96-0.885,1.918-1.77,2.875-2.652C51.174,21.955,52.324,22.746,53.474,23.536z"/>
<path fill="#BBA40E" d="M37.624,30.033c0.026-1.022,0.02-2.048-0.021-3.07c1.07-0.006,2.141-0.012,3.21-0.018c1.038,0.879,1.529,2.011,1.554,3.357c-0.339,1.297-1.064,2.319-2.17,3.073C37.977,33.314,36.483,32.688,37.624,30.033z"/>
<path fill="#9D8A10" d="M40.873,30.054c-0.03-1.038-0.05-2.075-0.06-3.109c2.109-0.016,4.216-0.031,6.325-0.049c0.002,0-0.084,0.037-0.084,0.037c0.432,0.5,0.862,1.004,1.294,1.507c-0.253,1.364-0.981,2.39-2.185,3.083C44.111,32.078,42.269,31.864,40.873,30.054z"/>
<path fill="#B6940F" d="M31.121,33.769c-0.863-0.314-1.754-0.434-2.67-0.354c-1.245,1.407-2.274,1.263-3.087-0.431c-0.116-0.977-0.157-1.956-0.124-2.938c2.098,0.033,4.196,0.064,6.294,0.098c0.316,0.647,0.632,1.297,0.946,1.944C32.028,32.649,31.575,33.207,31.121,33.769z"/>
<path fill="#7A680B" d="M25.364,32.984c1.03,0.119,2.058,0.263,3.085,0.427c-0.052,2.011-0.104,4.02-0.157,6.024l-1.555,0.003c0,0-1.553-0.052-1.553-0.055C25.244,37.251,25.305,35.117,25.364,32.984z"/>
<path fill="#836C0E" d="M62.441,29.969c-0.88-1.971-1.762-3.943-2.64-5.911c0.948-0.144,1.9-0.223,2.856-0.238c-0.009,1.031,0.067,2.054,0.23,3.07C62.752,27.918,62.605,28.947,62.441,29.969z"/>
<path fill="#A68A10" d="M37.624,30.033c1.058,1.053,2.116,2.103,3.174,3.155c0.417,0.378,0.832,0.757,1.251,1.135c0.441,1.059,0.623,2.158,0.516,3.302c-0.202,0.528-0.409,1.056-0.612,1.587c-0.415,0.384-0.833,0.766-1.251,1.15c-1.198,0.159-2.17-0.238-2.916-1.19l0.11,0.089c-1.004-0.736-2.13-1.147-3.364-1.276c-1.299-0.073-2.271-0.674-2.917-1.8c-0.192-0.8-0.357-1.608-0.491-2.417c-0.002,0,0.486-1.053,0.486-1.053c0.896-0.802,1.775-1.624,2.635-2.462l0.439-0.26C35.665,30.054,36.645,30.07,37.624,30.033z"/>
<path fill="#CEAC0F" d="M34.244,30.253c-0.879,0.824-1.759,1.648-2.637,2.466c-0.099-0.858-0.125-1.718-0.073-2.576C32.441,30.122,33.345,30.158,34.244,30.253z"/>
<path fill="#7A680C" d="M50.035,76.829c-2.025-2.021-4.05-4.038-6.075-6.058c0.006-1.096,0.012-2.194,0.019-3.293c1.021,0.061,2.043,0.089,3.065,0.089c0.949-1.133,1.924-1.099,2.918-0.062C49.987,70.612,50.01,73.722,50.035,76.829z"/>
<path fill="#86710B" d="M49.962,67.506c-0.972,0.037-1.945,0.058-2.918,0.062c0.958-0.977,1.917-1.953,2.873-2.927C50.076,65.595,50.092,66.551,49.962,67.506z"/>
<path fill="#483C08" d="M53.327,61.39c-1.008,0.997-2.013,1.998-3.019,2.996c-0.108-0.955-0.19-1.913-0.247-2.871C51.15,61.475,52.24,61.432,53.327,61.39z"/>
<path fill="#62510A" d="M50.078,43.26c0.016,2.859,0.03,5.719,0.044,8.578L48.6,51.887c0,0-1.521-0.039-1.521-0.042c-1.063-2.058-2.128-4.114-3.192-6.168c-0.786-0.677-1.138-1.431-1.059-2.258c0.085-0.864,0.233-1.297,0.443-1.297c1.792-1.297,3.706-1.465,5.723-0.577C49.354,42.115,49.717,42.686,50.078,43.26z"/>
<path fill="#7F6B0F" d="M31.614,36.186c1.053,0.134,2.104,0.265,3.155,0.399c0.713,0.675,0.925,1.322,0.64,1.938c-0.279,0.601-0.548,0.903-0.804,0.903c-1.045,1.032-2.092,2.063-3.136,3.098C31.518,40.409,31.565,38.298,31.614,36.186z"/>
<path fill="#7D690A" d="M43.934,42.268c-0.015,1.135-0.032,2.271-0.047,3.409l-1.492,0.012c0,0-1.492-0.037-1.491-0.037c-0.052-1.041-0.104-2.081-0.157-3.122c-0.786-0.687-1.041-1.361-0.762-2.026c0.276-0.659,0.549-0.989,0.818-0.989l0.07-0.97C43.311,38.621,44.585,39.653,43.934,42.268z"/>
<path fill="#514C11" d="M40.803,39.515c0.026,1.007,0.008,2.011-0.055,3.015c-0.987-1.117-1.975-2.237-2.962-3.357C38.811,39.121,39.817,39.234,40.803,39.515z"/>
<path fill="#524D0F" d="M34.605,39.426c-0.069-0.955-0.014-1.904,0.163-2.844c1.044,0.894,2.084,1.789,3.126,2.68C36.799,39.317,35.702,39.372,34.605,39.426z"/>
<path fill="#5C4F08" d="M56.466,70.719c-1.053,1.04-2.107,2.078-3.16,3.118c0.21-1.327,0.421-2.654,0.651-4.102C54.936,70.118,55.7,70.42,56.466,70.719z"/>
<path fill="#B49311" d="M53.181,42.945c-1.033,0.104-2.068,0.208-3.101,0.314c-0.002,0,0.286-1.358,0.286-1.358c-0.719-0.659-0.999-1.358-0.844-2.094c0.16-0.753,0.349-1.132,0.564-1.135c1.117-0.671,2.324-0.992,3.626-0.967c1.275,0.314,2.338,0.974,3.192,1.972c0.183,0.613,0.364,1.229,0.548,1.846c-0.282,0.577-0.566,1.153-0.849,1.73C55.39,43.97,54.252,43.83,53.181,42.945z"/>
<path fill="#61480C" d="M53.181,42.945c0.956-0.33,1.936-0.562,2.94-0.689c1.135,0.778,1.832,1.843,2.093,3.192c-0.192,1.352-0.776,2.491-1.82,3.384l0.038-0.049C55.349,46.836,54.266,44.892,53.181,42.945z"/>
<path fill="#403709" d="M56.429,45.698c-0.102-1.145-0.203-2.292-0.307-3.442c-0.001,0,0.205,0.259,0.205,0.259c1.1-1.41,2.177-1.462,3.229,0.055c1.043,0.003,2.087,0.009,3.133,0.012c0.003,1.053,0.007,2.103,0.01,3.155c-0.015,1.022-0.025,2.044-0.033,3.067c-1.042-0.016-2.086-0.03-3.13-0.046C58.439,47.801,57.403,46.781,56.429,45.698z"/>
<path fill="#3B3007" d="M56.429,45.698c1.036,1.022,2.072,2.041,3.108,3.061c-1.048,0.024-2.095,0.049-3.144,0.073C56.407,47.788,56.418,46.745,56.429,45.698z"/>
<path fill="#B29111" d="M62.703,36.399c-0.006-1.068-0.014-2.139-0.02-3.208c1.039-1.178,2.08-1.12,3.119,0c0.021,0.854,0.077,1.706,0.171,2.555C64.884,35.963,63.793,36.182,62.703,36.399z"/>
<path fill="#CAA90F" d="M65.803,33.192c-1.041,0.003-2.083,0.003-3.122,0c0-1.041-0.002-2.081,0.003-3.122c1.044,0,2.081,0,3.119,0C65.804,31.111,65.804,32.151,65.803,33.192z"/>
<path fill="#3A370A" d="M59.556,42.57c-1.076-0.019-2.151-0.037-3.228-0.055c0.064-0.974,0.2-1.938,0.407-2.89c0.401-0.452,0.803-0.906,1.203-1.361c0.57,0.201,1.141,0.403,1.712,0.607c0,0-0.222,0.937-0.224,0.943C59.518,40.733,59.562,41.651,59.556,42.57z"/>
<path fill="#957A10" d="M56.736,39.625c-1.103-0.07-2.206-0.14-3.311-0.21c-1.332-1.282-2.967-1.471-4.711-1.288c-1.151-0.302-2.104-0.913-2.876-1.819c-0.517-1.071-0.732-2.204-0.699-3.388c0.342-1.147,1.007-2.075,1.948-2.808l-0.035-0.037c2.082-1.892,4.166-1.886,6.251-0.006c1.041,1.041,2.081,2.081,3.122,3.125c0.838,0.909,1.303,1.99,1.443,3.216c-0.067,1.239-0.511,2.326-1.329,3.256L56.736,39.625z"/>
<path fill="#B99B0E" d="M53.304,30.07c-2.084,0-4.167,0.003-6.251,0.006c0.001-1.047,0.001-2.093,0.001-3.143c2.083,0.009,4.166,0.018,6.247,0.03C53.31,27.998,53.31,29.035,53.304,30.07z"/>
<path fill="#B39A12" d="M56.455,36.308c-0.014-1.038-0.024-2.075-0.029-3.113c1.015,1.031,2.029,2.066,3.046,3.097C58.472,37.458,57.467,37.464,56.455,36.308z"/>
<path fill="#AE8E11" d="M56.455,36.308c1.007,0.012,2.013,0.006,3.018-0.016c0.016,0.867,0.073,1.73,0.176,2.585c-1.036,0.256-2.073,0.522-3.109,0.788C56.512,38.548,56.484,37.427,56.455,36.308z"/>
<path fill="#A68A10" d="M47.088,30.113c-0.011,1.025-0.023,2.054-0.034,3.083c-0.822,0.977-1.852,1.578-3.125,1.749c-1.262-0.189-2.306-0.772-3.128-1.752l-0.003-0.003c0.024-1.043,0.049-2.09,0.073-3.134C42.945,30.073,45.016,30.091,47.088,30.113z"/>
<path fill="#B4920F" d="M47.053,36.317c1.059,0.049,2.117,0.101,3.175,0.153c0.802,0.668,1.061,1.328,0.783,1.983c-0.276,0.65-0.55,0.974-0.822,0.974c0.007,0.83,0.066,1.657,0.178,2.478c-2.144,0.119-4.289,0.244-6.433,0.366c-1.021-1.239-2.042-2.475-3.061-3.717c0.067-0.791,0.124-1.575,0.169-2.359c0.801-0.924,1.802-1.395,3.035-1.346C45.303,34.861,46.296,35.352,47.053,36.317z"/>
<path fill="#BE9B0F" d="M43.932,36.32c-0.967-0.006-1.932-0.049-2.893-0.125c-0.113-0.998-0.194-1.999-0.238-3.003c1.045,0.003,2.089,0.003,3.134,0.003c0.829,0.696,1.105,1.388,0.829,2.084C44.486,35.972,44.21,36.32,43.932,36.32z"/>
<path fill="#BA9C0F" d="M50.189,39.426c-0.007-0.986,0.006-1.975,0.039-2.96c1.065,0.982,2.13,1.965,3.195,2.948C52.346,39.417,51.267,39.424,50.189,39.426z"/>
<path fill="#836C0E" d="M43.932,36.32c-0.003-1.041-0.005-2.084,0-3.125c1.042,0,2.083,0,3.122,0c0,1.041,0,2.084-0.001,3.122l-1.561,0.003H43.932z"/>
</svg>