<?xml version="1.0" encoding="utf-8"?>
<!DOCTYPE svg PUBLIC "-//W3C//DTD SVG 1.1//EN" "http://www.w3.org/Graphics/SVG/1.1/DTD/svg11.dtd">
<svg version="1.1" xmlns="http://www.w3.org/2000/svg" xmlns:xlink="http://www.w3.org/1999/xlink" x="0px" y="0px" width="100px" height="100px" viewBox="0 0 100 100" enable-background="new 0 0 100 100" xml:space="preserve">
<path fill="#E4E5E5" d="M75.21,64.478c2.117,1.15,4.235,2.298,6.354,3.449c0.688,0.47,1.18,1.095,1.476,1.858c0.003-0.013-0.669,0.921-0.669,0.921s1.114,0.293,1.117,0.284c0.002-0.006,1.128-0.257,1.128-0.257c2.178,0.81,4.354,1.615,6.532,2.421c-0.011,2.279-2.203,2.713-3.386,4.004l0.245-0.227c-0.888,0.715-1.888,1.203-2.985,1.496c-1.125,0.104-2.248,0.213-3.373,0.338c-1.156-0.039-2.225-0.356-3.201-0.985c-0.871-0.741-1.619-1.596-2.255-2.548c-0.946-1.429-1.764-2.93-2.409-4.526c-0.339-1.107-0.447-2.239-0.36-3.396c0.182-0.54,0.372-1.083,0.559-1.626C74.387,65.281,74.799,64.882,75.21,64.478z"/>
<path fill="#F6F6F6" d="M22.135,64.558c1.002-0.034,2.003-0.04,3.006-0.019c0,0,1.358,0.519,1.366,0.503c0.81,0.541,1.585,1.133,2.364,1.73c0.896,0.474,1.77,0.955,2.693,1.392c1.529,0.647,2.89,1.502,3.981,2.78c0.615,1.025,0.969,2.118,1.099,3.305c-0.049,1.236-0.346,2.396-0.868,3.513c-1.062,1.614-2.461,2.814-4.265,3.531c-1.29,0.204-2.531,0.043-3.74-0.455c-1.056-0.747-1.999-1.62-2.879-2.566c-1.77-1.919-3.557-3.833-4.515-6.335c-0.32-1.301-0.343-2.606-0.044-3.912C20.66,66.727,21.264,65.574,22.135,64.558z"/>
<path fill="#EBEBEB" d="M40.786,55.357c0.934-0.138,1.871-0.251,2.812-0.342c0,0,1.45,0.066,1.451,0.063c0.981,0.062,1.952-0.006,2.917-0.21c0.947-0.317,1.891-0.629,2.837-0.949c1.048-0.303,2.026-0.159,2.944,0.421c1.279,0.895,1.47,2.701,2.911,3.458l-0.094,0.635c1.031,1.511,0.883,2.893-0.441,4.159c-2.768,1.938-5.887,2.368-9.163,2.164c-2.457-0.26-4.695-1.057-6.572-2.72C39.031,59.727,39.28,57.506,40.786,55.357z"/>
<path fill="#DBDCDC" d="M25.141,64.54c2.999-1.104,5.997-2.21,8.995-3.314c1.152-0.814,2.396-1.044,3.749-0.595c0.319,0.595,0.636,1.193,0.954,1.791c-0.293,1.373-0.993,2.499-2.042,3.424c-1.199,0.702-2.487,1.157-3.854,1.392c-2.89,0.184-5.476-0.412-7.312-2.893L25.141,64.54z"/>
<path fill="#D8D9D9" d="M50.378,55.131c-1.119,0.971-2.239,1.941-3.357,2.915c-0.863-0.873-1.674-1.792-2.431-2.759c0,0-0.987-0.269-0.99-0.269c2.191-0.913,4.386-1.825,6.58-2.737c1.208,0.552,1.639,1.156,1.297,1.818C51.122,54.786,50.758,55.131,50.378,55.131z"/>
<path fill="#DDDEDE" d="M56.513,61.307c0.046-0.958,0.064-1.919,0.053-2.877c0.851-0.251,1.721-0.354,2.608-0.306c1.274-1.017,2.52-0.934,3.742,0.098c0.938,0.07,1.88,0.113,2.821,0.125c1.777,2.402,0.119,3.602-1.665,4.764c-1.346,0.439-2.724,0.564-4.129,0.431C58.558,63.173,57.426,62.406,56.513,61.307z"/>
<path fill="#F4F4F4" d="M62.787,61.433c0.984-1.029,1.971-2.058,2.953-3.086c1.112,1.014,2.228,2.026,3.343,3.04c0.434,0.516,0.868,1.031,1.302,1.55c-0.302,1.389-1.109,2.393-2.349,3.067c-2.081,0.573-4.011,0.302-5.744-1.041C61.533,63.658,61.744,62.486,62.787,61.433z"/>
<path fill="#E7E7E7" d="M50.378,55.131c-0.042-0.955-0.107-1.904-0.197-2.853c2.137,0.958,4.272,1.913,6.41,2.868c-1.023,1.059-2.048,1.114-3.068-0.006C52.475,55.137,51.426,55.135,50.378,55.131z"/>
<path fill="#DADADA" d="M40.786,55.357c0.012,1.959,0.023,3.918,0.035,5.877c-0.891,1.025-1.859,1.103-2.899,0.229l-0.241-0.287c-0.703-0.705-0.918-1.392-0.647-2.054c0.269-0.653,0.526-0.979,0.775-0.979C38.801,57.213,39.794,56.285,40.786,55.357z"/>
<path fill="#B4B5B5" d="M50.584,95.292c-2.134-0.934-4.265-1.864-6.398-2.798c0.377-0.379,0.752-0.76,1.128-1.145c1.011-0.412,2.061-0.571,3.15-0.485c1.066,0.277,1.984,0.809,2.734,1.62C51.661,93.565,51.49,94.511,50.584,95.292z"/>
<path fill="#E0E0E1" d="M6.855,74.177c1.987-1.153,3.975-2.304,5.962-3.457c0.333,0.415,0.665,0.83,1,1.248c0.079,1.099-0.209,2.084-0.92,2.936c-1.012,0.376-2.06,0.507-3.136,0.437C8.682,75.23,7.708,74.854,6.855,74.177z"/>
<path fill="#D7D7D8" d="M69.08,64.546c0.002-1.053,0.002-2.105,0.003-3.158c2.043,1.031,4.085,2.06,6.127,3.091l0.134-0.137C73.32,66.358,71.223,66.148,69.08,64.546z"/>
<path fill="#8B8B8B" d="M87.762,77.159c1.129-1.337,2.258-2.671,3.386-4.004c0.629,0.729,1.256,1.461,2.613,3.042C91.344,76.585,89.553,76.872,87.762,77.159z"/>
<path fill="#E0E0E1" d="M12.817,70.719c2.089-1.004,4.178-2.008,6.265-3.012c0.407,0.405,0.815,0.812,1.224,1.217c-0.091,0.568-0.186,1.136-0.278,1.706c-0.386,0.431-0.772,0.861-1.156,1.294c-1.058,0.507-2.178,0.724-3.346,0.702c-1.135-0.326-2.048-0.974-2.738-1.938L12.817,70.719z"/>
<path fill="#FFFFFF" d="M53.522,55.14c1.022-0.019,2.046-0.016,3.068,0.006c-0.006,0.888,0.016,1.773,0.068,2.655C55.614,56.913,54.569,56.025,53.522,55.14z"/>
<path fill="#D1D2D2" d="M62.916,58.222c-1.245-0.03-2.49-0.064-3.738-0.098c0.587-0.681,1.178-1.364,1.813-2.1C61.75,56.892,62.333,57.557,62.916,58.222z"/>
<path fill="#D1D2D2" d="M37.809,58.143c-0.006,1.013-0.047,2.026-0.127,3.036c-1.181,0.013-2.359,0.03-3.542,0.046C35.36,60.197,36.583,59.169,37.809,58.143z"/>
<path fill="#E9E9E9" d="M22.135,64.558c0.058,1.019,0.081,2.038,0.07,3.058c-1.044,1.483-2.086,1.41-3.128-0.003c0,0,0.006,0.095,0.004,0.095C20.1,66.658,21.118,65.608,22.135,64.558z"/>
<path fill="#D4D4D5" d="M81.558,70.503c0.056-0.86,0.06-1.721,0.006-2.579c1.018,0.94,2.035,1.877,3.052,2.811l0.113-0.134C83.64,71.564,82.581,71.583,81.558,70.503z"/>
<path fill="#8B8B8B" d="M82.025,77.094c0.935-0.037,1.849,0.079,2.744,0.345c-0.005,0.721-0.008,1.443-0.013,2.167c-1.072,0.116-2.146,0.234-3.218,0.354c-0.33-0.549-0.658-1.096-0.989-1.642C81.04,77.909,81.533,77.501,82.025,77.094z"/>
<path fill="#7E7D7D" d="M84.757,79.606c-0.039-0.727-0.035-1.453,0.013-2.173c1.078-0.162,2.157-0.333,3.236-0.501C86.924,77.824,85.841,78.715,84.757,79.606z"/>
<path fill="#A6A7A7" d="M22.109,82.74c-0.954-0.912-1.906-1.828-2.859-2.74c0.523-0.263,1.045-0.525,1.568-0.787c0.56,0.174,1.119,0.348,1.679,0.521c0.232,0.537,0.46,1.077,0.692,1.617C22.83,81.812,22.469,82.276,22.109,82.74z"/>
<path fill="#B5B6B6" d="M22.109,82.74c0.012-0.684-0.031-1.361-0.126-2.038c0.911-1.185,2.101-1.548,3.535-1.199c0.319,0.61,0.636,1.224,0.954,1.837c-0.348,0.592-0.699,1.187-1.048,1.782C24.319,82.994,23.214,82.865,22.109,82.74z"/>
<path fill="#A2A2A3" d="M9.667,74.241c0.973-0.189,1.95-0.204,2.93-0.043c0.323,0.412,0.647,0.824,0.97,1.239c-0.224,0.473-0.45,0.946-0.676,1.422c-1.073-0.128-2.144-0.253-3.215-0.378l-1.048-1.117L9.667,74.241z"/>
<path fill="#9C9C9D" d="M9.667,74.241c0.024,0.748,0.026,1.495,0.009,2.24c-0.942-0.77-1.883-1.538-2.823-2.308C7.8,73.875,8.738,73.899,9.667,74.241z"/>
<path fill="#808080" d="M78.42,82.719c-1.075,0.132-2.153,0.26-3.229,0.391c-0.078-0.687-0.155-1.373-0.233-2.06c0.866-1.178,2.016-1.764,3.492-1.663c0.415,0.559,0.827,1.117,1.241,1.679C79.269,81.614,78.845,82.167,78.42,82.719z"/>
<path fill="#878788" d="M78.42,82.719c-0.019-0.747-0.058-1.492-0.119-2.236c1.024-1.575,2.158-1.587,3.391-0.241c0,0-0.155-0.281-0.154-0.281C80.498,80.879,79.459,81.798,78.42,82.719z"/>
<path fill="#B9BABA" d="M28.55,85.895c-1.042-0.924-2.085-1.849-3.128-2.773c0.001,0-0.174,0.161-0.174,0.161c0.816-1.257,1.907-1.501,3.232-0.882C29.347,83.549,29.371,84.712,28.55,85.895z"/>
<path fill="#AAAAAB" d="M28.55,85.895c-0.052-0.774-0.044-1.55,0.021-2.325c1.32-0.925,2.436-0.674,3.372,0.589c-0.102,0.69-0.208,1.38-0.311,2.072C30.605,86.119,29.577,86.009,28.55,85.895z"/>
<path fill="#B5B6B6" d="M16.068,79.618c-1.061-0.921-2.12-1.84-3.178-2.759c0.001,0-0.199,0.189-0.199,0.189c0.678-0.375,1.357-0.748,2.036-1.12c0.612,0.474,1.224,0.946,1.837,1.419C16.398,78.104,16.233,78.861,16.068,79.618z"/>
<path fill="#A1A1A2" d="M16.068,79.618c-0.05-0.656-0.105-1.309-0.165-1.962c0.928-1.218,2.104-1.547,3.532-0.995c0.857,1.307,0.705,2.481-0.455,3.525c0,0,0.265-0.187,0.267-0.187C18.189,79.875,17.129,79.747,16.068,79.618z"/>
<path fill="#8F8F8F" d="M72.251,85.85c-1.083,0.125-2.165,0.253-3.249,0.378c-0.166-0.57-0.332-1.142-0.497-1.715c0.534-1.133,1.421-1.844,2.615-2.194c0.583,0.152,1.163,0.309,1.747,0.464c0.197,0.57,0.391,1.142,0.586,1.712C73.055,84.947,72.652,85.398,72.251,85.85z"/>
<path fill="#838383" d="M72.251,85.85c-0.017-0.632-0.068-1.258-0.157-1.88c0.89-1.392,1.991-1.664,3.34-0.635c0,0-0.239-0.227-0.241-0.227C74.212,84.022,73.23,84.937,72.251,85.85z"/>
<path fill="#B9BABA" d="M34.768,89.017c-1.047-0.928-2.092-1.855-3.137-2.786c0.001,0-0.171,0.144-0.171,0.144c0.9-1.068,1.982-1.3,3.242-0.699C35.528,86.774,35.587,87.888,34.768,89.017z"/>
<path fill="#AFB0B1" d="M34.768,89.017c-0.032-0.766-0.028-1.535,0.015-2.301c0.879-0.821,1.83-0.915,2.855-0.284c0.267,0.477,0.532,0.952,0.799,1.432c-0.186,0.513-0.375,1.025-0.563,1.538C36.838,89.274,35.804,89.146,34.768,89.017z"/>
<path fill="#808080" d="M65.901,88.971c-1.07,0.138-2.144,0.272-3.215,0.406c-0.248-0.592-0.499-1.181-0.749-1.773c0.372-1.336,1.239-2.127,2.607-2.377c0.628,0.174,1.25,0.351,1.877,0.525c0.271,0.595,0.536,1.187,0.803,1.782C66.785,88.016,66.345,88.496,65.901,88.971z"/>
<path fill="#8C8C8C" d="M65.901,88.971c0.021-0.72-0.02-1.44-0.12-2.157c1.027-1.245,2.165-1.354,3.412-0.329c0,0-0.192-0.254-0.192-0.257C67.97,87.144,66.935,88.059,65.901,88.971z"/>
<path fill="#B8B9BA" d="M41.09,92.125c-1.071-0.907-2.144-1.813-3.215-2.723l-0.136,0.104c0.896-1.083,1.987-1.275,3.243-0.705c0.63,0.718,0.856,1.45,0.677,2.194C41.48,91.749,41.291,92.125,41.09,92.125z"/>
<path fill="#A2A2A3" d="M41.09,92.125c-0.047-0.761-0.034-1.521,0.041-2.277c1.053-0.979,2.212-1.178,3.497-0.473c0.754,1.31,0.476,2.401-0.694,3.308c0,0,0.249-0.188,0.25-0.188C43.154,92.372,42.123,92.247,41.09,92.125z"/>
<path fill="#8B8B8B" d="M59.725,92.094c-1.066,0.132-2.134,0.26-3.202,0.391c-0.295-0.47-0.591-0.939-0.889-1.409c0.088-1.176,0.617-2.069,1.664-2.641c1.154-0.195,2.201,0.073,3.159,0.732C60.901,90.318,60.691,91.301,59.725,92.094z"/>
<path fill="#868686" d="M59.725,92.094c-0.007-0.705-0.004-1.409,0.01-2.114c0.922-1.355,1.986-1.548,3.218-0.4c0,0-0.263-0.201-0.264-0.201C61.699,90.284,60.712,91.187,59.725,92.094z"/>
<path fill="#797979" d="M50.584,95.292c-0.126-0.754-0.129-1.507-0.01-2.258c0.806-0.849,1.743-1.08,2.832-0.602c0.572,0.613,0.768,1.23,0.586,1.85c-0.182,0.626-0.366,0.937-0.556,0.937l-1.417,0.388L50.584,95.292z"/>
<path fill="#7E7D7D" d="M53.436,95.219c0.023-0.711,0.08-1.416,0.173-2.121c0.461-0.516,0.922-1.034,1.384-1.556c0.561,0.405,1.122,0.814,1.684,1.227c0,0-0.157-0.284-0.156-0.284C55.494,93.397,54.466,94.306,53.436,95.219z"/>
<path fill="#FFFFFF" d="M75.176,70.503c1.073,1.107,2.147,2.216,3.22,3.323c-1.588,1.926-3.475,1.771-5.479,0.787c-1.01-1.028-1.438-2.261-1.287-3.695C72.699,69.832,73.882,69.694,75.176,70.503z"/>
<path fill="#F7F7F7" d="M72.315,73.847c2.026-0.006,4.054-0.013,6.082-0.019c0.008,1.063,0.017,2.124,0.024,3.187c-0.471,0.43-0.94,0.86-1.412,1.294c-1.927,0.521-3.756,0.5-5.318-0.974c-0.137-0.623-0.271-1.248-0.404-1.871C71.63,74.928,71.972,74.387,72.315,73.847z"/>
<path fill="#FFFFFF" d="M69.08,64.546c2.088-0.067,4.177-0.134,6.264-0.204c-0.005,1.096-0.009,2.19-0.012,3.286c-0.938,0.989-2.088,1.502-3.449,1.541c-1.354,0.031-2.543-0.387-3.538-1.321c-0.588-1.324-0.304-2.426,0.853-3.299L69.08,64.546z"/>
<path fill="#CFD0D0" d="M72.474,67.86c0.946-0.159,1.898-0.235,2.858-0.232c0.007,0.965-0.043,1.923-0.154,2.875c-0.002,0-1.479,0.165-1.479,0.165l-1.488-0.006c-0.773-0.702-0.991-1.35-0.657-1.947C71.874,68.143,72.18,67.86,72.474,67.86z"/>
<path fill="#F6F6F6" d="M81.691,80.241c-1.131,0.079-2.26,0.161-3.391,0.241l0.365-0.846c-1.213-0.513-1.644-1.077-1.297-1.7c0.359-0.649,0.728-0.977,1.109-0.977l-0.056,0.056c1.201,0.027,2.402,0.052,3.603,0.079C81.914,78.144,81.803,79.191,81.691,80.241z"/>
<path fill="#F7F7F7" d="M81.558,70.503c1.056,0.03,2.113,0.064,3.169,0.098c-0.534,0.589-1.068,1.181-1.634,1.807C82.56,71.748,82.058,71.125,81.558,70.503z"/>
<path fill="#E5E5E6" d="M37.58,86.747l-1.396-0.168c0,0-1.402,0.132-1.402,0.135c-1.106-0.11-2.214-0.226-3.322-0.339c-0.963-0.937-1.927-1.874-2.89-2.808c-1.106-0.092-2.214-0.187-3.322-0.284c0.042-1.056,0.084-2.114,0.126-3.174c1.079-1.159,2.156-1.156,3.233,0.004c1.02-0.04,2.039-0.073,3.058-0.092c0.963-0.916,2.08-1.251,3.383-0.913c1.721,0.962,2.872,2.402,3.546,4.239c0.038,0.626,0.07,1.254,0.103,1.883C38.328,85.734,37.954,86.241,37.58,86.747z"/>
<path fill="#E5E5E5" d="M25.631,64.344c3.072,0.082,6.142,0.168,9.212,0.25c0.993,0.821,1.511,1.874,1.553,3.158c-0.18,0.593-0.363,1.182-0.545,1.773c-0.476,0.394-0.952,0.787-1.43,1.181c-1.991,0.013-3.982,0.021-5.975,0.031c-1.025-1.053-1.93-2.231-3.116-3.125C25.431,66.523,25.532,65.433,25.631,64.344z"/>
<path fill="#E3E3E3" d="M18.949,77.021c-1.015,0.211-2.031,0.421-3.045,0.632c0,0.003,0.11-1.346,0.11-1.346c-0.769-0.422-1.143-0.955-1.122-1.608c0.023-0.714,0.133-1.068,0.323-1.068c1.063-1.318,2.715-1.864,3.941-2.973l-0.079,0.083c1.042-1.139,2.085-1.139,3.128,0c2.035,2.121,4.072,4.241,6.109,6.362c-1.619,1.688-3.726,1.34-5.74,1.386C21.141,78.559,19.942,78.041,18.949,77.021z"/>
<path fill="#E9E9E9" d="M34.803,76.866c0.015-1.078,0.032-2.158,0.047-3.235c1.259-1.196,1.7-2.99,3.038-4.138c1.099-0.477,2.242-0.672,3.438-0.604c1.184,0.28,2.226,0.827,3.146,1.627c0.714,1.004,1.147,2.114,1.272,3.344c-0.131,1.239-0.562,2.365-1.277,3.388c-0.921,0.843-1.973,1.462-3.162,1.847c-1.224,0.238-2.45,0.234-3.677,0.024C36.466,78.648,35.525,77.894,34.803,76.866z"/>
<path fill="#D0D0D1" d="M22.187,76.988c2.043,0.036,4.086,0.076,6.128,0.115c0.115,1.004,0.21,2.005,0.292,3.01c-1.076,0-2.154,0-3.232-0.004c-1.13,0.195-2.26,0.391-3.392,0.59c0,0.003,0.224-0.721,0.224-0.721c-0.818-0.659-1.094-1.321-0.827-1.989C21.647,77.32,21.915,76.988,22.187,76.988z"/>
<path fill="#FFFFFF" d="M34.803,76.866c1.015,0.076,2.031,0.115,3.048,0.118c0.775,0.629,1.131,1.34,1.067,2.134c-0.067,0.833-0.205,1.248-0.411,1.248c-1.117,0.912-2.276,0.974-3.479,0.18c-1.122-0.174-2.243-0.351-3.364-0.524C32.711,78.969,33.758,77.919,34.803,76.866z"/>
<path fill="#FFFFFF" d="M22.206,70.741c-1.042-0.003-2.083-0.003-3.126-0.003c0-1.041,0-2.082,0-3.125c1.041,0,2.084,0,3.126,0C22.206,68.656,22.206,69.697,22.206,70.741z"/>
<path fill="#FBFBFB" d="M25.331,67.613c1.039,1.04,2.078,2.084,3.116,3.125C27.409,69.697,26.37,68.653,25.331,67.613z"/>
<path fill="#CDCDCE" d="M38.136,70.872c-1.096,0.922-2.191,1.84-3.285,2.762c-0.142-0.977-0.284-1.95-0.426-2.927c-0.003,0,0.746,0.119,0.746,0.119C36.175,69.795,37.162,69.859,38.136,70.872z"/>
<path fill="#D5D6D6" d="M56.513,61.307c1.123,0.034,2.246,0.067,3.369,0.102c0.368,0.665,0.736,1.33,1.104,1.995c-0.371,0.669-0.743,1.334-1.11,2.002c-1.261,0.9-2.639,1.535-4.149,1.896c-3.147,0.431-6.125,0.076-8.711-1.975c-0.932-1.4-0.819-2.719,0.342-3.946C50.408,61.356,53.46,61.332,56.513,61.307z"/>
<path fill="#F7F7F7" d="M47.356,61.381c-0.075,1.035-0.107,2.069-0.095,3.107c-0.969,1.104-2.167,1.84-3.59,2.209c-1.456,0.104-2.862-0.104-4.213-0.665c-0.525-0.494-1.047-0.992-1.57-1.486c-0.027-1.028-0.017-2.057,0.032-3.082c0.966-0.113,1.933-0.189,2.902-0.229C42.999,61.283,45.177,61.332,47.356,61.381z"/>
<path fill="#CACACB" d="M44.59,55.287c0.812,0.922,1.624,1.84,2.433,2.759C46.21,57.124,45.4,56.205,44.59,55.287z"/>
<path fill="#F7F7F7" d="M34.724,67.833c0.038-1.081,0.078-2.161,0.118-3.238c1.016-0.067,2.031-0.085,3.047-0.052c0,0.003-0.11-0.11-0.11-0.11c0.811,0.688,1.178,1.453,1.105,2.302c-0.078,0.888-0.225,1.33-0.444,1.333C37.141,68.904,35.9,68.87,34.724,67.833z"/>
<path fill="#FFFFFF" d="M59.548,64.491c0.094-1.031,0.203-2.057,0.331-3.082c0.974-0.031,1.941-0.024,2.91,0.021c0.041,1.017,0.051,2.026,0.022,3.04C61.727,65.196,60.641,65.238,59.548,64.491z"/>
<path fill="#E9E9EA" d="M59.548,64.491c1.088-0.006,2.176-0.013,3.264-0.021c2.129,0.027,4.256,0.052,6.386,0.079c-0.018,0.968-0.014,1.935,0.019,2.899c1.994,2.404,0.076,3.207-1.671,4.086c-2.02,0.125-3.907-0.375-5.729-1.205c-0.562-0.333-1.115-0.687-1.677-1.028c-0.444-0.477-0.879-0.968-1.32-1.453c-0.52-1.33-0.185-2.444,0.884-3.366L59.548,64.491z"/>
<path fill="#FBFBFB" d="M53.609,93.097l-1.511-0.372l-1.524,0.309c-1.106-0.333-2.212-0.662-3.318-0.992c-1.091-0.8-1.611-1.874-1.566-3.226c0.292-1.281,0.913-2.365,1.908-3.234c1.845-0.959,3.682-0.94,5.515,0.039c0.99,0.882,1.59,1.99,1.853,3.287c0.039,1.376-0.528,2.429-1.699,3.155L53.609,93.097z"/>
<path fill="#F6F6F6" d="M47.165,89.411c0.029,0.879,0.06,1.758,0.09,2.634c-1.108,0.211-2.214,0.425-3.322,0.638c-0.008-1.056-0.016-2.114-0.023-3.17C44.967,88.551,46.052,88.517,47.165,89.411z"/>
<path fill="#F5F5F5" d="M15.949,73.774c0.012,0.846,0.034,1.69,0.064,2.533c-1.108,0.247-2.216,0.494-3.322,0.741c0.078-0.955,0.046-1.904-0.094-2.851c0.064-1.169,0.128-2.337,0.19-3.506c1.111,0.158,2.22,0.317,3.331,0.476c0.69,0.626,0.894,1.221,0.615,1.785C16.462,73.5,16.2,73.774,15.949,73.774z"/>
<path fill="#FDFDFD" d="M15.949,73.774c0.032-0.873,0.087-1.742,0.168-2.609c1.001-0.244,2.014-0.412,3.04-0.507C18.087,71.696,17.019,72.736,15.949,73.774z"/>
<path fill="#EEEEEE" d="M22.187,76.988c0.015,1.001,0.021,2.002,0.02,2.996c-1.074,0.064-2.15,0.132-3.224,0.202c-0.009-1.057-0.017-2.112-0.029-3.168C20.028,77.009,21.107,76.997,22.187,76.988z"/>
<path fill="#E2E2E3" d="M78.478,76.96c0.024,0.897,0.087,1.789,0.188,2.677c-1.077,1.233-2.155,2.466-3.232,3.699c-1.113,0.21-2.226,0.421-3.34,0.635l0.174-1.264c-1.066-0.638-1.636-1.578-1.713-2.817c0.166-1.208,0.739-2.188,1.658-2.975C74.302,76.929,76.389,76.945,78.478,76.96z"/>
<path fill="#F7F7F7" d="M69.193,86.485c-1.137,0.109-2.273,0.22-3.41,0.329c-0.002,0,0.353-0.885,0.353-0.885c-0.715-0.977-0.663-1.907,0.156-2.799c0.513-0.183,1.027-0.363,1.542-0.546c0.456,0.296,0.912,0.595,1.368,0.891C69.106,84.479,69.103,85.48,69.193,86.485z"/>
<path fill="#FFFFFF" d="M72.102,80.28c0.079,0.81,0.136,1.615,0.166,2.427c-1.022,0.256-2.043,0.513-3.065,0.769l-0.152-0.439c-0.676-1.059-0.585-2.072,0.174-3.052C70.269,79.249,71.233,79.307,72.102,80.28z"/>
<path fill="#DFDFE0" d="M47.165,89.411c-1.085,0.034-2.169,0.067-3.254,0.102c-0.938,0.015-1.866,0.125-2.782,0.335c-1.129-0.112-2.26-0.229-3.391-0.342c0.07-0.928,0.019-1.846-0.157-2.759c-0.001,0,0.508-0.82,0.508-0.82c1.012-0.986,2.22-1.59,3.596-1.88c1.399-0.04,2.745,0.207,4.032,0.769c0.496,0.482,0.99,0.968,1.486,1.453C47.19,87.315,47.178,88.365,47.165,89.411z"/>
<path fill="#ECECEC" d="M65.999,83.244c0.01,0.897,0.056,1.791,0.137,2.686c-0.959,0.36-1.949,0.556-2.972,0.589c-0.941,0.943-2.048,1.215-3.318,0.814c-0.999-0.796-1.624-1.824-1.882-3.079c0.01-1.257,0.327-2.436,0.986-3.513c0.952-0.852,2.062-1.278,3.348-1.224c1.191,0.394,2.203,1.071,3.063,1.987C65.575,82.081,65.787,82.661,65.999,83.244z"/>
<path fill="#E2E2E3" d="M59.61,86.253c1.185,0.089,2.368,0.177,3.554,0.266c-0.314,1.004-0.384,2.026-0.212,3.061c-1.072,0.135-2.146,0.269-3.218,0.4c-0.933-0.312-1.891-0.455-2.875-0.431c-1.166,1.218-2.29,1.178-3.374-0.113c-0.018-1.067-0.034-2.139-0.052-3.21c0.45-0.399,0.902-0.8,1.353-1.199C56.65,84.422,58.302,84.669,59.61,86.253z"/>
<path fill="#F6F6F6" d="M53.485,89.435c1.122,0.037,2.243,0.073,3.371,0.113c-0.058,1.071-0.117,2.146-0.18,3.217c-1.137-0.232-2.273-0.467-3.411-0.702C53.416,91.193,53.489,90.318,53.485,89.435z"/>
<path fill="#EEEEEE" d="M65.821,70.679c1.13-1.077,2.261-2.151,3.394-3.229c1.086,0.135,2.171,0.269,3.258,0.406c-0.156,0.931-0.243,1.864-0.262,2.805c0.034,1.062,0.067,2.123,0.103,3.186c0.002,0-0.242,0.021-0.242,0.021c-1.35,1.666-3.089,1.983-5.071,1.465c-1.164-0.645-1.861-1.614-2.024-2.948C65.257,71.818,65.539,71.251,65.821,70.679z"/>
<path fill="#EAEAEA" d="M65.977,73.853c2.032,0.006,4.065,0.01,6.096,0.016c0.079,1.013,0.127,2.029,0.141,3.046c-0.037,1.119-0.073,2.242-0.111,3.365c-0.96-0.024-1.913,0.031-2.862,0.165c-0.563-0.18-1.126-0.356-1.692-0.534c-0.957-0.732-1.677-1.653-2.202-2.734C65.062,75.977,65.25,74.864,65.977,73.853z"/>
<path fill="#D6D6D7" d="M35.029,80.546c0.906-0.296,1.835-0.467,2.788-0.516c0.276,0.534,0.554,1.071,0.83,1.605c-0.265,0.54-0.529,1.08-0.795,1.623C36.91,82.355,35.97,81.449,35.029,80.546z"/>
<path fill="#F7F7F8" d="M40.856,86.195c-0.94,0.082-1.863-0.003-2.769-0.263c-0.179-0.885-0.258-1.776-0.235-2.674l-0.029-0.03c0.734-0.296,1.469-0.589,2.203-0.885c0.571,0.549,1.142,1.099,1.712,1.645C41.444,84.723,41.149,85.46,40.856,86.195z"/>
<path fill="#CDCDCE" d="M34.724,67.833c0.978-0.125,1.953-0.275,2.925-0.446c3.32-1.07,3.993,0.477,3.319,3.357c-0.945,0.092-1.891,0.134-2.835,0.125c0.003,0.003-1.483-0.07-1.483-0.07s-1.486,0.024-1.482,0.027C34.943,69.841,34.794,68.843,34.724,67.833z"/>
<path fill="#F6F6F6" d="M44.088,74.024c0.024-1.064,0.049-2.127,0.073-3.192c0.246-0.714,0.49-1.431,0.734-2.147c1.061-1.147,2.365-1.816,3.916-2.009c3.646,1.862,3.448,4.486,1.479,7.462C48.197,75.529,46.122,75.834,44.088,74.024z"/>
<path fill="#E0E0E1" d="M40.968,70.744c-1.106-1.117-2.211-2.237-3.319-3.357c0.093-0.982,0.136-1.965,0.129-2.95c2.079,0.085,4.158,0.174,6.236,0.262c1.114,0.632,1.634,1.584,1.563,2.859c-0.188,1.203-0.691,2.253-1.507,3.156l0.09,0.118C43.096,70.804,42.033,70.774,40.968,70.744z"/>
<path fill="#D9DADA" d="M44.088,74.024c2.082-0.039,4.163-0.079,6.244-0.116c0.307,0.556,0.613,1.111,0.92,1.67c-0.184,1.343-0.906,2.292-2.097,2.905c-1.267,0.296-2.522,0.247-3.764-0.138c-0.482-0.418-0.964-0.839-1.445-1.26C44.048,76.066,44.096,75.047,44.088,74.024z"/>
<path fill="#E2E2E2" d="M40.961,83.247c-1.045-0.006-2.092-0.013-3.139-0.019c-0.001-1.064-0.004-2.13-0.006-3.198c0.003-1.016,0.016-2.032,0.035-3.046c0.99,0.013,1.981,0.013,2.971,0C42.809,79.029,42.542,81.123,40.961,83.247z"/>
<path fill="#F5F5F6" d="M40.961,83.247c-0.044-2.088-0.09-4.175-0.137-6.263c1.041,0.031,2.083,0.064,3.124,0.098c-0.001,0.004,0.455-0.14,0.455-0.14c0.9,1.175,1.298,2.496,1.198,3.973c-0.862,2.161-1.975,3.824-4.662,2.335L40.961,83.247z"/>
<path fill="#E5E5E6" d="M44.081,67.652c-0.012-0.985-0.032-1.971-0.064-2.954c1.081-0.07,2.164-0.14,3.246-0.21c3.108,0.003,6.217,0.003,9.324,0.006c1.078,0.681,1.249,1.538,0.523,2.585c1.057-0.735,1.918-0.562,2.593,0.531l0.116,0.186c0.987,1.001,1.532,2.203,1.64,3.61c-0.167,0.668-0.338,1.334-0.505,2.005c-0.437,0.534-0.877,1.065-1.315,1.603c-1.208,0.705-2.507,1.145-3.898,1.303c-2.181-0.016-3.987-0.885-5.483-2.444l0.076,0.033c-1.035-2.097-2.067-4.192-3.103-6.289C46.192,68.723,45.143,68.736,44.081,67.652z"/>
<path fill="#F7F7F7" d="M56.632,67.606c-0.05-1.04-0.066-2.078-0.049-3.115c1.043-0.003,2.083-0.003,3.121-0.006c0,1.04,0,2.084,0,3.125c-0.002,0-1.56,0-1.56,0l-1.559-0.049L56.632,67.606z"/>
<path fill="#D4D4D5" d="M59.705,70.747c-0.021-0.988,0.016-1.972,0.111-2.954c0.971-0.085,1.942-0.149,2.916-0.192c0.426,0.556,0.852,1.108,1.282,1.66c-0.229,0.659-0.461,1.321-0.691,1.98C61.992,72.001,60.785,71.84,59.705,70.747z"/>
<path fill="#FFFFFF" d="M62.737,70.771c-0.002-1.059-0.003-2.115-0.005-3.171c1.03,1.025,2.062,2.054,3.09,3.079c-0.001,0,0.13,0.031,0.13,0.031C64.9,71.8,63.83,71.87,62.737,70.771z"/>
<path fill="#D1D2D2" d="M53.434,86.225c-2.076,0.016-4.153,0.03-6.23,0.043l0.127,0.058c-0.865-0.695-1.248-1.471-1.147-2.331c0.105-0.903,0.276-1.353,0.511-1.353c2.01-1.251,4.04-1.27,6.085-0.092c0.765,0.751,1.097,1.563,0.998,2.436c-0.103,0.903-0.261,1.355-0.473,1.355L53.434,86.225z"/>
<path fill="#F2F2F2" d="M69.239,80.445c-0.113,0.86-0.176,1.725-0.189,2.591c-1.014,0.119-2.031,0.189-3.052,0.208c0.001,0-0.122-0.049-0.122-0.049c-0.775-0.989-0.765-1.993-0.075-3.019c0.931-0.806,1.947-0.931,3.048-0.375L69.239,80.445z"/>
<path fill="#EEEFEF" d="M47.343,83.372c-0.067,0.985-0.072,1.969-0.012,2.954c-2.158-0.043-4.315-0.085-6.475-0.128c0.058-0.982,0.085-1.966,0.083-2.948c1.1-1.135,2.199-2.271,3.299-3.405c1.192-0.928,2.414-1.02,3.67-0.135C48.591,81.065,48.362,82.279,47.343,83.372z"/>
<path fill="#F6F6F6" d="M53.305,86.342c0.044-1.041-0.015-2.072-0.175-3.101c0.347-0.406,0.693-0.813,1.036-1.221c0.977-0.464,2.005-0.687,3.089-0.65c1.062,0.284,1.878,0.9,2.447,1.847c-0.006,1.013-0.035,2.026-0.092,3.036C57.508,86.28,55.405,86.31,53.305,86.342z"/>
<path fill="#D7D7D8" d="M59.702,83.217c-1.039,0.015-2.076,0.021-3.116,0.018c-0.785-0.635-1.124-1.339-1.016-2.117c0.112-0.809,0.279-1.215,0.496-1.215c0.611-0.229,1.227-0.461,1.84-0.692c0.595,0.271,1.193,0.54,1.79,0.812C59.699,81.086,59.701,82.151,59.702,83.217z"/>
<path fill="#E5E5E5" d="M65.971,80.036c-0.03,1.054-0.062,2.106-0.094,3.159c-1.026-1.056-2.052-2.109-3.077-3.165c0,0,0.943-0.977,0.943-0.979c0,0,1.359-0.061,1.359-0.064C65.103,78.986,65.971,80.036,65.971,80.036z"/>
<path fill="#CDCDCE" d="M62.8,80.03l-1.552,0.043l-1.551-0.052c-0.001,0,0.098,0.119,0.098,0.119c-0.861-1.188-0.837-2.354,0.076-3.504c1.241-0.695,2.473-0.714,3.696,0.046c0.649,1.337,0.402,2.481-0.74,3.427L62.8,80.03z"/>
<path fill="#DFDFE0" d="M62.832,76.988c-0.943-0.007-1.885,0.003-2.826,0.03c-0.469-0.498-0.938-0.995-1.407-1.492c0.397-0.556,0.794-1.114,1.189-1.67l-0.122,0.11c0.915-1.279,2.197-2.207,3.242-3.36l-0.171,0.162c1.071-0.019,2.144-0.037,3.215-0.058c0.008,1.046,0.017,2.096,0.024,3.143c0,1.077,0,2.154,0,3.232c-0.539,0.439-1.076,0.875-1.614,1.321C63.853,77.936,63.342,77.464,62.832,76.988z"/>
<path fill="#CECECF" d="M68.849,79.802c-0.949,0.201-1.909,0.28-2.878,0.234l-0.011,0.073c-0.822-0.692-1.096-1.385-0.822-2.081c0.271-0.692,0.546-1.04,0.82-1.04l0.019,0.094C66.934,77.989,67.89,78.895,68.849,79.802z"/>
<path fill="#DDDEDE" d="M44.081,67.652c1.05-0.012,2.1-0.024,3.149-0.036c-1.053,1.031-2.107,2.065-3.16,3.098C44.077,69.694,44.082,68.672,44.081,67.652z"/>
<path fill="#F1F1F1" d="M60.006,77.018c-0.07,1.04-0.141,2.081-0.211,3.122c-1.069-0.01-2.141-0.019-3.212-0.027c-0.858,1.031-1.959,1.522-3.3,1.471c-1.307-0.006-2.5-0.366-3.562-1.139c-0.746-1.19-0.681-2.301,0.318-3.323c0.073-1.083,0.146-2.167,0.217-3.25c2.129,0.021,4.259,0.046,6.389,0.067c1.05,0.827,1.928,1.807,2.636,2.938L60.006,77.018z"/>
<path fill="#CECECF" d="M50.04,77.122c0.146,0.992,0.213,1.986,0.202,2.987c-0.984,1.361-2.025,1.337-3.115,0.122c-0.969-0.085-1.933-0.213-2.892-0.384c-0.087-0.977-0.035-1.944,0.164-2.902C46.281,77.003,48.16,77.064,50.04,77.122z"/>
<path fill="#F2F2F2" d="M56.586,67.561c-0.229,0.433-0.462,0.863-0.692,1.294c0.246-0.415,0.491-0.834,0.737-1.249C56.632,67.606,56.586,67.561,56.586,67.561z"/>
<path fill="#F7F7F8" d="M59.281,76.878c-0.879-0.979-1.758-1.959-2.636-2.938c1.049-0.027,2.096-0.056,3.143-0.083C59.702,74.876,59.533,75.886,59.281,76.878z"/>
<path fill="#FFFFFF" d="M62.908,70.606c-1.08,1.12-2.161,2.237-3.241,3.36c0.013-1.074,0.026-2.148,0.038-3.22C60.773,70.701,61.84,70.652,62.908,70.606z"/>
<path fill="#E2E2E2" d="M47.127,80.231c1.038-0.094,2.076-0.137,3.116-0.122c1.069,0,2.141,0.004,3.211,0.004c0.819,0.692,1.092,1.385,0.823,2.081c-0.269,0.695-0.538,1.044-0.812,1.044c0,0-0.329,0.003-0.332,0.003c-1.934,0.042-3.864,0.085-5.792,0.131C47.271,82.325,47.199,81.278,47.127,80.231z"/>
<path fill="#FBFBFB" d="M53.466,83.238c-0.003-1.041-0.008-2.085-0.011-3.125c1.041,0,2.083,0,3.127,0c-0.002,1.04-0.003,2.084,0.001,3.125C55.546,83.238,54.507,83.238,53.466,83.238z"/>
<path fill="#E9E9E9" d="M65.958,76.988c-0.003,1.043-0.004,2.084,0,3.125c-1.042-0.004-2.084,0-3.129,0c0.001-1.044,0.003-2.085,0.001-3.125C63.874,76.988,64.916,76.988,65.958,76.988z"/>
</svg>