<?xml version="1.0" encoding="utf-8"?>
<!DOCTYPE svg PUBLIC "-//W3C//DTD SVG 1.1//EN" "http://www.w3.org/Graphics/SVG/1.1/DTD/svg11.dtd">
<svg version="1.1" xmlns="http://www.w3.org/2000/svg" xmlns:xlink="http://www.w3.org/1999/xlink" x="0px" y="0px" width="100px" height="100px" viewBox="0 0 100 100" enable-background="new 0 0 100 100" xml:space="preserve">
<path fill="#0D0D0D" d="M9.716,44.132c-1.004-6.284-2.007-12.564-3.009-18.845c2.347-2.173,6.076-1.196,8.299-3.644c1.698-1.021,3.542-0.617,5.35-0.531c1.878-0.122,3.517-0.735,4.692-2.298c1.397-2.856,4.162-4.215,6.563-5.969c3.093-1.044,6.186-2.087,9.279-3.131c0.688,0.113,1.378,0.223,2.064,0.333c1.254,0.714,2.079,1.754,2.408,3.167c0.108,1.385,0.038,2.765-0.182,4.138c-0.266,1.355-0.625,2.688-1.062,4.001c-0.502,1.285-1.013,2.569-1.503,3.863c-0.438,1.325-0.882,2.643-1.302,3.971c-0.801,2.731-1.462,5.49-2.036,8.279c-0.396,1.434-1.114,2.676-2.15,3.738c-3.261,1.624-6.41,3.497-10.002,4.288c-1.366,0.098-2.756,0.146-4.112,0.162c-1.842-0.033-3.726,0.028-5.533-0.381c-0.963-0.381-1.664-1.104-2.08-1.95c0.026,0.134-0.471-1.081-0.41-0.937c0.061,0.14-0.302-0.796-0.25-0.644c0.052,0.156,0.009-0.522,0.024-0.366c0.017,0.159-0.296-0.03-0.276,0.113c0.019,0.144,0.22,0.354,0.234,0.495c0.014,0.144,0.322,0.589,0.361,0.708c0.513,0.684,0.667,1.327,0.507,2.154c-0.342,1.099-1.033,1.669-2.117,1.858C11.611,46.704,10.862,45.135,9.716,44.132z"/>
<path fill="#151515" d="M37.864,22.198c0.017-1.047,0.032-2.097,0.049-3.143c0.893-0.727,1.851-1.349,2.878-1.874c0.882-0.748,1.637-1.608,2.269-2.579c0.633-0.974,1.389-1.84,2.269-2.6c1.639-0.662,3.38-0.809,5.107-1.032c1.164-0.116,2.325-0.232,3.489-0.351c2.474-0.436,4.025-2.255,5.743-3.827c6.279,4.095,12.56,8.191,18.839,12.29c2.856,2.6,4.965,5.518,4.069,9.674c-0.852,2.548-2.696,4.361-4.655,6.055c-3.439,2.023-7.27,1.331-10.927,1.486c-1.142,0.006-2.346-0.012-3.486-0.04c-0.989,0.018-2.015-0.137-2.967-0.446c0.048,0.021-1.261-0.628-1.227-0.601c0.033,0.027-1.102-0.75-1.082-0.723c0.02,0.03-1.077-0.687-1.068-0.662c0.01,0.024-1.078-0.626-1.078-0.602c-0.736-0.348-1.482-0.702-2.246-1.022c-0.81-0.274-1.608-0.549-2.435-0.796c-0.886-0.21-1.753-0.424-2.647-0.62c-0.958-0.171-1.893-0.345-2.853-0.509c-1.022-0.153-2.019-0.324-3.032-0.507c-0.02-0.003-1.443-0.631-1.459-0.638c-0.424-0.345-0.833-0.684-1.252-1.028c-0.719-0.842-1.384-1.709-2.016-2.609c-0.102-0.546-0.2-1.089-0.299-1.636C37.853,23.303,37.86,22.751,37.864,22.198z"/>
<path fill="#060606" d="M56.605,94.134c-3.13,1.025-6.258,2.048-9.386,3.073c-1.71-2.71-0.836-5.936-1.75-8.805c-0.063-1.828,0.069-3.656,0.085-5.486c0.02-1.233,0.04-2.463,0.058-3.699c0.014-1.254,0.029-2.499,0.044-3.754c0.014-1.926,0.035-3.842,0.177-5.765c0.233-1.321,0.743-2.509,1.58-3.562c1.045-0.873,2.204-1.514,3.506-1.91c1.271-0.521,2.555-0.982,3.859-1.404c4.116-0.296,8.18-2.025,12.362-0.442c1.898,1.057,3.516,2.46,5.046,3.979c1.521,1.575,2.925,3.229,3.871,5.216c0.414,1.413,0.526,2.848,0.238,4.284c-0.717,2.18-3.014,3.04-4.05,4.941c-2.257,2.655-5.335,4.175-8.173,6.03c-1.539,1.306-2.933,2.753-4.33,4.19l0.006-0.043C58.66,91.989,57.729,93.158,56.605,94.134z"/>
<path fill="#0C0C0C" d="M37.844,87.893c-7.312-2.114-14.625-4.227-21.938-6.341c-1.018-1.032-2.045-2.058-3.076-3.073c-2.064-1.038-4.128-2.078-6.19-3.116c2.397-2.338,2.284-6.83,6.509-7.587c1.987-0.207,3.99-0.213,5.984-0.213c2.521,0.021,5.055-0.08,7.573,0.174c1.188,0.259,2.349,0.625,3.49,1.059c1.769,0.54,3.559,0.986,5.39,1.307c2.629,0.396,5.278,0.527,7.921,0.949c1.411,0.579,2.441,1.531,3.128,2.898c0.377,1.529,0.589,3.046,0.65,4.608C46.243,83.823,47.477,91.367,37.844,87.893z"/>
<path fill="#080808" d="M90.913,22.262c1.061,2.091,2.119,4.181,3.18,6.269c-0.845,0.674-1.127,1.349-0.847,2.023c0.281,0.671,0.562,1.01,0.846,1.01c0.001,6.259,0.003,12.519,0.003,18.774c-2.36,2.793-2.872,7.517-7.86,7.55c-1.481-0.076-2.868-0.513-4.124-1.297c-1.01-0.998-1.807-2.167-2.359-3.476c-0.294-0.616-0.601-1.248-0.898-1.865c-0.58-1.211-1.09-2.472-1.535-3.747c-0.5-2.6-0.366-5.24-0.332-7.871c0.08-1.288,0.337-2.542,0.817-3.741c1.096-1.566,2.293-3.07,3.003-4.871c0.456-1.184,0.819-2.399,1.102-3.635c0.722-1.776,1.61-3.403,3.687-3.903C87.382,23.148,89.381,23.721,90.913,22.262z"/>
<path fill="#080808" d="M15.983,40.982c2.083,0,4.166,0.003,6.249,0.003c1.043,1.187,2.087,1.187,3.131,0c3.118-1.047,6.235-2.094,9.352-3.14c1.505-0.373,2.997-0.785,4.474-1.245c1.53-0.144,3.064-0.128,4.585,0.042c1.469,0.439,2.713,1.242,3.718,2.399c1.65,2.951,0.519,5.542-1.059,8.05c-0.659,1.136-1.446,2.203-2.336,3.162c-0.978,0.769-2.1,1.29-3.314,1.553c-1.14,0.184-2.307,0.376-3.448,0.574c-1.079,0.229-2.181,0.454-3.262,0.698c-0.519,0.141-1.056,0.269-1.58,0.406c-0.513,0.149-1.041,0.29-1.558,0.437c-1.022,0.317-2.059,0.604-3.102,0.873c-1.067,0.167-2.133,0.326-3.206,0.485c-1.082,0.174-2.161,0.345-3.244,0.521c-1.099,0.198-2.191,0.391-3.287,0.592c-2.219,0.385-4.41,1.09-6.694,0.467c-0.566-0.073-1.131-0.149-1.695-0.223c0.003-4.169,0.006-8.337,0.009-12.506c1.048-1.047,2.096-2.097,3.143-3.144c0.521-0.741,1.039-1.486,1.558-2.23C14.939,39.499,15.461,40.24,15.983,40.982z"/>
<path fill="#080808" d="M94.095,56.637c-0.003,4.166-0.007,8.331-0.012,12.494c-2.537,2.808-2.945,7.034-6.226,9.345c-4.159,1.053-8.319,2.104-12.48,3.161c-0.635-0.174-1.271-0.345-1.907-0.519c-0.824-1.123-0.982-2.353-0.563-3.668c0.572-1.193,1.115-2.396,1.634-3.613c1.03-2.46,1.758-5.018,2.51-7.571c0.886-2.579,2.458-4.785,3.816-7.111c1.456-1.62,3.382-2.2,5.447-2.484C88.911,56.741,91.494,54.26,94.095,56.637z"/>
<path fill="#080808" d="M37.844,87.893c2.089-4.178,4.178-8.355,6.268-12.536c4.073-2.93,4.474,1.471,6.246,3.131l-0.002-0.006c0.325,0.698,0.701,1.37,1.13,2.011l1.072,0.425l0.923,0.692c-1.04,2.084-2.082,4.169-3.125,6.25c-1.936,2.249-2.791,5.582-6.28,6.274C41.998,92.053,39.921,89.975,37.844,87.893z"/>
<path fill="#080808" d="M15.954,72.223c-3.105,1.046-6.21,2.093-9.313,3.14c-0.002-2.097-0.005-4.19-0.008-6.283c0.765-0.632,1.244-1.435,1.436-2.405l0.661-1.254c0,0,0.816-1.16,0.814-1.16l0.179-1.406c-0.004-2.072-0.009-4.147-0.015-6.22c0,0.003,0.094-0.064,0.094-0.064c1.064-0.939,2.298-1.495,3.707-1.669c3.346-0.909,6.658-2.438,10.155-0.537c2.105,0.775,3.648,2.225,4.919,4.02c0.722,1.294,1.079,2.676,1.077,4.156c-0.327,1.455-1.002,2.716-2.032,3.793c-1.851,1.206-4.158,1.419-5.948,2.753C19.904,70.377,18.198,71.793,15.954,72.223z"/>
<path fill="#080808" d="M59.733,84.726c3.126-2.079,6.251-4.16,9.378-6.241c3.874-2.572,4.454,1.474,6.234,3.104l0.032,0.046c-4.183,3.109-8.363,6.217-12.546,9.323C60.633,89.46,61.838,86.27,59.733,84.726z"/>
<path fill="#151515" d="M40.89,9.714c5.271-1.08,10.541-2.161,15.813-3.241c-0.238,2.679,0.478,5.673-2.477,7.446c-1.352,0.363-2.727,0.522-4.125,0.476c-3.588-0.437-6.686-1.825-9.042-4.654L40.89,9.714z"/>
<path fill="#1B1B1B" d="M53.484,12.86c1.071-2.127,2.145-4.254,3.217-6.384c0.99,0.101,1.979,0.208,2.968,0.317c-2.063,3.064-4.124,6.128-6.188,9.189C51.169,14.941,51.17,13.901,53.484,12.86z"/>
<path fill="#151515" d="M31.611,12.845c-1.051,3.134-2.103,6.271-3.154,9.409c-1.721,1.489-3.687,2.322-5.997,2.228c-1.816-1.389-2.947-3.204-3.4-5.441C23.245,16.974,27.427,14.908,31.611,12.845z"/>
<path fill="#0D0D0D" d="M87.875,25.418c-1.047,1.022-2.094,2.044-3.141,3.067c-0.926,1.074-2.054,1.868-3.354,2.417c-1.478-0.232-2.459-1.053-2.944-2.466c0.025-3.119,0.048-6.235,0.072-9.354c2.105,0.04,4.21,0.079,6.314,0.122C86.227,21.085,87.525,23.019,87.875,25.418z"/>
<path fill="#020202" d="M94.095,56.637c-2.078,1.031-4.156,2.063-6.234,3.095c-1.617-1.193-4.3-0.501-5.209-2.945c0.044-1.511,0.711-2.63,2.09-3.293c3.117-1.05,6.235-2.103,9.353-3.152C94.095,52.438,94.095,54.538,94.095,56.637z"/>
<path fill="#080808" d="M87.858,78.476c2.075-3.113,4.15-6.229,6.226-9.345C92.008,72.247,89.933,75.363,87.858,78.476z"/>
<path fill="#0D0D0D" d="M44.076,94.134c2.094-2.091,4.188-4.181,6.28-6.274c-1.045,3.116-2.09,6.231-3.137,9.348C46.171,96.182,45.123,95.16,44.076,94.134z"/>
<path fill="#151515" d="M15.986,22.22c-3.093,1.022-6.188,2.044-9.28,3.067c3.126-2.008,6.251-4.019,9.376-6.027C18.052,20.312,18.02,21.298,15.986,22.22z"/>
<path fill="#232323" d="M15.986,22.22c0.024-0.989,0.055-1.978,0.095-2.96c0.993-0.079,1.987-0.152,2.98-0.22c1.083,1.056,2.168,2.115,3.253,3.174c1.359,3.537-0.062,4.184-3.185,3.061C18.081,24.256,17.034,23.236,15.986,22.22z"/>
<path fill="#151515" d="M87.875,25.418c-1.02-2.072-2.037-4.145-3.055-6.216c2.032,1.022,4.063,2.042,6.095,3.061C89.901,23.315,88.888,24.368,87.875,25.418z"/>
<path fill="#0D0D0D" d="M59.733,84.726c1.033,2.078,2.066,4.156,3.099,6.231c-1.029,0.024-2.06,0.046-3.088,0.064C59.739,88.925,59.736,86.826,59.733,84.726z"/>
<path fill="#080808" d="M6.638,66.001c1.029-1.05,2.056-2.097,3.084-3.146l0.02,0.033c0.757,0.689,1.008,1.38,0.753,2.069c-0.255,0.687-0.508,1.031-0.763,1.031l0.003-0.003C8.711,67.197,7.677,67.263,6.638,66.001z"/>
<path fill="#0D0D0D" d="M6.638,66.001c1.032-0.007,2.064-0.013,3.098-0.016c-1.035,1.031-2.069,2.063-3.104,3.095C6.631,68.054,6.632,67.026,6.638,66.001z"/>
<path fill="#0C0C0C" d="M94.091,31.564c-0.119-1.01-0.119-2.023,0.001-3.033C94.092,29.544,94.091,30.554,94.091,31.564z"/>
<path fill="#111111" d="M12.831,78.479c1.025,1.025,2.052,2.051,3.078,3.073C14.882,80.527,13.856,79.505,12.831,78.479z"/>
<path fill="#0C0C0C" d="M56.605,94.134c1.048-1.053,2.097-2.103,3.145-3.155C58.702,92.032,57.653,93.082,56.605,94.134z"/>
<path fill="#161616" d="M34.722,34.72c0.044-4.132,0.087-8.267,0.13-12.399c2.054,2.295,5.33,3.311,6.66,6.366c0.403,1.56,0.229,3.058-0.445,4.511C39.32,35.238,37.124,35.406,34.722,34.72z"/>
<path fill="#191919" d="M19.13,25.275c1.061-1.019,2.121-2.042,3.183-3.061c2.049,0.012,4.097,0.024,6.145,0.04C25.347,23.26,22.239,24.267,19.13,25.275z"/>
<path fill="#151515" d="M41.059,9.741c3.101,1.041,6.201,2.079,9.3,3.119c1.043,0.696,1.389,1.389,1.043,2.084c-0.345,0.693-0.691,1.041-1.043,1.041c-2.07,0.003-4.142,0.006-6.213,0.009c-2.222,0.159-2.141-2.021-3.145-3.101C41.02,11.844,41.04,10.794,41.059,9.741z"/>
<path fill="#070707" d="M34.722,34.72c1.028-0.998,2.057-1.996,3.085-2.994c1.777,0.293,2.957,1.291,3.539,2.997c0.015,2.741-1.715,4.51-3.48,6.259c-1.05-1.044-2.1-2.091-3.149-3.137C34.719,36.801,34.722,35.76,34.722,34.72z"/>
<path fill="#111111" d="M19.112,34.735c-1.042,0-2.086,0-3.128,0c-1.038,1.438-2.077,1.373-3.119,0.006c2.072-1.046,4.143-2.09,6.215-3.134c0.74,0.513,1.481,1.028,2.223,1.541C20.573,33.676,19.842,34.204,19.112,34.735z"/>
<path fill="#080808" d="M19.112,34.735c-0.011-1.044-0.021-2.084-0.032-3.128c0.253,0.717,0.598,1.419,0.714,2.161C19.838,34.046,19.355,34.408,19.112,34.735z"/>
<path fill="#232323" d="M37.855,28.473c-1.001-2.051-2.004-4.102-3.005-6.152c1.006-0.042,2.01-0.083,3.014-0.122l-0.041,0.064C39.845,24.322,40.408,26.388,37.855,28.473z"/>
<path fill="#232323" d="M41.001,12.894c1.048,1.035,2.095,2.069,3.145,3.101l-0.04,0.015c-0.525,0.461-1.048,0.922-1.572,1.382c-0.516-0.47-1.033-0.937-1.549-1.407C40.989,14.957,40.995,13.925,41.001,12.894z"/>
<path fill="#030303" d="M25.362,40.985c-1.043,0-2.087,0-3.131,0C23.275,40.985,24.319,40.985,25.362,40.985z"/>
<path fill="#0F0F0F" d="M15.983,40.982c-1.041,0.003-2.082,0.006-3.124,0.006c0-1.041-0.001-2.081-0.001-3.125c1.039-1.434,2.08-1.438,3.125-0.006C15.983,38.901,15.983,39.941,15.983,40.982z"/>
<path fill="#232323" d="M40.989,19.11c-1.027-0.012-2.052-0.03-3.078-0.055c1.025-1.022,2.049-2.045,3.075-3.07l-0.017-0.015c0.916,0.693,1.222,1.388,0.923,2.087C41.593,18.759,41.293,19.11,40.989,19.11z"/>
<path fill="#161616" d="M15.983,37.857c-1.042,0.003-2.084,0.003-3.125,0.006l-0.003-0.006c-0.745-0.696-0.992-1.389-0.742-2.084c0.25-0.69,0.5-1.038,0.75-1.038l0.002,0.006c1.039-0.003,2.08-0.006,3.119-0.006C15.985,35.776,15.983,36.816,15.983,37.857z"/>
<path fill="#0F0F0F" d="M12.864,34.735c-0.004,1.041-0.007,2.081-0.009,3.122C12.858,36.816,12.861,35.776,12.864,34.735z"/>
<path fill="#0E0E0E" d="M37.864,47.226c1.041,0.003,2.082,0.006,3.122,0.009h-0.003c1.041-2.09,2.081-4.184,3.122-6.277c-2.361-1.88-3.563-4.462-4.415-7.26c-0.213-3.671-0.514-7.388,4.411-8.34c1.047,0,2.095,0.003,3.144,0.006c1.726,1.383,3.148,3.037,4.35,4.889c1.175,4.19,3.64,8.032,3.421,12.61c0.021,1.498,0.027,2.987,0.029,4.483c-0.003,3.088,0.009,6.167,0.009,9.253c-0.944,9.902-7.032,13.705-16.273,13.79c-1.619-0.299-2.99-1.062-4.106-2.267c-0.845-1.355-1.308-2.839-1.381-4.435c-0.09-2.295-0.049-4.603-0.021-6.897c0.005-1.495,0.131-2.99,0.362-4.471C34.649,50.3,36.108,48.639,37.864,47.226z"/>
<path fill="#0F0F0F" d="M62.864,31.613c4.14-0.015,8.281-0.03,12.421-0.046c1.721,0.897,2.531,2.316,2.431,4.254c-5.382,6.195-12.174,9.287-20.408,9.295c-4.681-2.737-4.394-8.255-6.672-12.311c0.035-1.602,0.298-3.101,1.004-4.522c2.581-1.307,4.276-5.005,8.072-2.945c0.029,1.071,0.058,2.143,0.087,3.214C61.353,29.041,62.397,30.038,62.864,31.613z"/>
<path fill="#060606" d="M75.353,34.716c-0.022-1.05-0.046-2.1-0.068-3.149c1.05-1.043,2.102-2.087,3.15-3.131c1.058,0.015,2.117,0.034,3.174,0.049l0.984,1.077c0.482,0.919,0.542,1.865,0.179,2.838c-0.098,0.973-0.046,1.941,0.154,2.902c-0.185,0.986-0.624,1.84-1.32,2.561l0.002-0.006c-1.354,1.379-1.644,3.29-2.466,4.944c-0.404,1.214-0.795,2.426-1.177,3.656c-0.573,1.199-1.268,2.308-2.103,3.348c-1.053,0.913-2.238,1.532-3.59,1.871c-0.707,0.055-1.396,0.106-2.104,0.161c-1.447,0.01-2.87-0.094-4.295-0.326c-0.659-0.332-1.303-0.659-1.965-0.995c-1.055-1.104-1.646-2.404-1.841-3.927C64.591,40.509,70.853,38.605,75.353,34.716z"/>
<path fill="#151515" d="M65.974,22.278c1.061,2.072,2.12,4.144,3.18,6.216c-1.217-1.322-3.246-1.511-4.282-3.083C64.666,24.167,65.005,23.111,65.974,22.278z"/>
<path fill="#161616" d="M44.102,25.357c-1.042,3.125-2.083,6.25-3.125,9.375c-0.519,0.5-1.038,1.004-1.558,1.507c-0.518-0.503-1.036-1.007-1.555-1.51c-0.02-1.001-0.038-2.005-0.056-3.006c0.015-1.08,0.032-2.167,0.047-3.25c-0.011-2.072-0.02-4.141-0.031-6.21c1.065-0.003,2.13-0.006,3.195-0.009c0.914,1.156,2.039,2.103,3.099,3.116L44.102,25.357z"/>
<path fill="#1B1B1B" d="M53.616,28.287c-0.084,1.102-0.166,2.203-0.25,3.308c-2.015,3.076-4.027,1.889-6.038-0.003c-0.028-2.078-0.055-4.153-0.083-6.229l-0.032,0.012c1.015-1.12,2.042-1.129,3.081-0.034c1.032,0.009,2.062,0.019,3.093,0.024c1.084,0.568,1.478,1.19,1.187,1.868C54.27,27.936,53.952,28.287,53.616,28.287z"/>
<path d="M53.616,28.287c-0.07-0.974-0.146-1.947-0.228-2.921c2.107-0.009,4.216-0.018,6.323-0.027C57.679,26.321,55.648,27.304,53.616,28.287z"/>
<path fill="#232323" d="M66.059,25.351c1.03,1.047,2.062,2.097,3.093,3.144c-2.098-0.006-4.199-0.009-6.299-0.015l0.013,0.012c0.041-1.068,0.082-2.133,0.123-3.198C64.036,24.036,65.06,24.054,66.059,25.351z"/>
<path fill="#2B2B2B" d="M50.359,15.985c-0.001-1.041-0.001-2.084,0-3.125c1.043,0,2.083,0,3.125,0c0,1.044,0,2.084-0.001,3.125c-0.002-0.003-1.563,0-1.563,0H50.359z"/>
<path fill="#151515" d="M40.989,19.11c-0.006-1.047-0.012-2.094-0.02-3.14c1.045,0.012,2.092,0.027,3.137,0.04C43.068,17.044,42.028,18.075,40.989,19.11z"/>
<path fill="#0D0D0D" d="M44.119,25.369c-1.035-1.038-2.068-2.079-3.099-3.119C42.052,23.291,43.086,24.332,44.119,25.369z"/>
<path fill="#0D0D0D" d="M50.294,25.341c-1.026,0.013-2.054,0.021-3.081,0.034C48.239,25.244,49.265,25.232,50.294,25.341z"/>
<path fill="#2B2B2B" d="M66.059,25.351c-1.025-0.012-2.051-0.034-3.073-0.058c0.998-1.007,1.993-2.011,2.988-3.015C66.006,23.303,66.033,24.325,66.059,25.351z"/>
<path fill="#232323" d="M62.864,31.613c-1.022-1.019-2.045-2.042-3.065-3.061c1.022-0.024,2.045-0.046,3.067-0.062l-0.013-0.012C62.856,29.523,62.861,30.57,62.864,31.613z"/>
<path fill="#070707" d="M50.352,47.254c0.003-1.074,0.006-2.146,0.009-3.22c1.268-0.958,2.056-2.579,3.854-2.802c0.923,0.54,1.882,1.025,2.862,1.447c0.879,0.577,1.788,1.111,2.721,1.593c0.518,0.003,1.042,0.009,1.56,0.015c1.055-0.394,2.045-0.262,2.963,0.391c0.29,1.022,0.844,1.874,1.657,2.558h0.011c1.633,1.48,3.873,1.825,5.653,3.024c1.058,1.034,1.595,2.292,1.608,3.769c-0.44,2.197-1.805,3.772-3.476,5.137c-1.589,1.346-3.189,2.682-5.129,3.516c-4.951,0.003-4.593,9.183-11.144,6.43h-0.024c-1.034-1.074-2.07-1.028-3.111-0.009c-0.001,1.043-0.004,2.09-0.008,3.134c-2.588,2.838-5.879-0.939-8.577,0.909c-1.132,0.516-2.182,1.16-3.166,1.917c-1.366,1.284-2.721,2.578-4.565,3.168c-1.26,0.128-2.51,0.079-3.752-0.178c-1.779-0.665-3.519-1.4-4.946-2.707c0.003-1.037,0.005-2.075,0.008-3.109c-0.377-6.186,4.03-7.73,8.716-9.039c1.395,0.714,2.658,1.657,3.783,2.789c4.161-5.222,8.324-10.44,12.485-15.662c-0.847-0.684-1.129-1.367-0.844-2.047C49.784,47.595,50.066,47.254,50.352,47.254z"/>
<path fill="#0A0A0A" d="M53.503,69.11c3.117-3.125,6.236-6.25,9.354-9.375c2.113-0.095,4.29-0.418,5.823,1.6c0.41,1.434,0.193,2.771-0.648,4.004c-0.681,0.216-1.361,0.43-2.042,0.646C61.827,67.026,57.666,68.066,53.503,69.11z"/>
<path fill="#040404" d="M40.94,72.29c3.139-0.018,6.279-0.036,9.419-0.055c0,2.084,0,4.169-0.001,6.253c-2.081-1.044-4.164-2.087-6.247-3.131c0.001,0,0,0,0,0c-0.804-0.757-1.746-1.248-2.824-1.478C41.171,73.349,41.055,72.821,40.94,72.29z"/>
<path fill="#0F0F0F" d="M75.345,81.589c-2.078-1.034-4.156-2.069-6.234-3.104c1.041-1.044,2.081-2.084,3.122-3.128c1.044-1.239,2.086-1.239,3.128,0.003C75.356,77.435,75.35,79.513,75.345,81.589z"/>
<path fill="#020202" d="M50.367,69.101c1.038-0.126,2.075-0.122,3.113,0.009C52.442,69.107,51.405,69.104,50.367,69.101z"/>
<path fill="#020202" d="M72.234,72.235c-1.042-1.044-2.084-2.088-3.128-3.128c0.556-0.385,1.111-0.767,1.667-1.147c1.409,0.329,2.279,1.202,2.61,2.609C73.001,71.124,72.618,71.679,72.234,72.235z"/>
<path fill="#080808" d="M75.361,75.36c-1.042-0.003-2.084-0.003-3.127-0.003c0-1.041,0-2.081,0-3.122h-0.003c0.992-1.608,2.289-1.91,3.89-0.912c0.936,1.571,0.681,2.92-0.766,4.043L75.361,75.36z"/>
<path fill="#0C0C0C" d="M69.106,69.107c-1.039-1.041-2.078-2.081-3.117-3.122l-0.005,0.006c3.339-1.267,4.282-0.131,3.119,3.113L69.106,69.107z"/>
<path fill="#020202" d="M53.481,81.61H51.92l-1.562-0.003l0.002,0.003c-0.002-1.041-0.003-2.084-0.005-3.128C51.399,79.526,52.441,80.566,53.481,81.61z"/>
<path fill="#050505" d="M34.735,65.985c-3.125,2.081-6.25,4.166-9.374,6.25c-2.066,1.044-4.132,2.088-6.198,3.131c-1.724-1.593-1.631-3.638-1.425-5.71c1.756-3.155,4.935-4.712,7.64-6.805l-0.01,0.03c3.274-2.137,6.367-5.68,10.474-1.349C36.291,63.22,35.923,64.704,34.735,65.985z"/>
<path fill="#161616" d="M31.61,75.425c1.043-0.021,2.089-0.043,3.133-0.067c1.008-1.017,2.019-2.032,3.029-3.049c1.056-0.006,2.113-0.013,3.169-0.019l0.016-0.046c0.947,0.684,1.266,1.374,0.961,2.066c-0.307,0.699-0.616,1.05-0.929,1.05c-3.126,2.066-6.254,4.135-9.381,6.204C29.818,79.516,29.437,77.471,31.61,75.425z"/>
<path fill="#101010" d="M19.12,69.143c0.014,2.075,0.027,4.147,0.041,6.223c-1.068-1.05-2.138-2.097-3.208-3.143c1.052-2.079,2.104-4.16,3.156-6.238c1.039,0.699,1.387,1.397,1.045,2.103C19.811,68.793,19.468,69.143,19.12,69.143z"/>
<path fill="#161616" d="M31.61,75.425c-0.001,2.047-0.001,4.095-0.003,6.14c-2.084-2.072-4.169-4.147-6.253-6.22C27.439,75.369,29.524,75.397,31.61,75.425z"/>
<path fill="#070707" d="M40.987,75.36c-0.012-1.041-0.023-2.078-0.03-3.116c1.051,1.038,2.103,2.075,3.154,3.113C43.069,75.357,42.028,75.357,40.987,75.36z"/>
<path fill="#0A0A0A" d="M78.488,40.973c1.039-1.041,2.079-2.078,3.12-3.116c0,3.125,0.001,6.253,0.003,9.381c-0.093,0.833-0.187,1.666-0.277,2.499c-2.2,4.48-3.683,10.603-10.47,4.572c-0.123-2.472-0.778-5.048,1.372-7.08l-0.011,0.009c1.05-1.041,2.095-2.087,3.139-3.137l-0.012,0.012C76.414,43.085,77.41,41.989,78.488,40.973z"/>
<path fill="#0C0C0C" d="M84.742,53.494c0,1.041,0.002,2.079,0.002,3.119c-1.659,2.332-3.662,3.699-6.629,2.368c-3.391-3.903-0.006-6.143,2.134-8.686c1.509-1.343,3.001-1.324,4.479,0.056C84.731,51.397,84.736,52.448,84.742,53.494z"/>
<path fill="#0C0C0C" d="M84.733,47.238l-0.003-0.003L84.733,47.238z"/>
<path fill="#0D0D0D" d="M81.606,37.863c-0.004-1.056-0.009-2.115-0.014-3.174c-0.809-0.692-1.074-1.382-0.796-2.066c0.274-0.681,0.549-1.021,0.822-1.021l-0.01,0.009c1.043-1.471,2.083-1.404,3.125,0C83.692,33.695,82.649,35.779,81.606,37.863z"/>
<path fill="#020202" d="M84.734,31.61h-1.563h-1.563c0-1.041,0-2.084,0-3.125c1.043,0,2.083,0,3.125,0C84.734,29.526,84.734,30.57,84.734,31.61z"/>
<path fill="#131313" d="M84.727,50.351h-1.554h-1.554c-1.037-0.69-1.384-1.383-1.042-2.075c0.344-0.693,0.687-1.041,1.035-1.041l-0.004,0.003c1.043-0.003,2.083,0,3.124,0c0,0-0.002-0.003-0.003-0.003C84.731,48.276,84.73,49.313,84.727,50.351z"/>
<path fill="#111111" d="M37.864,47.226c-0.001,2.087-0.003,4.175-0.003,6.265c0.511,0.522,1.022,1.041,1.534,1.563c0.444,1.478,0.212,2.817-0.811,3.995c-1.393,0.479-2.824,0.735-4.3,0.732c-1.465,0.116-2.93,0.141-4.397,0.085c-1.332-0.656-2.479-1.55-3.471-2.651c-1.471-2.051-1.212-4.083,0.053-6.11c0.421-1.425,1.106-2.716,2.016-3.888l-0.031,0.009c1.061-1.068,2.121-1.016,3.179,0.006l-0.038-0.009c1.047,1.059,2.095,1.059,3.145,0.003C35.781,47.226,36.822,47.226,37.864,47.226z"/>
<path fill="#0E0E0E" d="M28.482,50.344c0.003,2.085,0.007,4.169,0.011,6.254c0,0,0.065,1.452,0.067,1.452c0-0.003-1.169,0.86-1.169,0.86c0.002,0-1.416-0.314-1.416-0.314c-0.857-0.457-1.631-1.034-2.316-1.727l-1.424-0.263c-3.124,0-6.247-0.003-9.371-0.006c-0.071-1.676,1.073-2.839,1.767-4.19c0.531-0.9,1.222-1.651,2.072-2.258c0.883-0.547,1.835-0.925,2.855-1.13c1.107,0.016,2.002,0.461,2.681,1.337c1.055-0.003,2.107-0.003,3.162-0.006C26.423,49.102,27.45,49.039,28.482,50.344z"/>
<path fill="#111111" d="M15.994,53.464c-1.042,1.047-2.086,2.094-3.13,3.138c-1.021-0.01-2.043-0.019-3.064-0.031c3.113-3.094,6.224-6.191,9.335-9.286c0.896,0.692,1.19,1.379,0.885,2.063c-0.305,0.678-0.607,1.02-0.911,1.02l0.004-0.009C18.009,51.328,17.095,52.49,15.994,53.464z"/>
<path fill="#151515" d="M40.977,34.732c1.042,2.075,2.086,4.15,3.128,6.226c-1.038,0.009-2.075,0.015-3.113,0.021c-1.981-2.082-1.978-4.163-0.006-6.247H40.977z"/>
<path fill="#0D0D0D" d="M40.986,34.732c0.001,2.081,0.005,4.166,0.006,6.247c-1.042,0-2.084,0.003-3.128,0.003c0-2.084,0-4.169,0-6.253C38.905,34.732,39.945,34.732,40.986,34.732z"/>
<path fill="#161616" d="M34.739,47.226c-1.048-0.003-2.096-0.003-3.145-0.003C32.643,47.223,33.691,47.223,34.739,47.226z"/>
<path fill="#161616" d="M31.632,47.232c-1.059-0.003-2.118-0.003-3.179-0.006C29.513,47.229,30.573,47.229,31.632,47.232z"/>
<path fill="#1B1B1B" d="M28.482,50.344c-1.029,0.004-2.056,0.007-3.083,0.01c1.03-1.044,2.057-2.091,3.085-3.134C28.483,48.26,28.483,49.301,28.482,50.344z"/>
<path fill="#161616" d="M19.11,50.366c0.008-1.028,0.015-2.057,0.026-3.085c1.035,1.028,2.069,2.054,3.104,3.079C21.195,50.363,20.153,50.363,19.11,50.366z"/>
<path fill="#060606" d="M78.488,56.604c2.086,0.003,4.172,0.006,6.256,0.009c1.039,1.041,2.078,2.081,3.117,3.119c-1.044,1.047-2.087,2.091-3.131,3.137c-2.362,1.542-4.79,2.945-7.55,3.669c-1.978-0.195-3.55-1.096-4.72-2.698C71.208,58.707,74.073,57.009,78.488,56.604z"/>
<path fill="#0F0F0F" d="M75.355,75.366c-0.006-1.047-0.014-2.094-0.021-3.137c-1.38-2.734-0.559-4.578,2.268-5.615c1.709,0.231,3.044,1.062,4.005,2.496C79.522,71.194,77.439,73.282,75.355,75.366z"/>
<path fill="#121212" d="M81.606,69.11c-1.04,0-2.079,0-3.12,0c-1.114-0.77-1.883-1.785-2.257-3.095c0.494-1.242,1.239-2.301,2.275-3.152c2.075,0.003,4.151,0.003,6.226,0.006C83.689,64.951,82.647,67.029,81.606,69.11z"/>
<path fill="#030303" d="M50.359,81.607l0.002,0.003L50.359,81.607z"/>
<path fill="#0D0D0D" d="M34.73,56.61c1.039,0.003,2.078,0.006,3.117,0.009c2.573,2.075,2.01,4.157,0.011,6.241h0.001c-1.042,1.477-2.084,1.404-3.126,0c-3.122,0.006-6.244,0.012-9.366,0.021c-0.003-1.05-0.005-2.1-0.006-3.146c0.092-0.54,0.185-1.077,0.276-1.614c1.079-0.253,2.032-0.741,2.841-1.505l0.014-0.018c1.041,0.006,2.081,0.009,3.122,0.012C32.653,57.825,33.691,57.766,34.73,56.61z"/>
<path fill="#111111" d="M19.12,69.143c-0.003-1.053-0.008-2.105-0.011-3.158c2.089-1.044,4.178-2.088,6.268-3.131C23.292,64.951,21.206,67.048,19.12,69.143z"/>
<path fill="#0D0D0D" d="M25.361,59.735c-1.042-1.044-2.084-2.084-3.126-3.128l-0.008,0.003c1.047-1.047,2.094-1.047,3.141,0l-0.009-0.003c0.905,0.695,1.206,1.392,0.905,2.087c-0.301,0.696-0.601,1.044-0.905,1.044L25.361,59.735z"/>
<path fill="#0D0D0D" d="M9.733,65.988c0.003-1.034,0.006-2.069,0.009-3.101C9.867,63.923,9.864,64.954,9.733,65.988z"/>
<path fill="#191919" d="M56.599,44.098c-2.08-0.021-4.158-0.042-6.238-0.064c-1.012-4.147-2.023-8.295-3.035-12.442c2.016,0,4.028,0,6.041,0.003c1.091,3.134,2.184,6.271,3.274,9.409c0.993,0.702,1.317,1.395,0.976,2.078C57.276,43.759,56.937,44.098,56.599,44.098z"/>
<path fill="#111111" d="M37.858,62.86c-0.003-2.078-0.006-4.159-0.011-6.241l0.017-0.018c0.91-1.16,1.941-2.197,3.101-3.107C39.93,56.616,38.894,59.738,37.858,62.86z"/>
<path fill="#161616" d="M40.965,53.494c-1.033,1.038-2.066,2.072-3.101,3.107c-0.001-1.038-0.003-2.072-0.003-3.11C38.896,53.491,39.93,53.491,40.965,53.494z"/>
<path fill="#080808" d="M40.983,47.235h0.003H40.983z"/>
<path fill="#111111" d="M34.733,62.86c1.042,0,2.084,0,3.126,0c0,1.041,0,2.084,0,3.125h-1.563h-1.563C34.735,64.944,34.735,63.901,34.733,62.86z"/>
<path fill="#111111" d="M50.352,47.254c0,1.025-0.003,2.048-0.008,3.073C50.223,49.301,50.225,48.276,50.352,47.254z"/>
<path fill="#080808" d="M56.599,44.098c0.009-1.032,0.024-2.063,0.042-3.094c6.238-2.097,12.475-4.19,18.712-6.287c-3.125,4.172-6.25,8.344-9.375,12.519c-1.033,0-2.067,0-3.101,0c-3.118,1.022-4.471-1.504-6.272-3.122L56.599,44.098z"/>
<path fill="#131313" d="M72.236,47.229c-0.003,2.084-0.005,4.168-0.006,6.256c-1.038,0.977-2.074,0.974-3.106-0.009c-0.016-1.054-0.031-2.104-0.046-3.156c-0.914-0.698-1.21-1.388-0.89-2.068c0.315-0.675,0.628-1.014,0.941-1.014C70.166,47.235,71.2,47.232,72.236,47.229z"/>
<path fill="#0F0F0F" d="M75.364,44.101c-1.047,1.047-2.094,2.094-3.139,3.137C73.27,46.195,74.317,45.148,75.364,44.101z"/>
<path fill="#0F0F0F" d="M78.488,40.973c-1.046,1.047-2.091,2.093-3.136,3.14C76.397,43.066,77.442,42.02,78.488,40.973z"/>
<path fill="#020202" d="M81.619,31.601c-0.01,1.032-0.019,2.06-0.026,3.088C81.478,33.661,81.488,32.63,81.619,31.601z"/>
<path fill="#020202" d="M69.13,47.238c-0.016,1.028-0.034,2.057-0.052,3.085c-1.03-1.031-2.061-2.06-3.089-3.088C67.036,47.238,68.083,47.238,69.13,47.238z"/>
<path fill="#080808" d="M69.124,53.476c1.036,0.003,2.07,0.006,3.106,0.009c3.128-2.084,6.254-4.169,9.383-6.25c0.001,1.037,0.003,2.078,0.007,3.116c-1.043,2.084-2.087,4.168-3.132,6.253c-1.044,2.081-2.088,4.165-3.133,6.247c-0.656,1.416-1.764,2.166-3.32,2.258c-2.64-1.462-4.134-3.964-5.751-6.354c-0.101-0.711-0.2-1.425-0.301-2.14C67.03,55.569,68.077,54.522,69.124,53.476z"/>
<path fill="#0D0D0D" d="M56.605,44.113c2.09,1.041,4.181,2.082,6.272,3.122c-2.089,2.081-4.179,4.166-6.269,6.247l0.005,0.003C56.611,50.36,56.608,47.235,56.605,44.113z"/>
<path fill="#0D0D0D" d="M65.974,62.851c-1.039-1.041-2.079-2.079-3.118-3.116c1.043-1.041,2.085-2.081,3.127-3.119L65.98,56.61C67.39,58.691,68.949,60.772,65.974,62.851z"/>
<path fill="#0C0C0C" d="M56.609,53.482l0.005,0.003L56.609,53.482z"/>
<path fill="#1B1B1B" d="M37.771,72.308c-1.01,1.017-2.021,2.032-3.029,3.049C35.751,74.341,36.761,73.325,37.771,72.308z"/>
<path fill="#060606" d="M65.974,62.851c0.001-2.082,0.004-4.163,0.006-6.241c2.089,2.088,4.176,4.175,6.264,6.262c1.592,1.957,4.647,0.959,6.166,3.062c0.024,1.059,0.051,2.118,0.076,3.177c-1.05,1.041-2.102,2.078-3.15,3.119c-1.035,0-2.069,0.003-3.104,0.006c-1.042-1.044-2.086-2.088-3.128-3.131c-1.039-1.038-2.079-2.075-3.119-3.113C65.981,64.944,65.977,63.897,65.974,62.851z"/>
<path fill="#080808" d="M34.73,56.61l-1.558,0.098l-1.558-0.098C32.653,56.61,33.691,56.61,34.73,56.61z"/>
<path fill="#161616" d="M15.994,53.464c1.041-1.037,2.08-2.072,3.12-3.106C18.073,51.391,17.034,52.426,15.994,53.464z"/>
<path fill="#080808" d="M25.367,56.61c-1.047,0-2.094,0-3.141,0C23.274,56.61,24.32,56.61,25.367,56.61z"/>
<path fill="#080808" d="M25.358,59.738c0-1.044,0-2.087,0-3.131c1.041,0.003,2.08,0.003,3.12,0.009C27.438,57.657,26.399,58.698,25.358,59.738z"/>
<path fill="#020202" d="M78.41,65.933c-2.056-1.02-4.11-2.042-6.166-3.062c1.037-0.006,2.075-0.015,3.111-0.021c1.05,0.003,2.1,0.009,3.149,0.012C78.474,63.885,78.443,64.908,78.41,65.933z"/>
</svg>