<?xml version="1.0" encoding="utf-8"?>
<!DOCTYPE svg PUBLIC "-//W3C//DTD SVG 1.1//EN" "http://www.w3.org/Graphics/SVG/1.1/DTD/svg11.dtd">
<svg version="1.1" xmlns="http://www.w3.org/2000/svg" xmlns:xlink="http://www.w3.org/1999/xlink" x="0px" y="0px" width="100px" height="100px" viewBox="0 0 100 100" enable-background="new 0 0 100 100" xml:space="preserve">
<path fill="#133006" d="M59.96,68.625c-3.154,3.198-6.307,6.396-9.459,9.592c-2.474,0.689-4.836,0.711-6.883-1.147c-1.833-2.731-4.968-4.304-6.503-7.297c-0.63-2.378-0.656-4.81-0.603-7.242c0.021-1.608,0.331-3.167,0.92-4.663c0.905-1.333,2.109-2.313,3.595-2.933c2.199-0.72,4.398-1.465,6.581-2.24c3.74-1.074,7.093-3.362,11.13-3.652c4.774,1.007,7.051,4.974,9.868,8.334c2.257,5.433-2.5,8.456-4.294,12.485C62.616,70.258,61.173,69.855,59.96,68.625z"/>
<path fill="#153507" d="M63.112,67.999c0.502-2.829,1.004-5.661,1.506-8.489c-2.762-7.212-15.965-8.161-11.706-19.587c0.978-1.666,2.351-2.804,4.17-3.454c15.28,1.227,17.755,4.522,19.351,25.714c-0.684,2.023-2.067,3.271-4.15,3.744c-1.081,0.858-2.165,1.716-3.248,2.573C66.851,70.798,64.83,71.197,63.112,67.999z"/>
<path fill="#21520B" d="M28.665,60.807c-2.146,3.595-4.292,7.192-6.439,10.787l0.385,0.034c-2.117-1.267-4.233-2.53-6.349-3.794l0.119,0.297c-0.142-5.176-0.284-10.355-0.425-15.531c1.152-0.894,2.159-1.925,3.001-3.121c1.013-2.085,2.472-3.599,4.924-3.852c1.524,0.003,2.956,0.366,4.318,1.041c1.804,1.422,3.652,2.79,4.509,5.053c0.32,1.545,0.447,3.095,0.383,4.67c-0.102,1.663-0.792,3.021-2.07,4.083C30.234,60.587,29.45,60.696,28.665,60.807z"/>
<path fill="#1D4A0A" d="M16.359,47.711c-2.738,6.977-5.475,13.956-8.212,20.936C7.19,68.522,6.232,68.4,5.275,68.274c2.595-10.232,5.191-20.462,7.786-30.691c0.917-0.009,1.834-0.015,2.751-0.024C20.612,40.695,22.273,43.997,16.359,47.711z"/>
<path fill="#1F4F0B" d="M28.665,60.807l-0.142,0.28c0.827-2.108,1.488-4.284,2.655-6.247c0.894-1.245,2.046-2.17,3.455-2.777c0.75-0.042,1.501-0.088,2.252-0.134c1.517,0.269,2.779,1.001,3.813,2.133c0.428,1.483,0.302,2.918-0.376,4.307c-0.537,1.406-0.804,2.862-0.76,4.37c0.008,2.24-0.134,4.495,0.556,6.68c0.687,1.35,1.186,2.762,1.468,4.252c-1.417,3.39-1.315,7.629-5.353,9.545c-1.596-0.121-2.855-0.817-3.729-2.176C31.224,74.295,29.946,67.551,28.665,60.807z"/>
<path fill="#3C9814" d="M72.33,19.07c5.067,2.033,10.133,4.062,15.201,6.095c1.75,2.359,0.575,4.443-0.618,6.53c-1.814,1.636-3.77,3.04-6.12,3.818c-2.48,0.36-4.918,0.305-7.286-0.628c-2.14-1.401-3.892-3.152-5.069-5.444c-0.679-2.509-0.675-5.017-0.06-7.535C69.219,20.294,70.535,19.351,72.33,19.07z"/>
<path fill="#378A12" d="M47.685,11.225c2.434-2.161,4.866-4.318,7.3-6.476c0.546,1.565,1.093,3.131,1.638,4.697l0.098,0.152c-0.167,3.125-0.333,6.253-0.499,9.378c-0.005,1.538-0.591,2.787-1.849,3.699c-2.238,0.646-4.387,0.521-6.416-0.708c-2.299-2.133-3.972-4.557-3.697-7.889C45.096,12.756,46.221,11.786,47.685,11.225z"/>
<path fill="#0A1803" d="M94.091,43.613c-1.193,3.213-2.386,6.427-3.578,9.643c-1.975,2.356-3.662,4.993-6.407,6.61c-1.564,0.485-3.079,0.376-4.559-0.329c-1.303-0.943-2.394-2.082-3.283-3.422c-0.943-1.342-1.571-2.807-1.893-4.415c-0.036-1.682,0.401-3.22,1.315-4.633c3.42-3.613,6.703-7.44,12.279-7.535C90.568,40.048,92.333,41.827,94.091,43.613z"/>
<path fill="#153607" d="M60.375,86.304c0.401-2.246,0.803-4.495,1.202-6.741c1.343,0.241,2.684,0.485,4.025,0.727c-0.407,2.246-0.816,4.492-1.224,6.738C63.043,86.786,61.71,86.545,60.375,86.304z"/>
<path fill="#173A07" d="M84.345,56.592c2.059-1.114,4.117-2.225,6.171-3.336c0.259,5.18,0.523,10.361,0.785,15.54c-1.213,2.813-2.459,5.591-6.267,5.371c-3.432-1.02-4.392-3.727-4.637-6.906C80.015,63.077,80.939,59.375,84.345,56.592z"/>
<path fill="#388D13" d="M55.667,19.446l0.555-0.47c5.369,0.031,10.738,0.064,16.108,0.095c0.108,0.8,0.165,1.599,0.169,2.405c-4.113,4.092-8.054,8.542-14.802,7.275C53.466,26.425,52.257,23.438,55.667,19.446z"/>
<path fill="#132F06" d="M72.282,65.927c0.046-1.184,0.092-2.368,0.138-3.552c1.283-0.94,2.712-1.523,4.251-1.719c6.769,3.309,4.956,9.748,5.583,15.287c-0.195,0.701-0.407,1.409-0.619,2.121C78.517,74.018,75.4,69.974,72.282,65.927z"/>
<path fill="#133006" d="M94.091,43.613c-1.901,0.015-3.803,0.034-5.704,0.052c-3.001-1.911-5.718-4.074-6.879-7.639c0.092-1.413,0.45-2.752,1.074-4.022c0.583-1.276,1.294-2.478,2.151-3.595c0.933-1.08,1.865-2.164,2.798-3.244C89.718,31.314,91.904,37.463,94.091,43.613z"/>
<path fill="#133106" d="M85.05,66.754c2.083,0.681,4.165,1.361,6.25,2.042c-3.22,3.088-6.442,6.177-9.663,9.265c-0.002,0.004,0.153,0.217,0.153,0.217C80.967,73.896,75.055,68.075,85.05,66.754z"/>
<path fill="#3A9213" d="M18.465,28.399c0.333-2.957,0.664-5.914,0.997-8.871c1.91-0.83-0.9,0.015,1.122-0.488c0.406-0.104,0.111,0.186-0.87,0.906c5.11,1.779,10.222,3.559,15.332,5.334c0.49,0.748,0.98,1.492,1.47,2.237c-1.045,5.643-5.301,6.277-9.914,6.354c-2.494-0.842-5.222-1.105-7.309-2.958C19.017,30.078,18.741,29.239,18.465,28.399z"/>
<path fill="#1D4A0A" d="M23.839,50.076L24.021,50c-1.431,0.675-2.936,1.053-4.515,1.135c-3.628-3.918,0.18-11.425-6.66-13.791l0.216,0.238c0.08-1.078,0.157-2.155,0.237-3.232c1.239-1.352,2.737-2.292,4.497-2.82c1.817-0.186,3.625-0.14,5.428,0.144c1.77,0.586,3.403,1.428,4.851,2.557C29.979,40.411,33.641,47.024,23.839,50.076z"/>
<path fill="#163807" d="M32.503,81.039c0.525,0.007,1.05,0.04,1.572,0.098c3.317-0.86,2.637-6.152,6.783-6.109c1.785,0.309,3.047,1.279,3.801,2.927c1.1,2.466,1.028,4.98,0.358,7.528c-0.917,1.66-2.321,2.473-4.213,2.438c-2.878,0.559-5.755,1.12-10.675,2.078C31.218,85.892,31.86,83.466,32.503,81.039z"/>
<path fill="#368712" d="M47.685,11.225l-0.31-0.531c-0.91,1.895-1.04,3.977-1.451,5.991c-2.011,1.425-3.687,1.294-4.881-1.056c-3.009-0.305-6.018-0.613-9.027-0.921c0.107-1.16,0.214-2.323,0.319-3.482C37.451,11.225,42.569,11.225,47.685,11.225z"/>
<path fill="#388B13" d="M41.043,15.628c0.742,0.092,1.486,0.098,2.231,0.019c1.791,0.681,3.067,1.901,3.83,3.662c0.748,1.73,0.94,3.519,0.574,5.371c-0.776,1.746-2.008,3.058-3.699,3.939c-4.155,1.355-7.228,0.043-9.297-3.756l0.363,0.418C37.044,22.065,39.043,18.848,41.043,15.628z"/>
<path fill="#040A01" d="M41.152,84.128c-0.034-2.021-0.069-4.041-0.104-6.061c0.003-4.276,2.066-5.286,5.794-3.656c1.219,1.27,2.438,2.536,3.659,3.806c0.06,0.54,0.098,1.077,0.114,1.62c-1.755,2.661-1.337,6-2.74,8.774C43.434,90.414,42.954,86.279,41.152,84.128z"/>
<path fill="#20500A" d="M41.152,84.128c1.761,0.668,3.521,1.333,5.281,2.002c1.842-1.206,3.575-1.068,5.202,0.415c-0.132,2.249-0.263,4.498-0.394,6.747c0.598,1.367,0.265,2.5-0.875,3.421c-3.188-2.933-6.375-5.862-9.563-8.792C40.92,86.658,41.036,85.392,41.152,84.128z"/>
<path d="M12.845,37.344c2.021,4.336,4.043,8.673,6.065,13.009c1.149,0.65,1.48,1.157,1,1.529c-0.382,0.299-0.824,0.452-1.337,0.452c-0.883-0.021-1.756,0.066-2.618,0.265c0.132-1.635,0.267-3.271,0.402-4.897C15.189,44.257,14.017,40.799,12.845,37.344z"/>
<path fill="#1F4D0A" d="M22.611,71.628c0,0-0.368-0.03-0.377-0.03c0.442,2.063,0.893,4.126,1.343,6.188c-1.061-0.119-2.12-0.238-3.178-0.356C21.135,75.494,21.872,73.56,22.611,71.628z"/>
<path fill="#0B1A03" d="M63.112,67.999c1.975,0.168,3.949,0.336,5.923,0.504c-3.025,0.04-6.051,0.082-9.077,0.122C61.01,68.417,62.06,68.21,63.112,67.999z"/>
<path fill="#1F4D0A" d="M16.38,68.131c0,0-0.124-0.297-0.121-0.297c-0.392,0.3-0.786,0.602-1.179,0.9C15.514,68.533,15.947,68.332,16.38,68.131z"/>
<path d="M20.654,34.726c-1.474-0.128-2.949-0.256-4.425-0.385c-2.147-2.304-1.983-4.446,0.455-6.43c0.597,0.153,1.19,0.314,1.781,0.488c0.314-0.57,0.795-0.821,1.44-0.757C21.646,29.846,22.771,32.117,20.654,34.726z"/>
<path fill="#133006" d="M51.635,86.545c-1.73-0.135-3.461-0.266-5.196-0.406c1.388-2.105,2.782-4.202,4.176-6.299C50.954,82.071,51.294,84.308,51.635,86.545z"/>
<path fill="#1F4F0B" d="M16.684,27.911c-0.151,2.146-0.304,4.288-0.455,6.43c-0.977,0.006-1.955,0.009-2.933,0.009C14.426,32.205,15.555,30.06,16.684,27.911z"/>
<path fill="#368712" d="M19.713,19.946c0,0-0.204-0.421-0.227-0.418c-0.024,0,0.67-0.187,0.67-0.187L19.713,19.946z"/>
<path fill="#133006" d="M50.366,96.713c0.289-1.138,0.577-2.276,0.87-3.418C50.949,94.434,50.658,95.572,50.366,96.713z"/>
<path fill="#1C4609" d="M62.598,39.761c-1.979,1.553-3.958,3.107-5.937,4.66c-2.813,6.87-3.857,14.261-6.279,21.247c-1.627-2.112-3.255-4.227-4.881-6.339c-7.617-4.229-5.168-10.593-3.548-16.781c0.646-1.733,1.549-3.32,2.715-4.758c3.09-2.018,6.114-4.169,9.952-4.55c1.912,0.046,3.63,0.644,5.154,1.8C61.129,36.368,62.07,37.942,62.598,39.761z"/>
<path d="M50.382,65.668c2.094-7.083,4.186-14.166,6.279-21.247c2.648,5.03,5.299,10.059,7.954,15.088c-2.411-0.834-4.826-1.667-7.829-2.701C54.521,59.942,52.451,62.805,50.382,65.668z"/>
<path d="M43.045,43.729c0.815,5.2,1.628,10.4,2.449,15.601c-1.596,0.662-3.198,1.321-4.802,1.983c-1.002,0.876-2.059,0.9-3.16,0.199c0.13-1.725,0.259-3.452,0.391-5.176c-0.947-4.639-3.299-9.366,0.836-13.697C40.439,41.98,41.872,42.346,43.045,43.729z"/>
<path fill="#22550B" d="M46.842,74.411c-1.932,1.218-3.862,2.438-5.792,3.656c-0.676-0.144-1.356-0.22-2.046-0.232c-3.861-1.919-2.408-4.486-0.861-7.062c-0.055-0.564-0.133-1.123-0.233-1.679c0.712-2.798,1.762-2.933,3.148-0.399C42.986,70.603,44.913,72.507,46.842,74.411z"/>
<path d="M41.057,68.695c-1.048,0.131-2.097,0.259-3.146,0.394c-0.125-2.563-0.25-5.13-0.374-7.696c1.062-0.324,2.148-0.422,3.251-0.32C40.878,63.614,40.969,66.153,41.057,68.695z"/>
<path fill="#1C4609" d="M40.788,61.072c-1.083,0.106-2.167,0.213-3.251,0.32c0,0-0.003,0.115-0.005,0.119c1.051-0.067,2.104-0.138,3.159-0.202C40.692,61.313,40.788,61.072,40.788,61.072z"/>
<path d="M62.598,39.761c-1.954-0.335-3.909-0.674-5.863-1.01c-1.005-2.176-2.969-2.505-5.042-2.624c-2.827-0.128-5.385-0.873-7.254-3.187c-1.222-1.849-1.413-3.781-0.48-5.807c0.186-0.663,0.372-1.325,0.56-1.987c-0.114-1.175-0.227-2.35-0.342-3.525c4.202-4.791,8.341,0.006,12.511,0.083c5.271-0.076,10.542-0.152,15.813-0.229c0.423,2.277,0.846,4.553,1.267,6.827c-0.755,1.029-1.001,2.176-0.8,3.437c0.434,0.464,0.858,0.916,1.284,1.376c0.893,0.921,1.713,1.892,2.367,2.954c2.927,5.478-3.285,12.002,1.909,17.191l-0.067-0.235c1.673,3.217,2.424,6.345-0.891,9.073c-0.678,0.106-1.355,0.213-2.034,0.323l-1.558,0.024l-1.559-0.067C69.145,54.837,65.872,47.299,62.598,39.761z"/>
<path d="M43.045,43.729l-0.244-0.064c-5.141,2.484-9.018,6.906-14.224,9.29c-1.58-0.958-3.159-1.917-4.736-2.878c-1.162-5.154-2.323-10.309-3.482-15.463c1.387-2.438,2.979-4.691,5.559-6.027c2.922-1.242,5.844-2.484,8.765-3.723c3.279,0.094,6.557,0.189,9.835,0.284l-0.384-0.388c1.988,2.204,0.104,4.831,0.787,7.178c0.656,1.105,1.543,1.978,2.634,2.646c2.505,2.332,1.518,4.401-0.473,6.396C45.737,41.895,44.391,42.81,43.045,43.729z"/>
<path fill="#1C4609" d="M28.577,52.954c0.535-2.856,1.072-5.713,1.744-9.29c4.578,0,8.528,0,12.48,0c-1.626,4.224-3.252,8.447-4.878,12.671l0.192,0.027c-0.363-0.935-0.857-1.523-1.485-1.765c-1.291,0.324-2.409,0.998-3.508,1.712l0.355-0.137c-1.572,1.205-3.182,1.257-4.825,0.149C28.627,55.2,28.601,54.077,28.577,52.954z"/>
<path d="M28.653,56.323c1.608-0.052,3.215-0.101,4.825-0.149c-1.651,1.636-3.302,3.274-4.955,4.913C28.568,59.5,28.61,57.91,28.653,56.323z"/>
<path fill="#0E2405" d="M18.573,52.335c0.085-0.666,0.2-1.328,0.34-1.984c1.701-0.115,3.404-0.231,5.107-0.351C22.205,50.778,20.389,51.557,18.573,52.335z"/>
<path d="M38.142,70.773c0.287,2.353,0.572,4.706,0.861,7.062c-1.644,1.099-3.286,2.2-4.929,3.302C35.431,77.683,36.786,74.228,38.142,70.773z"/>
<path d="M33.122,56.311c1.663,0.019,3.328,0.034,4.991,0.053C36.45,56.345,34.787,56.329,33.122,56.311z"/>
<path fill="#20500A" d="M71.989,34.76c-1.037-0.26-2.073-0.516-3.109-0.772c-0.946-1.065-3.179-0.845-3.009-3.021c2.631-0.888,5.261-1.776,7.894-2.665c0.578,0.836,1.154,1.673,1.731,2.506c1.448,1.224,1.742,2.679,0.882,4.37C74.799,36.261,73.336,36.121,71.989,34.76z"/>
<path d="M75.35,34.36c0.049-1.184,0.098-2.368,0.146-3.552c2,0.055,4.001,0.11,6.001,0.165c0.565,0.674,1.13,1.349,1.694,2.026c0.698,2.558,1.664,5.158-1.145,7.153C77.091,41.37,75.914,38.22,75.35,34.36z"/>
<path d="M84.733,28.409c0.07,1.117,0.143,2.234,0.213,3.348c-0.678,0.613-1.356,1.227-2.034,1.837c-0.417-0.812-0.833-1.626-1.25-2.438c0,0-0.163-0.183-0.165-0.183C82.576,30.118,83.655,29.263,84.733,28.409z"/>
<path fill="#3A9213" d="M56.686,21.704c-4.17-0.027-8.341-0.055-12.511-0.083c0.058-0.977,0.085-1.953,0.085-2.933c2.086-2.09,4.152-1.755,6.206,0.052c1.735,0.232,3.471,0.464,5.203,0.699C56.049,20.181,56.388,20.932,56.686,21.704z"/>
<path d="M50.467,18.741c-2.067-0.018-4.136-0.034-6.206-0.049c-0.328-1.016-0.658-2.029-0.987-3.045c1.367-1.651,2.734-3.302,4.102-4.953C48.405,13.376,49.437,16.059,50.467,18.741z"/>
<path d="M56.721,9.598c-0.321,0.021-0.643,0.046-0.963,0.067c0.289-0.076,0.579-0.153,0.868-0.223C56.623,9.445,56.721,9.598,56.721,9.598z"/>
<path fill="#122D06" d="M75.35,34.36c2.092,0.982,4.183,1.965,6.273,2.948c1.471,0.421,2.41,1.37,2.822,2.841c-0.44,3.854-3.903,5.954-5.348,9.225c-0.191,1.294-0.382,2.591-0.571,3.886c-2.179-6.168-4.357-12.336-6.537-18.5C73.109,34.625,74.229,34.494,75.35,34.36z"/>
<path d="M85.05,66.754c-1.087,3.843-2.173,7.685-3.26,11.523c-2.086-5.285-4.17-10.571-6.256-15.856l-0.131,0.186c2.542-1.775,3.407-5.444,6.915-6.131c0.678,0.037,1.354,0.076,2.028,0.113C84.58,59.98,84.814,63.367,85.05,66.754z"/>
<path d="M79.098,49.374c0.866-3.045,1.733-6.091,2.6-9.14c2.417-1.145,0.612-4.693,3.252-5.71c1.145,3.046,2.287,6.095,3.435,9.14C85.291,45.569,82.193,47.47,79.098,49.374z"/>
<path fill="#163807" d="M82.318,56.476c-2.304,2.042-4.609,4.087-6.915,6.131c1.018-3.191,2.037-6.387,3.056-9.582C79.746,54.175,81.032,55.325,82.318,56.476z"/>
<path fill="#183E08" d="M84.949,34.524c-1.084,1.904-2.169,3.809-3.252,5.713c0.002-0.977-0.022-1.953-0.073-2.927c0.013-2.054,0.024-4.104,0.038-6.155c1.094,0.198,2.188,0.397,3.284,0.598C84.922,32.681,84.922,33.603,84.949,34.524z"/>
<path fill="#1F4F0B" d="M25.917,28.586c-1.853,2.005-3.705,4.01-5.558,6.021c-0.001,0.006,0.298,0.11,0.296,0.113c-0.25-2.353-0.5-4.715-0.751-7.077C21.91,27.957,23.914,28.272,25.917,28.586z"/>
<path fill="#388B13" d="M47.081,40.979c-1.8-1.315-3.601-2.627-5.401-3.943c-3.947-4.935,1.46-4.229,3.391-5.625c0.624,0.107,1.248,0.21,1.874,0.314c2.466,0.769,4.932,1.535,7.399,2.301c0.759,1.443,0.494,2.603-0.947,3.439C51.291,38.638,49.186,39.807,47.081,40.979z"/>
<path fill="#1D4A0A" d="M53.395,37.466c0.315-1.147,0.632-2.292,0.946-3.439c0.798,1.574,1.596,3.149,2.393,4.724C55.62,38.324,54.508,37.894,53.395,37.466z"/>
<path fill="#378A12" d="M42.595,31.122c0.513-2.121,1.025-4.242,1.537-6.363c0.938,2.322,1.875,4.645,2.812,6.967l0.363-0.415C45.679,32.685,44.075,33.45,42.595,31.122z"/>
<path fill="#378A12" d="M65.871,30.966c1.002,1.007,2.006,2.014,3.009,3.021c-1.793,0-3.586,0-7.204,0C64.038,32.285,64.954,31.626,65.871,30.966z"/>
<path fill="#1E4B0A" d="M42.595,31.122c1.57,0.061,3.14,0.125,4.712,0.189c-1.877,1.907-3.752,3.818-5.627,5.725c-1.143-0.705-2.286-1.407-4.587-2.823C39.533,32.84,41.064,31.982,42.595,31.122z"/>
</svg>