<?xml version="1.0" encoding="utf-8"?>
<!DOCTYPE svg PUBLIC "-//W3C//DTD SVG 1.1//EN" "http://www.w3.org/Graphics/SVG/1.1/DTD/svg11.dtd">
<svg version="1.1" xmlns="http://www.w3.org/2000/svg" xmlns:xlink="http://www.w3.org/1999/xlink" x="0px" y="0px" width="100px" height="100px" viewBox="0 0 100 100" enable-background="new 0 0 100 100" xml:space="preserve">
<path fill="#3E3A39" d="M93.297,55.192c-1.862,7.334-3.726,14.667-5.589,22c-0.375-0.573-0.749-1.147-1.132-1.718c-0.243-1.358-0.297-2.726-0.178-4.099c1.046-5.315-0.058-11.081,3.223-15.954C90.789,54.447,92.015,54.374,93.297,55.192z"/>
<path fill="#5E5C5C" d="M9.502,76.567c-0.885-8.191-1.771-16.382-2.656-24.573c1.547-0.21,2.864,0.244,3.958,1.364c0.836,1.255,1.416,2.619,1.813,4.071c0.821,5.216,1.036,10.419-0.444,15.573C11.527,74.369,10.633,75.556,9.502,76.567z"/>
<path fill="#363232" d="M93.209,24.022c0.038,7.251,0.074,14.502,0.112,21.753c-0.792,1.037-1.84,1.55-3.147,1.538c-1.236-0.339-2.248-1.014-3.043-2.018c-0.432-1.196-0.595-2.426-0.526-3.689c0.355-3.11,0.686-6.226,0.762-9.372c0.081-1.983,0.431-3.903,1.153-5.755C89.561,24.665,90.803,23.219,93.209,24.022z"/>
<path fill="#7D7D7D" d="M69.044,11.381c1.046-0.146,2.041,0.012,2.988,0.482c0.886,0.937,1.42,2.048,1.605,3.33c0.35,1.263,0.325,2.521-0.009,3.787c-0.583,1.193-1.424,2.161-2.52,2.914c-1.257,0.485-2.551,0.635-3.89,0.473c-3.502-1.218-5.692-3.46-5.746-7.373c0.404-1.321,1.104-2.462,2.083-3.439c0.597-0.324,1.201-0.638,1.802-0.956C66.736,10.148,67.966,10.411,69.044,11.381z"/>
<path fill="#8D8D8D" d="M56.652,5.116c1.036-0.122,2.024,0.046,2.963,0.5c0.354,0.498,0.708,0.992,1.062,1.489c-0.06,0.61-0.122,1.215-0.174,1.828c-0.817,2.411-2.119,4.48-4.211,6c-1.221,0.492-2.438,0.51-3.661-0.015c-0.866-0.986-1.457-2.115-1.797-3.384c-0.189-1.306-0.162-2.606,0.085-3.906c0.244-0.613,0.502-1.218,0.753-1.831c0.457-0.473,0.923-0.943,1.387-1.413C54.398,3.926,55.589,4.207,56.652,5.116z"/>
<path fill="#818081" d="M34.264,8.818c1.02-0.192,2.04-0.384,3.061-0.577c0.577-0.394,1.155-0.791,1.733-1.187c0.667,0.22,1.332,0.442,1.999,0.668c0.584,1.339,0.65,2.701,0.209,4.095c-1.016,1.984-2.562,3.391-4.619,4.242c-2.201,0.562-4.231,0.277-6.012-1.224c-0.682-1.373-0.531-2.652,0.455-3.833l-0.137,0.37C32.099,10.572,33.204,9.724,34.264,8.818z"/>
<path fill="#494645" d="M53.223,95.289c-3.152-0.852-6.305-1.706-9.458-2.558c0.157-0.604,0.313-1.209,0.465-1.815c0.734-1.041,1.669-1.841,2.831-2.378c2.807-0.342,4.787,0.943,6.268,3.198C53.826,92.933,53.765,94.117,53.223,95.289z"/>
<path fill="#444140" d="M90.526,45.897c0.931-0.046,1.863-0.086,2.795-0.122c-0.009,3.14-0.017,6.277-0.024,9.417c-0.769,0.007-1.536,0.016-2.306,0.028c-1.892-0.073-3.191-1.093-4.188-2.606c-0.361-1.117-0.373-2.243-0.052-3.375C87.54,47.599,89.069,46.79,90.526,45.897z"/>
<path fill="#7E7E7E" d="M15.531,18.172c0.958-0.421,1.962-0.61,3.009-0.568c0.541-0.372,1.081-0.745,1.621-1.117c0.64,0.152,1.279,0.311,1.919,0.467c0.74,1.163,0.938,2.42,0.685,3.763c-0.73,1.938-1.968,3.458-3.738,4.541c-1.257,0.498-2.566,0.702-3.917,0.641c-1.321-0.305-2.469-0.931-3.413-1.91c-0.563-1.337-0.275-2.493,0.752-3.488l-0.25,0.256C13.352,19.95,14.463,19.087,15.531,18.172z"/>
<path fill="#4A4746" d="M9.42,52.003c-0.857,0.003-1.715,0-2.574-0.01c0.003-3.109,0.006-6.219,0.007-9.329c1.292-0.388,2.454-0.174,3.468,0.745c1.584,2.328,1.694,4.761,0.521,7.287C10.37,51.133,9.896,51.57,9.42,52.003z"/>
<path fill="#484444" d="M93.209,24.022c-0.847,1.016-1.694,2.032-2.541,3.048c-1.051,0.846-2.135,0.849-3.248,0.125c-0.821-0.946-1.307-2.039-1.464-3.284c0.127-0.598,0.258-1.2,0.388-1.798c0.417-0.448,0.836-0.897,1.256-1.346C89.469,21.852,91.34,22.935,93.209,24.022z"/>
<path fill="#7A7979" d="M81.589,17.607c1.043-0.03,2.042,0.162,2.997,0.58c0.896,0.885,1.315,1.968,1.323,3.223c-0.051,1.254-0.469,2.359-1.314,3.302c-1.227,0.327-2.431,0.269-3.625-0.159c-1.7-0.949-2.91-2.325-3.618-4.144c-0.046-0.625-0.084-1.251-0.126-1.88c0.318-0.54,0.642-1.081,0.964-1.621C79.464,16.453,80.59,16.719,81.589,17.607z"/>
<path fill="#494646" d="M6.881,39.558c-0.017-3.122-0.035-6.244-0.053-9.366c1.285-0.452,2.438-0.229,3.471,0.662c1.203,1.639,1.607,3.485,1.479,5.484c-0.239,1.297-0.761,2.475-1.548,3.534C9.033,40.651,7.911,40.59,6.881,39.558z"/>
<path fill="#504D4D" d="M9.229,30.168c-0.801,0.006-1.601,0.012-2.402,0.024c0.019-2.081,0.037-4.16,0.053-6.238c1.882-1.81,3.763-1.941,5.646-0.003L12.527,24c0.89,0.894,1.14,1.941,0.754,3.146c-0.568,1.056-1.343,1.932-2.318,2.633C10.388,29.911,9.809,30.04,9.229,30.168z"/>
<path fill="#7C7B7C" d="M62.67,8.278c1.063,0.22,2.124,0.442,3.187,0.662c0.155,0.592,0.313,1.188,0.468,1.779l-0.874,0.918c-3.472,1.926-6.025,1.794-6.545-2.911l0.897-0.562C60.798,7.203,61.753,7.24,62.67,8.278z"/>
<path fill="#757575" d="M21.877,15.065c0.928-0.427,1.901-0.62,2.922-0.58c0.587-0.403,1.176-0.806,1.762-1.212c0.653,0.284,1.308,0.568,1.961,0.854c0.595,1.401,0.421,2.701-0.519,3.897c-1.937,1.318-3.877,1.581-5.821,0.015l-0.325-0.537c-0.662-0.549-0.879-1.093-0.653-1.633C21.43,15.333,21.655,15.065,21.877,15.065z"/>
<path fill="#878788" d="M72.089,17.863c-0.047-1.086-0.096-2.173-0.145-3.259c1.091-1.15,2.217-1.184,3.378-0.106c1.052-0.049,2.061,0.134,3.026,0.549l0.937,1.199l-0.781,1.303l-0.725,0.271C75.896,19.53,74,19.603,72.089,17.863z"/>
<path fill="#595757" d="M12.527,23.951c-1.881,0.003-3.763,0.003-5.646,0.003c1.857-1.15,3.714-2.301,5.57-3.451C12.475,21.651,12.501,22.801,12.527,23.951z"/>
<path fill="#8F8F8F" d="M46.749,2.522c2.208,0.003,4.416,0.006,6.622,0.006c0.612,0.607,0.798,1.193,0.559,1.761c-0.235,0.559-0.459,0.839-0.678,0.839l-0.128,0.11c-1.723,1.733-3.702,1.877-5.854,0.943c-0.446-0.555-0.891-1.117-1.337-1.675C46.206,3.846,46.477,3.184,46.749,2.522z"/>
<path fill="#757575" d="M40.629,5.684c0.928-0.421,1.901-0.614,2.92-0.574c1.021-1.025,2.043-1.029,3.07-0.009l0.493,0.083c0.392,0.506,0.782,1.01,1.175,1.517c-0.246,1.321-0.966,2.31-2.095,3.018c-1.955,0.623-3.764,0.488-5.307-1.025L40.657,8.2c-0.687-0.553-0.92-1.108-0.7-1.669C40.179,5.965,40.401,5.684,40.629,5.684z"/>
<path fill="#3E3A39" d="M87.708,77.192c-2.081,1.047-4.161,2.091-6.242,3.138c-0.355-0.537-0.71-1.074-1.065-1.611c0.09-1.361,0.722-2.39,1.894-3.085c1.988-0.58,3.786-0.403,5.188,1.321L87.708,77.192z"/>
<path fill="#3D3938" d="M81.466,80.329c-2.083,1.041-4.166,2.084-6.249,3.128c-0.224-0.659-0.448-1.318-0.673-1.98c1.752-2.908,3.917-3.757,6.731-1.343L81.466,80.329z"/>
<path fill="#4A4747" d="M31.224,86.536c-2.078-1.053-4.156-2.103-6.234-3.155c0.558-0.418,1.117-0.836,1.674-1.258c2.286-0.399,4.08,0.251,5.171,2.411C31.631,85.203,31.428,85.868,31.224,86.536z"/>
<path fill="#3E3A39" d="M75.217,83.457c-2.086,1.038-4.171,2.075-6.257,3.113c-0.22-0.666-0.439-1.328-0.659-1.996c1.772-2.872,3.921-3.833,6.75-1.328L75.217,83.457z"/>
<path fill="#3E3A39" d="M68.96,86.571c-2.082,1.046-4.161,2.093-6.241,3.14c-0.355-0.543-0.711-1.086-1.066-1.63c0.108-1.36,0.725-2.407,1.929-3.088c2.008-0.562,3.814-0.363,5.212,1.379L68.96,86.571z"/>
<path fill="#3E3A39" d="M62.719,89.71c-2.086,1.035-4.173,2.072-6.259,3.11c-0.247-0.653-0.493-1.307-0.739-1.963c1.741-2.951,3.931-3.735,6.765-1.4L62.719,89.71z"/>
<path fill="#464342" d="M6.881,39.558c0.717-0.003,1.436,0.003,2.153,0.019c0.365,0.485,0.728,0.974,1.095,1.458c-0.328,0.513-0.659,1.022-0.99,1.535c-0.76,0.064-1.522,0.095-2.286,0.095C6.863,41.627,6.872,40.593,6.881,39.558z"/>
<path fill="#4E4B4A" d="M84.459,20.775c0.049-0.864,0.092-1.724,0.127-2.588c1.004,0.86,2.008,1.721,3.014,2.582l-0.073,0.122C86.45,22.27,85.429,22.23,84.459,20.775z"/>
<path fill="#595757" d="M15.531,18.172c-1.111,0.86-2.22,1.721-3.333,2.584C13.309,19.896,14.42,19.032,15.531,18.172z"/>
<path fill="#5C5A5A" d="M78.504,17.549c-0.203-0.824-0.255-1.66-0.155-2.502c1.08,0.854,2.16,1.709,3.24,2.56C80.56,17.594,79.532,17.576,78.504,17.549z"/>
<path fill="#5F5D5D" d="M21.877,15.065c0.058,0.815,0.052,1.633-0.019,2.441c-1.107,0.031-2.212,0.064-3.319,0.098C19.653,16.759,20.765,15.91,21.877,15.065z"/>
<path fill="#626060" d="M75.322,14.497c-1.126,0.033-2.252,0.067-3.378,0.104c-0.033-0.913-0.005-1.828,0.087-2.74C73.13,12.739,74.225,13.618,75.322,14.497z"/>
<path fill="#6A6969" d="M31.09,11.003c0.02,1.05,0.039,2.1,0.058,3.146c-0.632,1.111-1.526,1.392-2.678,0.839l-0.518-0.97c0.057-0.692,0.115-1.385,0.172-2.078C29.096,11.576,30.086,11.265,31.09,11.003z"/>
<path fill="#504D4D" d="M28.124,11.94c0.029,0.702-0.027,1.398-0.171,2.082c-1.053,0.152-2.104,0.308-3.154,0.464C25.907,13.636,27.015,12.788,28.124,11.94z"/>
<path fill="#545251" d="M66.324,10.719c-0.224-0.574-0.38-1.169-0.468-1.779c1.062,0.812,2.125,1.627,3.188,2.441C68.151,11.104,67.244,10.884,66.324,10.719z"/>
<path fill="#595757" d="M34.264,8.818c-1.103,0.849-2.206,1.7-3.31,2.551C32.056,10.521,33.161,9.669,34.264,8.818z"/>
<path fill="#575555" d="M62.67,8.278c-0.96-0.021-1.92-0.058-2.873-0.11c-0.284-0.836-0.347-1.685-0.182-2.551C60.635,6.505,61.652,7.393,62.67,8.278z"/>
<path fill="#5F5D5D" d="M40.629,5.684c0.06,0.839,0.07,1.681,0.03,2.518c-1.112,0.012-2.222,0.024-3.333,0.04C38.425,7.389,39.527,6.535,40.629,5.684z"/>
<path fill="#5C5A5A" d="M53.252,5.128c-0.061-0.873-0.021-1.739,0.119-2.6c1.093,0.864,2.186,1.724,3.279,2.588C55.518,5.119,54.386,5.122,53.252,5.128z"/>
<path fill="#4A4747" d="M9.502,76.567c-0.009-1.028,0.004-2.057,0.04-3.086c1.139-0.488,2.153-0.277,3.064,0.537c0.214,0.525,0.427,1.057,0.641,1.584c-0.25,0.513-0.5,1.025-0.752,1.538C11.457,77.155,10.461,76.966,9.502,76.567z"/>
<path fill="#504D4D" d="M46.619,5.101l-1.535-0.012L43.549,5.11c1.066-0.864,2.133-1.725,3.2-2.588C46.891,3.392,46.848,4.249,46.619,5.101z"/>
<path fill="#4C4848" d="M15.719,79.652c-1.074-0.836-2.148-1.675-3.224-2.512l0.029-0.055c0.875-1.074,1.945-1.267,3.181-0.699C16.515,77.47,16.559,78.559,15.719,79.652z"/>
<path fill="#444040" d="M15.719,79.652c-0.004-0.839-0.007-1.679-0.007-2.518c1.028-0.646,2.039-0.616,3.029,0.089c0.241,0.506,0.479,1.013,0.72,1.522c-0.24,0.507-0.479,1.017-0.72,1.522C17.685,80.292,16.679,80.088,15.719,79.652z"/>
<path fill="#444040" d="M21.935,82.777c-1.065-0.836-2.13-1.672-3.195-2.509l0.024-0.033c0.886-1.09,1.97-1.285,3.224-0.711C22.832,80.622,22.857,81.705,21.935,82.777z"/>
<path fill="#4A4747" d="M21.935,82.777c0.001-0.879,0.009-1.761,0.02-2.64c1.187-0.763,2.402-0.812,3.647-0.141c0.766,1.288,0.526,2.399-0.583,3.357l-0.027,0.028C23.972,83.18,22.953,82.978,21.935,82.777z"/>
<path fill="#4A4747" d="M34.466,89.027c-1.081-0.83-2.161-1.66-3.241-2.49l0.061-0.046c0.87-1.053,1.915-1.333,3.165-0.729C35.303,86.845,35.268,87.934,34.466,89.027z"/>
<path fill="#444040" d="M34.466,89.027c-0.005-0.897-0.012-1.791-0.024-2.688c1.069-0.559,2.086-0.445,3.058,0.238c0.24,0.507,0.476,1.013,0.714,1.52c-0.232,0.507-0.467,1.014-0.701,1.522C36.496,89.42,35.482,89.225,34.466,89.027z"/>
<path fill="#444040" d="M40.683,92.152c-1.057-0.845-2.113-1.688-3.171-2.533l0.119-0.125c0.951-0.97,2.033-1.102,3.232-0.516C41.668,90.082,41.608,91.142,40.683,92.152z"/>
<path fill="#4A4747" d="M40.683,92.152c0.005-0.751-0.004-1.501-0.029-2.252c2.701-1.05,4.082-0.519,3.221,2.691l-0.11,0.141C42.739,92.539,41.712,92.344,40.683,92.152z"/>
<path fill="#3F3B3A" d="M53.223,95.289c-0.011-0.84-0.007-1.679,0.014-2.515c0.483-0.363,0.969-0.727,1.452-1.093c0.528,0.293,1.056,0.592,1.584,0.891l0.187,0.248C55.381,93.644,54.302,94.465,53.223,95.289z"/>
<path fill="#656464" d="M87.567,52.088c1.14,1.044,2.28,2.088,3.421,3.132c-1.063,6.308-2.128,12.615-3.195,18.924c-0.495-0.36-0.99-0.721-1.492-1.074c-0.652-1.054-1.121-2.18-1.409-3.385c-0.254-1.205-0.38-2.429-0.444-3.659c-0.122-2.463-0.127-4.932,0.022-7.403c0.087-1.258,0.349-2.481,0.734-3.681C85.724,53.77,86.506,52.812,87.567,52.088z"/>
<path fill="#656464" d="M87.482,76.954c-2.04,0.049-4.082,0.098-6.122,0.146c-0.61-1.337-0.402-2.561,0.507-3.687c1.912-1.136,3.768-1.304,5.519,0.317c0,0,0.401,0.405,0.404,0.408C87.65,75.074,87.546,76.011,87.482,76.954z"/>
<path fill="#8D8E8E" d="M12.487,73.99c-0.984-0.158-1.965-0.326-2.945-0.506c-0.014-6.049-0.026-12.095-0.04-18.143c1.392-0.693,2.702-0.596,3.925,0.408c0.926,1.16,1.594,2.448,2.037,3.86c0.869,4.438,0.981,8.802-1.311,12.922C13.604,73.021,13.045,73.505,12.487,73.99z"/>
<path fill="#595757" d="M12.66,55.275c-1.053,0.021-2.106,0.043-3.159,0.067c-0.026-1.111-0.052-2.226-0.079-3.336c-0.002-0.003,0.067,0.033,0.067,0.033c1.005-1.062,2.124-1.254,3.372-0.437c0.214,0.626,0.426,1.252,0.638,1.877C13.22,54.078,12.939,54.676,12.66,55.275z"/>
<path fill="#5E5C5C" d="M90.573,33.378c-0.938,3.156-1.877,6.308-2.814,9.46c-0.501-0.415-1-0.83-1.507-1.242c-0.982-1.788-1.231-3.692-0.925-5.691c0.354-1.282,1.008-2.396,1.938-3.348C88.585,31.944,89.678,32.264,90.573,33.378z"/>
<path fill="#504E4D" d="M90.573,33.378l-1.527-0.003l-1.528,0.037c-0.865,1.031-1.891,1.279-3.101,0.625c-0.746-1.041-1.008-2.191-0.794-3.455c0.488-1.157,1.199-2.151,2.159-2.963c0.585-0.201,1.174-0.396,1.763-0.592c1.04,0.015,2.083,0.03,3.123,0.042C90.636,29.173,90.605,31.276,90.573,33.378z"/>
<path fill="#5F5D5D" d="M87.759,42.839c-0.077,0.946-0.097,1.889-0.06,2.835c-0.434,0.409-0.868,0.815-1.304,1.221c-1.249-0.073-2.225-0.617-2.885-1.697c-0.167-1.229,0.112-2.337,0.909-3.302c1.187-0.559,2.209-0.369,3.041,0.677L87.759,42.839z"/>
<path fill="#5F5D5D" d="M90.526,45.897c-0.969,1.025-1.937,2.048-2.905,3.069c-0.396-0.491-0.792-0.982-1.188-1.474c0.345-0.528,0.689-1.059,1.034-1.587c0,0,0.229-0.229,0.23-0.229C88.64,45.753,89.583,45.826,90.526,45.897z"/>
<path fill="#A5A5A6" d="M62.662,14.586c2.12,2.185,4.24,4.37,6.36,6.552c1.387,0.833,3.147,1.138,3.962,2.789c0.29,1.099,0.234,2.185-0.156,3.256c-0.698,0.882-1.548,1.587-2.53,2.136c-1.489,0.775-3.055,1.355-4.701,1.733c-1.132,0.165-2.241,0.045-3.337-0.278c-1.594-0.69-2.965-1.697-4.213-2.896c-1.261-1.236-2.292-2.637-3.073-4.227c-0.439-1.12-0.658-2.276-0.694-3.479c0.113-1.208,0.514-2.322,1.14-3.356c1.362-1.166,2.647-2.429,4.159-3.418C60.834,13.197,61.875,13.566,62.662,14.586z"/>
<path fill="#ADADAE" d="M62.662,14.586c-1.129,0.015-2.26,0.03-3.389,0.042c-0.497,0.421-0.993,0.839-1.491,1.264c-0.436-0.479-0.872-0.964-1.309-1.447c0.812-1.907,1.625-3.817,2.436-5.722c2.18,0.97,4.362,1.941,6.542,2.911C64.52,12.62,63.592,13.603,62.662,14.586z"/>
<path fill="#9FA0A0" d="M72.089,17.863c1.9-0.015,3.798-0.03,5.695-0.045c0.278,0.977,0.415,1.971,0.399,2.984c-0.441,0.424-0.884,0.849-1.323,1.272c-1.184,0.415-2.377,0.421-3.576,0.076c-0.447-0.415-0.895-0.833-1.342-1.251C71.941,19.884,71.99,18.873,72.089,17.863z"/>
<path fill="#B1B2B2" d="M71.66,23.79c-0.88-0.885-1.761-1.771-2.64-2.652c0.963-0.22,1.937-0.299,2.922-0.238l-0.129-0.067c0.85,0.705,1.108,1.376,0.781,2.018C72.275,23.475,71.964,23.79,71.66,23.79z"/>
<path fill="#979798" d="M56.359,17.418c-0.081,1.224-0.162,2.447-0.243,3.671c-0.782,1.663-1.866,3.024-3.654,3.705c-1.258,0.162-2.382-0.146-3.391-0.918c-0.705-1.041-1.183-2.173-1.425-3.409c-0.124-1.266-0.032-2.514,0.241-3.753c0.424-1.221,1.148-2.237,2.114-3.085c1.291-0.473,2.376-0.204,3.214,0.919c1.085-0.034,2.17-0.067,3.256-0.101c0.002,0-0.139-0.015-0.139-0.015c0.8,0.659,1.069,1.318,0.811,1.987C56.886,17.082,56.623,17.418,56.359,17.418z"/>
<path fill="#949495" d="M53.175,8.284c-0.013,1.065-0.026,2.13-0.038,3.192c-1.749,1.767-3.67,1.7-5.693,0.54c-0.722-0.75-1.036-1.556-0.944-2.417c0.093-0.891,0.241-1.333,0.441-1.333l-0.014,0.021C49.007,6.422,51.09,6.437,53.175,8.284z"/>
<path fill="#9C9D9D" d="M46.935,11.424c2.068,0.018,4.135,0.034,6.202,0.052c0.036,1.025,0.063,2.048,0.077,3.07c-1.092,0.027-2.187,0.052-3.28,0.079c-1.01,1.001-2.11,1.111-3.301,0.333c-0.193-0.61-0.389-1.221-0.584-1.831C46.345,12.559,46.639,11.991,46.935,11.424z"/>
<path fill="#99999A" d="M53.175,8.284c-2.082,0.003-4.164,0.003-6.247,0.003c-0.011-1.038,0.045-2.072,0.177-3.104c2.015,0.015,4.021,0.033,6.022,0.052C53.186,6.254,53.203,7.267,53.175,8.284z"/>
<path fill="#ACADAE" d="M28.471,14.989c0.885-0.305,1.777-0.583,2.679-0.836c2.132,0.165,4.263,0.33,6.396,0.495c0.185,0.641,0.368,1.279,0.552,1.919c-0.567,1.248-1.454,2.197-2.656,2.859c-1.998,0.663-3.955,0.574-5.869-0.317c-0.468-0.482-0.935-0.967-1.402-1.453C28.167,16.756,28.266,15.864,28.471,14.989z"/>
<path fill="#9E9F9F" d="M46.94,8.265c-0.001,1.053-0.003,2.106-0.005,3.159l0.023-0.021c-1.297,1.679-2.976,1.911-4.881,1.297c-0.452-0.418-0.902-0.836-1.354-1.257c-0.001-0.921,0.052-1.84,0.161-2.752C42.904,8.549,44.921,8.409,46.94,8.265z"/>
<path fill="#9FA0A0" d="M37.546,14.647c1.059-1.068,2.118-2.136,3.177-3.205l-0.038-0.024c0.614,0.705,0.819,1.413,0.621,2.121c-0.2,0.711-0.4,1.065-0.603,1.065c-1.093,0.757-2.174,0.778-3.244-0.049L37.546,14.647z"/>
<path fill="#4C4949" d="M53.237,92.775c-1.988-1.068-3.977-2.134-5.965-3.201c-1.117-0.659-1.75-1.624-1.854-2.927c-0.133-2.576-0.929-5.029-1.465-7.56c-0.403-4.489-0.542-8.884,4.014-11.667c4.894,0.528,6.547,4.275,8.129,8.124c1.831,6.164,0.82,11.853-2.883,17.081L53.237,92.775z"/>
<path fill="#7E7E7E" d="M47.109,67.625c0.064,5.267,0.128,10.534,0.192,15.802c0.763,0.967,0.755,1.926-0.024,2.878c-0.003,1.089-0.006,2.179-0.006,3.269c-1.131,1.007-2.263,2.014-3.395,3.018c-1.074-0.897-2.147-1.797-3.221-2.694c-0.995-0.223-2.002-0.36-3.023-0.403c-0.085-0.937-0.124-1.873-0.111-2.813c0,0,0.47-1.443,0.453-1.449c0.487-0.886,1.018-1.743,1.535-2.612c0.597-1.472,0.896-2.997,1.015-4.587c0.026-1.773,0.125-3.516,0.391-5.271c0.24-1.264,0.673-2.438,1.27-3.567c0.795-1.074,1.835-1.782,3.085-2.203C45.885,67.2,46.497,67.411,47.109,67.625z"/>
<path fill="#5F5D5D" d="M87.567,52.088c-0.006,1.063-0.012,2.124-0.019,3.187c-1.531,0.479-2.801,0.063-3.848-1.126c-0.586-3.089-1.09-6.122,3.793-5.28l0.125,0.098C87.589,50.007,87.57,51.048,87.567,52.088z"/>
<path fill="#A7A8A8" d="M22.182,18.04c1.996-0.128,3.993-0.256,5.989-0.385l0.07-0.015c0.979,1.306,1.018,2.6-0.038,3.885c-1.382,0.635-2.821,0.839-4.323,0.549c-0.603-0.437-1.204-0.879-1.807-1.318C22.015,19.847,22.05,18.944,22.182,18.04z"/>
<path fill="#959595" d="M18.746,24.018c1.109-1.086,2.217-2.173,3.327-3.262c0.001,0-0.13,0.006-0.13,0.006c1.811,1.706,1.935,3.692,0.983,5.862c-1.101,1.056-2.394,1.416-3.882,1.08c-0.807-0.76-1.12-1.559-0.94-2.398C18.29,24.449,18.503,24.018,18.746,24.018z"/>
<path fill="#5B5959" d="M18.746,24.018c0.26,0.897,0.446,1.81,0.562,2.738c-1.339,1.828-3.154,2.136-5.221,1.636c-0.522-0.403-1.042-0.812-1.564-1.218c0.002-1.059,0.005-2.118,0.006-3.177C14.6,24.006,16.674,24.012,18.746,24.018z"/>
<path fill="#717071" d="M12.522,52.131c-1.01-0.067-2.021-0.098-3.033-0.092c-0.114-3.155-0.229-6.311-0.346-9.469c-0.003,0,0.743,0.186,0.743,0.186c1.21-0.943,2.419-0.943,3.633,0c1.27,1.81,1.628,3.817,1.3,5.976C14.411,50.102,13.642,51.237,12.522,52.131z"/>
<path fill="#575555" d="M81.403,23.982c1.015-0.098,2.03-0.134,3.049-0.104c1.048-1.208,2.084-1.199,3.111,0.027c-0.01,1.041-0.016,2.082-0.019,3.122l0.05-0.006c-0.935,0.891-2.046,1.435-3.308,1.682c-1.302,0.006-2.457-0.394-3.441-1.257c-0.145-0.613-0.289-1.23-0.435-1.846C80.742,25.059,81.072,24.522,81.403,23.982z"/>
<path fill="#7B7A7B" d="M87.563,23.905l-1.557,0.015c0,0-1.555-0.033-1.555-0.04c-0.004-1.038-0.002-2.069,0.006-3.104c1.026-0.003,2.051,0.034,3.07,0.107C87.605,21.894,87.618,22.899,87.563,23.905z"/>
<path fill="#99999A" d="M78.183,20.802c1.072,1.062,2.146,2.121,3.22,3.18l-0.355-0.192c-1.022,1.099-2.159,1.236-3.41,0.409c-0.729-1.297-0.545-2.447,0.554-3.451L78.183,20.802z"/>
<path fill="#636161" d="M9.612,36.564c-0.126-2.133-0.252-4.263-0.381-6.394c-0.001-0.003,0.467-0.03,0.467-0.03c0.91-0.897,2.002-1.379,3.276-1.45c1.847-0.037,3.697-0.095,5.509,0.394c1.012,0.806,1.489,1.868,1.506,3.149c-0.36,1.206-1.05,2.185-2.046,2.951c-1.527,1.025-3.19,1.764-4.977,2.225C11.73,37.611,10.61,37.324,9.612,36.564z"/>
<path fill="#7A7A7A" d="M9.612,36.564c0.997-0.083,1.993-0.122,2.992-0.122c0,0,1.142,0.974,1.146,0.974c0.525,0.913,0.691,1.886,0.51,2.923c-0.131,1.102-0.704,1.886-1.708,2.353c-0.893-0.018-1.784,0.003-2.67,0.064c-0.278-1.059-0.56-2.121-0.845-3.18C9.247,38.575,9.441,37.572,9.612,36.564z"/>
<path fill="#757575" d="M12.714,30.168c-1.008,0-2.016-0.009-3.02-0.027c0.944-0.989,1.886-1.98,2.827-2.969c0,0.003-0.041-0.095-0.041-0.095c1.077,0.61,1.469,1.27,1.181,1.983C13.363,29.799,13.049,30.168,12.714,30.168z"/>
<path fill="#787778" d="M81.374,73.979c-0.021,1.04-0.025,2.081-0.014,3.122c-0.207,1.004-0.235,2.017-0.085,3.033c-2.074,1.037-4.149,2.075-6.225,3.112c-2.086,1.044-4.172,2.085-6.258,3.125c-2.06,0.024-4.121,0.053-6.183,0.08c-7.921,3.777-7.449-1.987-7.78-6.824c0.2-2.411,1.533-4.047,3.576-5.17c1.754-0.942,3.631-1.69,5.433-2.526c2.156-1.19,3.887-2.854,5.208-4.956c0.633-1.053,1.382-2.011,2.198-2.924c1.773-1.733,3.873-2.984,6.052-4.123c2.172-1.129,4.396-2.133,6.817-2.618c1.245-0.073,2.382,0.266,3.42,0.955c-0.027,3.152-0.057,6.302-0.084,9.455c-0.766,0.809-1.581,1.565-2.417,2.267c-0.816,0.626-1.738,1.099-2.716,1.389c0.028-0.024-1.391-0.238-1.391-0.238s0.238,1.416,0.247,1.416C81.183,72.553,81.374,73.979,81.374,73.979z"/>
<path fill="#959595" d="M37.52,86.68c-1.027-0.113-2.052-0.226-3.079-0.342c-1.051,0.049-2.104,0.101-3.156,0.152c-2.089-1.047-4.178-2.093-6.267-3.137c0.038-1.12,0.078-2.237,0.116-3.357c-0.432-0.521-0.865-1.047-1.299-1.574c0.357-1.373,1.147-2.417,2.37-3.144c2.695-1.123,5.376-0.982,8.051,0.089c2.545,1.4,4.227,3.467,4.838,6.348c0.065,1.416-0.409,2.64-1.346,3.695L37.52,86.68z"/>
<path fill="#666464" d="M56.439,77c2.058,3.149,4.114,6.299,6.171,9.451c-0.044,1.001-0.085,2.005-0.125,3.006c-2.07,1.04-4.142,2.078-6.213,3.115c0.001,0-1.528,0.056-1.528,0.056h-1.53c-0.068-6.29-0.136-12.58-0.204-18.869c-1.229-2.753,0.372-3.263,2.6-3.28c1.146,0.732,1.89,1.764,2.286,3.058C57.923,74.904,57.436,76.06,56.439,77z"/>
<path fill="#929293" d="M18.861,77.012c-1.05,0.04-2.1,0.079-3.149,0.122c-1.063-0.016-2.125-0.03-3.188-0.049c0.218-1.034,0.206-2.066-0.035-3.095c-0.001,0,0.796-0.576,0.796-0.576c1.132-0.837,2.397-1.179,3.796-1.028c0.613,0.293,1.225,0.589,1.839,0.882c0.261,0.628,0.52,1.257,0.779,1.886C19.421,75.773,19.14,76.393,18.861,77.012z"/>
<path fill="#929293" d="M25.083,77.085c0.005,0.974,0.021,1.944,0.052,2.914c-1.061,0.046-2.121,0.092-3.18,0.138c-1.063,0.033-2.127,0.064-3.19,0.098c0.032-1.074,0.064-2.148,0.096-3.223l0.605-0.629C21.514,75.23,23.382,75.489,25.083,77.085z"/>
<path fill="#7E7D7D" d="M81.322,70.802c2.043-1.028,4.088-2.057,6.129-3.082c0.031,1.013,0.026,2.026-0.01,3.039C85.415,72.728,83.373,72.52,81.322,70.802z"/>
<path fill="#797878" d="M81.322,70.802c2.04-0.016,4.082-0.027,6.12-0.043c0.079,0.995,0.063,1.986-0.054,2.976c-2.008,0.079-4.011,0.161-6.016,0.244c0.001,0-0.077-0.101-0.077-0.101c-0.601-0.69-0.796-1.377-0.587-2.061s0.415-1.022,0.618-1.022L81.322,70.802z"/>
<path fill="#878687" d="M87.534,58.265c-1.033,0.027-2.064,0.037-3.098,0.027c0,0-0.849-0.903-0.852-0.903c-0.003,0,0.04-1.241,0.038-1.241c-0.003-0.004,0.946-0.81,0.946-0.81c0.993-0.049,1.986-0.069,2.979-0.063C87.613,56.273,87.607,57.271,87.534,58.265z"/>
<path fill="#A5A5A6" d="M25.083,77.085c-1.874-0.231-3.749-0.464-5.62-0.699c-0.302-0.802-0.484-1.629-0.542-2.483l-0.077-0.076c-1.857-0.135-3.714-0.269-5.564-0.409c-0.138-5.084-0.279-10.165-0.42-15.247c1.044-0.977,2.248-1.685,3.61-2.13c2.202-0.299,4.234,0.135,6.074,1.404c0.979,1.04,1.752,2.222,2.358,3.516c1.438,3.952,3.079,7.879,2.432,12.256c-0.465,1.333-1.206,2.496-2.209,3.494L25.083,77.085z"/>
<path fill="#AFB0B1" d="M16.181,58.161c-1.109,0.003-2.219,0.009-3.325,0.013c-0.18-0.959-0.247-1.926-0.198-2.899c0.001,0-0.187-0.238-0.187-0.238c1.039-1.017,2.196-1.178,3.472-0.482C16.798,55.704,16.875,56.907,16.181,58.161z"/>
<path fill="#797979" d="M15.638,55.196c-1.056-0.053-2.11-0.107-3.167-0.159c0.034-0.971,0.05-1.938,0.05-2.905c0.058-1.104,0.118-2.213,0.176-3.317c1.395-0.595,2.756-0.524,4.086,0.208c1.597,1.413,3.033,3.069,2.328,5.295C18.598,55.94,17.15,56.284,15.638,55.196z"/>
<path fill="#656464" d="M84.148,32.878c1.124,0.177,2.247,0.354,3.37,0.531c0.027,1.013,0.038,2.023,0.032,3.033c-0.947,1.025-2.107,1.565-3.516,1.538c-1.329-0.372-2.393-1.126-3.19-2.252c-0.052-0.668-0.103-1.337-0.154-2.005c0.502-0.442,1.006-0.888,1.508-1.331C82.848,32.554,83.498,32.716,84.148,32.878z"/>
<path fill="#6B6A6A" d="M84.428,36.427c1.042,0,2.082,0.006,3.123,0.015c-0.029,2.045-0.058,4.089-0.089,6.131c-1.001,0.061-2,0.098-3.001,0.116c-0.96-0.842-1.535-1.895-1.729-3.156C82.831,38.246,83.397,37.208,84.428,36.427z"/>
<path fill="#353130" d="M84.148,32.878c-0.905-0.024-1.812-0.042-2.718-0.052c-0.432-1.386-0.103-2.524,1.107-3.372c0.627,0.232,1.256,0.464,1.883,0.699C84.354,31.062,84.263,31.971,84.148,32.878z"/>
<path fill="#353130" d="M84.47,27.089c1.043-0.019,2.083-0.043,3.125-0.067c-1.057,1.044-2.114,2.087-3.174,3.131l0.01,0.006c-1.063-0.696-1.41-1.382-1.046-2.06C83.747,27.424,84.106,27.089,84.47,27.089z"/>
<path fill="#686767" d="M87.494,48.868c-0.975,2.155-1.951,4.313-2.927,6.47c0.002,0,0.037-0.082,0.037-0.082c-0.789,1.063-1.828,1.37-3.084,1.034c-0.998-0.513-1.471-2.084-2.431-2.075c-2.06,0.021,0.258-0.809-0.093,1.267c-0.971,0.837-2.077,1.325-3.345,1.489c-2.066-0.115-3.688-1.01-4.883-2.697c-0.876-1.917-0.919-3.876-0.353-5.881c1.445-3.204,3.149-6.14,7.151-6.558c3.003,0.083,4.975,1.962,6.877,3.964c1.009,0.003,2.018,0.04,3.023,0.106C87.526,46.895,87.535,47.88,87.494,48.868z"/>
<path fill="#717070" d="M84.445,45.799c-2.067-1.022-4.135-2.045-6.202-3.067c0.149-0.558,0.301-1.117,0.445-1.678c0.686-0.952,1.558-1.688,2.588-2.246c1.177-0.32,2.227-0.058,3.166,0.705c0.006,1.059,0.013,2.118,0.019,3.177C84.442,43.727,84.436,44.761,84.445,45.799z"/>
<path fill="#8C8C8C" d="M78.191,20.747c0.015,1.056,0.032,2.111,0.047,3.167c-0.176,1.26-0.727,2.332-1.601,3.247c-0.538,0.302-1.083,0.598-1.623,0.9c-1.29,0.146-2.39-0.244-3.299-1.172c0.053-1.035,0.036-2.066-0.053-3.101c0.178-0.98,0.229-1.965,0.15-2.958C73.938,20.805,76.065,20.778,78.191,20.747z"/>
<path fill="#575555" d="M62.756,30.455c0.928,0.22,1.859,0.238,2.795,0.055c0.592,0.131,1.186,0.259,1.782,0.388c0.995,0.742,1.755,1.675,2.287,2.801c0.063,0.61,0.119,1.224,0.181,1.84c-0.449,1.215-1.291,2.048-2.47,2.563c-1.927,0.427-3.707,0.125-5.315-1.056c-0.735-1.05-1.101-2.228-1.16-3.503c0.17-0.604,0.344-1.208,0.516-1.813C61.831,31.306,62.293,30.879,62.756,30.455z"/>
<path fill="#858585" d="M71.716,26.89c1.228,0.146,2.455,0.29,3.683,0.436c0.553,1.432,0.271,2.707-0.73,3.852c-1.313,0.656-2.701,0.888-4.159,0.757c-0.637-0.348-1.267-0.696-1.903-1.047c-1.002-1.3-0.887-2.539,0.187-3.732C69.764,27.046,70.739,26.957,71.716,26.89z"/>
<path fill="#7F7F7F" d="M53.156,23.951c0.987-0.955,1.976-1.911,2.962-2.866c0.136,0.955,0.193,1.911,0.174,2.872l-0.927,0.891l-1.284-0.003C54.079,24.845,53.156,23.951,53.156,23.951z"/>
<path fill="#7F7F7F" d="M56.359,17.418c-0.008-0.995-0.016-1.99-0.026-2.988c0.984,0.024,1.966,0.092,2.94,0.198C58.302,15.559,57.329,16.487,56.359,17.418z"/>
<path fill="#7E7D7D" d="M68.792,27.155c-0.029,1.056-0.06,2.115-0.089,3.174c-1.077,1.071-2.133,0.995-3.168-0.064c0,0,0.016,0.238,0.016,0.241C66.631,29.393,67.712,28.273,68.792,27.155z"/>
<path fill="#818181" d="M59.499,27.009c1.087,1.147,2.172,2.295,3.257,3.446l0.017-0.266c-1.009,1.141-2.178,1.279-3.48,0.549c-0.24-0.638-0.478-1.276-0.718-1.911C58.883,28.221,59.191,27.614,59.499,27.009z"/>
<path fill="#7D7C7D" d="M56.292,23.957c1.069,1.017,2.138,2.036,3.207,3.052h-0.05c-2.863,0.821-3.878-0.223-3.098-3.076L56.292,23.957z"/>
<path fill="#9E9E9F" d="M49.945,23.896c1.071,0.019,2.142,0.037,3.211,0.055l0.087-0.064c1.683,1.742,1.91,3.763,1.159,5.972c-1.287,1.834-3.149,2.716-5.271,3.134c-1.971,0.265-3.931,0.106-5.842-0.431c-2.28-0.836-4.644-1.396-7.111-1.559c-1.221-0.385-2.187-1.111-2.922-2.158c-0.732-1.911-0.562-3.729,0.499-5.481c0.985-0.885,2.107-1.529,3.357-1.968c1.924-0.525,3.886-0.693,5.875-0.635c1.324,0.058,2.615,0.314,3.877,0.717C48.029,22.102,49.049,22.92,49.945,23.896z"/>
<path fill="#8F8F90" d="M46.949,23.924h-1.53h-1.532c-1.435-1.306-3.452-1.938-4.405-3.809c0.009-0.662,0.021-1.325,0.033-1.987c0.411-0.525,0.823-1.043,1.235-1.568c1.161-0.702,2.42-1.068,3.775-1.105c1.875,0.577,3.982,0.564,5.479,2.124c0.003,1.166,0.004,2.329,0.008,3.494C49.016,22.05,47.996,23.002,46.949,23.924z"/>
<path fill="#7E7D7D" d="M50.004,17.579c-2.061,0.031-4.12,0.064-6.18,0.095c-0.827-0.714-1.166-1.486-1.018-2.313c0.154-0.86,0.35-1.288,0.59-1.291c1.31-0.903,2.518-0.785,3.625,0.354c0.972,0.061,1.944,0.128,2.913,0.201C50.012,15.608,50.034,16.593,50.004,17.579z"/>
<path fill="#B4B4B5" d="M46.949,23.924c1.023-0.952,2.043-1.904,3.064-2.854c-0.021,0.943-0.043,1.883-0.065,2.826C48.948,23.921,47.948,23.93,46.949,23.924z"/>
<path fill="#919192" d="M47.022,14.424c-1.066,0.042-2.131,0.082-3.198,0.125c-0.511,0.476-1.023,0.949-1.536,1.431c-0.533-0.452-1.065-0.906-1.598-1.361c-0.001-1.068-0.003-2.133-0.005-3.202c2.091-0.003,4.183-0.009,6.273-0.015C46.955,12.41,46.976,13.417,47.022,14.424z"/>
<path fill="#9A9B9B" d="M28.127,21.125c0.038-1.163,0.076-2.322,0.114-3.485c3.032,0.003,6.063,0.003,9.093,0.006c0.473,0.342,0.946,0.687,1.42,1.028c-0.029,0.58-0.06,1.163-0.085,1.742c-0.378,0.437-0.761,0.876-1.138,1.315c-1.588,0.571-3.372,0.696-4.662,1.98c-0.43,0.375-0.864,0.745-1.295,1.117c-1.158,0.177-2.238-0.031-3.224-0.674c-0.563-0.635-0.784-1.294-0.662-1.984C27.811,21.473,27.958,21.125,28.127,21.125z"/>
<path fill="#888889" d="M37.459,14.555c1.077,0.021,2.153,0.043,3.23,0.061c0,0.003,0.009-0.067,0.009-0.067c0.821,0.693,1.094,1.385,0.823,2.081c-0.271,0.693-0.543,1.041-0.818,1.041l-0.008,0.006c-1.039,1.41-2.077,1.483-3.113-0.003c0,0-0.244-0.027-0.246-0.027C37.464,16.618,37.505,15.59,37.459,14.555z"/>
<path fill="#403C3B" d="M56.186,70.677c-1.059,1.028-2.116,2.057-3.176,3.085c-1.968-2.048-3.937-4.093-5.901-6.137l-0.379,0.25c-1.433-1.419-2.382-3.098-2.748-5.097c-0.216-1.315-0.277-2.64-0.242-3.974c0.056-1.343,0.274-2.661,0.623-3.964c0.455-1.291,1.168-2.42,2.119-3.405c1.273-0.574,2.591-0.672,3.949-0.373c1.874,0.955,3.257,2.417,4.328,4.202c0.631,1.196,1.113,2.46,1.477,3.767c0.748,3.269,1.544,6.54,1.028,9.945C56.911,69.544,56.548,70.109,56.186,70.677z"/>
<path fill="#474443" d="M47.277,86.305c-0.171-0.962-0.163-1.923,0.023-2.878c0.345,0.684,0.763,1.346,0.974,2.069C48.319,85.655,47.628,86.03,47.277,86.305z"/>
<path fill="#6A6969" d="M46.879,61.515c-0.049,2.118-0.098,4.239-0.146,6.36c-0.968,0.955-1.934,1.907-2.898,2.859c-0.406,0.451-0.81,0.906-1.217,1.358c-0.612,0.03-1.219,0.061-1.833,0.104c-2.438-0.55-4.631-1.651-6.735-2.97c-1.553-1.102-2.805-2.48-3.81-4.092c-0.607-1.111-1.022-2.292-1.29-3.528c-0.171-1.248-0.121-2.496,0.083-3.735c0.349-1.202,0.947-2.273,1.8-3.192c1.786-0.817,3.514-0.516,5.209,0.287c1.024,0.559,1.959,1.261,2.831,2.036c0.837,0.76,1.584,1.623,2.273,2.521c0.285,0.47,0.557,0.964,0.834,1.44c0.154,1.419,0.449,1.522,0.91,0.073c0.468-0.293,0.94-0.577,1.412-0.867C45.51,59.947,46.352,60.429,46.879,61.515z"/>
<path fill="#A2A2A3" d="M37.771,83.357c-1.106-2.103-2.214-4.205-3.32-6.308c-0.668-1.318-0.511-2.5,0.595-3.522c1.32-0.524,2.62-0.479,3.903,0.125c2.332,1.646,2.994,4.499,4.75,6.564c-1.025,1.98-2.049,3.962-3.073,5.942C39.525,85.377,38.566,84.449,37.771,83.357z"/>
<path fill="#959595" d="M43.699,80.216c-2.077-2.13-4.152-4.263-6.227-6.394c-0.506-2.844,0.189-4.382,3.427-3.14l-0.208-0.104c1.025,1.126,2.147,2.163,3.126,3.332C43.778,76.014,43.738,78.114,43.699,80.216z"/>
<path fill="#AFB0B1" d="M43.818,73.911c-1.042-1.11-2.083-2.222-3.125-3.332c1.047,0.052,2.093,0.104,3.142,0.155C43.828,71.793,43.822,72.853,43.818,73.911z"/>
<path fill="#A2A2A3" d="M37.771,83.357c0.952,0.934,1.904,1.871,2.854,2.805c-1.051,0.116-2.011-0.128-2.876-0.742C37.72,84.727,37.728,84.04,37.771,83.357z"/>
<path fill="#706F6F" d="M28.127,21.125c-0.042,0.919-0.043,1.837-0.005,2.759c-0.177,0.574-0.354,1.151-0.528,1.728c-0.765,0.958-1.712,1.675-2.833,2.164c-1.27,0.238-2.306-0.174-3.137-1.141c0.105-1.957,0.212-3.913,0.319-5.869C24.004,20.884,26.066,21.003,28.127,21.125z"/>
<path fill="#4C4949" d="M21.624,26.634c1.053,0.192,2.107,0.384,3.16,0.577c0.285,0.525,0.572,1.05,0.857,1.575c-0.378,1.172-1.074,2.093-2.135,2.734c-1.86,0.574-3.496,0.348-4.718-1.337c-2.026-0.006-4.053-0.009-6.076-0.015c-0.081-1.031-0.159-2.06-0.232-3.091c2.273-0.104,4.547-0.21,6.824-0.32C20.086,26.847,20.858,26.805,21.624,26.634z"/>
<path fill="#858585" d="M15.949,49.198c-1.085-0.128-2.17-0.257-3.253-0.385c-0.047-2.041-0.095-4.08-0.144-6.122c0.009-1.077,0.02-2.154,0.03-3.235c1.325-0.62,2.571-0.525,3.731,0.406c1.942,2.384,2.101,4.999,1.004,7.776C16.865,48.16,16.407,48.68,15.949,49.198z"/>
<path fill="#433F3F" d="M75.013,30.107c0.086-0.934,0.214-1.861,0.385-2.783c0.001,0.003-0.271-0.079-0.271-0.079c1.78-1.896,3.709-1.981,5.768-0.473c1.191,0.104,2.385,0.21,3.576,0.317c-0.017,1.022-0.028,2.048-0.039,3.07c-1.003,0.895-2.004,1.786-3.002,2.673c0.002-0.006-0.119,0.449-0.119,0.449c-0.875,1.065-1.984,1.706-3.367,1.853c-1.354-0.156-2.562-0.656-3.594-1.56C73.716,32.255,73.936,31.098,75.013,30.107z"/>
<path fill="#929293" d="M80.893,26.771c-1.923,0.156-3.846,0.314-5.768,0.473c1.037-1.111,2.075-2.219,3.112-3.33c0.938-0.012,1.875-0.052,2.811-0.125C81.119,24.791,81.069,25.782,80.893,26.771z"/>
<path fill="#6E6D6D" d="M15.632,33.36c1.076-0.028,2.151-0.055,3.226-0.083c0.869-1.114,1.973-1.382,3.284-0.928c1.837,0.842,3.014,2.289,3.754,4.126c0.271,1.27,0.105,2.487-0.481,3.644c-0.996,0.788-2.138,1.257-3.386,1.465c-1.248,0.006-2.44-0.277-3.575-0.79c-0.836-0.879-1.663-1.779-2.481-2.683c-0.354-0.488-0.707-0.983-1.061-1.477C14.509,35.405,14.75,34.312,15.632,33.36z"/>
<path fill="#484544" d="M22.161,33.629c-1.102-0.119-2.203-0.235-3.304-0.351c-0.044-1.032-0.067-2.063-0.068-3.095c2.115-0.015,4.231-0.03,6.348-0.049c0,0,0.746,1.218,0.748,1.218c0.053,1.044-0.336,1.883-1.166,2.518c0.003,0.003-1.338,0.516-1.338,0.516L22.161,33.629z"/>
<path fill="#7E7D7D" d="M15.632,33.36c0.038,1.022,0.044,2.044,0.02,3.064c-1.047,1.343-2.075,1.327-3.087-0.037c0,0,0.038,0.055,0.04,0.055C13.613,35.417,14.623,34.388,15.632,33.36z"/>
<path fill="#6A6969" d="M12.565,36.387c1.028,0.021,2.059,0.033,3.087,0.037l0.088,0.045c0.426,0.562,0.85,1.123,1.282,1.685c-0.597,0.373-1.198,0.745-1.8,1.114c-0.876,0.104-1.756,0.167-2.639,0.192C12.577,38.435,12.571,37.409,12.565,36.387z"/>
<path fill="#7F7F7F" d="M56.439,77c-0.001-1.05-0.003-2.104-0.006-3.153c1.564-1.474,1.468-3.451,1.628-5.358c0.577-1.236,1.462-2.17,2.652-2.832c1.913-0.793,3.903-1.056,5.958-0.909c2.104,0.299,3.859,1.239,5.231,2.871c-2.072,2.106-4.143,4.215-6.215,6.32c-0.955,1.12-2.208,1.944-3.118,3.11C60.527,77.033,58.483,77.015,56.439,77z"/>
<path fill="#878788" d="M84.436,58.292c-2.087,1.041-4.177,2.079-6.264,3.119c-0.32-0.552-0.643-1.104-0.965-1.654c0.107-0.631,0.216-1.26,0.322-1.892c0.554-0.32,1.108-0.641,1.662-0.961c1.929-0.192,3.825-0.263,5.263,1.397L84.436,58.292z"/>
<path fill="#8A8A8B" d="M78.173,61.411c-2.083,1.038-4.166,2.072-6.248,3.11c-0.244-0.464-0.487-0.932-0.731-1.398c0.179-1.074,0.694-1.959,1.5-2.688c0.946-0.519,1.961-0.778,3.04-0.79c1.048,0.299,1.887,0.888,2.48,1.813L78.173,61.411z"/>
<path fill="#8A8A8B" d="M71.903,67.618c-2.134,0.007-4.265,0.013-6.398,0.019c-0.681-1.135-0.646-2.249,0.103-3.345c0.953-0.827,2.064-1.303,3.307-1.483c1.283,0.119,2.288,0.727,3.052,1.755l-0.041-0.042C71.936,65.556,71.929,66.587,71.903,67.618z"/>
<path fill="#7E7D7D" d="M81.327,70.795c0,1.029-0.011,2.058-0.029,3.086c-0.394-0.738-0.857-1.45-1.114-2.231C80.137,71.507,80.924,71.088,81.327,70.795z"/>
<path fill="#757474" d="M62.57,77.049c1.04-1.038,2.079-2.075,3.118-3.11C64.649,74.974,63.61,76.011,62.57,77.049z"/>
<path fill="#B1B2B2" d="M34.498,73.985c-0.037,1.022-0.052,2.042-0.047,3.064c-3.108-0.11-6.217-0.224-9.325-0.336c0.018-1.02,0.026-2.036,0.024-3.055c1.331-1.301,2.895-2.069,4.785-2.115c1.214,0.104,2.359,0.442,3.429,1.031C33.744,73.041,34.121,73.512,34.498,73.985z"/>
<path fill="#878687" d="M59.316,70.363c-0.962,1.159-1.923,2.322-2.883,3.484c-0.081-1.056-0.163-2.114-0.247-3.17l-0.163-0.202C57.081,69.285,58.177,69.188,59.316,70.363z"/>
<path fill="#5F5D5D" d="M84.455,58.302c-2.1-0.021-4.198-0.046-6.296-0.07c-0.789-0.692-1.045-1.38-0.771-2.06c0.273-0.675,0.543-1.014,0.812-1.014l-0.009,0.016c1.034-0.998,2.068-0.952,3.104-0.003c1.103,0.03,2.205,0.058,3.307,0.085C84.504,56.27,84.453,57.285,84.455,58.302z"/>
<path fill="#686767" d="M31.406,54.976c-0.029,1.113-0.056,2.225-0.084,3.335c-0.856,0.787-1.857,1.27-3.003,1.468c-1.132,0.153-2.271,0.184-3.412,0.138c-1.14-0.159-2.174-0.592-3.104-1.272c-1.877-0.162-3.752-0.32-5.625-0.482c-0.279-0.971-0.461-1.959-0.542-2.966c0.101-2.002,0.203-4.001,0.308-6c0.003,0.003-0.238-0.428-0.238-0.428c1.465-1.517,3.281-1.929,5.309-1.712c1.937,0.314,3.809,0.873,5.669,1.492c1.896,0.607,3.659,1.459,5.101,2.875C32.453,52.69,32.285,53.87,31.406,54.976z"/>
<path fill="#242221" d="M31.278,73.402c-2.043,0.086-4.086,0.171-6.128,0.257c-0.974-3.916-1.947-7.831-2.92-11.749c0.79-1.047,1.837-1.396,3.111-1.151c1.786,0.647,3.159,1.813,4.256,3.333c1.12,1.456,2.39,2.805,3.186,4.492C33.379,70.533,32.99,72.175,31.278,73.402z"/>
<path fill="#929293" d="M24.996,61.332c-0.947,0.076-1.869,0.269-2.766,0.577c-0.142-1.09-0.284-2.18-0.426-3.269c1.069-0.073,2.141-0.149,3.212-0.229c0,0,1.086,0.772,1.089,0.77c0.003,0-0.058,1.333-0.057,1.333C26.052,60.514,24.996,61.332,24.996,61.332z"/>
<path fill="#9E9E9E" d="M18.845,73.826c0.238-0.403,0.478-0.81,0.716-1.212c-0.213,0.431-0.427,0.86-0.641,1.291C18.922,73.903,18.845,73.826,18.845,73.826z"/>
<path fill="#585756" d="M74.993,33.299c2.105-0.006,4.211-0.012,6.316-0.019c0.004,1.053,0.008,2.106,0.011,3.159c-0.345,0.439-0.69,0.882-1.037,1.321c-1.055,0.437-2.15,0.583-3.284,0.452c-1.095-0.33-2.009-0.934-2.714-1.843C73.992,35.228,74.254,34.208,74.993,33.299z"/>
<path fill="#555352" d="M84.442,39.512c-1.048,0.003-2.095,0.006-3.143,0.006c-0.377-0.519-0.756-1.038-1.138-1.556c0.385-0.513,0.774-1.025,1.163-1.538l-0.005,0.015c1.036-0.009,2.072-0.012,3.108-0.012C84.441,37.455,84.447,38.484,84.442,39.512z"/>
<path fill="#605F5F" d="M78.243,42.732c-2.091,2.069-4.18,4.139-6.269,6.21c-1.134-0.396-2.157-0.988-3.09-1.748c-1.419-1.132-2.727-2.377-3.82-3.842c-0.526-1.138-0.635-2.325-0.403-3.552c1.024-1.611,2.873-2.191,4.237-3.384l-0.096,0.067c0.812-1.123,1.899-1.465,3.224-1.144c1.705,1.968,4.223,2.664,6.328,4.01c0.846,1.138,0.792,2.231-0.157,3.281L78.243,42.732z"/>
<path fill="#555352" d="M78.2,55.158c-0.011,1.025-0.022,2.051-0.041,3.076c0-0.003,0.203,0.299,0.203,0.299c-1.218,0.824-2.197,1.972-3.55,2.609c-0.98,0.006-1.943,0.144-2.888,0.409c0,0-1.158-0.989-1.161-0.985c-0.534-0.925-0.705-1.914-0.527-2.964c-0.006-0.003,0.53-1.435,0.527-1.438c-0.004,0,1.173-0.979,1.173-0.979C74.024,55.177,76.111,55.167,78.2,55.158z"/>
<path fill="#545252" d="M71.907,45.671c0.023,1.089,0.045,2.179,0.067,3.268c-0.012,2.085-0.024,4.166-0.038,6.247l0.026-0.024c-0.55,0.428-1.098,0.857-1.648,1.285c-1.413-0.352-2.498-1.136-3.223-2.411c-0.784-2.057-0.813-4.129-0.134-6.217C68.041,45.805,69.41,44.432,71.907,45.671z"/>
<path fill="#535050" d="M81.296,55.171l-1.552-0.004l-1.553,0.007C79.227,55.174,80.262,55.174,81.296,55.171z"/>
<path fill="#545251" d="M78.197,42.628c-0.003-1.038-0.002-2.075,0.003-3.113c0.525-0.434,1.052-0.87,1.578-1.309c0.516,0.442,1.031,0.894,1.549,1.343L81.3,39.521C80.266,40.556,79.231,41.593,78.197,42.628z"/>
<path fill="#403C3C" d="M68.898,36.415c-1.042,1.102-2.083,2.2-3.125,3.299c-0.824,0.836-1.443,1.807-1.86,2.912c-0.807,0.9-1.782,1.52-2.957,1.837c-1.894,0.189-3.568-0.314-5.017-1.565c-1.205-1.544-1.578-3.281-1.227-5.194c0.464-1.19,1.256-2.093,2.368-2.722c1.904-0.555,3.63-0.308,5.074,1.16C64.403,36.232,66.651,36.323,68.898,36.415z"/>
<path fill="#929293" d="M62.155,36.14c-1.963,0.028-3.929,0.055-5.894,0.083c-0.803-2.383,0.369-3.659,2.475-4.416c1.384-0.067,2.577,0.382,3.578,1.337C62.368,34.147,62.314,35.148,62.155,36.14z"/>
<path fill="#2F2C2C" d="M71.901,36.528l-1.549-0.074l-1.55,0.027c0.008-1.059,0.017-2.118,0.025-3.18c0.426-0.43,0.854-0.864,1.279-1.297c1.829-0.217,3.624-0.299,4.973,1.312l-0.086-0.018c0.046,1.038,0.063,2.078,0.046,3.122C74.034,37.623,72.989,37.66,71.901,36.528z"/>
<path fill="#99999A" d="M65.535,30.265c1.057,0.021,2.113,0.04,3.17,0.061c-0.002,0.003,0.114-0.152,0.114-0.152c1.058,0.699,1.403,1.388,1.042,2.069c-0.358,0.678-0.717,1.016-1.077,1.016l0.044,0.043C67.729,32.289,66.633,31.279,65.535,30.265z"/>
<path fill="#B4B4B5" d="M62.314,33.143l-1.316,0.064l-1.318-0.015c-0.8-0.58-1.095-1.196-0.887-1.846c0.214-0.668,0.442-1.004,0.689-1.004c1.097-0.052,2.192-0.101,3.29-0.152C62.957,31.227,62.805,32.209,62.314,33.143z"/>
<path fill="#615F5F" d="M68.784,33.259c0.036-1.028,0.049-2.057,0.035-3.085c2.067-0.021,4.134-0.04,6.196-0.064c0.02,1.065,0.041,2.136,0.064,3.205C72.981,33.299,70.882,33.278,68.784,33.259z"/>
<path fill="#8E8E8F" d="M59.482,30.342c-0.008,0.956,0.057,1.908,0.195,2.854c-1.139,1.01-2.276,2.021-3.416,3.03c0-0.003,0.373,0.754,0.373,0.754c-1.191,0.796-2.426,0.873-3.706,0.223c-0.887-1.05-1.424-2.249-1.563-3.619c0.199-1.364,0.791-2.521,1.831-3.442c0.015-2.084,0.03-4.169,0.047-6.253c1.036,0.006,2.072,0.021,3.108,0.045c1.033,1.025,2.065,2.051,3.098,3.076C59.461,28.12,59.472,29.231,59.482,30.342z"/>
<path fill="#7C7C7C" d="M31.252,23.927c2.157-1.047,4.313-2.094,6.471-3.14c0.836,0.732,1.095,1.44,0.781,2.127c-0.31,0.674-0.61,1.013-0.905,1.013c-1.013,0.052-2.026,0.11-3.04,0.18C33.402,25.068,32.296,25.056,31.252,23.927z"/>
<path fill="#AEAEAF" d="M37.6,23.927c0.04-1.047,0.081-2.094,0.122-3.14c0.001,0-0.146,0.018-0.146,0.018c1.034-1.26,2.073-1.266,3.12-0.015c1.063,1.043,2.125,2.09,3.191,3.134C41.791,23.924,39.695,23.927,37.6,23.927z"/>
<path fill="#919192" d="M31.252,23.927c1.102,0.058,2.205,0.116,3.306,0.177c0.066,1.92,0.13,3.839,0.194,5.756c-0.412,0.409-0.825,0.821-1.239,1.23c-0.584,0-1.166-0.003-1.752-0.006c-0.474-0.342-0.947-0.687-1.425-1.028c-0.577-1.041-0.88-2.155-0.88-3.348c0.303-1.163,0.944-2.106,1.874-2.863L31.252,23.927z"/>
<path fill="#AEAEAF" d="M40.449,29.96c2.162,0.07,4.326,0.141,6.49,0.214c0.792,0.656,1.148,1.392,1.074,2.209c-0.08,0.851-0.227,1.278-0.438,1.282c-1.693,1.413-3.614,1.712-5.708,1.181c-1.282-0.638-2.036-1.678-2.334-3.067C39.837,31.175,40.142,30.568,40.449,29.96z"/>
<path fill="#878788" d="M47.158,33.326c-0.073-1.05-0.146-2.103-0.22-3.152c2.086-0.012,4.172-0.021,6.258-0.031c0.001,1.038,0,2.075-0.008,3.113C51.2,35.155,49.185,34.88,47.158,33.326z"/>
<path fill="#919192" d="M34.752,29.86c0.977,0.168,1.961,0.271,2.951,0.311c0.336,0.62,0.671,1.242,1.009,1.862c-0.394,0.586-0.789,1.169-1.181,1.755c-0.704-0.016-1.408-0.028-2.112-0.04c-0.87-0.613-1.303-1.346-1.303-2.2c0.001-0.913,0.111-1.367,0.33-1.367L34.752,29.86z"/>
<path fill="#848484" d="M37.703,30.171c0.916-0.07,1.833-0.137,2.747-0.21c-0.001,0,0.279,0.324,0.279,0.324c-1.018,1.349-2.046,1.355-3.085,0.024L37.703,30.171z"/>
<path fill="#AAABAC" d="M40.703,17.671c-0.003-1.041-0.005-2.082-0.003-3.122c1.041,0,2.083,0,3.125,0c0,1.041,0,2.084-0.002,3.125h-1.559L40.703,17.671z"/>
<path fill="#7F7F7F" d="M40.696,20.79c-1.041,0.009-2.08,0.012-3.12,0.012c0-1.041,0-2.084,0.004-3.128c1.042,0,2.081,0,3.117,0C40.702,18.715,40.702,19.752,40.696,20.79z"/>
<path fill="#7E7D7E" d="M31.33,23.844c0.003,1.099,0.008,2.197,0.012,3.296c-1.126,1.025-2.337,1.196-3.654,0.375c-0.67-1.374-0.482-2.612,0.563-3.72l-0.128,0.088C29.192,23.872,30.26,23.86,31.33,23.844z"/>
<path fill="#7C7C7C" d="M46.673,55.158c0.101,0.961,0.134,1.926,0.098,2.89c-0.758,1.209-1.642,2.313-2.654,3.317l-0.718,0.11l-1.268,0.863l-1.236-0.909l-0.364-0.04c-0.78-0.964-1.674-1.81-2.703-2.508l-0.297-0.9c-1.483-3.391-0.676-6.638,0.592-9.866c0.617-1.245,1.477-2.289,2.589-3.125c1.381-0.32,2.677-0.104,3.884,0.644C47.478,48.328,44.283,52.351,46.673,55.158z"/>
<path fill="#585656" d="M59.316,70.363c-1.098,0.036-2.193,0.076-3.292,0.116c-0.891-4.087-1.78-8.17-2.67-12.253c1.003-0.938,2.137-1.136,3.404-0.604c2.042,1.715,3.116,3.988,3.735,6.521c0.149,1.307-0.194,2.466-1.09,3.451C59.319,68.513,59.29,69.438,59.316,70.363z"/>
<path fill="#4F4C4C" d="M43.738,45.964c-1.001-0.183-2.008-0.269-3.025-0.256c-0.811-1.318-0.75-2.622,0.061-3.921c1.196-0.854,2.525-1.374,3.973-1.621c2.276-0.101,4.341,0.47,6.117,1.947c1.372,1.88,1.807,3.985,1.512,6.268c-0.395,1.453-1.191,2.652-2.328,3.632c-0.979,0.03-1.958,0.067-2.936,0.11C44.687,50.78,46.03,47.376,43.738,45.964z"/>
<path fill="#636161" d="M56.342,58.296c-0.997-0.01-1.994-0.034-2.989-0.067c-0.106-1.028-0.172-2.057-0.195-3.092c0.321-0.668,0.642-1.34,0.96-2.011c1.755-1.648,3.676-2.423,5.986-1.126c1.278,2.081,1.305,4.187,0.128,6.32C58.93,59.306,57.633,59.346,56.342,58.296z"/>
<path fill="#6F6E6F" d="M43.738,45.964c1.123,2.05,2.246,4.105,3.373,6.156c-0.055,1.028-0.2,2.041-0.437,3.039C45.695,52.095,44.717,49.028,43.738,45.964z"/>
<path fill="#3A3635" d="M50.048,52.012c0.006-1.028,0.019-2.054,0.037-3.082c1.373-0.647,2.627-0.464,3.763,0.54c1.26,2.048,1.028,3.961-0.505,5.762c0,0-0.186-0.092-0.186-0.095C52.12,54.097,51.084,53.056,50.048,52.012z"/>
<path fill="#504D4D" d="M44.117,61.365c0.885-1.104,1.772-2.209,2.655-3.313c0.035,1.153,0.072,2.307,0.108,3.46C45.96,61.442,45.038,61.393,44.117,61.365z"/>
<path fill="#ACADAD" d="M40.716,48.841c-1.062,3.049-2.124,6.098-3.186,9.144c-2.042-1.004-4.083-2.005-6.125-3.006c-0.056-0.977-0.091-1.953-0.105-2.93c0.387-2.237,1.669-3.767,3.71-4.7C37.183,46.8,39.121,47.169,40.716,48.841z"/>
<path fill="#B1B1B2" d="M40.899,70.683c-1.142,1.047-2.284,2.094-3.427,3.144c-0.992,0.055-1.982,0.109-2.974,0.158l-0.182-0.198c-1.649-2.075-1.781-4.016,0.503-5.743C36.846,68.922,38.872,69.801,40.899,70.683z"/>
<path fill="#3E3A39" d="M34.82,68.043c-0.168,1.913-0.336,3.83-0.503,5.743l-1.544,0.006l-1.494-0.391c0.003-1.926,0.006-3.851,0.009-5.776c-0.424-0.52-0.85-1.038-1.279-1.557c0.437-0.507,0.877-1.014,1.317-1.52C32.49,65.714,33.656,66.877,34.82,68.043z"/>
<path fill="#050505" d="M28.285,64.536c-1.096-1.068-2.193-2.136-3.289-3.204l0.023,0.046c0.859-1.044,1.964-1.538,3.317-1.48c1.318,0.281,2.281,1.028,2.887,2.234c-0.131,0.812-0.098,1.617,0.103,2.417l-0.621,0.03C29.879,65.641,29.072,65.626,28.285,64.536z"/>
<path fill="#868686" d="M31.223,62.132c-0.993-0.251-1.986-0.495-2.981-0.732c-0.459-0.504-0.92-1.008-1.387-1.511c0.438-0.519,0.882-1.041,1.326-1.563c1.047-0.006,2.095-0.01,3.142-0.016C31.289,59.583,31.255,60.856,31.223,62.132z"/>
<path fill="#656363" d="M37.827,58.882c0.902,0.836,1.804,1.675,2.704,2.511C39.629,60.554,38.729,59.718,37.827,58.882z"/>
<path fill="#878788" d="M40.894,61.43c0.838,0.021,1.676,0.036,2.509,0.046C42.563,61.46,41.729,61.446,40.894,61.43z"/>
<path fill="#B0B1B1" d="M28.251,23.796c-0.026,1.083-0.052,2.167-0.078,3.253c-1.019,1.038-2.008,1.059-2.958-0.095l-0.429,0.256C25.939,26.072,27.096,24.934,28.251,23.796z"/>
<path fill="#949495" d="M25.214,26.954c0.986,0.064,1.972,0.095,2.958,0.095c1.056,0.027,2.112,0.058,3.168,0.091c-0.006,0.867,0.047,1.728,0.162,2.585c-2.019,2.002-4.129,2.268-6.354,0.333c0,0-0.014,0.08-0.014,0.076C25.162,29.075,25.188,28.016,25.214,26.954z"/>
<path fill="#A2A2A3" d="M21.898,48.762c-2.063,0.003-4.127,0.006-6.19,0.006c-0.16-3.164-0.32-6.329-0.483-9.497c-0.003-0.003,0.59,0.308,0.59,0.308c0.832-1.053,1.637-1.031,2.416,0.061l1.155-0.213c0.863,1.547,2.691,1.971,3.793,3.25c0.752,1.648,0.757,3.299,0.012,4.95C22.762,48.008,22.33,48.387,21.898,48.762z"/>
<path fill="#7E7E7E" d="M25.03,39.579c0.047-1.031,0.065-2.063,0.057-3.098c0.583-0.369,1.167-0.741,1.753-1.117c1.421,0.256,2.571,0.952,3.47,2.081c1.488,2.502,2.41,5.097,1.291,8.02c-1.013,1.034-2.245,1.633-3.685,1.798c-2.356-0.33-3.729-1.709-4.257-3.989C23.449,41.795,23.94,40.577,25.03,39.579z"/>
<path fill="#636161" d="M25.03,39.579c-0.011,1.044-0.023,2.087-0.034,3.131c-1.1,1.742-2.223,1.758-3.372,0.049c-0.748-1.111-1.495-2.222-2.24-3.333C21.267,39.479,23.148,39.528,25.03,39.579z"/>
<path fill="#B1B2B2" d="M18.23,39.64l-1.208-0.067l-1.208,0.006c-0.079-1.035-0.104-2.072-0.073-3.113C16.57,37.526,17.4,38.585,18.23,39.64z"/>
<path fill="#7A7A7A" d="M22.161,33.629c0.94-0.183,1.888-0.248,2.844-0.192c0.417,0.485,0.833,0.97,1.25,1.456c-0.391,0.507-0.78,1.013-1.17,1.52l0.002,0.07C24.111,35.53,23.136,34.581,22.161,33.629z"/>
<path fill="#504D4D" d="M25.149,30.058c2.118-0.11,4.234-0.217,6.354-0.33c0-0.003-0.415,0.827-0.415,0.827c0.867,0.793,1.165,1.599,0.896,2.414c-0.272,0.818-0.548,1.229-0.832,1.229c-2.215,0.87-4.312,0.903-6.15-0.875l0.004,0.11C25.053,32.31,25.101,31.184,25.149,30.058z"/>
<path fill="#646262" d="M59.404,67.594c0.017-1.016,0.032-2.032,0.046-3.045c0,0,0.949-1.157,0.946-1.16c0.904-0.531,1.874-0.705,2.906-0.534c0.002-0.006,1.412,0.516,1.413,0.51c0.002-0.003,0.968,1.15,0.968,1.15c-0.058,1.041-0.116,2.082-0.176,3.122C63.473,67.622,61.438,67.61,59.404,67.594z"/>
<path fill="#787778" d="M74.812,61.143c1.182-0.873,2.364-1.742,3.548-2.609c-0.065,0.974-0.114,1.947-0.146,2.924C77.08,61.351,75.946,61.246,74.812,61.143z"/>
<path fill="#787778" d="M71.966,64.564c-1.091-0.058-2.183-0.115-3.273-0.174c-0.503-2.749,0.681-3.869,3.394-3.513c0,0-0.16,0.669-0.16,0.672C71.974,62.556,71.987,63.56,71.966,64.564z"/>
<path fill="#5D5B5B" d="M72.086,60.877c-1.131,1.172-2.261,2.344-3.394,3.513c-1.002,0.062-2.005,0.104-3.009,0.125l0.049-0.021c-1.023-0.928-1.75-2.047-2.188-3.359c-0.16-1.377,0.005-2.716,0.433-4.031c1.159-1.795,2.473-3.22,4.862-1.936l-0.012,0.01c1.17,0.958,2.201,2.051,3.164,3.21C72.005,59.217,72.037,60.047,72.086,60.877z"/>
<path fill="#828282" d="M28.014,45.832c1.083,0,2.167,0,3.25,0c0.523,0.141,1.048,0.284,1.573,0.421c0.882,0.693,1.411,1.602,1.64,2.695c-1.059,1.034-2.12,2.065-3.178,3.101c-2.121-0.125-4.241-0.254-6.362-0.382c-0.822-0.821-1.086-1.782-0.712-2.896C25.081,47.27,26.795,46.866,28.014,45.832z"/>
<path fill="#8C8C8C" d="M24.993,49.372c0.008,0.77-0.009,1.535-0.053,2.298c-1.015-0.971-2.028-1.938-3.042-2.905c0-0.003-0.076,0.187-0.076,0.187C23.066,47.676,24.114,47.883,24.993,49.372z"/>
<path fill="#868686" d="M25.016,58.411c0.51-0.592,1.019-1.184,1.556-1.775c0.554,0.562,1.082,1.126,1.608,1.69l0.031-0.04c-1.056,1.139-2.112,1.136-3.165-0.003L25.016,58.411z"/>
<path fill="#050505" d="M28.285,64.536c0.81,0.013,1.62,0.024,2.426,0.043c0.371,0.979,0.566,1.996,0.577,3.046C30.286,66.597,29.285,65.568,28.285,64.536z"/>
<path fill="#403C3B" d="M25.046,58.283c1.055,0.003,2.109,0.006,3.163,0.006c-0.018,1.038-0.01,2.075,0.028,3.113c-1.065-0.006-2.135-0.01-3.212-0.019C25.065,60.347,25.074,59.315,25.046,58.283z"/>
<path fill="#4E4B4B" d="M71.901,36.528c1.047-0.037,2.094-0.07,3.139-0.107c1.055,0,2.107,0.003,3.16,0.003c0.821,0.696,1.093,1.388,0.819,2.084c-0.271,0.693-0.545,1.041-0.819,1.041v-0.034C76.1,38.52,74.001,37.526,71.901,36.528z"/>
<path fill="#696868" d="M78.2,39.549c0-1.041,0-2.084,0-3.125c1.042,0,2.083,0,3.125,0c0,1.041,0,2.084,0,3.125C80.284,39.549,79.242,39.549,78.2,39.549z"/>
<path fill="#6D6C6C" d="M71.907,45.671c-1.046,1.065-2.093,2.13-3.14,3.195c-3.225,1.944-4.926-0.237-6.624-2.438c-0.532-1.324-0.418-2.581,0.437-3.75l0.009,0.012c1.001-1.117,2.028-1.138,3.078-0.067C67.746,43.638,69.828,44.655,71.907,45.671z"/>
<path fill="#575555" d="M65.667,42.622c-1.025,0.043-2.053,0.067-3.078,0.067c1.061-0.992,2.123-1.987,3.185-2.979C65.73,40.684,65.695,41.652,65.667,42.622z"/>
<path fill="#686767" d="M71.991,58.387c-1.054-1.067-2.11-2.139-3.164-3.21c1.045-0.006,2.09-0.01,3.136-0.016C71.972,56.236,71.982,57.313,71.991,58.387z"/>
<path fill="#636262" d="M62.696,45.79c2.024,1.025,4.048,2.053,6.071,3.079c0.022,2.1,0.047,4.199,0.071,6.299c-1.047,1.044-2.092,2.088-3.139,3.132c-1.004,1.116-2.173,1.275-3.486,0.604c-1.743-2.353-0.818-5.242-1.567-7.797c-0.18-1.367,0.029-2.673,0.567-3.937C61.706,46.708,62.201,46.247,62.696,45.79z"/>
<path fill="#5E5D5C" d="M50.097,42.698c-2.107-0.006-4.213-0.016-6.32-0.021c-0.747-0.574-1.116-1.245-1.111-2.011c0.004-0.812,0.101-1.218,0.284-1.221c1.259-1.504,2.93-2.268,4.797-2.673c1.828-0.238,3.671-0.213,5.515-0.162c1.124,0.122,2.247,0.241,3.372,0.366c-0.122,1.901-0.246,3.802-0.369,5.701c-0.441,0.424-0.882,0.848-1.321,1.272C53.056,44.587,51.39,44.364,50.097,42.698z"/>
<path fill="#565454" d="M62.58,42.677c-0.014,1.041,0.024,2.078,0.114,3.113c0.002,0-0.189,0.003-0.189,0.003c-0.906,1.016-2.023,1.642-3.386,1.816c-1.352-0.146-2.539-0.672-3.563-1.565c-0.58-1.331-0.322-2.478,0.773-3.434l-0.064,0.067C58.37,42.677,60.475,42.677,62.58,42.677z"/>
<path fill="#919191" d="M53.262,36.61c-0.94,0.9-1.88,1.797-2.821,2.698c-2.211-1.569-4.686-1.435-7.195-1.102c-1.268,0.311-2.516,0.262-3.757-0.138c-1.75-1.08-2.954-2.401-2.029-4.647l0.69-0.714l1.262-0.757l1.143,0.925c2.2,0.149,4.4,0.302,6.602,0.452c2.013-0.021,4.022-0.046,6.032-0.07C53.213,34.376,53.237,35.493,53.262,36.61z"/>
<path fill="#686767" d="M37.459,33.421c1.114,1.065,2.226,2.13,3.339,3.195c1.48,1.944,0.137,3.357-0.903,4.834c-0.699,1.025-1.406,2.045-2.112,3.07c-0.876,0.909-1.894,1.614-3.049,2.121c-1.288,0.354-2.413,0.092-3.349-0.882l-0.119,0.073c-1.089-2.987-2.178-5.975-3.264-8.966c0.063-2.026,2.053-2.319,3.11-3.449c0.038-0.958,0.032-1.913-0.023-2.865c1.119-0.122,2.237-0.248,3.357-0.373C35.45,31.26,36.455,32.341,37.459,33.421z"/>
<path fill="#B8B9BA" d="M40.554,32.875l-1.216,0.095c0,0-1.193-0.256-1.19-0.26c-0.258-0.784-0.427-1.583-0.505-2.405c1.028-0.088,2.057-0.098,3.087-0.021C40.699,31.151,40.641,32.014,40.554,32.875z"/>
<path fill="#6F6E6F" d="M31.385,45.759c0.998,0.024,1.996,0.043,2.994,0.055c0.993-0.922,1.974-1.855,2.948-2.798l0.534-0.663c1.083-1.095,1.97-0.9,2.684,0.412c0.081,0.979,0.137,1.959,0.168,2.942c0.001,1.044,0.003,2.091,0.003,3.134c-2.078,0.037-4.158,0.07-6.238,0.107C33.448,47.883,32.416,46.822,31.385,45.759z"/>
<path fill="#676565" d="M56.342,58.296c1.035,0.003,2.069,0.003,3.105,0.006c0.985,0.817,1.601,1.846,1.79,3.122c-0.212,1.26-0.811,2.304-1.791,3.128l0.004-0.003C58.414,62.464,57.378,60.38,56.342,58.296z"/>
<path fill="#454241" d="M40.545,42.765c-0.914-0.018-1.812-0.152-2.687-0.409c0.981-1.917,1.96-3.83,2.938-5.744c0.907-0.034,1.77,0.141,2.593,0.516c1.382,0.354,1.895,0.836,1.545,1.45c-0.383,0.671-0.773,1.01-1.181,1.01c0.044,1.028,0.052,2.06,0.024,3.088C42.699,42.707,41.622,42.735,40.545,42.765z"/>
<path fill="#423E3D" d="M56.33,42.61c-0.014,1.053-0.029,2.106-0.043,3.159c-0.196,1.114-0.749,2.017-1.605,2.75c-0.529,0.135-1.062,0.266-1.594,0.396c-1.001,0.003-2.002,0.01-3.003,0.016c0.003-2.078,0.007-4.153,0.012-6.231C52.175,42.671,54.252,42.64,56.33,42.61z"/>
<path fill="#5E5D5C" d="M59.474,61.436c-0.009-1.044-0.019-2.09-0.027-3.134c0-2.088,0.002-4.175,0.002-6.263c-0.767-1.104-0.824-2.225-0.064-3.359c1.129-0.813,2.195-0.778,3.186,0.237c0.002,3.129,0.004,6.254,0.005,9.382c0.47,0.527,0.94,1.053,1.415,1.58c-0.309,0.635-0.621,1.27-0.933,1.908C61.762,62.697,60.562,62.632,59.474,61.436z"/>
<path fill="#545251" d="M59.446,48.908c0.001,1.044,0.001,2.088,0.003,3.131c-2.037,1.063-4.074,2.127-6.108,3.192c-0.084-2.105-0.168-4.211-0.253-6.317l0.416-0.036c1.315-1.45,3.002-1.478,4.758-1.236C58.657,48.063,59.052,48.488,59.446,48.908z"/>
<path fill="#575555" d="M24.993,49.372c-1.058-0.141-2.113-0.28-3.171-0.421c-0.065-2.063-0.131-4.129-0.198-6.192c1.125-0.016,2.249-0.034,3.372-0.049c1.007,1.041,2.014,2.081,3.02,3.122C27.007,47.01,26,48.192,24.993,49.372z"/>
<path fill="#413D3C" d="M31.112,33.418c-1.036,1.147-2.072,2.295-3.11,3.446c-0.949-0.299-1.921-0.452-2.917-0.452c0.042-1.032,0.014-2.06-0.083-3.088C27.037,33.354,29.075,33.384,31.112,33.418z"/>
<path fill="#5A5858" d="M59.474,61.436c1.05,0.006,2.102,0.01,3.151,0.016c0.872,0.723,1.145,1.422,0.817,2.1c-0.32,0.662-0.635,0.995-0.942,0.995l-1.527-0.01l-1.527,0.016C59.449,63.511,59.46,62.474,59.474,61.436z"/>
<path fill="#6E6D6D" d="M62.501,64.546c0.049-1.032,0.09-2.063,0.125-3.095l-0.051-0.027c1.041-1.157,2.083-1.105,3.125,0c0.02,1.022,0.029,2.048,0.032,3.069C64.655,64.512,63.578,64.528,62.501,64.546z"/>
<path fill="#545251" d="M65.7,61.424c-1.042,0-2.083,0-3.125,0c0-1.041,0-2.085,0-3.125c1.042,0,2.083,0,3.125,0C65.7,59.339,65.7,60.383,65.7,61.424z"/>
<path fill="#524F4F" d="M62.57,48.917c-1.04-0.003-2.082-0.006-3.124-0.009l0.02,0.024c-1.055-0.684-1.411-1.373-1.071-2.075c0.34-0.702,0.684-1.056,1.034-1.056c1.025,0,2.051-0.003,3.076-0.009C62.526,46.833,62.55,47.877,62.57,48.917z"/>
<path fill="#686767" d="M43.754,39.589c-0.127-0.821-0.248-1.642-0.363-2.463c2.347,0.729,4.695,1.459,7.047,2.182C48.211,39.399,45.981,39.494,43.754,39.589z"/>
<path fill="#646262" d="M59.429,45.802c0.013,1.044,0.024,2.087,0.037,3.131c-1.99-0.019-3.979-0.033-5.967-0.052c0.933-1.038,1.86-2.075,2.788-3.113C57.334,45.78,58.381,45.793,59.429,45.802z"/>
<path fill="#868686" d="M37.327,43.016c-0.982,0.934-1.964,1.868-2.946,2.798C35.361,44.884,36.344,43.949,37.327,43.016z"/>
</svg>