<?xml version="1.0" encoding="utf-8"?>
<!DOCTYPE svg PUBLIC "-//W3C//DTD SVG 1.1//EN" "http://www.w3.org/Graphics/SVG/1.1/DTD/svg11.dtd">
<svg version="1.1" xmlns="http://www.w3.org/2000/svg" xmlns:xlink="http://www.w3.org/1999/xlink" x="0px" y="0px" width="100px" height="100px" viewBox="0 0 100 100" enable-background="new 0 0 100 100" xml:space="preserve">
<path fill="#B5B7B3" d="M100.599,43.75c0,16.666,0,33.334,0,50c-1.586,1.703-3.525,2.338-5.817,1.938c-1.37-0.516-2.555-1.306-3.542-2.389c-1.693-3.156-3.584-6.232-4.347-9.803c-0.721-3.513-2.246-6.83-2.764-10.425c-0.258-2.368,0.117-4.623,1.097-6.787c6.152-6.729,1.43-17.426,8.646-23.776C96.354,41.623,98.612,41.965,100.599,43.75z"/>
<path fill="#760507" d="M44.35,100c-4.167,0-8.333,0-12.5,0c-1.767-1.938-3.293-4.02-3.896-6.641c3.494-10.477,3.99-21.817,9.151-31.83c2.543-1.479,5.13-1.522,7.767-0.271c2.373,1.746,3.418,4.209,3.806,7.025c0.296,2.737,0.318,5.484,0.342,8.233C48.369,84.524,51.201,93.225,44.35,100z"/>
<path fill="#850A07" d="M13.1,0c8.333,0,16.667,0,25,0c3.235,3.476,4.642,7.306,2.312,11.862c-1.535,2.255-3.737,3.363-6.392,3.674c-5.752-0.281-10.227-4.794-16.057-4.904c-2.461-0.546-4.448-1.794-5.835-3.931C11.118,4.275,11.279,2.017,13.1,0z"/>
<path fill="#80090A" d="M38.12,12.39C38.112,8.261,38.105,4.129,38.1,0c2.083,0,4.167,0,6.25,0c3.785,3.5,4.691,8.029,4.611,12.912c-0.486,6.552,1.685,13.635-3.865,19.168c-2.905,1.465-5.688,1.333-8.342-0.61C32.158,24.747,32.917,18.408,38.12,12.39z"/>
<path fill="#8F1717" d="M0.6,50c0-4.166,0-8.334,0-12.5c2.479-2.341,3.065-5.405,3.299-8.618c0.385-2.64,1.631-4.614,4.206-5.618c2.798-0.543,5.141,0.284,7.11,2.295c3.482,5.896,2.935,12,0.966,18.179C12.067,48.52,8.502,54.66,0.6,50z"/>
<path fill="#B5B5B4" d="M94.349,100c-6.25,0-12.5,0-18.75,0c-1.981-2.377-5.165-3.003-7.379-5.069c-0.85-1.354-1.316-2.816-1.42-4.415c0.264-2.598,1.485-4.6,3.645-6.059c11.263-5.578,17.17,2.729,23.797,9.174l0.118,0.131C96.196,95.844,96.196,97.925,94.349,100z"/>
<path fill="#8A1219" d="M0.6,50c4.161-2.081,8.324-4.163,12.485-6.244c0.712,0.522,1.425,1.047,2.139,1.569c3.072,7.846,5.438,15.488-5.607,19.208C4.22,64.387,3.603,59.018,0.6,56.251C0.6,54.166,0.6,52.084,0.6,50z"/>
<path fill="#6F0002" d="M44.35,100c0.003-8.334,0.006-16.669,0.008-25.003c2.455-1.993,4.99-1.966,7.589-0.302c4.703,5.545,3.11,12.045,2.78,18.355c-0.591,2.78-2.26,4.926-4.128,6.949C48.517,100,46.433,100,44.35,100z"/>
<path fill="#83060A" d="M6.85,100c-12.384,0.982-3.659-8.588-6.25-12.5c3.421-3.146,7.158-4.492,11.563-2.048c2.104,1.633,3.13,3.784,3.047,6.451C14.521,96.759,9.386,97.04,6.85,100z"/>
<path fill="#9EA3A0" d="M100.599,6.25c0,2.084,0,4.166,0,6.25c-2.317,1.779-2.937,4.669-4.534,6.937c-1.142,0.946-2.433,1.544-3.895,1.816c-2.403,0.04-4.423-0.818-6.118-2.502c-2.609-3.452-2.704-7.211-1.388-11.148c0.727-1.425,1.776-2.567,3.122-3.427c2.194-0.882,4.497-0.961,6.819-0.842C96.969,3.546,98.932,4.596,100.599,6.25z"/>
<path fill="#7C1311" d="M0.6,81.25c0-4.166,0-8.334,0-12.5c1.985-1.764,4.27-2.441,6.897-1.898c3.856,2.078,7.008,4.776,8.133,9.26c0.176,2.771-0.583,5.145-2.907,6.854C8.335,84.848,4.274,84.408,0.6,81.25z"/>
<path fill="#A93232" d="M13.086,24.994c-2.055,0.021-4.111,0.042-6.166,0.064c-2.124,1.8-4.231,1.788-6.322-0.058c0-2.084,0-4.166,0-6.25c1.717-1.599,3.471-3.134,5.824-3.748c2.437-0.296,4.656,0.244,6.631,1.721c1.771,1.853,2.208,4.019,1.497,6.451C14.064,23.779,13.577,24.387,13.086,24.994z"/>
<path fill="#710000" d="M44.419,12.519C44.396,8.347,44.373,4.172,44.35,0c2.083,0,4.167,0,6.25,0c1.699,1.895,3.235,3.879,3.606,6.513c0.038,2.658-0.844,4.938-2.81,6.763C48.912,14.493,46.574,14.35,44.419,12.519z"/>
<path fill="#ACACAC" d="M51.074,6.311C50.917,4.208,50.759,2.103,50.599,0c4.168,0,8.333,0,12.5,0c2.048,2.436,1.641,4.813-0.16,7.166C58.729,10.419,54.797,9.815,51.074,6.311z"/>
<path fill="#BBBFBD" d="M62.832,5.649C62.92,3.766,63.011,1.883,63.099,0c4.168,0,8.333,0,12.5,0c1.554,1.376,2.326,3.076,2.15,5.182c-0.351,1.313-0.998,2.451-1.923,3.446c-1.618,1.309-3.481,1.953-5.554,2.008c-2.025-0.024-3.96-0.391-5.667-1.572C63.6,8.145,63.03,6.995,62.832,5.649z"/>
<path fill="#B7B6B7" d="M100.599,43.75c-1.998,0.012-3.997,0.021-5.998,0.034c-4.471-3.61-4.534-7.788-1.599-12.357c2.485-2.023,5.016-2.194,7.597-0.177C100.599,35.416,100.599,39.585,100.599,43.75z"/>
<path fill="#8F1717" d="M6.835,68.729c-2.08,0.006-4.158,0.016-6.236,0.021c0-4.166,0-8.334,0-12.5c2.083,2.081,4.167,4.159,6.25,6.241C8.733,64.575,8.51,66.653,6.835,68.729z"/>
<path fill="#841312" d="M0.6,81.25c4.149,0,8.299,0,12.448,0c1.61,1.321,1.88,3,1.297,4.901c-0.423,0.442-0.847,0.882-1.272,1.324C8.916,87.484,4.759,87.491,0.6,87.499C0.6,85.416,0.6,83.334,0.6,81.25z"/>
<path fill="#780507" d="M13.083,93.75c-0.005-2.091-0.008-4.184-0.012-6.274l0.041,0.024c2.138-1.867,4.416-1.795,6.787-0.494c1.987,1.739,2.898,3.955,2.917,6.567c-0.308,2.597-1.805,4.56-3.468,6.427c-2.083,0-4.167,0-6.25,0C11.255,97.922,11.241,95.838,13.083,93.75z"/>
<path fill="#820A0A" d="M19.35,100c0.008-2.097,0.014-4.196,0.021-6.293c4.143-3.421,8.29-3.451,12.443-0.018c0.011,2.103,0.023,4.208,0.035,6.311C27.683,100,23.517,100,19.35,100z"/>
<path fill="#AFB4B4" d="M50.599,100c0.154-2.084,0.309-4.169,0.465-6.256c3.745-3.607,7.764-4.328,12.148-1.142c1.784,2.493,1.886,4.962-0.113,7.397C58.932,100,54.767,100,50.599,100z"/>
<path fill="#9C2B2B" d="M0.6,25c2.106,0.019,4.211,0.037,6.319,0.058c-0.023,2.063-0.049,4.126-0.075,6.189c-2.08,1.84-4.161,1.84-6.244,0.003C0.6,29.166,0.6,27.085,0.6,25z"/>
<path fill="#9B9D9F" d="M100.599,18.75c0,2.084,0,4.166,0,6.25c-2.092,1.846-4.325,1.843-6.663,0.51c-1.416-2.298-1.454-4.535,0.312-6.689l0.29-0.162C96.584,16.892,98.606,16.91,100.599,18.75z"/>
<path fill="#9F9B9C" d="M100.599,18.75c-2.021-0.03-4.043-0.061-6.064-0.092c2.022-2.054,4.045-4.104,6.064-6.158C100.599,14.585,100.599,16.666,100.599,18.75z"/>
<path fill="#800908" d="M0.6,6.25C2.683,4.166,4.767,2.084,6.85,0c1.884,2.087,1.625,4.214,0.125,6.369C4.822,7.877,2.689,8.133,0.6,6.25z"/>
<path fill="#7E0904" d="M6.885,6.177C6.872,4.117,6.862,2.06,6.85,0c2.083,0,4.167,0,6.25,0c-0.003,2.069-0.006,4.135-0.011,6.204c-0.439,0.424-0.879,0.849-1.318,1.276c-1.195,0.369-2.39,0.366-3.584-0.009C7.752,7.041,7.317,6.61,6.885,6.177z"/>
<path fill="#AFB0B1" d="M75.949,5.533C75.833,3.69,75.715,1.844,75.599,0c2.083,0,4.168,0,6.25,0c1.85,2.1,1.827,4.327,0.46,6.65C79.903,7.91,77.717,7.901,75.949,5.533z"/>
<path fill="#88170F" d="M0.6,31.25c2.082,0,4.163-0.003,6.244-0.003C4.763,33.331,2.682,35.415,0.6,37.5C0.6,35.416,0.6,33.335,0.6,31.25z"/>
<path fill="#A6A0A2" d="M94.583,24.954c2.005,0.016,4.01,0.031,6.015,0.046c0,2.084,0,4.166,0,6.25c-2.002-0.083-4.002-0.165-6.004-0.247C92.786,28.989,92.789,26.975,94.583,24.954z"/>
<path fill="#B33D3D" d="M6.835,18.738C4.758,18.744,2.678,18.747,0.6,18.75c0-2.084,0-4.166,0-6.25c2.086-1.883,4.213-1.626,6.366-0.125C8.473,14.526,8.731,16.656,6.835,18.738z"/>
<path fill="#9E9B9C" d="M94.329,6.253c-2.068-0.015-4.136-0.033-6.204-0.049C86.46,4.144,86.229,2.075,88.1,0c2.083,0,4.168,0,6.25,0C96.19,2.09,96.189,4.175,94.329,6.253z"/>
<path fill="#9C9F9E" d="M88.099,0c0.008,2.069,0.016,4.138,0.025,6.207c0-0.003-0.23,0.306-0.23,0.306c-2.1,1.629-4.047,1.321-5.877-0.464C81.96,4.031,81.906,2.017,81.849,0C83.932,0,86.017,0,88.099,0z"/>
<path fill="#B0AFAE" d="M94.329,6.253C94.334,4.169,94.343,2.085,94.35,0c2.083,2.084,4.168,4.166,6.25,6.25C98.509,6.25,96.417,6.253,94.329,6.253z"/>
<path fill="#820A0A" d="M13.083,93.75c0.004,2.084,0.011,4.166,0.015,6.25c-2.083,0-4.167,0-6.25,0C8.928,97.916,11.005,95.834,13.083,93.75z"/>
<path fill="#A62224" d="M6.85,12.592C4.767,12.561,2.683,12.53,0.6,12.5c0-2.084,0-4.166,0-6.25c2.095-0.024,4.188-0.046,6.283-0.073c0.001,0-0.064,0.122-0.064,0.122c1.685,1.313,1.949,3.006,1.318,4.938C7.709,11.691,7.28,12.14,6.85,12.592z"/>
<path fill="#B5B5B4" d="M63.099,100c-0.004-2.057-0.007-4.117-0.012-6.174c1.869-1.693,3.835-1.989,5.93-0.409l0.385,0.391c1.796,2.082,1.789,4.145-0.053,6.192C67.267,100,65.182,100,63.099,100z"/>
<path fill="#A1ACA6" d="M69.349,100c0.018-2.063,0.034-4.129,0.053-6.192c2.065,2.066,4.132,4.13,6.197,6.192C73.517,100,71.432,100,69.349,100z"/>
<path fill="#B9B4B8" d="M94.349,100c0.004-2.078,0.007-4.159,0.01-6.238c2.081-0.003,4.161-0.009,6.24-0.012C98.517,95.834,96.432,97.916,94.349,100z"/>
<path fill="#D5D4D6" d="M94.242,93.631c-8.314-2.054-16.628-4.11-24.942-6.164c-2.011,1.807-4.329,2.459-6.985,1.864c-3.722-2.161-7.121-4.611-8.271-9.104c0.006-5.753-3.256-11.548,0.194-17.255c1.548-2.002,3.628-3.039,6.118-3.283c4.445-0.4,7.222,3.527,13.194,4.843c4.083,0.824,9.363-9.561,15.889-1.672c0.778,2.23,0.439,4.232-1.24,5.954c-0.043,2.06-0.087,4.123-0.13,6.183c2.151,2.16,4.429,4.208,6.017,6.86C94.137,85.782,94.188,89.706,94.242,93.631z"/>
<path fill="#C5C2C4" d="M88.199,68.815c-0.041-2.112-0.081-4.224-0.122-6.336c-3.233-3.015-4.747-6.738-4.585-11.148c-0.1-4.049-0.07-8.108-0.078-12.158c0-2.365,0.002-4.739,0.009-7.107c0.171-3.861-0.404-7.828,1.586-11.441c0.998-1.239,2.265-2.069,3.796-2.497c1.816,0.232,3.631,0.461,5.444,0.693c0.11,2.044,0.222,4.089,0.335,6.134c0.004,2.018,0.006,4.035,0.01,6.049c0.002,4.26,0.004,8.521,0.007,12.781C92.468,52.127,90.333,60.471,88.199,68.815z"/>
<path fill="#B7B6B7" d="M94.084,81.857c-2.005-2.286-4.012-4.571-6.017-6.86C90.074,77.286,92.08,79.571,94.084,81.857z"/>
<path fill="#8A1615" d="M31.813,93.69c-4.149,0.006-8.296,0.012-12.443,0.018c-0.156-2.072-0.313-4.145-0.469-6.216c0.133-0.735,0.267-1.472,0.401-2.207c2.646-5.41,6.816-10.162,7.163-16.589c1.311-12.906,0.435-25.833,0.707-38.749c0.694-6.192-1.827-13.339,5.284-17.59c1.887,0.012,3.775,0.024,5.661,0.034c0.04,6.311,0.078,12.619,0.118,18.93c6.664,10.403,6.694,20.795-0.05,31.174C36.061,72.892,33.937,83.289,31.813,93.69z"/>
<path fill="#750407" d="M38.185,62.494c0.015-10.392,0.032-20.783,0.049-31.174c2.037-0.024,4.074-0.049,6.109-0.073c4.79,3.082,4.378,8.05,4.63,12.777c-0.588,6.399,1.881,13.568-4.645,18.476C42.281,62.497,40.232,62.497,38.185,62.494z"/>
<path fill="#6A0200" d="M44.328,62.5c0.012-6.25,0.024-12.497,0.038-18.744c2.362-1.983,4.852-2.011,7.447-0.488c2.141,1.932,2.925,4.462,3.185,7.221c0.253,6.345-0.316,12.543-3.279,18.311c-2.465,1.831-4.917,1.95-7.356-0.046C44.351,66.669,44.338,64.584,44.328,62.5z"/>
<path fill="#680000" d="M44.362,68.753c1.919,0,3.839,0,5.759,0c2.041,2.088,2.041,4.172-0.008,6.253c-1.918-0.003-3.837-0.006-5.755-0.009C44.358,72.916,44.359,70.834,44.362,68.753z"/>
<path fill="#AE3B3B" d="M32.457,12.356c-0.185,6.33-0.37,12.659-0.556,18.988c-1.723,1.669-3.74,2.032-5.998,1.364c-6.886-3.577-4.106-11.917-8.309-16.828c-0.674-1.3-1.018-2.686-1.108-4.141c0.203-2.295,1.354-4.035,3.177-5.374C23.929,8.362,28.191,10.361,32.457,12.356z"/>
<path fill="#88050B" d="M19.664,6.366c-0.217,2.051-0.432,4.102-0.647,6.152c-1.369,1.669-3.137,2.06-5.168,1.62c-1.182-0.607-2.04-1.521-2.579-2.737c-0.381-2.066,0.25-3.772,1.827-5.146l-0.006-0.052C15.282,6.256,17.473,6.311,19.664,6.366z"/>
<path fill="#6C0000" d="M50.149,43.744c-1.928,0.006-3.856,0.009-5.784,0.012c-0.007-4.168-0.015-8.34-0.023-12.509c0.026-6.244,0.051-12.485,0.077-18.729c1.88-0.003,3.759-0.006,5.639-0.009c7.129,4.651,4.529,12.015,5.148,18.481C54.921,35.797,55.286,40.863,50.149,43.744z"/>
<path fill="#921110" d="M13.083,43.756c0.001-6.256,0.003-12.509,0.004-18.762c-0.001,0,0.006,0,0.006,0c2.051-1.816,4.315-2.008,6.756-0.897c1.962,1.767,2.466,4.16,2.855,6.607c0.6,2.417,1.039,4.853,0.852,7.361c-0.324,2.591-1.421,4.755-3.521,6.36c-2.444,1.211-4.773,1.181-6.93-0.656L13.083,43.756z"/>
<path fill="#CACAC9" d="M50.113,75.006c0.003-2.084,0.005-4.168,0.008-6.253c0.331-6.28,0.664-12.561,0.995-18.845c2.51-1.926,4.903-1.66,7.205,0.382c3.024,4.449,1.927,8.417-1.415,12.121c0,6.293,0,12.589-0.001,18.885c2.03,2.038,4.067,4.071,6.114,6.095c2.093,0.023,4.188,0.052,6.281,0.076c-0.093,1.986-0.185,3.973-0.278,5.957c-1.981,0.131-3.959,0.266-5.935,0.402c-4.009-0.027-8.017-0.055-12.023-0.082C50.746,87.5,50.429,81.253,50.113,75.006z"/>
<path fill="#890F0E" d="M13.106,43.769c1.973,0.042,3.946,0.082,5.918,0.125c0.667,0.274,1.334,0.549,2.004,0.821c1.7,1.507,2.513,3.449,2.771,5.665c0.181,2.151,0.21,4.309,0.218,6.469c-0.054,3.639,0.148,7.291-0.615,10.898c-0.494,1.425-1.25,2.691-2.245,3.82c-2.426,1.804-5.089,3.055-8.125,3.409c-2.066-2.081-4.132-4.166-6.198-6.247c0.004-2.081,0.009-4.159,0.014-6.237C8.935,56.25,11.021,50.009,13.106,43.769z"/>
<path fill="#C5C2C4" d="M82.017,6.049c1.961,0.152,3.92,0.305,5.88,0.46c0.297,3.876,0.6,7.751,0.904,11.621c-0.391,0.348-0.779,0.705-1.164,1.065c-2.072,1.722-4.395,1.987-6.904,1.19c-4.514-3.628-9.83-6.967-5.217-13.999c0,0,0.43-0.845,0.432-0.848C77.972,5.704,79.994,5.875,82.017,6.049z"/>
<path fill="#780605" d="M13.034,74.976c1.909-2.087,3.819-4.172,5.728-6.259c7.567,5.984,4.662,12.35,0.685,18.753c0,0-0.537,0.021-0.542,0.021c-1.934,0.003-3.864,0.006-5.794,0.009c-0.02-2.084-0.041-4.166-0.063-6.25C13.042,79.159,13.039,77.066,13.034,74.976z"/>
<path fill="#8F1717" d="M18.849,25.027c-1.918-0.012-3.836-0.021-5.754-0.033c-0.028-2.088-0.057-4.172-0.084-6.259c-1.796-2.1-1.584-4.175,0.085-6.229c1.976,0.003,3.952,0.006,5.923,0.013c-0.003,0,1.438,0.171,1.438,0.171C22.461,17.136,23.296,21.426,18.849,25.027z"/>
<path fill="#AE3635" d="M13.097,12.506c-0.028,2.075-0.054,4.154-0.083,6.229c-2.062,0.003-4.118,0.003-6.177,0.006c0.003-2.054,0.008-4.104,0.012-6.152c0,0.003,0.003-0.146,0.003-0.146c2.098-1.776,4.175-1.776,6.229,0.077L13.097,12.506z"/>
<path fill="#C5C7C4" d="M51.116,31.348c-0.353-6.28-0.704-12.561-1.057-18.838c0.339-2.066,0.678-4.132,1.015-6.198c3.922-0.217,7.842-0.437,11.761-0.656c-0.002-0.006,0.489,0.983,0.489,0.983c0.911,0.961,1.654,2.035,2.217,3.235c0.316,1.294,0.336,2.6,0.148,3.912c-0.779,2.445-1.495,4.919-1.77,7.51c-0.43,3.449-1.961,6.449-3.756,9.354c-0.928,1.077-2.051,1.874-3.354,2.426C54.606,33.518,52.685,33.005,51.116,31.348z"/>
<path fill="#F9F7F8" d="M56.759,31.177c0.119-4.123,0.238-8.246,0.355-12.369c1.931-2.182,3.952-4.285,5.789-6.549l-0.065,0.043c2.245-1.798,4.351-3.76,6.595-5.558c2.028-0.119,4.057-0.241,6.084-0.36c2.205,4.095,4.411,8.191,6.618,12.287c-0.013,2.621-0.691,5.118-1.415,7.614c-0.465,1.987-0.727,4.016-1.52,5.927c-0.692,1.266-1.614,2.325-2.716,3.244c-2.34,1.728-4.174,4.166-7.102,5.084c-2.265,0.625-4.492,0.5-6.687-0.33C59.095,38.275,57.442,35.044,56.759,31.177z"/>
<path fill="#EDECEE" d="M69.433,6.744c-2.197,1.853-4.395,3.705-6.593,5.558c0.158-1.889,0.32-3.778,0.482-5.664C65.361,6.674,67.396,6.708,69.433,6.744z"/>
<path fill="#9A1916" d="M13.081,12.519c-2.075-0.021-4.152-0.046-6.229-0.073c-0.009-2.051-0.02-4.102-0.032-6.149c2.09-0.012,4.184-0.024,6.276-0.04C13.092,8.344,13.086,10.431,13.081,12.519z"/>
<path fill="#EAE9EB" d="M87.978,49.994c0.033,4.162,0.066,8.322,0.099,12.484c-4.958,3.32-9.917,6.638-16.533,11.068c-2.77-3.524-5.651-7.195-8.534-10.863c0.188-0.626,0.376-1.255,0.556-1.887c2.415-3.146,6.644-4.089,8.952-7.376c2.05-1.693,4.321-3.095,6.309-4.883c1.196-0.698,2.482-1.107,3.855-1.254C84.855,47.385,86.554,48.422,87.978,49.994z"/>
<path fill="#F0F3EF" d="M56.759,31.177c2.115,2.103,4.229,4.205,6.344,6.308c2.113,2.942,6.346,2.884,8.401,5.923c1.067,1.914,1.397,3.958,1.078,6.119c-0.728,3.533-3.696,5.673-5.394,8.608c-1.268,1.529-2.68,2.927-4.112,4.307c0,0-0.065,0.237-0.067,0.237c-2.035-0.088-4.069-0.177-6.104-0.269c-0.068-4.07-0.139-8.139-0.207-12.207c-4.041-6.375-3.934-12.78-0.144-19.213L56.759,31.177z"/>
<path fill="#DEDBDC" d="M63.019,87.391c-2.039-2.033-4.076-4.065-6.114-6.095C58.942,83.328,60.981,85.357,63.019,87.391z"/>
<path fill="#ECE9EA" d="M87.95,31.231c0.028,2.094,0.056,4.188,0.084,6.278c-4.21,3.097-1.901,9.424-6.18,12.485L81.845,50c-2.598,2.014-5.097,1.813-7.511-0.333c-2.892-6.366-3.06-12.545,1.25-18.426l0.029,0.015c1.748-1.636,3.676-2.908,6.161-3.058C84.262,28.335,86.197,29.599,87.95,31.231z"/>
<path fill="#EDECEE" d="M87.95,31.231c-2.03,0.006-4.062,0.013-6.093,0.019c-2.062-2.051-4.107-4.117-6.14-6.195c2.138-2.127,4.276-4.257,6.416-6.384c1.837,0.174,3.673,0.345,5.506,0.521C87.741,23.206,87.845,27.219,87.95,31.231z"/>
<path fill="#EBECEE" d="M81.854,49.994c2.061-4.16,4.12-8.322,6.18-12.485c-0.018,4.163-0.036,8.322-0.055,12.485C85.936,49.994,83.896,49.994,81.854,49.994z"/>
<path fill="#98201F" d="M26.165,31.595c1.912-0.082,3.824-0.168,5.736-0.253c-0.065,14.59-0.133,29.178-0.2,43.768c-5.367,3.04-7.64,0.113-8.961-4.639c-0.37-4.027-0.228-8.074-0.266-12.103c0-2.295,0-4.6,0-6.895c0-2.203,0-4.416,0.001-6.622c0.001-2.139,0.005-4.288,0.054-6.43c0.071-2.118,0.29-4.199,1.745-5.915C24.904,32.205,25.536,31.9,26.165,31.595z"/>
<path fill="#A62B2B" d="M25.517,68.668c2.063,2.145,4.125,4.293,6.186,6.438c-4.086,4.123-8.171,8.243-12.256,12.366c-0.226-6.253-0.453-12.503-0.682-18.756c-0.003,0,0.967,0.045,0.967,0.045C21.63,66.895,23.559,66.913,25.517,68.668z"/>
<path fill="#E4E4E4" d="M56.555,30.991c0.049,6.402,0.098,12.805,0.145,19.21c-1.862-0.095-3.723-0.192-5.584-0.293c-0.322-2.054-0.645-4.107-0.966-6.161c0.321-4.135,0.644-8.268,0.966-12.399C52.928,31.229,54.743,31.109,56.555,30.991z"/>
<path fill="#C15654" d="M18.849,25.027c0.534-4.114,1.068-8.225,1.605-12.338c1.902,6.302,3.804,12.604,5.707,18.905c0.004,0-0.482-0.302-0.482-0.302c-1.959,1.788-3.914,1.828-5.863-0.019C19.493,29.193,19.17,27.109,18.849,25.027z"/>
<path fill="#CB6362" d="M25.332,37.555c-0.029,2.005-0.057,4.01-0.085,6.015c-1.853,2.008-3.689,2.011-5.51-0.042c0,0-0.705,0.363-0.708,0.366c0.251-2.106,0.506-4.215,0.761-6.323C21.631,35.66,23.478,35.672,25.332,37.555z"/>
<path fill="#C35A57" d="M25.332,37.555c-1.849,0.006-3.697,0.009-5.545,0.016c0.009-2.097,0.017-4.196,0.026-6.296c1.956,0.006,3.911,0.012,5.866,0.019C25.563,33.38,25.447,35.468,25.332,37.555z"/>
<path fill="#B43E3D" d="M25.517,68.668c-1.93,0.033-3.862,0.063-5.788,0.094c0.009-4.168,0.017-8.34,0.023-12.512c1.839-1.844,3.679-1.837,5.519-0.003C25.354,60.389,25.435,64.526,25.517,68.668z"/>
<path fill="#BD4A4B" d="M19.737,43.527c1.838,0.015,3.676,0.03,5.513,0.046c-0.015,2.09-0.029,4.184-0.041,6.277c-1.8,1.98-3.612,1.983-5.434,0.027C19.763,47.76,19.749,45.645,19.737,43.527z"/>
<path fill="#B63B3F" d="M19.774,49.878c1.813-0.009,3.625-0.019,5.437-0.027c0.02,2.133,0.043,4.263,0.063,6.396c-1.845,0-3.685,0.003-5.525,0.003C19.76,54.126,19.768,52.002,19.774,49.878z"/>
<path fill="#EDECEE" d="M62.904,12.259c-1.93,2.182-3.86,4.367-5.789,6.549C59.044,16.626,60.976,14.441,62.904,12.259z"/>
<path fill="#EBECEE" d="M75.583,31.241c0.009,6.256,0.019,12.509,0.029,18.765c1.841,2.082,1.841,4.163-0.008,6.241c-4.177,2.065-8.353,4.132-12.529,6.195c0.008-2.063,0.016-4.126,0.024-6.189c2.119-2.045,4.123-4.205,6.241-6.253c-0.002-2.084-0.005-4.169-0.007-6.253c-1.843-2.087-1.842-4.175-0.001-6.262C71.417,35.403,73.499,33.322,75.583,31.241z"/>
<path fill="#F4F0EE" d="M69.333,37.485c0,2.087,0.001,4.175,0.001,6.262c-2.078-2.087-4.156-4.175-6.232-6.262C65.179,37.485,67.255,37.485,69.333,37.485z"/>
<path fill="#ECE6E9" d="M75.717,25.055c2.046,2.066,4.092,4.129,6.14,6.195c-2.081,0-4.162,0.003-6.243,0.006C75.647,29.19,75.682,27.121,75.717,25.055z"/>
<path fill="#EBE9E7" d="M75.605,56.247c0.003-2.081,0.004-4.163,0.008-6.241c2.076-0.003,4.154-0.003,6.231-0.006C79.765,52.081,77.685,54.166,75.605,56.247z"/>
<path fill="#F4F0EE" d="M69.342,50c-2.08,2.084-4.161,4.169-6.241,6.253C65.181,54.169,67.262,52.084,69.342,50z"/>
</svg>