<?xml version="1.0" encoding="utf-8"?>
<!DOCTYPE svg PUBLIC "-//W3C//DTD SVG 1.1//EN" "http://www.w3.org/Graphics/SVG/1.1/DTD/svg11.dtd">
<svg version="1.1" xmlns="http://www.w3.org/2000/svg" xmlns:xlink="http://www.w3.org/1999/xlink" x="0px" y="0px" width="100px" height="100px" viewBox="0 0 100 100" enable-background="new 0 0 100 100" xml:space="preserve">
<path fill="#727272" d="M66.386,90.036c-2.217,1.065-4.434,2.133-6.651,3.201c-1.256-0.388-2.531-0.678-3.845-0.854c-1.348-0.162-2.666-0.412-3.985-0.738c-2.03-0.821-3.64-2.105-4.706-4.047c-0.568-1.367-0.838-2.786-0.867-4.257c0.153-1.48,0.603-2.86,1.338-4.147c2.008-2.154,4.634-3.388,7.149-4.776c1.992-0.714,4.072-0.87,6.169-0.882c2.051,0.016,4.101,0.168,6.149,0.299c1.369,0.049,2.721,0.227,4.055,0.534c1.26,0.567,2.323,1.392,3.202,2.45c0.643,1.197,0.99,2.479,1.012,3.834c-0.287,1.29-0.806,2.493-1.549,3.588c-1.275,1.505-3.304,2.039-4.595,3.531l0.252-0.274C68.501,88.379,67.457,89.225,66.386,90.036z"/>
<path fill="#777777" d="M93.695,24.686c0.003,4.23,0.007,8.459,0.011,12.689c-1.598,2.139-3.447,4.065-5.208,6.079c-1.013,0.946-2.073,1.819-3.201,2.63c-1.231,0.732-2.537,1.233-3.95,1.477c-1.46-0.07-2.832-0.442-4.131-1.104c-1.801-1.276-3.294-2.832-4.416-4.73c-0.494-1.37-0.676-2.78-0.506-4.227c0.514-2.06,1.623-3.848,2.707-5.63c0.668-1.157,1.347-2.323,2.012-3.482c0.596-1.169,1.357-2.234,2.289-3.165c2.187-1.584,4.738-1.69,7.294-1.755c1.242-0.009,2.488-0.006,3.732,0.009C91.602,23.45,92.734,23.831,93.695,24.686z"/>
<path fill="#E7E7E7" d="M59.824,6.83c5.285,2.908,10.571,5.816,15.856,8.722c0.105,2.319-0.529,4.376-2.154,6.085c-1.726,1.456-3.635,2.604-5.714,3.473c-1.461,0.388-2.932,0.394-4.401,0.091c-1.364-0.562-2.574-1.37-3.617-2.408c-1.328-1.669-2.614-3.378-3.604-5.276c-0.417-1.318-0.616-2.676-0.599-4.062c0.15-1.361,0.607-2.627,1.331-3.793C57.854,8.686,58.82,7.739,59.824,6.83z"/>
<path fill="#A8A8A8" d="M7.364,40.418c0.012-5.176,0.023-10.352,0.035-15.524c0.861-0.967,1.939-1.456,3.241-1.471c1.265-0.144,2.525-0.202,3.802-0.186c1.988,0.198,3.9,0.616,5.62,1.718c1.035,0.958,1.772,2.097,2.252,3.415c0.236,1.401,0.153,2.777-0.258,4.129c-0.65,1.242-1.537,2.295-2.627,3.168c-1.636,1.224-3.266,2.466-4.869,3.735C12.367,41.184,10.106,42.502,7.364,40.418z"/>
<path fill="#636363" d="M84.88,40.631c2.941-1.086,5.884-2.169,8.825-3.256c0.013,2.225,0.026,4.449,0.04,6.671c-0.583,1.334-1.224,2.634-1.926,3.909c-0.9,1.175-2.046,2.033-3.401,2.615c-1.449,0.275-2.89,0.238-4.322-0.109c-1.332-0.653-2.421-1.59-3.265-2.808c-0.45-1.483-0.183-2.799,0.919-3.922c1.048-1.037,2.095-2.075,3.142-3.116L84.88,40.631z"/>
<path fill="#E4E4E4" d="M19.258,28.149c-1.122-0.244-2.243-0.491-3.365-0.738c-1.147-1.236-1.715-2.851-2.718-4.181c-0.165-0.531-0.328-1.065-0.493-1.596c3.277-1.8,6.554-3.604,9.831-5.408c1.927,0.556,4.089,0.144,5.844,1.413c0.917,1.035,1.462,2.237,1.576,3.62c-0.338,2.087-1.439,3.662-3.241,4.748c-1.203,0.495-2.411,0.989-3.616,1.483C21.835,27.872,20.561,28.091,19.258,28.149z"/>
<path fill="#A4A4A4" d="M22.566,83.798c-2.161-1.056-4.321-2.114-6.48-3.171c-0.302-0.692-0.603-1.388-0.903-2.084c0.03-0.76,0.058-1.517,0.087-2.276c0.478-1.478,1.268-2.756,2.371-3.846c1.32-0.82,2.745-1.327,4.292-1.474c1.547,0.067,3.01,0.464,4.399,1.139c1.924,1.354,3.319,3.082,3.795,5.447c0.015,1.535-0.424,2.933-1.311,4.187C27.02,83.264,24.559,82.828,22.566,83.798z"/>
<path fill="#747474" d="M56.805,87.448c0.977,1.929,1.953,3.86,2.93,5.789c-3.169,1.022-6.337,2.045-9.505,3.067c-1.329-1.31-2.432-2.738-2.548-4.7c0.159-1.235,0.613-2.353,1.362-3.348c0.544-0.287,1.087-0.57,1.63-0.854c2.054,0.021,4.106,0.043,6.16,0.064L56.805,87.448z"/>
<path fill="#A6A6A6" d="M7.277,71.927c0.049-3.158,0.098-6.317,0.145-9.476c1.645-1.725,3.621-2.606,6.033-2.393c2.303,0.589,3.91,2.081,5.187,3.992c0.653,1.327,0.997,2.74,1.032,4.217c-0.333,2.229-1.566,3.909-3.289,5.268c-1.842,1.142-3.825,1.193-5.867,0.687C9.305,73.651,8.215,72.898,7.277,71.927z"/>
<path fill="#DFDFDF" d="M72.389,18.75c1.098-1.065,2.194-2.13,3.291-3.198c4.175,2.039,8.35,4.074,12.524,6.109c-0.226,0.617-0.45,1.23-0.676,1.847c-0.809,1.047-1.776,1.91-2.927,2.566c-2.647,0.134-5.261,0.083-7.655-1.285c-1.633-1.126-3.236-2.277-4.194-4.092C72.631,20.047,72.51,19.397,72.389,18.75z"/>
<path fill="#B6B6B6" d="M7.277,71.927c0.875-0.033,1.749-0.067,2.623-0.092c1.066-1.126,2.105-1.159,3.111,0.08c1.051-1.014,2.104-2.03,3.155-3.046c1.047-0.867,2.164-1.014,3.362-0.323c0.886,0.934,1.413,2.038,1.582,3.317c-0.227,1.275-0.842,2.325-1.845,3.146c-1.041,1.028-2.081,2.054-3.122,3.083c-2.683-1.657-6.36-0.586-8.701-3.178C7.013,73.941,6.958,72.943,7.277,71.927z"/>
<path fill="#6E6E6E" d="M93.756,56.168c-0.041,4.229-0.083,8.459-0.125,12.686c-1.648,1.733-3.629,2.094-5.863,1.432c-1.276-0.696-2.331-1.642-3.132-2.856c-0.52-1.331-0.778-2.716-0.74-4.146c0.308-2.137,1.359-3.906,2.78-5.479c0.909-1.025,1.985-1.835,3.25-2.378C91.299,55.16,92.578,55.408,93.756,56.168z"/>
<path fill="#A8A8A8" d="M44.177,93.839c-4.201-2.091-8.401-4.182-12.602-6.271c0.596-1.432,1.537-2.582,2.82-3.452c1.43-0.549,2.908-0.866,4.443-0.912c2.368,0.082,4.481,0.784,6.172,2.523c1.401,2.023,1.714,4.178,0.781,6.482C45.254,92.752,44.716,93.295,44.177,93.839z"/>
<path fill="#9C9C9C" d="M7.364,40.418c0.849-2.033,1.698-4.065,2.547-6.097c1.509-1.529,3.407-1.502,5.344-1.34c1.262,0.427,2.255,1.205,3.022,2.289c0.462,1.254,0.583,2.539,0.409,3.861c-0.412,1.266-0.88,2.508-1.401,3.735c-0.67,1.184-1.569,2.151-2.702,2.905c-1.285,0.476-2.602,0.61-3.957,0.406c-1.245-0.549-2.336-1.322-3.275-2.307C7.356,42.719,7.359,41.568,7.364,40.418z"/>
<path fill="#E5E5E5" d="M28.639,18.753c-2.042-0.842-4.083-1.685-6.125-2.527c3.02-1.282,6.038-2.563,9.058-3.845c0.37,0.476,0.739,0.955,1.106,1.432c0.142,1.971-0.676,3.467-2.265,4.581C29.822,18.512,29.231,18.631,28.639,18.753z"/>
<path fill="#727272" d="M93.725,75.03c-2.957,1.874-5.914,3.745-8.871,5.618c-1.113-1.067-1.606-2.383-1.561-3.915c0.464-1.44,1.291-2.624,2.482-3.556C88.92,71.677,91.493,72.619,93.725,75.03z"/>
<path fill="#D9D9D9" d="M47.337,3.616C50.578,4.443,53.82,5.27,57.063,6.1c-0.459,1.257-1.187,2.325-2.222,3.183c-1.823,0.998-3.722,1.157-5.689,0.507c-1.163-0.641-2.077-1.544-2.773-2.67C46.053,5.777,46.4,4.617,47.337,3.616z"/>
<path fill="#FEFEFE" d="M53.723,6.28c1.114-0.061,2.227-0.122,3.34-0.18c0.962,0.085,1.882,0.33,2.761,0.729c-0.008,0.827-0.003,1.657,0.017,2.484c-1.251,1.392-1.717,3.4-3.459,4.407c-1.299,0.205-2.5-0.046-3.607-0.754c-0.74-1.074-1.135-2.258-1.135-3.567C52.016,8.145,52.711,7.107,53.723,6.28z"/>
<path fill="#FCFCFC" d="M31.572,12.381c2.133-1.041,4.265-2.081,6.398-3.122c0.462,0.382,0.926,0.763,1.39,1.147c0.484,1.132,0.612,2.304,0.385,3.516c-0.545,1.12-1.386,1.947-2.484,2.521c-3,0.409-4.33-1.499-5.337-3.851L31.572,12.381z"/>
<path fill="#B2B2B2" d="M12.993,62.454c-1.857-0.003-3.714-0.003-5.571-0.003c-0.004-2.057-0.009-4.11-0.014-6.168c0.879-1.021,1.987-1.446,3.328-1.27c1.904,0.742,3.148,2.082,3.694,4.057C14.431,60.403,13.951,61.529,12.993,62.454z"/>
<path fill="#6E6E6E" d="M93.725,75.03c-2.947-0.009-5.896-0.019-8.845-0.024c-0.271-0.513-0.544-1.022-0.815-1.531c0.178-1.179,0.686-2.18,1.576-2.979c1.081-0.522,2.207-0.635,3.376-0.395c1.639,0.317,3.557-0.143,4.656,1.673C93.691,72.86,93.708,73.944,93.725,75.03z"/>
<path fill="#A6A6A6" d="M7.443,74.914c2.9,1.06,5.8,2.118,8.701,3.178l-0.011,0.036c-1.083,1.264-2.188,1.282-3.314,0.058C11.027,77.097,9.236,76.004,7.443,74.914z"/>
<path fill="#797979" d="M88.003,46.897c1.044-0.009,2.086-0.016,3.128-0.024c0.851-1.257,1.692-1.193,2.524,0.018c-0.038,2.087-0.078,4.178-0.116,6.265c-1.111,0.531-2.275,0.745-3.502,0.599c-1.155-0.437-2.118-1.142-2.918-2.075c-0.218-0.567-0.433-1.136-0.649-1.7C86.482,48.703,87.018,47.687,88.003,46.897z"/>
<path fill="#B1B1B1" d="M49.741,90.744c0.163,1.853,0.326,3.708,0.489,5.561c-2.019-0.821-4.036-1.646-6.053-2.466c0.391-0.376,0.755-0.775,1.094-1.196C46.287,90.891,47.54,89.7,49.741,90.744z"/>
<path fill="#D2D2D2" d="M41.092,6.787c0.928-0.363,1.889-0.567,2.884-0.616c1.167-1.215,2.305-1.188,3.413,0.082v0.021c0.409,0.62,0.816,1.236,1.224,1.855c-0.47,1.486-1.445,2.502-2.864,3.116c-1.506,0.217-2.948,0.009-4.332-0.623c-0.437-0.607-0.872-1.214-1.306-1.822C40.437,8.13,40.764,7.459,41.092,6.787z"/>
<path fill="#ABABAB" d="M7.411,53.119c-0.006-2.103-0.012-4.202-0.018-6.305c0.525-0.394,1.051-0.788,1.579-1.178c0.604,0.257,1.21,0.513,1.814,0.772c0.856,1.034,1.361,2.216,1.518,3.546c-0.154,1.324-0.628,2.518-1.473,3.556C9.597,54.211,8.452,54.126,7.411,53.119z"/>
<path fill="#808080" d="M93.673,71.774c-1.887,0.024-3.774,0.052-5.662,0.079c-0.357-0.521-0.716-1.047-1.073-1.568c0.346-0.531,0.688-1.059,1.032-1.59c1.889,0.052,3.778,0.106,5.664,0.158C93.924,69.824,93.938,70.798,93.673,71.774z"/>
<path fill="#AAAAAA" d="M7.411,53.119c0.819,0,1.639,0.006,2.46,0.009c1.191-0.8,2.319-0.717,3.383,0.25c0.624,1.239,0.581,2.466-0.043,3.687c-1.332,0.55-2.458,0.238-3.407-0.814c-0.799,0.019-1.598,0.027-2.396,0.033C7.408,55.228,7.41,54.172,7.411,53.119z"/>
<path fill="#B2B2B2" d="M22.566,83.798c2.055-0.882,4.11-1.764,6.167-2.646c0.328,0.473,0.654,0.943,0.982,1.416c-0.038,0.574-0.076,1.145-0.114,1.718c-0.414,0.397-0.829,0.797-1.244,1.193c-1.19,0.125-2.229-0.231-3.134-1.004C24.306,84.378,23.419,84.152,22.566,83.798z"/>
<path fill="#747474" d="M81.857,81.359c-2.071,1.035-4.144,2.069-6.216,3.102c-0.466-0.406-0.93-0.813-1.395-1.218c0.061-0.617,0.12-1.23,0.18-1.847c0.355-0.507,0.711-1.014,1.066-1.52c1.119-0.583,2.301-0.849,3.562-0.751c0.57,0.241,1.142,0.485,1.711,0.729C81.129,80.356,81.493,80.859,81.857,81.359z"/>
<path fill="#AFAFAF" d="M34.875,87.5c-1.1,0.024-2.2,0.046-3.3,0.067c-1.004-0.162-1.992-0.391-2.965-0.687c-0.875-0.564-1.161-1.123-0.865-1.676c0.294-0.553,0.589-0.827,0.886-0.827l0.013-0.015c0.928-1.02,2.067-1.664,3.421-1.933c1.375,0.129,2.572,0.656,3.595,1.587C36.245,85.37,35.985,86.529,34.875,87.5z"/>
<path fill="#7D7D7D" d="M69.262,87.772c1.052-1.132,2.104-2.265,3.154-3.394c0.39-0.741,0.778-1.486,1.169-2.228c0.508,0.668,1.015,1.334,1.522,1.999l0.533,0.312C73.514,85.565,71.388,86.667,69.262,87.772z"/>
<path fill="#EDEDED" d="M47.389,6.253c-1.138-0.027-2.275-0.055-3.412-0.082c1.118-0.852,2.24-1.703,3.36-2.555C47.372,4.495,47.39,5.374,47.389,6.253z"/>
<path fill="#E3E3E3" d="M41.092,6.787c0.019,0.857,0.035,1.715,0.047,2.576c-0.998,1.086-2.048,1.193-3.157,0.168L37.97,9.259C39.011,8.435,40.051,7.611,41.092,6.787z"/>
<path fill="#C0C0C0" d="M9.974,24.802c-0.859,0.018-1.718,0.049-2.576,0.091c0.842-0.827,1.685-1.651,2.525-2.478c1.335,0.504,1.784,1.022,1.358,1.563C10.853,24.524,10.422,24.802,9.974,24.802z"/>
<path fill="#CCCCCC" d="M9.974,24.802c-0.034-0.797-0.05-1.59-0.05-2.387c0.896-0.345,1.816-0.604,2.759-0.781c0.458,0.275,0.868,0.607,1.23,1.001c0.546,1.215,0.233,2.066-1.07,2.49C11.887,25.024,10.93,24.918,9.974,24.802z"/>
<path fill="#7F7F7F" d="M91.217,53.104c0.775,0.021,1.552,0.04,2.323,0.052c0.353,0.983,0.428,1.987,0.219,3.013c-0.882,0.033-1.763,0.058-2.642,0.07l-0.925-0.946l0.023-1.325L91.217,53.104z"/>
<path fill="#D9D9D9" d="M90.944,24.393c-1.006,0.247-2.021,0.449-3.046,0.604c-0.437-0.449-0.874-0.895-1.313-1.34c0.401-0.479,0.808-0.955,1.212-1.431l0.408-0.565c0.976,0.153,1.926,0.4,2.851,0.748C91.019,23.071,90.982,23.733,90.944,24.393z"/>
<path fill="#C0C0C0" d="M90.944,24.393c0.063-0.659,0.1-1.321,0.111-1.983c0.881,0.76,1.76,1.52,2.64,2.276C92.769,24.673,91.852,24.576,90.944,24.393z"/>
<path fill="#B1B1B1" d="M12.819,78.186c1.105-0.018,2.209-0.039,3.314-0.058c-0.016,0.833-0.031,1.669-0.047,2.499C14.996,79.813,13.908,78.998,12.819,78.186z"/>
<path fill="#BBBBBB" d="M9.901,46.872c-0.837-0.021-1.674-0.04-2.51-0.058c-0.429-0.977-0.444-1.956-0.041-2.945c0.832-0.037,1.662-0.076,2.492-0.113c0.835,0.678,1.122,1.364,0.861,2.06C10.441,46.521,10.174,46.872,9.901,46.872z"/>
<path fill="#797979" d="M84.887,78.147c-0.009,0.836-0.02,1.676-0.033,2.506c-0.977,0.332-1.976,0.567-2.998,0.707c0.001,0-0.144-0.201-0.144-0.201c-0.784-1.077-0.77-2.143,0.043-3.198C82.851,77.17,83.894,77.234,84.887,78.147z"/>
<path fill="#B7B7B7" d="M28.631,84.378c-0.006,0.833-0.012,1.669-0.021,2.503c-1.128-0.803-2.257-1.603-3.386-2.405C26.359,84.445,27.496,84.412,28.631,84.378z"/>
<path fill="#777777" d="M93.656,46.89c-0.841-0.006-1.682-0.012-2.524-0.018c0.871-0.943,1.743-1.883,2.614-2.826C93.886,45.001,93.855,45.947,93.656,46.89z"/>
<path fill="#7A7A7A" d="M66.386,90.036c1.042-0.846,2.085-1.69,3.128-2.536C68.472,88.342,67.428,89.188,66.386,90.036z"/>
<path fill="#747474" d="M63.038,78.137c-2.087-0.003-4.177-0.006-6.266-0.006c-1.031-1.11-1.576-2.429-1.702-3.931c0.29-2.271,1.188-4.214,3.015-5.664c1.331-0.674,2.736-0.946,4.221-0.754c1.343,0.638,2.384,1.611,3.162,2.872c0.462,1.392,0.543,2.816,0.299,4.264c-0.33,0.641-0.659,1.284-0.987,1.929C64.2,77.273,63.619,77.707,63.038,78.137z"/>
<path fill="#797979" d="M56.783,74.951c-0.003,1.059-0.006,2.118-0.01,3.18c-2.052,1.047-4.103,2.094-6.155,3.141c-0.891-1.014-1.281-2.194-1.17-3.54c0.611-1.978,1.858-3.354,3.828-4.05c0.648,0.033,1.299,0.064,1.947,0.098C55.743,74.17,56.262,74.561,56.783,74.951z"/>
<path fill="#808080" d="M56.834,87.467c0.34-0.275,0.679-0.55,1.02-0.824c-0.35,0.269-0.701,0.537-1.049,0.806L56.834,87.467z"/>
<path fill="#A8A8A8" d="M50.972,77.683c-0.119,1.196-0.238,2.393-0.355,3.589c-0.11,0.985-0.17,1.975-0.176,2.963c-1.166,0.849-2.352,0.922-3.563,0.101c-1.42-1.647-1.718-3.503-1.016-5.538c0.8-1.136,1.892-1.765,3.276-1.89C49.748,77.167,50.36,77.426,50.972,77.683z"/>
<path fill="#5C5C5C" d="M72.397,78.116h-1.563l-1.562-0.019c-0.177-0.589-0.353-1.182-0.529-1.771c0.702-1.129,1.709-1.596,3.021-1.403c0.386,0.476,0.773,0.952,1.159,1.428C72.747,76.938,72.573,77.527,72.397,78.116z"/>
<path fill="#7D7D7D" d="M66.163,81.241c-1.042-1.035-2.083-2.069-3.125-3.104l-0.026-0.009c1.103-0.873,2.24-0.922,3.414-0.149C67.248,79.139,67.204,80.231,66.163,81.241z"/>
<path fill="#636363" d="M66.163,81.241c-0.008-1.038-0.012-2.079-0.014-3.119c0.523-0.357,1.045-0.714,1.568-1.071c0.521,0.36,1.042,0.721,1.563,1.08l-0.009-0.03C68.236,79.148,67.2,80.194,66.163,81.241z"/>
<path fill="#5D5D5D" d="M72.387,81.25c0.004-1.044,0.007-2.091,0.008-3.134c0.002,0-0.02,0.018-0.02,0.018c1.109-1.001,2.312-1.178,3.619-0.402c0.771,1.306,0.645,2.481-0.517,3.5l0.036,0.03C74.467,82.678,73.425,82.608,72.387,81.25z"/>
<path fill="#808080" d="M72.387,81.25c1.043,0.003,2.085,0.006,3.127,0.012c-0.079,0.971-0.211,1.936-0.399,2.891c-0.902,0.101-1.8,0.177-2.699,0.226C72.406,83.334,72.397,82.294,72.387,81.25z"/>
<path fill="#797979" d="M47.551,84.546c0.97-0.033,1.935-0.134,2.892-0.309c0.073,1.057,0.149,2.112,0.229,3.168c0.003-0.003-0.273,0.171-0.273,0.171c-0.994,1.139-2.13,1.358-3.427,0.528c-0.217-0.645-0.434-1.288-0.651-1.932C46.73,85.629,47.14,85.086,47.551,84.546z"/>
<path fill="#E7E7E7" d="M81.899,28.18c-0.181,0.745-0.29,1.502-0.328,2.268c-0.617,1.166-1.407,2.197-2.373,3.104c-1.546,1.31-3.198,2.441-5.095,3.211c-2.204,0.552-4.169,0.085-5.945-1.313c-0.984-1.126-1.631-2.408-1.972-3.86c-0.065-1.501,0.251-2.921,0.875-4.275c0.897-1.178,2.006-2.112,3.314-2.805c1.395-0.418,2.824-0.607,4.283-0.537c1.412,0.281,2.776,0.726,4.087,1.333C79.973,26.068,81.015,27.036,81.899,28.18z"/>
<path fill="#F1F1F1" d="M81.899,28.18c-1.095-0.021-2.188-0.04-3.281-0.058c-0.988-0.827-1.568-1.88-1.741-3.159c0.164-0.601,0.325-1.203,0.488-1.804c0.466-0.418,0.931-0.833,1.396-1.248c2.063,1.016,4.126,2.029,6.189,3.042c0.977-1.214,1.922-1.248,2.83,0.08c0,0,0.12-0.037,0.119-0.037C85.899,26.056,83.899,27.118,81.899,28.18z"/>
<path fill="#616161" d="M75.489,34.311c1.102-0.852,2.203-1.703,3.305-2.554c1.17,0.641,2.135,1.514,2.922,2.588c-2.07,1.043-4.14,2.087-6.21,3.131c-0.412-0.525-0.824-1.05-1.236-1.575C74.675,35.373,75.082,34.842,75.489,34.311z"/>
<path fill="#696969" d="M81.75,43.731c0.005,1.047,0.008,2.097,0.012,3.144c0.805,0.751,1.104,1.532,0.897,2.341c-0.21,0.827-0.439,1.239-0.691,1.239c-1.455,0.363-2.755,0.063-3.904-0.9c-0.711-1.282-0.974-2.64-0.716-4.09c0.431-0.57,0.86-1.138,1.291-1.709C79.675,43.753,80.713,43.747,81.75,43.731z"/>
<path fill="#5F5F5F" d="M81.715,34.345c-0.974-0.861-1.948-1.725-2.922-2.588c0.908-0.477,1.832-0.91,2.777-1.31C81.619,31.748,81.666,33.047,81.715,34.345z"/>
<path fill="#666666" d="M75.505,37.476c-0.003,1.047-0.008,2.094-0.011,3.14c-0.504,0.324-1.006,0.65-1.511,0.974c-1.275-0.095-2.189-0.717-2.743-1.874c-0.091-1.264,0.318-2.329,1.228-3.208c1.252-0.415,2.278-0.128,3.046,0.97L75.505,37.476z"/>
<path fill="#6D6D6D" d="M75.494,40.616c1.048,1.047,2.097,2.094,3.145,3.14l0.003-0.003c-1.051,0.891-2.125,0.879-3.221,0.085c-0.811-1.099-0.78-2.169,0.09-3.219L75.494,40.616z"/>
<path fill="#D9D9D9" d="M53.666,12.372c1.014-0.028,2.026-0.031,3.04-0.009c1.118-1.16,2.181-1.172,3.178,0.156c0.101,1.138,0.202,2.276,0.303,3.415c0.882,1.206,1.268,2.554,1.159,4.05c-0.115,1.501-0.635,2.844-1.565,4.035c-1.178,0.967-2.507,1.605-3.996,1.932c-2.368,0.192-4.565-0.232-6.493-1.709c-1.067-1.169-1.794-2.521-2.2-4.047c-0.108-1.578,0.18-3.088,0.793-4.541C49.272,13.614,51.144,12.418,53.666,12.372z"/>
<path fill="#E9E9E9" d="M66.144,21.823c2.083-1.025,4.164-2.048,6.245-3.073l0.002-0.003c0.436,0.519,0.871,1.034,1.306,1.553c-0.185,0.65-0.369,1.303-0.554,1.953c-1.028,0.937-2.244,1.438-3.624,1.56C68.147,23.572,67.021,22.906,66.144,21.823z"/>
<path fill="#D2D2D2" d="M66.144,21.823c1.042,0.042,2.083,0.064,3.125,0.061c0.44,0.543,0.882,1.083,1.322,1.626c-0.083,0.689-0.169,1.386-0.251,2.075c-0.943,1.022-1.928,2.008-2.947,2.954c-1.278,0.659-2.6,0.754-3.959,0.281c-1.106-0.879-1.834-2.005-2.183-3.375c0.094-0.684,0.187-1.367,0.281-2.051c0.461-0.509,0.923-1.022,1.386-1.532C63.993,21.851,65.07,21.835,66.144,21.823z"/>
<path fill="#ECECEC" d="M59.884,12.519c-1.059-0.052-2.119-0.101-3.178-0.153c1.045-1.019,2.09-2.036,3.134-3.052C59.854,10.382,59.869,11.45,59.884,12.519z"/>
<path fill="#F0F0F0" d="M59.895,17.972c0.107-0.681,0.202-1.364,0.289-2.044c0.967,0.818,1.933,1.626,2.898,2.438C61.736,20.538,60.673,20.407,59.895,17.972z"/>
<path fill="#B6B6B6" d="M59.895,17.972c1.063,0.134,2.124,0.269,3.187,0.397c-0.054,1.163-0.107,2.329-0.163,3.494l0.093,0.009c-0.521,0.406-1.041,0.812-1.562,1.218c-0.524-0.4-1.049-0.803-1.574-1.203C59.883,20.581,59.889,19.278,59.895,17.972z"/>
<path fill="#D4D4D4" d="M19.258,28.149c0.011-1.077,0.022-2.158,0.033-3.238c0.565-0.412,1.129-0.824,1.694-1.233c0.681,0.152,1.363,0.305,2.043,0.458c1.306,0.543,2.385,1.382,3.236,2.512c0.529,1.328,0.539,2.667,0.096,4.019c-0.862,1.126-1.996,1.84-3.364,2.194c-1.417-0.083-2.634-0.61-3.615-1.651C19.352,30.191,19.311,29.172,19.258,28.149z"/>
<path fill="#ABABAB" d="M19.382,31.21c1.042,0.098,2.084,0.195,3.128,0.293c1.016,0.796,1.677,1.813,1.927,3.085c-0.06,1.285-0.503,2.423-1.28,3.442c-1.129,0.613-2.322,0.817-3.587,0.543c-1.849-0.833-2.571-2.606-3.496-4.208l0.05,0.085c-2.143-0.934-2.188-1.959-0.139-3.079C17.117,31.317,18.249,31.265,19.382,31.21z"/>
<path fill="#F4F4F4" d="M12.843,25.125c0.322-0.848,0.676-1.678,1.068-2.493c0.662,1.596,1.323,3.189,1.983,4.782C14.877,26.648,13.861,25.885,12.843,25.125z"/>
<path fill="#B9B9B9" d="M15.985,31.372c0.067,1.025,0.113,2.051,0.139,3.076c-2.071-0.04-4.143-0.083-6.213-0.128C11.935,33.337,13.96,32.355,15.985,31.372z"/>
<path fill="#6C6C6C" d="M81.761,50.006c0-1.043,0.001-2.087,0.001-3.131c1.047,0.003,2.094,0.006,3.14,0.009c1.046,0.91,1.585,2.057,1.617,3.442c0.047,1.386-0.421,2.57-1.402,3.553c-1.326,0.448-2.593,0.302-3.812-0.363C80.563,52.231,80.757,51.065,81.761,50.006z"/>
<path fill="#808080" d="M84.909,49.963c-0.011-1.028-0.014-2.054-0.007-3.079c1.034-0.015,2.068-0.012,3.102,0.012c0.005,1.034,0.008,2.066,0.009,3.101C86.966,51.135,85.931,51.071,84.909,49.963z"/>
<path fill="#777777" d="M84.88,40.631l0.012-0.015L84.88,40.631z"/>
<path fill="#E7E7E7" d="M28.66,21.832c-0.008-1.028-0.014-2.054-0.021-3.079l0.035-0.033c1.626-1.682,3.557-1.941,5.696-1.218c1.106,0.982,1.498,2.194,1.176,3.635c-1.294,1.919-3.088,2.539-5.313,2.029C29.71,22.72,29.185,22.275,28.66,21.832z"/>
<path fill="#BCBCBC" d="M22.204,21.909c2.151-0.024,4.303-0.052,6.456-0.077l-0.075,0.104c0.656,0.671,0.923,1.382,0.802,2.13c-0.124,0.772-0.28,1.156-0.471,1.156c-0.938,0.882-2.045,1.337-3.342,1.3c-1.265-0.189-2.347-0.739-3.244-1.651l0.192,0.131c-0.934-0.598-1.291-1.257-1.076-1.975C21.673,22.281,21.924,21.909,22.204,21.909z"/>
<path fill="#F7F7F7" d="M22.204,21.909c0.114,1.031,0.22,2.063,0.317,3.094c-1.076-0.03-2.154-0.061-3.232-0.091C20.262,23.911,21.234,22.91,22.204,21.909z"/>
<path fill="#B6B6B6" d="M19.265,75.009c-0.001-1.043-0.003-2.087-0.004-3.131c1.038-0.803,2.089-0.821,3.155-0.058c0.755,1.059,0.797,2.117,0.009,3.18C21.373,75.003,20.32,75.006,19.265,75.009z"/>
<path fill="#909090" d="M22.426,75c-0.006-1.044-0.012-2.084-0.02-3.128c0.515-0.223,1.027-0.442,1.542-0.669c1.1,0.397,1.869,1.123,2.255,2.24c-0.208,0.52-0.418,1.038-0.627,1.56C24.525,75,23.475,75,22.426,75z"/>
<path fill="#878787" d="M28.663,78.098c-1.03-1.031-2.06-2.063-3.088-3.095l-0.037,0.055c0.967-0.845,1.972-0.891,3.012-0.137c0.255,0.521,0.508,1.044,0.763,1.565C29.097,77.023,28.88,77.561,28.663,78.098z"/>
<path fill="#878787" d="M28.734,81.152c-0.05-1.017-0.073-2.035-0.07-3.052c0-0.003-0.035,0.033-0.035,0.033c0.597-0.372,1.193-0.744,1.792-1.113c0.633,0.305,1.268,0.613,1.901,0.918c0.195,0.681,0.389,1.358,0.583,2.039c-0.247,0.662-0.496,1.324-0.744,1.986c-1.369,0.775-2.556,0.602-3.534-0.671L28.734,81.152z"/>
<path fill="#BBBBBB" d="M47.844,87.164c0.859,0.092,1.71,0.229,2.554,0.412c-0.215,1.056-0.43,2.112-0.651,3.168c-1.5,0.638-2.995,1.275-4.481,1.904c-0.317-1.709-0.641-3.412-0.964-5.115l0.89-1.278C46.37,85.699,47.253,86.002,47.844,87.164z"/>
<path fill="#AAAAAA" d="M12.993,62.454c0.003-1.017,0.003-2.032,0-3.049c1.085-0.817,2.22-0.894,3.404-0.231c0.875,0.942,1.409,2.045,1.555,3.326c-0.153,0.61-0.305,1.218-0.458,1.828c-0.447,0.442-0.894,0.885-1.341,1.327C15.1,64.588,14.046,63.523,12.993,62.454z"/>
<path fill="#9B9B9B" d="M19.269,68.744c-1.036,0.012-2.071,0.052-3.104,0.119c-0.003-1.068-0.007-2.14-0.012-3.208l-0.015-0.033c0.979-1.117,2.107-1.294,3.38-0.534c0.221,0.626,0.442,1.254,0.664,1.88C19.877,67.56,19.572,68.152,19.269,68.744z"/>
<path fill="#AAAAAA" d="M13.011,71.915c-1.038-0.024-2.075-0.052-3.113-0.08C10.937,71.863,11.973,71.891,13.011,71.915z"/>
<path fill="#E6E6E6" d="M72.373,21.832c0.007-1.028,0.013-2.057,0.018-3.085c2.122,1.053,4.244,2.108,6.369,3.165c0.001,0-0.086-0.018-0.086-0.018C76.556,23.764,74.456,23.587,72.373,21.832z"/>
<path fill="#D2D2D2" d="M87.781,25.034c-0.944,0.003-1.889-0.024-2.832-0.077c0.95-0.912,1.899-1.825,2.849-2.734C87.802,23.16,87.796,24.097,87.781,25.034z"/>
<path fill="#9C9C9C" d="M22.406,71.872c-1.048,0.003-2.096,0.003-3.145,0.006c0.003-1.044,0.004-2.091,0.008-3.134l-0.014,0.012c1.059-1.099,2.236-1.3,3.551-0.464c0.762,1.315,0.636,2.542-0.374,3.678L22.406,71.872z"/>
<path fill="#717171" d="M84.909,49.963c1.035,0.016,2.069,0.028,3.104,0.034l-0.01,0.006c0.761,0.839,1.262,1.813,1.501,2.921c0.049,1.113,0.073,2.23,0.07,3.345c0.003,1.116-0.019,2.23-0.063,3.345c-0.181,1.129-0.679,2.09-1.499,2.887c-0.001,1.047-0.003,2.097-0.004,3.144c-0.906,0.979-1.987,1.712-3.219,2.225c-1.341,0.128-2.626-0.067-3.851-0.632c-1.055-0.83-1.812-1.886-2.321-3.119c-0.412-1.992,0.005-3.823,1.122-5.505c0.735-1.02,1.553-1.98,2.442-2.875c0.902-0.863,1.806-1.733,2.705-2.609C84.894,52.072,84.902,51.02,84.909,49.963z"/>
<path fill="#808080" d="M88.012,59.391c0-1.047,0-2.094,0-3.141c0.521-0.672,1.043-1.343,1.563-2.011c0.522,0.668,1.043,1.339,1.563,2.011l-0.02-0.012c0.006,1.046,0.013,2.093,0.02,3.14C90.1,60.559,89.058,60.62,88.012,59.391z"/>
<path fill="#656565" d="M88.012,59.391c1.041-0.004,2.083-0.01,3.125-0.013c-1.042,1.041-2.084,2.081-3.125,3.122C88.011,61.466,88.011,60.428,88.012,59.391z"/>
<path fill="#5E5E5E" d="M84.903,65.628c1.035,0,2.07,0.003,3.105,0.013c-0.006,1.019-0.019,2.038-0.037,3.055c-0.001,0,0.048,0.07,0.048,0.07c-1.041,1.199-2.232,1.438-3.599,0.567C83.624,67.975,83.785,66.739,84.903,65.628z"/>
<path fill="#A2A2A2" d="M44.301,87.533c-2.097-0.012-4.195-0.024-6.291-0.036c-0.462-0.474-0.923-0.943-1.386-1.416c0.046-1.376,0.592-2.512,1.633-3.415c1.211-0.583,2.489-0.827,3.83-0.735c1.295,0.394,2.357,1.12,3.149,2.228c0.532,1.361,0.183,2.481-0.931,3.388L44.301,87.533z"/>
<path fill="#999999" d="M37.893,84.464c0.07,1.01,0.108,2.02,0.116,3.033c-1.045,0-2.089,0.003-3.134,0.003c0.029-1.044,0.058-2.088,0.087-3.131C35.965,83.621,36.94,83.689,37.893,84.464z"/>
<path fill="#989898" d="M13.01,43.765c-0.003-1.035-0.008-2.066-0.012-3.097c1.343-0.705,2.597-0.607,3.749,0.418c1.208,2.039,1.082,3.979-0.415,5.826c-1.28,0.756-2.615,0.87-4.005,0.339C11.491,45.877,11.72,44.717,13.01,43.765z"/>
<path fill="#B6B6B6" d="M16.074,34.366c1.059,1.044,2.118,2.087,3.178,3.128l-0.896,1.077l-1.398,0.07l-0.792-1.154C16.135,36.447,16.104,35.406,16.074,34.366z"/>
<path fill="#ADADAD" d="M16.148,40.616c-1.05,0.015-2.101,0.034-3.151,0.052c1.056-1.059,2.112-2.118,3.167-3.18c0.001,0-0.027,0.012-0.027,0.012c0.406,0.516,0.812,1.035,1.218,1.553C16.952,39.572,16.551,40.094,16.148,40.616z"/>
<path fill="#8A8A8A" d="M13.01,43.765c-0.006,1.004-0.019,2.008-0.038,3.012c-1,1.193-2.026,1.163-3.076,0.067c0,0,0.004,0.027,0.006,0.027c-0.007-1.041-0.027-2.078-0.058-3.116C10.898,43.759,11.953,43.762,13.01,43.765z"/>
<path fill="#D3D3D3" d="M34.897,18.75c-2.075-0.009-4.15-0.021-6.224-0.03c1.085-2.045,2.167-4.086,3.25-6.128c2.021,1.046,4.041,2.093,6.059,3.14l0.808,1.306c0.015,1.138-0.467,2.002-1.445,2.585c0,0.003-1.504,0.351-1.504,0.351L34.897,18.75z"/>
<path fill="#696969" d="M84.887,78.147c-1.042-0.01-2.085-0.016-3.128-0.024c-0.332-0.452-0.665-0.903-0.997-1.358c-0.028-1.196,0.462-2.143,1.393-2.871c1.199-0.336,2.124,0.003,2.734,1.113H84.88C84.883,76.053,84.884,77.1,84.887,78.147z"/>
<path fill="#D6D6D6" d="M47.43,9.427c-0.014-1.05-0.027-2.103-0.041-3.153c2.108,0,4.218,0.003,6.331,0.003c-0.068,1.001-0.13,1.999-0.179,3C51.552,11.267,49.508,11.063,47.43,9.427z"/>
<path fill="#ECECEC" d="M47.43,9.427c2.037-0.049,4.076-0.098,6.113-0.149c0.052,1.031,0.093,2.066,0.123,3.098c-1.033,1.068-2.065,2.139-3.101,3.21c-0.595-0.092-1.19-0.186-1.786-0.278c-1.018-0.681-1.809-1.563-2.331-2.676c-0.244-1.245,0.067-2.332,0.937-3.256L47.43,9.427z"/>
<path fill="#E8E8E8" d="M37.982,15.732c0.072-1.16,0.142-2.319,0.212-3.479c0.906-0.971,2.032-1.374,3.346-1.282c1.292,0.015,2.477,0.378,3.555,1.092c0.796,1.007,1.399,2.118,1.833,3.323c0.208,1.273,0.217,2.545,0.055,3.821c-0.455,1.229-1.196,2.249-2.228,3.055c-1.24,0.506-2.481,0.488-3.725,0.021c-1.027-0.843-1.662-1.923-1.958-3.211c0.165-1.346-0.247-2.499-1.154-3.491L37.982,15.732z"/>
<path fill="#BABABA" d="M41.086,12.418c-0.967-0.018-1.934-0.07-2.893-0.162c-0.105-0.906-0.176-1.816-0.211-2.725c1.053-0.055,2.104-0.113,3.157-0.168l-0.03,0.049c0.68,0.506,1.359,1.013,2.04,1.52C42.46,11.426,41.772,11.923,41.086,12.418z"/>
<path fill="#9E9E9E" d="M16.226,59.408c-1.077,0-2.154-0.003-3.233-0.003c-1.062-1.053-2.124-2.103-3.189-3.155c1.07,0,2.141,0,3.212,0c1.004-0.8,2.025-0.863,3.067-0.073c0.253,0.528,0.508,1.056,0.763,1.587C16.639,58.313,16.432,58.859,16.226,59.408z"/>
<path fill="#808080" d="M84.889,68.729c1.044,0.013,2.086,0.024,3.13,0.033c-0.005,1.032-0.008,2.063-0.008,3.092c-1.041,0.016-2.083,0.021-3.124,0.019c-0.271-0.525-0.544-1.047-0.817-1.571C84.341,69.778,84.616,69.254,84.889,68.729z"/>
<path fill="#7A7A7A" d="M84.889,75.006c-1.042-0.006-2.084-0.009-3.127-0.012c-0.63-1.102-0.6-2.183,0.091-3.25c1.053-0.834,2.065-0.751,3.045,0.128h-0.011C84.887,72.916,84.887,73.959,84.889,75.006z"/>
<path fill="#7A7A7A" d="M88.012,53.125c-0.003-1.041-0.007-2.081-0.01-3.122c1.07,1.034,2.142,2.069,3.215,3.101l-0.078,0.021C90.097,54.563,89.055,54.563,88.012,53.125z"/>
<path fill="#CDCDCD" d="M41.086,12.418c0.032-1.004,0.041-2.005,0.024-3.009c2.09-0.009,4.184-0.021,6.276-0.034c-0.014,1.05-0.027,2.103-0.041,3.152c-0.516,0.4-1.033,0.797-1.551,1.199c-0.509-0.406-1.021-0.814-1.53-1.224C43.205,12.476,42.145,12.448,41.086,12.418z"/>
<path fill="#BBBBBB" d="M9.895,46.845c1.025,0.003,2.052-0.019,3.078-0.064c1.048,0.055,2.098,0.11,3.148,0.165c0.349,0.451,0.697,0.903,1.046,1.357c0.075,1.197-0.331,2.21-1.153,3.067c-1.045,0.564-2.146,0.672-3.29,0.382c-1.127-0.312-2.072-0.91-2.833-1.801C9.906,48.917,9.908,47.882,9.895,46.845z"/>
<path fill="#9B9B9B" d="M9.89,49.951C10.931,49.984,11.972,50,13.012,50c0.404,0.519,0.809,1.034,1.216,1.554c-0.389,0.527-0.78,1.056-1.172,1.583c-1.062-0.003-2.123-0.006-3.186-0.009C9.877,52.069,9.885,51.01,9.89,49.951z"/>
<path fill="#909090" d="M16.124,56.238c-1.036,0.006-2.072,0.009-3.108,0.012c0.005-1.037,0.017-2.075,0.04-3.113c0.002,0-0.042-0.012-0.042-0.012c0.499-0.482,0.998-0.965,1.496-1.449c0.646,0.244,1.295,0.491,1.945,0.738c0.208,0.659,0.417,1.321,0.625,1.98C16.76,55.008,16.441,55.624,16.124,56.238z"/>
<path fill="#BCBCBC" d="M28.625,81.293c1.045-0.043,2.089-0.086,3.133-0.129c0.818,0.745,1.071,1.469,0.763,2.17c-0.304,0.693-0.598,1.038-0.885,1.038c-0.998-0.006-1.995-0.009-2.992-0.009C28.642,83.341,28.636,82.318,28.625,81.293z"/>
<path fill="#787878" d="M75.478,81.231c0.011-1.034,0.017-2.069,0.015-3.104c1.177-0.668,2.341-0.616,3.497,0.058c0.895,1.145,0.772,2.167-0.364,3.064C77.577,81.244,76.528,81.238,75.478,81.231z"/>
<path fill="#696969" d="M78.625,81.25c0.006-1.041,0.012-2.084,0.019-3.125c0.521-0.402,1.044-0.806,1.565-1.209c0.521,0.403,1.039,0.81,1.56,1.215l-0.01-0.009c0,1.013-0.015,2.029-0.046,3.039C80.684,81.213,79.656,81.244,78.625,81.25z"/>
<path fill="#A0A0A0" d="M31.636,84.372c0.041-1.068,0.081-2.137,0.122-3.208l-0.095,0.113c0.873-0.668,1.18-1.357,0.921-2.069c-0.262-0.717-0.532-1.077-0.813-1.077l-0.019,0.013c-0.658-1.276-0.897-2.625-0.715-4.053c0.825-2.134,2.298-3.534,4.559-4.06c1.48,0.021,2.844,0.425,4.103,1.197c1.706,1.563,2.463,3.533,2.504,5.811c-0.106,1.465-0.543,2.832-1.265,4.107c-0.917,1.123-1.888,2.2-2.919,3.223l-0.125,0.095c-0.979-0.034-1.958-0.067-2.934-0.095C33.853,84.369,32.743,84.372,31.636,84.372z"/>
<path fill="#646464" d="M88.012,53.125c1.043,0,2.083,0,3.125,0c0.002,1.041,0,2.084,0,3.125c-1.04,0-2.082,0-3.125,0C88.012,55.209,88.012,54.166,88.012,53.125z"/>
<path fill="#626262" d="M59.872,68.756c-1.03,2.063-2.06,4.129-3.09,6.195v0.037c-1.627-1.276-2.069-2.912-1.48-4.859c0.689-1.067,1.646-1.767,2.873-2.103C58.741,68.271,59.306,68.512,59.872,68.756z"/>
<path fill="#696969" d="M63.033,68.753c-1.053,0-2.105,0-3.16,0c0,0.003,0.02,0.009,0.02,0.009c-0.784-1.095-0.757-2.169,0.084-3.226c1.12-0.646,2.265-0.729,3.439-0.155c0.176,0.589,0.351,1.178,0.528,1.767C63.64,67.682,63.336,68.219,63.033,68.753z"/>
<path fill="#5F5F5F" d="M63.025,71.823c0.002-1.022,0.003-2.048,0.008-3.07l-0.006,0.043c1.04-1.175,2.222-1.282,3.527-0.467c0.634,1.318,0.644,2.64,0.03,3.967C65.266,73.123,64.08,72.968,63.025,71.823z"/>
<path fill="#7A7A7A" d="M63.025,71.823c1.034,0.012,2.067,0.015,3.103,0.006c0.703,0.778,0.988,1.597,0.857,2.45c-0.136,0.876-0.306,1.313-0.513,1.315c-1.339,0.882-2.49,0.687-3.46-0.589C63.017,73.944,63.022,72.885,63.025,71.823z"/>
<path fill="#6B6B6B" d="M63.012,75.006c1.041,0,2.082,0.006,3.122,0.013c0.992,0.692,1.323,1.389,0.998,2.087c-0.326,0.702-0.653,1.053-0.984,1.053l0.002-0.036c-1.045,0.003-2.092,0.003-3.138,0.006C63.012,77.088,63.012,76.047,63.012,75.006z"/>
<path fill="#767676" d="M56.759,68.738c0.008,2.081,0.016,4.165,0.023,6.25c-1.03,0.003-2.062,0.006-3.092,0.006c-1.001,0.998-2.208,1.501-3.624,1.504c-0.682-0.07-1.362-0.143-2.045-0.217c-0.529-0.439-1.056-0.879-1.583-1.318c-0.46-1.336-0.496-2.679-0.108-4.034c0.687-1.229,1.618-2.225,2.794-2.997c1.29-0.533,2.632-0.863,4.021-1.016c0.678,0.152,1.356,0.305,2.034,0.458C55.706,67.828,56.233,68.283,56.759,68.738z"/>
<path fill="#696969" d="M50.569,74.988c1.041,0.003,2.08,0.003,3.122,0.006c-0.907,0.896-1.815,1.797-2.721,2.691c0.002-0.003-0.72,0.494-0.72,0.494c-0.604-0.595-1.209-1.193-1.813-1.791C49.147,75.922,49.858,75.455,50.569,74.988z"/>
<path fill="#999999" d="M47.481,78.049c0.021,2.164,0.044,4.327,0.068,6.494c0.001,0.003,0.021-0.067,0.021-0.067c-1.146,1.34-2.234,1.294-3.264-0.138l-0.038,0.04c-0.987-0.928-1.799-1.993-2.434-3.192c-0.33-1.321-0.401-2.661-0.249-4.016c0.462-1.31,1.25-2.377,2.362-3.204c1.405-0.434,2.591-0.098,3.56,1.007l-0.078-0.119c1.001,0.695,1.342,1.397,1.024,2.115C48.134,77.689,47.81,78.049,47.481,78.049z"/>
<path fill="#B9B9B9" d="M47.481,78.049c-0.019-1.065-0.035-2.127-0.051-3.192c1.046,0.043,2.091,0.089,3.138,0.132c-0.101,1.064-0.203,2.127-0.312,3.191C49.327,78.137,48.404,78.092,47.481,78.049z"/>
<path fill="#747474" d="M66.148,78.158c-0.004-1.047-0.009-2.093-0.014-3.14c-0.001-1.063-0.004-2.124-0.007-3.189c-0.002-1.025-0.005-2.048-0.01-3.073c1.688-1.834,3.71-2.117,5.971-1.287c1.171,0.961,1.882,2.188,2.135,3.68c-0.134,0.724-0.269,1.443-0.402,2.167c-0.477,0.559-0.952,1.117-1.429,1.676c-1.037,1.046-2.075,2.093-3.111,3.14C68.237,78.141,67.192,78.149,66.148,78.158z"/>
<path fill="#6F6F6F" d="M78.644,78.125c-1.05,0-2.1,0.003-3.151,0.003c-1.039,0-2.078,0.003-3.117,0.006c0.005-1.046,0.011-2.093,0.016-3.143c0.001,0-0.019,0.006-0.019,0.006c0.947-1.028,2.107-1.685,3.481-1.959c1.413,0.106,2.628,0.662,3.673,1.608c0.624,1.397,0.328,2.56-0.886,3.487L78.644,78.125z"/>
<path fill="#A8A8A8" d="M44.307,84.338c1.088,0.046,2.174,0.092,3.264,0.138c0.078,0.9,0.167,1.798,0.269,2.691c-1.175,0.126-2.354,0.251-3.534,0.379C44.305,86.478,44.307,85.409,44.307,84.338z"/>
<path fill="#D9D9D9" d="M72.373,21.832c2.1,0.021,4.199,0.04,6.299,0.062c-0.196,1.297-0.395,2.594-0.593,3.891c-0.813,0.788-1.644,1.554-2.489,2.307c-1.085-0.003-2.171-0.006-3.258-0.009c-1.102-0.711-1.605-1.724-1.509-3.033c0.057-1.288,0.602-2.332,1.563-3.168L72.373,21.832z"/>
<path fill="#696969" d="M75.514,37.479c-1.034,0.016-2.069,0.024-3.104,0.027c-0.83,1.017-1.781,1.093-2.83,0.36c-0.268-0.503-0.536-1.01-0.805-1.514c0.236-0.516,0.473-1.038,0.71-1.557c2-0.162,4.002-0.32,6.003-0.482C75.497,35.367,75.505,36.423,75.514,37.479z"/>
<path fill="#E0E0E0" d="M63.03,28.125c1.004-0.006,2.006-0.003,3.01,0.009c0.534-0.458,1.068-0.916,1.603-1.379c0.577,0.403,1.155,0.809,1.732,1.211c-0.069,1.145-0.138,2.286-0.206,3.43c-0.837,0.925-1.869,1.486-3.103,1.688c-1.229-0.186-2.296-0.699-3.182-1.578c-0.203-0.574-0.405-1.147-0.608-1.721C62.528,29.233,62.778,28.681,63.03,28.125z"/>
<path fill="#BFBFBF" d="M72.386,25c0.005,1.028-0.013,2.057-0.052,3.082c-0.989-0.006-1.977-0.042-2.962-0.113c0.002-0.003-0.022,0.15-0.022,0.15c-0.936-0.595-1.282-1.236-1.043-1.926c0.248-0.711,0.515-1.068,0.802-1.068L69.273,25C70.311,23.541,71.348,23.614,72.386,25z"/>
<path fill="#B9B9B9" d="M75.59,28.091c0.832-0.772,1.665-1.547,2.493-2.313c0.168,0.787,0.349,1.565,0.534,2.344C77.608,28.128,76.599,28.116,75.59,28.091z"/>
<path fill="#C5C5C5" d="M66.177,31.25c1,0.027,1.997,0.076,2.992,0.144c0.104,1.132,0.209,2.264,0.314,3.396c0.002,0.006,0.043-0.345,0.043-0.345c-1.069,0.882-2.172,0.879-3.301,0.119C65.398,33.472,65.381,32.367,66.177,31.25z"/>
<path fill="#717171" d="M75.509,43.75c1.046,0,2.089,0.003,3.133,0.003c0.002,2.087,0.002,4.175,0.003,6.259c-0.564,0.324-1.127,0.647-1.691,0.968c-1.372-0.144-2.375-0.845-3.059-2.029c-0.307-1.297-0.255-2.576,0.211-3.83C74.573,44.663,75.041,44.205,75.509,43.75z"/>
<path fill="#757575" d="M81.761,50.006c0,1.041,0.001,2.078,0.001,3.116c0.495,0.494,0.989,0.985,1.483,1.477c-0.231,0.656-0.465,1.313-0.695,1.969c-1.237,0.729-2.547,0.937-3.937,0.534c-1.033-0.971-1.675-2.146-1.854-3.559c0.206-1.403,0.832-2.588,1.88-3.543l0.005,0.012C79.683,50.009,80.722,50.006,81.761,50.006z"/>
<path fill="#6C6C6C" d="M69.02,37.277c1.129,0.076,2.26,0.152,3.391,0.229c-0.011,1.041-0.019,2.082-0.023,3.122c0.503,0.519,1.003,1.038,1.505,1.557c-0.247,0.681-0.494,1.358-0.74,2.035c-1.143,0.925-2.439,1.447-3.917,1.505c-2.316-0.455-3.807-1.761-4.255-4.135c0.24-1.447,0.938-2.637,2.027-3.604C67.679,37.75,68.349,37.512,69.02,37.277z"/>
<path fill="#757575" d="M72.387,43.762c0-1.043,0-2.09,0-3.134c1.041-0.003,2.083-0.006,3.124-0.009c0,1.043,0,2.087-0.002,3.131l0.005-0.003C74.477,44.836,73.436,44.895,72.387,43.762z"/>
<path fill="#C9C9C9" d="M50.519,21.881c2.107,0,4.214,0.003,6.32,0.006c1.026,1.025,1.653,2.261,1.939,3.684c-0.138,1.458-0.691,2.737-1.662,3.836c-1.277,0.732-2.646,1.089-4.117,1.071c-2.89-0.757-5.519-1.874-6.8-4.871c-0.343-1.465-0.145-2.866,0.519-4.206C48.103,20.621,49.375,20.733,50.519,21.881z"/>
<path fill="#DCDCDC" d="M44.263,18.747c0-1.041,0-2.082,0-3.122c0.81-0.961,1.833-1.474,3.099-1.471c1.218,0.171,2.298,0.641,3.223,1.458c0,0-0.02-0.024-0.019-0.024c-0.02,1.056-0.041,2.118-0.061,3.177C48.419,20.636,46.338,20.688,44.263,18.747z"/>
<path fill="#EBEBEB" d="M44.263,18.747c2.082,0.006,4.163,0.009,6.243,0.015c0.014,1.041,0.018,2.078,0.014,3.119c-1.021,0.028-2.043,0.049-3.064,0.062c-0.54,0.342-1.079,0.684-1.619,1.025c-0.523-0.363-1.048-0.729-1.572-1.093C44.264,20.831,44.263,19.788,44.263,18.747z"/>
<path fill="#FDFDFD" d="M56.909,24.945c-0.063-1.02-0.088-2.039-0.069-3.058c1.013,0.024,2.024,0.024,3.038,0c-0.002,0,0.006-0.006,0.006-0.006c0.908,0.641,1.313,1.38,1.218,2.216c-0.103,0.885-0.276,1.328-0.521,1.328C59.229,26.26,58.011,26.053,56.909,24.945z"/>
<path fill="#C3C3C3" d="M72.386,25c-1.041,0-2.083,0-3.119,0c0.003-1.041-0.001-2.084-0.001-3.122c1.042,0,2.082-0.003,3.121,0C72.387,22.922,72.387,23.96,72.386,25z"/>
<path fill="#F0F0F0" d="M56.909,24.945c0.994,0.024,1.985,0.042,2.978,0.055c1.042-1.438,2.084-1.37,3.125,0c0.011,1.044,0.017,2.084,0.019,3.125l-0.024-0.015c-0.811,1.056-1.865,1.685-3.2,1.819c-1.306-0.22-2.379-0.833-3.185-1.898C56.699,27.002,56.794,25.974,56.909,24.945z"/>
<path fill="#E4E4E4" d="M63.011,25c-1.041,0-2.083,0-3.125,0c0.001-1.041,0.001-2.084-0.002-3.122c1.043,0,2.085,0,3.128-0.006C63.011,22.916,63.011,23.96,63.011,25z"/>
<path fill="#FEFEFE" d="M69.109,25.125c0.091,0.998,0.171,1.996,0.241,2.994c-1.103,0.006-2.205,0.009-3.309,0.015C67.062,27.13,68.086,26.129,69.109,25.125z"/>
<path fill="#E1E1E1" d="M25.427,25.198c1.041-0.134,2.083-0.269,3.124-0.406c0.651,0.058,1.303,0.116,1.956,0.174c1.328,0.134,2.558,0.559,3.709,1.236c0.969,0.977,1.546,2.146,1.787,3.498c-0.223,1.382-0.839,2.557-1.794,3.574c-2.58,1.703-5.153,1.749-7.721-0.019c-0.414-0.559-0.826-1.12-1.237-1.682c0.088-1.132,0.175-2.261,0.262-3.394c-0.9-0.638-1.213-1.291-0.94-1.962C24.85,25.537,25.134,25.198,25.427,25.198z"/>
<path fill="#F0F0F0" d="M25.427,25.198c0.041,0.992,0.07,1.987,0.085,2.981c-1.059-1.102-2.12-2.203-3.18-3.305C23.364,24.966,24.396,25.073,25.427,25.198z"/>
<path fill="#979797" d="M22.42,34.335c0.015-0.946,0.044-1.892,0.088-2.835c0.918-0.073,1.834-0.052,2.745,0.07c-0.003,0.003,0.297-0.33,0.297-0.33c0.615,0.702,0.83,1.413,0.643,2.13c-0.188,0.72-0.381,1.083-0.582,1.083C24.516,35.278,23.454,35.202,22.42,34.335z"/>
<path fill="#A3A3A3" d="M22.42,34.335c1.14-0.07,2.281-0.141,3.421-0.21c0.575,0.335,1.149,0.674,1.724,1.01c0.853,1.05,1.436,2.228,1.717,3.556c0.063,2.103-0.64,3.897-2.155,5.365c-1.132,0.726-2.382,1.062-3.72,1.065c-0.592-0.271-1.19-0.546-1.784-0.818c-0.789-1.059-1.231-2.249-1.27-3.58c0.351-1.27,1.024-2.341,2.019-3.21C22.388,36.453,22.404,35.395,22.42,34.335z"/>
<path fill="#B2B2B2" d="M22.372,37.512c0.011,1.041,0.017,2.078,0.015,3.119c-0.583,0.421-1.166,0.846-1.751,1.267c-0.673-0.262-1.345-0.528-2.019-0.793c-0.826-1.388-0.659-2.6,0.646-3.604l-0.011-0.003C20.292,37.5,21.331,37.506,22.372,37.512z"/>
<path fill="#7A7A7A" d="M81.758,56.231c0.001-1.034,0.003-2.072,0.004-3.109c1.043,0.003,2.083,0.003,3.125,0.006c0,1.044-0.001,2.088-0.001,3.131C83.833,57.364,82.791,57.355,81.758,56.231z"/>
<path fill="#D3D3D3" d="M28.551,24.793c0.04-0.952,0.052-1.904,0.035-2.856c2.13-0.031,4.262-0.058,6.392-0.088l0.797,1.321c0.079,1.123-0.325,2.032-1.208,2.731c-0.931,0.528-1.929,0.726-2.991,0.592c-1.09-0.046-2.007-0.47-2.751-1.267L28.551,24.793z"/>
<path fill="#B7B7B7" d="M34.897,18.75c1.111-0.079,2.222-0.159,3.333-0.238c0.276,0.461,0.552,0.922,0.827,1.386c-0.122,1.114-0.619,2.023-1.491,2.729c-1.109,0.455-2.011,0.223-2.673-0.803c0,0,0.083,0.024,0.084,0.024C34.929,20.816,34.901,19.785,34.897,18.75z"/>
<path fill="#A6A6A6" d="M22.432,71.97c-0.016-1.065-0.031-2.13-0.044-3.195c-1.962-2.087-1.797-4.303-0.394-6.595c1.973-1.782,4.237-2.188,6.746-1.432c2.252,1.294,3.423,3.287,3.734,5.826c-0.083,1.602-0.415,3.155-1.001,4.654c-0.375,0.698-0.752,1.4-1.127,2.103c-0.569,0.555-1.138,1.11-1.708,1.669c-1.033,0.021-2.066,0.04-3.101,0.058C24.502,74.029,23.466,73.001,22.432,71.97z"/>
<path fill="#A3A3A3" d="M31.796,74.945c-0.014,1.064-0.027,2.13-0.043,3.195c0,0.003-1.563-0.01-1.563-0.01l-1.563,0.003c0.003-1.043,0.006-2.09,0.009-3.134l-0.024,0.009c0.522-0.408,1.045-0.82,1.567-1.235C30.719,74.161,31.258,74.552,31.796,74.945z"/>
<path fill="#ADADAD" d="M31.772,78.131c-0.037,1.047-0.072,2.097-0.108,3.146C31.7,80.228,31.735,79.181,31.772,78.131z"/>
<path fill="#878787" d="M16.144,62.457c0.015-1.016,0.042-2.032,0.081-3.049c0.001,0-0.084-0.015-0.084-0.015c0.584-0.421,1.169-0.843,1.753-1.264c0.651,0.314,1.3,0.629,1.95,0.943c0.242,0.684,0.483,1.364,0.726,2.048c-0.297,0.662-0.595,1.321-0.894,1.983C18.294,64.002,17.117,63.785,16.144,62.457z"/>
<path fill="#BBBBBB" d="M16.144,62.457c1.045,0.046,2.092,0.089,3.139,0.132c0.763,0.684,1.013,1.364,0.752,2.038c-0.259,0.675-0.517,1.01-0.773,1.01c-1.042-0.006-2.083-0.012-3.124-0.015C16.139,64.566,16.14,63.514,16.144,62.457z"/>
<path fill="#B2B2B2" d="M19.261,65.637c0-1.019,0.008-2.038,0.021-3.051c0,0.003-0.023-0.098-0.023-0.098c0.529-0.382,1.061-0.767,1.591-1.151c0.482,0.439,0.966,0.886,1.448,1.331c0.029,2.032,0.058,4.068,0.088,6.106c-1.043-0.006-2.089-0.013-3.133-0.019C19.26,67.719,19.261,66.678,19.261,65.637z"/>
<path fill="#808080" d="M84.887,59.359c-1.045,1.053-2.089,2.109-3.134,3.165c-0.478,0.437-0.957,0.873-1.436,1.306c-1.339-0.313-2.238-1.098-2.634-2.432c0.296-2.256,1.704-3.29,3.854-3.513C82.903,57.813,84.019,58.304,84.887,59.359z"/>
<path fill="#747474" d="M84.898,71.872c-1.04,0.006-2.082,0.012-3.123,0.019c-0.441-0.293-0.882-0.586-1.326-0.879c-0.517-0.949-0.735-1.966-0.654-3.046c0.345-1.041,1.002-1.822,1.972-2.338c1.045,0,2.09,0,3.136,0c-0.008,1.034-0.013,2.069-0.013,3.104C84.892,69.778,84.895,70.825,84.898,71.872z"/>
<path fill="#6C6C6C" d="M81.766,65.628c-0.004,1.041-0.007,2.081-0.011,3.122c-1.328,1.056-2.644,0.992-3.954-0.037c-1.12-2.27-0.956-4.363,0.84-6.237c1.039,0.013,2.076,0.027,3.114,0.049C81.759,63.559,81.764,64.594,81.766,65.628z"/>
<path fill="#616161" d="M84.887,59.359c-1.029-0.033-2.06-0.076-3.09-0.131c-1.178-0.646-1.568-1.294-1.176-1.941c0.391-0.644,0.782-0.967,1.181-0.967l-0.044-0.086c1.042,0.007,2.086,0.016,3.128,0.024C84.883,57.294,84.883,58.325,84.887,59.359z"/>
<path fill="#BCBCBC" d="M44.258,81.283c0.009,1.032,0.012,2.063,0.009,3.095c-2.081-0.003-4.166-0.006-6.247-0.009c-0.003-1.06-0.006-2.118-0.008-3.177C40.12,79.379,42.202,79.383,44.258,81.283z"/>
<path fill="#ADADAD" d="M16.121,46.945c0.009-2.109,0.018-4.221,0.027-6.33l-0.011,0.009c1.042-1.37,2.084-1.37,3.126,0L19.239,40.6c1.213,0.891,2.273,1.932,3.121,3.18l0.021-0.033c0.752,0.662,1.111,1.404,1.073,2.228c-0.04,0.861-0.157,1.294-0.354,1.294c-1.025,0.909-2.212,1.45-3.585,1.563c-1.349-0.263-2.486-0.909-3.441-1.889L16.121,46.945z"/>
<path fill="#9E9E9E" d="M19.264,40.625c-1.042,0-2.084,0-3.126,0c0-1.041,0-2.084,0-3.125c1.042,0,2.083,0,3.125,0C19.263,38.541,19.263,39.585,19.264,40.625z"/>
<path fill="#FEFEFE" d="M37.919,15.582c1.071,1.063,2.144,2.121,3.217,3.183c-1.048,1.297-2.089,1.291-3.122-0.015c0,0,0.212-0.235,0.214-0.235C38.117,17.539,38.013,16.562,37.919,15.582z"/>
<path fill="#757575" d="M78.641,78.134c-0.002-1.046-0.002-2.093-0.004-3.14c-0.798-0.742-1.137-1.548-1.015-2.411c0.127-0.892,0.304-1.34,0.531-1.343c1.384-0.83,2.594-0.668,3.605,0.629c0,0,0.014,0.021,0.016,0.021c-0.006,1.034-0.009,2.068-0.013,3.104c0.002,1.047,0.004,2.09,0.007,3.137C80.727,78.131,79.683,78.134,78.641,78.134z"/>
<path fill="#CCCCCC" d="M50.584,15.613c-1.065,0.003-2.132,0.009-3.197,0.012c-1.038-0.696-1.382-1.392-1.038-2.084c0.346-0.696,0.69-1.044,1.04-1.044c0,0-0.042,0.03-0.044,0.03C48.425,13.556,49.504,14.585,50.584,15.613z"/>
<path fill="#F0F0F0" d="M47.389,12.497c0,1.043-0.001,2.084-0.001,3.128c-1.042,0-2.083,0-3.125,0c0-1.041,0-2.084,0-3.122C45.306,12.503,46.348,12.5,47.389,12.497z"/>
<path fill="#BCBCBC" d="M38.014,18.75c1.041,0,2.082,0.006,3.122,0.015c0.001,1.032-0.012,2.063-0.04,3.098c0,0-0.914,0.918-0.914,0.921c0,0.003-1.3-0.027-1.3-0.027c0,0.003-0.813-1.013-0.813-1.013C38.041,20.746,38.023,19.748,38.014,18.75z"/>
<path fill="#D7D7D7" d="M41.097,21.863c1.056,0.003,2.112,0.006,3.167,0.012l-0.009,0.015c0.832,1.242,0.604,2.307-0.544,3.223c-2.352,0.061-3.732-0.65-2.654-3.323L41.097,21.863z"/>
<path fill="#B1B1B1" d="M19.23,59.22c-1.028,0.085-2.058,0.144-3.09,0.174c-0.004-1.05-0.011-2.103-0.017-3.152c0-0.003,0.04,0.039,0.04,0.039C18.959,55.411,19.755,56.625,19.23,59.22z"/>
<path fill="#A3A3A3" d="M16.074,46.942c1.079-0.019,2.156-0.034,3.235-0.049c1.161,0.781,2.363,1.489,3.61,2.133c0.258,0.653,0.513,1.304,0.771,1.956c-0.11,1.459-0.713,2.649-1.889,3.537c-2.165,0.632-4.14,0.439-5.745-1.337l0.083-0.058c-1.036-0.689-1.382-1.386-1.041-2.081c0.342-0.696,0.685-1.044,1.033-1.044C16.084,48.981,16.066,47.961,16.074,46.942z"/>
<path fill="#BBBBBB" d="M16.13,50c0.003,1.041,0.005,2.084,0.008,3.125c-1.042,0-2.083,0-3.125,0c0-1.041,0-2.084,0-3.125C14.052,50,15.091,50,16.13,50z"/>
<path fill="#AAAAAA" d="M16.055,53.183c2.103-0.012,4.206-0.024,6.307-0.036c1.096,0.9,1.733,2.06,1.976,3.448c-0.118,0.678-0.235,1.353-0.353,2.029c-0.424,0.54-0.85,1.081-1.276,1.621c-1.376,0.622-2.537,0.378-3.45-0.864c0,0-0.028-0.158-0.029-0.161c-1.022-0.979-2.044-1.96-3.067-2.939C16.133,55.249,16.097,54.215,16.055,53.183z"/>
<path fill="#AEAEAE" d="M28.656,72.013c-0.004-1.103-0.009-2.2-0.015-3.3c1.639-1.867,2.832-4.547,6.142-3.372c1.006,0.876,1.637,1.969,1.897,3.278c-0.128,1.346-0.702,2.441-1.792,3.256c-1.03,1.025-2.062,2.048-3.091,3.07L31.8,75C30.661,74.1,29.617,73.099,28.656,72.013z"/>
<path fill="#A8A8A8" d="M44.265,74.967c-0.009,1.037-0.012,2.078-0.006,3.118c-2.064,2.002-4.146,1.944-6.244,0.056c-0.004-2.097-0.007-4.19-0.011-6.287c0.566-0.427,1.132-0.854,1.699-1.285c1.431-0.244,2.792-0.045,4.069,0.66c0.754,0.744,1.079,1.547,0.974,2.404C44.638,74.521,44.478,74.967,44.265,74.967z"/>
<path fill="#8A8A8A" d="M38.015,78.141c2.082-0.019,4.163-0.034,6.246-0.053c-0.001,1.063-0.003,2.128-0.003,3.192c-2.083-0.024-4.164-0.052-6.246-0.085C38.019,80.176,38.019,79.156,38.015,78.141z"/>
<path fill="#BCBCBC" d="M34.888,71.875c-0.001-1.037-0.001-2.075,0-3.116c1.099-1.019,2.298-1.156,3.6-0.408c0.793,1.309,0.62,2.475-0.517,3.497l0.035,0.009C36.966,71.866,35.927,71.872,34.888,71.875z"/>
<path fill="#808080" d="M59.886,65.622c0.001,1.047,0.003,2.094,0.006,3.14c-1.044-0.009-2.089-0.015-3.133-0.023l0.024,0.009c-0.739-0.669-1.059-1.395-0.956-2.183c0.106-0.814,0.262-1.224,0.468-1.224c0.618-0.21,1.238-0.424,1.855-0.635C58.73,65.012,59.308,65.316,59.886,65.622z"/>
<path fill="#727272" d="M72.383,68.747c-2.089,0.003-4.177,0.006-6.266,0.009c-1.029,0.01-2.062,0.021-3.091,0.04c-0.004-1.053-0.007-2.105-0.01-3.159c-1.04-0.854-2.176-1.553-3.41-2.105c-0.378-0.562-0.752-1.123-1.129-1.688c-0.197-1.395,0.044-2.697,0.72-3.931c0.969-1.02,2.131-1.721,3.453-2.17c1.387-0.18,2.737-0.009,4.052,0.446c1.234,0.609,2.339,1.406,3.332,2.358c0.906,1.011,1.814,2.023,2.723,3.036c0.809,1.111,1.284,2.356,1.469,3.715C74.058,66.688,73.422,67.825,72.383,68.747z"/>
<path fill="#808080" d="M59.88,62.567c1.045,1.022,2.09,2.048,3.137,3.069c-1.044-0.003-2.087-0.009-3.131-0.015l-0.02-0.024c-0.795-0.678-1.058-1.352-0.789-2.023C59.346,62.903,59.613,62.567,59.88,62.567z"/>
<path fill="#B1B1B1" d="M50.622,71.869c-1.065,0.009-2.13,0.021-3.195,0.03c-0.48-0.363-0.961-0.727-1.442-1.093c-0.603-1.08-0.821-2.236-0.707-3.467c0.412-1.181,1.167-2.084,2.222-2.746c1.244-0.171,2.4,0.055,3.461,0.735c0.833,0.949,1.236,2.063,1.268,3.317C51.977,69.861,51.454,70.941,50.622,71.869z"/>
<path fill="#6A6A6A" d="M56.766,65.625c0,1.041,0.006,2.081,0.018,3.122c-1.056-0.009-2.111-0.016-3.167-0.021l-0.941-1.15c-0.062-1.12,0.401-1.947,1.384-2.484C55.106,64.532,56.009,64.709,56.766,65.625z"/>
<path fill="#6A6A6A" d="M50.622,71.869c-0.041-1.025-0.064-2.051-0.067-3.076c0.878-1.355,1.853-1.361,2.912-0.211l0.149,0.144C52.618,69.773,51.62,70.822,50.622,71.869z"/>
<path fill="#BCBCBC" d="M44.265,74.967c0.008-1.008,0.028-2.018,0.058-3.024c0.502-0.418,1.004-0.84,1.506-1.264c0.521,0.399,1.039,0.8,1.56,1.199c0,0,0.035,0.019,0.037,0.019c0.07,1.025,0.095,2.051,0.078,3.076C46.426,74.97,45.346,74.967,44.265,74.967z"/>
<path fill="#777777" d="M72.383,68.747c0.004-1.034,0.011-2.069,0.015-3.104c1.104-3.016,2.758-4.935,6.271-3.155l-0.028-0.013c-0.013,2.087-0.026,4.175-0.04,6.263c-0.319,1.168-0.906,2.188-1.725,3.079c-0.475,0.369-0.947,0.735-1.422,1.104c-1.265,0.381-2.273,0.003-3.063-1.025C72.389,70.847,72.386,69.797,72.383,68.747z"/>
<path fill="#666666" d="M72.392,71.897c1.042-0.01,2.086-0.021,3.128-0.03c1.018,0.698,1.355,1.397,1.014,2.093c-0.339,0.693-0.68,1.041-1.022,1.041c-1.047,0-2.092-0.003-3.139-0.003C72.381,73.963,72.387,72.931,72.392,71.897z"/>
<path fill="#777777" d="M75.511,75c0.001-1.044,0.005-2.088,0.008-3.134c0.001,0-0.021,0.015-0.021,0.015c1.062-1.306,2.104-1.227,3.13,0.046c0.003,1.022,0.007,2.045,0.01,3.067C77.595,74.997,76.553,74.997,75.511,75z"/>
<path fill="#FAFAFA" d="M66.114,34.394c1.137,0.018,2.271,0.033,3.41,0.052c-0.16,0.946-0.328,1.889-0.502,2.832c-0.002,0,0.223-0.104,0.223-0.104c-0.469,0.492-0.938,0.983-1.404,1.477c-0.656-0.174-1.313-0.345-1.968-0.516c-0.222-0.641-0.444-1.282-0.666-1.923C65.509,35.608,65.811,35.001,66.114,34.394z"/>
<path fill="#DCDCDC" d="M59.854,28.125c1.052-0.006,2.102-0.009,3.151-0.015c0.001,1.043,0.003,2.09,0.004,3.134c-0.451,0.335-0.901,0.671-1.354,1.01c-1.185,0.009-2.156-0.424-2.892-1.364C58.433,29.693,58.764,28.757,59.854,28.125z"/>
<path fill="#FEFEFE" d="M66.177,31.25c-0.021,1.047-0.041,2.097-0.063,3.144c-0.001,0,0.026-0.046,0.026-0.046c-1.032,0.876-2.093,0.955-3.191,0.122c-0.823-1.09-0.802-2.164,0.064-3.22l-0.005-0.006C64.066,31.247,65.121,31.247,66.177,31.25z"/>
<path fill="#676767" d="M72.387,43.762c1.043-0.006,2.085-0.009,3.127-0.015c-0.002,2.084-0.002,4.172-0.002,6.256c0.945,0.669,1.347,1.425,1.206,2.273c-0.148,0.889-0.354,1.334-0.618,1.334c-1.445,0.5-2.844,0.399-4.201-0.309c-1.739-1.63-2.322-3.644-1.956-5.963c0.586-1.355,1.402-2.551,2.451-3.592L72.387,43.762z"/>
<path fill="#5C5C5C" d="M75.522,53.106c-0.005-1.034-0.008-2.069-0.01-3.104c1.043-0.003,2.085-0.003,3.127-0.003c0,1.037-0.002,2.075-0.003,3.113C77.595,54.257,76.558,54.202,75.522,53.106z"/>
<path fill="#696969" d="M78.669,62.488c-2.09,1.053-4.181,2.103-6.271,3.155c-1.045-0.01-2.092-0.019-3.139-0.027c-1.004-0.968-1.343-2.143-1.103-3.504c0.413-1.923,0.527-3.931,1.634-5.651c0.941-0.983,2.072-1.605,3.421-1.822c1.923,0.144,4.022-0.317,5.417,1.603c1.058,0.024,2.115,0.052,3.174,0.079c-0.009,0.971-0.011,1.94-0.005,2.911C80.755,60.315,79.711,61.401,78.669,62.488z"/>
<path fill="#808080" d="M78.628,56.241c-2.076-0.01-4.155-0.016-6.231-0.021c-0.271-0.513-0.539-1.022-0.811-1.532c0.285-0.5,0.569-1.004,0.854-1.505c1.027-0.021,2.054-0.046,3.081-0.076c1.039,0.013,2.076,0.016,3.114,0.007C78.633,54.156,78.631,55.197,78.628,56.241z"/>
<path fill="#707070" d="M66.171,40.57c1.033,1.062,2.065,2.124,3.099,3.186c1.09,0.925,1.611,2.091,1.473,3.534c-0.309,2.133-1.193,3.952-2.896,5.335c-1.97,0.985-4.069,1.379-6.25,1.474c-1.488-0.159-2.877-0.589-4.171-1.346c-1.741-1.472-3.04-3.271-4.009-5.319c-0.494-1.425-0.727-2.887-0.661-4.395c0.436-2.258,1.535-4.111,3.385-5.493c1.259-0.72,2.601-1.245,4.023-1.532c0.713-0.058,1.43-0.119,2.145-0.174c1.449,0.024,2.801,0.403,4.054,1.142l-0.371,0.973c1.012,0.513,1.375,1.071,1.093,1.675C66.79,40.256,66.489,40.57,66.171,40.57z"/>
<path fill="#676767" d="M66.171,40.57c-0.058-0.873-0.117-1.743-0.181-2.616c1.084-0.259,2.167-0.519,3.252-0.778C68.22,38.306,67.197,39.438,66.171,40.57z"/>
<path fill="#7A7A7A" d="M69.261,46.894c0.003-1.047,0.006-2.094,0.009-3.138c1.041-0.003,2.082-0.006,3.124-0.009c-0.005,1.034-0.008,2.069-0.01,3.104C71.366,48.429,70.323,48.44,69.261,46.894z"/>
<path fill="#FEFEFE" d="M59.854,28.125c0.014,1.041,0.02,2.081,0.02,3.122c-1.359,1.73-3.137,2.121-5.19,1.62c-1.188-0.674-1.863-1.693-2.022-3.052c0.327-0.562,0.653-1.126,0.98-1.688c0.994-0.03,1.989-0.061,2.982-0.095C57.7,28.061,58.777,28.091,59.854,28.125z"/>
<path fill="#DEDEDE" d="M47.438,24.951c2.067,1.059,4.135,2.118,6.203,3.177l0.039,0.019c-1.346,1.602-3.022,2.042-5,1.419c-1.076-0.717-1.782-1.703-2.121-2.948C46.852,26.062,47.145,25.507,47.438,24.951z"/>
<path fill="#DEDEDE" d="M44.252,24.912c0.004-1.01,0.006-2.017,0.003-3.024c1.064,0.018,2.129,0.034,3.195,0.052c-0.029,1.007-0.037,2.011-0.015,3.015c0.003-0.003-0.058,0.058-0.058,0.058c-0.533,0.342-1.065,0.688-1.598,1.032C45.27,25.669,44.762,25.29,44.252,24.912z"/>
<path fill="#FEFEFE" d="M25.841,34.125c-0.141-0.958-0.238-1.92-0.292-2.884c3.121-0.003,6.239-0.006,9.36-0.009c0.267,0.583,0.534,1.166,0.801,1.752c-0.224,1.297-0.81,2.402-1.759,3.32c-1.138,0.644-2.357,1.001-3.669,1.028c-2.063-0.314-3.421-1.645-4.624-3.204L25.841,34.125z"/>
<path fill="#F6F6F6" d="M28.824,25.226c0.964-0.094,1.932-0.167,2.901-0.22c0.964,0.69,1.285,1.383,0.966,2.079c-0.317,0.696-0.638,1.041-0.96,1.041C30.762,27.161,29.793,26.193,28.824,25.226z"/>
<path fill="#C3C3C3" d="M31.73,28.125c0.019-1.038,0.019-2.078-0.004-3.119c1.035,0.006,2.071,0.016,3.105,0.031c0,0,0.972,0.857,0.974,0.857s0.021,1.297,0.023,1.297s-0.905,0.931-0.905,0.931C33.859,28.122,32.794,28.125,31.73,28.125z"/>
<path fill="#B6B6B6" d="M34.909,31.231c-0.037-1.037-0.032-2.075,0.012-3.109c0.001,0-0.06,0.082-0.06,0.082c0.99-1.175,2.15-1.379,3.483-0.613c0.673,1.279,0.727,2.585,0.165,3.916c-1.271,0.824-2.481,0.742-3.629-0.247L34.909,31.231z"/>
<path fill="#999999" d="M25.658,34.128c1.907,0.217,3.814,0.43,5.722,0.644c0.867,0.513,1.297,1.16,1.292,1.935c-0.005,0.842-0.116,1.263-0.334,1.263c-1.018,0.873-2.187,1.38-3.529,1.465c-1.314-0.277-2.4-0.943-3.292-1.938C25.563,36.374,25.61,35.251,25.658,34.128z"/>
<path fill="#8B8B8B" d="M22.354,46.762c0.012-1.004,0.021-2.008,0.027-3.015c1.033,0.015,2.066,0.03,3.099,0.049c0.481,0.363,0.961,0.726,1.444,1.092c0.56,1.096,0.79,2.258,0.692,3.485c-0.392,1.182-1.107,2.115-2.141,2.808c-1.268,0.312-2.309-0.063-3.152-1.037l0.072-0.168c-0.928-0.702-1.244-1.413-0.946-2.13C21.746,47.122,22.047,46.762,22.354,46.762z"/>
<path fill="#9E9E9E" d="M25.517,37.497c1.05,0.003,2.102,0.006,3.153,0.009c0.987,0.849,1.588,1.914,1.807,3.198c-0.172,1.294-0.708,2.408-1.604,3.354c-1.198,0.684-2.328,0.623-3.38-0.308c0,0-0.011,0.043-0.012,0.043C25.493,41.696,25.505,39.597,25.517,37.497z"/>
<path fill="#9C9C9C" d="M22.36,43.78c-1.039-1.059-2.08-2.118-3.121-3.177c1.05,0.009,2.1,0.019,3.148,0.027C22.378,41.681,22.369,42.731,22.36,43.78z"/>
<path fill="#F0F0F0" d="M34.892,21.823c1.058-0.024,2.115-0.046,3.174-0.073c0.003-0.006-0.387,0.452-0.387,0.452c0.955,2.777,0.384,4.031-2.734,2.728c0,0-0.108,0.104-0.11,0.104C34.851,23.965,34.871,22.895,34.892,21.823z"/>
<path fill="#9A9A9A" d="M34.895,65.619c-2.086,1.031-4.17,2.063-6.255,3.094c0.001-2.071,0.001-4.146,0.001-6.219c0.203-1.38,0.808-2.555,1.814-3.521c0.638-0.244,1.275-0.485,1.915-0.727c1.401,0.168,2.566,0.781,3.503,1.834c0.554,1.285,0.668,2.612,0.345,3.974C35.779,64.575,35.336,65.097,34.895,65.619z"/>
<path fill="#959595" d="M31.769,59.415c-1.042,1.028-2.084,2.054-3.127,3.079c-2.113,0.058-4.228,0.112-6.343,0.171c0,0.003,0.088-0.165,0.088-0.165c-1.036-0.692-1.381-1.386-1.038-2.081c0.345-0.693,0.689-1.038,1.038-1.038l-0.003-0.043C25.533,56.897,28.665,56.44,31.769,59.415z"/>
<path fill="#959595" d="M28.656,72.013c1.048,0.994,2.095,1.989,3.144,2.987c-1.062,0.003-2.124,0.006-3.186,0.009C28.633,74.012,28.647,73.01,28.656,72.013z"/>
<path fill="#8B8B8B" d="M22.388,59.381c0,1.038,0,2.078,0,3.119c-1.042,0-2.083,0-3.126-0.006c0.001-1.044,0.003-2.082,0-3.116C20.303,59.381,21.346,59.381,22.388,59.381z"/>
<path fill="#6B6B6B" d="M78.627,71.927c-1.044-0.015-2.086-0.03-3.13-0.046c1.034-1.047,2.07-2.094,3.105-3.143c1.05,0.006,2.101,0.009,3.152,0.012c0.003,1.041,0.004,2.081,0.004,3.119C80.714,71.891,79.67,71.908,78.627,71.927z"/>
<path fill="#878787" d="M22.354,46.762c0.014,1.071,0.027,2.142,0.042,3.213c-1.029-1.025-2.059-2.054-3.087-3.082C20.325,46.86,21.339,46.817,22.354,46.762z"/>
<path fill="#E7E7E7" d="M34.944,24.93c0.914-0.909,1.828-1.822,2.739-2.731c1.123-0.134,2.249-0.271,3.375-0.409c1.064,1.041,2.129,2.082,3.194,3.122l0.019,0.122c0.862,0.613,1.286,1.339,1.272,2.185c-0.014,0.9-0.131,1.349-0.35,1.349c-1.079,0.94-2.339,1.443-3.756,1.569c-1.39-0.293-2.594-0.934-3.613-1.923c-0.986-0.009-1.973-0.012-2.96-0.009C34.889,27.112,34.916,26.023,34.944,24.93z"/>
<path fill="#9C9C9C" d="M22.324,50.144c1.066-0.058,2.131-0.113,3.198-0.168c0.833-1.013,1.521-2.115,2.066-3.311c0.484-0.449,0.966-0.894,1.453-1.343c1.143-0.739,2.387-1.123,3.748-1.166c1.352,0.269,2.55,0.836,3.583,1.752c0.781,1.15,1.201,2.423,1.323,3.799c-0.238,2.097-1.268,3.846-2.423,5.539c-0.514,0.442-1.03,0.882-1.542,1.324c-1.202,0.638-2.486,1.025-3.836,1.193c-2.553-0.241-5.402,0.952-7.503-1.525c-0.001-1.032-0.011-2.063-0.026-3.092C22.355,52.146,22.343,51.145,22.324,50.144z"/>
<path fill="#B1B1B1" d="M22.389,56.238c3.137,0.036,6.273,0.072,9.41,0.112c0.688,0.669,0.913,1.331,0.671,1.987c-0.24,0.652-0.476,0.979-0.711,0.979c0,0,0.007,0.095,0.009,0.098c-3.128-0.024-6.256-0.049-9.384-0.077C22.386,58.304,22.388,57.27,22.389,56.238z"/>
<path fill="#999999" d="M38.003,68.805c-1.038-0.024-2.077-0.039-3.116-0.046c0.001-1.046,0.004-2.093,0.006-3.14c0.001,0-0.019,0.021-0.019,0.021c0.989-1.136,2.125-1.313,3.412-0.531C38.917,66.398,38.823,67.627,38.003,68.805z"/>
<path fill="#A4A4A4" d="M38.003,68.805C38.002,67.749,38,66.694,38,65.637c0.818-1.067,1.871-1.77,3.194-2.06c1.339,0.016,2.551,0.431,3.648,1.19c0.667,1.153,0.963,2.401,0.942,3.732c0.041,1.37-0.465,2.496-1.521,3.375c0,0,0.058,0.067,0.06,0.067c-2.117-0.03-4.233-0.062-6.351-0.092C37.987,70.834,37.999,69.818,38.003,68.805z"/>
<path fill="#808080" d="M56.766,65.625c-1.092,0.012-2.183,0.021-3.273,0.033c-0.295-0.473-0.589-0.949-0.885-1.425c0.137-1.145,0.611-2.124,1.424-2.942c0.988-0.582,2.06-0.83,3.201-0.787c1.058,0.425,1.937,1.096,2.658,1.975c0,0-0.01,0.086-0.011,0.089c0.001,1.01-0.003,2.021-0.014,3.03C58.833,65.609,57.798,65.619,56.766,65.625z"/>
<path fill="#6B6B6B" d="M59.891,62.479c-1.063-0.006-2.124-0.016-3.185-0.021c-2.184-0.75-4.294-1.602-5.316-3.928c-0.607-2.371-0.192-4.517,1.425-6.393c2.069-1.361,4.207-1.566,6.423-0.373c1.346,0.83,2.163,2.021,2.452,3.577c-0.119,1.553-0.718,2.896-1.792,4.025C59.895,60.403,59.892,61.441,59.891,62.479z"/>
<path fill="#797979" d="M72.381,59.381c-1.042,1.063-2.084,2.121-3.128,3.184c-1.059,1.221-2.098,1.202-3.112-0.056c-0.002-1.043-0.002-2.087-0.002-3.131c0.435-0.445,0.871-0.891,1.307-1.337C69.395,57.37,71.06,57.745,72.381,59.381z"/>
<path fill="#7A7A7A" d="M59.898,59.366c0.011-1.028,0.028-2.054,0.053-3.079c1.043-1.13,2.22-1.291,3.53-0.488c0.808,1.309,0.658,2.502-0.445,3.573C61.991,59.369,60.945,59.366,59.898,59.366z"/>
<path fill="#5C5C5C" d="M63.035,59.372c-0.008-1.038-0.003-2.078,0.011-3.116c1.158-0.83,2.371-0.879,3.635-0.253c0.738,1.275,0.603,2.404-0.55,3.366l0.008,0.009C65.105,59.378,64.07,59.375,63.035,59.372z"/>
<path fill="#676767" d="M66.141,62.509c1.037,0.01,2.075,0.028,3.112,0.052c0.003,1.02,0.006,2.039,0.006,3.059C68.22,64.581,67.18,63.544,66.141,62.509z"/>
<path fill="#B2B2B2" d="M44.263,68.75c0-1.044,0-2.088,0-3.128c-0.816-1.145-0.76-2.24,0.171-3.293c1.195-0.641,2.38-0.592,3.557,0.049c0.646,1.248,0.442,2.341-0.611,3.271c0.001,1.031,0.005,2.066,0.008,3.101C46.347,70.117,45.305,70.19,44.263,68.75z"/>
<path fill="#9B9B9B" d="M47.38,65.649c-0.032-1.022-0.07-2.042-0.114-3.061c0.653-0.321,1.304-0.645,1.959-0.965c0.667,0.293,1.333,0.586,2.002,0.879c0.141,0.718,0.279,1.435,0.419,2.148c-0.589,0.434-1.179,0.86-1.77,1.291C49.047,65.815,48.216,65.717,47.38,65.649z"/>
<path fill="#929292" d="M53.467,68.582c-0.973,0.049-1.943,0.119-2.912,0.211c-0.215-0.952-0.438-1.904-0.673-2.854c-0.006,0.003,0.673-0.339,0.673-0.339c1.068-1.532,2.097-1.578,3.079,0.082c0,0-0.139-0.024-0.14-0.024C53.474,66.635,53.465,67.608,53.467,68.582z"/>
<path fill="#929292" d="M44.263,68.75c1.042,0,2.083,0,3.125,0c0,1.041,0,2.084,0,3.128c-1.041,0-2.083-0.003-3.125-0.003C44.263,70.834,44.263,69.791,44.263,68.75z"/>
<path fill="#E1E1E1" d="M66.362,36.981c-1.063,0.259-2.127,0.516-3.19,0.775c-1.104-0.534-1.468-1.382-1.093-2.551l1.123-1.016c0.979,0.07,1.958,0.122,2.939,0.159C66.18,35.23,66.253,36.106,66.362,36.981z"/>
<path fill="#E1E1E1" d="M37.824,28.213c1.12-0.027,2.24-0.052,3.358-0.076c2.073,2.307,4.907,0.513,7.254,1.343c1.832,0.308,3.904-0.088,5.212,1.767c2.075,0,4.15,0,6.226,0c1.047,0,2.094,0.003,3.141,0.003c0.033,0.982,0.095,1.962,0.185,2.942c0.003-0.003-0.269,0.269-0.269,0.269c-1.226,1.312-2.634,2.359-4.349,2.969c-1.174,0.369-2.238,0.934-3.225,1.679c-0.781,1.025-1.324,2.148-1.672,3.394c-0.306,1.331-0.871,2.508-1.711,3.58c-1.097,0.897-2.314,1.504-3.692,1.81c-2.184,0.21-4.239-0.116-6.094-1.346c-1.032-0.998-1.839-2.158-2.425-3.467c-0.964-2.625-2.427-5.075-2.818-7.904c0.022-1.407,0.358-2.731,1.059-3.961C37.976,30.212,37.916,29.211,37.824,28.213z"/>
<path fill="#5D5D5D" d="M69.261,46.894c1.042-0.016,2.083-0.028,3.123-0.043c0.019,2.112,0.037,4.221,0.057,6.332l-0.027-0.024c-1.479,1.597-3.223,2.216-5.344,1.462c-1.303-0.573-2.029-1.55-2.09-2.993c0.404-0.531,0.81-1.063,1.214-1.594C67.216,48.986,68.239,47.94,69.261,46.894z"/>
<path fill="#6E6E6E" d="M66.16,53.088c2.083,0.021,4.167,0.043,6.252,0.067c-0.007,1.025-0.013,2.045-0.018,3.064c-0.003,1.053-0.008,2.108-0.012,3.161c-2.085-0.003-4.167-0.006-6.252-0.012c0.003-1.044,0.006-2.091,0.01-3.135c-0.803-0.705-1.067-1.406-0.794-2.103C65.618,53.437,65.89,53.088,66.16,53.088z"/>
<path fill="#CBCBCB" d="M50.424,43.604c0.049-0.998,0.076-1.996,0.087-2.994c1.021-1.392,1.396-3.226,2.935-4.263c1.096-0.424,2.103-1.001,3.021-1.737c2.156-0.052,4.313-0.101,6.466-0.152c0.077,1.099,0.158,2.197,0.239,3.296c0,0.003,0.078-0.305,0.078-0.305c-1.004,0.833-1.998,1.675-2.979,2.536c-1.193,1.168-2.387,2.34-3.58,3.512C54.64,45.74,52.545,45.395,50.424,43.604z"/>
<path fill="#787878" d="M59.895,53.116c-2.084,0.006-4.167,0.012-6.251,0.018c-1.174,1.096-2.406,1.166-3.7,0.211c-0.575-1.403-0.493-2.78,0.154-4.138c1.767-1.572,3.79-1.951,6.033-1.291c1.405,0.408,2.654,1.102,3.749,2.078c1.047,0,2.093,0,3.142,0c0.29,0.576,0.581,1.153,0.871,1.727C62.968,53.357,62.164,55.338,59.895,53.116z"/>
<path fill="#666666" d="M50.424,43.604c2.09-0.034,4.18-0.067,6.269-0.104c0.017,1.107,0.035,2.222,0.053,3.332c-0.349,0.452-0.697,0.903-1.045,1.355c-1.134,0.174-2.273,0.231-3.42,0.192c-1.187-0.129-2.144-0.653-2.835-1.639c-0.314-1.239,0.107-2.133,1.266-2.679L50.424,43.604z"/>
<path fill="#E3E3E3" d="M60.271,39.984c0.991-0.846,1.985-1.691,2.979-2.536C62.256,38.294,61.262,39.139,60.271,39.984z"/>
<path fill="#6C6C6C" d="M59.88,49.994h-1.559h-1.558c-0.675-0.52-1.349-1.035-2.024-1.554c0.67-0.521,1.341-1.047,2.011-1.571l-0.005-0.037C57.789,47.885,58.834,48.938,59.88,49.994z"/>
<path fill="#6C6C6C" d="M63.022,49.994c1.056,0.015,2.113,0.027,3.171,0.039c0.001,0-0.026-0.024-0.026-0.024c-1.056,1.584-2.108,1.511-3.16-0.006L63.022,49.994z"/>
<path fill="#D6D6D6" d="M53.648,31.247c-2.104-0.019-4.208-0.037-6.312-0.058c-0.438-0.519-0.876-1.038-1.315-1.556c0.441-0.516,0.883-1.032,1.328-1.547c2.11,0.018,4.221,0.04,6.331,0.061C53.655,29.181,53.644,30.215,53.648,31.247z"/>
<path fill="#F1F1F1" d="M44.331,27.945c-0.023-0.97-0.043-1.941-0.063-2.915c1.036-0.018,2.072-0.027,3.108-0.018c0.006,1.025-0.003,2.051-0.029,3.073l0.053,0.119C46.254,29.587,45.231,29.502,44.331,27.945z"/>
<path fill="#E7E7E7" d="M38.003,31.213c0.02,1.081,0.042,2.158,0.061,3.238c0,0-0.958,0.885-0.958,0.888s-1.307-0.012-1.307-0.012c-0.001,0.003-0.911-0.937-0.911-0.937c-0.003-1.043-0.004-2.087-0.006-3.131C35.922,31.235,36.963,31.223,38.003,31.213z"/>
<path fill="#D2D2D2" d="M31.601,37.555c-0.046-0.931-0.118-1.861-0.218-2.786c1.166-0.125,2.334-0.253,3.505-0.378l-0.041,0.046c0.631,0.671,0.851,1.352,0.658,2.039c-0.194,0.689-0.394,1.035-0.6,1.035C33.812,38.169,32.712,38.184,31.601,37.555z"/>
<path fill="#959595" d="M31.601,37.555c1.13-0.091,2.261-0.183,3.392-0.274c0.335,0.491,0.671,0.979,1.008,1.471c0.06,1.233-0.33,2.304-1.167,3.214c-1.059,0.604-2.202,0.848-3.414,0.781c-1.145-0.418-2.063-1.135-2.783-2.115c0.011-1.041,0.02-2.084,0.031-3.125C29.646,37.515,30.624,37.534,31.601,37.555z"/>
<path fill="#B2B2B2" d="M25.493,43.75c1.048,0.009,2.097,0.019,3.144,0.024c0.401,0.519,0.801,1.035,1.202,1.553c-0.422,0.5-0.844,1.001-1.266,1.499l0.085,0.009c-1.078,1.293-2.109,1.196-3.103-0.101C25.535,45.74,25.515,44.745,25.493,43.75z"/>
<path fill="#878787" d="M25.555,46.734c1.033,0.055,2.068,0.089,3.103,0.101c-1.045,1.046-2.091,2.093-3.136,3.14C25.533,48.896,25.545,47.815,25.555,46.734z"/>
<path fill="#ABABAB" d="M28.638,40.631c1.071-0.006,2.142-0.009,3.212-0.015c0.401,0.598,0.803,1.196,1.203,1.794c-0.276,0.668-0.553,1.334-0.83,2.002c-1.402,0.861-2.594,0.586-3.601-0.668l0.015,0.03C28.638,42.728,28.638,41.678,28.638,40.631z"/>
<path fill="#ADADAD" d="M41.158,65.609c-1.053,0.01-2.104,0.019-3.157,0.027l-1.563-0.003l-1.563,0.007c0.003-2.097,0.006-4.193,0.009-6.293c0.522-0.336,1.045-0.675,1.568-1.014c1.268-0.085,2.46,0.171,3.58,0.77c0.951,0.83,1.659,1.828,2.086,3.018C42.186,63.391,41.885,64.56,41.158,65.609z"/>
<path fill="#BBBBBB" d="M31.76,59.317c0.003-0.992,0.015-1.984,0.038-2.973c0.001,0.006-0.037-0.116-0.037-0.116c1.045-1.126,2.223-1.232,3.517-0.455c0.729,1.307,0.618,2.509-0.468,3.58l0.075-0.003c0-0.003-1.563,0-1.563,0L31.76,59.317z"/>
<path fill="#CBCBCB" d="M44.331,27.945c1.022,0.101,2.044,0.186,3.07,0.259c-0.018,0.995-0.041,1.99-0.065,2.985c-2.052-1.016-4.103-2.033-6.154-3.052C42.232,28.073,43.282,28.009,44.331,27.945z"/>
<path fill="#ADADAD" d="M34.897,49.994c-0.016-1.025-0.021-2.054-0.019-3.08c-0.879-0.665-1.254-1.407-1.129-2.231c0.131-0.863,0.319-1.294,0.563-1.294c0.624-0.326,1.248-0.656,1.871-0.985c0.688,0.149,1.376,0.296,2.063,0.442c1.042,0.986,1.694,2.188,1.953,3.598c-0.091,1.422-0.574,2.701-1.445,3.83c-0.662,0.22-1.325,0.439-1.987,0.662C36.143,50.623,35.521,50.309,34.897,49.994z"/>
<path fill="#A5A5A5" d="M31.763,53.119c1.043-1.041,2.089-2.082,3.134-3.125l-0.008-0.01c0.788,0.764,1.12,1.581,0.995,2.457c-0.128,0.9-0.305,1.352-0.53,1.352C33.96,54.617,32.753,54.446,31.763,53.119z"/>
<path fill="#878787" d="M31.763,53.119c1.043-0.01,2.087-0.021,3.131-0.031c0.784,1.1,0.74,2.194-0.016,3.284c-1.038-0.07-2.077-0.116-3.117-0.141C31.758,55.194,31.758,54.156,31.763,53.119z"/>
<path fill="#979797" d="M28.621,43.744c1.059,0,2.118,0,3.177,0c1,0.699,1.331,1.395,0.995,2.087c-0.334,0.693-0.67,1.038-1.007,1.038c-1.07-0.013-2.141-0.028-3.212-0.04C28.604,45.801,28.619,44.773,28.621,43.744z"/>
<path fill="#B2B2B2" d="M31.785,46.869c-0.008-1.041-0.005-2.082,0.011-3.125c0.001,0-0.046,0.033-0.046,0.033c1.056-1.404,2.1-1.465,3.125,0.031c0.003,1.035,0.004,2.069,0.003,3.104C33.847,46.897,32.817,46.881,31.785,46.869z"/>
<path fill="#BCBCBC" d="M41.158,65.609c-0.008-1.037-0.012-2.075-0.014-3.112c0,0,0.928-0.916,0.928-0.919c-0.002,0,1.301,0.046,1.303,0.043l0.815,1.02c0.031,0.991,0.055,1.986,0.073,2.981h-1.554L41.158,65.609z"/>
<path fill="#5E5E5E" d="M53.665,59.408c1.013,1.017,2.027,2.033,3.041,3.049c-1.025,0.016-2.05,0.027-3.075,0.034c-0.345-0.521-0.691-1.035-1.036-1.554C52.952,60.428,53.308,59.918,53.665,59.408z"/>
<path fill="#626262" d="M53.634,65.683c-1.028,0.007-2.057-0.018-3.08-0.082c0.038-1.047,0.074-2.094,0.111-3.141c1.013-1.141,2.008-1.074,2.99,0.04l-0.024-0.009C53.633,63.556,53.633,64.618,53.634,65.683z"/>
<path fill="#717171" d="M53.656,62.5c-0.999-0.003-1.997-0.016-2.993-0.037c0.003-0.003-0.45,0.162-0.45,0.162c-1.445-1.77-2.352-3.72-2.033-6.079c0.468-1.456,1.374-2.561,2.66-3.369c0.936-0.019,1.869-0.033,2.805-0.043c0.006,2.091,0.014,4.182,0.02,6.274C53.655,60.44,53.652,61.472,53.656,62.5z"/>
<path fill="#747474" d="M63.006,50.003c1.053,0.003,2.105,0.003,3.16,0.006c-0.003,1.025-0.006,2.054-0.006,3.079c-0.006,1.047-0.014,2.097-0.02,3.146c-1.032,0.013-2.063,0.019-3.095,0.021c-1.031,0.006-2.064,0.016-3.096,0.031c-0.019-1.057-0.037-2.115-0.056-3.171C60.933,52.078,61.969,51.041,63.006,50.003z"/>
<path fill="#929292" d="M50.311,56.112c-0.03,2.17-0.061,4.337-0.096,6.51c-0.003,0.003-1.475-0.04-1.475-0.04s-1.472,0.004-1.474,0.007c-1.027-0.013-2.052,0.006-3.078,0.049c0,0.003,0.087-0.162,0.087-0.162c-0.997-0.895-1.706-1.972-2.086-3.263c0-1.349,0.373-2.581,1.12-3.701c1.076-0.813,2.287-1.252,3.633-1.315C48.252,54.508,49.375,55.146,50.311,56.112z"/>
<path fill="#939393" d="M50.711,44.062c-0.181,1.046-0.359,2.09-0.539,3.137c-1.188,2.649-2.808,4.63-6.142,3.931c-2.014-0.814-3.217-2.383-4.008-4.33c-0.279-1.392,0.007-2.655,0.859-3.791c1.344-0.671,2.524-0.421,3.562,0.632C46.532,43.78,48.62,43.921,50.711,44.062z"/>
<path fill="#CBCBCB" d="M38.064,34.451c2.003,2.124,4.005,4.248,6.009,6.372c-0.919,1.028-2.041,1.349-3.363,0.961c-1.149-0.601-2.133-1.398-2.925-2.426c-0.29-0.574-0.58-1.145-0.87-1.718c-0.363-1.337-0.026-2.433,1.115-3.253L38.064,34.451z"/>
<path fill="#FEFEFE" d="M54.132,37.091c-1.207,1.172-2.414,2.347-3.621,3.519c1.082-2.075,2.164-4.15,3.245-6.226c0.813,0.5,1.141,1.068,0.98,1.703C54.569,36.755,54.367,37.091,54.132,37.091z"/>
<path fill="#A6A6A6" d="M40.727,40.326c1.117,0.165,2.235,0.329,3.35,0.494c0.095,0.946,0.217,1.886,0.365,2.82c-1.1,0.037-2.204,0.073-3.305,0.113c-0.522,0.668-1.044,1.34-1.564,2.011c-0.521-0.671-1.041-1.343-1.561-2.014l0.017,0.034c-0.399-0.708-0.801-1.419-1.201-2.127c0.508-0.638,1.018-1.275,1.526-1.91C39.145,39.939,39.935,40.134,40.727,40.326z"/>
<path fill="#B9B9B9" d="M54.132,37.091c-0.202-0.891-0.327-1.794-0.377-2.707c0.907,0.055,1.814,0.131,2.714,0.226C55.688,35.437,54.91,36.264,54.132,37.091z"/>
<path fill="#AAAAAA" d="M44.246,50c1.978-0.937,3.955-1.874,5.929-2.805c-0.003,0.003,0.366-0.335,0.366-0.335c0.669,0.506,1.337,1.013,2.004,1.52c-0.647,0.53-1.293,1.064-1.939,1.599c0.074,1.065,0.15,2.133,0.23,3.198c-0.167,0.979-0.342,1.959-0.523,2.936c-0.002,0-1.552,0.021-1.552,0.021l-1.551-0.009c-0.87-0.751-1.846-1.313-2.928-1.693c-0.34-0.458-0.679-0.913-1.018-1.371c-0.02-0.57-0.041-1.138-0.061-1.705C43.552,50.903,43.898,50.451,44.246,50z"/>
<path fill="#6F6F6F" d="M50.606,49.979c-0.084-1.037-0.105-2.078-0.065-3.119c2.071,0.003,4.141,0.006,6.212,0.012c0.007,1.04,0.012,2.081,0.012,3.122C54.711,49.988,52.658,49.984,50.606,49.979z"/>
<path fill="#E4E4E4" d="M38.031,34.387c-0.055,1.145-0.111,2.289-0.167,3.433c-0.934,1.038-1.984,1.172-3.151,0.403c0,0,0.276-0.931,0.279-0.937c-0.063-0.955-0.112-1.904-0.144-2.85C35.909,34.421,36.971,34.405,38.031,34.387z"/>
<path fill="#8E8E8E" d="M37.335,40.595c0.23,1.062,0.46,2.127,0.692,3.189c-1.05,0.009-2.101,0.015-3.151,0.024c-1.042-0.009-2.084-0.021-3.126-0.034c0.032-1.05,0.064-2.105,0.098-3.159c1.053-0.006,2.103-0.012,3.152-0.018C35.777,39.179,36.556,39.249,37.335,40.595z"/>
<path fill="#8B8B8B" d="M37.335,40.595l-1.169,0.006c0,0-1.169-0.003-1.167-0.003c-0.083-0.797-0.177-1.587-0.285-2.377c1.05-0.134,2.1-0.269,3.149-0.403c0,0.003-0.072-0.4-0.072-0.4c0.865,0.559,1.231,1.203,1.099,1.929c-0.141,0.769-0.331,1.154-0.574,1.154L37.335,40.595z"/>
<path fill="#9E9E9E" d="M34.878,56.372c0.005-1.093,0.009-2.188,0.016-3.284c-0.005-1.034-0.006-2.068-0.005-3.1c1.058-0.019,2.115-0.034,3.172-0.049c0.685-1.212,1.685-1.514,2.956-1.025c0.948,0.842,1.459,1.897,1.532,3.161c-0.128,1.855-0.922,3.507-1.608,5.188c-0.36,0.481-0.72,0.97-1.081,1.455c-0.529,0.29-1.059,0.58-1.588,0.87c-1.153-0.079-2.307-0.156-3.462-0.235C34.837,58.358,34.86,57.367,34.878,56.372z"/>
<path fill="#BCBCBC" d="M41.144,62.497c-0.958-0.971-1.918-1.941-2.875-2.908c0.003,0-0.263-0.251-0.263-0.251c0.597-0.411,1.195-0.823,1.792-1.235c0.671,0.274,1.343,0.549,2.014,0.824c0.841,1.397,0.613,2.591-0.684,3.582L41.144,62.497z"/>
<path fill="#BBBBBB" d="M41.138,50.006c-1.025-0.009-2.051-0.03-3.076-0.066c-0.021-1.022-0.038-2.045-0.049-3.067c1.039-1.398,2.08-1.468,3.122-0.006c1.038,1.046,2.074,2.09,3.111,3.134l0.017-0.003C43.225,52.154,42.184,52.154,41.138,50.006z"/>
<path fill="#848484" d="M41.135,46.866l-1.561,0.009c0,0-1.561,0-1.561-0.003c-0.001-1.041-0.001-2.082,0-3.122c1.041,0,2.083,0,3.124,0C41.139,44.791,41.138,45.828,41.135,46.866z"/>
<path fill="#9B9B9B" d="M41.128,62.509c-0.009-1.037-0.033-2.075-0.073-3.109c1.032-1.096,2.087-1.123,3.169-0.076c0.017,1.053,0.034,2.103,0.052,3.155C43.228,62.488,42.178,62.497,41.128,62.509z"/>
<path fill="#ADADAD" d="M44.224,59.323c-1.056,0.024-2.112,0.052-3.168,0.076c-0.001,0,0.133,0.04,0.133,0.04c-1.163-0.986-2.248-2.042-3.175-3.257c1.041-1.019,2.083-2.038,3.124-3.061c1.042-1.425,2.083-1.425,3.124,0l0.044,0.106c0.919,0.699,1.219,1.389,0.903,2.072c-0.313,0.681-0.625,1.02-0.938,1.02C44.263,57.321,44.247,58.322,44.224,59.323z"/>
<path fill="#BCBCBC" d="M44.27,56.32c0.007-1.031,0.018-2.063,0.035-3.092c0.969,0.965,1.939,1.932,2.907,2.896C46.231,56.198,45.251,56.266,44.27,56.32z"/>
<path fill="#EFEFEF" d="M38.316,40.5c-0.2-1.022-0.375-2.048-0.525-3.079c0.979,0.967,1.961,1.938,2.938,2.908C39.926,40.43,39.123,40.488,38.316,40.5z"/>
<path fill="#9B9B9B" d="M44.261,53.122c-1.041,0.003-2.083,0.003-3.124,0.003c0-1.044,0-2.084,0-3.122C42.179,50,43.22,50,44.262,50C44.263,51.041,44.263,52.081,44.261,53.122z"/>
<path fill="#8D8D8D" d="M38.014,56.183c1.058,1.087,2.115,2.17,3.174,3.253c-1.059-0.03-2.121-0.063-3.182-0.094C38.01,58.289,38.011,57.235,38.014,56.183z"/>
</svg>