<?xml version="1.0" encoding="utf-8"?>
<!DOCTYPE svg PUBLIC "-//W3C//DTD SVG 1.1//EN" "http://www.w3.org/Graphics/SVG/1.1/DTD/svg11.dtd">
<svg version="1.1" xmlns="http://www.w3.org/2000/svg" xmlns:xlink="http://www.w3.org/1999/xlink" x="0px" y="0px" width="100px" height="100px" viewBox="0 0 100 100" enable-background="new 0 0 100 100" xml:space="preserve">
<path fill="#8B8B8B" d="M24.686,14.439c10.339-3.037,20.677-6.076,31.015-9.113c-1.374,2.146-3.602,3.134-5.71,4.282c-1.479,0.876-2.983,1.728-4.469,2.588c-0.933,0.586-1.917,1.099-2.905,1.581c-1.404,0.757-2.844,1.465-4.302,2.115c0.02,0.018-1.456,0.452-1.456,0.452s-1.537-0.085-1.518-0.076c-1.995-0.525-0.292-2.148-1.349-0.354c-1.057,1.794-0.07-0.668,0.96,1.141c1.03,1.81-1.592,1.41,0.5,1.422c-0.066,1.099-0.469,2.047-1.157,2.896c-0.891,0.659-1.883,1.046-2.981,1.184c-1.112-0.073-2.146-0.397-3.113-0.949c-0.861-0.702-1.584-1.526-2.179-2.466C25.185,17.689,24.674,16.136,24.686,14.439z"/>
<path fill="#717071" d="M62.612,89.982c-1.112,0.754-2.223,1.511-3.334,2.265c-1.275-0.675-2.212-0.357-2.811,0.955l0.041-0.349c-1.077,0.772-2.26,1.044-3.564,0.742c-1.898-0.732-3.248-2.042-4.109-3.882c-0.296-1.307-0.244-2.601,0.124-3.892c0.863-1.843,2.124-3.375,3.657-4.705c2.828-2.158,5.821-3.498,9.392-1.798c1.093,0.854,1.936,1.904,2.506,3.174c0.357,1.331,0.448,2.683,0.257,4.053C64.255,87.815,63.525,88.957,62.612,89.982z"/>
<path fill="#858586" d="M81.546,17.65c3.315,1.922,6.633,3.848,9.949,5.771c-0.621,2.109-1.671,3.925-3.531,5.194c-1.931,1.056-4.01,1.511-6.199,1.529c-2.186-0.083-4.207-0.681-5.983-2.002c-2.321-2.463-1.683-5.167-0.659-7.913c0.347-0.604,0.713-1.206,1.066-1.81c0.515-0.47,1.042-0.934,1.565-1.398C79.139,16.484,80.412,16.658,81.546,17.65z"/>
<path fill="#6A6969" d="M93.138,52.103c0.051,4.212,0.102,8.423,0.151,12.635c-1.619,2.2-0.789,5.139-2.228,7.4c-0.76,1.132-1.717,2.048-2.905,2.726c-0.653,0.198-1.304,0.387-1.959,0.582c-1.395-0.289-2.501-1.013-3.341-2.16c-1.308-2.625-1.227-5.31-0.358-8.029c1.582-3.708,3.779-7.099,5.666-10.663C89.388,52.903,90.801,51.57,93.138,52.103z"/>
<path fill="#9E9F9F" d="M46.818,8.433c2.962-1.035,5.923-2.072,8.884-3.107c2.274,1.01,4.55,2.021,6.823,3.027c-0.282,0.446-0.566,0.891-0.842,1.346c-0.808,0.708-1.692,1.297-2.633,1.819c-1.438,0.814-2.936,1.489-4.525,1.978c-1.701,0.424-3.398,0.439-5.104,0.03c-1.118-0.409-2.063-1.071-2.871-1.938C45.954,10.481,46.012,9.425,46.818,8.433z"/>
<path fill="#797879" d="M31.2,86.656c-3.123-1.258-6.245-2.515-9.369-3.772c-0.92-0.897-1.208-1.962-0.871-3.204c0.949-1.608,2.295-2.793,3.931-3.672c1.14-0.476,2.332-0.674,3.566-0.662c1.222,0.241,2.314,0.76,3.287,1.538c0.793,0.962,1.369,2.036,1.712,3.238c0.2,1.227,0.171,2.45-0.063,3.674C32.978,84.989,32.244,85.941,31.2,86.656z"/>
<path fill="#7F7F7F" d="M31.272,83.415c0.034-1.123,0.067-2.249,0.103-3.372c0.761-0.943,1.747-1.517,2.923-1.782c1.19-0.04,2.339,0.164,3.452,0.583c1.565,0.836,2.841,2.011,3.92,3.405c0.665,0.925,1.221,1.92,1.717,2.948c0.521,1.001,0.944,2.051,1.316,3.122c0.128,0.546,0.23,1.104,0.348,1.657c-0.026,1.168-0.484,2.145-1.361,2.923c-2.066-1.05-4.132-2.103-6.198-3.155c-1.044-1.129-2.586-1.563-3.679-2.624C32.689,86.076,32.526,84.373,31.272,83.415z"/>
<path fill="#818181" d="M6.846,30.308c1.921-3.235,3.843-6.47,5.765-9.705c0.569,0.418,1.137,0.839,1.713,1.254c1.773,2.399,2.718,4.972,1.649,7.962c-1.387,1.837-3.281,2.563-5.528,2.502C9.052,32.002,7.851,31.33,6.846,30.308z"/>
<path fill="#7C7C7C" d="M25.034,77.082c-1.056,1.057-2.113,2.112-3.17,3.168c-1.086,1.172-2.188,1.188-3.305,0.04c-2.028-1.031-4.056-2.066-6.083-3.098c0-0.564,0.001-1.129-0.006-1.697c0.162-1.132,0.5-2.209,0.971-3.253c0.549-1.013,1.295-1.858,2.209-2.554c1.03-0.467,2.116-0.696,3.244-0.678c1.073,0.192,2.051,0.638,2.909,1.297c0.798,0.748,1.14,1.685,1.015,2.765c-1.325,1.581-1.463-0.906-0.813,1.05c0.221,0.669,1.564,1.035,2.315,1.666C24.329,75.782,25.034,77.082,25.034,77.082z"/>
<path fill="#696768" d="M6.832,67.478c-0.021-4.074-0.044-8.148-0.065-12.222c1.178-0.623,2.391-0.702,3.647-0.244c1.788,0.939,3.094,2.31,3.81,4.224c0.445,1.998,0.19,3.906-0.763,5.722C11.738,67.066,9.919,68.949,6.832,67.478z"/>
<path fill="#6D6C6C" d="M87.449,27.769c1.349-1.45,2.697-2.899,4.047-4.349c0.589,3.342,1.179,6.684,1.769,10.025c-0.759,0.964-1.743,1.541-2.956,1.736c-1.219-0.07-2.322-0.467-3.333-1.145c-0.735-0.977-1.133-2.081-1.249-3.296C85.891,29.518,86.466,28.523,87.449,27.769z"/>
<path fill="#949494" d="M6.832,67.478c1.904-0.931,3.81-1.858,5.714-2.786c0.557,0.159,1.116,0.317,1.674,0.47c0.954,0.687,1.69,1.565,2.246,2.598c0.348,1.178,0.111,2.209-0.791,3.069c-0.115,1.077-0.229,2.151-0.343,3.229c-0.908,0.903-2.011,1.346-3.284,1.385c-1.264-0.021-2.405-0.396-3.412-1.169c-0.685-1.028-1.297-2.1-1.835-3.21C6.811,69.868,6.822,68.672,6.832,67.478z"/>
<path fill="#616060" d="M62.534,86.506c0.045-1.092,0.091-2.188,0.137-3.28c1.726-1.834,3.882-2.677,6.365-2.783c2.486,0.146,4.652,0.958,6.217,3.012c-3.238,1.887-6.475,3.772-9.712,5.661C64.382,88.425,63.379,87.555,62.534,86.506z"/>
<path fill="#9B9B9C" d="M6.826,42.875c-0.037-2.185-0.073-4.37-0.11-6.555c1.649-1.596,3.613-2.207,5.882-1.871c2.238,0.714,3.706,2.112,4.005,4.541c-0.479,2.273-1.825,3.894-3.807,5.032C10.598,44.752,8.562,44.584,6.826,42.875z"/>
<path fill="#585656" d="M93.138,52.103c-0.837,0.968-1.675,1.938-2.511,2.905c-1.005,1.041-2.115,1.123-3.328,0.379c-0.917-0.958-1.569-2.066-1.932-3.348c-0.188-1.321-0.095-2.625,0.215-3.919c0.807-1.932,2.173-3.241,4.227-3.778c1.378-0.052,2.504,0.476,3.41,1.504C93.192,47.932,93.166,50.019,93.138,52.103z"/>
<path fill="#555352" d="M75.252,83.454c-2.186-0.091-4.37-0.18-6.556-0.269c-1.028-1.043-1.469-2.295-1.327-3.76c3.812-5.526,7.856-5.16,12.077-0.488c0.151,1.462-0.252,2.738-1.291,3.8C77.216,83.091,76.248,83.329,75.252,83.454z"/>
<path fill="#595857" d="M90.631,70.744c0.887-2.002,1.771-4.004,2.658-6.006c-1.878,4.187-3.757,8.374-5.635,12.561c-0.431-0.54-0.86-1.083-1.291-1.623c0.378-0.58,0.757-1.16,1.135-1.739l-0.025,0.045C88.642,73.014,89.626,71.867,90.631,70.744z"/>
<path fill="#676565" d="M43.689,92.899c0.039-1.077,0.077-2.154,0.113-3.231c0.447-3.803,1.277-7.251,6.303-6.82c0.863,0.784,1.142,1.556,0.835,2.315c-0.306,0.754-0.604,1.133-0.9,1.133c-0.003,1.159-0.005,2.319-0.006,3.479c0.799,0.696,1.129,1.45,0.988,2.262c-0.145,0.839-0.334,1.257-0.562,1.257c-1.097,0.843-2.306,1.483-3.608,1.947C45.798,94.462,44.744,93.68,43.689,92.899z"/>
<path fill="#B8B8B9" d="M12.611,20.604c2.042-0.958,4.083-1.914,6.125-2.869c1.117-1.102,2.346-1.303,3.704-0.464c0.583,1.346,0.692,2.719,0.256,4.132c-3.447,4.987-6.992,3.506-10.564,0.149L12.611,20.604z"/>
<path fill="#7D7D7D" d="M6.826,42.875c1.898-0.046,3.798-0.091,5.696-0.14c2.046-1.84,2.922-0.434,3.676,1.321c-0.164,1.199-0.668,2.237-1.496,3.122c-1.356,1.159-2.905,1.978-4.614,2.499c-1.183,0.257-2.281,0.04-3.287-0.641C6.809,46.983,6.817,44.929,6.826,42.875z"/>
<path fill="#A1A2A2" d="M68.623,11.519c1.095,0.308,2.187,0.619,3.281,0.928c0.999,1.083,1.538,2.35,1.541,3.836c-0.504,1.425-1.467,2.417-2.827,3.049c-2.306,0.485-4.346,0.049-6.013-1.715c-1.047-2.167-0.985-4.3,0.208-6.396C66.173,10.179,67.44,10.335,68.623,11.519z"/>
<path fill="#7B7A7B" d="M21.686,17.808l-1.474-0.101l-1.477,0.027c1.984-1.099,3.967-2.197,5.951-3.296c1.025,1.099,2.049,2.197,3.073,3.296C25.758,19.621,23.733,19.575,21.686,17.808z"/>
<path fill="#AEAFAF" d="M65.837,11.336c-0.106,2.014-0.213,4.028-0.32,6.042c-0.854,0.842-1.832,1.028-2.943,0.564c-0.882-0.711-1.555-1.581-2.01-2.625c-0.329-1.083-0.47-2.191-0.451-3.32c0.183-1.114,0.564-2.161,1.155-3.128l1.257-0.516c1.101,0.229,2.2,0.458,3.301,0.687c0.72,0.506,0.961,1.016,0.725,1.526C66.315,11.079,66.079,11.336,65.837,11.336z"/>
<path fill="#6F6E6E" d="M12.415,36.286c-1.9,0.009-3.799,0.021-5.699,0.034c0.042-2.002,0.087-4.007,0.13-6.012c0.972,0.015,1.942,0.006,2.914-0.021c1.042,1.364,2.878,1.792,3.842,3.253C13.894,34.752,13.529,35.682,12.415,36.286z"/>
<path fill="#5F5E5D" d="M87.655,77.299c-2.048,1.032-4.096,2.063-6.145,3.095c-0.475-0.296-0.948-0.589-1.424-0.885c-0.241-1.142-0.019-2.186,0.662-3.135c0.938-0.665,1.983-0.958,3.13-0.885c1.123,0.079,2.187,0.379,3.175,0.925L87.655,77.299z"/>
<path fill="#6A6969" d="M31.272,83.415c1.036,1.117,2.071,2.236,3.107,3.354c0.015,0.721,0.029,1.44,0.044,2.161c-1.074-0.757-2.148-1.514-3.223-2.273C31.224,85.575,31.249,84.495,31.272,83.415z"/>
<path fill="#5A5858" d="M50.087,92.585c-0.009-0.937-0.027-1.876-0.055-2.813c1.036,0.995,2.069,1.99,3.104,2.984c0.852,0.544,1.139,1.093,0.863,1.651c-0.274,0.562-0.552,0.842-0.834,0.842l-1.505,0.352l-1.495-0.391c-0.882-0.559-1.186-1.132-0.917-1.725C49.522,92.887,49.8,92.585,50.087,92.585z"/>
<path fill="#ACADAD" d="M71.986,17.415c-0.04-0.98-0.066-1.959-0.078-2.939c1.143-1.016,2.268-0.943,3.372,0.061c1.027,0.177,2.053,0.354,3.078,0.528c0.587,0.659,0.739,1.27,0.459,1.834c-0.269,0.541-0.518,0.812-0.746,0.812l-0.013-0.149C75.983,19.624,73.966,19.3,71.986,17.415z"/>
<path fill="#5E5C5C" d="M93.227,36.448c0.008,2.105,0.014,4.208,0.02,6.314c-1.335,0.513-2.504,0.262-3.513-0.757c-1.002-1.919-0.972-3.83,0.034-5.74C90.97,35.374,92.126,35.386,93.227,36.448z"/>
<path fill="#6F6E6E" d="M6.802,49.037c0.859-0.016,1.718-0.027,2.576-0.043c0,0,1.184,1.004,1.188,1.004c0.54,0.949,0.694,1.959,0.472,3.027c0.006,0-0.621,1.432-0.618,1.432c0.003,0.003-1.359,0.763-1.359,0.763c-0.765,0.009-1.529,0.021-2.293,0.037C6.779,53.184,6.789,51.112,6.802,49.037z"/>
<path fill="#727171" d="M6.802,71.064c0.859,1.004,1.718,2.008,2.577,3.015c1.094,0.498,1.466,1.014,1.123,1.551c-0.348,0.543-0.699,0.817-1.061,0.817C8.561,74.653,7.682,72.858,6.802,71.064z"/>
<path fill="#929293" d="M65.837,11.336c-0.057-0.766-0.061-1.532-0.012-2.295c0.934,0.827,1.866,1.651,2.798,2.478C67.693,11.497,66.764,11.436,65.837,11.336z"/>
<path fill="#545251" d="M90.628,42.732c0.873,0,1.746,0.012,2.618,0.031c-0.009,1.028-0.018,2.057-0.027,3.085h-1.343l-1.343-0.006c-0.305-0.528-0.61-1.056-0.92-1.584C89.95,43.748,90.289,43.241,90.628,42.732z"/>
<path fill="#514E4E" d="M93.227,36.448l-1.297,0.009l-1.299-0.015c-0.735-0.65-0.978-1.297-0.728-1.938s0.499-0.964,0.748-0.964c0.868-0.104,1.739-0.134,2.612-0.094C93.791,34.452,93.78,35.453,93.227,36.448z"/>
<path fill="#656363" d="M9.441,76.447c0.029-0.79,0.008-1.58-0.063-2.371c1.062-0.033,2.124-0.07,3.186-0.104c0.699,0.699,0.916,1.38,0.653,2.045c-0.259,0.656-0.511,0.985-0.755,0.985l0.012,0.189C11.463,76.942,10.453,76.695,9.441,76.447z"/>
<path fill="#777777" d="M78.071,17.711c0.014-0.894,0.108-1.776,0.287-2.646c1.062,0.864,2.124,1.724,3.188,2.585C80.388,17.671,79.229,17.689,78.071,17.711z"/>
<path fill="#676565" d="M18.558,80.29c1.103-0.013,2.205-0.027,3.307-0.043c0.038,0.882,0.027,1.761-0.034,2.637C20.741,82.02,19.649,81.153,18.558,80.29z"/>
<path fill="#9E9F9F" d="M75.28,14.537c-1.125-0.019-2.248-0.037-3.372-0.058c0.003-0.681,0.001-1.361-0.003-2.036C73.031,13.145,74.155,13.841,75.28,14.537z"/>
<path fill="#4F4C4B" d="M78.156,82.737c0.01-0.806,0.002-1.611-0.02-2.417c0.909-1.547,1.888-1.59,2.932-0.131l0.442,0.204C80.391,81.175,79.275,81.956,78.156,82.737z"/>
<path fill="#626060" d="M34.423,88.929c0.023-0.724,0.008-1.447-0.044-2.164c1.038,0.995,2.075,1.986,3.113,2.979C36.468,89.472,35.445,89.201,34.423,88.929z"/>
<path fill="#524F4F" d="M62.534,86.506c1.001,0.87,2.004,1.74,3.007,2.609c-0.962,0.339-1.938,0.626-2.929,0.867C62.586,88.825,62.56,87.666,62.534,86.506z"/>
<path fill="#636161" d="M56.467,93.202c0.937-0.317,1.874-0.638,2.811-0.955C58.338,92.557,57.401,92.875,56.467,93.202z"/>
<path fill="#7F7F7F" d="M50.087,92.585c0.084,0.873,0.111,1.749,0.078,2.625c-1.104,0.009-2.208,0.021-3.313,0.03C47.93,94.355,49.009,93.47,50.087,92.585z"/>
<path fill="#514E4E" d="M53.165,95.249c-0.013-0.833-0.021-1.663-0.029-2.496c1.122,0.034,2.241,0.067,3.368,0.101C55.395,93.653,54.281,94.45,53.165,95.249z"/>
<path fill="#7B7A7B" d="M37.485,14.662c0.91-1.071,1.819-2.146,2.729-3.22c1.245,0.632,1.97,1.624,2.096,3.034c-0.195,1.354-0.795,2.502-1.741,3.482c-1.256,0.632-2.522,0.623-3.799,0.064C36.046,16.697,36.33,15.587,37.485,14.662z"/>
<path fill="#BDBDBE" d="M37.485,14.662c0.124,1.035,0.247,2.069,0.371,3.104c0.755,1.12,0.821,2.255,0.091,3.412c-0.598,0.201-1.195,0.399-1.792,0.598c-0.564-0.278-1.129-0.556-1.695-0.833c-0.467-1.275-0.934-2.551-1.401-3.83c0.328-0.766,0.441-1.563,0.335-2.393C34.759,14.701,36.123,14.683,37.485,14.662z"/>
<path fill="#7B7A7B" d="M21.686,17.808c2.028-0.024,4.054-0.049,6.078-0.073c0.183,0.974,0.31,1.953,0.377,2.942c-0.591,0.427-1.181,0.857-1.771,1.288c-1.517,0.186-2.835-0.262-3.981-1.254C22.108,19.755,21.874,18.788,21.686,17.808z"/>
<path fill="#BDBDBE" d="M30.866,20.771c1.198,0.055,2.397,0.113,3.595,0.171l-0.176-0.177c1.063,0.766,1.649,1.816,1.822,3.11c-0.178,1.282-0.725,2.389-1.585,3.351c-1.15,0.656-2.353,0.775-3.61,0.363c-0.865-0.974-1.355-2.112-1.527-3.396C29.56,22.914,30.039,21.766,30.866,20.771z"/>
<path fill="#7B7A7B" d="M46.818,8.433c-0.003,0.891-0.072,1.776-0.211,2.655l-0.776,1.169l-1.404-0.049l-0.441-1.333C44.93,10.06,45.873,9.248,46.818,8.433z"/>
<path fill="#B8B8B9" d="M40.682,14.451c-0.078-1.013-0.23-2.017-0.464-3.009c1.253-0.186,2.509-0.372,3.768-0.564c0-0.003-0.276,0.824-0.276,0.824c0.784,1.019,0.729,2.02-0.057,3.009C42.593,15.434,41.602,15.348,40.682,14.451z"/>
<path fill="#868686" d="M30.866,20.771c0.256,0.998,0.292,2.005,0.107,3.021c-1.038,0.806-2.068,0.793-3.09-0.034c-0.771-1.086-0.676-2.09,0.281-3.015c0,0-0.021-0.064-0.023-0.067C29.046,20.808,29.954,20.839,30.866,20.771z"/>
<path fill="#868686" d="M33.396,14.72c0.241,0.852,0.136,1.654-0.326,2.405C32.281,16.231,32.393,15.431,33.396,14.72z"/>
<path fill="#555252" d="M62.568,80.211c-3.144,1.046-6.287,2.096-9.43,3.143c-1.898-1.511-3.536-3.237-4.565-5.478c-0.434-1.139-0.653-2.322-0.697-3.54c0.118-1.209,0.491-2.341,1.127-3.375c0.928-0.809,2.021-1.166,3.241-1.15c1.735,0.332,3.285,1.11,4.752,2.065c1.438,0.876,2.843,1.813,4.222,2.796c0.908,0.671,1.633,1.514,2.195,2.493c0.04,0.556,0.073,1.113,0.108,1.669C63.205,79.292,62.886,79.75,62.568,80.211z"/>
<path fill="#535151" d="M50.557,77.125c0.859,2.078,1.72,4.153,2.581,6.229c-1.033,0.983-2.066,1.966-3.1,2.945c-0.024-1.031-0.084-2.057-0.179-3.082C48.185,80.97,48.427,78.941,50.557,77.125z"/>
<path fill="#4F4C4B" d="M68.767,80.363c-0.003,0.942-0.024,1.886-0.068,2.826c-2.011,0.012-4.022,0.024-6.03,0.036c-0.057-1.004-0.092-2.011-0.103-3.015c0.002,0-0.021,0.058-0.021,0.058c0.826-1.001,1.868-1.611,3.163-1.776C67.008,78.654,68.029,79.279,68.767,80.363z"/>
<path fill="#AFB0B0" d="M78.161,20.744c-1.134,2.045-2.266,4.089-3.398,6.134c-0.435,0.54-0.869,1.08-1.302,1.629c-1.228,0.705-2.542,1.15-3.945,1.361c-1.43,0.067-2.826-0.128-4.204-0.519c-1.329-0.598-2.421-1.489-3.293-2.658c-0.485-1.419-0.377-2.804,0.233-4.166c1.322-1.917,3.265-2.752,5.469-3.125C71.213,19.737,74.946,18.233,78.161,20.744z"/>
<path fill="#7B7A7B" d="M78.161,20.744c-4.265,0.247-8.531,0.491-12.796,0.739c-0.556,0.256-1.111,0.516-1.665,0.778c-0.534-0.299-1.066-0.601-1.601-0.903c-0.149-0.589-0.299-1.184-0.45-1.776c0.341-0.51,0.68-1.016,1.02-1.526c0.957-0.195,1.907-0.418,2.851-0.674c2.154,0.009,4.311,0.024,6.467,0.037c2.024,0.046,4.049,0.095,6.072,0.144C78.092,18.623,78.127,19.682,78.161,20.744z"/>
<path fill="#8B8B8B" d="M74.762,26.878c2.176,0.079,4.354,0.159,6.531,0.241c0.771,0.626,1.127,1.337,1.071,2.13c-0.062,0.833-0.192,1.248-0.397,1.251c-1.031,0.87-2.218,1.364-3.561,1.489c-1.331-0.174-2.521-0.677-3.547-1.553c-0.814-1.181-0.801-2.356,0.04-3.521L74.762,26.878z"/>
<path fill="#504D4D" d="M81.162,30.204c0.059-1.028,0.103-2.057,0.132-3.085c2.052,0.214,4.104,0.427,6.155,0.644c-0.016,0.748-0.01,1.489,0.019,2.231c-0.715,1.12-1.73,1.767-3.051,1.941C83.115,31.764,82.03,31.187,81.162,30.204z"/>
<path fill="#565454" d="M84.44,76.96c-1.06,0.053-2.117,0.102-3.176,0.15c-1.582-0.287-2.829-1.291-4.234-1.972c-1.504-0.645-2.925-1.429-4.309-2.311c-0.452-0.348-0.879-0.705-1.326-1.062c-0.722-0.919-1.205-1.941-1.451-3.082c-0.124-1.813,0.333-3.431,1.595-4.779c1.023-0.559,2.13-0.836,3.288-0.9c1.685-0.009,3.378,0.061,5.073,0.016c1.133-0.07,2.245,0.066,3.339,0.362c0.444,0.346,0.885,0.696,1.324,1.047c-0.058,3.184-0.114,6.366-0.172,9.549c0.909,0.65,1.219,1.307,0.931,1.975C85.032,76.625,84.739,76.96,84.44,76.96z"/>
<path fill="#7A7A7A" d="M87.517,55.308c1.041-0.049,2.077-0.146,3.11-0.296c-2.022,3.14-4.046,6.28-6.065,9.42c0.001-0.003-0.244,0.199-0.244,0.199c-0.922-0.803-1.545-1.795-1.874-2.976c-0.054-1.23,0.182-2.402,0.648-3.537c0.684-1.028,1.563-1.85,2.626-2.479C86.315,55.525,86.916,55.418,87.517,55.308z"/>
<path fill="#524F4F" d="M90.631,70.744c-1.051,1.077-2.104,2.157-3.157,3.237C88.526,72.901,89.579,71.821,90.631,70.744z"/>
<path fill="#524F4F" d="M84.44,76.96c-0.031-0.991-0.048-1.986-0.049-2.981c1.036,0.007,2.071-0.006,3.107-0.039c-0.025,0.848-0.174,1.678-0.443,2.48C86.215,76.758,85.344,76.942,84.44,76.96z"/>
<path fill="#7B7A7B" d="M50.011,11.485c2.103,0.015,4.205,0.03,6.31,0.046c0.295,0.552,0.589,1.102,0.884,1.654c-0.171,1.318-0.876,2.255-2.045,2.866c-1.955,0.482-3.711,0.119-5.24-1.224C49.129,13.695,49.198,12.577,50.011,11.485z"/>
<path fill="#777777" d="M56.321,11.531c0.892-0.812,1.782-1.624,2.674-2.436c0.654,0.61,0.893,1.242,0.712,1.892c-0.182,0.656-0.377,0.986-0.583,0.989c-1.126,0.595-2.098,0.406-2.916-0.571L56.321,11.531z"/>
<path fill="#8A8A8B" d="M59.272,10.911c0.024-0.625-0.067-1.233-0.276-1.819c0.743-0.244,1.505-0.32,2.278-0.226c0.562,0.595,0.955,1.291,1.175,2.082c-0.535,0.522-1.072,1.043-1.608,1.565C60.317,11.979,59.795,11.445,59.272,10.911z"/>
<path fill="#BCBDBE" d="M50.011,11.485c0.005,1.043,0.009,2.087,0.014,3.131c-0.438,0.324-0.876,0.647-1.315,0.971c-1.148,0.046-2.103-0.375-2.894-1.196c-0.249-1.175,0.154-2.087,1.118-2.774c0,0-0.323-0.525-0.325-0.528C47.743,11.219,48.876,11.354,50.011,11.485z"/>
<path fill="#828282" d="M28.265,77.046c-1.077,0.012-2.153,0.024-3.23,0.036l-0.104-0.021c-1.025-0.757-1.512-1.771-1.46-3.046c0.055-1.236,0.389-2.387,0.992-3.467c0.801-0.949,1.721-1.758,2.754-2.447c1.587-1.021,3.276-1.804,5.13-2.213c1.947-0.217,3.732,0.189,5.298,1.407c0.809,0.979,1.305,2.103,1.501,3.356c-0.108,1.956-0.961,3.51-2.539,4.666c-1.063,0.574-2.209,0.919-3.41,1.053C31.513,76.256,29.739,75.532,28.265,77.046z"/>
<path fill="#9FA0A0" d="M28.265,77.046c0.998-1.02,1.996-2.042,2.994-3.061c0.411,0.497,0.821,0.991,1.231,1.489c-0.386,0.516-0.771,1.034-1.155,1.55L29.8,77.067L28.265,77.046z"/>
<path fill="#9E9E9E" d="M34.447,80.238c-1.03,0.021-2.055-0.043-3.074-0.195c-0.073-1.004-0.087-2.012-0.04-3.019c0.001,0-0.072,0.089-0.072,0.089c1.067-1.15,2.283-1.34,3.647-0.574C35.661,77.882,35.506,79.118,34.447,80.238z"/>
<path fill="#858585" d="M50.557,77.125c-0.231,2.032-0.464,4.063-0.695,6.095c-2.021,2.148-4.041,4.297-6.059,6.445c0,0.003-0.111-0.11-0.111-0.11c-0.992-1.056-2.011-2.084-3.057-3.085c-0.009-1.083-0.018-2.167-0.029-3.247c-1.56-1.663-1.747-3.814-2.112-5.905c0.537-2.957,1.922-5.334,4.654-6.793c3.543-1.4,5.176,1.129,6.947,3.381C50.249,74.979,50.404,76.05,50.557,77.125z"/>
<path fill="#6F6E6E" d="M43.769,70.826c-1.044,1.938-2.086,3.879-3.129,5.82c-1.022,1.275-1.249,3.341-3.434,3.473c-0.92,0.039-1.84,0.079-2.759,0.119c-0.035-1.038-0.055-2.078-0.059-3.122c-0.911-0.693-1.215-1.389-0.913-2.085c0.304-0.695,0.605-1.043,0.913-1.043c1.051-1.05,2.103-2.1,3.154-3.146c0.769-1.031,1.794-1.605,3.076-1.725c0.6,0.146,1.199,0.293,1.8,0.439C42.869,69.978,43.319,70.402,43.769,70.826z"/>
<path fill="#A2A2A3" d="M37.206,80.119c1.145-1.153,2.289-2.311,3.434-3.47c-0.011,2.188-0.021,4.382-0.032,6.573C39.474,82.188,38.34,81.153,37.206,80.119z"/>
<path fill="#676565" d="M40.635,86.469c1.02,1.028,2.039,2.057,3.058,3.085C42.672,88.526,41.654,87.498,40.635,86.469z"/>
<path fill="#A5A6A6" d="M28.164,20.744c-0.019,1.086-0.035,2.17-0.052,3.253c-0.101,0.525-0.2,1.05-0.291,1.581c-0.519,0.949-1.177,1.794-1.97,2.533c-0.837,0.68-1.75,1.251-2.708,1.751c-1.442,0.76-2.946,1.352-4.565,1.618c-0.537-0.055-1.076-0.122-1.614-0.189c-0.412-0.348-0.824-0.699-1.236-1.053c-1.196-2.896-2.393-5.792-3.592-8.688c3.415-0.274,6.831-0.555,10.25-0.839C24.312,20.722,26.238,20.735,28.164,20.744z"/>
<path fill="#9E9E9E" d="M12.421,33.555c-0.89-1.09-1.779-2.179-2.666-3.271c1.993-0.016,3.981-0.031,5.969-0.046c0.001,0-0.075-0.092-0.075-0.092C16.433,33.043,15.464,34.279,12.421,33.555z"/>
<path fill="#626060" d="M24.997,74.168c-0.052,0.965-0.075,1.929-0.067,2.894c-1.297-0.22-2.594-0.443-4.007-0.684c0.403-0.959,0.719-1.709,1.034-2.46C23.078,72.703,24.096,72.718,24.997,74.168z"/>
<path fill="#686767" d="M15.676,70.829c-0.038-1.013-0.067-2.029-0.088-3.045c0.441-0.333,0.883-0.669,1.326-1.004c1.169-0.024,2.123,0.415,2.867,1.318c0.429,1.168,0.083,2.074-0.934,2.755C17.789,70.844,16.732,70.839,15.676,70.829z"/>
<path fill="#99999A" d="M18.847,70.853c-0.046-1.025-0.011-2.044,0.11-3.063c1.099-0.775,2.234-0.87,3.413-0.184c0.182,0.602,0.36,1.206,0.54,1.811c-0.369,0.509-0.741,1.019-1.112,1.528C20.814,70.918,19.831,70.887,18.847,70.853z"/>
<path fill="#9A9A9B" d="M24.997,74.168c-1.01-0.128-2.023-0.211-3.041-0.25c-0.063-0.992-0.116-1.983-0.157-2.976c-0.001,0.003,0.168-0.149,0.168-0.149c0.549-0.363,1.099-0.729,1.649-1.096c0.575,0.317,1.152,0.641,1.729,0.964C25.229,71.83,25.114,72.999,24.997,74.168z"/>
<path fill="#99999A" d="M12.463,77.003c0.024-1.01,0.058-2.021,0.102-3.03c0.925,0.019,1.849,0.049,2.771,0.086C14.376,75.041,13.419,76.02,12.463,77.003z"/>
<path fill="#8C8C8C" d="M12.546,64.692c-0.021-2.108-0.044-4.218-0.067-6.326c1.59-1.59,3.421-1.733,5.416-0.895c0.465,0.479,0.926,0.962,1.39,1.443c0.154,0.656,0.302,1.31,0.457,1.966c-0.325,1.334-0.966,2.49-1.912,3.485c-0.586,0.335-1.178,0.662-1.767,0.994c-1.372,0.455-2.591,0.189-3.654-0.79L12.546,64.692z"/>
<path fill="#868687" d="M18.514,58.287c-2.011,0.027-4.022,0.052-6.035,0.079c-1.138-1.05-2.277-2.097-3.417-3.146c-0.003,0,0.792-0.046,0.792-0.046c1.678-1.703,3.709-2.24,6.03-1.825c1.41,0.553,2.486,1.493,3.227,2.814C18.912,56.871,18.713,57.579,18.514,58.287z"/>
<path fill="#525050" d="M81.162,30.204c1.057,0.003,2.11,0.009,3.167,0.012c1.06,1.028,2.385,1.789,3.164,3.104c1.053,0.073,2.105,0.146,3.159,0.22c-0.007,0.968-0.013,1.935-0.021,2.902c0,2.097-0.001,4.193-0.003,6.29l0.006,0.006c-2.613,1.639-5.046,0.714-7.472-0.503c-1.157-0.687-2.179-1.538-3.103-2.518c-1.783-2.813-4.007-5.56-1.629-9.119C79.337,30.439,80.247,30.308,81.162,30.204z"/>
<path fill="#777777" d="M87.493,33.32c-1.055-1.034-2.108-2.069-3.164-3.104c1.046-0.073,2.093-0.146,3.139-0.22C87.476,31.102,87.485,32.213,87.493,33.32z"/>
<path fill="#676565" d="M12.408,64.57c1.05-0.033,2.101-0.067,3.151-0.104c0.806,0.692,1.089,1.4,0.85,2.124c-0.241,0.732-0.49,1.099-0.75,1.099l-0.071,0.095C14.527,66.713,13.468,65.641,12.408,64.57z"/>
<path fill="#666565" d="M15.681,45.851c-1.053-1.038-2.105-2.075-3.159-3.116c0.903-1.142,1.805-2.286,2.708-3.43c1.383-1.288,2.008-3.345,4.051-3.971c1.367-0.091,2.573,0.317,3.653,1.154c0.76,1.129,1.245,2.362,1.485,3.705c0.133,2.1-0.317,4.047-1.496,5.808c-1.065,0.897-2.287,1.444-3.679,1.596c-0.668-0.135-1.338-0.274-2.008-0.412C16.718,46.742,16.2,46.296,15.681,45.851z"/>
<path fill="#808080" d="M18.752,36.445c-1.172,0.956-2.344,1.911-3.519,2.863c-0.942-1.007-1.88-2.014-2.818-3.021c0.06-0.912,0.061-1.822,0.006-2.731c1.076-1.135,2.151-2.274,3.229-3.409c0.998,0.031,1.996,0.043,2.994,0.034c1.176-1.059,2.353-1.01,3.529,0c0.6,1.321,0.623,2.652,0.076,3.995C21.047,34.87,19.881,35.631,18.752,36.445z"/>
<path fill="#6F6E6E" d="M84.351,39.808c2.094,0.977,4.188,1.953,6.283,2.93c-0.021,1.035-0.055,2.069-0.099,3.104c-1.014,1.022-2.025,2.048-3.037,3.07c-1.234,0.812-2.439,0.729-3.623-0.116c-0.881-1.063-1.456-2.268-1.744-3.616C82.024,43.04,82.618,41.188,84.351,39.808z"/>
<path fill="#514E4E" d="M84.413,49.046c1.028-0.03,2.057-0.073,3.085-0.134c0.002,1.083,0.004,2.166,0.007,3.25c-0.51,0.402-1.02,0.809-1.529,1.218c-0.598-0.254-1.198-0.51-1.799-0.764c-0.22-0.61-0.439-1.224-0.659-1.837C83.816,50.203,84.115,49.623,84.413,49.046z"/>
<path fill="#6D6C6C" d="M84.389,52.064c1.039,0.024,2.077,0.055,3.116,0.095c0.003,1.05,0.007,2.1,0.012,3.149l0.075-0.076c-1.046,1.034-2.221,1.162-3.508,0.506C83.485,54.457,83.586,53.233,84.389,52.064z"/>
<path fill="#6B6A6A" d="M78.098,73.985c1.056,1.043,2.11,2.084,3.166,3.125c-0.052,1.028-0.117,2.054-0.196,3.079c-0.979,0.006-1.957,0.049-2.932,0.131c-3.123,0.013-6.247,0.027-9.369,0.043c-1.051-0.024-2.101-0.049-3.15-0.073c-1.079-1.007-2.129-2.045-3.17-3.092l0.028-0.036c-0.756-0.791-1.078-1.636-0.967-2.533c0.115-0.925,0.279-1.386,0.487-1.395c2.848-2.661,5.882-4.547,9.888-2.365l-0.002-0.003c0.876,0.839,1.903,1.382,3.105,1.581C76.199,72.608,77.235,73.121,78.098,73.985z"/>
<path fill="#878788" d="M9.377,48.994c1.051-1.044,2.101-2.087,3.151-3.134c0.783,0.711,1.106,1.477,0.969,2.298c-0.14,0.845-0.323,1.27-0.548,1.27c-1.306,0.809-2.493,0.662-3.561-0.439L9.377,48.994z"/>
<path fill="#6C6B6B" d="M12.487,48.988c0.014-1.044,0.027-2.085,0.041-3.128c1.051-0.003,2.101-0.006,3.152-0.009l-0.046,0.003c0.783,0.65,1.116,1.364,0.998,2.145c-0.124,0.813-0.294,1.218-0.513,1.218C14.868,49.833,13.654,49.791,12.487,48.988z"/>
<path fill="#A0A0A1" d="M56.207,11.405c1.055,0.037,2.075-0.125,3.064-0.491c0-0.003,0.36,1.053,0.36,1.053c1.066,0.76,2.026,1.636,2.881,2.628c0.052,1.15,0.104,2.304,0.153,3.458c0.002,0.003-0.087-0.327-0.087-0.327c-1.036,1.074-2.299,1.572-3.788,1.496c-2.188-0.821-3.735-2.008-2.674-4.685C56.148,13.493,56.179,12.449,56.207,11.405z"/>
<path fill="#C2C3C3" d="M62.513,14.595c-0.962-0.879-1.922-1.755-2.883-2.631c0.944-0.323,1.883-0.659,2.818-1.01C62.47,12.162,62.492,13.38,62.513,14.595z"/>
<path fill="#7E7E7E" d="M12.487,48.988c1.057-0.003,2.113-0.003,3.17-0.003c0.941-1.074,2.113-1.59,3.549-1.468c0.674,0.094,1.351,0.188,2.025,0.286c0.452,0.507,0.905,1.017,1.358,1.523c0.049,1.413-0.417,2.627-1.392,3.646c-1.869,1.142-3.917,0.711-5.922,0.672c-1.985-0.073-4.063,0.253-5.71-1.31c-0.06-1.117-0.119-2.23-0.178-3.348C10.421,48.982,11.454,48.982,12.487,48.988z"/>
<path fill="#9E9E9E" d="M9.566,52.336c2-0.073,4-0.149,6-0.223c1.115,0.681,1.492,1.367,1.132,2.065c-0.36,0.702-0.724,1.054-1.094,1.054c-1.919-0.019-3.837-0.037-5.752-0.059C9.566,54.249,9.47,53.303,9.566,52.336z"/>
<path fill="#757575" d="M36.91,20.711c0.169-1.029,0.484-2.008,0.944-2.945c0.933-0.018,1.863-0.03,2.795-0.033c0.305,0.476,0.61,0.952,0.917,1.428c-0.06,1.205-0.621,2.096-1.68,2.673C38.694,21.995,37.71,21.595,36.91,20.711z"/>
<path fill="#737272" d="M40.682,14.451c1.05,0.018,2.1,0.037,3.149,0.055c0.386,0.434,0.773,0.864,1.161,1.297c-0.073,1.205-0.557,2.2-1.514,2.954c-1.221,0.412-2.168,0.064-2.841-1.032l0.012,0.006C40.661,16.639,40.671,15.547,40.682,14.451z"/>
<path fill="#868686" d="M36.91,20.711c1.229,0.027,2.457,0.058,3.685,0.088c0.929-1.111,2.072-1.352,3.399-0.845c0.865,1.016,1.34,2.2,1.486,3.519c-0.236,2.057-1.193,3.589-3.203,4.339c-1.935,0.141-3.723-0.363-5.403-1.3c-0.935-0.806-1.743-1.733-2.424-2.771c-0.038-0.992-0.093-1.984-0.165-2.976C35.159,20.662,36.033,20.643,36.91,20.711z"/>
<path fill="#9E9F9F" d="M28.112,23.997c0.958-0.019,1.914-0.085,2.864-0.205c0.096,1.083,0.195,2.167,0.294,3.253c0.945,1.364,0.911,2.704-0.104,4.02c-2.178,1.196-4.338,1.168-6.483-0.083c-0.885-1.419-0.813-2.753,0.374-3.977l-0.119,0.134c1.132-1.001,2.306-1.959,3.217-3.18L28.112,23.997z"/>
<path fill="#89898A" d="M31.074,30.443c0.065-1.132,0.131-2.265,0.197-3.397c1.044,0.012,2.089,0.024,3.133,0.04c0.578,0.128,1.158,0.259,1.739,0.384c1.009,0.674,1.778,1.56,2.318,2.646c0.146,1.218-0.111,2.347-0.761,3.387c-0.916,0.803-1.979,1.291-3.183,1.471c-1.207-0.116-2.295-0.534-3.246-1.297C30.504,32.646,30.473,31.562,31.074,30.443z"/>
<path fill="#C6C6C7" d="M34.451,23.741c0.962,0.155,1.932,0.259,2.905,0.305c0.873,0.616,1.27,1.331,1.191,2.145c-0.083,0.867-0.241,1.297-0.471,1.3c-1.302,0.793-2.487,0.689-3.536-0.461l-0.137,0.055C34.42,25.968,34.435,24.855,34.451,23.741z"/>
<path fill="#C6C6C7" d="M46.933,11.616c-0.041,0.931-0.078,1.858-0.11,2.786c-0.937,1.202-2.011,1.346-3.227,0.427c0,0,0.233-0.32,0.235-0.324c-0.04-0.937-0.079-1.874-0.122-2.808C44.784,11.674,45.859,11.647,46.933,11.616z"/>
<path fill="#646363" d="M53.046,70.979l-1.46-0.013l-1.459,0.021c-1.816-1.221-2.147-3.021-1.978-5.026c0.345-1.907,1.04-3.692,1.935-5.401c0.603-1.117,1.387-2.1,2.289-2.984c1.044-0.672,2.195-1.084,3.421-1.249c1.188,0.024,2.331,0.306,3.389,0.852c0.829,0.797,1.351,1.776,1.513,2.921c-0.049,1.584-0.295,3.192,0.02,4.801c0.02,0.53,0.012,1.059,0.019,1.593c-0.265,1.064-0.813,1.953-1.625,2.688c-1.343,0.939-2.823,1.52-4.465,1.657C54.113,70.887,53.579,70.933,53.046,70.979z"/>
<path fill="#6B6A6A" d="M50.013,64.619c0.036,2.121,0.074,4.245,0.112,6.369c-0.038,0.974-0.049,1.943-0.032,2.917c-2.106-1.028-4.215-2.054-6.324-3.079l0.026,0.027c-0.918-0.781-1.639-1.712-2.142-2.816c-0.25-1.19-0.25-2.384-0.057-3.586c0.363-1.172,0.975-2.2,1.819-3.091c1.053-0.666,2.202-0.935,3.442-0.815c1.126,0.513,2.034,1.294,2.755,2.295C49.748,63.428,49.88,64.024,50.013,64.619z"/>
<path fill="#696868" d="M62.531,73.936c-0.018,1.074-0.036,2.151-0.055,3.226c-2.089-1.038-4.178-2.072-6.267-3.11c-0.881-0.879-1.17-1.922-0.871-3.128c0.999-1.52,2.827-1.995,4.067-3.213l-0.017,0.024c0.498-0.431,0.995-0.864,1.494-1.294c0.632,0.192,1.264,0.384,1.896,0.576c0.885,1.022,1.404,2.204,1.558,3.546C64.168,71.919,63.544,73.033,62.531,73.936z"/>
<path fill="#646363" d="M56.232,70.972c0.01,1.025,0.002,2.051-0.022,3.079c-1.055-1.025-2.107-2.051-3.162-3.076c-0.001,0.004,0.186-0.177,0.186-0.177C54.303,69.645,55.3,69.758,56.232,70.972z"/>
<path fill="#616060" d="M62.447,77.198c1.057,1.031,2.113,2.061,3.17,3.092c-1.024,0.006-2.048,0-3.072-0.021C62.516,79.246,62.484,78.22,62.447,77.198z"/>
<path fill="#89898A" d="M56.118,14.537c1.133,1.071,2.263,2.146,3.396,3.216c1.054,1.062,2.23,2.005,3.147,3.205l-0.144-0.196c0.794,0.662,1.079,1.349,0.857,2.057c-0.226,0.72-0.462,1.081-0.714,1.081c-0.078,1.077-0.157,2.154-0.236,3.231c-0.437,0.336-0.874,0.668-1.311,1.004c-0.551,0.021-1.102,0.037-1.652,0.064c-0.516-0.189-1.03-0.388-1.551-0.571c-0.957-0.534-1.851-1.166-2.711-1.843c-1.343-0.955-2.72-1.861-4.115-2.756c-0.962-0.628-1.752-1.425-2.41-2.362c-0.464-1.065-0.666-2.179-0.625-3.335c0.354-1.102,0.929-2.078,1.715-2.927l0.261,0.21C52.056,14.589,54.087,14.561,56.118,14.537z"/>
<path fill="#828282" d="M74.9,26.915c0.055,1.138,0.109,2.276,0.163,3.418c-0.598,0.415-1.196,0.83-1.794,1.248c-1.462,0.269-2.878,0.131-4.242-0.473c-0.786-0.781-1.093-1.605-0.925-2.469c0.173-0.882,0.377-1.325,0.61-1.325C70.776,27.18,72.836,27.049,74.9,26.915z"/>
<path fill="#787878" d="M68.712,27.314c0.03,0.964,0.035,1.926,0.019,2.89c-1.05,0.635-2.083,0.577-3.103-0.079c-0.79-1.001-0.746-1.962,0.135-2.884C66.75,27.086,67.734,27.11,68.712,27.314z"/>
<path fill="#949495" d="M65.763,27.241c0.004,0.94,0.125,1.865,0.359,2.777c-0.421,0.345-0.84,0.689-1.262,1.035c-1.124-0.046-2.093-0.446-2.885-1.257c-0.593-1.068-0.404-1.981,0.557-2.731c0,0-0.105,0.067-0.106,0.067C63.537,27.168,64.649,27.204,65.763,27.241z"/>
<path fill="#B9BABA" d="M62.661,23.9c-0.047-1.047-0.096-2.09-0.144-3.137c0.997,0.055,1.945,0.293,2.849,0.717C64.462,22.288,63.563,23.094,62.661,23.9z"/>
<path fill="#D3D3D4" d="M62.661,20.958c-1.051-1.068-2.101-2.136-3.149-3.205c1.024-0.009,2.045-0.018,3.067-0.027C62.607,18.803,62.633,19.881,62.661,20.958z"/>
<path fill="#676666" d="M78.431,30.598c0.944,3.024,1.889,6.052,2.833,9.079c-0.119,0.513-0.239,1.025-0.351,1.541c-0.539,0.903-1.217,1.697-1.982,2.408c-0.744,0.696-1.522,1.364-2.272,2.057c-0.617,0.827-1.196,1.675-1.661,2.612c-0.391,1.032-0.868,1.999-1.399,2.967c-0.665,0.977-1.544,1.651-2.645,2.066c-1.202,0.094-2.331-0.126-3.4-0.684c-1.996-1.557-3.136-3.564-3.246-6.119c0.235-2.374,1-4.611,1.806-6.839c0.427-1.089,1.048-2.066,1.797-2.96c0.9-0.738,1.941-1.153,3.1-1.26c0.901-0.531,1.085,1.935,2.195,0.531c-0.361-1.062-0.442-2.14-0.217-3.241c0.518-0.989,1.229-1.813,2.129-2.475l-0.054,0.049C76.186,30.421,77.309,30.509,78.431,30.598z"/>
<path fill="#5B5A5A" d="M62.531,73.936c-0.021-1.035-0.02-2.069,0.005-3.101c0.797-0.647,1.079-1.315,0.847-2.002c-0.233-0.696-0.476-1.044-0.73-1.044l-0.144-0.058c-0.432-0.488-0.862-0.98-1.297-1.472c0.155-0.635,0.314-1.27,0.47-1.904c0.941-0.939,2.045-1.608,3.325-1.983c1.303-0.22,2.605-0.189,3.903,0.064c1.27,0.439,2.261,1.242,3.017,2.35c-0.016,2.026-0.029,4.056-0.043,6.082C68.766,71.891,65.649,72.914,62.531,73.936z"/>
<path fill="#777677" d="M71.926,64.787c-1.067-0.119-2.134-0.238-3.2-0.357c-1.015-0.958-1.636-2.124-1.869-3.503c0.076-0.684,0.16-1.361,0.233-2.048c0.288-0.629,0.589-1.248,0.879-1.88c0.874-1.104,1.95-1.953,3.22-2.566c1.318-0.564,2.678-0.693,4.085-0.394c1.995,0.949,3.448,2.429,4.373,4.434c0.366,1.386,0.396,2.78,0.054,4.178c-1.061,1.868-2.124,3.739-4.746,2.115l-1.515-0.043L71.926,64.787z"/>
<path fill="#676565" d="M74.954,64.765c1.104-1.117,2.208-2.23,3.313-3.348c1.114-1.031,2.319-1.156,3.623-0.372c0.806,1.343,0.569,2.515-0.571,3.54C79.197,64.646,77.076,64.705,74.954,64.765z"/>
<path fill="#4F4C4B" d="M81.319,64.586c-0.03-1.032-0.017-2.061,0.04-3.089c0.958-1.025,1.866-0.982,2.727,0.125c0.187,0.995,0.264,1.999,0.233,3.01C83.318,64.616,82.319,64.6,81.319,64.586z"/>
<path fill="#5B5A5A" d="M74.758,73.966c-0.959-1.035-1.917-2.066-2.877-3.101c1.101,0.033,2.199,0.064,3.298,0.098C76.034,72.105,75.942,73.112,74.758,73.966z"/>
<path fill="#7A7A7A" d="M74.758,73.966c0.14-1.001,0.28-2.002,0.419-3.006c0.976,1.01,1.949,2.017,2.922,3.024C76.984,73.978,75.871,73.972,74.758,73.966z"/>
<path fill="#5D5C5C" d="M84.085,61.622c-0.909-0.063-1.818-0.104-2.729-0.125c-1.029-0.009-2.062-0.033-3.091-0.079c-0.07-1.02-0.118-2.039-0.141-3.058c-0.021-2.078-2.143-1.907-3.144-2.937c-1.007-0.055-2.016-0.082-3.024-0.079c-0.83-0.714-1.116-1.44-0.861-2.179c0.258-0.745,0.521-1.117,0.792-1.117c0-1.028,0.009-2.057,0.024-3.088c0.771-1.004,1.799-1.456,3.053-1.447c1.793,0.248,3.508,0.781,5.197,1.42c1.696,0.687,3.009,1.897,4.271,3.177c0,0-0.044-0.043-0.044-0.046c0.016,1.034,0.02,2.069,0.016,3.104c0.871,0.711,1.158,1.422,0.863,2.127s-0.588,1.056-0.881,1.056C84.287,59.44,84.186,60.533,84.085,61.622z"/>
<path fill="#585656" d="M84.387,58.35c0.005-1.059,0.011-2.121,0.016-3.183c1.063,0.021,2.126,0.043,3.188,0.064C86.524,56.272,85.455,57.31,84.387,58.35z"/>
<path fill="#9B9B9C" d="M49.764,14.405c0.079,1.068,0.158,2.139,0.238,3.21c-2.025,1.947-4.085,1.926-6.177,0.107c-0.026-0.967-0.101-1.935-0.228-2.896c1.074-0.138,2.151-0.278,3.226-0.421C47.803,14.561,48.785,14.561,49.764,14.405z"/>
<path fill="#8F8F90" d="M37.606,67.814c-2.257,0.085-4.515,0.168-6.772,0.25c-1.051,0.87-2.169,0.968-3.358,0.296c-1.925-1.724-3.029-3.964-3.954-6.32c-0.36-1.205-0.471-2.444-0.372-3.698c0.314-1.224,0.934-2.276,1.837-3.162c2.582-1.251,4.73-0.131,6.838,1.239c1.456,1.071,2.757,2.316,3.995,3.635c0.832,0.86,1.547,1.813,2.176,2.835c0.228,0.55,0.437,1.111,0.655,1.666c-0.005,0.593-0.02,1.19-0.032,1.786C38.284,66.832,37.945,67.323,37.606,67.814z"/>
<path fill="#706F6F" d="M25.011,61.482c1.032,2.145,2.063,4.29,3.093,6.438c0.824,0.617,1.108,1.248,0.853,1.89c-0.258,0.649-0.521,0.974-0.789,0.974c-0.944,0.009-1.888-0.031-2.826-0.119c0.003-0.004-0.4,0.223-0.4,0.223c-0.987-0.952-1.98-1.896-2.98-2.829c-0.998-0.155-2-0.244-3.008-0.269c-1.099-0.033-2.197-0.067-3.296-0.101c-0.033-1.071-0.067-2.146-0.101-3.22c0-0.003-0.026,0.138-0.026,0.138c1.34-0.815,2.181-2.128,3.226-3.235l-0.125,0.067c0.867-0.962,1.938-1.548,3.213-1.764C23.125,59.885,24.19,60.468,25.011,61.482z"/>
<path fill="#696868" d="M28.168,70.784c-0.014-0.956-0.035-1.911-0.063-2.866c0.916-0.027,1.827,0.021,2.731,0.146C29.945,68.97,29.057,69.877,28.168,70.784z"/>
<path fill="#615F5F" d="M40.613,70.863c-1.023,0-2.047-0.01-3.071-0.021c-0.092-1.014-0.072-2.021,0.064-3.027l-0.093-0.086c0.56-0.421,1.12-0.842,1.683-1.263c0.658,0.256,1.313,0.51,1.972,0.769C41.965,68.595,41.781,69.803,40.613,70.863z"/>
<path fill="#636161" d="M34.388,73.988c0.001,1.04,0.001,2.081,0,3.125c-1.041-0.003-2.083-0.007-3.125,0c0-1.044,0-2.085-0.002-3.128C32.302,73.985,33.344,73.988,34.388,73.988z"/>
<path fill="#858585" d="M40.613,70.863c-0.018-1.06-0.037-2.115-0.056-3.174c1.066-1.007,2.139-1.065,3.22-0.021c0.006,1.062,0.012,2.124,0.018,3.188C42.734,70.856,41.674,70.86,40.613,70.863z"/>
<path fill="#7A7A7A" d="M25.057,27.006c0.073,1.145,0.145,2.289,0.218,3.43c0.627,0.729,0.856,1.477,0.688,2.237c-0.171,0.772-0.354,1.157-0.551,1.157c-1.214,0.671-2.354,0.562-3.419-0.327c-1.115-1.107-2.23-2.215-3.348-3.323C20.782,29.121,22.919,28.062,25.057,27.006z"/>
<path fill="#858585" d="M28.155,23.961c-1.071,1.059-2.144,2.118-3.217,3.18C26.011,26.078,27.083,25.019,28.155,23.961z"/>
<path fill="#A1A1A2" d="M21.963,68.058c0.993,0.943,1.986,1.886,2.98,2.826c-0.994-0.016-1.985-0.046-2.977-0.089C21.925,69.883,21.923,68.97,21.963,68.058z"/>
<path fill="#626060" d="M21.897,61.485c-1.088-0.016-2.174-0.031-3.262-0.046c-0.04-1.05-0.078-2.1-0.119-3.149c-0.001-0.003,0.635,0.18,0.635,0.18c1.047-1.016,2.205-1.11,3.461-0.412C23.252,59.385,22.973,60.517,21.897,61.485z"/>
<path fill="#626060" d="M18.758,61.372c-1.074,1.077-2.15,2.157-3.226,3.235C16.608,63.529,17.683,62.449,18.758,61.372z"/>
<path fill="#646363" d="M21.897,58.363c-0.92,0.006-1.837,0.039-2.751,0.104c-1.178-1.077-2.359-2.154-3.542-3.234c-0.012-1.041-0.024-2.079-0.038-3.119c2.119,0.012,4.239,0.024,6.358,0.036c0,0,1.144,0.266,1.149,0.257c0.711,0.391,1.262,0.946,1.669,1.647c0.008-0.006,0.234,1.16,0.234,1.16c0.012,1.047,0.024,2.094,0.038,3.14C23.977,59.587,22.938,59.654,21.897,58.363z"/>
<path fill="#747373" d="M84.351,39.808c0.013,2.005,0.026,4.007,0.04,6.012c-1.017,0.879-2.094,1.004-3.244,0.269c-0.884-0.918-1.353-2.02-1.464-3.28c0.222-1.239,0.771-2.313,1.646-3.223l-0.065,0.088C82.295,39.637,83.326,39.68,84.351,39.808z"/>
<path fill="#7A797A" d="M21.888,45.872c0.052-2.151,0.102-4.303,0.154-6.454c1.201-0.61,2.376-0.564,3.536,0.134c0.986,0.848,1.796,1.84,2.466,2.957c0.923,1.789,1.419,3.638,0.803,5.646c-1.863,2.423-3.984,3.277-6.601,1.071l-0.362-0.248c-1.122-0.689-1.494-1.382-1.12-2.071C21.136,46.217,21.51,45.872,21.888,45.872z"/>
<path fill="#9E9E9E" d="M25.015,39.619c-1,0.04-1.99-0.027-2.973-0.201c-0.107-0.943-0.223-1.886-0.346-2.829c-0.709-0.791-0.897-1.526-0.563-2.207c0.32-0.656,0.618-0.982,0.893-0.982c0,0-0.034,0.101-0.032,0.104c1.01-0.085,2.023-0.134,3.038-0.143c0.845-1.126,1.907-1.392,3.183-0.797c0.877,1.007,1.175,2.164,0.897,3.473c-0.529,1.172-1.283,2.176-2.286,2.988C26.223,39.225,25.619,39.424,25.015,39.619z"/>
<path fill="#99999A" d="M18.766,48.982l-1.555,0.021l-1.555-0.018c-0.006-1.044-0.014-2.088-0.021-3.131c1.044,0.006,2.089,0.015,3.133,0.021c0.824,0.693,1.099,1.382,0.824,2.072C19.317,48.636,19.042,48.982,18.766,48.982z"/>
<path fill="#A0A1A1" d="M18.766,48.982c-0.001-1.041-0.001-2.082,0-3.113c1.042-0.009,2.083-0.015,3.122-0.003c-0.002,1.044,0,2.081-0.002,3.116c-0.003-0.004-1.562,0.003-1.562,0.003L18.766,48.982z"/>
<path fill="#7A7A7A" d="M22.025,33.4c-0.108,1.062-0.218,2.124-0.328,3.189c-0.981-0.101-1.961-0.146-2.945-0.144C19.843,35.429,20.934,34.413,22.025,33.4z"/>
<path fill="#676565" d="M81.28,45.878c1.037-0.009,2.073-0.027,3.111-0.058c0.007,1.074,0.015,2.148,0.022,3.226l0.043-0.03c-1.022,1.093-2.199,1.297-3.528,0.613c-0.195-0.646-0.394-1.3-0.59-1.947C80.653,47.081,80.965,46.479,81.28,45.878z"/>
<path fill="#6D6C6C" d="M81.263,48.985c1.063,0.009,2.128,0.018,3.191,0.03c-0.041,1.031-0.049,2.063-0.022,3.095c-2.184-0.098-4.369-0.192-6.554-0.29c-0.339-0.577-0.676-1.157-1.018-1.733c0.329-0.58,0.663-1.163,0.993-1.743C79.163,47.63,80.292,47.886,81.263,48.985z"/>
<path fill="#646363" d="M22.245,49.226c2.005-1.065,4.011-2.134,6.017-3.199c0.984-0.897,2.121-1.242,3.439-0.952c1.769,0.971,2.927,2.438,3.578,4.331c0.183,1.321-0.117,2.526-0.885,3.619c-1.066,0.745-2.242,1.233-3.531,1.438c-1.917-0.079-3.755-0.699-5.664-0.854c-1.282-0.171-2.406-0.687-3.375-1.547c0,0,0.101,0.085,0.101,0.088C21.961,51.167,22.068,50.193,22.245,49.226z"/>
<path fill="#7D7D7D" d="M43.826,17.723c2.058-0.034,4.118-0.07,6.177-0.107c0.008,0.992-0.011,1.984-0.054,2.976c-0.757,1.038-1.752,1.693-3.026,1.913c-1.286-0.088-2.347-0.613-3.148-1.636c-1.059-0.024-2.119-0.045-3.18-0.07c0.024-1.025,0.038-2.051,0.042-3.073C41.7,17.726,42.762,17.726,43.826,17.723z"/>
<path fill="#797979" d="M41.207,27.223c0.856-1.041,1.71-2.082,2.565-3.125c0.972-1.227,2.164-1.435,3.543-0.763c0.87,1.12,1.392,2.38,1.521,3.8c-0.127,1.413-0.643,2.676-1.479,3.814c-1.183,0.763-2.487,1.15-3.888,1.224c-1.392-0.201-2.584-0.818-3.603-1.782c-0.117-0.668-0.236-1.346-0.355-2.017C40.076,27.992,40.642,27.607,41.207,27.223z"/>
<path fill="#939393" d="M37.671,27.058c0.057-1.022-0.047-2.026-0.314-3.012c1.278,1.056,2.56,2.115,3.845,3.174c0.004,0.003-0.591-0.104-0.591-0.104C39.605,28.419,38.627,28.334,37.671,27.058z"/>
<path fill="#939393" d="M46.453,24.186l-1.338-0.101c0,0-1.343,0.009-1.343,0.012c0.001-1.074,0.001-2.151,0.003-3.229c1.198,0.135,2.396,0.272,3.594,0.406C47.904,22.511,47.638,23.493,46.453,24.186z"/>
<path fill="#BDBEBE" d="M28.165,33.525c-1.045-0.055-2.09-0.11-3.136-0.165c-0.021-0.983,0.058-1.959,0.243-2.924c1.938,0,3.873,0,5.804,0.003c0.089,0.958,0.115,1.914,0.072,2.872c-0.475,0.36-0.947,0.72-1.422,1.086C29.206,34.108,28.685,33.818,28.165,33.525z"/>
<path fill="#C3C4C5" d="M37.671,27.058c0.983-0.094,1.962-0.076,2.94,0.058c-0.116,1.062-0.232,2.121-0.346,3.183c-0.941,0.982-1.854,0.906-2.741-0.076c-0.995-1.065-1.991-2.127-2.986-3.192C35.584,27.04,36.628,27.049,37.671,27.058z"/>
<path fill="#706F6F" d="M34.27,33.36c1.035,0.015,2.069,0.052,3.104,0.11c0.424,0.403,0.85,0.802,1.277,1.205c0.363,1.145,0.375,2.292,0.044,3.446c-0.647,1.046-1.581,1.697-2.762,2.008c-1.956-0.479-2.919-1.825-3.241-3.723C32.81,35.179,33.356,34.175,34.27,33.36z"/>
<path fill="#9FA0A0" d="M34.27,33.36c0.093,0.989,0.042,1.971-0.151,2.948c-1.03,0.772-2.053,0.76-3.069-0.034c-0.748-1.046-0.75-2.069,0.11-3.058c0,0-0.011,0.095-0.012,0.095C32.187,33.363,33.228,33.378,34.27,33.36z"/>
<path fill="#A4A4A5" d="M37.525,30.223c0.916-0.009,1.831,0.015,2.742,0.076c-0.001,0,0.918-0.278,0.918-0.278c0.758,1.276,0.769,2.533-0.088,3.769c-1.308,0.809-2.501,0.662-3.578-0.434c0,0-0.142,0.11-0.144,0.113C37.424,32.386,37.474,31.306,37.525,30.223z"/>
<path fill="#585656" d="M65.831,45.588c0.979,2.173,1.956,4.346,2.933,6.515c0.878,0.69,1.237,1.45,1.085,2.274c-0.158,0.86-0.363,1.287-0.611,1.29c-2.92,2.396-6.211,3.369-9.958,2.595c-1.05,0.027-2.099,0.055-3.146,0.079c-1.315-1.517-3.092-1.404-4.855-1.358c-0.534-0.274-1.063-0.555-1.598-0.83c-0.364-0.479-0.72-0.964-1.085-1.443c-0.418-1.142-0.566-2.316-0.464-3.521c0.296-1.15,0.882-2.146,1.722-2.97c0.517-0.192,1.059-0.391,1.571-0.598c0.532-0.024,1.094-0.04,1.627-0.083c1.487,0.073,3.003,0.214,4.461-0.305c1.084-1.16,1.717-2.554,2.295-4.019c0.694-1.74,1.717-3.174,3.341-4.15c1.354-0.339,2.521-0.031,3.529,0.921C67.185,41.978,67.316,43.907,65.831,45.588z"/>
<path fill="#6E6D6D" d="M59.28,58.262c3.14-0.974,6.28-1.947,9.421-2.921c0.837,0.681,1.124,1.367,0.86,2.066c-0.266,0.698-0.536,1.05-0.811,1.05l0.103-0.144c-0.792,0.86-1.421,1.825-1.886,2.896c-0.425,0.403-0.849,0.8-1.273,1.2c-1.107,0.391-2.246,0.604-3.421,0.628c-1.229-0.052-2.19-0.567-2.847-1.623C59.377,60.365,59.329,59.315,59.28,58.262z"/>
<path fill="#737272" d="M49.995,55.271c1.066,0.04,2.132,0.079,3.198,0.122c0.798,0.681,1.056,1.353,0.776,2.015c-0.277,0.659-0.552,0.988-0.825,0.988c-0.003,1.038-0.016,2.075-0.033,3.11c-1.287,1.184-2.578,1.135-3.872,0.018C48.029,59.266,48.258,57.175,49.995,55.271z"/>
<path fill="#545251" d="M59.426,61.415c1.04,0.061,2.081,0.122,3.122,0.18c1.032,0.638,1.377,1.279,1.037,1.92c-0.34,0.641-0.682,0.964-1.03,0.964l-0.044,0.138c-1.039,1.248-2.078,1.245-3.117-0.003c-0.542-0.522-1.083-1.044-1.652-1.59C58.33,62.462,58.878,61.939,59.426,61.415z"/>
<path fill="#7A7A7A" d="M56.232,70.972c-1.001-0.063-2-0.122-3.001-0.174c2.06-1.031,4.117-2.06,6.175-3.088C58.349,68.797,57.289,69.886,56.232,70.972z"/>
<path fill="#7A7A7A" d="M53.144,58.396c0-1.004,0.016-2.005,0.047-3.006c0.983,0.985,1.964,1.969,2.943,2.954C55.137,58.363,54.14,58.378,53.144,58.396z"/>
<path fill="#7D7C7D" d="M50.016,61.497c1.031-0.003,2.063,0,3.095,0.01c-1.033,1.037-2.066,2.075-3.098,3.112l0.05-0.106c-0.841-0.656-1.127-1.321-0.86-1.996C49.469,61.836,49.74,61.497,50.016,61.497z"/>
<path fill="#7A7A7A" d="M59.394,64.613c1.04-0.003,2.08-0.003,3.119,0c0,1.044,0.001,2.081-0.002,3.122c-1.044,0-2.083,0-3.122,0C59.388,66.694,59.391,65.653,59.394,64.613z"/>
<path fill="#767575" d="M50.016,61.497c0.004,1.007,0.02,2.012,0.047,3.016c-1.059-1.02-2.118-2.039-3.177-3.059c-1.094-0.994-1.625-2.218-1.5-3.707c0.841-2.146,2.01-3.693,4.654-2.543c0,0-0.045,0.064-0.045,0.067C50.002,57.346,50.01,59.422,50.016,61.497z"/>
<path fill="#878788" d="M46.9,58.317c-0.004,1.047-0.009,2.094-0.014,3.137c-1.034,0.028-2.07,0.04-3.106,0.037c-0.322-0.448-0.646-0.9-0.969-1.352c-0.014-1.172,0.469-2.104,1.378-2.826C45.362,56.923,46.265,57.258,46.9,58.317z"/>
<path fill="#8F8F8F" d="M43.78,61.491c-0.006,1.001-0.021,1.999-0.046,3c-1.089,1.016-2.208,1.05-3.355,0.101c-0.76-1.212-0.726-2.423-0.007-3.635c1.27-0.727,2.394-0.586,3.349,0.562L43.78,61.491z"/>
<path fill="#656363" d="M40.681,64.722c1.019-0.061,2.037-0.137,3.053-0.231c0.014,1.059,0.029,2.118,0.043,3.177c-1.073,0.009-2.146,0.016-3.218,0.021c-0.001,0,0.084,0.049,0.084,0.049c-0.453-0.507-0.906-1.017-1.366-1.526C39.741,65.717,40.21,65.22,40.681,64.722z"/>
<path fill="#4F4C4B" d="M62.652,67.79c0.36,0.735,0.795,1.449,1.016,2.222c0.045,0.155-0.733,0.543-1.132,0.824C62.514,69.816,62.552,68.802,62.652,67.79z"/>
<path fill="#A2A2A3" d="M47.048,30.211c0.047-1.105,0.096-2.209,0.143-3.312c1.903-1.91,3.796-3.83,5.678-5.758c1.205,0.998,2.41,1.993,3.616,2.987c0.853,0.983,1.801,1.865,2.843,2.646l0.095,0.595c1.015,1.682,0.738,3.11-0.829,4.297C54.418,33.772,50.499,33.833,47.048,30.211z"/>
<path fill="#BEBFBF" d="M52.87,21.141c-1.894,1.919-3.786,3.839-5.678,5.758c-0.297-0.891-0.542-1.794-0.737-2.713c0.357-0.955,0.661-1.926,0.913-2.914c0.88-0.15,1.741-0.379,2.582-0.678C50.922,20.778,51.896,20.961,52.87,21.141z"/>
<path fill="#B7B7B8" d="M59.581,29.951c-0.105-0.86-0.158-1.727-0.16-2.588c1.037-0.094,2.073-0.195,3.111-0.299c-0.009,1.086-0.019,2.173-0.027,3.256c-0.523,0.22-1.047,0.436-1.568,0.656C60.485,30.638,60.034,30.293,59.581,29.951z"/>
<path fill="#818181" d="M59.329,26.774c-0.949-0.885-1.896-1.767-2.845-2.649C57.433,25.01,58.38,25.892,59.329,26.774z"/>
<path fill="#8A8A8A" d="M75.117,30.28c-0.079,0.998-0.146,1.996-0.195,2.997c-1.367,2.014-3.556,1.578-5.51,1.849c-1.409,0.187-2.698-0.134-3.892-0.888c-0.857-1.19-0.996-2.438-0.302-3.754c0,0,0.897-0.464,0.9-0.467c0.868,0.134,1.737,0.195,2.612,0.186C70.859,30.229,72.988,30.256,75.117,30.28z"/>
<path fill="#C2C3C3" d="M65.218,30.485c0.117,1.035,0.236,2.069,0.355,3.104c0.859,0.546,1.251,1.193,1.175,1.95c-0.079,0.806-0.235,1.211-0.464,1.211c-1.21,0.647-2.431,0.666-3.662,0.058c-0.96-0.931-1.532-2.066-1.779-3.372c0.116-1.355,0.74-2.429,1.804-3.259l-0.142,0.144C63.414,30.29,64.318,30.345,65.218,30.485z"/>
<path fill="#514E4E" d="M75.304,49.14c-1.131-0.058-2.262-0.119-3.392-0.18c-0.023-1.022-0.031-2.048-0.023-3.073c1.12-0.989,2.221-1.996,3.173-3.152c1.028,0.009,2.058,0.015,3.086,0.024c0,0,1.229,0.814,1.231,0.814c0.237,0.964,0.301,1.941,0.199,2.93c-0.091,1.053-0.571,1.88-1.444,2.479l0.004-0.034C77.266,50.068,76.322,50.135,75.304,49.14z"/>
<path fill="#797878" d="M68.593,33.397c2.11-0.04,4.219-0.08,6.328-0.119c0.012,1.074,0.025,2.151,0.039,3.229c-1.046,0.974-2.093,0.971-3.137-0.006c-1.055,0.208-2.108,0.415-3.162,0.623c-0.422-0.613-0.845-1.227-1.271-1.84C67.789,34.654,68.192,34.025,68.593,33.397z"/>
<path fill="#5E5D5D" d="M62.356,36.152c1.094-0.174,2.187-0.351,3.28-0.528c1.149-0.525,2.156-0.323,3.019,0.598c0,0,0.009,0.888,0.007,0.894c0.064,0.803,0.102,1.599,0.112,2.396c-1.014,1.868-2.075,1.895-3.188,0.088l-1.175,0.015l-1.175-0.009c-0.492-0.186-0.984-0.369-1.477-0.555c-0.078-0.519-0.157-1.038-0.236-1.56C61.8,37.047,62.078,36.601,62.356,36.152z"/>
<path fill="#7A7A7A" d="M65.585,39.601c1.063-0.031,2.126-0.058,3.188-0.085c-0.981,2.026-1.964,4.053-2.945,6.076C65.749,43.592,65.666,41.596,65.585,39.601z"/>
<path fill="#524F4F" d="M68.75,58.458c-0.003-1.038-0.02-2.078-0.05-3.116c0.021-1.077,0.042-2.157,0.063-3.238c1.042,0,2.083-0.018,3.124-0.055c0.022,1.099,0.045,2.197,0.069,3.296C70.888,56.383,69.82,57.42,68.75,58.458z"/>
<path fill="#7E7D7D" d="M71.824,36.5c1.047,0,2.092,0.003,3.137,0.006c-0.509,0.549-1.018,1.099-1.555,1.679C72.858,37.602,72.341,37.05,71.824,36.5z"/>
<path fill="#6E6D6D" d="M75.062,42.735c-1.058,1.053-2.115,2.103-3.173,3.152C72.947,44.838,74.004,43.788,75.062,42.735z"/>
<path fill="#524F4F" d="M81.329,39.586c-0.046,1.01-0.076,2.02-0.095,3.033c-1.002,1.56-2.047,1.587-3.132,0.083l0.045,0.058C79.208,41.703,80.269,40.644,81.329,39.586z"/>
<path fill="#4D4A49" d="M62.555,64.478c-0.025-0.961-0.028-1.922-0.007-2.884c1.064-0.039,2.13-0.079,3.196-0.119c0.841,0.669,1.132,1.353,0.876,2.048c-0.26,0.702-0.525,1.056-0.798,1.056C64.735,64.546,63.645,64.512,62.555,64.478z"/>
<path fill="#7C7B7C" d="M65.823,64.579c-0.113-1.031-0.14-2.065-0.08-3.104c0.002,0-0.139,0.122-0.139,0.122c1.053-1.062,2.112-1.123,3.18-0.021c-0.015,0.952-0.033,1.904-0.058,2.854C67.762,64.534,66.792,64.586,65.823,64.579z"/>
<path fill="#6F6E6E" d="M74.982,55.424c1.331,0.146,2.661,0.29,4.136,0.452c-0.391,0.977-0.691,1.73-0.992,2.484C77.078,57.381,76.031,56.404,74.982,55.424z"/>
<path fill="#524F4F" d="M68.784,61.576c-1.059,0.007-2.119,0.013-3.178,0.021c1.082-1.092,2.163-2.188,3.247-3.283C68.829,59.4,68.807,60.487,68.784,61.576z"/>
<path fill="#848484" d="M75.304,49.14c0.941-0.109,1.886-0.174,2.834-0.192c-0.039,0.962-0.124,1.923-0.259,2.875C77.021,50.925,76.163,50.035,75.304,49.14z"/>
<path fill="#848484" d="M40.656,61.537c0.008,1.062,0.017,2.124,0.024,3.186l-0.04-0.112c-1.039,1.132-2.08,1.135-3.125,0.009l-0.042-0.079c-0.977-0.977-1.933-1.972-2.867-2.991c-1.122-1.05-2.245-2.1-3.366-3.149c0.671-1.211,1.613-2.163,2.785-2.896c1.878-0.846,3.766-1.657,5.891-0.913C42.388,56.666,43.072,58.939,40.656,61.537z"/>
<path fill="#706F6F" d="M34.537,58.333c-1.099,0.021-2.197,0.042-3.296,0.066c-2.087-1.062-4.176-2.124-6.265-3.186l0.029,0.104c-0.708-0.711-0.943-1.422-0.708-2.133c0.236-0.711,0.473-1.068,0.709-1.068c2.193,0.049,4.385,0.098,6.58,0.144c1.077,1.235,2.946,1.486,3.784,3.027C35.549,56.428,35.271,57.441,34.537,58.333z"/>
<path fill="#A0A1A1" d="M21.897,58.363c1.039-0.003,2.079-0.006,3.118-0.006c0,1.04,0,2.084-0.001,3.125c-0.002,0-1.563,0.003-1.563,0.003s-1.561,0-1.558,0C21.888,60.444,21.888,59.403,21.897,58.363z"/>
<path fill="#6B6A6A" d="M34.608,61.549c0.957,0.998,1.912,1.996,2.868,2.991C36.519,63.542,35.563,62.547,34.608,61.549z"/>
<path fill="#959595" d="M37.516,64.619c1.042-0.006,2.083-0.009,3.124-0.009c0,1.04,0,2.084,0.001,3.128c-1.041,0-2.084-0.003-3.128-0.006C37.515,66.691,37.515,65.653,37.516,64.619z"/>
<path fill="#818181" d="M25.007,52.116c-0.001,1.068-0.001,2.133-0.001,3.201c-1.061-1.083-2.12-2.17-3.182-3.256C22.884,52.079,23.945,52.097,25.007,52.116z"/>
<path fill="#7A7A7A" d="M78.103,42.701c1.045-0.027,2.089-0.055,3.132-0.083c0.016,1.086,0.029,2.173,0.045,3.259l-0.016-0.018c-1.039,1.135-2.08,1.135-3.119,0C78.131,44.807,78.118,43.754,78.103,42.701z"/>
<path fill="#8D8D8D" d="M31.261,45.893c-1.002-0.027-2.003,0.016-3,0.134c-1.047-1.102-2.095-2.203-3.142-3.305c0.849-1.001,1.923-1.603,3.221-1.804c0.63,0.11,1.257,0.223,1.888,0.333c0.522,0.369,1.042,0.739,1.563,1.111C32.232,43.629,32.088,44.813,31.261,45.893z"/>
<path fill="#8F8F8F" d="M28.104,42.741c-0.997-0.006-1.993-0.012-2.986-0.018c-0.101-1.032-0.136-2.066-0.104-3.104l-0.06-0.033c1.063-0.791,2.124-0.824,3.188,0.003C28.973,40.648,28.959,41.7,28.104,42.741z"/>
<path fill="#878687" d="M28.164,39.631c-1.07-0.015-2.138-0.03-3.209-0.045c1.053-1.02,2.107-2.036,3.16-3.055c0,0,1.112,0.809,1.114,0.806c0.001,0-0.044,1.376-0.043,1.376C29.188,38.713,28.164,39.631,28.164,39.631z"/>
<path fill="#99999A" d="M31.161,33.216c0.038,1.099,0.076,2.2,0.113,3.299c-0.525,0.375-1.051,0.754-1.578,1.135c-0.519-0.388-1.039-0.775-1.558-1.166c0,0-0.021,0.042-0.023,0.045c0.015-1.004,0.032-2.008,0.049-3.009C29.162,33.415,30.161,33.311,31.161,33.216z"/>
<path fill="#757575" d="M78.145,45.86c1.041,0,2.08,0,3.119,0c0,1.04,0,2.084,0,3.125c-0.001,0-1.563,0-1.563,0h-1.563C78.136,47.941,78.141,46.9,78.145,45.86z"/>
<path fill="#9B9C9C" d="M34.537,58.333c-0.055-1.008-0.107-2.012-0.16-3.019c-0.872-0.766-1.167-1.538-0.891-2.319c0.279-0.784,0.56-1.175,0.847-1.175c0.027-0.938,0.102-1.868,0.226-2.793c0.417-0.405,0.832-0.812,1.248-1.221c1.135-0.351,2.276-0.372,3.427-0.063c1.667,0.934,2.507,2.319,2.307,4.267c-0.706,1.772-2.554,2.209-3.868,3.274C36.628,56.3,35.582,57.316,34.537,58.333z"/>
<path fill="#848384" d="M31.261,45.893c-0.001-1.053-0.003-2.105-0.004-3.162c2.615-1.129,3.845,0.296,4.642,2.518c0.06,1.474-0.444,2.722-1.509,3.741c0,0,0.166,0.033,0.167,0.036C33.46,47.981,32.362,46.937,31.261,45.893z"/>
<path fill="#ACADAD" d="M34.333,51.82c0.015,1.162,0.031,2.328,0.044,3.494c-0.931-1.02-1.863-2.035-2.792-3.055C32.503,52.128,33.42,51.978,34.333,51.82z"/>
<path fill="#858586" d="M62.647,30.177c-0.02,1.141-0.041,2.283-0.063,3.427c-0.936,0.812-1.944,1.522-3.02,2.142c-1.753,0.629-3.578,0.894-5.419,1.062c-2.435,0.293-4.824,0.833-7.212,1.443c-1.259,0.284-2.522,0.357-3.806,0.263c-0.624-0.18-1.236-0.375-1.858-0.568c-0.502-0.415-0.996-0.833-1.494-1.257c-0.536-1.324-0.29-2.444,0.859-3.329c0.182-1.114,0.362-2.225,0.546-3.339c1.958,0.064,3.911,0.125,5.865,0.189c4.178-0.085,8.355-0.171,12.534-0.26C60.595,30.143,61.617,30.219,62.647,30.177z"/>
<path fill="#888889" d="M34.39,45.86c-1.044-1.041-2.087-2.084-3.133-3.128l0.008,0.009c-0.938-0.833-1.401-1.883-1.451-3.128c0.035-1.251,0.519-2.292,1.451-3.128l0.009,0.027c0.952-0.052,1.901-0.119,2.849-0.205c1.146,1.111,2.296,2.222,3.445,3.333c0.406,0.391,0.812,0.781,1.222,1.172c0.438,1.065,0.6,2.17,0.498,3.317c-0.313,1.126-0.952,2.026-1.907,2.704C36.184,47.123,35.197,46.769,34.39,45.86z"/>
<path fill="#8C8C8C" d="M37.568,39.64c-0.015-1.053-0.032-2.105-0.047-3.159c1.042-1.111,2.083-1.163,3.122,0.003l-0.023-0.028c0.624,0.705,0.841,1.413,0.647,2.13c-0.192,0.723-0.391,1.083-0.594,1.083c-1.095,0.845-2.159,0.766-3.193-0.11L37.568,39.64z"/>
<path fill="#9FA0A0" d="M40.642,36.485c-1.044,0-2.086,0-3.125-0.003c-0.006-1.041-0.008-2.081-0.001-3.122c1.043,0,2.083,0,3.122,0C40.638,34.401,40.64,35.441,40.642,36.485z"/>
<path fill="#5E5D5D" d="M62.406,45.665c-1.063,2.121-2.128,4.241-3.193,6.362c-1.552-1.968-4.466-1.214-6.087-3.049l-0.029,0.016c-1.705-1.587-1.896-3.479-1.138-5.572c0.888-1.135,2.052-1.733,3.491-1.807C58.471,41.755,60.396,43.781,62.406,45.665z"/>
<path fill="#838383" d="M50.31,49.058c-0.164,0.949-0.329,1.901-0.495,2.854c-0.774,1.214-1.85,1.705-3.275,1.367c-1.854-0.956-3.078-2.487-3.967-4.331c-0.252-1.361,0.011-2.618,0.778-3.775c1.129-0.772,2.379-1.199,3.746-1.297c1.367,0.165,2.581,0.69,3.646,1.565C51.436,46.748,51.291,47.953,50.31,49.058z"/>
<path fill="#6C6B6B" d="M46.726,51.932c1.03,0.059,2.062,0.053,3.09-0.018c0.073,1.096,0.148,2.19,0.225,3.289c-1.047,1.038-2.094,2.075-3.141,3.116c-1.038-0.012-2.073-0.033-3.111-0.061c-1.729-1.355-1.766-3.184-1.433-5.115c0.336-0.543,0.673-1.083,1.01-1.63C44.59,50.822,45.71,50.96,46.726,51.932z"/>
<path fill="#7C7B7C" d="M62.406,45.665c-2.048-1.007-4.095-2.011-6.145-3.019c0.165-0.534,0.33-1.068,0.49-1.605c0.679-0.906,1.522-1.624,2.523-2.158c1.139-0.372,2.14-0.14,3.001,0.693c0,0,0.949,0.03,0.954,0.03C62.959,41.627,62.682,43.647,62.406,45.665z"/>
<path fill="#605F5F" d="M50.31,49.058c-0.101-1.068-0.202-2.137-0.304-3.205c-0.793-0.665-1.121-1.389-0.985-2.173c0.142-0.812,0.326-1.218,0.553-1.218c1.311-0.592,2.504-0.412,3.581,0.543c-0.019,1.996-0.038,3.991-0.057,5.987C52.167,49,51.238,49.021,50.31,49.058z"/>
<path fill="#757475" d="M53.125,48.978c2.031,1.017,4.061,2.033,6.09,3.049C57.184,51.011,55.155,49.995,53.125,48.978z"/>
<path fill="#828282" d="M43.803,52.107c-0.005,2.051-0.009,4.102-0.014,6.152c-0.021,1.086-0.044,2.173-0.067,3.259c-0.001,0-1.534-0.009-1.534-0.009l-1.532,0.027c-0.997-2.085-1.991-4.169-2.985-6.253c0.975-1.06,1.95-2.118,2.924-3.177C41.663,50.846,42.733,50.907,43.803,52.107z"/>
<path fill="#C2C3C3" d="M68.655,36.222c-1.008-0.195-2.013-0.394-3.019-0.595c0.005-0.684-0.016-1.364-0.063-2.042c1.001-0.165,2.01-0.232,3.021-0.189C68.732,34.337,68.752,35.279,68.655,36.222z"/>
<path fill="#C2C3C3" d="M59.566,33.57c1.008-0.153,2.013-0.144,3.019,0.03c-0.055,0.854-0.131,1.706-0.228,2.555c-0.001-0.003,0.296,0.467,0.296,0.467c-1.039,0.781-2.082,0.83-3.136,0.027C58.681,35.612,58.738,34.584,59.566,33.57z"/>
<path fill="#9FA0A0" d="M59.6,36.134c1.015,0.18,2.03,0.342,3.052,0.488c-0.017,0.998-0.141,1.983-0.372,2.957c-0.979,0.024-1.953,0.046-2.93,0.064c0,0-0.892-1.129-0.895-1.129s0.058-1.438,0.055-1.438C58.507,37.074,59.6,36.134,59.6,36.134z"/>
<path fill="#828282" d="M31.263,39.607c0.001,1.044,0.001,2.087,0.001,3.134c-1.053,0-2.106,0-3.16,0c0.023-1.038,0.042-2.072,0.06-3.11L28.14,39.61C29.18,38.466,30.221,38.466,31.263,39.607z"/>
<path fill="#A2A2A3" d="M31.263,39.607c-1.041,0.003-2.083,0.003-3.124,0.003c0-1.041,0-2.084,0-3.125c1.041,0,2.083,0,3.125,0C31.263,37.526,31.263,38.566,31.263,39.607z"/>
<path fill="#6F6E6F" d="M43.803,52.107c-1.068,0-2.138,0-3.208,0c-1.028-1.044-2.055-2.091-3.084-3.138c-0.911-0.692-1.213-1.383-0.909-2.075c0.302-0.692,0.605-1.038,0.913-1.038c0.056-1.053,0.113-2.108,0.169-3.165c0.933-0.75,1.973-0.918,3.113-0.583c1.563,0.87,2.652,2.082,2.831,3.943c0.098,1.029,0.194,2.057,0.289,3.083c0.729,0.723,0.944,1.41,0.646,2.069c-0.292,0.638-0.569,0.958-0.836,0.958L43.803,52.107z"/>
<path fill="#676565" d="M37.515,45.857c0,1.043,0,2.084-0.002,3.122c-1.042,0.004-2.083,0.01-3.123,0.01c0-1.041,0-2.085,0-3.128C35.432,45.86,36.472,45.86,37.515,45.857z"/>
<path fill="#888889" d="M53.155,43.007c-1.045-0.088-2.091-0.18-3.136-0.271c-0.827,1.019-1.896,1.51-3.209,1.48c-1.272,0.015-2.459-0.296-3.563-0.934c-0.787-1.013-1.216-2.154-1.234-3.442c0.148-1.278,0.659-2.383,1.587-3.287c1.196-0.07,2.394-0.144,3.59-0.213c0.57,0.045,1.142,0.094,1.715,0.137c1.158,0.07,2.305,0.217,3.452,0.409c1.744,0.485,3.258,1.322,4.349,2.811c0.532,1.163,0.381,2.203-0.559,3.104l0.114-0.153C55.227,42.765,54.191,42.887,53.155,43.007z"/>
<path fill="#A5A6A7" d="M56.204,39.561c-1.988,0.012-3.975,0.027-5.961,0.042c-0.849-0.775-1.252-1.739-1.21-2.89c0.861-1.51,2.595-1.944,3.785-3.052c2.248-0.03,4.497-0.061,6.746-0.091c-0.138,0.857-0.128,1.712,0.033,2.563c0.002,0-0.506,0.888-0.506,0.888c-0.775,0.574-1.285,1.324-1.528,2.261C57.566,39.286,56.204,39.561,56.204,39.561z"/>
<path fill="#C2C3C3" d="M52.819,33.662c-1.018,1.025-2.035,2.048-3.053,3.07c-1.087,0.864-2.033,0.687-2.858-0.385c0,0,0.278-0.009,0.281-0.009C49.067,35.447,50.942,34.556,52.819,33.662z"/>
<path fill="#BDBEBE" d="M43.599,36.552c0.163,1.01,0.217,2.026,0.163,3.052c-0.52,0.424-1.039,0.852-1.559,1.279c-0.452-0.495-0.903-0.995-1.355-1.496c-0.113-0.973-0.189-1.95-0.229-2.93C41.613,36.476,42.606,36.506,43.599,36.552z"/>
<path fill="#696868" d="M40.716,42.775c-1.012-0.019-2.023-0.046-3.034-0.08c-0.067-1.046-0.134-2.09-0.203-3.134c1.122-0.058,2.245-0.116,3.369-0.174l-0.209,0.223c0.45,0.519,0.898,1.034,1.355,1.55C41.572,41.7,41.143,42.237,40.716,42.775z"/>
<path fill="#9B9B9C" d="M43.761,42.732c1.044,0.003,2.086,0.003,3.13,0.006c0.825,0.693,1.1,1.385,0.825,2.078c-0.275,0.693-0.549,1.038-0.825,1.038c-1.088,0.067-2.174,0.131-3.264,0.195c-0.972-1.089-1.942-2.182-2.913-3.274c0.001,0-0.07-0.034-0.07-0.034C41.679,41.444,42.719,41.505,43.761,42.732z"/>
<path fill="#929293" d="M43.724,52.162c0.031-1.011,0.093-2.021,0.189-3.027c0.938,0.934,1.877,1.867,2.813,2.798C45.73,52.067,44.73,52.146,43.724,52.162z"/>
<path fill="#A2A2A3" d="M46.891,45.854c-0.002-1.038-0.002-2.078,0-3.116c1.04-0.003,2.083-0.003,3.126-0.003c0,1.041-0.001,2.084-0.006,3.122c-0.005-0.003-1.563,0.003-1.563,0.003L46.891,45.854z"/>
<path fill="#585656" d="M56.147,42.799c0.02-1.081,0.038-2.158,0.058-3.238l0.114,0.11c1.005-1.017,2.025-1.083,3.067-0.058c0,0-0.035,0.027-0.035,0.03C58.283,40.693,57.215,41.746,56.147,42.799z"/>
<path fill="#7E7E7E" d="M59.386,39.613c-1.022,0.003-2.045,0.024-3.067,0.058c0.925-0.885,1.852-1.77,2.774-2.652C59.307,37.873,59.406,38.737,59.386,39.613z"/>
<path fill="#7B7A7B" d="M46.908,36.347c0.96,0.077,1.913,0.205,2.858,0.385c0.209,0.949,0.366,1.904,0.476,2.872C49.131,38.517,48.02,37.434,46.908,36.347z"/>
<path fill="#767676" d="M43.761,42.732L42.2,42.735c0,0-1.561,0-1.559,0.003c0.001-1.041,0-2.084-0.001-3.128c1.041,0,2.083,0,3.125-0.003C43.763,40.644,43.761,41.688,43.761,42.732z"/>
</svg>