<?xml version="1.0" encoding="utf-8"?>
<!DOCTYPE svg PUBLIC "-//W3C//DTD SVG 1.1//EN" "http://www.w3.org/Graphics/SVG/1.1/DTD/svg11.dtd">
<svg version="1.1" xmlns="http://www.w3.org/2000/svg" xmlns:xlink="http://www.w3.org/1999/xlink" x="0px" y="0px" width="100px" height="100px" viewBox="0 0 100 100" enable-background="new 0 0 100 100" xml:space="preserve">
<path fill="#7C4042" d="M56.418,94.027c0.106,1.99,0.215,3.982,0.321,5.973c-4.167,0-8.332,0-12.5,0c-0.047-1.965-0.095-3.931-0.142-5.896C48.178,89.807,52.284,89.828,56.418,94.027z"/>
<path fill="#D91517" d="M37.663,93.173c-2.125-1.895-4.251-3.787-6.376-5.679c-1.443-1.932-2.361-4.05-2.361-6.504c0.098-2.453,1.137-4.52,2.625-6.402l-0.225,0.223c1.532-1.178,3.102-2.289,4.965-2.902c3.603-0.467,4.685-4.251,7.524-5.719c4.262-1.169,9.231,0.479,12.853-3.234c2.192,1.81,4.384,3.619,6.575,5.429c1.392,1.788,2.438,3.724,2.583,6.049c-0.418,3.778-2.414,6.979-3.746,10.439c-2.005,3.385-4.87,5.433-8.893,5.601c-2.729,0.152-5.47-0.528-8.203,0.021C42.253,90.576,39.86,91.607,37.663,93.173z"/>
<path fill="#99171C" d="M37.663,93.173c2.158-2.071,4.315-4.141,6.473-6.21c2.153-1.376,4.305-1.376,6.458,0c2.141-1.962,4.28-3.928,6.421-5.893c1.912-1.972,3.771-3.989,5.442-6.171c0.261-2.173,0.523-4.343,0.786-6.516c3.914,4.3,7.828,8.597,11.741,12.896c-1.755,2.072-3.514,4.145-5.273,6.214c-4.43,2.176-8.857,4.352-13.29,6.53c-4.11,0.027-8.219,0.052-12.325,0.076C41.952,93.793,39.807,93.481,37.663,93.173z"/>
<path fill="#F72424" d="M56.668,62.955c-4.216,1.992-8.432,3.985-12.648,5.981c-1.504,1.577-3.261,1.742-5.192,0.925c-0.377-0.52-0.752-1.038-1.129-1.557C44.021,66.523,50.345,64.737,56.668,62.955z"/>
<path fill="#FD2A2A" d="M38.388,74.811c-2.353,0-4.706,0-7.061,0c2.123-2.166,4.245-4.336,6.369-6.503c0.001-0.003,0.557,0.803,0.557,0.803C39.866,70.975,39.865,72.876,38.388,74.811z"/>
<path fill="#FD2A2A" d="M31.551,74.588c-0.008,2.354-0.016,4.703-0.021,7.056c-1.955,1.471-3.803,1.459-5.519-0.394C27.856,79.028,29.704,76.81,31.551,74.588z"/>
<path fill="#CDCDCD" d="M26.01,81.25c1.84,0.131,3.68,0.263,5.519,0.394c-0.081,1.95-0.162,3.9-0.243,5.848c-1.503-0.122-3.004-0.244-5.276-0.428C26.01,85.077,26.01,83.163,26.01,81.25z"/>
<path fill="#959595" d="M69.711,87.494c1.758-2.069,3.516-4.142,5.273-6.214C73.226,83.353,71.469,85.425,69.711,87.494z"/>
<path fill="#FEFEFE" d="M38.388,74.811c-0.044-1.901-0.089-3.799-0.134-5.7c1.921-0.059,3.842-0.119,5.765-0.177c0.001,1.485,0.001,2.969,0.001,5.331C42.06,74.457,40.223,74.634,38.388,74.811z"/>
<path fill="#CDCDCD" d="M62.457,74.899c-1.815,2.057-3.63,4.113-5.444,6.171C58.829,79.013,60.642,76.956,62.457,74.899z"/>
<path fill="#CDCDCD" d="M50.594,86.963c-2.15,0.003-4.302,0.006-6.455,0.006c0.682-1.938,1.366-3.869,3.226-9.112C49.224,83.1,49.908,85.031,50.594,86.963z"/>
</svg>