<?xml version="1.0" encoding="utf-8"?>
<!DOCTYPE svg PUBLIC "-//W3C//DTD SVG 1.1//EN" "http://www.w3.org/Graphics/SVG/1.1/DTD/svg11.dtd">
<svg version="1.1" xmlns="http://www.w3.org/2000/svg" xmlns:xlink="http://www.w3.org/1999/xlink" x="0px" y="0px" width="100px" height="100px" viewBox="0 0 100 100" enable-background="new 0 0 100 100" xml:space="preserve">
<path fill="#807F36" d="M56.814,92.743c-2.098,0.748-4.194,1.492-6.292,2.24c-1.015-1.096-1.506-2.401-1.569-3.885c0.64-5.652,0.625-11.347,0.957-17.022c0.211-2.118,0.78-4.139,1.817-6.003c1.233-1.758,2.991-2.606,5.075-2.848c1.877-0.063,3.746,0.244,5.616,0.366c1.846-0.183,3.612-0.674,5.346-1.357c2.488-1.044,4.989-1.984,7.767-1.765c13.122,9.256,0.729,14.2-3.467,20.535c-0.914,1.123-1.812,2.262-2.686,3.418l0.105-0.183c-1.61,1.089-3.435,1.349-5.316,1.379C60.933,88.199,58.673,90.185,56.814,92.743z"/>
<path fill="#FDF866" d="M28.361,11.533c1.038-0.186,2.077-0.369,3.114-0.555c0.943-0.854,2.036-1.138,3.276-0.852c1.073,0.562,2.051,1.254,2.938,2.075c1.346,1.211,2.658,2.463,3.994,3.705c0.937,0.824,1.796,1.712,2.652,2.625c1.407,1.376,2.742,2.798,3.903,4.406c0.643,1.27,0.962,2.6,1,4.02c-0.319,2.35-1.494,4.062-3.65,5.09c-11.755,2.527-20.965-2.487-29.38-9.885c-0.887-1.385-1.01-2.823-0.269-4.312c1.065-0.208,2.13-0.415,3.195-0.62c0.943-0.888,1.933-1.718,2.977-2.487c1.093-0.204,2.185-0.412,3.278-0.619C26.344,13.217,27.336,12.357,28.361,11.533z"/>
<path fill="#FDF853" d="M34.869,14.215c-0.026-1.074-0.053-2.151-0.079-3.226c-0.818-0.552-1.097-1.111-0.841-1.685c0.258-0.577,0.521-0.867,0.789-0.867c0.992-0.293,2.002-0.498,3.029-0.617c1.024-0.857,2.069-1.685,3.136-2.484c1.028-0.22,2.057-0.437,3.085-0.653c1.041-0.86,2.12-1.666,3.244-2.414c2.118-0.009,4.235-0.019,6.354-0.028c1.117,0.717,2.164,1.529,3.142,2.426c1.068,0.223,2.137,0.442,3.205,0.662c1.074,0.781,2.113,1.608,3.118,2.478c1.03,0.202,2.061,0.406,3.092,0.607c0.961,1.147,1.471,2.469,1.538,3.967c-0.114,3.918-1.652,7.083-4.913,9.335c-2.051,0.845-4.123,0.857-6.195,0.079c-4.848-3.351-9.538-7.141-16.064-6.222C38.49,15.677,36.485,15.751,34.869,14.215z"/>
<path fill="#7F7B23" d="M93.472,23.38c0.063,1.144,0.125,2.292,0.188,3.439c-2.319,6.528-0.424,13.3-1.161,19.922c-0.651,3.29-2.539,5.35-5.903,5.951c-1.546-0.146-2.848-0.791-3.919-1.914c-1.446-1.729-2.495-3.687-3.175-5.84c-1.793-6.287,1.632-11.225,4.241-16.385c0.586-1.333,1.336-2.569,2.186-3.75C88.109,22.583,90.445,21.122,93.472,23.38z"/>
<path fill="#B89123" d="M50.583,92.279c-0.055,0.9-0.076,1.801-0.061,2.704c-2.218-0.839-4.433-1.679-6.65-2.518c-0.406-3.263-0.375-6.537-0.317-9.82c-0.088-1.35-0.08-2.689-0.066-4.038c-0.032-2.765-0.055-5.523-0.119-8.294c-0.103-1.45-0.096-2.885-0.078-4.331c0.099-4.482-0.06-8.966,0.342-13.449c0.162-1.596,0.579-3.112,1.203-4.587c0.743-1.522,1.899-2.587,3.47-3.222c1.707,0.327,3.038,1.208,4.02,2.64c2.727,5.605,2.713,11.373,1.05,17.245c-1.735,3.134-1.367,6.57-1.416,9.948C51.347,80.457,53.349,86.554,50.583,92.279z"/>
<path fill="#B59822" d="M47.258,82.852c-1.127,3.204-2.257,6.409-3.386,9.613c-2.023-0.977-4.047-1.956-6.07-2.936c-0.966-1.063-1.537-2.308-1.721-3.735c0.529-3.989,2.699-6.4,6.741-7.014C45.295,79.049,45.894,81.369,47.258,82.852z"/>
<path fill="#80651A" d="M88.278,76.84c-2.159,1.107-4.319,2.216-6.48,3.326c-1.132-0.928-1.877-2.1-2.238-3.519c0.841-6.562,2.653-12.595,8.868-16.22c1.459-0.312,2.713,0.049,3.722,1.175c0.595,2.737,0.513,5.493,0.154,8.252C91.438,72.452,89.346,74.35,88.278,76.84z"/>
<path fill="#75681B" d="M91.04,48.556c0.873-7.244,1.747-14.489,2.62-21.737c0,9.333-0.002,18.668-0.002,28c-0.652,0.266-1.305,0.531-1.959,0.797c-0.563-0.425-1.126-0.852-1.69-1.276C89.124,52.194,89.341,50.245,91.04,48.556z"/>
<path fill="#FDF558" d="M62.946,20.426c1.045-3.14,2.092-6.281,3.137-9.421c1.104-1.062,2.213-1.068,3.328-0.021c1.028,0.187,2.057,0.375,3.085,0.562c1.038,0.861,2.088,1.706,3.148,2.536c1.019,0.076,2.017,0.269,2.992,0.574c0.271,0.705,0.543,1.41,0.813,2.118c-0.448,0.613-0.896,1.227-1.339,1.846C73.296,21.234,68.376,22.989,62.946,20.426z"/>
<path fill="#F6E841" d="M93.472,23.38c-1.907,0.894-3.814,1.791-5.723,2.688c-1.211,2.414-3.245,2.481-5.499,1.935c-2.064-0.918-3.551-2.414-4.434-4.495c-0.313-1.443-0.016-2.762,0.879-3.94c1.907-0.894,4.164-0.552,6.015-1.669C87.631,19.724,90.551,21.552,93.472,23.38z"/>
<path fill="#AD9C3A" d="M7.199,70.45c0-6.259,0-12.521,0-18.783c1.486-0.714,2.815-0.528,3.972,0.687c2.612,4.162,2.522,8.697,1.853,13.321c-0.345,1.498-0.974,2.881-1.816,4.165C10.026,71.027,8.679,71.179,7.199,70.45z"/>
<path fill="#AC9933" d="M7.209,42.316c-0.006-5.234-0.012-10.471-0.017-15.705c1.648-0.812,3.023-0.482,4.134,0.986c2.539,4.596,2.543,9.198,0.021,13.803C10.23,42.871,8.847,43.176,7.209,42.316z"/>
<path fill="#BCB336" d="M16.158,79.312c-2.983-1.929-5.965-3.86-8.948-5.792c0.981-0.955,2.133-1.59,3.482-1.865c1.944-0.836,3.94-0.902,5.979-0.439c1.305,0.468,2.406,1.236,3.313,2.283c0.406,1.343,0.314,2.655-0.262,3.937C18.671,78.317,17.488,78.955,16.158,79.312z"/>
<path fill="#7D6317" d="M88.278,76.84c0.925-2.137,1.85-4.272,2.772-6.409c1.302,0.659,2.157,1.7,2.629,3.067C91.879,74.613,90.079,75.726,88.278,76.84z"/>
<path fill="#745D16" d="M93.679,73.499c-0.876-1.022-1.751-2.045-2.629-3.067c0.016-3.115,0.029-6.231,0.044-9.351c0.852-0.961,1.706-0.964,2.563-0.006C93.666,65.216,93.671,69.357,93.679,73.499z"/>
<path fill="#807622" d="M56.814,92.743c2.044-2.222,4.088-4.443,6.132-6.668c1.761,1.093,1.792,2.237,0.099,3.431C60.968,90.586,58.891,91.663,56.814,92.743z"/>
<path fill="#AC9C2F" d="M7.209,42.316c0.834-0.003,1.667-0.006,2.502-0.006c1.883,1.48,2.444,3.479,2.273,5.771c-0.359,1.443-1.109,2.643-2.246,3.604c-0.847-0.004-1.694-0.01-2.539-0.019C7.202,48.55,7.205,45.432,7.209,42.316z"/>
<path fill="#7F681C" d="M81.675,76.669c0.041,1.166,0.083,2.331,0.122,3.497c-2.056,0.989-4.11,1.978-6.166,2.967c-0.266-0.727-0.531-1.453-0.8-2.18C76.117,77.936,77.722,75.427,81.675,76.669z"/>
<path fill="#916517" d="M10.01,27.057c-0.934-0.186-1.874-0.333-2.818-0.446c-0.48-0.982-0.483-1.965-0.007-2.951c1.453-1.816,3.371-1.624,5.334-1.236c0.985,0.995,1.247,2.173,0.879,3.51C12.503,27.014,11.374,27.39,10.01,27.057z"/>
<path fill="#FEF455" d="M84.71,17.899c-2.043,0.852-4.088,1.703-6.131,2.554c-0.794-0.681-1.063-1.37-0.813-2.069c0.25-0.699,0.507-1.05,0.768-1.05l0.043-0.037c1.092-1.068,2.211-1.151,3.356-0.085C82.901,17.273,83.827,17.502,84.71,17.899z"/>
<path fill="#FEF249" d="M12.865,23.85c-1.894-0.061-3.787-0.122-5.681-0.186c1.875-1.145,3.75-2.289,5.624-3.43c0.426,0.317,0.85,0.635,1.276,0.949C14.194,22.309,13.788,23.197,12.865,23.85z"/>
<path fill="#B49625" d="M31.558,86.252c-2.098-1.05-4.194-2.103-6.292-3.152c0.468-0.467,0.937-0.934,1.405-1.403c1.277-0.434,2.574-0.501,3.889-0.198c1.241,0.649,1.924,1.675,2.053,3.072C32.26,85.128,31.909,85.69,31.558,86.252z"/>
<path fill="#7B6619" d="M69.378,86.422c-0.064-1.159-0.128-2.322-0.192-3.481c2.013-1.81,4.059-1.88,6.141-0.119l0.305,0.312C73.547,84.232,71.462,85.327,69.378,86.422z"/>
<path fill="#BA992A" d="M37.924,86.042c-0.042,1.162-0.081,2.325-0.122,3.488c-2.082-1.093-4.163-2.186-6.244-3.278l0.238-0.354C33.879,84.25,35.924,84.155,37.924,86.042z"/>
<path fill="#7D6C1C" d="M63.044,89.505c-0.033-1.145-0.067-2.286-0.099-3.431c2.177,0.055,4.354,0.106,6.535,0.162C67.336,87.326,65.192,88.416,63.044,89.505z"/>
<path fill="#B69B28" d="M25.266,83.099c-2.083-1.044-4.166-2.09-6.247-3.134c0.525-0.477,1.051-0.949,1.576-1.422c3.087-0.187,5.82,0.027,4.894,4.352L25.266,83.099z"/>
<path fill="#75621A" d="M93.658,61.075l-1.283-0.003l-1.281,0.009c0.001,0-0.06-0.015-0.06-0.015c-1.869-2.097-1.581-4.178,0.041-6.25c0.86,0,1.723,0,2.583,0.003C93.658,56.903,93.658,58.991,93.658,61.075z"/>
<path fill="#C88F1F" d="M56.727,4.669c-1.045-0.809-2.092-1.617-3.139-2.426C54.632,3.052,55.679,3.861,56.727,4.669z"/>
<path fill="#E9D045" d="M40.903,5.338c-1.045,0.827-2.091,1.657-3.136,2.484C38.812,6.992,39.857,6.165,40.903,5.338z"/>
<path fill="#DCB72C" d="M63.05,7.81c-1.039-0.827-2.076-1.654-3.117-2.478C60.971,6.156,62.011,6.983,63.05,7.81z"/>
<path fill="#E6D240" d="M34.738,8.439c0.041,0.852,0.059,1.703,0.052,2.551c-1.103-0.003-2.208-0.006-3.313-0.012C32.564,10.132,33.65,9.284,34.738,8.439z"/>
<path fill="#E9CF3A" d="M69.411,10.983c-1.109,0.006-2.219,0.016-3.328,0.021c-0.016-0.867,0.005-1.73,0.06-2.591C67.232,9.272,68.321,10.129,69.411,10.983z"/>
<path fill="#E9D249" d="M28.361,11.533c-0.992,0.864-1.982,1.728-2.974,2.591C26.379,13.26,27.371,12.397,28.361,11.533z"/>
<path fill="#E9D544" d="M81.933,17.212c-1.118,0.027-2.238,0.058-3.356,0.085c-0.011-0.885,0.009-1.767,0.06-2.646C79.735,15.506,80.834,16.361,81.933,17.212z"/>
<path fill="#E9D44B" d="M15.939,17.85c0.041,0.848,0.05,1.697,0.03,2.545c-0.943,1.05-1.922,1.135-2.942,0.107l-0.218-0.266C13.852,19.44,14.896,18.647,15.939,17.85z"/>
<path fill="#E9D252" d="M22.111,14.743c-0.992,0.83-1.985,1.657-2.977,2.487C20.126,16.4,21.12,15.573,22.111,14.743z"/>
<path fill="#EBC638" d="M75.644,14.081c-1.049-0.845-2.099-1.69-3.148-2.536C73.545,12.391,74.594,13.236,75.644,14.081z"/>
<path fill="#B9A42C" d="M16.158,79.312c0.996-0.863,1.991-1.728,2.987-2.591c0.792,0.644,1.076,1.31,0.853,1.996c-0.226,0.701-0.464,1.05-0.715,1.05l-0.264,0.198C18.031,79.889,17.079,79.672,16.158,79.312z"/>
<path fill="#E7CF45" d="M47.232,2.271c-1.082,0.806-2.164,1.608-3.244,2.414C45.07,3.879,46.152,3.077,47.232,2.271z"/>
<path fill="#AD9D32" d="M9.824,73.539l-1.308,0.003c0,0-1.308-0.021-1.306-0.021c-0.003-1.022-0.008-2.045-0.011-3.07c0.844-0.009,1.689-0.016,2.533-0.019c0.797,0.669,1.076,1.353,0.838,2.048C10.33,73.184,10.082,73.539,9.824,73.539z"/>
<path fill="#7F7C2D" d="M91.075,54.816c-0.014,2.081-0.027,4.165-0.041,6.25c-3.119,5.2-6.239,10.4-9.358,15.604c-2.116,2.051-4.232,4.102-6.349,6.152c-2.047,0.039-4.095,0.079-6.141,0.119c-3.573-7.02,20.16-9.476,3.131-18.744c-0.191-0.681-0.384-1.361-0.579-2.045c1.667-4.461,5.746-5.996,9.538-7.889c1.321-0.461,2.687-0.76,4.081-0.897c2.074-0.231,4.152-0.467,5.668,1.472L91.075,54.816z"/>
<path fill="#766A26" d="M50.583,92.279c0.021-6.24,0.038-12.481,0.059-18.723c0.952-1.479,1.907-1.413,2.863-0.006C52.532,79.794,51.558,86.035,50.583,92.279z"/>
<path fill="#807C2D" d="M59.796,67.325c-2.062,0.003-4.123,0.003-6.185,0.006c-1.056-1.028-1.572-2.279-1.549-3.753c-0.011-2.134-0.168-4.288,1.088-6.201c4.745-0.864,6.285,2.438,7.701,5.911C61.07,64.78,60.685,66.12,59.796,67.325z"/>
<path fill="#807D25" d="M59.796,67.325c0.004-1.044,0.009-2.09,0.014-3.134c-1.779-1.886-1.627-4.001-0.748-6.207c1.414-0.745,2.811-0.712,4.193,0.094c2.33,2.433,2.71,5.277,1.785,8.398c-0.449,1.45-1.169,2.759-2.116,3.943C61.88,69.388,60.838,68.356,59.796,67.325z"/>
<path fill="#756A20" d="M53.509,64.188c0.033,1.047,0.067,2.093,0.101,3.143c-0.033,2.072-0.068,4.147-0.104,6.22c-0.002,0-1.435,0.006-1.435,0.006s-1.435,0-1.433,0c0.014-3.125,0.024-6.246,0.037-9.371C51.622,62.732,52.566,62.732,53.509,64.188z"/>
<path fill="#7F7C2D" d="M72.317,64.197c-2.084,1.041-4.167,2.081-6.251,3.122c-0.228-0.678-0.455-1.355-0.683-2.032c1.888-2.994,4.152-3.626,6.922-1.108L72.317,64.197z"/>
<path fill="#7F7C2D" d="M62.924,70.419c0.007-1.034,0.012-2.072,0.014-3.109c1.033-1.518,2.072-1.444,3.114-0.01l0.014,0.019C65.017,68.353,63.971,69.385,62.924,70.419z"/>
<path fill="#FDF860" d="M13.028,20.502c0.981-0.034,1.962-0.067,2.943-0.107c10.443,3.134,20.886,6.271,31.331,9.409c2.217-1.901,4.311-1.486,6.329,0.333c0.778,1.636,0.475,3.042-0.9,4.221c-5.737,3.516-12.094,2.573-18.315,2.566c-2.192-0.098-4.356-0.476-6.47-1.068c-2.623-0.76-5.075-1.959-7.479-3.244c-1.72-0.87-3.373-1.877-4.941-3.015c-0.475-0.418-0.936-0.857-1.405-1.288c-0.308-0.552-0.607-1.117-0.906-1.678c-0.047-0.937-0.164-1.862-0.35-2.78C12.919,22.736,12.973,21.619,13.028,20.502z"/>
<path fill="#FEF348" d="M41.058,14.182c5.211,2.084,10.422,4.166,15.633,6.25c1.002,0.879,1.633,1.965,1.834,3.29c-0.103,1.318-0.556,2.505-1.349,3.564c-1.142,0.677-2.368,0.885-3.67,0.628c-2.352-1.035-4.443-2.451-6.206-4.336l-0.009-0.009c-1.642-1.904-4.53-1.343-6.227-3.14c-0.026-1.01-0.043-2.023-0.047-3.033C39.2,16.3,39.213,15.229,41.058,14.182z"/>
<path fill="#FDFD5E" d="M47.301,23.578c2.087,1.035,4.174,2.072,6.262,3.106c0.398,0.525,0.798,1.047,1.196,1.569c-0.4,0.522-0.802,1.043-1.202,1.565c-2.086-0.006-4.171-0.009-6.255-0.015C47.301,27.729,47.301,25.653,47.301,23.578z"/>
<path fill="#FEF84A" d="M41.058,14.182c-0.014,1.071-0.027,2.143-0.041,3.214c-2.049-1.059-4.1-2.121-6.148-3.18C36.932,14.203,38.995,14.194,41.058,14.182z"/>
<path fill="#FDF860" d="M41.064,20.429c2.075,1.047,4.152,2.093,6.227,3.14C45.215,22.522,43.14,21.476,41.064,20.429z"/>
<path fill="#FCF94B" d="M56.696,23.557c-0.004-1.041-0.005-2.084-0.005-3.125c2.084-0.003,4.169-0.003,6.255-0.006c5.195-1.032,10.393-2.063,15.588-3.091c0.016,1.038,0.03,2.078,0.046,3.119l0.008,0.003c-3.434,3.876-7.939,5.512-12.907,6.208C62.217,26.99,59.233,25.913,56.696,23.557z"/>
<path fill="#7F7E2B" d="M81.681,45.438c1.043,1.037,2.085,2.078,3.127,3.118c-1.564,1.603-3.407,2.671-5.653,2.985c-5.899-0.04-11.798-0.113-16.404-4.703c-0.872-1.239-1.421-2.609-1.675-4.107c0.077-0.748,0.164-1.496,0.243-2.249c0.602-1.438,1.578-2.542,2.917-3.339c2.123-0.964,4.359-1.346,6.679-1.328C77.679,35.459,79.62,40.515,81.681,45.438z"/>
<path fill="#7F7C2A" d="M81.681,45.438c-4.179-2.091-8.356-4.178-12.536-6.269c-0.743-1.163-0.806-2.341-0.093-3.543c1.658-2.082,3.889-3.394,6.177-4.642c2.306-1.227,4.652-2.35,7.312-2.57c1.929-0.055,3.919-0.335,5.391,1.382C85.847,35.013,83.764,40.226,81.681,45.438z"/>
<path fill="#7E7E23" d="M78.564,48.566c2.081-0.003,4.163-0.006,6.244-0.01c0.001,1.044,0.005,2.088,0.006,3.135c1.085,0.695,1.446,1.389,1.085,2.084c-0.36,0.693-0.72,1.041-1.086,1.041l0.004,0.006c-1.762,1.642-3.845,1.565-5.999,1.123c-1.108-0.971-1.757-2.197-2.012-3.638C76.934,50.845,77.5,49.588,78.564,48.566z"/>
<path fill="#7E771C" d="M84.813,54.816c0.001-1.041,0.001-2.085,0.001-3.125c2.075-1.044,4.15-2.088,6.226-3.131c-0.005,2.09-0.009,4.184-0.015,6.277C88.954,54.831,86.883,54.822,84.813,54.816z"/>
<path fill="#766C22" d="M87.931,29.797c-2.121,0.006-4.24,0.012-6.361,0.016c0,0-0.814-0.971-0.816-0.971c-0.003,0,0.029-1.27,0.028-1.272c-0.004,0,0.893-0.903,0.893-0.903c2.026-0.198,4.051-0.397,6.075-0.595C87.811,27.311,87.871,28.556,87.931,29.797z"/>
<path fill="#BCB232" d="M47.285,51.694c0.003,5.2,0.005,10.403,0.008,15.606c-1.442,1.535-3.154,2.573-5.263,2.896c-6.429,0.467-11.661-2.854-17.145-5.405c-1.207-0.595-2.338-1.312-3.435-2.09c-1.639-1.221-3.085-2.64-4.359-4.245c-1.619-2.356-2.809-4.81-1.64-7.761c0.795-1.193,1.81-2.154,3.032-2.899c1.378-0.412,2.768-0.442,4.167-0.119c3.946,1.176,6.681,4.529,10.756,5.985c3.752-1.813,0.941-6.718,3.929-8.912c1.885-1.431,4.004-1.88,6.316-1.608c1.497,0.409,2.747,1.202,3.758,2.374c-0.03,1.013-0.07,2.026-0.12,3.039c-0.813,0.699-1.085,1.396-0.815,2.091C46.744,51.343,47.014,51.694,47.285,51.694z"/>
<path fill="#B8AB37" d="M37.924,86.042c-2.043-0.049-4.085-0.095-6.128-0.144c-0.078-0.968-0.128-1.938-0.146-2.908c-0.187-2.033,0.206-3.94,1.202-5.72c0.754-1.092,1.708-1.983,2.797-2.728c2.782-1.605,5.49-3.354,8.295-4.953c1.324-0.513,2.444-0.226,3.361,0.854c-0.026,3.122-0.053,6.24-0.079,9.362c-1.012,1.093-2.034,1.163-3.072,0.037C42.078,81.909,40.001,83.975,37.924,86.042z"/>
<path fill="#756823" d="M53.509,64.188c-0.946,0-1.892-0.003-2.837-0.003c-0.248-6.293-0.5-12.589-0.753-18.882c0.625-0.302,1.251-0.604,1.878-0.906c1.451,0.146,2.61,0.791,3.451,1.996c1.354,2.631,1.523,5.377,0.803,8.212c-0.569,1.294-1.396,2.408-2.467,3.342C53.56,60.025,53.536,62.106,53.509,64.188z"/>
<path fill="#B6AC2E" d="M47.305,70.444c-1.059,0.016-2.116,0.03-3.175,0.046c-2.725,0.622-3.728-0.467-3.124-3.149c2.097-0.013,4.191-0.024,6.287-0.04C47.297,68.35,47.301,69.397,47.305,70.444z"/>
<path fill="#B1A33D" d="M47.409,45.517c-1.071-0.027-2.141-0.058-3.212-0.085c-0.676-1.376-0.45-2.618,0.559-3.748c1.985-1.196,3.975-1.206,5.968-0.018c0.89,1.251,0.928,2.527,0.111,3.83c0,0-0.909-0.189-0.912-0.189C49.085,45.417,48.25,45.49,47.409,45.517z"/>
<path fill="#B8B031" d="M47.285,51.694c-0.395-0.748-0.867-1.468-1.123-2.259c-0.05-0.152,0.729-0.576,1.126-0.879C47.287,49.603,47.287,50.647,47.285,51.694z"/>
<path fill="#B6AC2E" d="M44.154,79.843c1.024-0.019,2.048-0.03,3.072-0.037c0.032,1.017,0.044,2.033,0.033,3.049C46.223,81.851,45.189,80.847,44.154,79.843z"/>
<path fill="#FCF94B" d="M66.055,23.569c4.178-1.038,8.354-2.075,12.532-3.113c1.028,2.072,2.058,4.141,3.087,6.21l-0.007,0.012c-1.96,1.718-4.205,2.82-6.813,3.137C70.664,29.504,65.838,30.082,66.055,23.569z"/>
<path fill="#BCBB4E" d="M16.043,51.691c1.051,2.081,2.104,4.162,3.156,6.24c0.012,2.063,2.112,2.051,3.109,3.135h0.002c4.107,5.273,13.824,6.052,12.535,15.649l-0.004-0.003c-6.427,4.98-10.951,0.399-15.686-3.119h0.014c-3.038-2.183-7.637-2.048-9.298-6.269c-0.044-5.212-0.087-10.428-0.131-15.64c0.073-1.029,0.134-2.058,0.182-3.086c0.769-1.059,1.776-1.477,3.067-1.15C14.702,48.361,15.817,49.708,16.043,51.691z"/>
<path fill="#BCBA4A" d="M9.87,67.325c3.099,2.091,6.198,4.178,9.298,6.269c-3.114-0.019-6.23-0.037-9.344-0.055c0-1.035-0.031-2.072-0.092-3.104C9.779,69.397,9.827,68.363,9.87,67.325z"/>
<path fill="#BCB842" d="M12.93,48.572c-1.004,0-2.008,0.009-3.012,0.024c-0.067-2.094-0.136-4.19-0.206-6.287c0.098-5.087,0.195-10.171,0.296-15.255c1.07-0.141,2.138-0.281,3.206-0.424l-0.243-0.159c0.893,1.022,1.776,2.051,2.663,3.082c1.311,1.682,2.023,3.577,2.089,5.716C17.149,40.067,17.151,45.084,12.93,48.572z"/>
<path fill="#BCBA4A" d="M19.154,73.593c5.228,1.037,10.457,2.078,15.685,3.119c-1.062,2.09-2.125,4.184-3.189,6.274c-2.054-0.028-4.108-0.062-6.162-0.092c-2.069-1.041-4.137-2.085-6.206-3.128c-0.026-1.017-0.072-2.029-0.138-3.046C19.148,75.68,19.151,74.637,19.154,73.593z"/>
<path fill="#807A22" d="M78.561,54.813c2.086,0,4.17,0.003,6.256,0.006c-4.17,3.122-8.342,6.241-12.512,9.359c-2.084,1.041-4.169,2.082-6.252,3.122c-1.039,0.006-2.078,0.01-3.115,0.01c0-3.122,0-6.247-0.002-9.372c0.458-0.583,0.917-1.163,1.366-1.755C68.847,53.595,73.372,50.723,78.561,54.813z"/>
<path fill="#807F29" d="M53.584,57.947c0-1.05,0-2.097,0-3.144c2.36-2.139,1.105-6.125,4.053-7.974c1.056-0.687,2.201-1.157,3.43-1.425c0.623,0.009,1.247,0.021,1.871,0.034c5.209,1.043,10.417,2.084,15.626,3.128c-0.001,1.04-0.003,2.081-0.003,3.122c-4.064,2.523-8.992,2.337-13.257,4.227c-1.91,0.454-4.002,0.412-5.49,2.021c-0.001,2.084-0.003,4.168-0.004,6.256C57.735,62.11,55.66,60.028,53.584,57.947z"/>
<path fill="#807A22" d="M59.814,57.935c1.041-1.041,2.08-2.079,3.119-3.119c1.074,0.692,1.43,1.386,1.074,2.081c-0.354,0.692-0.711,1.041-1.071,1.041l0,0C61.896,57.938,60.855,57.938,59.814,57.935z"/>
<path fill="#F5D139" d="M50.607,42.578c-2.114-0.131-4.229-0.259-6.344-0.391c-0.575-0.012-1.15-0.027-1.728-0.033c-1.161-0.055-2.293-0.26-3.402-0.61c-1.096-0.385-2.141-0.882-3.162-1.435c-1.052-0.506-2.049-1.102-3.031-1.736c-0.467-0.351-0.917-0.727-1.379-1.086c-0.343-0.473-0.673-0.958-1.01-1.438c-0.331-1.224,0.018-2.215,1.041-2.969c7.321,0.003,14.644,0.006,21.966,0.009c1.497-1.657,3.368-2.054,5.487-1.639c2.005,0.757,3.399,2.167,4.335,4.062c0.418,1.367,0.182,2.597-0.806,3.659l0.236-0.098c-0.566,0.9-1.248,1.703-2.032,2.429c-0.784,0.75-1.651,1.382-2.591,1.929c-0.973,0.525-2.01,0.839-3.103,0.979C53.534,43.833,51.792,43.967,50.607,42.578z"/>
<path fill="#AD9629" d="M31.592,32.88c0.075,1.047,0.151,2.09,0.226,3.137c-1.522,1.669-3.389,1.953-5.473,1.355c-1.208-0.76-1.816-1.855-1.822-3.284c0.417-0.528,0.833-1.056,1.25-1.584C27.711,32.629,29.652,32.755,31.592,32.88z"/>
<path fill="#FEFC5E" d="M59.797,33.072c-2.08-0.061-4.159-0.122-6.239-0.183c0.002-1.025,0-2.048-0.001-3.07l0.004-0.006c1.732-1.825,3.654-1.746,5.688-0.574c0.684,0.769,0.992,1.596,0.928,2.475C60.11,32.621,59.984,33.072,59.797,33.072z"/>
<path fill="#AC972A" d="M19.493,29.621c2.09,0.964,4.181,1.929,6.276,2.887c0.003-0.003-0.339,0.431-0.339,0.431c-1.199,1.559-2.8,2.063-4.7,1.788c-1.17-0.391-2.07-1.111-2.661-2.203c0.006-0.595,0.012-1.193,0.02-1.792C18.556,30.362,19.025,29.99,19.493,29.621z"/>
<path fill="#A38721" d="M15.978,27.042c1.17,0.86,2.341,1.721,3.513,2.579c0.003,0-0.343,0.125-0.343,0.125c-0.893,1.27-2.011,1.453-3.33,0.699c-0.72-0.793-0.936-1.559-0.648-2.304C15.451,27.408,15.721,27.042,15.978,27.042z"/>
<path fill="#946B17" d="M15.978,27.042c0.014,0.842,0.001,1.685-0.037,2.527c-0.957,1.37-1.944,1.327-2.956,0.061c-0.005-1.053-0.009-2.106-0.014-3.159C14.006,26.496,15.007,26.685,15.978,27.042z"/>
<path fill="#F9F943" d="M66.055,23.569c3.116,1.038,6.231,2.075,9.348,3.113c0.439,0.485,0.879,0.971,1.318,1.456c-0.056,1.386-0.702,2.423-1.854,3.168c-2.336,1.291-4.854,1.629-7.469,1.434c-1.24-0.134-2.446-0.452-3.61-0.9c-1.644-0.781-2.716-2.341-4.288-3.232c-1.153-0.32-2.101-0.949-2.811-1.929c0-1.041,0.002-2.082,0.007-3.122C59.816,23.56,62.936,23.563,66.055,23.569z"/>
<path fill="#FDFE57" d="M56.689,26.679c1.032,0.012,2.063,0.015,3.095,0.018c0.412,0.519,0.822,1.038,1.239,1.557c-0.407,0.519-0.821,1.041-1.234,1.56c-2.075,0-4.152,0-6.228,0c0-1.044,0-2.084,0.002-3.128C54.605,26.685,55.647,26.682,56.689,26.679z"/>
<path fill="#807C2D" d="M59.811,48.563c-2.075,2.081-4.151,4.159-6.227,6.24c0.028-3.052,0.058-6.106,0.085-9.158c0.09-1.962,2.046-2.368,3.006-3.604l-0.215,0.168c0.996-0.689,2.094-1.135,3.29-1.333c1.252-0.015,2.304,0.439,3.155,1.355c0.011,1.068,0.021,2.139,0.032,3.208h-0.002C61.737,46.323,60.823,47.492,59.811,48.563z"/>
<path fill="#75671C" d="M62.575,38.971c0.119-0.989,0.226-1.978,0.322-2.969c0.454-0.403,0.91-0.809,1.363-1.215c1.193-0.345,2.387-0.357,3.578,0.012c0.45,0.409,0.899,0.824,1.348,1.236c-0.012,1.044-0.025,2.091-0.039,3.134C66.956,39.103,64.766,39.038,62.575,38.971z"/>
<path fill="#6B5312" d="M62.906,42.231l-1.554,0.042l-1.555-0.021c-0.716-0.62-0.955-1.239-0.719-1.862c0.238-0.62,0.475-0.931,0.714-0.931c0.979-0.336,1.985-0.531,3.019-0.586C62.843,39.994,62.876,41.11,62.906,42.231z"/>
<path fill="#76661C" d="M75.411,32.898c-2.075,1.047-4.149,2.091-6.225,3.137l-0.188-0.216c-0.897-4.267,1.976-4.211,4.813-4.199C74.343,32.044,74.877,32.471,75.411,32.898z"/>
<path fill="#77641C" d="M81.57,29.813c-2.054,1.028-4.105,2.057-6.159,3.085l-0.225-0.208c-0.881-0.732-1.129-1.4-0.748-2.002c0.358-0.564,0.707-0.848,1.047-0.848l-0.057-0.046c1.938-1.892,3.957-1.706,6.026-0.232L81.57,29.813z"/>
<path fill="#807D25" d="M62.936,57.938c0-1.041-0.001-2.082-0.003-3.122c5.209-1.044,10.419-2.085,15.628-3.128c0,1.04,0,2.081,0,3.125C73.353,55.853,68.144,56.897,62.936,57.938z"/>
<path fill="#F6E841" d="M81.455,29.563c-2.009,0.076-4.018,0.156-6.026,0.232c-0.012-1.038-0.02-2.075-0.025-3.113c2.087,0,4.176-0.003,6.265-0.003C81.604,27.64,81.534,28.601,81.455,29.563z"/>
<path fill="#BBB93C" d="M25.514,36.035c2.1-0.006,4.201-0.012,6.302-0.018c0.001,0-0.145-0.092-0.145-0.092c0.994,1.19,2.283,1.77,3.812,1.865c0.946,0.287,1.8,0.748,2.565,1.374l-0.067-0.098c0.961,0.867,1.552,1.938,1.769,3.213c-0.212,1.279-0.796,2.347-1.805,3.17c1.146,4.761,2.291,9.521,4.399,18.283c-9.36-6.131-16.258-10.65-23.157-15.17l0,0c-1.048,1.043-2.095,2.084-3.144,3.128c-1.038-1.041-2.075-2.081-3.113-3.122c1.047-5.206,2.092-10.416,3.139-15.622c1.041-1.233,2.094-1.306,3.159-0.033l-0.034-0.012C20.781,34.992,23.924,33.948,25.514,36.035z"/>
<path fill="#BCBA4A" d="M34.845,76.715C30.667,71.499,26.49,66.28,22.31,61.066c6.233,2.09,12.465,4.184,18.696,6.274c1.042,1.05,2.083,2.1,3.124,3.149C41.034,72.565,37.939,74.64,34.845,76.715z"/>
<path fill="#BCB43D" d="M37.944,45.45c0.001-1.053,0.001-2.108,0.003-3.161c2.11-1.892,4.229-1.618,6.353-0.021c0,0-0.037-0.076-0.037-0.08c-0.021,1.081-0.043,2.164-0.066,3.244C42.113,45.438,40.028,45.444,37.944,45.45z"/>
<path fill="#BCBA4A" d="M22.308,61.066c-1.326-0.211-2.653-0.418-4.103-0.647c0.386-0.967,0.69-1.727,0.994-2.487C20.235,58.975,21.272,60.019,22.308,61.066z"/>
<path fill="#634510" d="M56.675,42.041c-1.002,1.2-2.005,2.399-3.006,3.601c-0.941-0.119-1.888-0.168-2.837-0.149c-0.199-0.961-0.275-1.932-0.226-2.915C52.629,42.398,54.652,42.221,56.675,42.041z"/>
<path fill="#BBB642" d="M19.228,32.914c-1.053,0.012-2.105,0.021-3.159,0.033c-1.028-1.104-2.055-2.209-3.083-3.317c0.989,0.131,1.975,0.113,2.957-0.061c1.066,0.058,2.136,0.119,3.205,0.177C19.173,30.802,19.2,31.857,19.228,32.914z"/>
<path fill="#7F7E2B" d="M59.811,48.563c1.042-1.041,2.083-2.082,3.125-3.125C61.894,46.481,60.853,47.522,59.811,48.563z"/>
<path fill="#FEF44F" d="M62.927,29.801c1.053,0.012,2.105,0.024,3.158,0.04c1.891,3.577-1.376,4.465-3.19,6.109l0.002,0.055c-1.033-0.979-2.066-1.956-3.1-2.933c-0.003-1.086-0.005-2.173-0.009-3.259l0.063-0.009C60.875,28.72,61.9,28.669,62.927,29.801z"/>
<path fill="#B0A138" d="M44.299,42.267c-2.118,0.006-4.234,0.015-6.353,0.021c0.011-1.074,0.021-2.148,0.034-3.223C40.086,40.131,42.192,41.199,44.299,42.267z"/>
<path fill="#AD9B2F" d="M38.048,39.164c-1.086-0.019-2.174-0.04-3.261-0.058c-0.682-0.592-0.91-1.184-0.679-1.773c0.229-0.589,0.458-0.882,0.688-0.882C35.879,37.354,36.964,38.26,38.048,39.164z"/>
<path fill="#AE932A" d="M34.796,36.45c0.006,0.885,0.003,1.77-0.009,2.655c-1.038-1.059-2.077-2.118-3.114-3.18C32.713,36.1,33.754,36.273,34.796,36.45z"/>
<path fill="#654910" d="M59.792,39.46c0.016,0.931,0.018,1.865,0.005,2.795c-1.11-0.015-2.222-0.031-3.335-0.043C57.571,41.294,58.682,40.375,59.792,39.46z"/>
<path fill="#BBB642" d="M25.514,36.035c-2.107-1.043-4.214-2.09-6.32-3.134c2.079,0.012,4.158,0.024,6.236,0.037C25.438,33.969,25.465,35.004,25.514,36.035z"/>
<path fill="#F2DE3A" d="M62.895,35.95c1.063-2.039,2.127-4.074,3.19-6.112c3.133,0.003,6.267,0.003,9.399,0.003c-0.095,0.952-0.193,1.901-0.298,2.85c-2.063,1.044-4.124,2.087-6.187,3.131C66.964,35.861,64.929,35.907,62.895,35.95z"/>
<path fill="#FEF044" d="M62.927,29.801c-1.025,0.003-2.051,0.006-3.076,0.003c-0.026-1.035-0.049-2.072-0.065-3.107C60.832,27.732,61.88,28.766,62.927,29.801z"/>
<path fill="#BCB232" d="M19.187,48.563c-0.418-0.232-0.835-0.461-1.253-0.693C18.352,48.102,18.77,48.331,19.187,48.563L19.187,48.563z"/>
</svg>