<?xml version="1.0" encoding="utf-8"?>
<!DOCTYPE svg PUBLIC "-//W3C//DTD SVG 1.1//EN" "http://www.w3.org/Graphics/SVG/1.1/DTD/svg11.dtd">
<svg version="1.1" xmlns="http://www.w3.org/2000/svg" xmlns:xlink="http://www.w3.org/1999/xlink" x="0px" y="0px" width="100px" height="100px" viewBox="0 0 100 100" enable-background="new 0 0 100 100" xml:space="preserve">
<path fill="#EEEEEE" d="M75.255,15.668c0.997,0.04,1.946,0.274,2.845,0.705c1.37,12-4.891,19.256-19.721,22.827c-7.639,0.284-15.291,0.067-22.931,0.027c-2.275-0.015-4.561-0.027-6.828-0.052c-1.44-0.024-2.898-0.098-4.337-0.226c-2.078-0.342-4.103-0.943-6.111-1.575c-1.201-0.644-2.327-1.416-3.363-2.304c-1.004-0.895-2.011-1.795-3.017-2.689c-0.406-0.531-0.816-1.062-1.224-1.59c-0.238-0.623-0.478-1.248-0.717-1.871c-0.186-1.328-0.095-2.64,0.241-3.94c0.639-1.166,1.41-2.243,2.312-3.226c6.175-3.067,12.351-6.137,18.526-9.208c1.076-0.882,2.207-1.688,3.399-2.408c0.933-0.449,1.914-0.711,2.945-0.784l1.136,0.333c0,0.003,0.795-0.873,0.795-0.873c0.204-0.818,0.682-1.422,1.434-1.807c0.887-0.449,1.827-0.693,2.82-0.732C50.698,2.32,56.39,7.804,62.713,9.434c1.051,0.024,2.051,0.262,3.001,0.714c1.146,0.729,2.245,1.526,3.293,2.39l-0.239-0.174C70.36,14.585,73.429,13.908,75.255,15.668z"/>
<path fill="#AFAFAF" d="M31.017,87.782c-6.197-3.052-12.395-6.106-18.593-9.162c-8.849-7.586-2.904-17.739-4.61-26.547c-0.656-4.211,2.28-8.163,0.952-12.42c-0.896-2.326-1.149-4.727-0.653-7.172c0.371-1.046,1.025-1.904,1.938-2.539c1.036-0.18,2.082-0.156,3.105,0.116c1.007,0.167,2.029,0.186,3.048,0.052c0.997,0.217,1.921,0.617,2.765,1.199l-0.29-0.079c1.71,2.008,4.671,1.507,6.519,3.241l-0.215-0.198c1.397,1.7,3.613,1.962,5.37,3.049c2.006,1.08,3.161,2.747,3.486,4.98c-0.032,1.389-0.43,2.686-1.137,3.875c-1.417,1.828-3.776,2.411-5.313,3.995c0.133,0.049-0.632,1.136-0.475,1.193c0.129,0.955,0.215,1.841,0.559,2.74c3.711,6.687,13.202,3.77,16.853,10.318c2.141,2.219,4.833,3.931,6.245,6.82c1.119,4.608,1.385,9.049-2.923,13.291C43.014,87.809,37.106,88.2,31.017,87.782z"/>
<path fill="#717171" d="M93.34,24.799c0,16.843,0,33.688,0,51.739c-6.332,2.839-12.245,5.487-18.158,8.133c-0.587-0.29-1.175-0.583-1.764-0.869c-0.806-1.063-1.281-2.256-1.435-3.574c0.228-1.938,1.036-3.704,1.653-5.523c0.621-1.767,1.524-3.402,2.464-5.011c0.518-1.087,1.053-2.173,1.532-3.281c0.361-1.15,0.743-2.295,1.068-3.46c0.224-1.215,0.468-2.417,0.674-3.641c0.07-0.632,0.163-1.249,0.243-1.88c0.12-1.297,0.313-2.57,0.568-3.852c0.447-1.275,0.983-2.49,1.622-3.675c6.77-7.15,1.149-16.223,3.746-24.02C87.867,23.481,90.445,22.993,93.34,24.799z"/>
<path fill="#9F9F9F" d="M31.017,87.782c5.256-5.24,10.513-10.483,15.77-15.723c-1.729-1.956-2.966-4.205-3.913-6.629c-0.806-4.3-3.511-8.133-3.081-12.734c0.464-1.801,1.341-3.36,2.635-4.691c1.272-1.397,2.829-2.294,4.67-2.7c1.903,0.049,3.57,0.699,5.005,1.947c4.555,7.589,1.785,15.973,2.583,23.972c-0.408,7.059,1.038,14.251-1.493,21.163c-0.911,1.532-2.036,2.891-3.372,4.071C43.554,93.568,37.285,90.674,31.017,87.782z"/>
<path fill="#E8E8E8" d="M93.34,24.799c-2.054,0.943-4.109,1.889-6.164,2.835c-0.141,0.675-0.281,1.349-0.423,2.026c-0.716,2.045-2.206,3.498-3.754,4.91c-2.24,1.779-4.563,3.421-7.158,4.654c-2.678,1.211-5.089,3.143-8.258,3.003c-2.325-0.055-4.602-0.299-6.677-1.48c-1.88-1.7-2.896-3.622-1.633-6.149c6.275-6.073,12.552-12.149,18.826-18.225C83.181,19.181,88.261,21.989,93.34,24.799z"/>
<path fill="#AFAFAF" d="M12.545,31.367c-1.039,2.118-2.079,4.239-3.118,6.36c2.124,3.067,2.124,6.137,0,9.207c1,10.562,1.999,21.125,2.997,31.686c-2-3.918-5.531-7.764-5.722-11.768c-0.61-12.747,0.023-25.555,0.175-38.339c1.842-2.197,3.801-2.121,5.851-0.302l-0.164-0.184c0.931,0.748,1.238,1.493,0.922,2.231C13.172,30.997,12.859,31.367,12.545,31.367z"/>
<path fill="#787878" d="M49.822,96.457c0.053-0.869,0.126-1.742,0.223-2.609c1.504-1.846,2.041-4.126,2.838-6.296c2.069-7.244,6.092-10.909,13.921-7.614c1.338,0.904,2.374,2.076,3.111,3.513c0.439,1.654,0.07,3.104-1.105,4.349C62.481,90.687,56.151,93.574,49.822,96.457z"/>
<path fill="#E8E8E8" d="M62.713,9.437c-6.418-1.053-12.836-2.106-19.254-3.159C49.877,7.331,56.295,8.384,62.713,9.437z"/>
<path fill="#E8E8E8" d="M75.255,15.668c-2.162-1.099-4.322-2.2-6.486-3.302C70.93,13.468,73.093,14.567,75.255,15.668z"/>
<path fill="#E9E9E9" d="M12.404,21.757c-0.001,1.211-0.001,2.423-0.003,3.638c-2.077,1.471-4.053,1.895-5.754-0.552C8.567,23.813,10.485,22.785,12.404,21.757z"/>
<path fill="#7D7D7D" d="M6.648,24.842c1.918,0.183,3.837,0.363,5.755,0.549c0.131,0.937,0.238,1.877,0.324,2.82c-1.949,0.101-3.9,0.201-5.849,0.302C6.801,27.289,6.724,26.066,6.648,24.842z"/>
<path fill="#757575" d="M68.81,87.799c-0.02-1.092-0.038-2.188-0.058-3.283c1.847-1.77,3.778-1.983,5.813-0.32l0.616,0.476C73.058,85.715,70.934,86.759,68.81,87.799z"/>
<path fill="#E8E8E8" d="M69.007,12.54c-1.099-0.797-2.195-1.593-3.293-2.39C66.812,10.947,67.908,11.744,69.007,12.54z"/>
<path fill="#EAEAEA" d="M34.33,10.142c-1.134,0.803-2.266,1.605-3.399,2.408C32.064,11.747,33.196,10.944,34.33,10.142z"/>
<path fill="#EAEAEA" d="M40.639,7.011c-0.015,0.851-0.035,1.7-0.063,2.551c-0.69,0.131-1.379,0.262-2.071,0.396l-1.231-0.601C38.396,8.576,39.518,7.795,40.639,7.011z"/>
<path fill="#D5D5D5" d="M59.273,34.599c1.093,1.022,2.184,2.044,3.275,3.064c0.837,1.068,1.27,2.273,1.239,3.638c-0.355,1.291-1.029,2.396-1.976,3.338c-1.625,1.086-3.269,2.148-5.118,2.835c-1.979,0.516-3.803-0.031-5.586-0.836c-1.822-0.754-3.654-1.096-5.518-0.125c-1.147,0.583-2.332,1.078-3.56,1.468c-2.008,0.21-3.786-0.33-5.324-1.63c-0.752-1.01-1.41-2.088-1.967-3.217c-0.582-1.099-1.313-2.097-2.211-2.963c-0.47-0.394-0.945-0.791-1.416-1.184c-0.362-0.494-0.728-0.989-1.091-1.479c-0.391-1.282-0.047-2.28,1.155-2.942C40.543,34.577,49.907,34.586,59.273,34.599z"/>
<path fill="#E8E8E8" d="M50.005,15.76c2.753,3.558,5.506,7.116,11.177,14.447c-8.38-4.3-13.093-6.72-20.005-10.269c4.062-3.36,6.442-5.329,8.824-7.297c0.818,0.693,1.092,1.386,0.821,2.078C50.55,15.412,50.279,15.76,50.005,15.76z"/>
<path fill="#9B9B9B" d="M25.199,34.47c-2.171-1.08-4.344-2.161-6.519-3.241C20.853,32.31,23.026,33.39,25.199,34.47z"/>
<path fill="#9B9B9B" d="M31.177,34.565c0.07,1.013,0.154,2.023,0.252,3.033c-1.041,1.478-2.133,1.447-3.269,0.11c-1.058-1.147-2.117-2.292-3.177-3.437C27.048,34.37,29.113,34.467,31.177,34.565z"/>
<path fill="#919191" d="M18.97,31.309c-1.141-0.012-2.283-0.024-3.422-0.037c-0.986-0.589-1.313-1.175-0.986-1.764c0.327-0.586,0.653-0.882,0.986-0.882C16.689,29.52,17.829,30.414,18.97,31.309z"/>
<path fill="#808080" d="M15.548,28.626c0.02,0.885,0.021,1.767,0.001,2.648c-0.001-0.003,0.04,0.281,0.04,0.281c-1.1,0.866-2.132,0.79-3.095-0.226c0,0,0.049,0.037,0.051,0.037c0.006-1.114,0.012-2.225,0.018-3.335C13.573,28.159,14.566,28.358,15.548,28.626z"/>
<path fill="#EFEFEF" d="M59.375,15.766L59.375,15.766L59.375,15.766z"/>
<path fill="#EFEFEF" d="M59.375,15.766L59.375,15.766L59.375,15.766z"/>
<path fill="#EFEFEF" d="M50.005,15.76c-0.001-1.041-0.003-2.079-0.005-3.119C50.002,13.682,50.004,14.719,50.005,15.76z"/>
<path fill="#F0F0F0" d="M38.506,9.958c0.69-0.144,1.379-0.274,2.071-0.396l-0.984,0.5L38.506,9.958z"/>
<path fill="#AFAFAF" d="M46.83,53.269c-0.004,4.153-0.009,8.304-0.014,12.457c-1.096,1.123-2.423,1.813-3.951,2.137c-8.182-4.352-19.191-4.666-22.61-15.817c0.305-7.236,8.597-3.727,10.996-8.154c-0.008-1.038-0.014-2.075-0.02-3.113l0.732-1.318c0.992-0.238,1.993-0.287,3.003-0.146c0.986,0.278,1.868,0.75,2.645,1.419l-0.16-0.085c1.694,1.972,4.645,1.435,6.433,3.22l-0.116-0.137c0.936,1.166,2.925,1.346,3.046,3.268c0.004,1.047,0.009,2.097,0.014,3.144c-0.824,0.695-1.099,1.392-0.824,2.084C46.277,52.921,46.554,53.269,46.83,53.269z"/>
<path fill="#ACACAC" d="M21.874,50.141C29.167,55.35,36.46,60.56,43.753,65.769c0.995,3.07,0.134,4.285-3.113,3.119c-8.946-4.324-22.165-3.659-21.89-18.75C19.793,49.116,20.834,49.167,21.874,50.141z"/>
<path fill="#B1B1B1" d="M21.874,50.141c-1.041,0-2.083,0-3.124-0.003l0.001,0.003c-0.819-0.692-1.092-1.386-0.821-2.081c0.271-0.693,0.544-1.041,0.818-1.041c4.167-1.043,8.334-2.084,12.501-3.128c0,1.999,0,3.995,0,7.086C27.695,50.66,24.785,50.401,21.874,50.141z"/>
<path fill="#A8A8A8" d="M40.641,68.888c1.038-1.038,2.075-2.078,3.113-3.119c1.021-0.009,2.042-0.024,3.063-0.043c-0.009,2.109-0.018,4.221-0.027,6.333C44.738,71.002,42.69,69.944,40.641,68.888z"/>
<path fill="#B2B2B2" d="M9.427,46.934c0-3.07,0-6.14,0-9.21C9.427,40.793,9.427,43.864,9.427,46.934z"/>
<path fill="#AFAFAF" d="M28.161,37.708c1.088-0.037,2.177-0.073,3.267-0.11c0.001,0-0.168,0.009-0.168,0.009c0.677,0.528,1.356,1.056,2.034,1.584c-0.68,0.525-1.361,1.047-2.042,1.572l-0.021,0.015C30.207,39.756,29.185,38.73,28.161,37.708z"/>
<path fill="#ACACAC" d="M18.749,47.019c0.001,1.041,0.003,2.081,0.003,3.122C18.751,49.1,18.751,48.06,18.749,47.019z"/>
<path fill="#AFAFAF" d="M12.494,31.33c1.033,0.076,2.065,0.149,3.095,0.223C14.558,31.479,13.526,31.406,12.494,31.33z"/>
<path fill="#777777" d="M87.176,27.634c-0.933,8.545-1.865,17.09-2.797,25.635c-0.771-0.189-1.541-0.382-2.313-0.57c-10.215-6.836-3.669-13.504,0.199-20.2c1.306-2.033,3.68-2.854,5.233-4.608L87.176,27.634z"/>
<path fill="#787878" d="M74.565,84.196c-1.938,0.106-3.876,0.214-5.813,0.32l-0.017-0.021c-3.928-10.33-0.048-14.865,10.642-14.355c0.622,0.619,1.249,1.248,1.877,1.877c-1.044,2.081-2.088,4.166-3.132,6.25c-1.137,0.946-2.009,2.154-3.122,3.122C74.882,82.328,74.736,83.265,74.565,84.196z"/>
<path fill="#777777" d="M84.377,56.388c2.066,1.047,4.131,2.094,6.196,3.14c-1.162,0.9-1.946,2.177-3.071,3.116c-1.041,1.041-2.081,2.085-3.122,3.128c-0.597-0.326-1.193-0.652-1.79-0.979c-1.35-1.715-1.705-3.622-1.118-5.716c0.371-0.57,0.743-1.139,1.115-1.709C83.184,57.041,83.78,56.714,84.377,56.388z"/>
<path fill="#777777" d="M84.379,53.269c0,1.041-0.002,2.081-0.002,3.119l-0.002,0.003c-2.235,1.926-4.485,1.871-6.748,0.043c0.415-4.959,2.868-5.585,6.745-3.171L84.379,53.269z"/>
<path fill="#757575" d="M87.502,62.644c1.023-1.037,2.048-2.078,3.071-3.116C89.55,60.566,88.525,61.607,87.502,62.644z"/>
<path fill="#777777" d="M84.38,65.772c-0.005,1.038-0.009,2.075-0.014,3.113c-1.169,1.218-2.422,1.373-3.773,0.305c-0.155-2.697,0.667-4.324,3.778-3.427L84.38,65.772z"/>
<path fill="#757575" d="M81.25,68.891c1.04,0,2.077-0.003,3.116-0.006c-1.037,1.043-2.075,2.087-3.112,3.131H81.23c-0.818-0.702-1.088-1.397-0.81-2.091C80.698,69.236,80.975,68.891,81.25,68.891z"/>
<path fill="#757575" d="M75,81.388c1.041-1.041,2.082-2.081,3.122-3.122C77.082,79.307,76.041,80.347,75,81.388z"/>
<path fill="#6A6A6A" d="M50.216,72.007c-0.293-8.401-0.586-16.8-0.879-25.202c0.747-0.357,1.495-0.714,2.244-1.068c1.677,0.302,3.146,1.025,4.407,2.176c0.991,1.397,1.631,2.933,1.915,4.617c-0.537,6.567,1.788,13.568-2.995,19.482C53.349,73.112,51.779,73.109,50.216,72.007z"/>
<path fill="#6C6C6C" d="M50.216,72.007c0.958,0.003,1.915,0.003,2.873,0.003c1.671,0.784,2.921,1.999,3.747,3.649c1.508,5.691-2.065,10.145-3.679,15.076c-1.037,1.037-2.075,2.075-3.112,3.112C50.102,86.567,50.159,79.289,50.216,72.007z"/>
<path fill="#A8A8A8" d="M46.813,46.997c-1.015-1.089-2.029-2.176-3.046-3.265c2.156,0.113,4.314,0.226,6.47,0.339c0.621,0.494,1.243,0.989,1.864,1.48c-0.61,0.51-1.219,1.016-1.828,1.523c0,0-0.931-0.266-0.934-0.269C48.496,46.885,47.655,46.949,46.813,46.997z"/>
<path fill="#A8A8A8" d="M46.83,53.269c0-1.044-0.001-2.087-0.001-3.128C46.828,51.182,46.828,52.225,46.83,53.269z"/>
<path fill="#6E6E6E" d="M87.499,27.891c-1.044,1.175-2.086,2.35-3.13,3.525c-0.618,0.363-1.234,0.729-1.853,1.093c-0.52-0.495-1.039-0.989-1.56-1.483C83.138,29.981,85.318,28.935,87.499,27.891z"/>
<path fill="#6A6A6A" d="M74.645,34.135c2.106-1.035,4.212-2.069,6.316-3.107c-0.004-0.003,0.282,0.467,0.282,0.467c1.443,2.219,0.426,3.65-1.532,4.779c-1.356,0.269-2.661,0.11-3.915-0.473C75.412,35.246,75.029,34.69,74.645,34.135z"/>
<path fill="#696969" d="M68.432,37.302c2.073-1.053,4.146-2.108,6.217-3.165c-0.004-0.003,0.439,0.473,0.439,0.473c0.41,0.574,0.819,1.15,1.228,1.727c-0.241,0.666-0.481,1.328-0.723,1.993c-1.137,0.91-2.441,1.349-3.89,1.389c-0.667-0.238-1.334-0.476-2-0.714C69.278,38.437,68.856,37.87,68.432,37.302z"/>
<path fill="#6A6A6A" d="M62.347,40.464c0.044-0.934,0.111-1.868,0.201-2.801c1.964-0.116,3.926-0.235,5.887-0.357C68.432,37.303,68.78,37.7,68.78,37.7c1.012,4.446-1.674,4.688-4.904,4.309C63.365,41.496,62.856,40.98,62.347,40.464z"/>
<path fill="#7B7B7B" d="M53.157,90.736c0.002-5.203,0.003-10.407,0.005-15.61c2.701-4.303,1.956-11.014,8.707-12.493c2.458-1.041,5.054-1.64,7.629-2.292c2.541-0.635,5.011-1.56,7.619-1.941c2.485-0.063,5.168-1.4,7.258,1.117c-0.001,2.081-0.003,4.166-0.004,6.247c-1.041,1.044-2.08,2.084-3.121,3.128c-0.006,1.041-0.012,2.081-0.021,3.125c-4.164,4.159-8.329,8.319-12.493,12.479C63.543,86.573,58.35,88.655,53.157,90.736z"/>
<path fill="#A2A2A2" d="M43.883,43.867c-2.144-1.071-4.288-2.146-6.432-3.22C39.594,41.721,41.738,42.795,43.883,43.867z"/>
<path fill="#555555" d="M50.273,47.074c-0.119-0.998-0.133-2.002-0.038-3.003c1.952-0.128,3.901-0.259,5.851-0.391c0.402,0.421,0.804,0.842,1.205,1.263c-0.005,0.583-0.011,1.166-0.017,1.749c-0.366,0.455-0.731,0.906-1.097,1.36c-1.209,0.455-2.186,0.129-2.962-0.872C52.236,47.129,51.255,47.095,50.273,47.074z"/>
<path fill="#5D5D5D" d="M59.352,41.138c0.982-0.293,1.981-0.516,2.995-0.671c0-0.003,0.123,0.43,0.123,0.43c0.822,0.699,1.161,1.456,1.02,2.273c-0.148,0.848-0.34,1.272-0.578,1.276c-1.304,0.668-2.639,0.705-4.003,0.201C58.015,43.348,58.162,42.176,59.352,41.138z"/>
<path fill="#9D9D9D" d="M37.61,40.732c-1.079,0.009-2.158,0.015-3.238,0.024c-1.033-0.671-1.378-1.339-1.036-2.014c0.342-0.674,0.684-1.01,1.031-1.01C35.448,38.734,36.53,39.731,37.61,40.732z"/>
<path fill="#575757" d="M59.352,41.138c0,0.876-0.004,1.752-0.01,2.625c-0.972,1.214-2.005,1.266-3.096,0.158c0,0-0.156-0.235-0.157-0.238C57.174,42.832,58.263,41.987,59.352,41.138z"/>
<path fill="#999999" d="M34.368,37.733c0.006,1.01,0.008,2.017,0.006,3.024c-0.001,0-1.561,0.009-1.561,0.009l-1.561-0.003c0.003-1.05,0.005-2.1,0.006-3.152C32.296,37.632,33.332,37.671,34.368,37.733z"/>
<path fill="#787878" d="M62.5,43.827c-0.007-0.977-0.018-1.953-0.03-2.93c2.104-1.065,4.207-2.133,6.31-3.198c1.039-0.009,2.08-0.015,3.121-0.024c1.048,1.077,2.081,1.12,3.1-0.04l-0.007,0.006c0.798-1.275,1.997-2.146,3.118-3.091c1.046-1.02,2.09-2.036,3.133-3.055c1.041-0.027,2.083-0.055,3.125-0.079c0.002,7.281,0.003,14.566,0.003,21.848c-2.082,1.044-4.165,2.084-6.247,3.128c-2.171,3.149-4.613,5.924-8.782,6.277c-0.603,0.135-1.209,0.269-1.813,0.403c-0.517,0.339-1.034,0.677-1.552,1.016c-0.329,0.522-0.659,1.044-0.99,1.565c-0.564,1.23-0.317,2.305,0.638,3.238c-4.154,2.078-8.31,4.156-12.463,6.234c-0.024-1.037-0.049-2.075-0.073-3.115c0.026-7.297,0.054-14.591,0.079-21.888c0.943-1.129,1.82-2.319,3.079-3.137L56.214,47C57.764,44.865,60.904,45.878,62.5,43.827z"/>
<path fill="#757575" d="M65.625,59.516c4.168-1.041,8.333-2.084,12.5-3.125c2.083,0,4.168,0,6.25,0c0,1.041,0,2.081,0,3.125c-2.084,1.041-4.167,2.081-6.251,3.122c-1.662,1.886-4.616,1.184-6.249,3.128c-2.084,1.041-4.167,2.081-6.25,3.125c-1.042-2.084-2.082-4.166-3.125-6.25C63.131,61.188,64.173,60.148,65.625,59.516z"/>
<path fill="#777777" d="M56.247,46.986c-1.026,1.047-2.054,2.09-3.079,3.137c0.005-0.982,0.021-1.965,0.046-2.945C54.226,47.104,55.235,47.04,56.247,46.986z"/>
<path fill="#777777" d="M78.111,34.55c-1.039,1.028-2.078,2.06-3.118,3.091c0.028-1.01,0.061-2.021,0.095-3.03C76.096,34.583,77.105,34.562,78.111,34.55z"/>
<path fill="#777777" d="M75,37.635c-1.034,0.012-2.067,0.024-3.1,0.04C72.933,37.66,73.968,37.647,75,37.635z"/>
<path fill="#787878" d="M71.875,65.766c2.083-1.044,4.166-2.084,6.249-3.128C76.041,63.682,73.958,64.722,71.875,65.766z"/>
<path fill="#777777" d="M62.5,43.827c-2.096,1.059-4.191,2.115-6.288,3.174c0.021-1.025,0.034-2.051,0.034-3.08c1.033-0.036,2.064-0.088,3.096-0.155C60.395,43.784,61.447,43.806,62.5,43.827z"/>
<path fill="#777777" d="M62.5,59.516L62.5,59.516L62.5,59.516z"/>
<path fill="#777777" d="M65.625,59.516c-1.04,1.041-2.082,2.084-3.125,3.125c0-1.041,0-2.084,0-3.125l0,0C63.543,59.516,64.585,59.516,65.625,59.516z"/>
</svg>