<?xml version="1.0" encoding="utf-8"?>
<!DOCTYPE svg PUBLIC "-//W3C//DTD SVG 1.1//EN" "http://www.w3.org/Graphics/SVG/1.1/DTD/svg11.dtd">
<svg version="1.1" xmlns="http://www.w3.org/2000/svg" xmlns:xlink="http://www.w3.org/1999/xlink" x="0px" y="0px" width="100px" height="100px" viewBox="0 0 100 100" enable-background="new 0 0 100 100" xml:space="preserve">
<path fill="#3B4D3B" d="M93.293,62.308c-0.002,4.395-0.002,8.789-0.003,13.184c-0.565,0.892-1.296,1.618-2.191,2.177c-1.206,0.21-2.412,0.421-3.618,0.632c-2.705-2.152-5.491-4.203-7.994-6.613c-0.89-1.142-1.588-2.381-2.135-3.721c-0.456-2.222-0.381-4.403,0.371-6.552c1.123-2.063,2.767-3.616,4.683-4.917c1.448-0.616,2.95-0.842,4.514-0.677C90.253,56.794,91.284,60.032,93.293,62.308z"/>
<path fill="#326C32" d="M31.498,87.681c-4.024-2.097-8.047-4.193-12.071-6.29c0.077-0.675,0.154-1.349,0.232-2.023c0.746-1.962,2.138-3.473,3.503-5.005c1.41-1.58,3.012-2.854,5.15-3.293c1.416-0.012,2.767,0.275,4.058,0.854c1.866,1.038,3.416,2.436,4.726,4.111c0.771,1.181,1.306,2.463,1.652,3.82c0.142,1.367,0.101,2.741-0.081,4.099c-0.353,1.313-1.05,2.436-2.019,3.375C34.989,88.129,33.35,89.469,31.498,87.681z"/>
<path fill="#3E4C3E" d="M50.402,96.54c-4.272-1.917-8.546-3.833-12.818-5.747c0.133-1.04,0.387-2.051,0.792-3.039c0.183-0.516,0.357-1.021,0.54-1.541c0.101-0.563,0.192-1.103,0.287-1.667c0.156-1.184,0.449-2.307,0.894-3.418c1.022-1.721,2.5-2.871,4.294-3.692c1.366-0.326,2.726-0.448,4.123-0.382c1.44,0.224,2.742,0.748,3.936,1.572c0.961,1.12,1.62,2.39,1.989,3.809c0.181,1.452,0.258,2.902,0.236,4.361c-0.066,1.461-0.34,2.884-0.787,4.271C53.1,93.131,51.961,94.968,50.402,96.54z"/>
<path fill="#5A6E5A" d="M40.336,6.934c2.365-1.05,4.729-2.097,7.094-3.144c1.089,1.086,2.057,2.274,2.879,3.571c0.507,1.458,0.632,2.954,0.375,4.477c-1.427,4.163-5.024,5.179-8.737,6.021c-2.08,0.57-4.166,1.147-6.242,1.733c-2.107,0.479-4.169,0.458-6.119-0.629c-1.082-0.946-1.697-2.146-1.9-3.563c3.101-1.956,6.203-3.915,9.305-5.871C38.18,8.762,39.292,7.89,40.336,6.934z"/>
<path fill="#747474" d="M84.138,69.547c1.115,2.914,2.229,5.832,3.343,8.749c-4.025,2.143-8.051,4.285-12.075,6.428c-3.094-2.219-2.254-4.923-0.945-7.679c1.123-1.837,2.354-3.598,3.777-5.222C79.943,70.396,82.091,70.106,84.138,69.547z"/>
<path fill="#7A7A7A" d="M6.686,31.083c1.906-3.034,3.812-6.067,5.717-9.104c0.627-0.442,1.252-0.888,1.881-1.331c1.518,0.345,2.915,0.961,4.191,1.855c1.746,1.642,2.933,3.607,3.479,5.951c0.093,1.617-0.299,3.106-1.173,4.471c-1.107,1.16-2.426,1.983-3.949,2.478c-2.382,0.391-4.68,0.226-6.816-1.019C8.788,33.402,7.678,32.304,6.686,31.083z"/>
<path fill="#676767" d="M6.896,56.204c0-5.139,0.001-10.275,0.001-15.414c2.423-1.98,4.73-4.257,8.322-3.22c1.5,0.62,2.708,1.596,3.628,2.93c1.158,2.186,1.329,4.501,0.929,6.891c-2.052,4.208-3.725,8.734-8.736,10.47C9.422,57.908,8.039,57.359,6.896,56.204z"/>
<path fill="#395F39" d="M18.922,28.114c-1.038-1.807-2.077-3.613-3.114-5.423c-0.237-2.225,2.719-2.292,2.879-4.251c3-1.01,5.998-2.023,8.998-3.037c0.45,0.278,0.911,0.537,1.382,0.772c0.987,1.141,1.869,2.359,2.647,3.65c0.772,2.252,0.548,4.4-0.655,6.448c-0.97,1.145-2.135,2.044-3.49,2.688c-2.196,0.601-4.375,0.534-6.531-0.208C20.335,28.541,19.628,28.327,18.922,28.114z"/>
<path fill="#808080" d="M75.458,15.705c1.055-0.079,2.066,0.092,3.038,0.503c1.063,0.922,2.17,1.789,3.315,2.606c1.939,1.077,3.879,2.154,5.817,3.232c1.104,1.089,1.759,2.402,1.964,3.943c-0.317,1.541-1.065,2.823-2.25,3.863c-1.449,0.653-2.952,0.852-4.522,0.604c-4.712-2.67-10.856-3.046-13.756-8.615c-0.554-2.585,0.075-4.804,2.029-6.619C72.678,14.222,74.132,14.384,75.458,15.705z"/>
<path fill="#2F4A2F" d="M77.978,78.736c-0.862,1.999-1.723,3.995-2.579,5.988c0.007,0-0.108-0.223-0.108-0.223c-1.008,0.896-2.01,1.803-3.003,2.719c-1.026,0.283-2.055,0.567-3.082,0.852c-2.157-0.303-4.313-0.607-6.07-2.075c-0.89-1.163-1.412-2.481-1.618-3.928c-0.01-1.44,0.242-2.838,0.75-4.185c0.713-1.238,1.619-2.318,2.717-3.237c1.194-0.751,2.393-1.505,3.587-2.262c1.254-0.665,2.597-1.04,4.01-1.169c1.399,0.223,2.653,0.785,3.757,1.673c0.83,1.129,1.348,2.396,1.597,3.771C77.949,77.354,77.962,78.046,77.978,78.736z"/>
<path fill="#808080" d="M93.293,62.308c-1.904-0.817-3.809-1.639-5.713-2.456c-0.859-0.985-1.372-2.118-1.483-3.427c0.42-2.033,1.604-3.415,3.526-4.176c1.318-0.177,2.512,0.129,3.581,0.922C93.234,56.217,93.262,59.263,93.293,62.308z"/>
<path fill="#666666" d="M12.67,78.071c-1.901-2.111-3.804-4.224-5.706-6.339c0.826-2.014,1.544-4.129,4.142-4.541c1.506,0.172,2.832,0.745,3.985,1.73c0.879,1.248,1.343,2.637,1.454,4.15c-0.244,1.511-0.862,2.845-1.852,4.008C14.019,77.411,13.345,77.742,12.67,78.071z"/>
<path fill="#385038" d="M72.358,15.558c0.119,2.109,0.238,4.218,0.357,6.327c-0.46,0.628-0.919,1.26-1.38,1.895c-2.222,1.272-4.446,1.263-6.682,0.03c-1.256-1.031-2.09-2.334-2.513-3.903c-0.162-1.608,0.158-3.116,0.952-4.523c1.025-1.239,2.319-2.063,3.877-2.472c0.773-0.091,1.551-0.186,2.325-0.28c1.049-0.116,2.074-0.016,3.079,0.302c0.701,0.589,0.93,1.172,0.693,1.755C72.829,15.269,72.594,15.558,72.358,15.558z"/>
<path fill="#808080" d="M47.325,8.753c0.113-0.964,0.233-1.926,0.363-2.887c3.05-1.331,6.05-1.73,8.908,0.485c1.032,0.003,2.032,0.192,2.996,0.568c0.414,1.828-0.039,3.405-1.359,4.739C53.569,14.548,50.032,13.212,47.325,8.753z"/>
<path fill="#616161" d="M40.952,90.101c-1.123,0.231-2.246,0.461-3.369,0.692c-2.03-1.037-4.058-2.078-6.087-3.115c0.885-0.974,1.77-1.947,2.653-2.924c0.876-0.992,1.962-1.565,3.293-1.651c2.022,0.452,3.331,1.715,4.092,3.599C42.083,87.961,41.889,89.094,40.952,90.101z"/>
<path fill="#3B533B" d="M66.88,84.644c0.775,1.142,1.549,2.286,2.324,3.428c-2.14,0.912-4.28,1.824-6.42,2.737c-0.54-0.372-1.08-0.745-1.622-1.12c-0.598-1.209-0.754-2.479-0.524-3.8c0.625-1.189,1.531-2.09,2.762-2.648C64.768,83.192,65.928,83.661,66.88,84.644z"/>
<path fill="#555555" d="M93.137,34.308c0.111,4.34,0.222,8.679,0.333,13.019c-1.479,0.57-2.932,0.513-4.361-0.174c-1.178-1.014-2.003-2.262-2.477-3.745c-0.397-3.119-0.427-6.143,2.121-8.53C90.134,34.074,91.596,33.881,93.137,34.308z"/>
<path fill="#747474" d="M50.402,96.54c0.143-2.061,0.282-4.12,0.423-6.18c0.911-0.91,2.008-1.423,3.293-1.532c1.247,0.299,2.283,0.934,3.078,1.946c0.486,1.264,0.22,2.372-0.693,3.349C54.47,94.929,52.436,95.735,50.402,96.54z"/>
<path fill="#ACACAC" d="M56.596,6.351c-2.972-0.162-5.94-0.324-8.91-0.488c-0.166-0.677-0.253-1.37-0.256-2.072C50.485,4.645,53.539,5.497,56.596,6.351z"/>
<path fill="#2A412A" d="M6.686,31.083c0.813,0.269,1.629,0.525,2.452,0.766c2.799,1.202,5.451,2.481,3.32,6.287c-2.043,1.3-4.014,1.361-5.879-0.348C6.614,35.554,6.651,33.317,6.686,31.083z"/>
<path fill="#4D4D4D" d="M6.896,56.204c0.802,0,1.605,0,2.408-0.003c1.134-1.046,2.417-1.349,3.877-0.778c0.973,1.13,1.449,2.448,1.494,3.935c-0.505,2.282-1.845,3.836-4.051,4.629c-1.517,0.141-2.752-0.405-3.748-1.541C6.884,60.365,6.89,58.286,6.896,56.204z"/>
<path fill="#6C756C" d="M6.579,37.787c2.417,0.211,4.834,0.424,7.252,0.635l0.091,0.751l-0.59,0.473c-2.146,0.382-4.289,0.763-6.435,1.145C6.391,39.832,6.284,38.831,6.579,37.787z"/>
<path fill="#2B492B" d="M6.876,62.446c0.861,0.037,1.721,0.055,2.583,0.058c1.091-1.217,2.31-1.36,3.656-0.439c0.533,1.426,0.388,2.78-0.432,4.06c-1.98,1.263-3.957,1.565-5.922-0.034C6.8,64.875,6.838,63.661,6.876,62.446z"/>
<path fill="#808080" d="M6.762,66.089c1.944-0.042,3.889-0.085,5.833-0.128l0.982,0.985l-0.171,1.38l-1.352,0.326c-0.86,0.07-1.721,0.146-2.58,0.227c-0.836,1.214-1.686,1.224-2.551,0.033C6.522,67.991,6.469,67.051,6.762,66.089z"/>
<path fill="#449044" d="M62.522,9.476c2.257,1.053,4.516,2.103,6.773,3.156l-1.012-0.223l-1.036,0.015c-0.533,1.078-1.373,1.764-2.566,2.002c-1.158-0.271-2.108-0.863-2.824-1.822c-0.116-0.571-0.23-1.138-0.345-1.709C61.848,10.422,62.185,9.95,62.522,9.476z"/>
<path fill="#818181" d="M93.278,25.077c0.026,2.072,0.054,4.141,0.081,6.213c-1.32,0.629-2.522,0.421-3.624-0.51c-0.687-1.218-0.841-2.508-0.531-3.863c0.229-0.638,0.458-1.276,0.688-1.914c0.572-0.366,1.145-0.729,1.717-1.092C92.165,24.299,92.721,24.686,93.278,25.077z"/>
<path fill="#656565" d="M56.502,94.123c-0.228-1.028-0.454-2.058-0.682-3.086c0.491-0.488,0.982-0.979,1.476-1.471c0.691-0.058,1.384-0.116,2.076-0.174c0.575,0.388,1.152,0.775,1.729,1.163c0.549,0.161,1.11,0.247,1.683,0.253C60.691,91.913,58.596,93.018,56.502,94.123z"/>
<path fill="#585858" d="M19.427,81.391c-2.252-1.107-4.506-2.212-6.756-3.32l-0.087,0.04c0.917-0.946,2.021-1.548,3.314-1.804c1.309,0.217,2.394,0.83,3.251,1.84c0.107,0.635,0.214,1.272,0.321,1.907L19.427,81.391z"/>
<path fill="#ACACAC" d="M18.687,18.439c0.544,0.684,1.089,1.367,1.939,2.436c-1.726,0.65-3.273,1.233-4.82,1.819c0.001-0.003,0.068-1.505,0.068-1.505c-0.047-0.589-0.095-1.178-0.14-1.77C16.709,19.068,17.695,18.742,18.687,18.439z"/>
<path fill="#AEAEAE" d="M40.336,6.934c-1.115,0.864-2.231,1.73-3.345,2.597C38.105,8.664,39.221,7.798,40.336,6.934z"/>
<path fill="#919191" d="M59.646,9.071c-0.055-0.717-0.073-1.435-0.054-2.155c0.979,0.854,1.958,1.709,2.933,2.563c-0.003-0.003-0.033-0.143-0.033-0.143c-0.514,0.384-1.028,0.769-1.543,1.153C60.514,10.016,60.08,9.543,59.646,9.071z"/>
<path fill="#9E9E9E" d="M91.021,47.203c0.822-0.058,1.638-0.016,2.449,0.125c0.377,0.937,0.339,1.855-0.114,2.756c-0.938,0.796-1.866,0.747-2.786-0.027c-0.173-0.513-0.344-1.029-0.516-1.545C90.377,48.076,90.699,47.639,91.021,47.203z"/>
<path fill="#919191" d="M91.322,50.263c0.676-0.067,1.354-0.128,2.034-0.18c-0.051,1.031-0.101,2.06-0.151,3.088c-0.876-0.003-1.75,0.049-2.62,0.159c0,0-0.868-1.169-0.869-1.169c-0.002,0,0.226-1.438,0.226-1.438C89.939,50.724,91.322,50.263,91.322,50.263z"/>
<path fill="#ACACAC" d="M72.358,15.558c-0.302-0.875-0.298-1.751,0.017-2.625c1.029,0.925,2.056,1.847,3.084,2.771C74.425,15.635,73.393,15.586,72.358,15.558z"/>
<path fill="#ACACAC" d="M81.812,18.815c-1.104-0.87-2.209-1.736-3.315-2.606C79.603,17.078,80.707,17.945,81.812,18.815z"/>
<path fill="#B3B3B3" d="M15.734,19.419c0.014,0.595,0.061,1.187,0.14,1.773c-1.156,0.259-2.314,0.525-3.471,0.787C13.513,21.128,14.623,20.274,15.734,19.419z"/>
<path fill="#999999" d="M87.779,25.101c-0.008-1.022-0.057-2.039-0.149-3.055c1.026,0.165,2.052,0.333,3.077,0.498c0.934,0.558,1.252,1.126,0.954,1.706c-0.298,0.586-0.6,0.879-0.908,0.879l-0.063-0.027C89.719,26.744,88.749,26.744,87.779,25.101z"/>
<path fill="#8D8D8D" d="M90.752,25.129c-0.005-0.86-0.019-1.724-0.046-2.584c0.857,0.845,1.714,1.688,2.571,2.533C92.436,25.098,91.593,25.114,90.752,25.129z"/>
<path fill="#848484" d="M6.924,68.912c0.85-0.009,1.701-0.019,2.551-0.033c-0.836,0.952-1.674,1.904-2.51,2.853C6.516,70.798,6.502,69.859,6.924,68.912z"/>
<path fill="#5B5B5B" d="M91.099,77.668c0.632-0.824,1.362-1.551,2.191-2.177C92.561,76.218,91.829,76.942,91.099,77.668z"/>
<path fill="#707070" d="M91.452,31.178c0.635,0.049,1.27,0.088,1.906,0.113c0.378,1.038,0.307,2.045-0.22,3.018c-0.896,0.064-1.782,0.183-2.661,0.357c-0.285-0.464-0.569-0.924-0.854-1.385c0.092-0.534,0.187-1.068,0.28-1.605C90.419,31.51,90.937,31.342,91.452,31.178z"/>
<path fill="#3A7B3A" d="M72.287,87.22c1.001-0.906,2.002-1.813,3.003-2.719C74.289,85.408,73.288,86.314,72.287,87.22z"/>
<path fill="#7A7A7A" d="M81.934,62.351c-0.206,2.173-0.411,4.346-0.617,6.521c-0.635,0.357-1.271,0.715-1.907,1.074c-1.493-0.143-2.79-0.735-3.917-1.712c-1.375-1.913-1.584-4.034-1.157-6.277c0.588-1.373,1.47-2.512,2.693-3.378c1.408-0.54,2.83-0.54,4.257-0.073c0.805,0.741,1.169,1.56,1.093,2.45C82.299,61.887,82.151,62.351,81.934,62.351z"/>
<path fill="#304B30" d="M81.934,62.351c-0.282-0.833-0.502-1.682-0.662-2.548c-0.692-0.65-0.97-1.34-0.833-2.072c0.141-0.754,0.313-1.129,0.518-1.129c1.077-0.751,2.227-0.882,3.445-0.394c0.687,0.671,0.939,1.363,0.762,2.078c-0.182,0.729-0.38,1.092-0.594,1.092C83.691,60.368,82.812,61.36,81.934,62.351z"/>
<path fill="#9E9E9E" d="M84.57,59.378c-0.027-1,0.039-1.998,0.198-2.987c0,0,0.841-0.979,0.841-0.982l1.292-0.003c0.002,0,0.818,1.001,0.818,1.001c-0.046,1.145-0.092,2.288-0.139,3.439C86.548,59.87,85.544,59.711,84.57,59.378z"/>
<path fill="#838383" d="M84.138,69.547c-0.989,0.839-1.978,1.679-2.967,2.518c-0.325-0.586-0.648-1.175-0.974-1.761c0.446-0.5,0.893-1.001,1.339-1.502c0,0-0.222,0.074-0.22,0.07C82.264,69.065,83.203,69.29,84.138,69.547z"/>
<path fill="#666666" d="M28.618,74.946c-1.094,1.099-2.188,2.194-3.284,3.29c-0.766-0.32-1.533-0.641-2.301-0.961c-2.695-2.18-4.727-4.706-4.489-8.444c0.647-2.563,2.306-4.367,4.39-5.848c1.532-0.717,3.137-0.937,4.803-0.662c2.371,0.754,4.3,2.143,5.795,4.123c0.667,1.468,0.83,3,0.485,4.581C33.021,73.429,30.89,74.284,28.618,74.946z"/>
<path fill="#5D5D5D" d="M19.47,80.054c-0.203-0.607-0.394-1.217-0.569-1.834c0.271-0.464,0.545-0.931,0.816-1.395c0.954-0.562,1.984-0.751,3.076-0.613c0.888,0.616,1.708,1.31,2.463,2.081c0,0,0.078-0.055,0.079-0.058C23.38,78.843,21.426,79.447,19.47,80.054z"/>
<path fill="#808080" d="M37.28,84.266c-1.041,0.161-2.082,0.323-3.125,0.488c-0.005,0,0.246-0.708,0.246-0.708c-0.737-0.531-0.99-1.068-0.76-1.617c0.232-0.556,0.467-0.83,0.708-0.83c0.171-0.992,0.334-1.984,0.491-2.976c0.503-0.431,1.005-0.857,1.509-1.285c1.385,0.144,2.438,0.79,3.111,2.029c0.273,1.337,0.108,2.612-0.493,3.836C38.404,83.558,37.843,83.911,37.28,84.266z"/>
<path fill="#6C6C6C" d="M28.618,74.946c0.717-0.952,1.433-1.907,2.15-2.862c0.455,0.439,0.91,0.879,1.366,1.318c-0.287,0.564-0.574,1.129-0.859,1.693C30.39,75.035,29.505,74.986,28.618,74.946z"/>
<path fill="#606060" d="M34.84,78.623c-1.187-1.179-2.376-2.354-3.564-3.531c0,0.003-0.031,0.089-0.031,0.089c1.105-1.008,2.263-1.071,3.472-0.195c0.83,1.221,0.806,2.383-0.217,3.488L34.84,78.623z"/>
<path fill="#939393" d="M34.348,81.599c0.026,0.814,0.045,1.629,0.055,2.447c-0.452-0.583-0.9-1.163-1.349-1.742C33.486,82.069,33.918,81.833,34.348,81.599z"/>
<path fill="#5E5E5E" d="M50.257,81.586c-1.17-0.226-2.339-0.451-3.508-0.678c-1.966-1.818-1.854-3.842-0.58-5.978c1.172-1.014,2.528-1.548,4.074-1.615c2.388,0.479,4.045,1.841,4.94,4.111c0.174,1.522-0.144,2.944-0.946,4.251C52.891,82.584,51.563,82.557,50.257,81.586z"/>
<path fill="#6C6C6C" d="M40.797,87.629c-1.17-1.12-2.342-2.24-3.516-3.36c-0.001-0.003,0.21,0.247,0.21,0.247c1.41-1.15,1.715-3.131,3.179-4.242c0.596-0.021,1.194-0.042,1.791-0.063c0.467,0.375,0.934,0.747,1.401,1.123c-0.104,2.139-0.208,4.278-0.31,6.418C42.575,89.048,41.653,89.076,40.797,87.629z"/>
<path fill="#315331" d="M50.257,81.586c0.908-0.214,1.825-0.385,2.751-0.513c1.338-0.974,2.678-1.025,4.02-0.003c0.564,1.492,0.479,2.93-0.354,4.31c-2.188,1.382-4.294,1.187-6.331-0.327C50.314,83.897,50.284,82.744,50.257,81.586z"/>
<path fill="#919191" d="M50.342,85.053c1.977-0.073,3.952-0.149,5.929-0.223c0.388,0.476,0.773,0.952,1.161,1.429c-0.069,0.606-0.138,1.217-0.206,1.824c-1.027,0.708-2.167,1.068-3.413,1.08c-1.301,0.098-2.313-0.394-3.042-1.474C50.518,86.829,50.374,85.951,50.342,85.053z"/>
<path fill="#717171" d="M47.094,74.851c-0.113,2.023-0.228,4.044-0.342,6.061c-0.966,0.126-1.929,0.266-2.89,0.419c0,0.003,0.156,0.112,0.156,0.112c-1.038-0.824-1.767-1.858-2.136-3.137c0.105-1.334,0.62-2.484,1.542-3.452c0.612-0.223,1.222-0.445,1.834-0.668C45.87,74.409,46.482,74.628,47.094,74.851z"/>
<path fill="#6C6C6C" d="M40.797,87.629c0.921,0.03,1.84,0.069,2.757,0.122c-0.001,0,0.236,0.045,0.236,0.045c0.816,0.522,1.083,1.038,0.806,1.551c-0.278,0.507-0.554,0.76-0.832,0.76l-1.407,0.055c0,0-1.407-0.055-1.405-0.058C40.874,89.277,40.823,88.453,40.797,87.629z"/>
<path fill="#666666" d="M43.764,90.107c0.011-0.769,0.02-1.541,0.026-2.311l0.748,1.182L43.764,90.107z"/>
<path fill="#979797" d="M50.771,87.69c0.919,0.013,1.839,0.019,2.758,0.016c0.591,0.711,1.18,1.422,1.77,2.13c-0.886,0.26-1.772,0.516-2.659,0.772c-0.602-0.113-1.205-0.195-1.814-0.247C50.507,89.475,50.489,88.584,50.771,87.69z"/>
<path fill="#3C6C3C" d="M47.325,8.753c4.107,0.106,8.215,0.21,12.321,0.317l-0.235,1.031c0.614,1.15,0.979,2.375,1.104,3.674c-0.131,1.309-0.58,2.5-1.329,3.568c-0.854,0.934-1.84,1.718-2.949,2.322c-1.164,0.372-2.37,0.607-3.595,0.684c-1.201,0.049-2.413,0.079-3.623,0.088c-1.817,0.006-3.638,0-5.464-0.055c-1.241-0.058-2.46-0.231-3.667-0.528c-1.141-0.583-2.042-1.413-2.711-2.502c-0.36-1.245-0.287-2.469,0.159-3.674C40.664,12.037,43.993,10.395,47.325,8.753z"/>
<path fill="#ACACAC" d="M28.576,19.132c-0.312-1.065-0.146-2.051,0.493-2.957c1.952-0.385,3.903-0.772,5.856-1.157c0.32,0.586,0.641,1.175,0.961,1.764c-0.195,1.367-0.816,2.502-1.862,3.405C31.97,21.076,30.159,20.685,28.576,19.132z"/>
<path fill="#374C37" d="M37.334,13.679c0.073,0.647,0.185,1.285,0.333,1.917c-0.501,0.421-1.003,0.842-1.505,1.261c-0.56-0.336-1.12-0.675-1.68-1.014l0.442-0.824C35.624,14.366,36.427,13.92,37.334,13.679z"/>
<path fill="#919191" d="M81.171,72.065c-1.064,2.225-2.13,4.446-3.195,6.671c0.002,0,0.345-0.698,0.345-0.698c-0.983-0.83-1.614-1.868-1.835-3.144c0.055-1.297,0.551-2.396,1.484-3.296c1.229-0.567,2.365-0.391,3.421,0.427L81.171,72.065z"/>
<path fill="#364E36" d="M15.864,31.394c0.941-0.186,1.888-0.22,2.84-0.101c0.725-0.006,1.45-0.015,2.174-0.024c1.439,0.324,2.69,0.995,3.752,2.018c0.802,1.227,1.26,2.572,1.423,4.022c-0.121,1.45-0.607,2.768-1.442,3.955c-0.559,0.421-1.131,0.842-1.688,1.27c-1.328,0.446-2.683,0.503-4.036,0.128c-1.038-0.836-1.964-1.807-2.774-2.866c-0.856-0.992-1.473-2.13-1.871-3.381C13.923,34.47,13.917,32.618,15.864,31.394z"/>
<path fill="#606060" d="M15.864,31.394c-0.053,2.24-0.108,4.48-0.162,6.72c-0.708,0.049-1.415,0.098-2.121,0.146c0,0,0.244,0.174,0.248,0.168c-1.563-2.197-3.127-4.389-4.692-6.58C11.379,31.7,13.622,31.547,15.864,31.394z"/>
<path fill="#374837" d="M18.703,31.293c0.073-1.059,0.146-2.118,0.22-3.177c-0.001-0.003-0.174,0.229-0.174,0.229c1.439-1.349,3.189-1.688,5.084-1.566c1.302,0.195,2.19,0.925,2.726,2.112c0.03,1.272-0.319,2.42-1.109,3.424c-1.053,0.729-2.208,1.025-3.48,0.824c-1.189-0.394-2.263-0.992-3.206-1.819L18.703,31.293z"/>
<path fill="#2E4E2E" d="M13.096,56.748c-1.264-0.181-2.527-0.36-3.792-0.544c2.229-3.25,4.458-6.497,6.688-9.744c0,0,1.125-0.931,1.126-0.934c0.001,0,1.259-0.754,1.265-0.754c0.963-0.351,1.944-0.445,2.963-0.29c0.013,0.003,1.529-0.067,1.544-0.07c0.015-0.006,1.463-0.552,1.48-0.559c0.493-0.238,0.969-0.464,1.465-0.702c0.536-0.171,1.053-0.333,1.59-0.5c0.574-0.067,1.126-0.128,1.699-0.192c0.59-0.006,1.16-0.009,1.749-0.012c1.211,0.058,2.374,0.274,3.526,0.635c1.094,0.592,2.062,1.328,2.923,2.219c0.727,1.034,1.254,2.148,1.564,3.372c0.159,1.251,0.241,2.506,0.264,3.763c0.004,1.898-0.037,3.79-0.328,5.667c-0.213,0.596-0.427,1.19-0.639,1.782c-0.671,1.077-1.519,1.993-2.536,2.75c-1.662,1.017-3.478,1.278-5.383,1.074c-1.234-0.141-2.464-0.098-3.687,0.122c-0.587,0.18-1.178,0.36-1.766,0.54c-1.118,0.507-2.264,0.946-3.438,1.306c-1.186,0.336-2.396,0.428-3.621,0.306c-1.161-0.455-2.083-1.205-2.765-2.249c-0.571-1.08-1.004-2.216-1.3-3.402C13.677,59.107,13.48,57.913,13.096,56.748z"/>
<path fill="#808080" d="M18.851,47.111c-0.979-0.101-1.933-0.314-2.861-0.647c-0.29-2.109-0.58-4.217-0.87-6.323c0.62-0.235,1.241-0.47,1.862-0.711c0.449,0.491,0.894,0.982,1.341,1.477l1.167-0.256c1.109,0.857,1.634,2.002,1.651,3.39C20.786,45.368,20.043,46.406,18.851,47.111z"/>
<path fill="#020202" d="M13.581,38.261c0.742,0.488,1.447,0.439,2.118-0.144c0.003-0.003-0.167-0.592-0.167-0.592c1.047,0.711,1.379,1.401,1.004,2.069c-0.369,0.656-0.735,0.986-1.102,0.986l-0.314-0.439c-0.592-0.183-1.188-0.348-1.788-0.495L13.581,38.261z"/>
<path fill="#7C7C7C" d="M28.576,19.132c2.034-0.348,4.066-0.699,6.1-1.05c0.49,0.549,0.98,1.099,1.47,1.648c0.371,1.465,0.267,2.893-0.31,4.288c-0.933,1.172-2.089,2.039-3.502,2.551c-0.737,0.006-1.474,0.009-2.211,0.015c-0.637-0.372-1.271-0.748-1.908-1.12C28.336,23.356,28.455,21.244,28.576,19.132z"/>
<path fill="#9E9E9E" d="M25.286,27.997c-2.177,0.116-4.356,0.232-6.535,0.345c2.188-0.793,4.379-1.59,6.569-2.386C25.309,26.637,25.298,27.317,25.286,27.997z"/>
<path fill="#B1B1B1" d="M25.286,27.997c0.078-0.677,0.088-1.358,0.032-2.042c0.906-0.516,1.871-0.681,2.896-0.491c0.001,0-0.186-0.278-0.186-0.278c0.882,0.635,1.288,1.37,1.213,2.207c-0.078,0.885-0.233,1.328-0.468,1.331c-1.332,0.769-2.571,0.681-3.705-0.397L25.286,27.997z"/>
<path fill="#526952" d="M72.715,21.885c3.903,2.167,7.805,4.333,11.708,6.5c-0.368,0.534-0.734,1.068-1.102,1.602c-1.149,0.653-2.379,0.977-3.705,0.916c-1.285-0.256-2.558-0.552-3.824-0.888c-1.292-0.287-2.531-0.714-3.714-1.313c-1.001-0.916-1.637-2.039-1.962-3.348c0.152-1.346,0.646-2.545,1.484-3.604L72.715,21.885z"/>
<path fill="#949494" d="M87.779,25.101c0.972,0.018,1.945,0.021,2.914,0c0.014,0.998,0.04,1.999,0.075,2.997c-0.507,0.461-1.015,0.922-1.523,1.38c-0.486-0.482-0.974-0.965-1.46-1.447C87.714,27.055,87.713,26.078,87.779,25.101z"/>
<path fill="#585858" d="M84.423,28.385c1.12-0.116,2.24-0.235,3.361-0.354l-0.304,0.522c0.532,0.415,1.066,0.827,1.6,1.239c-0.203,0.644-0.406,1.285-0.606,1.926c-1.251,0.677-2.507,0.653-3.764,0.021c-0.677-0.754-0.922-1.526-0.737-2.316c0.187-0.796,0.386-1.196,0.6-1.196L84.423,28.385z"/>
<path fill="#717171" d="M72.051,75.287c-0.054,0.854-0.108,1.712-0.166,2.566c-0.634,1.206-1.589,1.492-2.821,0.995c-1.095-0.204-2.188-0.412-3.281-0.616c-0.572-0.498-1.145-0.995-1.715-1.495c-0.586-1.435-0.725-2.912-0.42-4.435c0.848-2.161,1.88-4.175,4.081-5.292c1.53-0.348,3.022-0.241,4.472,0.379c1.142,1.086,1.834,2.401,2.015,3.977C73.934,72.916,73.212,74.222,72.051,75.287z"/>
<path fill="#7B7B7B" d="M72.051,75.287c-0.015-1.117-0.03-2.237-0.046-3.354c1.058-1.114,2.26-1.304,3.612-0.571c0.256,0.65,0.511,1.297,0.766,1.947c-0.345,0.607-0.691,1.212-1.037,1.819C74.247,75.181,73.149,75.233,72.051,75.287z"/>
<path fill="#A7A7A7" d="M78.222,74.964c-0.033,1.025,0,2.051,0.099,3.076c-0.991-0.971-1.983-1.941-2.975-2.911l-0.233,0.235c0.435-0.708,0.871-1.416,1.306-2.124C77.02,73.814,77.62,74.387,78.222,74.964z"/>
<path fill="#2F432F" d="M65.783,78.233c-0.042,1.135-0.084,2.268-0.125,3.402c-0.607,0.366-1.216,0.732-1.823,1.099c-0.627-0.336-1.253-0.668-1.88-1.004c-0.567-1.37-0.496-2.71,0.209-4.016c1.349-0.8,2.556-0.62,3.616,0.54L65.783,78.233z"/>
<path fill="#3B533B" d="M69.064,78.849c0.934-0.351,1.873-0.681,2.821-0.992C70.945,78.187,70.003,78.516,69.064,78.849z"/>
<path fill="#969696" d="M62.499,81.263c1.053,0.125,2.105,0.247,3.158,0.372c0.404,1.004,0.808,2.005,1.218,3.009c-1.463-0.094-2.931-0.188-4.399-0.283c-0.254-0.52-0.509-1.035-0.764-1.554C61.974,82.291,62.237,81.779,62.499,81.263z"/>
<path fill="#A1A1A1" d="M90.584,53.33c-0.955,1.025-1.91,2.051-2.865,3.076l0.021,0.076c-0.745-0.692-1.035-1.422-0.871-2.191c0.167-0.787,0.362-1.184,0.587-1.184c1.196-0.882,2.316-0.748,3.368,0.259L90.584,53.33z"/>
<path fill="#3B3B3B" d="M18.549,62.901c1.299-0.013,2.599-0.027,3.897-0.043c1.456,1.864,1.191,3.741,0.044,5.624c0.922,3.271,1.843,6.54,2.765,9.812c-1.135-0.019-2.272-0.039-3.407-0.058c-0.576-0.833-1.364-1.321-2.365-1.468c-0.922-0.254-1.789-0.635-2.597-1.145c-0.853-0.437-1.61-1.004-2.271-1.7c-0.648-0.692-1.328-1.352-2.037-1.983c-0.172-1.096-0.345-2.191-0.52-3.287c-0.003,0,0.537,0.229,0.537,0.229c0.827-0.764,1.632-1.548,2.414-2.356C16.18,65.308,17.388,64.127,18.549,62.901z"/>
<path fill="#3A4F3A" d="M12.578,71.94c1.002,0.104,2.005,0.214,3.006,0.326c0.873,0.705,1.455,1.6,1.748,2.683c0.396,1.041,0.526,2.112,0.387,3.217c-1.712-0.019-3.424-0.037-5.136-0.055C12.581,76.054,12.58,73.996,12.578,71.94z"/>
<path fill="#418441" d="M71.601,21.75c0.052,1.212,0.103,2.423,0.154,3.635c-1.57,1.694-3.401,1.901-5.434,0.955c-1.012-0.967-1.535-2.151-1.57-3.552c0.41-0.537,0.821-1.071,1.231-1.608C67.855,21.369,69.729,21.558,71.601,21.75z"/>
<path fill="#449044" d="M66.273,12.577c0,0,0.984-0.153,0.979-0.153c-0.516,1.126-1.026,2.255-1.538,3.385c-0.366-0.62-0.732-1.236-1.099-1.855C65.168,13.495,65.72,13.035,66.273,12.577z"/>
<path fill="#525252" d="M65.714,15.809c0.02,0.961,0.033,1.926,0.04,2.887c-0.896,1.071-1.904,1.245-3.049,0.388c-0.667-1.147-0.688-2.307-0.067-3.476c1.08-0.824,2.187-0.903,3.325-0.122L65.714,15.809z"/>
<path fill="#3B673B" d="M63.752,18.607c0.668,0.031,1.335,0.061,2.002,0.091c0.096,0.827,0.172,1.657,0.229,2.487c0-0.006-0.345,1.108-0.345,1.108c-1.303,0.601-2.503,0.409-3.627-0.495c-0.7-1.346-0.822-2.71-0.344-4.196c0.715-0.531,1.392-0.992,2.069-1.453C63.742,16.972,63.747,17.789,63.752,18.607z"/>
<path fill="#969696" d="M62.476,84.361c-0.038,1.059-0.077,2.114-0.115,3.174c-0.447,0.527-0.893,1.053-1.337,1.58c-1.39-0.436-2.283-1.342-2.601-2.779c0.84-2.078,1.912-3.574,4.326-1.736L62.476,84.361z"/>
<path fill="#868686" d="M59.957,87.476c0.801,0.019,1.602,0.04,2.403,0.059c-0.418,1.007-0.837,2.014-1.258,3.021c-0.001,0-0.049,0.244-0.049,0.244C58.118,90.54,57.752,89.433,59.957,87.476z"/>
<path fill="#969696" d="M90.478,34.665c0.055,2.719,0.108,5.436,0.163,8.154c-0.735,1.355-1.848,2.164-3.398,2.347c-2.391-0.272-4.104-1.52-5.244-3.607c-0.417-1.461-0.417-2.92-0.012-4.382c0.738-1.309,1.786-2.313,3.096-3.045c0.687-0.25,1.379-0.503,2.067-0.754c1.538-0.43,2.751,0.018,3.638,1.352L90.478,34.665z"/>
<path fill="#2F3F2F" d="M87.345,43.107c1.099-0.092,2.197-0.186,3.296-0.281c0.127,1.456,0.252,2.917,0.38,4.376l-0.22-0.125c-0.87,0.921-1.881,1.117-3.033,0.589c-0.864-0.843-1.311-1.868-1.342-3.073C86.734,44.098,87.04,43.601,87.345,43.107z"/>
<path fill="#6B6B6B" d="M52.639,90.608c0.345-0.952,0.641-1.92,0.888-2.902c0.829-0.073,1.653-0.162,2.477-0.263c1.109,0.445,1.59,1.044,1.443,1.801c-0.16,0.83-0.389,1.248-0.689,1.248c0,0-0.928,0.543-0.932,0.546C54.76,90.894,53.7,90.751,52.639,90.608z"/>
<path fill="#808080" d="M13.096,56.748c0.783,0.888,1.564,1.776,2.347,2.664c-0.444,0.494-0.888,0.985-1.331,1.479c-0.5-0.436-1.001-0.872-1.5-1.309C12.725,58.631,12.887,57.685,13.096,56.748z"/>
<path fill="#316631" d="M12.313,62.696c-0.952-0.052-1.902-0.115-2.853-0.192c1.05-0.973,2.101-1.946,3.152-2.92l0.14-0.214C14.407,60.715,14.26,61.824,12.313,62.696z"/>
<path fill="#5C5C5C" d="M12.313,62.696c0.146-1.107,0.293-2.215,0.439-3.326c0.899,0.027,1.796,0.043,2.692,0.04c0.202,0.955,0.342,1.919,0.417,2.893c0.9,0.778,1.262,1.614,1.088,2.512c-0.18,0.925-0.403,1.386-0.667,1.389c-1.395,1.01-2.683,0.943-3.85-0.375c0,0,0.16,0.131,0.162,0.134C12.501,64.872,12.406,63.783,12.313,62.696z"/>
<path fill="#3A4F3A" d="M12.432,65.828c1.106-0.04,2.213-0.08,3.319-0.119c0.865,0.283,1.283,0.729,1.257,1.343c-0.03,0.695-0.156,1.044-0.375,1.044c-1.346,0.262-2.691,0.524-4.037,0.787C12.576,67.863,12.521,66.843,12.432,65.828z"/>
<path fill="#3A623A" d="M59.665,11.811c-0.05-0.58-0.136-1.15-0.256-1.715c1.028-0.25,2.055-0.507,3.082-0.76c0.032,1.025,0.02,2.054-0.036,3.079c-0.335,0.442-0.669,0.885-1.003,1.327c-0.545-0.091-1.091-0.186-1.638-0.277C59.766,12.912,59.716,12.36,59.665,11.811z"/>
<path fill="#3E773E" d="M65.963,15.485c-0.822,0.122-1.648,0.21-2.477,0.269c-0.61-0.345-1.22-0.689-1.83-1.035c0.254-0.656,0.507-1.309,0.761-1.962l0.039-0.342c1.267,0.055,2.534,0.11,3.809,0.162C66.108,13.538,66.005,14.509,65.963,15.485z"/>
<path fill="#636363" d="M87.574,30.936c-0.025-0.793-0.056-1.59-0.093-2.383c1.096-0.149,2.191-0.302,3.287-0.452c0.226,1.022,0.45,2.051,0.681,3.076c0.004,0-1.186,0.427-1.186,0.427C89.022,32.777,88.142,32.487,87.574,30.936z"/>
<path fill="#2F482F" d="M56.757,90.492c-0.252-1.017-0.502-2.032-0.754-3.049l0.667,0.32c0.813-1.721,1.601-1.709,2.36,0.037l0.927-0.324c0.361,1.108,0.723,2.216,1.091,3.324C59.621,90.699,58.19,90.595,56.757,90.492z"/>
<path fill="#626262" d="M17.719,78.165c-0.659-0.735-1.186-1.557-1.579-2.463c0.502-1.571,1.428-1.983,2.851-1.047l0.003,1.02c0.119,0.656,0.236,1.31,0.354,1.965l-0.447,0.58L17.719,78.165z"/>
<path fill="#346234" d="M88.163,46.918c0.882,0.031,1.761,0.083,2.64,0.156c0.171,1.065,0.343,2.127,0.517,3.189c0.002,0-1.161-0.293-1.161-0.293c-1.029,0.772-1.989,0.659-2.89-0.226c-0.122-0.556-0.244-1.114-0.366-1.669C87.323,47.691,87.743,47.303,88.163,46.918z"/>
<path fill="#315531" d="M87.608,50.046c0.852,0.016,1.703-0.012,2.553-0.076c0.22,1.133,0.439,2.262,0.662,3.396c0.002,0-1.489-0.052-1.489-0.052l-1.487,0.098c0,0-1.179-0.857-1.18-0.857c-0.002,0.003-0.063-1.456-0.064-1.456C86.601,51.099,87.608,50.046,87.608,50.046z"/>
<path fill="#315331" d="M87.574,30.936c0.893,0.25,1.79,0.47,2.692,0.666c0.172,1.043,0.346,2.084,0.521,3.128c0.001,0-1.485-0.073-1.485-0.073l-1.483,0.106c-0.757-0.622-1.019-1.251-0.787-1.895c0.235-0.65,0.475-0.973,0.721-0.973L87.574,30.936z"/>
<path fill="#346334" d="M77.857,62.626c0.111,2.117,0.224,4.238,0.333,6.356c-0.626,0.274-1.251,0.549-1.877,0.827c-1.277-0.574-2.228-1.492-2.846-2.747c-0.252-1.379,0.008-2.664,0.708-3.869C75.29,62.285,76.513,62.058,77.857,62.626z"/>
<path fill="#315531" d="M81.443,56.318c-0.057,1.16-0.112,2.319-0.169,3.482c-0.002,0.003-1.418-0.076-1.418-0.076l-1.414,0.106c-0.417-0.409-0.832-0.814-1.248-1.221c-0.146-1.218,0.221-2.249,1.103-3.101c0.579-0.073,1.157-0.146,1.733-0.22C80.501,55.631,80.972,55.976,81.443,56.318z"/>
<path fill="#346234" d="M77.857,62.626c-0.755-0.043-1.51-0.095-2.264-0.15c-0.453-0.461-0.908-0.921-1.363-1.385c0.116-0.639,0.232-1.276,0.349-1.917c0.563-0.323,1.124-0.646,1.688-0.974c0.588,0.278,1.175,0.556,1.763,0.833c0,0,0.409,0.791,0.41,0.794C78.3,60.774,78.105,61.704,77.857,62.626z"/>
<path fill="#2F432F" d="M81.391,72.025c-1.091-0.052-2.184-0.106-3.274-0.158c-0.418-0.537-0.835-1.074-1.256-1.611c0.505-0.455,1.014-0.906,1.521-1.361c0,0-0.187,0.086-0.189,0.089c1.112-0.058,2.228-0.119,3.344-0.181C81.488,69.876,81.44,70.951,81.391,72.025z"/>
<path fill="#737373" d="M84.768,56.391c-1.107-0.024-2.217-0.049-3.325-0.073l0.094-0.064c-0.881-1.195-0.765-2.334,0.207-3.418c0.638-0.191,1.272-0.384,1.909-0.573c0.591,0.309,1.18,0.616,1.767,0.928c0.542,1.358,0.244,2.496-0.891,3.415L84.768,56.391z"/>
<path fill="#3A3A3A" d="M84.529,56.605c-0.051-1.056-0.103-2.112-0.153-3.168c0.938-1.224,1.984-1.26,3.119-0.277c0,0,0.345,0.25,0.348,0.25c-0.164,1.02-0.201,2.042-0.104,3.07C86.669,56.523,85.598,56.565,84.529,56.605z"/>
<path fill="#2D552D" d="M34.601,75.105c-1.118,0.024-2.238,0.049-3.357,0.076c-0.159-1.035-0.315-2.066-0.476-3.098c0.054-1.182,0.108-2.359,0.162-3.537c-0.722-1.196-1.23-2.475-1.488-3.854c0.255-1.456,1.042-2.512,2.37-3.171c1.423-0.18,2.843-0.244,4.278-0.171c1.46,0.271,2.744,0.886,3.872,1.85c0.383,0.629,0.757,1.257,1.138,1.889c0.333,1.465,0.271,2.912-0.176,4.343c-0.635,1.34-1.437,2.573-2.406,3.696c-0.607,0.421-1.213,0.842-1.82,1.263C35.999,74.628,35.301,74.867,34.601,75.105z"/>
<path fill="#808080" d="M22.491,68.482c-0.015-1.873-0.029-3.75-0.044-5.624c0.888-0.149,1.777-0.284,2.67-0.403c0.713,0.599,1.01,1.252,0.89,1.96c-0.124,0.732-0.287,1.102-0.491,1.102C24.508,66.504,23.499,67.494,22.491,68.482z"/>
<path fill="#545454" d="M25.515,65.516c-0.212-1.011-0.346-2.029-0.4-3.062c0.001,0-0.183,0.189-0.183,0.189c0.574-0.437,1.147-0.873,1.72-1.313c0.673,0.257,1.348,0.51,2.022,0.767c0.264,0.668,0.529,1.34,0.795,2.008c-0.522,0.497-1.042,0.992-1.564,1.489C27.108,65.583,26.311,65.559,25.515,65.516z"/>
<path fill="#858585" d="M30.923,65.845c0.241,0.9,0.244,1.798,0.009,2.698c-1.009-0.979-2.016-1.962-3.026-2.948c-0.001,0,0.403,0.198,0.403,0.198c0.449-0.711,0.898-1.422,1.349-2.133C30.079,64.39,30.501,65.117,30.923,65.845z"/>
<path fill="#838383" d="M19.347,77.64c-0.177-0.644-0.296-1.3-0.354-1.965c0.952,0.854,1.904,1.706,2.855,2.561C21.003,78.086,20.17,77.888,19.347,77.64z"/>
<path fill="#293B29" d="M34.499,78.474c0.034-1.123,0.067-2.246,0.102-3.369l-0.167,0.201c0.854-1.022,1.558-2.14,2.11-3.354c0.534-0.4,1.066-0.797,1.601-1.193c1.375-0.08,2.604,0.289,3.671,1.175c0.774,1.159,1.015,2.42,0.728,3.781c-0.159,0.655-0.316,1.309-0.473,1.965c-0.422,0.525-0.845,1.05-1.27,1.575c-1.352,0.641-2.501,0.348-3.471-0.757l-1.415-0.08L34.499,78.474z"/>
<path fill="#326932" d="M37.33,78.498c1.129-0.098,2.258-0.195,3.389-0.296c0.539,0.641,1.077,1.281,1.616,1.922c-0.484,0.684-0.967,1.367-1.451,2.048c-1.131,0.781-2.26,1.563-3.391,2.344C37.438,82.511,37.383,80.503,37.33,78.498z"/>
<path fill="#888888" d="M49.994,74.992c-0.966-0.049-1.932-0.095-2.899-0.138c-0.001-0.003,0.091,0.217,0.091,0.217c-1.436-0.51-2.743-1.248-3.926-2.212c-0.328-0.688-0.655-1.371-0.983-2.058c0.081-1.58,0.707-2.901,1.878-3.97c2.229-1.139,4.402-1.047,6.526,0.277c1.039,1.19,1.642,2.563,1.741,4.147c-0.227,0.738-0.452,1.478-0.68,2.216C51.161,73.978,50.579,74.485,49.994,74.992z"/>
<path fill="#377437" d="M56.405,81.461c-1.131-0.125-2.263-0.253-3.395-0.382c-0.065-1.074-0.13-2.145-0.194-3.216c-0.761-1.392-0.618-2.683,0.434-3.873c1.422-0.479,2.841-0.504,4.262,0c2.845,1.883,3.476,4.522,2.625,7.666C58.834,82.701,57.592,82.581,56.405,81.461z"/>
<path fill="#767676" d="M53.246,75.19c-0.067,0.903-0.211,1.795-0.429,2.674c-0.941-0.959-1.882-1.914-2.821-2.872c-0.002,0-0.017,0.089-0.017,0.089C51.107,73.942,52.198,73.914,53.246,75.19z"/>
<path fill="#2B492B" d="M40.884,82.172c-0.055-1.321-0.11-2.646-0.165-3.967c0-0.003-0.003-0.049-0.003-0.049c0.977-1.648,1.766-1.565,2.372,0.253c0.31,1.014,0.621,2.023,0.931,3.033C42.972,81.687,41.929,81.931,40.884,82.172z"/>
<path fill="#304B30" d="M56.405,81.461c1.001-0.125,2.005-0.226,3.011-0.306c0.591-0.54,1.183-1.08,1.773-1.62c0.51,0.62,1.018,1.236,1.527,1.855c0,0-0.212-0.122-0.214-0.125c0.079,1.11,0.162,2.222,0.246,3.333c-1.239,1.067-2.479,2.133-3.718,3.201c-0.787-0.031-1.574-0.043-2.36-0.037c-0.145-0.977-0.279-1.956-0.399-2.933C56.317,83.707,56.361,82.584,56.405,81.461z"/>
<path fill="#606060" d="M43.826,71.961c1.12,1.037,2.24,2.075,3.361,3.109c-1.25,0.101-2.499,0.198-3.749,0.3c-0.27-0.607-0.54-1.212-0.812-1.819C43.026,73.023,43.426,72.493,43.826,71.961z"/>
<path fill="#364B36" d="M43.087,78.41c-0.794-0.058-1.583-0.141-2.37-0.25c-0.029-1.044,0-2.085,0.089-3.122c0.58-0.571,1.16-1.139,1.739-1.709c0.442,0.684,0.884,1.364,1.325,2.048c0,0-0.427-0.003-0.429-0.003C43.357,76.389,43.24,77.403,43.087,78.41z"/>
<path fill="#385138" d="M37.667,15.595c0.993,0.101,1.988,0.156,2.986,0.168c1.067,0.897,1.814,2.008,2.243,3.335c-0.043,1.398-0.488,2.643-1.399,3.714c-0.636,0.231-1.275,0.47-1.914,0.705c-0.659-0.152-1.323-0.302-1.982-0.455c-0.978-0.998-1.501-2.185-1.492-3.592c-0.119-1.41,0.335-2.604,1.366-3.58L37.667,15.595z"/>
<path fill="#374F37" d="M43.619,15.778c1.978-0.037,3.955-0.07,5.933-0.107c1.609,1.017,1.934,2.347,0.969,3.992c-2.141,1.636-4.379,1.736-6.709,0.43C42.577,18.705,42.513,17.267,43.619,15.778z"/>
<path fill="#808080" d="M50.442,18.763c-0.296-1.032-0.592-2.063-0.89-3.092l1.18,0.223c0.841-1.264,1.783-1.282,2.815-0.232c0.982,0.049,1.964,0.098,2.946,0.14c0.256,0.568,0.513,1.135,0.769,1.706c-0.293,1.254-0.953,2.258-2.035,2.979C53.227,21.034,51.563,20.646,50.442,18.763z"/>
<path fill="#858585" d="M53.547,15.662c-0.938,0.073-1.877,0.152-2.815,0.232C51.67,15.818,52.609,15.739,53.547,15.662z"/>
<path fill="#919191" d="M56.493,15.803c1.058-1.331,2.115-2.661,3.172-3.992l-0.229,1.236c0.472,0.531,0.943,1.059,1.416,1.59c-0.296,0.641-0.595,1.285-0.893,1.926c-1.429,0.577-2.637,0.311-3.589-0.94L56.493,15.803z"/>
<path fill="#438C43" d="M43.619,15.778c0.114,1.038,0.23,2.075,0.345,3.116c-1.069,1.136-2.138,1.193-3.204-0.006c-0.035-1.041-0.069-2.084-0.105-3.125C41.642,15.79,42.631,15.797,43.619,15.778z"/>
<path fill="#B4B4B4" d="M37.475,15.891c0.125,0.888,0.121,1.776-0.017,2.661c-0.281,0.861-0.56,1.722-0.84,2.579c-0.698-0.574-1.395-1.15-2.092-1.728c0,0,0.151-1.318,0.151-1.321c-0.042-0.748-0.106-1.495-0.193-2.24C35.48,15.763,36.478,15.782,37.475,15.891z"/>
<path fill="#2F432F" d="M78.222,74.964c-1.038,0.131-2.074,0.266-3.109,0.399c0.093-1.099,0.186-2.194,0.28-3.29c1.012-1.565,2.002-1.55,2.97,0.04c0,0-0.243-0.244-0.244-0.247C78.227,72.895,78.261,73.929,78.222,74.964z"/>
<path fill="#2C4D2C" d="M19.173,43.494c-0.108-0.971-0.004-1.92,0.314-2.844c0.72,0.091,1.439,0.171,2.159,0.238c0.256,0.623,0.514,1.242,0.771,1.865C21.571,44.022,20.49,44.269,19.173,43.494z"/>
<path fill="#606060" d="M18.763,31.321c1.042,0.034,2.083,0.067,3.124,0.101c0.401,0.479,0.801,0.958,1.201,1.437c-0.407,0.473-0.813,0.946-1.221,1.422C20.832,33.292,19.798,32.307,18.763,31.321z"/>
<path fill="#326C32" d="M22.121,38.096c-0.084-1.27-0.169-2.539-0.253-3.812c-0.001-0.003,0.029,0.195,0.029,0.195c0.97-0.921,2.016-1.016,3.135-0.278c0.719,1.068,0.794,2.197,0.313,3.378C24.388,38.48,23.312,38.651,22.121,38.096z"/>
<path fill="#848484" d="M15.435,40.58c-0.325-1.032-0.293-2.048,0.098-3.055c0.931,1.126,1.862,2.252,2.791,3.381C17.364,40.782,16.401,40.671,15.435,40.58z"/>
<path fill="#808080" d="M22.121,38.096c0.952-0.235,1.918-0.33,2.897-0.287c0.357,0.531,0.714,1.065,1.07,1.596c-0.189,0.613-0.377,1.227-0.566,1.84c-0.6,0.231-1.198,0.46-1.798,0.692c-0.488-0.418-0.975-0.836-1.461-1.254c0,0-0.614,0.207-0.615,0.207C21.847,39.967,22.005,39.036,22.121,38.096z"/>
<path fill="#808080" d="M25.068,28.327c1.088-0.024,2.176-0.049,3.264-0.073c1.294-0.824,2.423-0.638,3.387,0.559c0.29,3.879-1.869,4.642-5.116,4.028c-0.455-0.516-0.911-1.032-1.367-1.547C25.169,30.305,25.112,29.316,25.068,28.327z"/>
<path fill="#2C4B2C" d="M25.17,34.489c-1.09,0-2.178-0.003-3.27-0.006c0.061-1.022,0.06-2.045-0.009-3.064c1.112-0.04,2.228-0.082,3.345-0.125l0.148-0.18c0.378,0.589,0.757,1.178,1.137,1.767C26.071,33.417,25.62,33.952,25.17,34.489z"/>
<path fill="#575757" d="M33.684,59.736c0.202-0.854,0.37-1.715,0.502-2.585c0.615-1.352,1.466-2.529,2.561-3.543c1.355-1.901,3.055-3.234,5.478-3.43c1.529,0.204,2.892,0.793,4.091,1.758c1.492,1.834,2.002,3.991,2.073,6.292c-0.003,1.489-0.142,2.97-0.435,4.432c-0.587,1.376-1.479,2.526-2.63,3.479c-1.256,0.772-2.597,1.361-4.018,1.765c-1.488-0.254-2.713-0.977-3.709-2.103l0.189-0.455c-0.856-0.485-1.446-1.19-1.773-2.118c-0.549-0.76-1.119-1.501-1.708-2.23L33.684,59.736z"/>
<path fill="#636363" d="M22.263,40.684c0.859,0.079,1.719,0.122,2.582,0.125c3.383,0.821,5.347,2.405,3.325,6.146l0.007,0.116c-0.827,0.91-1.332,1.971-1.515,3.186c-0.304,1.19-0.908,2.2-1.811,3.03l-1.512,0.04l-1.512-0.04l0.186,0.19c-0.012-1.093-0.024-2.186-0.037-3.281c-1.129-1.004-1.939-2.334-3.235-3.167l0.111,0.083c0.105-1.206,0.212-2.411,0.32-3.616C20.203,42.557,21.233,41.62,22.263,40.684z"/>
<path fill="#344634" d="M28.17,46.955c-1.108-2.047-2.216-4.098-3.324-6.146c-0.001,0,0.572,0.064,0.572,0.064c0.702-1.23,1.333-2.493,1.895-3.796c0.574-0.421,1.147-0.836,1.723-1.257c1.436-0.259,2.811-0.091,4.119,0.568c1.068,0.988,1.799,2.182,2.196,3.583c0.064,1.447-0.209,2.823-0.873,4.117c-0.938,1.077-1.968,2.063-3.104,2.939C30.306,47.001,29.238,46.979,28.17,46.955z"/>
<path fill="#2A3C2A" d="M34.643,50.318c-0.046-1.113-0.09-2.228-0.136-3.341c0.253-0.708,0.508-1.413,0.763-2.121c1.244-2.023,3.09-3.235,5.313-3.943c1.546-0.125,2.996,0.202,4.367,0.9c1.143,1.031,1.886,2.31,2.293,3.784c0.05,1.501-0.304,2.914-1.044,4.218c-1.022,1.067-2.289,1.69-3.746,1.919c-1.398,0.208-2.806,0.434-4.206,0.672C36.875,52.015,35.679,51.304,34.643,50.318z"/>
<path fill="#2A432A" d="M33.756,62.503c-0.898,0.08-1.794,0.175-2.69,0.278c-1.112,1.333-2.03,1.142-2.777-0.357l0.191,0.211c-0.969-0.491-1.379-1.093-1.233-1.81c0.157-0.77,0.369-1.154,0.639-1.154c1.935,0.021,3.871,0.04,5.803,0.062c-0.005,0.003,1.129-0.162,1.129-0.162c0.403,0.699,0.806,1.396,1.208,2.097C35.27,61.946,34.513,62.226,33.756,62.503z"/>
<path fill="#606060" d="M16.633,68.095c-0.31-0.791-0.604-1.588-0.882-2.387c0.037-1.136,0.073-2.271,0.11-3.406c0.899,0.187,1.796,0.385,2.688,0.599C17.91,64.631,17.271,66.365,16.633,68.095z"/>
<path fill="#737373" d="M34.643,50.318c0.871-0.049,1.744-0.055,2.615-0.021c2.515,1.874,2.146,3.932,0.377,6.07c-1.15,0.26-2.301,0.519-3.45,0.781c0.001,0.003,0.347-0.86,0.347-0.86c-0.826-0.738-1.109-1.486-0.85-2.243c0.261-0.757,0.526-1.139,0.796-1.139C34.469,52.039,34.524,51.175,34.643,50.318z"/>
<path fill="#293529" d="M31.374,47.025c0.004-1.056,0.008-2.109,0.012-3.165c0.966-1.163,2.127-1.346,3.459-0.687c0.858,1.221,0.826,2.417-0.094,3.589c0,0-0.244,0.216-0.244,0.213C33.463,46.992,32.42,47.007,31.374,47.025z"/>
<path fill="#666666" d="M18.742,47.028c1.079,1.056,2.158,2.112,3.235,3.167C20.898,49.14,19.821,48.084,18.742,47.028z"/>
<path fill="#293B29" d="M24.851,53.287c0.299-1.044,0.6-2.091,0.9-3.138c0.803-1.336,1.646-1.297,2.525-0.072C27.136,51.148,25.992,52.219,24.851,53.287z"/>
<polygon fill="#808080" points="21.827,53.287 21.416,53.941 22.013,53.477 "/>
<path fill="#8D8D8D" d="M34.478,52.906c0.019,1.127,0.035,2.256,0.054,3.382c-0.684-0.522-1.367-1.044-2.091-1.593C33.152,54.069,33.816,53.489,34.478,52.906z"/>
<path fill="#304C30" d="M28.277,50.078c-0.844,0.036-1.688,0.063-2.528,0.076c0.812-1.029,1.621-2.058,2.429-3.083C28.222,48.072,28.254,49.076,28.277,50.078z"/>
<path fill="#808080" d="M27.886,59.671c0.264,0.974,0.461,1.963,0.594,2.964c-1.181,0.003-2.364,0.006-3.546,0.009C25.918,61.653,26.902,60.663,27.886,59.671z"/>
<path fill="#505050" d="M31.368,24.656c1.033-0.915,2.066-1.834,3.099-2.75c0.986-1.331,2.048-1.333,3.179-0.186l0.088,0.595c0.748,0.732,1.065,1.52,0.955,2.362c-0.114,0.867-0.276,1.303-0.487,1.303c-1.132,0.864-2.403,1.318-3.834,1.3c-0.635-0.284-1.271-0.568-1.906-0.849C32.097,25.84,31.733,25.248,31.368,24.656z"/>
<path fill="#3E7A3E" d="M37.646,21.72c-1.059,0.064-2.118,0.128-3.179,0.189c0.042-0.836,0.061-1.673,0.058-2.509c0.964-0.33,1.942-0.613,2.934-0.849C37.521,19.608,37.583,20.664,37.646,21.72z"/>
<path fill="#374F37" d="M31.348,28.351c-1.005-0.045-2.011-0.079-3.017-0.098c-0.042-1.031-0.142-2.054-0.304-3.07c1.112-0.171,2.226-0.345,3.338-0.522c0.002-0.006-0.096,0.903-0.096,0.903c0.41,0.452,0.821,0.906,1.231,1.358C32.117,27.399,31.733,27.875,31.348,28.351z"/>
<path fill="#777777" d="M65.684,25.193c2.026,0.064,4.053,0.128,6.076,0.192c1.315,0.144,2.634,0.284,3.953,0.424c0.354,1.52,0.103,2.942-0.671,4.282c-2.454,2.447-5.186,2.691-8.158,1.031c-1.108-1.056-1.77-2.353-2.044-3.854C65.12,26.576,65.403,25.886,65.684,25.193z"/>
<path fill="#A6A6A6" d="M75.62,27.506c-0.016-0.567,0.015-1.135,0.093-1.697c0.885-0.217,1.766-0.205,2.645,0.037c0.716,0.662,0.966,1.333,0.749,2.017c-0.217,0.69-0.442,1.038-0.673,1.035c-0.612,0.061-1.227,0.119-1.839,0.18C76.27,28.553,75.946,28.031,75.62,27.506z"/>
<path fill="#B2B2B2" d="M78.325,27.747c0.017-0.635,0.027-1.267,0.033-1.901c0.936,0.796,1.872,1.593,2.808,2.39c-0.532,0.262-1.065,0.521-1.598,0.781C79.153,28.596,78.738,28.171,78.325,27.747z"/>
<path fill="#919191" d="M84.573,28.226c0.019,1.086,0.038,2.173,0.058,3.259c-0.478,0.287-0.953,0.571-1.433,0.857c-1.151-0.137-2.084-0.662-2.798-1.578c-0.371-1.184-0.021-2.09,1.048-2.719c0,0-0.284,0.189-0.282,0.189C82.3,28.233,83.437,28.229,84.573,28.226z"/>
<path fill="#2F452F" d="M87.751,31.895c-0.007,0.955,0.015,1.91,0.066,2.868l0.034-0.098c-1.14,1.172-2.425,1.3-3.836,0.541c-0.809-1.398-0.642-2.701,0.366-3.928l0.248,0.208C85.671,31.623,86.71,31.757,87.751,31.895z"/>
<path fill="#6D6D6D" d="M78.363,72.114c-0.99-0.019-1.98-0.033-2.972-0.043c-1.127-0.042-2.257-0.088-3.386-0.134c-0.015-1.08-0.03-2.158-0.046-3.235c-0.655-0.592-0.92-1.227-0.795-1.904c0.129-0.695,0.289-1.043,0.479-1.043c0.988-0.742,2.023-0.852,3.109-0.229c1.21,1.123,2.419,2.246,3.629,3.369C78.374,69.968,78.368,71.039,78.363,72.114z"/>
<path fill="#919191" d="M69.45,68.625c-1.14,2.109-2.279,4.218-3.419,6.326c-2.384-0.711-3.453-2.453-3.762-4.791c0.157-1.465,0.664-2.792,1.571-3.958c1.188-0.882,2.525-1.258,4.001-1.123C69.156,65.907,69.656,67.106,69.45,68.625z"/>
<path fill="#2F452F" d="M65.247,68.949c0.261,2.002,0.521,4.004,0.783,6.006c-0.084,1.1-0.167,2.197-0.251,3.3c-0.682,0.006-1.364,0.012-2.046,0.015c-2.604-0.445-3.58-2.325-4.077-4.626c0.09-1.508,0.589-2.869,1.492-4.083C62.403,68.617,63.775,68.449,65.247,68.949z"/>
<path fill="#606060" d="M69.45,68.625c-0.29-0.991-0.475-2.005-0.553-3.039l1.032-0.864l1.338,0.146l0.591,1.209c0.041,0.876,0.076,1.755,0.102,2.627C71.122,68.696,70.285,68.668,69.45,68.625z"/>
<path fill="#5E5E5E" d="M62.49,71.839c0.412,2.146,0.824,4.287,1.241,6.43c-0.336,1.041-0.676,2.082-1.015,3.122c-1.099-0.076-2.199-0.152-3.299-0.231c-1.095-1.828-2.187-3.656-3.281-5.484c0.038-0.65,0.076-1.303,0.113-1.956c0.605-1.19,1.495-2.105,2.669-2.747C60.258,70.649,61.448,70.936,62.49,71.839z"/>
<path fill="#316831" d="M18.991,74.656c-0.961,0.32-1.914,0.669-2.854,1.044c-0.18-1.145-0.363-2.292-0.549-3.434C16.72,73.063,17.855,73.86,18.991,74.656z"/>
<path fill="#7C7C7C" d="M63.142,22.12c0.841-0.067,1.675-0.012,2.498,0.167c0.039,0.971,0.055,1.938,0.044,2.905l0.155-0.162c-0.974,0.977-2.019,1.059-3.133,0.25c-0.233-0.571-0.467-1.139-0.7-1.709C62.385,23.087,62.763,22.605,63.142,22.12z"/>
<path fill="#808080" d="M63.487,15.754c-0.133,0.977-0.043,1.932,0.267,2.86c-0.001-0.006-1.454,0.311-1.454,0.311c-0.845,0.845-1.774,0.992-2.802,0.339c-0.537-0.61-0.749-1.242-0.636-1.901c0.116-0.671,0.253-1.007,0.415-1.007l0.453-1.364c1.065-0.754,1.898-0.552,2.501,0.607L63.487,15.754z"/>
<path fill="#BFBFBF" d="M59.86,19.093c0.81-0.098,1.623-0.153,2.439-0.168c0.281,1.065,0.561,2.127,0.841,3.192c0.002,0.003-1.177-0.421-1.177-0.421c-0.885,1.117-1.918,1.275-3.099,0.479c-0.142-0.613-0.284-1.227-0.424-1.84C58.913,19.923,59.386,19.508,59.86,19.093z"/>
<path fill="#484848" d="M84.508,37.589c0.408,1.169,0.815,2.341,1.224,3.513c-0.57,0.29-1.143,0.58-1.715,0.87c-1.327-0.186-2.366-0.821-3.07-1.978c-0.02-1.376,0.566-2.408,1.757-3.098C83.305,37.128,83.906,37.357,84.508,37.589z"/>
<path fill="#7C7C7C" d="M85.732,41.102c0.856,0.412,1.394,1.083,1.615,2.008c0.418,0.409,0.573,0.903,0.464,1.483c-1.321,0.754-2.626,0.763-3.911-0.092c-0.768-1.306-0.813-2.618-0.019-3.934C84.524,40.653,85.142,40.83,85.732,41.102z"/>
<path fill="#315331" d="M85.021,34.467c0.945,0.034,1.887,0.098,2.829,0.198c-1.112,0.977-2.228,1.95-3.343,2.924c0.001,0,0.108-0.021,0.108-0.021c-0.77-0.799-0.966-1.526-0.589-2.179C84.38,34.776,84.711,34.467,85.021,34.467z"/>
<path fill="#416741" d="M84.721,43.513c1.032,0.36,2.064,0.717,3.093,1.078c0.068,0.784,0.183,1.559,0.343,2.328c0.007,0-0.677,0.171-0.677,0.171c-1.144,1.063-2.335,1.123-3.575,0.174C83.439,45.853,83.675,44.596,84.721,43.513z"/>
<path fill="#ACACAC" d="M62.231,15.598c-0.86-0.085-1.695-0.284-2.503-0.604c-0.077-0.653-0.174-1.3-0.291-1.947c0.979-0.263,1.973-0.36,2.981-0.29C62.545,13.715,62.483,14.661,62.231,15.598z"/>
<path fill="#6D6D6D" d="M84.51,47.004c0.993-0.079,1.983-0.049,2.971,0.085c0.072,0.986,0.114,1.972,0.127,2.957l-0.163-0.055c-0.862,1.355-2.002,1.657-3.42,0.906C83.442,49.509,83.604,48.209,84.51,47.004z"/>
<path fill="#454545" d="M84.776,49.946c0.891,0.055,1.782,0.073,2.672,0.049c0.014,1.053,0.03,2.108,0.047,3.165c-1.039,0.092-2.078,0.183-3.117,0.274c-0.002,0.003-0.168,0.098-0.168,0.098C83.384,52.177,83.52,50.971,84.776,49.946z"/>
<path fill="#989898" d="M74.753,65.525c-0.969,0.149-1.933,0.33-2.893,0.547c-0.003,0.006,0.28-0.586,0.28-0.586c-0.346-0.662-0.694-1.325-1.04-1.984c0.511-0.546,1.023-1.089,1.536-1.633c0.673,0.324,1.346,0.647,2.021,0.971l0.936-0.363C75.314,63.493,75.034,64.509,74.753,65.525z"/>
<path fill="#355335" d="M68.897,65.586c-1.085,0.015-2.168,0.03-3.253,0.046c-0.654-0.223-1.311-0.449-1.967-0.675c-1.042-0.958-1.758-2.118-2.148-3.482c-0.174-1.395-0.195-2.789-0.061-4.189c0.324-1.389,0.926-2.64,1.805-3.76c1.099-0.903,2.303-1.624,3.613-2.167c1.278-0.607,2.566-1.184,3.868-1.736c1.346-0.449,2.729-0.705,4.146-0.77c1.421,0.062,2.791,0.352,4.104,0.903c0.519,0.477,1.037,0.956,1.557,1.435c0.256,0.656,0.513,1.315,0.768,1.975c-0.023,1.034,0.045,2.066,0.207,3.088c-1.107,0.086-2.217,0.172-3.326,0.254c-0.727,0.931-1.537,1.779-2.433,2.545l-0.894,0.809c-0.846,1.071-1.869,1.941-3.045,2.634l0.089,0.021c-0.665,1.501-2.064,2.273-3.245,3.263L68.897,65.586z"/>
<path fill="#304C30" d="M75.776,59.052c0.812-0.849,1.622-1.696,2.433-2.545c-0.041,0.846-0.101,1.69-0.177,2.529c-0.002-0.003-1.128,0.046-1.128,0.046L75.776,59.052z"/>
<path fill="#8B8B8B" d="M71.837,62.494c1.015-0.879,2.029-1.758,3.045-2.637c0.123,1.011,0.05,2.002-0.225,2.981C73.716,62.739,72.775,62.622,71.837,62.494z"/>
<path fill="#346534" d="M84.776,49.946c-0.187,1.193-0.372,2.387-0.562,3.583c-0.96-0.162-1.921-0.284-2.887-0.363l0.19,0.195c-0.958-0.943-1.896-1.91-2.813-2.893c-1.354-1.679-1.688-3.617-1.48-5.701c0.366-1.34,1.052-2.481,2.059-3.437c0.639-0.238,1.277-0.476,1.915-0.714c0.896,0.006,1.791-0.009,2.684-0.049c0.403,0.949,0.683,1.932,0.838,2.948c-0.068,1.159-0.139,2.325-0.209,3.488C84.557,47.987,84.646,48.966,84.776,49.946z"/>
<path fill="#7A7A7A" d="M28.289,62.424c0.929,0.095,1.857,0.214,2.779,0.357c0.146,1.031,0.099,2.051-0.142,3.063c-0.875-0.024-1.747-0.042-2.618-0.052C28.301,64.67,28.295,63.547,28.289,62.424z"/>
<path fill="#4B514B" d="M37.499,62.312c0.09,1.013,0.185,2.026,0.285,3.033c-1.34-0.946-2.681-1.893-4.025-2.838c-0.003-0.004,1.44-0.043,1.44-0.043C35.9,61.414,36.666,61.366,37.499,62.312z"/>
<path fill="#2A3E2A" d="M37.597,65.8c1.036,0.262,2.074,0.527,3.109,0.79c0.783,0.659,1.078,1.352,0.885,2.081c-0.195,0.748-0.412,1.12-0.651,1.123c-0.638,0.116-1.276,0.235-1.914,0.354c-0.469-0.449-0.936-0.897-1.404-1.347C37.608,67.802,37.6,66.8,37.597,65.8z"/>
<path fill="#6B6B6B" d="M34.96,71.946c0.888-1.047,1.776-2.097,2.663-3.144l-0.197,0.406c1.234,0.477,1.729,1.09,1.489,1.84c-0.263,0.821-0.568,1.23-0.919,1.23l-0.372-0.271C36.707,73.24,35.821,73.161,34.96,71.946z"/>
<path fill="#646464" d="M34.96,71.946c0.888,0.021,1.776,0.043,2.664,0.062c-1.063,1.102-2.127,2.2-3.19,3.299C34.609,74.186,34.784,73.066,34.96,71.946z"/>
<path fill="#4E4E4E" d="M37.996,72.279c-0.189-1.025-0.38-2.051-0.57-3.073c1.111-0.128,2.223-0.257,3.334-0.388c0.415,0.534,0.83,1.068,1.244,1.603c-0.312,0.601-0.623,1.202-0.934,1.8C40.046,72.263,39.022,72.282,37.996,72.279z"/>
<path fill="#8A8A8A" d="M43.87,75.376c-1.038,0.03-2.059-0.083-3.064-0.339c-0.069-0.952,0.018-1.893,0.261-2.817c0.003,0-0.183,0.11-0.183,0.11c0.459-0.781,0.92-1.563,1.379-2.344c0.571,0.705,1.14,1.41,1.709,2.115c0,0-0.146-0.138-0.146-0.141C43.841,73.099,43.856,74.238,43.87,75.376z"/>
<path fill="#6E746E" d="M50.298,72.071c-0.105-1.275-0.212-2.554-0.317-3.829c-0.806-1.23-1.47-2.53-1.993-3.913c-0.425-1.44-0.695-2.899-0.813-4.4c-0.023-2.368,0.336-4.596,2.174-6.326c1.369-0.879,2.859-1.331,4.48-1.361c1.626,0.076,3.115,0.564,4.471,1.456c1.773,1.745,2.442,3.945,2.582,6.348c0.041,1.52-0.016,3.049-0.184,4.559c-0.358,1.453-0.922,2.836-1.655,4.139c-1.335,1.785-2.979,3.211-5.016,4.153C52.584,73.538,51.34,73.267,50.298,72.071z"/>
<path fill="#2B4B2B" d="M50.585,65.577c-0.36,0.854-0.561,1.743-0.603,2.665c-1.995,0.256-3.986,0.516-5.979,0.774c-1.056-0.579-1.436-1.199-1.14-1.867c0.304-0.687,0.62-1.028,0.952-1.028c0.146-1.193,0.293-2.387,0.439-3.577c0.424-0.431,0.849-0.863,1.273-1.294c0.604,0.019,1.208,0.033,1.813,0.052c0.906,0.8,1.726,1.682,2.457,2.646C50.06,64.491,50.323,65.034,50.585,65.577z"/>
<path fill="#333333" d="M43.816,66.12c0.061,0.964,0.122,1.932,0.186,2.896c-0.136,1.025-0.146,2.058-0.03,3.086c-1.039-0.052-2.069,0.024-3.088,0.229c-0.041-1.169-0.083-2.341-0.122-3.513c-0.023-0.744-0.04-1.492-0.055-2.233C41.742,66.431,42.78,66.276,43.816,66.12z"/>
<path fill="#676767" d="M50.298,72.071c0.986-0.033,1.972-0.058,2.957-0.066c0.854-0.946,1.854-1.09,2.98-0.537c0.6,0.601,0.876,1.257,0.827,1.968c-0.051,0.738-0.156,1.108-0.316,1.108c0,0-0.607,1.123-0.608,1.129c-0.94-0.302-1.903-0.467-2.892-0.485c-1.088-0.033-2.176-0.07-3.264-0.104C50.054,74.076,50.161,73.072,50.298,72.071z"/>
<path fill="#3B663B" d="M40.76,18.888c1.068,0.003,2.136,0.003,3.204,0.006c2.159-0.042,4.318-0.088,6.478-0.131c2.005-0.058,4.012-0.113,6.017-0.168c0.424,0.552,0.849,1.108,1.272,1.663c0.078,1.395,0.008,2.783-0.189,4.166c-0.603,1.266-1.425,2.368-2.464,3.308c-1.166,0.76-2.436,1.267-3.804,1.517c-2.12,0.027-3.98-0.769-5.745-1.843c-1.188-0.641-2.301-1.395-3.322-2.28c-0.768-1.12-1.265-2.353-1.529-3.684C40.682,20.591,40.71,19.74,40.76,18.888z"/>
<path fill="#ACACAC" d="M40.678,21.442c0.984,0.336,1.959,0.693,2.927,1.078c0.799,0.821,1.071,1.645,0.815,2.475c-0.258,0.833-0.519,1.248-0.786,1.251c-2.245,1.074-4.245,0.842-5.923-1.105c-0.029-0.943-0.02-1.886,0.026-2.826C38.743,22.114,39.724,21.824,40.678,21.442z"/>
<path fill="#555555" d="M59.277,16.355c0.127,0.928,0.32,1.84,0.581,2.738c0.002,0-0.456-0.128-0.456-0.128c-0.479,0.678-0.958,1.355-1.438,2.036c-0.557-0.617-1.113-1.233-1.671-1.849c0,0,0.162-0.55,0.163-0.553c-0.038-0.995-0.066-1.983-0.085-2.976C57.363,15.772,58.332,16.016,59.277,16.355z"/>
<path fill="#2B492B" d="M25.019,37.809c0.051-1.108,0.101-2.212,0.151-3.32l-0.037,0.043c3.238-1.136,4.042,0.143,3.111,3.14l-0.064-0.055c-1.041,1.236-2.119,1.272-3.241,0.11L25.019,37.809z"/>
<path fill="#326C32" d="M24.94,37.726c1.08-0.037,2.162-0.073,3.241-0.11c-0.921,1.083-1.841,2.17-2.762,3.256C25.259,39.823,25.098,38.776,24.94,37.726z"/>
<path fill="#3E5F3E" d="M28.245,37.672c-1.038-1.047-2.074-2.094-3.111-3.14c0.083-1.139,0.166-2.28,0.25-3.418c1.988-0.922,3.977-1.844,5.965-2.762l0.114-0.403c1.17-1.001,2.464-1.147,3.867-0.552c2.067,0.879,3.707,2.179,4.42,4.416c0.108,1.495-0.209,2.887-0.948,4.19c-2.256,2.75-5.203,2.167-8.128,1.682l-1.215-0.019L28.245,37.672z"/>
<path fill="#848484" d="M43.9,59.275c0.029-2.017,0.058-4.037,0.087-6.055c0.604-0.266,1.208-0.527,1.812-0.79c1.298,0.431,2.259,1.254,2.885,2.472c-0.093,1.972-0.013,3.988-1.557,5.551C45.738,60.92,44.645,60.572,43.9,59.275z"/>
<path fill="#2A472A" d="M37.635,56.367c-0.125-2.023-0.25-4.047-0.377-6.07c1.27-0.015,2.539-0.033,3.809-0.049c1.015,0.626,1.351,1.246,1.012,1.868c-0.337,0.619-0.676,0.931-1.02,0.931C39.918,54.154,38.776,55.259,37.635,56.367z"/>
<path fill="#7B7B7B" d="M41.059,53.046c-0.148-0.934-0.146-1.867,0.006-2.799c0.967-0.115,1.932-0.231,2.897-0.351c0.359,0.583,0.717,1.169,1.074,1.752c-0.396,0.559-0.792,1.12-1.188,1.679c0,0,0.14-0.104,0.14-0.107C43.008,53.236,42.031,53.177,41.059,53.046z"/>
<path fill="#777777" d="M37.499,62.312c-0.769,0.015-1.537,0.066-2.301,0.152c-0.333-0.938-0.46-1.901-0.381-2.896C35.711,60.484,36.605,61.399,37.499,62.312z"/>
<path fill="#293829" d="M43.9,59.275c1.073,0.187,2.146,0.369,3.22,0.556c0.75,0.659,0.973,1.282,0.667,1.868c-0.296,0.567-0.581,0.854-0.856,0.854c-0.896,0-1.79-0.003-2.679-0.009C44.137,61.454,44.019,60.365,43.9,59.275z"/>
<path fill="#747474" d="M30.674,37.684c2.371-1.083,4.741-2.17,7.112-3.256c0.534,0.339,1.067,0.677,1.601,1.016c0.693,1.093,0.998,2.289,0.974,3.577c-0.358,1.236-1.038,2.265-2.031,3.083c-1.184,0.506-2.406,0.598-3.662,0.339c-1.306-0.11-2.336-0.702-3.088-1.776C31.33,39.655,31.028,38.663,30.674,37.684z"/>
<path fill="#5F5F5F" d="M31.579,40.665c0.891,0.162,1.784,0.305,2.681,0.427c0.824,0.659,1.113,1.333,0.87,2.029c-0.248,0.702-0.502,1.056-0.768,1.056c-0.987-0.146-1.979-0.25-2.976-0.317C31.451,42.795,31.515,41.73,31.579,40.665z"/>
<path fill="#375037" d="M43.925,43.891c-0.783,0.027-1.564-0.009-2.342-0.104c-0.618-0.256-1.236-0.516-1.854-0.775c-0.098-0.668-0.197-1.331-0.292-2.002c0.327-0.598,0.65-1.19,0.981-1.788c0.879-1.093,1.942-1.935,3.21-2.542c1.404-0.302,2.808-0.473,4.245-0.519c1.486-0.015,2.954,0.021,4.442,0.107c1.555,0.168,2.979,0.656,4.312,1.471c1.195,1.142,1.877,2.521,2.074,4.157c-0.122,1.669-0.743,3.116-1.854,4.361c-2.902,2.161-5.969,2.225-9.161,0.732C46.342,46.067,45.087,45.036,43.925,43.891z"/>
<path fill="#6A6A6A" d="M34.362,44.178c0.017-1.035-0.017-2.063-0.099-3.092c1.163-0.137,2.328-0.277,3.494-0.418l1.438,0.485c0.201,1.01,0.601,1.932,1.196,2.771c0,0,1.187-0.137,1.19-0.137c-2.276,0.992-4.553,1.983-6.83,2.976C34.634,45.899,34.504,45.036,34.362,44.178z"/>
<path fill="#818181" d="M43.925,43.891c1.001,0.284,2.002,0.568,3.003,0.849c0.661,0.692,0.893,1.395,0.693,2.103c-0.2,0.717-0.407,1.074-0.624,1.074c-1.271,0.54-2.315,0.253-3.131-0.854C43.885,46.003,43.905,44.947,43.925,43.891z"/>
<path fill="#344534" d="M43.865,47.062c0.94,0.336,1.911,0.51,2.91,0.521c0.685,0.711,0.972,1.469,0.861,2.271c-0.116,0.827-0.272,1.239-0.469,1.239c-1.349,0.58-2.438,0.303-3.224-0.977c0,0,0.017-0.214,0.018-0.217C43.856,48.954,43.824,48.008,43.865,47.062z"/>
<path fill="#858585" d="M37.863,31.41c-1.334-1.083-2.667-2.164-4.001-3.247c-0.788-1.318-0.525-2.28,0.957-2.826c0.963-0.085,1.926-0.149,2.892-0.195c2.026-0.134,4.053-0.269,6.081-0.403c1.633,1.874,1.239,3.705-0.108,5.521c-1.115,0.851-2.382,1.318-3.776,1.452C39.225,31.611,38.543,31.51,37.863,31.41z"/>
<path fill="#3B663B" d="M34.818,25.336c-0.22,0.977-0.539,1.92-0.957,2.826c-0.801-0.055-1.601-0.122-2.399-0.211c-0.05-0.802-0.114-1.599-0.19-2.393C32.453,25.489,33.636,25.412,34.818,25.336z"/>
<path fill="#526952" d="M65.655,28.208c3.322-0.232,6.644-0.467,9.966-0.702l-0.434,0.61c0.885,1.309,1.088,2.716,0.61,4.224c-1.27,2.084-3.161,3.091-5.564,3.208c-1.514-0.107-2.905-0.58-4.175-1.41c-1.027-1.144-1.552-2.484-1.572-4.022C64.876,29.481,65.266,28.846,65.655,28.208z"/>
<path fill="#3D753D" d="M62.779,25.287c1.02-0.085,2.038-0.168,3.06-0.253c-0.06,1.056-0.121,2.118-0.182,3.177c-0.002-0.003,0.104-0.149,0.104-0.149c-0.844,1.077-1.832,1.285-2.982,0.494c-0.269-0.543-0.537-1.089-0.806-1.633C62.242,26.377,62.51,25.834,62.779,25.287z"/>
<path fill="#385138" d="M75.21,31.244c-0.008-1.043-0.016-2.084-0.023-3.128c1.045-0.125,2.091-0.247,3.138-0.369c1.04,0.101,2.082,0.198,3.123,0.299c-0.071,1.145-0.145,2.289-0.218,3.434c-0.426,0.448-0.854,0.897-1.279,1.352c-1.215,0.397-2.417,0.357-3.605-0.11C75.966,32.23,75.588,31.736,75.21,31.244z"/>
<path fill="#6D6D6D" d="M85.021,34.467c-0.134,1.035-0.27,2.069-0.405,3.101c-1.139,1.017-2.276,2.036-3.417,3.052c-0.001-0.003,0.26,0.342,0.26,0.342c-1.107,0.983-2.4,1.511-3.877,1.59c-2.272-0.546-3.768-1.944-4.541-4.135c-0.023-0.714-0.043-1.435-0.064-2.148c0.466-1.41,1.372-2.429,2.713-3.064c2.064-0.314,4.303-0.119,5.854-1.965c0,0-0.316,0.241-0.314,0.241c1.053-0.067,2.103-0.135,3.154-0.202C84.595,32.34,84.809,33.405,85.021,34.467z"/>
<path fill="#346334" d="M65.247,68.949c-0.686-0.058-1.37-0.121-2.056-0.188c-0.489-0.357-0.98-0.718-1.473-1.081c0.01-0.609,0.018-1.217,0.026-1.83c0.428-0.439,0.853-0.879,1.28-1.318c1.313-0.3,2.289,0.115,2.879,1.352l-0.261-0.25C65.511,66.74,65.378,67.844,65.247,68.949z"/>
<path fill="#949494" d="M62.49,71.839l-1.523,0.137l-1.527-0.098c-0.423-0.509-0.848-1.019-1.27-1.528c0.186-0.638,0.375-1.272,0.561-1.91c0.615-0.241,1.233-0.485,1.85-0.727c0.491,0.442,0.982,0.888,1.475,1.333l1.138-0.286C62.958,69.788,62.724,70.814,62.49,71.839z"/>
<path fill="#919191" d="M68.681,65.779c1.081-1.087,2.163-2.173,3.245-3.263c0.062,0.992,0.133,1.986,0.214,2.973C70.988,65.583,69.834,65.681,68.681,65.779z"/>
<path fill="#919191" d="M56.746,74.543c0.005-0.678-0.019-1.353-0.067-2.03c0.397-0.604,0.794-1.211,1.19-1.818c0.564,0.455,1.13,0.909,1.695,1.364c0,0-0.128-0.181-0.126-0.181C58.541,72.767,57.644,73.655,56.746,74.543z"/>
<path fill="#9F9F9F" d="M60.017,21.812c0.652,0.003,1.305-0.037,1.95-0.116c0.269,1.196,0.538,2.393,0.81,3.592c0.002,0-0.117-0.146-0.117-0.146c-0.434,0.464-0.868,0.925-1.302,1.389c-1.332-0.098-2.354-0.711-3.065-1.84C58.137,23.292,58.748,22.355,60.017,21.812z"/>
<path fill="#438C43" d="M60.017,21.812c-0.324,0.961-0.653,1.919-0.987,2.877c-0.944,1.105-2.08,1.358-3.406,0.754c-0.717-1.297-0.497-2.408,0.655-3.333c0.033-0.989,0.039-1.978,0.017-2.963c1.031-0.122,2.067-0.186,3.108-0.186C59.486,19.938,59.692,20.89,60.017,21.812z"/>
<path fill="#757575" d="M66.036,57.145c-0.113,0.727-0.216,1.456-0.304,2.185c-1.286,1.38-2.715,1.548-4.285,0.504c-2.13-2.713-2.64-5.819-2.236-9.149c0.852-2.325,2.399-4.059,4.544-5.264c1.477-0.522,2.989-0.602,4.511-0.241c1.311,0.772,2.319,1.84,2.957,3.229c0.251,1.475-0.005,2.881-0.697,4.202C69.407,54.49,66.994,55.1,66.036,57.145z"/>
<path fill="#397739" d="M75.517,53.122c-1.128,0.027-2.254,0.052-3.38,0.08c-0.338-0.563-0.675-1.123-1.011-1.686c0.795-2.358,2.413-2.73,4.538-1.876C76.481,50.84,76.431,51.999,75.517,53.122z"/>
<path fill="#A1A1A1" d="M75.517,53.122c-0.195-0.991-0.133-1.968,0.186-2.927c0.716-0.265,1.43-0.53,2.147-0.796c0.541,0.543,1.08,1.083,1.622,1.623c-0.455,0.617-0.911,1.23-1.367,1.847l-1.279,0.284L75.517,53.122z"/>
<path fill="#868686" d="M78.105,52.869c-0.037-0.711-0.108-1.416-0.216-2.118c0.646-1.242,1.492-1.465,2.571-0.504c0.353,1.038,0.703,2.076,1.056,3.113C80.379,53.196,79.242,53.031,78.105,52.869z"/>
<path fill="#676767" d="M66.036,57.145c0.869-1.334,1.737-2.67,2.607-4.007c1.112,0.646,1.517,1.346,1.219,2.097c-0.308,0.778-0.633,1.165-0.978,1.165C67.936,56.654,66.987,56.901,66.036,57.145z"/>
<path fill="#2F442F" d="M68.885,56.4c-0.081-1.086-0.16-2.172-0.241-3.262l0.707,0.189c0.858-1.633,1.826-1.785,2.919-0.214c0,0-0.136,0.089-0.135,0.089C71.053,54.267,69.968,55.335,68.885,56.4z"/>
<path fill="#2F432F" d="M62.784,59.022c0.969,0.235,1.951,0.339,2.948,0.308c-0.029,1.212-0.057,2.424-0.086,3.635c-1.254,0.965-2.485,0.938-3.694-0.082C61.498,61.439,61.776,60.151,62.784,59.022z"/>
<path fill="#919191" d="M62.79,63.111c0.94-0.305,1.894-0.354,2.858-0.149c0.074,0.977,0.16,1.95,0.256,2.921c-1.14-0.003-2.279-0.01-3.419-0.013C61.841,64.869,61.904,63.945,62.79,63.111z"/>
<path fill="#2F432F" d="M78.298,40.726c1.053,0.076,2.105,0.156,3.158,0.235c-0.123,0.989-0.218,1.978-0.28,2.97c-1.09,1.089-2.405,1.605-3.946,1.553c-2.382-0.971-3.457-2.597-2.613-5.191C75.981,39.283,77.207,39.426,78.298,40.726z"/>
<path fill="#828282" d="M78.632,44.044c0.849-0.067,1.697-0.104,2.545-0.113c-0.239,2.105-0.478,4.211-0.715,6.316c-0.859,0.146-1.716,0.314-2.57,0.501c-0.003,0.003,0.409-0.51,0.409-0.51C76.388,48.063,76.188,45.982,78.632,44.044z"/>
<path fill="#3A553A" d="M62.79,63.111c-0.025,0.928-0.126,1.85-0.305,2.759l0.285-0.231c-0.798,0.943-1.81,1.501-3.035,1.669c-1.277,0.141-2.271-0.323-2.979-1.395c-0.16-1.007-0.217-2.021-0.173-3.036c2.243-2.988,1.261-6.019,0.128-9.055c0.075-1.315,0.505-2.496,1.288-3.556c1.068-0.803,2.266-1.153,3.597-1.059c0.454,0.464,0.908,0.925,1.362,1.386c-0.058,2.811-0.117,5.618-0.176,8.429C62.786,60.386,62.789,61.747,62.79,63.111z"/>
<path fill="#676767" d="M59.31,54.313c-0.909,2.854-1.818,5.707-2.729,8.563c-0.088-2.252-0.178-4.502-0.27-6.754c-0.298-0.695-0.598-1.391-0.897-2.086c0.472-0.596,0.941-1.188,1.413-1.782C58.601,51.801,59.428,52.488,59.31,54.313z"/>
<path fill="#2B492B" d="M46.93,62.552c0.05-0.909,0.113-1.818,0.188-2.725c-0.006-2.21-0.016-4.419-0.023-6.632c0.396-0.415,0.793-0.827,1.192-1.242c1.199-0.027,2.194,0.394,2.951,1.343c0.343,1.248-0.118,2.109-1.276,2.634c-0.071,2.121-0.143,4.245-0.215,6.369c-0.345,0.604-0.691,1.209-1.036,1.819c-0.519-0.464-1.037-0.932-1.558-1.398L46.93,62.552z"/>
<path fill="#315231" d="M49.962,55.93c-0.006-1.242-0.012-2.483-0.02-3.723c1.402-4.874,3.133-2.42,4.853-0.22c0.033,1.367-0.449,2.521-1.445,3.461C52.221,55.61,51.092,55.769,49.962,55.93z"/>
<path fill="#2F4A2F" d="M53.35,55.449c0.032-0.974,0.064-1.944,0.093-2.918c1.116-0.534,2.097-0.351,2.945,0.549c0.098,1.02,0.073,2.036-0.074,3.046C55.316,55.94,54.328,55.713,53.35,55.449z"/>
<path fill="#676767" d="M49.747,62.299c0.279,1.093,0.559,2.186,0.836,3.28c0.002-0.003-1.433,0.089-1.433,0.089c-0.308-1.053-0.453-2.127-0.409-3.223L49.747,62.299z"/>
<path fill="#2F402F" d="M56.756,65.912c1.051-0.006,2.103-0.009,3.153-0.012c0.75,0.681,1.012,1.37,0.786,2.075c-0.226,0.711-0.461,1.067-0.702,1.067l-1.01-0.348c-0.458,0.556-0.914,1.108-1.37,1.66c-0.47-0.543-0.938-1.086-1.408-1.63C56.318,67.774,56.501,66.837,56.756,65.912z"/>
<path fill="#2E3B2E" d="M56.679,72.513c-1.141-0.167-2.282-0.338-3.424-0.509c0.984-1.093,1.969-2.183,2.951-3.274c-0.001-0.004,0.222,0.223,0.222,0.223c0.996,0.689,1.321,1.367,0.977,2.035c-0.342,0.662-0.681,0.992-1.021,0.992L56.679,72.513z"/>
<path fill="#2A3C2A" d="M48.742,62.446c0.138,1.074,0.275,2.148,0.411,3.223c-0.669-0.982-1.337-1.968-2.001-2.951C47.685,62.635,48.214,62.543,48.742,62.446z"/>
<path fill="#7D7D7D" d="M40.33,28.537c1.153-1.263,2.307-2.53,3.46-3.796c-0.104-0.739-0.166-1.48-0.188-2.222c1.259,0.003,2.516,0.006,3.773,0.009c0.711,1.218,1.343,2.478,1.898,3.778c0.654,1.294,0.918,2.661,0.848,4.104c-0.448,1.389-1.203,2.569-2.307,3.528c-1.295,0.671-2.672,0.958-4.125,0.87c-1.385-0.439-2.535-1.229-3.441-2.365C39.509,31.129,39.495,29.826,40.33,28.537z"/>
<path fill="#3F7E3F" d="M47.116,27.863c0.042-0.949,0.033-1.895-0.028-2.844c0.905-1.163,1.813-1.163,2.721,0c1.123,0.055,2.246,0.113,3.369,0.171c0.451,0.528,0.903,1.056,1.354,1.584c-0.188,1.453-0.912,2.545-2.178,3.281C50.084,30.579,48.277,29.994,47.116,27.863z"/>
<path fill="#ACACAC" d="M49.809,25.019l-1.363,0.055c0,0-1.362-0.052-1.361-0.052c0.13-0.83,0.226-1.66,0.29-2.496C48.187,23.359,48.996,24.189,49.809,25.019z"/>
<path fill="#395A39" d="M56.279,22.111c0.277,0.9,0.517,1.816,0.717,2.737c-1.153,1.285-2.411,1.395-3.772,0.336c0,0-0.042,0.003-0.044,0.006C54.212,24.161,55.245,23.136,56.279,22.111z"/>
<path fill="#C6C6C6" d="M37.786,34.428c-0.091-1.007-0.065-2.014,0.077-3.018l-0.325,0.223c0.876-1.187,1.947-1.407,3.218-0.656l-0.378,1.126c0.898,0.488,1.306,1.096,1.222,1.822c-0.092,0.784-0.256,1.178-0.498,1.178c-1.341,0.671-2.257,0.299-2.747-1.117L37.786,34.428z"/>
<path fill="#2B492B" d="M43.943,50.117c0.787,0.07,1.575,0.107,2.363,0.119c0.697,0.418,1.395,0.839,2.092,1.261c-0.499,0.641-0.997,1.284-1.496,1.929c0,0,0.188-0.227,0.191-0.227c-1.081,0.04-2.162,0.083-3.246,0.125C43.879,52.256,43.911,51.188,43.943,50.117z"/>
<path fill="#898989" d="M38.355,33.985c0.697,0.171,1.404,0.259,2.121,0.269c1.764-1.667,3.862-1.291,5.949-0.977c1.182,0.83,1.97,1.941,2.365,3.33c-0.088,1.446-0.636,2.676-1.721,3.653c-0.992,0.284-2.003,0.424-3.034,0.424c-0.963-0.861-2.098-1.276-3.381-1.307c-1.311-0.106-2.325-0.692-3.001-1.834C37.887,36.356,38.122,35.169,38.355,33.985z"/>
<path fill="#3A633A" d="M37.653,37.543c1.047,0.189,2.095,0.378,3.144,0.571c0.856,0.513,1.163,1.059,0.921,1.639c-0.247,0.592-0.505,0.888-0.776,0.888l-0.133,0.052c-1.088,1.321-2.048,1.233-2.879-0.262c0,0-0.175,0.241-0.174,0.238C37.722,39.625,37.688,38.584,37.653,37.543z"/>
<path fill="#3E623E" d="M47.074,37.409c-0.172-1.031-0.346-2.063-0.519-3.091c0.36-0.452,0.72-0.9,1.081-1.352c0.891-0.732,1.816-1.416,2.781-2.047c0.895-0.729,1.763-1.483,2.609-2.268c0.065-1.157,0.131-2.313,0.196-3.467c1.255-0.11,2.509-0.22,3.768-0.333c0.684-0.04,1.361-0.088,2.039-0.155c0-0.006,0.828,0.25,0.828,0.25c0.714,1.013,1.279,2.106,1.697,3.281c0.47,1.169,0.872,2.353,1.225,3.567c0.525,1.193,1.207,2.274,2.059,3.262c0.696,1.169,1.031,2.423,1.025,3.784c-0.343,1.346-0.995,2.506-1.992,3.476c-1.209,0.723-2.519,1.029-3.917,0.983c-1.342-0.439-2.425-1.224-3.206-2.408c-1.305-0.109-2.609-0.223-3.912-0.333c-0.816-0.857-1.825-1.303-2.999-1.395C48.657,38.99,47.748,38.383,47.074,37.409z"/>
<path fill="#7D7D7D" d="M46.903,53.425c-0.197-1.065-0.395-2.127-0.593-3.192c0.132-0.888,0.29-1.776,0.467-2.655c0.047-0.943,0.099-1.892,0.151-2.838c3.14-0.287,6.281-0.574,9.42-0.861c0.556,0.312,1.109,0.623,1.665,0.931c1.161,1.721,1.224,3.513,0.355,5.368c-0.426,1.221-1.145,2.233-2.154,3.039l0.174-0.138c-0.981-0.183-1.962-0.365-2.945-0.546c-1.167-0.106-2.333-0.214-3.5-0.323C48.93,52.613,47.916,53.019,46.903,53.425z"/>
<path fill="#919191" d="M47.074,37.409c1.022,0.153,2.028,0.381,3.017,0.687c0.912,0.488,1.213,0.967,0.903,1.446c-0.306,0.47-0.612,0.708-0.925,0.708l-1.5,0.208l-1.5-0.198C47.077,39.307,47.078,38.358,47.074,37.409z"/>
<path fill="#888888" d="M50.07,40.25c0.006-0.72,0.014-1.438,0.021-2.154c0.915,0.821,1.829,1.642,2.745,2.462C51.894,40.622,50.973,40.519,50.07,40.25z"/>
<path fill="#5F5F5F" d="M37.93,40.431c0.957,0.125,1.915,0.213,2.878,0.262c-0.137,1.077-0.275,2.155-0.415,3.232C39.572,42.759,38.75,41.596,37.93,40.431z"/>
<path fill="#919191" d="M56.748,40.891c0.914-0.012,1.815,0.083,2.708,0.287c0.699,1.08,0.647,2.121-0.157,3.128c-1.143,0.662-2.119,0.513-2.906-0.583l-0.043,0.156C56.393,42.872,56.526,41.877,56.748,40.891z"/>
<path fill="#385738" d="M40.942,40.641c-0.075-0.842-0.124-1.685-0.145-2.53c1.079,0.86,2.159,1.715,3.238,2.573C43.005,40.696,41.973,40.681,40.942,40.641z"/>
<path fill="#385738" d="M40.755,30.976c-1.072,0.22-2.144,0.439-3.216,0.656c0.929-1.031,1.86-2.063,2.791-3.095C40.504,29.347,40.646,30.158,40.755,30.976z"/>
<path fill="#7D7D7D" d="M62.685,40.824c-0.02-1.01-0.072-2.02-0.158-3.027c-0.763-0.9-1.245-1.929-1.402-3.104c-0.036-1.16-0.046-2.323-0.029-3.482c0.062-0.577,0.122-1.154,0.182-1.733c0.437-0.382,0.873-0.766,1.31-1.147c1.059-0.089,2.116-0.177,3.175-0.266c0.037,1.15,0.072,2.301,0.108,3.451c1.193,0.794,2.433,1.505,3.722,2.137c0.395,0.601,0.785,1.202,1.177,1.807c0.209,1.456,0.022,2.85-0.613,4.181c-0.941,1.132-2.094,1.959-3.491,2.432c-0.725-0.012-1.448-0.024-2.173-0.04C63.889,41.63,63.288,41.227,62.685,40.824z"/>
<path fill="#BBBBBB" d="M68.864,31.998c2.116-0.25,4.231-0.503,6.348-0.754c-0.001,0-0.229,0.543-0.229,0.543c0.733,0.452,1.468,0.903,2.2,1.355c-0.816,0.271-1.633,0.546-2.451,0.818l0.36,0.464c-0.727,1.086-1.71,1.834-2.949,2.243c-1.34,0.006-2.408-0.531-3.204-1.605l0.09-1.44C68.974,33.082,68.918,32.538,68.864,31.998z"/>
<path fill="#BFBFBF" d="M68.864,31.998c0.048,0.543,0.103,1.083,0.166,1.624c-1.054-0.702-2.108-1.404-3.161-2.106C66.897,31.498,67.895,31.657,68.864,31.998z"/>
<path fill="#878787" d="M59.532,28.071c0.109-1.041,0.218-2.084,0.326-3.125c0.934,0.058,1.868,0.122,2.802,0.195c-0.026,1.062-0.051,2.124-0.075,3.189c0.002,0,0.14-0.202,0.14-0.202c-0.545,0.717-1.09,1.438-1.636,2.155C60.569,29.545,60.05,28.809,59.532,28.071z"/>
<path fill="#919191" d="M74.732,33.961c0.1-0.723,0.182-1.447,0.249-2.173c2.188-0.183,4.375-0.37,6.562-0.552C79.273,32.145,77.002,33.054,74.732,33.961z"/>
<path fill="#2F3C2F" d="M78.298,40.726c-1.037,0.009-2.075,0.021-3.113,0.034c-0.931-0.678-1.33-1.603-1.276-2.741c0.331-0.427,0.662-0.854,0.993-1.282C76.034,38.068,77.166,39.396,78.298,40.726z"/>
<path fill="#6B6B6B" d="M71.833,34.828c1.086-0.134,2.173-0.269,3.259-0.403c-0.035,0.778-0.098,1.553-0.189,2.319c-0.001-0.006,0.23,0.94,0.23,0.94c-0.931,0.952-1.957,1.071-3.079,0.357c-0.581-0.677-0.807-1.379-0.679-2.106C71.505,35.197,71.659,34.828,71.833,34.828z"/>
<path fill="#989898" d="M59.993,69.043c-0.028-1.05-0.057-2.097-0.084-3.143c0.962-0.007,1.915-0.095,2.861-0.263c-0.238,1.135-0.477,2.273-0.717,3.408l-1.03-0.033L59.993,69.043z"/>
<path fill="#315331" d="M56.383,71.98c0.002-1.011,0.016-2.021,0.043-3.027c0.859-0.053,1.712-0.135,2.561-0.257c0.189,1.12,0.382,2.24,0.575,3.36C58.504,72.032,57.444,72.007,56.383,71.98z"/>
<path fill="#3D5A3D" d="M73.177,37.272c0.684-0.009,1.335,0.128,1.956,0.412c-0.021,1.025-0.004,2.051,0.051,3.076c1.149,1.096,2.298,2.191,3.447,3.284c-0.108,2.063-0.22,4.129-0.331,6.192c0.001,0.003-1.299-0.076-1.299-0.076s-1.302,0.036-1.3,0.036c-1.145,0.974-2.291,1.944-3.434,2.918c-0.971,0.089-1.944,0.161-2.919,0.217c-0.121-2.075-0.242-4.15-0.365-6.223c0,0-0.904-1.175-0.909-1.175c-1.028-0.412-1.612-1.166-1.761-2.262c-0.003,0,0.133-1.486,0.133-1.486c-0.002,0,0.728-1.3,0.728-1.3l0.94-1.16c0.689-0.717,1.438-1.37,2.243-1.956C71.202,37.067,72.143,36.903,73.177,37.272z"/>
<path fill="#919191" d="M68.984,47.108c-0.979-0.058-1.959-0.122-2.937-0.189c-0.441-0.406-0.881-0.809-1.321-1.218c-0.007-0.598-0.014-1.199-0.021-1.8c0.42-0.43,0.84-0.861,1.259-1.291c1.272-0.305,2.271,0.061,2.951,1.206l-0.009,0.562c0.712,0.552,0.991,1.145,0.838,1.785c-0.159,0.659-0.344,0.989-0.555,0.989L68.984,47.108z"/>
<path fill="#325832" d="M66.047,46.918c-1.032,1.221-2.063,2.444-3.092,3.668c0.003,0.007-0.483-0.814-0.483-0.814c-0.651-1.031-0.577-2.035,0.123-3.012c1.049-0.693,1.99-0.571,2.828,0.366L66.047,46.918z"/>
<path fill="#2F3F2F" d="M62.603,47.325c-0.021,0.817-0.064,1.639-0.13,2.453c-0.972,0.184-1.951,0.312-2.937,0.379c-0.439-0.412-0.879-0.827-1.317-1.242c0.019-1.261,0.519-2.289,1.502-3.083c0.603,0.012,1.205,0.024,1.808,0.034C61.887,46.351,62.245,46.836,62.603,47.325z"/>
<path fill="#2F402F" d="M56.214,53.217c-0.024-0.937,0.169-1.821,0.581-2.661c0.35-0.817,0.699-1.636,1.049-2.453c0.565,0.687,1.13,1.373,1.696,2.06l-0.004-0.006c-0.075,1.382-0.15,2.765-0.227,4.15C58.279,53.947,57.245,53.583,56.214,53.217z"/>
<path fill="#A2A2A2" d="M46.555,34.318c-2.025-0.021-4.051-0.043-6.078-0.064c0.044-0.723,0.011-1.44-0.101-2.152c2.229-0.088,4.458-0.18,6.686-0.269c0.441,0.415,0.88,0.833,1.32,1.249c-0.323,0.513-0.646,1.025-0.969,1.538L46.555,34.318z"/>
<path fill="#868686" d="M53.027,28.651c0.084,0.745,0.149,1.489,0.192,2.234c-1.769,2.447-3.79,2.337-5.974,0.595c0,0-0.191,0.351-0.186,0.351c0.023-1.321,0.04-2.643,0.057-3.964C49.085,28.126,51.055,28.388,53.027,28.651z"/>
<path fill="#395D39" d="M47.245,31.48c1.992-0.199,3.983-0.394,5.974-0.592c-1.935,1.242-3.87,2.487-5.805,3.732C47.358,33.573,47.302,32.526,47.245,31.48z"/>
<path fill="#898989" d="M59.617,43.601c-0.05-0.812-0.102-1.62-0.16-2.429c1.076-0.11,2.151-0.226,3.229-0.345c0-0.003-0.202-0.119-0.202-0.119c0.516,0.513,1.029,1.025,1.546,1.535c-0.279,0.668-0.559,1.34-0.838,2.008c-0.667,0.284-1.334,0.567-2.002,0.848C60.665,44.599,60.14,44.102,59.617,43.601z"/>
<path fill="#385338" d="M59.532,28.071c1.064,0.019,2.128,0.037,3.192,0.058c-0.034,1.062-0.066,2.121-0.1,3.183c-0.394,0.778-0.787,1.553-1.181,2.332c-0.597-0.635-1.193-1.27-1.79-1.904C59.613,30.518,59.573,29.294,59.532,28.071z"/>
<path fill="#BBBBBB" d="M59.654,31.739c0.975-0.248,1.965-0.391,2.971-0.427c-0.055,0.995-0.12,1.986-0.197,2.979c-0.793,1.438-1.599,1.443-2.415,0.018C59.69,33.482,59.57,32.624,59.654,31.739z"/>
<path fill="#989898" d="M60.012,34.308c0.808,0.028,1.614,0.021,2.419-0.015c0.031,1.166,0.066,2.334,0.099,3.503C61.689,36.634,60.851,35.471,60.012,34.308z"/>
<path fill="#5F5F5F" d="M59.54,50.162c-0.915,0.134-1.831,0.266-2.745,0.394c-0.134-2.276-0.269-4.556-0.402-6.833c1.074-0.04,2.148-0.079,3.223-0.122c0.001,0-0.342,0.757-0.342,0.757c0.809,0.452,1.617,0.907,2.426,1.358c-0.691,0.616-1.382,1.236-2.075,1.853C59.64,48.435,59.613,49.299,59.54,50.162z"/>
<path fill="#325532" d="M65.413,40.367c1.136-0.937,2.272-1.874,3.407-2.814c0.481,0.549,0.963,1.096,1.445,1.642c-0.475,0.552-0.952,1.104-1.429,1.654l0.066-0.104c-0.643,0.498-1.285,0.998-1.928,1.496C66.455,41.615,65.934,40.992,65.413,40.367z"/>
<path fill="#315331" d="M62.895,44.025c-0.138-1.104-0.275-2.212-0.412-3.317c0.975-0.153,1.953-0.266,2.934-0.339c-0.003-0.003,0.365,0.424,0.365,0.424c1.007,0.699,1.352,1.41,1.034,2.137c-0.318,0.729-0.643,1.095-0.974,1.095l0.11-0.052C64.954,45.27,63.937,45.35,62.895,44.025z"/>
<path fill="#315331" d="M71.833,34.828c0.457,0.809,0.9,1.624,1.338,2.444c0.006,0-1.39,0.415-1.39,0.415c-0.942,1.19-1.885,1.251-2.826,0l-0.135-0.131c0.032-0.833,0.072-1.663,0.118-2.493C69.878,34.66,70.843,34.58,71.833,34.828z"/>
<path fill="#3A7B3A" d="M68.955,37.687c0.944-0.009,1.888-0.009,2.829,0c-0.984,1.056-1.966,2.109-2.947,3.162C68.876,39.796,68.915,38.743,68.955,37.687z"/>
<path fill="#3A7B3A" d="M65.842,44.025c-0.021-1.077-0.041-2.158-0.063-3.235c1.042-0.018,2.081-0.033,3.124-0.046c0.008,1.025,0.011,2.048,0.012,3.07C67.89,43.867,66.867,43.937,65.842,44.025z"/>
<path fill="#676767" d="M69.19,47.15c-0.145-0.921-0.242-1.846-0.286-2.777c0.313,0.616,0.706,1.208,0.888,1.858C69.856,46.464,69.406,46.842,69.19,47.15z"/>
<path fill="#3A7B3A" d="M62.895,44.025c1.018-0.049,2.036-0.067,3.058-0.052c-0.176,1.05-0.353,2.103-0.529,3.152c-0.943,0.015-1.883,0.08-2.82,0.192c0,0.006-0.092-0.604-0.092-0.604c-0.915-0.604-1.272-1.273-1.072-2.002c0.209-0.763,0.448-1.145,0.72-1.145L62.895,44.025z"/>
<path fill="#6D6D6D" d="M62.159,43.568c0.118,1.05,0.237,2.1,0.354,3.149c-0.977,0.238-1.939,0.519-2.889,0.849c-0.116-1.071-0.23-2.143-0.348-3.214C60.23,44.074,61.192,43.812,62.159,43.568z"/>
</svg>