<?xml version="1.0" encoding="utf-8"?>
<!DOCTYPE svg PUBLIC "-//W3C//DTD SVG 1.1//EN" "http://www.w3.org/Graphics/SVG/1.1/DTD/svg11.dtd">
<svg version="1.1" xmlns="http://www.w3.org/2000/svg" xmlns:xlink="http://www.w3.org/1999/xlink" x="0px" y="0px" width="100px" height="100px" viewBox="0 0 100 100" enable-background="new 0 0 100 100" xml:space="preserve">
<path fill="#D50000" d="M0,43.75c2.025,0.647,4.051,1.294,9.775,3.125C4.051,48.706,2.025,49.354,0,50C0,47.916,0,45.835,0,43.75z"/>
<path fill="#AE0000" d="M25.804,43.286c6.251-10.056,12.277-8.523,18.158,0.354c-2.202,1.84-4.446,1.996-6.741,0.174c-3.902-0.284-7.805-0.571-11.708-0.854L25.804,43.286z"/>
<path fill="#C90000" d="M18.592,44.36c2.397-0.351,4.796-0.699,7.202-1.062c0.009-0.012-0.305-0.317-0.293-0.33c1.683,3.717,3.354,7.446,5.026,11.173c-0.655,1.074-1.309,2.151-1.962,3.226c-3.288-2.381-6.575-4.761-9.862-7.145C16.894,48.303,16.839,46.35,18.592,44.36z"/>
<path fill="#D50000" d="M37.22,43.814c2.248-0.058,4.495-0.116,6.741-0.174c2.056,0.262,4.111,0.525,6.167,0.788c1.782,1.922,1.701,3.814-0.087,5.682l0.318,0.11c-2.309,1.651-4.581,1.663-6.813-0.149C41.438,47.986,39.329,45.898,37.22,43.814z"/>
<path fill="#AE0000" d="M68.244,49.881c0.178,2.063,0.354,4.123,0.531,6.183c1.831,1.936,1.878,3.922,0.179,5.964c-2.159-1.865-4.32-3.727-6.48-5.591c-1.854-2.253-1.836-4.526-0.079-6.818l-0.515,0.08C64.047,48.163,66.174,48.068,68.244,49.881z"/>
<path fill="#FC0000" d="M18.592,44.36c0.038,1.956,0.075,3.909,0.111,5.862c-2.072-0.699-4.144-1.397-10.741-3.622C14.602,45.203,16.598,44.781,18.592,44.36z"/>
<path fill="#FC0000" d="M50.041,50.109c0.028-1.895,0.058-3.787,0.087-5.682c2.163,1.709,4.327,3.418,6.491,5.127l0.421-0.471C54.707,49.426,52.374,49.768,50.041,50.109z"/>
<path fill="#D50000" d="M68.244,49.881c-2.121-0.061-4.241-0.122-6.362-0.183c0.896-1.969,1.791-3.934,4.175-9.165C67.324,45.95,67.783,47.916,68.244,49.881z"/>
<path fill="#FC0000" d="M75.471,49.793c0.46-1.99,0.919-3.977,1.378-5.964c0.851,0,1.7-0.003,2.55-0.003c0.461,1.99,0.92,3.977,1.38,5.963C79.01,51.844,77.241,51.844,75.471,49.793z"/>
<path fill="#FC0000" d="M89.543,40.259c2.566,4.782,3.809,6.055,3.584,6.967c-0.231,0.958-1.978,2.267-2.87,2.136c-0.896-0.135-2.051-1.795-2.191-2.899C87.895,45.117,88.667,43.655,89.543,40.259z"/>
<path fill="#D50000" d="M43.546,50.07c2.271,0.052,4.542,0.101,6.813,0.149c-0.807,1.983-1.615,3.968-3.621,8.887C44.972,54.105,44.259,52.088,43.546,50.07z"/>
<path fill="#FC0000" d="M62.395,49.618c0.025,2.271,0.053,4.544,0.079,6.818c-1.81-0.251-3.621-0.501-6.022-0.833c0.236-2.766,0.394-4.621,0.57-6.498c0.019-0.021-0.442,0.488-0.423,0.471C58.544,49.576,60.469,49.598,62.395,49.618z"/>
<path fill="#AE0000" d="M75.471,49.793c1.769,0,3.539,0,5.308-0.004c-1.847,2.109-3.693,4.218-5.539,6.323l0.363,0.354C75.558,54.242,75.516,52.018,75.471,49.793z"/>
<path fill="#FC0000" d="M68.954,62.027c-0.06-1.987-0.119-3.977-0.179-5.964c2.268,0.135,4.536,0.272,6.816,0.406c0.011-0.003-0.372-0.354-0.363-0.354c-0.217,1.523-0.444,3.046-0.816,5.549C72.687,61.779,70.82,61.902,68.954,62.027z"/>
</svg>