<?xml version="1.0" encoding="utf-8"?>
<!DOCTYPE svg PUBLIC "-//W3C//DTD SVG 1.1//EN" "http://www.w3.org/Graphics/SVG/1.1/DTD/svg11.dtd">
<svg version="1.1" xmlns="http://www.w3.org/2000/svg" xmlns:xlink="http://www.w3.org/1999/xlink" x="0px" y="0px" width="100px" height="100px" viewBox="0 0 100 100" enable-background="new 0 0 100 100" xml:space="preserve">
<path fill="#0F0B07" d="M54.018,96.637c-1.205,0.034-2.411,0.064-3.616,0.095c-1.132-0.775-2.298-1.495-3.494-2.167c-0.437-0.53-0.87-1.062-1.307-1.593c-0.7-1.187-1.311-2.417-1.815-3.698c-0.725-1.966-0.936-4.017-0.992-6.092c-0.078-4.145,0.035-8.298-0.413-12.433c-0.002-1.386,0.014-2.771,0.033-4.159c-0.011-1.398-0.018-2.793-0.042-4.193c-0.066-1.416-0.125-2.823-0.208-4.242c-0.185-2.188-0.426-4.357-0.749-6.531c-0.437-3.045-1.422-6.021-1.021-9.164c0.465-1.59,1.274-2.96,2.429-4.138c1.341-0.998,2.832-1.608,4.479-1.843c1.655-0.088,3.252,0.177,4.783,0.793c2.117,1.227,3.835,2.872,5.107,4.962c1.251,2.896,1.096,5.984,1.172,9.03c0.016,2.85,0.041,5.71,0.096,8.554c0.046,1.331,0.091,2.68,0.146,4.01c0.089,1.285,0.175,2.588,0.278,3.873c0.149,1.245,0.294,2.506,0.464,3.751c0.223,1.211,0.437,2.435,0.678,3.646c0.415,1.776,0.88,3.549,1.382,5.304c0.168,0.58,0.323,1.163,0.494,1.743c0.365,1.159,0.412,2.34,0.165,3.527c-0.5,1.065-1.191,2.008-2.054,2.811c-0.922,0.684-1.753,1.478-2.498,2.354c-0.646,0.928-1.237,1.897-1.764,2.902C55.266,94.757,54.683,95.722,54.018,96.637z"/>
<path fill="#705B37" d="M47.365,68.79c-0.21,5.315-0.419,10.629-0.628,15.945c-1.139,4.437-4.639,5.228-8.482,5.487c-2.303-0.928-4.607-1.853-6.911-2.78c0,0-0.171-1.315-0.171-1.318c-0.19-0.873-0.419-1.737-0.689-2.598c-0.252-0.9-0.562-1.772-0.949-2.64c-0.015-0.016-0.654-1.294-0.674-1.318c-0.02-0.021-0.693-1.346-0.709-1.373c-0.434-1.025-0.716-2.063-0.868-3.177c-0.078-1.212-0.11-2.39-0.107-3.599c0.035-2.679,0.232-5.285,2.037-7.474c1.061-0.995,2.234-1.782,3.564-2.358c2.189-0.513,4.385-0.531,6.599-0.271c1.497,0.332,2.799,1.025,3.941,2.035C44.551,65.25,45.783,67.15,47.365,68.79z"/>
<path fill="#826B43" d="M10.41,71.988c0.003-1.093,0.006-2.186,0.009-3.281c0.971-1.04,1.992-2.029,3.067-2.966c1.262-0.735,2.623-1.099,4.083-1.139c1.451,0.223,2.833,0.644,4.15,1.294c2.561,1.492,5.388,2.688,6.351,5.902c0.36,1.495,0.61,3,0.757,4.531c0.29,2.516-0.526,4.548-2.6,6.04c-2.334,0.427-4.663,0.836-6.5-1.267c-3.015-2.108-6.03-4.218-9.044-6.326C11.48,73.761,11.39,72.833,10.41,71.988z"/>
<path fill="#5C4B2F" d="M54.376,90.829c-0.008-1.208-0.016-2.413-0.023-3.619c0.778-1.065,1.592-2.105,2.438-3.119l-0.561,0.195c1.655-1.77,1.453-4.251,2.405-6.305c0.851-1.367,1.964-2.45,3.349-3.277c1.54-0.595,3.119-0.836,4.764-0.727c2.652,0.418,4.598,1.771,5.73,4.236c0.883,3.714-0.759,6.616-2.988,9.329c-4.221,2.108-8.441,4.214-12.661,6.323l-1.402-0.352C55.182,92.578,54.833,91.681,54.376,90.829z"/>
<path fill="#14100A" d="M69.489,87.543c-0.172-3.021-0.345-6.04-0.519-9.061c-0.594-0.922-1.247-1.798-1.966-2.637c-0.706-0.897-1.318-1.844-1.845-2.866c-0.265-1.178-0.421-2.353-0.467-3.57c-0.024-1.291-0.015-2.552,0.023-3.839c0.098-2.105,0.551-4.074,1.807-5.813c1.587-1.633,3.442-2.793,5.602-3.488c1.541-0.257,3.02-0.064,4.455,0.51c1.236,0.906,2.181,2.063,2.875,3.418c0.638,2.127,0.735,4.327,0.766,6.519c0.014,1.403,0.021,2.819,0.017,4.221c-0.007,1.367-0.036,2.749-0.09,4.119c-0.119,2.036-0.648,3.961-1.688,5.731c-0.826,1.038-1.73,2.011-2.712,2.908C73.661,84.977,71.575,86.261,69.489,87.543z"/>
<path fill="#766239" d="M9.945,49.994c0.226-5.231,0.45-10.465,0.674-15.695c1.465-1.639,3.14-2.872,5.476-2.838c1.436,0.339,2.665,1.041,3.691,2.103c0.72,1.285,1.422,2.572,2.118,3.875c0.685,1.352,1.234,2.744,1.656,4.202c0.195,1.547,0.278,3.085,0.23,4.648c-0.092,1.62-0.487,3.146-1.19,4.608c-0.99,1.373-2.281,2.31-3.889,2.825C14.976,54.379,12.386,52.359,9.945,49.994z"/>
<path fill="#58472B" d="M76.105,68.371c0.003-1.962,0.005-3.927,0.008-5.89c0.633-1.093,1.354-2.124,2.167-3.095c0.896-0.899,1.848-1.732,2.857-2.505c1.649-1.099,3.42-1.66,5.417-1.236c1.793,0.852,3.098,2.262,4.317,3.767c-0.186,2.084-0.368,4.168-0.553,6.253c-0.77,0.979-1.546,1.956-2.332,2.923c-1.27,1.389-2.577,2.731-4.268,3.626c-1.223,0.388-2.455,0.454-3.705,0.152C78.296,71.439,77.032,70.071,76.105,68.371z"/>
<path fill="#1A150B" d="M24.797,81.19c0.435-2.128,0.87-4.252,1.305-6.376c0.389-1.315,0.374-2.621-0.111-3.912c-0.722-2.032-0.49-3.931,0.821-5.67c1.126-0.815,2.373-1.172,3.761-0.998c0.541,0.406,1.079,0.809,1.619,1.212c0.009,3.128,0.019,6.256,0.026,9.381c0.621,0.903,1.125,1.871,1.526,2.89c0.244,1.077,0.223,2.151-0.065,3.22c-0.237,1.068-0.368,2.148-0.409,3.238c-0.05,1.092-0.235,2.16-0.555,3.207l-1.371,0.062c-2.008-1.285-4.018-2.573-6.025-3.86c-1.211-0.293-1.689-0.745-1.443-1.358C24.152,81.534,24.457,81.19,24.797,81.19z"/>
<path fill="#261F12" d="M53.542,6.22c3.222,0.894,6.442,1.791,9.664,2.686c-0.936,3.567-3.607,4.727-6.917,4.996c-2.255,0.128-4.52,0.14-6.776,0.094c-2.211-0.067-4.401-0.265-6.354-1.465c-1.038-1.065-1.675-2.325-1.843-3.812c2.091-0.833,4.18-1.666,6.27-2.499C49.57,4.376,51.557,4.376,53.542,6.22z"/>
<path fill="#A56C3F" d="M54.053,9.665c3.05-0.253,6.102-0.507,9.152-0.76c1.05,1.028,2.101,2.057,3.15,3.082c0.971,1.071,1.496,2.325,1.57,3.769c-0.459,1.37-1.267,2.484-2.428,3.348c-1.343,0.525-2.732,0.732-4.17,0.666c-1.407-0.324-2.736-0.839-3.992-1.551c-1.815-1.199-3.579-2.444-4.423-4.581C52.67,12.134,53.082,10.818,54.053,9.665z"/>
<path fill="#5F4D31" d="M87.851,25.046c0.835,3.088,1.67,6.174,2.504,9.262c-1.113,0.852-2.36,1.41-3.741,1.676c-2.125-0.067-4.202-0.333-6.115-1.367c-1.149-0.913-1.972-2.054-2.492-3.421c-0.2-1.447-0.022-2.848,0.512-4.199c0.799-1.196,1.881-2.075,3.184-2.674c1.386-0.244,2.766-0.189,4.125,0.208C86.5,24.701,87.175,24.875,87.851,25.046z"/>
<path fill="#1A150D" d="M16.083,21.167c1.87-0.757,3.739-1.517,5.609-2.273c0.707,0.195,1.412,0.394,2.12,0.592c1.222,0.87,2.092,2.014,2.655,3.4c0.243,1.461,0.281,2.926,0.083,4.397c-0.452,1.428-1.233,2.649-2.293,3.693c-1.29,0.735-2.684,1.065-4.161,1.041c-1.387-0.36-2.748-0.827-4.069-1.386c-1.078-0.973-1.721-2.194-1.985-3.616C14.382,24.951,16.088,23.358,16.083,21.167z"/>
<path fill="#4C3E25" d="M75.747,83.694c0.125-0.958,0.261-1.913,0.407-2.865c0.827-1.947,1.665-3.888,3.124-5.476c2.696-1.761,5.279-1.666,7.739,0.471c0.323,0.632,0.646,1.264,0.969,1.895C83.906,79.712,79.827,81.701,75.747,83.694z"/>
<path fill="#292114" d="M79.305,18.857c2.85,1.126,5.7,2.249,8.549,3.375c-1.273,1.142-2.482,2.353-3.685,3.574c-0.804,0.809-1.573,1.651-2.301,2.533l0.241-0.07c-1.215,1.059-2.608,1.404-4.177,1.041c-1.31-0.857-2.268-2.008-2.875-3.449c-0.221-1.541-0.056-3.033,0.556-4.471c0.516-0.567,1.031-1.135,1.547-1.7C77.877,19.412,78.59,19.135,79.305,18.857z"/>
<path fill="#846C43" d="M16.373,34.516c-1.918-0.073-3.836-0.146-5.754-0.217c0.851-3.076,1.703-6.149,2.554-9.226c0.434,0.312,0.868,0.625,1.303,0.94c0.156,1.086,0.581,2.051,1.282,2.899c0.967,0.531,1.999,0.839,3.096,0.961c1.099,0.412,1.769,1.187,2.018,2.334c-0.145,1.147-0.668,2.088-1.52,2.86C18.235,35.547,17.241,35.364,16.373,34.516z"/>
<path fill="#8A7149" d="M38.254,90.223c2.827-1.828,5.655-3.659,8.482-5.487c0.01,2.005,0.02,4.01,0.03,6.015c-0.421,0.889-0.758,1.81-1.01,2.759l-1.443,0.274C42.294,92.597,40.274,91.409,38.254,90.223z"/>
<path fill="#504327" d="M82.103,62.329c-1.143,0.058-2.287,0.116-3.43,0.174c-1.017-1.129-1.738-2.417-2.118-3.894c-0.229-1.526,0.023-2.97,0.754-4.331c1.069-1.104,2.352-1.843,3.842-2.222c1.508-0.152,3.008-0.098,4.5,0.165c2.159,0.854,3.781,2.426,5.385,4.022c-0.055,1.056-0.109,2.111-0.164,3.168c-2.093,0.039-4.183,0.079-6.273,0.118C83.782,60.477,82.952,61.41,82.103,62.329z"/>
<path fill="#5B492D" d="M88.157,34.305c0.732-0.015,1.465-0.015,2.198,0.003c0.17,3.131,0.339,6.263,0.51,9.394c-1.64,1.813-3.617,2.561-6.038,1.917c-1.316-0.812-2.261-1.932-2.841-3.363c-0.386-2.408,0.41-4.404,2.122-6.079c0.637-0.391,1.276-0.785,1.914-1.175C86.733,34.769,87.444,34.537,88.157,34.305z"/>
<path fill="#846B43" d="M10.878,65.674c-0.197-2.084-0.394-4.166-0.589-6.247c1.591-1.828,3.537-2.433,5.867-1.7c1.256,0.791,2.179,1.871,2.77,3.232c0.049,0.717,0.098,1.44,0.148,2.157c-0.246,0.672-0.494,1.346-0.74,2.021c-0.998,1.065-2.22,1.721-3.662,1.962C13.196,67.19,11.93,66.718,10.878,65.674z"/>
<path fill="#A46C3F" d="M69.237,12.945c1.134,0.69,2.267,1.376,3.4,2.066c1.002,1.062,1.44,2.322,1.309,3.778c-0.671,1.276-1.644,2.234-2.965,2.829c-2.255,0.446-4.159-0.144-5.665-1.917c-0.585-1.413-0.33-2.686,0.646-3.836l0.677-0.961C67.406,14.121,68.273,13.467,69.237,12.945z"/>
<path fill="#5D4B2F" d="M90.878,46.933c0.244,0.97,0.293,1.95,0.146,2.942c-1.289,1.645-2.896,2.765-5.022,3.024c-1.369,0.049-2.699-0.153-4.001-0.574c-1.133-0.839-1.842-1.956-2.191-3.311c0.079-1.416,0.638-2.619,1.611-3.638c1.281-0.628,2.597-0.68,3.939-0.226C87.299,45.44,89.519,44.855,90.878,46.933z"/>
<path fill="#4E3E26" d="M9.945,49.994c3.068-0.04,6.135-0.083,9.204-0.125c0.85,1.266,1.005,2.597,0.355,4c-1,1.09-2.209,1.816-3.661,2.125c-2.3-0.07-4.109-1.172-5.71-2.717C10.071,52.182,10.007,51.09,9.945,49.994z"/>
<path fill="#B38F5A" d="M53.542,6.22c-1.984,0-3.972,0-5.957,0C49.57,6.22,51.557,6.22,53.542,6.22z"/>
<path fill="#AE7246" d="M34.664,12.213c2.217-1.166,4.435-2.331,6.651-3.494l-0.374,1.239c0.546,1.425,0.221,2.646-0.854,3.695c-1.335,0.553-2.687,0.632-4.063,0.171C35.569,13.287,35.117,12.75,34.664,12.213z"/>
<path fill="#AE7246" d="M28.429,15.369c2.078-1.05,4.156-2.103,6.234-3.156l0.408,0.428c0.54,1.489,0.264,2.808-0.829,3.958c-1.379,0.656-2.803,0.812-4.278,0.384C29.452,16.446,28.94,15.909,28.429,15.369z"/>
<path fill="#AC7044" d="M21.692,18.894c2.246-1.175,4.492-2.35,6.737-3.525l0.325,0.259c0.742,1.334,0.681,2.604-0.303,3.803c-2.077,1.229-3.958,1.221-5.506-0.876L21.692,18.894z"/>
<path fill="#AE7246" d="M72.771,18.277c-0.044-1.086-0.09-2.176-0.134-3.265c2.223,1.282,4.444,2.563,6.668,3.845l-1.237-0.336C76.194,20.773,74.444,20.386,72.771,18.277z"/>
<path fill="#352A1A" d="M85.045,50.037c1.994-0.056,3.987-0.107,5.979-0.162c0.046,1.09,0.092,2.179,0.138,3.269c-1.229,1.604-2.986,1.517-4.73,1.479c-1.216-0.171-2.156-0.784-2.864-1.772C83.44,51.587,83.933,50.65,85.045,50.037z"/>
<path fill="#8A7149" d="M10.134,53.277c2.098,0.062,4.198,0.122,6.297,0.184c0.455,1.37,0.205,2.597-0.751,3.684c-1.967,0.619-3.92,1.165-5.389-0.971C9.917,55.228,9.864,54.26,10.134,53.277z"/>
<path fill="#53432A" d="M84.81,53.116c2.118,0.009,4.234,0.018,6.353,0.027c0.169,1.04,0.13,2.075-0.124,3.101c-2.239-0.086-4.479-0.174-6.715-0.26C83.643,54.886,83.805,53.931,84.81,53.116z"/>
<path fill="#766239" d="M10.291,56.174c2.09-0.128,4.182-0.257,6.274-0.385c0,0,0.815,1.242,0.816,1.242l-0.209,1.471c0.001,0-1.257,0.791-1.257,0.791c-1.875,0.045-3.751,0.088-5.627,0.131C10.29,58.341,10.29,57.257,10.291,56.174z"/>
<path fill="#B4905A" d="M81.883,24.71c1.99-0.827,3.981-1.651,5.971-2.478c0.312,0.937,0.311,1.874-0.003,2.811c0,0.003,0.336-0.257,0.336-0.257c-0.908,0.91-1.994,1.471-3.263,1.682C83.581,26.453,82.585,25.839,81.883,24.71z"/>
<path fill="#B38F5A" d="M16.083,21.167c0.02,1.45,0.04,2.902,0.058,4.352c-0.711,0.62-1.42,1.242-2.132,1.862c-0.335-0.882-0.671-1.764-1.005-2.646l0.169,0.339C14.142,23.77,15.113,22.47,16.083,21.167z"/>
<path fill="#504327" d="M90.878,46.933c-2.043-0.07-4.086-0.144-6.129-0.217c-0.938-1.178-0.792-2.204,0.437-3.076c1.895,0.021,3.788,0.042,5.681,0.061C90.87,44.778,90.875,45.856,90.878,46.933z"/>
<path fill="#5F4D31" d="M90.927,71.954c-0.98,1.923-1.962,3.843-2.941,5.765l-0.075-1.153c-0.405-0.467-0.813-0.937-1.221-1.403c-0.134-1.276,0.188-2.424,0.968-3.439C88.803,71.012,89.896,71.048,90.927,71.954z"/>
<path fill="#7C6440" d="M24.797,81.19c0.16,0.799,0.334,1.599,0.521,2.393c-1.865-0.824-3.728-1.651-5.591-2.479C21.416,81.131,23.107,81.161,24.797,81.19z"/>
<path fill="#8A7149" d="M10.878,65.674l0.526-0.106c0.903,0.167,1.807,0.335,2.71,0.503c-0.287,0.873-0.574,1.746-0.86,2.622l-1.418-0.007l-1.417,0.021C10.573,67.697,10.726,66.684,10.878,65.674z"/>
<path fill="#AE7246" d="M69.237,12.945c-0.866,0.656-1.734,1.313-2.6,1.962c-0.079-0.977-0.174-1.95-0.281-2.92C67.34,12.237,68.3,12.555,69.237,12.945z"/>
<path fill="#5F4D31" d="M89.001,65.487c0,0,1.326,0.178,1.323,0.178c0.53,0.934,0.733,1.935,0.604,3.003c-1.246,1.202-2.488,1.138-3.729-0.01C86.727,66.992,87.328,65.937,89.001,65.487z"/>
<path fill="#4C3E25" d="M88.233,68.625c0.898,0.043,1.799,0.055,2.696,0.046c0,1.093,0.001,2.188,0,3.283c-0.002,0-1.397-0.012-1.397-0.012l-1.395,0.019c-0.309-0.565-0.617-1.13-0.924-1.694C87.552,69.721,87.893,69.171,88.233,68.625z"/>
<path fill="#8A7149" d="M10.41,71.988c0.307,0.909,0.398,1.84,0.273,2.789C10.048,73.901,9.959,72.971,10.41,71.988z"/>
<path fill="#4E3E26" d="M47.03,96.573c-0.905-0.931-1.812-1.858-2.716-2.79c-0.067-0.644,0.069-1.242,0.406-1.791c1.116,0.098,1.873,0.668,2.272,1.712l1.326,0.04C48.804,95.106,48.376,96.048,47.03,96.573z"/>
<path fill="#17130C" d="M47.03,96.573c0.381-0.965,0.81-1.907,1.287-2.829c0.696,0.998,1.394,1.996,2.086,2.99C49.277,96.68,48.154,96.625,47.03,96.573z"/>
<path fill="#3A2F1D" d="M54.018,96.637c0.029-1.074,0.057-2.146,0.084-3.22c0.469-0.934,1.207-1.267,2.216-1.001l0.51,1.45C55.892,94.791,54.955,95.715,54.018,96.637z"/>
<path fill="#594B35" d="M68.764,69.23c0.195,0.997,0.488,1.968,0.879,2.905c0.806,1.037,0.711,1.983-0.285,2.838l-0.737-0.418c-0.8,2.936-4.309,1.614-5.696,3.625l0.232-0.125c-1.236,1.169-2.978,1.529-4.237,2.658c-0.789,0.879-1.758,1.264-2.938,1.08c-0.574-2.225-1.149-4.449-1.723-6.674c1.175-1.572,2.271-3.195,3.106-4.98c0.748-1.111,1.708-1.98,2.886-2.615c1.848-0.735,3.674-1.557,5.748-1.074C67.196,67.102,68.103,68.042,68.764,69.23z"/>
<path fill="#816A41" d="M44.201,40.683c0.108,0.891,0.204,1.785,0.29,2.679c1.438,2.692,0.017,4.624-1.729,6.473c-1.466,0.84-3.04,1.31-4.727,1.407c-2.567,0.061-5.014-0.323-7.167-1.853c-1.212-1.248-1.934-2.734-2.175-4.453c0.096-2.686,1.511-4.639,3.507-6.253c1.326-0.946,2.781-1.639,4.353-2.069c1.605-0.199,3.185-0.043,4.724,0.47c0.633,0.479,1.271,0.958,1.906,1.438C43.52,39.243,43.86,39.963,44.201,40.683z"/>
<path fill="#453821" d="M54.013,62.662c0.097-3.26,0.192-6.516,0.287-9.772c1.093-1.229,2.352-2.249,3.781-3.066c2.526-0.76,4.834-0.366,6.901,1.3c1.085,1.291,1.68,2.783,1.795,4.465c-0.273,2.478-1.61,4.531-2.72,6.671c-0.914,1.361-2.148,2.313-3.697,2.854C57.794,65.467,55.773,64.404,54.013,62.662z"/>
<path fill="#826941" d="M46.496,53.061c0.165,2.088,0.33,4.172,0.493,6.257c-1.774,1.873-3.829,3.097-6.534,2.816c-1.695-0.269-3.133-1.022-4.317-2.268c-1.42-2.292-1.527-4.645-0.323-7.059c1.733-2.115,4.057-2.597,6.63-2.377C44.065,50.891,45.415,51.767,46.496,53.061z"/>
<path fill="#8A7149" d="M46.496,53.061l-0.704,0.144c-2.557-1.357-6.331-1.788-4.781-6.274c1.16-1.19,2.319-2.38,3.479-3.567C45.159,46.594,45.827,49.829,46.496,53.061z"/>
<path fill="#5A492E" d="M57.556,53.036c-1.086-0.049-2.171-0.098-3.256-0.146c-0.06-2.979-0.119-5.957-0.18-8.938c1.086-0.824,2.282-1.083,3.603-0.689c1.124,0.708,1.964,1.663,2.519,2.869c0.237,1.297,0.115,2.563-0.364,3.796C59.174,51.014,58.401,52.051,57.556,53.036z"/>
<path fill="#17130B" d="M56.793,43.72c-0.892,0.079-1.782,0.158-2.674,0.231c-1.194-0.934-2.391-1.867-3.587-2.801c0.514-1.291,1.441-2.121,2.78-2.49c1.359,0.037,2.55,0.503,3.573,1.401c0.238,0.616,0.478,1.233,0.717,1.846C57.333,42.511,57.062,43.115,56.793,43.72z"/>
<path fill="#B28E59" d="M53.397,40.506c-0.99,0.058-1.945,0.271-2.865,0.644c-0.906-0.373-1.85-0.583-2.829-0.635c-0.696-0.806-0.941-1.624-0.737-2.451c0.205-0.836,0.418-1.251,0.643-1.254c1.924-1.413,3.859-1.425,5.803-0.046C54.311,38.016,54.306,39.261,53.397,40.506z"/>
<path fill="#766239" d="M41.066,59.381c1.975-0.021,3.949-0.043,5.923-0.063c-0.007,1.095-0.014,2.19-0.021,3.286c-0.891,1.022-1.988,1.694-3.326,1.959c-1.29-0.365-2.481-0.931-3.562-1.727C39.629,61.459,39.959,60.309,41.066,59.381z"/>
<path fill="#8A7149" d="M40.98,62.649c1.998-0.015,3.993-0.03,5.991-0.046c0.326,0.906,0.383,1.831,0.166,2.769c-1.941,2.371-3.962,1.965-6.025,0.177l0.143,0.085c-0.909-0.586-1.252-1.224-1.031-1.913C40.452,63.007,40.703,62.649,40.98,62.649z"/>
<path fill="#5F4D31" d="M54.013,62.662c1.72,0.033,3.439,0.066,5.161,0.098c0.782,0.754,1.075,1.535,0.876,2.344c-0.203,0.823-0.426,1.235-0.67,1.238c-2.083,1.209-3.935,1.169-5.396-0.991C53.879,64.453,53.888,63.556,54.013,62.662z"/>
<path fill="#4E3E26" d="M41.111,65.549c2.008-0.059,4.016-0.116,6.025-0.177c0.076,1.141,0.153,2.279,0.229,3.418C45.279,67.709,43.195,66.629,41.111,65.549z"/>
<path fill="#352A1A" d="M53.985,65.351c1.994,0.098,3.988,0.198,5.981,0.299c0.375,0.546,0.749,1.096,1.124,1.642c0.008,1.44-0.653,2.438-1.983,2.991c-2.126,0.903-3.809,0.161-5.266-1.416C53.888,67.694,53.937,66.523,53.985,65.351z"/>
<path fill="#53432A" d="M53.841,68.866c1.88-0.104,3.758-0.205,5.638-0.309c1.247,0.546,1.614,1.486,1.227,2.759l-1.216,0.602c-1.829,1.755-3.644,1.95-5.432-0.059C53.818,70.871,53.747,69.876,53.841,68.866z"/>
<path fill="#504327" d="M54.058,71.859c1.813,0.019,3.628,0.037,5.437,0.059c-1.749,1.068-3.493,2.133-5.237,3.201C54.192,74.032,54.125,72.946,54.058,71.859z"/>
<path fill="#17130B" d="M47.182,37.5c-0.006,1.038,0.167,2.042,0.521,3.015c-1.166,0.055-2.333,0.113-3.5,0.168c-0.001,0,0.064,0.049,0.064,0.049c-0.699-0.614-0.984-1.273-0.854-1.978c0.134-0.729,0.304-1.096,0.503-1.093c0.531-0.278,1.065-0.555,1.596-0.833C46.067,37.055,46.625,37.277,47.182,37.5z"/>
<path fill="#5F4D31" d="M59.928,82.013c-1.229,0.76-2.459,1.517-3.693,2.273c-0.206-0.82-0.285-1.653-0.248-2.496c-0.005,0.003,0.69-0.491,0.69-0.491C58.217,79.465,59.3,79.706,59.928,82.013z"/>
<path fill="#5F4D31" d="M56.79,84.091c-0.813,1.041-1.626,2.082-2.438,3.119C55.164,86.173,55.977,85.132,56.79,84.091z"/>
<path fill="#8A7149" d="M46.991,93.704c-0.896-0.385-1.654-0.952-2.273-1.709c0.688-0.412,1.37-0.827,2.049-1.245C47.22,91.705,47.295,92.691,46.991,93.704z"/>
<path fill="#5F4D31" d="M56.318,92.416c-0.688,0.446-1.427,0.778-2.216,1.001c-0.101-0.885-0.011-1.745,0.271-2.588C55.013,91.369,55.66,91.898,56.318,92.416z"/>
<path fill="#4E3E26" d="M40.98,62.649c0.116,0.992,0.208,1.987,0.273,2.984c-1.886-0.027-3.773-0.058-5.661-0.085c-1.332-0.702-1.658-1.768-1.12-3.141c0.916-1.025,2.058-1.584,3.432-1.669c1.369,0.195,2.454,0.839,3.213,2.008L40.98,62.649z"/>
<path fill="#55462A" d="M30.922,78.705c0.43-1.291,0.862-2.585,1.295-3.879c1.013,0.039,2.025,0.03,3.037-0.024c0.838-0.922,1.712-0.958,2.622-0.106c0.281,1.571,0.563,3.143,0.845,4.715c-1.038,0.604-2.129,1.092-3.281,1.44c-1.222,0.125-2.375-0.086-3.452-0.687C31.633,79.676,31.278,79.19,30.922,78.705z"/>
<path fill="#846B43" d="M38.689,80.588c-1.21,1.272-2.42,2.542-3.63,3.814c-1.002,1.303-1.909,1.178-2.733-0.183l-1.024,0.247c-0.822-1.178-0.829-2.387-0.126-3.616c1.715-1.325,3.711-1.145,5.688-1.054C37.473,80.06,38.08,80.325,38.689,80.588z"/>
<path fill="#846B43" d="M34.916,62.519c0.121,1.034,0.342,2.044,0.67,3.03c-1.126-0.033-2.26-0.067-3.394-0.104l-0.838,0.356c-0.745-1.138-0.74-2.246,0.128-3.323c0.575-0.247,1.15-0.497,1.724-0.744C33.777,61.996,34.346,62.256,34.916,62.519z"/>
<path fill="#846B43" d="M37.876,74.695c-0.875,0.085-1.749,0.118-2.625,0.106C36.115,74.469,36.989,74.436,37.876,74.695z"/>
<path fill="#010101" d="M38.721,79.41l-0.49,0.586l0.458,0.592l0.02,0.177c-0.9-0.418-1.802-0.836-2.703-1.257c0.93-0.354,1.857-0.708,2.787-1.063L38.721,79.41z"/>
<path fill="#8A7149" d="M32.326,84.22c0.91,0.063,1.819,0.125,2.731,0.183c-0.78,0.992-1.563,1.986-2.344,2.979C32.584,86.328,32.456,85.273,32.326,84.22z"/>
<path fill="#4E3E26" d="M25.165,71.832c-1.919-1.05-3.837-2.103-5.757-3.152c0.357-0.524,0.714-1.047,1.069-1.571c1.817-0.995,3.587-0.931,5.309,0.234c0.748,1.063,1.088,2.24,1.02,3.537C26.259,71.197,25.711,71.515,25.165,71.832z"/>
<path fill="#55462A" d="M13.254,68.692c-0.615-1.044-1.23-2.085-1.847-3.128c1.651,0.18,3.307,0.356,4.962,0.537c-0.029,0.711-0.058,1.422-0.085,2.133C15.276,68.397,14.266,68.549,13.254,68.692z"/>
<path fill="#4E3E26" d="M16.285,68.234c-0.003-0.714,0.024-1.429,0.084-2.14c0.001,0.007-0.269-0.778-0.269-0.778c2.942-0.524,4.234,0.434,3.165,3.52c0,0,0.142-0.156,0.144-0.156C18.368,68.53,17.325,68.384,16.285,68.234z"/>
<path fill="#0D0A06" d="M28.681,71.884c-0.859,0.977-1.718,1.953-2.579,2.93c-0.307-0.994-0.62-1.989-0.937-2.981l1.251,0.26c0.307-0.787,0.615-1.578,0.921-2.368C27.787,70.443,28.234,71.164,28.681,71.884z"/>
<path fill="#352A1A" d="M62.924,78.18c1.9-1.208,3.801-2.417,5.699-3.625c0.114,1.309,0.232,2.615,0.348,3.924C66.955,78.381,64.94,78.28,62.924,78.18z"/>
<path fill="#3A2F1D" d="M59.928,82.013c-1.082-0.237-2.166-0.476-3.251-0.714c2.159-1.08,4.32-2.164,6.479-3.244C62.081,79.373,61.005,80.694,59.928,82.013z"/>
<path fill="#362B1B" d="M59.966,65.649c-0.175-0.989-0.436-1.95-0.788-2.89c-0.004,0,1.23-0.485,1.23-0.485c1.94-2.012,3.517-4.288,4.891-6.714c1.246-0.735,2.57-0.925,3.975-0.564c1.169,0.872,1.813,2.047,2.007,3.481c-0.301,1.383-0.875,2.644-1.681,3.803c-0.276,2.313-0.554,4.63-0.833,6.946c-0.812-0.187-1.623-0.354-2.441-0.498c-2.726,0.104-4.734-1.248-6.459-3.18L59.966,65.649z"/>
<path fill="#4C3E25" d="M88.137,71.961c-0.025,1.229-0.049,2.459-0.074,3.689c-2.61,1.425-5.454,0.744-8.206,0.909c-1.446,0.082-2.697-0.372-3.752-1.367c-0.044-1.053-0.088-2.108-0.133-3.162c1.207-2.456,4.438-1.343,5.902-3.341l-0.085,0.055c3.306-2.265,4.327,0.757,5.882,2.545L88.137,71.961z"/>
<path fill="#3A2F1D" d="M81.875,68.69c-1.969,1.113-3.937,2.228-5.903,3.341c0.046-1.218,0.088-2.438,0.134-3.655C78.03,68.479,79.952,68.582,81.875,68.69z"/>
<path fill="#5F4D31" d="M76.105,75.192c0.86-0.016,1.722-0.021,2.583-0.024c0.691,0.494,1.385,0.988,2.076,1.483c-0.69,0.497-1.38,0.994-2.069,1.492c-0.847,0.894-1.695,1.791-2.542,2.686C76.137,78.949,76.121,77.072,76.105,75.192z"/>
<path fill="#0E0B07" d="M75.345,59.274c-0.971,0.03-1.939,0.063-2.91,0.095c-0.335-0.51-0.673-1.02-1.008-1.532c0.348-2.259,1.808-2.896,3.869-2.664c1.073,0.727,1.585,1.739,1.536,3.033C76.337,58.564,75.841,58.917,75.345,59.274z"/>
<path fill="#0E0B07" d="M69.6,62.28c-0.036-0.949-0.021-1.896,0.048-2.838c0.893-1.709,1.824-1.728,2.794-0.064l-0.007-0.009C71.491,60.34,70.544,61.31,69.6,62.28z"/>
<path fill="#5B492D" d="M78.671,59.461c0.005,1.013,0.005,2.025,0.002,3.042c-0.856-0.009-1.712-0.015-2.565-0.021c-0.25-1.071-0.505-2.139-0.761-3.207c-0.002,0,0.845,0.375,0.845,0.375c0.355-0.784,0.711-1.571,1.066-2.355C77.73,58.014,78.2,58.737,78.671,59.461z"/>
<path fill="#010101" d="M69.358,74.973c-0.023-0.958,0.071-1.904,0.285-2.838C69.676,73.096,69.583,74.039,69.358,74.973z"/>
<path fill="#8A7149" d="M19.418,47.336c-0.032-1.135-0.066-2.271-0.098-3.403c1.35-1.914,3.143-2.902,5.531-2.658c1.395,0.528,2.519,1.389,3.334,2.646c0.383,1.416,0.723,2.841,1.03,4.275c0.389,2.344-0.22,4.352-1.968,5.987c-1.346,0.702-2.764,0.91-4.253,0.626C19.646,53.351,21.766,49.276,19.418,47.336z"/>
<path fill="#5F4F2F" d="M25.002,44.058c-1.894-0.042-3.789-0.088-5.682-0.128c-0.013-1.196-0.024-2.393-0.037-3.589c0.389-0.479,0.777-0.958,1.166-1.438c1.152-0.525,2.347-0.668,3.589-0.433c1.126,0.583,1.956,1.452,2.492,2.6C26.685,42.407,26.143,43.384,25.002,44.058z"/>
<path fill="#1E1608" d="M19.418,47.336c0.996,1.929,1.993,3.86,2.987,5.789c-0.516,0.299-1.031,0.595-1.549,0.891c-0.531-0.265-1.063-0.533-1.596-0.799c-0.037-1.117-0.073-2.231-0.111-3.348C19.338,49.035,19.428,48.19,19.418,47.336z"/>
<path fill="#5D4124" d="M16.373,34.516c1.074-0.08,2.148-0.156,3.223-0.235c0.317,0.543,0.636,1.086,0.955,1.633c-0.042,1.352-0.65,2.329-1.913,2.866c-0.633-0.021-1.267-0.04-1.9-0.061c-0.267-0.574-0.533-1.15-0.798-1.725C16.08,36.167,16.224,35.339,16.373,34.516z"/>
<path fill="#4E3E26" d="M16.408,40.201c-0.29-0.693-0.658-1.364-0.832-2.084c-0.08-0.323,0.23-0.744,0.363-1.12c0-0.003,0.525,1.019,0.525,1.019c1.234,0.519,1.634,1.013,1.21,1.489C17.264,39.966,16.846,40.201,16.408,40.201z"/>
<path fill="#372C1B" d="M16.408,40.201c-0.014-0.729,0.004-1.461,0.055-2.188c0.87-0.177,1.745-0.305,2.627-0.378c0.929,0.595,1.274,1.236,1.035,1.922c-0.246,0.708-0.511,1.065-0.797,1.065c0,0-0.047-0.275-0.047-0.278c0.001-0.003-1.44,0.006-1.44,0.006L16.408,40.201z"/>
<path fill="#352A1A" d="M87.671,71.289c-1.961-0.849-3.922-1.697-5.882-2.545c2.396-1.084,4.791-2.17,7.198-3.254c-0.244,1.044-0.502,2.091-0.757,3.138C88.041,69.513,87.853,70.401,87.671,71.289z"/>
<path fill="#3A2F1D" d="M82.103,62.329c0.833-0.934,1.667-1.868,2.498-2.802C83.766,60.465,82.935,61.396,82.103,62.329z"/>
<path fill="#211B11" d="M32.393,62.54c-0.346,1.086-0.692,2.176-1.039,3.262c-0.894-0.049-1.79-0.101-2.684-0.152c-0.571,0.467-1.142,0.931-1.715,1.395c-1.476-0.354-2.681-1.129-3.621-2.322c-0.894-2.265-0.598-4.343,0.961-6.229c1.306-0.827,2.725-1.147,4.26-0.965c1.419,0.589,2.558,1.521,3.421,2.793C32.116,61.06,32.254,61.801,32.393,62.54z"/>
<path fill="#161008" d="M25.589,65.613c1.027,0.006,2.056,0.018,3.083,0.036c0.003,2.078,0.006,4.156,0.009,6.231c-0.76,0.04-1.518,0.107-2.269,0.211c-0.471-1.261-0.949-2.521-1.425-3.781C24.367,67.228,24.567,66.327,25.589,65.613z"/>
<path fill="#1F1A10" d="M32.308,81.336c-0.336,1.043-0.67,2.087-1.006,3.131c-0.125-1.923-0.252-3.843-0.38-5.762l1.433-0.607c1.07,0.735,1.418,1.459,1.048,2.176C33.037,80.981,32.672,81.336,32.308,81.336z"/>
<path fill="#A0693C" d="M40.734,12.1c0.078-0.711,0.146-1.428,0.208-2.142c2.055-0.104,4.111-0.208,6.166-0.312c0.707,0.732,0.987,1.505,0.842,2.313c-0.146,0.827-0.325,1.239-0.537,1.242c-1.726,1.465-3.597,1.645-5.602,0.635C41.451,13.26,41.092,12.68,40.734,12.1z"/>
<path fill="#533622" d="M47.516,12.573c-0.087-0.982-0.223-1.959-0.409-2.93c2.315,0.009,4.631,0.015,6.946,0.021c-0.182,0.977-0.344,1.956-0.485,2.936c-0.266,0.464-0.531,0.928-0.798,1.392c-0.936,0.571-1.95,0.806-3.043,0.714c-0.478-0.241-0.953-0.485-1.433-0.727C48.035,13.51,47.776,13.043,47.516,12.573z"/>
<path fill="#4E341F" d="M59.945,15.689c1.054,0.15,2.11,0.302,3.164,0.452c1.586,1.614,2.156,3.671,2.524,5.82c-0.273,1.471-0.951,2.719-2.037,3.75c-1.383,0.653-2.808,0.781-4.285,0.394c-1.313-0.784-2.304-1.861-2.981-3.231c-0.307-1.496-0.25-2.97,0.217-4.425c0.45-0.604,0.9-1.206,1.351-1.81C58.579,16.321,59.262,16.006,59.945,15.689z"/>
<path fill="#543823" d="M53.568,12.601c2.126,1.032,4.251,2.06,6.377,3.088l0.131-0.167c-0.966,1.074-2.144,1.81-3.534,2.206c-1.465-0.082-2.705-0.665-3.755-1.678c-0.554-1.459-0.179-2.667,0.998-3.653L53.568,12.601z"/>
<path fill="#4C2C18" d="M63.157,22.165c-0.016-2.008-0.032-4.02-0.048-6.027c0.933-0.287,1.885-0.378,2.854-0.274c0.148,0.836,0.289,1.669,0.42,2.502c0.685,0.702,0.957,1.44,0.817,2.216c-0.143,0.793-0.315,1.19-0.519,1.19C65.59,22.656,64.411,22.748,63.157,22.165z"/>
<path fill="#58472B" d="M82.281,31.213c1.957,1.032,3.915,2.06,5.874,3.091c0.002,0-0.174,0.287-0.174,0.287c-1.256,1.495-1.969,3.458-3.804,4.465c-1.12,0.806-2.371,1.175-3.746,1.175c-1.342-0.378-2.452-1.093-3.306-2.204c-0.451-1.333-0.459-2.664-0.028-4.004C78.304,32.126,80.128,31.366,82.281,31.213z"/>
<path fill="#18130C" d="M82.281,31.213c-1.217,1.032-2.433,2.063-3.648,3.094c-0.655-0.061-1.31-0.125-1.964-0.189c-1.155-0.69-2.018-1.645-2.587-2.863c-0.195-1.336,0.051-2.582,0.808-3.714c1.25-0.745,2.39-0.567,3.435,0.409c1.261,0.104,2.521,0.21,3.784,0.317C82.026,29.257,82.083,30.24,82.281,31.213z"/>
<path fill="#0E0B06" d="M81.883,24.71c1.029,0.183,2.033,0.452,3.013,0.809c0.903,0.492,1.194,0.968,0.88,1.429c-0.308,0.451-0.617,0.68-0.932,0.68c-0.983,0.281-1.975,0.516-2.976,0.708C81.873,27.13,81.879,25.922,81.883,24.71z"/>
<path fill="#19140C" d="M84.844,27.627c0.018-0.702,0.036-1.407,0.052-2.109c1.097-0.244,2.192-0.488,3.29-0.732C87.072,25.735,85.958,26.682,84.844,27.627z"/>
<path fill="#442516" d="M19.087,28.272c1.081-0.049,2.161-0.098,3.243-0.149c0.902-1.142,2.011-1.474,3.363-0.857c0.81,1.129,1.059,2.359,0.662,3.702c-0.815,1.102-1.891,1.8-3.226,2.103c-1.371-0.156-2.471-0.784-3.299-1.886l-1.141,0.312C17.044,30.2,17.176,29.126,19.087,28.272z"/>
<path fill="#766239" d="M19.087,28.272c-0.132,1.074-0.265,2.148-0.398,3.223c-1.83-1.224-3.658-2.444-5.487-3.665c0.897-1.163,1.874-1.178,2.916-0.198C17.09,27.927,18.081,28.14,19.087,28.272z"/>
<path fill="#553824" d="M22.628,25.229c0.002-1.187,0.003-2.372,0.005-3.559c1.621-1.743,3.549-1.349,5.501-0.796c0.949,1.016,1.338,2.219,1.167,3.598c-0.734,1.166-1.777,1.889-3.128,2.167C24.799,26.654,23.617,26.181,22.628,25.229z"/>
<path fill="#A16B3E" d="M28.74,21.808c-2.037-0.045-4.074-0.088-6.109-0.137c0.105-1.038,0.209-2.078,0.314-3.116c1.633,0.055,3.266,0.11,4.898,0.165c0.543,0.055,1.088,0.109,1.633,0.165c0.087,0.54,0.172,1.081,0.259,1.621C29.404,20.938,29.071,21.375,28.74,21.808z"/>
<path fill="#0E0B06" d="M16.118,27.631l-1.446,0.274l-1.471-0.076c-0.163-1.025-0.229-2.057-0.197-3.095c1.045,0.26,2.092,0.522,3.137,0.784C16.144,26.224,16.137,26.929,16.118,27.631z"/>
<path fill="#AE7246" d="M22.628,25.229c0.972-0.067,1.926,0.042,2.858,0.327c0.705,0.687,0.929,1.364,0.673,2.029c-0.253,0.659-0.5,0.989-0.743,0.989c-1.015-0.238-2.042-0.391-3.084-0.452C22.278,27.143,22.378,26.178,22.628,25.229z"/>
<path fill="#5F4D31" d="M78.695,78.144c-0.002-0.992-0.005-1.987-0.007-2.976c3.125,0.155,6.252,0.309,9.377,0.473c-0.002,0.01-0.157,0.946-0.155,0.938C84.839,77.091,81.768,77.615,78.695,78.144z"/>
<path fill="#543823" d="M78.395,21.521c0.008,1.285,0.016,2.57,0.023,3.854c-0.992,0.839-2.144,1.263-3.437,1.331c-1.313-0.073-2.421-0.583-3.332-1.532c-0.217-0.598-0.433-1.196-0.648-1.794c0.117-1.355,0.799-2.304,2.046-2.844C74.924,20.352,76.833,20.001,78.395,21.521z"/>
<path fill="#A16B3E" d="M78.395,21.521c-2.006,0.14-4.014,0.281-6.022,0.421c-0.746-0.607-1.021-1.242-0.825-1.908c0.2-0.677,0.415-1.016,0.646-1.016c0,0,0.572-0.732,0.576-0.735c1.767,0.076,3.532,0.159,5.298,0.238C78.432,19.495,78.542,20.493,78.395,21.521z"/>
<path fill="#AE7246" d="M75.635,25.623c0.909-0.293,1.837-0.375,2.783-0.25c0.142,0.867,0.111,1.728-0.093,2.579c-0.886,0.159-1.766,0.339-2.644,0.537c-0.712-0.626-0.958-1.257-0.733-1.898C75.172,25.946,75.402,25.623,75.635,25.623z"/>
<path fill="#211B11" d="M19.831,31.183c0.854,0.083,1.711,0.119,2.57,0.11c0.624,0.72,0.845,1.452,0.662,2.194c-0.185,0.748-0.377,1.12-0.578,1.12c-1.183,0.784-2.225,0.628-3.128-0.467c0,0,0.23,0.137,0.235,0.14C19.46,33.231,19.538,32.199,19.831,31.183z"/>
<path fill="#251E12" d="M81.867,55.338c-1.001,0.115-2,0.24-2.998,0.378c-1.143-0.76-1.901-1.788-2.221-3.134c0.097-1.377,0.663-2.536,1.64-3.504c1.397-0.491,2.494-0.112,3.289,1.139l0.309-0.244c0.844,0.744,1.34,1.669,1.436,2.799C83.428,53.964,82.916,54.804,81.867,55.338z"/>
<path fill="#4C3E25" d="M78.579,53.076c0.158,0.876,0.255,1.761,0.288,2.646c-0.063,1.239-0.13,2.487-0.195,3.739c-0.827,0.063-1.653,0.128-2.48,0.188c-0.306-1.083-0.61-2.167-0.917-3.25c-0.691-0.787-0.968-1.605-0.829-2.46c0.142-0.872,0.314-1.309,0.519-1.309C76.287,51.828,77.497,51.932,78.579,53.076z"/>
<path fill="#221B11" d="M81.867,55.338c-0.008-0.748-0.022-1.499-0.043-2.246c1.122-1.453,2.163-1.331,3.136,0.158c0,0-0.149-0.131-0.149-0.134c-0.136,0.961-0.296,1.919-0.483,2.868C83.484,55.848,82.665,55.631,81.867,55.338z"/>
<path fill="#3B2E1C" d="M85.186,43.64c-0.15,1.025-0.295,2.051-0.436,3.076c-0.909,0.174-1.818,0.333-2.729,0.476c-2.311,1.38-3.863,0.519-4.967-1.672c-0.176-1.422,0.12-2.737,0.885-3.946c1.085-0.876,2.278-1.563,3.596-2.029c1.446-0.373,2.638,0.052,3.608,1.163C85.127,41.687,85.14,42.664,85.186,43.64z"/>
<path fill="#352A1A" d="M85.143,40.708c-1.177-0.073-2.354-0.146-3.531-0.22c-0.79-0.736-1.013-1.422-0.671-2.057c0.326-0.61,0.639-0.916,0.937-0.916c1.102-0.107,2.203-0.213,3.304-0.323c0.879-0.958,1.889-1.078,3.012-0.47C87.177,38.049,86.159,39.38,85.143,40.708z"/>
<path fill="#5F4D31" d="M88.193,36.722c-0.985,0.281-1.991,0.439-3.014,0.473c0.936-0.87,1.869-1.74,2.804-2.606C88.029,35.303,88.098,36.014,88.193,36.722z"/>
<path fill="#856D45" d="M25.589,65.613c-0.209,0.896-0.409,1.797-0.603,2.697c-1.907,0.174-3.816,0.351-5.722,0.525c-1.054-1.172-2.109-2.341-3.165-3.516c0.067-1.051,0.136-2.097,0.203-3.146c0.888-0.837,1.881-1.518,2.996-2.021c1.231-0.073,2.38,0.192,3.427,0.857c1.155,1.446,1.54,3.244,2.213,4.91L25.589,65.613z"/>
<path fill="#493D24" d="M19.133,62.359c-0.947-0.009-1.892-0.066-2.832-0.18c-0.098-0.968-0.223-1.929-0.381-2.884c-0.004-0.003,0.74,0.293,0.74,0.293c0.984-0.837,1.988-0.864,3.017-0.083C20.357,60.623,20.217,61.581,19.133,62.359z"/>
<path fill="#543823" d="M72.194,19.019c0.118,0.971,0.178,1.944,0.179,2.924l0.185-0.199c-0.619,1.007-1.471,1.755-2.554,2.234c-1.198,0.058-2.281-0.262-3.255-0.958c-0.163-0.562-0.323-1.123-0.485-1.682c0.003-0.992,0.043-1.98,0.117-2.969C68.319,18.585,70.256,18.802,72.194,19.019z"/>
<path fill="#4A3A22" d="M78.782,43.567c1.078,1.206,2.157,2.411,3.236,3.623c-0.127,1.013-0.274,2.021-0.439,3.024c-0.903-0.092-1.81-0.153-2.716-0.189c-1.119,1.212-2.483,1.56-4.061,1.159c-1.349-0.796-2.367-1.895-3.057-3.299c-0.31-1.513-0.356-3.033-0.103-4.559c0.588-1.443,1.516-2.622,2.78-3.531c1.479-0.534,2.953-0.519,4.421,0.046c0.869,0.842,1.15,1.675,0.842,2.499C79.381,43.158,79.079,43.567,78.782,43.567z"/>
<path fill="#5F4D31" d="M84.96,53.25c-1.045-0.052-2.09-0.106-3.136-0.158c-0.004-1.041,0.015-2.078,0.059-3.119c1.054,0.021,2.104,0.039,3.16,0.064C85.016,51.107,84.987,52.179,84.96,53.25z"/>
<path fill="#9F9F9F" d="M16.565,55.789c-0.137-0.771-0.182-1.547-0.134-2.328c0.928-0.254,1.871-0.336,2.829-0.244l-0.049-0.027c0.737,0.613,1.038,1.278,0.901,1.998c-0.142,0.745-0.319,1.114-0.532,1.114c-1.1,0.77-2.193,0.794-3.276-0.033L16.565,55.789z"/>
<path fill="#A16B3E" d="M34.903,14.871c0.037-0.745,0.093-1.489,0.168-2.23c1.889-0.177,3.78-0.354,5.666-0.537c-0.003-0.003,0.754,0.674,0.754,0.674c0.72,1.114,0.837,2.271,0.258,3.479c-1.351,1.55-3.03,2.042-5.014,1.553C35.56,17.185,34.974,16.19,34.903,14.871z"/>
<path fill="#8A4D2C" d="M27.843,18.72c0.304-1.032,0.607-2.06,0.911-3.092c2.049-0.25,4.1-0.5,6.149-0.754c0-0.003,0.126,1.273,0.126,1.273c0.865,1.285,0.8,2.521-0.195,3.708c-2.131,1.074-4.026,0.77-5.674-0.977L27.843,18.72z"/>
<path fill="#57462D" d="M16.304,56.269c1.04-0.007,2.075,0.042,3.11,0.146l0.929,1.172l-0.236,1.479l-1.485,0.202c-0.659,0.088-1.315,0.195-1.965,0.317C16.543,58.481,16.423,57.373,16.304,56.269z"/>
<path fill="#6D6D6D" d="M59.867,65.549c2.153,1.059,4.306,2.118,6.459,3.18c-1.874,0.863-3.749,1.728-5.621,2.591c-0.372-0.937-0.781-1.855-1.226-2.759C59.728,67.572,59.858,66.568,59.867,65.549z"/>
<path fill="#1C180D" d="M25.002,44.058c0.07-1.214,0.14-2.426,0.21-3.641c0.339-0.62,0.676-1.242,1.013-1.865c1.769-1.462,3.749-1.822,5.93-1.141c0.58,0.406,1.158,0.815,1.736,1.221c0.316,0.635,0.632,1.266,0.946,1.901c-0.952,1.09-1.906,2.176-2.858,3.266c-2.112,2.023-4.177,1.868-6.201-0.134L25.002,44.058z"/>
<path fill="#504027" d="M41.011,46.93c1.587,2.091,3.174,4.185,4.77,6.274c-2.536,0.083-5.081,0.165-7.628,0.244c-1.094-0.674-1.787-1.63-2.017-2.905c0.179-1.26,0.737-2.322,1.672-3.189C38.876,47.214,39.943,47.07,41.011,46.93z"/>
<path fill="#322818" d="M37.809,47.354c0.083,0.867,0.162,1.737,0.238,2.603c-0.895,1.041-1.998,1.761-3.312,2.158c-1.385-0.067-2.584-0.571-3.601-1.518c-0.148-0.655-0.296-1.314-0.445-1.971c0.339-0.583,0.677-1.166,1.016-1.749C33.739,47.037,35.773,47.195,37.809,47.354z"/>
<path fill="#14100A" d="M25.779,43.665c2.066,0.046,4.132,0.088,6.199,0.134c-0.178,1.02-0.27,2.045-0.271,3.079c-0.001,0-0.874-0.116-0.874-0.116c-0.432,1.046-1.203,1.678-2.313,1.901c-1.1-0.226-1.899-0.854-2.438-1.831C25.98,45.776,25.879,44.721,25.779,43.665z"/>
<path fill="#211B11" d="M38.111,40.131c-1.089,0.134-2.181,0.271-3.271,0.402c-0.001,0,0.197,0.223,0.197,0.223c-0.891-0.791-1.234-1.621-1.032-2.5c0.209-0.9,0.447-1.349,0.716-1.352c0.754-0.131,1.508-0.259,2.261-0.391c0.6,0.473,1.2,0.949,1.799,1.422C38.558,38.669,38.334,39.398,38.111,40.131z"/>
<path fill="#19140C" d="M38.111,40.131c-0.003-0.879-0.008-1.758-0.015-2.64c0.931-0.699,1.921-0.83,2.979-0.305c0.586,0.598,0.809,1.218,0.668,1.862c-0.143,0.656-0.303,0.982-0.482,0.982C40.211,40.064,39.161,40.097,38.111,40.131z"/>
<path fill="#0E0B06" d="M41.26,40.03c0.015-0.659,0.053-1.321,0.114-1.98l0.713-1.364c-0.002,0,1.538,0.043,1.538,0.043l0.483,1.461c0.055,0.846,0.108,1.691,0.157,2.539C43.246,40.579,42.243,40.347,41.26,40.03z"/>
<path fill="#140F06" d="M65.889,56.723c-1.828,1.85-3.654,3.702-5.482,5.552c0.971-2.204,1.941-4.41,2.91-6.613C64.573,55.051,65.412,55.45,65.889,56.723z"/>
<path fill="#5F4D31" d="M65.889,56.723c-0.865-0.338-1.723-0.689-2.572-1.062c-0.119-0.922-0.273-1.834-0.464-2.743c-0.333-0.699-0.665-1.396-0.998-2.091c0.55-1.511,1.55-2.601,3.008-3.277c2.505-0.464,4.574,0.204,6.088,2.331c0.792,2.49,0.298,4.568-1.944,6.088C67.967,56.22,66.928,56.473,65.889,56.723z"/>
<path fill="#251E12" d="M63.19,49.967c-0.099,0.985-0.21,1.968-0.336,2.951c-1.771,0.039-3.541,0.079-5.304,0.118c-0.095-0.744-0.185-1.492-0.264-2.239C58.892,47.946,60.947,48.294,63.19,49.967z"/>
<path fill="#634526" d="M34.864,50.113c1.061-0.053,2.123-0.104,3.183-0.156c0.035,1.163,0.07,2.326,0.106,3.488c0.253,2.061,0.505,4.114,0.757,6.168c-0.529,0.375-1.059,0.747-1.588,1.123c-0.65-0.027-1.297-0.055-1.947-0.08c-0.586-0.286-1.17-0.57-1.755-0.857c-1.043-0.823-1.782-1.864-2.22-3.118c-0.108-1.325,0.139-2.579,0.742-3.76C33.019,51.956,33.928,51.023,34.864,50.113z"/>
<path fill="#8A7149" d="M41.117,62.747c-0.954-0.122-1.91-0.217-2.87-0.277c-0.822-0.369-1.645-0.739-2.467-1.104c0.623-0.653,1.244-1.307,1.865-1.96c0,0,1.257,0.208,1.262,0.208c0.725-0.08,1.443-0.156,2.162-0.232C41.083,60.504,41.1,61.624,41.117,62.747z"/>
<path fill="#504327" d="M63.19,49.967c-1.97,0.274-3.939,0.546-5.906,0.826c-0.156-1.306-0.313-2.615-0.472-3.921c0.893-1.02,1.996-1.691,3.31-2.018c1.348,0.162,2.51,0.705,3.459,1.685c0.648,1.288,0.464,2.469-0.442,3.564L63.19,49.967z"/>
<path fill="#5B492D" d="M59.97,46.869c-1.053,0-2.105,0.003-3.158,0.003c-0.006-1.05-0.013-2.103-0.02-3.152l-0.176-0.113c1.132-1.062,2.377-1.214,3.735-0.461C61.135,44.48,61.051,45.728,59.97,46.869z"/>
<path fill="#504327" d="M59.97,43.756c-1.116-0.052-2.235-0.101-3.354-0.149c0.124-0.967,0.245-1.935,0.364-2.902c0.382-0.552,0.762-1.104,1.142-1.657c1.227-0.623,2.52-0.836,3.881-0.635c1.263,0.598,2.159,1.538,2.691,2.829c0.052,1.404-0.385,2.631-1.31,3.687C61.958,45.383,60.833,44.949,59.97,43.756z"/>
<path fill="#1F190F" d="M53.397,40.506c0.293-0.985,0.452-1.993,0.475-3.021c0.448-0.357,0.898-0.714,1.348-1.071c1.213-0.015,2.171,0.47,2.878,1.453c0.245,1.239-0.21,2.158-1.271,2.805c0,0,0.149,0.033,0.152,0.033C55.787,40.64,54.592,40.573,53.397,40.506z"/>
<path fill="#543723" d="M53.872,37.485c-2.23,0.006-4.46,0.009-6.689,0.015l0.214,0.259c-0.914-1.343-0.949-2.676,0.036-4.004c2.057-1.501,4.122-1.51,6.193-0.037c0.954,1.321,1.021,2.661,0.067,4.016L53.872,37.485z"/>
<path fill="#A36D41" d="M47.336,34.299c0.02,1.153,0.04,2.307,0.06,3.46c-1.096,0.144-2.191,0.287-3.287,0.43l0.333-1.083c-0.859-0.559-1.241-1.212-1.146-1.962c0.101-0.799,0.267-1.199,0.499-1.196c0.615-0.198,1.231-0.4,1.847-0.598C46.206,33.664,46.77,33.981,47.336,34.299z"/>
<path fill="#372C1B" d="M37.644,59.405c0.265,1.011,0.465,2.029,0.6,3.064c-1.108,0.015-2.217,0.033-3.328,0.049l-0.093,0.101c-0.798-0.757-1-1.416-0.606-1.986c0.36-0.52,0.705-0.781,1.038-0.781C36.051,59.708,36.847,59.559,37.644,59.405z"/>
<path fill="#766239" d="M32.308,81.336c0.015-1.081,0.032-2.158,0.047-3.238c2.143,0.113,4.285,0.229,6.432,0.345c0.149,0.784,0.122,1.557-0.078,2.322C36.576,80.957,34.441,81.147,32.308,81.336z"/>
<path fill="#55462A" d="M35.254,59.852c-0.16,0.918-0.304,1.84-0.432,2.765c-0.811-0.013-1.621-0.04-2.43-0.076l-1.362-0.153c-0.223-0.631-0.446-1.26-0.667-1.892c0.284-0.604,0.568-1.212,0.853-1.815c1.274-0.712,2.455-0.58,3.542,0.396L35.254,59.852z"/>
<path fill="#14100A" d="M69.006,55.969c-0.059-1.897-0.117-3.793-0.175-5.691c-0.71-1.385-0.597-2.703,0.337-3.952c2.045-1.37,3.982-1.431,5.759,0.47c0.305,1.102,0.612,2.203,0.917,3.305c0.844,0.626,1.139,1.267,0.881,1.926c-0.26,0.665-0.525,0.998-0.8,0.998c-0.216,1.123-0.432,2.249-0.65,3.375c-0.946,0.995-1.891,1.987-2.833,2.979c-0.935,0.016-1.868,0.034-2.797,0.064C69.434,58.285,69.22,57.126,69.006,55.969z"/>
<path fill="#4F4028" d="M19.414,56.415c-0.068-1.077-0.136-2.151-0.203-3.226c1.063-0.021,2.128-0.043,3.193-0.064c0.951-0.055,1.897-0.144,2.84-0.271c1.242,0.641,2.028,1.639,2.36,2.997c-0.079,1.385-0.623,2.539-1.708,3.424c-0.317,2.216-0.633,4.428-0.955,6.644c-0.964-1.205-1.924-2.414-2.885-3.622c-0.846-0.895-1.259-1.956-1.238-3.187c-0.227-1.19-0.758-2.219-1.643-3.055L19.414,56.415z"/>
<path fill="#1C180D" d="M26.044,56.332c-0.267-1.159-0.532-2.319-0.798-3.476c0.278-2.008,0.557-4.017,0.834-6.024c0.873,0.024,1.746,0.046,2.619,0.067c2.046,2.688,3.044,5.554,1.518,8.856C28.992,57.138,27.599,57.327,26.044,56.332z"/>
<path fill="#846B43" d="M19.356,34.14c1.071,0.104,2.143,0.205,3.214,0.308c0.419,0.562,0.841,1.12,1.262,1.679c0.015,0.702,0.029,1.4,0.044,2.103c-0.478,0.513-0.954,1.025-1.43,1.538c-1.04,0.284-2.08,0.57-3.119,0.854c0.076-1.01,0-2.008-0.232-2.991C19.179,36.469,19.268,35.306,19.356,34.14z"/>
<path fill="#846B43" d="M22.446,39.768c0.023-0.824,0.045-1.648,0.067-2.475c1.161-1.028,2.393-1.12,3.694-0.275c0.757,1.352,0.603,2.591-0.461,3.714l-0.533-0.314C24.277,40.259,23.356,40.042,22.446,39.768z"/>
<path fill="#14100A" d="M26.044,56.332c0.879-0.03,1.758-0.055,2.638-0.073c0.374,0.517,0.747,1.035,1.12,1.551c-0.369,0.519-0.738,1.037-1.107,1.557c-0.934-0.021-1.868-0.052-2.8-0.092C25.805,58.285,25.854,57.306,26.044,56.332z"/>
<path fill="#14100A" d="M31.108,59.293c0.177,1.037,0.153,2.068-0.078,3.094c-0.78-1.007-1.558-2.014-2.336-3.021l-0.017,0.021C29.439,58.078,30.247,57.981,31.108,59.293z"/>
<path fill="#543723" d="M41.28,15.701c0-0.979,0.069-1.956,0.208-2.923c2.011-0.067,4.021-0.134,6.028-0.205l-0.188-0.189c1.177,0.956,1.579,2.146,1.079,3.607c-1.001,1.047-2.208,1.675-3.656,1.825c-0.681-0.187-1.359-0.373-2.04-0.559C42.234,16.739,41.756,16.22,41.28,15.701z"/>
<path fill="#AE7246" d="M47.77,15.469c-0.186-1.022-0.333-2.051-0.439-3.085c1.033,0.187,2.068,0.37,3.102,0.556c0.385,0.653,0.771,1.303,1.158,1.953c-0.577,0.488-1.155,0.977-1.733,1.462C49.163,16.062,48.465,15.766,47.77,15.469z"/>
<path fill="#A25E34" d="M50.388,15.195c0.041-0.754,0.057-1.508,0.046-2.258c1.115-0.177,2.232-0.357,3.351-0.54c-0.114,1.004-0.264,2.005-0.445,3C52.29,16.303,51.302,16.281,50.388,15.195z"/>
<path fill="#543723" d="M59.76,21.441c0.018,1.038,0.03,2.072,0.035,3.11c-0.164,0.699-0.328,1.395-0.493,2.094c-1.367,1.889-3.31,2.618-5.545,2.762c-2.161,0.08-4.32,0.128-6.482,0.153c-1.45-0.019-2.887-0.146-4.314-0.403c-1.375-0.5-2.579-1.272-3.639-2.271c-0.784-1.227-1.186-2.572-1.219-4.019c0.299-1.379,0.964-2.569,1.964-3.555c1.181-0.592,2.405-1.145,3.638-1.633c1.845-0.54,3.761-0.485,5.658-0.491c1.793,0,3.601-0.006,5.398,0.03c1.188,0.08,2.228,0.525,3.106,1.334C58.367,19.599,59.001,20.563,59.76,21.441z"/>
<path fill="#AA6E42" d="M59.795,24.551c1.078,0.208,2.155,0.415,3.234,0.62c0.36,0.479,0.721,0.955,1.082,1.435c-0.052,1.278-0.638,2.225-1.764,2.835c-1.258,0.144-2.346-0.232-3.29-1.056c-0.488-1.275-0.124-2.222,1.091-2.841L59.795,24.551z"/>
<path fill="#AE7246" d="M57.079,15.689c1-0.042,1.999-0.098,2.997-0.167c-0.207,1.043-0.415,2.09-0.622,3.134c-0.786,1.288-1.465,1.297-2.018-0.171l-1.077,0.375c-0.6-0.693-1.201-1.385-1.801-2.075C55.397,16.419,56.238,16.055,57.079,15.689z"/>
<path fill="#A16B3E" d="M57.436,18.484c0.673,0.064,1.346,0.119,2.018,0.171c0.215,0.916,0.317,1.847,0.307,2.786C58.987,20.456,58.211,19.47,57.436,18.484z"/>
<path fill="#8C502D" d="M63.157,22.165c1.034-0.271,2.07-0.543,3.106-0.824c0-0.003-0.128,1.099-0.128,1.099c0.618,1.123,0.514,2.176-0.313,3.159c-1.165,0.662-2.142,0.418-2.958-0.607c0,0,0.162,0.177,0.164,0.18C63.057,24.17,63.1,23.166,63.157,22.165z"/>
<path fill="#432716" d="M57.079,15.689c-0.239,1.056-0.479,2.115-0.72,3.171c-1.923-0.046-3.846-0.091-5.77-0.137c-0.689-0.488-1.379-0.977-2.069-1.465c0.732-0.421,1.465-0.842,2.197-1.264l-0.329-0.799c0.974,0.22,1.959,0.287,2.952,0.201C54.586,15.494,55.833,15.591,57.079,15.689z"/>
<path fill="#5F4D31" d="M78.86,40.772c-0.93-0.168-1.863-0.299-2.802-0.394c-0.474-0.314-0.946-0.629-1.419-0.943c-0.191-1.184,0.145-2.191,1.005-3.027c1.188-0.372,2.138-0.076,2.815,0.992c1.139,0.04,2.276,0.076,3.417,0.116c-0.057,0.995-0.144,1.987-0.262,2.976c-0.003-0.003,0.251,0.009,0.251,0.009C80.969,41.763,79.967,41.855,78.86,40.772z"/>
<path fill="#131009" d="M78.46,37.399c-0.947,0.101-1.896,0.201-2.844,0.311c-0.768-1.141-0.791-2.298-0.069-3.473c1.168-0.836,2.262-0.711,3.295,0.247c0,0-0.208-0.171-0.208-0.174C78.69,35.346,78.632,36.377,78.46,37.399z"/>
<path fill="#A76D41" d="M75.635,25.623c0.036,0.955,0.054,1.911,0.047,2.866c-0.038,0.86-0.21,1.693-0.516,2.499c-0.339,0.589-0.679,1.178-1.02,1.767c-1.469,1.504-3.148,2.563-5.342,2.554c-1.367-0.25-2.568-0.839-3.605-1.764c-0.763-1.166-1.086-2.451-0.975-3.839c0.52-1.267,1.321-2.326,2.396-3.174c1.161-0.696,2.408-1.166,3.751-1.374c0.67-0.009,1.343-0.018,2.014-0.027C73.47,25.296,74.552,25.458,75.635,25.623z"/>
<path fill="#5B3C26" d="M78.841,34.485c-1.05-0.085-2.099-0.171-3.146-0.256c-0.496-0.516-0.99-1.031-1.486-1.544c0.429-0.571,0.857-1.145,1.286-1.715c0,0-0.323,0.018-0.325,0.018C76.392,32.153,77.616,33.319,78.841,34.485z"/>
<path fill="#A66C40" d="M41.375,38.049c-1.092-0.186-2.187-0.373-3.279-0.559l0.204-0.213c-3.65-2.094-8.926,0.567-11.726-4.01c-0.302-0.659-0.606-1.318-0.908-1.978c-0.137-0.9-0.221-1.807-0.25-2.716c0.011-1.007,0.034-2.014,0.07-3.018c1.072-0.18,2.145-0.357,3.218-0.537c0.687-0.156,1.374-0.312,2.063-0.467c1.39-0.348,2.782-0.357,4.178-0.021c3.271,2.429,8.264,3.29,8.064,8.868c-0.154,1.483-0.812,2.695-1.968,3.635L41.375,38.049z"/>
<path fill="#845838" d="M22.57,34.448c-0.057-1.053-0.113-2.105-0.169-3.155c1.088-0.003,2.177-0.003,3.265-0.006c0,0.003-0.166-0.232-0.166-0.232c0.863,0.769,1.244,1.614,1.14,2.536c-0.107,0.958-0.278,1.438-0.516,1.44c-1.491,0.827-2.779,0.628-3.832-0.757L22.57,34.448z"/>
<path fill="#9D5932" d="M28.704,25.019c0.012-1.071,0.023-2.14,0.035-3.211c0.001,0-0.192,0.141-0.192,0.141c0.769-0.986,1.786-1.376,3.015-1.251c1.111,0.543,1.764,1.425,1.962,2.643c-0.188,1.202-0.787,2.127-1.86,2.729c-1.204,0.027-2.261-0.339-3.154-1.16L28.704,25.019z"/>
<path fill="#4B2B18" d="M31.966,22.357c-1.14-0.138-2.278-0.275-3.418-0.409c0.2-1.022,0.401-2.048,0.607-3.07c1.912-0.113,3.819-0.229,5.728-0.342c0.775,1.035,0.92,2.137,0.34,3.312C34.249,22.73,33.163,22.9,31.966,22.357z"/>
<path fill="#B07449" d="M69.502,22.33c1.009-0.25,2.027-0.442,3.056-0.586c-0.058,1.129-0.115,2.258-0.172,3.388c0.001,0,0.195-0.226,0.195-0.226c-1.033,1.108-2.234,1.401-3.629,0.751C68.047,24.368,68.176,23.252,69.502,22.33z"/>
<path fill="#5B492D" d="M75.925,53.024c-0.171-0.971-0.2-1.947-0.084-2.924c1.007-0.049,2.011-0.076,3.019-0.076c-0.102,1.017-0.194,2.035-0.279,3.052C77.694,53.079,76.81,53.061,75.925,53.024z"/>
<path fill="#221B11" d="M78.86,40.772c1-0.098,2.002-0.186,3.006-0.271c-1.029,1.022-2.058,2.048-3.084,3.07C78.727,42.633,78.753,41.702,78.86,40.772z"/>
<path fill="#858585" d="M21.919,59.204c0.25,1.02,0.298,2.051,0.141,3.092c-0.977,0.061-1.95,0.085-2.927,0.066c-0.169-1.034-0.34-2.063-0.511-3.094l1.288,0.171C20.58,59.359,21.25,59.283,21.919,59.204z"/>
<path fill="#9D5A33" d="M69.502,22.33c-0.026,0.732-0.034,1.468-0.024,2.204c-0.235,1.327-1.022,1.904-2.361,1.73c-0.253-0.537-0.508-1.071-0.761-1.608c-0.063-0.742-0.135-1.483-0.22-2.219C67.256,22.403,68.378,22.366,69.502,22.33z"/>
<path fill="#15110B" d="M76.058,40.378c-0.301,1.147-0.602,2.295-0.902,3.442c-1.364,1.874-3.546,1.389-5.396,1.871c-1.356,0.299-2.639,0.137-3.849-0.568c-0.817-1.135-1.181-2.404-1.153-3.799c0.146-1.413,0.747-2.591,1.808-3.537c1.255-0.65,2.584-0.922,3.992-0.818c2.091,0.638,3.505,2.173,4.927,3.702L76.058,40.378z"/>
<path fill="#0E0B07" d="M68.97,43.851c2.064-0.009,4.128-0.021,6.188-0.03c0.04,1.001-0.035,1.993-0.229,2.976c-1.688-0.024-3.372-0.052-5.059-0.08c-0.548-0.351-1.097-0.705-1.645-1.056C68.474,45.056,68.723,44.455,68.97,43.851z"/>
<path fill="#543823" d="M35.064,21.481c-0.058-0.979-0.117-1.959-0.18-2.945c0.032-0.799,0.081-1.599,0.145-2.393c2.084-0.146,4.167-0.296,6.251-0.442l-0.193-0.195c1.121,0.65,1.497,1.593,1.126,2.835c-0.877,1.511-2.059,2.817-2.939,4.328c-1.056,0.574-2.154,0.671-3.296,0.287C35.674,22.464,35.369,21.973,35.064,21.481z"/>
<path fill="#9F9F9F" d="M21.919,59.204c-0.669,0.079-1.339,0.159-2.011,0.235c-0.244-1.13-0.488-2.256-0.732-3.385C20.09,57.105,21.006,58.154,21.919,59.204z"/>
<path fill="#3D2113" d="M25.554,34.402c-0.018-1.117-0.037-2.23-0.055-3.348c4.266,2.075,8.533,4.15,12.799,6.226c-1.086,0.073-2.173,0.146-3.261,0.22c-0.865,1.038-1.807,2.002-2.836,2.878c-2.152,0.119-4.303,0.238-6.455,0.354c-0.11-1.029-0.186-2.057-0.228-3.091c-1.016-0.729-1.349-1.453-1.001-2.17C24.865,34.76,25.208,34.402,25.554,34.402z"/>
<path fill="#8C5735" d="M32.201,40.378c0.946-0.958,1.891-1.92,2.836-2.878c0,1.086,0,2.17-0.001,3.256C34.092,40.628,33.147,40.503,32.201,40.378z"/>
<path fill="#1F1A10" d="M31.108,59.293c-0.81,0.03-1.621,0.061-2.431,0.094c0.001-1.043,0.003-2.084,0.004-3.128c0.005-3.118,0.011-6.24,0.017-9.359c0.717-0.024,1.434-0.07,2.141-0.134c0.319,1.075,0.646,2.152,0.971,3.229c0.954,0.698,1.486,1.626,1.53,2.816c0.024,1.133,0.034,2.268,0.024,3.399c0.019,1.154-0.273,2.219-0.926,3.177L31.108,59.293z"/>
<path fill="#78623D" d="M32.346,53.198c-0.179-1.068-0.357-2.136-0.536-3.204c1.028-0.22,2.046-0.181,3.053,0.119c-0.116,1.056-0.232,2.111-0.348,3.164C33.729,54.992,33.002,55.051,32.346,53.198z"/>
<path fill="#AE7246" d="M41.041,37.033c0.099-1.001,0.166-2.002,0.201-3.006c1.29-0.751,2.28-0.424,3.008,0.839c0.035,0.748,0.099,1.496,0.192,2.24C43.308,37.082,42.174,37.058,41.041,37.033z"/>
<path fill="#413520" d="M69.872,46.716c-0.345,1.187-0.689,2.375-1.037,3.561c-1.901-0.058-3.8-0.115-5.696-0.177c-0.024-1.077-0.047-2.157-0.071-3.238l0.644-1.297c0.911-0.458,1.854-0.541,2.83-0.25c1.147-0.04,1.868,0.498,2.163,1.605L69.872,46.716z"/>
<path fill="#846B43" d="M32.346,53.198c0.726,0.016,1.453,0.04,2.174,0.079c0.119,0.952,0.189,1.907,0.206,2.866c-0.788,1.482-1.584,1.56-2.387,0.012C32.076,55.17,32.078,54.184,32.346,53.198z"/>
<path fill="#766239" d="M32.34,56.155c0.798,0.003,1.595,0,2.39-0.009c0.088,0.977,0.101,1.956,0.03,2.933c-0.772,0.128-1.545,0.231-2.322,0.308C32.406,58.31,32.372,57.232,32.34,56.155z"/>
<path fill="#3A2F1D" d="M59.97,43.756c1.024,0.003,2.048,0.013,3.072,0.028c0.947,0.659,1.272,1.331,0.979,2.017c-0.296,0.696-0.599,1.044-0.908,1.044l-0.047,0.018c-1.033,0.006-2.066,0.009-3.098,0.006C59.954,45.831,59.954,44.794,59.97,43.756z"/>
<path fill="#18130C" d="M63.141,41.052c-1.094-0.271-2.188-0.546-3.282-0.818c-0.967-0.961-1.362-2.13-1.262-3.479c0.149-2.09,1.172-3.61,3.009-4.593c1.945-0.522,3.757,0.189,5.596,0.62c1.265,0.137,2.401,0.601,3.401,1.388c0.473,1.184,0.502,2.38,0.084,3.586c-1.367,1.267-3.271,1.697-4.641,2.966l0.255-0.205c-0.407,0.788-0.816,1.578-1.226,2.368C64.43,42.273,63.787,41.663,63.141,41.052z"/>
<path fill="#5B492D" d="M63.141,41.052c1.053-0.177,2.105-0.354,3.16-0.534c-0.063,1.016-0.079,2.033-0.047,3.049c0.99,0.647,1.309,1.282,0.963,1.901c-0.342,0.613-0.683,0.918-1.025,0.918c-1.03,0.131-2.058,0.284-3.08,0.458c0.008-1.022-0.015-2.042-0.069-3.061C63.07,42.874,63.103,41.962,63.141,41.052z"/>
<path fill="#0E0B06" d="M59.899,38.056c-0.005,0.729-0.017,1.461-0.038,2.185c-1.001,0.217-2.013,0.36-3.035,0.428c0.052-0.846,0.078-1.697,0.075-2.545C57.873,36.877,58.874,36.917,59.899,38.056z"/>
<path fill="#A86E42" d="M59.899,38.056l-1.506-0.257l-1.492,0.324c-1.07-0.128-2.14-0.259-3.208-0.388c0.037-1.144,0.073-2.289,0.11-3.433c0.244-0.65,0.488-1.3,0.729-1.953c2.903-2.49,6.023-3.177,9.469-1.126c0.694,1.395,0.419,2.561-0.825,3.494C62.084,35.831,60.992,36.944,59.899,38.056z"/>
<path fill="#B17549" d="M53.803,34.302c-2.155,0-4.311-0.003-6.467-0.006c0,0.003,0.238,0.14,0.238,0.14c-1.387-1.276-1.515-2.667-0.381-4.178c2.244-1.493,4.489-1.489,6.735-0.003c1.14,1.511,1.02,2.918-0.358,4.215L53.803,34.302z"/>
<path fill="#533722" d="M47.909,31.36c-0.238,1.013-0.35,2.039-0.334,3.076c-1.108,0.144-2.217,0.287-3.325,0.43c-0.992-0.317-1.995-0.598-3.008-0.839c-3.169-2.137-6.338-4.27-9.508-6.403c0.058-0.644,0.116-1.291,0.176-1.938l-0.144-1.285c0.922-0.628,1.935-0.961,3.057-0.946c0.549,0.003,1.097,0.006,1.646,0.009c1.126,0.052,2.136,0.427,3.05,1.081c0.852,0.723,1.784,1.309,2.814,1.743c1.104,0.189,2.214,0.299,3.333,0.323c1.147,0.177,2.081,0.711,2.771,1.654C48.834,29.395,48.63,30.423,47.909,31.36z"/>
<path fill="#1C180D" d="M25.554,34.402c-0.011,1.077-0.021,2.155-0.033,3.235c-1.007-0.085-2.011-0.198-3.009-0.338c-0.053-1.014-0.128-2.018-0.22-3.021C23.38,34.317,24.466,34.36,25.554,34.402z"/>
<path fill="#4B311C" d="M50.717,15.994c-0.071,0.91-0.115,1.819-0.128,2.729c-1.945,0.055-3.891,0.113-5.836,0.171c-1.109-0.485-1.588-1.12-1.44-1.898c0.163-0.854,0.395-1.282,0.699-1.282c1.25-0.079,2.501-0.159,3.755-0.241C48.764,15.582,49.748,15.756,50.717,15.994z"/>
<path fill="#AE7246" d="M44.011,15.713c0.247,1.059,0.493,2.118,0.742,3.18l-0.997-0.406c-0.418,0.531-0.834,1.059-1.252,1.593c-0.582-0.339-1.165-0.684-1.747-1.025c0.11-1.181,0.22-2.365,0.33-3.549C42.061,15.582,43.036,15.652,44.011,15.713z"/>
<path fill="#A16B3E" d="M60.149,25.543c-0.067,0.699-0.12,1.401-0.16,2.103c-0.695,2.02-2.124,2.862-4.219,2.64c-1.15-0.467-2.186-1.12-3.103-1.959c-0.036-0.616-0.073-1.229-0.111-1.843c0.391-0.477,0.781-0.952,1.172-1.429C55.868,25.217,58.008,25.381,60.149,25.543z"/>
<path fill="#AE7246" d="M47.654,24.973c2.023,0.027,4.048,0.055,6.073,0.082c0.001,0,0.03-0.186,0.03-0.186c-1.271,1.667-2.855,2.372-4.918,1.599C48.444,25.967,48.049,25.47,47.654,24.973z"/>
<path fill="#4B311C" d="M37.879,22.26c0.959-1.068,1.918-2.137,2.878-3.205l0.837-0.491c0.711,0.711,0.911,1.379,0.604,2.008c-0.296,0.607-0.577,0.91-0.842,0.91c-0.13,0.977-0.246,1.95-0.351,2.93c0.012,0.586,0.024,1.172,0.035,1.761c-1.207-0.043-2.26-0.455-3.134-1.3l0.279,0.216c-0.87-0.384-1.74-0.766-2.609-1.147C36.344,23.379,37.111,22.818,37.879,22.26z"/>
<path fill="#A16B3E" d="M41.357,21.481c-0.038-0.983,0.041-1.956,0.238-2.917c0.722-0.015,1.443-0.04,2.164-0.077C42.957,19.485,42.157,20.483,41.357,21.481z"/>
<path fill="#A16B3E" d="M44.095,27.71l-1.494,0.061l-1.488-0.144c-0.871-0.567-1.129-1.077-0.781-1.532c0.325-0.421,0.651-0.635,0.984-0.635l-0.312-1.05c1.036,0.323,2.072,0.647,3.108,0.97c1.283,0.528,1.704,1.047,1.275,1.563C44.966,27.454,44.54,27.71,44.095,27.71z"/>
<path fill="#8C502D" d="M44.095,27.71c0.052-0.778,0.06-1.557,0.02-2.332c1.178-0.134,2.356-0.271,3.537-0.406c0.002,0-0.201-0.149-0.201-0.149c0.447,0.528,0.896,1.059,1.345,1.59c-0.403,0.564-0.808,1.129-1.21,1.697C46.421,27.976,45.258,27.844,44.095,27.71z"/>
<path fill="#533722" d="M53.598,28.024c2.131-0.125,4.261-0.25,6.391-0.375c0.922,0.247,1.857,0.378,2.811,0.4c1.337-1.639,2.541-1.544,3.612,0.274c-0.138,0.94-0.309,1.871-0.513,2.799c-0.606,1.51-1.531,1.742-2.776,0.692c-3.185,0.885-6.368,1.77-9.555,2.655c-0.117-1.038-0.236-2.072-0.355-3.107C52.363,30.136,52.444,29.019,53.598,28.024z"/>
<path fill="#4A2A18" d="M66.412,28.323c-1.204-0.091-2.406-0.183-3.612-0.274c0.127-1.02,0.148-2.039,0.065-3.058c1.161-0.11,2.324-0.22,3.488-0.333c0.002-0.003-0.32,0.678-0.32,0.678c0.735,0.43,1.473,0.857,2.21,1.288c-0.628,0.577-1.255,1.157-1.882,1.733L66.412,28.323z"/>
<path fill="#2C170D" d="M69.269,37.683c0.017-1.041,0.04-2.082,0.072-3.122c2.071-2.051,4.246-2.154,6.521-0.345c0,0-0.173,0.015-0.171,0.012c-0.024,1.16-0.051,2.316-0.076,3.479c-0.026,0.989-0.069,1.978-0.132,2.963c-2.174-0.098-4.349-0.195-6.521-0.293c-0.676-0.684-0.854-1.313-0.538-1.883C68.723,37.952,69.005,37.683,69.269,37.683z"/>
<path fill="#533622" d="M66.361,28.357c-0.117-1.007-0.226-2.014-0.328-3.021c1.147-0.269,2.297-0.534,3.444-0.803c1.034,0.122,2.068,0.247,3.104,0.372C70.508,26.056,68.434,27.207,66.361,28.357z"/>
<path fill="#1C170F" d="M75.863,34.216c-2.173,0.116-4.348,0.229-6.521,0.345l-0.192-0.375c-0.771-0.635-1.543-1.27-2.313-1.904c0.95-0.302,1.902-0.604,2.854-0.909c1.935-0.134,3.871-0.269,5.806-0.403C75.617,32.053,75.741,33.133,75.863,34.216z"/>
<path fill="#AF7347" d="M69.689,31.372c-0.229,0.928-0.409,1.868-0.54,2.813c-1.991,0.177-3.981,0.354-5.973,0.531c-0.017-0.971-0.035-1.941-0.054-2.908c0.903-0.32,1.831-0.549,2.78-0.684C67.162,31.204,68.425,31.29,69.689,31.372z"/>
<path fill="#4B2B18" d="M31.91,25.687c-0.065,0.647-0.124,1.294-0.176,1.941c-1.074-0.909-2.148-1.813-3.223-2.719C29.644,25.168,30.776,25.427,31.91,25.687z"/>
<path fill="#AF7347" d="M34.836,24.512l-1.542,0.113c0,0-1.529-0.22-1.529-0.223c0.067-0.684,0.133-1.364,0.2-2.048c1.031-0.29,2.064-0.58,3.097-0.873l-0.365,0.982c1.157,0.378,1.56,0.806,1.218,1.291C35.561,24.255,35.204,24.512,34.836,24.512z"/>
<path fill="#5B3C26" d="M69.269,37.683c-0.058,0.903-0.158,1.804-0.305,2.695c-0.973,0.131-1.942,0.247-2.918,0.345C67.121,39.71,68.195,38.696,69.269,37.683z"/>
<path fill="#5B492D" d="M66.192,46.387c0.018-0.94,0.038-1.88,0.061-2.82c0.906,0.104,1.812,0.198,2.719,0.284c0.077,1.038-0.012,2.06-0.268,3.07C67.861,46.768,67.023,46.591,66.192,46.387z"/>
<path fill="#A16B3E" d="M34.836,24.512c-0.019-0.687-0.064-1.37-0.138-2.048c1.061-0.07,2.121-0.14,3.182-0.208c0.134,0.94,0.236,1.883,0.305,2.829C37.07,24.897,35.953,24.704,34.836,24.512z"/>
<path fill="#A16B3E" d="M53.598,28.024c-0.126,1.111-0.253,2.225-0.383,3.335c-1.773,0-3.543,0-5.31,0c-0.105-1.083-0.213-2.164-0.322-3.25c0.001,0-0.154,0.162-0.154,0.162c2.102-2.146,4.219-2.148,6.354-0.052L53.598,28.024z"/>
<path fill="#AD7145" d="M41.317,25.461c-0.069,0.723-0.136,1.446-0.203,2.17c-1.068-0.922-2.138-1.84-3.206-2.762C39.043,25.067,40.18,25.263,41.317,25.461z"/>
<path fill="#543823" d="M53.783,28.22c-2.117,0.015-4.235,0.03-6.354,0.049c0.006-1.145,0.014-2.292,0.02-3.442c2.103,0.012,4.206,0.03,6.306,0.046C53.766,25.986,53.774,27.103,53.783,28.22z"/>
</svg>