<?xml version="1.0" encoding="utf-8"?>
<!DOCTYPE svg PUBLIC "-//W3C//DTD SVG 1.1//EN" "http://www.w3.org/Graphics/SVG/1.1/DTD/svg11.dtd">
<svg version="1.1" xmlns="http://www.w3.org/2000/svg" xmlns:xlink="http://www.w3.org/1999/xlink" x="0px" y="0px" width="100px" height="100px" viewBox="0 0 100 100" enable-background="new 0 0 100 100" xml:space="preserve">
<path fill="#3D2B1D" d="M81.191,81.18c-4.123,2.203-8.244,4.406-12.365,6.609c-1.196-0.223-2.324-0.628-3.373-1.248c-0.517-0.308-1.036-0.619-1.553-0.928c-0.442-0.405-0.889-0.812-1.331-1.215c-0.331-0.5-0.662-1-0.993-1.495c-0.325-1.147-0.453-2.322-0.385-3.509c0.243-1.148,0.715-2.194,1.444-3.11c0.828-0.775,1.792-1.33,2.882-1.623c1.047,0.046,2.112,0.131,3.139,0.256c0.933,0.092,1.898,0.073,2.807-0.049c0.75-0.134,1.507-0.412,2.151-0.778c-0.066,0.043,0.883-0.421,0.807-0.378c-0.076,0.042-0.763,0.351-0.827,0.396c-0.677,0.382-1.329,0.622-2.073,0.778c-0.058,0.012-1.323,0.088-1.323,0.088s-1.265-0.042-1.312-0.045c-1.016-0.073-1.96-0.266-2.916-0.593c-0.037-0.015-1.456-0.583-1.489-0.601c-0.518-0.247-1.001-0.477-1.516-0.721c-1.015-0.635-1.962-1.3-2.903-2.023c-1.607-1.086-2.979-2.368-4.015-4.013c-0.609-1.245-0.851-2.542-0.742-3.912c1.117-3.647,4.218-5.289,7.125-7.12c1.231-0.613,2.535-0.992,3.901-1.139c2.013-0.098,4.031-0.091,6.045-0.058c1.322,0.016,2.649,0.034,3.973,0.043c1.316,0.003,2.637,0.009,3.955,0.012c2.742-0.088,5.193,0.577,7.063,2.741c1.207,1.604,1.662,3.451,1.668,5.42c0.108,2.49-0.009,5.011,0.76,7.428c0.365,1.159,0.515,2.355,0.504,3.567c-0.399,1.132-1.017,2.143-1.842,3.021c-0.174,0.567-0.353,1.138-0.529,1.706c-2.249,0.836-4.497,1.669-6.746,2.505L81.191,81.18z"/>
<path fill="#4C3625" d="M43.434,94.223c-6.143-3.229-12.288-6.458-18.431-9.687c-0.404-0.54-0.81-1.08-1.214-1.623c-1.519-1.435-2.591-3.062-2.223-5.289c0.558-1.236,1.404-2.246,2.484-3.055c1.782-0.943,3.728-1.068,5.686-1.096c3.114,0.003,6.221-0.138,9.231-1.099c0.577-0.247,1.161-0.448,1.741-0.692c0.567-0.293,1.143-0.54,1.716-0.83c0.568-0.33,1.135-0.617,1.708-0.94c1.147-0.727,2.318-1.364,3.531-1.975c1.367-0.394,2.74-0.589,4.163-0.567c1.477,0.119,2.836,0.55,4.11,1.294c1.701,1.474,3.355,2.97,4.375,5.021c0.363,1.471,0.549,2.96,0.586,4.464c0.015,2.213,0.003,4.426-0.673,6.562c-1.271,2.618-3.448,4.364-5.791,5.933c-2.192,1.676-5.013,1.34-7.438,2.277C45.88,93.539,44.692,93.976,43.434,94.223z"/>
<path fill="#6A4528" d="M34.207,12.857c0.91-0.366,1.851-0.51,2.828-0.43c0.574,0.061,1.149,0.125,1.726,0.192c1.106,0.436,2.25,0.659,3.441,0.574c0.575-0.214,1.147-0.366,1.749-0.424c1.847-0.769,3.774,0.213,5.633-0.262c2.031,0.534,4.058-0.58,6.084-0.037c2.251-0.143,4.193,0.602,5.892,2.051c0.999,1.099,1.75,2.326,2.211,3.727c0.168,1.443,0.242,2.893,0.223,4.336c-0.05,1.425-0.329,2.811-0.827,4.138c-0.809,1.123-1.864,1.972-3.104,2.566c-1.271,0.269-2.567,0.525-3.843,0.778c-1.216,0.281-2.452,0.563-3.668,0.86c-1.167,0.336-2.352,0.672-3.521,1.022c-1.138,0.397-2.298,0.754-3.459,1.099c-1.149,0.385-2.301,0.763-3.453,1.154c-1.156,0.418-2.316,0.818-3.485,1.211c-1.227,0.266-2.461,0.381-3.716,0.339c-1.274-0.187-2.416-0.671-3.433-1.453c-0.847-0.974-1.419-2.087-1.723-3.339c-0.297-1.233-0.595-2.469-0.894-3.702c-0.575-2.438-1.372-4.864-0.498-7.4c0.893-1.706,2.531-2.664,3.92-3.87C32.825,14.883,33.46,13.836,34.207,12.857z"/>
<path fill="#6F5037" d="M25.649,78.973c-0.163,0.735-0.363,1.462-0.6,2.18c-0.055,0.57-0.108,1.138-0.163,1.709c-0.072,0.564-0.034,1.123,0.117,1.675c-6.068-3.174-12.137-6.348-18.205-9.524c1.935-4.053,3.57-8.341,8.06-10.406c1.445-0.257,2.902-0.281,4.354-0.07c1.343,0.546,2.501,1.364,3.425,2.487c0.582,1.281,1.166,2.572,1.746,3.857c0.565,1.275,1.052,2.585,1.454,3.925C25.805,76.193,25.742,77.584,25.649,78.973z"/>
<path fill="#3E2C1E" d="M49.504,87.647c2.26-1.084,4.52-2.164,6.781-3.244c0.47-0.385,0.939-0.767,1.41-1.15c0.155-1.221,0.535-2.365,1.143-3.438c0.646-1.102,1.596-1.779,2.851-2.026c2.048,0.369,2.798,2.215,4.019,3.524l-0.172-0.116c1.015,1.13,3.145,1.139,3.234,3.205c0.019,1.129,0.037,2.258,0.056,3.387c-2.158,0.955-4.315,1.911-6.472,2.866c-0.759,0.921-1.604,1.755-2.523,2.512c-1.215,0.192-2.428,0.384-3.643,0.576c-0.564,0.162-1.131,0.32-1.695,0.479c-1.004,0.659-2.104,1.001-3.304,1.031c-1.191-0.174-2.255-0.641-3.215-1.361c-0.639-1.05-0.83-2.176-0.577-3.378C48.012,89.493,48.714,88.537,49.504,87.647z"/>
<path fill="#473222" d="M93.064,34.732c0.032,3.076,0.065,6.152,0.098,9.229c-0.895,0.995-1.817,1.962-2.78,2.896c-0.572,0.357-1.142,0.711-1.717,1.067c-1.361,0.172-2.702,0.102-4.033-0.25c-1.297-0.485-2.586-0.964-3.883-1.449c-1.313-0.495-2.621-0.986-3.934-1.48c-1.185-0.817-2.1-1.861-2.756-3.14c-0.287-1.401-0.317-2.808-0.092-4.22c0.696-2.005,1.695-3.87,2.709-5.722c0.688-1.208,1.538-2.298,2.534-3.262c1.12-0.791,2.373-1.273,3.723-1.486c1.326,0.091,2.623,0.363,3.865,0.845c1.25,0.406,2.356,1.068,3.307,1.98c0.296,0.574,0.597,1.147,0.895,1.721C91.684,32.55,92.372,33.642,93.064,34.732z"/>
<path fill="#694B33" d="M6.708,68.582c0.004-5.197,0.009-10.395,0.015-15.592c1.001-1.132,2.121-2.133,3.361-2.997c1.497-0.396,2.948-0.247,4.358,0.372c1.901,1.261,3.462,2.845,4.605,4.828c0.577,1.401,0.722,2.854,0.49,4.349c-1.126,2.799-2.987,5.075-5.113,7.163C12.128,68.463,9.928,70.618,6.708,68.582z"/>
<path fill="#633F24" d="M77.887,19.253c2.256,1.028,4.513,2.054,6.768,3.083c0.813,1.129,1.477,2.337,1.991,3.638c-0.057,0.702-0.114,1.397-0.176,2.103c-1.112,0.934-2.369,1.535-3.814,1.761c-1.403,0.461-2.677,1.142-3.838,2.054c-1.419,1.843-3.104,3.253-5.497,3.61c-1.581-0.101-3.003-0.604-4.259-1.575c-0.954-1.282-1.502-2.716-1.7-4.291c-0.093-1.575-0.104-3.146-0.033-4.718c0.07-1.614,0.564-3.082,1.482-4.41C71.552,18.03,74.919,20.083,77.887,19.253z"/>
<path fill="#754E2E" d="M59.429,15.659c-2.172-0.08-4.342-0.162-6.513-0.241c-1.114-0.928-1.812-2.112-2.148-3.516c0.807-1.169,1.386-2.444,1.731-3.824l0.229,1.046c1.349-0.891,2.648-0.87,3.896,0.199c3.105,1.336,6.211,2.673,9.315,4.01c0.701,1.291,0.854,2.643,0.457,4.059c-1.104,0.989-2.39,1.379-3.856,1.166C61.451,17.648,60.411,16.684,59.429,15.659z"/>
<path fill="#7F5533" d="M64.191,15.57c0.583,0.052,1.166,0.092,1.75,0.122c0.986-0.045,1.968-0.134,2.947-0.265c0.993,0.467,1.986,0.934,2.979,1.401c0.952,0.519,1.267,1.031,0.949,1.547c-0.315,0.51-0.633,0.766-0.957,0.766c-0.077,1.993-0.155,3.989-0.233,5.981c-1.306,1.413-2.589,2.847-4.237,3.882c-1.292,0.186-2.504-0.037-3.619-0.726c-0.804-0.998-1.31-2.13-1.512-3.394c-0.385-1.19-0.78-2.381-1.185-3.562c-0.103-1.239-0.09-2.478,0.02-3.717C62.055,16.821,63.088,16.14,64.191,15.57z"/>
<path fill="#5A3F2B" d="M6.708,68.582c2.011-0.989,4.023-1.978,6.036-2.964c0.99-1.107,2.141-1.254,3.429-0.576c0.792,1.229,0.699,2.39-0.279,3.479c-3.032,2.164-6.064,4.327-9.096,6.491C6.767,72.869,6.739,70.727,6.708,68.582z"/>
<path fill="#4C3625" d="M93.256,46.741c-0.017,5.213-0.032,10.428-0.049,15.641c-1.224,1.129-2.604,1.309-4.117,0.674c-1.571-1.797-1.909-4.116-2.64-6.265c-0.273-1.502-0.396-3.013-0.368-4.535c0.094-2.405,0.962-4.392,3.083-5.698C90.569,45.718,91.932,45.779,93.256,46.741z"/>
<path fill="#3F2C1E" d="M90.639,62.491c0.856-0.036,1.712-0.073,2.568-0.109c-0.035,2.233-0.07,4.468-0.105,6.704c-1.18,1.331-2.13,2.939-4.065,3.354c-0.595-0.098-1.189-0.199-1.783-0.297c-0.958-2.163-1.915-4.324-2.873-6.487c0.817-0.642,1.527-1.389,2.128-2.237c0.558-1.077,1.429-1.492,2.614-1.245L90.639,62.491z"/>
<path fill="#664932" d="M6.842,34.659c-0.004-1.239-0.009-2.481-0.014-3.72c0.49-1.313,1.186-2.509,2.089-3.583c1.303-0.562,2.661-0.809,4.079-0.742c1.438-0.027,2.765,0.339,3.985,1.096c1.068,0.952,1.921,2.066,2.589,3.327c0.363,1.388,0.429,2.789,0.199,4.205c-0.839,2.051-2.379,3.461-4.218,4.593c-1.237,0.69-2.561,1.129-3.964,1.315c-1.355-0.494-2.388-1.37-3.097-2.627C7.944,37.234,7.393,35.947,6.842,34.659z"/>
<path fill="#6F5037" d="M49.529,90.402c0.282,1.074,0.564,2.151,0.847,3.226c0.606,0.611,1.212,1.221,1.817,1.835c-0.801,0.313-1.602,0.628-2.401,0.945c-2.119-0.729-4.237-1.458-6.357-2.185c-0.012-0.995-0.076-1.986-0.194-2.976C44.991,88.394,47.197,88.934,49.529,90.402z"/>
<path fill="#4C2E19" d="M15.439,22.467c1.152-0.192,2.306-0.388,3.459-0.583c1.427-1.3,2.924-1.386,4.486-0.256c1.484,0.967,2.334,2.334,2.545,4.092c-0.473,3.836-2.49,5.994-6.5,5.979c-1.535-0.602-2.925-1.45-4.163-2.539C13.686,26.889,13.823,24.658,15.439,22.467z"/>
<path fill="#3F2C1E" d="M87.582,74.478c-0.096-0.781-0.204-1.563-0.326-2.338c-0.003,0.003,0.128-0.201,0.128-0.201c1.942-1.782,3.946-1.989,6.022-0.226c-1.827,2.325-3.654,4.65-5.48,6.977l-0.756-1.199C86.461,76.37,86.599,75.366,87.582,74.478z"/>
<path fill="#633F24" d="M22.003,25.22c-0.042-1.154-0.083-2.31-0.126-3.467c-0.931-0.498-1.263-1.032-0.998-1.602c0.272-0.589,0.553-0.885,0.847-0.885c1.005-0.281,2.029-0.46,3.071-0.543c1.129-1.089,2.406-1.364,3.857-0.705c0.766,1.267,1.308,2.619,1.659,4.053c0.457,1.44,0.525,2.893,0.208,4.37c-0.775,1.352-1.913,2.222-3.419,2.615C24.485,28.994,23.177,27.197,22.003,25.22z"/>
<path fill="#895D3B" d="M87.489,25.076c1.384,0.067,2.769,0.134,5.111,0.248c0.151,1.636,0.302,3.283,0.453,4.928c-0.96,2.988-2.566,1.508-4.09,0.595c-0.979-0.791-1.889-1.654-2.713-2.603c-0.042-0.625-0.085-1.251-0.129-1.877C86.577,25.937,87.032,25.506,87.489,25.076z"/>
<path fill="#322318" d="M87.468,28.073c1.861,0.726,3.724,1.453,5.585,2.179c0.006,1.493,0.014,2.985,0.016,4.477c-1.09,0.006-2.177,0.012-3.262,0.015c-1.159,0.33-1.973-0.088-2.488-1.15c0.116-0.788,0.174-1.578,0.173-2.371c-0.997-0.693-1.332-1.392-1.008-2.094C86.809,28.424,87.136,28.073,87.468,28.073z"/>
<path fill="#7F5533" d="M71.86,19.14c-0.001-0.772,0.002-1.541,0.008-2.313c2.007,0.809,4.014,1.617,6.02,2.426C75.877,19.217,73.868,19.177,71.86,19.14z"/>
<path fill="#633F24" d="M40.473,9.89c1.068-0.171,2.136-0.342,3.203-0.513c1.16-1.086,2.373-1.15,3.639-0.189l-0.258-0.312c0.748,0.827,1.066,1.706,0.96,2.634c-0.111,0.952-0.271,1.428-0.482,1.428c-2,1.132-4.065,1.898-6.399,1.12C40.227,12.781,40.006,11.392,40.473,9.89z"/>
<path fill="#9E6B42" d="M47.069,12.234c-0.004-1.12-0.008-2.237-0.012-3.357c1.815-0.262,3.632-0.525,5.444-0.793c0.182,1.572,0.366,3.149,0.549,4.73c-1.463,1.559-3.316,1.236-5.139,1.065C47.63,13.33,47.35,12.784,47.069,12.234z"/>
<path fill="#9E6B42" d="M68.888,15.427l-1.461,0.269l-1.487-0.003c0.099-0.784,0.099-1.571,0.001-2.359C66.924,14.032,67.905,14.731,68.888,15.427z"/>
<path fill="#452915" d="M34.401,16.244c-1.097,0.897-2.196,1.794-3.294,2.691c-0.581,0.626-1.164,1.251-1.746,1.874c-0.421-0.742-0.841-1.486-1.262-2.228l0.21,0.116c-0.952-0.437-1.34-0.974-1.166-1.615c0.186-0.692,0.414-1.041,0.684-1.041c1.182-0.14,2.365-0.281,3.547-0.421C32.694,14.331,33.716,14.468,34.401,16.244z"/>
<path fill="#5D432E" d="M93.407,71.713c-2.006,0.076-4.014,0.149-6.021,0.226c1.904-0.952,3.81-1.904,5.716-2.854C93.403,69.937,93.503,70.813,93.407,71.713z"/>
<path fill="#7F5533" d="M12.13,28.009c-0.859,0.07-1.718,0.122-2.579,0.149c-0.898,1.184-1.82,1.202-2.762,0.052c1.9-1.145,3.798-2.286,5.698-3.427c0.911,0.827,1.161,1.578,0.752,2.261C12.853,27.685,12.484,28.009,12.13,28.009z"/>
<path fill="#633F24" d="M12.13,28.009c0.119-1.074,0.238-2.152,0.357-3.226c0.984-0.772,1.968-1.544,2.953-2.316c0.06,1.956,0.121,3.912,0.18,5.865c-0.783,1.169-1.6,1.254-2.456,0.076L12.13,28.009z"/>
<path fill="#6F5037" d="M6.777,43.616c0.001-2.078,0.001-4.153,0.001-6.231c0.685-0.04,1.371-0.08,2.056-0.116l0.72,0.312c2.925,1.538,3.386,3.741,1.765,6.512c-0.801,0.354-1.604,0.708-2.406,1.065C8.202,44.641,7.49,44.128,6.777,43.616z"/>
<path fill="#5A3F2B" d="M6.777,43.616c0.896,0.003,1.792,0.003,2.687,0c1.393-1.153,2.878-1.285,4.453-0.396c1.161,1.315,1.494,2.813,1.005,4.495c-1.015,1.425-2.397,2.075-4.143,1.953c-1.583-0.477-2.931-1.324-4.048-2.542C6.746,45.953,6.762,44.785,6.777,43.616z"/>
<path fill="#4C3625" d="M49.791,96.408c0.169-0.931,0.363-1.858,0.581-2.78c0.984,0.059,1.967,0.11,2.95,0.153c0.578-0.046,1.158-0.089,1.736-0.135l1.129,0.098C54.056,94.632,51.923,95.52,49.791,96.408z"/>
<path fill="#886344" d="M6.731,47.125c0.841-0.08,1.68-0.156,2.521-0.226c2.008,2.069,3.47,4.138,0.035,6.238c-0.856-0.037-1.71-0.086-2.563-0.146C6.725,51.035,6.728,49.081,6.731,47.125z"/>
<path fill="#9E6B42" d="M47.315,9.189c-1.213,0.064-2.426,0.128-3.639,0.189c0.784-0.708,1.568-1.416,2.351-2.124C46.456,7.898,46.886,8.545,47.315,9.189z"/>
<path fill="#9E6B42" d="M56.625,9.323c-1.298-0.067-2.599-0.134-3.896-0.202C54.027,9.192,55.327,9.259,56.625,9.323z"/>
<path fill="#7F5533" d="M40.473,9.89c0.044,0.894,0.079,1.789,0.101,2.686c-0.502,0.47-1.004,0.94-1.508,1.413c-0.448-0.522-0.897-1.047-1.347-1.569c0,0-0.676,0.006-0.681,0.006C38.181,11.581,39.327,10.736,40.473,9.89z"/>
<path fill="#9E6B42" d="M34.401,16.244c-0.982-0.33-1.991-0.537-3.026-0.623c0.945-0.922,1.889-1.843,2.832-2.765C34.273,13.986,34.337,15.115,34.401,16.244z"/>
<path fill="#7F5533" d="M27.828,16.043c0.192,0.882,0.351,1.767,0.48,2.655c-1.169,0.009-2.339,0.015-3.511,0.024C25.807,17.828,26.818,16.937,27.828,16.043z"/>
<path fill="#7F5533" d="M21.726,19.265c0.05,0.833,0.102,1.664,0.152,2.494c-0.995,0.027-1.988,0.073-2.98,0.125C19.841,21.011,20.783,20.139,21.726,19.265z"/>
<path fill="#9E6B42" d="M84.406,24.85c0.076-0.839,0.159-1.675,0.249-2.515c0.943,0.913,1.886,1.825,2.832,2.74c0.002,0,0.067-0.284,0.067-0.284c-0.51,0.803-1.02,1.605-1.529,2.408C85.485,26.419,84.945,25.635,84.406,24.85z"/>
<path fill="#5D432E" d="M93.256,46.741c-0.713-0.061-1.426-0.137-2.137-0.226c-0.627-0.488-1.256-0.977-1.884-1.465c0.694-0.391,1.388-0.781,2.082-1.169c0.615,0.037,1.231,0.064,1.845,0.079C93.427,44.879,93.459,45.804,93.256,46.741z"/>
<path fill="#886344" d="M8.834,37.268c-0.685,0.052-1.371,0.088-2.056,0.116c-0.328-0.916-0.307-1.825,0.064-2.726C7.506,35.529,8.17,36.398,8.834,37.268z"/>
<path fill="#886344" d="M6.789,28.21c0.918-0.015,1.837-0.034,2.759-0.052c-0.905,0.928-1.811,1.855-2.719,2.78C6.469,30.035,6.455,29.126,6.789,28.21z"/>
<path fill="#5D432E" d="M59.83,93.167c0.841-0.84,1.682-1.676,2.523-2.512C61.512,91.492,60.671,92.327,59.83,93.167z"/>
<path fill="#4C3625" d="M65.878,59.189c-2.157,2.209-4.316,4.422-6.474,6.632c-0.799,0.46-1.597,0.918-2.395,1.379c-5.097-0.857-5.304-4.188-4.143-8.203c1.878-3.363,5.021-5.063,8.441-6.388c1.873-0.226,3.503,0.309,4.883,1.6C67.095,55.929,66.991,57.589,65.878,59.189z"/>
<path fill="#2D1F15" d="M68.735,68.735c0.046,1.08,0.092,2.164,0.138,3.244c1.479,1.392,1.465,2.771-0.044,4.135c-1.614,0.473-3.246,0.86-4.9,1.166c-3.031-0.437-4.151-2.433-4.287-5.237c1.167-2.85,3.576-3.247,6.231-3.158c0.972-0.033,1.944-0.064,2.916-0.095L68.735,68.735z"/>
<path fill="#3F2C1E" d="M84.372,59.381c-2.13,1.037-4.262,2.075-6.392,3.115c-0.655-0.543-1.31-1.083-1.964-1.626c-1.123-1.361-1.676-2.924-1.659-4.69c0.515-1.716,1.564-2.988,3.154-3.815c2.568-0.665,5.073-0.635,7.474,0.645c1.323,1.309,1.771,2.871,1.343,4.681C85.677,58.255,85.024,58.817,84.372,59.381z"/>
<path fill="#4C3625" d="M65.872,68.884c-1.085,1.017-2.171,2.032-3.258,3.049c-0.749,1.245-1.85,1.913-3.299,2.002c-1.18-0.754-2.062-1.771-2.688-3.016c0.055-1.443,0.695-2.551,1.92-3.317c1.341-0.335,2.548-0.942,3.639-1.788C63.414,66.839,64.644,67.862,65.872,68.884z"/>
<path fill="#2D1F15" d="M65.878,59.189c-0.095-0.977-0.172-1.953-0.234-2.93c0.065-0.751,0.13-1.502,0.192-2.252c1.636-2.033,3.714-2.173,6.001-1.396c1.253,0.843,2.101,1.99,2.54,3.434c0.178,1.511-0.245,2.832-1.266,3.958c-1.398,0.696-2.713,0.562-3.943-0.405C68.072,59.46,66.976,59.327,65.878,59.189z"/>
<path fill="#5D432E" d="M87.606,65.499c-1.074,0.052-2.15,0.104-3.226,0.156c-0.002-2.091-0.005-4.185-0.008-6.274l0.009-0.016c2.856-2.246,3.681-0.03,4.557,2.075C89.054,62.976,88.639,64.34,87.606,65.499z"/>
<path fill="#5D432E" d="M75.623,71.781c1.841-0.031,3.682-0.064,5.521-0.098C79.338,73.66,77.502,73.938,75.623,71.781z"/>
<path fill="#4C3625" d="M68.755,74.933c0.02-0.989,0.058-1.975,0.114-2.957c1.01-0.04,2.018-0.07,3.024-0.089c1.088,0.689,1.655,1.66,1.62,2.963c-0.185,1.23-0.725,2.289-1.571,3.195c-1.099-0.012-2.197-0.021-3.296-0.03c-0.634-0.537-1.267-1.074-1.901-1.611C67.415,75.915,68.085,75.424,68.755,74.933z"/>
<path fill="#4C3625" d="M75.623,71.781c1.841-0.031,3.682-0.062,5.521-0.095c-2.06,1.089-4.118,2.182-6.177,3.274c-0.984-0.537-1.376-1.157-1.18-1.864c0.209-0.751,0.457-1.127,0.742-1.127L75.623,71.781z"/>
<path fill="#5D432E" d="M65.707,81.314c-2.111-0.003-4.224-0.009-6.334-0.012c-0.646-0.745-0.939-1.538-0.88-2.381c0.061-0.87,0.179-1.303,0.353-1.303c1.438-2.134,3.37-1.535,5.298-0.949c0.478,0.47,0.955,0.939,1.435,1.41C65.62,79.157,65.665,80.237,65.707,81.314z"/>
<path fill="#5D432E" d="M69.168,59.598c0.893-0.129,1.787-0.238,2.685-0.33c0.912,0.708,1.222,1.426,0.935,2.151c-0.289,0.732-0.584,1.099-0.883,1.099C70.992,61.544,70.08,60.571,69.168,59.598z"/>
<path fill="#3F2C1E" d="M71.905,62.518c-0.018-1.083-0.035-2.163-0.052-3.247c0-0.003-0.126,0.11-0.126,0.11c0.585-0.986,1.423-1.654,2.517-2.005c1.104,0.418,1.793,1.208,2.127,2.325c0.017,0.559,0.034,1.117,0.049,1.676c-0.415,0.372-0.83,0.744-1.246,1.116C74.083,62.503,72.993,62.509,71.905,62.518z"/>
<path fill="#4C3625" d="M77.981,62.496l-1.406,0.059c0,0-1.405-0.059-1.403-0.059c0.002-0.003-0.067-0.302-0.067-0.302c0.491-0.656,0.982-1.313,1.475-1.972c0.494,0.656,0.987,1.313,1.479,1.969L77.981,62.496z"/>
<path fill="#5D432E" d="M62.186,65.814c-1.041,0.928-2.081,1.855-3.12,2.783c-0.787-0.754-0.998-1.443-0.635-2.063c0.343-0.586,0.67-0.879,0.978-0.879l-0.004,0.161C60.332,65.795,61.258,65.795,62.186,65.814z"/>
<path fill="#2D1F15" d="M68.788,68.789c0,0-0.054-0.052-0.054-0.055L68.788,68.789z"/>
<path fill="#2D1F15" d="M74.531,71.969c0.188,0.992,0.334,1.987,0.438,2.991l-0.001-0.04c-0.974,1.354-1.942,1.288-2.908-0.009c-0.062-1.007-0.116-2.018-0.165-3.024C72.773,71.914,73.652,71.942,74.531,71.969z"/>
<path fill="#5D432E" d="M68.755,74.933c-0.021,1.028-0.057,2.06-0.105,3.085c-1.024,0.043-2.046,0.064-3.07,0.062c-0.001,0,0.11,0.112,0.11,0.112c-0.68-0.51-1.356-1.016-2.036-1.521c0.751-0.394,1.502-0.787,2.253-1.178C66.851,75.278,67.8,75.091,68.755,74.933z"/>
<path fill="#363636" d="M72.059,74.911c0.97,0.019,1.938,0.021,2.909,0.012c-1.01,1.041-2.019,2.082-3.025,3.122C71.982,76.998,72.02,75.955,72.059,74.911z"/>
<path fill="#5D432E" d="M87.582,74.478c-0.106,1.011-0.244,2.015-0.412,3.016C87.07,76.458,87.207,75.452,87.582,74.478z"/>
<path fill="#5D432E" d="M81.191,81.18l-0.011,0.015L81.191,81.18z"/>
<path fill="#5D432E" d="M68.77,84.403c-1.078-1.068-2.156-2.137-3.234-3.205c1.015,0.056,2.029,0.113,3.044,0.174c0.877,0.632,1.177,1.276,0.9,1.93c-0.279,0.658-0.562,0.985-0.85,0.985L68.77,84.403z"/>
<path fill="#4C3625" d="M68.63,84.286c-0.008-0.971-0.023-1.944-0.049-2.915C68.918,82.339,68.935,83.31,68.63,84.286z"/>
<path fill="#443021" d="M65.907,75.492c-0.067,0.899-0.141,1.8-0.217,2.7c-1.928,0.055-3.856,0.11-5.783,0.165c-0.621-0.101-1.242-0.204-1.865-0.309c-0.489-1.169-1.162-2.218-2.047-3.131c-0.884-1.386-1.769-2.768-2.652-4.15c-1.112-2.396-0.032-3.381,2.289-3.573c1.877,0.876,2.394,2.832,3.448,4.36c1.178,0.126,2.354,0.251,3.534,0.376C63.712,73.117,64.809,74.304,65.907,75.492z"/>
<path fill="#322318" d="M56.644,68.991c-1.104,0.599-2.208,1.196-3.307,1.785c-0.611,0.214-1.18,0.525-1.698,0.925c-1.729,0.428-3.296,0.092-4.698-1.007c-0.912-1.459-1.329-3.049-1.25-4.77c0.59-3.415,2.318-6.229,4.628-8.734c1.604-0.812,3.19-0.772,4.754,0.116c0.374,0.747,0.748,1.498,1.122,2.246c1.071,2.035,2.143,4.067,3.213,6.104c-0.136,0.977-0.248,1.959-0.34,2.941c-0.003,0,0.252-0.061,0.252-0.061C58.64,69.934,57.758,70.145,56.644,68.991z"/>
<path fill="#6F5037" d="M43.958,84.295c-4.428-1.834-8.854-3.668-13.281-5.502c-0.121-1.801,0.537-3.247,1.959-4.367c4.124-1.129,8.228-1.639,12.191,0.616c1.158,1.353,1.549,2.921,1.193,4.673C45.514,81.32,44.826,82.849,43.958,84.295z"/>
<path fill="#6F5037" d="M30.677,78.793c-1.677,0.058-3.355,0.116-5.029,0.177c-0.305-0.434-0.612-0.873-0.918-1.31c-0.974-1.4-1.61-2.944-1.909-4.626c0.073-1.804,0.875-3.192,2.402-4.159c3.896-0.791,6.447,1.08,8.356,4.221c0.177,1.8-0.409,3.308-1.758,4.516C31.436,78.002,31.056,78.397,30.677,78.793z"/>
<path fill="#886344" d="M49.529,90.402c-2.095,0.281-4.19,0.562-6.287,0.843c2.086-1.199,4.173-2.398,6.262-3.598C49.651,88.562,49.659,89.481,49.529,90.402z"/>
<path fill="#6F5037" d="M50.082,68.802c0.52,0.964,1.038,1.932,1.557,2.898c-0.538,1.108-1.079,2.216-1.617,3.323c-1.006,1.206-2.306,1.743-3.862,1.7c-1.902-1.19-4.036-2.002-5.735-3.527c-0.69-1.383-0.958-2.842-0.809-4.383c0.534-1.468,1.456-2.64,2.716-3.552c1.52-0.461,2.984-0.33,4.399,0.387C47.892,66.654,49.01,67.703,50.082,68.802z"/>
<path fill="#5A3F2B" d="M46.868,75.012c1.052,0.003,2.103,0.009,3.152,0.012c-0.063,1.145-0.128,2.286-0.192,3.431c-1.026,0.897-2.005,1.847-2.934,2.848l0.102-0.019c-1.018,1.159-2.068,1.19-3.151,0.092c-0.141-1.185-0.279-2.365-0.418-3.55c-0.457-0.579-0.911-1.162-1.367-1.742c0.28-0.684,0.563-1.367,0.844-2.048C44.417,73.577,45.731,73.938,46.868,75.012z"/>
<path fill="#3D2B1D" d="M59.907,78.357c-0.222,0.974-0.398,1.953-0.533,2.945c0.024,0.982,0.053,1.965,0.081,2.944c-1.042,1.157-2.127,1.196-3.251,0.122l0.08,0.034c0.073-2.161,0.146-4.321,0.22-6.482c0.827-1.068,1.622-1.044,2.39,0.067L59.907,78.357z"/>
<path fill="#2D1F15" d="M58.893,77.988c-0.798-0.013-1.596-0.03-2.391-0.064c-0.165-1.004-0.334-2.005-0.505-3.006C56.96,75.94,57.926,76.965,58.893,77.988z"/>
<path fill="#6F5037" d="M46.894,81.302c0.978-0.952,1.957-1.901,2.936-2.851C48.85,79.404,47.871,80.353,46.894,81.302z"/>
<path fill="#6F5037" d="M24.886,82.862c0.056-0.568,0.11-1.139,0.163-1.709C25.359,81.759,25.306,82.33,24.886,82.862z"/>
<path fill="#646464" d="M43.845,81.375c1.05-0.031,2.1-0.064,3.151-0.092c-1.015,1.004-2.029,2.008-3.041,3.012C43.891,83.322,43.854,82.348,43.845,81.375z"/>
<path fill="#815737" d="M33.83,30.63c1.236,0.226,2.472,0.449,3.708,0.675c0.811,0.314,1.619,0.631,2.429,0.949c1.962,2.396,1.561,4.785-0.023,7.168c-1.24,1.261-2.707,2.158-4.396,2.686c-4.051,0.974-7.927,4.059-12.306,1.025c-1.234-1.224-2.071-2.686-2.501-4.367c-0.197-1.688-0.061-3.357,0.404-4.996c1.383-2.237,3.462-3.491,5.946-4.157c1.547-0.674,3.153-0.848,4.812-0.519C32.546,29.605,33.188,30.118,33.83,30.63z"/>
<path fill="#7F5533" d="M40.235,27.972c1.237,0.049,2.475,0.098,3.712,0.15c2.034-2.011,4.16-3.726,7.266-2.24c3.32,3.213,2.349,6.342-0.195,9.421c-1.201,1.23-2.615,2.179-4.213,2.82c-2.716,0.51-4.834-0.345-6.227-2.802c-0.784-1.44-1.755-2.75-2.905-3.924c0,0-0.136-0.095-0.134-0.091c-0.023-0.977-0.061-1.95-0.113-2.924C38.204,27.16,39.148,27.078,40.235,27.972z"/>
<path fill="#704B2E" d="M34.207,24.731c0.044,1.196,0.09,2.39,0.136,3.586c-1.062,1.046-1.947,2.273-3.224,3.094l0.348-0.183c-1.598,1.489-3.572,1.626-5.606,1.572c-1.474-0.046-2.431-0.793-2.949-2.148c0.442-3.152,3.392-3.989,5.319-5.768l-0.238,0.158C29.958,22.812,32.056,23.26,34.207,24.731z"/>
<path fill="#452915" d="M43.788,25.329c3.22-2.167,6.438-4.333,9.657-6.5c0.863,1.202,1.122,2.508,0.681,3.934c-0.589,2.234-1.791,3.763-4.319,3.775C47.725,26.514,45.553,26.938,43.788,25.329z"/>
<path fill="#7F5533" d="M40.574,12.576c2.165-0.113,4.329-0.223,6.494-0.338c0.001-0.003,0.232-0.024,0.232-0.024c0.613,0.592,1.227,1.184,1.84,1.776c-0.748,0.406-1.497,0.815-2.246,1.221c-2.13,1.141-4.262,2.286-6.392,3.427c-0.826-0.895-1.305-1.938-1.381-3.159c0.079-1.236,0.624-2.231,1.567-3.015L40.574,12.576z"/>
<path fill="#94633D" d="M59.163,25.189c0.313-1.163,0.624-2.328,0.937-3.491l1.058,0.009c0.521,0.153,1.055,0.263,1.596,0.327c0.886,0.964,1.796,1.904,2.731,2.817l0.017,0.378c1.556,1.483,1.816,3.165,0.78,5.047c-2.555,2.139-5.122,2.133-7.704,0.052C57.483,28.467,57.68,26.755,59.163,25.189z"/>
<path fill="#9E6B42" d="M34.207,24.731c-2.072,0.104-4.143,0.208-6.215,0.311c0.037-2.151,0.072-4.306,0.107-6.46c1.002,0.119,2.006,0.238,3.009,0.354C32.14,20.868,33.175,22.8,34.207,24.731z"/>
<path fill="#555555" d="M46.894,15.21c0.125-0.998,0.256-1.996,0.401-2.994c1.922,0.198,3.839,0.396,5.757,0.595c-0.032,0.873-0.076,1.74-0.136,2.606C50.91,15.347,48.902,15.28,46.894,15.21z"/>
<path fill="#7F5533" d="M49.997,25.164c0.996-1.099,1.993-2.194,2.989-3.292c1.016-1.313,2.073-1.288,3.171-0.101c0.012,1.05,0.024,2.1,0.036,3.149c-0.285,0.65-0.57,1.303-0.855,1.957c-1.343,0.671-2.677,0.656-4.004-0.046C50.888,26.276,50.443,25.72,49.997,25.164z"/>
<path fill="#9E6B42" d="M43.788,25.329c2.069-0.055,4.14-0.113,6.209-0.165l-0.176-0.085c0.545,0.482,1.088,0.964,1.633,1.446c-0.54,0.485-1.08,0.974-1.62,1.459c-1.966,0.045-3.93,0.091-5.89,0.137C43.903,27.191,43.849,26.26,43.788,25.329z"/>
<path fill="#633F24" d="M40.688,12.463c-0.017,1.062-0.034,2.127-0.052,3.192c-1.404,1.068-2.5,0.753-3.33-0.745c0.137-0.83,0.273-1.66,0.412-2.49C38.709,12.448,39.699,12.463,40.688,12.463z"/>
<path fill="#9E6B42" d="M37.306,14.91c1.111,0.248,2.22,0.495,3.33,0.745c-0.041,0.995-0.085,1.986-0.134,2.981C39.437,17.395,38.371,16.153,37.306,14.91z"/>
<path fill="#452915" d="M64.191,15.57c-0.563,1.01-1.127,2.023-1.69,3.037c-1.02,1.618-2.059,1.553-3.117,0.04c-0.016-0.995,0-1.993,0.046-2.987C61.016,15.628,62.604,15.6,64.191,15.57z"/>
<path fill="#9E6B42" d="M56.158,21.771c-1.058,0.034-2.113,0.067-3.171,0.101c0.119-1.02,0.271-2.033,0.459-3.042C54.349,19.809,55.252,20.791,56.158,21.771z"/>
<path fill="#9E6B42" d="M59.383,18.646c1.039,0.043,2.078,0.031,3.117-0.04c-0.444,1.035-0.888,2.066-1.337,3.101c-0.006,0-1.069-0.006-1.066-0.009C59.861,20.681,59.621,19.665,59.383,18.646z"/>
<path fill="#452915" d="M31.119,31.411c1.074-1.031,2.15-2.063,3.224-3.094c-0.128,0.781-0.299,1.553-0.511,2.313C32.913,30.844,32.01,31.106,31.119,31.411z"/>
<path fill="#452915" d="M59.163,25.189c0.006,0.956-0.035,1.911-0.122,2.86c-1.07,0.961-2.214,1.062-3.435,0.308c-0.638-1.285-0.463-2.405,0.66-3.342c0,0-0.07-0.091-0.071-0.095C57.186,24.978,58.176,25.067,59.163,25.189z"/>
<path fill="#452915" d="M40.235,27.972c-0.938,0.125-1.874,0.263-2.808,0.409C38.381,28.378,39.318,28.241,40.235,27.972z"/>
<path fill="#483121" d="M18.681,71.201c0.023-0.885-0.05-1.761-0.22-2.628c-0.9-1.343-1.583-2.786-2.054-4.33c-0.063-1.688,0.53-3.101,1.77-4.239c1.234-1.116,2.684-1.587,4.336-1.409c2.327,0.787,3.833,2.529,5.15,4.474c0.748,1.333,1.129,2.78,1.192,4.303c-0.586,1.416-1.57,2.469-2.943,3.149c-1.264,0.757-2.475,1.603-3.618,2.539C20.737,73.132,19.513,72.549,18.681,71.201z"/>
<path fill="#886344" d="M18.436,66.104c0.067,0.824,0.076,1.648,0.027,2.469c-0.86,0.016-1.718,0-2.572-0.049c-0.083-0.937-0.139-1.873-0.165-2.811c0.531-0.488,1.062-0.977,1.593-1.465C17.691,64.868,18.064,65.485,18.436,66.104z"/>
<path fill="#886344" d="M18.681,71.201c1.076,0.201,2.15,0.402,3.226,0.604c1.176,0.332,1.66,1.074,1.344,2.285c-0.453,0.299-0.907,0.596-1.36,0.892C20.821,73.721,19.751,72.461,18.681,71.201z"/>
<path fill="#886344" d="M25.013,75.034c-0.087,0.879-0.18,1.758-0.282,2.631c-0.948-0.897-1.892-1.789-2.838-2.683l-0.058,0.085C22.872,72.973,23.931,72.961,25.013,75.034z"/>
<path fill="#4C3625" d="M56.203,84.368c1.083-0.039,2.166-0.079,3.251-0.119C58.371,84.289,57.286,84.329,56.203,84.368z"/>
<path fill="#4C3625" d="M55.059,93.646c-0.58,0.046-1.161,0.089-1.738,0.135C53.891,93.607,54.471,93.564,55.059,93.646z"/>
<path fill="#432F20" d="M77.906,40.451c1.143,0.07,2.286,0.137,3.429,0.208c1.379,1.346,2.621,2.789,3.288,4.639c0.529,1.145,0.9,2.344,1.082,3.595c-0.021,1.264-0.366,2.433-1.076,3.482c-0.929,0.806-1.953,1.479-3.071,1.999c-1.196,0.226-2.406,0.366-3.627,0.396c-0.574,0.204-1.149,0.409-1.725,0.613c-1.196,0.396-2.383,0.372-3.567-0.079c-0.56-0.278-1.113-0.553-1.674-0.837c-1.077-0.689-2.035-1.504-2.906-2.441c-0.843-1.81-1.323-3.726-1.904-5.63c-0.401-1.34-0.799-2.664-1.201-4.001c-0.591-2.207-0.469-4.294,0.877-6.223c2.481-2.719,5.535-1.815,8.518-1.367C76.877,35.846,77.056,38.361,77.906,40.451z"/>
<path fill="#9E6B42" d="M72.15,30.905c1.079-0.024,2.156-0.046,3.235-0.07c1.384-1.193,3.03-1.157,4.702-0.995c0.342,0.436,0.684,0.873,1.027,1.312c0,0.906,0.038,1.81,0.113,2.713c-0.936,1.257-2.138,2.133-3.651,2.576c-1.554,0.125-3.08-0.018-4.594-0.391c-2.241-0.177-4.758,0.714-6.411-1.688c-0.442-1.688-0.024-3.122,1.246-4.312C69.452,29.367,70.897,29.654,72.15,30.905z"/>
<path fill="#3D2B1D" d="M91.318,43.881c-0.096,0.876-0.164,1.758-0.199,2.637c-0.143,2.271-0.287,4.544-0.433,6.817c-0.446,0.406-0.896,0.812-1.344,1.218c-1.117,0.668-2.216,0.641-3.299-0.082c-0.922-0.806-1.666-1.752-2.237-2.836c-0.549-1.102-0.854-2.267-0.915-3.497c0.174-1.224,0.601-2.35,1.281-3.378c1.031-0.724,2.179-1.02,3.429-0.946C88.84,43.835,90.079,43.857,91.318,43.881z"/>
<path fill="#4C3625" d="M87.601,43.814c-1.08,1.038-2.159,2.078-3.239,3.116c-0.518,0.729-1.033,1.459-1.551,2.188c-0.498-0.741-0.996-1.482-1.493-2.228c0.004-2.078,0.009-4.156,0.015-6.234c1.293,0.198,2.585,0.394,3.876,0.589c0.534,0.803,1.164,1.52,1.893,2.151L87.601,43.814z"/>
<path fill="#5D432E" d="M77.906,40.451c-0.977-1.065-1.953-2.133-2.93-3.202l1.013-1.153l1.535,0.055l0.583,1.422C78.066,38.535,77.997,39.493,77.906,40.451z"/>
<path fill="#5D432E" d="M87.319,33.594c0.816,0.418,1.648,0.803,2.492,1.15C88.973,34.372,88.143,33.987,87.319,33.594z"/>
<path fill="#2D1F15" d="M78.234,34.894c0.998-0.342,1.996-0.684,2.994-1.029c-1.04,1.236-2.08,2.472-3.121,3.708l0.09-0.144c-0.767-0.433-1.536-0.867-2.306-1.3C76.672,35.718,77.452,35.306,78.234,34.894z"/>
<path fill="#7F5533" d="M87.468,28.073c0.008,1.05,0.016,2.1,0.023,3.149c-1.105-0.107-2.208-0.217-3.313-0.324c-1.346-0.525-1.777-1.007-1.303-1.453c0.441-0.415,0.905-0.628,1.4-0.628l0.213-1.37c1.306-0.739,2.377-0.528,3.174,0.787L87.468,28.073z"/>
<path fill="#9E6B42" d="M84.276,28.818c-0.028,0.696-0.061,1.392-0.096,2.084c-1.021,0.104-2.042,0.189-3.065,0.248c0,0.003,0.287,0.259,0.287,0.259c-0.77-0.549-1.538-1.099-2.309-1.648c0.779-0.537,1.558-1.071,2.336-1.608C82.398,28.286,83.348,28.509,84.276,28.818z"/>
<path fill="#5D432E" d="M87.101,43.396c-0.67-0.687-1.304-1.407-1.897-2.154C85.877,41.928,86.507,42.645,87.101,43.396z"/>
<path fill="#6F5037" d="M21.822,62.328c-1.029,0.013-2.057,0.031-3.085,0.053c-1.34,0.109-2.345-0.418-3.014-1.587c0.014-0.623,0.027-1.249,0.041-1.874c-0.081-0.938-0.169-1.874-0.265-2.808c0.345-0.812,0.689-1.62,1.036-2.43c1.514-1.083,3.176-1.403,4.985-0.955c1.672,0.757,2.899,1.966,3.684,3.626C25.942,59.403,25.097,61.554,21.822,62.328z"/>
<path fill="#422D1E" d="M15.726,65.713c-0.995-0.043-1.99-0.073-2.983-0.095c1.008-2.23,2.014-4.462,3.021-6.695c0-0.003-0.134,0.47-0.134,0.47c1.801,2.088,2.031,4.196,0.078,6.33L15.726,65.713z"/>
<path fill="#422D1E" d="M9.287,53.137c-0.011-2.078-0.021-4.159-0.034-6.238c0.989,0.085,1.98,0.171,2.973,0.247c1.568,0.345,2.584,1.285,3.052,2.823c-0.184,0.729-0.37,1.459-0.553,2.191c-0.628,0.415-1.259,0.827-1.887,1.242C11.654,53.314,10.47,53.226,9.287,53.137z"/>
<path fill="#886344" d="M15.499,56.113c-0.888-0.906-1.776-1.81-2.663-2.71c0.001,0-0.255-0.18-0.255-0.18c0.926-1.315,2.138-1.679,3.634-1.09c0.882,1.4,0.646,2.575-0.709,3.524L15.499,56.113z"/>
<path fill="#7F5533" d="M72.15,30.905c-1.123,0.119-2.246,0.238-3.369,0.357c-3.066,4.004-7.097,5.194-11.912,4.083c-1.774-0.692-2.899-1.959-3.369-3.805c0.166-1.923,1.123-3.296,2.868-4.117c0.875,0.277,1.766,0.488,2.674,0.625c2.298,0.006,4.598,0.009,6.896,0.012c1.887-1.877,3.781-1.834,5.688-0.031C71.789,28.989,71.964,29.947,72.15,30.905z"/>
<path fill="#555555" d="M71.626,28.03c-1.897,0.009-3.795,0.021-5.689,0.031c-0.125-0.949-0.271-1.892-0.434-2.832c2.042-0.037,4.086-0.073,6.126-0.107C71.678,26.089,71.678,27.06,71.626,28.03z"/>
<path fill="#452915" d="M81.429,28.152c-0.01,1.086-0.019,2.17-0.027,3.256c-2.005-0.189-4.012-0.381-6.017-0.574C77.399,29.941,79.414,29.046,81.429,28.152z"/>
<path fill="#452915" d="M87.662,28.235c-1.06-0.259-2.117-0.519-3.174-0.784c0.003-0.87-0.024-1.733-0.084-2.597c1.05-0.021,2.1-0.042,3.149-0.061C87.589,25.94,87.625,27.087,87.662,28.235z"/>
<path fill="#452915" d="M65.485,24.85c-0.911-0.937-1.821-1.877-2.732-2.817C63.663,22.973,64.574,23.913,65.485,24.85z"/>
<path fill="#3D2B1D" d="M87.696,62.445c-1.104-1.025-2.209-2.051-3.314-3.079c0.01-1.025,0.016-2.051,0.017-3.076c-0.497-0.363-0.993-0.727-1.49-1.086c-0.055-1.288,0.396-2.359,1.354-3.217c1.282-0.125,2.379,0.266,3.292,1.172l-0.105-0.052c1.097,0.888,2.179,1.797,3.241,2.728c-0.018,2.219-0.034,4.438-0.051,6.656l-0.052,0.046C89.583,63.776,88.618,63.744,87.696,62.445z"/>
<path fill="#4C3625" d="M90.69,55.834c-1.081-0.909-2.159-1.818-3.241-2.728c1.079,0.073,2.157,0.149,3.237,0.226C90.683,54.168,90.683,55.001,90.69,55.834z"/>
<path fill="#444444" d="M87.696,62.445c0.965,0.034,1.929,0.064,2.893,0.092c-0.996,0.989-1.991,1.978-2.982,2.966C87.617,64.481,87.647,63.461,87.696,62.445z"/>
<path fill="#5A3F2B" d="M15.61,34.661c-0.034-1.288-0.069-2.575-0.103-3.863c0.63-0.317,1.262-0.632,1.894-0.949c1.445,0.162,2.701,0.732,3.773,1.718c0.49,1.367,0.703,2.771,0.639,4.227c-0.081,0.727-0.16,1.444-0.241,2.17c-0.509,1.465-1.512,2.429-2.946,2.976c-1.552-0.095-2.794-0.76-3.734-1.993C14.655,37.439,14.917,36.014,15.61,34.661z"/>
<path fill="#505050" d="M12.026,43.847c-0.856-0.067-1.71-0.144-2.562-0.229c0.028-2.017,0.055-4.028,0.085-6.039c0.884,0.012,1.764,0.033,2.643,0.064c0.598,0.308,1.196,0.613,1.794,0.921c1.022,0.979,1.457,2.173,1.309,3.58c-0.415,0.534-0.83,1.065-1.247,1.599C13.375,43.777,12.7,43.814,12.026,43.847z"/>
<path fill="#422D1E" d="M15.61,34.661c0.02,0.974,0.049,1.947,0.088,2.921c-0.548,0.479-1.094,0.958-1.642,1.438c-0.527-0.501-1.055-1.004-1.581-1.505c0,0-0.279,0.128-0.281,0.128C13.332,36.648,14.47,35.657,15.61,34.661z"/>
<path fill="#452915" d="M13.164,28.409c0.818-0.027,1.636-0.052,2.456-0.076l0.137-0.107c0.72,0.568,1.44,1.135,2.159,1.703c-0.8,0.445-1.601,0.891-2.402,1.339c0,0-0.008-0.467-0.006-0.467C14.726,30.002,13.945,29.205,13.164,28.409z"/>
<path fill="#9E6B42" d="M15.514,31.268c0.083-1.016,0.163-2.029,0.241-3.042c2.083-1.001,4.166-2.005,6.248-3.006c2.075-0.11,4.15-0.223,6.226-0.335c-1.308,1.996-2.617,3.991-3.924,5.987c-1.625,2.563-3.567,2.826-5.823,0.8C17.502,31.467,16.514,31.332,15.514,31.268z"/>
<path fill="#6F5037" d="M12.79,49.792c-0.177-0.885-0.365-1.767-0.563-2.646c-0.066-1.099-0.128-2.2-0.197-3.302c-0.005,0.003,0.689-0.513,0.689-0.513c0.81-1.328,1.823-2.478,3.041-3.449c1.496-0.479,3.011-0.589,4.555-0.271c1.111,1.104,1.956,2.38,2.5,3.854c0.087,0.772,0.175,1.544,0.262,2.313c-0.21,1.569-0.828,2.955-1.854,4.157c-1.276,0.939-2.707,1.416-4.291,1.425C15.327,51.434,13.945,50.91,12.79,49.792z"/>
<path fill="#312217" d="M65.644,56.259c-1.137,0.061-2.273,0.122-3.41,0.187c-4.123,0.329-7.861-0.08-9.336-4.859c0.04-2.123,0.93-3.783,2.677-4.992c1.901-0.735,3.861-1.047,5.895-0.943c7.021,1.367,8.312,4.968,4.176,10.684L65.644,56.259z"/>
<path fill="#5D432E" d="M56.261,53.14c1.991,1.102,3.984,2.203,5.974,3.306c-2.013,1.034-4.025,2.068-6.038,3.106c-0.001,0-0.161-0.046-0.161-0.046c-0.943-1.02-1.692-2.164-2.221-3.451c0.2-0.66,0.4-1.318,0.6-1.979C55.03,53.763,55.646,53.452,56.261,53.14z"/>
<path fill="#3D2B1D" d="M78.127,56.289c-0.107,1.202-0.214,2.405-0.322,3.607l-1.106,1.053l-1.091-1.071l-0.702-0.577c-0.984-0.833-1.543-1.897-1.73-3.167c0.151-1.291,0.768-2.302,1.847-3.027l-0.057,0.039c0.825-0.982,1.701-1.031,2.629-0.146l1.011,0.406c0.676,0.607,1.352,1.212,2.027,1.819C79.796,55.578,78.961,55.936,78.127,56.289z"/>
<path fill="#5D432E" d="M78.127,56.289c0.118-0.971,0.274-1.932,0.473-2.887c0.941-0.149,1.878-0.306,2.813-0.464c1.039-1.206,2.029-1.227,2.967,0.119c0.006,1.077,0.012,2.154,0.018,3.231C82.308,56.289,80.217,56.289,78.127,56.289z"/>
<path fill="#2D1F15" d="M75.608,59.878c0.735-0.033,1.47-0.03,2.2,0.016c0.078,0.771,0.162,1.538,0.252,2.301c-0.002-0.003-1.48,0.04-1.48,0.04s-1.479-0.031-1.477-0.037C75.266,61.422,75.435,60.651,75.608,59.878z"/>
<path fill="#5D432E" d="M56.644,68.991c0.882-0.204,1.774-0.356,2.677-0.454c-0.064,1.01-0.143,2.017-0.238,3.021C58.268,70.7,57.455,69.845,56.644,68.991z"/>
<path fill="#402D1E" d="M65.645,56.335c-2.097-2.105-4.192-4.212-6.291-6.317c-1.267-0.945-2.683-1.468-4.267-1.511c-1.438-0.711-2.398-1.834-2.881-3.359c0.024-1.569,0.481-2.994,1.438-4.242c1.241-0.918,2.629-1.474,4.161-1.663c1.502-0.073,3.009-0.055,4.508,0.067c1.486,0.302,2.778,0.992,3.896,2.008c1.591,1.538,3.143,3.109,3.974,5.225c0.243,2.124-0.141,4.409,1.53,6.183l0.521,0.876c0.393,0.491,0.783,0.982,1.175,1.478c-0.453,0.436-0.904,0.872-1.356,1.309C69.916,56.371,67.782,56.354,65.645,56.335z"/>
<path fill="#5D432E" d="M74.995,56.397c-0.015,0.97-0.042,1.94-0.087,2.904c-1.062,0.025-2.121,0.053-3.182,0.08c0.1-0.998,0.206-1.999,0.322-2.994c0.003,0-0.109,0.116-0.109,0.116C72.901,54.822,73.923,54.868,74.995,56.397z"/>
<path fill="#583E2A" d="M46.885,68.762c-1.056,0.016-2.11,0.03-3.165,0.046l0.088-0.089c-0.015,1.074-0.029,2.148-0.043,3.223c0.763,0.437,1.089,0.959,0.98,1.563c-0.119,0.647-0.283,0.971-0.495,0.971l-0.936,0.888c-1.855,0.931-3.618,0.083-5.403-0.286c-1.216-0.287-2.312-0.821-3.263-1.639c-1.114-1.469-2.107-3.024-3.282-4.45c-0.664-1.031-1.322-2.065-1.973-3.109c-0.696-1.022-1.358-2.063-1.983-3.134c-0.458-1.179-0.717-2.393-0.778-3.656c-0.014-0.641-0.027-1.27-0.043-1.91c-0.004-1.301-0.003-2.592,0.008-3.892c0.011-1.333,0.032-2.655,0.065-3.988c0.085-2.127,0.667-4.017,2.436-5.38c1.77-1.239,3.851-1.737,5.818-2.512c1.333-0.528,2.695-0.949,4.083-1.279c1.428-0.085,2.809,0.141,4.134,0.671c3.116,1.44,6.457,2.634,7.415,6.427c0.293,0.86,0.048,1.712-0.459,2.222c0.23-0.198-0.401,0.323-0.157,0.155c0.244-0.165,0.101,0.024,0.325-0.125c0.223-0.149,0.542-0.187,0.76-0.238c1.03-0.009,1.619,0.376,2.057,1.179c0.495,0.949,0.933,1.815,1.398,2.725c0.174,1.136,0.239,2.219,0.204,3.336c-0.033,1.211-0.518,2.176-1.452,2.908c-1.092,2.088-2.183,4.175-3.273,6.262C49.301,67.056,47.936,67.755,46.885,68.762z"/>
<path fill="#363636" d="M53.225,59.387c-0.028-1.041-0.054-2.081-0.081-3.125c0.517-0.738,1.033-1.48,1.55-2.222c0.52,0.741,1.036,1.48,1.554,2.222c-0.067,1.08-0.135,2.16-0.208,3.244C55.097,59.479,54.161,59.436,53.225,59.387z"/>
<path fill="#886344" d="M46.885,68.762c1.022-1.037,2.044-2.075,3.067-3.113c0.043,1.051,0.087,2.1,0.131,3.15C49.016,68.786,47.952,68.774,46.885,68.762z"/>
<path fill="#886344" d="M37.488,71.832c1.942,1.178,3.886,2.353,5.827,3.53c0.101,0.818,0.138,1.643,0.112,2.466c-3.872-0.073-7.741-0.143-11.609-0.213c-0.067-0.647-0.126-1.294-0.178-1.938C31.855,71.756,34.127,70.965,37.488,71.832z"/>
<path fill="#5A3F2B" d="M37.488,71.832c-1.95,1.281-3.9,2.561-5.85,3.842c-2.216-1.27-4.433-2.539-6.65-3.812c-0.475-0.464-0.949-0.931-1.425-1.395c0.469-0.474,0.937-0.943,1.405-1.416c0.02-1.139,0.038-2.28,0.057-3.418c0.141-0.62,0.279-1.236,0.419-1.853c0.948-0.925,2.08-1.315,3.395-1.169c0.569,0.271,1.14,0.543,1.709,0.815c1.132,0.561,2.186,1.244,3.142,2.071c1.471,2.033,2.057,4.597,3.856,6.437L37.488,71.832z"/>
<path fill="#5A3F2B" d="M25.013,75.034c-1.059,0.009-2.118,0.019-3.177,0.03c0.023-1.086,0.047-2.176,0.07-3.259c0.002,0-0.178,0.098-0.178,0.098c1.122-1.245,2.232-1.233,3.333,0.03l-0.072-0.07C24.996,72.918,25.003,73.978,25.013,75.034z"/>
<path fill="#422D1E" d="M44.251,74.475c-0.177-0.839-0.339-1.685-0.485-2.533c1.035,1.022,2.068,2.045,3.102,3.07C45.992,74.854,45.119,74.676,44.251,74.475z"/>
<path fill="#422D1E" d="M24.912,40.259c3.131,0.012,6.264,0.024,9.395,0.037c1.554,1.272,1.686,2.68,0.397,4.224c-2.422,0.775-4.751,1.782-7.12,2.701c-3.023-0.317-4.515-1.962-4.378-5.029C23.774,41.546,24.343,40.903,24.912,40.259z"/>
<path fill="#633F24" d="M43.564,34.189c1.188,0.067,2.377,0.134,3.566,0.201c0.616,0.412,1.234,0.824,1.851,1.236c0.523,1.446,0.445,2.85-0.32,4.196c-1.708,1.667-3.735,2.152-6.032,1.621c-1.39-0.427-2.748-0.943-4.063-1.565c-0.384-0.613-0.771-1.23-1.155-1.847c0.085-2.212,0.172-4.425,0.261-6.637c1.053,0.018,2.103,0.037,3.154,0.055C41.736,32.361,42.649,33.276,43.564,34.189z"/>
<path fill="#795334" d="M18.482,31.671c1.944-0.266,3.886-0.531,5.826-0.8c-0.003,0,1.17,0.65,1.17,0.65c1.208,0.638,1.572,1.181,1.097,1.633c-0.418,0.4-0.864,0.604-1.349,0.604c-0.083,1.264-0.167,2.527-0.253,3.791c-0.421,0.452-0.844,0.906-1.265,1.361c-1.263,0.482-2.337,0.184-3.244-0.793c-0.269-1.218-0.755-2.347-1.433-3.394C18.844,33.706,18.66,32.69,18.482,31.671z"/>
<path fill="#452915" d="M25.226,33.758c0.047-0.75,0.131-1.495,0.25-2.237c1.998-0.098,3.992-0.195,5.989-0.293C29.387,32.071,27.307,32.916,25.226,33.758z"/>
<path fill="#422D1E" d="M34.394,42.849c-0.019-0.86-0.047-1.718-0.087-2.563c1.035-0.748,2.071-1.501,3.104-2.255l0.011,1.331c0.564,0.378,1.13,0.76,1.695,1.138c0.118,1.453-0.415,2.569-1.703,3.292l0.233-0.131C36.014,45.584,34.929,45.315,34.394,42.849z"/>
<path fill="#646464" d="M21.665,37.741c1.103-0.064,2.207-0.128,3.31-0.192c0.007,0.906-0.012,1.813-0.064,2.713c0.001-0.003,0.148,0.4,0.148,0.4C21.747,42.221,21.025,40.771,21.665,37.741z"/>
<path fill="#452915" d="M47.13,34.39c0.9-2.136,1.802-4.27,2.704-6.405l0.358,0.28c1.505-1.498,2.902-1.403,4.193,0.287c0.259,1.736,0.746,3.399,1.466,5.002c-0.125,1.892-1.018,3.29-2.681,4.196c-3.159,0.726-4.944-1.022-6.317-3.507L47.13,34.39z"/>
<path fill="#555555" d="M43.564,34.189c-0.914-0.916-1.828-1.831-2.741-2.744C41.738,32.361,42.65,33.273,43.564,34.189z"/>
<path fill="#633F24" d="M53.298,28.159c-1.035,0.046-2.071,0.082-3.105,0.106c-0.124-1.062-0.247-2.124-0.371-3.186c2.148-0.021,4.297-0.043,6.445-0.064c0.048,0.803,0.081,1.605,0.1,2.408c0.001,0-0.219,1.4-0.219,1.4c-0.628,0.549-1.257,1.102-1.888,1.651C53.94,29.702,53.618,28.931,53.298,28.159z"/>
<path fill="#5A3F2B" d="M21.822,62.328c-0.187-1.928-0.371-3.854-0.557-5.782c0.038-0.739,0.075-1.478,0.111-2.213c0.954-1.193,2.196-1.831,3.719-1.904c1.416,0.501,2.414,1.462,3.045,2.813c0.333,1.38,0.739,2.75,1.226,4.084c0.198,1.443-0.142,2.749-1.021,3.915c-1.195,0.732-2.338,1.544-3.419,2.441l0.099-0.049C23.958,64.533,22.89,63.431,21.822,62.328z"/>
<path fill="#5A3F2B" d="M15.708,65.723c-0.026-2.109-0.052-4.221-0.078-6.33c1.036,0.995,2.072,1.993,3.108,2.991c-0.101,1.235-0.2,2.475-0.301,3.717C17.531,65.936,16.622,65.811,15.708,65.723z"/>
<path fill="#886344" d="M25.06,71.933c-1.111-0.009-2.222-0.019-3.333-0.03c1.08-0.949,2.161-1.901,3.241-2.851C24.991,70.013,25.022,70.975,25.06,71.933z"/>
<path fill="#7F5533" d="M68.781,34.387c2.193,0.095,4.384,0.189,6.577,0.287c0.803,0.793,0.993,1.477,0.573,2.051c-0.378,0.516-0.74,0.775-1.089,0.775l0.134-0.247c-2.049,1.153-4.099,2.307-6.146,3.463c-0.554,0.568-1.107,1.136-1.663,1.703c-0.771-0.192-1.544-0.385-2.316-0.577c-0.7-0.381-1.399-0.763-2.101-1.145c-1.47-0.793-2.476-1.975-3.021-3.552c0.006-1.758,0.795-3.03,2.365-3.821C64.461,32.809,66.822,32.327,68.781,34.387z"/>
<path fill="#5D432E" d="M71.713,52.725c-0.963-1.962-1.926-3.922-2.888-5.884c0.248-0.464,0.495-0.931,0.743-1.395c0.526,0.003,1.053,0.006,1.579,0.009c0.233,0.473,0.467,0.943,0.7,1.416C71.804,48.822,71.759,50.775,71.713,52.725z"/>
<path fill="#2D1F15" d="M68.829,40.716c1.06,1.102,2.12,2.207,3.181,3.312c-0.488,0.381-0.977,0.763-1.465,1.145c-0.614-0.089-1.228-0.174-1.841-0.263c-0.453-0.424-0.906-0.849-1.358-1.27c-0.21-1.321,0.225-2.341,1.41-3.009L68.829,40.716z"/>
<path fill="#2D1F15" d="M74.995,56.397c-1.019,0-2.038,0.033-3.056,0.106c0.076-0.974,0.174-1.944,0.291-2.908c0.931-0.168,1.86-0.333,2.791-0.488C75.014,54.205,75.005,55.301,74.995,56.397z"/>
<path fill="#5D432E" d="M72.01,44.028c0.049,0.955-0.005,1.901-0.162,2.844l0.041,0.018c-0.743-0.521-1.486-1.043-2.229-1.565c0.745-0.519,1.488-1.038,2.232-1.56L72.01,44.028z"/>
<path fill="#363636" d="M81.318,46.89c1.015,0.006,2.03,0.019,3.046,0.04c-0.016,1.053-0.031,2.103-0.045,3.155c-1.106,1.321-2.125,1.327-3.049-0.198C81.28,48.889,81.294,47.891,81.318,46.89z"/>
<path fill="#2D1F15" d="M77.594,52.999c-0.876,0.049-1.752,0.098-2.627,0.146C75.833,52.939,76.711,52.89,77.594,52.999z"/>
<path fill="#2D1F15" d="M81.27,49.887c1.018,0.07,2.034,0.134,3.051,0.195c-0.002,0.003,0.03-0.055,0.03-0.055c0.943,0.714,1.24,1.403,0.893,2.068c-0.34,0.653-0.676,0.983-1.007,0.983c0,0,0.144-0.019,0.144-0.021c-0.992,0-1.982-0.037-2.97-0.116C81.339,51.922,81.291,50.907,81.27,49.887z"/>
<path fill="#633F24" d="M68.781,34.387c-2.092,0-4.184,0-6.275,0.003c-0.786,1.215-1.028,2.518-0.637,3.925c-0.095,0.692-0.189,1.385-0.287,2.078c-1.081,0.949-2.33,1.495-3.773,1.578c-2.728-0.284-5.89,0.214-6.599-3.683c0.364-1.392,1.015-2.637,1.91-3.757c0.104-1.212,0.209-2.426,0.313-3.638c0.879-1.135,1.73-1.059,2.561,0.055c4.264,0.107,8.525,0.211,12.788,0.314C68.777,32.303,68.777,33.347,68.781,34.387z"/>
<path fill="#3D2B1D" d="M74.842,37.5c0.137-0.952,0.308-1.895,0.512-2.829c0.977-0.113,1.936-0.04,2.88,0.223c-0.02,0.848-0.033,1.693-0.038,2.539C77.078,37.454,75.96,37.475,74.842,37.5z"/>
<path fill="#4C3625" d="M84.237,53.079c0.052-1.017,0.09-2.036,0.116-3.052c1.066,1.043,2.133,2.087,3.201,3.131C86.448,53.131,85.343,53.107,84.237,53.079z"/>
<path fill="#5F432E" d="M21.665,37.741c1.13,0.973,2.261,1.947,3.394,2.92c1.039,1.047,2.08,2.094,3.12,3.14c0.411,0.342,0.823,0.687,1.235,1.029c0.279,1.053,0.337,2.115,0.178,3.191c0.29,1.615,1.161,3.083,1.163,4.771c-0.544,0.998-1.248,1.855-2.141,2.561c-2.013,0.888-4.438-1.614-6.262,0.769c0,0-1.079,0.422-1.082,0.422c-0.929-0.132-1.854-0.257-2.78-0.373c-0.823-0.845-1.297-1.855-1.424-3.027c-0.221-1.141-0.188-2.271,0.141-3.391c0.326-1.113,0.859-2.117,1.593-3.015l-0.095,0.308c0.771-0.595,1.056-1.218,0.856-1.877c-0.204-0.674-0.424-1.01-0.664-1.01c-0.064-1.199-0.128-2.396-0.192-3.595c-0.638-0.549-1.274-1.099-1.912-1.645c0.674-0.503,1.349-1.007,2.023-1.51l-0.165,0.158c1.054-1.346,2.121-1.288,3.197-0.027L21.665,37.741z"/>
<path fill="#646464" d="M18.709,53.275c-0.063,0.967-0.136,1.932-0.22,2.896c-1.001-0.128-1.995-0.293-2.982-0.506c0.063-0.709,0.113-1.41,0.154-2.115C16.536,51.905,17.545,51.73,18.709,53.275z"/>
<path fill="#5A3F2B" d="M18.709,53.275c-1.022,0.027-2.037,0.115-3.047,0.271c-1.022-0.156-2.049-0.266-3.081-0.323c0.068-1.142,0.136-2.283,0.206-3.431c0.958,0.082,1.915,0.155,2.872,0.22c0.691-1.007,1.572-1.218,2.641-0.632C18.436,50.68,18.572,51.977,18.709,53.275z"/>
<path fill="#9E6B42" d="M55.993,30.948l-1.282,0.04l-1.28-0.095c-0.125-0.906-0.169-1.819-0.134-2.734c0.972,0.131,1.923,0.351,2.852,0.662C56.107,29.532,56.055,30.24,55.993,30.948z"/>
<path fill="#886344" d="M18.816,37.409c-0.037,1.053-0.071,2.108-0.11,3.158c-1.025,0.021-2.051,0.037-3.076,0.037c-0.508-0.519-1.016-1.038-1.527-1.556c0.533-0.491,1.07-0.983,1.607-1.474c0,0-0.014,0.006-0.012,0.006C16.738,37.524,17.777,37.466,18.816,37.409z"/>
<path fill="#886344" d="M21.848,37.539c-1.065,0.009-2.132,0.019-3.197,0.027c0.101-0.955,0.227-1.904,0.378-2.847C19.97,35.662,20.91,36.599,21.848,37.539z"/>
<path fill="#886344" d="M15.63,40.603c-0.97,0.913-1.941,1.825-2.911,2.731c-0.031-0.87-0.042-1.736-0.032-2.603c0.978-1.526,1.978-1.541,3.001-0.043L15.63,40.603z"/>
<path fill="#5A3F2B" d="M15.688,40.689c-1.004-0.012-2.008,0.003-3.006,0.043c-0.065-1.071-0.134-2.143-0.205-3.217c1.076,0.019,2.153,0.037,3.23,0.058C15.683,38.611,15.676,39.648,15.688,40.689z"/>
<path fill="#422D1E" d="M18.3,49.38c-0.876,0.235-1.756,0.442-2.641,0.632c1.046-1.093,2.092-2.182,3.14-3.271C18.61,47.617,18.444,48.495,18.3,49.38z"/>
<path fill="#422D1E" d="M18.897,44.159c-0.101,0.958-0.167,1.92-0.194,2.884C18.761,46.081,18.825,45.12,18.897,44.159z"/>
<path fill="#4C3625" d="M56.891,49.926c-0.21,1.071-0.419,2.143-0.63,3.214l0.009-0.003c-1.047,1.443-2.092,1.443-3.136,0l0.032,0.104c-1.723-1.425-4.221-2.084-4.702-4.742c-0.257-1.633,0.216-3.009,1.419-4.138c2.67-0.931,4.433,0.461,6.004,2.341l1.145,0.854l0.667,1.23L56.891,49.926z"/>
<path fill="#2D1F15" d="M56.891,49.926c-0.021-0.796,0.024-1.586,0.139-2.371c0.777,0.821,1.551,1.643,2.326,2.463C58.534,49.985,57.712,49.954,56.891,49.926z"/>
<path fill="#3D2B1D" d="M53.134,53.137c1.043,0,2.086,0,3.132,0c-0.002,1.044-0.005,2.084-0.011,3.125c-1.044,0-2.08,0-3.114,0C53.141,55.221,53.137,54.178,53.134,53.137z"/>
<path fill="#9E6B42" d="M53.06,37.595c2.143,1.041,4.286,2.078,6.429,3.119c0.939,0.766,1.205,1.459,0.799,2.082c-0.381,0.586-0.752,0.879-1.116,0.879c-0.832,0.189-1.662,0.391-2.49,0.601c-2.452,1.291-4.332,0.104-6.136-1.419c-0.54-1.514-0.407-2.963,0.396-4.352C51.647,38.202,52.353,37.897,53.06,37.595z"/>
<path fill="#7F5533" d="M52.816,40.39c1.288,1.294,2.577,2.588,3.865,3.885c-0.214,0.824-0.478,1.636-0.791,2.426c-1.77,0.281-3.537,0.564-5.304,0.845c-1.48-0.769-2.618-1.886-3.415-3.351c-0.371-1.712,0.061-3.189,1.296-4.432C50.076,38.864,51.526,39.072,52.816,40.39z"/>
<path fill="#5D432E" d="M65.752,43.872c-1.082-0.04-2.164-0.076-3.247-0.116c-0.742-0.693-1.042-1.438-0.905-2.225c0.142-0.815,0.32-1.221,0.536-1.221c1.243-0.702,2.448-0.644,3.616,0.183l-0.115,0.141c0.514,0.521,1.024,1.043,1.54,1.565C66.704,42.758,66.228,43.313,65.752,43.872z"/>
<path fill="#452915" d="M62.227,40.866c0.11,0.961,0.203,1.925,0.279,2.893c-1.112-0.031-2.223-0.058-3.334-0.085c0.132-0.986,0.236-1.972,0.316-2.96l-0.043,0.095c0.535-1.044,1.373-1.593,2.562-1.572C62.079,39.78,62.153,40.323,62.227,40.866z"/>
<path fill="#444444" d="M68.826,46.841c-1.025-0.992-2.051-1.983-3.075-2.972c0.002,0.003-0.113-0.104-0.113-0.104c1.041-1.434,2.08-1.431,3.116,0.006l0.014-0.012c1.041,0.699,1.384,1.395,1.035,2.09c-0.347,0.696-0.694,1.041-1.046,1.041L68.826,46.841z"/>
<path fill="#452F20" d="M49.707,49.86c1.153,1.126,2.306,2.252,3.459,3.378c-2.249,0.064-4.498,0.125-6.749,0.187c-1.777,1.416-3.558,1.801-5.347,0.018c2.063-1.251,4.125-2.499,6.186-3.75C48.192,48.035,49.002,48.175,49.707,49.86z"/>
<path fill="#6F5037" d="M27.938,53.418c0.061-1.215,0.124-2.433,0.185-3.647c-0.78-0.689-1.036-1.376-0.769-2.057c0.265-0.681,0.528-1.02,0.792-1.02l-0.172,0.141c0.688-0.495,1.377-0.989,2.066-1.483c0.536,0.659,1.071,1.315,1.606,1.972c0.91,1.956,1.819,3.909,2.729,5.862c-1.143,0.998-2.179,2.103-3.255,3.168l0.127-0.223c-0.869,1.221-1.95,1.452-3.243,0.695c-0.689-0.741-0.929-1.495-0.719-2.258C27.496,53.802,27.713,53.418,27.938,53.418z"/>
<path fill="#8D6240" d="M49.707,49.86c-0.821-0.01-1.639-0.067-2.452-0.168c-2.202-1.99-4.404-3.979-6.607-5.969c0.217-0.617,0.433-1.23,0.65-1.846c1.705-1.242,3.618-1.236,5.582-0.94c1.102,0.699,2.115,1.511,3.039,2.436c0.22,1.389,0.44,2.777,0.665,4.172C50.304,48.322,50.009,49.093,49.707,49.86z"/>
<path fill="#805C3F" d="M31.645,47.324c-1.224-0.162-2.447-0.327-3.671-0.488c0.067-1.01,0.136-2.023,0.204-3.034c2.072-0.314,4.143-0.631,6.215-0.949c1.083,0.265,2.168,0.537,3.253,0.809C35.646,44.882,33.646,46.103,31.645,47.324z"/>
<path fill="#6F5037" d="M37.546,71.936c-2.084-2.151-4.167-4.306-6.251-6.457c0.603-1.127,1.535-1.588,2.795-1.389c1.198,0.07,2.244,0.503,3.14,1.303C37.335,67.575,37.441,69.754,37.546,71.936z"/>
<path fill="#886344" d="M41.071,53.442c1.782-0.006,3.564-0.012,5.347-0.018c-0.753,2.114-1.507,4.232-2.261,6.351l0.008-0.009C43.132,57.657,42.102,55.551,41.071,53.442z"/>
<path fill="#422D1E" d="M31.119,56.354c1.085-1.057,2.17-2.112,3.255-3.168C33.289,54.242,32.204,55.297,31.119,56.354z"/>
<path fill="#9E6B42" d="M37.413,43.792c0.03-1.043,0.061-2.087,0.093-3.131c1.108-1.315,2.43-1.52,3.938-0.766c0.716,1.532,0.453,2.826-0.941,3.842l0.145-0.015C39.57,43.747,38.492,43.768,37.413,43.792z"/>
<path fill="#422D1E" d="M28.104,56.292c1.048-0.052,2.095-0.104,3.144-0.158c0,1.113,0.003,2.23,0.004,3.351c-1.176,1.449-2.225,1.435-3.129-0.271l0.163,0.305c-0.651-0.814-1.196-1.696-1.633-2.648C27.135,56.677,27.62,56.485,28.104,56.292z"/>
<path fill="#886344" d="M28.122,59.213c1.043,0.088,2.086,0.177,3.129,0.269c0.061,1.053,0.122,2.103,0.185,3.149c0,0-0.916,1.267-0.914,1.27c-0.52,0.006-1.042,0.009-1.564,0.012c-0.319-0.408-0.639-0.82-0.959-1.232C28.04,61.524,28.081,60.369,28.122,59.213z"/>
<path fill="#422D1E" d="M44.156,59.775l0.006-0.009C44.164,59.766,44.156,59.775,44.156,59.775z"/>
<path fill="#886344" d="M37.23,65.393c-0.99,0.079-1.98,0.155-2.969,0.229c-0.699-0.573-1.398-1.147-2.097-1.724c0.781-0.458,1.561-0.916,2.342-1.37C35.414,63.483,36.323,64.438,37.23,65.393z"/>
<path fill="#6F5037" d="M43.808,68.719l-0.088,0.086C43.72,68.808,43.808,68.719,43.808,68.719z"/>
<path fill="#422D1E" d="M34.507,62.528c-0.081,1.031-0.162,2.063-0.246,3.094c-0.99-0.024-1.978-0.073-2.965-0.14c-0.001-0.003,0.087,0.134,0.087,0.134c-0.769-0.476-1.54-0.952-2.309-1.428c0.684-0.593,1.369-1.185,2.054-1.776c0,0,0.305,0.22,0.307,0.22C32.459,62.601,33.483,62.564,34.507,62.528z"/>
<path fill="#422D1E" d="M24.926,65.683c1.024-1.001,2.049-2.002,3.073-3.003l0.273-0.269c0.967,0.763,1.268,1.492,0.903,2.194c-0.355,0.687-0.705,1.031-1.048,1.031C27.06,65.653,25.992,65.667,24.926,65.683z"/>
<path fill="#6F5037" d="M28.127,65.637c0.047-1.074,0.093-2.146,0.142-3.223c0.957,0.027,1.912,0.03,2.862,0c0.08,1.065,0.162,2.133,0.249,3.201C30.298,65.621,29.213,65.631,28.127,65.637z"/>
<path fill="#784F2F" d="M40.503,43.738c0.037-1.138,0.072-2.273,0.108-3.412c-1.002-0.543-1.366-1.135-1.096-1.776c0.281-0.666,0.575-0.998,0.887-0.998c2.205-0.04,4.411-0.079,6.616-0.119c0.519,0.104,1.039,0.207,1.56,0.311c0.496,0.989,0.527,1.984,0.022,2.979c-0.117,1.077-0.583,1.987-1.346,2.75C45.005,43.561,42.754,43.649,40.503,43.738z"/>
<path fill="#9E6B42" d="M53.119,34.531c-0.003,1.022-0.021,2.042-0.059,3.061c-0.001,0.003,0.188-0.183,0.188-0.183c-2.137,2.023-4.245,2.282-6.314-0.095c0,0,0.076,0.122,0.079,0.119c-0.05-1.063-0.104-2.121-0.16-3.187C48.943,34.338,51.031,34.436,53.119,34.531z"/>
<path fill="#452915" d="M40.403,37.552c0.06,0.925,0.129,1.85,0.209,2.774c-1.035,0.113-2.071,0.226-3.105,0.336c0,0-0.082-1.331-0.083-1.315C38.414,38.757,39.409,38.153,40.403,37.552z"/>
<path fill="#422D1E" d="M27.938,53.418c0.067,0.958,0.122,1.916,0.166,2.874l0.159-0.171c-0.768,1.367-1.708,1.499-2.821,0.4c-1.03-0.15-2.062-0.281-3.093-0.397C24.213,55.221,26.076,54.321,27.938,53.418z"/>
<path fill="#886344" d="M25.441,56.522c0.938-0.135,1.88-0.266,2.82-0.397c0.009,1.13,0.019,2.262,0.026,3.394C27.338,58.52,26.389,57.52,25.441,56.522z"/>
<path fill="#4C3625" d="M68.753,43.771c-1.039-0.009-2.076-0.009-3.116-0.006c0-1.041,0-2.084,0-3.128c1.043,0,2.083,0,3.122-0.003C68.756,41.678,68.755,42.724,68.753,43.771z"/>
<path fill="#633F24" d="M65.752,40.493c-1.174,0.122-2.347,0.247-3.522,0.373c-0.003,0,0.241-0.302,0.241-0.302c-0.503-0.503-1.005-1.01-1.507-1.514c0.457-0.546,0.917-1.089,1.376-1.636C63.477,38.44,64.616,39.465,65.752,40.493z"/>
<path fill="#452915" d="M59.456,37.686c1.016-1.099,2.032-2.197,3.049-3.296c-0.031,1.007-0.084,2.018-0.163,3.024c-0.002,0,0.106-0.015,0.106-0.015C61.588,38.922,60.584,38.95,59.456,37.686z"/>
<path fill="#3D2B1D" d="M68.756,46.89c0.002-1.041,0.005-2.084,0.01-3.131c1.042,0.003,2.081,0.003,3.125,0.006c-0.004,1.041-0.005,2.082-0.002,3.122C70.845,46.89,69.8,46.89,68.756,46.89z"/>
<path fill="#6F6F6F" d="M59.456,37.686c0.998-0.106,1.997-0.198,2.993-0.284c0.007,1.053,0.016,2.112,0.023,3.165c-1.014,0.055-2.021,0.138-3.027,0.241C59.44,39.767,59.443,38.727,59.456,37.686z"/>
<path fill="#886344" d="M28.145,46.695c-0.012,1.025-0.02,2.051-0.023,3.076C28.13,48.745,28.138,47.72,28.145,46.695z"/>
<path fill="#633F24" d="M46.935,37.314c2.104,0.03,4.208,0.064,6.314,0.095C53.142,38.41,53,39.405,52.82,40.393c-0.938,0.11-1.876,0.192-2.814,0.244c-0.971,1.456-1.985,1.419-3.038,0.092C46.958,39.59,46.946,38.452,46.935,37.314z"/>
<path fill="#452915" d="M46.969,40.729c1.011-0.04,2.025-0.07,3.038-0.092c-0.015,0.913-0.044,1.825-0.088,2.737c-0.889,0.07-1.778,0.107-2.666,0.098C47.007,42.572,46.912,41.66,46.969,40.729z"/>
</svg>