<?xml version="1.0" encoding="utf-8"?>
<!DOCTYPE svg PUBLIC "-//W3C//DTD SVG 1.1//EN" "http://www.w3.org/Graphics/SVG/1.1/DTD/svg11.dtd">
<svg version="1.1" xmlns="http://www.w3.org/2000/svg" xmlns:xlink="http://www.w3.org/1999/xlink" x="0px" y="0px" width="100px" height="100px" viewBox="0 0 100 100" enable-background="new 0 0 100 100" xml:space="preserve">
<path fill="#747374" d="M91.211,76.569c-11.374,5.49-22.747,10.979-34.121,16.47c-8.136-3.586-7.462-10.632-6.952-17.62c0.63-3.217,2.05-6.033,4.405-8.325c5.946-5.771,20.323-4.462,15.938-18.982c0.118-1.486,0.556-2.856,1.282-4.147c4.095-4.535,8.72-8.243,14.858-9.61c2.49-0.037,4.169,1.538,5.908,2.994c0.1,2.417,0.198,4.831,0.296,7.248c-5.049,2.609-2.721,6.076-1.088,9.458c1.261,2.185,0.327,5.063,2.231,7.043c0,4.242-0.002,8.484-0.002,12.723C93.107,74.796,92.186,75.708,91.211,76.569z"/>
<path fill="#413D3C" d="M40.836,91.953c-8.244-4.166-16.49-8.328-24.734-12.491c-1.147-0.778-2.228-1.636-3.242-2.582c-0.968-0.293-1.941-0.57-2.921-0.823c-0.679-0.788-0.961-1.611-0.848-2.479c0.114-0.885,0.269-1.327,0.461-1.337c0.455-1.382,1.103-2.657,1.889-3.881c0.427-0.602,0.877-1.172,1.306-1.773c4.422-5.417,10.036-6.263,16.402-4.291c3.027,1.129,5.74,2.762,8.103,4.986C42.447,74.921,47.776,82.551,40.836,91.953z"/>
<path fill="#545252" d="M6.99,42.371c1.924-7.309,3.847-14.618,5.771-21.927c5.211-1.779,8.59,1.667,12.262,4.272c0.793,0.854,1.356,1.88,1.919,2.905c-0.299-1.819-0.786-3.625-0.244-5.499c0.554-1.315,1.44-2.338,2.617-3.131c2.816-1.166,5.551-1.083,8.198,0.495c1.767,1.404,2.779,3.271,3.348,5.414c0.344,1.392,0.531,2.808,0.637,4.236c0.136,1.413,0.159,2.835,0.148,4.257c0.056,1.422-0.016,2.841-0.116,4.263c-0.246,2.887-0.764,5.688-2.693,8.014c-3.648,2.188-6.913,0.504-10.205-0.992c-1.253-0.692-2.413-1.529-3.516-2.444c-1.117-0.897-2.148-1.886-3.151-2.887C15.082,30.991,12.439,43.699,6.99,42.371z"/>
<path fill="#929292" d="M37.41,27.964c0.108-1.959,0.216-3.921,0.325-5.881c-0.534-1.117-0.399-2.124,0.457-2.978c0.946-0.742,1.114-1.66,0.536-2.777c-0.42-0.812-0.696-1.245-0.984-1.267c-1.544-2.658,0.05-4.593,1.442-6.58c0.449-1.205,1.079-2.301,1.866-3.305c7.489,0.702,14.978,1.407,22.467,2.108c1.452,1.685,0.608,2.96-0.731,4.142c-0.813,0.314-1.665,0.531-2.612,0.656c0.453,0.836,1.54,1.254,1.511,2.38c0.035,3.33-1.623,6.042-3.03,8.862c-2.278,4.413-4.527,8.859-10.251,9.567c-2.182,0.223-4.28-0.092-6.282-0.998C40.241,30.961,39.711,28.406,37.41,27.964z"/>
<path fill="#747374" d="M6.99,42.371c1.52-4.102,3.04-8.206,5.332-14.389c4.387,3.842,8.728,7.645,13.07,11.444c-3.204,5.548-5.625,11.655-11.139,15.561c-1.534,0.854-3.121,0.961-4.756,0.339C8.661,51.008,7.827,46.69,6.99,42.371z"/>
<path fill="#7E7E7E" d="M66.158,8.21c6.3,3.262,12.601,6.525,18.9,9.787c3.472,8.709-3.088,10.724-8.841,13.284c-1.538,0.159-3.024-0.08-4.433-0.732c-3.613-3.735-6.582-7.956-9.104-12.372C61.777,14.036,63.972,11.125,66.158,8.21z"/>
<path fill="#413D3C" d="M75.517,30c3.182-4.001,6.361-8.002,9.541-12.002c2.985,1.465,5.968,2.927,9.775,4.791c-0.799,4.987-1.565,9.784-2.319,14.572c-2.683-0.534-5.379-1.053-8.077-1.575C79.39,37.055,75.215,36.976,75.517,30z"/>
<path fill="#545252" d="M53.647,73.752c1.147,6.431,2.295,12.857,3.442,19.287c-4.294-0.183-8.589-0.366-12.883-0.549c0.614-7.828-2.655-15.939,1.706-23.499C52.309,64.359,51.718,71.104,53.647,73.752z"/>
<path fill="#A6A6A7" d="M66.158,8.21c1.929,7.038,3.857,14.075,5.787,21.115c-0.862,1.352-2.043,2.279-3.593,2.728c-7.456,0.027-11.851-3.22-11.886-11.124c1.13-3.238,2.259-6.479,3.387-9.717l0.007-0.006c1.22-1.306,2.438-2.616,3.658-3.922C64.38,7.643,65.26,7.951,66.158,8.21z"/>
<path fill="#929292" d="M47.103,67.637c-0.966,8.285-1.932,16.567-2.896,24.854c-1.123-0.181-2.248-0.36-3.371-0.537c-2.235-7.867-4.472-15.735-6.708-23.603c0.292-1.294,1.061-2.167,2.302-2.631c3.148-0.695,6.208-0.24,9.232,0.721C46.146,66.831,46.623,67.233,47.103,67.637z"/>
<path fill="#A6A6A7" d="M9.497,55.326c1.946-0.995,3.891-1.99,5.836-2.981c9.723-5.683,10.744,3.524,14.33,8.361c0.337,1.749-0.061,3.32-1.181,4.706c-5.214,1.782-10.429,3.562-15.643,5.344c-4.303-4.063-2.345-9.598-3.404-14.426L9.497,55.326z"/>
<path fill="#A6A6A7" d="M41.048,9.135c-0.989,1.764-1.976,3.528-2.963,5.292c1.761,2.082,1.738,4.135-0.102,6.159c0,0-0.255,1.471-0.252,1.486c-2.899,0.009-5.801,0.003-8.705,0c-5.774,0.556-9.367-0.805-6.714-7.647c0.668-0.503,1.384-0.586,2.148-0.244c1.694-0.567,3.023-1.645,4.16-2.988c2.853-1.083,5.705-2.167,8.559-3.253C39.014,6.568,40.305,6.965,41.048,9.135z"/>
<path fill="#747374" d="M22.312,14.423c2.237,2.545,4.474,5.093,6.712,7.645c0.001,0.003-0.271,0.021-0.271,0.021c-1.03,1.743-1.113,4.175-3.56,4.886c-4.143-2.176-8.287-4.355-12.431-6.531C15.944,18.437,19.129,16.432,22.312,14.423z"/>
<path fill="#545252" d="M9.435,56.33c1.135,4.81,2.271,9.616,3.406,14.426c-0.001,0,0.226-0.175,0.226-0.175c-1.424,1.114-2.478,2.521-3.285,4.126l0.157,1.35C9.771,69.48,9.603,62.906,9.435,56.33z"/>
<path fill="#545252" d="M90.945,54.978c-1.875-0.958-3.75-1.916-7.16-3.662c3.958-2.979,6.466-4.867,9.009-6.738c0.354,3.485,0.676,6.955,0.999,10.424C92.832,56.531,91.882,56.452,90.945,54.978z"/>
<path fill="#413D3C" d="M90.945,54.978c0.949-0.033,1.898-0.027,2.848,0.024c0.058,2.033,0.116,4.063,0.176,6.095C92.96,59.059,91.953,57.02,90.945,54.978z"/>
<path fill="#747374" d="M41.048,9.135c-1.29-0.4-2.581-0.796-3.87-1.196c1.291-0.918,2.582-1.84,3.873-2.762C41.049,6.495,41.049,7.814,41.048,9.135z"/>
<path fill="#747374" d="M28.62,11.191c-1.387,0.995-2.772,1.99-4.16,2.988C25.845,13.181,27.233,12.187,28.62,11.191z"/>
<path fill="#413D3C" d="M91.211,76.569c0.919-0.916,1.838-1.834,2.756-2.75C93.048,74.735,92.13,75.653,91.211,76.569z"/>
<path fill="#545252" d="M12.859,76.88c1.08,0.861,2.161,1.722,3.242,2.582C15.02,78.602,13.939,77.741,12.859,76.88z"/>
<path fill="#545252" d="M69.273,30.024c0.875-0.296,1.766-0.528,2.674-0.696c1.188,0.223,2.38,0.445,3.57,0.671c2.977,1.932,5.954,3.863,8.925,5.792c-4.045,3.275-8.084,6.552-12.124,9.833c-0.58-0.742-1.326-1.16-2.354-1.267c0.271,1.636,2.035,0.024,2.431,1.163c2.2,2.97,4.4,5.936,8.06,10.87c-7.757,3.669-15.649,7.404-23.542,11.14c-7.395,0.934-6.188-5.061-6.752-8.973c-0.656-4.553-0.171-9.326-6.104-10.729c-4.571-2.094-3.74-5.335-1.898-8.798C49.687,31.501,60.103,32.639,69.273,30.024z"/>
<path fill="#413D3C" d="M44.887,45.64c2.858-0.668,5.717-1.34,7.646-1.792c1.478,7.996,2.927,15.838,4.378,23.678c-1.088,2.075-2.176,4.15-3.264,6.223c-2.181-2.035-4.361-4.074-6.543-6.112c-0.001,0-0.438,0.431-0.438,0.431c-1.074-1.096-2.06-2.268-2.973-3.51c-2.705-4.959-3.68-10.135-1.947-15.646C42.49,47.535,43.541,46.445,44.887,45.64z"/>
<path fill="#929292" d="M44.531,48.481c0.507,5.078,1.013,10.159,1.52,15.237c-2.422,5.137-8.264,0.019-11.165,3.724c0,0-0.755,0.903-0.757,0.906c-1.884-0.982-3.766-1.965-5.647-2.941c0.187-1.722,0.374-3.452,0.562-5.183c4.321-3.687,7.621-8.334,11.576-12.375C42.058,47.227,43.362,47.441,44.531,48.481z"/>
<path fill="#7E7E7E" d="M9.781,74.707c1.095-1.376,2.189-2.749,3.285-4.126C11.971,71.958,10.877,73.331,9.781,74.707z"/>
<path fill="#413D3C" d="M40.094,48.676c-3.688,3.86-7.376,7.718-11.057,11.563c-4.561-2.643-9.128-5.271-13.699-7.898c0.517-3.43,1.038-6.863,1.704-11.254c2.8-0.559,5.576-1.108,8.35-1.66l0.042-0.037c1.071,1.16,2.35,2.097,3.46,3.213c2.832,1.078,5.664,2.155,8.496,3.232C38.941,46.164,39.842,47.11,40.094,48.676z"/>
<path fill="#7E7E7E" d="M69.273,30.024c-8.435,2.808-16.871,5.615-25.306,8.42c-2.373,0.378-4.193-0.595-5.702-2.332c-0.289-0.864-0.479-1.749-0.575-2.655c2.539-3.778,7.464-0.442,10.263-3.445c2.839-3.03,5.679-6.058,8.516-9.085C60.736,23.963,65.004,26.994,69.273,30.024z"/>
<path fill="#747374" d="M38.265,36.112c1.903,0.784,3.807,1.565,5.707,2.34c0.298,2.39,0.601,4.789,0.91,7.187c-0.046,0.958-0.165,1.904-0.351,2.841c-1.473,0.064-2.946,0.132-4.428,0.198c-0.905-0.952-1.804-1.9-2.707-2.847C37.682,42.594,37.973,39.353,38.265,36.112z"/>
<path fill="#A6A6A7" d="M47.953,30.012c-3.42,1.147-6.841,2.295-10.262,3.442c-0.11-1.804-0.218-3.607-0.327-5.414c1.019,0.244,1.983,0.629,2.899,1.135C42.827,29.453,45.389,29.734,47.953,30.012z"/>
<path fill="#A6A6A7" d="M25.192,26.975c1.188-1.626,2.376-3.25,3.562-4.88c0.165,1.782,0.33,3.568,0.566,6.119C27.44,27.65,26.317,27.311,25.192,26.975z"/>
<path fill="#747374" d="M40.263,29.175c-0.966-0.378-1.932-0.753-2.899-1.132c0-0.003,0.046-0.077,0.046-0.077C38.361,28.37,39.313,28.773,40.263,29.175z"/>
<path fill="#747374" d="M28.894,42.603c-1.153-1.071-2.307-2.142-3.46-3.213C26.587,40.461,27.741,41.532,28.894,42.603z"/>
<path fill="#7E7E7E" d="M37.983,20.585c0.033-2.054,0.065-4.108,0.101-6.159c3.569,0.498,7.138,0.995,10.706,1.493c0.003,0.982,0.005,1.962,0.008,2.945C45.191,19.438,41.587,20.011,37.983,20.585z"/>
<path fill="#A6A6A7" d="M59.853,11.213c-0.449-0.223-0.897-0.445-1.348-0.671c0.451,0.223,0.903,0.442,1.354,0.666L59.853,11.213z"/>
<path fill="#747374" d="M34.886,67.441c3.728-1.239,7.454-2.479,11.172-3.72c0.2,1.443,0.406,2.893,0.61,4.342C42.74,67.859,38.814,67.649,34.886,67.441z"/>
<path fill="#747374" d="M72.395,45.521c-1.919,2.734-3.839,5.466-5.759,8.2c-0.9-0.309-1.8-0.616-2.702-0.922c1.38-4.959,2.758-9.918,4.137-14.88c1.16,0.216,2.321,0.43,3.48,0.647c0.257,2.353,0.512,4.706,0.767,7.059L72.395,45.521z"/>
</svg>