<?xml version="1.0" encoding="utf-8"?>
<!DOCTYPE svg PUBLIC "-//W3C//DTD SVG 1.1//EN" "http://www.w3.org/Graphics/SVG/1.1/DTD/svg11.dtd">
<svg version="1.1" xmlns="http://www.w3.org/2000/svg" xmlns:xlink="http://www.w3.org/1999/xlink" x="0px" y="0px" width="100px" height="100px" viewBox="0 0 100 100" enable-background="new 0 0 100 100" xml:space="preserve">
<path fill="#413421" d="M76.552,68.311c1.733,10.563,3.469,21.127,5.201,31.689c-20.832,0-41.667,0-62.5,0c0.05-4.221,0.102-8.444,0.153-12.665c2.917-2.944,5.661-6.839,10.119-6.671C46.512,81.299,61.885,76.264,76.552,68.311z"/>
<path fill="#9C814C" d="M76.552,68.311c-0.333,5.618-0.667,11.236-1.128,19.024c-19.264,0-37.64,0-56.018,0c-0.028-22.717-0.07-45.431-0.051-68.146c0.002-1.486,0.492-2.973,1.071-6.247c18.147,0,36.501,0,54.854,0c5.416,8.246,4.199,16.696,0.77,25.211C76.216,48.205,76.384,58.258,76.552,68.311z"/>
<path fill="#695433" d="M76.05,38.153c-0.257-8.405-0.513-16.806-0.77-25.211C86.653,21.008,84.136,29.495,76.05,38.153z"/>
<path d="M25.182,19.409c7.084,0,12.027,0,18.086,0c0.185,3.546,0.354,6.796,0.572,11.008c-5.713,0.326-10.663,0.607-16.563,0.943C26.622,27.627,26.053,24.375,25.182,19.409z"/>
<path d="M68.401,19.916c0,4.019,0,6.924,0,10.553c-5.606,0-10.552,0-16.559,0c-0.357-3.125-0.728-6.384-1.204-10.553C57.169,19.916,62.889,19.916,68.401,19.916z"/>
<path d="M44.205,49.347c-6.992,0-11.934,0-17.697,0c0-3.833,0-7.067,0-11.06c5.44,0,10.385,0,16.396,0C43.268,41.388,43.651,44.635,44.205,49.347z"/>
<path d="M51.208,49.344c0-4.263,0-7.175,0-11.026c5.409-0.308,10.354-0.592,16.654-0.952c0.302,4.153,0.561,7.715,0.871,11.978C62.497,49.344,57.555,49.344,51.208,49.344z"/>
<path fill="#21190B" d="M36.998,61.182c-3.435,0.189-6.87,0.379-10.306,0.564c-0.166-1.221-0.333-2.444-0.5-3.665c3.49-0.497,6.979-0.995,10.468-1.492C36.772,58.121,36.885,59.652,36.998,61.182z"/>
</svg>