<?xml version="1.0" encoding="utf-8"?>
<!DOCTYPE svg PUBLIC "-//W3C//DTD SVG 1.1//EN" "http://www.w3.org/Graphics/SVG/1.1/DTD/svg11.dtd">
<svg version="1.1" xmlns="http://www.w3.org/2000/svg" xmlns:xlink="http://www.w3.org/1999/xlink" x="0px" y="0px" width="100px" height="100px" viewBox="0 0 100 100" enable-background="new 0 0 100 100" xml:space="preserve">
<path fill="#624C29" d="M12.981,50.327c-0.16-2.166-0.322-4.336-0.483-6.506c-0.16-0.662-0.322-1.325-0.484-1.987c-1.244-1.657-2.252-3.409-2.309-5.557c0.195-2.151,1.358-3.809,2.742-5.35l-0.223,0.323c2.545-1.685,2.719-3.699,0.829-5.997c-0.229-2.139-0.456-4.279-0.685-6.418C12.397,11.843,14.591,5.59,18.751,0c2.083,0,4.167,0,6.25,0c1.567,1.605,3.126,3.217,4.057,5.304c0.521,2.146,0.618,4.352,0.826,6.534c0.217,2.121,0.482,4.245,0.815,6.348c0.215,3.857,2.08,6.47,5.856,7.632c3.81,4.275,8.673,7.66,11.196,13.068c0.398,2.502,0.168,4.892-0.991,7.15c-5.162,6.479-14.447,1.783-19.94,7.342c-2.431,0.956-4.944,1.12-7.507,0.827C16.716,53.712,14.763,52.158,12.981,50.327z"/>
<path fill="#846839" d="M18.751,0.001c-2.127,6.277-4.256,12.555-6.383,18.835c-14.581-6.384,0.54-12.555,0.133-18.835C14.584,0.001,16.668,0.001,18.751,0.001z"/>
<path fill="#644F2A" d="M37.557,92.753c-4.186,2.417-8.371,4.831-12.557,7.248c-4.167,0-8.333,0-12.5,0c-0.029-2.063-0.058-4.129-0.087-6.192c0.752-4.178,2.618-7.626,6.415-9.82c2.368-0.925,4.85-1.071,7.352-1.11c4.202,0.186,8.625-0.599,12.057,2.844C39.684,88.231,39.672,90.596,37.557,92.753z"/>
<path fill="#42321B" d="M75,100.001c-0.012-1.962-0.025-3.928-0.038-5.89c0.309-0.739,0.617-1.478,0.925-2.219c1.827-1.834,4.088-2.381,6.589-2.225c2.552,0.461,4.421,1.758,5.266,4.303c-0.08,2.011-0.16,4.02-0.241,6.03C83.333,100.001,79.168,100.001,75,100.001z"/>
<path fill="#AB8752" d="M74.804,6.178C74.869,4.121,74.935,2.061,75,0.001c2.083,0,4.168,0,6.25,0c1.943,2.146,1.871,4.358,0.227,6.628C79.137,8.186,76.903,8.165,74.804,6.178z"/>
<path fill="#69512F" d="M80.161,6.443c0.363-2.148,0.727-4.294,1.089-6.442c2.083,0,4.168,0,6.25,0c0.005,2.09,0.01,4.181,0.015,6.271c-0.338,0.519-0.673,1.038-1.009,1.56c-1.095,0.631-2.27,0.934-3.534,0.848C81.749,8.293,80.826,7.53,80.161,6.443z"/>
<path fill="#69512F" d="M18.128,50.327c1.932-0.088,3.865-0.177,5.797-0.266c2.237,0.007,4.476-0.036,6.718,0.053c4.881,0.128,7.785,4.156,11.867,5.893c7.125,2.188,14.444,1.623,21.717,1.831c6.408,0.354,13.6-0.521,13.936,9.106c-0.447,1.972-1.438,3.595-2.983,4.855c-11.087,6.18-23.463,1.696-35.146,3.852c-3.92,0.723-8.403-0.11-12.318,2.185c-2.501,1.397-5.206,1.578-7.965,1.373c-2.832-0.293-4.875-1.968-6.764-3.915c-0.162-2.182-0.324-4.364-0.487-6.546c0.029-0.65,0.058-1.297,0.087-1.944c0.285-1.932,0.877-3.787,1.442-5.651c0.539-1.871,1.295-3.681,1.602-5.622C15.921,53.538,16.86,51.854,18.128,50.327z"/>
<path fill="#A3804A" d="M17.867,56.11c-0.037,2.161-0.073,4.324-0.111,6.485c-1.256,1.685-2.8,2.917-4.964,3.183c-0.121,0.986-0.218,1.978-0.293,2.97c-5.962-4.099-11.603-8.203-0.186-12.562C14.139,54.38,15.989,54.225,17.867,56.11z"/>
<path fill="#A3804A" d="M12.447,30.928c0.003,3.076,0.006,6.152,0.009,9.229l0.016,0.07c0.009,1.2,0.017,2.396,0.026,3.595C6.325,39.549,1.212,35.27,12.447,30.928z"/>
<path fill="#8D733C" d="M18.532,87.708c-2.04,2.033-4.079,4.065-6.119,6.101c-1.771-2.146-3.543-4.287-5.315-6.43c1.355-1.584,3.006-2.67,5.087-3.043c2.11-0.43,3.987,0.013,5.586,1.493C18.026,86.454,18.279,87.083,18.532,87.708z"/>
<path fill="#A3804A" d="M11.092,87.541c-1.331-0.052-2.663-0.107-3.994-0.162c1.833-2.011,3.666-4.022,5.498-6.036c0.433,0.527,0.867,1.056,1.3,1.584C14.37,85.319,13.244,86.744,11.092,87.541z"/>
<path fill="#8D733C" d="M13.053,25.254c1.053,0.769,2.104,1.541,4.041,2.957c-2.04,1.272-3.456,2.155-4.871,3.04C12.501,29.252,12.777,27.253,13.053,25.254z"/>
<path fill="#AB8752" d="M12.986,75.294c1.706-0.012,3.412-0.024,5.119-0.037c2.55,1.765,2.606,4.008,1.257,6.525c-2.449,1.525-4.735,1.364-6.839-0.659c0,0,0.072,0.217,0.073,0.22C12.727,79.328,12.856,77.312,12.986,75.294z"/>
<path fill="#AB8752" d="M17.867,56.11c-1.851,0.024-3.704,0.052-5.554,0.08c0.223-1.957,0.445-3.91,0.668-5.863c1.717,0,3.432,0,5.147,0C18.041,52.256,17.954,54.182,17.867,56.11z"/>
<path fill="#654D2B" d="M24.898,18.296c0.174-2.194,0.346-4.392,0.52-6.586c3.746-2.869,8.161-2.179,12.417-2.329c4.318-0.009,8.637-0.006,12.955-0.006c9.521,0.141,19.049-0.314,28.564,0.299c4.94,0.983,7.037,4.48,7.971,9.009c0.083,4.221,0.167,8.441,0.249,12.662c-0.473,0.628-0.946,1.26-1.424,1.892c-2.23,1.346-4.524,1.343-6.877,0.342c-3.627-2.176-6.891-4.825-10.186-7.343c-9.406-2.704-19.139-1.092-28.654-1.733C34.042,24.073,28.867,23.5,24.898,18.296z"/>
<path fill="#644E2A" d="M93.256,62.202c-1.921,6.457-3.842,12.912-5.765,19.369c1.874,1.874,2.311,4.025,1.258,6.467c-1.719,2.002-3.995,2.393-6.461,2.249c-1.633-0.247-3.032-0.952-4.202-2.114c-1.98-4.371-5.309-8.061-6.486-12.839c0.091-2.604,1.466-4.56,3.196-6.339L75.594,68c2.869-2.38,1.51-7.309,5.449-9.045c2.179-0.751,4.327-0.434,6.467,0.188C89.726,59.599,91.636,60.627,93.256,62.202z"/>
<path fill="#69512F" d="M93.217,37.211c-1.89,6.381-3.778,12.766-5.666,19.146c-0.535,0.604-1.069,1.209-1.606,1.813c-2.305,1.064-4.7,1.08-7.142,0.625c-3.153-1.327-5.136-4.021-7.433-6.354c-1.34-2.243-1.608-4.62-0.879-7.114c0.344-1.611,1.011-3.085,1.995-4.407c2.375-2.139,4.75-4.285,7.572-5.841c2.281-0.644,4.62-0.666,6.964-0.583C89.436,34.599,91.481,35.548,93.217,37.211z"/>
<path fill="#69512F" d="M87.326,18.684c-2.257-2.249-4.512-4.498-6.769-6.744c0.452-0.51,0.902-1.02,1.354-1.529c1.901-0.916,3.929-0.964,5.977-0.882c2.135,0.184,3.841,1.215,5.329,2.683C91.253,14.369,89.289,16.526,87.326,18.684z"/>
<path fill="#69512F" d="M81.33,87.464c2.211-0.039,4.42-0.082,6.631-0.121c1.709-1.725,3.461-1.752,5.256-0.132c-1.825,2.252-3.65,4.505-5.476,6.76c-2.282-0.177-4.566-0.351-6.85-0.528C79.261,91.321,79.43,89.329,81.33,87.464z"/>
<path fill="#A3804A" d="M93.256,62.202c-1.821,0.073-3.644,0.146-5.466,0.22c-2.208-1.963-2.215-3.943-0.049-5.942l-0.19-0.122C89.452,58.305,91.355,60.255,93.256,62.202z"/>
<path fill="#A3804A" d="M93.217,37.211c-1.784,0.07-3.568,0.141-5.352,0.211c-2.268-1.972-2.319-3.867,0.189-5.677l-0.479-0.402C89.455,33.299,91.337,35.255,93.217,37.211z"/>
<path fill="#A3804A" d="M93.217,12.211c-1.769,0.055-3.537,0.113-5.306,0.168c-2.318-1.91-2.367-3.763,0.147-5.545l-0.544-0.562C89.415,8.25,91.315,10.231,93.217,12.211z"/>
<path fill="#A3804A" d="M93.217,87.211c-1.754,0.043-3.509,0.089-5.259,0.132c-0.154-1.923-0.31-3.846-0.467-5.771C89.4,83.451,91.308,85.331,93.217,87.211z"/>
<path fill="#644F2A" d="M74.714,43.998c-10.316-0.345-20.633-0.687-30.95-1.031c0.015-1.782,0.032-3.562,0.049-5.344c0.325-0.595,0.65-1.187,0.977-1.782c5.318-3.396,12.346,0.772,17.373-3.921c2.339-0.034,4.677-0.067,7.014-0.101c2.148,2.121,5.538,2.414,7.373,4.999c1.009,2.265,0.69,4.358-0.822,6.293L74.714,43.998z"/>
<path fill="#AB8752" d="M25.013,31.538c6.189,0.128,12.378,0.259,18.567,0.387c2.1,1.761,2.08,3.452-0.16,5.072l0.394,0.625C37.546,35.594,31.279,33.567,25.013,31.538z"/>
<path fill="#8D733C" d="M37.685,12.123c-4.089-0.134-8.18-0.271-12.268-0.409c-0.145-1.755-0.29-3.504-0.437-5.255c4.201,0.101,8.402,0.205,12.603,0.305C39.439,8.516,39.428,10.304,37.685,12.123z"/>
<path fill="#AB8752" d="M12.472,40.226c0,0-0.021-0.094-0.019-0.083c1.25-0.231,2.497-0.473-0.101,0.031C14.785,41.233,13.628,40.73,12.472,40.226z"/>
<path fill="#69512F" d="M37.557,92.753c-0.043-1.517-0.085-3.033-0.128-4.55c2.037-5.677,7.028-4.978,11.525-5.341c6.373-0.043,12.75-0.128,19.122,0.092c2.74,0.174,5.388,0.616,7.476,2.643c1.724,2.518,1.823,4.975-0.282,7.346l-0.308,1.169C62.493,93.656,50.025,93.205,37.557,92.753z"/>
<path fill="#A5824C" d="M80.558,11.94c-10.179,0.061-20.358,0.125-30.537,0.189c-1.935-1.798-1.952-3.598-0.011-5.402c8.263-0.183,16.529-0.366,24.794-0.549c1.787,0.088,3.572,0.177,5.357,0.266L81.64,6.12c1.524,2.289,1.549,4.352-0.895,6.049L80.558,11.94z"/>
<path fill="#A3804A" d="M50.01,6.727c0.003,1.804,0.006,3.604,0.009,5.405c-4.11-0.003-8.223-0.003-12.335-0.006c-0.032-1.788-0.067-3.574-0.101-5.362C41.726,6.752,45.867,6.739,50.01,6.727z"/>
<path fill="#957643" d="M50.164,86.942c-4.245,0.418-8.49,0.84-12.735,1.261c-3.914-0.349-7.826-0.696-11.74-1.044c-2.872-2.686-2.539-5.408-0.098-8.133c8.074-5.328,16.271-4.804,24.532-0.428C52.237,81.403,52.41,84.165,50.164,86.942z"/>
<path fill="#69512F" d="M24.985,81.48c0.232,1.896,0.464,3.791,0.699,5.683c-2.38,0.181-4.764,0.363-7.15,0.546c-0.001,0,0.077,0.04,0.077,0.04c-1.802-2.286-1.801-4.563,0.036-6.83c-0.18-1.886-0.36-3.774-0.542-5.661c1.892-0.085,3.784-0.17,5.678-0.256C27.036,76.631,26.963,78.877,24.985,81.48z"/>
<path fill="#AB8752" d="M75.27,92.942c0.055-1.834,0.109-3.668,0.164-5.502c1.798-1.508,3.513-1.868,5.039,0.369c0,0,0.855-0.342,0.857-0.342c-0.146,1.992-0.29,3.985-0.437,5.979C79.019,93.278,77.143,93.11,75.27,92.942z"/>
<path fill="#654D2B" d="M80.745,12.169c0.298-2.014,0.597-4.032,0.895-6.045c2.136,0.235,4.272,0.47,6.415,0.708c-0.046,1.852-0.095,3.702-0.146,5.548C85.523,12.309,83.134,12.238,80.745,12.169z"/>
<path fill="#A3804A" d="M62.608,56.87c4.314-2.185,8.629-4.37,12.943-6.552c2.104,2.023,4.208,4.05,6.313,6.076c1.462,2.023,1.419,4.031-0.051,6.027c-2.073,1.858-4.146,3.717-6.22,5.578c-4.273-1.995-8.546-3.994-12.82-5.99C60.593,60.364,60.572,58.649,62.608,56.87z"/>
<path fill="#8D733C" d="M62.608,56.87c0.056,1.713,0.108,3.428,0.164,5.143c-8.553-0.043-17.108-0.086-25.663-0.125c-1.53-1.758-1.483-3.437,0.25-5.029C45.777,56.861,54.192,56.864,62.608,56.87z"/>
<path fill="#AB8752" d="M37.36,56.858c-0.084,1.676-0.167,3.354-0.25,5.029c-4.036-1.804-8.072-3.607-12.108-5.411C29.122,56.605,33.24,56.731,37.36,56.858z"/>
<path fill="#A3804A" d="M12.792,65.778c1.655-1.062,3.311-2.121,4.965-3.183C16.102,63.657,14.446,64.717,12.792,65.778z"/>
<path fill="#644F2A" d="M18.647,80.918c-0.01,2.277-0.022,4.551-0.035,6.83c-2.501-0.07-5.002-0.138-7.511-0.207c0.467-2.14,0.945-4.279,1.422-6.418C14.565,81.056,16.606,80.988,18.647,80.918z"/>
<path fill="#5C4825" d="M88.055,31.745c-0.063,1.893-0.127,3.784-0.189,5.677c-2.135-0.013-4.27-0.021-6.404-0.034c-0.496-0.397-0.99-0.793-1.484-1.19c-0.449-1.23-0.414-2.457,0.038-3.677c0.51-0.375,1.02-0.754,1.53-1.132C83.715,31.507,85.885,31.627,88.055,31.745z"/>
<path fill="#A3804A" d="M75.022,31.294c0.208-1.953,0.417-3.906,0.624-5.863c1.968,1.987,3.933,3.974,5.897,5.957c0.002,0-0.63-0.335-0.63-0.335c-1.099,1.84-2.691,2.255-4.65,1.602C75.849,32.203,75.436,31.749,75.022,31.294z"/>
<path fill="#A3804A" d="M68.757,82.084c2.293-2.222,4.585-4.443,6.878-6.665c1.613,4.129,3.227,8.258,4.838,12.387c-1.681-0.121-3.362-0.244-5.04-0.365c-2.222-0.321-4.445-0.645-6.667-0.968C66.867,85.014,66.904,83.552,68.757,82.084z"/>
<path fill="#5C4825" d="M81.814,62.422c0.016-2.012,0.032-4.02,0.049-6.027c1.961,0.027,3.92,0.058,5.879,0.085c0.016,1.98,0.031,3.962,0.048,5.942C85.798,62.422,83.805,62.422,81.814,62.422z"/>
<path fill="#AB8752" d="M75.727,43.11c-0.198-1.908-0.395-3.815-0.592-5.722c0.417-0.439,0.832-0.879,1.248-1.322c1.945-0.631,3.499-0.165,4.574,1.636l0.504-0.314C79.549,39.295,77.637,41.203,75.727,43.11z"/>
<path fill="#8D733C" d="M43.419,36.998c0.053-1.691,0.107-3.381,0.16-5.072c6.194-0.003,12.388-0.006,18.583-0.006C55.915,33.613,49.666,35.307,43.419,36.998z"/>
<path fill="#AB8752" d="M75.135,37.388c-1.985-1.855-3.972-3.711-5.959-5.57c1.949-0.174,3.897-0.351,5.846-0.524l0.023,0.109c1.896,2.06,1.872,4.102-0.067,6.119L75.135,37.388z"/>
<path fill="#A2814A" d="M68.757,82.084c0.003,1.465,0.006,2.93,0.009,4.392c-6.201,0.155-12.402,0.312-18.602,0.467c-0.031-1.679-0.062-3.354-0.092-5.032C56.299,81.968,62.528,82.026,68.757,82.084z"/>
<path fill="#8D733C" d="M74.978,37.523c0.021-2.039,0.044-4.08,0.067-6.119c1.957-0.116,3.915-0.235,5.871-0.351c0.014,2.215,0.029,4.431,0.043,6.649C78.965,37.642,76.971,37.584,74.978,37.523z"/>
</svg>