<?xml version="1.0" encoding="utf-8"?>
<!DOCTYPE svg PUBLIC "-//W3C//DTD SVG 1.1//EN" "http://www.w3.org/Graphics/SVG/1.1/DTD/svg11.dtd">
<svg version="1.1" xmlns="http://www.w3.org/2000/svg" xmlns:xlink="http://www.w3.org/1999/xlink" x="0px" y="0px" width="100px" height="100px" viewBox="0 0 100 100" enable-background="new 0 0 100 100" xml:space="preserve">
<path fill="#A09D9A" d="M12.501,100c-0.978-4.871-1.956-9.741-2.177-10.843c0-11.851,0-20.169,0-28.488c0.558,0.006,1.117,0.013,1.675,0.019c0-14.026-0.049-28.052,0.023-42.078c0.032-6.204,0.311-12.405,0.479-18.609c2.083,0,4.167,0,6.25,0c3.566,3.506,4.648,7.871,4.651,12.726c0.014,24.835,0.134,49.674-0.07,74.509c-0.04,4.81-0.975,9.256-4.581,12.766C16.668,100,14.584,100,12.501,100z"/>
<path fill="#676664" d="M18.751,100c0-33.334,0-66.666,0-100c2.083,0,4.167,0,6.25,0c2.418,3.061,7.083,2.902,9.207,6.399c1.119,2.106,1.325,4.352,0.984,6.671c-3.255,6.006-4.523,12.488-4.497,19.275c-0.017,2.313,0.042,4.611,0.195,6.918c0.839,5.591,0.528,11.173,0.017,16.758c-0.06,2.472-0.047,4.938,0.057,7.406c0.601,5.875,0.598,11.728-0.47,17.554c-0.551,4.202-0.671,8.453-1.416,12.631c-0.795,2.49-2.327,4.508-4.077,6.388C22.918,100,20.834,100,18.751,100z"/>
<path fill="#A2A1A0" d="M81.25,100c-2.082,0-4.167,0-6.25,0c-1.747-1.874-3.274-3.888-4.07-6.369c-0.746-4.181-0.816-8.432-1.34-12.634c-1.297-5.896,0.741-11.756,0.209-17.643c-0.073-2.521-0.197-5.035-0.391-7.55c-1.08-5.851,0.969-11.649,0.295-17.493c-0.167-2.493-0.222-4.989-0.409-7.482c-0.802-5.799-1.003-11.588,0.363-17.34c0.386-2.457,0.72-4.919,1.248-7.349C71.759,3.754,73.296,1.819,75,0c2.083,0,4.168,0,6.25,0c7.279,9.326,2.424,19.995,3.203,30.017c1.514,19.458-0.646,38.993,0.746,58.49C85.483,92.505,84.082,96.689,81.25,100z"/>
<path fill="#656461" d="M81.25,100c0-33.334,0-66.666,0-100c2.083,0,4.168,0,6.25,0c0.112,2.011,0.225,4.019,0.336,6.03c2.897,4.156,3.18,8.289-0.115,12.387c0.038,4.205,0.077,8.408,0.115,12.613c2.897,4.156,3.18,8.289-0.115,12.387c0.038,4.206,0.077,8.408,0.115,12.613c2.897,4.156,3.18,8.288-0.115,12.387c0.038,4.206,0.077,8.408,0.115,12.613c2.897,4.156,3.18,8.288-0.115,12.387c-0.074,2.194-0.146,4.389-0.221,6.583C85.418,100,83.333,100,81.25,100z"/>
<path fill="#806740" d="M87.721,18.418c0.038-4.129,0.074-8.261,0.114-12.39C97.441,10.251,95.046,14.356,87.721,18.418z"/>
<path fill="#806740" d="M87.721,43.418c0.038-4.129,0.074-8.261,0.114-12.39C97.441,35.251,95.046,39.356,87.721,43.418z"/>
<path fill="#806740" d="M87.721,68.417c0.038-4.129,0.074-8.261,0.114-12.39C97.441,60.251,95.046,64.356,87.721,68.417z"/>
<path fill="#806740" d="M87.721,93.417c0.038-4.129,0.074-8.261,0.114-12.39C97.441,85.251,95.046,89.356,87.721,93.417z"/>
<path fill="#886E3D" d="M68.918,62.598c-9.968,1.321-19.906,3.137-29.917,3.741c-4.379,0.263-8.91-1.953-13.368-3.042c-0.083-2.191-0.169-4.383-0.25-6.567c12.424,0.052,24.843,0.098,37.264,0.144C64.785,58.729,67.821,59.601,68.918,62.598z"/>
<path fill="#604B29" d="M25.385,81.323c2.051,0.187,4.104,0.369,6.154,0.556c2.191,1.932,4.831,2.475,7.654,2.456c2.098,0.037,4.191,0.037,6.29,0.04c7.636-0.903,15.71,2.194,22.917-2.536c2.029-0.189,4.059-0.378,6.087-0.564c0.036,4.08,0.074,8.16,0.113,12.234c-16.431-0.012-32.86-0.021-49.288-0.033C25.338,89.423,25.36,85.373,25.385,81.323z"/>
<path fill="#937443" d="M63.376,12.9c-11.109,7.51-21.953,8.261-32.393-1.288c-0.072-1.379-0.139-2.755-0.212-4.129c2.248-0.192,4.501-0.381,6.755-0.574C45.1,13.416,56.124,5.017,63.376,12.9z"/>
<path fill="#866D45" d="M36.815,38.123c-3.768,0.085-7.535,0.171-11.299,0.256c-0.084-2.265-0.171-4.526-0.255-6.784c4.14,0.095,8.276,0.187,12.412,0.275c1.47,1.117,1.938,2.6,1.602,4.379C38.805,37.332,37.984,37.958,36.815,38.123z"/>
<path fill="#8D733C" d="M74.314,37.668c-12.5,0.152-25,0.302-37.498,0.455c0.542-0.47,1.073-0.955,1.591-1.45c1.641-1.697,3.353-3.314,5.189-4.797c10.3-0.027,20.601-0.052,30.898-0.07C74.432,33.762,74.373,35.715,74.314,37.668z"/>
<path fill="#937549" d="M63.376,12.9c-8.616-1.999-17.233-3.995-25.85-5.991C49.888,6.781,62.25,6.65,74.609,6.524c-0.058,2.097-0.114,4.184-0.172,6.271C70.751,12.83,67.065,12.863,63.376,12.9z"/>
<path fill="#A3804A" d="M68.918,62.598c-2.092-1.907-4.182-3.814-6.272-5.725c3.978,0.079,7.954,0.155,11.928,0.237c-0.051,1.788-0.096,3.567-0.145,5.341C72.591,62.497,70.754,62.549,68.918,62.598z"/>
<path fill="#AB8752" d="M43.596,31.876c-1.732,1.602-3.463,3.202-5.192,4.8c-0.241-1.605-0.485-3.204-0.731-4.806C39.648,31.873,41.622,31.873,43.596,31.876z"/>
<path fill="#947745" d="M68.399,81.839c-8.279,1.736-16.558,3.476-24.836,5.216c-1.607-1.728-1.63-3.434,0.065-5.118C51.887,81.906,60.143,81.873,68.399,81.839z"/>
<path fill="#866D45" d="M37.765,87.125c-2.075-1.749-4.15-3.498-6.226-5.246c2.046,0,4.091,0,6.137,0C39.327,83.6,39.307,85.349,37.765,87.125z"/>
<path fill="#AB8752" d="M37.765,87.125c-0.029-1.749-0.06-3.498-0.089-5.246c1.985,0.018,3.969,0.039,5.953,0.058c-0.021,1.709-0.042,3.415-0.065,5.118C41.629,87.076,39.698,87.101,37.765,87.125z"/>
</svg>