<?xml version="1.0" encoding="utf-8"?>
<!DOCTYPE svg PUBLIC "-//W3C//DTD SVG 1.1//EN" "http://www.w3.org/Graphics/SVG/1.1/DTD/svg11.dtd">
<svg version="1.1" xmlns="http://www.w3.org/2000/svg" xmlns:xlink="http://www.w3.org/1999/xlink" x="0px" y="0px" width="100px" height="100px" viewBox="0 0 100 100" enable-background="new 0 0 100 100" xml:space="preserve">
<path fill="#6D6D6D" d="M19.254,100c0.162-2.143,0.324-4.288,0.485-6.43c20.509-7.313,41.02-7.413,61.53,0c0.161,2.145,0.323,4.287,0.484,6.43C60.921,100,40.087,100,19.254,100z"/>
<path fill="#CACACA" d="M19.725,87.323c0-24.167,0-48.337,0-74.354c18.922,0,37.26,0,55.6,0c5.439,7.499,2.553,15.863,2.85,24.008c0.623,17.066,0.647,34.061-0.358,52.75C57.785,89.719,38.689,94.092,19.725,87.323z"/>
<path fill="#949494" d="M19.725,87.323c17.413,0,34.825,0,55.6,0c0-27.081,0-50.717,0-74.354c2.133,3.76,6.039,7.486,6.109,11.286c0.431,23.096-0.014,46.209-0.166,69.315c-20.51,0-41.021,0-61.53,0C19.734,91.488,19.73,89.407,19.725,87.323z"/>
<path d="M43.832,30.814c-6.558,0-11.068,0-16.583,0c-0.563-3.207-1.127-6.421-1.91-10.889c6.183,0,11.464,0,17.877,0C43.388,22.977,43.571,26.19,43.832,30.814z"/>
<path d="M50.925,19.187c6.558,0,11.068,0,16.583,0c0.563,3.21,1.128,6.427,1.91,10.889c-6.172,0-11.437,0-17.877,0C51.368,27.023,51.187,23.81,50.925,19.187z"/>
<path d="M43.487,38.315c0,3.845,0,6.726,0,10.617c-5.496,0-10.785,0-16.928,0c0-3.424,0-6.628,0-10.617C31.958,38.315,36.859,38.315,43.487,38.315z"/>
<path d="M50.228,38.184c7.062,0,11.961,0,17.962,0c0.194,3.537,0.371,6.748,0.604,10.962c-5.69,0.326-10.598,0.61-16.448,0.949C51.68,46.356,51.108,43.137,50.228,38.184z"/>
</svg>