<?xml version="1.0" encoding="utf-8"?>
<!DOCTYPE svg PUBLIC "-//W3C//DTD SVG 1.1//EN" "http://www.w3.org/Graphics/SVG/1.1/DTD/svg11.dtd">
<svg version="1.1" xmlns="http://www.w3.org/2000/svg" xmlns:xlink="http://www.w3.org/1999/xlink" x="0px" y="0px" width="100px" height="100px" viewBox="0 0 100 100" enable-background="new 0 0 100 100" xml:space="preserve">
<path fill="#AE8C56" d="M49.959,22.496c3.245,1.834,6.492,3.668,9.738,5.502c0.969,2.005,2.047,3.979,1.727,6.339c-0.494,1.431-1.276,2.676-2.385,3.711c-1.899,1.184-3.8,2.371-5.911,3.152c-2.206,0.574-4.379,0.494-6.503-0.369c-1.976-0.998-3.525-2.46-4.648-4.355c-0.223-0.656-0.445-1.325-0.673-1.978c-0.098-1.367,0.115-2.701,0.666-3.958c1.227-1.565,3.059-2.383,4.591-3.567C47.822,25.587,48.599,23.82,49.959,22.496z"/>
<path fill="#5F4D31" d="M90.97,43.513c-0.044,4.285-0.089,8.566-0.133,12.851c-1.438,1.27-3.209,1.456-5.024,1.547c-1.264,0.092-2.484-0.07-3.703-0.439c-1.168-0.625-2.137-1.465-2.958-2.502c-1.092-1.779-1.468-3.705-1.214-5.765c0.332-1.313,0.937-2.497,1.8-3.537c1.008-0.876,2.18-1.453,3.471-1.782C85.788,43.726,88.385,43.745,90.97,43.513z"/>
<path fill="#5A492E" d="M62.546,71.272c-4.24,2.096-8.479,4.192-12.72,6.289c-1.245-1.727-2.585-3.372-4.122-4.858c-0.684-1.297-1.018-2.67-0.958-4.138c0.492-2.194,1.554-4.028,3.385-5.374c1.271-0.672,2.632-1.054,4.066-1.117c1.361,0.229,2.7,0.598,3.995,1.083c1.244,0.501,2.502,1.008,3.749,1.511c1.129,0.714,2.047,1.648,2.743,2.792C63.119,68.745,63.049,70.017,62.546,71.272z"/>
<path fill="#866D45" d="M46.835,68.72c0.037,1.06,0.072,2.118,0.108,3.177c-2.187,1.825-4.433,1.764-6.726,0.214c-4.059-2.108-8.118-4.215-12.176-6.323c0.034-0.717,0.067-1.438,0.101-2.154c0.545-1.355,1.378-2.496,2.49-3.434c1.268-0.684,2.626-1.053,4.062-1.117c2.107,0.278,3.94,1.285,5.783,2.246c1.729,1.06,3.296,2.332,4.729,3.772c0.339,0.57,0.681,1.145,1.021,1.715C46.428,67.451,46.633,68.085,46.835,68.72z"/>
<path fill="#BB9762" d="M34.461,31.458c3.096-1.77,6.193-3.54,9.291-5.307c1.019,0.571,1.575,1.45,1.726,2.597c-0.251,1.12-0.865,1.983-1.838,2.591l0.19-0.226c-0.981,1.7-1.634,3.641-3.473,4.712c-2.003,0.738-3.877,0.528-5.6-0.77C33.863,33.921,33.802,32.719,34.461,31.458z"/>
<path fill="#524329" d="M84.23,56.242c2.202,0.04,4.404,0.082,6.607,0.122c-4.211,2.105-8.423,4.211-12.634,6.32c-1.073-1.05-1.717-2.308-1.871-3.806c0.209-1.486,0.857-2.743,1.947-3.775C80.513,54.175,82.514,54.465,84.23,56.242z"/>
<path fill="#B38F5A" d="M34.461,31.458l-0.09,1.453c-0.093,1.285-0.006,2.557,0.263,3.824c0,1.313-0.289,2.558-0.864,3.741c-0.809,1.059-1.823,1.859-3.015,2.445c-2.025,0.528-3.901,0.223-5.626-0.971c-0.908-0.992-1.488-2.145-1.693-3.479c0.006-1.376,0.544-2.512,1.544-3.445C28.139,33.839,31.301,32.648,34.461,31.458z"/>
<path fill="#846C43" d="M15.608,59.492c-2.902-2.13-5.803-4.26-8.705-6.391c0.847-0.994,1.833-1.827,2.939-2.526c1.265-0.385,2.55-0.47,3.856-0.254c1.245,0.477,2.291,1.233,3.166,2.234c0.627,1.178,0.92,2.436,0.885,3.771C17.397,57.624,16.701,58.692,15.608,59.492z"/>
<path fill="#8A7149" d="M28.041,65.788c-3.09-1.321-6.178-2.646-9.268-3.967c-0.862-1.347-0.847-2.646,0.192-3.896c2.57-2.104,5.318-2.24,8.214-0.751c1.155,0.949,1.984,2.13,2.484,3.54c0.014,1.495-0.36,2.881-1.181,4.139L28.041,65.788z"/>
<path fill="#B9955F" d="M90.97,43.513c-2.262,0.9-4.524,1.801-6.787,2.698c-1.467-0.256-2.681-0.961-3.681-2.057c-0.144-0.708-0.285-1.419-0.429-2.127c0.271-0.672,0.539-1.346,0.809-2.018c1.399-0.714,2.683-0.546,3.849,0.507C86.811,41.514,88.89,42.515,90.97,43.513z"/>
<path fill="#5F4D31" d="M78.118,59.571c0.008,1.038,0.037,2.075,0.086,3.113c-2.071,1.071-4.142,2.143-6.214,3.217c-0.496-0.458-0.993-0.916-1.49-1.374c-0.521-1.275-0.674-2.594-0.455-3.955c0.557-1.281,1.46-2.236,2.708-2.865C74.913,57.258,76.739,57.777,78.118,59.571z"/>
<path fill="#766239" d="M40.218,72.111c2.242-0.073,4.483-0.144,6.726-0.214c0.962,1.887,1.921,3.775,2.883,5.664C46.623,75.746,43.421,73.926,40.218,72.111z"/>
<path fill="#866C45" d="M7.236,50.04c-0.001-1.059-0.001-2.121-0.003-3.18c0.913-0.934,1.979-1.645,3.175-2.161c1.839-0.699,3.752-0.903,5.701-0.86c1.261,0.339,2.353,0.974,3.299,1.861c0.647,1.126,0.896,2.341,0.748,3.629c-0.533,1.169-1.366,2.051-2.536,2.594c-1.234,0.104-2.463,0.024-3.677-0.214c-1.218-0.088-2.44-0.137-3.662-0.149C8.998,51.594,7.982,51.087,7.236,50.04z"/>
<path fill="#AE8D57" d="M59.394,33.793c0.101-1.932,0.202-3.864,0.304-5.795c0.996,0.027,1.949,0.238,2.862,0.638c0.934,0.794,1.454,1.789,1.492,3.024c-0.17,1.203-0.703,2.207-1.654,2.976C61.183,35.114,60.192,34.797,59.394,33.793z"/>
<path fill="#57472B" d="M71.99,65.901c-2.116,0.955-4.234,1.907-6.353,2.862c-0.468-0.458-0.935-0.916-1.403-1.373c-0.342-1.288-0.31-2.563,0.152-3.821c0.787-1.09,1.83-1.807,3.127-2.154c2.354,0.061,2.989,2.139,4.176,3.567L71.99,65.901z"/>
<path fill="#BB9762" d="M43.686,26.435l0.066-0.284c2.069-1.218,4.138-2.438,6.208-3.656c0.004,1.919,0.009,3.836,0.015,5.752C47.245,29.841,44.832,30.335,43.686,26.435z"/>
<path fill="#9E834D" d="M72.199,34.299c1.009,0.021,1.98,0.223,2.914,0.604c0.405,0.482,0.81,0.964,1.212,1.45c-0.236,1.288-0.917,2.271-2.042,2.945c-1.907,0.607-3.677,0.357-5.293-0.845c-0.345-0.519-0.691-1.038-1.036-1.557c-0.259-1.279,0.037-2.414,0.89-3.403C70.118,33.119,71.228,33.414,72.199,34.299z"/>
<path fill="#695433" d="M25.009,37.538c-0.035,1.068-0.07,2.139-0.106,3.21c-0.574,0.427-1.147,0.851-1.721,1.279c-1.428,0.305-2.817,0.174-4.164-0.394c-0.813-0.72-1.163-1.51-1.048-2.365c0.119-0.888,0.293-1.331,0.521-1.331c1.117-0.14,2.236-0.284,3.353-0.424C22.908,36.289,23.964,36.234,25.009,37.538z"/>
<path fill="#B38F5A" d="M78.476,37.403c0.979,0.034,1.921,0.247,2.821,0.635c0.832,0.485,1.139,1.013,0.924,1.583c-0.224,0.595-0.461,0.892-0.716,0.892l-0.429,0.274c-1.771,1.706-3.669,1.599-5.643,0.396c-0.708-0.757-1.009-1.563-0.902-2.414c0.11-0.876,0.266-1.313,0.466-1.313l-0.01,0.049C76.116,36.298,77.277,36.207,78.476,37.403z"/>
<path fill="#BB9762" d="M9.342,43.772c2.052-1.095,4.104-2.191,6.155-3.283c0.443,0.497,0.885,0.995,1.328,1.492c-0.026,1.438-0.719,2.444-1.988,3.082c-1.328,0.177-2.656,0.195-3.989,0.031C10.346,44.654,9.844,44.215,9.342,43.772z"/>
<path fill="#8A7149" d="M18.787,59.299c-0.006,0.84-0.011,1.682-0.014,2.521c-1.055-0.775-2.109-1.554-3.165-2.329c0.021-1.11,0.043-2.222,0.063-3.332C18.393,55.534,19.533,56.483,18.787,59.299z"/>
<path fill="#A58751" d="M62.398,34.654c0.04-1.129,0.078-2.255,0.117-3.385c1.093-1.267,2.21-1.288,3.353-0.067c1.015,0.055,1.996,0.262,2.945,0.623c0.866,0.589,1.147,1.169,0.846,1.736c-0.3,0.562-0.596,0.845-0.895,0.845l0.006-0.018c-1.271,1.742-2.976,2.02-4.927,1.462C63.361,35.45,62.878,35.053,62.398,34.654z"/>
<path fill="#BB9762" d="M81.505,40.513c-0.121-0.821-0.189-1.645-0.208-2.475c1.145,0.827,2.289,1.651,3.434,2.478C83.655,40.516,82.58,40.516,81.505,40.513z"/>
<path fill="#BB9762" d="M18.491,37.937c0.25,0.882,0.569,1.743,0.954,2.576c-1.166,1.077-2.397,1.156-3.691,0.238l-0.255-0.262C16.495,39.637,17.493,38.786,18.491,37.937z"/>
<path fill="#BB9762" d="M78.476,37.403c-1.161,0.037-2.323,0.07-3.486,0.104c0.017-0.87,0.058-1.736,0.123-2.604C76.235,35.737,77.355,36.57,78.476,37.403z"/>
<path fill="#BB9762" d="M25.009,37.538c-1.054-0.009-2.11-0.016-3.165-0.024c1.044-0.827,2.089-1.657,3.134-2.487C24.98,35.865,24.991,36.701,25.009,37.538z"/>
<path fill="#B38F5A" d="M68.764,34.406c0.009-0.86,0.024-1.721,0.049-2.582c1.128,0.827,2.257,1.651,3.386,2.475C71.054,34.336,69.91,34.37,68.764,34.406z"/>
<path fill="#8A7149" d="M9.243,46.888l-1.004-0.034L7.233,46.86c0.704-1.029,1.407-2.06,2.11-3.089c-0.001,0,0.217-0.149,0.217-0.149C11.557,44.916,11.451,46.006,9.243,46.888z"/>
<path fill="#BB9762" d="M65.868,31.202c-1.116,0.021-2.235,0.045-3.353,0.067c-0.001-0.879,0.013-1.755,0.045-2.634C63.663,29.49,64.766,30.348,65.868,31.202z"/>
<path fill="#8A7149" d="M7.236,50.04l0.89-0.162c0.847,0.269,1.694,0.537,2.541,0.81c-0.379,0.802-0.759,1.607-1.137,2.41l-1.313-0.009l-1.313,0.012C7.013,52.082,7.124,51.06,7.236,50.04z"/>
<path fill="#5F4D31" d="M62.546,71.272c-0.016-0.824-0.037-1.651-0.062-2.476c0.509-0.394,1.015-0.79,1.523-1.184c0.513,0.388,1.025,0.771,1.539,1.159l0.09-0.009C64.608,69.599,63.576,70.435,62.546,71.272z"/>
<path fill="#735E39" d="M59.394,33.793c1.001,0.287,2.003,0.571,3.004,0.857c0,0.003,0.063-0.244,0.063-0.244c0.631,0.729,0.876,1.486,0.737,2.271c-0.142,0.796-0.307,1.193-0.499,1.196c-0.96,0.91-2.078,1.511-3.386,1.752c-1.324-0.067-2.538-0.464-3.623-1.233c-0.746-1.126-0.996-2.35-0.749-3.678C56.424,34.406,57.909,34.101,59.394,33.793z"/>
<path fill="#BB9762" d="M46.831,37.535c2.107,0,4.216,0.003,6.325,0.003c0.403,0.5,0.806,0.998,1.209,1.495c-0.168,1.334-0.815,2.365-1.939,3.098c-1.974,0.638-3.767,0.339-5.356-1.022c-0.276-0.58-0.551-1.16-0.826-1.739C46.439,38.758,46.634,38.145,46.831,37.535z"/>
<path fill="#695433" d="M43.686,26.435c2.097,0.604,4.191,1.208,6.288,1.813c-2.111,1.031-4.223,2.06-6.335,3.091C43.654,29.704,43.671,28.071,43.686,26.435z"/>
<path fill="#BB9762" d="M54.941,34.714c0.471,0.931,0.941,1.862,1.413,2.792c-1.068,1.126-2.14,1.074-3.214,0.009l0.015,0.021C53.751,36.598,54.346,35.655,54.941,34.714z"/>
<path fill="#BB9762" d="M43.413,34.046c1.14,1.163,2.28,2.322,3.418,3.485c0,0.003-0.095,0.128-0.095,0.128c-1.17,0.824-2.353,0.885-3.55,0.058c-0.212-0.628-0.426-1.254-0.638-1.883C42.836,35.24,43.124,34.641,43.413,34.046z"/>
<path fill="#695433" d="M40.767,34.525c1.021-1.138,2.042-2.273,3.063-3.412c-0.18,0.973-0.319,1.95-0.415,2.933c-0.001,0,0.16,0.088,0.16,0.088c-0.409,0.491-0.818,0.979-1.227,1.468C41.822,35.243,41.293,34.885,40.767,34.525z"/>
<path fill="#362B1B" d="M84.23,56.242c-2.029-0.006-4.057-0.013-6.085-0.019c-0.971-0.824-1.544-1.867-1.72-3.131c0.152-1.258,0.681-2.338,1.535-3.266c1.161-0.674,2.265-0.589,3.313,0.25c1.049,1.044,2.099,2.091,3.148,3.135l-0.133-0.159C84.269,54.115,84.248,55.18,84.23,56.242z"/>
<path fill="#362B1B" d="M84.421,53.211c0.622-0.415,1.245-0.83,1.074-0.714c0.175-0.083-0.516,0.237-1.207,0.555L84.421,53.211z"/>
<path fill="#BB9762" d="M81.801,43.79c0.795,0.809,1.589,1.614,2.384,2.423c-1.017,0.187-2.031,0.373-3.046,0.559c-0.203-0.567-0.406-1.132-0.607-1.7C80.955,44.645,81.378,44.218,81.801,43.79z"/>
<path fill="#BB9762" d="M81.273,50.077c-1.001-0.018-2,0.007-2.998,0.074c-0.301-0.449-0.602-0.9-0.9-1.35c0.127-1.113,0.618-2.035,1.475-2.762c1.133-0.467,1.984-0.192,2.513,0.946c0,0-0.22-0.211-0.222-0.214C81.183,47.873,81.227,48.975,81.273,50.077z"/>
<path fill="#6C5836" d="M53.405,65.812c-1.044-0.062-2.086-0.122-3.13-0.183c-0.526,0.421-1.053,0.842-1.578,1.266c-0.652-0.171-1.304-0.342-1.956-0.513c-0.668-1.241-0.723-2.508-0.165-3.802c1.468-1.63,3.284-2.127,5.397-1.651c1.244,0.644,1.978,1.657,2.202,3.043C53.917,64.585,53.661,65.199,53.405,65.812z"/>
<path fill="#8A7149" d="M46.767,65.684c1.167-0.019,2.335-0.037,3.505-0.055c-1.143,1.028-2.289,2.06-3.437,3.091l0.15,0.116c-0.879-0.641-1.204-1.324-0.977-2.045C46.244,66.053,46.496,65.684,46.767,65.684z"/>
<path fill="#3A2F1D" d="M56.307,68.549c-0.968-0.912-1.937-1.825-2.904-2.737c0.002,0-0.18-0.07-0.18-0.07c0.931-1.156,2.046-1.376,3.345-0.653C57.385,66.309,57.3,67.463,56.307,68.549z"/>
<path fill="#352A1A" d="M56.307,68.549c-0.013-0.897-0.014-1.791-0.005-2.688c0.562-0.357,1.123-0.711,1.685-1.065c0.632,0.205,1.265,0.409,1.896,0.613c0.806,1.273,0.578,2.381-0.535,3.346C58.331,68.723,57.319,68.657,56.307,68.549z"/>
<path fill="#5F4D31" d="M59.348,68.754c-0.003-1.051-0.005-2.1-0.007-3.15c2.668-0.521,4.416-0.143,3.148,3.202c0,0-0.002-0.013-0.003-0.013C61.44,68.782,60.393,68.769,59.348,68.754z"/>
<path fill="#55462A" d="M28.207,62.312c-0.007-1.02,0.008-2.036,0.047-3.056c0.498-0.524,0.995-1.053,1.493-1.58c2.933-1.386,5.6-1.15,7.907,1.294c0.682,1.343,0.801,2.725,0.269,4.147c-1.397,0.732-2.678,0.601-3.824-0.522c-1.028,0.092-2.054,0.217-3.073,0.379C29.822,63.874,28.882,63.655,28.207,62.312z"/>
<path fill="#4E3E26" d="M34.099,62.595c1.237-0.076,2.475-0.152,3.712-0.229c1.018-0.586,1.978-0.504,2.881,0.247c0.209,0.497,0.418,0.995,0.627,1.492c-0.223,0.491-0.446,0.982-0.667,1.475C38.468,64.585,36.284,63.59,34.099,62.595z"/>
<path fill="#8A7149" d="M28.207,62.312c0.949,0.18,1.891,0.399,2.82,0.662c-0.85,0.628-1.7,1.257-2.547,1.88C28.365,64.005,28.273,63.16,28.207,62.312z"/>
<path fill="#4E3E26" d="M43.695,68.378c-1.015-0.934-2.028-1.864-3.042-2.798l-0.114,0.155c1.046-1.111,2.276-1.376,3.689-0.797C45.142,66.254,44.963,67.399,43.695,68.378z"/>
<path fill="#55462A" d="M43.695,68.378c0.019-0.784,0.021-1.565,0.009-2.35c0.975-1.215,2.032-1.291,3.172-0.229c0,0-0.105-0.115-0.107-0.115c0.069,1.05,0.141,2.103,0.214,3.152C45.888,68.684,44.791,68.531,43.695,68.378z"/>
<path fill="#695433" d="M34.371,32.911c2.132,0.537,4.265,1.077,6.396,1.614l-0.22-0.223c0.498,0.498,0.997,0.995,1.494,1.492c-0.138,0.69-0.276,1.379-0.414,2.072c-1.015,1.019-2.24,1.645-3.644,1.932c-1.431-0.037-2.751-0.442-3.958-1.208c-0.813-1.211-1.069-2.533-0.768-3.961C33.803,34.171,34.174,33.598,34.371,32.911z"/>
<path fill="#483B24" d="M77.987,52.824c0.052,1.136,0.104,2.268,0.158,3.399c-0.009,1.114-0.019,2.231-0.025,3.345c-2.066-0.055-4.133-0.116-6.198-0.177c-2.063,2.018-4.106,1.605-6.141-0.049c-1.761-5.258,1.909-6.918,5.649-8.529C73.929,50.458,76.08,51.24,77.987,52.824z"/>
<path fill="#9E834D" d="M34.537,37.495c0.979,0.08,1.956,0.195,2.927,0.351c0.783,4.062-1.773,4.373-4.743,4.221c-0.569-0.366-1.137-0.736-1.706-1.105c0.108-1.242,0.217-2.484,0.324-3.729C32.498,36.176,33.565,36.265,34.537,37.495z"/>
<path fill="#735E39" d="M24.903,40.748c2.039,0.07,4.076,0.14,6.114,0.21c-0.002,0.003-0.023-0.152-0.023-0.152c0.61,1.477,0.307,2.734-0.911,3.771c-3.236,0.614-5.972,0.589-5.128-4.01L24.903,40.748z"/>
<path fill="#BB9762" d="M34.537,37.495c-1.066-0.085-2.133-0.171-3.198-0.259c0.644-0.873,1.286-1.74,1.924-2.606C33.684,35.584,34.111,36.539,34.537,37.495z"/>
<path fill="#504027" d="M18.787,59.299c-1.038-1.047-2.077-2.094-3.116-3.14c0.022-1.025,0.033-2.051,0.03-3.073c0.578-0.452,1.158-0.9,1.738-1.35c2.109-0.598,4.186-1.446,6.455-0.851c3.421,1.855,6.595,3.833,4.178,8.542c0,0,0.182-0.168,0.183-0.168C25.1,59.272,21.944,59.285,18.787,59.299z"/>
<path fill="#4E3E26" d="M12.616,50.569c0.941-0.208,1.891-0.376,2.847-0.501c0.722,0.51,1.444,1.022,2.166,1.532c-0.699,0.543-1.396,1.086-2.094,1.63c0,0,0.165-0.144,0.167-0.144c-1.033-0.138-2.06-0.309-3.081-0.52C12.62,51.902,12.618,51.237,12.616,50.569z"/>
<path fill="#55462A" d="M12.616,50.569c-0.009,0.668-0.009,1.336,0.005,2.002c-1.032,0.174-2.063,0.351-3.093,0.527c-0.455-1.074-0.911-2.148-1.385-3.223C9.622,50.108,11.12,50.339,12.616,50.569z"/>
<path fill="#735E39" d="M81.362,46.986c-1.068,0.14-2.137,0.281-3.204,0.421c-0.62-0.195-1.238-0.391-1.858-0.583c-1.038-0.821-1.79-1.852-2.303-3.067c-0.037-0.647-0.072-1.297-0.107-1.944c0.312-0.571,0.624-1.142,0.938-1.709c2.084,0.226,4.169,0.455,6.251,0.684c0.216,1.007,0.455,2.008,0.721,3.003C81.655,44.855,81.508,45.92,81.362,46.986z"/>
<path fill="#352A1A" d="M65.94,59.586c1.992-0.064,3.987-0.128,5.981-0.195c-0.051,1.004-0.073,2.008-0.069,3.012c-0.774,1.267-1.715,1.469-2.843,0.437c-1.127-0.119-2.253-0.234-3.381-0.354l-0.884-0.94l0.092-1.287L65.94,59.586z"/>
<path fill="#5F4D31" d="M69.009,62.839c0.94-0.198,1.888-0.345,2.843-0.437c-0.034,0.864-0.09,1.728-0.163,2.585C70.796,64.268,69.903,63.553,69.009,62.839z"/>
<path fill="#A18451" d="M24.955,40.568c2.121,1.086,4.242,2.173,6.363,3.259c0.667-0.015,1.333-0.027,2.002-0.04c1.349-0.027,2.695-0.058,4.05-0.092c1.393,0.098,2.696,0.47,3.917,1.157c1.878,1.099,3.485,2.448,4.39,4.496c0.391,1.431,0.445,2.868,0.149,4.318c-0.792,2.136-2.213,3.698-4.283,4.645c-1.384,0.332-2.774,0.32-4.145-0.086c-4.639-1.229-8.963-3.213-13.097-5.637c-1.152-0.665-2.272-1.392-3.352-2.173c-0.705-1.123-1.399-2.258-2.08-3.399c-1.052-0.046-2.103-0.088-3.154-0.131c-0.696-0.501-1.392-1.001-2.087-1.502c0.67-0.537,1.34-1.071,2.01-1.605c0.023-1.01,0.061-2.02,0.116-3.027c1.23-0.08,2.46-0.159,3.689-0.238C21.282,40.531,23.118,40.549,24.955,40.568z"/>
<path fill="#735E39" d="M15.638,43.778c0.007,1.035,0.03,2.072,0.075,3.107c-2.148,0-4.302,0.003-6.462,0.003c0.098-1.086,0.204-2.176,0.31-3.266C11.586,43.674,13.613,43.726,15.638,43.778z"/>
<path fill="#8A7149" d="M15.535,53.23c-0.023-1.057-0.044-2.109-0.068-3.162c1.108-0.021,2.22-0.046,3.331-0.067c0.949-1.287,1.91-1.232,2.881-0.024l0.227-0.063c0.783,0.836,1.045,1.672,0.789,2.508c-0.258,0.84-0.516,1.258-0.775,1.258C19.791,53.529,17.663,53.379,15.535,53.23z"/>
<path fill="#695433" d="M21.679,49.976c-0.96,0.016-1.921,0.021-2.881,0.024c-0.031-0.998-0.006-1.992,0.072-2.987C19.806,48.002,20.743,48.988,21.679,49.976z"/>
<path fill="#453823" d="M62.49,68.806c-1.049-1.065-2.098-2.134-3.148-3.202l0.053,0.077c-0.711-1.315-0.585-2.539,0.38-3.681c1.94-1.16,3.807-1.3,5.54,0.402l0.314,0.086c-0.027,2.094-0.054,4.187-0.081,6.283l-1.528,0.037L62.49,68.806z"/>
<path fill="#BB9762" d="M62.604,37.601c-0.047-1.065-0.093-2.13-0.142-3.195c2.101-0.006,4.203-0.012,6.308-0.018c-0.011,1.053-0.02,2.103-0.028,3.152c-0.433,0.415-0.865,0.83-1.296,1.248c-1.169,0.385-2.341,0.375-3.516,0.031C63.489,38.414,63.046,38.007,62.604,37.601z"/>
<path fill="#BB9762" d="M74.997,37.458c-0.023,0.885-0.08,1.77-0.171,2.649c0-0.003,0.313,0.974,0.313,0.974c-1.888,1.611-3.842,1.443-5.838,0.223c-0.724-0.76-1.042-1.578-0.954-2.454c0.091-0.9,0.235-1.352,0.437-1.352l-0.042,0.043C70.827,37.513,72.912,37.486,74.997,37.458z"/>
<path fill="#9E834D" d="M53.14,37.516c1.071-0.003,2.142-0.006,3.213-0.009c1.077,0.11,2.152,0.217,3.229,0.327c0.929,0.891,1.486,1.975,1.674,3.25c-0.162,1.276-0.651,2.408-1.468,3.403c-1.042,0.757-2.207,1.184-3.49,1.282c-1.272-0.214-2.379-0.763-3.32-1.645c-0.728-1.168-0.641-2.301,0.154-3.399C53.134,39.652,53.137,38.584,53.14,37.516z"/>
<path fill="#BB9762" d="M59.438,40.589c0.001-0.925,0.047-1.847,0.141-2.762c1.002-0.174,2.009-0.25,3.025-0.226l-0.185-0.174c0.838,0.647,1.21,1.379,1.118,2.194c-0.096,0.858-0.258,1.288-0.486,1.288C61.765,41.727,60.566,41.575,59.438,40.589z"/>
<path fill="#735E39" d="M53.131,40.724c-0.003,1.019-0.008,2.039-0.015,3.061c-0.353,0.448-0.705,0.897-1.06,1.349c-1.036,0.534-2.14,0.742-3.301,0.671c-1.126-0.342-2.021-1.004-2.72-1.941c-0.058-0.567-0.116-1.138-0.174-1.706c0.313-0.479,0.624-0.958,0.937-1.438C48.91,40.72,51.02,40.72,53.131,40.724z"/>
<path fill="#695433" d="M43.827,37.052c0.96,0.253,1.932,0.455,2.911,0.604c0.087,1.019,0.108,2.038,0.062,3.061c0,0.003,0.171-0.213,0.171-0.213c-3.681,2.209-6.369,2.393-6.287-3.08l-0.137,0.195C41.438,36.271,42.522,36.021,43.827,37.052z"/>
<path fill="#B38F5A" d="M43.827,37.052c-1.094,0.189-2.187,0.378-3.281,0.567c0-1.104,0.001-2.212,0.001-3.317c1.01-0.055,2.021-0.11,3.029-0.165C43.683,35.105,43.767,36.076,43.827,37.052z"/>
<path fill="#BB9762" d="M77.987,52.824c-2.016,0.079-4.03,0.162-6.046,0.241c-0.239-0.547-0.478-1.093-0.717-1.639c0.337-1.19,1.025-2.118,2.063-2.793c1.886-0.598,3.507-0.237,4.795,1.322c0,0,0.191,0.191,0.193,0.195C78.238,51.047,78.14,51.939,77.987,52.824z"/>
<path fill="#9E834D" d="M78.081,49.956c-2.152,0.082-4.304,0.164-6.455,0.247c-0.141-0.678-0.28-1.355-0.421-2.033c0.578-1.306,1.519-2.255,2.816-2.847c1.401-0.003,2.736,0.28,3.997,0.897c0,0,0.139,1.178,0.139,1.181C78.155,48.258,78.128,49.107,78.081,49.956z"/>
<path fill="#B9955F" d="M53.235,63.044c-2.084-0.244-4.167-0.488-6.251-0.735c-0.362-0.563-0.722-1.123-1.083-1.688c0.087-0.665,0.174-1.327,0.261-1.995c0.403-0.544,0.804-1.084,1.207-1.63c1.106-0.821,2.334-1.361,3.687-1.63c1.384-0.024,2.713,0.22,3.983,0.775c0.539,0.424,1.073,0.852,1.611,1.275c0.344,0.589,0.686,1.185,1.028,1.776c0.232,1.392-0.05,2.673-0.844,3.839C55.64,63.899,54.439,63.948,53.235,63.044z"/>
<path fill="#8A7149" d="M46.877,65.799c-1.058,0.074-2.115,0.146-3.172,0.227c-1.056-0.095-2.11-0.192-3.166-0.29c0.065-1.104,0.131-2.206,0.197-3.309l0.938-1.245c0.912-0.619,1.909-0.814,2.987-0.582c0.949,0.454,1.763,1.089,2.44,1.895c0,0-0.117-0.18-0.117-0.183C46.947,63.474,46.912,64.637,46.877,65.799z"/>
<path fill="#5F4D31" d="M53.235,63.044c1.019-0.37,2.037-0.735,3.056-1.103c0.663-0.17,1.328-0.342,1.992-0.512c0.463,0.506,0.925,1.013,1.387,1.52c-0.163,0.903-0.254,1.813-0.275,2.729c-1.035,0.003-2.064,0.061-3.092,0.18c-1.023-0.107-2.053-0.146-3.081-0.119C53.202,64.841,53.206,63.941,53.235,63.044z"/>
<path fill="#7C623E" d="M21.919,53.678c-0.004-1.254-0.009-2.509-0.014-3.763c5.263,2.252,10.524,4.504,15.785,6.76c0.312,0.458,0.623,0.918,0.934,1.379c-0.334,0.442-0.668,0.889-1.002,1.331c-3.183,0.015-6.368,0.03-9.551,0.043C26.021,57.511,23.97,55.594,21.919,53.678z"/>
<path fill="#8A7149" d="M40.735,62.427L39.27,62.43c0,0-1.463-0.061-1.462-0.061c-0.134-0.992-0.198-1.983-0.186-2.984l-0.06,0.122c0.51-0.528,1.018-1.06,1.526-1.59c0.671,0.296,1.343,0.595,2.014,0.888c0.763,1.404,0.627,2.683-0.554,3.806L40.735,62.427z"/>
<path fill="#B08F59" d="M40.683,37.424c2.097,1.025,4.192,2.054,6.287,3.08c0.009,1.053,0.02,2.103,0.029,3.155c0.949,2.909-0.673,4.166-3.137,4.88c-2.273-0.104-4.64,0.134-6.442-1.731l0.264,0.146c-1.822-1.849-4.792-1.428-6.59-3.326c0,0,0.224,0.195,0.224,0.198c-0.129-1.007-0.236-2.014-0.323-3.021c2.158-0.986,4.313-1.975,6.471-2.96C38.538,37.706,39.611,37.565,40.683,37.424z"/>
<path fill="#967C49" d="M71.941,53.065c-2,2.176-4.001,4.349-6.001,6.521l-0.349-0.253c-3.246,1.092-4.051-0.983-4.522-3.491c0.426-2.609,1.988-4.199,4.465-4.969c2.542-0.32,4.673,0.567,6.549,2.213L71.941,53.065z"/>
<path fill="#695433" d="M68.724,40.711c2.138,0.122,4.275,0.244,6.415,0.369c-0.054,0.9-0.089,1.801-0.103,2.704c-0.37,0.433-0.741,0.866-1.112,1.3c-1.639,0.494-3.275,1.016-4.936,0.07c-0.856-0.83-1.269-1.84-1.241-3.03C68.073,41.651,68.4,41.181,68.724,40.711z"/>
<path fill="#695433" d="M78.019,46.22c-0.921,0.293-1.86,0.495-2.82,0.601c-1.205-0.521-1.652-1.126-1.348-1.815c0.322-0.729,0.662-1.096,1.027-1.096l0.158-0.128C76.031,44.596,77.025,45.408,78.019,46.22z"/>
<path fill="#695433" d="M62.378,56.782c1.071,0.852,2.143,1.7,3.213,2.552c-0.049,1.028-0.137,2.051-0.27,3.069c-1.889,0.181-3.772,0.36-5.653,0.547c0.001,0-0.763-0.919-0.763-0.919c-1.047-0.757-1.88-1.706-2.528-2.819l0.087,0.073c-0.478-0.485-0.955-0.968-1.434-1.45c0.273-1.392,1.008-2.444,2.274-3.106C59.45,54.294,61.299,54.587,62.378,56.782z"/>
<path fill="#BB9762" d="M40.532,56.428c1.051-1.078,2.103-2.152,3.156-3.229c0.661,0.241,1.323,0.482,1.985,0.721c1.607,1.557,2.679,3.226,1.18,5.453l0.011,0.049c-0.816,1.017-1.875,1.505-3.179,1.465c-1.306-0.052-2.322-0.619-3.045-1.709l0.218,0.119c-1.129-0.519-1.552-1.114-1.274-1.791C39.877,56.788,40.192,56.428,40.532,56.428z"/>
<path fill="#695433" d="M31.093,43.629c2.197,1.111,4.395,2.218,6.59,3.326C35.488,45.847,33.29,44.74,31.093,43.629z"/>
<path fill="#735E39" d="M37.419,46.809c2.078,0.061,4.157,0.125,6.235,0.186c0.383,0.474,0.766,0.946,1.15,1.419c-0.327,0.517-0.653,1.028-0.979,1.545C41.69,48.909,39.554,47.859,37.419,46.809z"/>
<path fill="#735E39" d="M43.688,53.199c0.044-1.08,0.09-2.16,0.136-3.24c0.001,0-0.146,0.146-0.146,0.146c1.399-1.758,3.29-1.953,5.33-1.673c1.197,0.678,1.964,1.676,2.225,3.04c-0.192,1.37-0.879,2.42-2.054,3.149c-2.051,0.427-3.897,0.07-5.441-1.435L43.688,53.199z"/>
<path fill="#695433" d="M40.532,56.428c0.168,0.949,0.276,1.907,0.325,2.868c-1.099,0.07-2.197,0.141-3.294,0.211c-0.008-0.949,0.035-1.896,0.126-2.839C38.628,56.47,39.574,56.388,40.532,56.428z"/>
<path fill="#735E39" d="M62.915,40.553c-0.165-1.041-0.33-2.082-0.494-3.122c2.119,0.021,4.24,0.046,6.361,0.067c-0.019,1.071-0.037,2.14-0.057,3.211c-0.002,0.003,0.176-0.131,0.176-0.131C66.898,42.53,64.904,42.249,62.915,40.553z"/>
<path fill="#AC8C55" d="M62.915,40.553c1.996,0.009,3.99,0.015,5.986,0.024c-0.072,1.074-0.144,2.145-0.216,3.219c-0.654,1.139-1.598,1.953-2.789,2.494c-1.27,0.278-2.531,0.25-3.789-0.077c-0.548-0.333-1.094-0.668-1.64-1.001c-0.325-0.552-0.65-1.104-0.976-1.657c-0.039-0.989-0.058-1.978-0.055-2.966C60.597,40.577,61.755,40.565,62.915,40.553z"/>
<path fill="#695433" d="M56.345,44.025c1.048-0.156,2.097-0.308,3.147-0.467c0-0.003-0.299,0.717-0.299,0.717c0.765,0.647,1.062,1.336,0.893,2.069c-0.174,0.754-0.375,1.132-0.605,1.132c-0.623,0.165-1.244,0.33-1.866,0.494c-0.6-0.238-1.198-0.473-1.798-0.711C55.033,46.024,55.254,44.953,56.345,44.025z"/>
<path fill="#735E39" d="M56.345,44.025c0.015,0.757,0.055,1.511,0.122,2.265c-1.003,1.203-2.245,1.48-3.696,0.955c-0.893-1.343-0.682-2.539,0.484-3.607l-0.139,0.146C54.192,43.864,55.269,43.946,56.345,44.025z"/>
<path fill="#9E834D" d="M53.307,46.9c1.053-0.202,2.105-0.403,3.158-0.607c0.002-0.003-0.267,1.105-0.267,1.105c0.865,1.352,0.663,2.569-0.466,3.668c-2.165,0.937-4.132,0.766-5.809-1.034c-2.081,0.024-4.165,0.049-6.247,0.073c0.017-1.038,0.009-2.072-0.023-3.11c1.114-1.11,2.229-2.222,3.343-3.335c1.121,0.165,2.241,0.333,3.363,0.498C51.457,44.947,52.44,45.863,53.307,46.9z"/>
<path fill="#B38F5A" d="M53.307,46.9c-0.982-0.916-1.967-1.831-2.948-2.747c0.96-0.202,1.926-0.373,2.896-0.516C53.272,44.724,53.29,45.814,53.307,46.9z"/>
<path fill="#735E39" d="M72.082,53.086c-2.019-0.01-4.035-0.019-6.055-0.027c-0.904-1.258-0.793-2.46,0.195-3.617c2.007-1.095,3.89-1.37,5.413,0.797c0,0-0.002-0.043-0.007-0.039C71.811,51.158,71.964,52.119,72.082,53.086z"/>
<path fill="#B2905A" d="M71.636,50.239c-2.031-0.101-4.061-0.201-6.092-0.305l-1.231-0.886c-0.616-0.882-0.816-1.849-0.6-2.902c0.388-0.97,1.015-1.749,1.88-2.334c1.031,0.003,2.063-0.003,3.093-0.016c2.064,0.037,4.129,0.073,6.193,0.11c0.102,0.973,0.208,1.944,0.319,2.914C74.011,47.962,72.823,49.1,71.636,50.239z"/>
<path fill="#6C5735" d="M52.757,59.26c-0.76-0.073-1.518-0.156-2.276-0.251c-2.425-1.831-2.3-3.817-0.361-5.917l-0.162,0.135c1.86-2.191,4.087-1.63,6.342-0.846c1.053,1.37,1.009,2.704-0.135,4.001l0.214-0.263C55.504,57.551,54.201,58.485,52.757,59.26z"/>
<path fill="#9E834D" d="M50.12,53.092c0.119,1.975,0.237,3.949,0.358,5.92c-1.207,0.119-2.416,0.238-3.625,0.36c-1.039-2.063-2.077-4.123-3.116-6.186C45.864,53.157,47.993,53.125,50.12,53.092z"/>
<path fill="#BB9762" d="M52.757,59.26c1.207-1.047,2.414-2.094,3.62-3.141c0.027,1.056,0.055,2.108,0.085,3.165C55.228,59.275,53.994,59.269,52.757,59.26z"/>
<path fill="#695433" d="M43.625,59.803c1.08-0.128,2.159-0.254,3.238-0.382c0.014,1.032,0.091,2.054,0.236,3.073c-1.167-0.07-2.334-0.144-3.503-0.217c-0.905-0.562-1.201-1.113-0.891-1.66C43.01,60.075,43.317,59.803,43.625,59.803z"/>
<path fill="#BB9762" d="M56.377,59.211c0.842,0.939,1.686,1.88,2.528,2.819l-1.315,0.152c0,0-1.3-0.237-1.3-0.241C56.307,61.03,56.335,60.121,56.377,59.211z"/>
<path fill="#4C3D26" d="M43.625,59.803c0.05,0.827,0.042,1.657-0.026,2.48c-1.013,0.15-2.028,0.26-3.048,0.324c0.029-1.142,0.058-2.283,0.088-3.428C41.663,59.247,42.659,59.456,43.625,59.803z"/>
<path fill="#B7945E" d="M56.164,56.382c0.091-1.007,0.095-2.015,0.011-3.024c-0.644-0.577-1.287-1.153-1.933-1.73c0.666-0.553,1.333-1.102,2-1.654c-0.001-0.857-0.017-1.718-0.044-2.575c1.039-0.028,2.078-0.058,3.117-0.089c2.708-0.323,4.741,0.879,6.437,2.845l-0.208-0.217c0.16,1.04,0.32,2.081,0.482,3.122c-1.215,1.238-2.431,2.48-3.648,3.723C60.308,56.651,58.236,56.516,56.164,56.382z"/>
<path fill="#B38F5A" d="M56.243,49.973c-0.021,1.126-0.043,2.252-0.065,3.382c-2.074-0.043-4.145-0.089-6.218-0.132c-0.011-1.062-0.021-2.13-0.032-3.191C52.03,50.013,54.135,49.992,56.243,49.973z"/>
<path fill="#6C5735" d="M65.752,50.154c-2.146-0.949-4.291-1.898-6.435-2.848c-0.025-1.01-0.066-2.023-0.123-3.033c0.938-0.162,1.881-0.293,2.828-0.394c1.52,0.751,2.715,1.846,3.523,3.345C65.564,48.206,65.633,49.18,65.752,50.154z"/>
<path fill="#BB9762" d="M65.546,47.224c-1.171-1.114-2.343-2.231-3.52-3.345c1.188-0.021,2.378-0.045,3.568-0.067C65.578,44.95,65.561,46.088,65.546,47.224z"/>
</svg>