<?xml version="1.0" encoding="utf-8"?>
<!DOCTYPE svg PUBLIC "-//W3C//DTD SVG 1.1//EN" "http://www.w3.org/Graphics/SVG/1.1/DTD/svg11.dtd">
<svg version="1.1" xmlns="http://www.w3.org/2000/svg" xmlns:xlink="http://www.w3.org/1999/xlink" x="0px" y="0px" width="100px" height="100px" viewBox="0 0 100 100" enable-background="new 0 0 100 100" xml:space="preserve">
<path fill="#595959" d="M47.256,59.479c-2.907-2.236-5.815-4.474-8.722-6.714l0.764-1.224l-0.76-1.227c-0.023-2.246-0.046-4.492-0.07-6.741c1.888-1.676,4.071-2.454,6.597-2.179c1.692,0.437,3.311,1.074,4.835,1.926c0.508,0.238,1.025,0.479,1.533,0.717c0.525,0.18,1.06,0.363,1.584,0.543c1.099,0.088,2.203,0.067,3.301-0.049c1.086,0.083,2.152,0.299,3.19,0.641c1.088,0.189,2.042,0.65,2.837,1.429C61.465,55.756,60.794,65.152,47.256,59.479C47.258,59.476,47.256,59.479,47.256,59.479z"/>
<path fill="#7F7F7F" d="M44.258,46.799c-1.931-1.077-3.859-2.151-5.79-3.226c3-1.825,5.999-3.65,8.997-5.475c1.15,0.989,2.14,2.121,2.989,3.375c0.615,1.456,0.548,2.893-0.111,4.315C48.493,47.198,46.597,48.337,44.258,46.799z"/>
<path fill="#7B7B7B" d="M59.976,46.085c-1.089,0.248-2.179,0.495-3.269,0.742c-0.639-0.03-1.278-0.058-1.921-0.085c-1.31-0.22-2.373-0.848-3.193-1.895c-0.379-1.288-0.246-2.509,0.473-3.653c0.607-0.223,1.215-0.445,1.822-0.665c2.038,0.961,4.077,1.923,6.115,2.884c0.775,0.604,1.028,1.199,0.763,1.792C60.501,45.792,60.239,46.085,59.976,46.085z"/>
<path fill="#8E8E8E" d="M47.397,40.549c0.032-0.818,0.055-1.636,0.068-2.451c2.14,0.809,4.278,1.621,6.421,2.429c0.002,0-0.451,0.079-0.451,0.079C51.393,43.643,49.391,42.459,47.397,40.549z"/>
<path fill="#7F7F7F" d="M59.976,46.085c0.014-0.891,0.023-1.782,0.027-2.673c0.781,1.065,1.562,2.127,2.343,3.189C61.552,46.441,60.763,46.268,59.976,46.085z"/>
<path fill="#5E5E5E" d="M38.539,50.315c0.02,0.817,0.019,1.636-0.004,2.453C38.388,51.95,38.389,51.132,38.539,50.315z"/>
<path fill="#616161" d="M44.258,46.799c1.066-0.989,2.135-1.978,3.201-2.966c0.876-1.306,2.043-1.59,3.464-0.986c0.991,1.02,1.679,2.212,2.06,3.58c-0.44,1.358-1.208,2.494-2.303,3.409C48.539,48.822,46.399,47.809,44.258,46.799z"/>
<path fill="#7F7F7F" d="M50.68,49.835c-0.061-0.988-0.112-1.978-0.157-2.966c0.719-1.096,1.747-1.66,3.042-1.764c1.219,0.327,2.284,0.925,3.194,1.797l-0.052-0.076c-1.039,1.074-2.079,2.148-3.119,3.22c-1.083,1.089-2.108,1.037-3.077-0.155L50.68,49.835z"/>
<path fill="#6A6A6A" d="M47.256,59.479C47.256,59.479,47.258,59.479,47.256,59.479L47.256,59.479z"/>
<path fill="#5E5E5E" d="M50.511,49.891c1.026,0.052,2.052,0.104,3.079,0.155c-0.002,0-1.546,0.043-1.546,0.043L50.511,49.891z"/>
<path fill="#747474" d="M50.509,43.75c-1.019,0.021-2.037,0.046-3.053,0.079c-0.019-1.089-0.04-2.182-0.06-3.277c2.014,0.015,4.026,0.037,6.039,0.055c0.084,1.087,0.17,2.176,0.257,3.263c-0.55,0.476-1.099,0.952-1.648,1.428C51.534,44.781,51.021,44.266,50.509,43.75z"/>
<path fill="#686868" d="M56.759,46.902c-1.04-0.009-2.079-0.018-3.12-0.027c-1.042-0.696-1.389-1.389-1.042-2.084c0.345-0.693,0.691-1.041,1.042-1.041c0,0,0.052,0.116,0.052,0.119C54.715,44.882,55.737,45.893,56.759,46.902z"/>
<path fill="#8E8E8E" d="M53.639,43.75c0,1.041-0.002,2.084,0,3.125c-1.042,0-2.084,0-3.12-0.003c-0.01-1.044-0.013-2.082-0.008-3.122C51.553,43.75,52.595,43.75,53.639,43.75z"/>
</svg>