<?xml version="1.0" encoding="utf-8"?>
<!DOCTYPE svg PUBLIC "-//W3C//DTD SVG 1.1//EN" "http://www.w3.org/Graphics/SVG/1.1/DTD/svg11.dtd">
<svg version="1.1" xmlns="http://www.w3.org/2000/svg" xmlns:xlink="http://www.w3.org/1999/xlink" x="0px" y="0px" width="100px" height="100px" viewBox="0 0 100 100" enable-background="new 0 0 100 100" xml:space="preserve">
<path fill="#788080" d="M90.954,77.762c-2.118,1.064-4.236,2.13-6.354,3.191c0-1.91,0.001-3.82,0.001-5.733L84.6,75.232c1.043-1.041,2.087-2.084,3.131-3.125c-1.044-1.047-2.088-2.091-3.133-3.137c-1.031-2.079-2.064-4.157-3.096-6.232c-1.049-0.003-2.097-0.003-3.146-0.006c-1.45-3.524-2.9-7.05-5.288-12.851c0.285-1.19,1.224-5.109,2.162-9.027c-2.188-1.129-4.376-2.255-6.564-3.385c5.321-2.902,10.642-5.807,15.962-8.716c-0.018,0.907-0.024,1.819-0.021,2.729c-0.003,1.044-0.004,2.087-0.007,3.131c-1.039,2.082-2.077,4.16-3.116,6.241c0.389,1.327,0.778,2.655,1.565,5.344c0.783-2.692,1.171-4.02,1.557-5.35l-0.002,0.009c1.044-3.125,2.088-6.25,3.13-9.372c1.877-1.016,3.754-2.032,5.631-3.052c0.009,15.634,0.017,31.269,0.024,46.902C92.577,76.144,91.765,76.953,90.954,77.762z M84.607,53.357c0.395,0.22,0.786,0.439,1.18,0.656C85.393,53.797,85,53.577,84.607,53.357c-0.394-0.22-0.785-0.439-1.178-0.659C83.823,52.918,84.215,53.137,84.607,53.357z"/>
<path fill="#EDFEFE" d="M24.897,15.708c2.144-1.102,4.288-2.2,6.433-3.299c0.667,0.458,1.335,0.912,2.266,1.55c0.362-1.364,0.681-2.566,1-3.769c0.914-0.394,1.866-0.623,2.861-0.681c1.134,0.03,2.268,0.064,3.403,0.098c2.083,0,4.167,0,6.25,0.003l-0.011-0.012c1.034,2.072,2.067,4.141,3.101,6.21c0,2.115-0.001,4.229-0.003,6.345c-0.38,0.296-1.132,0.714-1.08,0.867c0.255,0.775,0.719,1.477,1.11,2.207c1.052,1.025,2.103,2.051,3.156,3.073c-4.179,0.021-8.356,0.04-12.534,0.061c0.001-1.041-0.024-2.081-0.078-3.119l0.093-0.015c1.037-1.041,2.075-2.082,3.112-3.125c-1.037-1.038-2.075-2.075-3.114-3.113c-2.08,0-4.158-0.003-6.238-0.003c-2.095-0.015-4.19-0.027-6.285-0.042C27.192,17.865,26.045,16.785,24.897,15.708z M39.831,14.191c0.696,0.07,1.39,0.137,2.087,0.195C41.222,14.316,40.528,14.246,39.831,14.191z"/>
<path fill="#B7BABA" d="M31.394,87.961c-2.1-1.021-4.199-2.044-6.299-3.066c0.046-2.18,0.091-4.358,0.137-6.54c0-1.041,0.001-2.085,0.001-3.128c2.083,0.003,4.167,0.003,6.25,0.003c2.089,1.044,4.178,2.087,6.267,3.128c1.038-1.044,2.075-2.088,3.115-3.134c1.721,1.086,3.444,2.176,5.632,3.555c-3.745,2.493-6.241,4.157-8.737,5.82C35.637,85.718,33.515,86.838,31.394,87.961z"/>
<path fill="#B8BBBB" d="M31.394,87.961c2.121-1.123,4.243-2.242,6.366-3.362c4.035,1.071,8.07,2.142,12.107,3.213c0.204,1.032,0.408,2.066,0.611,3.101c-0.256,1.068-0.513,2.14-0.769,3.208c-0.845,0.796-1.689,1.593-2.533,2.39C41.915,93.659,36.654,90.808,31.394,87.961z"/>
<path fill="#7C8080" d="M84.601,75.22c0,1.913-0.001,3.823-0.001,5.733c-3.046,1.245-6.093,2.493-9.139,3.739c-2.159-1.074-4.318-2.148-6.476-3.223c0.383-0.3,1.14-0.715,1.089-0.879c-0.244-0.785-0.708-1.499-1.094-2.237l0.001,0.003c0-1.041,0-2.084,0-3.125c2.082,0,4.161,0,6.243,0c1.039-1.034,2.078-2.069,3.118-3.104C80.429,73.16,82.515,74.188,84.601,75.22z"/>
<path fill="#BBBCBC" d="M7.04,34.607c-0.02-3.186-0.038-6.369-0.058-9.555c1.9,0.088,3.801,0.177,5.701,0.269l-0.103-0.034c1.044,0.873,2.088,1.746,3.13,2.619c1.077,0.171,2.154,0.339,3.232,0.506c0.073,0.983,0.162,1.962,0.27,2.942c-1.119,1.086-2.237,2.173-3.354,3.256c0.001,1.044,0.004,2.084,0.006,3.128c-1.044-0.003-2.088-0.006-3.133-0.006l0.018,0.019c-1.048-1.047-2.098-2.097-3.146-3.144C8.749,34.607,7.894,34.607,7.04,34.607z"/>
<path fill="#FAFEFE" d="M18.942,28.412c-1.078-0.167-2.155-0.335-3.23-0.503c-1.042-0.873-2.087-1.746-3.131-2.622c0,0,0.103,0.034,0.104,0.031c-0.021-1.172-0.044-2.344-0.065-3.513c4.092-2.032,8.185-4.065,12.279-6.097c1.147,1.077,2.295,2.157,3.442,3.235C25.207,22.101,22.074,25.256,18.942,28.412z"/>
<path fill="#788080" d="M62.818,91.098c-1.074,0.781-2.146,1.563-3.22,2.344c-1.039-1.904-2.078-3.809-3.117-5.71l0.003,0.003c-1.041-1.044-2.083-2.084-3.125-3.128h-0.003c2.084-2.084,4.167-4.166,6.251-6.25c1.043,0,2.085-0.003,3.129-0.003c-0.002,1.047-0.004,2.094-0.007,3.137C62.76,84.693,62.789,87.897,62.818,91.098z"/>
<path fill="#788080" d="M62.818,91.098c-0.029-3.201-0.058-6.405-0.089-9.607c1.043-1.043,2.085-2.09,3.127-3.137c1.042,0.003,2.084,0.003,3.126,0.003l-0.001-0.003c0.001,1.04,0.003,2.078,0.005,3.116c2.157,1.074,4.316,2.148,6.476,3.223C71.247,86.829,67.033,88.962,62.818,91.098z"/>
<path fill="#EDFEFE" d="M63.06,9.485c2.083,1.047,4.166,2.094,6.247,3.14c-2.181,1.065-4.36,2.13-6.541,3.195c-1.068,0-2.137,0-3.203,0c-1.036-1.032-2.07-2.066-3.106-3.098l0.038,0.034c-3.133-1.053-6.264-2.105-9.396-3.159l0.01,0.013c0-1.043-0.001-2.084-0.004-3.125C50.343,6.443,53.582,6.4,56.82,6.36c1.001,0.006,1.954,0.226,2.857,0.656C60.805,7.84,61.933,8.661,63.06,9.485z"/>
<path fill="#EDFEFE" d="M75.56,15.735c2.082,1.047,4.164,2.094,6.246,3.14c-3.22,1.062-6.439,2.127-9.66,3.189c-1.057,0.016-2.112,0.031-3.167,0.043c-3.131-1.031-6.261-2.063-9.39-3.098c2.075-1.038,4.15-2.075,6.226-3.113c2.097-0.015,4.194-0.027,6.291-0.04C73.258,15.817,74.409,15.778,75.56,15.735z"/>
<path fill="#AFBCBC" d="M7.021,56.555c0-1.071,0-2.14,0.001-3.21c1.897-1.029,3.795-2.061,5.693-3.089c1.056,0,2.11,0,3.166,0c1.035-0.016,2.069-0.027,3.104-0.04l-0.004,0.016c1.042,0,2.084,0,3.126,0c0.002,1.044,0.002,2.084,0.003,3.128c0,1.044,0.001,2.085,0.001,3.128c-2.075,1.031-4.152,2.066-6.227,3.101C12.931,58.576,9.975,57.565,7.021,56.555z"/>
<path fill="#BCBCBC" d="M7.021,56.555c2.954,1.01,5.91,2.021,8.864,3.033c2.075,0.003,4.15,0.01,6.227,0.016c0.005,1.04,0.008,2.084,0.012,3.125c-2.089,1.044-4.178,2.084-6.267,3.128c-1.042,0-2.083,0-3.125,0c-1.036,0-2.072,0-3.108-0.003c-0.868,0.003-1.738,0-2.607-0.013C7.018,62.748,7.02,59.65,7.021,56.555z"/>
<path fill="#AFBCBC" d="M7.017,65.841c0.87,0.013,1.739,0.016,2.607,0.013l-0.02-0.013c1.043,1.047,2.087,2.091,3.131,3.138c1.041,0.003,2.082,0.003,3.122,0.003l-0.006-0.006c1.045,1.047,2.092,2.09,3.138,3.137l-0.011-0.012c0,1.047,0,2.094,0,3.137l0.009-0.012c-1.039,0.003-2.08,0.006-3.119,0.009c-2.951-1.02-5.901-2.038-8.85-3.061C7.018,70.065,7.017,67.954,7.017,65.841z"/>
<path fill="#BABCBC" d="M7.018,72.174c2.949,1.022,5.899,2.041,8.85,3.061c1.036,1.047,2.072,2.094,3.11,3.144v-0.021c-0.029,1.142-0.058,2.279-0.087,3.418C14.933,78.577,10.976,75.376,7.018,72.174z"/>
<path fill="#BCBCBC" d="M7.04,34.607c0.854,0,1.709,0,2.563,0c1.048,1.047,2.098,2.097,3.146,3.144c0,0-0.018-0.019-0.017-0.019c-0.008,1.035,0.001,2.072,0.026,3.106c-1.056,1.047-2.11,2.094-3.166,3.141c-0.849,0-1.697,0-2.545,0C7.044,40.857,7.043,37.732,7.04,34.607z"/>
<path fill="#E2F2F2" d="M72.147,22.064c3.22-1.062,6.439-2.127,9.659-3.189c2.072,1.038,4.143,2.079,6.215,3.116c-1.125,0.052-2.248,0.104-3.372,0.156c-1.065-0.003-2.132-0.006-3.197-0.012C78.351,22.113,75.25,22.088,72.147,22.064z"/>
<path fill="#A7B3B3" d="M18.891,81.775c0.029-1.139,0.058-2.276,0.087-3.418c2.086,0,4.17,0,6.254-0.003c-0.046,2.182-0.091,4.36-0.137,6.54C23.027,83.853,20.959,82.816,18.891,81.775z"/>
<path fill="#FAFEFE" d="M56.82,6.36c-3.238,0.04-6.478,0.083-9.715,0.125c-1.14-0.033-2.281-0.067-3.421-0.101C48.061,6.375,52.44,6.366,56.82,6.36z"/>
<path fill="#BCBCBC" d="M7.047,43.979c0.849,0,1.697,0,2.545,0c0.012,1.05,0.024,2.1,0.037,3.146c1.03,1.044,2.058,2.087,3.087,3.131c-1.898,1.028-3.796,2.06-5.693,3.089C7.03,50.223,7.038,47.101,7.047,43.979z"/>
<path fill="#E2F2F2" d="M72.106,15.857c-2.097,0.012-4.194,0.024-6.291,0.037c-1.017-0.024-2.032-0.049-3.049-0.073c2.181-1.065,4.36-2.13,6.541-3.195c0.997-0.006,1.944,0.205,2.842,0.638C72.111,14.127,72.097,14.99,72.106,15.857z"/>
<path fill="#7E8484" d="M93.365,28.433c-1.877,1.02-3.754,2.036-5.631,3.052v-0.003c-0.032-1.138-0.064-2.28-0.095-3.421c0.076-0.916,0.171-1.828,0.284-2.737c0.999-0.159,1.978-0.403,2.934-0.736l1.317,0.476l1.392-0.152C93.499,26.087,93.431,27.261,93.365,28.433z"/>
<path fill="#808080" d="M49.71,94.12c0.256-1.068,0.513-2.14,0.767-3.211c1.934,0.94,3.87,1.88,5.807,2.823l0.409,0.467c-2.224,0.806-4.447,1.611-6.672,2.417C50.111,95.761,50.006,94.928,49.71,94.12z"/>
<path fill="#E2F2F2" d="M43.683,6.384c1.14,0.034,2.281,0.067,3.421,0.101c0.004,1.041,0.005,2.082,0.005,3.125c-2.083-0.003-4.167-0.003-6.25-0.003c0.009-0.864-0.006-1.73-0.042-2.594C41.723,6.583,42.678,6.372,43.683,6.384z"/>
<path fill="#FEFEFE" d="M34.595,10.19c-0.319,1.202-0.638,2.405-1,3.769c-0.931-0.638-1.599-1.092-2.266-1.55C32.418,11.67,33.507,10.931,34.595,10.19z"/>
<path fill="#FEFEFE" d="M12.618,21.805c0.021,1.169,0.044,2.341,0.065,3.513c-1.901-0.088-3.802-0.177-5.702-0.266C8.86,23.968,10.74,22.888,12.618,21.805z"/>
<path fill="#FEFEFE" d="M90.857,24.588c-0.956,0.333-1.935,0.577-2.934,0.736c-1.093-1.059-2.184-2.118-3.274-3.177c1.124-0.052,2.247-0.104,3.372-0.156c0.978,0.11,1.923,0.351,2.835,0.724C90.857,23.34,90.857,23.963,90.857,24.588z"/>
<path fill="#7E8080" d="M56.481,87.732c1.039,1.901,2.078,3.806,3.117,5.71c-0.941,0.356-1.91,0.607-2.906,0.757l-0.409-0.467C56.35,91.733,56.416,89.731,56.481,87.732z"/>
<path fill="#FEFEFE" d="M72.106,15.857c-0.009-0.867,0.005-1.73,0.043-2.594c1.137,0.827,2.273,1.651,3.41,2.475C74.409,15.778,73.258,15.817,72.106,15.857z"/>
<path fill="#FEFEFE" d="M63.06,9.485c-1.127-0.824-2.255-1.645-3.383-2.469C60.805,7.84,61.933,8.661,63.06,9.485z"/>
<path fill="#FEFEFE" d="M40.817,7.013c0.037,0.863,0.052,1.73,0.042,2.594c-1.135-0.034-2.269-0.067-3.403-0.098C38.575,8.676,39.696,7.846,40.817,7.013z"/>
<path fill="#808080" d="M90.954,77.762c0.812-0.81,1.623-1.618,2.436-2.427C92.577,76.144,91.765,76.953,90.954,77.762z"/>
<path fill="#FEFEFE" d="M90.857,24.588c0-0.625,0-1.248-0.001-1.874c0.903,0.732,1.807,1.465,2.71,2.197l-1.392,0.152L90.857,24.588z"/>
<path fill="#BCBCBC" d="M49.71,94.12c0.297,0.809,0.401,1.642,0.311,2.496l-1.438,0.339l-1.407-0.446C48.02,95.713,48.865,94.916,49.71,94.12z"/>
<path fill="#EDFEFE" d="M84.649,22.147c1.091,1.059,2.182,2.118,3.274,3.177c-0.113,0.909-0.208,1.822-0.282,2.743c-1.015,0.18-2.019,0.412-3.013,0.693c-5.32,2.902-10.641,5.808-15.962,8.709c0.002,0,0.149,0.013,0.149,0.013c-1.935,0.137-3.868,0.271-5.803,0.409c-1.134-1.108-2.269-2.219-3.402-3.327c-0.008-1.022-0.007-2.047,0.001-3.07l0.014-0.006c2.066-2.069,4.131-4.138,6.195-6.207c1.053-0.015,2.105-0.034,3.158-0.049c4.158-1.031,8.314-2.063,12.473-3.095C82.517,22.141,83.584,22.144,84.649,22.147z"/>
<path fill="#808080" d="M75.231,40.854c-0.938,3.918-1.877,7.837-2.162,9.027c2.388,5.801,3.838,9.326,5.288,12.851l0,0c-2.078-0.003-4.156-0.006-6.234-0.009c-1.047-1.041-2.092-2.082-3.139-3.125l0.008,0.009c-1.045,0-2.092,0-3.138,0c-1.037,0-2.076-0.003-3.114-0.003c-0.003-2.085-0.008-4.166-0.011-6.25c0.002-2.081,0.002-4.166,0.003-6.247c1.043,0,2.085,0,3.125,0c0.388,1.33,0.775,2.661,1.56,5.355c0.783-2.691,1.171-4.019,1.557-5.346c0.003-1.044,0.006-2.09,0.009-3.134C71.065,42.938,73.148,41.898,75.231,40.854z"/>
<path fill="#727B7B" d="M84.601,75.22c-2.086-1.032-4.172-2.061-6.258-3.092c-1.037-0.016-2.075-0.021-3.112-0.024l0.003,0.006c1.041-3.128,2.083-6.253,3.123-9.378l0,0c1.049,0.003,2.097,0.003,3.146,0.006c1.031,2.075,2.064,4.153,3.096,6.232c1.045,1.046,2.089,2.09,3.133,3.137c-1.044,1.041-2.088,2.084-3.131,3.125V75.22z"/>
<path fill="#727B7B" d="M75.231,40.854c-2.083,1.043-4.166,2.084-6.249,3.128c-0.055-2.167-0.111-4.333-0.166-6.5c0,0-0.147-0.013-0.149-0.013C70.855,38.599,73.043,39.725,75.231,40.854z"/>
<path fill="#7E8484" d="M87.734,31.485c-1.042,3.122-2.086,6.247-3.13,9.372c-0.001-2.081-0.003-4.163-0.004-6.244c0.003-1.043,0.004-2.087,0.007-3.131c1.043,0,2.085,0,3.127,0V31.485z"/>
<path fill="#808080" d="M84.598,68.97c-1.031-2.079-2.064-4.157-3.096-6.232C82.534,64.813,83.567,66.891,84.598,68.97z"/>
<path fill="#727B7B" d="M84.6,34.613c0.001,2.082,0.003,4.163,0.004,6.244l0.002-0.009c-1.041,0.006-2.081,0.006-3.122,0.006C82.523,38.773,83.561,36.694,84.6,34.613z"/>
<path fill="#808080" d="M81.484,40.854c1.041,0,2.081,0,3.122-0.006c-0.386,1.331-0.773,2.658-1.557,5.35C82.262,43.509,81.873,42.181,81.484,40.854z"/>
<path fill="#808080" d="M84.607,53.357c-0.392-0.22-0.784-0.439-1.178-0.659C83.822,52.918,84.213,53.137,84.607,53.357L84.607,53.357z"/>
<path fill="#808080" d="M84.6,75.232c1.043-1.041,2.087-2.084,3.131-3.125C86.687,73.148,85.643,74.191,84.6,75.232z"/>
<path fill="#727B7B" d="M87.734,31.482c-1.042,0-2.084,0-3.127,0c-0.003-0.909,0.004-1.822,0.021-2.729c0.994-0.274,1.998-0.506,3.013-0.687C87.67,29.202,87.702,30.344,87.734,31.482z"/>
<path fill="#808080" d="M84.607,53.357c0.393,0.22,0.786,0.439,1.18,0.656C85.393,53.797,85.002,53.577,84.607,53.357L84.607,53.357z"/>
<path fill="#E4F5F5" d="M18.942,28.412c3.132-3.155,6.265-6.311,9.398-9.469c2.095,0.015,4.19,0.027,6.285,0.042c2.08,1.038,4.161,2.075,6.243,3.113c0,1.044-0.001,2.087-0.003,3.128l-0.093,0.015c-2.054,1.035-4.108,2.072-6.163,3.106c-1.073,2.118-2.147,4.233-3.22,6.351c-4.059-1.114-8.118-2.231-12.176-3.345C19.103,30.374,19.015,29.395,18.942,28.412z"/>
<path fill="#E4F4F4" d="M68.979,25.232c-1.053,0.015-2.105,0.034-3.156,0.049c-2.066,2.069-4.131,4.138-6.197,6.207l-0.014,0.006c-4.159,0.009-8.319,0.021-12.48,0.031c-2.098-0.016-4.198-0.028-6.296-0.043c0.008-1.044,0.015-2.084,0.023-3.128l-0.011,0.006c4.178-0.021,8.355-0.04,12.532-0.058c2.069-3.098,4.14-6.195,6.209-9.293c3.129,1.035,6.259,2.066,9.39,3.098C68.981,23.148,68.981,24.192,68.979,25.232z"/>
<path fill="#FEFEFE" d="M59.589,19.009c-2.069,3.098-4.14,6.195-6.209,9.293c-1.052-1.025-2.103-2.051-3.154-3.076c0.002-1.025-0.008-2.048-0.03-3.073c0.002-2.115,0.003-4.23,0.005-6.345c2.098-1.016,4.196-2.036,6.294-3.052l-0.038-0.034c1.036,1.032,2.07,2.066,3.106,3.098c1.066,0,2.135,0,3.203,0c1.017,0.024,2.032,0.049,3.049,0.073C63.74,16.934,61.665,17.972,59.589,19.009z"/>
<path fill="#E2F2F2" d="M56.495,12.756c-2.098,1.016-4.196,2.036-6.294,3.052c-1.035-2.069-2.068-4.138-3.103-6.21C50.231,10.651,53.362,11.704,56.495,12.756z"/>
<path fill="#E2F2F2" d="M39.832,14.185c0.696,0.061,1.39,0.131,2.084,0.208C41.221,14.328,40.526,14.261,39.832,14.185z"/>
<path fill="#FEFEFE" d="M40.867,22.098c-2.082-1.038-4.163-2.075-6.243-3.113c2.08,0,4.158,0.003,6.238,0.003c-0.003,1.041-0.006,2.082-0.007,3.122L40.867,22.098z"/>
<path fill="#E2F2F2" d="M34.608,28.348c2.055-1.035,4.109-2.072,6.163-3.106c0.053,1.038,0.079,2.078,0.078,3.119l0.011-0.006C38.775,28.351,36.692,28.351,34.608,28.348z"/>
<path fill="#E2F2F2" d="M50.196,22.153c0.022,1.025,0.032,2.048,0.03,3.073c-0.392-0.729-0.855-1.432-1.11-2.207C49.064,22.867,49.816,22.449,50.196,22.153z"/>
<path fill="#FEFEFE" d="M40.864,25.226c0.001-1.041,0.003-2.084,0.003-3.128l-0.012,0.012c1.041-0.003,2.081-0.006,3.122-0.009C42.939,23.145,41.901,24.185,40.864,25.226z"/>
<path fill="#E2F2F2" d="M43.976,22.101c-1.041,0.003-2.081,0.006-3.122,0.009c0.001-1.041,0.004-2.081,0.007-3.122C41.901,20.026,42.939,21.063,43.976,22.101z"/>
<path fill="#BCBCBC" d="M40.865,75.223c-1.04,1.046-2.077,2.09-3.115,3.134c-0.012-2.075-0.022-4.15-0.035-6.226c-1.035-2.097-2.071-4.19-3.107-6.286c1.063-3.129,2.127-6.257,3.189-9.388c3.087-2.072,6.174-4.145,9.261-6.217c0.946-0.012,1.89-0.046,2.839-0.098c0.184,1.099,0.359,2.194,0.536,3.287l-0.423-0.171C46.963,60.581,43.914,67.902,40.865,75.223z"/>
<path fill="#A8B4B4" d="M40.865,75.223c3.048-7.321,6.097-14.643,9.152-21.961c0.192,7.327,0.38,14.651,0.566,21.976c-0.211,1.001-0.226,2.005-0.048,3.013c0.004,2.127,0.008,4.251,0.011,6.378c-0.227,1.062-0.453,2.121-0.68,3.183c-4.037-1.071-8.072-2.142-12.107-3.213c2.497-1.663,4.993-3.327,8.737-5.82C44.309,77.399,42.587,76.309,40.865,75.223z"/>
<path fill="#AFBCBC" d="M25.233,78.354c-2.084,0.003-4.168,0.003-6.254,0.003v0.021c0.003-1.05,0.006-2.103,0.009-3.152l-0.009,0.012c1.045-1.043,2.09-2.09,3.136-3.137l-0.013,0.012c1.045,0,2.092,0,3.138,0l-0.011-0.012c0.001,1.043,0.004,2.084,0.006,3.125C25.234,76.269,25.233,77.313,25.233,78.354z"/>
<path fill="#A7B3B3" d="M37.716,72.131c0.012,2.075,0.023,4.15,0.035,6.226c-2.089-1.041-4.178-2.084-6.267-3.125l-0.004,0.006C33.559,74.204,35.637,73.166,37.716,72.131z"/>
<path fill="#A7B3B3" d="M25.234,75.226c-0.001-1.041-0.004-2.082-0.006-3.125c2.084,1.047,4.168,2.09,6.251,3.137l0.004-0.006C29.401,75.229,27.317,75.229,25.234,75.226z"/>
<path fill="#788080" d="M49.867,87.811c0.227-1.062,0.453-2.121,0.679-3.183c0.936-0.013,1.874-0.021,2.811-0.021h0.003c1.042,1.044,2.084,2.084,3.125,3.128l-0.003-0.003c-0.065,1.999-0.131,4.001-0.198,6c-1.937-0.943-3.873-1.883-5.807-2.823C50.275,89.878,50.071,88.843,49.867,87.811z"/>
<path fill="#727B7B" d="M75.225,75.232c-2.082,0-4.161,0-6.243,0h0.002c2.083-1.041,4.167-2.081,6.25-3.122l-0.003-0.006C75.228,73.148,75.226,74.188,75.225,75.232z"/>
<path fill="#808080" d="M75.225,75.232c0.001-1.044,0.003-2.084,0.006-3.128c1.037,0.003,2.075,0.009,3.112,0.024C77.303,73.163,76.264,74.198,75.225,75.232z"/>
<path fill="#727B7B" d="M68.982,78.357c-1.042,0-2.084,0-3.126-0.003l0.003,0.006c1.042-1.044,2.083-2.084,3.125-3.128h-0.002C68.982,76.273,68.982,77.316,68.982,78.357z"/>
<path fill="#727B7B" d="M68.986,81.47c-0.002-1.038-0.004-2.076-0.005-3.116c0.386,0.738,0.85,1.452,1.094,2.237C70.126,80.755,69.369,81.171,68.986,81.47z"/>
<path fill="#B1BCBC" d="M19.212,31.354c4.059,1.114,8.118,2.23,12.176,3.345c0.001-0.003,0.087-0.089,0.087-0.089c0.054,0.949,0.187,1.886,0.396,2.811c0,0-0.62,0.437-0.617,0.434c-3.055,1.004-6.111,2.008-9.167,3.012c-1.036-0.009-2.072-0.012-3.106-0.012l0.003,0.003c0-1.041,0-2.084,0-3.125c-1.042-1.041-2.083-2.081-3.125-3.122C16.974,33.527,18.093,32.44,19.212,31.354z"/>
<path fill="#A7B3B3" d="M12.758,40.838c-0.024-1.034-0.034-2.072-0.026-3.106c1.043,0,2.087,0.003,3.131,0.006l-0.006-0.006c0,1.041,0,2.084,0,3.125C14.824,40.857,13.792,40.851,12.758,40.838z"/>
<path fill="#A7B3B3" d="M15.858,34.61c1.042,1.041,2.083,2.082,3.125,3.122c-1.042,0-2.083,0-3.125,0l0.006,0.006C15.862,36.694,15.859,35.654,15.858,34.61z"/>
<path fill="#A7B3B3" d="M12.749,37.751c-1.048-1.047-2.098-2.097-3.146-3.144C10.651,35.654,11.701,36.704,12.749,37.751z"/>
<path fill="#FEFEFE" d="M12.58,25.287c1.044,0.876,2.089,1.749,3.131,2.622C14.668,27.033,13.624,26.16,12.58,25.287z"/>
<path fill="#808080" d="M53.356,84.607c-0.937,0-1.875,0.009-2.811,0.021c-0.002-2.127-0.006-4.251-0.013-6.378c0.938-1.005,1.88-2.012,2.821-3.019c2.082,0,4.164,0.003,6.247,0.003c0.006,1.041,0.008,2.081,0.006,3.122C57.523,80.441,55.44,82.523,53.356,84.607z"/>
<path fill="#727B7B" d="M59.607,78.357c0.002-1.041,0-2.081-0.006-3.122c0.003-1.044,0.006-2.087,0.008-3.134c1.039,0.006,2.077,0.012,3.114,0.018c0.002,2.082,0.005,4.16,0.006,6.241l0.007-0.006C61.692,78.354,60.65,78.357,59.607,78.357z"/>
<path fill="#727B7B" d="M65.856,78.354c-1.042,1.047-2.084,2.094-3.127,3.137c0.003-1.043,0.005-2.09,0.007-3.137l-0.007,0.006c1.044,0,2.088,0,3.13,0L65.856,78.354z"/>
<path fill="#808080" d="M56.484,87.735c-1.041-1.044-2.083-2.084-3.125-3.128C54.401,85.651,55.443,86.691,56.484,87.735z"/>
<path fill="#E2F2F2" d="M59.563,15.82c-1.036-1.032-2.07-2.066-3.106-3.098C57.493,13.755,58.527,14.789,59.563,15.82z"/>
<path fill="#FBFEFE" d="M68.979,25.232c0.002-1.041,0.002-2.084,0-3.125c1.055-0.012,2.11-0.027,3.167-0.043c3.104,0.024,6.205,0.049,9.306,0.07C77.294,23.169,73.137,24.201,68.979,25.232z"/>
<path fill="#BCBCBC" d="M22.11,53.36c-0.001-1.044-0.001-2.084-0.002-3.128l-0.006,0.009c3.05-4.129,6.101-8.258,9.149-12.384c0,0,0.62-0.437,0.616-0.433c0.92,0.171,1.834,0.378,2.741,0.616c-2.077,5.115-4.153,10.227-6.23,15.341c-1.05,1.034-2.1,2.072-3.149,3.106C24.189,55.445,23.15,54.404,22.11,53.36z"/>
<path fill="#A7B3B3" d="M12.716,50.256c-1.029-1.044-2.057-2.087-3.087-3.131c3.111,0,6.221,0,9.332,0c0.02,1.034,0.028,2.072,0.02,3.106l0.004-0.016c-1.035,0.01-2.069,0.024-3.104,0.04C14.826,50.256,13.772,50.256,12.716,50.256z"/>
<path fill="#BCBCBC" d="M18.981,50.232c0.008-1.034,0-2.072-0.02-3.106c0.006-2.091,0.012-4.181,0.019-6.271c1.035,0,2.07,0.003,3.106,0.012c0.005,3.125,0.011,6.25,0.015,9.375l0.006-0.009C21.066,50.232,20.023,50.232,18.981,50.232z"/>
<path fill="#A7B3B3" d="M22.112,59.604c-2.077-0.006-4.152-0.013-6.227-0.016c2.075-1.034,4.152-2.069,6.227-3.101l-0.009-0.012c0,1.047,0,2.09,0,3.137L22.112,59.604z"/>
<path fill="#BCBCBC" d="M15.882,50.256c1.035-0.016,2.069-0.03,3.104-0.04C17.951,50.229,16.917,50.241,15.882,50.256z"/>
<path fill="#A7B3B3" d="M22.11,53.36c1.039,1.044,2.079,2.085,3.118,3.128l0.011-0.009c-1.045,0-2.091-0.003-3.136-0.003l0.009,0.012C22.112,55.445,22.11,54.404,22.11,53.36z"/>
<path fill="#AFBCBC" d="M31.48,75.238c-2.083-1.047-4.167-2.09-6.251-3.137l0.011,0.012c-1.045,0-2.092,0-3.138,0l0.013-0.012c-1.045,0-2.091,0-3.136,0l0.011,0.012c-1.045-1.047-2.092-2.09-3.138-3.137l0.006,0.006c0-1.041,0-2.084,0-3.125c2.089-1.044,4.178-2.084,6.267-3.128l-0.02-0.013c1.035,0.013,2.069,0.024,3.104,0.04c1.042-0.016,2.084-0.027,3.126-0.04c2.095,1.047,4.19,2.091,6.285,3.138l-0.011-0.009c1.036,2.096,2.072,4.189,3.107,6.286C35.637,73.166,33.559,74.204,31.48,75.238z"/>
<path fill="#A7B3B3" d="M28.335,62.716c-1.042,0.013-2.084,0.024-3.125,0.04c-1.035-0.016-2.07-0.03-3.105-0.04l0.02,0.013c-0.004-1.041-0.007-2.085-0.012-3.125l-0.009,0.009c1.045-1.047,2.09-2.09,3.136-3.134l-0.011,0.009c1.05-1.034,2.1-2.072,3.149-3.106c3.111-1.041,6.224-2.081,9.335-3.122c0.029,2.066,0.058,4.132,0.087,6.198c-1.063,3.131-2.127,6.259-3.19,9.388l0.011,0.009c-0.598-1.755-1.198-3.51-2.016-5.911C30.637,61.221,29.485,61.969,28.335,62.716z"/>
<path fill="#A7B3B3" d="M9.624,65.854c1.036,0.003,2.072,0.003,3.108,0.003l0.012-0.012c-1.047-0.004-2.094-0.004-3.14-0.004L9.624,65.854z"/>
<path fill="#A7B3B3" d="M15.858,65.857c0,1.041,0,2.084,0,3.125c-1.041,0-2.082,0-3.122-0.003c0.003-1.044,0.006-2.091,0.009-3.134l-0.012,0.012C13.775,65.857,14.816,65.857,15.858,65.857z"/>
<path fill="#BCBCBC" d="M12.745,65.845c-0.003,1.043-0.006,2.09-0.009,3.134c-1.043-1.047-2.087-2.091-3.131-3.138C10.651,65.841,11.698,65.841,12.745,65.845z"/>
<path fill="#A7B3B3" d="M15.851,68.976c1.045,1.047,2.092,2.09,3.138,3.137C17.943,71.066,16.897,70.023,15.851,68.976z"/>
<path fill="#A7B3B3" d="M18.978,72.101c1.045,0,2.09,0,3.136,0c-1.045,1.047-2.091,2.094-3.136,3.137C18.978,74.195,18.978,73.148,18.978,72.101z"/>
<path fill="#A7B3B3" d="M18.987,75.226c-0.003,1.05-0.006,2.103-0.009,3.152c-1.038-1.05-2.074-2.097-3.11-3.144C16.907,75.232,17.948,75.229,18.987,75.226z"/>
<path fill="#AFBCBC" d="M18.98,40.854c-0.006,2.09-0.012,4.181-0.019,6.271c-3.111,0-6.221,0-9.332,0c-0.012-1.047-0.024-2.097-0.037-3.146c1.056-1.047,2.11-2.094,3.166-3.141c1.033,0.013,2.066,0.019,3.099,0.019c1.042,0,2.083,0,3.125,0L18.98,40.854z"/>
<path fill="#798080" d="M68.816,37.482c0.055,2.167,0.111,4.333,0.166,6.5c-0.003,1.044-0.006,2.09-0.009,3.134c-1.039-0.006-2.076-0.009-3.116-0.009s-2.082,0-3.125,0c-1.042,0-2.082,0-3.125,0.003c0.005-1.913,0.011-3.824,0.016-5.737c1.131-1.16,2.26-2.322,3.391-3.482C64.948,37.754,66.881,37.619,68.816,37.482z"/>
<path fill="#E2F2F2" d="M63.013,37.891c-1.131,1.16-2.26,2.322-3.391,3.482c-3.022,0.992-6.047,1.98-9.069,2.973c-2.142-0.141-4.282-0.281-6.424-0.418c-0.091-0.961-0.179-1.92-0.262-2.881c0,0,0.154-0.278,0.151-0.272c-0.003,0.009,1.541,0.077,1.541,0.077h1.544c2.092-1.05,4.184-2.1,6.275-3.149c2.078-1.047,4.155-2.091,6.232-3.138C60.745,35.672,61.88,36.783,63.013,37.891z"/>
<path fill="#FBFEFE" d="M59.611,34.564c-2.077,1.047-4.154,2.091-6.232,3.138c0,0,0.013,0.024,0.011,0.024c-2.087-1.053-4.176-2.109-6.264-3.162c-0.007-1.013-0.004-2.026,0.008-3.039c4.159-0.009,8.319-0.021,12.479-0.031C59.604,32.517,59.603,33.542,59.611,34.564z"/>
<path fill="#FEFEFE" d="M59.626,31.488c2.066-2.069,4.131-4.138,6.197-6.207C63.756,27.35,61.692,29.419,59.626,31.488z"/>
<path fill="#7A8080" d="M59.609,72.101c-0.002,1.047-0.005,2.09-0.008,3.134c-2.083,0-4.165-0.003-6.247-0.003c-0.925,0-1.848,0.003-2.771,0.006c-0.187-7.324-0.374-14.648-0.566-21.976c-0.006-0.003,0.417,0.168,0.414,0.168c0.972-0.058,1.948-0.082,2.926-0.073l0.005,0.006c1.039,1.035,2.078,2.072,3.117,3.107c-1.039,2.09-2.076,4.181-3.114,6.271c2.083-0.003,4.164-0.006,6.247-0.012l-0.008,0.006c1.041-1.04,2.082-2.081,3.122-3.122l0.014-0.009c1.038,0,2.077,0.003,3.114,0.003c1.046,0,2.093,0,3.138,0l-0.008-0.009c-1.041,2.087-2.083,4.175-3.123,6.262c-1.039,1.038-2.078,2.078-3.118,3.116C61.698,70.016,60.654,71.06,59.609,72.101z"/>
<path fill="#788080" d="M65.859,78.36c-1.042,0-2.086,0-3.13,0c-0.001-2.081-0.004-4.159-0.006-6.241c1.045-1.046,2.089-2.096,3.133-3.146l-0.006,0.009c1.04-1.037,2.079-2.075,3.12-3.113c1.052-1.049,2.103-2.096,3.152-3.146c2.078,0.003,4.156,0.006,6.234,0.009c-1.04,3.125-2.082,6.25-3.123,9.378c-2.083,1.041-4.167,2.081-6.25,3.122C67.942,76.276,66.901,77.316,65.859,78.36z"/>
<path fill="#788080" d="M53.365,62.741c1.038-2.09,2.075-4.181,3.114-6.271c0.002-1.041,0.003-2.079,0.003-3.119l-0.006,0.006c2.085,0,4.169,0,6.253-0.003c0.003,2.084,0.008,4.165,0.011,6.25l-0.014,0.009c-1.04,1.041-2.081,2.082-3.122,3.122l0.008-0.006C57.529,62.735,55.448,62.738,53.365,62.741z"/>
<path fill="#727B7B" d="M62.729,53.354c-2.084,0.003-4.168,0.003-6.253,0.003c1.044-2.081,2.088-4.166,3.131-6.247c1.043-0.003,2.083-0.003,3.125-0.003C62.731,49.188,62.731,51.273,62.729,53.354z"/>
<path fill="#727B7B" d="M72.123,62.723c-1.05,1.05-2.101,2.097-3.152,3.146c-1.037-0.009-2.077-0.012-3.114-0.015l0.005,0.006c1.04-2.087,2.082-4.175,3.123-6.262C70.031,60.641,71.076,61.682,72.123,62.723z"/>
<path fill="#727B7B" d="M65.857,47.107c1.04,0,2.077,0.003,3.116,0.009c-0.386,1.328-0.773,2.655-1.557,5.346C66.632,49.768,66.245,48.437,65.857,47.107z"/>
<path fill="#727B7B" d="M68.992,59.607c-1.045,0-2.092,0-3.138,0C66.9,59.607,67.947,59.607,68.992,59.607z"/>
<path fill="#FEFEFE" d="M34.608,28.348c2.084,0.003,4.167,0.003,6.251,0.006c-0.008,1.043-0.015,2.084-0.023,3.128c-3.12,1.044-6.241,2.087-9.361,3.128c0,0-0.085,0.085-0.087,0.089C32.461,32.581,33.535,30.466,34.608,28.348z"/>
<path fill="#F2FAFA" d="M31.475,34.61c3.121-1.041,6.241-2.084,9.361-3.128c2.098,0.015,4.198,0.027,6.296,0.043c-0.011,1.013-0.014,2.026-0.006,3.039c-1.05,1.063-2.098,2.127-3.147,3.189c-0.002,1.004,0.012,2.011,0.042,3.015c0,0-0.154,0.278-0.152,0.274c-2.031-0.11-4.063-0.22-6.098-0.33c-1.054-0.891-2.109-1.779-3.163-2.67c-0.906-0.241-1.82-0.449-2.741-0.62C31.661,36.496,31.528,35.559,31.475,34.61z"/>
<path fill="#BCBCBC" d="M44.13,43.924c2.141,0.141,4.281,0.281,6.423,0.421c-0.205,0.897-0.434,1.788-0.686,2.673c-0.937,1.074-1.872,2.148-2.809,3.222c-3.087,2.072-6.174,4.145-9.261,6.217c-0.027-2.066-0.056-4.132-0.085-6.198c0.008-1.053,0.016-2.103,0.023-3.155C39.867,46.045,41.999,44.986,44.13,43.924z"/>
<path fill="#A8B4B4" d="M47.059,50.241c0.937-1.074,1.873-2.148,2.812-3.222c0.266,1.16,0.529,2.323,0.792,3.482l-0.769-0.357C48.949,50.195,48.005,50.229,47.059,50.241z"/>
<path fill="#788080" d="M53.357,53.357c-0.978-0.009-1.954,0.016-2.926,0.073c-0.174-1.093-0.35-2.188-0.533-3.287c-0.004,0,0.765,0.357,0.764,0.354C51.557,51.45,52.458,52.402,53.357,53.357z"/>
<path fill="#788080" d="M50.584,75.238c0.923-0.003,1.846-0.006,2.771-0.006c-0.941,1.007-1.883,2.014-2.821,3.019C50.358,77.243,50.373,76.239,50.584,75.238z"/>
<path fill="#A7B3B3" d="M22.101,72.113c1.045,0,2.092,0,3.138,0C24.193,72.113,23.147,72.113,22.101,72.113z"/>
<path fill="#ACB5B5" d="M22.101,50.241c-0.004-3.125-0.01-6.25-0.015-9.375c3.057-1.004,6.113-2.008,9.167-3.012C28.202,41.983,25.151,46.112,22.101,50.241z"/>
<path fill="#BCBCBC" d="M18.983,40.857c-1.042,0-2.083,0-3.125,0c0-1.041,0-2.084,0-3.125c1.042,0,2.083,0,3.125,0C18.983,38.773,18.983,39.817,18.983,40.857z"/>
<path fill="#808080" d="M65.856,68.973c-1.044,1.05-2.088,2.1-3.133,3.146c-1.037-0.006-2.075-0.012-3.114-0.018c1.045-1.041,2.089-2.085,3.134-3.125l1.557,0.003L65.856,68.973z"/>
<path fill="#AFBCBC" d="M37.735,47.104c-0.007,1.053-0.015,2.103-0.023,3.155c-3.111,1.041-6.224,2.081-9.335,3.122c2.077-5.114,4.153-10.227,6.23-15.341c1.054,0.894,2.109,1.782,3.163,2.673C37.758,42.844,37.746,44.974,37.735,47.104z"/>
<path fill="#AFBCBC" d="M25.239,56.479c-1.045,1.044-2.091,2.087-3.136,3.134c0-1.047,0-2.09,0-3.137C23.148,56.476,24.193,56.479,25.239,56.479z"/>
<path fill="#BBBCBC" d="M28.335,62.716c1.15-0.747,2.303-1.495,4.27-2.773c0.818,2.401,1.417,4.156,2.016,5.911C32.525,64.807,30.43,63.763,28.335,62.716z"/>
<path fill="#BCBCBC" d="M22.105,62.716c1.035,0.01,2.07,0.024,3.105,0.04C24.173,62.741,23.139,62.729,22.105,62.716z"/>
<path fill="#7F8080" d="M53.357,53.357c-0.899-0.955-1.8-1.907-2.695-2.859c-0.262-1.156-0.525-2.319-0.791-3.479c0.249-0.885,0.478-1.776,0.683-2.673c3.022-0.992,6.047-1.98,9.069-2.973c-0.005,1.914-0.011,3.824-0.016,5.737c-1.043,2.081-2.087,4.166-3.131,6.247l0.006-0.006c-1.039,0.006-2.079,0.009-3.12,0.012L53.357,53.357z"/>
<path fill="#A7B3B3" d="M37.735,47.104c0.011-2.13,0.023-4.26,0.035-6.391c2.034,0.11,4.066,0.22,6.098,0.33c0.082,0.964,0.169,1.923,0.261,2.884C41.999,44.986,39.867,46.045,37.735,47.104z"/>
<path fill="#EDFEFE" d="M53.379,37.702c-2.092,1.05-4.184,2.1-6.275,3.149c0.009-1.025,0.001-2.051-0.023-3.076c2.103-0.016,4.207-0.034,6.311-0.049L53.379,37.702z"/>
<path fill="#FEFEFE" d="M47.08,37.775c0.024,1.025,0.032,2.051,0.023,3.076h-1.544c0,0-1.544-0.067-1.541-0.077c-0.027-1.01-0.042-2.017-0.04-3.021l1.552-0.003L47.08,37.775z"/>
<path fill="#E2F2F2" d="M47.08,37.775l-1.55-0.024l-1.552,0.003c1.05-1.062,2.098-2.127,3.147-3.189c2.088,1.053,4.177,2.109,6.264,3.162C51.287,37.741,49.183,37.759,47.08,37.775z"/>
<path fill="#727B7B" d="M53.365,62.741c2.083-0.003,4.164-0.006,6.247-0.012C57.529,62.735,55.448,62.738,53.365,62.741z"/>
<path fill="#727B7B" d="M59.604,62.735c1.041-1.04,2.082-2.081,3.122-3.122C61.686,60.654,60.645,61.695,59.604,62.735z"/>
<path fill="#727B7B" d="M65.856,68.973l-1.557,0.006l-1.557-0.003c1.04-1.038,2.079-2.078,3.118-3.116l-0.005-0.006c-0.003,1.044-0.005,2.087-0.006,3.128L65.856,68.973z"/>
<path fill="#727B7B" d="M53.362,53.363c1.041-0.003,2.081-0.006,3.12-0.012c0,1.04-0.001,2.078-0.003,3.119C55.44,55.435,54.401,54.398,53.362,53.363z"/>
<path fill="#808080" d="M65.85,68.982c0.001-1.041,0.003-2.084,0.006-3.128c1.037,0.003,2.077,0.006,3.114,0.015C67.929,66.907,66.89,67.945,65.85,68.982z"/>
</svg>