<?xml version="1.0" encoding="utf-8"?>
<!DOCTYPE svg PUBLIC "-//W3C//DTD SVG 1.1//EN" "http://www.w3.org/Graphics/SVG/1.1/DTD/svg11.dtd">
<svg version="1.1" xmlns="http://www.w3.org/2000/svg" xmlns:xlink="http://www.w3.org/1999/xlink" x="0px" y="0px" width="100px" height="100px" viewBox="0 0 100 100" enable-background="new 0 0 100 100" xml:space="preserve">
<path fill="#95C066" d="M43.814,0c0.018,6.317,0.037,12.634,0.057,18.951c3.247,3.94,3.428,7.871-0.034,11.792c-0.275,10.584-0.551,21.167-0.827,31.751c-2.196,1.764-4.305,1.349-6.369-0.247c-5.09-7.557,0.729-17.151-4.602-24.668c-0.014-2.16-0.027-4.318-0.041-6.479c2.591-3.174,2.413-6.979,2.434-10.745C35.25,13.528,32.302,6.133,37.565,0C39.647,0,41.731,0,43.814,0z"/>
<path fill="#95C066" d="M18.009,50.009c0.267,16.663,0.536,33.329,0.804,49.991c-2.083,0-4.167,0-6.25,0c-9.081-9.57-1.407-22.36-6.323-32.724c-0.87-1.249-1.546-2.588-2.066-4.011C3.782,61.794,3.67,60.296,3.78,58.78c0.264-1.489,0.827-2.872,1.593-4.175c1.866-2.316,4.033-4.297,6.699-5.688C14.247,48.182,16.31,48.114,18.009,50.009z"/>
<path fill="#95C066" d="M18.009,50.009c-1.888,0.056-3.773,0.113-5.659,0.171c-0.606-0.516-1.213-1.031-1.828-1.541C4.539,37.9,11.652,24.93,4.658,14.365c-0.885-2.255-1.045-4.56-0.444-6.906c1.265-4.178,5.969-4.514,8.35-7.458c2.083,0,4.167,0,6.25,0c-0.015,4.285-0.031,8.572-0.044,12.857c1.709,1.626,2.75,3.571,2.817,5.972c-0.067,2.393-1.104,4.349-2.73,6.04C18.574,33.249,18.292,41.629,18.009,50.009z"/>
<path fill="#81A759" d="M93.052,62.384C93.305,74.924,93.56,87.46,93.813,100c-2.082,0-4.167,0-6.25,0c-7.781-9.286,0.176-21.479-5.74-31.109c-0.006-2.216-0.011-4.432-0.017-6.65c1.601-1.498,3.421-2.529,5.67-2.643C89.732,59.732,91.534,60.775,93.052,62.384z"/>
<path fill="#95C066" d="M37.85,62.445c1.72,0.015,3.439,0.03,5.159,0.049c0.269,12.503,0.536,25.003,0.804,37.506c-2.083,0-4.167,0-6.25,0c-6.567-7.26-0.029-17.426-5.525-24.921c-0.458-2.139-0.914-4.275-1.37-6.411c0.247-0.617,0.495-1.233,0.739-1.853c1.327-1.495,2.823-2.802,4.515-3.879C36.563,62.772,37.207,62.606,37.85,62.445z"/>
<path fill="#A5D571" d="M6.318,62.609c2.057,6.94,4.691,13.776,5.983,20.859c0.977,5.347,0.238,11.008,0.262,16.531c-2.083,0-4.167,0-6.25,0C1.615,87.537,1.359,75.07,6.318,62.609z"/>
<path fill="#9FD168" d="M81.823,68.891C83.737,79.26,85.65,89.63,87.563,100c-2.082,0-4.167,0-6.25,0c-0.899-5.219-1.802-10.44-2.775-16.083C79.527,79.392,80.675,74.143,81.823,68.891z"/>
<path fill="#A9DA74" d="M56.915,31.326C56.714,20.886,56.514,10.443,56.313,0c2.083,0,4.168,0,6.25,0c5.764,8.393,2.557,17.764,2.921,26.746c-0.151,1.706-0.746,3.238-1.779,4.602C61.437,32.974,59.173,33.164,56.915,31.326z"/>
<path fill="#81A759" d="M63.219,31.049C63.001,20.7,62.781,10.349,62.563,0c2.083,0,4.168,0,6.25,0c0.064,4.123,0.129,8.246,0.192,12.369c1.678,2.17,1.678,4.343,0,6.513c-0.262,4.153-0.524,8.31-0.788,12.466C66.444,33.054,64.793,32.69,63.219,31.049z"/>
<path fill="#A9DA74" d="M37.564,0c-0.104,8.466-0.209,16.931-0.313,25.394c-1.868,1.432-3.651,1.422-5.336-0.308c-0.2-8.362-0.401-16.724-0.601-25.085C33.397,0,35.481,0,37.564,0z"/>
<path fill="#A3D26F" d="M32.038,75.079c1.842,8.308,3.684,16.614,5.525,24.921c-2.083,0-4.167,0-6.25,0C31.555,91.693,31.797,83.387,32.038,75.079z"/>
<path fill="#81A759" d="M56.924,93.954c-0.029-2.246-0.059-4.489-0.086-6.731c1.589-1.502,3.404-2.512,5.643-2.622c2.241,0.135,4.036,1.169,5.542,2.777c0.264,4.208,0.526,8.414,0.79,12.622c-2.082,0-4.167,0-6.25,0C60.603,98.059,58.723,96.045,56.924,93.954z"/>
<path fill="#95C066" d="M93.813,0c-0.288,4.114-0.576,8.225-0.864,12.338c-1.966,1.993-4.093,1.846-6.316,0.485c-1.626-1.907-1.989-4.187-1.936-6.588C84.846,3.787,85.899,1.752,87.563,0C89.646,0,91.731,0,93.813,0z"/>
<path fill="#90EE32" d="M0.064,50c2.064-0.086,4.129-0.168,6.193-0.253c1.686,1.892,1.95,3.888,0.424,6.006l-1.173,0.598c-1.848,1.73-3.662,1.725-5.444-0.101C0.064,54.166,0.064,52.084,0.064,50z"/>
<path fill="#E4EED9" d="M6.898,6.119C6.703,4.077,6.509,2.039,6.314,0c2.083,0,4.167,0,6.25,0C10.674,2.039,8.787,4.077,6.898,6.119z"/>
<path fill="#75C028" d="M0.064,56.25c1.817,0.033,3.635,0.067,5.449,0.101c0.146,2.143,0.296,4.285,0.444,6.427c-1.964-0.094-3.929-0.186-5.893-0.277C0.064,60.416,0.064,58.334,0.064,56.25z"/>
<path fill="#A9DA74" d="M87.563,0c-0.082,2.197-0.164,4.397-0.247,6.595c-1.876,1.453-3.695,1.459-5.447-0.213c-0.186-2.127-0.37-4.254-0.556-6.381C83.396,0,85.481,0,87.563,0z"/>
<path fill="#90EE32" d="M93.932,37.54c2.044-0.012,4.088-0.027,6.131-0.04c0,2.084,0,4.166,0,6.25c-2.101,1.85-4.333,1.813-6.66,0.467C92.046,41.87,92.108,39.633,93.932,37.54z"/>
<path fill="#75C028" d="M94.053,43.64c2.003,0.037,4.007,0.073,6.01,0.11c0,2.084,0,4.166,0,6.25c-2.012,0.055-4.024,0.106-6.039,0.162C92.216,47.98,92.214,45.807,94.053,43.64z"/>
<path fill="#A9DA74" d="M56.924,93.954c1.879,2.015,3.76,4.032,5.639,6.046c-2.082,0-4.167,0-6.25,0C56.516,97.986,56.721,95.969,56.924,93.954z"/>
<path fill="#95C066" d="M63.219,31.049c1.667,0.101,3.331,0.198,4.998,0.299c-0.053,16.632-0.104,33.264-0.154,49.896c-2.477,1.758-4.701,1.184-6.781-0.727c-6.909-11.591,2.362-25.061-4.254-36.691c-0.01-2.154-0.021-4.312-0.031-6.467c1.651-2.011,3.35-3.982,5.093-5.914L63.219,31.049z"/>
<path fill="#81A759" d="M94.053,43.64c-0.011,2.176-0.02,4.349-0.029,6.522c-0.26,2.06-0.521,4.119-0.779,6.18c-1.315,1.147-2.832,1.568-4.549,1.275c-1.598-0.604-2.762-1.682-3.493-3.223c-2.857-11.658,2.382-24.087-3.348-35.483c-0.017-2.225-0.033-4.449-0.049-6.674c1.774-1.563,3.554-1.563,5.336-0.009c1.935,0.037,3.87,0.073,5.807,0.11c0.326,8.401,0.654,16.8,0.982,25.201C93.972,39.575,94.012,41.607,94.053,43.64z"/>
<path fill="#A5D571" d="M81.855,18.912c1.861,12.497,3.725,24.991,5.587,37.488c-1.868,1.478-3.734,1.755-5.598-0.009C81.847,43.899,81.85,31.406,81.855,18.912z"/>
<path fill="#E4EED9" d="M81.844,56.391c1.866,0.003,3.732,0.003,5.599,0.006c-0.001,0.003,0.089-0.131,0.089-0.131c1.817,2.121,1.872,4.119-0.403,5.963c-1.774,0.003-3.549,0.006-5.322,0.012C81.819,60.291,81.833,58.341,81.844,56.391z"/>
<path fill="#E4EED9" d="M87.142,12.229c-1.779,0.003-3.558,0.003-5.337,0.009c0.021-1.95,0.042-3.903,0.063-5.856c1.818,0.067,3.636,0.137,5.451,0.21C87.258,8.472,87.201,10.352,87.142,12.229z"/>
<path fill="#75C028" d="M69.005,18.881c0-2.173-0.001-4.343,0-6.513c1.949,0.717,3.896,1.438,8.834,3.256C72.901,17.444,70.955,18.164,69.005,18.881z"/>
<path fill="#95C066" d="M62.814,81.158c1.75,0.031,3.499,0.059,5.249,0.086c-0.014,2.045-0.026,4.089-0.04,6.134c-1.961-0.049-3.92-0.101-5.881-0.149c-1.356-1.483-1.486-3.144-0.728-4.938C61.879,81.912,62.347,81.537,62.814,81.158z"/>
<path fill="#A3D26F" d="M32.038,37.579c1.935,8.289,3.872,16.577,5.809,24.866c0.003,0-0.659,0.271-0.659,0.271c-1.465,1.517-3.206,1.81-5.159,1.156c-0.465-0.427-0.933-0.857-1.398-1.287C31.1,54.251,31.57,45.914,32.038,37.579z"/>
<path fill="#75C028" d="M30.668,68.668c-1.723-0.495-3.445-0.989-8.07-2.313c4.378-2.054,6.209-2.915,8.035-3.769c-0.001,0,1.32,0.191,1.32,0.191c1.256,1.819,1.274,3.623-0.071,5.405L30.668,68.668z"/>
<path fill="#90EE32" d="M18.989,18.332c-0.073-1.825-0.148-3.65-0.221-5.475c1.891,1.908,3.781,3.812,5.672,5.719C22.531,20.566,20.709,20.608,18.989,18.332z"/>
<path fill="#75C028" d="M18.989,18.332c1.817,0.082,3.633,0.162,5.451,0.244c-1.862,2.097-3.723,4.196-5.583,6.292C18.9,22.69,18.945,20.511,18.989,18.332z"/>
<path fill="#E4EED9" d="M31.915,25.085c1.779,0.104,3.559,0.205,5.338,0.308c-1.753,1.901-3.505,3.803-5.257,5.707C31.97,29.096,31.942,27.09,31.915,25.085z"/>
<path fill="#A1D36A" d="M57.028,43.826c1.927,12.445,3.855,24.891,5.784,37.335c0.002-0.003-0.514,0.257-0.514,0.257c-1.825,1.669-3.638,1.699-5.438-0.043c-0.261-2.185-0.521-4.37-0.784-6.555c-3.201-4.123-3.058-8.262-0.057-12.415C56.356,56.213,56.692,50.019,57.028,43.826z"/>
<path fill="#90EE32" d="M43.836,30.743c0.011-3.931,0.021-7.861,0.032-11.792c1.94,1.898,5.603,4.007,5.401,5.64C48.993,26.831,45.788,28.711,43.836,30.743z"/>
<path fill="#90EE32" d="M56.02,62.405c0.021,4.142,0.04,8.279,0.06,12.418c-1.907-2.393-4.565-4.563-5.351-7.275C50.407,66.437,54.134,64.154,56.02,62.405z"/>
<path fill="#E4EED9" d="M62.089,31.445c-1.698,1.968-3.396,3.94-5.094,5.911c-0.026-2.008-0.054-4.016-0.081-6.027C58.639,31.366,60.365,31.406,62.089,31.445z"/>
<path fill="#E4EED9" d="M56.861,81.375c1.816,0.013,3.631,0.024,5.441,0.04c-0.055,1.94-0.104,3.879-0.158,5.813c-1.771-0.003-3.539-0.006-5.308-0.006C56.846,85.275,56.854,83.325,56.861,81.375z"/>
<path fill="#E4EED9" d="M6.681,55.753c-0.141-2.002-0.283-4.001-0.426-6.006c0.001,0-0.038,0.241-0.038,0.241c2.124-1.813,4.153-1.838,6.065,0.326l0.067-0.135C10.461,52.039,8.57,53.898,6.681,55.753z"/>
<path fill="#A5D571" d="M12.283,50.315c-2.022-0.11-4.043-0.217-6.065-0.326C6.454,37.515,6.69,25.043,6.927,12.573C8.712,25.152,10.498,37.732,12.283,50.315z"/>
<path fill="#95C066" d="M87.128,62.229c0.135-1.986,0.269-3.977,0.404-5.963c1.903,0.024,3.808,0.052,5.712,0.076c-0.064,2.014-0.129,4.028-0.192,6.042C91.078,62.332,89.103,62.28,87.128,62.229z"/>
<path fill="#E4EED9" d="M31.881,68.183c0.024-1.801,0.049-3.604,0.073-5.405c1.744-0.021,3.489-0.039,5.235-0.061C35.419,64.539,33.651,66.36,31.881,68.183z"/>
</svg>