<?xml version="1.0" encoding="utf-8"?>
<!DOCTYPE svg PUBLIC "-//W3C//DTD SVG 1.1//EN" "http://www.w3.org/Graphics/SVG/1.1/DTD/svg11.dtd">
<svg version="1.1" xmlns="http://www.w3.org/2000/svg" xmlns:xlink="http://www.w3.org/1999/xlink" x="0px" y="0px" width="100px" height="100px" viewBox="0 0 100 100" enable-background="new 0 0 100 100" xml:space="preserve">
<path fill="#362B24" d="M62.448,90.442c-2.065,3.187-4.132,6.373-6.198,9.559c-2.082,0-4.167,0-6.25,0c-2.951-2.521-3.033-6.277-4.141-9.589c-0.551-3.5-0.835-6.973,1.076-10.211c3.273-3.928,7.168-4.104,11.45-1.88c1.38,0.925,2.683,1.959,3.897,3.092c1.065,1.312,1.649,2.816,1.746,4.507C64.048,87.617,63.522,89.124,62.448,90.442z"/>
<path fill="#614B3D" d="M56.25,0.001c3.962,4.031,7.923,8.066,11.884,12.097c-0.524,5.432-4.736,4.715-8.339,5.005c-4.715,0.363-8.749-2.155-13.148-3.125c-1.811-0.391-3.251-1.349-4.313-2.869c-0.398-1.883,0.122-3.467,1.563-4.749C43.848,4.239,43.801,2.121,43.752,0C47.918,0.001,52.083,0.001,56.25,0.001z"/>
<path fill="#654E40" d="M49.684,91.56c0.104,2.814,0.212,5.628,0.316,8.441c-1.042,0-2.082,0-3.125,0c-1.257-0.873-1.996-2.051-2.13-3.589c-0.516-0.86-0.767-1.791-0.757-2.796c-0.909-1.935-0.555-3.771,1.425-4.452C47.312,88.511,48.86,89.674,49.684,91.56z"/>
<path fill="#362B24" d="M44.745,96.412c0.71,1.196,1.421,2.393,2.13,3.589c-1.042,0-2.083,0-3.125,0C44.082,98.805,44.413,97.608,44.745,96.412z"/>
<path fill="#30221A" d="M31.452,87.306c-3.18-0.934-6.36-1.871-9.54-2.805c-0.943-1.028-1.497-2.24-1.712-3.613c-0.559-6.085-3.719-11.734-3.017-18.029c0.264-3.366-0.763-6.717-0.159-10.096c0.316-1.33,0.627-2.661,0.909-4.004c0.092-1.407,0.121-2.801,0.061-4.214c0.029-1.468,0.065-2.92,0.087-4.395c0.021-1.544-0.075-3.055-0.302-4.581c-0.577-3.488-0.093-6.516,3.43-8.307c3.485-0.903,7.012-0.638,10.54-0.488c6.705,2.38,13.037,5.237,16.289,12.201c0.255,1.788,0.562,3.546,0.813,5.273c1.163,4.711,0.424,9.354-0.45,14.004c-0.32,6.052-9.563,7.727-7.315,15.213c0.693,2.112,0.9,4.261,0.845,6.464c-0.232,1.565-0.832,2.938-1.866,4.132C37.458,85.865,33.665,84.482,31.452,87.306z"/>
<path fill="#2E2018" d="M24.921,37.345c0.06,1.175,0.118,2.35,0.177,3.528c2.011,1.691,1.614,3.955,1.474,6.162c-0.024,2.215,0.166,4.489-1.637,6.238l0.162-0.204c-8.691,6.302-13.477,0.213-18.298-5.765c-0.115-4.339-0.229-8.676-0.345-13.016c1.579-1.605,3.065-3.327,5.313-4.053C16.693,31.599,19.099,37.635,24.921,37.345z"/>
<path fill="#433024" d="M43.896,6.361c0.521,1.071,1.039,2.146,1.56,3.22c1.851,2.945,3.407,5.96,2.309,9.619c-0.735,1.632-1.903,2.844-3.508,3.638c-5.994,1.147-11.757,3.43-17.95,3.564c-5.064-0.418-8.541-2.372-7.988-8.231c3.728-1.913,7.454-3.824,11.182-5.737c4.074,2.414,6.187-0.015,7.983-3.229C39.62,8.256,41.758,7.307,43.896,6.361z"/>
<path fill="#524136" d="M6.798,47.303c6.099,1.922,12.198,3.845,18.297,5.768c-1.131,3.186-2.261,6.375-3.392,9.561c-0.212,0.729-0.424,1.456-0.64,2.197c-1.622,1.901-3.549,2.771-5.903,1.685c-3.838-3.899-6.391-8.526-8.298-13.559C6.841,51.072,6.82,49.187,6.798,47.303z"/>
<path fill="#695345" d="M18.317,18.171c3.257,1.233,6.514,2.466,9.77,3.699c4.645-2.667,8.827-2.1,12.532,1.788c1.014,4.532-0.528,7.013-5.439,6.784c-1.689-0.5-3.429-0.763-5.196-0.781c-4.175-1.288-8.404-1.682-12.701-0.65c-3.725-0.967-6.023-2.926-5.013-7.196C14.286,20.601,16.301,19.386,18.317,18.171z"/>
<path fill="#42332A" d="M12.27,21.815c2.268,1.48,4.534,2.96,6.801,4.44c1.233,0.65,1.973,1.663,2.222,3.033c-0.642,1.166-1.227,2.359-1.759,3.58c-1.68,3.446-4.37,1.978-6.875,1.413c-2.068,0.003-4.135,0.003-6.204,0.006C8.393,30.131,10.332,25.975,12.27,21.815z"/>
<path fill="#36281F" d="M49.684,91.56c-1.898,0.684-3.797,1.37-5.695,2.057c-3.264-1.514-6.526-3.03-9.79-4.547c-1.465-2.154-1.304-4.089,0.786-5.762c3.729-0.76,6.45-3.601,9.949-4.834c1.479-0.359,2.888-0.177,4.225,0.553c0.313,0.665,0.627,1.334,0.941,2.002C49.961,84.538,49.822,88.047,49.684,91.56z"/>
<path fill="#524136" d="M15.458,80.888c-2.637-1.395-5.272-2.789-8.351-4.419c0-4.196,0-8.215,0-12.231c1.378-1.514,3.046-1.972,5.002-1.37c3.589,3.073,6.671,6.485,7.617,11.334C19.736,77.345,17.969,79.356,15.458,80.888z"/>
<path fill="#36281F" d="M14.892,64.75c-2.593-0.168-5.185-0.339-7.782-0.51c-0.084-3.763-0.166-7.525-0.247-11.285c2.646,3.961,5.293,7.923,7.939,11.884L14.892,64.75z"/>
<path fill="#36281F" d="M15.458,80.888c0.218-2.048,0.438-4.092,0.656-6.14c1.187-1.621,2.747-2.158,4.68-1.614c3.345,2.941,2.708,6.322,1.082,9.811c0,0,0.035,1.554,0.037,1.557C19.761,83.299,17.609,82.093,15.458,80.888z"/>
<path fill="#695345" d="M37.482,9.205c-2.649,1.068-5.298,2.133-7.965,3.213C32.16,11.357,34.821,10.282,37.482,9.205z"/>
<path fill="#614B3D" d="M37.287,84.086c-1.03,1.66-2.059,3.32-3.089,4.983c-0.915-0.589-1.831-1.175-2.746-1.764c2.019-1.969,4.037-3.937,6.056-5.905c0.973,0.681,1.263,1.304,0.874,1.874C38.015,83.815,37.651,84.086,37.287,84.086z"/>
<path fill="#201711" d="M75.33,82.643c-2.143,1.669-4.286,3.339-6.429,5.011c-6.516-7.138-11.065-16.049-19.494-21.475c-1.769-7.728-2.43-15.168,6.167-19.675c0.292-0.583,0.637-1.123,0.954-1.679c0.876-2.558,1.164-5.261,2.072-7.84c0.8-1.315,1.79-2.414,2.981-3.372c5.06-2.652,9.481-6.635,15.521-7.086c3.938-0.65,6.348,1.819,8.784,4.251c2.126,1.74,2.827,3.897,2.132,6.522c-3.57,8.126,2.71,14.453,4.13,21.637c0.051,1.386-0.074,2.759-0.395,4.104c-0.505,1.251-0.971,2.524-1.381,3.809c-0.562,1.209-1.318,2.292-2.256,3.241c-1.492,1.251-2.987,2.512-4.474,3.778c-0.847,0.958-1.696,1.922-2.545,2.881C79.437,78.965,74.118,77.607,75.33,82.643z"/>
<path fill="#392D26" d="M52.201,63.496c4.626,1.821,9.254,3.646,14.6,5.749c0.746,6.546,1.423,12.476,2.101,18.408c-0.629,0.403-1.298,0.715-2.013,0.934c-1.268-0.066-2.246-0.649-2.976-1.675c-1.24-1.429-3.22-1.541-4.663-2.612l0.176,0.106c-2.281-4.354-6.632-6.631-9.969-9.931c-0.667-1.214-1.313-2.432-1.939-3.668c-0.668-1.238-1.217-2.518-1.631-3.863c-0.131-1.453,0.228-2.777,1.002-4.001C48.854,61.296,50.64,61.323,52.201,63.496z"/>
<path fill="#362B24" d="M90.566,62.513c-3.16-7.702-6.32-15.405-9.48-23.107c2.325-0.854,4.596-2.103,7.447-0.735c1.517,1.504,3.111,3.427,4.695,5.359c0.06,6.091,0.119,12.182,0.177,18.274C92.559,63.71,91.617,63.844,90.566,62.513z"/>
<path fill="#433127" d="M81.4,33.76c-2.08-0.836-4.158-1.673-6.238-2.512c-2.61,2.029-5.849,1.785-8.825,2.441c-1.502-0.256-2.835-0.885-3.949-1.926c-0.765-1.242-1.188-2.612-1.304-4.059c-0.042-1.38,0.105-2.759,0.409-4.102c0.676-1.139,1.551-2.127,2.599-2.936c0.545-0.32,1.108-0.65,1.654-0.97c0.543-0.299,1.104-0.604,1.649-0.9c1.11-0.513,2.29-0.849,3.503-1.028c2.324,0.473,4.659,0.931,6.944-0.202c1.228-0.229,2.21,0.165,2.944,1.178c2.266,0.937,4.533,1.874,6.799,2.811c1.202,1.236,1.982,2.694,2.214,4.364C86.992,28.602,91.191,38.548,81.4,33.76z"/>
<path fill="#241A14" d="M81.4,33.76c1.986-2.851,3.975-5.701,5.961-8.551c1.896-2.435,4-1.874,6.165-0.427c-0.1,6.415-0.198,12.833-0.298,19.248c-4.047-1.529-8.093-3.061-12.142-4.608C81.191,37.523,81.295,35.64,81.4,33.76z"/>
<path fill="#39271C" d="M78.119,18.773c-2.09,1.041-4.181,2.081-6.272,3.122c-0.577,2.389-2.946,2.191-4.524,3.134c-0.763-0.366-1.54-0.705-2.327-1.016c-4.683-1.706-15.489,1.834-8.476-9.891c3.871-0.674,7.742-1.349,11.614-2.023c2.395,0.989,4.79,1.978,7.185,2.963C74.7,17.472,77.733,17.121,78.119,18.773z"/>
<path fill="#42332A" d="M93.397,72.169c-3.955,2.667-7.91,5.334-11.865,8.002c-2.49-1.41-2.859-3.491-1.901-5.997c0.128-1.596,0.485-3.137,1.074-4.626c2.094-1.779,4.519-0.846,6.83-0.837C90.263,68.553,91.864,70.302,93.397,72.169z"/>
<path fill="#241A14" d="M93.397,72.169c-2.666,0.037-5.333,0.073-8,0.109c-1.224-2.868-0.968-5.261,2.156-6.738l-0.132,0.153c1.039-1.145,2.347-2.018,3.271-3.274l-0.126,0.094c0.948-0.052,1.897-0.121,2.842-0.21C93.402,65.593,93.399,68.882,93.397,72.169z"/>
<path fill="#352922" d="M81.543,75.666c-0.004,1.505-0.009,3.009-0.014,4.511c-2.064,0.814-4.13,1.636-6.197,2.46c0.863-2.894,1.727-5.792,2.591-8.691C79.862,72.978,81.069,73.552,81.543,75.666z"/>
<path fill="#654E40" d="M78.119,18.773c-0.934-1.236-1.867-2.472-2.801-3.711c1.823,1.229,3.645,2.457,5.469,3.684L79.451,18.7L78.119,18.773z"/>
<path fill="#4E3D33" d="M93.526,24.781c-2.054,0.141-4.106,0.281-6.162,0.424c0.072-1.215,0.146-2.432,0.222-3.65C89.566,22.63,91.546,23.707,93.526,24.781z"/>
<path fill="#392D26" d="M62.448,90.442c0.031-0.595,0.052-1.187,0.064-1.781c-0.087-1.938,0.735-2.47,2.468-1.603c0.635,0.51,1.268,1.017,1.905,1.525C65.409,89.207,63.929,89.823,62.448,90.442z"/>
<path fill="#241A14" d="M53.164,71.925c2.087,4.159,4.175,8.322,6.262,12.481c-3.109-1.126-6.218-2.249-9.326-3.378l-0.263,0.192C44.506,75.819,45.981,72.85,53.164,71.925z"/>
<path fill="#1B130D" d="M64.981,87.059c-0.864,0.464-1.688,0.991-2.468,1.593c-1.088-1.443-2.175-2.896-3.261-4.352C61.161,85.222,63.071,86.14,64.981,87.059z"/>
<path fill="#362419" d="M56.52,14.122c2.832,3.302,5.664,6.607,8.486,9.903c0.111,0.5,0.264,1.001,0.447,1.492c-0.865,1.172-1.521,2.451-1.996,3.83c-0.684,1.328-1.671,2.344-3.024,3.006c-2.226,0.437-4.469,0.431-6.723,0.36c-3.79-0.949-7.735-1.321-11.256-3.214c-0.99-1.339-1.521-2.844-1.607-4.507c-0.171-2.691,1.219-4.62,3.073-6.32l-0.228,0.277c3.465-2.664,0.919-6.415,1.728-9.558C49.118,10.966,52.818,12.544,56.52,14.122z"/>
<path fill="#695345" d="M45.42,9.391c-0.575,3.186-1.152,6.372-1.728,9.558c0.584-3.122,1.169-6.244,1.758-9.369C45.455,9.581,45.42,9.391,45.42,9.391z"/>
<path fill="#352922" d="M52.201,63.496c-0.821,0.9-1.641,1.8-2.462,2.7c0.129,2.836-0.535,5.246-3.445,6.464c-1.764,0.479-3.462,0.306-5.104-0.51c-4.448-5.539-0.768-9.625,2.477-13.788c0.144-5.087,0.286-10.174,0.429-15.261c3.262-3.18,7.005-5.545,11.435-6.75c2.533,0.052,4.164,1.282,4.872,3.723c2.716,4.651,5.434,9.304,8.151,13.956c-0.912,0.528-1.178,0.964-0.803,1.313c0.32,0.299,0.668,0.451,1.05,0.451C63.267,58.362,57.733,60.93,52.201,63.496z"/>
<path fill="#4E3D33" d="M43.667,58.362c0.004,3.428,0.008,6.857,0.012,10.285c0.673,4.929-4.199,3.833-6.264,5.789c-1.16,0.592-2.397,0.949-3.689,1.12c-0.337-7.068-0.675-14.136-1.183-24.799C38.572,54.881,41.118,56.62,43.667,58.362z"/>
<path fill="#453227" d="M43.664,24.986c1.126,0.04,2.253,0.079,3.381,0.122c4.94,4.288,9.638,8.673,6.497,16.202c-3.177,1.208-6.334,1.364-9.456-0.186c-4.326-3.314-8.651-6.631-12.976-9.949c-0.705-0.51-1.412-1.022-2.117-1.532c0.708-0.506,1.416-1.016,2.124-1.522c0.441-2.167,0.882-4.334,1.323-6.5C36.918,20.286,40.442,22.129,43.664,24.986z"/>
<path fill="#514035" d="M12.658,34.281c2.457-1.153,4.913-2.31,7.37-3.467c0.584,0.104,1.168,0.205,1.753,0.309c1.047,2.075,2.094,4.147,3.14,6.222c-2.518,1.306-5.035,2.616-8.665,4.501C14.854,38.902,13.756,36.592,12.658,34.281z"/>
<path fill="#524136" d="M21.876,82.944c-0.568-2.679-1.135-5.355-1.703-8.035c-5.938-4.81-1.273-8.358,1.443-12.14c0,0,0.09-0.141,0.088-0.138C21.76,69.404,21.817,76.173,21.876,82.944z"/>
<path fill="#4E3D33" d="M37.287,84.086c0.061-0.897,0.136-1.794,0.221-2.686c-0.23-0.866-0.458-1.733-0.685-2.603c0.337-1.654,1.123-3.056,2.359-4.203c4.046-1.382,6.119,0.721,7.41,4.199c0.091,0.815,0.183,1.63,0.273,2.445C43.673,82.188,40.479,83.137,37.287,84.086z"/>
<path fill="#7F6859" d="M44.086,41.124c3.044-0.15,6.089-0.299,9.133-0.449c0.639-0.009,1.277-0.019,1.916-0.027c-3.68,0.818-7.359,1.636-11.04,2.454C44.019,42.442,44.016,41.783,44.086,41.124z"/>
<path fill="#846D5E" d="M21.781,31.123c-0.558-0.269-1.146-0.37-1.758-0.306c-0.414-0.659-0.801-1.333-1.158-2.029c2.605-3.873,5.765-2.258,8.899-0.9c1.119,0.077,2.237,0.156,3.354,0.232c0.073,1.019,0.07,2.038-0.007,3.055C28.001,31.156,24.891,31.141,21.781,31.123z"/>
<path fill="#42332A" d="M24.671,46.605c0.142-1.914,0.284-3.824,0.427-5.734c1.079,1.947,2.158,3.891,3.235,5.835c-0.632,0.787-1.265,1.571-1.898,2.359C25.847,48.243,25.258,47.425,24.671,46.605z"/>
<path fill="#4E3D33" d="M24.671,46.605c1.219,0.033,2.44,0.07,3.661,0.104c-1.131,2.186-2.263,4.373-3.396,6.564C24.846,51.051,24.759,48.826,24.671,46.605z"/>
<path fill="#4E3D33" d="M36.823,78.798c-1.032-1.081-2.063-2.161-3.096-3.241c1.263-0.818,2.528-1.636,3.795-2.454c1.056,0.702,1.622,1.697,1.77,2.945C38.469,76.963,37.646,77.882,36.823,78.798z"/>
<path fill="#775F50" d="M43.664,24.986c-3.722-1.117-7.443-2.234-11.194-3.36c-1.48,0.076-2.931,0.162-4.382,0.244c5.276-1.065,10.554-2.133,15.833-3.198C43.835,20.774,43.749,22.88,43.664,24.986z"/>
<path fill="#261911" d="M21.616,62.77c-0.485,4.047-0.972,8.093-1.451,12.14c-1.346-0.052-2.699-0.106-4.051-0.161c-0.411-3.333-0.822-6.662-1.227-9.995c0.005-0.003-0.082,0.076-0.083,0.083C17.074,64.149,19.346,63.459,21.616,62.77z"/>
<path fill="#39271C" d="M27.764,27.888c-2.966,0.299-5.933,0.599-8.899,0.9c0.134-0.839,0.205-1.685,0.206-2.533C21.969,26.798,24.866,27.345,27.764,27.888z"/>
<path fill="#4E3D33" d="M44.96,69.334c1.593-1.05,3.186-2.1,4.779-3.144c0,0.006,0.31-0.43,0.31-0.43c1.162,1.129,2.292,2.282,3.023,3.756c0.011,0.803,0.041,1.605,0.09,2.408c-1.106,3.098-2.214,6.198-3.323,9.296c-0.002,0-1.488,0.027-1.488,0.027s-1.484-0.009-1.486-0.009l-0.297-0.428C44.489,77.201,41.523,73.716,44.96,69.334z"/>
<path fill="#695345" d="M55.135,40.648l-0.956,0.085l-0.96-0.058c-2.059-5.188-4.115-10.379-6.174-15.567c4.08,0.973,8.159,1.947,12.239,2.92c0.909,2.637,4.761,3.964,3.397,7.617c-0.139,0.577-0.277,1.157-0.416,1.733c-0.616,0.897-1.233,1.797-1.855,2.695C58.647,40.263,56.892,40.455,55.135,40.648z"/>
<path fill="#392D26" d="M87.553,65.54c-0.702,2.243-1.404,4.486-2.131,6.735c-1.183-0.155-2.34-0.313-3.497-0.473c-1.114,1.498-2.453,1.739-4.018,0.717c0.2-2.243,0.398-4.482,0.667-7.488C82.096,65.23,84.824,65.385,87.553,65.54z"/>
<path fill="#1B130D" d="M68.801,55.793c-1.939-0.964-3.877-1.929-5.815-2.893c0.422-0.69,0.843-1.38,1.264-2.066c1.435,1.06,2.87,2.121,4.305,3.189C68.624,54.618,68.706,55.207,68.801,55.793z"/>
<path fill="#6C5546" d="M65.486,31.431c3.226-0.061,6.45-0.122,9.676-0.183c-4.298,2.044-8.597,4.086-12.896,6.131c-0.001,0,0.309,0.244,0.309,0.244c-1.72-2.42-0.893-4.37,1.125-6.101C64.297,31.492,64.892,31.461,65.486,31.431z"/>
<path fill="#362B24" d="M90.692,62.419c-1.091,1.089-2.181,2.182-3.271,3.271C88.511,64.601,89.602,63.508,90.692,62.419z"/>
<path fill="#241A14" d="M77.907,72.52c1.332-0.237,2.666-0.476,4.007-0.717c-0.117,1.282-0.245,2.566-0.372,3.857c-1.204-0.562-2.409-1.132-3.618-1.706C77.923,73.945,77.907,72.52,77.907,72.52z"/>
<path fill="#352922" d="M53.072,69.517c-1.009-1.251-2.016-2.505-3.023-3.756C51.057,67.012,52.064,68.266,53.072,69.517z"/>
<path fill="#695345" d="M64.921,28.459c0.321-0.964,0.502-1.95,0.535-2.951c-0.459,0.918-0.705,1.88-0.74,2.893L64.921,28.459z"/>
<path fill="#6C5546" d="M64.921,28.459c0,0-0.211-0.061-0.208-0.058c0.261,1.01,0.519,2.018,0.775,3.031c-0.002,0,0.065-0.153,0.065-0.153c-3.264,1.129-4.399,0.003-3.482-3.293C63.01,28.214,63.959,28.373,64.921,28.459z"/>
<path fill="#6C5546" d="M72.325,24.559c-0.587,0.653-1.173,1.303-1.761,1.953C69.824,24.665,70.412,24.012,72.325,24.559z"/>
<path fill="#6C5546" d="M67.322,25.028c1.509-1.043,3.017-2.087,4.524-3.134c0.165,0.888,0.323,1.776,0.478,2.667c-0.575,0.647-1.155,1.291-1.749,1.941C69.484,26.017,68.404,25.523,67.322,25.028z"/>
<path fill="#39271C" d="M62.071,27.985c1.161,1.099,2.323,2.194,3.482,3.293c-0.993,2.115-1.985,4.23-2.979,6.345c-1.117-3.198-2.235-6.394-3.321-9.592C60.213,28.013,61.143,27.998,62.071,27.985z"/>
<path fill="#281B13" d="M44.96,69.334c0.536,3.827,1.071,7.653,1.607,11.478c-2.434-1.578-4.868-3.158-7.288-4.752c-0.592-0.985-1.195-1.959-1.779-2.944c2.074-1.495,4.127-2.981,6.178-4.465C43.679,68.648,44.96,69.334,44.96,69.334z"/>
</svg>