<?xml version="1.0" encoding="utf-8"?>
<!DOCTYPE svg PUBLIC "-//W3C//DTD SVG 1.1//EN" "http://www.w3.org/Graphics/SVG/1.1/DTD/svg11.dtd">
<svg version="1.1" xmlns="http://www.w3.org/2000/svg" xmlns:xlink="http://www.w3.org/1999/xlink" x="0px" y="0px" width="100px" height="100px" viewBox="0 0 100 100" enable-background="new 0 0 100 100" xml:space="preserve">
<path fill="#3F361F" d="M93.267,34.708c0,13.193,0,26.385,0,41.074c-3.736,1.703-7.713,3.516-11.689,5.325c-1.508-1.166-1.98-2.746-1.855-4.547c0.174-1.02,0.51-2.021,0.914-2.951c0.242-0.863,0.521-1.758,0.675-2.652c-0.092,0.016-0.33-1.306-0.417-1.297c-0.537-0.817-0.979-1.653-1.481-2.49c-0.651-0.842-1.125-1.745-1.538-2.71c-0.713-1.489-1.213-3.033-1.565-4.633c-0.274-1.095-0.376-2.203-0.409-3.323c-0.035-1.678,0.22-3.313,0.752-4.897c0.397-0.982,1.001-1.85,1.719-2.609c0.692-0.687,1.542-1.163,2.459-1.438c0.753-0.308,1.583-0.513,2.369-0.678c-0.066-0.049,1.042-0.451,0.97-0.519c-0.07-0.07,0.729-0.83,0.664-0.9c0.19-0.836,0.417-1.611,0.577-2.459c-0.035-0.064,0.317-1.337,0.293-1.392c-0.026-0.055,0.479-1.376,0.465-1.425c0.532-1.593,1.271-3.024,2.36-4.291C89.902,34.638,91.373,33.801,93.267,34.708z"/>
<path fill="#756E46" d="M12.617,21.625c3.244-1.819,6.488-3.641,9.732-5.46c1.405,1.12,2.863,0.788,4.321,0.159c0.922-0.363,1.782-0.851,2.57-1.458c0.712-0.668,1.472-1.288,2.275-1.855c1.097-0.87,2.196-1.736,3.293-2.606c1.846,0.336,3.763,0.464,5.287,1.773c1.858,1.782,2.6,4.318,4.247,6.253c0.771,1.047,1.331,2.194,1.735,3.424c0.281,1.285,0.259,2.57,0.019,3.857c-0.719,1.929-2.037,3.247-3.994,3.916c-2.53,0.552-5.026-0.067-7.538-0.244c-1.231-0.128-2.423-0.442-3.584-0.861c-1.72-0.613-3.439-1.242-5.279-1.437c-3.186,0.015-6.296,1.465-9.535,0.494C13.629,26.401,10.998,25.269,12.617,21.625z"/>
<path fill="#3C3620" d="M62.847,90.631c-4.143,1.959-8.287,3.919-12.43,5.881c-2.888-2.694-4.313-6-4.173-9.961c0.188-1.486,0.636-2.89,1.356-4.205c0.887-1.205,2.024-2.115,3.38-2.747c2.171-0.589,4.302-0.381,6.389,0.397c1.315,0.506,2.539,1.208,3.684,2.038c1.596,1.373,2.754,3.052,3.301,5.108C64.407,88.537,63.932,89.716,62.847,90.631z"/>
<path fill="#564F32" d="M6.937,50.217c0.038-7.456,0.078-14.911,0.117-22.37c0.493-0.363,0.987-0.729,1.482-1.099c0.615,0.009,1.231,0.021,1.848,0.024c1.155,0.449,2.2,1.083,3.151,1.88c0.401,0.461,0.786,0.94,1.199,1.395c0.716,0.992,1.292,2.066,1.794,3.18c0.548,1.086,0.937,2.24,1.261,3.418c0.331,1.181,0.455,2.393,0.485,3.619c-0.035,2.497-0.441,4.914-1.64,7.153c-1.501,2.183-3.56,3.485-6.181,3.895C9.176,51.288,8.003,50.922,6.937,50.217z"/>
<path fill="#51492C" d="M31.63,87.503c-7.33-3.418-14.66-6.836-21.989-10.257c-1.701-1.565-1.45-3.434-0.829-5.365c2.046-2.331,4.619-2.276,7.326-1.647c1.322,0.204,2.62,0.513,3.911,0.869c1.274,0.455,2.447,1.099,3.575,1.838c1.114,0.76,2.089,1.675,2.994,2.67c1.481,1.373,3.056,2.661,4.3,4.284c1.18,1.752,1.804,3.669,1.682,5.799C32.28,86.295,31.955,86.898,31.63,87.503z"/>
<path fill="#555033" d="M9.761,71.815c-0.04,1.813-0.08,3.625-0.121,5.435c-0.871-7.037-1.741-14.074-2.611-21.112c0.938-0.964,2.066-1.303,3.386-1.028c1.837,0.745,3.262,1.996,4.445,3.564c1.155,1.578,1.997,3.314,2.588,5.183c0.328,1.27,0.358,2.554,0.143,3.845c-0.48,1.224-1.297,2.176-2.424,2.856C13.399,71.1,11.339,70.419,9.761,71.815z"/>
<path fill="#555236" d="M44.03,93.604c-4.133-2.035-8.267-4.068-12.401-6.101l0.008,0.055c1.679-1.876,0.575-5.005,2.962-6.576c1.204-0.564,2.454-0.724,3.764-0.51c2.594,0.812,4.686,2.45,6.798,4.08c0.449,0.513,0.871,1.044,1.311,1.569c0.29,0.619,0.565,1.244,0.846,1.87c0.482,1.297,0.81,2.628,0.99,3.998C47.331,93.726,46.533,95.929,44.03,93.604z"/>
<path fill="#4F3810" d="M40.741,6.644c2.059-1.184,4.117-2.371,6.175-3.555c2.296,1.904,4.593,1.907,6.891,0c2.058,1.184,4.116,2.368,6.175,3.549c0.32,0.616,0.643,1.229,0.961,1.854c-0.377,1.392-1.121,2.536-2.233,3.454c-1.828,1.227-3.882,1.715-6.041,1.865c-2.87,0.11-5.736,0.153-8.533-0.693c-1.336-0.583-2.474-1.44-3.447-2.518C39.93,9.272,39.947,7.953,40.741,6.644z"/>
<path fill="#3B2A0C" d="M44.03,93.604c0.917-1.08,1.836-2.16,2.753-3.241c-0.751-1.15-1.102-2.414-1.051-3.787c0.897-1.999,2.124-3.332,4.547-2.268c0.046,4.068,0.092,8.14,0.139,12.204C48.288,95.541,46.159,94.571,44.03,93.604z"/>
<path fill="#533C17" d="M12.617,21.625c2.052,1.092,4.106,2.188,6.159,3.283c0.439,0.595,0.877,1.19,1.316,1.786c-0.056,0.738-0.114,1.477-0.169,2.215c-0.719,1.318-1.697,2.393-2.973,3.192c-1.509,0.491-2.829,0.152-3.989-0.903l-0.218-0.003c-0.987-1.078-2.032-2.1-3.074-3.125l0.186,0.04c-0.936-0.69-1.486-1.599-1.598-2.765c0.003-1.156,0.403-2.151,1.201-2.991C10.511,22.11,11.565,21.869,12.617,21.625z"/>
<path fill="#3A3825" d="M75.314,84.329c-2.078,1.044-4.156,2.085-6.234,3.125c-0.6-0.095-1.198-0.192-1.799-0.287c-1.093-0.616-1.895-1.498-2.451-2.618c-0.017-0.619-0.027-1.232-0.044-1.853c0.45-1.184,1.173-2.16,2.209-2.899c1.813-0.805,3.624-0.784,5.438-0.006c1.066,0.689,1.92,1.59,2.565,2.686C75.105,83.094,75.209,83.713,75.314,84.329z"/>
<path fill="#3A3825" d="M81.846,74.658c-0.089,2.151-0.179,4.3-0.267,6.451c-2.089,1.071-4.177,2.148-6.266,3.223c0-0.003,0.073,0.083,0.073,0.083c-0.676-1.117-1.052-2.329-1.126-3.635c0.057-2.039,0.806-3.787,2.178-5.283c1.05-0.82,2.23-1.333,3.557-1.501C80.612,74.216,81.23,74.439,81.846,74.658z"/>
<path fill="#3A3825" d="M93.731,24.637c-0.16,2.188-0.32,4.376-0.48,6.564c-1.202,0.845-2.502,1.038-3.904,0.583c-1.956-1.093-3.197-2.707-3.641-4.917c-0.052-2.252,0.537-4.166,2.783-5.188c0.966,0.095,1.911,0.281,2.841,0.563C92.137,23.035,92.936,23.831,93.731,24.637z"/>
<path fill="#7A5B2C" d="M41.053,9.341c1.207,0.156,2.413,0.308,3.62,0.464c0.545,1.3,0.389,2.509-0.467,3.628c-1.142,0.721-2.393,1.053-3.737,1.056c-1.261-0.437-2.377-1.111-3.328-2.054c-0.778-0.678-1.555-1.355-2.333-2.033c1.058-0.348,2.113-0.696,3.171-1.043C38.995,8.087,40.021,8.081,41.053,9.341z"/>
<path fill="#3A3825" d="M90.46,30.972c0.935,0.085,1.868,0.162,2.798,0.229c0.004,1.166,0.014,2.332,0.017,3.5c-0.899,1.16-1.792,2.313-2.686,3.467c-1.259,0.244-2.399-0.021-3.423-0.8c-0.771-0.998-1.226-2.121-1.37-3.375c0.13-1.257,0.589-2.38,1.37-3.375C88.343,29.971,89.444,30.087,90.46,30.972z"/>
<path fill="#E5BD7F" d="M82.082,18.338c0.869,0.165,1.718,0.4,2.55,0.702c0.883,0.711,1.272,1.504,1.164,2.38c-0.111,0.916-0.29,1.376-0.531,1.376c-2.065,2.536-4.354,3.995-7.452,1.541c-1.231-2.103-1.198-4.172,0.189-6.195C79.399,17.422,80.761,17.447,82.082,18.338z"/>
<path fill="#DCA959" d="M82.082,18.338c-1.339,0.226-2.677,0.449-4.015,0.675c-1.928,1.636-3.952,1.593-6.05,0.354c-0.756-1.343-0.892-2.743-0.406-4.205c1.318-0.897,2.681-0.934,4.083-0.217C77.823,16.074,79.953,17.206,82.082,18.338z"/>
<path fill="#AD8040" d="M10.093,56.448c-1.033,0-2.054-0.104-3.064-0.314c-0.032-1.972-0.063-3.945-0.094-5.917c0.946-0.168,1.899-0.247,2.859-0.238c0.581,0.092,1.163,0.184,1.744,0.274c1.028,0.617,1.815,1.459,2.36,2.527c0.179,1.193-0.052,2.304-0.687,3.332C12.254,56.964,11.209,57.04,10.093,56.448z"/>
<path fill="#A68447" d="M84.645,22.187c-0.005-1.047-0.011-2.097-0.016-3.146c1.286,0.879,2.573,1.758,3.859,2.637c-0.52,2.032-1.039,4.062-1.559,6.091c-1.224,0.381-2.288,0.122-3.199-0.781C82.901,25.171,83.073,23.544,84.645,22.187z"/>
<path fill="#BDAE97" d="M53.807,3.088c-2.295,0-4.592-0.003-6.888,0C49.213,3.088,51.509,3.088,53.807,3.088z"/>
<path fill="#FEBB5E" d="M62.998,9.158c0.988,0.345,1.979,0.693,2.968,1.038c0.09,1.447-0.472,2.563-1.688,3.354c-3.03,0.312-5.548,0.04-4.642-4.102l0.151,0.037C60.738,8.212,61.808,8.106,62.998,9.158z"/>
<path fill="#FEBB5E" d="M31.515,13.01c-0.449,0.796-0.557,1.639-0.327,2.523c-0.639,1.087-1.602,1.581-2.847,1.569c-1.248,0.034-2.219-0.482-2.951-1.477C27.432,14.752,29.474,13.879,31.515,13.01z"/>
<path fill="#644E24" d="M75.694,14.944c-1.193,0.247-2.387,0.495-3.579,0.745c-1.145,0.995-2.321,1.035-3.53,0.119c-0.152-0.666-0.305-1.331-0.459-1.996c0.501-0.461,1.001-0.925,1.503-1.389C71.65,13.263,73.673,14.102,75.694,14.944z"/>
<path fill="#7A5B2C" d="M25.39,15.625c1.178-0.009,2.356-0.019,3.534-0.03c1.018,0.726,1.332,1.41,0.946,2.057c-0.375,0.629-0.745,0.943-1.111,0.943c-2.136-0.809-4.274-1.621-6.41-2.429C23.332,15.808,24.345,15.628,25.39,15.625z"/>
<path fill="#3E2E16" d="M62.847,90.631c-0.045-1.15-0.091-2.301-0.137-3.451c-0.646-1.074-0.592-2.088,0.269-3.03c1.071-0.672,2.084-0.593,3.041,0.231l-0.044-0.07c0.722,0.837,1.203,1.792,1.443,2.872c0.008,1.15-0.467,2.063-1.359,2.774C64.99,90.183,63.919,90.405,62.847,90.631z"/>
<path fill="#726F49" d="M41.053,9.341l-1.538,0.021c0,0-1.538,0-1.538-0.003c0.922-0.907,1.844-1.813,2.765-2.719C40.9,7.538,41.003,8.435,41.053,9.341z"/>
<path fill="#726F49" d="M62.998,9.158c-1.07,0.107-2.14,0.217-3.211,0.327c-0.068-0.958-0.005-1.911,0.193-2.847C60.986,7.477,61.992,8.319,62.998,9.158z"/>
<path fill="#FEBB5E" d="M65.709,12.625c0.121-0.806,0.206-1.614,0.257-2.429c1.222,0.745,2.442,1.486,3.663,2.231c0-0.003-1.295,0.043-1.295,0.043c-0.42,0.335-0.838,0.671-1.258,1.01C66.621,13.196,66.165,12.909,65.709,12.625z"/>
<path fill="#726F49" d="M9.459,22.354c0.078,0.943,0.085,1.886,0.024,2.829c-0.803,1.138-1.601,1.193-2.39-0.012C7.881,24.231,8.67,23.294,9.459,22.354z"/>
<path fill="#726F49" d="M93.731,24.637c-0.801-0.799-1.601-1.599-2.401-2.398C92.131,23.038,92.93,23.837,93.731,24.637z"/>
<path fill="#BC8A46" d="M7.093,25.171c0.8-0.095,1.6-0.092,2.395,0.009c0.247,0.961,0.371,1.938,0.368,2.93c-0.945,0.006-1.878-0.083-2.803-0.263C6.662,26.95,6.676,26.059,7.093,25.171z"/>
<path fill="#3A3825" d="M66.06,89.957c-0.025-0.754-0.054-1.505-0.089-2.256c0.99-1.315,2.051-1.373,3.18-0.177l-0.071-0.07C68.074,88.287,67.067,89.123,66.06,89.957z"/>
<path fill="#3C2F17" d="M85.267,49.523c-2.331,0.202-4.664,0.406-6.997,0.607c-0.54-0.552-1.082-1.107-1.627-1.66c-1.463-3.091-1.272-6.021,0.857-8.764c1.891-1.608,4.087-2.212,6.535-1.965c1.53,0.403,2.902,1.12,4.114,2.142c1.184,1.438,1.063,2.759-0.36,3.961l0.105-0.211C86.045,45.163,87.275,48.065,85.267,49.523z"/>
<path fill="#614823" d="M81.497,62.223c0.094,1.193,0.187,2.386,0.279,3.576c0.773,0.794,1.028,1.581,0.767,2.368c-0.262,0.784-0.522,1.175-0.783,1.178c-4.511,0.907-6.624-1.238-7.057-5.529c0.593-1.327,1.561-2.283,2.897-2.862C79.041,60.938,80.341,61.358,81.497,62.223z"/>
<path fill="#805F2F" d="M85.267,49.523c0.876-1.965,1.752-3.927,2.628-5.89c0.052,1.111,0.104,2.222,0.154,3.333c0.405,0.564,0.81,1.129,1.216,1.693c-0.337,0.607-0.678,1.212-1.017,1.822c-1.352,0.775-2.494,0.583-3.392-0.735L85.267,49.523z"/>
<path fill="#614823" d="M84.787,68.79c0.923,1.067,1.845,2.139,2.768,3.207c-0.535,0.421-1.07,0.846-1.606,1.27c-0.613-0.296-1.229-0.595-1.843-0.892c-0.187-0.652-0.374-1.309-0.562-1.965C83.959,69.87,84.372,69.33,84.787,68.79z"/>
<path fill="#805F2F" d="M87.79,43.845c-0.078-1.114-0.157-2.225-0.235-3.339c-0.285-0.51-0.572-1.022-0.858-1.532c0.409-0.421,0.816-0.842,1.224-1.264c0.917-0.003,1.808,0.146,2.672,0.455C89.656,40.061,88.722,41.953,87.79,43.845z"/>
<path fill="#808080" d="M78.27,50.131c0.114,0.992,0.101,1.978-0.042,2.964l-1.007,1.113c-1.123,0.22-1.991-0.155-2.603-1.123c-0.426-1.028-0.273-1.968,0.459-2.808c0.853-0.958,1.723-0.973,2.609-0.045L78.27,50.131z"/>
<path fill="#3C2F17" d="M84.857,49.747c0.914-0.086,1.815-0.01,2.702,0.234c1.132,0.452,1.604,1.044,1.418,1.779c-0.205,0.806-0.464,1.209-0.778,1.209C87.085,51.896,85.971,50.821,84.857,49.747z"/>
<path fill="#7E6B4F" d="M88.199,52.97c-0.232-0.992-0.444-1.987-0.64-2.988l0.906-0.299c0.599,0.027,1.198,0.055,1.796,0.082C89.574,50.833,88.886,51.901,88.199,52.97z"/>
<path fill="#805F2F" d="M78.228,53.095c0.463,0.689,0.984,1.352,1.329,2.097c0.06,0.128-0.638,0.607-0.983,0.921c-0.431-0.5-0.862-0.997-1.293-1.498c0.407-0.521,0.814-1.041,1.223-1.56L78.228,53.095z"/>
<path fill="#3A3825" d="M78.574,56.112c-0.063,0.971-0.104,1.938-0.124,2.909c-0.504,0.497-1.007,0.997-1.511,1.495c-0.664-0.254-1.326-0.507-1.989-0.763c-0.225-0.678-0.447-1.353-0.672-2.03c0.223-0.681,0.445-1.357,0.669-2.035c0.648-0.306,1.297-0.607,1.945-0.909c0.52,0.491,1.039,0.985,1.556,1.477L78.574,56.112z"/>
<path fill="#808080" d="M81.497,62.223l-1.387,0.122l-1.392-0.028c-1.237-0.595-1.657-1.208-1.267-1.843c0.394-0.641,0.792-0.961,1.199-0.961c0,0-0.204-0.488-0.203-0.491C79.465,60.086,80.481,61.154,81.497,62.223z"/>
<path fill="#281C08" d="M81.784,68.774c-0.063-0.992-0.065-1.983-0.009-2.976c1.004,0.998,2.008,1.993,3.012,2.991l-0.148-0.11C83.725,69.857,82.773,69.833,81.784,68.774z"/>
<path fill="#808080" d="M90.261,49.765l-0.903,0.019c0,0-0.898-0.098-0.896-0.098c-0.242-0.891-0.383-1.797-0.415-2.719C88.788,47.9,89.525,48.831,90.261,49.765z"/>
<path fill="#805F2F" d="M85.031,74.552c-1.062,0.039-2.124,0.076-3.185,0.109c0-0.003-0.174,0.327-0.174,0.327c-0.765-0.639-1.143-1.364-1.134-2.186c0.011-0.867,0.111-1.3,0.304-1.3c1.145-0.857,2.362-0.977,3.651-0.363l0.312,1.212l1.193,0.991L85.031,74.552z"/>
<path fill="#808080" d="M85.031,74.552c-0.145-0.727-0.22-1.462-0.226-2.204c0.897-0.266,1.814-0.384,2.749-0.351C86.715,72.849,85.872,73.7,85.031,74.552z"/>
<path fill="#523A12" d="M41.574,28.546c0.882-1.242,1.764-2.487,2.646-3.732c1.335-0.748,2.756-0.983,4.263-0.72c3.89,2.093,8.748,2.582,11.371,6.809c0.517,1.532,0.332,2.994-0.435,4.4c-1.549,1.861-3.545,2.939-5.912,3.354c-3.028,0.387-6.079,0.354-9.125,0.369c-3.737-0.049-7.486,0.095-11.201-0.498c-2.878-0.692-5.522-2.097-8.42-2.747c-1.451-0.345-2.794-0.934-4.043-1.746C18.981,32.433,18,30.614,19.1,28.219l0.191-0.317c1.327-1.682,2.31-3.738,4.68-4.27c1.056-0.128,2.121-0.168,3.183-0.116c1.021,0.266,1.988,0.672,2.896,1.212c0.513,0.11,1.025,0.223,1.538,0.335c1.106,0.034,2.211,0.064,3.317,0.095c0.716,0.769,1.585,1.267,2.611,1.489c0.818,0.598,1.672,1.141,2.563,1.626L41.574,28.546z"/>
<path fill="#BF8E46" d="M28.555,25.07c-3.088,0.943-6.177,1.889-9.264,2.832c-0.103-1.007-0.273-2.005-0.514-2.991c3.231-0.971,6.465-1.941,9.698-2.909c0.9,0.659,1.21,1.334,0.936,2.023C29.132,24.722,28.846,25.07,28.555,25.07z"/>
<path fill="#4F3810" d="M37.141,12.436c1.303,0.024,2.608,0.045,3.911,0.07c1.012,1.035,1.729,2.25,2.19,3.62c0.186,2.289-0.496,4.193-2.458,5.527C39.571,18.579,38.356,15.509,37.141,12.436z"/>
<path fill="#F8D39B" d="M28.759,18.594c-0.22-1.016-0.166-2.014,0.165-3c0.761,0.119,1.518,0.098,2.269-0.062c0.671,0.504,1.346,1.007,2.949,2.201C31.795,18.109,30.277,18.35,28.759,18.594z"/>
<path fill="#7A5B2C" d="M40.783,21.652c0.151-2.097,0.301-4.19,0.452-6.287c0.565-0.366,1.129-0.732,1.695-1.099c0.627,0.25,1.253,0.5,1.88,0.75c0.838,1.099,1.29,2.341,1.41,3.711c-0.146,0.659-0.296,1.318-0.444,1.98c-0.417,0.531-0.834,1.063-1.252,1.596C43.277,22.085,42.03,21.869,40.783,21.652z"/>
<path fill="#FEBB5E" d="M37.589,28.738c-0.893-1.193-1.787-2.386-2.681-3.58c2.222,1.129,4.445,2.255,6.668,3.387c-0.001,0-0.97-0.534-0.97-0.534C39.821,29.169,38.804,29.367,37.589,28.738z"/>
<path fill="#4F3810" d="M28.555,25.07c-0.055-1.022-0.081-2.048-0.08-3.07c1.038,1.022,2.075,2.045,3.113,3.064l0.154-0.156c-1.088,1.074-2.191,1.044-3.31,0.049L28.555,25.07z"/>
<path fill="#FEBB5E" d="M47.237,24.835l-1.511,0.08c0,0-1.509-0.101-1.507-0.101c-0.055-0.858,0.046-1.697,0.302-2.512c0.003,0.003-0.299-0.159-0.299-0.159c1.314-0.751,2.425-0.519,3.331,0.693C47.447,23.502,47.342,24.167,47.237,24.835z"/>
<path fill="#605331" d="M50.279,84.308c-1.193,1.142-2.387,2.286-3.58,3.428c-0.918,0.799-1.774,0.781-2.557-0.192l-0.396-0.284c-1.336-1.08-3.081-1.703-3.847-3.433c-0.136-1.218,0.064-2.372,0.592-3.482c0.727-1.014,1.628-1.822,2.674-2.493c2.36-1.104,4.72-1.475,7.064,0.027c0.618,0.681,0.865,1.397,0.745,2.148c-0.126,0.766-0.278,1.147-0.46,1.147C50.436,82.221,50.358,83.264,50.279,84.308z"/>
<path fill="#3E2E16" d="M50.515,81.174c-0.027-1.047-0.055-2.097-0.082-3.146c0.138-0.616,0.274-1.236,0.412-1.855c0.746-1.065,1.713-1.844,2.943-2.289c1.318,0.016,2.499,0.409,3.527,1.245c0.764,1.071,1.21,2.259,1.301,3.577c-0.148,0.635-0.301,1.264-0.449,1.898c-0.413,0.5-0.827,1-1.242,1.504c-1.322,0.516-2.445,0.235-3.369-0.846C52.542,81.247,51.529,81.217,50.515,81.174z"/>
<path fill="#281C08" d="M53.556,81.262c1.036,0.01,2.071,0.019,3.107,0.028c0.698,0.744,0.896,1.449,0.597,2.117c-0.292,0.65-0.566,0.977-0.824,0.977C55.476,83.344,54.516,82.303,53.556,81.262z"/>
<path fill="#805F2F" d="M56.436,84.384c0.119-1.028,0.193-2.06,0.226-3.094c0.002,0,0.148,0.186,0.148,0.186c0.945-0.934,1.935-0.937,2.961-0.137c0.258,0.524,0.513,1.053,0.771,1.577c-0.234,0.537-0.469,1.074-0.704,1.611C58.705,84.481,57.57,84.433,56.436,84.384z"/>
<path fill="#808080" d="M62.863,84.381c-0.029,0.938-0.079,1.868-0.151,2.799c-0.959-0.885-1.918-1.771-2.874-2.655c0.001,0.003-0.043,0.027-0.043,0.027c0.491-0.402,0.981-0.806,1.473-1.205C61.8,83.691,62.331,84.036,62.863,84.381z"/>
<path fill="#AF8C59" d="M15.289,47.235c0.253-2.414,0.506-4.828,0.761-7.239c1.21-0.598,2.457-0.653,3.738-0.25c1.822,0.971,3.026,2.441,3.61,4.422c0.099,1.349-0.224,2.582-1.028,3.678c-1.115,0.741-2.35,1.117-3.685,1.178c-0.633-0.168-1.268-0.339-1.901-0.507C16.286,48.09,15.788,47.662,15.289,47.235z"/>
<path fill="#3B2A0C" d="M9.795,49.979c1.831-0.915,3.664-1.831,5.495-2.743l0.957-0.424c0.496,1.422,0.281,2.704-0.764,3.821c-2.077,1.138-4.01,1.071-5.745-0.681L9.795,49.979z"/>
<path fill="#3B2A0C" d="M15.956,37.39c-1.224-0.266-2.449-0.531-3.75-0.812c0.325-0.985,0.575-1.745,0.826-2.508c1.033-0.781,2.052-0.763,3.058,0.052C16.644,35.235,16.6,36.325,15.956,37.39z"/>
<path fill="#5A4321" d="M15.956,37.39c0.013-0.995,0.02-1.99,0.023-2.985c0.418-0.427,0.835-0.851,1.253-1.278c1.239-0.052,2.318,0.326,3.212,1.199c0.537,1.096,0.783,2.249,0.701,3.47c-0.217,0.562-0.437,1.12-0.655,1.682c-0.459,0.388-0.922,0.772-1.382,1.157c-1.027-0.177-2.046-0.388-3.058-0.638C16.014,39.127,15.984,38.257,15.956,37.39z"/>
<path fill="#BCBCBC" d="M9.67,28.07c1.025,1.043,2.051,2.084,3.074,3.125C11.718,30.154,10.693,29.114,9.67,28.07z"/>
<path fill="#8D6A34" d="M15.979,34.405c-0.995-0.009-1.979-0.116-2.949-0.329c-0.104-0.961-0.127-1.917-0.067-2.878c0.977-0.019,1.953-0.016,2.93,0.009c0.907,0.681,1.186,1.334,0.844,1.953c-0.334,0.604-0.662,0.907-0.985,0.907L15.979,34.405z"/>
<path fill="#555134" d="M22.147,75.106c-1.18-0.131-2.358-0.259-3.536-0.388c-0.758-0.848-1.358-1.794-1.801-2.841c-0.188-2.133,1.108-4.474-0.882-6.359l0.131,0.18c-1.904-1.303-1.797-3.171-1.431-5.108c0.36-0.525,0.722-1.053,1.077-1.584c0.54-0.333,1.088-0.665,1.626-1.007c2.518-0.77,4.959-0.224,7.393,0.439c1.736,0.54,3.509,1.013,5.164,1.821c1.082,0.58,2.005,1.364,2.8,2.298c0.641,1.028,1.027,2.158,1.192,3.357c0.006,1.175-0.249,2.316-0.684,3.402c-0.784,1.462-1.895,2.64-3.317,3.482c0.041,0.003-1.384,0.562-1.34,0.577c0.044,0.018-1.39,0.308-1.346,0.345c-0.825,0.25-1.686,0.497-2.508,0.833c0.026,0.046-1.23,0.473-1.222,0.491C23.469,75.061,22.147,75.106,22.147,75.106z"/>
<path fill="#AD8040" d="M9.761,71.815c2.006-0.956,4.012-1.914,6.018-2.869c1.117,0.424,1.715,1.215,1.713,2.43c0.073,1.162-0.326,2.13-1.198,2.901C14.116,73.456,11.938,72.635,9.761,71.815z"/>
<path fill="#3B2A0C" d="M34.691,81.204c-1.018,2.118-2.036,4.236-3.053,6.354c-1.024-2.084-2.049-4.168-3.073-6.256c0,0,0.862-1.261,0.861-1.264c0.888-0.616,1.865-0.83,2.93-0.641c0.001-0.003,1.416,0.583,1.416,0.583C33.772,79.978,34.691,81.204,34.691,81.204z"/>
<path fill="#555236" d="M22.185,77.561c0.05-0.818,0.038-1.639-0.038-2.457c0,0.003,0.024-0.033,0.024-0.033c0.749-1.16,1.813-1.7,3.19-1.617c1.331,0.076,2.479,0.564,3.418,1.525c0.233,0.604,0.465,1.209,0.699,1.813c-0.129,1.389-0.829,2.322-2.187,2.726C25.268,79.706,23.462,79.324,22.185,77.561z"/>
<path fill="#453213" d="M22.185,77.561c1.903,0.263,3.804,0.521,5.707,0.781c1.017,0.461,1.443,1.044,1.287,1.752c-0.172,0.766-0.398,1.15-0.681,1.15l0.067,0.058C26.439,80.057,24.312,78.809,22.185,77.561z"/>
<path fill="#B89C74" d="M16.295,74.276c0.011-0.839-0.063-1.669-0.221-2.493c0.554-0.61,1.108-1.221,1.662-1.834c0.442,0.699,0.884,1.395,1.326,2.091c-0.012,0.915-0.162,1.81-0.45,2.679C17.79,74.826,17.018,74.68,16.295,74.276z"/>
<path fill="#3B2A0C" d="M16.014,59.402c0.015,2.1,0.031,4.196,0.046,6.296c-1.417-0.458-2.836-0.915-4.51-1.456c0.521-1.739,0.955-3.183,1.388-4.629l0.652-1.294c-0.002,0,1.448,0.015,1.448,0.015L16.014,59.402z"/>
<path fill="#3B2A0C" d="M19.061,72.04c-0.995-0.11-1.991-0.195-2.989-0.257c0.055-0.961-0.043-1.907-0.293-2.838c0.05-1.142,0.101-2.283,0.149-3.424C16.972,67.694,18.016,69.867,19.061,72.04z"/>
<path fill="#BCBCBC" d="M10.093,56.448c0.906-0.003,1.808-0.076,2.704-0.217c0.377,0.482,0.754,0.968,1.13,1.453c-0.421,0.445-0.842,0.891-1.265,1.337c0,0,0.276,0.592,0.274,0.592C11.989,58.561,11.041,57.504,10.093,56.448z"/>
<path fill="#BC8A46" d="M40.954,81.274c0.11,1.071,0.22,2.143,0.332,3.21l1.008,1.114l-1.059,1.065c-1.094-1.785-2.188-3.57-3.282-5.359l0.853-0.939l1.271-0.006L40.954,81.274z"/>
<path fill="#3B2A0C" d="M37.953,81.305c-1.086-0.03-2.174-0.063-3.261-0.101c-0.001,0,0.103,0.104,0.103,0.104c-0.697-0.613-0.955-1.251-0.775-1.916c0.185-0.678,0.385-1.017,0.6-1.017c1.082-0.646,2.176-0.665,3.281-0.058c0.63,0.668,0.842,1.34,0.636,2.011c-0.206,0.675-0.414,1.011-0.623,1.011L37.953,81.305z"/>
<path fill="#BCBCBC" d="M41.235,86.664c0.085-0.724,0.101-1.447,0.046-2.176c0.826,0.921,1.646,1.846,2.466,2.771C42.843,87.342,42.006,87.143,41.235,86.664z"/>
<path fill="#8D6A34" d="M44.142,87.543c0.856,0.046,1.709,0.109,2.56,0.192c0.278,0.869,0.308,1.745,0.084,2.627C45.903,89.423,45.023,88.482,44.142,87.543z"/>
<path fill="#755624" d="M68.895,15.555c1.074,0.046,2.148,0.089,3.221,0.134c-0.258,1.02-0.217,2.026,0.12,3.024c1.423,5.658-2.925,5.612-6.371,6.482c-2.204,0.04-4.264-0.537-6.201-1.557c-1.315-0.479-2.563-1.123-3.757-1.858c-1.684-1.236-3.075-2.74-4.065-4.596c-0.519-1.251-0.74-2.566-0.697-3.925c0.325-1.297,0.916-2.475,1.76-3.524c2.244-0.098,4.488-0.192,6.731-0.287c2.025,1.059,4.05,2.118,6.075,3.177c-0.002,0,0.488-0.058,0.488-0.058C67.214,13.458,68.118,14.45,68.895,15.555z"/>
<path fill="#F8D39B" d="M52.904,9.735c0.102,0.726,0.14,1.458,0.115,2.194c-0.521,1.013-1.124,1.978-1.808,2.893c-1.074,1.459-2.506,2.298-4.306,2.497c-1.184-0.168-2.095-0.775-2.771-1.752l0.023,0.031c-1.012-0.666-1.389-1.379-1.131-2.146c0.267-0.793,0.556-1.187,0.867-1.187c0.389-0.781,0.65-1.599,0.781-2.46C47.417,9.781,50.16,9.76,52.904,9.735z"/>
<path fill="#555236" d="M15.75,34.067c0.114-0.949,0.162-1.901,0.143-2.86c1.068-0.998,2.138-1.993,3.206-2.987c1.155,1.092,2.31,2.185,3.464,3.277c0.557,1.062,0.429,2.06-0.287,3.003c-0.982,0.727-1.959,0.684-2.93-0.027C18.147,34.338,16.949,34.204,15.75,34.067z"/>
<path fill="#2F220D" d="M72.301,81.256c-2.111-0.006-4.224-0.009-6.335-0.015c-0.371-0.482-0.742-0.965-1.114-1.447c-0.189-1.241-0.008-2.426,0.534-3.562c0.741-1.013,1.654-1.827,2.753-2.438c0.605-0.144,1.213-0.271,1.82-0.412c0.613,0.101,1.225,0.21,1.84,0.314c0.504,0.359,1.009,0.726,1.514,1.086c0.662,1.071,0.974,2.246,0.987,3.504c-0.203,0.579-0.409,1.162-0.615,1.742C73.223,80.439,72.763,80.848,72.301,81.256z"/>
<path fill="#281C08" d="M66.02,84.381c-1.053,0-2.104,0-3.157,0l-0.209,0.192c-0.729-1.129-0.73-2.23,0.109-3.308c1.087-0.837,2.167-0.824,3.241,0.027l-0.039-0.052C65.983,82.287,66.002,83.334,66.02,84.381z"/>
<path fill="#281C08" d="M75.338,81.234c0.017,1.06,0.033,2.121,0.05,3.181c-1.03-1.054-2.059-2.106-3.087-3.159l-0.06-0.009c0.515-0.399,1.028-0.797,1.543-1.196C74.301,80.447,74.818,80.841,75.338,81.234z"/>
<path fill="#281C08" d="M69.151,87.524c-1.061,0.058-2.119,0.113-3.179,0.174c0-1.129,0.002-2.258,0.004-3.388C67.033,85.382,68.092,86.453,69.151,87.524z"/>
<path fill="#281C08" d="M78.468,74.981c-1.044,2.085-2.088,4.169-3.131,6.253l0.045,0.037c-1.019-0.852-1.528-1.941-1.53-3.269c-0.044-1.303,0.325-2.475,1.106-3.521c0.616-0.144,1.234-0.29,1.853-0.434C77.363,74.359,77.916,74.67,78.468,74.981z"/>
<path fill="#281C08" d="M81.586,71.894c0.011,1.031,0.038,2.063,0.085,3.095c-1.064-0.004-2.133-0.004-3.201-0.007c-0.001,0,0.021,0.021,0.021,0.021C77.716,72.171,78.797,71.18,81.586,71.894z"/>
<path fill="#614823" d="M85.473,27.597c0,0,1.465,0.174,1.46,0.174c1.177,1.065,2.358,2.136,3.533,3.201c-1.022,0.183-2.045,0.336-3.072,0.458c-0.624,0.232-1.248,0.46-1.872,0.693c-0.507-0.431-1.013-0.861-1.52-1.294c-0.03-0.663-0.062-1.328-0.092-1.993C84.431,28.424,84.952,28.009,85.473,27.597z"/>
<path fill="#BF8E46" d="M43.893,12.265c0.087,1.111,0.176,2.222,0.264,3.333c-0.986,0.055-1.964-0.019-2.927-0.226c-0.186-0.949-0.247-1.904-0.18-2.866C42.008,12.522,42.955,12.442,43.893,12.265z"/>
<path fill="#808080" d="M84.722,31.485c0.892-0.088,1.782-0.107,2.674-0.058c0.078,0.8,0.095,1.603,0.049,2.402c-0.546,1.203-1.365,1.435-2.46,0.699C84.26,33.569,84.174,32.553,84.722,31.485z"/>
<path fill="#614823" d="M85.304,34.112c0.733,0.052,1.448-0.042,2.143-0.284c0.156,1.294,0.315,2.585,0.473,3.882l0.014-0.22c-0.561,0.488-1.12,0.977-1.679,1.465c-0.668-0.314-1.338-0.635-2.007-0.952c-0.123-0.729-0.247-1.461-0.37-2.191C84.353,35.248,84.828,34.68,85.304,34.112z"/>
<path fill="#644E24" d="M62.839,21.863c3.133-1.05,6.266-2.1,9.397-3.149c1.943,0.098,3.886,0.198,5.829,0.299c0.097,2.032,0.191,4.063,0.285,6.091c-0.364,0.559-0.73,1.114-1.091,1.679c-1.587,1.346-3.433,2.081-5.483,2.344c-2.051,0.144-4.05-0.095-5.964-0.888c-1.203-0.631-2.215-1.504-3.049-2.579c-0.212-0.632-0.418-1.272-0.625-1.91C62.37,23.123,62.605,22.495,62.839,21.863z"/>
<path fill="#5A4A23" d="M84.645,22.187c0.271,1.807,0.543,3.61,0.82,5.414c0.008-0.003-0.714,0.516-0.714,0.516c-0.936,1.041-2.104,1.642-3.478,1.865c-1.387-0.149-2.574-0.723-3.589-1.672c-0.54-1.376-0.271-2.536,0.933-3.442l-0.266,0.238C80.449,24.133,82.547,23.16,84.645,22.187z"/>
<path fill="#644A24" d="M12.798,56.231c-0.314-0.909-0.557-1.837-0.727-2.78c0.879-1.211,2.057-1.986,3.499-2.383c1.277-0.748,2.566-1.459,3.885-2.14c0.752-0.012,1.496-0.021,2.249-0.027c1.355,0.79,2.293,1.923,2.892,3.363c0.162,3.955,0.525,8.071-5.577,7.095l0.189,0.083c-1.123-0.995-2.385-1.67-3.928-1.694c-1.001-0.125-1.874-0.53-2.618-1.211L12.798,56.231z"/>
<path fill="#555236" d="M16.411,52.902c-1.443,0.183-2.887,0.363-4.335,0.546c-0.783-1.165-1.561-2.331-2.339-3.497c1.968,0.04,3.935,0.079,5.904,0.119c0.627,0.336,1.254,0.671,1.884,1.007C17.155,51.688,16.783,52.295,16.411,52.902z"/>
<path fill="#FEFEFE" d="M68.895,15.555c-0.899-0.998-1.8-1.996-2.698-2.991c0.717,0.058,1.43,0.028,2.138-0.094C68.521,13.498,68.709,14.526,68.895,15.555z"/>
<path fill="#3A3723" d="M84.722,31.485c0.113,0.894,0.307,1.77,0.582,2.627L84.07,34.6c-0.251,0.824-0.806,1.212-1.654,1.157c0.012-0.009,0.367,0.971,0.367,0.971s0.65-0.815,0.672-0.809c0.242,0.751,0.71,1.27,1.424,1.572l-0.135-0.064c0.965,0.723,1.279,1.44,0.948,2.148c-0.33,0.705-0.658,1.059-0.986,1.059c-2.146,0.027-4.294,0.058-6.44,0.088c-1.065,0.998-2.295,1.288-3.699,0.867c-1.911-1.099-3.077-2.737-3.558-4.883c-0.119-3.137,1.399-5.295,4.059-6.76c2.018-0.674,4.083-0.25,6.133-0.238c1.436-0.052,2.595,0.491,3.476,1.633L84.722,31.485z"/>
<path fill="#805F2F" d="M75.787,41.132c0.815-0.211,1.643-0.348,2.48-0.409c-0.192,3.171-0.384,6.342-0.577,9.513c-0.003-0.003-1.142,0.046-1.142,0.046l-1.14-0.053c-0.508-0.375-1.017-0.75-1.527-1.126c-0.662-1.102-1.033-2.295-1.122-3.576C73.009,43.54,73.79,41.916,75.787,41.132z"/>
<path fill="#281C08" d="M84.706,40.634c0.013-1.068,0.024-2.136,0.037-3.208c1.062,0.021,2.124,0.043,3.188,0.064c-0.024,1.02-0.146,2.026-0.369,3.018C86.607,40.579,85.657,40.622,84.706,40.634z"/>
<path fill="#342A16" d="M81.586,71.894c-1.031,1.037-2.064,2.072-3.096,3.109c-1.052,0.003-2.104,0.003-3.154,0.006c-0.556,0.653-1.111,1.307-1.666,1.96c-0.518-0.684-1.035-1.367-1.552-2.051l0.114,0.161c-0.969-0.985-1.871-2.026-2.705-3.137c-0.547-1.304-0.813-2.661-0.823-4.074c0.191-1.407,0.638-2.729,1.354-3.955c0.928-1.09,2.083-1.841,3.452-2.259c0.651,0.254,1.306,0.51,1.96,0.764c2.104,2.117,4.207,4.238,6.313,6.356c0.951-0.052,1.904-0.082,2.855-0.095c-0.006,0.824-0.053,1.645-0.143,2.463C83.55,71.484,82.581,71.734,81.586,71.894z"/>
<path fill="#805F2F" d="M78.651,59.513c-0.105,0.938-0.085,1.873,0.064,2.804c-1.082,0.034-2.165,0.07-3.247,0.104c0.001-0.003-0.285,0.241-0.285,0.241c-0.852-1.145-0.687-2.115,0.499-2.912C76.66,59.53,77.65,59.451,78.651,59.513z"/>
<path fill="#3D3722" d="M75.682,59.75c-0.178,0.968-0.344,1.936-0.498,2.908c-1.072,1.12-2.144,2.237-3.215,3.357c-0.646,0.266-1.294,0.531-1.942,0.803c-1.384-0.396-2.533-1.147-3.469-2.243c-2.759-4.422-1.895-9.488-2.532-14.294c0.23-1.407,0.79-2.671,1.65-3.8c1.112-0.876,2.379-1.398,3.783-1.578c1.399,0.141,2.647,0.65,3.714,1.581c0.57,1.248,1.221,2.457,1.951,3.625c0,0,0.285,0.113,0.285,0.116c-0.155,0.949-0.166,1.896-0.033,2.845c1.001,0.714,1.331,1.425,0.99,2.133c-0.337,0.705-0.674,1.056-1.013,1.056l0.056-0.076c-0.738,0.537-1.032,1.123-0.883,1.765c0.155,0.668,0.342,1,0.559,1L75.682,59.75z"/>
<path fill="#281C08" d="M75.354,56.259c0.006-1.062,0.014-2.12,0.021-3.186c1.042,0.058,2.084,0.058,3.126-0.013c-0.014,1.063-0.03,2.127-0.049,3.195c-0.005,0-1.552-0.006-1.552-0.006L75.354,56.259z"/>
<path fill="#281C08" d="M75.086,58.947c-0.214-0.662-0.523-1.314-0.586-1.992c-0.021-0.226,0.589-0.513,0.91-0.772C75.357,57.11,75.247,58.032,75.086,58.947z"/>
<path fill="#BF8E46" d="M59.673,31.055c-4.146-2.072-8.292-4.147-12.436-6.22l-0.202,0.241c0.787-0.979,1.695-1.828,2.726-2.554c1.196-0.464,2.433-0.674,3.716-0.659c1.284,0.162,2.485,0.574,3.631,1.172c1.639,1.105,2.807,2.582,3.431,4.468c0.035,0.632,0.061,1.27,0.09,1.904C60.312,29.953,59.991,30.505,59.673,31.055z"/>
<path fill="#6E653F" d="M31.616,34.372c4.199,0.119,8.398,0.241,12.596,0.36c0.396,1.435,0.189,2.756-0.714,3.958c-1.653,1.538-3.627,2.255-5.863,2.322c-2.241-0.149-4.178-0.971-5.731-2.625c-0.297-0.647-0.592-1.303-0.888-1.953C31.215,35.748,31.416,35.059,31.616,34.372z"/>
<path fill="#EFB058" d="M44.084,37.366c-0.047-0.885-0.003-1.761,0.131-2.634c3.082,0.049,6.166,0.095,9.251,0.141c1.854,1.675,1.898,3.641,0.93,5.777c-1.095,1.007-2.379,1.575-3.859,1.724c-2.287-0.216-4.143-1.242-5.618-2.988C44.638,38.715,44.362,38.04,44.084,37.366z"/>
<path fill="#726F49" d="M53.227,39.731c0.078-1.621,0.154-3.241,0.236-4.862c2.116-0.14,4.229-0.284,6.342-0.424c0.27,0.574,0.54,1.147,0.812,1.721c-0.089,1.297-0.526,2.466-1.257,3.531C57.324,41.138,55.289,43.082,53.227,39.731z"/>
<path fill="#726F49" d="M25.135,31.638c2.161,0.912,4.32,1.822,6.48,2.734l0.026-0.07c-1.517,1.914-3.377,1.886-5.399,0.958C25.176,34.265,24.838,33.051,25.135,31.638z"/>
<path fill="#FEFEFE" d="M37.589,28.738c1.005-0.244,2.011-0.485,3.018-0.726c-0.156,0.775-0.31,1.55-0.464,2.325C39.291,29.804,38.44,29.273,37.589,28.738z"/>
<path fill="#BC8A46" d="M25.135,31.638c0.135,0.912,0.23,1.828,0.289,2.747l-0.916,0.9c0,0.003-1.285,0.016-1.285,0.019l-0.938-0.879c-0.034-0.989,0.058-1.965,0.278-2.93C23.431,31.351,24.289,31.397,25.135,31.638z"/>
<path fill="#726F49" d="M59.805,34.445c-0.044-1.129-0.09-2.258-0.135-3.391c0.002,0-0.15,0.192-0.15,0.192c0.48-0.427,0.959-0.854,1.438-1.282c0.609,0.198,1.219,0.4,1.828,0.598c0.74,1.141,0.806,2.319,0.195,3.537c-1.053,0.937-2.161,1.004-3.322,0.198L59.805,34.445z"/>
<path fill="#726F49" d="M28.433,24.957c1.103-0.018,2.205-0.033,3.308-0.049C30.639,24.924,29.536,24.939,28.433,24.957z"/>
<path fill="#5A4A23" d="M50.586,24.136c-1.184,0.314-2.368,0.625-3.551,0.94c-0.938-0.977-1.876-1.956-2.813-2.933c-0.014-1.248-0.029-2.493-0.043-3.741c0.938-0.821,2.031-1.264,3.278-1.334c1.241-0.238,2.397-0.027,3.476,0.626c0.79,0.97,1.234,2.078,1.34,3.323C52.07,22.251,51.527,23.3,50.586,24.136z"/>
<path fill="#BF8E46" d="M50.32,18.683c-2.048-0.091-4.095-0.186-6.143-0.277c-0.079-0.946-0.094-1.892-0.042-2.838c1.129-0.119,2.258-0.235,3.389-0.354c0.569-0.33,1.139-0.662,1.708-0.995c0.559,0.345,1.116,0.696,1.675,1.043C51.558,16.547,51.363,17.685,50.32,18.683z"/>
<path fill="#412F0F" d="M50.433,78.027c-2.034,1.037-4.068,2.072-6.104,3.109c-4.297-3.164-2.946-7.363-2.113-11.478c0.139-1.406,0.256-2.808,0.333-4.227c0.04-1.456,0.114-2.896,0.21-4.349c0.197-2.307,0.792-4.459,2.207-6.342c1.099-1.224,2.455-1.938,4.081-2.173c1.602,0.452,2.902,1.334,3.926,2.64c2.739,5.396,2.369,10.938,0.783,16.538c-1.158,2.124-1.949,4.449-3.431,6.402L50.433,78.027z"/>
<path fill="#5E4D2B" d="M46.91,68.25c-0.86,4.297-1.723,8.594-2.582,12.887c-1.123,0.046-2.248,0.092-3.374,0.138l0.034-0.07c-0.99-1.123-1.758-2.38-2.306-3.771c-1.907-3.385-2.499-6.977-1.718-10.788c0.43-1.422,1.112-2.72,2.052-3.867c0.592-0.415,1.198-0.83,1.791-1.245c0.711-0.063,1.436-0.125,2.15-0.192c1.401,0.534,2.274,1.542,2.606,3.004C45.63,65.772,46.058,67.084,46.91,68.25z"/>
<path fill="#805F2F" d="M50.325,78.149c0.076-1.962,0.154-3.925,0.23-5.887c0.781-1.364,1.872-1.605,3.228-0.888c0.793,1.26,0.72,2.469-0.222,3.622C52.482,76.047,51.404,77.1,50.325,78.149z"/>
<path fill="#808080" d="M53.561,74.997c-0.024-0.992,0.038-1.978,0.188-2.957c1.055-0.852,2.169-0.938,3.342-0.254c0.163,0.604,0.325,1.212,0.488,1.816c-0.271,0.564-0.543,1.126-0.816,1.69C55.696,75.195,54.628,75.095,53.561,74.997z"/>
<path fill="#281C08" d="M56.622,78.101c0.011-0.94,0.057-1.874,0.141-2.808l-0.351-0.641c1.05-0.913,2.174-1.02,3.377-0.32c0.668,1.165,0.7,2.353,0.098,3.552C58.859,78.852,57.769,78.925,56.622,78.101z"/>
<path fill="#3A3825" d="M56.622,78.101c1.038,0.016,2.074,0.021,3.111,0.021c0,0,1.079,1.007,1.082,1.007c0.002,0,0.076,1.48,0.079,1.48c0.002,0-1.172,0.906-1.172,0.906l-1.457-0.104c0,0-1.46,0.058-1.457,0.061C56.748,80.35,56.685,79.224,56.622,78.101z"/>
<path fill="#614823" d="M62.825,81.25c-0.057,1.107-0.111,2.213-0.169,3.323c-0.002,0-1.432-0.098-1.432-0.098s-1.432,0.07-1.43,0.073c-0.03-1.013-0.054-2.026-0.072-3.036c0,0.003-0.033-0.684-0.033-0.684c0.567-0.266,1.137-0.534,1.704-0.803C61.871,80.432,62.347,80.841,62.825,81.25z"/>
<path fill="#3B2A0C" d="M19.018,59.359c1.036-3.177,2.072-6.354,3.108-9.53c-1.173-0.351-1.672-0.882-1.5-1.59c0.192-0.797,0.447-1.193,0.766-1.193c-0.038-1.135-0.075-2.271-0.113-3.406c0.532-0.452,1.065-0.9,1.598-1.352c2.167-0.677,4.13-0.314,5.891,1.135c0.865,1.142,1.427,2.417,1.66,3.833c-0.623,4.761,0.334,9.916-3.371,13.937c-0.528,0.452-1.058,0.904-1.588,1.353C23.32,61.483,21.169,60.422,19.018,59.359z"/>
<path fill="#B89C74" d="M21.393,47.046c0.587,0.836,0.833,1.764,0.734,2.783c-0.87,0.382-1.778,0.54-2.725,0.479c-1.027-0.531-1.459-1.176-1.299-1.936c0.172-0.817,0.401-1.227,0.687-1.227C19.658,47.101,20.525,47.067,21.393,47.046z"/>
<path fill="#BCBCBC" d="M18.79,47.147c0.204,1.053,0.407,2.105,0.612,3.162l-0.066-0.073c-1.147,1.064-2.039,0.83-2.707-0.531l-0.989,0.366c0.201-1.087,0.404-2.173,0.605-3.259C17.123,46.704,17.972,46.817,18.79,47.147z"/>
<path fill="#5A4321" d="M21.28,43.64c-0.725-1.004-1.45-2.005-2.173-3.006l0.101-0.104c1.129-0.696,2.217-0.638,3.265,0.177c0.8,1.086,0.772,2.151-0.081,3.198L21.28,43.64z"/>
<path fill="#BC8A46" d="M19.346,34.473c0.978-0.079,1.958-0.098,2.938-0.049c0.001,0-0.083-0.085-0.083-0.085c0.639,0.677,0.867,1.364,0.681,2.066c-0.188,0.708-0.383,1.062-0.586,1.062c-1.088,0.827-2.103,0.745-3.044-0.247C19.177,36.301,19.208,35.385,19.346,34.473z"/>
<path fill="#555236" d="M19.252,37.219c0.987,0.131,1.949,0.031,2.886-0.305c0,0,1.051,1.068,1.053,1.068s0.015,1.501,0.017,1.501c0.002,0.003-0.973,1.145-0.973,1.145c-1.01-0.006-2.021-0.037-3.027-0.098C19.223,39.426,19.238,38.324,19.252,37.219z"/>
<path fill="#BC8A46" d="M31.96,65.316c-0.151-0.915-0.238-1.837-0.258-2.765c0.513-0.448,1.025-0.897,1.54-1.349c2.146-0.592,4.012-0.223,5.457,1.59c0.052,1.428-0.393,2.661-1.415,3.678C35.237,67.337,33.348,67.486,31.96,65.316z"/>
<path fill="#8D6A34" d="M31.96,65.316c1.745,0.07,3.489,0.138,5.235,0.208c0.604,0.187,1.208,0.372,1.813,0.559c0.188,1.288-0.04,2.49-0.743,3.598c-1.102,0.687-2.306,0.992-3.598,0.977c-0.598-0.21-1.196-0.427-1.794-0.641c-0.403-0.491-0.804-0.982-1.205-1.478C31.764,67.465,31.862,66.391,31.96,65.316z"/>
<path fill="#3B2A0C" d="M15.658,56.305c1.183,1.047,2.365,2.091,3.548,3.138c-1.063-0.013-2.127-0.024-3.192-0.04l-0.047-0.049c-0.901-0.592-1.247-1.242-1.039-1.947C15.144,56.674,15.387,56.305,15.658,56.305z"/>
<path fill="#3B2A0C" d="M31.701,62.552c-1.107,0-2.215-0.003-3.323-0.006c-0.223-0.623-0.444-1.248-0.668-1.874c0.769-1.227,1.88-1.663,3.284-1.422c0.812,0.607,1.183,1.303,1.111,2.09c-0.076,0.83-0.223,1.246-0.441,1.246L31.701,62.552z"/>
<path fill="#BC8A46" d="M28.378,62.546c-0.478,0.598-0.954,1.196-1.454,1.794c-0.502-0.598-0.978-1.196-1.454-1.791c0-0.003-0.066,0.052-0.066,0.052c1.001-1.666,2.008-1.587,3.023-0.012L28.378,62.546z"/>
<path fill="#BC8A46" d="M22.322,71.74c0.507-0.576,1.013-1.156,1.555-1.775c0.597,0.799,1.065,1.428,1.534,2.057C24.255,73.31,23.233,73.15,22.322,71.74z"/>
<path fill="#3B2A0C" d="M28.439,71.954c1.076-1.138,2.151-2.273,3.228-3.411c0-0.004,0.036,0.149,0.036,0.149c0.516,1.485,0.136,2.691-1.14,3.61C29.855,72.187,29.147,72.07,28.439,71.954z"/>
<path fill="#3B2A0C" d="M22.322,71.74c1.028,0.098,2.057,0.192,3.087,0.281c0.001,0-0.22-0.177-0.22-0.177c1.221,0.552,1.686,1.199,1.399,1.943c-0.306,0.794-0.638,1.19-1.001,1.19c-1.139,0.03-2.277,0.062-3.415,0.092C22.221,73.963,22.272,72.852,22.322,71.74z"/>
<path fill="#BC8A46" d="M25.588,74.979c-0.133-1.044-0.264-2.09-0.397-3.134c1.082,0.033,2.165,0.07,3.249,0.106c0,0.003,0.012-0.033,0.012-0.033c0.369,0.485,0.739,0.974,1.111,1.459c-0.273,0.543-0.549,1.089-0.825,1.635C27.687,75,26.637,74.991,25.588,74.979z"/>
<path fill="#8D6A34" d="M28.497,81.244c0.042-1.02-0.157-1.987-0.603-2.905c-0.003,0.003,1.134-0.537,1.134-0.537c1.062-0.357,2.022-0.192,2.867,0.564c0.633,1.017,0.47,1.886-0.487,2.609C30.444,81.125,29.474,81.213,28.497,81.244z"/>
<path fill="#555236" d="M31.408,80.976c-0.102-1.09-0.206-2.179-0.31-3.269l1.187-0.693c-0.001-0.003,1.369,0.123,1.37,0.123c0-0.004,0.98,0.964,0.98,0.964c0.053,1.068,0.105,2.136,0.159,3.207C33.667,81.198,32.538,81.085,31.408,80.976z"/>
<path fill="#BCBCBC" d="M31.099,77.707l-1.028,0.207l-1.042-0.112c-0.265-0.913-0.363-1.844-0.291-2.79l-0.261,0.202c0.854-1.459,2.023-1.706,3.464-0.906c0.841,1.352,0.772,2.624-0.342,3.802L31.099,77.707z"/>
<path fill="#B89C74" d="M15.658,56.305c0.252,1.004,0.355,2.021,0.308,3.052c-1.102-0.112-2.202-0.226-3.302-0.335c0.119-0.83,0.119-1.657-0.001-2.484C13.652,56.351,14.652,56.274,15.658,56.305z"/>
<path fill="#555236" d="M41.007,78.201c-0.016,1.001-0.021,2.002-0.019,3.003c-1.025,0.03-2.051,0.076-3.075,0.135c0.015-1.074,0.029-2.151,0.044-3.226c0.519-0.395,1.039-0.791,1.56-1.188C40.013,77.347,40.51,77.774,41.007,78.201z"/>
<path fill="#5A4321" d="M37.958,78.113c-1.106-0.004-2.212-0.007-3.32-0.013c-0.001,0,0.105,0.062,0.105,0.062c-0.485-0.547-0.971-1.093-1.459-1.64c0.308-0.662,0.62-1.324,0.929-1.986c1.393-0.632,2.791-0.613,4.195-0.036c0.871,1.382,0.752,2.621-0.519,3.698L37.958,78.113z"/>
<path fill="#4F3810" d="M50.32,18.683c0.041-0.87,0.258-1.69,0.648-2.466c0.266-1.788,1.012-2.115,2.309-0.757c1.101,1.007,2.201,2.018,3.3,3.027c-0.409,0.479-0.818,0.956-1.228,1.435c-1.942,0.72-3.642,0.488-4.956-1.26L50.32,18.683z"/>
<path fill="#AD8849" d="M53.277,15.46c-0.787,0.195-1.556,0.446-2.307,0.757c-0.002,0-1.098-0.924-1.098-0.924l-0.755-1.178l0.87-1.092c1.01-0.363,2.021-0.727,3.031-1.093C53.106,13.105,53.192,14.282,53.277,15.46z"/>
<path fill="#BF8E46" d="M56.577,18.487c1.143,0.22,2.285,0.439,3.429,0.659c0.323,0.62,0.645,1.239,0.969,1.862c-0.382,0.583-0.765,1.169-1.145,1.755c-1.375,0.534-2.677,0.36-3.911-0.418c-0.63-1.382-0.389-2.594,0.722-3.631L56.577,18.487z"/>
<path fill="#FEFEFE" d="M59.966,21.332c-0.132-0.732-0.114-1.462,0.044-2.186c0.94,0.907,1.885,1.813,2.829,2.716l-0.122-0.091C61.615,22.781,60.707,22.58,59.966,21.332z"/>
<path fill="#FEFEFE" d="M49.988,13.022c0.299,0.772,0.261,1.529-0.115,2.267c0,0.003-1.182,0.174-1.182,0.174l-1.168-0.25C48.344,14.483,49.167,13.751,49.988,13.022z"/>
<path fill="#3A3825" d="M59.733,78.122c-0.009-1.093-0.02-2.183-0.028-3.274c-0.442-0.394-0.886-0.787-1.329-1.185c0.008-1.202,0.203-2.371,0.569-3.521c0.834-1.642,2.246-2.808,3.425-4.172c0.927-0.803,1.985-1.364,3.141-1.752c1.248-0.134,2.331,0.235,3.249,1.099l0.746,0.613c0.841,0.712,1.634,1.472,2.38,2.28c0.068,1.33,0.136,2.661,0.204,3.991c-0.931,1.074-1.949,2.055-3.068,2.93l0.233-0.217c-1.023,1.017-2.079,1.999-3.167,2.948c-0.027,1.142-0.056,2.286-0.083,3.431c-1.061-0.016-2.119-0.027-3.178-0.043c-0.002,0-0.007,0.113-0.007,0.113c-1.013-1.093-2.189-2.026-3.08-3.235L59.733,78.122z"/>
<path fill="#805F2F" d="M69.021,75.131c1.024-0.977,2.047-1.956,3.068-2.93c0.168,0.955,0.216,1.914,0.143,2.878C71.162,75.098,70.092,75.113,69.021,75.131z"/>
<path fill="#805F2F" d="M66.088,77.862c1.056-0.982,2.111-1.965,3.167-2.948C68.199,75.898,67.143,76.88,66.088,77.862z"/>
<path fill="#808080" d="M72.118,74.918c1.072,0.03,2.146,0.061,3.218,0.091c-0.008,0.949-0.101,1.893-0.277,2.826c-0.844,1.636-1.711,1.568-2.598,0.034C72.211,76.901,72.096,75.916,72.118,74.918z"/>
<path fill="#614823" d="M72.461,77.869c0.87,0.177,1.738,0.167,2.601-0.034c0.104,1.145,0.212,2.289,0.32,3.437c-1.047-0.01-2.094-0.016-3.141-0.024C72.314,80.121,72.387,78.995,72.461,77.869z"/>
<path fill="#805F2F" d="M84.676,31.342c-0.966-0.073-1.934-0.131-2.899-0.174c-0.702-0.442-1.402-0.885-2.103-1.331c0.604-0.567,1.209-1.135,1.813-1.703c1.088-0.006,2.178-0.012,3.266-0.019C84.726,29.19,84.7,30.264,84.676,31.342z"/>
<path fill="#281C08" d="M84.879,37.491c-1.128-0.018-2.256-0.04-3.383-0.058c-0.618-0.653-0.833-1.315-0.65-1.989c0.185-0.678,0.377-1.017,0.577-1.017c0.887,0.019,1.771,0.076,2.65,0.174C84.447,35.535,84.717,36.499,84.879,37.491z"/>
<path fill="#785E31" d="M62.812,34.482c0.023-1.074,0.048-2.146,0.07-3.22c-0.003-2.377,0.837-4.339,2.821-5.74c2.364-0.064,4.729-0.128,7.093-0.192c0.762,1.043,1.083,2.212,0.971,3.5c-0.724,1.767-1.79,3.329-2.901,4.867c-1.134,1.728-2.757,2.548-4.796,2.612c-0.619-0.167-1.237-0.342-1.855-0.509C63.747,35.361,63.28,34.921,62.812,34.482z"/>
<path fill="#726F49" d="M65.704,25.522c-0.939,1.914-1.881,3.827-2.821,5.74l-0.031-0.021c-0.979-0.815-1.538-1.855-1.679-3.119c0.103-0.607,0.207-1.215,0.31-1.822c0.448-0.421,0.896-0.842,1.345-1.263C63.791,25.165,64.751,25.327,65.704,25.522z"/>
<path fill="#FEBB5E" d="M72.208,27.502c0.067-0.76,0.263-1.486,0.589-2.173c1.94-0.156,3.88-0.308,5.821-0.464c-0.108,1.062-0.217,2.127-0.323,3.189c-0.851,1.047-1.946,1.611-3.292,1.697C73.642,29.535,72.711,28.784,72.208,27.502z"/>
<path fill="#726F49" d="M59.966,21.332c0.871,0.436,1.79,0.58,2.753,0.439c0.035,1.086,0.073,2.176,0.109,3.265c-0.001,0,0.029-0.034,0.029-0.034c-0.651,0.391-1.302,0.781-1.953,1.175c-0.626-0.427-1.253-0.857-1.879-1.288c0.102-0.75,0.2-1.501,0.301-2.255L59.966,21.332z"/>
<path fill="#4F3810" d="M75.395,28.448c0.958-0.192,1.926-0.323,2.899-0.394c1.066,0.027,2.133,0.052,3.195,0.08c0.077,1.013,0.172,2.026,0.282,3.033c-2.114,0.101-4.23,0.202-6.347,0.305c-0.371-0.5-0.74-1.001-1.113-1.501C74.671,29.465,75.034,28.955,75.395,28.448z"/>
<path fill="#B89C74" d="M16.629,49.704c0.911,0.128,1.813,0.305,2.705,0.531c-0.975,0.891-1.95,1.782-2.925,2.67C16.484,51.837,16.556,50.77,16.629,49.704z"/>
<path fill="#4A3511" d="M66.032,34.424c1.061-1.15,2.123-2.301,3.184-3.448c1.983-1.462,3.959-1.584,5.923,0.036c0,0,0.289,0.458,0.289,0.461c-1.082,2.039-2.164,4.08-3.246,6.122c-0.369,0.412-0.738,0.824-1.107,1.236c-1.036,0.442-2.112,0.583-3.228,0.424c-1.047-0.412-1.898-1.081-2.554-1.993C64.865,36.142,65.111,35.196,66.032,34.424z"/>
<path fill="#3B2D16" d="M75.787,41.132c-0.101,2.087-0.199,4.175-0.3,6.259c-1.044,0.738-2.025,0.665-2.945-0.223l-0.729-0.735c-1.3-0.922-2.962-1.325-3.923-2.731c-0.307-1.056-0.301-2.109,0.058-3.155c1.039-1.279,2.747-1.642,3.87-2.811l0.366-0.14C73.384,38.775,74.585,39.954,75.787,41.132z"/>
<path fill="#805F2F" d="M81.423,34.427c0.102,1.001,0.126,2.002,0.073,3.006c-0.363-0.692-0.815-1.358-1.03-2.093C80.409,35.144,81.084,34.738,81.423,34.427z"/>
<path fill="#805F2F" d="M72.542,47.168c0.998-0.156,1.979-0.083,2.943,0.22c-0.113,0.909-0.233,1.815-0.36,2.722C74.263,49.127,73.402,48.148,72.542,47.168z"/>
<path fill="#805F2F" d="M71.885,68.21c-0.795-0.76-1.59-1.522-2.384-2.28c0.83-0.104,1.653-0.076,2.47,0.083C71.997,66.748,71.969,67.481,71.885,68.21z"/>
<path fill="#281C08" d="M68.759,65.316c-0.913,0.162-1.833,0.254-2.759,0.278c-1.249-0.647-2.267-1.548-3.035-2.734c-0.627-1.258-1.021-2.588-1.183-3.985c-0.07-1.404,0.046-2.796,0.313-4.179c0.459-1.339,1.174-2.536,2.112-3.595c0.606-0.348,1.222-0.689,1.835-1.031C66.948,55.154,67.854,60.235,68.759,65.316z"/>
<path fill="#281C08" d="M68.386,43.201c1.145,1.081,2.287,2.158,3.429,3.235c-1.942,0.134-3.88,0.269-5.819,0.406c-0.179-0.595-0.357-1.193-0.537-1.788c0.363-0.51,0.725-1.016,1.088-1.523C67.16,43.42,67.773,43.311,68.386,43.201z"/>
<path fill="#3E2E16" d="M65.996,46.841c0.016,1.078,0.03,2.152,0.046,3.229c0.001,0-0.04-0.059-0.04-0.059c-0.952,0.876-1.923,0.897-2.916,0.074c-0.607-1.054-0.651-2.118-0.044-3.189c0.985-0.821,1.982-0.797,2.986-0.034L65.996,46.841z"/>
<path fill="#726F49" d="M56.64,18.713c0.014,1.059,0.029,2.115,0.045,3.171c0.459,0.564,0.918,1.129,1.382,1.694c-0.291,0.665-0.589,1.33-0.885,1.999c-1.329-0.32-2.658-0.641-3.987-0.961c-0.987-0.76-1.935-1.568-2.844-2.42c0.014-1.178,0.027-2.356,0.042-3.534C52.475,18.68,54.557,18.695,56.64,18.713z"/>
<path fill="#4F3810" d="M62.767,28.232c0.041,1.004,0.068,2.005,0.084,3.009c-1.109,0-2.221,0.003-3.331,0.006c-0.007-1.105-0.014-2.207-0.021-3.312c0.587-0.418,1.175-0.839,1.762-1.263C61.764,27.191,62.265,27.713,62.767,28.232z"/>
<path fill="#4F3810" d="M50.351,22.195c0.947,0.806,1.895,1.614,2.844,2.42l-1.354,0.028l-1.257-0.507C50.569,23.483,50.491,22.833,50.351,22.195z"/>
<path fill="#FEBB5E" d="M59.499,27.936c-0.773-0.787-1.546-1.571-2.318-2.359c0.002,0-0.621-0.824-0.621-0.824c1.23-1.126,2.281-0.977,3.156,0.439l-0.258-0.003c1.091,0.524,1.522,1.153,1.301,1.886c-0.237,0.781-0.513,1.172-0.828,1.172L59.499,27.936z"/>
<path fill="#555236" d="M27.983,46.524c0.236-0.934,0.427-1.88,0.569-2.835c-0.038-0.644-0.076-1.288-0.114-1.935c0.261-1.285,0.804-2.435,1.625-3.458c0.572-0.302,1.145-0.601,1.718-0.903c2.116,0.128,4.231,0.256,6.348,0.385c0.816,0.757,1.419,1.651,1.792,2.713c0.334,1.729,0.192,3.421-0.354,5.1c-0.502,1.114-1.223,2.054-2.133,2.866c-1.042,0.684-2.176,1.12-3.398,1.349c-1.939,0.116-3.688-0.385-5.217-1.6C28.537,47.648,28.259,47.085,27.983,46.524z"/>
<path fill="#5A4321" d="M25.424,34.384c2.072-0.028,4.145-0.055,6.216-0.083c-0.093,1.038-0.047,2.069,0.139,3.095c0.001-0.003-0.617,0.21-0.617,0.21c-0.894,0.977-1.997,1.553-3.311,1.736c-0.635-0.134-1.267-0.269-1.9-0.403c-0.496-0.418-0.989-0.839-1.483-1.26c-0.533-1.315-0.292-2.436,0.836-3.33L25.424,34.384z"/>
<path fill="#4F3810" d="M37.985,39.987c-0.015-0.742,0.032-1.48,0.141-2.213c1.99-0.134,3.976-0.269,5.96-0.409c-0.001,0-0.076,0.324-0.076,0.324c0.442,0.509,0.885,1.016,1.326,1.525c-0.333,1.376-1.137,2.368-2.411,2.979C40.778,42.578,38.956,42.233,37.985,39.987z"/>
<path fill="#3E2E16" d="M53.227,39.731c2.181-0.717,4.36-1.435,6.541-2.152c0.456,0.409,0.913,0.818,1.374,1.23c0.523,1.145,0.764,2.341,0.698,3.607c-0.271,1.242-0.795,2.371-1.546,3.403c-0.848,0.97-1.849,1.742-2.987,2.35c-1.201,0.501-2.457,0.738-3.754,0.803c-1.95-0.083-3.802-0.638-5.656-1.199c-1.825-0.778-3.307-1.966-4.349-3.668c-0.502-1.267-0.307-2.426,0.577-3.47h0.113c2.127-1.953,4.354-1.679,6.63-0.293C51.673,40.207,52.458,40.005,53.227,39.731z"/>
<path fill="#5C441D" d="M50.868,40.341c-2.211,0.098-4.42,0.195-6.631,0.293c-0.128-0.977-0.205-1.959-0.227-2.945C46.295,38.574,48.583,39.456,50.868,40.341z"/>
<path fill="#4F3810" d="M59.66,34.299c1.052,0.058,2.104,0.119,3.154,0.18c-0.002,0.003-0.064-0.064-0.064-0.064c0.64,0.702,0.859,1.413,0.661,2.127c-0.2,0.72-0.404,1.08-0.613,1.083c-1.112,0.812-2.178,0.797-3.185-0.186c0,0,0.154,0.137,0.155,0.137C59.733,36.484,59.697,35.391,59.66,34.299z"/>
<path fill="#8D6A34" d="M25.305,34.351c-0.018,1.135-0.038,2.271-0.058,3.406c-0.862,0.885-1.837,1.077-2.939,0.47c0,0-0.169-1.307-0.171-1.31c0.049-0.86,0.07-1.718,0.064-2.579C23.236,34.356,24.271,34.36,25.305,34.351z"/>
<path fill="#3D3722" d="M56.355,72.162l-1.296-0.257c0,0-1.313,0.135-1.312,0.135c-1.063,0.073-2.131,0.146-3.194,0.223c-0.082-6.405-0.164-12.814-0.248-19.224c0.451-0.369,0.901-0.738,1.352-1.11c1.155-0.277,2.306-0.269,3.453,0.043c1.647,0.628,3.055,1.617,4.27,2.884c0.762,0.817,1.379,1.752,1.902,2.737c0.219,0.491,0.407,1.01,0.637,1.501c0.401,0.992,0.678,2.033,0.897,3.083c0.302,1.028,0.635,2.048,1.036,3.052c0.34,1.062,0.373,2.133,0.147,3.223c-0.89,1.511-2.474,2.154-3.822,3.088l-0.8,0.721C58.336,73.27,57.327,73.288,56.355,72.162z"/>
<path fill="#555236" d="M37.195,65.524c0.347-0.885,0.533-1.801,0.559-2.75c-0.928-1.064-1.739-2.216-2.444-3.445c-0.348-1.407-0.386-2.816-0.128-4.242c0.496-1.382,1.294-2.56,2.377-3.552c2.722-1.587,5.466-1.715,8.229-0.101c0.47,0.546,0.938,1.099,1.407,1.647c-0.098,1.196-0.197,2.39-0.295,3.583c-0.662,0.946-1.248,1.935-1.741,2.976c-1.106,1.403-2.913,1.797-4.214,2.917c-0.019,1.05-0.037,2.1-0.055,3.149c-0.897,1.758-1.729,1.728-2.493-0.091L37.195,65.524z"/>
<path fill="#BC8A46" d="M44.185,59.635c0.905-0.989,1.81-1.978,2.714-2.97c-0.19,1.923-0.383,3.845-0.574,5.768c-0.404,1.862-1.207,1.956-2.353,0.531l-0.304-0.134C42.769,61.594,42.941,60.528,44.185,59.635z"/>
<path fill="#555236" d="M50.305,53.039c-1.036,0.031-2.072,0.046-3.11,0.046c-0.001-0.003,0.11,0.107,0.11,0.107c-0.879-1.114-0.853-2.207,0.079-3.278c1.191-0.671,2.387-0.646,3.586-0.027c0.716,1.276,0.426,2.322-0.724,3.171L50.305,53.039z"/>
<path fill="#BCBCBC" d="M43.973,62.964c0.821-0.016,1.606-0.189,2.356-0.528c0.122,1.022,0.247,2.045,0.372,3.07c-0.871,1.205-1.639,1.142-2.301-0.192C43.967,64.584,43.825,63.8,43.973,62.964z"/>
<path fill="#B89C74" d="M44.4,65.314c0.764,0.11,1.53,0.171,2.302,0.192c0.374,0.892,0.444,1.807,0.208,2.744C46.074,67.273,45.236,66.293,44.4,65.314z"/>
<path fill="#443416" d="M38.396,65.616c0.834-0.016,1.666,0.015,2.495,0.091c0.038,4.163,0.076,8.328,0.116,12.491c0,0.003-1.56-0.003-1.56-0.003l-1.558,0.003c-0.121-1.202-0.241-2.401-0.363-3.604c-0.835-0.729-1.34-1.642-1.517-2.737c0.146-1.096,0.63-2.026,1.404-2.813C37.741,67.901,38.068,66.757,38.396,65.616z"/>
<path fill="#BC8A46" d="M44.185,59.635c-0.169,1.064-0.339,2.127-0.511,3.191c-0.929,0.086-1.839-0.006-2.729-0.269C42.024,61.584,43.104,60.611,44.185,59.635z"/>
<path fill="#7E6B4F" d="M56.355,72.162c1.014-0.138,2.023-0.107,3.024,0.095c0.203,0.854,0.312,1.718,0.325,2.591c-1.098-0.064-2.194-0.129-3.292-0.195C56.485,73.819,56.465,72.989,56.355,72.162z"/>
<path fill="#3E2E16" d="M59.74,78.128c1.026,1.077,2.054,2.157,3.08,3.235c-1.043-0.174-2.086-0.352-3.129-0.528C59.717,79.929,59.733,79.028,59.74,78.128z"/>
<path fill="#554F33" d="M28.427,62.589l-1.512-0.034l-1.511,0.046c0.861-5.358,1.723-10.715,2.582-16.073c-0.003-0.003,0.751,0.567,0.751,0.567c2.441,2.398,4.645,4.923,4.593,8.651c-0.138,0.662-0.284,1.328-0.424,1.99c-0.415,0.54-0.833,1.074-1.251,1.608C30.578,60.425,29.503,61.508,28.427,62.589z"/>
<path fill="#555236" d="M22.392,43.906c-0.054-1.093-0.107-2.185-0.159-3.278l0.007-0.009c0.888-1.01,1.995-1.535,3.355-1.489c1.335-0.003,2.516,0.421,3.545,1.275c0.601,1.303,0.33,2.429-0.687,3.406c0,0,0.098-0.119,0.098-0.122C26.5,43.762,24.446,43.833,22.392,43.906z"/>
<path fill="#3B2A0C" d="M25.705,40.552c-1.155,0.021-2.309,0.046-3.464,0.067c0.024-0.797,0.047-1.596,0.067-2.396c0.943-0.375,1.921-0.534,2.938-0.467c0.001,0,0.109-0.229,0.109-0.229c1.251,0.537,1.72,1.163,1.409,1.88C26.433,40.17,26.082,40.552,25.705,40.552z"/>
<path fill="#555236" d="M37.857,59.378c-0.034,1.129-0.067,2.259-0.103,3.394c-2.031-0.061-4.062-0.122-6.091-0.186c-0.003-1.078-0.007-2.158-0.009-3.241l-0.106,0.109C33.626,57.452,35.731,57.571,37.857,59.378z"/>
<path fill="#584828" d="M31.392,75.049l-1.465-0.03l-1.451,0.195c-0.007-1.099-0.015-2.197-0.024-3.296c1.085-1.074,2.168-2.148,3.251-3.226c1.082,0.079,2.163,0.158,3.243,0.237c0.868,0.754,1.303,1.709,1.303,2.859c0.084,1.166-0.351,2.109-1.229,2.86l-0.372,0.448C33.542,76.435,32.458,76.358,31.392,75.049z"/>
<path fill="#BCBCBC" d="M35.04,71.493c-0.169-0.851-0.202-1.706-0.095-2.566c0.827-0.063,1.651-0.024,2.467,0.119c0.309,0.836,0.312,1.673,0.009,2.515C36.583,73.19,35.789,73.169,35.04,71.493z"/>
<path fill="#3B2A0C" d="M31.392,75.049c1.088,0.016,2.176,0.027,3.261,0.046c0.066,1.022,0.098,2.042,0.09,3.063c-1.048-0.015-2.097-0.03-3.145-0.049C31.642,77.081,31.573,76.063,31.392,75.049z"/>
<path fill="#8D6A34" d="M35.04,71.493c0.791,0.198,1.584,0.217,2.382,0.064c0.217,1.01,0.253,2.021,0.107,3.04c-0.003-0.004-1.254,0.164-1.254,0.164s-1.259-0.106-1.257-0.109C35.027,73.596,35.034,72.547,35.04,71.493z"/>
<path fill="#4F3810" d="M59.716,25.192c-1.052-0.146-2.103-0.293-3.156-0.439c0.048-0.958,0.089-1.914,0.124-2.869c0.957-0.003,1.839,0.247,2.647,0.75C59.492,23.481,59.622,24.335,59.716,25.192z"/>
<path fill="#3E2E16" d="M62.823,68.631c0.016-1.02,0.024-2.038,0.029-3.055c-0.855-0.632-1.243-1.352-1.159-2.17c0.087-0.86,0.245-1.291,0.476-1.291c1.272-0.803,2.492-0.729,3.659,0.223c0.057,1.084,0.114,2.17,0.173,3.257c-0.032,1.08-0.064,2.16-0.097,3.241C64.791,70.077,63.768,69.946,62.823,68.631z"/>
<path fill="#281C08" d="M62.823,68.631c1.027,0.073,2.055,0.141,3.081,0.201c-1.912,0.906-3.822,1.811-5.729,2.71C61.059,70.568,61.941,69.602,62.823,68.631z"/>
<path fill="#FEFEFE" d="M75.138,31.012c-1.975-0.012-3.95-0.027-5.923-0.04c0.995-1.153,1.989-2.31,2.989-3.47c1.066,0.311,2.13,0.625,3.191,0.943C75.39,29.312,75.305,30.167,75.138,31.012z"/>
<path fill="#726F49" d="M62.933,37.573c-0.06-1.053-0.119-2.105-0.18-3.159c1.091,0.003,2.184,0.006,3.277,0.009c-0.035,1.044-0.07,2.087-0.107,3.128c0,0-0.877,0.849-0.875,0.852c0,0.003-1.225,0.006-1.225,0.009C63.823,38.416,62.933,37.573,62.933,37.573z"/>
<path fill="#7A5B2C" d="M59.93,28.247c-0.136-1.025-0.292-2.045-0.469-3.061c1.13-0.061,2.263-0.122,3.396-0.183c-0.027,1.074-0.055,2.148-0.087,3.226c-0.003,0.003-1.421-0.052-1.421-0.052L59.93,28.247z"/>
<path fill="#805F2F" d="M68.386,43.201c-0.828,0.174-1.639,0.406-2.432,0.699c-0.426-0.32-0.852-0.641-1.279-0.961c-0.499-0.965-0.7-1.99-0.604-3.073c0.492-0.952,1.141-1.785,1.943-2.5l-0.092,0.186c1.133,0.113,2.265,0.223,3.397,0.336c0.752,0.598,0.98,1.166,0.687,1.706c-0.285,0.519-0.563,0.781-0.837,0.781C68.951,41.327,68.69,42.27,68.386,43.201z"/>
<path fill="#808080" d="M69.171,40.375c-0.009-0.836,0.042-1.667,0.151-2.49c0.822-0.211,1.655-0.26,2.496-0.146C70.935,38.617,70.053,39.496,69.171,40.375z"/>
<path fill="#614823" d="M62.846,49.609c1.051,0.135,2.103,0.269,3.155,0.402c-0.133,2.164-0.266,4.328-0.398,6.488c-1.243,1.422-2.762,1.953-4.609,1.426c-1.094-0.477-1.948-1.225-2.565-2.25c-0.387-1.156-0.334-2.298,0.087-3.433c0.664-1.001,1.513-1.804,2.568-2.384C61.67,49.774,62.258,49.691,62.846,49.609z"/>
<path fill="#7E6B4F" d="M59.776,56.226c1.944,0.092,3.887,0.183,5.829,0.274c0.209,0.876,0.215,1.752,0.017,2.631c-1.872,2.2-3.873,2.1-5.968,0.336l0.223-0.241c-0.953-0.635-1.286-1.291-0.999-1.969C59.169,56.57,59.468,56.226,59.776,56.226z"/>
<path fill="#614823" d="M59.654,59.467c1.991-0.113,3.981-0.223,5.97-0.336c0.068,1.068,0.139,2.14,0.206,3.207c-1.044,0.138-2.085,0.275-3.125,0.412c-1.225,1.248-2.147,0.995-2.81-0.562C59.814,61.279,59.735,60.373,59.654,59.467z"/>
<path fill="#3A3825" d="M66.028,46.863c-1.055,0.006-2.109,0.009-3.163,0.015c-0.363-0.583-0.727-1.166-1.093-1.749c0.214-0.65,0.431-1.303,0.643-1.956c0.644-0.238,1.289-0.47,1.935-0.705c0.548,0.412,1.096,0.827,1.644,1.239l-0.037,0.189C65.977,44.888,66.002,45.874,66.028,46.863z"/>
<path fill="#3A3825" d="M62.865,46.878c-0.004,0.913-0.01,1.828-0.019,2.737c0-0.006-0.133,0.696-0.133,0.696c-0.607,0.36-1.213,0.717-1.82,1.077c-0.602-0.363-1.206-0.727-1.809-1.09c-0.215-0.668-0.43-1.34-0.646-2.008c0.284-0.641,0.566-1.285,0.849-1.929c1.332-0.818,2.524-0.647,3.573,0.513L62.865,46.878z"/>
<path fill="#AA7E3F" d="M32.045,56.845c-1.103-3.253-2.206-6.503-3.31-9.753c1.995-0.052,3.989-0.107,5.981-0.162c1.854,1.48,2.262,3.352,1.497,5.539c-0.56,1.285-1.315,2.441-2.296,3.448C33.293,56.226,32.669,56.534,32.045,56.845z"/>
<path fill="#AD8040" d="M44.125,40.634c0.258,1.035,0.516,2.072,0.774,3.11c-0.373,0.467-0.743,0.934-1.114,1.4c-1.079,0.553-2.223,0.797-3.433,0.732c-1.145-0.396-2.103-1.062-2.876-1.996c-0.485-0.681-0.969-1.364-1.463-2.06c0.684-0.635,1.329-1.233,1.973-1.831C40.031,40.204,42.077,40.418,44.125,40.634z"/>
<path fill="#5A4321" d="M34.222,53.424c0.165-2.166,0.33-4.33,0.494-6.494c1.029-0.027,2.057-0.045,3.085-0.052c0,0,1.298,0.864,1.3,0.864c0.646,0.894,0.879,1.883,0.702,2.972c-0.293,1.065-0.934,1.85-1.918,2.356c-0.055,1.11-0.108,2.222-0.163,3.332c-0.974,1.114-2.079,1.318-3.331,0.477c-0.701-0.735-0.958-1.492-0.775-2.271C33.802,53.817,34.004,53.424,34.222,53.424z"/>
<path fill="#453213" d="M28.454,43.811c-0.094-1.227-0.188-2.454-0.282-3.677c-0.792-0.577-1.051-1.145-0.781-1.712c0.269-0.562,0.536-0.843,0.804-0.843c0.992,0.024,1.985,0.034,2.973,0.028C30.261,39.676,29.358,41.742,28.454,43.811z"/>
<path fill="#B89C74" d="M37.475,43.881c1.277,0.076,2.555,0.152,3.832,0.229c0.755,1.163,0.671,2.292-0.131,3.394c-1.262,0.632-2.304,0.415-3.091-0.797c0,0-0.281,0.171-0.282,0.171C37.859,45.862,37.749,44.864,37.475,43.881z"/>
<path fill="#BCBCBC" d="M28.195,37.579c0.157,0.852,0.149,1.706-0.021,2.555c-0.801,0.274-1.625,0.415-2.47,0.418c-0.273-0.992-0.389-1.999-0.348-3.024C26.301,37.54,27.249,37.558,28.195,37.579z"/>
<path fill="#5C441D" d="M44.899,43.744c1.817,0,3.633,0,5.45,0c0.455,0.506,0.909,1.016,1.367,1.525c-0.185,0.656-0.371,1.315-0.556,1.972c-1.132,0.806-2.396,1.27-3.77,1.438c-1.41,0.119-2.68-0.263-3.832-1.065c-0.76-1.236-0.841-2.511-0.244-3.833C43.846,43.891,44.374,43.878,44.899,43.744z"/>
<path fill="#726F49" d="M59.613,37.439c1.106,0.046,2.213,0.088,3.32,0.134l-0.157-0.156c0.844,0.62,1.186,1.306,1.022,2.054c-0.17,0.778-0.375,1.166-0.619,1.166c-1.154,0.952-2.257,0.852-3.316-0.165C59.724,39.465,59.64,38.455,59.613,37.439z"/>
<path fill="#808080" d="M53.605,47.092c0.916-0.101,1.82-0.046,2.717,0.168c0.489,0.418,0.978,0.836,1.466,1.254c-0.192,1.383-0.99,2.234-2.313,2.618c-1.297-0.345-2.226-1.129-2.786-2.35C52.995,48.221,53.301,47.656,53.605,47.092z"/>
<path fill="#614823" d="M56.322,47.26c1.107-1.123,2.214-2.246,3.32-3.369c0.535,0.482,1.07,0.964,1.609,1.446c-0.505,0.513-1.013,1.025-1.521,1.538l0.003-0.116c-0.527,0.699-1.057,1.397-1.585,2.094c-0.594-0.644-1.188-1.288-1.781-1.932L56.322,47.26z"/>
<path fill="#805F2F" d="M50.39,46.533c-0.027-0.928-0.041-1.858-0.041-2.789c1.085,1.114,2.171,2.23,3.256,3.348l0.102-0.192C52.458,48.074,51.347,48.017,50.39,46.533z"/>
<path fill="#3A3825" d="M59.863,40.473c1.033,0.104,2.066,0.186,3.101,0.256c0.461,0.516,0.923,1.032,1.388,1.551c-0.492,0.485-0.986,0.973-1.48,1.461l-0.019,0.019c-1.044,1.294-2.083,1.358-3.117-0.009c0,0-0.092,0.137-0.092,0.141C59.717,42.752,59.79,41.614,59.863,40.473z"/>
<path fill="#3D301A" d="M50.39,46.533c1.104,0.122,2.21,0.244,3.316,0.366c0.889,1.017,1.778,2.032,2.668,3.049c0.933-1.307,1.947-1.31,3.034-0.195l0.646,0.528c0.706,1.102,0.589,2.068-0.478,2.874l0.125-0.201c-0.605,1.205-1.601,1.749-2.931,1.712c-1.282-0.098-2.361-0.629-3.265-1.535c-1.086-0.021-2.173-0.046-3.261-0.073c0.045-0.961,0.07-1.923,0.076-2.884c-1.112-0.629-1.479-1.254-1.105-1.877c0.37-0.619,0.743-0.931,1.121-0.931L50.39,46.533z"/>
<path fill="#281C08" d="M59.895,62.189c0.934,0.198,1.871,0.385,2.811,0.559c0.079,0.943,0.128,1.886,0.146,2.829c-1.948-0.141-3.897-0.277-7.672-0.546C57.763,63.474,58.829,62.83,59.895,62.189z"/>
<path fill="#805F2F" d="M56.738,53.165c0.989-0.062,1.978-0.129,2.967-0.211c0.022,1.09,0.047,2.182,0.07,3.271c0,1.001,0.033,2.002,0.101,3.003c-1.215-1.093-2.431-2.182-3.647-3.271C55.335,54.834,55.454,53.891,56.738,53.165z"/>
<path fill="#281C08" d="M56.738,53.165c-0.093,0.945-0.263,1.876-0.508,2.795c-0.909-0.942-1.816-1.886-2.723-2.829C54.586,53.144,55.661,53.152,56.738,53.165z"/>
<path fill="#3B2A0C" d="M37.886,53.07c-0.009-1.041-0.017-2.078-0.02-3.119c2.266-2.313,5.046-1.568,7.744-1.3c0.531,0.437,1.062,0.876,1.591,1.312c0.034,1.078,0.069,2.152,0.102,3.229C44.165,53.152,41.026,53.109,37.886,53.07z"/>
<path fill="#3B2A0C" d="M34.36,56.039c1.122,0.119,2.243,0.238,3.365,0.36c0.075,0.992,0.119,1.983,0.133,2.979c-2.103,0.024-4.206,0.049-6.31,0.076c0.044-0.894,0.209-1.764,0.496-2.612c0.001,0.003,0.26-0.741,0.26-0.741l-0.663-0.425C32.664,54.91,33.571,55.029,34.36,56.039z"/>
<path fill="#3B2A0C" d="M50.339,47.366c0.005,0.937,0,1.871-0.014,2.808c-1.042-0.07-2.083-0.141-3.124-0.211l0.07,0.074c-0.658-0.522-1.317-1.047-1.975-1.569c0.653-0.527,1.308-1.056,1.961-1.583C48.297,46.97,49.324,47.131,50.339,47.366z"/>
<path fill="#3A3825" d="M62.964,40.729c-0.063-1.104-0.125-2.209-0.188-3.311c1.079-0.018,2.159-0.034,3.238-0.052c-0.008,1.089-0.018,2.176-0.026,3.265c-1.047,1.331-2.091,1.328-3.131-0.009L62.964,40.729z"/>
<path fill="#805F2F" d="M62.857,40.622c1.044,0,2.086,0.003,3.129,0.006c0,1.041,0,2.082,0.004,3.101c-1.041-0.006-2.085,0.006-3.124,0.016C62.863,42.7,62.858,41.66,62.857,40.622z"/>
<path fill="#805F2F" d="M59.578,53.155c0.087-0.97,0.244-1.929,0.477-2.874c0.889-0.126,1.777-0.119,2.66,0.03C61.669,51.261,60.623,52.209,59.578,53.155z"/>
<path fill="#281C08" d="M59.735,43.75c1.042,0,2.084,0,3.122,0.006c0.004,1.041,0.008,2.082,0.004,3.119c-1.042,0-2.082,0-3.128,0C59.736,45.835,59.738,44.791,59.735,43.75z"/>
<path fill="#281C08" d="M59.409,49.753c-1.008,0.109-2.02,0.177-3.032,0.195c0.172-1.011,0.171-2.018-0.008-3.027c1.121-0.052,2.243-0.107,3.364-0.159C59.721,47.77,59.613,48.768,59.409,49.753z"/>
<path fill="#BCBCBC" d="M34.36,56.039l-1.39,0.053c0,0-1.326-0.412-1.327-0.412c0.86-0.751,1.723-1.502,2.583-2.253C34.613,54.275,34.659,55.148,34.36,56.039z"/>
<path fill="#BCBCBC" d="M43.315,43.78c0.2,1.01,0.401,2.021,0.601,3.031c-1.027,1.141-1.929,1.049-2.706-0.275c-0.099-0.814-0.07-1.626,0.093-2.429C41.977,44.003,42.647,43.894,43.315,43.78z"/>
<path fill="#8D6A34" d="M41.211,46.536c0.885,0.26,1.787,0.351,2.706,0.278c1.114,0.021,2.228,0.046,3.342,0.07c0.004,1.049,0.009,2.099,0.014,3.149c-3.134-0.024-6.27-0.052-9.406-0.082c0.07-1.08,0.141-2.16,0.214-3.241C39.127,46.652,40.169,46.594,41.211,46.536z"/>
</svg>