<?xml version="1.0" encoding="utf-8"?>
<!DOCTYPE svg PUBLIC "-//W3C//DTD SVG 1.1//EN" "http://www.w3.org/Graphics/SVG/1.1/DTD/svg11.dtd">
<svg version="1.1" xmlns="http://www.w3.org/2000/svg" xmlns:xlink="http://www.w3.org/1999/xlink" x="0px" y="0px" width="100px" height="100px" viewBox="0 0 100 100" enable-background="new 0 0 100 100" xml:space="preserve">
<path fill="#3B048C" d="M18.763,80.051c-3.044-1.257-6.09-2.515-9.134-3.769c-0.978-0.964-1.216-2.103-0.826-3.394c0.02-1.969-0.818-3.665-1.697-5.35c-0.001-2.115-0.001-4.229-0.001-6.348c1.526-1.725,3.41-1.877,5.47-1.254c1.155,0.671,2.121,1.568,2.938,2.621c1.761,2.658,3.162,5.506,4.098,8.561c0.267,1.067-0.509,2.502,0.164,3.18c1.453,1.459-0.739,0.434,0.902-0.873c0.534-0.287,1.069-0.549,1.613-0.824c1.236-0.18,2.437-0.061,3.622,0.327c1.756,0.781,3.244,1.916,4.523,3.345c1.234,1.544,2.044,3.265,2.22,5.255c-0.21,1.349-0.925,2.338-2.132,2.973c-1.956,0.119-3.868,0.046-5.461-1.334c-1.032-0.009-2.019-0.22-2.963-0.635C20.954,81.748,19.843,80.921,18.763,80.051z"/>
<path fill="#310665" d="M81.794,80.048c-4.212,2.143-8.425,4.288-12.636,6.434c-1.871-0.287-3.364-1.221-4.587-2.646c-0.741-0.973-1.354-2.022-1.896-3.121c-0.825-1.67-1.451-3.406-1.822-5.237c-0.228-1.926,0.104-3.72,1.272-5.316c1.047-0.72,2.213-1.116,3.47-1.266c2.473-0.056,4.947,0.006,7.416,0.277c1.868,0.464,3.293,1.568,4.424,3.088c1.063,1.45,1.997,2.994,2.962,4.517C81.065,77.78,81.523,78.873,81.794,80.048z"/>
<path fill="#4904B4" d="M75.545,14.219c2.041,1.062,4.081,2.121,6.121,3.183c0.207,3.717-1.563,6.378-4.475,8.447c-2.375,1.401-4.854,2.316-7.672,1.514c-2.504-1.312-3.947-3.54-5.146-5.984c-0.555-1.218-0.937-2.493-1.206-3.802c-0.317-1.996-0.24-3.977,0.31-5.93c0.548-1.221,1.362-2.237,2.431-3.052c1.078,0.76,2.157,1.523,3.236,2.283c0.975,1.193,2.163,1.996,3.765,2.036C73.896,13.133,74.774,13.566,75.545,14.219z"/>
<path fill="#24015C" d="M93.483,51.856c0,5.222,0.002,10.446,0.002,15.667c-0.803,1.48-1.297,3.162-2.782,4.19c-1.113,0.32-2.238,0.375-3.377,0.155c-1.629-0.481-3.134-1.238-4.544-2.169c-0.882-0.639-1.585-1.45-2.093-2.414c-0.363-1.545,0.146-2.991,0.565-4.435c0.098-0.939,0.072-1.883-0.183-2.826c-0.442-0.934-0.708-1.892-0.867-2.908c0.011-1.102,0.339-2.087,0.935-3.006c0.841-0.748,1.772-1.321,2.798-1.77c1.047-0.452,2.121-0.8,3.214-1.12c1.103-0.369,2.23-0.602,3.38-0.764c0.579,0.037,1.158,0.092,1.737,0.144C92.675,51.017,93.079,51.438,93.483,51.856z"/>
<path fill="#4401B2" d="M65.908,8.595c-0.005,0.918-0.016,1.837-0.03,2.756c-1.743,1.986-2.92,4.599-5.832,5.307c-2.021,0.464-4.028,0.373-6.027-0.146c-1.948-0.595-3.741-1.51-5.414-2.67c-0.504-0.437-0.995-0.897-1.494-1.34c-0.331-0.574-0.653-1.163-0.979-1.74c-0.011-0.659-0.016-1.324-0.026-1.986c0.337-0.562,0.68-1.129,1.011-1.7c1.604-1.205,3.43-1.773,5.426-1.819c2.458-0.073,4.843,1.514,7.367,0.37C61.908,6.614,63.907,7.606,65.908,8.595z"/>
<path fill="#30046A" d="M93.483,51.856c-0.86-0.007-1.721-0.016-2.58-0.021c-1.007-0.363-1.945-0.854-2.837-1.45c-0.95-0.516-1.881-1.062-2.849-1.565c-1.063-0.412-2.073-0.894-3.091-1.403c-2.158-1.15-3.973-2.652-5.127-4.858c-0.391-1.211-0.488-2.441-0.321-3.702c0.673-1.944,1.967-3.168,4.046-3.488c1.936,0.04,3.766,0.546,5.546,1.272c1.763,0.714,3.39,1.663,4.793,2.96c0.839,0.918,1.654,1.868,2.447,2.832C93.502,45.573,93.493,48.713,93.483,51.856z"/>
<path fill="#350187" d="M12.779,61.207c-1.892-0.007-3.783-0.01-5.673-0.016c-0.01-2.069-0.019-4.137-0.028-6.207c0.587-0.919,1.352-1.66,2.263-2.268c0.981-0.491,2-0.882,3.046-1.227c1.594-0.596,3.212-1.081,4.921-1.245c1.19,0.021,2.328,0.262,3.441,0.677c2.229,1.011,4.185,2.354,5.531,4.459c0.767,1.767,0.748,3.51-0.162,5.222c-0.436,0.412-0.88,0.821-1.313,1.236c-0.562,0.195-1.132,0.384-1.692,0.589c-1.175,0.085-2.353,0.012-3.517-0.146c-1.15-0.08-2.298-0.251-3.438-0.442C15.044,61.579,13.917,61.359,12.779,61.207z"/>
<path fill="#1E0056" d="M93.451,23.979c-0.003,4.077-0.004,8.154-0.007,12.231c-0.441,0.406-0.883,0.809-1.322,1.218c-0.597,0.012-1.196,0.021-1.794,0.045c-1.712-0.458-3.364-1.132-5.107-1.492c-1.127-0.317-2.19-0.793-3.199-1.389c-0.442-0.369-0.887-0.748-1.334-1.114c-0.155-0.552-0.309-1.111-0.469-1.663c0.092-0.562,0.191-1.129,0.276-1.694c0.558-0.989,1.28-1.855,2.104-2.634c1.169-1.202,2.325-2.426,3.465-3.677c0.803-0.864,1.799-1.355,2.95-1.547C90.727,22.233,92.46,22.15,93.451,23.979z"/>
<path fill="#5713A0" d="M7.112,33.241c0.032-2.191,0.064-4.382,0.096-6.574c0.455-1.047,0.958-2.072,1.512-3.073c0.462-0.345,0.923-0.687,1.387-1.031c1.163-0.189,2.31-0.141,3.459,0.131c1.599,0.833,2.928,1.993,4.096,3.357c1.137,1.446,1.91,3.052,2.153,4.895c-0.182,1.947-1.253,3.363-2.706,4.562c-0.985,0.736-2.055,1.328-3.195,1.798c-0.595,0.137-1.198,0.256-1.796,0.387c-1.254-0.018-2.37-0.439-3.366-1.193C8.192,35.426,7.644,34.336,7.112,33.241z"/>
<path fill="#4F04BD" d="M24.987,14.183c2.135-1.05,4.269-2.1,6.402-3.153c0.629,0.141,1.257,0.281,1.889,0.418c1.143,0.653,2.06,1.544,2.798,2.63c0.528,1.206,0.804,2.472,0.862,3.787c-0.07,0.65-0.16,1.297-0.228,1.95c-0.191,0.625-0.404,1.245-0.592,1.874c-0.519,1.206-1.195,2.326-1.976,3.378c-0.852,1.001-1.866,1.807-3.035,2.411c-1.303,0.296-2.524,0.094-3.638-0.666c-0.815-0.992-1.425-2.105-1.854-3.32C24.674,20.448,24.618,17.329,24.987,14.183z"/>
<path fill="#4100B1" d="M75.657,23.615c2.003-2.069,4.005-4.141,6.009-6.213c1.045-0.006,2.051,0.192,3.017,0.598c1.069,0.568,1.425,1.428,1.071,2.585c-0.393,1.446-0.977,2.841-1.238,4.331c-0.136,1.013-0.479,1.95-1.007,2.82c-0.482,0.906-1.166,1.624-2.048,2.151l0.011-0.009c-0.975,1.096-2.198,1.645-3.67,1.645c-1.396-0.385-2.548-1.142-3.46-2.265C73.482,27.076,73.73,25.15,75.657,23.615z"/>
<path fill="#4501B4" d="M24.987,14.183c1.126,3.198,2.25,6.396,3.375,9.594c-0.85,0.974-1.917,1.532-3.204,1.685c-1.276-0.149-2.426-0.619-3.48-1.346c-1.92-1.868-2.832-4.135-2.665-6.82C21.005,16.258,22.996,15.22,24.987,14.183z"/>
<path fill="#25015D" d="M56.674,92.786c-1.114,0.745-2.229,1.492-3.342,2.237c-1.9-0.849-3.871-1.597-4.988-3.556c-0.92-1.983-1.245-4.068-1.131-6.237c0.232-2.219,0.985-4.206,2.599-5.811c1.4-0.55,2.808-0.59,4.229-0.056c2.447,1.88,3.825,4.419,4.538,7.37C58.88,89.042,58.23,91.056,56.674,92.786z"/>
<path fill="#8225D8" d="M59.91,5.626c-2.257,0.705-4.514,1.407-6.771,2.112c-1.997-1.764-4.396-1.123-6.691-1.117c-1.23-0.165-2.153-0.787-2.774-1.858C49.087,5.048,54.497,5.338,59.91,5.626z"/>
<path fill="#310084" d="M50.204,86.188c0.068,2.114,0.137,4.229,0.206,6.345c0.747,0.583,0.983,1.15,0.709,1.699c-0.269,0.54-0.532,0.813-0.793,0.813c-2.199-0.813-4.398-1.624-6.598-2.436c-0.003-2.35-2.49-1.831-3.508-3.04c-0.604-1.153-0.682-2.316-0.162-3.519c0.875-0.971,1.923-1.654,3.151-2.084c1.288-0.266,2.571-0.25,3.857-0.016C48.278,84.464,49.315,85.224,50.204,86.188z"/>
<path fill="#21005A" d="M90.917,70.582c0.856-1.02,1.712-2.039,2.568-3.059c0.177,2.512,0.355,5.021,0.619,8.753c-2.311,0.259-4.153,0.464-5.995,0.671c-0.977,0.83-2.087,1.09-3.331,0.784c-0.894-0.894-1.299-1.978-1.218-3.237c0.463-1.16,1.285-1.98,2.402-2.512C87.752,72.019,89.517,71.945,90.917,70.582z"/>
<path fill="#26015E" d="M84.64,73.874c0.03,0.989,0.049,1.978,0.055,2.97c0.841,0.559,1.118,1.114,0.836,1.673c-0.28,0.552-0.562,0.83-0.845,0.83c-0.934,0.359-1.896,0.595-2.892,0.701c-1.129-0.036-2.259-0.07-3.389-0.106c-0.823-0.852-1.105-1.868-0.921-3.024c-0.517-1.022,3.133-1.104,0.562-2.604c-0.604-1.062-0.69-2.154-0.338-3.308c1.21-1.603,2.819-2.164,4.768-1.901c1.31,0.146,2.375,0.732,3.247,1.7C86.248,72.145,85.885,73.166,84.64,73.874z"/>
<path fill="#4904B4" d="M81.781,24.07c0.968-1.166,1.936-2.334,2.902-3.503c1.088-1.156,2.203-1.239,3.348-0.079c1.807,1.163,3.613,2.325,5.42,3.491c-1.765-0.064-3.53-0.131-5.296-0.198C86.107,25.563,83.981,25.611,81.781,24.07z"/>
<path fill="#460793" d="M9.635,54.926c-0.853,0.013-1.706,0.034-2.557,0.059c0.029-4.196,0.058-8.39,0.087-12.585c0.966-0.87,2.016-0.989,3.155-0.36c0.803,0.907,1.396,1.935,1.771,3.088c0.301,1.169,0.438,2.359,0.461,3.564c-0.027,1.202-0.259,2.371-0.661,3.507C11.294,53.23,10.54,54.142,9.635,54.926z"/>
<path fill="#1F0058" d="M65.944,83.075c1.071,1.136,2.143,2.271,3.214,3.406c-2.099,0.985-4.196,1.968-6.293,2.951c-0.456-0.488-0.912-0.979-1.37-1.468c-0.41-1.301-0.475-2.612-0.145-3.94c0.383-0.549,0.769-1.099,1.153-1.647C63.827,81.732,64.975,81.968,65.944,83.075z"/>
<path fill="#320185" d="M7.107,67.539c0.85,2.057,1.702,4.113,2.551,6.168c-0.847,1.147-1.701,1.208-2.566,0.018C7.098,71.665,7.103,69.603,7.107,67.539z"/>
<path fill="#310183" d="M9.669,42.396l-1.251-0.009l-1.253,0.012c-0.019-3.055-0.035-6.106-0.053-9.158c0.88,0.937,1.762,1.874,2.643,2.811C11.55,38.19,11.357,40.305,9.669,42.396z"/>
<path fill="#892CDA" d="M19.013,17.295c1.181,2.078,2.361,4.156,3.542,6.231c-0.478,0.406-0.954,0.809-1.431,1.214c-0.627,0.04-1.252,0.08-1.881,0.122c-0.58-0.241-1.158-0.488-1.741-0.729c-1.02-0.76-1.843-1.691-2.451-2.811c-0.136-0.61-0.269-1.224-0.401-1.837c0.371-0.503,0.743-1.01,1.114-1.517C16.847,17.747,17.93,17.521,19.013,17.295z"/>
<path fill="#2C007D" d="M40.93,89.338c1.326,0.253,2.65,0.51,4.12,0.79c-0.526,0.989-0.923,1.736-1.321,2.481c-2.029-1.06-4.059-2.118-6.088-3.177C38.703,88.258,39.802,88.278,40.93,89.338z"/>
<path fill="#470A93" d="M40.93,89.338c-1.097,0.03-2.194,0.061-3.292,0.095c-2.1-0.977-4.199-1.953-6.299-2.93c0.389-0.51,0.778-1.02,1.169-1.532c1.709-1.147,3.578-1.337,5.549-0.946c1.249,0.455,2.237,1.239,2.971,2.344C40.998,87.36,40.966,88.349,40.93,89.338z"/>
<path fill="#310665" d="M56.674,92.786c-0.063-2.173-0.127-4.343-0.191-6.516c3.264-1.724,4.546,0.952,6.206,2.793l0.176,0.372C60.801,90.553,58.738,91.669,56.674,92.786z"/>
<path fill="#1D0053" d="M90.928,36.213c0.839,0,1.677,0,2.517-0.003c0.022,2.075,0.044,4.147,0.066,6.223l-1.294,0.003l-1.294-0.021C89.245,40.345,88.966,38.279,90.928,36.213z"/>
<path fill="#5C0BC5" d="M31.39,11.03c2.04-1.025,4.08-2.051,6.119-3.076c0.397,0.443,0.793,0.885,1.192,1.328c-0.04,0.592-0.078,1.184-0.116,1.779c-0.399,0.442-0.801,0.882-1.201,1.324c-1.787,0.708-3.488,0.324-5.159-0.415L31.39,11.03z"/>
<path fill="#650ECA" d="M43.674,4.762c1.181,0.067,2.361,0.131,3.54,0.198c1.012,0.559,1.36,1.132,1.045,1.73c-0.317,0.604-0.641,0.906-0.972,0.906l-0.143,0.867c-0.96,0.824-2.056,1.358-3.312,1.565c-1.277-0.094-2.429-0.521-3.463-1.278c-0.724-1.212-0.525-2.289,0.47-3.25C41.749,5.116,42.693,4.872,43.674,4.762z"/>
<path fill="#3C048C" d="M25.062,83.167c2.168-0.027,4.338-0.058,6.506-0.089l0.946,1.054l-0.532,1.309l-0.643,1.063C29.246,85.392,27.154,84.278,25.062,83.167z"/>
<path fill="#4401B4" d="M12.857,23.783c-1.045-0.027-2.092-0.055-3.137-0.083c-0.906-0.519-1.225-1.065-0.961-1.639c0.272-0.589,0.551-0.882,0.839-0.882c0.944-0.366,1.919-0.601,2.927-0.699c1.164-1.083,2.295-0.995,3.394,0.101l0.14-0.107c0.679,0.763,0.952,1.56,0.819,2.39c-0.136,0.848-0.305,1.272-0.503,1.275C15.107,24.964,13.931,24.891,12.857,23.783z"/>
<path fill="#3E00AC" d="M75.545,14.219c-1.113,0.024-2.229,0.049-3.343,0.073c-0.708-0.559-0.947-1.123-0.719-1.691c0.229-0.571,0.461-0.854,0.696-0.854C73.301,12.571,74.422,13.395,75.545,14.219z"/>
<path fill="#4902B8" d="M15.918,20.582c-1.131-0.034-2.261-0.067-3.392-0.101c1.079-0.839,2.158-1.679,3.238-2.512C15.896,18.836,15.948,19.706,15.918,20.582z"/>
<path fill="#3800A3" d="M88.031,20.487c-1.116,0.027-2.232,0.055-3.349,0.079c-0.014-0.857-0.014-1.712,0-2.569C85.798,18.83,86.915,19.657,88.031,20.487z"/>
<path fill="#37009E" d="M9.597,21.18c0.023,0.839,0.063,1.681,0.121,2.521c0.001,0-0.124,0.046-0.124,0.046c-0.847,0.928-1.682,0.918-2.504-0.031C7.926,22.871,8.763,22.025,9.597,21.18z"/>
<path fill="#38018A" d="M7.09,23.716c0.834,0,1.671,0.009,2.504,0.031c-0.796,0.974-1.591,1.947-2.387,2.92C6.582,25.706,6.543,24.723,7.09,23.716z"/>
<path fill="#290076" d="M7.092,73.725c0.856-0.012,1.712-0.018,2.566-0.018c0.012,0.86,0.003,1.718-0.029,2.575C8.784,75.431,7.939,74.579,7.092,73.725z"/>
<path fill="#1D0054" d="M84.686,79.347c-0.014-0.837-0.013-1.67,0.008-2.503c1.14,0.033,2.276,0.067,3.414,0.104C86.968,77.747,85.827,78.547,84.686,79.347z"/>
<path fill="#3C048C" d="M18.763,80.051c1.112,0.827,2.225,1.654,3.335,2.481C20.988,81.705,19.876,80.878,18.763,80.051z"/>
<path fill="#3B00A9" d="M40.839,5.5c0.058,0.854,0.095,1.712,0.108,2.573l-1.071,0.922L38.68,8.244l-1.172-0.29C38.619,7.136,39.729,6.318,40.839,5.5z"/>
<path fill="#4401B2" d="M72.18,11.747c-0.005,0.849,0.004,1.697,0.022,2.548c-1.02-1.142-2.038-2.28-3.058-3.418C70.156,11.167,71.168,11.457,72.18,11.747z"/>
<path fill="#1C0050" d="M50.326,95.045c-0.013-0.84,0.015-1.676,0.082-2.512c0.975,0.83,1.95,1.66,2.924,2.49l-1.5,0.427L50.326,95.045z"/>
<path fill="#350187" d="M19.193,73.749c-2.07-3.183-4.14-6.365-6.208-9.546c0.839-0.942,1.876-1.501,3.143-1.62c1.933,0.223,3.47,1.142,4.685,2.637c1.099,1.502,1.887,3.155,2.359,4.959c0.217,1.254-0.067,2.39-0.834,3.406l-0.363,0.213C21.029,74.72,20.103,74.701,19.193,73.749z"/>
<path fill="#2B007C" d="M31.982,85.44c-0.232-0.769-0.37-1.557-0.414-2.362c0.006-0.991,0.014-1.986,0.023-2.981c0.511-0.308,1.021-0.616,1.533-0.928c1.219,0.052,2.334,0.428,3.369,1.068c0.917,0.797,1.607,1.761,2.112,2.859c0.287,1.245-0.068,2.273-1.059,3.086C35.691,85.935,33.836,85.688,31.982,85.44z"/>
<path fill="#2B0079" d="M15.979,64.322c-1.001,0.007-2-0.033-2.996-0.119c-0.091-0.997-0.16-1.995-0.204-2.996c1.082-1.032,2.165-2.063,3.249-3.095C17.739,60.196,17.871,62.269,15.979,64.322z"/>
<path fill="#54109A" d="M28.436,76.898c-1.051-1.086-2.103-2.173-3.154-3.262c0.426-0.409,0.85-0.821,1.274-1.236c1.134-0.421,2.298-0.531,3.493-0.348c1.155,0.439,2.007,1.215,2.561,2.319c0.004,0.598,0.004,1.196,0.008,1.797c-0.336,0.498-0.673,0.992-1.01,1.489C30.386,78.092,29.328,77.839,28.436,76.898z"/>
<path fill="#6721A1" d="M22.337,73.585c-0.127-0.959-0.203-1.92-0.23-2.888c0.448-0.351,0.896-0.701,1.346-1.056c1.208-0.033,2.171,0.452,2.925,1.383c0.387,1.224,0.001,2.117-1.154,2.679c0,0,0.06-0.063,0.058-0.063c0-0.003-1.473,0.009-1.473,0.009L22.337,73.585z"/>
<path fill="#290074" d="M19.193,73.749c0.929-0.018,1.857-0.003,2.783,0.049C21.047,73.783,20.12,73.765,19.193,73.749z"/>
<path fill="#3C048C" d="M28.436,76.898c0.997-0.027,1.993-0.042,2.989-0.036c0.751,0.659,1.02,1.34,0.806,2.038c-0.215,0.708-0.442,1.063-0.682,1.063c0,0,0.042,0.131,0.043,0.134C30.54,79.032,29.487,77.967,28.436,76.898z"/>
<path fill="#24025B" d="M78.409,39.335c0.014,1.022,0.019,2.044,0.016,3.07c1.465,1.569,2,3.589,2.71,5.524c0.263,2.063-0.035,4.025-1.139,5.819c-1.399,2.942-3.546,5.356-5.581,7.853c-0.726,1.02-1.535,1.972-2.368,2.902c-0.417,0.461-0.864,0.896-1.282,1.357c-0.876,0.886-1.856,1.643-2.9,2.319c-0.561,0.247-1.136,0.479-1.701,0.718c-1.226,0.217-2.316,0.735-3.285,1.52c-0.031,2.139-0.062,4.278-0.092,6.421c-0.472,0.345-0.941,0.692-1.415,1.044c-1.197,0.137-2.333-0.083-3.422-0.59c-1.025-0.606-1.961-1.333-2.824-2.154c-1.288-1.264-2.371-2.68-3.195-4.29c-0.684-1.709-0.844-3.474-0.526-5.286c0.313-1.156,0.845-2.216,1.525-3.201c0.745-0.922,1.605-1.733,2.541-2.463c0.929-0.705,1.913-1.34,2.897-1.965c1.396-1.068,2.652-2.277,3.705-3.699c1.335-2.078,2.445-4.27,3.714-6.378c0.651-1.102,1.419-2.112,2.247-3.079c2.205-2.286,4.261-4.743,7.033-6.412C76.386,37.971,77.502,38.297,78.409,39.335z"/>
<path fill="#3B0F69" d="M72.19,61.18c2.064-2.109,4.129-4.218,6.193-6.327c0.499,0.175,0.996,0.349,1.498,0.52c0.479,0.942,1.03,1.843,1.644,2.703c1.041,0.004,2.083,0.007,3.125,0.01c1.802,2.069,1.796,4.15,0.046,6.244c-1.05,1.043-2.1,2.087-3.149,3.131c1.145,0.695,1.524,1.389,1.143,2.081c-0.38,0.692-0.762,1.041-1.147,1.041c-1.042,1.04-2.084,2.078-3.126,3.118c-0.963,1.264-1.996,1.264-3.087,0.165c-1.044-1.102-2.088-2.203-3.132-3.305c-1.004-0.464-1.625-1.236-1.866-2.298c-0.32-0.971-0.24-1.926,0.22-2.826c0.313-0.854,0.838-1.587,1.538-2.164c0.794,0.314,1.635,0.442,2.489,0.418c-0.728-0.436-1.462-0.857-2.221-1.245C72.354,62.445,72.19,61.18,72.19,61.18z"/>
<path fill="#24025B" d="M72.173,64.338c0.008,2.072,0.016,4.147,0.024,6.223c-2.093-0.019-4.187-0.04-6.28-0.059c-0.813-0.677-1.085-1.352-0.814-2.029c0.271-0.677,0.541-1.016,0.814-1.016l0.002-0.003c1.031-1.05,2.179-1.987,3.126-3.125l-0.004,0.003C70.086,63.166,71.13,63.224,72.173,64.338z"/>
<path fill="#1D0054" d="M75.329,73.865c1.028-0.064,2.057-0.119,3.087-0.165l0.017,0.11c0.72,0.674,0.958,1.349,0.714,2.017c-0.244,0.672-0.486,1.005-0.729,1.005c0.003,1.037-0.001,2.075-0.012,3.112C77.38,77.918,76.355,75.892,75.329,73.865z"/>
<path fill="#200059" d="M65.917,67.457c-0.001,1.016-0.001,2.032,0,3.049c-1.015,0.012-2.029-0.016-3.041-0.089C63.891,69.428,64.904,68.442,65.917,67.457z"/>
<path fill="#24025B" d="M62.786,76.838c1.033,1.047,2.067,2.094,3.101,3.14c-1.042,1.179-2.232,1.294-3.553,0.507c-0.813-1.309-0.631-2.509,0.414-3.61L62.786,76.838z"/>
<path fill="#1C004F" d="M62.792,79.957c1.033-0.004,2.064,0.006,3.095,0.021c0.033,1.032,0.052,2.063,0.057,3.098c-1.028,0.003-2.059-0.006-3.089-0.033C62.103,82.028,62.081,81,62.792,79.957z"/>
<path fill="#771AD2" d="M58.994,14.247c2.295-0.964,4.59-1.932,6.884-2.896c0.017,2.051,0.033,4.102,0.05,6.152c-0.941,1.794-2.127,3.329-4.167,3.97c-1.4,0.045-2.525-0.488-3.377-1.602C57.578,17.887,57.792,16.014,58.994,14.247z"/>
<path fill="#872AD9" d="M75.657,23.615c-0.135,2.124-0.268,4.245-0.401,6.369c-0.463,0.424-0.927,0.852-1.389,1.279c-1.915,0.647-3.684,0.418-5.266-0.891c-0.154-0.61-0.309-1.218-0.461-1.828c0.328-0.534,0.656-1.071,0.985-1.605C71.302,25.831,73.48,24.723,75.657,23.615z"/>
<path fill="#37009E" d="M65.923,20.594c1.067,2.115,2.135,4.229,3.202,6.344c0.001,0-0.073-0.101-0.073-0.101c-4.31,1.181-4.519-1.617-4.5-4.636C65.008,21.665,65.466,21.131,65.923,20.594z"/>
<path fill="#4401B2" d="M61.938,20.487c1.329-0.995,2.66-1.99,3.99-2.984c-0.011,1.031-0.012,2.063-0.005,3.091l0.024,0.034c-0.682,1.037-1.625,1.4-2.827,1.089C62.725,21.308,62.331,20.899,61.938,20.487z"/>
<path fill="#210059" d="M90.914,48.686c-0.003,1.05-0.008,2.1-0.011,3.149l0.02-0.019c-1.106,0.982-2.148,2.026-3.125,3.138c-1.042,0-2.084,0.003-3.126,0.003c-1.907-1.517-4.265-2.704-4.169-5.691c0.743-1.908,2.531-2.625,4.104-3.586c0.98-0.013,1.96-0.046,2.938-0.104C88.728,46.546,89.754,47.688,90.914,48.686z"/>
<path fill="#320665" d="M81.496,48.749c1.06,2.069,2.116,4.139,3.176,6.208l-1.524,0.006l-1.524-0.013c-1.01,1.12-2.054,1.209-3.139,0.107l-0.101-0.205c0.012-2.041,0.024-4.08,0.038-6.118C79.453,47.471,80.477,47.535,81.496,48.749z"/>
<path fill="#1D0054" d="M84.696,64.329c-0.016-2.082-0.031-4.163-0.046-6.244C84.665,60.166,84.681,62.247,84.696,64.329z"/>
<path fill="#44156E" d="M84.64,73.874c0.009-1.099,0.017-2.197,0.024-3.292c-0.92-0.696-1.227-1.392-0.919-2.085c0.307-0.692,0.613-1.04,0.924-1.04c1.081,1.056,2.165,2.108,3.247,3.164c0.741,0.732,0.958,1.432,0.655,2.1c-0.296,0.653-0.578,0.977-0.847,0.977C86.693,73.71,85.665,73.768,84.64,73.874z"/>
<path fill="#30046A" d="M87.798,54.954c1.042-1.047,2.083-2.091,3.125-3.138C89.883,52.863,88.84,53.907,87.798,54.954z"/>
<path fill="#4E1F71" d="M78.484,55.058c1.047-0.037,2.092-0.07,3.139-0.107c-0.032,1.044-0.065,2.085-0.098,3.125C80.512,57.068,79.497,56.062,78.484,55.058z"/>
<path fill="#1C0052" d="M84.669,67.457c-0.002,1.04-0.002,2.084-0.004,3.125c-1.042,0-2.082,0-3.123,0c0-1.041,0-2.085,0.003-3.125C82.587,67.457,83.628,67.457,84.669,67.457z"/>
<path fill="#1C0052" d="M87.725,73.697c0.049-1.025,0.111-2.054,0.191-3.076c1.001-0.024,2-0.039,3.001-0.039C89.854,71.619,88.788,72.66,87.725,73.697z"/>
<path fill="#3F01AB" d="M58.994,14.247c0.494,2.1,0.99,4.202,1.484,6.302c-1.154,1.019-2.51,1.565-4.038,1.724c-5.216-0.732-10.7-0.912-13.756-6.341c-0.326-1.517-0.213-3.003,0.325-4.458c0.598-0.47,1.199-0.937,1.8-1.404c0.693,0.311,1.387,0.625,2.08,0.937l0.351,0.263c0.833,0.833,1.831,1.34,2.995,1.523c1.182,0.128,2.183,0.619,3.007,1.471C55.16,14.259,57.076,14.252,58.994,14.247z"/>
<path fill="#9B42E1" d="M47.288,7.597c-0.07-0.879-0.094-1.758-0.073-2.637c1.976,0.925,3.953,1.853,5.926,2.777C51.19,7.688,49.238,7.643,47.288,7.597z"/>
<path fill="#3800A2" d="M46.89,11.005l-1.302,0.031l-1.298-0.098c-0.864-0.531-1.181-1.105-0.957-1.721c0.234-0.638,0.482-0.958,0.75-0.958c1.031-0.098,2.052-0.033,3.063,0.199C47.155,9.321,47.071,10.169,46.89,11.005z"/>
<path fill="#963ADF" d="M50.167,13.883c-0.975-0.873-1.951-1.746-2.927-2.615c0.979,0.052,1.95,0.168,2.913,0.354c0.816,0.498,1.091,0.998,0.824,1.504C50.709,13.63,50.44,13.883,50.167,13.883z"/>
<path fill="#8426D8" d="M50.167,13.883c0.057-0.757,0.054-1.511-0.012-2.261c1.028,0.882,2.06,1.761,3.088,2.643C52.202,14.256,51.177,14.13,50.167,13.883z"/>
<path fill="#28025F" d="M78.409,39.335c-1.048,0-2.095,0.003-3.142,0.003c-1.622,1.782-3.576,1.987-5.74,1.218c-1.156-0.854-1.929-1.98-2.324-3.36c-0.095-1.404,0.149-2.747,0.772-4.013c1.774-2.31,5.437-0.754,7.04-3.427l0.241,0.229c1.056,0.009,2.115,0.015,3.173,0.024c1.137,0.931,2.317,1.816,3.14,3.067l-0.027,0.006c0.398,0.521,0.797,1.041,1.193,1.563c-0.396,0.521-0.792,1.046-1.188,1.568C80.501,37.253,79.455,38.294,78.409,39.335z"/>
<path fill="#1D0052" d="M81.496,48.749l-1.538-0.021c0,0-1.538,0.003-1.536,0.006c0-2.112,0.001-4.221,0.003-6.33c2.06,1.09,4.121,2.182,6.182,3.275C83.57,46.702,82.532,47.728,81.496,48.749z"/>
<path fill="#1F0058" d="M90.928,36.213c-0.002,2.066-0.003,4.135-0.005,6.201c-2.113-1.035-4.227-2.069-6.341-3.101c-0.753-1.355-0.59-2.585,0.488-3.699c2.063-1.001,4.034-1.092,5.831,0.58L90.928,36.213z"/>
<path fill="#45156E" d="M90.914,48.686c-1.122-1.038-2.243-2.075-3.366-3.11C88.668,46.61,89.791,47.647,90.914,48.686z"/>
<path fill="#502272" d="M84.714,36.183c-0.044,1.043-0.087,2.087-0.131,3.131c-1.013-1.035-2.024-2.069-3.036-3.101l-0.005-0.006c0.525-0.458,1.05-0.916,1.575-1.376C83.649,35.276,84.182,35.728,84.714,36.183z"/>
<path fill="#2A007B" d="M25.305,54.954c-2.092-1.05-4.186-2.1-6.277-3.146c-0.759-1.258-0.705-2.5,0.047-3.738c2.578-2.604,5.451-4.163,9.203-2.588c1.593,1.587,1.98,3.495,1.476,5.633c-0.584,1.258-1.408,2.329-2.498,3.192C26.606,54.523,25.955,54.737,25.305,54.954z"/>
<path fill="#330185" d="M9.721,51.811c0.006-1.004-0.003-2.008-0.026-3.013c0.78-0.952,1.422-1.983,1.93-3.106c0.475-0.396,0.949-0.787,1.425-1.181c0.62-0.046,1.234-0.092,1.854-0.137c0.563,0.265,1.123,0.534,1.686,0.802c0.75,1.034,1.123,2.188,1.068,3.47c-0.145,1.285-0.72,2.335-1.726,3.149c-1.045,1.053-2.092,2.109-3.139,3.162C11.755,53.922,10.575,53.025,9.721,51.811z"/>
<path fill="#621CA0" d="M15.979,64.322c0.015-2.068,0.03-4.141,0.047-6.21c0.964-0.003,1.929-0.006,2.892-0.013c0.966,1.179,2.309,1.972,3.227,3.195l-0.021-0.066c1.053,0.744,1.663,1.754,1.833,3.033c-0.131,1.264-0.586,2.393-1.361,3.396c-1.15,0.695-2.273,0.65-3.366-0.131C18.145,66.459,17.062,65.391,15.979,64.322z"/>
<path fill="#2A0079" d="M25.297,61.207c0.001-2.085,0.004-4.169,0.008-6.253l-0.021,0.015c1.106-0.778,2.229-0.836,3.372-0.07c0.833,0.979,1.355,2.1,1.524,3.379c-0.114,1.284-0.564,2.432-1.397,3.424c-0.614,0.149-1.227,0.296-1.842,0.445C26.394,61.832,25.845,61.522,25.297,61.207z"/>
<path fill="#55109A" d="M15.933,51.795c-0.004-1.031-0.008-2.063-0.011-3.091c0.568-0.37,1.135-0.739,1.703-1.111c0.543,0.406,1.085,0.812,1.628,1.218c-0.122,0.995-0.197,1.996-0.226,2.997l-1.547,0.018L15.933,51.795z"/>
<path fill="#3B048C" d="M9.721,51.811c1.024,1.047,2.049,2.097,3.073,3.146c-1.053-0.01-2.106-0.019-3.159-0.031C9.655,53.889,9.684,52.848,9.721,51.811z"/>
<path fill="#2F0081" d="M22.145,61.295c-1.076-1.064-2.15-2.13-3.226-3.195C19.993,59.165,21.069,60.23,22.145,61.295z"/>
<path fill="#2C007F" d="M22.381,64.194c-0.133-0.985-0.217-1.975-0.256-2.97c1.056-0.006,2.113-0.012,3.172-0.018l-0.004-0.003C26.067,63.898,25.015,64.817,22.381,64.194z"/>
<path fill="#6F14CF" d="M81.781,24.07c2.123-0.094,4.247-0.192,6.372-0.29c-0.227,0.912-0.367,1.837-0.422,2.774c-0.826,0.974-1.871,1.538-3.136,1.703c-1.307-0.07-2.3-0.68-3.023-1.754C81.673,25.697,81.743,24.885,81.781,24.07z"/>
<path fill="#1C0052" d="M90.901,36.195c-2.063-0.006-4.126-0.009-6.188-0.012c0.001,0-0.049,0.027-0.049,0.027c-0.838-0.696-1.115-1.392-0.836-2.087c0.28-0.693,0.56-1.041,0.841-1.041C86.747,34.12,88.825,35.157,90.901,36.195z"/>
<path fill="#30046A" d="M81.572,26.502c1.074,0.271,2.148,0.54,3.225,0.809c0.605,0.592,0.804,1.181,0.592,1.764c-0.21,0.58-0.42,0.87-0.626,0.87c-1.1-0.019-2.2-0.037-3.3-0.058C81.498,28.757,81.536,27.631,81.572,26.502z"/>
<path fill="#1C0053" d="M84.763,29.945c-0.023-0.879-0.014-1.758,0.032-2.634c0.962-0.324,1.939-0.574,2.937-0.757C86.742,27.683,85.752,28.815,84.763,29.945z"/>
<path fill="#30046A" d="M81.569,33.076c-1.047-1.022-2.094-2.044-3.14-3.067c1.012-0.104,2.026-0.146,3.044-0.131C81.506,30.942,81.537,32.011,81.569,33.076z"/>
<path fill="#30046A" d="M84.669,33.082c0,1.041-0.002,2.084-0.004,3.125c-0.001,0.003-1.562,0-1.562,0h-1.562c0-1.041,0-2.084,0-3.125C82.584,33.082,83.626,33.082,84.669,33.082z"/>
<path fill="#3C048F" d="M15.625,33.149c1.145-1.068,2.289-2.136,3.433-3.204c0.43-0.437,0.861-0.873,1.29-1.315c1.764-0.778,3.561-0.8,5.389-0.256c2.12,1.169,4.492,1.938,6.215,3.769c0.638,1.046,0.933,2.191,0.9,3.415c-0.419,1.773-1.419,3.192-2.733,4.407c-0.857,0.724-1.807,1.34-2.791,1.88c-0.962,0.504-1.932,1.029-2.859,1.615c-0.432,0.33-0.882,0.641-1.315,0.977c-0.882,0.656-1.835,1.19-2.841,1.632c-0.51,0.208-1.022,0.403-1.534,0.604c-1.153,0.162-2.116-0.177-2.859-1.089l-0.339-0.153c-1.649-1.709-2.94-3.647-3.748-5.896c-0.43-1.245-0.068-2.231,0.969-2.997l0.065-0.519C13.88,35.151,14.799,34.196,15.625,33.149z"/>
<path fill="#370289" d="M12.802,36.537c-0.008,0.977,0,1.95,0.022,2.92c1.766,2.008,1.847,4.034,0.057,6.073l-0.124,0.067c-1.054,1.003-2.077,0.97-3.065-0.098c0.009-1.035,0.001-2.069-0.023-3.104c0.027-2.112,0.057-4.227,0.085-6.342C10.783,36.134,11.799,36.295,12.802,36.537z"/>
<path fill="#6910CC" d="M12.857,23.783c1.009-0.027,2.016-0.061,3.024-0.101c0.938-1.129,1.857-1.172,2.756,0.049l0.425-0.021c0.312,0.766,0.623,1.532,0.934,2.298c-0.533,0.632-1.065,1.267-1.598,1.898c-0.772-0.299-1.542-0.595-2.315-0.895C15.008,25.935,13.932,24.86,12.857,23.783z"/>
<path fill="#3C048F" d="M16.084,27.012c1.009,0.128,1.985,0.385,2.928,0.766c0.02,0.717,0.04,1.431,0.06,2.148l-0.014,0.019C18.066,28.968,17.076,27.988,16.084,27.012z"/>
<path fill="#7431A7" d="M15.625,33.149c-0.918,0.958-1.839,1.917-2.757,2.872C13.787,35.063,14.706,34.104,15.625,33.149z"/>
<path fill="#3D00AC" d="M19.071,29.926c-0.052-0.72-0.072-1.44-0.06-2.158c0,0.009,0.034-0.952,0.034-0.952c0.798-0.897,1.796-1.385,2.992-1.468c1.157-0.034,2.316-0.034,3.475-0.006c1.21,0.045,2.194,0.54,2.954,1.483c1.092-0.058,2.187-0.116,3.279-0.174c0.275,0.571,0.548,1.145,0.823,1.718c-0.153,1.327-0.793,2.322-2,2.936c-1.915,0.174-3.799,0.226-5.281-1.328C23.214,29.963,21.144,29.945,19.071,29.926z"/>
<path fill="#5C0BC5" d="M34.721,17.533c-0.009-1.056-0.019-2.112-0.027-3.165c0.269-1.825,2.086-2.124,3.131-3.186l-0.056,0.046c0.932-1.12,2.049-1.352,3.348-0.693c0.841,1.047,1.295,2.237,1.298,3.592c0.073,1.328-0.156,2.6-0.731,3.809c-1.057,0.824-2.264,1.272-3.595,1.398C36.759,19.12,35.636,18.519,34.721,17.533z"/>
<path fill="#9034DD" d="M31.745,26.652c-0.007-1.035,0.044-2.069,0.154-3.098c0.875-1.001,1.8-1.95,2.78-2.847l-0.093-0.208c1.126-1.08,2.364-1.291,3.732-0.488c0.806,1.211,1.199,2.548,1.187,4.004c-0.513,2.258-1.862,3.726-4.125,4.318c-1.484,0.033-2.66-0.577-3.562-1.743L31.745,26.652z"/>
<path fill="#4100B0" d="M37.824,11.183c-1.043,1.062-2.087,2.124-3.131,3.186c-0.826-0.803-1.653-1.605-2.474-2.402C34.09,11.708,35.957,11.445,37.824,11.183z"/>
<path fill="#7C1FD5" d="M37.447,20.719c-0.954-0.061-1.906-0.134-2.859-0.22c0.061-0.989,0.104-1.98,0.131-2.969c1.019-0.049,2.037-0.073,3.056-0.067c0.752,0.806,0.954,1.557,0.607,2.255C38.049,20.387,37.737,20.719,37.447,20.719z"/>
<path fill="#963BDF" d="M34.68,20.707c-0.928,0.952-1.855,1.901-2.782,2.847C32.827,22.605,33.753,21.656,34.68,20.707z"/>
<path fill="#37009C" d="M28.466,26.826c-1.035,0.003-2.071,0.009-3.105,0.009c-1.089-0.623-1.48-1.291-1.173-2.002c0.314-0.729,0.643-1.096,0.986-1.096c1.063,0.012,2.127,0.024,3.19,0.04C28.414,24.793,28.448,25.81,28.466,26.826z"/>
<path fill="#7B1ED4" d="M25.173,23.737c0.078,1.032,0.14,2.066,0.188,3.098c-1.068-0.003-2.136-0.006-3.203-0.012c-0.832-0.688-1.109-1.374-0.838-2.066c0.272-0.693,0.546-1.038,0.823-1.038c0,0,0.406-0.189,0.409-0.189C23.423,23.652,24.296,23.719,25.173,23.737z"/>
<path fill="#37028A" d="M50.204,86.188c-1.058-0.016-2.117-0.03-3.174-0.046c-0.631-0.812-1.369-1.514-2.211-2.1c-0.854-0.54-1.703-1.093-2.551-1.645c-0.81-0.61-1.489-1.35-2.07-2.18c-0.649-0.769-1.318-1.522-2.063-2.222c-0.771-0.735-1.369-1.584-1.85-2.539c-0.327-1.059-0.427-2.13-0.296-3.234c0.316-1.114,0.906-2.051,1.726-2.865c0.998-0.626,2.071-1.047,3.221-1.298c1.19-0.167,2.373-0.152,3.564-0.003c1.201,0.235,2.329,0.656,3.412,1.224c1.576,1.017,2.825,2.344,3.781,3.955c0.457,1.157,0.671,2.356,0.625,3.602c-0.329,1.196-0.929,2.24-1.832,3.104C50.392,82.022,50.298,84.107,50.204,86.188z"/>
<path fill="#22005B" d="M50.486,79.941c-0.13-1.028-0.179-2.06-0.148-3.095c2.072-1.571,0.619-4.897,3.113-6.259c1.031,1.044,2.064,2.087,3.096,3.131c1.102,0.977,2.043,2.112,3.12,3.113c1.027,0,2.054,0.015,3.081,0.042c0.027,1.028,0.043,2.054,0.044,3.083c0.003,1.028,0.023,2.057,0.063,3.085l-0.106,0.061c-4.039,1.782-6.616-0.781-9.27-3.115C52.481,79.972,51.482,79.957,50.486,79.941z"/>
<path fill="#3C0C71" d="M53.479,79.987c3.09,1.037,6.181,2.075,9.27,3.115c-0.02,1.987-0.04,3.974-0.06,5.961c-2.069-0.932-4.137-1.862-6.204-2.793C55.482,84.177,54.481,82.081,53.479,79.987z"/>
<path fill="#641FA1" d="M40.951,80.002c2.03,1.05,4.061,2.097,6.091,3.146c-0.85,1.065-1.811,2.021-2.9,2.845c-1.039,0.125-2.077,0.25-3.113,0.375c-1.158-0.061-2.318-0.122-3.48-0.186c0.165-1.017,0.254-2.042,0.267-3.073c0,0,0.208-1.203,0.199-1.209c0.394-0.751,0.97-1.324,1.716-1.728C39.726,80.164,40.951,80.002,40.951,80.002z"/>
<path fill="#6C26A4" d="M44.142,85.993c0.967-0.949,1.935-1.898,2.902-2.848c0.093,1.001,0.09,1.999-0.012,3C46.063,86.191,45.098,86.14,44.142,85.993z"/>
<path fill="#1C0053" d="M78.417,76.832c0.002-1.008,0.006-2.015,0.016-3.021c0.384,0.717,0.842,1.41,1.091,2.17C79.572,76.13,78.808,76.542,78.417,76.832z"/>
<path fill="#4B0A96" d="M9.692,45.5c1.021,0.061,2.043,0.091,3.067,0.098c-1.022,1.065-2.043,2.133-3.064,3.198C9.693,47.696,9.692,46.598,9.692,45.5z"/>
<path fill="#5E0AC6" d="M18.637,23.731c-0.919-0.019-1.837-0.034-2.756-0.049c0.058-1.068,0.116-2.136,0.175-3.208C16.917,21.562,17.777,22.645,18.637,23.731z"/>
<path fill="#A54FE4" d="M22.143,23.719c0.024,1.034,0.032,2.072,0.017,3.106c-0.001-0.003-1.56,0.021-1.56,0.021s-1.556-0.024-1.555-0.027c-0.006-1.041-0.003-2.075,0.011-3.11C20.089,23.704,21.116,23.707,22.143,23.719z"/>
<path fill="#3D00AB" d="M40.964,11.25c-1.065-0.009-2.13-0.015-3.195-0.021c0.299-0.995,0.6-1.99,0.905-2.985c0.758-0.091,1.515-0.149,2.273-0.171c1.045,0.061,2.089,0.122,3.134,0.186c-0.008,0.9,0.06,1.794,0.205,2.683c0.003-0.003-0.243,0.266-0.243,0.266C43.04,12.809,42.011,12.751,40.964,11.25z"/>
<path fill="#702CA5" d="M19.229,67.527c1.015-0.067,2.029-0.126,3.046-0.168c0.357,0.527,0.714,1.056,1.071,1.584c-0.389,0.503-0.776,1.01-1.166,1.514c0,0-0.072,0.237-0.073,0.24C21.147,69.642,20.187,68.583,19.229,67.527z"/>
<path fill="#631DA0" d="M31.548,79.963c-0.009-1.035-0.049-2.069-0.122-3.104c-0.001,0.003,0.253-0.043,0.253-0.043c1.045-1.05,2.211-1.212,3.5-0.482c0.193,0.645,0.386,1.291,0.58,1.935c-0.358,0.568-0.72,1.136-1.082,1.706C33.634,79.969,32.592,79.966,31.548,79.963z"/>
<path fill="#2A007A" d="M37.815,83.109c-1.046-1.044-2.092-2.091-3.137-3.138c0,0.003-0.014-0.019-0.014-0.019c0.53-0.445,1.061-0.891,1.593-1.336c0.638,0.274,1.274,0.552,1.914,0.827c0.821,1.281,0.776,2.526-0.13,3.744L37.815,83.109z"/>
<path fill="#4C0B96" d="M40.766,70.555c-1.036,0.003-2.072,0.023-3.108,0.063c-1.071,1.337-1.596,3.079-3.064,4.126c-1.208,0.357-2.202,0.067-2.948-0.974c-1.092-0.033-2.185-0.067-3.277-0.101c-0.916-0.809-1.28-1.815-1.1-3.027c0.262-1.767,0.978-3.354,1.886-4.877c0.353-0.481,0.723-0.942,1.085-1.419c0.488-0.348,0.984-0.677,1.48-1.022c1.198-0.262,2.39-0.247,3.587,0.019c1.778,0.531,3.38,1.395,4.813,2.579C41.288,67.328,42.543,68.735,40.766,70.555z"/>
<path fill="#3A028C" d="M31.459,64.466c0.014,0.974,0.04,1.95,0.076,2.924c-1.143,0.939-1.912,2.246-3.078,3.165c-0.023,1.04-0.052,2.078-0.087,3.118c-1.048,0.01-2.097,0.021-3.145,0.03c-0.04-1.053-0.078-2.105-0.116-3.158c-1.036-0.979-2.013-2.017-2.919-3.122c0,0,0.082-0.063,0.084-0.063c0.035-1.053,0.068-2.109,0.105-3.162c0.972-1.001,1.942-1.996,2.913-2.993c1.005-0.01,2.009-0.031,3.014-0.062C30.143,61.503,31.202,62.605,31.459,64.466z"/>
<path fill="#6C27A4" d="M31.646,73.771c1.032-0.03,2.064-0.046,3.098-0.049c0.825-1.11,1.677-1.132,2.557-0.061c0.098,0.994,0.194,1.992,0.29,2.99c-0.456,0.55-0.911,1.099-1.367,1.651c-0.519-0.488-1.038-0.979-1.556-1.471c-0.997,0-1.995-0.007-2.989-0.016C31.599,75.803,31.588,74.787,31.646,73.771z"/>
<path fill="#6C27A4" d="M22.19,67.423c0.973,1.041,1.948,2.085,2.92,3.125c-0.979,0.013-1.956-0.015-2.931-0.088C22.173,69.446,22.177,68.437,22.19,67.423z"/>
<path fill="#210059" d="M59.661,61.21c-1.052,0.003-2.102,0.009-3.152,0.012c-0.938,1.136-2.184,1.963-3.104,3.116l0.014-0.019c-0.54,0.431-1.08,0.857-1.622,1.288c-1.399-0.312-2.514-1.038-3.313-2.24c-1.299-2.597-1.471-5.325-0.942-8.136c0.381-1.337,1.019-2.545,1.918-3.613c2.83-1.63,5.241-0.409,7.615,1.117c1.074,0.836,1.988,1.831,2.771,2.944c0.278,0.61,0.543,1.236,0.814,1.853C60.918,58.915,60.613,60.15,59.661,61.21z"/>
<path fill="#3D0F6A" d="M68.943,48.673c-2.109,3.132-4.218,6.266-6.325,9.399c-0.9,1.145-1.799,1.145-2.697-0.003l-0.316,0.01c-1.633-3.656-0.369-6.738,1.909-9.626c1.126-0.876,2.396-1.419,3.817-1.596C66.769,46.995,67.984,47.577,68.943,48.673z"/>
<path fill="#31046D" d="M50.291,64.335c1.042-0.006,2.086-0.01,3.128-0.016c0.011,2.091,0.021,4.178,0.032,6.269c-1.038,2.084-2.077,4.172-3.114,6.259c-0.049-1.068-0.1-2.139-0.15-3.207C48.195,70.515,47.537,67.405,50.291,64.335z"/>
<path fill="#3A0B69" d="M69.072,39.384c2.064-0.015,4.131-0.031,6.195-0.046c-2.084,2.082-4.167,4.163-6.251,6.247c-0.409-0.449-0.816-0.894-1.228-1.34C67.232,42.365,67.496,40.702,69.072,39.384z"/>
<path fill="#46166F" d="M68.943,48.673c-1.021,0.021-2.044,0.027-3.064,0.024c-0.668-2.795,0.304-3.9,3.158-3.055c0,0-0.02-0.058-0.021-0.058C69.034,46.613,69.01,47.645,68.943,48.673z"/>
<path fill="#46166F" d="M59.921,58.069c0.899,0.019,1.8,0.019,2.699,0.003c-0.987,1.044-1.974,2.091-2.959,3.138C59.746,60.163,59.833,59.116,59.921,58.069z"/>
<path fill="#31046D" d="M53.405,64.338c1.034-1.038,2.07-2.078,3.104-3.116C55.474,62.263,54.44,63.3,53.405,64.338z"/>
<path fill="#1C0052" d="M72.173,64.338c-1.043-0.003-2.089-0.003-3.132-0.006c1.05-1.05,2.1-2.1,3.149-3.152l-0.005,0.009c0.828,0.702,1.102,1.403,0.822,2.103C72.727,63.992,72.451,64.338,72.173,64.338L72.173,64.338z"/>
<path fill="#1E0056" d="M69.045,64.329c-1.042,1.043-2.084,2.084-3.126,3.125C66.961,66.413,68.003,65.372,69.045,64.329z"/>
<path fill="#1C0050" d="M59.667,76.832c-1.04-1.038-2.079-2.075-3.12-3.113C57.588,74.757,58.627,75.794,59.667,76.832z"/>
<path fill="#24025B" d="M72.172,64.338c0.005-1.05,0.009-2.1,0.014-3.149c1.028,1.044,2.057,2.087,3.084,3.131l0.009-0.009C74.242,64.319,73.208,64.329,72.172,64.338z"/>
<path fill="#310665" d="M75.27,64.319c0.407,0.223,0.816,0.449,1.224,0.675c-0.404-0.229-0.811-0.455-1.215-0.684L75.27,64.319z"/>
<path fill="#6710CB" d="M56.542,20.622c1.307-0.024,2.612-0.049,3.93-0.073c0.007,0,1.484-0.061,1.476-0.061c-0.01,0,0.753,0.144,0.753,0.144c3.023,3.564,1.343,6.607-1.04,9.573c-1.674,1.34-3.594,1.917-5.721,1.749c-1.259-0.296-2.344-0.937-3.225-1.883c-0.129-0.586-0.267-1.196-0.419-1.782c0.401-1.773-0.089-3.534-0.289-5.313c0.064-1.245,0.507-2.332,1.367-3.244C54.623,19.343,55.688,19.608,56.542,20.622z"/>
<path fill="#3E00AC" d="M59.678,29.96c1.009-3.11,2.018-6.22,3.024-9.329c1.08-0.003,2.162-0.003,3.245-0.003c1.035,2.069,2.069,4.141,3.104,6.21c0.042,1.041,0.106,2.082,0.191,3.119c-0.801,0.967-1.788,1.688-2.934,2.203c-1.237,0.241-2.474,0.247-3.713,0.006C61.393,31.739,60.421,31.001,59.678,29.96z"/>
<path fill="#6910CC" d="M66.001,30.021c1.08-0.021,2.159-0.043,3.241-0.064c1.927-0.067,3.852-0.134,5.775-0.202c-1.914,1.163-3.825,2.326-5.737,3.488c-0.585,0.394-1.169,0.787-1.752,1.181c-0.651-0.272-1.302-0.541-1.953-0.809C64.726,32.301,64.867,31.101,66.001,30.021z"/>
<path fill="#4902B8" d="M56.542,20.622c-1.053,0.037-2.105,0.07-3.16,0.107c-0.768,0.781-1.539,1.559-2.317,2.34c-1.359,1.065-2.88,1.767-4.578,2.112c-1.183,0.061-2.31-0.152-3.396-0.619c-1.561-0.98-2.53-2.423-3.225-4.086c-0.348-1.245,0.005-2.246,1.052-3.003c0.001-1.056,0.003-2.112,0.004-3.167c1.054-1.142,2.097-1.129,3.125,0.033C48.211,16.435,52.377,18.528,56.542,20.622z"/>
<path fill="#892CDA" d="M44.047,14.338c-1.042-0.009-2.084-0.018-3.125-0.03c-0.001-1.025,0.009-2.045,0.038-3.064c1.03-0.034,2.057-0.046,3.084-0.037C44.044,12.251,44.045,13.294,44.047,14.338z"/>
<path fill="#25025B" d="M69.037,45.643c-1.053,1.017-2.105,2.036-3.158,3.055c-1.088,0-2.176,0-3.264,0.003c-0.51,0.412-1.021,0.824-1.533,1.239c-0.607-0.256-1.214-0.51-1.824-0.766c-0.303-0.589-0.601-1.178-0.91-1.764c-0.049-0.663-0.087-1.325-0.148-1.99c0.136-1.327,0.432-2.625,0.83-3.903c0.399-1.282,0.949-2.5,1.606-3.671c1.169-1.73,2.693-2.933,4.845-3.162c1.392-0.037,2.563,0.473,3.539,1.453c0.018,1.083,0.035,2.164,0.053,3.247C69.061,41.468,69.05,43.556,69.037,45.643z"/>
<path fill="#4A02B9" d="M69.02,36.137c-1.039,0.067-2.066-0.027-3.078-0.278c-0.654-0.598-0.879-1.202-0.674-1.816c0.205-0.616,0.415-0.924,0.63-0.924c1.124,0.04,2.251,0.079,3.38,0.122C69.159,34.205,69.072,35.169,69.02,36.137z"/>
<path fill="#360188" d="M28.472,58.158c-0.018-1.068-0.035-2.137-0.053-3.204c0,0,0.249-1.255,0.243-1.255c-0.006,0,1.222-0.305,1.222-0.305s-1.229-0.3-1.234-0.3c-0.005-0.003-0.225-1.257-0.225-1.257c-0.001-2.048-0.003-4.099-0.004-6.146c0.186-0.665,0.374-1.33,0.559-2.001c0.86-1.145,1.988-1.883,3.384-2.222c1.422,0.25,2.64,0.875,3.638,1.932c1.239,1.828,1.82,3.87,2.011,6.048c0.145,2.963-0.284,5.802-1.926,8.354c-1.03,1.071-2.272,1.761-3.743,2.023C30.851,59.748,29.569,59.165,28.472,58.158z"/>
<path fill="#4A0A96" d="M28.42,45.691c-3.058,1.038-6.114,2.078-9.17,3.119c0.003,0-0.214-0.106-0.214-0.106c-0.834-0.696-1.112-1.392-0.833-2.085c0.281-0.692,0.56-1.041,0.839-1.041l-0.066,0.015c1.163-0.973,2.171-2.103,3.214-3.198l-0.087,0.07c1.089-0.952,2.35-1.437,3.804-1.392c2.243,0.635,3.837,1.642,2.472,4.337L28.42,45.691z"/>
<path fill="#360188" d="M28.419,54.954c-1.045,0.006-2.09,0.009-3.136,0.015c1.047-1.044,2.093-2.087,3.142-3.131l-0.017-0.019c0.635,0.699,0.847,1.395,0.636,2.094c-0.209,0.699-0.419,1.047-0.63,1.047L28.419,54.954z"/>
<path fill="#2A0079" d="M12.881,45.53c-0.018-2.023-0.038-4.049-0.057-6.073c0.922,1.993,1.842,3.982,2.761,5.972C14.683,45.505,13.783,45.539,12.881,45.53z"/>
<path fill="#702BA5" d="M19.043,45.579c0,1.043,0,2.084-0.003,3.125c-1.042,0.003-2.083,0.003-3.119,0c-0.004-1.041-0.006-2.082-0.003-3.122C16.96,45.579,18.002,45.579,19.043,45.579z"/>
<path fill="#530F99" d="M28.472,58.158c1.016-0.04,2.033-0.055,3.05-0.049c0.998,0.806,1.602,1.843,1.816,3.109c-0.16,1.282-0.755,2.311-1.785,3.092c0,0-0.093,0.152-0.095,0.152c-1.05-1.104-2.1-2.213-3.151-3.32C28.382,60.15,28.439,59.153,28.472,58.158z"/>
<path fill="#57129B" d="M28.379,45.411c-1.042-0.998-2.084-1.996-3.127-2.994c-0.703-0.653-0.941-1.312-0.715-1.978c0.226-0.665,0.455-1.001,0.687-1.001c1.097-0.073,2.194-0.143,3.292-0.216c1.048-1.065,2.209-1.154,3.467-0.403c0.682,1.263,0.615,2.462-0.317,3.583C30.569,43.406,29.475,44.407,28.379,45.411z"/>
<path fill="#5C0DC4" d="M31.82,26.591c0.948,0.098,1.889,0.238,2.823,0.424c0.99,0.68,1.719,1.568,2.159,2.694c0.24,1.175,0.232,2.353,0.032,3.531c-0.371,1.144-0.995,2.136-1.851,2.981c-1.113,0.623-2.17,0.567-3.16-0.275c-0.103-1.038-0.205-2.078-0.307-3.119c-1.151-0.577-1.531-1.15-1.146-1.721c0.38-0.568,0.764-0.852,1.156-0.852C31.625,29.032,31.722,27.812,31.82,26.591z"/>
<path fill="#7B1DD4" d="M31.527,30.256c-0.032,0.857-0.035,1.715-0.01,2.573c-2.077-0.949-4.154-1.901-6.23-2.851C27.366,30.073,29.446,30.165,31.527,30.256z"/>
<path fill="#2F0081" d="M31.823,35.947c0.99,0.064,1.98,0.07,2.972,0.016c0.305,0.488,0.612,0.973,0.92,1.465c0.024,1.208-0.424,2.218-1.285,3.058c-1.229,0.269-2.208-0.113-2.936-1.141c-0.995-0.021-1.99-0.061-2.981-0.122C29.618,38.129,30.721,37.04,31.823,35.947z"/>
<path fill="#6621A1" d="M25.224,39.438c0.041,0.995,0.052,1.987,0.029,2.982c-1.05,0.015-2.1,0.03-3.147,0.045C23.144,41.459,24.185,40.449,25.224,39.438z"/>
<path fill="#631CA0" d="M22.19,42.396c-1.071,1.065-2.143,2.13-3.214,3.198C20.048,44.526,21.119,43.461,22.19,42.396z"/>
<path fill="#4000AF" d="M40.918,17.472c0,1.05,0,2.1-0.002,3.149c0.783,0.653,1.128,1.382,1.038,2.182c-0.094,0.836-0.25,1.254-0.46,1.254c-1.282,0.732-2.433,0.528-3.468-0.491c-0.115-0.964-0.305-1.914-0.574-2.847c0.106-1.086,0.215-2.173,0.325-3.256C38.822,17.466,39.871,17.469,40.918,17.472z"/>
<path fill="#6310C8" d="M38.024,23.566c0.962,0.092,1.927,0.137,2.893,0.141c1.01,0.814,1.568,1.876,1.746,3.155c-0.161,1.272-0.638,2.411-1.424,3.421c-1.009,0.791-2.151,1.261-3.421,1.425c-1.283-0.177-2.336-0.772-3.156-1.782c0.001-0.97-0.006-1.944-0.02-2.915C35.771,25.864,36.898,24.714,38.024,23.566z"/>
<path fill="#2E0180" d="M40.766,70.555c-1.01-1.041-2.021-2.079-3.032-3.116c-0.809-0.949-1.415-2.011-1.793-3.201c-0.403-1.188-0.534-2.398-0.363-3.644c0.453-1.151,1.021-2.243,1.692-3.284c1.146-0.51,2.342-0.662,3.581-0.476c1.746,0.606,3.212,1.66,4.534,2.926c0.836,0.834,1.515,1.795,2.06,2.842c0.245,0.521,0.482,1.056,0.723,1.584c0.323,1.123,0.292,2.246-0.088,3.356c-0.976,1.489-2.815,1.841-4.02,3.036C42.963,70.569,41.865,70.563,40.766,70.555z"/>
<path fill="#490994" d="M47.157,67.426c0.004-1.043,0.007-2.087,0.012-3.131c1.045-1.071,2.072-1.053,3.079,0.059l0.043-0.019c-0.034,3.101-0.067,6.204-0.103,9.305c-1.009-1.014-2.018-2.026-3.024-3.04c-0.88-0.705-1.175-1.406-0.883-2.114C46.571,67.78,46.864,67.426,47.157,67.426z"/>
<path fill="#4E0C97" d="M47.157,67.426c0.003,1.06,0.004,2.115,0.007,3.174c-1.034,0.004-2.069-0.003-3.104-0.021C45.094,69.529,46.125,68.48,47.157,67.426z"/>
<path fill="#712CA5" d="M37.301,73.661c-0.853,0.018-1.706,0.039-2.559,0.061c0.973-1.034,1.945-2.069,2.916-3.104C37.695,71.649,37.576,72.663,37.301,73.661z"/>
<path fill="#2A007A" d="M40.922,76.838c0.223-0.409,0.447-0.818,0.67-1.23c-0.226,0.406-0.453,0.813-0.679,1.218L40.922,76.838z"/>
<path fill="#2A007A" d="M37.591,76.651c1.109,0.062,2.22,0.125,3.331,0.187l-0.009-0.013c0.012,1.06,0.024,2.118,0.037,3.177c0.001,0,0.055,0.11,0.055,0.11c-1.102,0.857-2.168,0.857-3.192-0.138l-0.02-0.018c-0.838-0.693-1.119-1.389-0.841-2.088c0.276-0.695,0.554-1.044,0.833-1.044L37.591,76.651z"/>
<path fill="#470A93" d="M37.812,79.975c1.063,0.046,2.127,0.089,3.191,0.135c-0.989,1.028-1.978,2.054-2.965,3.079C37.965,82.117,37.888,81.046,37.812,79.975z"/>
<path fill="#3C058B" d="M37.785,76.825c0.003,1.044,0.004,2.088,0.008,3.132c-1.042,0-2.083,0-3.126-0.004c0-1.04,0.001-2.081,0.001-3.121C35.707,76.828,36.746,76.825,37.785,76.825z"/>
<path fill="#6621A1" d="M31.553,64.311c-0.009-1.028-0.012-2.057-0.008-3.086c1.492-0.76,2.714-0.448,3.669,0.928c-0.172,0.724-0.348,1.45-0.521,2.173C33.647,64.322,32.6,64.316,31.553,64.311z"/>
<path fill="#520E98" d="M28.457,70.555c1.025-1.054,2.052-2.109,3.078-3.162C30.509,68.445,29.482,69.498,28.457,70.555z"/>
<path fill="#722EA6" d="M37.672,64.484c0.058,0.982,0.079,1.969,0.063,2.954c-1.015-1.038-2.028-2.075-3.041-3.113l-0.024,0.01C35.748,62.827,36.749,62.879,37.672,64.484z"/>
<path fill="#390C69" d="M62.686,39.155c-0.024,1.15-0.051,2.304-0.076,3.455c-1,0.989-1.977,2.002-2.927,3.037l0.05-0.077c-0.779,0.656-1.061,1.334-0.842,2.036c0.221,0.711,0.454,1.067,0.702,1.067l0.342,0.062c1.329,3.433-0.936,4.861-3.439,6.152c-1.994-0.982-3.987-1.969-5.981-2.951c-0.849-0.876-1.234-1.923-1.174-3.144c0.254-1.788,0.838-3.47,1.592-5.111c0.526-1.114,1.196-2.13,1.989-3.076c1.323-1.374,2.875-2.38,4.689-2.981C59.562,37.266,61.332,37.528,62.686,39.155z"/>
<path fill="#2A007A" d="M50.248,64.354c-1.027-0.004-2.054-0.021-3.079-0.059l0.045,0.079c-0.73-0.879-1.263-1.867-1.626-2.95c-0.864-1.496-2.212-2.641-2.998-4.196c-0.687-1.795-0.375-3.449,0.673-5.008c0.916-0.815,1.978-1.279,3.209-1.34c1.897,0.592,2.415,2.508,3.614,3.771C50.14,57.887,50.194,61.118,50.248,64.354z"/>
<path fill="#1D0053" d="M56.495,54.887c1.145-2.051,2.289-4.102,3.436-6.152c0.899-0.003,1.793-0.013,2.686-0.034c-1.004,3.125-2.008,6.254-3.012,9.379C58.568,57.017,57.531,55.951,56.495,54.887z"/>
<path fill="#520F99" d="M50.086,54.651c-0.985-0.928-1.97-1.855-2.955-2.786c-0.71-0.692-1.004-1.435-0.887-2.222c0.121-0.814,0.284-1.221,0.487-1.221c0.621-0.214,1.244-0.424,1.865-0.638c0.592,0.287,1.184,0.57,1.775,0.854c0.046,1.099,0.092,2.194,0.141,3.296C50.346,52.836,50.204,53.742,50.086,54.651z"/>
<path fill="#4400B3" d="M62.686,39.155c-1.952,0.186-3.903,0.369-5.854,0.552c-0.408-0.338-0.813-0.677-1.221-1.013c-0.07-0.521-0.14-1.043-0.213-1.563c0.219-0.47,0.439-0.946,0.655-1.419c-0.423-1.096-1.025,0.027-1.54-0.104c-2.388,0.412-4.654,0.125-6.801-1.032c-1.005-0.815-1.575-1.858-1.729-3.14c0.249-1.306,0.977-2.261,2.111-2.927c1.975-0.571,3.731-0.281,5.162,1.3c2.14,0.049,4.28,0.098,6.421,0.149c1.034-0.006,2.07-0.009,3.105-0.009c1.131,0.952,2.181,1.984,3.101,3.144l0.014,0.021c0.011,0.919,0.025,1.834,0.044,2.747C64.857,36.958,63.772,38.056,62.686,39.155z"/>
<path fill="#6E13CE" d="M50.362,20.582c1.01,0.006,2.016,0.052,3.021,0.144c0.022,1.043,0.047,2.084,0.07,3.128c0.691,0.702,0.907,1.392,0.652,2.072c-0.251,0.671-0.495,1.007-0.735,1.007l0.115-0.137c-1.587,1.898-3.809,1.489-5.883,1.626c-1.457,0.208-2.797-0.095-4.022-0.91c-0.707-1.367-0.589-2.637,0.475-3.784c1.099-0.082,2.199-0.162,3.299-0.241C48.382,22.544,49.383,21.574,50.362,20.582z"/>
<path fill="#973CDF" d="M47.198,26.954c2.095-0.052,4.19-0.104,6.287-0.159c-0.005,1.013-0.079,2.017-0.226,3.018c-2.072-0.085-4.142-0.165-6.21-0.247c-0.75-0.626-0.975-1.221-0.682-1.786C46.65,27.231,46.928,26.954,47.198,26.954z"/>
<path fill="#993EE0" d="M53.371,26.933c0.003-1.028,0.031-2.057,0.083-3.083c0.57,0.51,1.14,1.02,1.742,1.557C54.562,25.938,53.967,26.435,53.371,26.933z"/>
<path fill="#4A02B9" d="M65.884,33.094c-1.033-1.05-2.066-2.097-3.101-3.144c1.072,0.024,2.146,0.046,3.218,0.07C65.92,31.043,65.882,32.069,65.884,33.094z"/>
<path fill="#3C00AA" d="M44.056,23.728c-0.133,0.91-0.25,1.825-0.35,2.741c-0.813,1.227-1.741,1.257-2.768,0.266c-0.004-1.01-0.012-2.018-0.021-3.027c0.006-1.029,0.006-2.057,0-3.085C41.962,21.656,43.009,22.69,44.056,23.728z"/>
<path fill="#3800A2" d="M50.362,20.582c-1.004,0.97-2.008,1.938-3.01,2.905C48.357,22.52,49.36,21.549,50.362,20.582z"/>
<path fill="#4F2172" d="M59.593,48.673c-0.362-0.747-0.803-1.474-1.019-2.261c-0.044-0.165,0.75-0.556,1.157-0.843C59.746,46.607,59.699,47.642,59.593,48.673z"/>
<path fill="#46166F" d="M59.683,45.646c0.977-1.013,1.953-2.026,2.928-3.04C61.634,43.623,60.657,44.636,59.683,45.646z"/>
<path fill="#2A007B" d="M34.727,57.999c-0.012-3.143-0.024-6.286-0.038-9.43c1.074-0.769,2.174-0.806,3.305-0.116c0.894,0.867,1.541,1.893,1.959,3.067c0.25,1.218,0.25,2.438,0.022,3.659c-0.513,1.129-1.255,2.09-2.189,2.905l0.009-0.01C36.741,59.266,35.717,59.306,34.727,57.999z"/>
<path fill="#470893" d="M34.727,57.999c1.022,0.056,2.045,0.08,3.069,0.076c-0.042,2.137-0.083,4.272-0.124,6.409c-0.998-0.138-1.998-0.187-3.003-0.149c-1.042-1.038-2.083-2.075-3.125-3.11c-0.001-1.04-0.009-2.078-0.021-3.115C32.591,58.072,33.659,58.036,34.727,57.999z"/>
<path fill="#4B0A96" d="M37.793,48.691c-1.036-0.027-2.071-0.067-3.104-0.119c-0.017-2.048-0.033-4.092-0.05-6.137c0.519-0.397,1.036-0.791,1.557-1.187c1.343,0.241,2.367,0.934,3.024,2.145c0.327,1.291,0.289,2.573-0.106,3.846C38.673,47.724,38.232,48.209,37.793,48.691z"/>
<path fill="#2A007A" d="M28.414,54.96c-0.001-1.047-0.003-2.094-0.006-3.141c0.396,0.745,0.87,1.465,1.126,2.256C29.585,54.233,28.81,54.657,28.414,54.96z"/>
<path fill="#2A007A" d="M31.495,39.344c1.041-0.006,2.081-0.003,3.122,0.009c0.792,0.678,1.063,1.364,0.816,2.057c-0.25,0.699-0.503,1.05-0.763,1.05l-0.032-0.024h-1.489c0,0-1.489-0.031-1.488-0.031C31.582,41.386,31.525,40.366,31.495,39.344z"/>
<path fill="#3A00A6" d="M34.663,29.926c1.012,0.098,2.023,0.195,3.034,0.293c0.711,0.684,1.004,1.413,0.877,2.188c-0.13,0.8-0.298,1.2-0.502,1.203c-1.222,0.75-2.359,0.638-3.407-0.339C34.664,32.154,34.663,31.04,34.663,29.926z"/>
<path fill="#7316D0" d="M34.664,33.271c1.032-0.119,2.066-0.146,3.104-0.083c0.603,1.086,0.549,2.143-0.156,3.168c-1.007,0.799-2.019,0.806-3.037,0.021c0,0,0.217-0.409,0.218-0.412C34.733,35.065,34.69,34.168,34.664,33.271z"/>
<path fill="#40058F" d="M34.576,36.378c1.071-0.021,2.144-0.046,3.215-0.067c0.554,0.171,1.108,0.345,1.665,0.513c0.913,0.748,1.591,1.669,2.043,2.759c0.146,1.19-0.122,2.273-0.865,3.226c-1.066,0.775-2.021,0.617-2.879-0.351l-1.542,0.003h-1.541c0.006-1.038-0.012-2.072-0.053-3.107C34.632,38.361,34.619,37.37,34.576,36.378z"/>
<path fill="#9034DD" d="M40.939,26.734c0.929-0.028,1.854-0.113,2.77-0.263c1.161,0.159,2.326,0.317,3.488,0.482c-0.023,0.873-0.072,1.746-0.148,2.615c0-0.003,0.264,0.791,0.264,0.791c-1.51,1.309-3.195,1.547-5.038,0.821c-0.415-0.446-0.827-0.894-1.241-1.34C40.942,28.806,40.911,27.772,40.939,26.734z"/>
<path fill="#4400B4" d="M37.791,36.311c-0.007-1.041-0.015-2.084-0.022-3.125c0.01-0.989-0.012-1.98-0.07-2.969c1.111-0.122,2.222-0.247,3.334-0.375c0.001,0-0.153,0.192-0.153,0.192c1.029,0.793,1.585,1.846,1.735,3.128c-0.203,1.26-0.743,2.353-1.615,3.284c-1.168,0.666-2.283,0.62-3.334-0.256L37.791,36.311z"/>
<path fill="#460893" d="M37.786,58.085c0.069-1.108,0.137-2.216,0.205-3.323c0.738-0.84,1.323-1.779,1.751-2.814c0.426-0.359,0.852-0.72,1.277-1.08c0.557-0.019,1.115-0.033,1.672-0.049c0.445,0.336,0.89,0.675,1.333,1.011c0.049,2.041,0.096,4.08,0.145,6.121c-0.99,1.355-2.039,1.401-3.143,0.138C39.947,58.088,38.867,58.085,37.786,58.085z"/>
<path fill="#641EA1" d="M41.027,58.088c1.046-0.046,2.093-0.089,3.142-0.138c0.859,1.09,1.717,2.176,2.574,3.266c-0.936,1.071-1.891,1.142-2.869,0.058C42.925,60.212,41.976,59.149,41.027,58.088z"/>
<path fill="#651FA1" d="M43.875,61.273c0.958-0.036,1.917-0.055,2.872-0.058c0.154,1.053,0.312,2.105,0.468,3.158C46.101,63.34,44.988,62.309,43.875,61.273z"/>
<path fill="#4300B3" d="M56.831,39.707c-1.151,0.983-2.3,1.969-3.45,2.951c-0.873,0.873-1.885,1.538-3.035,2.002c-1.236,0.205-2.46,0.141-3.679-0.144c-1.172-0.482-2.148-1.224-2.942-2.209c-0.45-1.199-0.476-2.417-0.153-3.65c0.813-1.751,2.048-3.07,3.905-3.726c1.816-0.266,3.634-0.296,5.448,0.067c1.721,0.867,2.226,2.755,3.418,4.071L56.831,39.707z"/>
<path fill="#4F2272" d="M53.417,45.554c-1.016,1.029-2.032,2.057-3.047,3.085c0.001,0-0.135,0.104-0.135,0.104c-0.766-0.738-1.089-1.528-0.97-2.377c0.122-0.876,0.291-1.315,0.51-1.318C51.13,44.211,52.337,44.428,53.417,45.554z"/>
<path fill="#26015E" d="M53.417,45.554l-1.528,0.015l-1.529-0.012c-0.797-0.681-1.05-1.349-0.763-2.002c0.282-0.647,0.562-0.971,0.838-0.971c0.983-0.091,1.967-0.07,2.946,0.07C53.411,43.623,53.423,44.587,53.417,45.554z"/>
<path fill="#3B038B" d="M47.181,48.734c-0.017,1.044-0.032,2.087-0.05,3.131c-1.035-0.021-2.069-0.033-3.105-0.036l0.017,0.012c-1.859-1.788-1.755-3.763-0.554-5.844c1.17-1.016,2.497-1.303,3.984-0.857c0.787,0.87,1.004,1.691,0.656,2.469C47.791,48.358,47.476,48.734,47.181,48.734z"/>
<path fill="#3E048E" d="M47.181,48.734c-0.008-1.056-0.017-2.115-0.024-3.174c-0.895-0.65-1.198-1.309-0.917-1.98c0.284-0.675,0.572-1.01,0.865-1.01c1.109,0.003,2.217,0.006,3.326,0.012c-0.099,0.992-0.125,1.983-0.071,2.976c-0.04,1.062-0.081,2.124-0.122,3.186c-0.002,0-1.529-0.021-1.529-0.021L47.181,48.734z"/>
<path fill="#4E03BC" d="M53.598,36.256c-2.167-0.012-4.334-0.024-6.5-0.037c-1.178,0.824-2.281,0.692-3.32-0.266c-0.636-1.224-0.584-2.414,0.157-3.58c1.291-0.727,2.36-0.446,3.241,0.702c3.206,0.055,6.412,0.11,9.617,0.165c0.655,1.102,0.521,2.124-0.297,3.079l0.163-0.18C55.68,37.318,54.659,37.355,53.598,36.256z"/>
<path fill="#4A02B9" d="M47.175,33.076c-1.108,0.031-2.214,0.058-3.32,0.088c-0.898,1.206-1.849,1.19-2.844,0.119c-0.044-1.083-0.087-2.167-0.131-3.25c2.144,0.107,4.287,0.21,6.432,0.32C47.213,31.263,47.167,32.167,47.175,33.076z"/>
<path fill="#872AD9" d="M56.495,36.32c0.038-1.032,0.136-2.06,0.294-3.079c0.588,0.485,1.172,0.97,1.819,1.507C57.744,35.392,57.12,35.856,56.495,36.32z"/>
<path fill="#9033DD" d="M53.598,36.256c1.021-0.031,2.04-0.067,3.059-0.116c0.007,0.989-0.099,1.968-0.313,2.933C55.427,38.132,54.513,37.192,53.598,36.256z"/>
<path fill="#3B038B" d="M37.829,51.878c-0.012-1.063-0.024-2.124-0.037-3.187l-0.035,0.006c1.005-1.089,2.187-1.33,3.543-0.726c0.89,1.238,0.768,2.417-0.229,3.533l-0.168,0.352C39.886,52.812,38.86,52.866,37.829,51.878z"/>
<path fill="#5D179E" d="M37.829,51.878c1.023-0.073,2.049-0.08,3.074-0.021c-0.972,0.97-1.944,1.94-2.914,2.908C37.869,53.807,37.814,52.842,37.829,51.878z"/>
<path fill="#300083" d="M40.94,48.676c-1.06,0.01-2.121,0.016-3.183,0.021c-0.001-2.081-0.001-4.162-0.003-6.24c1.053,0,2.107,0,3.162,0c0,0,1.31,0.814,1.313,0.814c0.562,0.946,0.674,1.947,0.343,2.997C42.6,47.455,42.056,48.261,40.94,48.676z"/>
<path fill="#7317D1" d="M37.666,36.188c1.126,0.019,2.254,0.037,3.381,0.052c0,0,1.086,0.91,1.088,0.907c0.003,0-0.04,1.419-0.037,1.419c0.001,0-1.184,0.781-1.184,0.781C39.831,38.294,38.748,37.241,37.666,36.188z"/>
<path fill="#2A007A" d="M44.048,39.308c0.004,1.043,0.009,2.09,0.015,3.134c-0.523,0.431-1.045,0.864-1.567,1.297c-0.526-0.424-1.053-0.854-1.579-1.282h-0.002c-0.004-1.038-0.006-2.075-0.001-3.11l-0.001-0.021c0.521-0.427,1.041-0.854,1.56-1.288C42.999,38.459,43.523,38.883,44.048,39.308z"/>
<path fill="#8326D8" d="M41.01,33.283c0.946-0.119,1.895-0.159,2.846-0.119c0.087,1.01,0.108,2.023,0.058,3.04c-0.499,0.452-1,0.907-1.499,1.367c-0.5-0.452-1-0.909-1.5-1.367c0,0,0.128,0.037,0.13,0.037C40.963,35.258,40.951,34.272,41.01,33.283z"/>
<path fill="#290077" d="M40.94,48.676c-0.014-1.031-0.021-2.063-0.022-3.094c0.519-0.458,1.038-0.916,1.556-1.379c0.521,0.455,1.039,0.916,1.56,1.376c0.003,2.087,0.006,4.175,0.009,6.262c-0.998-0.046-1.99-0.155-2.973-0.329C41.015,50.565,40.971,49.622,40.94,48.676z"/>
<path fill="#7015CF" d="M43.914,36.204c1.062,0.006,2.123,0.009,3.183,0.016c-1.016,1.031-2.033,2.06-3.049,3.088l-0.006,0.024c-0.839-0.696-1.119-1.392-0.839-2.084c0.279-0.696,0.559-1.044,0.839-1.044H43.914z"/>
<path fill="#2C007F" d="M47.105,42.57c0.038,0.995,0.055,1.993,0.052,2.991c-1.041,0.015-2.083,0.021-3.124,0.018l0.009,0.003c-0.839-0.693-1.119-1.389-0.839-2.084c0.279-0.693,0.557-1.041,0.837-1.041l0.021-0.016C45.078,42.451,46.093,42.494,47.105,42.57z"/>
<path fill="#350187" d="M44.041,42.457c0.002,1.041,0.002,2.084,0.002,3.125c-1.042,0-2.083,0-3.125,0c0-1.041,0-2.084,0-3.125C41.96,42.457,43,42.457,44.041,42.457z"/>
<path fill="#4000B0" d="M44.043,36.204c0,1.044,0,2.084,0,3.128c-1.042,0-2.083,0-3.128-0.003c0.003-1.043,0.005-2.081,0.003-3.125C41.958,36.204,43,36.204,44.043,36.204z"/>
</svg>