<?xml version="1.0" encoding="utf-8"?>
<!DOCTYPE svg PUBLIC "-//W3C//DTD SVG 1.1//EN" "http://www.w3.org/Graphics/SVG/1.1/DTD/svg11.dtd">
<svg version="1.1" xmlns="http://www.w3.org/2000/svg" xmlns:xlink="http://www.w3.org/1999/xlink" x="0px" y="0px" width="100px" height="100px" viewBox="0 0 100 100" enable-background="new 0 0 100 100" xml:space="preserve">
<path fill="#1A1A1A" d="M0.639,100c0-33.121,0-66.238,0-99.68c32.863,0,65.854,0,99.361,0c0,33.008,0,66.342,0,99.68C67.171,100,33.969,100,0.639,100z"/>
<path fill="#E8E7E9" d="M7.298,92.398c0-28.645,0-56.171,0-84.796c28.52,0,56.787,0,85.89,0c0,27.893,0,55.792,0,84.796C65.209,92.398,36.942,92.398,7.298,92.398z"/>
<path fill="#E9E8EA" d="M13.114,44.009c0-9.692,0-19.388,0-31.409c22.427,0,42.543,0,62.659,0c1.498,1.7,2.008,3.641,1.44,5.854c-1.506,3.58-5.873,3.684-7.967,6.555l0.019-0.012c-1.533,1.678-3.423,2.377-5.678,2.069c-1.349-0.449-2.513-1.193-3.491-2.222c-6.587-5.731-14.499-1.794-21.703-2.96c-1.956,0.012-3.92,0.03-5.858,0.317c-3.246,0.659-5.545,2.368-6.251,5.792c-1.01,4.715,2.974,6.562,5.313,9.341l0.286,0.317c1.666,1.926,2.695,4.123,2.846,6.696c0.152,4.15,0.378,8.319-2.794,11.673l-0.391,0.448c-1.629,1.501-3.523,2.005-5.684,1.511c-3.572-1.404-3.725-5.631-6.41-7.77l-0.407-0.431C17.098,47.824,15.122,45.898,13.114,44.009z"/>
<path fill="#DEDEDE" d="M81.613,62.167c0,5.402,0,10.804,0,17.713c-7.361,0.473-13.147,0.849-18.932,1.221c-3.314-4.068-3.314-8.133,0-12.201c3.291,1.264,6.584,2.524,11.044,4.236c0.618-3.534,1.19-6.815,1.763-10.093C77.264,60.898,79.305,60.602,81.613,62.167z"/>
<path fill="#DCDCDC" d="M68.795,56.274c-3.026,1.419-6.05,2.838-9.803,4.599c-0.804-1.702-1.569-3.323-2.337-4.943c-3.46-3.958-3.458-7.978-0.202-12.048c2.291-0.083,4.583-0.165,6.874-0.244c1.845-1.752,3.771-1.758,5.766-0.263c0.115,2.372,0.233,4.743,0.351,7.117C71.101,52.628,70.82,54.547,68.795,56.274z"/>
<path fill="#DEDEDE" d="M19.45,50.211c2.06,2.124,4.122,4.251,6.182,6.375c1.739,1.855,1.739,3.714,0.001,5.572c1.315,3.619,2.63,7.242,5.574,15.351C14.873,69.846,20.933,58.536,19.45,50.211z"/>
<path fill="#DEDEDE" d="M37.988,18.78c8.29,2.143,16.578,4.285,24.867,6.427c-1.938,1.456-3.857,1.682-5.748-0.088c-6.373-0.052-12.747-0.101-19.122-0.153C36.166,22.903,36.166,20.84,37.988,18.78z"/>
<path fill="#E92222" d="M31.597,37.335c-3.494,0-6.99,0-11.552,0c-0.2-4.181-0.383-8.004-0.566-11.832c2.888-3.753,6.48-4.031,10.513-2.121c0.508,0.604,1.016,1.211,1.524,1.818C31.544,29.245,31.57,33.289,31.597,37.335z"/>
<path fill="#E92222" d="M56.453,43.881c0.067,4.016,0.135,8.032,0.202,12.048c-3.501,0-7.003,0-11.463,0c-0.235-3.415-0.461-6.702-0.765-11.118C48.823,44.47,52.639,44.177,56.453,43.881z"/>
<path fill="#E92222" d="M68.795,56.274c0.215-1.929,0.432-3.857,0.648-5.783c3.503,0,7.007,0,11.577,0c0.199,3.943,0.396,7.81,0.592,11.676c-2.042,0.293-4.083,0.583-6.125,0.876C73.257,60.785,71.026,58.529,68.795,56.274z"/>
<path fill="#E92222" d="M62.681,68.899c0,4.068-0.002,8.133,0,12.201c-3.475,0-6.949,0-11.322,0c-0.2-3.653-0.38-6.939-0.622-11.334C55.088,69.449,58.884,69.174,62.681,68.899z"/>
<path fill="#DEDEDE" d="M69.246,25.009c2.2-2.127,4.401-4.251,6.603-6.378c1.844-1.749,3.765-1.749,5.751-0.253C77.482,20.587,73.364,22.797,69.246,25.009z"/>
<path fill="#DEDEDE" d="M31.934,56.022c-0.034-4.111-0.069-8.219-0.102-12.326c2.032-1.795,4.068-1.795,6.106-0.009C35.937,47.797,33.936,51.907,31.934,56.022z"/>
<path fill="#E91D1D" d="M81.6,18.378c-1.916,0.085-3.834,0.171-5.751,0.253c-0.025-2.011-0.05-4.019-0.076-6.03C77.715,14.526,79.658,16.452,81.6,18.378z"/>
<path fill="#D4D4D4" d="M37.988,18.78c0,2.063,0,4.126-0.001,6.186c-2.158,0.08-4.312,0.156-6.468,0.235c-0.001,0,0.052,0.146,0.052,0.146c-1.633-2.24-1.654-4.422,0.249-6.53C33.875,18.805,35.932,18.793,37.988,18.78z"/>
<path fill="#E91D1D" d="M57.107,25.119c1.917,0.027,3.833,0.058,5.748,0.088l-0.093-0.034c2.063,2.008,2.083,3.977-0.124,5.896c-1.889-0.061-3.778-0.122-5.667-0.183l0.154,0.156C57.119,29.068,57.113,27.094,57.107,25.119z"/>
<path fill="#D4D4D4" d="M62.638,31.07c0.043-1.965,0.086-3.934,0.127-5.899c2.165-0.055,4.333-0.116,6.5-0.174c-0.017,2.081-0.035,4.159-0.052,6.238l0.041-0.037C67.049,31.155,64.843,31.113,62.638,31.07z"/>
<path fill="#D4D4D4" d="M56.971,30.887c-0.975,1.599-1.951,3.195-0.241,0.397c-2.799,1.712-1.202,0.735,0.396-0.241L56.971,30.887z"/>
<path fill="#DEDEDE" d="M75.523,37.491c-2.192,0.07-4.386,0.144-6.578,0.217l0.131,0.131c0.06-2.213,0.119-4.425,0.179-6.641l-0.041,0.037c2.097,2.093,4.193,4.184,6.29,6.274L75.523,37.491z"/>
<path fill="#D4D4D4" d="M37.939,43.686c-2.036,0.003-4.073,0.006-6.108,0.009c0.019-2.015,0.035-4.028,0.052-6.043C33.901,39.664,35.92,41.675,37.939,43.686z"/>
<path fill="#E91D1D" d="M69.093,43.375c-1.923,0.085-3.844,0.174-5.766,0.263c1.915-1.935,3.832-3.867,5.748-5.798c0,0-0.129-0.131-0.131-0.131C68.994,39.597,69.042,41.485,69.093,43.375z"/>
<path fill="#DEDEDE" d="M75.503,37.509c1.591,0.75,3.184,1.504,0.055,0.024c2.103,2.792,1.034,1.373-0.035-0.043L75.503,37.509z"/>
<path fill="#E91D1D" d="M13.114,44.009c1.976,1.923,3.952,3.848,5.928,5.771C17.066,47.857,15.09,45.932,13.114,44.009z"/>
<path fill="#E91D1D" d="M25.633,62.158c0-1.858,0-3.717-0.001-5.572c1.971-0.04,3.943-0.076,5.913-0.116C29.574,58.365,27.604,60.26,25.633,62.158z"/>
<path fill="#D4D4D4" d="M42.89,65.362c-0.671,0.593-1.242,1.099-1.814,1.605c-0.434-0.635-0.943-1.236-1.247-1.926c-0.073-0.168,0.65-0.964,0.801-0.909C41.358,64.401,42.016,64.859,42.89,65.362z"/>
<path fill="#E91D1D" d="M20.799,87.365c-0.212-1.559-0.424-3.118-0.636-4.675c1.312-0.174,2.626-0.351,3.938-0.524c0.192,1.642,0.383,3.28,0.574,4.919C23.382,87.18,22.091,87.272,20.799,87.365z"/>
<path fill="#DEDEDE" d="M31.819,18.817c-0.083,2.179-0.165,4.354-0.249,6.53c-4.03,0.052-8.061,0.104-12.093,0.156C23.591,23.276,27.704,21.048,31.819,18.817z"/>
</svg>