<?xml version="1.0" encoding="utf-8"?>
<!DOCTYPE svg PUBLIC "-//W3C//DTD SVG 1.1//EN" "http://www.w3.org/Graphics/SVG/1.1/DTD/svg11.dtd">
<svg version="1.1" xmlns="http://www.w3.org/2000/svg" xmlns:xlink="http://www.w3.org/1999/xlink" x="0px" y="0px" width="100px" height="100px" viewBox="0 0 100 100" enable-background="new 0 0 100 100" xml:space="preserve">
<path fill="#86644E" d="M15.708,19.131C26.129,12.756,36.547,6.378,46.967,0c2.083,0,4.167,0,6.25,0c2.153,2.054,4.307,4.111,6.461,6.165c-0.266,1.657-1.242,2.82-2.55,3.72c-0.76,0.506-1.631,0.799-2.507,0.882c0.066,0.009-1.03,0.076-1.03,0.076s-1.093-0.098-0.998-0.073c0.107,0.793,0.485,1.27,1.302,1.459c0.884,0.131,1.685,0.079,2.521-0.177c1.422-0.586,2.845-0.967,4.383-1.114c1.231,0.049,2.379,0.284,3.543,0.65c2.643-0.027,5.372-1.224,7.74,0.842l-0.076-0.064c1.663,2.127,4.657,1.474,6.545,3.131c1.234,0.961,2.469,1.923,3.703,2.884c-1.999,3.399-5.495,3.634-8.821,4.229c-1.86,0.323-3.749,0.577-5.575,1.086c-1.136,0.427-2.298,0.791-3.447,1.184c-1.663,0.668-3.361,1.239-5.124,1.56c-0.57-0.006-1.156-0.031-1.72-0.037c-0.506-0.202-1.034-0.418-1.538-0.607c-1.734-2.146-2.277,1.031-3.601,0.87c-1.787,0.513-3.532,0.409-5.26-0.198c-1.096-0.495-2.069-1.175-2.943-1.984c-0.334-0.47-0.667-0.961-0.997-1.431c-0.455-1.031-0.76-2.124-0.89-3.244c-0.581-1.746-1.79-2.551-3.633-2.375c-0.994,0.317-1.92,0.788-2.76,1.386c0.018-0.006-1.262,0.836-1.238,0.827c0.026-0.006-1.332,0.412-1.332,0.412s-1.417-0.052-1.382-0.037c-0.503-0.708-1.219-1.141-2.092-1.254c-0.727,0.388-1.34,0.907-1.77,1.611c0.923,0.138,1.768,0.031,2.637-0.287c1.007,0.205,1.974,0.253,2.979,0.14c1.614-0.424,2.824-1.547,4.274-2.255c1.152-0.327,2.237-0.211,3.27,0.403c0.641,1.016,0.956,2.121,0.997,3.314c0.149,1.206,0.009,2.371-0.407,3.506c-0.833,1.621-2.014,2.92-3.564,3.867c-1.061,0.433-2.181,0.638-3.317,0.65c-1.068-0.009-2.159-0.04-3.232-0.003c-1.015,0.287-2.02,0.601-2.986,1.056c-1.402,0.876-2.82,1.7-4.401,2.207c-1.692,0.345-3.308,0.156-4.817-0.693c-0.821-0.696-1.416-1.563-1.749-2.584c-0.215-1.371,0.414-2.924-0.839-4.123c-1.074-1.132-2.013-2.329-2.5-3.827C14.318,20.606,14.733,19.736,15.708,19.131z"/>
<path fill="#3D2E24" d="M59.591,94.079c-1.108,0.751-2.214,1.498-3.32,2.246c-2.979-1.318-6.244-2.237-7.805-5.554c-1.129-2.487-1.148-5.061-0.594-7.67c0.323-1.846,0.407-3.707,0.073-5.581c-0.307-1.251-0.456-2.512-0.531-3.794c0.001-2.002,0.453-3.881,1.449-5.627c2.834-3.708,6.64-4.113,10.844-3.214c1.335,0.227,2.632,0.59,3.91,1.035c1.275,0.482,2.455,1.138,3.556,1.943c1.535,1.361,2.665,3.007,3.366,4.938c1.148,4.556-0.69,9.033-0.394,13.577c-0.07,1.309-0.495,2.493-1.315,3.524c-1.961,0.51-3.922,1.02-5.883,1.529C60.268,90.338,60.631,93.1,59.591,94.079z"/>
<path fill="#5B4537" d="M50.196,81.17c-0.007,3.159-0.014,6.317-0.02,9.476c1.535,1.898,2.482,4.102,3.285,6.379c-5.472-1.936-10.943-3.873-16.415-5.808L37,91.171c-1.004,0.098-1.869-0.204-2.594-0.906c-1.521-0.965-3.301-1.617-4.138-3.409c-0.603-2.368-0.052-4.693,0.262-7.019c0.027-1.12,0.085-2.246,0.067-3.372c-0.232-1.706-0.569-3.391-0.806-5.105c-0.046-1.221,0.198-2.378,0.661-3.501c1.004-1.605,2.359-2.789,4.126-3.485c1.228-0.213,2.435-0.118,3.608,0.303c1.576,0.958,2.715,2.31,3.461,3.979c0.346,1.071,0.468,2.188,0.403,3.308c-0.182,1.514-0.523,3.033-0.587,4.547c0.096,0.879,0.208,1.786,0.424,2.646c0.042-0.037,0.515,1.19,0.563,1.129c0.981,0.403,1.735,0.198,2.362-0.695c0.993-0.415,1.962-0.504,2.986-0.29c0.027,0,1.428,0.619,1.44,0.625C49.253,79.928,50.196,81.17,50.196,81.17z"/>
<path fill="#5D4738" d="M21.842,84.737c-4.982-4.324-9.964-8.646-14.946-12.967c0.795-1.693,1.782-3.234,3.348-4.303c1.401-1.04,2.445-2.398,3.212-3.994c0.514-1.099,1.198-2.072,1.997-2.985c0.928-0.845,1.967-1.492,3.119-1.983c0.623-0.113,1.24-0.211,1.866-0.317c1.304,0.159,2.414,0.714,3.383,1.587c1.343,1.392,2.473,2.948,3.544,4.557c1.111,1.614,1.976,3.332,2.141,5.325c-0.02,1.3-0.313,2.545-0.81,3.744c-1.875,2.625-2.867,5.688-4.17,8.603C23.886,83.166,22.984,84.069,21.842,84.737z"/>
<path fill="#5C4637" d="M18.611,28.317c0.084,0.94,0.186,1.88,0.307,2.817c-0.032,0.623-0.064,1.245-0.087,1.865c-0.383,2.268-1.561,4.306-1.875,6.54c-0.063,1.007,0.305,1.834,1.231,2.389c1.062,0.192,2.059,0.418,3.107,0.623c1.089,0.51,1.913,1.251,2.51,2.286c0.467,1.153,0.727,2.325,0.793,3.558c-0.075,1.95-0.653,3.708-1.875,5.243c-1.013,0.793-2.128,1.406-3.305,1.907c-2.536,0.852-4.195,2.979-6.343,4.416c-3.419,1.096-5.019-0.903-6.192-3.629c0.009-3.192,0.019-6.384,0.029-9.576c1.181-2.026,1.183-4.041-0.049-6.045c0.005-2.155,0.011-4.306,0.017-6.461c1.948-2.853,0.313-6.405,1.817-9.354c2.606-2.218,4.874-0.641,7.171,0.629C16.94,26.3,17.861,27.225,18.611,28.317z"/>
<path fill="#3F2F25" d="M93.376,25.152c-0.021,4.145-0.044,8.286-0.065,12.43c-0.789,1.575-1.668,3.076-3.296,3.949c-1.151,0.244-2.269,0.125-3.338-0.333c-1.978-2.079-2.227,1.483-3.694,1.168c-1.274,0.235-2.512,0.189-3.762-0.106c-3.277-1.355-5.386-3.681-6.063-7.206c-0.044-1.327,0.188-2.612,0.713-3.836c1.959-2.756,4.909-3.998,7.91-5.148c1.131-0.433,2.304-0.769,3.476-1.074c1.705-0.528,3.429-1.013,5.2-1.303C91.707,23.617,92.695,24.081,93.376,25.152z"/>
<path fill="#3E3026" d="M93.316,68.734c-0.811,3.152-1.62,6.302-2.43,9.454c-0.978,0.938-2.114,1.209-3.41,0.818c-3.289-1.785-5.138-5.21-8.233-7.185c-1.557-0.784-3.212-1.08-4.962-0.979c-1.21,0.129-2.395,0.067-3.581-0.128c-1.157-0.437-2.069-1.181-2.78-2.176c-0.382-2.691,1.148-5.436-0.194-8.146c0.414-1.257,1.186-2.185,2.324-2.832c4.104-1.571,7.744-0.375,11.232,1.789c3.16,2.182,6.609,3.955,9.535,6.494C91.667,66.79,92.499,67.755,93.316,68.734z"/>
<path fill="#3C2D23" d="M78.184,68.731c3.139,3.128,6.275,6.253,9.414,9.381c0.859,0.543,1.14,1.077,0.846,1.605c-0.293,0.521-0.585,0.781-0.879,0.781c-3.07,1.403-6.141,2.805-9.212,4.205c-1.923-0.342-3.337-1.397-4.329-3.058c-0.161-0.583-0.313-1.178-0.48-1.764c0.013-0.604,0.04-1.215,0.043-1.822c0.299-1.773,0.831-3.494,1.438-5.191c0.399-1.123,0.993-2.142,1.745-3.066C77.238,69.445,77.71,69.089,78.184,68.731z"/>
<path fill="#392B21" d="M87.627,40.606c1.896-1.01,3.789-2.017,5.684-3.024c0.002,5.2,0.002,10.4,0.002,15.601c-1.694,3.29-3.653,5.404-6.947,1.571c-0.42-1.156-0.518-2.35-0.299-3.552c-0.691-1.435,3.52-0.763,1.227-2.89c-0.363-0.468-0.702-0.938-1.058-1.407c-0.456-1.114-0.644-2.264-0.586-3.46C85.989,42.276,86.651,41.33,87.627,40.606z"/>
<path fill="#543F30" d="M6.881,56.332c1.891,1.014,3.781,2.026,5.672,3.04c1.091-1.123,2.305-1.276,3.646-0.461c0.859,1.34,0.693,2.536-0.494,3.592l0.006-0.021c-2.064,1.571-0.921,4.758-3.145,6.25c-1.891,1.013-3.78,2.026-5.67,3.039C6.89,66.623,6.886,61.478,6.881,56.332z"/>
<path fill="#886650" d="M87.315,28.079c-1.022-0.027-2.034-0.146-3.035-0.363c-2.341-1.275-5.04-0.07-7.433-1.043c-3.125-1.022-6.318-1.917-8.735-4.361c-0.537-1.343-0.293-2.53,0.725-3.556c4.473-0.125,8.944-0.25,13.417-0.375c0.888-0.177,1.649,0.058,2.284,0.705c1.354,1.004,3.085,1.447,4.197,2.814c0.401,1.083,0.498,2.197,0.333,3.335C88.755,26.352,88.169,27.298,87.315,28.079z"/>
<path fill="#675040" d="M34.403,78.101c-0.975,3.167-1.951,6.338-2.926,9.506c0.723,0.54,0.954,1.068,0.692,1.581c-0.256,0.503-0.511,0.757-0.763,0.757c-1.076-0.757-2.151-1.511-3.227-2.268c-1.92-1.85-4.675-3.208-3.89-6.644c1.178-2.896,3.444-4.291,6.436-4.697C32.163,76.48,33.39,77.068,34.403,78.101z"/>
<path fill="#84634D" d="M15.766,28.045c-2.118-0.928-4.237-1.853-6.355-2.78c-0.947,1.352-1.803,1.294-2.565-0.167c1.958-1.85,3.917-3.699,5.876-5.548c1.241,0.458,2.237,1.233,2.988,2.323c1.042,1.031,2.086,2.066,3.128,3.1C18.087,26.27,17.063,27.292,15.766,28.045z"/>
<path fill="#3E2E24" d="M87.589,53.118c1.907,0.021,3.816,0.043,5.724,0.064c-0.003,3.109-0.005,6.22-0.008,9.329c-0.977,0.982-2.143,1.321-3.499,1.035c-2.479-0.983-4.805-2.183-6.259-4.578c-0.813-1.953-0.707-3.827,0.521-5.594C85.18,52.447,86.356,52.404,87.589,53.118z"/>
<path fill="#3D2E25" d="M68.83,89.904c-0.019-0.849-0.042-1.693-0.067-2.542c-2.221-2.823-1.533-5.121,1.274-7.037c2.543-0.394,3.657,1.636,5.147,3.03c1.012,1.229,0.933,2.436-0.082,3.619C73.012,87.951,70.922,88.928,68.83,89.904z"/>
<path fill="#886650" d="M72.081,12.43c-3.177-0.006-6.354-0.009-9.532-0.015c-0.296-0.662-0.592-1.325-0.888-1.987c0.501-0.525,1.001-1.053,1.502-1.578C66.135,10.044,69.11,11.236,72.081,12.43z"/>
<path fill="#564031" d="M6.846,25.098c0.862-0.052,1.717,0.003,2.565,0.165c-0.845,3-1.689,5.994-2.533,8.987C6.867,31.198,6.857,28.149,6.846,25.098z"/>
<path fill="#3D2E25" d="M53.461,97.024c-1.096-2.127-2.191-4.255-3.286-6.379c2.032,1.893,4.064,3.788,6.096,5.68C55.376,96.729,54.441,96.96,53.461,97.024z"/>
<path fill="#553F30" d="M25.199,81.338c0.994,2.112,1.987,4.227,2.98,6.339c-2.112-0.979-4.224-1.959-6.337-2.939c0.049-1.172,0.098-2.34,0.146-3.509C23.096,80.203,24.168,80.188,25.199,81.338z"/>
<path fill="#876752" d="M87.725,25.351c-0.064-1.19-0.128-2.377-0.193-3.567c-0.759-0.528-1.008-1.053-0.748-1.568c0.256-0.516,0.513-0.775,0.772-0.775c1.94,1.904,3.88,3.812,5.82,5.716c0-0.003-1.411-0.012-1.411-0.012l-1.393,0.223C89.62,26.141,88.669,26.175,87.725,25.351z"/>
<path fill="#83644E" d="M56.287,9.442c1.129-1.092,2.26-2.185,3.391-3.277C60.839,7.062,62,7.957,63.163,8.851l-1.147,0.992c-0.881,0.714-1.891,1.123-3.013,1.272c-0.538-0.137-1.078-0.274-1.619-0.412C57.018,10.284,56.652,9.863,56.287,9.442z"/>
<path fill="#382A20" d="M75.103,86.975c-0.008-0.87-0.016-1.739-0.02-2.612c-0.881-0.699-1.169-1.392-0.868-2.078c0.299-0.684,0.598-1.025,0.896-1.025c1.081,1.147,2.161,2.298,3.241,3.445C77.27,85.461,76.186,86.218,75.103,86.975z"/>
<path fill="#3D2E25" d="M59.591,94.079c0.256-1.407,0.514-2.816,0.812-4.443c1.052,0.745,1.798,1.272,2.545,1.798C61.827,92.315,60.709,93.197,59.591,94.079z"/>
<path fill="#886650" d="M78.55,15.497c-2.183-1.043-4.362-2.087-6.545-3.131C74.188,13.409,76.367,14.453,78.55,15.497z"/>
<path fill="#574132" d="M6.861,40.71c0.016,2.014,0.032,4.028,0.049,6.045C6.893,44.739,6.877,42.725,6.861,40.71z"/>
<path fill="#392A20" d="M90.717,62.503c0.863,0,1.726,0.003,2.588,0.009c0.003,2.075,0.008,4.147,0.011,6.223c-0.867,0.009-1.731,0.016-2.599,0.016C89.045,66.668,88.753,64.584,90.717,62.503z"/>
<path fill="#805F49" d="M87.556,19.44c-0.011,0.781-0.019,1.563-0.023,2.344c-0.999-0.9-1.997-1.797-2.995-2.698C85.595,18.762,86.602,18.881,87.556,19.44z"/>
<path fill="#413228" d="M87.565,80.499c0.001-0.794,0.014-1.59,0.033-2.387c1.096,0.024,2.191,0.049,3.288,0.073C89.779,78.958,88.672,79.73,87.565,80.499z"/>
<path fill="#82614B" d="M15.71,21.872c-0.996-0.775-1.993-1.547-2.988-2.323c0.923-0.653,1.918-0.793,2.986-0.418C15.711,20.044,15.711,20.96,15.71,21.872z"/>
<path fill="#553F30" d="M31.407,89.944c0.032-0.781,0.055-1.56,0.069-2.341c0.978,0.888,1.955,1.776,2.931,2.661l-1.542,0.217L31.407,89.944z"/>
<path fill="#594334" d="M21.96,53.137c0.006-2.09,0.012-4.181,0.019-6.274c0.732-0.58,1.341-1.272,1.822-2.078c0.258-1.065-0.069-1.889-1.004-2.487c-0.96-0.4-1.771-0.971-2.481-1.728c-0.638-0.867-1.138-1.785-1.558-2.771c-0.793-2.1-1.25-4.199-0.009-6.292c0,0,0.168-0.37,0.169-0.373c2.052,0.085,4.106,0.171,6.16,0.256c1.041,0.281,1.813,0.897,2.339,1.828c0.027-0.027,1.109,1.035,1.109,1.035s1.143-0.995,1.184-1.001c0.571-0.024,1.1-0.04,1.671-0.067c1.187,0.214,2.287,0.571,3.38,1.05c2.926,1.435,5.415,3.302,6.733,6.396c0.339,1.27,0.316,2.536-0.03,3.796c-1.554,2.768-2.502,5.692-2.086,8.945c-0.09,2.627-0.801,5.078-2.033,7.376c-0.654,1.09-1.527,1.989-2.574,2.707c-2.111,1.145-4.303,1.996-6.767,1.489c-0.978-0.372-1.953-0.821-2.879-1.315c-0.856-0.732-1.111-1.657-0.746-2.726c-1.039-0.115-1.835-0.632-2.388-1.522l-0.046-0.016C20.022,57.284,20.142,55.209,21.96,53.137z"/>
<path fill="#8B6A54" d="M46.958,24.988c2.092,0,4.184-0.003,6.275-0.003c1.036-0.961,2.063-0.998,3.08,0.031l0.022-0.019c1.362,1.212,3.337,1.697,4.187,3.525c0.04,0.635,0.072,1.26,0.11,1.898c-0.266,0.583-0.536,1.156-0.8,1.742c-0.911,0.934-1.943,1.697-3.088,2.329c-1.188,0.592-2.438,0.983-3.746,1.221c-0.664-0.027-1.326-0.079-1.993-0.113c-1.992-0.577-3.625-1.691-4.921-3.308c-0.654-1.203-0.987-2.49-1.016-3.857c0.169-0.65,0.35-1.303,0.523-1.953C46.046,25.982,46.502,25.485,46.958,24.988z"/>
<path fill="#6C5240" d="M25.093,34.402c-0.012-1.007-0.017-2.011-0.016-3.015c1.047-1.086,2.092-2.176,3.139-3.266c0.865-0.873,1.91-1.352,3.135-1.44c1.218,0.107,2.274,0.568,3.144,1.438c1.033,0.015,2.067,0.015,3.102,0.006c1.013-0.895,2.051-0.922,3.113-0.085c0.285,0.537,0.567,1.074,0.854,1.611c-0.081,0.601-0.163,1.202-0.241,1.807c-0.812,0.921-1.796,1.599-2.934,2.054c-1.146,0.351-2.329,0.519-3.523,0.534c-1.164-0.089-2.322-0.287-3.458-0.565c-1.184-0.241-2.248,0.003-3.165,0.821l-0.088,0.262C27.094,35.248,26.072,35.23,25.093,34.402z"/>
<path fill="#705542" d="M68.804,21.713c3.163,1.105,6.325,2.209,9.488,3.314c0.792,6.387-4.293,2.734-6.591,3.879c-1.376-0.031-2.729-0.208-4.081-0.476c-1.369-0.293-2.666-0.778-3.916-1.404c-0.551-0.434-1.088-0.879-1.633-1.322c-0.752-1.349-0.554-2.584,0.452-3.723c1.088-0.067,2.176-0.137,3.264-0.207C66.77,20.633,67.778,20.667,68.804,21.713z"/>
<path fill="#8F6E57" d="M56.352,15.625c-2.082-1.032-4.161-2.063-6.241-3.095c-1.088-0.973-1.871-2.261-3.121-3.073c2.084-0.016,4.167-0.034,6.251-0.049c1.261,1.062,2.823,1.77,3.79,3.183C57.339,13.721,57.112,14.734,56.352,15.625z"/>
<path fill="#674D3B" d="M37.601,15.659c2.082,1.031,4.161,2.063,6.241,3.097c-1.041,1.526-2.082,1.599-3.122,0c-1.093,0.043-2.184,0.085-3.276,0.128c-0.348-0.556-0.697-1.111-1.051-1.667C36.793,16.699,37.197,16.18,37.601,15.659z"/>
<path fill="#664C3A" d="M28.036,21.841c-1.325-0.415-2.647-0.83-5.393-1.694c2.847-0.711,4.242-1.062,5.635-1.41c0.902,0.766,1.166,1.48,0.793,2.146C28.715,21.521,28.37,21.841,28.036,21.841z"/>
<path fill="#936F56" d="M28.036,21.841c0.113-1.031,0.192-2.066,0.243-3.104l-0.087,0.083c0.99-1.029,2.017-1.065,3.081-0.113c1.097,0.085,2.194,0.171,3.292,0.253c0.73,0.659,0.964,1.303,0.702,1.938c-0.259,0.628-0.514,0.946-0.766,0.946C32.345,21.841,30.19,21.841,28.036,21.841z"/>
<path fill="#8E6C56" d="M15.766,28.045c1.024-1.025,2.048-2.048,3.071-3.073c0.519,0.571,1.038,1.145,1.578,1.74c-0.623,0.555-1.212,1.077-1.802,1.602C17.663,28.223,16.716,28.134,15.766,28.045z"/>
<path fill="#694F3C" d="M59.48,28.317c-1.049-1.104-2.096-2.212-3.144-3.32c1.023,0.003,2.048-0.003,3.071-0.012c1.007-1.095,2.026-1.104,3.055-0.03l0.263,0.128c0.374,0.559,0.749,1.12,1.125,1.682c-0.276,0.613-0.553,1.23-0.829,1.846C61.768,29.398,60.587,29.303,59.48,28.317z"/>
<path fill="#6D5241" d="M46.99,9.458c1.04,1.025,2.08,2.051,3.121,3.073C49.07,11.508,48.031,10.483,46.99,9.458z"/>
<path fill="#6D5341" d="M56.341,12.439c-1.033-1.01-2.066-2.023-3.1-3.034c1.017-0.006,2.031,0.006,3.046,0.037l0.054-0.067c0.44,0.51,0.883,1.022,1.324,1.532C57.224,11.417,56.783,11.926,56.341,12.439z"/>
<path fill="#6C5140" d="M59.472,9.375c0.866,0.067,1.717,0.22,2.548,0.464c0.336,0.827,0.515,1.685,0.531,2.576c-0.002,0-1.522,0.04-1.522,0.04l-1.521-0.006c-0.466-0.507-0.933-1.013-1.404-1.52C58.555,10.41,59.013,9.894,59.472,9.375z"/>
<path fill="#7E5D46" d="M56.352,15.625c-0.005-1.062-0.008-2.124-0.011-3.186V12.5c1.042-1.175,2.084-1.12,3.126,0l0.04-0.052C58.455,13.507,57.403,14.566,56.352,15.625z"/>
<path fill="#6C5140" d="M31.272,18.707c-1.027,0.028-2.054,0.064-3.079,0.113C29.219,18.784,30.245,18.747,31.272,18.707z"/>
<path fill="#694F3D" d="M40.522,28.043c-0.975,0.037-1.95,0.064-2.925,0.083c1.021-1.013,2.042-2.026,3.063-3.043l0.935,0.891c0.002,0-0.042,1.291-0.041,1.291L40.522,28.043z"/>
<path fill="#654B39" d="M34.495,28.119c-1.048,0.003-2.095,0.006-3.144,0.006c-0.74-0.711-0.967-1.404-0.684-2.072c0.281-0.659,0.551-0.989,0.813-0.989C32.485,26.08,33.49,27.1,34.495,28.119z"/>
<path fill="#7E5F4A" d="M31.481,25.064c-0.083,1.019-0.126,2.039-0.13,3.061c-1.045,0-2.09-0.003-3.135-0.003C29.305,27.103,30.393,26.083,31.481,25.064z"/>
<path fill="#644A38" d="M62.462,24.954c-1.018,0.027-2.035,0.04-3.053,0.03c1.037-1.001,2.076-2.002,3.114-3.003C62.557,22.974,62.537,23.965,62.462,24.954z"/>
<path fill="#81604A" d="M56.314,25.015c-1.027-0.003-2.055-0.015-3.08-0.031C54.261,24.994,55.286,25.006,56.314,25.015z"/>
<path fill="#8D6D56" d="M43.821,21.881c1.045,1.035,2.092,2.072,3.139,3.107c-0.001,0-0.026,0.052-0.026,0.052c-1.055,0.815-2.138,0.854-3.252,0.122C42.957,24.036,43.041,22.943,43.821,21.881z"/>
<path fill="#7E5F4A" d="M43.821,21.881c0.015,1.068,0.03,2.136,0.044,3.205c-0.535,0.378-1.071,0.753-1.606,1.132c-0.514-0.406-1.028-0.812-1.543-1.217l-0.055,0.082c0.018-1.068,0.037-2.136,0.057-3.207c1.041-1.178,2.083-1.12,3.125,0L43.821,21.881z"/>
<path fill="#8C6B55" d="M68.804,21.713l-1.508,0.067c0,0-1.511-0.003-1.509-0.003c1.017-1.007,2.032-2.014,3.049-3.021C68.839,19.742,68.828,20.728,68.804,21.713z"/>
<path fill="#97745B" d="M43.843,21.875c-1.042,0-2.083,0-3.125,0c0-1.041,0-2.084,0.001-3.122c1.042-0.003,2.083-0.003,3.124,0C43.843,19.794,43.843,20.835,43.843,21.875z"/>
<path fill="#A07C63" d="M34.499,21.844c-0.014-0.964,0.006-1.925,0.063-2.884c0.002,0-0.09-0.226-0.09-0.226c1.033-0.971,2.089-0.992,3.163-0.07c0,0-0.188,0.22-0.189,0.22C36.463,19.87,35.481,20.859,34.499,21.844z"/>
<path fill="#6C5140" d="M37.635,18.665c-1.054,0.024-2.109,0.046-3.163,0.07c1.043-1.025,2.086-2.051,3.129-3.076C37.597,16.663,37.609,17.664,37.635,18.665z"/>
<path fill="#3B2C22" d="M59.467,68.75c-3.095-0.003-6.188-0.007-9.285-0.013c-3.596-2.743-3.896-6.753-4.159-10.781c-0.072-3.935,0.012-7.858,1.412-11.615c0.655-1.416,1.653-2.558,2.912-3.464c1.512-0.32,2.947-0.067,4.298,0.659c1.104,0.967,1.977,2.133,2.62,3.458c0.486,5.536,1.451,10.971,4.064,15.998C61.648,65.213,61.162,67.178,59.467,68.75z"/>
<path fill="#584233" d="M50.027,56.247c0.052,4.165,0.103,8.328,0.155,12.493c-0.058,2.075-0.115,4.15-0.174,6.226c-4.269,2.49-4.701-6.549-9.292-3.091c-1.042-2.088-2.084-4.175-3.126-6.263c-1.178-0.735-1.458-1.761-0.972-3.024c1.69-1.8,4.202-2.063,6.181-3.32c0.829-0.82,1.7-1.577,2.573-2.347C46.801,55.85,48.242,54.813,50.027,56.247z"/>
<path fill="#33271E" d="M71.955,81.237c-1.063,2.045-2.127,4.086-3.192,6.128c0.027-5.163,0.057-10.327,0.085-15.487c0.423-0.434,0.848-0.87,1.27-1.307c1.209-0.161,2.417-0.14,3.624,0.034c1.128,0.537,1.955,1.379,2.522,2.486c0.406,1.868,0.214,3.593-1.186,5.036l0.013-0.016C73.996,79.105,73.891,81.088,71.955,81.237z"/>
<path fill="#594233" d="M40.716,71.875c3.098,1.031,6.197,2.063,9.292,3.094c0.075,1.084,0.149,2.17,0.225,3.257c0,0-0.684,1.379-0.682,1.382c-1.009,0.306-1.866,0.852-2.567,1.643c-1.048,0-2.097,0-3.144,0c-1.033,0.997-2.067,1.001-3.104,0.006l-0.041-0.019c0,0-0.928-1.172-0.925-1.169c0.001,0.003-0.157-1.474-0.163-1.468c0.814-0.748,0.987-1.633,0.636-2.694c-0.29-0.873-0.441-1.337-0.607-1.343C39.505,73.465,39.866,72.571,40.716,71.875L40.716,71.875L40.716,71.875z"/>
<path fill="#392A20" d="M68.842,62.497c0.002,2.084,0.003,4.168,0.005,6.253c1.131,0.698,1.506,1.392,1.129,2.087c-0.375,0.692-0.752,1.041-1.134,1.041h0.006c-1.045-1.044-2.092-2.091-3.137-3.135c-1.823-1.855-1.896-3.937-0.8-6.17C66.202,61.535,67.512,61.462,68.842,62.497z"/>
<path fill="#2E231B" d="M56.355,81.256c1.045-2.078,2.09-4.156,3.137-6.235c1.755,1.795,1.554,3.778,0.561,5.835C58.922,81.942,57.69,82.073,56.355,81.256z"/>
<path fill="#30241C" d="M59.467,68.75c-0.001-2.085-0.004-4.172-0.008-6.257c-0.373-1.639,0.146-2.804,1.789-3.375c1.484,0.589,2.383,1.709,2.832,3.223c-0.024,2.246,0.416,4.596-1.476,6.409C61.559,68.75,60.514,68.75,59.467,68.75z"/>
<path fill="#443328" d="M62.605,68.75c0.007-2.078,0.015-4.157,0.022-6.238c1.024-0.939,2.051-0.946,3.081-0.012c0.001,2.081,0.003,4.162,0.003,6.243C64.675,68.747,63.641,68.75,62.605,68.75z"/>
<path fill="#423227" d="M59.429,81.271c0.02-2.084,0.041-4.168,0.062-6.25c1.032,2.072,2.064,4.147,3.096,6.22c-0.521,0.409-1.045,0.818-1.567,1.229C60.488,82.073,59.958,81.671,59.429,81.271z"/>
<path fill="#38291F" d="M50.233,78.226c0.366,0.705,0.803,1.389,1.037,2.133c0.046,0.144-0.697,0.537-1.075,0.812c0.001,0-0.298,0.132-0.298,0.132c-0.849-1.081-0.779-2.14,0.087-3.174L50.233,78.226z"/>
<path fill="#2B1F17" d="M56.355,81.256c1.025-0.003,2.049,0,3.074,0.015l0.076-0.039c0.704,0.711,0.928,1.416,0.673,2.105c-0.252,0.689-0.499,1.031-0.741,1.031C58.409,83.331,57.381,82.293,56.355,81.256z"/>
<path fill="#3D2E25" d="M59.437,84.368c0.022-1.047,0.046-2.09,0.067-3.137c1.028,0.012,2.055,0.015,3.082,0.009C61.536,82.284,60.487,83.328,59.437,84.368z"/>
<path fill="#48372B" d="M25.199,81.338c-1.069-0.036-2.141-0.073-3.21-0.109c2.077-3.119,4.152-6.238,6.229-9.354c0.52-0.607,1.041-1.215,1.563-1.822c0.52,0.607,1.041,1.215,1.563,1.822c1.041,1.028,2.083,2.057,3.124,3.085c-1.029,1.068-1.941,2.252-3.127,3.165C29.293,79.195,27.245,80.267,25.199,81.338z"/>
<path fill="#5F493A" d="M25.106,62.512c3.091,0.01,6.183,0.019,9.276,0.024c1.021,0.638,1.377,1.297,1.072,1.987c-0.311,0.698-0.628,1.046-0.958,1.046c-1.051,1.063-2.103,2.121-3.155,3.181c-1.041,1.306-2.082,1.373-3.122,0c-1.045-1.047-2.09-2.097-3.134-3.144c-0.88-0.696-1.17-1.383-0.871-2.069C24.511,62.854,24.808,62.512,25.106,62.512z"/>
<path fill="#5F4839" d="M45.167,91.754c-0.236-0.803-0.358-1.221-0.482-1.636c0.368-0.101,0.735-0.198,1.103-0.299C45.615,90.359,45.443,90.897,45.167,91.754z"/>
<path fill="#473529" d="M34.496,65.569c-0.02-1.01-0.057-2.022-0.114-3.033c0.033-1.053,0.067-2.103,0.101-3.155c1.013-1.132,2.167-1.361,3.483-0.55c0.75,1.285,0.646,2.503-0.314,3.647c-0.02,1.044-0.041,2.09-0.063,3.134C36.558,65.625,35.528,65.609,34.496,65.569z"/>
<path fill="#584233" d="M40.718,71.875c0,1.043,0.001,2.09,0.003,3.137c0.72,0.692,0.958,1.386,0.717,2.078c-0.241,0.689-0.481,1.038-0.722,1.038l0.005-0.007c-1.039,0.977-2.08,1.032-3.126,0.013C38.635,76.046,39.675,73.959,40.718,71.875z"/>
<path fill="#463428" d="M28.219,68.75c1.041,0,2.083,0,3.124,0c0,1.04,0,2.084,0,3.125H29.78h-1.563C28.218,70.834,28.218,69.79,28.219,68.75z"/>
<path fill="#6C5443" d="M31.339,78.125c1.042-1.057,2.084-2.109,3.127-3.165c-0.02,1.047-0.04,2.094-0.062,3.141C33.383,78.112,32.36,78.121,31.339,78.125z"/>
<path fill="#5E4839" d="M37.594,78.134c1.042-0.003,2.084-0.009,3.126-0.013c-0.003,1.038-0.011,2.079-0.024,3.116C39.663,80.203,38.628,79.168,37.594,78.134z"/>
<path fill="#5F4839" d="M49.984,78.128c-0.027,1.059-0.055,2.114-0.085,3.174c-0.973-0.037-1.944-0.052-2.915-0.052C47.984,80.209,48.983,79.168,49.984,78.128z"/>
<path fill="#50392A" d="M40.737,81.256c1.035-0.003,2.069-0.006,3.104-0.006C42.806,81.253,41.772,81.256,40.737,81.256z"/>
<path fill="#584132" d="M37,91.171c0.437-0.482,0.875-0.968-0.437,0.482c1.448-1.31,0.966-0.873,0.484-0.437C37.046,91.217,37,91.171,37,91.171z"/>
<path fill="#654C3B" d="M12.567,68.731c1.048-2.081,2.096-4.166,3.145-6.25C14.663,64.565,13.615,66.65,12.567,68.731z"/>
<path fill="#664E3D" d="M21.96,53.137c-0.004,2.075-0.011,4.153-0.015,6.229c-1.036,0.007-2.072,0.016-3.108,0.027c-0.433-0.439-0.868-0.875-1.303-1.314c-0.556-1.941-0.209-3.617,1.453-4.898C19.976,53.152,20.968,53.14,21.96,53.137z"/>
<path fill="#553E2F" d="M25.106,62.512c-0.011,1.031-0.017,2.063-0.021,3.095c-1.031-2.075-2.063-4.15-3.094-6.226c1.033-0.003,2.066-0.003,3.099-0.003h0.002C25.095,60.422,25.1,61.468,25.106,62.512z"/>
<path fill="#685040" d="M15.705,62.503c0.044-1.007,0.093-2.015,0.146-3.021c0.972-1.166,1.975-1.196,3.009-0.082l-0.024-0.007C17.793,60.431,16.749,61.465,15.705,62.503z"/>
<path fill="#4B382B" d="M18.861,59.399c-1.004,0.009-2.008,0.036-3.01,0.082c-1.097-0.036-2.197-0.073-3.297-0.109c0.216-2.487,0.433-4.975,0.779-8.951c2.602,1.27,4.126,2.011,5.652,2.756C18.943,55.252,18.902,57.324,18.861,59.399z"/>
<path fill="#48372B" d="M18.748,31.506c1.073,1.996,2.146,3.988,3.22,5.984c-0.868,0.864-1.721,1.739-2.559,2.634c-1.221,1.397-2.261,2.942-3.519,4.312c-1.257,0.488-2.364,0.287-3.296-0.711C14.645,39.651,16.697,35.58,18.748,31.506z"/>
<path fill="#5D4636" d="M15.713,43.734c1.05-2.063,2.1-4.126,3.149-6.189c1.799,2.072,1.9,4.142-0.02,6.205c-1.048,1.038-2.097,2.072-3.146,3.106c-0.807-0.696-1.074-1.392-0.799-2.084C15.17,44.08,15.441,43.734,15.713,43.734z"/>
<path fill="#654C3B" d="M18.843,43.75c0.006-2.069,0.012-4.138,0.018-6.205c1.036-0.027,2.071-0.045,3.107-0.055c0.009,1.05,0.018,2.1,0.027,3.149c0.76,0.699,1.009,1.392,0.745,2.078c-0.263,0.684-0.522,1.025-0.78,1.025l-1.558,0.006h-1.559V43.75z"/>
<path fill="#553E2F" d="M21.96,43.744c0.009-1.035,0.021-2.069,0.035-3.104c1.031-0.009,2.063-0.015,3.094-0.015c1.76,2.081,1.76,4.166,0.005,6.25c-1.039,0-2.077-0.003-3.116-0.013C21.973,45.825,21.968,44.784,21.96,43.744z"/>
<path fill="#624B3C" d="M15.713,43.734c0.002,1.041-0.004,2.082-0.017,3.125c-1.035-1.046-2.069-2.09-3.102-3.134C13.633,43.738,14.674,43.741,15.713,43.734z"/>
<path fill="#3C2D23" d="M81.342,62.5c-4.167-1.041-8.333-2.082-12.5-3.122c-3.701,1.992-4.344-1.056-5.475-3.293c-0.211-1.218-0.23-2.46-0.073-3.681c0.293-1.654,0.737-3.32,0.38-5.044c-0.407-1.046-0.741-2.112-1.097-3.177c-0.569-1.648-0.911-3.326-0.797-5.081c0.755-2.5,2.746-3.644,4.956-4.56c1.606-0.687,3.258-1.251,4.968-1.636c1.196-0.116,2.27,0.192,3.195,0.971c2.151,2.252,4.302,4.501,6.451,6.753c1.011,0.836,1.518,1.914,1.543,3.226c-0.127,1.896-0.42,3.769-0.616,5.661c-0.694,3.253-0.182,6.421,0.657,9.57c-0.074,0.659-0.152,1.313-0.229,1.972C82.251,61.541,81.797,62.021,81.342,62.5z"/>
<path fill="#84634D" d="M68.65,37.466c-2.06,1.01-4.119,2.02-6.18,3.03c-0.304,0.556-0.607,1.111-0.901,1.675c-1.359,1.395-2.975,2.368-4.854,2.896c-1.304,0.128-2.483-0.22-3.552-0.974l0.214-0.897c-1.041-0.61-1.792-1.474-2.262-2.588c-0.247-1.168-0.27-2.34-0.052-3.516c0.456-1.111,1.174-2.02,2.144-2.731l0.008,0.012c0.911-0.803,1.962-1.313,3.155-1.532c1.201-0.201,2.227-0.75,3.1-1.593v0.003c0.904-1.199,1.978-2.237,3.106-3.217l-0.054,0.073c0.838-0.964,1.888-1.27,3.121-1.013c1.681,0.592,3.416,0.974,5.177,1.257c1.79,0.439,3.295,1.303,4.297,2.905c-0.103,0.873-0.174,1.749-0.215,2.622c-1.007,0.214-2.012,0.442-3.011,0.687C70.812,35.535,69.732,36.502,68.65,37.466z"/>
<path fill="#2E221B" d="M81.345,59.359c-1.04-4.147-2.081-8.295-3.123-12.442c1.123-0.97,2.045-2.142,3.114-3.165c0.009-1.041,0.015-2.082,0.015-3.122c1.025-0.015,2.05-0.021,3.075-0.018c1.055-0.964,2.105-1.007,3.149,0.018l0.05-0.024c-0.011,1.044-0.022,2.09-0.035,3.134c-0.898,0.641-1.352,1.511-1.356,2.609c0.051,0.992-0.069,1.974-0.353,2.923c-0.635,0.727-1.13,1.547-1.471,2.453c0.011-0.003,0.026,1.432,0.026,1.432c0.006,2.069,0.012,4.142,0.02,6.21c-0.521,0.4-1.04,0.797-1.56,1.196C82.38,60.162,81.863,59.763,81.345,59.359z"/>
<path fill="#8E6C56" d="M75.116,31.259c-2.086-0.003-4.172-0.006-6.256-0.009c-0.415-0.565-0.83-1.126-1.248-1.691c0.256-0.647,0.516-1.297,0.771-1.95c1.111-0.848,2.272-1.624,3.488-2.316c2.14-0.089,4.278-0.177,6.418-0.266c1.999,0.897,3.995,1.794,5.99,2.691C81.226,28.897,78.171,30.078,75.116,31.259z"/>
<path fill="#2C2018" d="M87.575,40.631c-1.05-0.006-2.1-0.012-3.149-0.018C85.476,40.619,86.526,40.625,87.575,40.631z"/>
<path fill="#38291F" d="M87.725,25.351c0.95-0.186,1.901-0.18,2.849,0.012c-1.086,0.907-2.171,1.813-3.258,2.716C87.494,27.176,87.63,26.266,87.725,25.351z"/>
<path fill="#3E2F25" d="M65.712,53.118c1.044,2.088,2.088,4.172,3.13,6.26c0,1.04,0,2.078,0,3.119c-1.044,0-2.089,0.003-3.134,0.003c-1.027,0-2.054,0.006-3.081,0.012c-1.056-0.006-2.111-0.012-3.166-0.019c-1.041-5.206-2.08-10.412-3.12-15.618c0.402-0.397,0.806-0.797,1.203-1.196c1.145,0.003,2.14,0.396,2.968,1.156c0.65,0.787,1.109,1.703,1.386,2.664c0.261,0.906,0.846,1.572,1.784,1.914C64.661,51.626,65.332,52.203,65.712,53.118z"/>
<path fill="#3C2D23" d="M90.717,62.503c0,2.081,0,4.165,0,6.247c-3.125-2.085-6.25-4.166-9.375-6.25l0,0c1.042-1.044,1.956-2.216,3.123-3.132h-0.009C86.544,60.412,88.63,61.456,90.717,62.503z"/>
<path fill="#2F231B" d="M75.106,68.762c1.025-0.009,2.053-0.019,3.078-0.027c0-0.003,0.033,0.016,0.033,0.016c-0.518,0.439-1.034,0.879-1.55,1.318C76.147,69.632,75.626,69.198,75.106,68.762z"/>
<path fill="#403127" d="M68.842,71.878c0.002-1.044,0.003-2.085,0.005-3.128c1.042,0.003,2.086,0.003,3.128,0.003c1.063,0.705,1.411,1.4,1.048,2.09c-0.359,0.684-0.72,1.025-1.081,1.025h-1.551L68.842,71.878z"/>
<path fill="#2F231C" d="M71.942,71.868c0.018-1.037,0.03-2.078,0.033-3.115c1.044,0.003,2.087,0.006,3.131,0.009l-0.014-0.012c0.458,0.524,0.914,1.053,1.378,1.577c-0.476,0.507-0.957,1.017-1.438,1.523C74.001,71.859,72.971,71.865,71.942,71.868z"/>
<path fill="#433227" d="M75.078,78.128c-0.016-2.094-0.03-4.185-0.047-6.277l0.063,0.024c1.04-1.179,2.081-1.12,3.123,0C77.17,73.959,76.125,76.043,75.078,78.128z"/>
<path fill="#433328" d="M71.955,81.237c1.045-1.041,2.09-2.084,3.136-3.125c0.006,1.047,0.014,2.097,0.02,3.146c-0.01,1.034-0.019,2.069-0.027,3.104C74.041,83.321,72.998,82.281,71.955,81.237z"/>
<path fill="#48382C" d="M78.217,71.875c-1.042,0-2.083,0-3.125,0c0-1.041,0-2.085,0-3.125c1.042,0,2.083,0,3.125,0C78.217,69.79,78.217,70.834,78.217,71.875z"/>
<path fill="#46362A" d="M84.434,49.96c0.028-1.02,0.053-2.042,0.073-3.064c1.022-1.013,2.048-1.016,3.08-0.015v-0.003c0.724,0.692,0.966,1.386,0.729,2.081c-0.236,0.699-0.475,1.047-0.714,1.047c-0.005,1.037-0.009,2.075-0.014,3.112c-1.052,0.013-2.102,0.024-3.152,0.04l0.006-0.012c-0.705-0.708-0.941-1.413-0.71-2.121C83.967,50.315,84.198,49.96,84.434,49.96z"/>
<path fill="#3F2F25" d="M87.603,50.006c-0.006-1.044-0.011-2.084-0.016-3.128c0.4,0.741,0.873,1.459,1.136,2.246C88.773,49.276,87.996,49.704,87.603,50.006z"/>
<path fill="#3F2F25" d="M87.587,46.881c-1.026-0.003-2.054,0.003-3.08,0.015c1.028-1.053,2.057-2.103,3.083-3.155C87.589,44.788,87.587,45.834,87.587,46.881z"/>
<path fill="#916D55" d="M59.467,12.5c-1.04,0-2.083,0-3.126,0c0.001-1.041,0.001-2.084,0.001-3.125c1.041,0,2.083,0,3.127,0C59.467,10.419,59.466,11.46,59.467,12.5z"/>
<path fill="#86654E" d="M53.202,40.597c0.012,0.873,0.068,1.743,0.172,2.604c-1.016,0.274-2.035,0.552-3.053,0.83c-0.84,0.802-1.828,1.327-2.97,1.578c-1.764-0.07-3.246-0.693-4.272-2.148c-0.037-1.013-0.316-1.987-0.821-2.872c0.007,0.021-1.454,0.29-1.454,0.29c-3.229-2.115-6.458-4.229-9.687-6.348c0.187-0.494,0.373-0.992,0.557-1.486c0.982-0.406,1.877-0.956,2.663-1.676c1.111-0.015,2.223-0.03,3.334-0.045c1.077,1.021,2.095,1.019,3.044-0.174l-0.099,0.083c0.846-0.961,1.886-1.575,3.154-1.792c1.271,0.195,2.318,0.788,3.142,1.776c2.098,1.05,4.196,2.097,6.294,3.146c0.003,1.046,0.008,2.09,0.011,3.137c-0.842,0.684-1.126,1.37-0.85,2.063C52.644,40.252,52.923,40.597,53.202,40.597z"/>
<path fill="#4B382C" d="M37.574,59.372c-1.031,0-2.062,0.003-3.091,0.009c1.015-2.105,2.028-4.208,3.042-6.314c-0.398-0.717-0.795-1.434-1.193-2.148c0.514-0.638,1.027-1.278,1.54-1.916c3.727-1.221,6.354-0.07,7.808,3.616c0.366,2.518-0.258,4.81-1.637,6.918C41.842,61.267,39.686,61.199,37.574,59.372z"/>
<path fill="#5D4738" d="M37.6,50.024c-0.006,1.013-0.03,2.029-0.075,3.042c-1.077-1.599-2.153-3.195-3.943-5.853c2.942-1.428,5.037-2.444,7.132-3.46c0.946,0.824,1.282,1.849,1.009,3.073C40.664,48.297,38.876,48.828,37.6,50.024z"/>
<path fill="#564031" d="M40.722,46.875c0-1.041-0.003-2.082-0.008-3.122c0.005-0.961,0.035-1.919,0.09-2.875l-0.092-0.506c1.099-0.65,2.143-0.571,3.131,0.235c1.028,1.089,2.057,2.179,3.083,3.269c0.861,0.842,1.167,1.703,0.926,2.585c-0.246,0.891-0.505,1.336-0.775,1.34C44.756,48.901,42.638,48.574,40.722,46.875z"/>
<path fill="#5D4637" d="M25.094,46.875c-0.001-2.084-0.003-4.166-0.005-6.25C25.091,42.709,25.093,44.791,25.094,46.875z"/>
<path fill="#7E5F4A" d="M28.243,34.302c1.066-0.992,2.131-1.981,3.197-2.973c0.647,0.601,0.883,1.218,0.709,1.858c-0.176,0.65-0.365,0.977-0.568,0.977c0,0-0.459,0.363-0.46,0.366C30.161,34.442,29.203,34.366,28.243,34.302z"/>
<path fill="#614A3B" d="M25.089,59.378c0.228-0.412,0.457-0.821,0.684-1.233c-0.227,0.412-0.455,0.821-0.682,1.233H25.089z"/>
<path fill="#553E2F" d="M25.093,34.402c1.025,0,2.046,0.052,3.064,0.162C27.134,34.509,26.113,34.454,25.093,34.402z"/>
<path fill="#8D6C56" d="M59.469,31.25c-1.042,1.043-2.085,2.084-3.125,3.125c-0.725-0.696-0.965-1.392-0.724-2.084c0.243-0.696,0.483-1.041,0.727-1.041C57.388,31.25,58.428,31.25,59.469,31.25z"/>
<path fill="#81604A" d="M56.347,31.25c-0.002,1.041-0.003,2.081-0.003,3.125c-1.044,0-2.086,0-3.13,0C54.259,33.331,55.303,32.291,56.347,31.25z"/>
<path fill="#8F6C52" d="M62.575,28.036c-1.036,1.071-2.07,2.143-3.106,3.217c0.001-0.979,0.004-1.959,0.011-2.936C60.509,28.195,61.541,28.101,62.575,28.036z"/>
<path fill="#A17D64" d="M46.912,31.216c-1.015,0.009-2.028-0.003-3.041-0.037c-0.705-0.681-0.966-1.382-0.781-2.109c0.186-0.735,0.391-1.104,0.609-1.108c1.117-0.879,2.203-0.802,3.264,0.104C46.946,29.117,46.929,30.167,46.912,31.216z"/>
<path fill="#684E3C" d="M46.963,28.067l-1.553,0.03l-1.553-0.006c-0.457-0.513-0.913-1.028-1.376-1.541c0.452-0.516,0.908-1.032,1.364-1.55l0.021,0.085c1.024-0.052,2.046-0.07,3.07-0.046C46.946,26.05,46.955,27.06,46.963,28.067z"/>
<path fill="#97745B" d="M40.716,31.149c-1.015,0.058-2.031,0.116-3.045,0.174C38.686,31.256,39.701,31.198,40.716,31.149z"/>
<path fill="#9A775E" d="M31.582,34.164c-0.155-0.94-0.203-1.886-0.142-2.835c0.967-0.034,1.935-0.021,2.899,0.04C33.419,32.3,32.501,33.231,31.582,34.164z"/>
<path fill="#99775F" d="M43.856,28.091c-0.006,1.028-0.001,2.06,0.014,3.088c-1.083,0.018-2.167,0.034-3.252,0.052c-0.032-1.062-0.063-2.124-0.094-3.186c-0.001-0.003,0.198,0.083,0.198,0.083c1.039-1.154,2.081-1.157,3.125-0.006L43.856,28.091z"/>
<path fill="#967158" d="M65.758,28.192c-1.078-0.027-2.155-0.055-3.236-0.083c0.059-1.01,0.124-2.02,0.202-3.027c2.026,0.046,4.051,0.089,6.075,0.134c0.737,0.635,0.987,1.273,0.753,1.92c-0.235,0.65-0.474,0.973-0.718,0.973l0.002,0.034C67.827,29.275,66.801,29.239,65.758,28.192z"/>
<path fill="#8F6D56" d="M68.834,28.109c0.005-0.964-0.007-1.932-0.035-2.893c1.029-0.106,2.055-0.082,3.075,0.073C70.86,26.233,69.848,27.169,68.834,28.109z"/>
<path fill="#8F6F59" d="M43.847,28.122c-1.044,0-2.086,0.003-3.126,0.003c0-1.041-0.001-2.082-0.005-3.125c1.042,0,2.084,0,3.128,0C43.841,26.041,43.843,27.081,43.847,28.122z"/>
<path fill="#5F4839" d="M46.963,46.872c0.001-1.001-0.009-1.999-0.034-2.997c1.129,0.052,2.26,0.101,3.391,0.152c-0.096,4.074-0.193,8.148-0.293,12.22c-1.02,1.043-2.04,2.087-3.06,3.128c-0.516,0.399-1.033,0.799-1.548,1.199c-0.522-0.394-1.044-0.784-1.564-1.178c0.006-2.091,0.012-4.182,0.018-6.274C45.637,51.4,44.531,48.264,46.963,46.872z"/>
<path fill="#3E2F25" d="M53.162,44.095c1.02-0.247,2.037-0.498,3.057-0.748c0.82,0.757,1.112,1.529,0.876,2.322c-0.238,0.803-0.49,1.206-0.753,1.206h-0.001C55.282,45.95,54.223,45.023,53.162,44.095z"/>
<path fill="#634A3A" d="M37.574,59.372c2.094,0.006,4.187,0.015,6.281,0.024l-0.037-0.028c1.191,0.91,2.113,2.091,3.146,3.156c-3.104-0.016-6.208-0.031-9.313-0.046C37.621,61.44,37.595,60.406,37.574,59.372z"/>
<path fill="#523C2C" d="M46.964,62.524c-1.048-1.05-2.096-2.103-3.145-3.156c1.048,0.004,2.098,0.004,3.147,0.007C46.966,60.425,46.966,61.475,46.964,62.524z"/>
<path fill="#624C3D" d="M40.716,78.128c0.003-1.041,0.005-2.078,0.005-3.116c0.396,0.738,0.867,1.456,1.126,2.243C41.895,77.404,41.114,77.828,40.716,78.128z"/>
<path fill="#423227" d="M65.712,53.118c-1.032,0-2.065,0-3.101-0.003c-1.021-0.787-1.528-1.828-1.522-3.122c-0.017-1.238-0.065-2.475-0.16-3.71c0.03-1.294,0.483-2.402,1.427-3.302c1.275-0.431,2.396-0.174,3.36,0.763c0.004,1.047,0.007,2.094,0.012,3.143c0.786,0.689,1.047,1.38,0.786,2.069c-0.261,0.687-0.523,1.031-0.786,1.031C65.723,51.031,65.717,52.075,65.712,53.118z"/>
<path fill="#30241C" d="M65.716,43.744l-1.562,0.006h-1.563c-0.813-0.702-1.097-1.416-0.854-2.148c0.246-0.739,0.501-1.108,0.763-1.108c0,0-0.028,0.006-0.028,0.003C63.552,41.58,64.634,42.66,65.716,43.744z"/>
<path fill="#3F3026" d="M84.465,59.368c-1.04,1.044-2.082,2.088-3.123,3.132c0.002-1.047,0.002-2.094,0.003-3.141C82.386,59.368,83.426,59.372,84.465,59.368z"/>
<path fill="#38291F" d="M68.65,37.466c1.081-0.967,2.162-1.935,3.243-2.899C70.811,35.535,69.731,36.499,68.65,37.466z"/>
<path fill="#3F2F25" d="M81.336,43.753c-1.038,1.056-2.075,2.109-3.114,3.165C79.261,45.862,80.298,44.809,81.336,43.753z"/>
<path fill="#38291F" d="M65.728,49.987c-0.005-1.034-0.005-2.069,0-3.101c0.394,0.735,0.86,1.45,1.118,2.234C66.895,49.271,66.121,49.691,65.728,49.987z"/>
<path fill="#3B2D23" d="M62.5,40.494c0.031,1.086,0.062,2.17,0.092,3.256c0,1.041,0,2.084,0,3.125c-1.042,1.568-2.084,1.568-3.125,0c-1.042,0-2.083,0-3.125,0c-0.041-1.175-0.082-2.347-0.123-3.525C58.312,42.395,60.406,41.446,62.5,40.494z"/>
<path fill="#805F49" d="M65.758,28.192c1.025-0.037,2.051-0.055,3.078-0.049c0.003,1.035,0.011,2.072,0.022,3.107C67.826,30.231,66.793,29.211,65.758,28.192z"/>
<path fill="#8C6C55" d="M53.202,40.597c-0.391-0.735-0.856-1.449-1.109-2.23c-0.049-0.153,0.728-0.571,1.124-0.867C53.222,38.531,53.217,39.566,53.202,40.597z"/>
<path fill="#3F2F25" d="M84.434,49.96c0.003,1.063,0.006,2.124,0.009,3.187c-0.399-0.754-0.879-1.483-1.135-2.283C83.255,50.698,84.036,50.269,84.434,49.96z"/>
<path fill="#36291F" d="M62.592,50c0.002,1.037,0.01,2.078,0.02,3.115c-0.761,0.296-1.523,0.593-2.494,0.968c-0.229-1.44-0.439-2.762-0.65-4.083C60.509,48.821,61.55,48.88,62.592,50z"/>
<path fill="#30251D" d="M62.592,50c-1.042,0-2.083,0-3.125,0c0-1.041,0-2.085,0-3.125c1.042,0,2.083,0,3.125,0C62.592,47.915,62.592,48.959,62.592,50z"/>
<path fill="#896952" d="M43.844,40.606c-1.044-0.076-2.087-0.156-3.131-0.235C41.757,40.448,42.8,40.527,43.844,40.606z"/>
<path fill="#5A4435" d="M46.963,46.872c-1.03,2.084-2.062,4.166-3.091,6.25c-2.09-1.032-4.181-2.066-6.271-3.098c1.041-1.05,2.082-2.1,3.122-3.149C42.802,46.872,44.883,46.872,46.963,46.872z"/>
</svg>